<svg width="15" height="15" viewBox="0 0 15 15" fill="none" xmlns="http://www.w3.org/2000/svg">
<path d="M11.6757 1.09375L12.1789 0.590496C12.0454 0.457025 11.8644 0.382041 11.6757 0.382041C11.4869 0.382041 11.3059 0.457025 11.1724 0.590496L11.6757 1.09375ZM13.6887 3.10678L14.1919 3.61003C14.4699 3.33209 14.4699 2.88146 14.1919 2.60352L13.6887 3.10678ZM6.6431 10.1524V10.8641C6.83186 10.8641 7.01289 10.7891 7.14636 10.6556L6.6431 10.1524ZM4.63008 8.13933L4.12682 7.63608C3.99335 7.76955 3.91837 7.95057 3.91837 8.13933H4.63008ZM4.63008 10.1524H3.91837C3.91837 10.5454 4.23701 10.8641 4.63008 10.8641V10.1524ZM13.8108 13.9045V14.6163C14.2039 14.6163 14.5225 14.2976 14.5225 13.9045H13.8108ZM1 13.9045H0.288289C0.288289 14.2976 0.606933 14.6163 1 14.6163L1 13.9045ZM1 1.09375V0.382039C0.606933 0.382039 0.288289 0.700683 0.288289 1.09375L1 1.09375ZM11.1724 1.59701L13.1854 3.61003L14.1919 2.60352L12.1789 0.590496L11.1724 1.59701ZM13.1854 2.60352L6.13985 9.6491L7.14636 10.6556L14.1919 3.61003L13.1854 2.60352ZM5.13334 8.64259L12.1789 1.59701L11.1724 0.590496L4.12682 7.63608L5.13334 8.64259ZM6.6431 9.44064H4.63008V10.8641H6.6431V9.44064ZM5.34179 10.1524V8.13933H3.91837V10.1524H5.34179ZM13.8108 13.1928H1V14.6163H13.8108V13.1928ZM1.71171 13.9045V1.09375H0.288289V13.9045H1.71171ZM1 1.80546H7.4054V0.382039H1V1.80546ZM13.0991 7.49915V13.9045H14.5225V7.49915H13.0991Z" fill="white"/>
</svg>
