<svg xmlns="http://www.w3.org/2000/svg" xmlns:xlink="http://www.w3.org/1999/xlink" width="412.223" height="327.782" viewBox="0 0 412.223 327.782">
  <defs>
    <linearGradient id="linear-gradient" x1="0.352" y1="0.267" x2="1.075" y2="0.852" gradientUnits="objectBoundingBox">
      <stop offset="0" stop-color="#fdfdfd"/>
      <stop offset="1" stop-color="#cbcbcb"/>
    </linearGradient>
  </defs>
  <g id="Group_10623" data-name="Group 10623" transform="translate(22186.656 7997.324)">
    <path id="Path_40656" data-name="Path 40656" d="M-567.509,740.633c47.352-7.976,89.03-33.369,106.765-42.816s64.155-17.19,64.155-17.19,63.17-5.5,70.539-18.9c4-7.269,4.266-15.192,3.075-23.044a150.754,150.754,0,0,0-5.759-23.568c-9.679-29.994-27.729-58.2-52.5-81.366-12.954-12.115-28.141-22.429-46.6-27.827a118.425,118.425,0,0,0-51.563-3.135,109.066,109.066,0,0,0-13.557,3.1c-20.212,5.308-38.489,15.816-51.416,29.944a92.152,92.152,0,0,0-13.218,19.337c-4.3,8.078-8.349,16.257-14.985,23.214-11.3,11.844-27.4,19.481-42.808,26.943-16.265,7.875-32.151,16.14-44.924,27.881-12.739,11.71-24.374,24.567-23.845,47.7s19.257,38.978,34,48.822S-614.861,748.609-567.509,740.633Z" transform="matrix(0.966, 0.259, -0.259, 0.966, -21333.32, -8304.461)" fill="url(#linear-gradient)"/>
    <g id="Group_10622" data-name="Group 10622" transform="translate(-22143.545 -7941)">
      <path id="Path_40653" data-name="Path 40653" d="M88.158,70.7l25.867,44.8a17.869,17.869,0,0,1,2.437,8.75h24.783a13,13,0,0,0,11.258-19.5L121.758,51.5a13,13,0,0,0-22.516,0Z" fill="#969696"/>
      <path id="Path_40654" data-name="Path 40654" d="M44.742,44.5a13,13,0,0,1,22.517,0L109.694,118a13,13,0,0,1-11.259,19.5H13.565A13,13,0,0,1,2.306,118Z" fill="#969696"/>
      <path id="Path_40655" data-name="Path 40655" d="M163,16A16,16,0,1,1,147,0,16,16,0,0,1,163,16Z" fill="#969696"/>
    </g>
  </g>
</svg>
