<?xml version="1.0" standalone="no"?>
<!DOCTYPE svg PUBLIC "-//W3C//DTD SVG 1.1//EN" "http://www.w3.org/Graphics/SVG/1.1/DTD/svg11.dtd" >
<svg xmlns="http://www.w3.org/2000/svg" xmlns:xlink="http://www.w3.org/1999/xlink" version="1.1">
<metadata>
Created by FontForge 20201107 at Sat Jul 15 12:17:09 2017
 By Jimmy Wärting
Copyright \(c\) 2015 by Kostas Bartsokas. All rights reserved.
</metadata>
<defs>
<font id="AvertaStdCY-Extrathin" horiz-adv-x="0" >
  <font-face 
    font-family="Averta Std CY Extrathin"
    font-weight="100"
    font-stretch="normal"
    units-per-em="1000"
    panose-1="0 0 2 0 0 0 0 0 0 0"
    ascent="800"
    descent="-200"
    x-height="484"
    cap-height="710"
    bbox="-660 -256 1337 1034"
    underline-thickness="18"
    underline-position="-78"
    stemh="22"
    stemv="22"
    unicode-range="U+000D-2E18"
  />
<missing-glyph horiz-adv-x="439" 
 />
    <glyph glyph-name=".notdef" horiz-adv-x="439" 
 />
    <glyph glyph-name="space" unicode=" " horiz-adv-x="280" 
 />
    <glyph glyph-name="A" unicode="A" horiz-adv-x="640" 
d="M29 0l275 710h29l278 -710h-25l-83 211h-367l-82 -211h-25zM145 234h349l-174 448h-2z" />
    <glyph glyph-name="Aacute" unicode="&#xc1;" horiz-adv-x="640" 
d="M301 795l113 124h30l-114 -124h-29zM29 0l275 710h29l278 -710h-25l-83 211h-367l-82 -211h-25zM145 234h349l-174 448h-2z" />
    <glyph glyph-name="Abreve" unicode="&#x102;" horiz-adv-x="640" 
d="M320 791c-62 0 -117 44 -122 113h21c4 -45 40 -91 101 -91s97 46 100 91h22c-6 -69 -60 -113 -122 -113zM29 0l275 710h29l278 -710h-25l-83 211h-367l-82 -211h-25zM145 234h349l-174 448h-2z" />
    <glyph glyph-name="uni1EAE" unicode="&#x1eae;" horiz-adv-x="640" 
d="M303 886l123 134h31l-125 -134h-29zM321 787c-66 0 -124 40 -129 102h22c4 -41 42 -82 107 -82s103 41 106 82h23c-6 -62 -63 -102 -129 -102zM29 0l275 710h29l278 -710h-25l-83 211h-367l-82 -211h-25zM145 234h349l-174 448h-2z" />
    <glyph glyph-name="uni1EB6" unicode="&#x1eb6;" horiz-adv-x="640" 
d="M320 791c-62 0 -117 44 -122 113h21c4 -45 40 -91 101 -91s97 46 100 91h22c-6 -69 -60 -113 -122 -113zM29 0l275 710h29l278 -710h-25l-83 211h-367l-82 -211h-25zM145 234h349l-174 448h-2zM319 -124c16 0 28 -12 28 -27c0 -17 -12 -27 -28 -27s-27 10 -27 27
c0 15 11 27 27 27z" />
    <glyph glyph-name="uni1EB0" unicode="&#x1eb0;" horiz-adv-x="640" 
d="M311 886l-125 134h31l123 -134h-29zM320 787c-66 0 -124 40 -129 102h22c4 -41 42 -82 107 -82s103 41 106 82h23c-6 -62 -63 -102 -129 -102zM29 0l275 710h29l278 -710h-25l-83 211h-367l-82 -211h-25zM145 234h349l-174 448h-2z" />
    <glyph glyph-name="uni1EB2" unicode="&#x1eb2;" horiz-adv-x="640" 
d="M294 891c36 26 84 52 84 84c0 31 -23 39 -54 39c-30 0 -65 -12 -81 -28l-5 22c25 16 57 26 86 26c41 0 74 -17 74 -61c0 -36 -47 -62 -73 -82h-31zM320 787c-66 0 -124 40 -129 102h22c4 -41 42 -82 107 -82s103 41 106 82h23c-6 -62 -63 -102 -129 -102zM29 0l275 710
h29l278 -710h-25l-83 211h-367l-82 -211h-25zM145 234h349l-174 448h-2z" />
    <glyph glyph-name="uni1EB4" unicode="&#x1eb4;" horiz-adv-x="640" 
d="M402 910c-32 0 -61 22 -87 41c-22 16 -43 28 -64 28c-28 0 -50 -22 -64 -61l-21 6c17 50 43 77 84 77c30 0 53 -16 78 -32c23 -15 47 -37 73 -37c24 0 48 19 60 62l21 -7c-16 -54 -49 -77 -80 -77zM320 787c-66 0 -124 40 -129 102h22c4 -41 42 -82 107 -82
s103 41 106 82h23c-6 -62 -63 -102 -129 -102zM29 0l275 710h29l278 -710h-25l-83 211h-367l-82 -211h-25zM145 234h349l-174 448h-2z" />
    <glyph glyph-name="uni01CD" unicode="&#x1cd;" horiz-adv-x="640" 
d="M306 795l-122 109h30l104 -92h2l107 92h29l-125 -109h-25zM29 0l275 710h29l278 -710h-25l-83 211h-367l-82 -211h-25zM145 234h349l-174 448h-2z" />
    <glyph glyph-name="Acircumflex" unicode="&#xc2;" horiz-adv-x="640" 
d="M184 795l125 109h25l122 -109h-30l-104 92h-2l-107 -92h-29zM29 0l275 710h29l278 -710h-25l-83 211h-367l-82 -211h-25zM145 234h349l-174 448h-2z" />
    <glyph glyph-name="uni1EA4" unicode="&#x1ea4;" horiz-adv-x="640" 
d="M447 856l123 135h31l-125 -135h-29zM184 795l125 109h25l122 -109h-30l-104 92h-2l-107 -92h-29zM29 0l275 710h29l278 -710h-25l-83 211h-367l-82 -211h-25zM145 234h349l-174 448h-2z" />
    <glyph glyph-name="uni1EAC" unicode="&#x1eac;" horiz-adv-x="640" 
d="M184 795l125 109h25l122 -109h-30l-104 92h-2l-107 -92h-29zM29 0l275 710h29l278 -710h-25l-83 211h-367l-82 -211h-25zM145 234h349l-174 448h-2zM319 -124c16 0 28 -12 28 -27c0 -17 -12 -27 -28 -27s-27 10 -27 27c0 15 11 27 27 27z" />
    <glyph glyph-name="uni1EA6" unicode="&#x1ea6;" horiz-adv-x="640" 
d="M478 855l-125 134h31l123 -134h-29zM184 795l125 109h25l122 -109h-30l-104 92h-2l-107 -92h-29zM29 0l275 710h29l278 -710h-25l-83 211h-367l-82 -211h-25zM145 234h349l-174 448h-2z" />
    <glyph glyph-name="uni1EA8" unicode="&#x1ea8;" horiz-adv-x="640" 
d="M440 856c39 27 90 55 90 88c0 32 -25 41 -58 41c-32 0 -70 -12 -86 -29l-6 22c27 17 61 28 92 28c43 0 79 -18 79 -64c0 -38 -50 -65 -78 -86h-33zM184 795l125 109h25l122 -109h-30l-104 92h-2l-107 -92h-29zM29 0l275 710h29l278 -710h-25l-83 211h-367l-82 -211h-25z
M145 234h349l-174 448h-2z" />
    <glyph glyph-name="uni1EAA" unicode="&#x1eaa;" horiz-adv-x="640" 
d="M405 923c-32 0 -61 22 -87 41c-22 16 -43 28 -64 28c-28 0 -50 -22 -64 -61l-21 6c17 50 43 77 84 77c30 0 53 -16 78 -32c23 -15 47 -37 73 -37c24 0 48 19 60 62l21 -7c-16 -54 -49 -77 -80 -77zM184 795l125 109h25l122 -109h-30l-104 92h-2l-107 -92h-29zM29 0
l275 710h29l278 -710h-25l-83 211h-367l-82 -211h-25zM145 234h349l-174 448h-2z" />
    <glyph glyph-name="Adieresis" unicode="&#xc4;" horiz-adv-x="640" 
d="M247 828c-16 0 -28 12 -28 27c0 17 12 27 28 27s27 -10 27 -27c0 -15 -11 -27 -27 -27zM394 828c-16 0 -28 12 -28 27c0 17 12 27 28 27s27 -10 27 -27c0 -15 -11 -27 -27 -27zM29 0l275 710h29l278 -710h-25l-83 211h-367l-82 -211h-25zM145 234h349l-174 448h-2z" />
    <glyph glyph-name="uni1EA0" unicode="&#x1ea0;" horiz-adv-x="640" 
d="M29 0l275 710h29l278 -710h-25l-83 211h-367l-82 -211h-25zM145 234h349l-174 448h-2zM319 -124c16 0 28 -12 28 -27c0 -17 -12 -27 -28 -27s-27 10 -27 27c0 15 11 27 27 27z" />
    <glyph glyph-name="Agrave" unicode="&#xc0;" horiz-adv-x="640" 
d="M307 795l-114 124h30l113 -124h-29zM29 0l275 710h29l278 -710h-25l-83 211h-367l-82 -211h-25zM145 234h349l-174 448h-2z" />
    <glyph glyph-name="uni1EA2" unicode="&#x1ea2;" horiz-adv-x="640" 
d="M304 784c41 29 94 58 94 93s-26 44 -60 44s-73 -13 -90 -31l-6 24c28 18 63 29 96 29c45 0 82 -19 82 -68c0 -40 -52 -69 -81 -91h-35zM29 0l275 710h29l278 -710h-25l-83 211h-367l-82 -211h-25zM145 234h349l-174 448h-2z" />
    <glyph glyph-name="Amacron" unicode="&#x100;" horiz-adv-x="640" 
d="M187 835v23h267v-23h-267zM29 0l275 710h29l278 -710h-25l-83 211h-367l-82 -211h-25zM145 234h349l-174 448h-2z" />
    <glyph glyph-name="Aogonek" unicode="&#x104;" horiz-adv-x="640" 
d="M652 -145l4 -23c-16 -8 -33 -13 -63 -13c-51 0 -84 26 -84 76c0 36 25 79 74 111l-80 205h-367l-82 -211h-25l275 710h29l278 -710c-48 -25 -79 -66 -79 -104c0 -31 18 -54 61 -54c29 0 41 4 59 13zM145 234h349l-174 448h-2z" />
    <glyph glyph-name="Aring" unicode="&#xc5;" horiz-adv-x="640" 
d="M320 785c-39 0 -73 34 -73 73c0 40 34 73 73 73c40 0 74 -33 74 -73c0 -39 -34 -73 -74 -73zM320 808c28 0 52 23 52 50c0 28 -24 51 -52 51s-51 -23 -51 -51c0 -27 23 -50 51 -50zM29 0l275 710h29l278 -710h-25l-83 211h-367l-82 -211h-25zM145 234h349l-174 448h-2z
" />
    <glyph glyph-name="Aringacute" unicode="&#x1fa;" horiz-adv-x="640" 
d="M320 785c-39 0 -73 34 -73 73c0 40 34 73 73 73c27 0 51 -15 64 -37l92 58h39l-123 -79c1 -5 2 -10 2 -15c0 -39 -34 -73 -74 -73zM320 909c-28 0 -51 -23 -51 -51c0 -27 23 -50 51 -50s52 23 52 50c0 28 -24 51 -52 51zM333 710l278 -710h-25l-83 211h-367l-82 -211h-25
l275 710h29zM145 234h349l-174 448h-2z" />
    <glyph glyph-name="Atilde" unicode="&#xc3;" horiz-adv-x="640" 
d="M398 795c-32 0 -61 22 -87 41c-22 16 -43 28 -64 28c-28 0 -50 -22 -64 -61l-21 6c17 50 43 77 84 77c30 0 53 -16 78 -32c23 -15 47 -37 73 -37c24 0 48 19 60 62l21 -7c-16 -54 -49 -77 -80 -77zM29 0l275 710h29l278 -710h-25l-83 211h-367l-82 -211h-25zM145 234h349
l-174 448h-2z" />
    <glyph glyph-name="AE" unicode="&#xc6;" horiz-adv-x="900" 
d="M5 0l412 710h428v-23h-389v-321h330v-23h-330v-320h409v-23h-432v211h-277l-123 -211h-28zM169 234h264v453h-1z" />
    <glyph glyph-name="AEacute" unicode="&#x1fc;" horiz-adv-x="900" 
d="M432 795l113 124h30l-114 -124h-29zM5 0l412 710h428v-23h-389v-321h330v-23h-330v-320h409v-23h-432v211h-277l-123 -211h-28zM169 234h264v453h-1z" />
    <glyph glyph-name="B" unicode="B" horiz-adv-x="610" 
d="M89 0v710h204c124 0 225 -43 225 -172c0 -76 -43 -143 -129 -166v-2c83 -12 163 -68 163 -182c0 -112 -77 -188 -245 -188h-218zM112 382h200c83 0 182 36 182 156c0 91 -58 149 -202 149h-180v-305zM112 23h199c128 0 217 52 217 162c0 111 -78 174 -217 174h-199v-336z
" />
    <glyph glyph-name="C" unicode="C" horiz-adv-x="714" 
d="M408 -3c-190 0 -346 125 -346 355c0 201 121 362 346 362c98 0 195 -40 271 -134l-19 -16c-71 90 -161 127 -252 127c-210 0 -322 -149 -322 -339c0 -216 143 -332 322 -332c115 0 193 51 252 125l19 -15c-63 -78 -146 -133 -271 -133z" />
    <glyph glyph-name="Cacute" unicode="&#x106;" horiz-adv-x="714" 
d="M378 795l113 124h30l-114 -124h-29zM408 -3c-190 0 -346 125 -346 355c0 201 121 362 346 362c98 0 195 -40 271 -134l-19 -16c-71 90 -161 127 -252 127c-210 0 -322 -149 -322 -339c0 -216 143 -332 322 -332c115 0 193 51 252 125l19 -15c-63 -78 -146 -133 -271 -133
z" />
    <glyph glyph-name="Ccaron" unicode="&#x10c;" horiz-adv-x="714" 
d="M394 795l-122 109h30l104 -92h2l107 92h29l-125 -109h-25zM408 -3c-190 0 -346 125 -346 355c0 201 121 362 346 362c98 0 195 -40 271 -134l-19 -16c-71 90 -161 127 -252 127c-210 0 -322 -149 -322 -339c0 -216 143 -332 322 -332c115 0 193 51 252 125l19 -15
c-63 -78 -146 -133 -271 -133z" />
    <glyph glyph-name="Ccedilla" unicode="&#xc7;" horiz-adv-x="714" 
d="M408 20c115 0 193 51 252 125l19 -15c-63 -78 -146 -133 -271 -133h-6l-13 -31v-1c38 -3 80 -29 80 -77c0 -38 -30 -72 -85 -72c-16 0 -34 2 -49 6v23c13 -4 27 -7 45 -7c35 0 66 16 66 51c0 28 -26 57 -82 57l1 19l15 33c-177 12 -318 135 -318 354
c0 201 121 362 346 362c98 0 195 -40 271 -134l-19 -16c-71 90 -161 127 -252 127c-210 0 -322 -149 -322 -339c0 -216 143 -332 322 -332z" />
    <glyph glyph-name="Ccircumflex" unicode="&#x108;" horiz-adv-x="714" 
d="M272 795l125 109h25l122 -109h-30l-104 92h-2l-107 -92h-29zM408 -3c-190 0 -346 125 -346 355c0 201 121 362 346 362c98 0 195 -40 271 -134l-19 -16c-71 90 -161 127 -252 127c-210 0 -322 -149 -322 -339c0 -216 143 -332 322 -332c115 0 193 51 252 125l19 -15
c-63 -78 -146 -133 -271 -133z" />
    <glyph glyph-name="Cdotaccent" unicode="&#x10a;" horiz-adv-x="714" 
d="M408 828c-16 0 -28 12 -28 27c0 17 12 27 28 27s27 -10 27 -27c0 -15 -11 -27 -27 -27zM408 -3c-190 0 -346 125 -346 355c0 201 121 362 346 362c98 0 195 -40 271 -134l-19 -16c-71 90 -161 127 -252 127c-210 0 -322 -149 -322 -339c0 -216 143 -332 322 -332
c115 0 193 51 252 125l19 -15c-63 -78 -146 -133 -271 -133z" />
    <glyph glyph-name="D" unicode="D" horiz-adv-x="706" 
d="M89 0v710h187c224 0 369 -146 369 -356s-143 -354 -366 -354h-190zM112 23h166c215 0 343 136 343 331c0 197 -136 333 -346 333h-163v-664z" />
    <glyph glyph-name="Eth" unicode="&#xd0;" horiz-adv-x="706" 
d="M276 710c224 0 369 -146 369 -356s-143 -354 -366 -354h-190v346h-86v23h86v341h187zM278 23c215 0 343 136 343 331c0 197 -136 333 -346 333h-163v-318h232v-23h-232v-323h166z" />
    <glyph glyph-name="Dcaron" unicode="&#x10e;" horiz-adv-x="706" 
d="M308 795l-122 109h30l104 -92h2l107 92h29l-125 -109h-25zM89 0v710h187c224 0 369 -146 369 -356s-143 -354 -366 -354h-190zM112 23h166c215 0 343 136 343 331c0 197 -136 333 -346 333h-163v-664z" />
    <glyph glyph-name="Dcroat" unicode="&#x110;" horiz-adv-x="706" 
d="M276 710c224 0 369 -146 369 -356s-143 -354 -366 -354h-190v346h-86v23h86v341h187zM278 23c215 0 343 136 343 331c0 197 -136 333 -346 333h-163v-318h232v-23h-232v-323h166z" />
    <glyph glyph-name="uni1E0C" unicode="&#x1e0c;" horiz-adv-x="706" 
d="M89 0v710h187c224 0 369 -146 369 -356s-143 -354 -366 -354h-190zM112 23h166c215 0 343 136 343 331c0 197 -136 333 -346 333h-163v-664zM322 -124c16 0 28 -12 28 -27c0 -17 -12 -27 -28 -27s-27 10 -27 27c0 15 11 27 27 27z" />
    <glyph glyph-name="uni1E0E" unicode="&#x1e0e;" horiz-adv-x="706" 
d="M89 0v710h187c224 0 369 -146 369 -356s-143 -354 -366 -354h-190zM112 23h166c215 0 343 136 343 331c0 197 -136 333 -346 333h-163v-664zM456 -170h-267v23h267v-23z" />
    <glyph glyph-name="E" unicode="E" horiz-adv-x="565" 
d="M89 0v710h412v-23h-389v-320h327v-23h-327v-321h410v-23h-433z" />
    <glyph glyph-name="Eacute" unicode="&#xc9;" horiz-adv-x="565" 
d="M216 795l113 124h30l-114 -124h-29zM89 0v710h412v-23h-389v-320h327v-23h-327v-321h410v-23h-433z" />
    <glyph glyph-name="Ebreve" unicode="&#x114;" horiz-adv-x="565" 
d="M286 791c-62 0 -117 44 -122 113h21c4 -45 40 -91 101 -91s97 46 100 91h22c-6 -69 -60 -113 -122 -113zM89 0v710h412v-23h-389v-320h327v-23h-327v-321h410v-23h-433z" />
    <glyph glyph-name="Ecaron" unicode="&#x11a;" horiz-adv-x="565" 
d="M272 795l-122 109h30l104 -92h2l107 92h29l-125 -109h-25zM89 0v710h412v-23h-389v-320h327v-23h-327v-321h410v-23h-433z" />
    <glyph glyph-name="Ecircumflex" unicode="&#xca;" horiz-adv-x="565" 
d="M150 795l125 109h25l122 -109h-30l-104 92h-2l-107 -92h-29zM89 0v710h412v-23h-389v-320h327v-23h-327v-321h410v-23h-433z" />
    <glyph glyph-name="uni1EBE" unicode="&#x1ebe;" horiz-adv-x="565" 
d="M413 856l123 135h31l-125 -135h-29zM150 795l125 109h25l122 -109h-30l-104 92h-2l-107 -92h-29zM89 0v710h412v-23h-389v-320h327v-23h-327v-321h410v-23h-433z" />
    <glyph glyph-name="uni1EC6" unicode="&#x1ec6;" horiz-adv-x="565" 
d="M150 795l125 109h25l122 -109h-30l-104 92h-2l-107 -92h-29zM89 0v710h412v-23h-389v-320h327v-23h-327v-321h410v-23h-433zM300 -124c16 0 28 -12 28 -27c0 -17 -12 -27 -28 -27s-27 10 -27 27c0 15 11 27 27 27z" />
    <glyph glyph-name="uni1EC0" unicode="&#x1ec0;" horiz-adv-x="565" 
d="M444 855l-125 134h31l123 -134h-29zM150 795l125 109h25l122 -109h-30l-104 92h-2l-107 -92h-29zM89 0v710h412v-23h-389v-320h327v-23h-327v-321h410v-23h-433z" />
    <glyph glyph-name="uni1EC2" unicode="&#x1ec2;" horiz-adv-x="565" 
d="M406 856c39 27 90 55 90 88c0 32 -25 41 -58 41c-32 0 -70 -12 -86 -29l-6 22c27 17 61 28 92 28c43 0 79 -18 79 -64c0 -38 -50 -65 -78 -86h-33zM150 795l125 109h25l122 -109h-30l-104 92h-2l-107 -92h-29zM89 0v710h412v-23h-389v-320h327v-23h-327v-321h410v-23
h-433z" />
    <glyph glyph-name="uni1EC4" unicode="&#x1ec4;" horiz-adv-x="565" 
d="M371 923c-32 0 -61 22 -87 41c-22 16 -43 28 -64 28c-28 0 -50 -22 -64 -61l-21 6c17 50 43 77 84 77c30 0 53 -16 78 -32c23 -15 47 -37 73 -37c24 0 48 19 60 62l21 -7c-16 -54 -49 -77 -80 -77zM150 795l125 109h25l122 -109h-30l-104 92h-2l-107 -92h-29zM89 0v710
h412v-23h-389v-320h327v-23h-327v-321h410v-23h-433z" />
    <glyph glyph-name="Edieresis" unicode="&#xcb;" horiz-adv-x="565" 
d="M213 828c-16 0 -28 12 -28 27c0 17 12 27 28 27s27 -10 27 -27c0 -15 -11 -27 -27 -27zM360 828c-16 0 -28 12 -28 27c0 17 12 27 28 27s27 -10 27 -27c0 -15 -11 -27 -27 -27zM89 0v710h412v-23h-389v-320h327v-23h-327v-321h410v-23h-433z" />
    <glyph glyph-name="Edotaccent" unicode="&#x116;" horiz-adv-x="565" 
d="M286 828c-16 0 -28 12 -28 27c0 17 12 27 28 27s27 -10 27 -27c0 -15 -11 -27 -27 -27zM89 0v710h412v-23h-389v-320h327v-23h-327v-321h410v-23h-433z" />
    <glyph glyph-name="uni1EB8" unicode="&#x1eb8;" horiz-adv-x="565" 
d="M89 0v710h412v-23h-389v-320h327v-23h-327v-321h410v-23h-433zM300 -124c16 0 28 -12 28 -27c0 -17 -12 -27 -28 -27s-27 10 -27 27c0 15 11 27 27 27z" />
    <glyph glyph-name="Egrave" unicode="&#xc8;" horiz-adv-x="565" 
d="M323 795l-114 124h30l113 -124h-29zM89 0v710h412v-23h-389v-320h327v-23h-327v-321h410v-23h-433z" />
    <glyph glyph-name="uni1EBA" unicode="&#x1eba;" horiz-adv-x="565" 
d="M270 784c41 29 94 58 94 93s-26 44 -60 44s-73 -13 -90 -31l-6 24c28 18 63 29 96 29c45 0 82 -19 82 -68c0 -40 -52 -69 -81 -91h-35zM89 0v710h412v-23h-389v-320h327v-23h-327v-321h410v-23h-433z" />
    <glyph glyph-name="Emacron" unicode="&#x112;" horiz-adv-x="565" 
d="M153 835v23h267v-23h-267zM89 0v710h412v-23h-389v-320h327v-23h-327v-321h410v-23h-433z" />
    <glyph glyph-name="Eogonek" unicode="&#x118;" horiz-adv-x="565" 
d="M563 -145l4 -23c-16 -8 -33 -13 -63 -13c-51 0 -84 26 -84 76c0 34 22 74 65 105h-396v710h412v-23h-389v-320h327v-23h-327v-321h410v-23c-48 -25 -79 -66 -79 -104c0 -31 18 -54 61 -54c29 0 41 4 59 13z" />
    <glyph glyph-name="uni1EBC" unicode="&#x1ebc;" horiz-adv-x="565" 
d="M364 795c-32 0 -61 22 -87 41c-22 16 -43 28 -64 28c-28 0 -50 -22 -64 -61l-21 6c17 50 43 77 84 77c30 0 53 -16 78 -32c23 -15 47 -37 73 -37c24 0 48 19 60 62l21 -7c-16 -54 -49 -77 -80 -77zM89 0v710h412v-23h-389v-320h327v-23h-327v-321h410v-23h-433z" />
    <glyph glyph-name="F" unicode="F" horiz-adv-x="548" 
d="M89 0v710h432v-23h-409v-322h353v-23h-353v-342h-23z" />
    <glyph glyph-name="G" unicode="G" horiz-adv-x="760" 
d="M409 -3c-204 0 -347 146 -347 357c0 214 143 360 347 360c92 0 181 -24 258 -99l-16 -16c-72 69 -153 92 -242 92c-191 0 -323 -136 -323 -337c0 -198 132 -334 323 -334c100 0 187 27 250 81v217h-269v23h292v-251c-69 -62 -164 -93 -273 -93z" />
    <glyph glyph-name="Gbreve" unicode="&#x11e;" horiz-adv-x="760" 
d="M404 791c-62 0 -117 44 -122 113h21c4 -45 40 -91 101 -91s97 46 100 91h22c-6 -69 -60 -113 -122 -113zM409 -3c-204 0 -347 146 -347 357c0 214 143 360 347 360c92 0 181 -24 258 -99l-16 -16c-72 69 -153 92 -242 92c-191 0 -323 -136 -323 -337
c0 -198 132 -334 323 -334c100 0 187 27 250 81v217h-269v23h292v-251c-69 -62 -164 -93 -273 -93z" />
    <glyph glyph-name="Gcaron" unicode="&#x1e6;" horiz-adv-x="760" 
d="M390 795l-122 109h30l104 -92h2l107 92h29l-125 -109h-25zM409 -3c-204 0 -347 146 -347 357c0 214 143 360 347 360c92 0 181 -24 258 -99l-16 -16c-72 69 -153 92 -242 92c-191 0 -323 -136 -323 -337c0 -198 132 -334 323 -334c100 0 187 27 250 81v217h-269v23h292
v-251c-69 -62 -164 -93 -273 -93z" />
    <glyph glyph-name="Gcircumflex" unicode="&#x11c;" horiz-adv-x="760" 
d="M268 795l125 109h25l122 -109h-30l-104 92h-2l-107 -92h-29zM409 -3c-204 0 -347 146 -347 357c0 214 143 360 347 360c92 0 181 -24 258 -99l-16 -16c-72 69 -153 92 -242 92c-191 0 -323 -136 -323 -337c0 -198 132 -334 323 -334c100 0 187 27 250 81v217h-269v23h292
v-251c-69 -62 -164 -93 -273 -93z" />
    <glyph glyph-name="Gcommaaccent" unicode="&#x122;" horiz-adv-x="760" 
d="M409 -3c-204 0 -347 146 -347 357c0 214 143 360 347 360c92 0 181 -24 258 -99l-16 -16c-72 69 -153 92 -242 92c-191 0 -323 -136 -323 -337c0 -198 132 -334 323 -334c100 0 187 27 250 81v217h-269v23h292v-251c-69 -62 -164 -93 -273 -93zM328 -199l-8 18
c59 3 68 35 68 70c0 18 -2 38 -5 56h22c3 -17 5 -37 5 -55c0 -45 -18 -85 -82 -89z" />
    <glyph glyph-name="Gdotaccent" unicode="&#x120;" horiz-adv-x="760" 
d="M404 828c-16 0 -28 12 -28 27c0 17 12 27 28 27s27 -10 27 -27c0 -15 -11 -27 -27 -27zM409 -3c-204 0 -347 146 -347 357c0 214 143 360 347 360c92 0 181 -24 258 -99l-16 -16c-72 69 -153 92 -242 92c-191 0 -323 -136 -323 -337c0 -198 132 -334 323 -334
c100 0 187 27 250 81v217h-269v23h292v-251c-69 -62 -164 -93 -273 -93z" />
    <glyph glyph-name="uni1E20" unicode="&#x1e20;" horiz-adv-x="760" 
d="M271 835v23h267v-23h-267zM409 -3c-204 0 -347 146 -347 357c0 214 143 360 347 360c92 0 181 -24 258 -99l-16 -16c-72 69 -153 92 -242 92c-191 0 -323 -136 -323 -337c0 -198 132 -334 323 -334c100 0 187 27 250 81v217h-269v23h292v-251c-69 -62 -164 -93 -273 -93z
" />
    <glyph glyph-name="H" unicode="H" horiz-adv-x="692" 
d="M89 0v710h23v-364h468v364h23v-710h-23v323h-468v-323h-23z" />
    <glyph glyph-name="Hbar" unicode="&#x126;" horiz-adv-x="692" 
d="M672 565v-22h-69v-543h-23v323h-468v-323h-23v543h-77v22h77v145h23v-145h468v145h23v-145h69zM580 346v197h-468v-197h468z" />
    <glyph glyph-name="uni1E2A" unicode="&#x1e2a;" horiz-adv-x="692" 
d="M89 0v710h23v-364h468v364h23v-710h-23v323h-468v-323h-23zM345 -207c-62 0 -116 44 -122 127h22c3 -59 39 -105 100 -105s97 46 101 105h21c-5 -83 -60 -127 -122 -127z" />
    <glyph glyph-name="Hcircumflex" unicode="&#x124;" horiz-adv-x="692" 
d="M209 795l125 109h25l122 -109h-30l-104 92h-2l-107 -92h-29zM89 0v710h23v-364h468v364h23v-710h-23v323h-468v-323h-23z" />
    <glyph glyph-name="uni1E24" unicode="&#x1e24;" horiz-adv-x="692" 
d="M89 0v710h23v-364h468v364h23v-710h-23v323h-468v-323h-23zM345 -124c16 0 28 -12 28 -27c0 -17 -12 -27 -28 -27s-27 10 -27 27c0 15 11 27 27 27z" />
    <glyph glyph-name="I" unicode="I" horiz-adv-x="215" 
d="M96 0v710h23v-710h-23z" />
    <glyph glyph-name="IJ" unicode="&#x132;" horiz-adv-x="682" 
d="M96 0v710h23v-710h-23zM427 -3c-57 0 -131 32 -186 94l14 18c52 -56 111 -89 172 -89c92 0 154 50 154 193v497h23v-502c0 -146 -64 -211 -177 -211z" />
    <glyph glyph-name="Iacute" unicode="&#xcd;" horiz-adv-x="215" 
d="M96 795l113 124h30l-114 -124h-29zM96 0v710h23v-710h-23z" />
    <glyph glyph-name="Ibreve" unicode="&#x12c;" horiz-adv-x="215" 
d="M108 791c-62 0 -117 44 -122 113h21c4 -45 40 -91 101 -91s97 46 100 91h22c-6 -69 -60 -113 -122 -113zM96 0v710h23v-710h-23z" />
    <glyph glyph-name="uni01CF" unicode="&#x1cf;" horiz-adv-x="215" 
d="M94 795l-122 109h30l104 -92h2l107 92h29l-125 -109h-25zM96 0v710h23v-710h-23z" />
    <glyph glyph-name="Icircumflex" unicode="&#xce;" horiz-adv-x="215" 
d="M-28 795l125 109h25l122 -109h-30l-104 92h-2l-107 -92h-29zM96 0v710h23v-710h-23z" />
    <glyph glyph-name="Idieresis" unicode="&#xcf;" horiz-adv-x="215" 
d="M35 828c-16 0 -28 12 -28 27c0 17 12 27 28 27s27 -10 27 -27c0 -15 -11 -27 -27 -27zM182 828c-16 0 -28 12 -28 27c0 17 12 27 28 27s27 -10 27 -27c0 -15 -11 -27 -27 -27zM96 0v710h23v-710h-23z" />
    <glyph glyph-name="Idotaccent" unicode="&#x130;" horiz-adv-x="215" 
d="M108 828c-16 0 -28 12 -28 27c0 17 12 27 28 27s27 -10 27 -27c0 -15 -11 -27 -27 -27zM96 0v710h23v-710h-23z" />
    <glyph glyph-name="uni1ECA" unicode="&#x1eca;" horiz-adv-x="215" 
d="M96 0v710h23v-710h-23zM108 -124c16 0 28 -12 28 -27c0 -17 -12 -27 -28 -27s-27 10 -27 27c0 15 11 27 27 27z" />
    <glyph glyph-name="Igrave" unicode="&#xcc;" horiz-adv-x="215" 
d="M90 795l-114 124h30l113 -124h-29zM96 0v710h23v-710h-23z" />
    <glyph glyph-name="uni1EC8" unicode="&#x1ec8;" horiz-adv-x="215" 
d="M92 784c41 29 94 58 94 93s-26 44 -60 44s-73 -13 -90 -31l-6 24c28 18 63 29 96 29c45 0 82 -19 82 -68c0 -40 -52 -69 -81 -91h-35zM96 0v710h23v-710h-23z" />
    <glyph glyph-name="Imacron" unicode="&#x12a;" horiz-adv-x="215" 
d="M-25 835v23h267v-23h-267zM96 0v710h23v-710h-23z" />
    <glyph glyph-name="Iogonek" unicode="&#x12e;" horiz-adv-x="215" 
d="M160 -145l4 -23c-16 -8 -33 -13 -63 -13c-51 0 -84 26 -84 76c0 37 26 82 79 114v701h23v-710c-48 -25 -79 -66 -79 -104c0 -31 18 -54 61 -54c29 0 41 4 59 13z" />
    <glyph glyph-name="Itilde" unicode="&#x128;" horiz-adv-x="215" 
d="M186 795c-32 0 -61 22 -87 41c-22 16 -43 28 -64 28c-28 0 -50 -22 -64 -61l-21 6c17 50 43 77 84 77c30 0 53 -16 78 -32c23 -15 47 -37 73 -37c24 0 48 19 60 62l21 -7c-16 -54 -49 -77 -80 -77zM96 0v710h23v-710h-23z" />
    <glyph glyph-name="J" unicode="J" horiz-adv-x="467" 
d="M212 -3c-57 0 -131 32 -186 94l14 18c52 -56 111 -89 172 -89c92 0 154 50 154 193v497h23v-502c0 -146 -64 -211 -177 -211z" />
    <glyph glyph-name="uni00A40301" horiz-adv-x="467" 
d="M361 795l113 124h30l-114 -124h-29zM212 -3c-57 0 -131 32 -186 94l14 18c52 -56 111 -89 172 -89c92 0 154 50 154 193v497h23v-502c0 -146 -64 -211 -177 -211z" />
    <glyph glyph-name="Jcircumflex" unicode="&#x134;" horiz-adv-x="467" 
d="M243 795l125 109h25l122 -109h-30l-104 92h-2l-107 -92h-29zM212 -3c-57 0 -131 32 -186 94l14 18c52 -56 111 -89 172 -89c92 0 154 50 154 193v497h23v-502c0 -146 -64 -211 -177 -211z" />
    <glyph glyph-name="K" unicode="K" horiz-adv-x="612" 
d="M89 0v710h23v-483h2l418 483h31l-291 -336l296 -374h-30l-281 357l-145 -168v-189h-23z" />
    <glyph glyph-name="Kcommaaccent" unicode="&#x136;" horiz-adv-x="612" 
d="M89 0v710h23v-483h2l418 483h31l-291 -336l296 -374h-30l-281 357l-145 -168v-189h-23zM243 -199l-8 18c59 3 68 35 68 70c0 18 -2 38 -5 56h22c3 -17 5 -37 5 -55c0 -45 -18 -85 -82 -89z" />
    <glyph glyph-name="L" unicode="L" horiz-adv-x="528" 
d="M89 0v710h23v-687h394v-23h-417z" />
    <glyph glyph-name="Lacute" unicode="&#x139;" horiz-adv-x="528" 
d="M185 795l113 124h30l-114 -124h-29zM89 0v710h23v-687h394v-23h-417z" />
    <glyph glyph-name="Lcaron" unicode="&#x13d;" horiz-adv-x="528" 
d="M274 596l25 158h27l-32 -158h-20zM89 0v710h23v-687h394v-23h-417z" />
    <glyph glyph-name="Lcommaaccent" unicode="&#x13b;" horiz-adv-x="528" 
d="M89 0v710h23v-687h394v-23h-417zM220 -199l-8 18c59 3 68 35 68 70c0 18 -2 38 -5 56h22c3 -17 5 -37 5 -55c0 -45 -18 -85 -82 -89z" />
    <glyph glyph-name="Ldot" unicode="&#x13f;" horiz-adv-x="528" 
d="M89 0v710h23v-687h394v-23h-417zM372 309c-17 0 -29 12 -29 29s12 28 29 28s29 -11 29 -28s-12 -29 -29 -29z" />
    <glyph glyph-name="uni1E36" unicode="&#x1e36;" horiz-adv-x="528" 
d="M89 0v710h23v-687h394v-23h-417zM298 -124c16 0 28 -12 28 -27c0 -17 -12 -27 -28 -27s-27 10 -27 27c0 15 11 27 27 27z" />
    <glyph glyph-name="uni1E38" unicode="&#x1e38;" horiz-adv-x="528" 
d="M122 835v23h267v-23h-267zM89 0v710h23v-687h394v-23h-417zM298 -124c16 0 28 -12 28 -27c0 -17 -12 -27 -28 -27s-27 10 -27 27c0 15 11 27 27 27z" />
    <glyph glyph-name="uni1E3A" unicode="&#x1e3a;" horiz-adv-x="528" 
d="M89 0v710h23v-687h394v-23h-417zM432 -170h-267v23h267v-23z" />
    <glyph glyph-name="Lslash" unicode="&#x141;" horiz-adv-x="558" 
d="M142 23h394v-23h-417v304l-96 -41v26l96 41v380h23v-370l119 50v-25l-119 -51v-291z" />
    <glyph glyph-name="M" unicode="M" horiz-adv-x="853" 
d="M89 0v710h24l313 -525h2l312 525h23v-710h-23v665h-1l-302 -510h-21l-303 510h-1v-665h-23z" />
    <glyph glyph-name="uni1E42" unicode="&#x1e42;" horiz-adv-x="853" 
d="M89 0v710h24l313 -525h2l312 525h23v-710h-23v665h-1l-302 -510h-21l-303 510h-1v-665h-23zM424 -124c16 0 28 -12 28 -27c0 -17 -12 -27 -28 -27s-27 10 -27 27c0 15 11 27 27 27z" />
    <glyph glyph-name="N" unicode="N" horiz-adv-x="728" 
d="M89 0v710h22l503 -670h1v670h23v-710h-23l-502 669h-1v-669h-23z" />
    <glyph glyph-name="Nacute" unicode="&#x143;" horiz-adv-x="728" 
d="M294 795l113 124h30l-114 -124h-29zM89 0v710h22l503 -670h1v670h23v-710h-23l-502 669h-1v-669h-23z" />
    <glyph glyph-name="Ncaron" unicode="&#x147;" horiz-adv-x="728" 
d="M350 795l-122 109h30l104 -92h2l107 92h29l-125 -109h-25zM89 0v710h22l503 -670h1v670h23v-710h-23l-502 669h-1v-669h-23z" />
    <glyph glyph-name="Ncommaaccent" unicode="&#x145;" horiz-adv-x="728" 
d="M89 0v710h22l503 -670h1v670h23v-710h-23l-502 669h-1v-669h-23zM299 -199l-8 18c59 3 68 35 68 70c0 18 -2 38 -5 56h22c3 -17 5 -37 5 -55c0 -45 -18 -85 -82 -89z" />
    <glyph glyph-name="uni1E44" unicode="&#x1e44;" horiz-adv-x="728" 
d="M364 828c-16 0 -28 12 -28 27c0 17 12 27 28 27s27 -10 27 -27c0 -15 -11 -27 -27 -27zM89 0v710h22l503 -670h1v670h23v-710h-23l-502 669h-1v-669h-23z" />
    <glyph glyph-name="uni1E46" unicode="&#x1e46;" horiz-adv-x="728" 
d="M89 0v710h22l503 -670h1v670h23v-710h-23l-502 669h-1v-669h-23zM377 -124c16 0 28 -12 28 -27c0 -17 -12 -27 -28 -27s-27 10 -27 27c0 15 11 27 27 27z" />
    <glyph glyph-name="Eng" unicode="&#x14a;" horiz-adv-x="727" 
d="M614 710h23v-735c0 -120 -41 -176 -152 -176c-26 0 -53 5 -72 14l2 23c19 -10 45 -15 71 -15c72 0 128 24 128 154v26l-501 668h-1v-669h-23v710h22l501 -670l2 1v669z" />
    <glyph glyph-name="uni019D" unicode="&#x19d;" horiz-adv-x="728" 
d="M615 710h23v-710h-23l-502 669h-1v-754c0 -60 -21 -116 -102 -116c-16 0 -42 4 -62 14l2 23c20 -12 45 -15 62 -15c45 0 77 25 77 94v795h23v-1l502 -669h1v670z" />
    <glyph glyph-name="uni1E48" unicode="&#x1e48;" horiz-adv-x="728" 
d="M89 0v710h22l503 -670h1v670h23v-710h-23l-502 669h-1v-669h-23zM511 -170h-267v23h267v-23z" />
    <glyph glyph-name="Ntilde" unicode="&#xd1;" horiz-adv-x="728" 
d="M442 795c-32 0 -61 22 -87 41c-22 16 -43 28 -64 28c-28 0 -50 -22 -64 -61l-21 6c17 50 43 77 84 77c30 0 53 -16 78 -32c23 -15 47 -37 73 -37c24 0 48 19 60 62l21 -7c-16 -54 -49 -77 -80 -77zM89 0v710h22l503 -670h1v670h23v-710h-23l-502 669h-1v-669h-23z" />
    <glyph glyph-name="O" unicode="O" horiz-adv-x="822" 
d="M413 -3c-194 0 -351 143 -351 359c0 215 157 358 351 358c190 0 347 -143 347 -358c0 -216 -157 -359 -347 -359zM413 20c177 0 323 134 323 336c0 201 -146 335 -323 335c-181 0 -327 -134 -327 -335c0 -202 146 -336 327 -336z" />
    <glyph glyph-name="Oacute" unicode="&#xd3;" horiz-adv-x="822" 
d="M378 795l113 124h30l-114 -124h-29zM413 -3c-194 0 -351 143 -351 359c0 215 157 358 351 358c190 0 347 -143 347 -358c0 -216 -157 -359 -347 -359zM413 20c177 0 323 134 323 336c0 201 -146 335 -323 335c-181 0 -327 -134 -327 -335c0 -202 146 -336 327 -336z" />
    <glyph glyph-name="Obreve" unicode="&#x14e;" horiz-adv-x="822" 
d="M412 791c-62 0 -117 44 -122 113h21c4 -45 40 -91 101 -91s97 46 100 91h22c-6 -69 -60 -113 -122 -113zM413 -3c-194 0 -351 143 -351 359c0 215 157 358 351 358c190 0 347 -143 347 -358c0 -216 -157 -359 -347 -359zM413 20c177 0 323 134 323 336
c0 201 -146 335 -323 335c-181 0 -327 -134 -327 -335c0 -202 146 -336 327 -336z" />
    <glyph glyph-name="uni01D1" unicode="&#x1d1;" horiz-adv-x="822" 
d="M398 795l-122 109h30l104 -92h2l107 92h29l-125 -109h-25zM413 -3c-194 0 -351 143 -351 359c0 215 157 358 351 358c190 0 347 -143 347 -358c0 -216 -157 -359 -347 -359zM413 20c177 0 323 134 323 336c0 201 -146 335 -323 335c-181 0 -327 -134 -327 -335
c0 -202 146 -336 327 -336z" />
    <glyph glyph-name="Ocircumflex" unicode="&#xd4;" horiz-adv-x="822" 
d="M276 795l125 109h25l122 -109h-30l-104 92h-2l-107 -92h-29zM413 -3c-194 0 -351 143 -351 359c0 215 157 358 351 358c190 0 347 -143 347 -358c0 -216 -157 -359 -347 -359zM413 20c177 0 323 134 323 336c0 201 -146 335 -323 335c-181 0 -327 -134 -327 -335
c0 -202 146 -336 327 -336z" />
    <glyph glyph-name="uni1ED0" unicode="&#x1ed0;" horiz-adv-x="822" 
d="M539 856l123 135h31l-125 -135h-29zM276 795l125 109h25l122 -109h-30l-104 92h-2l-107 -92h-29zM413 -3c-194 0 -351 143 -351 359c0 215 157 358 351 358c190 0 347 -143 347 -358c0 -216 -157 -359 -347 -359zM413 20c177 0 323 134 323 336c0 201 -146 335 -323 335
c-181 0 -327 -134 -327 -335c0 -202 146 -336 327 -336z" />
    <glyph glyph-name="uni1ED8" unicode="&#x1ed8;" horiz-adv-x="822" 
d="M276 795l125 109h25l122 -109h-30l-104 92h-2l-107 -92h-29zM413 -3c-194 0 -351 143 -351 359c0 215 157 358 351 358c190 0 347 -143 347 -358c0 -216 -157 -359 -347 -359zM413 20c177 0 323 134 323 336c0 201 -146 335 -323 335c-181 0 -327 -134 -327 -335
c0 -202 146 -336 327 -336zM412 -124c16 0 28 -12 28 -27c0 -17 -12 -27 -28 -27s-27 10 -27 27c0 15 11 27 27 27z" />
    <glyph glyph-name="uni1ED2" unicode="&#x1ed2;" horiz-adv-x="822" 
d="M570 855l-125 134h31l123 -134h-29zM276 795l125 109h25l122 -109h-30l-104 92h-2l-107 -92h-29zM413 -3c-194 0 -351 143 -351 359c0 215 157 358 351 358c190 0 347 -143 347 -358c0 -216 -157 -359 -347 -359zM413 20c177 0 323 134 323 336c0 201 -146 335 -323 335
c-181 0 -327 -134 -327 -335c0 -202 146 -336 327 -336z" />
    <glyph glyph-name="uni1ED4" unicode="&#x1ed4;" horiz-adv-x="822" 
d="M532 856c39 27 90 55 90 88c0 32 -25 41 -58 41c-32 0 -70 -12 -86 -29l-6 22c27 17 61 28 92 28c43 0 79 -18 79 -64c0 -38 -50 -65 -78 -86h-33zM276 795l125 109h25l122 -109h-30l-104 92h-2l-107 -92h-29zM413 -3c-194 0 -351 143 -351 359c0 215 157 358 351 358
c190 0 347 -143 347 -358c0 -216 -157 -359 -347 -359zM413 20c177 0 323 134 323 336c0 201 -146 335 -323 335c-181 0 -327 -134 -327 -335c0 -202 146 -336 327 -336z" />
    <glyph glyph-name="uni1ED6" unicode="&#x1ed6;" horiz-adv-x="822" 
d="M497 923c-32 0 -61 22 -87 41c-22 16 -43 28 -64 28c-28 0 -50 -22 -64 -61l-21 6c17 50 43 77 84 77c30 0 53 -16 78 -32c23 -15 47 -37 73 -37c24 0 48 19 60 62l21 -7c-16 -54 -49 -77 -80 -77zM276 795l125 109h25l122 -109h-30l-104 92h-2l-107 -92h-29zM413 -3
c-194 0 -351 143 -351 359c0 215 157 358 351 358c190 0 347 -143 347 -358c0 -216 -157 -359 -347 -359zM413 20c177 0 323 134 323 336c0 201 -146 335 -323 335c-181 0 -327 -134 -327 -335c0 -202 146 -336 327 -336z" />
    <glyph glyph-name="Odieresis" unicode="&#xd6;" horiz-adv-x="822" 
d="M339 828c-16 0 -28 12 -28 27c0 17 12 27 28 27s27 -10 27 -27c0 -15 -11 -27 -27 -27zM486 828c-16 0 -28 12 -28 27c0 17 12 27 28 27s27 -10 27 -27c0 -15 -11 -27 -27 -27zM413 -3c-194 0 -351 143 -351 359c0 215 157 358 351 358c190 0 347 -143 347 -358
c0 -216 -157 -359 -347 -359zM413 20c177 0 323 134 323 336c0 201 -146 335 -323 335c-181 0 -327 -134 -327 -335c0 -202 146 -336 327 -336z" />
    <glyph glyph-name="uni1ECC" unicode="&#x1ecc;" horiz-adv-x="822" 
d="M413 -3c-194 0 -351 143 -351 359c0 215 157 358 351 358c190 0 347 -143 347 -358c0 -216 -157 -359 -347 -359zM413 20c177 0 323 134 323 336c0 201 -146 335 -323 335c-181 0 -327 -134 -327 -335c0 -202 146 -336 327 -336zM412 -124c16 0 28 -12 28 -27
c0 -17 -12 -27 -28 -27s-27 10 -27 27c0 15 11 27 27 27z" />
    <glyph glyph-name="Ograve" unicode="&#xd2;" horiz-adv-x="822" 
d="M403 795l-114 124h30l113 -124h-29zM413 -3c-194 0 -351 143 -351 359c0 215 157 358 351 358c190 0 347 -143 347 -358c0 -216 -157 -359 -347 -359zM413 20c177 0 323 134 323 336c0 201 -146 335 -323 335c-181 0 -327 -134 -327 -335c0 -202 146 -336 327 -336z" />
    <glyph glyph-name="uni1ECE" unicode="&#x1ece;" horiz-adv-x="822" 
d="M396 784c41 29 94 58 94 93s-26 44 -60 44s-73 -13 -90 -31l-6 24c28 18 63 29 96 29c45 0 82 -19 82 -68c0 -40 -52 -69 -81 -91h-35zM413 -3c-194 0 -351 143 -351 359c0 215 157 358 351 358c190 0 347 -143 347 -358c0 -216 -157 -359 -347 -359zM413 20
c177 0 323 134 323 336c0 201 -146 335 -323 335c-181 0 -327 -134 -327 -335c0 -202 146 -336 327 -336z" />
    <glyph glyph-name="Ohorn" unicode="&#x1a0;" horiz-adv-x="861" 
d="M788 774h22v-77c0 -108 -37 -144 -100 -149c32 -54 50 -119 50 -192c0 -216 -157 -359 -347 -359c-194 0 -351 143 -351 359c0 215 157 358 351 358c117 0 221 -54 284 -145c57 2 91 26 91 127v78zM413 20c177 0 323 134 323 336c0 201 -146 335 -323 335
c-181 0 -327 -134 -327 -335c0 -202 146 -336 327 -336z" />
    <glyph glyph-name="uni1EDA" unicode="&#x1eda;" horiz-adv-x="861" 
d="M521 919l-114 -124h-29l113 124h30zM788 774h22v-77c0 -108 -37 -144 -100 -149c32 -54 50 -119 50 -192c0 -216 -157 -359 -347 -359c-194 0 -351 143 -351 359c0 215 157 358 351 358c117 0 221 -54 284 -145c57 2 91 26 91 127v78zM413 20c177 0 323 134 323 336
c0 201 -146 335 -323 335c-181 0 -327 -134 -327 -335c0 -202 146 -336 327 -336z" />
    <glyph glyph-name="uni1EE2" unicode="&#x1ee2;" horiz-adv-x="861" 
d="M788 774h22v-77c0 -108 -37 -144 -100 -149c32 -54 50 -119 50 -192c0 -216 -157 -359 -347 -359c-194 0 -351 143 -351 359c0 215 157 358 351 358c117 0 221 -54 284 -145c57 2 91 26 91 127v78zM413 20c177 0 323 134 323 336c0 201 -146 335 -323 335
c-181 0 -327 -134 -327 -335c0 -202 146 -336 327 -336zM412 -124c16 0 28 -12 28 -27c0 -17 -12 -27 -28 -27s-27 10 -27 27c0 15 11 27 27 27z" />
    <glyph glyph-name="uni1EDC" unicode="&#x1edc;" horiz-adv-x="861" 
d="M432 795h-29l-114 124h30zM788 774h22v-77c0 -108 -37 -144 -100 -149c32 -54 50 -119 50 -192c0 -216 -157 -359 -347 -359c-194 0 -351 143 -351 359c0 215 157 358 351 358c117 0 221 -54 284 -145c57 2 91 26 91 127v78zM413 20c177 0 323 134 323 336
c0 201 -146 335 -323 335c-181 0 -327 -134 -327 -335c0 -202 146 -336 327 -336z" />
    <glyph glyph-name="uni1EDE" unicode="&#x1ede;" horiz-adv-x="861" 
d="M430 921c-34 0 -73 -13 -90 -31l-6 24c28 18 63 29 96 29c45 0 82 -19 82 -68c0 -40 -52 -69 -81 -91h-35c41 29 94 58 94 93s-26 44 -60 44zM788 774h22v-77c0 -108 -37 -144 -100 -149c32 -54 50 -119 50 -192c0 -216 -157 -359 -347 -359c-194 0 -351 143 -351 359
c0 215 157 358 351 358c117 0 221 -54 284 -145c57 2 91 26 91 127v78zM413 20c177 0 323 134 323 336c0 201 -146 335 -323 335c-181 0 -327 -134 -327 -335c0 -202 146 -336 327 -336z" />
    <glyph glyph-name="uni1EE0" unicode="&#x1ee0;" horiz-adv-x="861" 
d="M339 864c-28 0 -50 -22 -64 -61l-21 6c17 50 43 77 84 77c30 0 53 -16 78 -32c23 -15 47 -37 73 -37c24 0 48 19 60 62l21 -7c-16 -54 -49 -77 -80 -77c-32 0 -61 22 -87 41c-22 16 -43 28 -64 28zM788 774h22v-77c0 -108 -37 -144 -100 -149c32 -54 50 -119 50 -192
c0 -216 -157 -359 -347 -359c-194 0 -351 143 -351 359c0 215 157 358 351 358c117 0 221 -54 284 -145c57 2 91 26 91 127v78zM413 20c177 0 323 134 323 336c0 201 -146 335 -323 335c-181 0 -327 -134 -327 -335c0 -202 146 -336 327 -336z" />
    <glyph glyph-name="Ohungarumlaut" unicode="&#x150;" horiz-adv-x="822" 
d="M336 795l122 135h31l-124 -135h-29zM460 795l122 135h31l-125 -135h-28zM413 -3c-194 0 -351 143 -351 359c0 215 157 358 351 358c190 0 347 -143 347 -358c0 -216 -157 -359 -347 -359zM413 20c177 0 323 134 323 336c0 201 -146 335 -323 335
c-181 0 -327 -134 -327 -335c0 -202 146 -336 327 -336z" />
    <glyph glyph-name="Omacron" unicode="&#x14c;" horiz-adv-x="822" 
d="M279 835v23h267v-23h-267zM413 -3c-194 0 -351 143 -351 359c0 215 157 358 351 358c190 0 347 -143 347 -358c0 -216 -157 -359 -347 -359zM413 20c177 0 323 134 323 336c0 201 -146 335 -323 335c-181 0 -327 -134 -327 -335c0 -202 146 -336 327 -336z" />
    <glyph glyph-name="uni01EA" unicode="&#x1ea;" horiz-adv-x="822" 
d="M441 -2c-46 -25 -75 -65 -75 -102c0 -31 18 -54 61 -54c29 0 41 4 59 13l4 -23c-16 -8 -33 -13 -63 -13c-51 0 -84 26 -84 76c0 32 20 71 60 101v1c-189 5 -341 147 -341 359c0 215 157 358 351 358c190 0 347 -143 347 -358c0 -205 -142 -344 -319 -358zM86 356
c0 -202 146 -336 327 -336c177 0 323 134 323 336c0 201 -146 335 -323 335c-181 0 -327 -134 -327 -335z" />
    <glyph glyph-name="Oslash" unicode="&#xd8;" horiz-adv-x="822" 
d="M664 609c60 -62 96 -149 96 -253c0 -216 -157 -359 -347 -359c-92 0 -175 32 -238 89l-89 -96l-19 16l91 97c-60 62 -96 149 -96 253c0 215 157 358 351 358c90 0 173 -32 235 -89l81 86l17 -15zM86 356c0 -97 33 -178 88 -236l458 488c-58 53 -135 83 -219 83
c-181 0 -327 -134 -327 -335zM413 20c177 0 323 134 323 336c0 96 -33 177 -88 235l-456 -488c58 -53 135 -83 221 -83z" />
    <glyph glyph-name="Oslashacute" unicode="&#x1fe;" horiz-adv-x="822" 
d="M522 919l-114 -124h-29l113 124h30zM664 609c60 -62 96 -149 96 -253c0 -216 -157 -359 -347 -359c-92 0 -175 32 -238 89l-89 -96l-19 16l91 97c-60 62 -96 149 -96 253c0 215 157 358 351 358c90 0 173 -32 235 -89l81 86l17 -15zM86 356c0 -97 33 -178 88 -236
l458 488c-58 53 -135 83 -219 83c-181 0 -327 -134 -327 -335zM413 20c177 0 323 134 323 336c0 96 -33 177 -88 235l-456 -488c58 -53 135 -83 221 -83z" />
    <glyph glyph-name="Otilde" unicode="&#xd5;" horiz-adv-x="822" 
d="M490 795c-32 0 -61 22 -87 41c-22 16 -43 28 -64 28c-28 0 -50 -22 -64 -61l-21 6c17 50 43 77 84 77c30 0 53 -16 78 -32c23 -15 47 -37 73 -37c24 0 48 19 60 62l21 -7c-16 -54 -49 -77 -80 -77zM413 -3c-194 0 -351 143 -351 359c0 215 157 358 351 358
c190 0 347 -143 347 -358c0 -216 -157 -359 -347 -359zM413 20c177 0 323 134 323 336c0 201 -146 335 -323 335c-181 0 -327 -134 -327 -335c0 -202 146 -336 327 -336z" />
    <glyph glyph-name="OE" unicode="&#x152;" horiz-adv-x="932" 
d="M479 23h410v-23h-473c-212 0 -354 163 -354 357s142 355 354 353h453v-23h-390v-320h332v-23h-332v-321zM416 23h41v664h-41c-182 2 -330 -133 -330 -330c0 -198 148 -334 330 -334z" />
    <glyph glyph-name="P" unicode="P" horiz-adv-x="582" 
d="M89 0v710h233c157 0 219 -86 219 -200c0 -144 -98 -205 -237 -205h-192v-305h-23zM112 328h191c156 0 214 79 214 182c0 121 -79 177 -189 177h-216v-359z" />
    <glyph glyph-name="Thorn" unicode="&#xde;" horiz-adv-x="599" 
d="M89 0v710h23v-158h227c159 0 220 -85 220 -200c0 -144 -99 -205 -238 -205h-209v-147h-23zM112 170h214c150 0 209 80 209 183c0 122 -78 176 -190 176h-233v-359z" />
    <glyph glyph-name="Q" unicode="Q" horiz-adv-x="830" 
d="M771 14l-15 -17l-104 93c-62 -59 -147 -93 -240 -93c-210 0 -350 160 -350 359c0 197 140 358 350 358c191 0 348 -143 348 -358c0 -102 -35 -187 -92 -249zM86 356c0 -186 131 -336 326 -336c86 0 164 31 222 86l-102 92l14 18l105 -93c53 58 85 138 85 233
c0 201 -146 335 -324 335c-195 0 -326 -150 -326 -335z" />
    <glyph glyph-name="R" unicode="R" horiz-adv-x="611" 
d="M89 0v710h233c154 0 220 -86 220 -200c0 -135 -86 -196 -213 -204l220 -306h-28l-220 305h-189v-305h-23zM112 328h192c157 0 214 79 214 182c0 121 -77 177 -195 177h-211v-359z" />
    <glyph glyph-name="Racute" unicode="&#x154;" horiz-adv-x="611" 
d="M228 795l113 124h30l-114 -124h-29zM89 0v710h233c154 0 220 -86 220 -200c0 -135 -86 -196 -213 -204l220 -306h-28l-220 305h-189v-305h-23zM112 328h192c157 0 214 79 214 182c0 121 -77 177 -195 177h-211v-359z" />
    <glyph glyph-name="Rcaron" unicode="&#x158;" horiz-adv-x="611" 
d="M284 795l-122 109h30l104 -92h2l107 92h29l-125 -109h-25zM89 0v710h233c154 0 220 -86 220 -200c0 -135 -86 -196 -213 -204l220 -306h-28l-220 305h-189v-305h-23zM112 328h192c157 0 214 79 214 182c0 121 -77 177 -195 177h-211v-359z" />
    <glyph glyph-name="Rcommaaccent" unicode="&#x156;" horiz-adv-x="611" 
d="M89 0v710h233c154 0 220 -86 220 -200c0 -135 -86 -196 -213 -204l220 -306h-28l-220 305h-189v-305h-23zM112 328h192c157 0 214 79 214 182c0 121 -77 177 -195 177h-211v-359zM229 -199l-8 18c59 3 68 35 68 70c0 18 -2 38 -5 56h22c3 -17 5 -37 5 -55
c0 -45 -18 -85 -82 -89z" />
    <glyph glyph-name="uni1E5A" unicode="&#x1e5a;" horiz-adv-x="611" 
d="M89 0v710h233c154 0 220 -86 220 -200c0 -135 -86 -196 -213 -204l220 -306h-28l-220 305h-189v-305h-23zM112 328h192c157 0 214 79 214 182c0 121 -77 177 -195 177h-211v-359zM307 -124c16 0 28 -12 28 -27c0 -17 -12 -27 -28 -27s-27 10 -27 27c0 15 11 27 27 27z
" />
    <glyph glyph-name="uni1E5C" unicode="&#x1e5c;" horiz-adv-x="611" 
d="M165 835v23h267v-23h-267zM89 0v710h233c154 0 220 -86 220 -200c0 -135 -86 -196 -213 -204l220 -306h-28l-220 305h-189v-305h-23zM112 328h192c157 0 214 79 214 182c0 121 -77 177 -195 177h-211v-359zM307 -124c16 0 28 -12 28 -27c0 -17 -12 -27 -28 -27
s-27 10 -27 27c0 15 11 27 27 27z" />
    <glyph glyph-name="uni1E5E" unicode="&#x1e5e;" horiz-adv-x="611" 
d="M89 0v710h233c154 0 220 -86 220 -200c0 -135 -86 -196 -213 -204l220 -306h-28l-220 305h-189v-305h-23zM112 328h192c157 0 214 79 214 182c0 121 -77 177 -195 177h-211v-359zM441 -170h-267v23h267v-23z" />
    <glyph glyph-name="S" unicode="S" horiz-adv-x="558" 
d="M282 -3c-86 0 -176 32 -239 107l18 18c51 -69 138 -102 223 -102c104 0 197 52 197 154c0 109 -96 134 -201 177c-99 40 -206 81 -206 196c0 96 82 167 202 167c69 0 146 -27 203 -74l-16 -19c-55 45 -125 70 -186 70c-89 0 -179 -49 -179 -144c0 -100 95 -137 189 -174
c113 -45 218 -75 218 -199c0 -100 -81 -177 -223 -177z" />
    <glyph glyph-name="Sacute" unicode="&#x15a;" horiz-adv-x="558" 
d="M239 795l113 124h30l-114 -124h-29zM282 -3c-86 0 -176 32 -239 107l18 18c51 -69 138 -102 223 -102c104 0 197 52 197 154c0 109 -96 134 -201 177c-99 40 -206 81 -206 196c0 96 82 167 202 167c69 0 146 -27 203 -74l-16 -19c-55 45 -125 70 -186 70
c-89 0 -179 -49 -179 -144c0 -100 95 -137 189 -174c113 -45 218 -75 218 -199c0 -100 -81 -177 -223 -177z" />
    <glyph glyph-name="Scaron" unicode="&#x160;" horiz-adv-x="558" 
d="M265 795l-122 109h30l104 -92h2l107 92h29l-125 -109h-25zM282 -3c-86 0 -176 32 -239 107l18 18c51 -69 138 -102 223 -102c104 0 197 52 197 154c0 109 -96 134 -201 177c-99 40 -206 81 -206 196c0 96 82 167 202 167c69 0 146 -27 203 -74l-16 -19
c-55 45 -125 70 -186 70c-89 0 -179 -49 -179 -144c0 -100 95 -137 189 -174c113 -45 218 -75 218 -199c0 -100 -81 -177 -223 -177z" />
    <glyph glyph-name="Scedilla" unicode="&#x15e;" horiz-adv-x="558" 
d="M286 -3l-13 -31v-1c38 -3 80 -29 80 -77c0 -38 -30 -72 -85 -72c-16 0 -34 2 -49 6v23c13 -4 27 -7 45 -7c35 0 66 16 66 51c0 28 -26 57 -82 57l1 19l15 32c-80 5 -162 37 -221 107l18 18c51 -69 138 -102 223 -102c104 0 197 52 197 154c0 109 -96 134 -201 177
c-99 40 -206 81 -206 196c0 96 82 167 202 167c69 0 146 -27 203 -74l-16 -19c-55 45 -125 70 -186 70c-89 0 -179 -49 -179 -144c0 -100 95 -137 189 -174c113 -45 218 -75 218 -199c0 -99 -79 -175 -219 -177z" />
    <glyph glyph-name="Scircumflex" unicode="&#x15c;" horiz-adv-x="558" 
d="M143 795l125 109h25l122 -109h-30l-104 92h-2l-107 -92h-29zM282 -3c-86 0 -176 32 -239 107l18 18c51 -69 138 -102 223 -102c104 0 197 52 197 154c0 109 -96 134 -201 177c-99 40 -206 81 -206 196c0 96 82 167 202 167c69 0 146 -27 203 -74l-16 -19
c-55 45 -125 70 -186 70c-89 0 -179 -49 -179 -144c0 -100 95 -137 189 -174c113 -45 218 -75 218 -199c0 -100 -81 -177 -223 -177z" />
    <glyph glyph-name="Scommaaccent" unicode="&#x218;" horiz-adv-x="558" 
d="M282 -3c-86 0 -176 32 -239 107l18 18c51 -69 138 -102 223 -102c104 0 197 52 197 154c0 109 -96 134 -201 177c-99 40 -206 81 -206 196c0 96 82 167 202 167c69 0 146 -27 203 -74l-16 -19c-55 45 -125 70 -186 70c-89 0 -179 -49 -179 -144c0 -100 95 -137 189 -174
c113 -45 218 -75 218 -199c0 -100 -81 -177 -223 -177zM214 -199l-8 18c59 3 68 35 68 70c0 18 -2 38 -5 56h22c3 -17 5 -37 5 -55c0 -45 -18 -85 -82 -89z" />
    <glyph glyph-name="uni1E60" unicode="&#x1e60;" horiz-adv-x="558" 
d="M279 828c-16 0 -28 12 -28 27c0 17 12 27 28 27s27 -10 27 -27c0 -15 -11 -27 -27 -27zM282 -3c-86 0 -176 32 -239 107l18 18c51 -69 138 -102 223 -102c104 0 197 52 197 154c0 109 -96 134 -201 177c-99 40 -206 81 -206 196c0 96 82 167 202 167
c69 0 146 -27 203 -74l-16 -19c-55 45 -125 70 -186 70c-89 0 -179 -49 -179 -144c0 -100 95 -137 189 -174c113 -45 218 -75 218 -199c0 -100 -81 -177 -223 -177z" />
    <glyph glyph-name="uni1E62" unicode="&#x1e62;" horiz-adv-x="558" 
d="M282 -3c-86 0 -176 32 -239 107l18 18c51 -69 138 -102 223 -102c104 0 197 52 197 154c0 109 -96 134 -201 177c-99 40 -206 81 -206 196c0 96 82 167 202 167c69 0 146 -27 203 -74l-16 -19c-55 45 -125 70 -186 70c-89 0 -179 -49 -179 -144c0 -100 95 -137 189 -174
c113 -45 218 -75 218 -199c0 -100 -81 -177 -223 -177zM292 -124c16 0 28 -12 28 -27c0 -17 -12 -27 -28 -27s-27 10 -27 27c0 15 11 27 27 27z" />
    <glyph glyph-name="uni1E9E" unicode="&#x1e9e;" horiz-adv-x="695" 
d="M435 373c114 -44 219 -75 219 -199c0 -100 -82 -177 -223 -177c-83 0 -170 30 -233 100l13 23c52 -68 137 -100 222 -100c103 0 197 52 197 154c0 109 -97 135 -201 177c-27 11 -59 24 -85 37l153 277l-1 2c-62 15 -139 24 -212 24c-141 0 -201 -56 -201 -177v-514h-23
v517c0 133 69 197 221 197c75 0 169 -12 251 -32l-155 -285c19 -8 39 -17 58 -24z" />
    <glyph glyph-name="uni018F" unicode="&#x18f;" horiz-adv-x="765" 
d="M358 714c215 0 346 -160 346 -359c0 -205 -137 -358 -331 -358c-170 0 -327 107 -327 328v13h633v17c-1 192 -123 336 -321 336c-96 0 -171 -30 -245 -91l-18 17c77 64 161 97 263 97zM373 20c168 0 289 123 304 295h-608c3 -179 132 -295 304 -295z" />
    <glyph glyph-name="T" unicode="T" horiz-adv-x="542" 
d="M258 0v687h-233v23h492v-23h-236v-687h-23z" />
    <glyph glyph-name="Tbar" unicode="&#x166;" horiz-adv-x="542" 
d="M517 687h-236v-298h123v-23h-123v-366h-23v366h-121v23h121v298h-233v23h492v-23z" />
    <glyph glyph-name="Tcaron" unicode="&#x164;" horiz-adv-x="542" 
d="M256 795l-122 109h30l104 -92h2l107 92h29l-125 -109h-25zM258 0v687h-233v23h492v-23h-236v-687h-23z" />
    <glyph glyph-name="Tdieresis" horiz-adv-x="542" 
d="M195 846c-16 0 -28 12 -28 27c0 17 12 27 28 27s27 -10 27 -27c0 -15 -11 -27 -27 -27zM342 846c-16 0 -28 12 -28 27c0 17 12 27 28 27s27 -10 27 -27c0 -15 -11 -27 -27 -27zM258 0v687h-233v23h492v-23h-236v-687h-23z" />
    <glyph glyph-name="uni1E6C" unicode="&#x1e6c;" horiz-adv-x="542" 
d="M258 0v687h-233v23h492v-23h-236v-687h-23zM270 -124c16 0 28 -12 28 -27c0 -17 -12 -27 -28 -27s-27 10 -27 27c0 15 11 27 27 27z" />
    <glyph glyph-name="uni1E6E" unicode="&#x1e6e;" horiz-adv-x="542" 
d="M258 0v687h-233v23h492v-23h-236v-687h-23zM402 -170h-267v23h267v-23z" />
    <glyph glyph-name="U" unicode="U" horiz-adv-x="682" 
d="M341 -3c-153 0 -260 107 -260 286v427h23v-427c0 -166 97 -263 237 -263s238 97 238 263v427h23v-427c0 -179 -108 -286 -261 -286z" />
    <glyph glyph-name="Uacute" unicode="&#xda;" horiz-adv-x="682" 
d="M291 795l113 124h30l-114 -124h-29zM341 -3c-153 0 -260 107 -260 286v427h23v-427c0 -166 97 -263 237 -263s238 97 238 263v427h23v-427c0 -179 -108 -286 -261 -286z" />
    <glyph glyph-name="Ubreve" unicode="&#x16c;" horiz-adv-x="682" 
d="M342 791c-62 0 -117 44 -122 113h21c4 -45 40 -91 101 -91s97 46 100 91h22c-6 -69 -60 -113 -122 -113zM341 -3c-153 0 -260 107 -260 286v427h23v-427c0 -166 97 -263 237 -263s238 97 238 263v427h23v-427c0 -179 -108 -286 -261 -286z" />
    <glyph glyph-name="Ucircumflex" unicode="&#xdb;" horiz-adv-x="682" 
d="M206 795l125 109h25l122 -109h-30l-104 92h-2l-107 -92h-29zM341 -3c-153 0 -260 107 -260 286v427h23v-427c0 -166 97 -263 237 -263s238 97 238 263v427h23v-427c0 -179 -108 -286 -261 -286z" />
    <glyph glyph-name="Udieresis" unicode="&#xdc;" horiz-adv-x="682" 
d="M269 828c-16 0 -28 12 -28 27c0 17 12 27 28 27s27 -10 27 -27c0 -15 -11 -27 -27 -27zM416 828c-16 0 -28 12 -28 27c0 17 12 27 28 27s27 -10 27 -27c0 -15 -11 -27 -27 -27zM341 -3c-153 0 -260 107 -260 286v427h23v-427c0 -166 97 -263 237 -263s238 97 238 263v427
h23v-427c0 -179 -108 -286 -261 -286z" />
    <glyph glyph-name="uni1EE4" unicode="&#x1ee4;" horiz-adv-x="682" 
d="M341 -3c-153 0 -260 107 -260 286v427h23v-427c0 -166 97 -263 237 -263s238 97 238 263v427h23v-427c0 -179 -108 -286 -261 -286zM341 -124c16 0 28 -12 28 -27c0 -17 -12 -27 -28 -27s-27 10 -27 27c0 15 11 27 27 27z" />
    <glyph glyph-name="Ugrave" unicode="&#xd9;" horiz-adv-x="682" 
d="M348 795l-114 124h30l113 -124h-29zM341 -3c-153 0 -260 107 -260 286v427h23v-427c0 -166 97 -263 237 -263s238 97 238 263v427h23v-427c0 -179 -108 -286 -261 -286z" />
    <glyph glyph-name="uni1EE6" unicode="&#x1ee6;" horiz-adv-x="682" 
d="M326 784c41 29 94 58 94 93s-26 44 -60 44s-73 -13 -90 -31l-6 24c28 18 63 29 96 29c45 0 82 -19 82 -68c0 -40 -52 -69 -81 -91h-35zM341 -3c-153 0 -260 107 -260 286v427h23v-427c0 -166 97 -263 237 -263s238 97 238 263v427h23v-427c0 -179 -108 -286 -261 -286z
" />
    <glyph glyph-name="Uhorn" unicode="&#x1af;" horiz-adv-x="738" 
d="M691 774h22v-77c0 -114 -41 -148 -111 -150v-264c0 -179 -108 -286 -261 -286s-260 107 -260 286v427h23v-427c0 -166 97 -263 237 -263s238 97 238 263v427h23v-141c56 2 89 28 89 127v78z" />
    <glyph glyph-name="uni1EE8" unicode="&#x1ee8;" horiz-adv-x="738" 
d="M434 919l-114 -124h-29l113 124h30zM691 774h22v-77c0 -114 -41 -148 -111 -150v-264c0 -179 -108 -286 -261 -286s-260 107 -260 286v427h23v-427c0 -166 97 -263 237 -263s238 97 238 263v427h23v-141c56 2 89 28 89 127v78z" />
    <glyph glyph-name="uni1EF0" unicode="&#x1ef0;" horiz-adv-x="738" 
d="M691 774h22v-77c0 -114 -41 -148 -111 -150v-264c0 -179 -108 -286 -261 -286s-260 107 -260 286v427h23v-427c0 -166 97 -263 237 -263s238 97 238 263v427h23v-141c56 2 89 28 89 127v78zM341 -124c16 0 28 -12 28 -27c0 -17 -12 -27 -28 -27s-27 10 -27 27
c0 15 11 27 27 27z" />
    <glyph glyph-name="uni1EEA" unicode="&#x1eea;" horiz-adv-x="738" 
d="M377 795h-29l-114 124h30zM691 774h22v-77c0 -114 -41 -148 -111 -150v-264c0 -179 -108 -286 -261 -286s-260 107 -260 286v427h23v-427c0 -166 97 -263 237 -263s238 97 238 263v427h23v-141c56 2 89 28 89 127v78z" />
    <glyph glyph-name="uni1EEC" unicode="&#x1eec;" horiz-adv-x="738" 
d="M360 921c-34 0 -73 -13 -90 -31l-6 24c28 18 63 29 96 29c45 0 82 -19 82 -68c0 -40 -52 -69 -81 -91h-35c41 29 94 58 94 93s-26 44 -60 44zM691 774h22v-77c0 -114 -41 -148 -111 -150v-264c0 -179 -108 -286 -261 -286s-260 107 -260 286v427h23v-427
c0 -166 97 -263 237 -263s238 97 238 263v427h23v-141c56 2 89 28 89 127v78z" />
    <glyph glyph-name="uni1EEE" unicode="&#x1eee;" horiz-adv-x="738" 
d="M269 864c-28 0 -50 -22 -64 -61l-21 6c17 50 43 77 84 77c30 0 53 -16 78 -32c23 -15 47 -37 73 -37c24 0 48 19 60 62l21 -7c-16 -54 -49 -77 -80 -77c-32 0 -61 22 -87 41c-22 16 -43 28 -64 28zM691 774h22v-77c0 -114 -41 -148 -111 -150v-264
c0 -179 -108 -286 -261 -286s-260 107 -260 286v427h23v-427c0 -166 97 -263 237 -263s238 97 238 263v427h23v-141c56 2 89 28 89 127v78z" />
    <glyph glyph-name="Uhungarumlaut" unicode="&#x170;" horiz-adv-x="682" 
d="M266 795l122 135h31l-124 -135h-29zM390 795l122 135h31l-125 -135h-28zM341 -3c-153 0 -260 107 -260 286v427h23v-427c0 -166 97 -263 237 -263s238 97 238 263v427h23v-427c0 -179 -108 -286 -261 -286z" />
    <glyph glyph-name="Umacron" unicode="&#x16a;" horiz-adv-x="682" 
d="M209 835v23h267v-23h-267zM341 -3c-153 0 -260 107 -260 286v427h23v-427c0 -166 97 -263 237 -263s238 97 238 263v427h23v-427c0 -179 -108 -286 -261 -286z" />
    <glyph glyph-name="Uogonek" unicode="&#x172;" horiz-adv-x="682" 
d="M579 710h23v-427c0 -161 -88 -264 -217 -283c-47 -25 -77 -65 -77 -103c0 -31 18 -54 61 -54c29 0 41 4 59 13l4 -23c-16 -8 -33 -13 -63 -13c-51 0 -84 26 -84 76c0 32 19 69 58 100v1h-2c-153 0 -260 107 -260 286v427h23v-427c0 -166 97 -263 237 -263s238 97 238 263
v427z" />
    <glyph glyph-name="Uring" unicode="&#x16e;" horiz-adv-x="682" 
d="M342 785c-39 0 -73 34 -73 73c0 40 34 73 73 73c40 0 74 -33 74 -73c0 -39 -34 -73 -74 -73zM342 808c28 0 52 23 52 50c0 28 -24 51 -52 51s-51 -23 -51 -51c0 -27 23 -50 51 -50zM341 -3c-153 0 -260 107 -260 286v427h23v-427c0 -166 97 -263 237 -263s238 97 238 263
v427h23v-427c0 -179 -108 -286 -261 -286z" />
    <glyph glyph-name="Utilde" unicode="&#x168;" horiz-adv-x="682" 
d="M420 795c-32 0 -61 22 -87 41c-22 16 -43 28 -64 28c-28 0 -50 -22 -64 -61l-21 6c17 50 43 77 84 77c30 0 53 -16 78 -32c23 -15 47 -37 73 -37c24 0 48 19 60 62l21 -7c-16 -54 -49 -77 -80 -77zM341 -3c-153 0 -260 107 -260 286v427h23v-427c0 -166 97 -263 237 -263
s238 97 238 263v427h23v-427c0 -179 -108 -286 -261 -286z" />
    <glyph glyph-name="V" unicode="V" horiz-adv-x="630" 
d="M303 0l-273 710h25l259 -674h2l259 674h25l-273 -710h-24z" />
    <glyph glyph-name="W" unicode="W" horiz-adv-x="991" 
d="M264 0l-230 710h25l219 -676h1l201 676h31l200 -676h1l220 676h25l-230 -710h-30l-201 677h-1l-202 -677h-29z" />
    <glyph glyph-name="Wacute" unicode="&#x1e82;" horiz-adv-x="991" 
d="M477 795l113 124h30l-114 -124h-29zM264 0l-230 710h25l219 -676h1l201 676h31l200 -676h1l220 676h25l-230 -710h-30l-201 677h-1l-202 -677h-29z" />
    <glyph glyph-name="Wcircumflex" unicode="&#x174;" horiz-adv-x="991" 
d="M359 795l125 109h25l122 -109h-30l-104 92h-2l-107 -92h-29zM264 0l-230 710h25l219 -676h1l201 676h31l200 -676h1l220 676h25l-230 -710h-30l-201 677h-1l-202 -677h-29z" />
    <glyph glyph-name="Wdieresis" unicode="&#x1e84;" horiz-adv-x="991" 
d="M422 828c-16 0 -28 12 -28 27c0 17 12 27 28 27s27 -10 27 -27c0 -15 -11 -27 -27 -27zM569 828c-16 0 -28 12 -28 27c0 17 12 27 28 27s27 -10 27 -27c0 -15 -11 -27 -27 -27zM264 0l-230 710h25l219 -676h1l201 676h31l200 -676h1l220 676h25l-230 -710h-30l-201 677
h-1l-202 -677h-29z" />
    <glyph glyph-name="Wgrave" unicode="&#x1e80;" horiz-adv-x="991" 
d="M483 795l-114 124h30l113 -124h-29zM264 0l-230 710h25l219 -676h1l201 676h31l200 -676h1l220 676h25l-230 -710h-30l-201 677h-1l-202 -677h-29z" />
    <glyph glyph-name="X" unicode="X" horiz-adv-x="604" 
d="M34 0l254 354l-255 356h27l242 -335h1l240 335h29l-255 -356l254 -354h-29l-238 331h-2l-240 -331h-28z" />
    <glyph glyph-name="Y" unicode="Y" horiz-adv-x="556" 
d="M266 0v323l-248 387h28l230 -361h2l232 361h28l-249 -387v-323h-23z" />
    <glyph glyph-name="Yacute" unicode="&#xdd;" horiz-adv-x="556" 
d="M256 795l113 124h30l-114 -124h-29zM266 0v323l-248 387h28l230 -361h2l232 361h28l-249 -387v-323h-23z" />
    <glyph glyph-name="Ycircumflex" unicode="&#x176;" horiz-adv-x="556" 
d="M142 795l125 109h25l122 -109h-30l-104 92h-2l-107 -92h-29zM266 0v323l-248 387h28l230 -361h2l232 361h28l-249 -387v-323h-23z" />
    <glyph glyph-name="Ydieresis" unicode="&#x178;" horiz-adv-x="556" 
d="M205 828c-16 0 -28 12 -28 27c0 17 12 27 28 27s27 -10 27 -27c0 -15 -11 -27 -27 -27zM352 828c-16 0 -28 12 -28 27c0 17 12 27 28 27s27 -10 27 -27c0 -15 -11 -27 -27 -27zM266 0v323l-248 387h28l230 -361h2l232 361h28l-249 -387v-323h-23z" />
    <glyph glyph-name="uni1E8E" unicode="&#x1e8e;" horiz-adv-x="556" 
d="M278 828c-16 0 -28 12 -28 27c0 17 12 27 28 27s27 -10 27 -27c0 -15 -11 -27 -27 -27zM266 0v323l-248 387h28l230 -361h2l232 361h28l-249 -387v-323h-23z" />
    <glyph glyph-name="uni1EF4" unicode="&#x1ef4;" horiz-adv-x="556" 
d="M266 0v323l-248 387h28l230 -361h2l232 361h28l-249 -387v-323h-23zM277 -124c16 0 28 -12 28 -27c0 -17 -12 -27 -28 -27s-27 10 -27 27c0 15 11 27 27 27z" />
    <glyph glyph-name="Ygrave" unicode="&#x1ef2;" horiz-adv-x="556" 
d="M295 795l-114 124h30l113 -124h-29zM266 0v323l-248 387h28l230 -361h2l232 361h28l-249 -387v-323h-23z" />
    <glyph glyph-name="uni1EF6" unicode="&#x1ef6;" horiz-adv-x="556" 
d="M262 784c41 29 94 58 94 93s-26 44 -60 44s-73 -13 -90 -31l-6 24c28 18 63 29 96 29c45 0 82 -19 82 -68c0 -40 -52 -69 -81 -91h-35zM266 0v323l-248 387h28l230 -361h2l232 361h28l-249 -387v-323h-23z" />
    <glyph glyph-name="uni0232" unicode="&#x232;" horiz-adv-x="556" 
d="M145 835v23h267v-23h-267zM266 0v323l-248 387h28l230 -361h2l232 361h28l-249 -387v-323h-23z" />
    <glyph glyph-name="uni1EF8" unicode="&#x1ef8;" horiz-adv-x="556" 
d="M356 795c-32 0 -61 22 -87 41c-22 16 -43 28 -64 28c-28 0 -50 -22 -64 -61l-21 6c17 50 43 77 84 77c30 0 53 -16 78 -32c23 -15 47 -37 73 -37c24 0 48 19 60 62l21 -7c-16 -54 -49 -77 -80 -77zM266 0v323l-248 387h28l230 -361h2l232 361h28l-249 -387v-323h-23z" />
    <glyph glyph-name="Z" unicode="Z" horiz-adv-x="588" 
d="M56 0v21l434 665l-1 1h-406v23h437v-23l-433 -663l1 -1h437v-23h-469z" />
    <glyph glyph-name="Zacute" unicode="&#x179;" horiz-adv-x="588" 
d="M218 795l113 124h30l-114 -124h-29zM56 0v21l434 665l-1 1h-406v23h437v-23l-433 -663l1 -1h437v-23h-469z" />
    <glyph glyph-name="Zcaron" unicode="&#x17d;" horiz-adv-x="588" 
d="M274 795l-122 109h30l104 -92h2l107 92h29l-125 -109h-25zM56 0v21l434 665l-1 1h-406v23h437v-23l-433 -663l1 -1h437v-23h-469z" />
    <glyph glyph-name="Zdotaccent" unicode="&#x17b;" horiz-adv-x="588" 
d="M288 828c-16 0 -28 12 -28 27c0 17 12 27 28 27s27 -10 27 -27c0 -15 -11 -27 -27 -27zM56 0v21l434 665l-1 1h-406v23h437v-23l-433 -663l1 -1h437v-23h-469z" />
    <glyph glyph-name="uni1E92" unicode="&#x1e92;" horiz-adv-x="588" 
d="M56 0v21l434 665l-1 1h-406v23h437v-23l-433 -663l1 -1h437v-23h-469zM288 -124c16 0 28 -12 28 -27c0 -17 -12 -27 -28 -27s-27 10 -27 27c0 15 11 27 27 27z" />
    <glyph glyph-name="uni01D3" unicode="&#x1d3;" horiz-adv-x="682" 
d="M328 795l-122 109h30l104 -92h2l107 92h29l-125 -109h-25zM341 -3c-153 0 -260 107 -260 286v427h23v-427c0 -166 97 -263 237 -263s238 97 238 263v427h23v-427c0 -179 -108 -286 -261 -286z" />
    <glyph glyph-name="uni01D5" unicode="&#x1d5;" horiz-adv-x="682" 
d="M209 953v23h267v-23h-267zM268 816c-16 0 -28 12 -28 27c0 17 12 27 28 27s27 -10 27 -27c0 -15 -11 -27 -27 -27zM415 816c-16 0 -28 12 -28 27c0 17 12 27 28 27s27 -10 27 -27c0 -15 -11 -27 -27 -27zM341 -3c-153 0 -260 107 -260 286v427h23v-427
c0 -166 97 -263 237 -263s238 97 238 263v427h23v-427c0 -179 -108 -286 -261 -286z" />
    <glyph glyph-name="uni01D7" unicode="&#x1d7;" horiz-adv-x="682" 
d="M332 891l123 135h31l-125 -135h-29zM268 816c-16 0 -28 12 -28 27c0 17 12 27 28 27s27 -10 27 -27c0 -15 -11 -27 -27 -27zM415 816c-16 0 -28 12 -28 27c0 17 12 27 28 27s27 -10 27 -27c0 -15 -11 -27 -27 -27zM341 -3c-153 0 -260 107 -260 286v427h23v-427
c0 -166 97 -263 237 -263s238 97 238 263v427h23v-427c0 -179 -108 -286 -261 -286z" />
    <glyph glyph-name="uni01D9" unicode="&#x1d9;" horiz-adv-x="682" 
d="M335 915l-122 109h30l104 -92h2l107 92h29l-125 -109h-25zM268 816c-16 0 -28 12 -28 27c0 17 12 27 28 27s27 -10 27 -27c0 -15 -11 -27 -27 -27zM415 816c-16 0 -28 12 -28 27c0 17 12 27 28 27s27 -10 27 -27c0 -15 -11 -27 -27 -27zM341 -3c-153 0 -260 107 -260 286
v427h23v-427c0 -166 97 -263 237 -263s238 97 238 263v427h23v-427c0 -179 -108 -286 -261 -286z" />
    <glyph glyph-name="uni01DB" unicode="&#x1db;" horiz-adv-x="682" 
d="M329 891l-125 135h31l123 -135h-29zM268 816c-16 0 -28 12 -28 27c0 17 12 27 28 27s27 -10 27 -27c0 -15 -11 -27 -27 -27zM415 816c-16 0 -28 12 -28 27c0 17 12 27 28 27s27 -10 27 -27c0 -15 -11 -27 -27 -27zM341 -3c-153 0 -260 107 -260 286v427h23v-427
c0 -166 97 -263 237 -263s238 97 238 263v427h23v-427c0 -179 -108 -286 -261 -286z" />
    <glyph glyph-name="uni1E30" unicode="&#x1e30;" horiz-adv-x="612" 
d="M251 795l113 124h30l-114 -124h-29zM89 0v710h23v-483h2l418 483h31l-291 -336l296 -374h-30l-281 357l-145 -168v-189h-23z" />
    <glyph glyph-name="Q.alt" horiz-adv-x="821" 
d="M760 356c0 -159 -85 -278 -206 -330l161 -136l-13 -18l-171 145c-37 -13 -77 -20 -119 -20c-210 0 -350 160 -350 359c0 197 140 358 350 358c191 0 348 -143 348 -358zM86 356c0 -186 131 -336 326 -336c178 0 324 134 324 336c0 201 -146 335 -324 335
c-195 0 -326 -150 -326 -335z" />
    <glyph glyph-name="a" unicode="a" horiz-adv-x="591" 
d="M285 -3c-132 0 -240 96 -240 240c0 138 97 251 241 251c92 0 172 -54 208 -141h1v137h22v-484h-22v133h-1c-35 -80 -110 -136 -209 -136zM285 19c116 0 210 87 210 218c0 126 -84 229 -209 229c-120 0 -218 -92 -218 -229c0 -120 86 -218 217 -218z" />
    <glyph glyph-name="aacute" unicode="&#xe1;" horiz-adv-x="591" 
d="M290 561l123 135h31l-124 -135h-30zM285 -3c-132 0 -240 96 -240 240c0 138 97 251 241 251c92 0 172 -54 208 -141h1v137h22v-484h-22v133h-1c-35 -80 -110 -136 -209 -136zM285 19c116 0 210 87 210 218c0 126 -84 229 -209 229c-120 0 -218 -92 -218 -229
c0 -120 86 -218 217 -218z" />
    <glyph glyph-name="abreve" unicode="&#x103;" horiz-adv-x="591" 
d="M287 561c-62 0 -117 44 -122 127h21c4 -59 40 -105 101 -105s97 46 100 105h22c-6 -83 -60 -127 -122 -127zM285 -3c-132 0 -240 96 -240 240c0 138 97 251 241 251c92 0 172 -54 208 -141h1v137h22v-484h-22v133h-1c-35 -80 -110 -136 -209 -136zM285 19
c116 0 210 87 210 218c0 126 -84 229 -209 229c-120 0 -218 -92 -218 -229c0 -120 86 -218 217 -218z" />
    <glyph glyph-name="uni1EAF" unicode="&#x1eaf;" horiz-adv-x="591" 
d="M264 691l123 135h31l-125 -135h-29zM287 561c-62 0 -117 44 -122 127h21c4 -59 40 -105 101 -105s97 46 100 105h22c-6 -83 -60 -127 -122 -127zM285 -3c-132 0 -240 96 -240 240c0 138 97 251 241 251c92 0 172 -54 208 -141h1v137h22v-484h-22v133h-1
c-35 -80 -110 -136 -209 -136zM285 19c116 0 210 87 210 218c0 126 -84 229 -209 229c-120 0 -218 -92 -218 -229c0 -120 86 -218 217 -218z" />
    <glyph glyph-name="uni1EB7" unicode="&#x1eb7;" horiz-adv-x="591" 
d="M287 561c-62 0 -117 44 -122 127h21c4 -59 40 -105 101 -105s97 46 100 105h22c-6 -83 -60 -127 -122 -127zM285 -3c-132 0 -240 96 -240 240c0 138 97 251 241 251c92 0 172 -54 208 -141h1v137h22v-484h-22v133h-1c-35 -80 -110 -136 -209 -136zM285 19
c116 0 210 87 210 218c0 126 -84 229 -209 229c-120 0 -218 -92 -218 -229c0 -120 86 -218 217 -218zM289 -124c16 0 28 -12 28 -27c0 -17 -12 -27 -28 -27s-27 10 -27 27c0 15 11 27 27 27z" />
    <glyph glyph-name="uni1EB1" unicode="&#x1eb1;" horiz-adv-x="591" 
d="M292 691l-125 135h31l123 -135h-29zM287 561c-62 0 -117 44 -122 127h21c4 -59 40 -105 101 -105s97 46 100 105h22c-6 -83 -60 -127 -122 -127zM285 -3c-132 0 -240 96 -240 240c0 138 97 251 241 251c92 0 172 -54 208 -141h1v137h22v-484h-22v133h-1
c-35 -80 -110 -136 -209 -136zM285 19c116 0 210 87 210 218c0 126 -84 229 -209 229c-120 0 -218 -92 -218 -229c0 -120 86 -218 217 -218z" />
    <glyph glyph-name="uni1EB3" unicode="&#x1eb3;" horiz-adv-x="591" 
d="M261 674c40 28 98 64 98 103c0 34 -25 42 -58 42c-32 0 -70 -12 -86 -29l-6 23c27 17 61 27 92 27c43 0 79 -18 79 -65c0 -44 -57 -80 -85 -101h-34zM286 561c-62 0 -117 44 -122 127h21c4 -59 40 -105 101 -105s97 46 100 105h22c-6 -83 -60 -127 -122 -127zM285 -3
c-132 0 -240 96 -240 240c0 138 97 251 241 251c92 0 172 -54 208 -141h1v137h22v-484h-22v133h-1c-35 -80 -110 -136 -209 -136zM285 19c116 0 210 87 210 218c0 126 -84 229 -209 229c-120 0 -218 -92 -218 -229c0 -120 86 -218 217 -218z" />
    <glyph glyph-name="uni1EB5" unicode="&#x1eb5;" horiz-adv-x="591" 
d="M149 748l-21 6c17 50 43 77 84 77c30 0 52 -14 75 -30c24 -16 49 -37 75 -37c33 0 50 21 61 62l21 -7c-15 -52 -41 -77 -82 -77c-31 0 -61 22 -88 41c-21 15 -40 26 -61 26c-28 0 -50 -22 -64 -61zM287 561c-62 0 -117 44 -122 127h21c4 -59 40 -105 101 -105
s97 46 100 105h22c-6 -83 -60 -127 -122 -127zM285 -3c-132 0 -240 96 -240 240c0 138 97 251 241 251c92 0 172 -54 208 -141h1v137h22v-484h-22v133h-1c-35 -80 -110 -136 -209 -136zM285 19c116 0 210 87 210 218c0 126 -84 229 -209 229c-120 0 -218 -92 -218 -229
c0 -120 86 -218 217 -218z" />
    <glyph glyph-name="uni01CE" unicode="&#x1ce;" horiz-adv-x="591" 
d="M273 562l-122 128h29l106 -110h2l106 110h29l-125 -128h-25zM285 -3c-132 0 -240 96 -240 240c0 138 97 251 241 251c92 0 172 -54 208 -141h1v137h22v-484h-22v133h-1c-35 -80 -110 -136 -209 -136zM285 19c116 0 210 87 210 218c0 126 -84 229 -209 229
c-120 0 -218 -92 -218 -229c0 -120 86 -218 217 -218z" />
    <glyph glyph-name="acircumflex" unicode="&#xe2;" horiz-adv-x="591" 
d="M151 562l125 128h25l122 -128h-29l-104 110h-2l-108 -110h-29zM285 -3c-132 0 -240 96 -240 240c0 138 97 251 241 251c92 0 172 -54 208 -141h1v137h22v-484h-22v133h-1c-35 -80 -110 -136 -209 -136zM285 19c116 0 210 87 210 218c0 126 -84 229 -209 229
c-120 0 -218 -92 -218 -229c0 -120 86 -218 217 -218z" />
    <glyph glyph-name="uni1EA5" unicode="&#x1ea5;" horiz-adv-x="591" 
d="M384 641l123 135h31l-125 -135h-29zM153 563l125 128h25l122 -128h-29l-104 110h-2l-108 -110h-29zM285 -3c-132 0 -240 96 -240 240c0 138 97 251 241 251c92 0 172 -54 208 -141h1v137h22v-484h-22v133h-1c-35 -80 -110 -136 -209 -136zM285 19c116 0 210 87 210 218
c0 126 -84 229 -209 229c-120 0 -218 -92 -218 -229c0 -120 86 -218 217 -218z" />
    <glyph glyph-name="uni1EAD" unicode="&#x1ead;" horiz-adv-x="591" 
d="M151 562l125 128h25l122 -128h-29l-104 110h-2l-108 -110h-29zM285 -3c-132 0 -240 96 -240 240c0 138 97 251 241 251c92 0 172 -54 208 -141h1v137h22v-484h-22v133h-1c-35 -80 -110 -136 -209 -136zM285 19c116 0 210 87 210 218c0 126 -84 229 -209 229
c-120 0 -218 -92 -218 -229c0 -120 86 -218 217 -218zM289 -124c16 0 28 -12 28 -27c0 -17 -12 -27 -28 -27s-27 10 -27 27c0 15 11 27 27 27z" />
    <glyph glyph-name="uni1EA7" unicode="&#x1ea7;" horiz-adv-x="591" 
d="M452 641l-125 135h31l123 -135h-29zM149 564l125 128h25l122 -128h-29l-104 110h-2l-108 -110h-29zM285 -3c-132 0 -240 96 -240 240c0 138 97 251 241 251c92 0 172 -54 208 -141h1v137h22v-484h-22v133h-1c-35 -80 -110 -136 -209 -136zM285 19c116 0 210 87 210 218
c0 126 -84 229 -209 229c-120 0 -218 -92 -218 -229c0 -120 86 -218 217 -218z" />
    <glyph glyph-name="uni1EA9" unicode="&#x1ea9;" horiz-adv-x="591" 
d="M402 634c40 28 98 64 98 103c0 34 -25 42 -58 42c-32 0 -70 -12 -86 -29l-6 23c27 17 61 27 92 27c43 0 79 -18 79 -65c0 -44 -57 -80 -85 -101h-34zM150 562l125 128h25l122 -128h-29l-104 110h-2l-108 -110h-29zM285 -3c-132 0 -240 96 -240 240c0 138 97 251 241 251
c92 0 172 -54 208 -141h1v137h22v-484h-22v133h-1c-35 -80 -110 -136 -209 -136zM285 19c116 0 210 87 210 218c0 126 -84 229 -209 229c-120 0 -218 -92 -218 -229c0 -120 86 -218 217 -218z" />
    <glyph glyph-name="uni1EAB" unicode="&#x1eab;" horiz-adv-x="591" 
d="M148 765l-21 6c17 50 43 77 84 77c30 0 52 -14 75 -30c24 -16 49 -37 75 -37c33 0 50 21 61 62l21 -7c-15 -52 -41 -77 -82 -77c-31 0 -61 22 -88 41c-21 15 -40 26 -61 26c-28 0 -50 -22 -64 -61zM152 562l125 128h25l122 -128h-29l-104 110h-2l-108 -110h-29zM285 -3
c-132 0 -240 96 -240 240c0 138 97 251 241 251c92 0 172 -54 208 -141h1v137h22v-484h-22v133h-1c-35 -80 -110 -136 -209 -136zM285 19c116 0 210 87 210 218c0 126 -84 229 -209 229c-120 0 -218 -92 -218 -229c0 -120 86 -218 217 -218z" />
    <glyph glyph-name="adieresis" unicode="&#xe4;" horiz-adv-x="591" 
d="M212 606c-16 0 -28 12 -28 27c0 17 12 27 28 27s27 -10 27 -27c0 -15 -11 -27 -27 -27zM359 606c-16 0 -28 12 -28 27c0 17 12 27 28 27s27 -10 27 -27c0 -15 -11 -27 -27 -27zM285 -3c-132 0 -240 96 -240 240c0 138 97 251 241 251c92 0 172 -54 208 -141h1v137h22
v-484h-22v133h-1c-35 -80 -110 -136 -209 -136zM285 19c116 0 210 87 210 218c0 126 -84 229 -209 229c-120 0 -218 -92 -218 -229c0 -120 86 -218 217 -218z" />
    <glyph glyph-name="uni1EA1" unicode="&#x1ea1;" horiz-adv-x="591" 
d="M285 -3c-132 0 -240 96 -240 240c0 138 97 251 241 251c92 0 172 -54 208 -141h1v137h22v-484h-22v133h-1c-35 -80 -110 -136 -209 -136zM285 19c116 0 210 87 210 218c0 126 -84 229 -209 229c-120 0 -218 -92 -218 -229c0 -120 86 -218 217 -218zM289 -124
c16 0 28 -12 28 -27c0 -17 -12 -27 -28 -27s-27 10 -27 27c0 15 11 27 27 27z" />
    <glyph glyph-name="agrave" unicode="&#xe0;" horiz-adv-x="591" 
d="M294 565l-114 127h30l113 -127h-29zM285 -3c-132 0 -240 96 -240 240c0 138 97 251 241 251c92 0 172 -54 208 -141h1v137h22v-484h-22v133h-1c-35 -80 -110 -136 -209 -136zM285 19c116 0 210 87 210 218c0 126 -84 229 -209 229c-120 0 -218 -92 -218 -229
c0 -120 86 -218 217 -218z" />
    <glyph glyph-name="uni1EA3" unicode="&#x1ea3;" horiz-adv-x="591" 
d="M264 555c42 29 102 66 102 107c0 35 -26 44 -60 44s-73 -13 -90 -31l-6 24c28 18 63 29 96 29c45 0 82 -19 82 -68c0 -46 -59 -83 -89 -105h-35zM285 -3c-132 0 -240 96 -240 240c0 138 97 251 241 251c92 0 172 -54 208 -141h1v137h22v-484h-22v133h-1
c-35 -80 -110 -136 -209 -136zM285 19c116 0 210 87 210 218c0 126 -84 229 -209 229c-120 0 -218 -92 -218 -229c0 -120 86 -218 217 -218z" />
    <glyph glyph-name="amacron" unicode="&#x101;" horiz-adv-x="591" 
d="M154 619v23h267v-23h-267zM285 -3c-132 0 -240 96 -240 240c0 138 97 251 241 251c92 0 172 -54 208 -141h1v137h22v-484h-22v133h-1c-35 -80 -110 -136 -209 -136zM285 19c116 0 210 87 210 218c0 126 -84 229 -209 229c-120 0 -218 -92 -218 -229
c0 -120 86 -218 217 -218z" />
    <glyph glyph-name="aogonek" unicode="&#x105;" horiz-adv-x="591" 
d="M558 -145l4 -23c-16 -8 -33 -13 -63 -13c-51 0 -84 26 -84 76c0 37 27 82 80 115v123h-1c-35 -80 -110 -136 -209 -136c-132 0 -240 96 -240 240c0 138 97 251 241 251c92 0 172 -54 208 -141h1v137h22v-484c-48 -25 -79 -66 -79 -104c0 -31 18 -54 61 -54
c29 0 41 4 59 13zM285 19c116 0 210 87 210 218c0 126 -84 229 -209 229c-120 0 -218 -92 -218 -229c0 -120 86 -218 217 -218z" />
    <glyph glyph-name="aring" unicode="&#xe5;" horiz-adv-x="591" 
d="M287 555c-39 0 -73 34 -73 73c0 40 34 73 73 73c40 0 74 -33 74 -73c0 -39 -34 -73 -74 -73zM287 578c28 0 52 23 52 50c0 28 -24 51 -52 51s-51 -23 -51 -51c0 -27 23 -50 51 -50zM285 -3c-132 0 -240 96 -240 240c0 138 97 251 241 251c92 0 172 -54 208 -141h1v137h22
v-484h-22v133h-1c-35 -80 -110 -136 -209 -136zM285 19c116 0 210 87 210 218c0 126 -84 229 -209 229c-120 0 -218 -92 -218 -229c0 -120 86 -218 217 -218z" />
    <glyph glyph-name="aringacute" unicode="&#x1fb;" horiz-adv-x="591" 
d="M287 555c-39 0 -73 34 -73 73c0 40 34 73 73 73c24 0 46 -12 60 -31l91 58h39l-120 -77c3 -7 4 -15 4 -23c0 -39 -34 -73 -74 -73zM287 679c-28 0 -51 -23 -51 -51c0 -27 23 -50 51 -50s52 23 52 50c0 28 -24 51 -52 51zM495 484h22v-484h-22v133h-1
c-35 -80 -110 -136 -209 -136c-132 0 -240 96 -240 240c0 138 97 251 241 251c92 0 172 -54 208 -141h1v137zM285 19c116 0 210 87 210 218c0 126 -84 229 -209 229c-120 0 -218 -92 -218 -229c0 -120 86 -218 217 -218z" />
    <glyph glyph-name="atilde" unicode="&#xe3;" horiz-adv-x="591" 
d="M365 581c-32 0 -61 23 -88 42c-21 15 -42 27 -63 27c-28 0 -50 -22 -64 -61l-21 6c17 50 43 77 84 77c30 0 54 -15 77 -31c24 -16 48 -38 74 -38c24 0 48 19 60 62l21 -7c-16 -54 -49 -77 -80 -77zM285 -3c-132 0 -240 96 -240 240c0 138 97 251 241 251
c92 0 172 -54 208 -141h1v137h22v-484h-22v133h-1c-35 -80 -110 -136 -209 -136zM285 19c116 0 210 87 210 218c0 126 -84 229 -209 229c-120 0 -218 -92 -218 -229c0 -120 86 -218 217 -218z" />
    <glyph glyph-name="ae" unicode="&#xe6;" horiz-adv-x="792" 
d="M744 255v-12h-363c4 -141 74 -224 181 -224c76 0 111 30 147 81l17 -13c-39 -57 -84 -90 -162 -90c-109 0 -165 69 -187 143h-1c-20 -90 -98 -143 -191 -143c-99 0 -148 65 -148 137c0 71 52 130 172 130l151 1v24c0 129 -29 176 -117 176c-66 0 -115 -20 -153 -42
l-11 19c42 25 95 46 164 46c91 0 127 -47 136 -136h1c27 81 89 136 177 136c107 0 187 -99 187 -233zM382 265h339c-7 120 -69 201 -164 201c-104 0 -166 -85 -175 -201zM185 19c93 0 175 59 175 175v49l-151 -1c-82 0 -149 -35 -149 -108c0 -59 40 -115 125 -115z" />
    <glyph glyph-name="aeacute" unicode="&#x1fd;" horiz-adv-x="792" 
d="M512 696l-124 -135h-30l123 135h31zM744 255v-12h-363c4 -141 74 -224 181 -224c76 0 111 30 147 81l17 -13c-39 -57 -84 -90 -162 -90c-109 0 -165 69 -187 143h-1c-20 -90 -98 -143 -191 -143c-99 0 -148 65 -148 137c0 71 52 130 172 130l151 1v24
c0 129 -29 176 -117 176c-66 0 -115 -20 -153 -42l-11 19c42 25 95 46 164 46c91 0 127 -47 136 -136h1c27 81 89 136 177 136c107 0 187 -99 187 -233zM382 265h339c-7 120 -69 201 -164 201c-104 0 -166 -85 -175 -201zM185 19c93 0 175 59 175 175v49l-151 -1
c-82 0 -149 -35 -149 -108c0 -59 40 -115 125 -115z" />
    <glyph glyph-name="b" unicode="b" horiz-adv-x="600" 
d="M313 -3c-99 0 -174 55 -209 135h-1v-132h-22v736h22v-388h1c37 87 116 140 208 140c144 0 240 -113 240 -251c0 -144 -107 -240 -239 -240zM313 19c130 0 216 98 216 218c0 137 -97 229 -217 229c-126 0 -209 -103 -209 -229c0 -131 94 -218 210 -218z" />
    <glyph glyph-name="c" unicode="c" horiz-adv-x="499" 
d="M278 -3c-138 0 -231 101 -231 245c0 143 94 246 232 246c67 0 134 -26 180 -77l-17 -17c-35 42 -94 72 -163 72c-125 0 -209 -94 -209 -224c0 -132 84 -223 208 -223c64 0 129 26 168 70l15 -17c-41 -43 -109 -75 -183 -75z" />
    <glyph glyph-name="cacute" unicode="&#x107;" horiz-adv-x="499" 
d="M261 561l123 135h31l-124 -135h-30zM278 -3c-138 0 -231 101 -231 245c0 143 94 246 232 246c67 0 134 -26 180 -77l-17 -17c-35 42 -94 72 -163 72c-125 0 -209 -94 -209 -224c0 -132 84 -223 208 -223c64 0 129 26 168 70l15 -17c-41 -43 -109 -75 -183 -75z" />
    <glyph glyph-name="ccaron" unicode="&#x10d;" horiz-adv-x="499" 
d="M259 562l-122 128h29l106 -110h2l106 110h29l-125 -128h-25zM278 -3c-138 0 -231 101 -231 245c0 143 94 246 232 246c67 0 134 -26 180 -77l-17 -17c-35 42 -94 72 -163 72c-125 0 -209 -94 -209 -224c0 -132 84 -223 208 -223c64 0 129 26 168 70l15 -17
c-41 -43 -109 -75 -183 -75z" />
    <glyph glyph-name="ccedilla" unicode="&#xe7;" horiz-adv-x="499" 
d="M275 -3l-13 -31v-1c38 -3 80 -29 80 -77c0 -38 -30 -72 -85 -72c-16 0 -34 2 -49 6v23c13 -4 27 -7 45 -7c35 0 66 16 66 51c0 28 -26 57 -82 57l1 19l15 33c-124 11 -206 109 -206 244c0 143 94 246 232 246c67 0 134 -26 180 -77l-17 -17c-35 42 -94 72 -163 72
c-125 0 -209 -94 -209 -224c0 -132 84 -223 208 -223c64 0 129 26 168 70l15 -17c-41 -43 -109 -75 -183 -75h-3z" />
    <glyph glyph-name="ccircumflex" unicode="&#x109;" horiz-adv-x="499" 
d="M137 562l125 128h25l122 -128h-29l-104 110h-2l-108 -110h-29zM278 -3c-138 0 -231 101 -231 245c0 143 94 246 232 246c67 0 134 -26 180 -77l-17 -17c-35 42 -94 72 -163 72c-125 0 -209 -94 -209 -224c0 -132 84 -223 208 -223c64 0 129 26 168 70l15 -17
c-41 -43 -109 -75 -183 -75z" />
    <glyph glyph-name="cdotaccent" unicode="&#x10b;" horiz-adv-x="499" 
d="M274 606c-16 0 -28 12 -28 27c0 17 12 27 28 27s27 -10 27 -27c0 -15 -11 -27 -27 -27zM278 -3c-138 0 -231 101 -231 245c0 143 94 246 232 246c67 0 134 -26 180 -77l-17 -17c-35 42 -94 72 -163 72c-125 0 -209 -94 -209 -224c0 -132 84 -223 208 -223
c64 0 129 26 168 70l15 -17c-41 -43 -109 -75 -183 -75z" />
    <glyph glyph-name="d" unicode="d" horiz-adv-x="600" 
d="M288 -3c-133 0 -241 96 -241 240c0 138 97 251 241 251c92 0 172 -54 208 -142h2v390h22v-736h-22v135h-2c-32 -81 -110 -138 -208 -138zM288 19c115 0 210 87 210 218c0 126 -85 229 -210 229c-121 0 -218 -92 -218 -229c0 -120 86 -218 218 -218z" />
    <glyph glyph-name="eth" unicode="&#xf0;" horiz-adv-x="580" 
d="M436 543c60 -82 96 -183 96 -291c0 -146 -97 -255 -242 -255c-134 0 -243 98 -243 245c0 133 98 246 243 246c77 0 146 -34 190 -91c3 -3 5 -7 8 -11l2 2c-16 52 -41 100 -72 144c-27 37 -58 69 -93 98l-75 -83l-17 13l75 83c-44 33 -91 59 -142 76l6 20
c54 -18 105 -45 150 -80l76 85l18 -14l-76 -84c36 -30 69 -65 96 -103zM290 19c131 0 219 99 219 233c0 123 -98 213 -219 213c-132 0 -220 -101 -220 -223c0 -134 98 -223 220 -223z" />
    <glyph glyph-name="dcaron" unicode="&#x10f;" horiz-adv-x="653" 
d="M612 597l25 158h27l-32 -158h-20zM288 -3c-133 0 -241 96 -241 240c0 138 97 251 241 251c92 0 172 -54 208 -142h2v390h22v-736h-22v135h-2c-32 -81 -110 -138 -208 -138zM288 19c115 0 210 87 210 218c0 126 -85 229 -210 229c-121 0 -218 -92 -218 -229
c0 -120 86 -218 218 -218z" />
    <glyph glyph-name="dcroat" unicode="&#x111;" horiz-adv-x="598" 
d="M582 610v-22h-62v-588h-22v135h-2c-32 -81 -110 -138 -208 -138c-133 0 -241 96 -241 240c0 138 97 251 241 251c92 0 172 -54 208 -142h2v242h-244v22h244v126h22v-126h62zM288 19c115 0 210 87 210 218c0 126 -85 229 -210 229c-121 0 -218 -92 -218 -229
c0 -120 86 -218 218 -218z" />
    <glyph glyph-name="uni1E0D" unicode="&#x1e0d;" horiz-adv-x="600" 
d="M288 -3c-133 0 -241 96 -241 240c0 138 97 251 241 251c92 0 172 -54 208 -142h2v390h22v-736h-22v135h-2c-32 -81 -110 -138 -208 -138zM288 19c115 0 210 87 210 218c0 126 -85 229 -210 229c-121 0 -218 -92 -218 -229c0 -120 86 -218 218 -218zM300 -124
c16 0 28 -12 28 -27c0 -17 -12 -27 -28 -27s-27 10 -27 27c0 15 11 27 27 27z" />
    <glyph glyph-name="uni1E0F" unicode="&#x1e0f;" horiz-adv-x="600" 
d="M288 -3c-133 0 -241 96 -241 240c0 138 97 251 241 251c92 0 172 -54 208 -142h2v390h22v-736h-22v135h-2c-32 -81 -110 -138 -208 -138zM288 19c115 0 210 87 210 218c0 126 -85 229 -210 229c-121 0 -218 -92 -218 -229c0 -120 86 -218 218 -218zM434 -170h-267v23h267
v-23z" />
    <glyph glyph-name="e" unicode="e" horiz-adv-x="532" 
d="M489 243h-419v-1c0 -129 86 -223 207 -223c77 0 135 31 174 81l17 -13c-42 -56 -105 -90 -189 -90c-136 0 -232 104 -232 245s100 246 230 246c126 0 212 -99 212 -231v-14zM277 466c-110 0 -196 -85 -206 -201h395c-7 120 -80 201 -189 201z" />
    <glyph glyph-name="eacute" unicode="&#xe9;" horiz-adv-x="532" 
d="M408 696l-124 -135h-30l123 135h31zM489 243h-419v-1c0 -129 86 -223 207 -223c77 0 135 31 174 81l17 -13c-42 -56 -105 -90 -189 -90c-136 0 -232 104 -232 245s100 246 230 246c126 0 212 -99 212 -231v-14zM277 466c-110 0 -196 -85 -206 -201h395
c-7 120 -80 201 -189 201z" />
    <glyph glyph-name="ebreve" unicode="&#x115;" horiz-adv-x="532" 
d="M278 561c-62 0 -117 44 -122 127h21c4 -59 40 -105 101 -105s97 46 100 105h22c-6 -83 -60 -127 -122 -127zM489 243h-419v-1c0 -129 86 -223 207 -223c77 0 135 31 174 81l17 -13c-42 -56 -105 -90 -189 -90c-136 0 -232 104 -232 245s100 246 230 246
c126 0 212 -99 212 -231v-14zM277 466c-110 0 -196 -85 -206 -201h395c-7 120 -80 201 -189 201z" />
    <glyph glyph-name="ecaron" unicode="&#x11b;" horiz-adv-x="532" 
d="M289 562h-25l-122 128h29l106 -110h2l106 110h29zM489 243h-419v-1c0 -129 86 -223 207 -223c77 0 135 31 174 81l17 -13c-42 -56 -105 -90 -189 -90c-136 0 -232 104 -232 245s100 246 230 246c126 0 212 -99 212 -231v-14zM277 466c-110 0 -196 -85 -206 -201h395
c-7 120 -80 201 -189 201z" />
    <glyph glyph-name="ecircumflex" unicode="&#xea;" horiz-adv-x="532" 
d="M279 672l-108 -110h-29l125 128h25l122 -128h-29l-104 110h-2zM489 243h-419v-1c0 -129 86 -223 207 -223c77 0 135 31 174 81l17 -13c-42 -56 -105 -90 -189 -90c-136 0 -232 104 -232 245s100 246 230 246c126 0 212 -99 212 -231v-14zM277 466
c-110 0 -196 -85 -206 -201h395c-7 120 -80 201 -189 201z" />
    <glyph glyph-name="uni1EBF" unicode="&#x1ebf;" horiz-adv-x="532" 
d="M529 776l-125 -135h-29l123 135h31zM281 673l-108 -110h-29l125 128h25l122 -128h-29l-104 110h-2zM277 488c126 0 212 -99 212 -231v-14h-419v-1c0 -129 86 -223 207 -223c77 0 135 31 174 81l17 -13c-42 -56 -105 -90 -189 -90c-136 0 -232 104 -232 245
s100 246 230 246zM277 466c-110 0 -196 -85 -206 -201h395c-7 120 -80 201 -189 201z" />
    <glyph glyph-name="uni1EC7" unicode="&#x1ec7;" horiz-adv-x="532" 
d="M279 672l-108 -110h-29l125 128h25l122 -128h-29l-104 110h-2zM489 243h-419v-1c0 -129 86 -223 207 -223c77 0 135 31 174 81l17 -13c-42 -56 -105 -90 -189 -90c-136 0 -232 104 -232 245s100 246 230 246c126 0 212 -99 212 -231v-14zM277 466
c-110 0 -196 -85 -206 -201h395c-7 120 -80 201 -189 201zM283 -124c16 0 28 -12 28 -27c0 -17 -12 -27 -28 -27s-27 10 -27 27c0 15 11 27 27 27z" />
    <glyph glyph-name="uni1EC1" unicode="&#x1ec1;" horiz-adv-x="532" 
d="M472 641h-29l-125 135h31zM277 674l-108 -110h-29l125 128h25l122 -128h-29l-104 110h-2zM489 243h-419v-1c0 -129 86 -223 207 -223c77 0 135 31 174 81l17 -13c-42 -56 -105 -90 -189 -90c-136 0 -232 104 -232 245s100 246 230 246c126 0 212 -99 212 -231v-14z
M277 466c-110 0 -196 -85 -206 -201h395c-7 120 -80 201 -189 201z" />
    <glyph glyph-name="uni1EC3" unicode="&#x1ec3;" horiz-adv-x="532" 
d="M433 779c-32 0 -70 -12 -86 -29l-6 23c27 17 61 27 92 27c43 0 79 -18 79 -65c0 -44 -57 -80 -85 -101h-34c40 28 98 64 98 103c0 34 -25 42 -58 42zM278 672l-108 -110h-29l125 128h25l122 -128h-29l-104 110h-2zM277 488c126 0 212 -99 212 -231v-14h-419v-1
c0 -129 86 -223 207 -223c77 0 135 31 174 81l17 -13c-42 -56 -105 -90 -189 -90c-136 0 -232 104 -232 245s100 246 230 246zM277 466c-110 0 -196 -85 -206 -201h395c-7 120 -80 201 -189 201z" />
    <glyph glyph-name="uni1EC5" unicode="&#x1ec5;" horiz-adv-x="532" 
d="M203 826c-28 0 -50 -22 -64 -61l-21 6c17 50 43 77 84 77c30 0 52 -14 75 -30c24 -16 49 -37 75 -37c33 0 50 21 61 62l21 -7c-15 -52 -41 -77 -82 -77c-31 0 -61 22 -88 41c-21 15 -40 26 -61 26zM268 690h25l122 -128h-29l-104 110h-2l-108 -110h-29zM489 243h-419v-1
c0 -129 86 -223 207 -223c77 0 135 31 174 81l17 -13c-42 -56 -105 -90 -189 -90c-136 0 -232 104 -232 245s100 246 230 246c126 0 212 -99 212 -231v-14zM277 466c-110 0 -196 -85 -206 -201h395c-7 120 -80 201 -189 201z" />
    <glyph glyph-name="edieresis" unicode="&#xeb;" horiz-adv-x="532" 
d="M203 606c-16 0 -28 12 -28 27c0 17 12 27 28 27s27 -10 27 -27c0 -15 -11 -27 -27 -27zM350 606c-16 0 -28 12 -28 27c0 17 12 27 28 27s27 -10 27 -27c0 -15 -11 -27 -27 -27zM489 243h-419v-1c0 -129 86 -223 207 -223c77 0 135 31 174 81l17 -13
c-42 -56 -105 -90 -189 -90c-136 0 -232 104 -232 245s100 246 230 246c126 0 212 -99 212 -231v-14zM277 466c-110 0 -196 -85 -206 -201h395c-7 120 -80 201 -189 201z" />
    <glyph glyph-name="edotaccent" unicode="&#x117;" horiz-adv-x="532" 
d="M279 606c-16 0 -28 12 -28 27c0 17 12 27 28 27s27 -10 27 -27c0 -15 -11 -27 -27 -27zM489 243h-419v-1c0 -129 86 -223 207 -223c77 0 135 31 174 81l17 -13c-42 -56 -105 -90 -189 -90c-136 0 -232 104 -232 245s100 246 230 246c126 0 212 -99 212 -231v-14zM277 466
c-110 0 -196 -85 -206 -201h395c-7 120 -80 201 -189 201z" />
    <glyph glyph-name="uni1EB9" unicode="&#x1eb9;" horiz-adv-x="532" 
d="M489 243h-419v-1c0 -129 86 -223 207 -223c77 0 135 31 174 81l17 -13c-42 -56 -105 -90 -189 -90c-136 0 -232 104 -232 245s100 246 230 246c126 0 212 -99 212 -231v-14zM277 466c-110 0 -196 -85 -206 -201h395c-7 120 -80 201 -189 201zM283 -124
c16 0 28 -12 28 -27c0 -17 -12 -27 -28 -27s-27 10 -27 27c0 15 11 27 27 27z" />
    <glyph glyph-name="egrave" unicode="&#xe8;" horiz-adv-x="532" 
d="M318 565h-29l-114 127h30zM489 243h-419v-1c0 -129 86 -223 207 -223c77 0 135 31 174 81l17 -13c-42 -56 -105 -90 -189 -90c-136 0 -232 104 -232 245s100 246 230 246c126 0 212 -99 212 -231v-14zM277 466c-110 0 -196 -85 -206 -201h395c-7 120 -80 201 -189 201z
" />
    <glyph glyph-name="uni1EBB" unicode="&#x1ebb;" horiz-adv-x="532" 
d="M297 706c-34 0 -73 -13 -90 -31l-6 24c28 18 63 29 96 29c45 0 82 -19 82 -68c0 -46 -59 -83 -89 -105h-35c42 29 102 66 102 107c0 35 -26 44 -60 44zM489 243h-419v-1c0 -129 86 -223 207 -223c77 0 135 31 174 81l17 -13c-42 -56 -105 -90 -189 -90
c-136 0 -232 104 -232 245s100 246 230 246c126 0 212 -99 212 -231v-14zM277 466c-110 0 -196 -85 -206 -201h395c-7 120 -80 201 -189 201z" />
    <glyph glyph-name="emacron" unicode="&#x113;" horiz-adv-x="532" 
d="M412 642v-23h-267v23h267zM489 243h-419v-1c0 -129 86 -223 207 -223c77 0 135 31 174 81l17 -13c-42 -56 -105 -90 -189 -90c-136 0 -232 104 -232 245s100 246 230 246c126 0 212 -99 212 -231v-14zM277 466c-110 0 -196 -85 -206 -201h395c-7 120 -80 201 -189 201z
" />
    <glyph glyph-name="eogonek" unicode="&#x119;" horiz-adv-x="532" 
d="M489 243h-419v-1c0 -129 86 -223 207 -223c77 0 135 31 174 81l17 -13c-35 -46 -84 -77 -147 -87c-47 -25 -78 -65 -78 -103c0 -31 18 -54 62 -54c29 0 41 4 58 13l4 -23c-15 -8 -32 -13 -62 -13c-51 0 -84 26 -84 76c0 32 20 70 58 100v1c-136 0 -232 104 -232 245
s100 246 230 246c126 0 212 -99 212 -231v-14zM277 466c-110 0 -196 -85 -206 -201h395c-7 120 -80 201 -189 201z" />
    <glyph glyph-name="uni1EBD" unicode="&#x1ebd;" horiz-adv-x="532" 
d="M205 650c-28 0 -50 -22 -64 -61l-21 6c17 50 43 77 84 77c30 0 54 -15 77 -31c24 -16 48 -38 74 -38c24 0 48 19 60 62l21 -7c-16 -54 -49 -77 -80 -77c-32 0 -61 23 -88 42c-21 15 -42 27 -63 27zM489 243h-419v-1c0 -129 86 -223 207 -223c77 0 135 31 174 81l17 -13
c-42 -56 -105 -90 -189 -90c-136 0 -232 104 -232 245s100 246 230 246c126 0 212 -99 212 -231v-14zM277 466c-110 0 -196 -85 -206 -201h395c-7 120 -80 201 -189 201z" />
    <glyph glyph-name="uni0259" unicode="&#x259;" horiz-adv-x="537" 
d="M255 488c138 0 235 -105 235 -245c0 -142 -81 -246 -226 -246c-133 0 -219 97 -220 227c0 6 1 14 2 18h421v1c0 130 -89 223 -212 223c-59 0 -111 -15 -160 -44l-11 18c53 32 108 48 171 48zM264 19c122 0 194 81 202 201h-399c3 -121 82 -201 197 -201z" />
    <glyph glyph-name="f" unicode="f" horiz-adv-x="311" 
d="M105 0v462h-68v22h68v118c0 96 48 138 117 138c38 0 66 -10 95 -26l-4 -22c-28 16 -55 26 -92 26c-52 0 -94 -31 -94 -116v-118h173v-22h-173v-462h-22z" />
    <glyph glyph-name="g" unicode="g" horiz-adv-x="586" 
d="M292 -201c-73 0 -134 17 -198 56l7 23c63 -40 122 -57 192 -57c136 0 198 81 198 194v131h-1c-34 -80 -107 -134 -209 -134c-129 0 -234 94 -234 241c0 129 94 235 235 235c94 0 172 -50 208 -130h1v126h22v-474c0 -125 -74 -211 -221 -211zM281 34c130 0 210 95 210 219
c0 127 -91 213 -209 213c-128 0 -212 -96 -212 -213c0 -133 94 -219 211 -219z" />
    <glyph glyph-name="gbreve" unicode="&#x11f;" horiz-adv-x="586" 
d="M282 561c-62 0 -117 44 -122 127h21c4 -59 40 -105 101 -105s97 46 100 105h22c-6 -83 -60 -127 -122 -127zM292 -201c-73 0 -134 17 -198 56l7 23c63 -40 122 -57 192 -57c136 0 198 81 198 194v131h-1c-34 -80 -107 -134 -209 -134c-129 0 -234 94 -234 241
c0 129 94 235 235 235c94 0 172 -50 208 -130h1v126h22v-474c0 -125 -74 -211 -221 -211zM281 34c130 0 210 95 210 219c0 127 -91 213 -209 213c-128 0 -212 -96 -212 -213c0 -133 94 -219 211 -219z" />
    <glyph glyph-name="gcaron" unicode="&#x1e7;" horiz-adv-x="586" 
d="M268 562l-122 128h29l106 -110h2l106 110h29l-125 -128h-25zM292 -201c-73 0 -134 17 -198 56l7 23c63 -40 122 -57 192 -57c136 0 198 81 198 194v131h-1c-34 -80 -107 -134 -209 -134c-129 0 -234 94 -234 241c0 129 94 235 235 235c94 0 172 -50 208 -130h1v126h22
v-474c0 -125 -74 -211 -221 -211zM281 34c130 0 210 95 210 219c0 127 -91 213 -209 213c-128 0 -212 -96 -212 -213c0 -133 94 -219 211 -219z" />
    <glyph glyph-name="gcircumflex" unicode="&#x11d;" horiz-adv-x="586" 
d="M146 562l125 128h25l122 -128h-29l-104 110h-2l-108 -110h-29zM292 -201c-73 0 -134 17 -198 56l7 23c63 -40 122 -57 192 -57c136 0 198 81 198 194v131h-1c-34 -80 -107 -134 -209 -134c-129 0 -234 94 -234 241c0 129 94 235 235 235c94 0 172 -50 208 -130h1v126h22
v-474c0 -125 -74 -211 -221 -211zM281 34c130 0 210 95 210 219c0 127 -91 213 -209 213c-128 0 -212 -96 -212 -213c0 -133 94 -219 211 -219z" />
    <glyph glyph-name="gcommaaccent" unicode="&#x123;" horiz-adv-x="586" 
d="M360 696l8 -18c-59 -3 -68 -35 -68 -70c0 -18 2 -38 5 -56h-22c-3 17 -5 37 -5 55c0 45 18 85 82 89zM292 -201c-73 0 -134 17 -198 56l7 23c63 -40 122 -57 192 -57c136 0 198 81 198 194v131h-1c-34 -80 -107 -134 -209 -134c-129 0 -234 94 -234 241
c0 129 94 235 235 235c94 0 172 -50 208 -130h1v126h22v-474c0 -125 -74 -211 -221 -211zM281 34c130 0 210 95 210 219c0 127 -91 213 -209 213c-128 0 -212 -96 -212 -213c0 -133 94 -219 211 -219z" />
    <glyph glyph-name="gdotaccent" unicode="&#x121;" horiz-adv-x="586" 
d="M283 606c-16 0 -28 12 -28 27c0 17 12 27 28 27s27 -10 27 -27c0 -15 -11 -27 -27 -27zM292 -201c-73 0 -134 17 -198 56l7 23c63 -40 122 -57 192 -57c136 0 198 81 198 194v131h-1c-34 -80 -107 -134 -209 -134c-129 0 -234 94 -234 241c0 129 94 235 235 235
c94 0 172 -50 208 -130h1v126h22v-474c0 -125 -74 -211 -221 -211zM281 34c130 0 210 95 210 219c0 127 -91 213 -209 213c-128 0 -212 -96 -212 -213c0 -133 94 -219 211 -219z" />
    <glyph glyph-name="uni1E21" unicode="&#x1e21;" horiz-adv-x="586" 
d="M149 619v23h267v-23h-267zM292 -201c-73 0 -134 17 -198 56l7 23c63 -40 122 -57 192 -57c136 0 198 81 198 194v131h-1c-34 -80 -107 -134 -209 -134c-129 0 -234 94 -234 241c0 129 94 235 235 235c94 0 172 -50 208 -130h1v126h22v-474c0 -125 -74 -211 -221 -211z
M281 34c130 0 210 95 210 219c0 127 -91 213 -209 213c-128 0 -212 -96 -212 -213c0 -133 94 -219 211 -219z" />
    <glyph glyph-name="h" unicode="h" horiz-adv-x="548" 
d="M81 0v736h22v-381h1c33 82 108 133 207 133c102 0 167 -71 167 -196v-292h-22v281c0 135 -66 185 -145 185c-127 0 -208 -91 -208 -227v-239h-22z" />
    <glyph glyph-name="hbar" unicode="&#x127;" horiz-adv-x="548" 
d="M311 488c102 0 167 -71 167 -196v-292h-22v281c0 135 -66 185 -145 185c-127 0 -208 -91 -208 -227v-239h-22v588h-77v22h77v126h22v-126h219v-22h-219v-233h1c33 82 108 133 207 133z" />
    <glyph glyph-name="uni1E2B" unicode="&#x1e2b;" horiz-adv-x="548" 
d="M81 0v736h22v-381h1c33 82 108 133 207 133c102 0 167 -71 167 -196v-292h-22v281c0 135 -66 185 -145 185c-127 0 -208 -91 -208 -227v-239h-22zM280 -207c-62 0 -116 44 -122 127h22c3 -59 39 -105 100 -105s97 46 101 105h21c-5 -83 -60 -127 -122 -127z" />
    <glyph glyph-name="hcircumflex" unicode="&#x125;" horiz-adv-x="548" 
d="M81 808l125 109h25l122 -109h-30l-104 92h-2l-107 -92h-29zM81 0v736h22v-381h1c33 82 108 133 207 133c102 0 167 -71 167 -196v-292h-22v281c0 135 -66 185 -145 185c-127 0 -208 -91 -208 -227v-239h-22z" />
    <glyph glyph-name="uni1E25" unicode="&#x1e25;" horiz-adv-x="548" 
d="M81 0v736h22v-381h1c33 82 108 133 207 133c102 0 167 -71 167 -196v-292h-22v281c0 135 -66 185 -145 185c-127 0 -208 -91 -208 -227v-239h-22zM280 -124c16 0 28 -12 28 -27c0 -17 -12 -27 -28 -27s-27 10 -27 27c0 15 11 27 27 27z" />
    <glyph glyph-name="i" unicode="i" horiz-adv-x="195" 
d="M99 606c-16 0 -28 12 -28 27c0 17 12 27 28 27s27 -10 27 -27c0 -15 -11 -27 -27 -27zM86 0v484h22v-484h-22z" />
    <glyph glyph-name="dotlessi" unicode="&#x131;" horiz-adv-x="195" 
d="M86 0v484h22v-484h-22z" />
    <glyph glyph-name="iacute" unicode="&#xed;" horiz-adv-x="195" 
d="M89 561l123 135h31l-124 -135h-30zM86 0v484h22v-484h-22z" />
    <glyph glyph-name="ibreve" unicode="&#x12d;" horiz-adv-x="195" 
d="M98 561c-62 0 -109 44 -113 127h22c2 -60 30 -105 91 -105s89 45 90 105h22c-4 -83 -50 -127 -112 -127zM86 0v484h22v-484h-22z" />
    <glyph glyph-name="uni01D0" unicode="&#x1d0;" horiz-adv-x="195" 
d="M84 562l-122 128h29l106 -110h2l106 110h29l-125 -128h-25zM86 0v484h22v-484h-22z" />
    <glyph glyph-name="icircumflex" unicode="&#xee;" horiz-adv-x="195" 
d="M-38 562l125 128h25l122 -128h-29l-104 110h-2l-108 -110h-29zM86 0v484h22v-484h-22z" />
    <glyph glyph-name="idieresis" unicode="&#xef;" horiz-adv-x="195" 
d="M23 606c-16 0 -28 12 -28 27c0 17 12 27 28 27s27 -10 27 -27c0 -15 -11 -27 -27 -27zM170 606c-16 0 -28 12 -28 27c0 17 12 27 28 27s27 -10 27 -27c0 -15 -11 -27 -27 -27zM86 0v484h22v-484h-22z" />
    <glyph glyph-name="i.loclTRK" horiz-adv-x="195" 
d="M99 606c-16 0 -28 12 -28 27c0 17 12 27 28 27s27 -10 27 -27c0 -15 -11 -27 -27 -27zM86 0v484h22v-484h-22z" />
    <glyph glyph-name="uni1ECB" unicode="&#x1ecb;" horiz-adv-x="195" 
d="M99 606c-16 0 -28 12 -28 27c0 17 12 27 28 27s27 -10 27 -27c0 -15 -11 -27 -27 -27zM86 0v484h22v-484h-22zM98 -124c16 0 28 -12 28 -27c0 -17 -12 -27 -28 -27s-27 10 -27 27c0 15 11 27 27 27z" />
    <glyph glyph-name="igrave" unicode="&#xec;" horiz-adv-x="195" 
d="M81 561l-90 135h29l88 -135h-27zM86 0v484h22v-484h-22z" />
    <glyph glyph-name="uni1EC9" unicode="&#x1ec9;" horiz-adv-x="195" 
d="M75 555c42 29 102 66 102 107c0 35 -26 44 -60 44s-73 -13 -90 -31l-6 24c28 18 63 29 96 29c45 0 82 -19 82 -68c0 -46 -59 -83 -89 -105h-35zM86 0v484h22v-484h-22z" />
    <glyph glyph-name="ij" unicode="&#x133;" horiz-adv-x="371" 
d="M99 606c-16 0 -28 12 -28 27c0 17 12 27 28 27s27 -10 27 -27c0 -15 -11 -27 -27 -27zM290 606c-16 0 -28 12 -28 27c0 17 12 27 28 27s27 -10 27 -27c0 -15 -11 -27 -27 -27zM86 0v484h22v-484h-22zM199 -201c-16 0 -43 4 -63 14l3 24c20 -12 45 -16 62 -16
c45 0 77 25 77 94v569h22v-569c0 -60 -21 -116 -101 -116z" />
    <glyph glyph-name="imacron" unicode="&#x12b;" horiz-adv-x="195" 
d="M-35 619v23h267v-23h-267zM86 0v484h22v-484h-22z" />
    <glyph glyph-name="iogonek" unicode="&#x12f;" horiz-adv-x="195" 
d="M99 606c-16 0 -28 12 -28 27c0 17 12 27 28 27s27 -10 27 -27c0 -15 -11 -27 -27 -27zM149 -145l4 -23c-16 -8 -33 -13 -63 -13c-51 0 -84 26 -84 76c0 37 27 82 80 115v474h22v-484c-48 -25 -79 -66 -79 -104c0 -31 18 -54 61 -54c29 0 41 4 59 13z" />
    <glyph glyph-name="itilde" unicode="&#x129;" horiz-adv-x="195" 
d="M176 581c-32 0 -61 23 -88 42c-21 15 -42 27 -63 27c-28 0 -50 -22 -64 -61l-21 6c17 50 43 77 84 77c30 0 54 -15 77 -31c24 -16 48 -38 74 -38c24 0 48 19 60 62l21 -7c-16 -54 -49 -77 -80 -77zM86 0v484h22v-484h-22z" />
    <glyph glyph-name="j" unicode="j" horiz-adv-x="176" 
d="M95 606c-16 0 -28 12 -28 27c0 17 12 27 28 27s27 -10 27 -27c0 -15 -11 -27 -27 -27zM4 -201c-16 0 -43 4 -63 14l3 24c20 -12 45 -16 62 -16c45 0 77 25 77 94v569h22v-569c0 -60 -21 -116 -101 -116z" />
    <glyph glyph-name="uni0237" unicode="&#x237;" horiz-adv-x="176" 
d="M4 -201c-16 0 -43 4 -63 14l3 24c20 -12 45 -16 62 -16c45 0 77 25 77 94v569h22v-569c0 -60 -21 -116 -101 -116z" />
    <glyph glyph-name="uni006A0301" horiz-adv-x="176" 
d="M83 575l123 135h31l-124 -135h-30zM4 -201c-16 0 -43 4 -63 14l3 24c20 -12 45 -16 62 -16c45 0 77 25 77 94v569h22v-569c0 -60 -21 -116 -101 -116z" />
    <glyph glyph-name="jcircumflex" unicode="&#x135;" horiz-adv-x="176" 
d="M-42 562l125 128h25l122 -128h-29l-104 110h-2l-108 -110h-29zM4 -201c-16 0 -43 4 -63 14l3 24c20 -12 45 -16 62 -16c45 0 77 25 77 94v569h22v-569c0 -60 -21 -116 -101 -116z" />
    <glyph glyph-name="k" unicode="k" horiz-adv-x="483" 
d="M81 0v736h22v-596l1 -1l317 345h31l-193 -210l191 -274h-28l-179 256l-140 -151v-105h-22z" />
    <glyph glyph-name="kcommaaccent" unicode="&#x137;" horiz-adv-x="483" 
d="M81 0v736h22v-596l1 -1l317 345h31l-193 -210l191 -274h-28l-179 256l-140 -151v-105h-22zM182 -199l-8 18c59 3 68 35 68 70c0 18 -2 38 -5 56h22c3 -17 5 -37 5 -55c0 -45 -18 -85 -82 -89z" />
    <glyph glyph-name="kgreenlandic" unicode="&#x138;" horiz-adv-x="510" 
d="M81 0v484h22v-346h1l333 346h32l-205 -213l215 -271h-30l-202 253l-144 -150v-103h-22z" />
    <glyph glyph-name="l" unicode="l" horiz-adv-x="194" 
d="M86 0v736h22v-736h-22z" />
    <glyph glyph-name="lacute" unicode="&#x13a;" horiz-adv-x="194" 
d="M82 808l113 124h30l-114 -124h-29zM86 0v736h22v-736h-22z" />
    <glyph glyph-name="lcaron" unicode="&#x13e;" horiz-adv-x="241" 
d="M200 597l25 158h27l-32 -158h-20zM86 0v736h22v-736h-22z" />
    <glyph glyph-name="lcommaaccent" unicode="&#x13c;" horiz-adv-x="194" 
d="M86 0v736h22v-736h-22zM33 -199l-8 18c59 3 68 35 68 70c0 18 -2 38 -5 56h22c3 -17 5 -37 5 -55c0 -45 -18 -85 -82 -89z" />
    <glyph glyph-name="ldot" unicode="&#x140;" horiz-adv-x="211" 
d="M86 0v736h22v-736h-22zM204 246c-17 0 -29 12 -29 29s12 28 29 28s29 -11 29 -28s-12 -29 -29 -29z" />
    <glyph glyph-name="uni1E37" unicode="&#x1e37;" horiz-adv-x="194" 
d="M86 0v736h22v-736h-22zM94 -124c16 0 28 -12 28 -27c0 -17 -12 -27 -28 -27s-27 10 -27 27c0 15 11 27 27 27z" />
    <glyph glyph-name="uni1E39" unicode="&#x1e39;" horiz-adv-x="194" 
d="M-35 848v23h267v-23h-267zM86 0v736h22v-736h-22zM95 -124c16 0 28 -12 28 -27c0 -17 -12 -27 -28 -27s-27 10 -27 27c0 15 11 27 27 27z" />
    <glyph glyph-name="uni1E3B" unicode="&#x1e3b;" horiz-adv-x="194" 
d="M86 0v736h22v-736h-22zM232 -170h-267v23h267v-23z" />
    <glyph glyph-name="lslash" unicode="&#x142;" horiz-adv-x="210" 
d="M201 376v-24l-83 -32v-320h-22v311l-91 -35v24l91 35v401h22v-392z" />
    <glyph glyph-name="m" unicode="m" horiz-adv-x="862" 
d="M81 0v484h22v-127h1c33 81 103 131 184 131c88 0 143 -57 160 -147h1c30 91 102 147 185 147c111 0 162 -85 162 -211v-277h-22v266c0 135 -52 200 -140 200c-100 0 -181 -91 -181 -227v-239h-22v266c0 135 -56 200 -143 200c-104 0 -185 -91 -185 -227v-239h-22z" />
    <glyph glyph-name="uni1E43" unicode="&#x1e43;" horiz-adv-x="862" 
d="M81 0v484h22v-127h1c33 81 103 131 184 131c88 0 143 -57 160 -147h1c30 91 102 147 185 147c111 0 162 -85 162 -211v-277h-22v266c0 135 -52 200 -140 200c-100 0 -181 -91 -181 -227v-239h-22v266c0 135 -56 200 -143 200c-104 0 -185 -91 -185 -227v-239h-22z
M443 -124c16 0 28 -12 28 -27c0 -17 -12 -27 -28 -27s-27 10 -27 27c0 15 11 27 27 27z" />
    <glyph glyph-name="n" unicode="n" horiz-adv-x="543" 
d="M81 0v484h22v-128h1c34 82 108 132 202 132c102 0 167 -71 167 -196v-292h-22v281c0 135 -66 185 -145 185c-122 0 -203 -91 -203 -227v-239h-22z" />
    <glyph glyph-name="nacute" unicode="&#x144;" horiz-adv-x="543" 
d="M242 561l123 135h31l-124 -135h-30zM81 0v484h22v-128h1c34 82 108 132 202 132c102 0 167 -71 167 -196v-292h-22v281c0 135 -66 185 -145 185c-122 0 -203 -91 -203 -227v-239h-22z" />
    <glyph glyph-name="napostrophe" unicode="&#x149;" horiz-adv-x="592" 
d="M27 542l25 168h26l-31 -168h-20zM130 0v484h22v-128h1c34 82 108 132 202 132c102 0 167 -71 167 -196v-292h-22v281c0 135 -66 185 -145 185c-122 0 -203 -91 -203 -227v-239h-22z" />
    <glyph glyph-name="ncaron" unicode="&#x148;" horiz-adv-x="543" 
d="M268 562l-122 128h29l106 -110h2l106 110h29l-125 -128h-25zM81 0v484h22v-128h1c34 82 108 132 202 132c102 0 167 -71 167 -196v-292h-22v281c0 135 -66 185 -145 185c-122 0 -203 -91 -203 -227v-239h-22z" />
    <glyph glyph-name="ncommaaccent" unicode="&#x146;" horiz-adv-x="543" 
d="M81 0v484h22v-128h1c34 82 108 132 202 132c102 0 167 -71 167 -196v-292h-22v281c0 135 -66 185 -145 185c-122 0 -203 -91 -203 -227v-239h-22zM209 -199l-8 18c59 3 68 35 68 70c0 18 -2 38 -5 56h22c3 -17 5 -37 5 -55c0 -45 -18 -85 -82 -89z" />
    <glyph glyph-name="uni1E45" unicode="&#x1e45;" horiz-adv-x="543" 
d="M283 606c-16 0 -28 12 -28 27c0 17 12 27 28 27s27 -10 27 -27c0 -15 -11 -27 -27 -27zM81 0v484h22v-128h1c34 82 108 132 202 132c102 0 167 -71 167 -196v-292h-22v281c0 135 -66 185 -145 185c-122 0 -203 -91 -203 -227v-239h-22z" />
    <glyph glyph-name="uni1E47" unicode="&#x1e47;" horiz-adv-x="543" 
d="M81 0v484h22v-128h1c34 82 108 132 202 132c102 0 167 -71 167 -196v-292h-22v281c0 135 -66 185 -145 185c-122 0 -203 -91 -203 -227v-239h-22zM287 -124c16 0 28 -12 28 -27c0 -17 -12 -27 -28 -27s-27 10 -27 27c0 15 11 27 27 27z" />
    <glyph glyph-name="eng" unicode="&#x14b;" horiz-adv-x="543" 
d="M337 -201c-22 0 -45 5 -65 14l3 22c20 -10 41 -14 62 -14c75 0 114 24 114 136v324c0 135 -66 185 -145 185c-122 0 -203 -91 -203 -227v-239h-22v484h22v-128h1c34 82 108 132 202 132c102 0 167 -71 167 -196v-335c0 -105 -30 -158 -136 -158z" />
    <glyph glyph-name="uni0272" unicode="&#x272;" horiz-adv-x="543" 
d="M306 488c102 0 167 -71 167 -196v-292h-22v281c0 135 -66 185 -145 185c-122 0 -203 -91 -203 -227v-324c0 -60 -21 -116 -101 -116c-16 0 -43 4 -63 14l3 22c20 -11 45 -14 62 -14c45 0 77 25 77 94v569h22v-128h1c34 82 108 132 202 132z" />
    <glyph glyph-name="uni1E49" unicode="&#x1e49;" horiz-adv-x="543" 
d="M81 0v484h22v-128h1c34 82 108 132 202 132c102 0 167 -71 167 -196v-292h-22v281c0 135 -66 185 -145 185c-122 0 -203 -91 -203 -227v-239h-22zM421 -170h-267v23h267v-23z" />
    <glyph glyph-name="ntilde" unicode="&#xf1;" horiz-adv-x="543" 
d="M360 581c-32 0 -61 23 -88 42c-21 15 -42 27 -63 27c-28 0 -50 -22 -64 -61l-21 6c17 50 43 77 84 77c30 0 54 -15 77 -31c24 -16 48 -38 74 -38c24 0 48 19 60 62l21 -7c-16 -54 -49 -77 -80 -77zM81 0v484h22v-128h1c34 82 108 132 202 132c102 0 167 -71 167 -196
v-292h-22v281c0 135 -66 185 -145 185c-122 0 -203 -91 -203 -227v-239h-22z" />
    <glyph glyph-name="o" unicode="o" horiz-adv-x="579" 
d="M290 -3c-145 0 -243 111 -243 245c0 133 98 246 243 246c133 0 242 -100 242 -246s-109 -245 -242 -245zM290 19c122 0 219 90 219 223s-98 224 -219 224c-133 0 -220 -102 -220 -224s87 -223 220 -223z" />
    <glyph glyph-name="oacute" unicode="&#xf3;" horiz-adv-x="579" 
d="M275 561l123 135h31l-124 -135h-30zM290 -3c-145 0 -243 111 -243 245c0 133 98 246 243 246c133 0 242 -100 242 -246s-109 -245 -242 -245zM290 19c122 0 219 90 219 223s-98 224 -219 224c-133 0 -220 -102 -220 -224s87 -223 220 -223z" />
    <glyph glyph-name="obreve" unicode="&#x14f;" horiz-adv-x="579" 
d="M291 561c-62 0 -117 44 -122 127h21c4 -59 40 -105 101 -105s97 46 100 105h22c-6 -83 -60 -127 -122 -127zM290 -3c-145 0 -243 111 -243 245c0 133 98 246 243 246c133 0 242 -100 242 -246s-109 -245 -242 -245zM290 19c122 0 219 90 219 223s-98 224 -219 224
c-133 0 -220 -102 -220 -224s87 -223 220 -223z" />
    <glyph glyph-name="uni01D2" unicode="&#x1d2;" horiz-adv-x="579" 
d="M277 562l-122 128h29l106 -110h2l106 110h29l-125 -128h-25zM290 -3c-145 0 -243 111 -243 245c0 133 98 246 243 246c133 0 242 -100 242 -246s-109 -245 -242 -245zM290 19c122 0 219 90 219 223s-98 224 -219 224c-133 0 -220 -102 -220 -224s87 -223 220 -223z" />
    <glyph glyph-name="ocircumflex" unicode="&#xf4;" horiz-adv-x="579" 
d="M155 562l125 128h25l122 -128h-29l-104 110h-2l-108 -110h-29zM290 -3c-145 0 -243 111 -243 245c0 133 98 246 243 246c133 0 242 -100 242 -246s-109 -245 -242 -245zM290 19c122 0 219 90 219 223s-98 224 -219 224c-133 0 -220 -102 -220 -224s87 -223 220 -223z" />
    <glyph glyph-name="uni1ED1" unicode="&#x1ed1;" horiz-adv-x="579" 
d="M388 641l123 135h31l-125 -135h-29zM157 563l125 128h25l122 -128h-29l-104 110h-2l-108 -110h-29zM290 -3c-145 0 -243 111 -243 245c0 133 98 246 243 246c133 0 242 -100 242 -246s-109 -245 -242 -245zM290 19c122 0 219 90 219 223s-98 224 -219 224
c-133 0 -220 -102 -220 -224s87 -223 220 -223z" />
    <glyph glyph-name="uni1ED9" unicode="&#x1ed9;" horiz-adv-x="579" 
d="M155 562l125 128h25l122 -128h-29l-104 110h-2l-108 -110h-29zM290 -3c-145 0 -243 111 -243 245c0 133 98 246 243 246c133 0 242 -100 242 -246s-109 -245 -242 -245zM290 19c122 0 219 90 219 223s-98 224 -219 224c-133 0 -220 -102 -220 -224s87 -223 220 -223z
M290 -124c16 0 28 -12 28 -27c0 -17 -12 -27 -28 -27s-27 10 -27 27c0 15 11 27 27 27z" />
    <glyph glyph-name="uni1ED3" unicode="&#x1ed3;" horiz-adv-x="579" 
d="M456 641l-125 135h31l123 -135h-29zM153 564l125 128h25l122 -128h-29l-104 110h-2l-108 -110h-29zM290 -3c-145 0 -243 111 -243 245c0 133 98 246 243 246c133 0 242 -100 242 -246s-109 -245 -242 -245zM290 19c122 0 219 90 219 223s-98 224 -219 224
c-133 0 -220 -102 -220 -224s87 -223 220 -223z" />
    <glyph glyph-name="uni1ED5" unicode="&#x1ed5;" horiz-adv-x="579" 
d="M406 634c40 28 98 64 98 103c0 34 -25 42 -58 42c-32 0 -70 -12 -86 -29l-6 23c27 17 61 27 92 27c43 0 79 -18 79 -65c0 -44 -57 -80 -85 -101h-34zM154 562l125 128h25l122 -128h-29l-104 110h-2l-108 -110h-29zM290 -3c-145 0 -243 111 -243 245c0 133 98 246 243 246
c133 0 242 -100 242 -246s-109 -245 -242 -245zM290 19c122 0 219 90 219 223s-98 224 -219 224c-133 0 -220 -102 -220 -224s87 -223 220 -223z" />
    <glyph glyph-name="uni1ED7" unicode="&#x1ed7;" horiz-adv-x="579" 
d="M152 765l-21 6c17 50 43 77 84 77c30 0 52 -14 75 -30c24 -16 49 -37 75 -37c33 0 50 21 61 62l21 -7c-15 -52 -41 -77 -82 -77c-31 0 -61 22 -88 41c-21 15 -40 26 -61 26c-28 0 -50 -22 -64 -61zM156 562l125 128h25l122 -128h-29l-104 110h-2l-108 -110h-29zM290 -3
c-145 0 -243 111 -243 245c0 133 98 246 243 246c133 0 242 -100 242 -246s-109 -245 -242 -245zM290 19c122 0 219 90 219 223s-98 224 -219 224c-133 0 -220 -102 -220 -224s87 -223 220 -223z" />
    <glyph glyph-name="odieresis" unicode="&#xf6;" horiz-adv-x="579" 
d="M216 606c-16 0 -28 12 -28 27c0 17 12 27 28 27s27 -10 27 -27c0 -15 -11 -27 -27 -27zM363 606c-16 0 -28 12 -28 27c0 17 12 27 28 27s27 -10 27 -27c0 -15 -11 -27 -27 -27zM290 -3c-145 0 -243 111 -243 245c0 133 98 246 243 246c133 0 242 -100 242 -246
s-109 -245 -242 -245zM290 19c122 0 219 90 219 223s-98 224 -219 224c-133 0 -220 -102 -220 -224s87 -223 220 -223z" />
    <glyph glyph-name="uni1ECD" unicode="&#x1ecd;" horiz-adv-x="579" 
d="M290 -3c-145 0 -243 111 -243 245c0 133 98 246 243 246c133 0 242 -100 242 -246s-109 -245 -242 -245zM290 19c122 0 219 90 219 223s-98 224 -219 224c-133 0 -220 -102 -220 -224s87 -223 220 -223zM290 -124c16 0 28 -12 28 -27c0 -17 -12 -27 -28 -27
s-27 10 -27 27c0 15 11 27 27 27z" />
    <glyph glyph-name="ograve" unicode="&#xf2;" horiz-adv-x="579" 
d="M295 565l-114 127h30l113 -127h-29zM290 -3c-145 0 -243 111 -243 245c0 133 98 246 243 246c133 0 242 -100 242 -246s-109 -245 -242 -245zM290 19c122 0 219 90 219 223s-98 224 -219 224c-133 0 -220 -102 -220 -224s87 -223 220 -223z" />
    <glyph glyph-name="uni1ECF" unicode="&#x1ecf;" horiz-adv-x="579" 
d="M268 555c42 29 102 66 102 107c0 35 -26 44 -60 44s-73 -13 -90 -31l-6 24c28 18 63 29 96 29c45 0 82 -19 82 -68c0 -46 -59 -83 -89 -105h-35zM290 -3c-145 0 -243 111 -243 245c0 133 98 246 243 246c133 0 242 -100 242 -246s-109 -245 -242 -245zM290 19
c122 0 219 90 219 223s-98 224 -219 224c-133 0 -220 -102 -220 -224s87 -223 220 -223z" />
    <glyph glyph-name="ohorn" unicode="&#x1a1;" horiz-adv-x="646" 
d="M593 565h22v-77c0 -108 -37 -144 -101 -149c12 -29 18 -62 18 -97c0 -146 -109 -245 -242 -245c-145 0 -243 111 -243 245c0 133 98 246 243 246c93 0 174 -49 215 -128c55 2 88 28 88 127v78zM290 19c122 0 219 90 219 223s-98 224 -219 224c-133 0 -220 -102 -220 -224
s87 -223 220 -223z" />
    <glyph glyph-name="uni1EDB" unicode="&#x1edb;" horiz-adv-x="646" 
d="M429 696l-124 -135h-30l123 135h31zM593 565h22v-77c0 -108 -37 -144 -101 -149c12 -29 18 -62 18 -97c0 -146 -109 -245 -242 -245c-145 0 -243 111 -243 245c0 133 98 246 243 246c93 0 174 -49 215 -128c55 2 88 28 88 127v78zM290 19c122 0 219 90 219 223
s-98 224 -219 224c-133 0 -220 -102 -220 -224s87 -223 220 -223z" />
    <glyph glyph-name="uni1EE3" unicode="&#x1ee3;" horiz-adv-x="646" 
d="M593 565h22v-77c0 -108 -37 -144 -101 -149c12 -29 18 -62 18 -97c0 -146 -109 -245 -242 -245c-145 0 -243 111 -243 245c0 133 98 246 243 246c93 0 174 -49 215 -128c55 2 88 28 88 127v78zM290 19c122 0 219 90 219 223s-98 224 -219 224c-133 0 -220 -102 -220 -224
s87 -223 220 -223zM290 -124c16 0 28 -12 28 -27c0 -17 -12 -27 -28 -27s-27 10 -27 27c0 15 11 27 27 27z" />
    <glyph glyph-name="uni1EDD" unicode="&#x1edd;" horiz-adv-x="646" 
d="M324 565h-29l-114 127h30zM593 565h22v-77c0 -108 -37 -144 -101 -149c12 -29 18 -62 18 -97c0 -146 -109 -245 -242 -245c-145 0 -243 111 -243 245c0 133 98 246 243 246c93 0 174 -49 215 -128c55 2 88 28 88 127v78zM290 19c122 0 219 90 219 223s-98 224 -219 224
c-133 0 -220 -102 -220 -224s87 -223 220 -223z" />
    <glyph glyph-name="uni1EDF" unicode="&#x1edf;" horiz-adv-x="646" 
d="M310 706c-34 0 -73 -13 -90 -31l-6 24c28 18 63 29 96 29c45 0 82 -19 82 -68c0 -46 -59 -83 -89 -105h-35c42 29 102 66 102 107c0 35 -26 44 -60 44zM593 565h22v-77c0 -108 -37 -144 -101 -149c12 -29 18 -62 18 -97c0 -146 -109 -245 -242 -245
c-145 0 -243 111 -243 245c0 133 98 246 243 246c93 0 174 -49 215 -128c55 2 88 28 88 127v78zM290 19c122 0 219 90 219 223s-98 224 -219 224c-133 0 -220 -102 -220 -224s87 -223 220 -223z" />
    <glyph glyph-name="uni1EE1" unicode="&#x1ee1;" horiz-adv-x="646" 
d="M218 650c-28 0 -50 -22 -64 -61l-21 6c17 50 43 77 84 77c30 0 54 -15 77 -31c24 -16 48 -38 74 -38c24 0 48 19 60 62l21 -7c-16 -54 -49 -77 -80 -77c-32 0 -61 23 -88 42c-21 15 -42 27 -63 27zM593 565h22v-77c0 -108 -37 -144 -101 -149c12 -29 18 -62 18 -97
c0 -146 -109 -245 -242 -245c-145 0 -243 111 -243 245c0 133 98 246 243 246c93 0 174 -49 215 -128c55 2 88 28 88 127v78zM290 19c122 0 219 90 219 223s-98 224 -219 224c-133 0 -220 -102 -220 -224s87 -223 220 -223z" />
    <glyph glyph-name="ohungarumlaut" unicode="&#x151;" horiz-adv-x="579" 
d="M215 561l122 135h31l-124 -135h-29zM339 561l122 135h31l-125 -135h-28zM290 -3c-145 0 -243 111 -243 245c0 133 98 246 243 246c133 0 242 -100 242 -246s-109 -245 -242 -245zM290 19c122 0 219 90 219 223s-98 224 -219 224c-133 0 -220 -102 -220 -224
s87 -223 220 -223z" />
    <glyph glyph-name="omacron" unicode="&#x14d;" horiz-adv-x="579" 
d="M158 619v23h267v-23h-267zM290 -3c-145 0 -243 111 -243 245c0 133 98 246 243 246c133 0 242 -100 242 -246s-109 -245 -242 -245zM290 19c122 0 219 90 219 223s-98 224 -219 224c-133 0 -220 -102 -220 -224s87 -223 220 -223z" />
    <glyph glyph-name="uni01EB" unicode="&#x1eb;" horiz-adv-x="579" 
d="M315 -2c-46 -25 -76 -65 -76 -102c0 -31 18 -54 61 -54c29 0 41 4 59 13l4 -23c-16 -8 -33 -13 -63 -13c-51 0 -84 26 -84 76c0 33 20 71 60 101v1c-137 7 -229 115 -229 245c0 133 98 246 243 246c133 0 242 -100 242 -246c0 -137 -96 -233 -217 -244zM70 242
c0 -122 87 -223 220 -223c122 0 219 90 219 223s-98 224 -219 224c-133 0 -220 -102 -220 -224z" />
    <glyph glyph-name="oslash" unicode="&#xf8;" horiz-adv-x="579" 
d="M532 477l-63 -66c39 -43 63 -101 63 -169c0 -146 -109 -245 -242 -245c-64 0 -119 22 -160 57l-61 -64l-19 16l62 65c-41 45 -65 105 -65 171c0 133 98 246 243 246c62 0 119 -22 163 -60l61 64zM70 242c0 -60 21 -114 58 -155l309 324c-39 35 -90 55 -147 55
c-133 0 -220 -102 -220 -224zM509 242c0 61 -21 114 -55 153l-309 -325c37 -32 87 -51 145 -51c122 0 219 90 219 223z" />
    <glyph glyph-name="oslashacute" unicode="&#x1ff;" horiz-adv-x="579" 
d="M429 696l-124 -135h-30l123 135h31zM532 477l-63 -66c39 -43 63 -101 63 -169c0 -146 -109 -245 -242 -245c-64 0 -119 22 -160 57l-61 -64l-19 16l62 65c-41 45 -65 105 -65 171c0 133 98 246 243 246c62 0 119 -22 163 -60l61 64zM70 242c0 -60 21 -114 58 -155
l309 324c-39 35 -90 55 -147 55c-133 0 -220 -102 -220 -224zM509 242c0 61 -21 114 -55 153l-309 -325c37 -32 87 -51 145 -51c122 0 219 90 219 223z" />
    <glyph glyph-name="otilde" unicode="&#xf5;" horiz-adv-x="579" 
d="M369 581c-32 0 -61 23 -88 42c-21 15 -42 27 -63 27c-28 0 -50 -22 -64 -61l-21 6c17 50 43 77 84 77c30 0 54 -15 77 -31c24 -16 48 -38 74 -38c24 0 48 19 60 62l21 -7c-16 -54 -49 -77 -80 -77zM290 -3c-145 0 -243 111 -243 245c0 133 98 246 243 246
c133 0 242 -100 242 -246s-109 -245 -242 -245zM290 19c122 0 219 90 219 223s-98 224 -219 224c-133 0 -220 -102 -220 -224s87 -223 220 -223z" />
    <glyph glyph-name="oe" unicode="&#x153;" horiz-adv-x="824" 
d="M791 254v-11h-362c2 -141 72 -224 179 -224c77 0 112 30 148 81l17 -13c-39 -57 -84 -90 -163 -90c-116 0 -170 77 -190 156h-2c-25 -95 -96 -156 -182 -156c-124 0 -199 107 -199 245s80 246 199 246c83 0 155 -61 181 -157h2c24 94 88 157 184 157
c108 0 188 -99 188 -234zM236 19c98 0 171 90 171 223s-77 224 -171 224c-106 0 -176 -97 -176 -224s69 -223 176 -223zM430 265h338c-7 120 -69 201 -165 201c-104 0 -166 -85 -173 -201z" />
    <glyph glyph-name="p" unicode="p" horiz-adv-x="600" 
d="M81 -198v682h22v-137h1c37 87 116 141 209 141c143 0 239 -113 239 -251c0 -144 -107 -240 -238 -240c-99 0 -175 55 -210 134h-1v-329h-22zM314 19c129 0 215 98 215 218c0 137 -97 229 -216 229c-127 0 -210 -103 -210 -229c0 -131 94 -218 211 -218z" />
    <glyph glyph-name="thorn" unicode="&#xfe;" horiz-adv-x="600" 
d="M81 -198v934h22v-388h1c36 86 116 140 208 140c144 0 240 -113 240 -251c0 -144 -107 -240 -239 -240c-98 0 -174 55 -209 134h-1v-329h-22zM313 19c130 0 216 98 216 218c0 137 -97 229 -217 229c-126 0 -209 -103 -209 -229c0 -131 94 -218 210 -218z" />
    <glyph glyph-name="q" unicode="q" horiz-adv-x="601" 
d="M499 -198v329h-1c-36 -79 -112 -134 -209 -134c-132 0 -240 96 -240 240c0 138 96 251 241 251c91 0 171 -54 208 -141h1v137h22v-682h-22zM289 19c115 0 210 87 210 218c0 126 -84 229 -209 229c-121 0 -218 -92 -218 -229c0 -120 86 -218 217 -218z" />
    <glyph glyph-name="r" unicode="r" horiz-adv-x="317" 
d="M81 0v484h22v-119h2c29 75 89 123 172 123c11 0 22 0 32 -1v-24c-10 1 -20 2 -29 2c-107 0 -177 -90 -177 -223v-242h-22z" />
    <glyph glyph-name="racute" unicode="&#x155;" horiz-adv-x="317" 
d="M124 561l123 135h31l-124 -135h-30zM81 0v484h22v-119h2c29 75 89 123 172 123c11 0 22 0 32 -1v-24c-10 1 -20 2 -29 2c-107 0 -177 -90 -177 -223v-242h-22z" />
    <glyph glyph-name="rcaron" unicode="&#x159;" horiz-adv-x="317" 
d="M180 562l-122 128h29l106 -110h2l106 110h29l-125 -128h-25zM81 0v484h22v-119h2c29 75 89 123 172 123c11 0 22 0 32 -1v-24c-10 1 -20 2 -29 2c-107 0 -177 -90 -177 -223v-242h-22z" />
    <glyph glyph-name="rcommaaccent" unicode="&#x157;" horiz-adv-x="317" 
d="M81 0v484h22v-119h2c29 75 89 123 172 123c11 0 22 0 32 -1v-24c-10 1 -20 2 -29 2c-107 0 -177 -90 -177 -223v-242h-22zM29 -199l-8 18c59 3 68 35 68 70c0 18 -2 38 -5 56h22c3 -17 5 -37 5 -55c0 -45 -18 -85 -82 -89z" />
    <glyph glyph-name="uni1E5B" unicode="&#x1e5b;" horiz-adv-x="317" 
d="M81 0v484h22v-119h2c29 75 89 123 172 123c11 0 22 0 32 -1v-24c-10 1 -20 2 -29 2c-107 0 -177 -90 -177 -223v-242h-22zM107 -124c16 0 28 -12 28 -27c0 -17 -12 -27 -28 -27s-27 10 -27 27c0 15 11 27 27 27z" />
    <glyph glyph-name="uni1E5D" unicode="&#x1e5d;" horiz-adv-x="317" 
d="M61 619v23h267v-23h-267zM81 0v484h22v-119h2c29 75 89 123 172 123c11 0 22 0 32 -1v-24c-10 1 -20 2 -29 2c-107 0 -177 -90 -177 -223v-242h-22zM107 -124c16 0 28 -12 28 -27c0 -17 -12 -27 -28 -27s-27 10 -27 27c0 15 11 27 27 27z" />
    <glyph glyph-name="uni1E5F" unicode="&#x1e5f;" horiz-adv-x="317" 
d="M81 0v484h22v-119h2c29 75 89 123 172 123c11 0 22 0 32 -1v-24c-10 1 -20 2 -29 2c-107 0 -177 -90 -177 -223v-242h-22zM241 -170h-267v23h267v-23z" />
    <glyph glyph-name="s" unicode="s" horiz-adv-x="415" 
d="M211 -3c-83 0 -138 32 -177 67l13 18c37 -33 82 -63 164 -63c89 0 140 49 140 103c0 75 -68 89 -153 120c-78 28 -141 54 -141 130c0 66 61 116 139 116c53 0 106 -13 158 -58l-15 -16c-48 41 -93 51 -142 51c-67 0 -117 -42 -117 -91c0 -65 58 -87 121 -110
c101 -36 174 -53 173 -144c-1 -65 -58 -123 -163 -123z" />
    <glyph glyph-name="sacute" unicode="&#x15b;" horiz-adv-x="415" 
d="M198 561l123 135h31l-124 -135h-30zM211 -3c-83 0 -138 32 -177 67l13 18c37 -33 82 -63 164 -63c89 0 140 49 140 103c0 75 -68 89 -153 120c-78 28 -141 54 -141 130c0 66 61 116 139 116c53 0 106 -13 158 -58l-15 -16c-48 41 -93 51 -142 51c-67 0 -117 -42 -117 -91
c0 -65 58 -87 121 -110c101 -36 174 -53 173 -144c-1 -65 -58 -123 -163 -123z" />
    <glyph glyph-name="scaron" unicode="&#x161;" horiz-adv-x="415" 
d="M197 562l-122 128h29l106 -110h2l106 110h29l-125 -128h-25zM211 -3c-83 0 -138 32 -177 67l13 18c37 -33 82 -63 164 -63c89 0 140 49 140 103c0 75 -68 89 -153 120c-78 28 -141 54 -141 130c0 66 61 116 139 116c53 0 106 -13 158 -58l-15 -16c-48 41 -93 51 -142 51
c-67 0 -117 -42 -117 -91c0 -65 58 -87 121 -110c101 -36 174 -53 173 -144c-1 -65 -58 -123 -163 -123z" />
    <glyph glyph-name="scedilla" unicode="&#x15f;" horiz-adv-x="415" 
d="M201 264c101 -36 174 -53 173 -144c-1 -65 -58 -123 -163 -123h-10l-13 -31v-1c38 -3 80 -29 80 -77c0 -38 -30 -72 -85 -72c-16 0 -34 2 -49 6v23c13 -4 27 -7 45 -7c35 0 66 16 66 51c0 28 -26 57 -82 57l1 19l16 34c-66 6 -112 35 -146 65l13 18
c37 -33 82 -63 164 -63c89 0 140 49 140 103c0 75 -68 89 -153 120c-78 28 -141 54 -141 130c0 66 61 116 139 116c53 0 106 -13 158 -58l-15 -16c-48 41 -93 51 -142 51c-67 0 -117 -42 -117 -91c0 -65 58 -87 121 -110z" />
    <glyph glyph-name="scircumflex" unicode="&#x15d;" horiz-adv-x="415" 
d="M75 562l125 128h25l122 -128h-29l-104 110h-2l-108 -110h-29zM211 -3c-83 0 -138 32 -177 67l13 18c37 -33 82 -63 164 -63c89 0 140 49 140 103c0 75 -68 89 -153 120c-78 28 -141 54 -141 130c0 66 61 116 139 116c53 0 106 -13 158 -58l-15 -16c-48 41 -93 51 -142 51
c-67 0 -117 -42 -117 -91c0 -65 58 -87 121 -110c101 -36 174 -53 173 -144c-1 -65 -58 -123 -163 -123z" />
    <glyph glyph-name="scommaaccent" unicode="&#x219;" horiz-adv-x="415" 
d="M211 -3c-83 0 -138 32 -177 67l13 18c37 -33 82 -63 164 -63c89 0 140 49 140 103c0 75 -68 89 -153 120c-78 28 -141 54 -141 130c0 66 61 116 139 116c53 0 106 -13 158 -58l-15 -16c-48 41 -93 51 -142 51c-67 0 -117 -42 -117 -91c0 -65 58 -87 121 -110
c101 -36 174 -53 173 -144c-1 -65 -58 -123 -163 -123zM129 -199l-8 18c59 3 68 35 68 70c0 18 -2 38 -5 56h22c3 -17 5 -37 5 -55c0 -45 -18 -85 -82 -89z" />
    <glyph glyph-name="uni1E61" unicode="&#x1e61;" horiz-adv-x="415" 
d="M212 606c-16 0 -28 12 -28 27c0 17 12 27 28 27s27 -10 27 -27c0 -15 -11 -27 -27 -27zM211 -3c-83 0 -138 32 -177 67l13 18c37 -33 82 -63 164 -63c89 0 140 49 140 103c0 75 -68 89 -153 120c-78 28 -141 54 -141 130c0 66 61 116 139 116c53 0 106 -13 158 -58
l-15 -16c-48 41 -93 51 -142 51c-67 0 -117 -42 -117 -91c0 -65 58 -87 121 -110c101 -36 174 -53 173 -144c-1 -65 -58 -123 -163 -123z" />
    <glyph glyph-name="uni1E63" unicode="&#x1e63;" horiz-adv-x="415" 
d="M211 -3c-83 0 -138 32 -177 67l13 18c37 -33 82 -63 164 -63c89 0 140 49 140 103c0 75 -68 89 -153 120c-78 28 -141 54 -141 130c0 66 61 116 139 116c53 0 106 -13 158 -58l-15 -16c-48 41 -93 51 -142 51c-67 0 -117 -42 -117 -91c0 -65 58 -87 121 -110
c101 -36 174 -53 173 -144c-1 -65 -58 -123 -163 -123zM207 -124c16 0 28 -12 28 -27c0 -17 -12 -27 -28 -27s-27 10 -27 27c0 15 11 27 27 27z" />
    <glyph glyph-name="germandbls" unicode="&#xdf;" horiz-adv-x="586" 
d="M205 -3v22h116c116 0 204 76 204 200c0 104 -79 205 -214 205h-68v22h66c143 0 167 84 167 131c0 90 -65 141 -180 141c-116 0 -193 -66 -193 -215v-503h-22v503c0 163 87 237 215 237c125 0 203 -59 203 -163c0 -41 -18 -116 -110 -141v-2c99 -31 158 -121 158 -215
c0 -136 -99 -222 -226 -222h-116z" />
    <glyph glyph-name="longs" unicode="&#x17f;" horiz-adv-x="285" 
d="M105 0v462h-68v22h68v118c0 96 48 138 117 138c38 0 66 -10 95 -26l-4 -22c-28 16 -55 26 -92 26c-52 0 -94 -31 -94 -116v-602h-22z" />
    <glyph glyph-name="t" unicode="t" horiz-adv-x="354" 
d="M204 -3c-91 0 -108 53 -108 131v334h-67v22h67v175l22 3v-178h195v-22h-195v-319c0 -76 10 -124 83 -124c48 0 84 20 102 32l6 -22c-21 -14 -60 -32 -105 -32z" />
    <glyph glyph-name="tbar" unicode="&#x167;" horiz-adv-x="354" 
d="M313 462h-195v-164h175v-22h-175v-133c0 -76 10 -124 83 -124c48 0 84 20 102 32l6 -22c-21 -14 -60 -32 -105 -32c-91 0 -108 53 -108 131v148h-51v22h51v164h-67v22h67v175l22 3v-178h195v-22z" />
    <glyph glyph-name="tcaron" unicode="&#x165;" horiz-adv-x="354" 
d="M209 597l25 158h27l-32 -158h-20zM204 -3c-91 0 -108 53 -108 131v334h-67v22h67v175l22 3v-178h195v-22h-195v-319c0 -76 10 -124 83 -124c48 0 84 20 102 32l6 -22c-21 -14 -60 -32 -105 -32z" />
    <glyph glyph-name="uni0163" unicode="&#x163;" horiz-adv-x="354" 
d="M313 462h-195v-319c0 -76 10 -124 83 -124c48 0 84 20 102 32l6 -22c-21 -14 -60 -32 -105 -32h-9l-13 -31v-1c38 -3 80 -29 80 -77c0 -38 -30 -72 -85 -72c-16 0 -34 2 -49 6v23c13 -4 27 -7 45 -7c35 0 66 16 66 51c0 28 -26 57 -82 57l1 19l16 34
c-65 11 -78 61 -78 129v334h-67v22h67v175l22 3v-178h195v-22z" />
    <glyph glyph-name="uni021B" unicode="&#x21b;" horiz-adv-x="354" 
d="M204 -3c-91 0 -108 53 -108 131v334h-67v22h67v175l22 3v-178h195v-22h-195v-319c0 -76 10 -124 83 -124c48 0 84 20 102 32l6 -22c-21 -14 -60 -32 -105 -32zM123 -199l-8 18c59 3 68 35 68 70c0 18 -2 38 -5 56h22c3 -17 5 -37 5 -55c0 -45 -18 -85 -82 -89z" />
    <glyph glyph-name="uni1E97" unicode="&#x1e97;" horiz-adv-x="354" 
d="M67 749c-16 0 -28 12 -28 27c0 17 12 27 28 27s27 -10 27 -27c0 -15 -11 -27 -27 -27zM214 749c-16 0 -28 12 -28 27c0 17 12 27 28 27s27 -10 27 -27c0 -15 -11 -27 -27 -27zM204 -3c-91 0 -108 53 -108 131v334h-67v22h67v175l22 3v-178h195v-22h-195v-319
c0 -76 10 -124 83 -124c48 0 84 20 102 32l6 -22c-21 -14 -60 -32 -105 -32z" />
    <glyph glyph-name="uni1E6D" unicode="&#x1e6d;" horiz-adv-x="354" 
d="M204 -3c-91 0 -108 53 -108 131v334h-67v22h67v175l22 3v-178h195v-22h-195v-319c0 -76 10 -124 83 -124c48 0 84 20 102 32l6 -22c-21 -14 -60 -32 -105 -32zM201 -124c16 0 28 -12 28 -27c0 -17 -12 -27 -28 -27s-27 10 -27 27c0 15 11 27 27 27z" />
    <glyph glyph-name="uni1E6F" unicode="&#x1e6f;" horiz-adv-x="354" 
d="M204 -3c-91 0 -108 53 -108 131v334h-67v22h67v175l22 3v-178h195v-22h-195v-319c0 -76 10 -124 83 -124c48 0 84 20 102 32l6 -22c-21 -14 -60 -32 -105 -32zM335 -170h-267v23h267v-23z" />
    <glyph glyph-name="u" unicode="u" horiz-adv-x="532" 
d="M252 -3c-120 0 -183 85 -183 211v276h22v-265c0 -136 64 -200 161 -200c103 0 184 90 184 226v239h22v-484h-22v127h-1c-33 -81 -103 -130 -183 -130z" />
    <glyph glyph-name="uacute" unicode="&#xfa;" horiz-adv-x="532" 
d="M239 561l123 135h31l-124 -135h-30zM252 -3c-120 0 -183 85 -183 211v276h22v-265c0 -136 64 -200 161 -200c103 0 184 90 184 226v239h22v-484h-22v127h-1c-33 -81 -103 -130 -183 -130z" />
    <glyph glyph-name="ubreve" unicode="&#x16d;" horiz-adv-x="532" 
d="M263 561c-62 0 -117 44 -122 127h21c4 -59 40 -105 101 -105s97 46 100 105h22c-6 -83 -60 -127 -122 -127zM252 -3c-120 0 -183 85 -183 211v276h22v-265c0 -136 64 -200 161 -200c103 0 184 90 184 226v239h22v-484h-22v127h-1c-33 -81 -103 -130 -183 -130z" />
    <glyph glyph-name="ucircumflex" unicode="&#xfb;" horiz-adv-x="532" 
d="M127 562l125 128h25l122 -128h-29l-104 110h-2l-108 -110h-29zM252 -3c-120 0 -183 85 -183 211v276h22v-265c0 -136 64 -200 161 -200c103 0 184 90 184 226v239h22v-484h-22v127h-1c-33 -81 -103 -130 -183 -130z" />
    <glyph glyph-name="udieresis" unicode="&#xfc;" horiz-adv-x="532" 
d="M188 606c-16 0 -28 12 -28 27c0 17 12 27 28 27s27 -10 27 -27c0 -15 -11 -27 -27 -27zM335 606c-16 0 -28 12 -28 27c0 17 12 27 28 27s27 -10 27 -27c0 -15 -11 -27 -27 -27zM252 -3c-120 0 -183 85 -183 211v276h22v-265c0 -136 64 -200 161 -200
c103 0 184 90 184 226v239h22v-484h-22v127h-1c-33 -81 -103 -130 -183 -130z" />
    <glyph glyph-name="uni1EE5" unicode="&#x1ee5;" horiz-adv-x="532" 
d="M252 -3c-120 0 -183 85 -183 211v276h22v-265c0 -136 64 -200 161 -200c103 0 184 90 184 226v239h22v-484h-22v127h-1c-33 -81 -103 -130 -183 -130zM265 -124c16 0 28 -12 28 -27c0 -17 -12 -27 -28 -27s-27 10 -27 27c0 15 11 27 27 27z" />
    <glyph glyph-name="ugrave" unicode="&#xf9;" horiz-adv-x="532" 
d="M285 565l-114 127h30l113 -127h-29zM252 -3c-120 0 -183 85 -183 211v276h22v-265c0 -136 64 -200 161 -200c103 0 184 90 184 226v239h22v-484h-22v127h-1c-33 -81 -103 -130 -183 -130z" />
    <glyph glyph-name="uni1EE7" unicode="&#x1ee7;" horiz-adv-x="532" 
d="M240 555c42 29 102 66 102 107c0 35 -26 44 -60 44s-73 -13 -90 -31l-6 24c28 18 63 29 96 29c45 0 82 -19 82 -68c0 -46 -59 -83 -89 -105h-35zM252 -3c-120 0 -183 85 -183 211v276h22v-265c0 -136 64 -200 161 -200c103 0 184 90 184 226v239h22v-484h-22v127h-1
c-33 -81 -103 -130 -183 -130z" />
    <glyph glyph-name="uhorn" unicode="&#x1b0;" horiz-adv-x="599" 
d="M546 565h22v-77c0 -113 -40 -147 -110 -150v-338h-22v127h-1c-33 -81 -103 -130 -183 -130c-120 0 -183 85 -183 211v276h22v-265c0 -136 64 -200 161 -200c103 0 184 90 184 226v239h22v-124c56 3 88 28 88 127v78z" />
    <glyph glyph-name="uni1EE9" unicode="&#x1ee9;" horiz-adv-x="599" 
d="M393 696l-124 -135h-30l123 135h31zM546 565h22v-77c0 -113 -40 -147 -110 -150v-338h-22v127h-1c-33 -81 -103 -130 -183 -130c-120 0 -183 85 -183 211v276h22v-265c0 -136 64 -200 161 -200c103 0 184 90 184 226v239h22v-124c56 3 88 28 88 127v78z" />
    <glyph glyph-name="uni1EF1" unicode="&#x1ef1;" horiz-adv-x="599" 
d="M546 565h22v-77c0 -113 -40 -147 -110 -150v-338h-22v127h-1c-33 -81 -103 -130 -183 -130c-120 0 -183 85 -183 211v276h22v-265c0 -136 64 -200 161 -200c103 0 184 90 184 226v239h22v-124c56 3 88 28 88 127v78zM265 -124c16 0 28 -12 28 -27c0 -17 -12 -27 -28 -27
s-27 10 -27 27c0 15 11 27 27 27z" />
    <glyph glyph-name="uni1EEB" unicode="&#x1eeb;" horiz-adv-x="599" 
d="M294 565h-29l-114 127h30zM546 565h22v-77c0 -113 -40 -147 -110 -150v-338h-22v127h-1c-33 -81 -103 -130 -183 -130c-120 0 -183 85 -183 211v276h22v-265c0 -136 64 -200 161 -200c103 0 184 90 184 226v239h22v-124c56 3 88 28 88 127v78z" />
    <glyph glyph-name="uni1EED" unicode="&#x1eed;" horiz-adv-x="599" 
d="M282 706c-34 0 -73 -13 -90 -31l-6 24c28 18 63 29 96 29c45 0 82 -19 82 -68c0 -46 -59 -83 -89 -105h-35c42 29 102 66 102 107c0 35 -26 44 -60 44zM546 565h22v-77c0 -113 -40 -147 -110 -150v-338h-22v127h-1c-33 -81 -103 -130 -183 -130c-120 0 -183 85 -183 211
v276h22v-265c0 -136 64 -200 161 -200c103 0 184 90 184 226v239h22v-124c56 3 88 28 88 127v78z" />
    <glyph glyph-name="uni1EEF" unicode="&#x1eef;" horiz-adv-x="599" 
d="M190 650c-28 0 -50 -22 -64 -61l-21 6c17 50 43 77 84 77c30 0 54 -15 77 -31c24 -16 48 -38 74 -38c24 0 48 19 60 62l21 -7c-16 -54 -49 -77 -80 -77c-32 0 -61 23 -88 42c-21 15 -42 27 -63 27zM546 565h22v-77c0 -113 -40 -147 -110 -150v-338h-22v127h-1
c-33 -81 -103 -130 -183 -130c-120 0 -183 85 -183 211v276h22v-265c0 -136 64 -200 161 -200c103 0 184 90 184 226v239h22v-124c56 3 88 28 88 127v78z" />
    <glyph glyph-name="uhungarumlaut" unicode="&#x171;" horiz-adv-x="532" 
d="M187 561l122 135h31l-124 -135h-29zM311 561l122 135h31l-125 -135h-28zM252 -3c-120 0 -183 85 -183 211v276h22v-265c0 -136 64 -200 161 -200c103 0 184 90 184 226v239h22v-484h-22v127h-1c-33 -81 -103 -130 -183 -130z" />
    <glyph glyph-name="umacron" unicode="&#x16b;" horiz-adv-x="532" 
d="M130 619v23h267v-23h-267zM252 -3c-120 0 -183 85 -183 211v276h22v-265c0 -136 64 -200 161 -200c103 0 184 90 184 226v239h22v-484h-22v127h-1c-33 -81 -103 -130 -183 -130z" />
    <glyph glyph-name="uni01D4" unicode="&#x1d4;" horiz-adv-x="532" 
d="M249 562l-122 128h29l106 -110h2l106 110h29l-125 -128h-25zM252 -3c-120 0 -183 85 -183 211v276h22v-265c0 -136 64 -200 161 -200c103 0 184 90 184 226v239h22v-484h-22v127h-1c-33 -81 -103 -130 -183 -130z" />
    <glyph glyph-name="uni01D6" unicode="&#x1d6;" horiz-adv-x="532" 
d="M130 758v23h267v-23h-267zM189 606c-16 0 -28 12 -28 27c0 17 12 27 28 27s27 -10 27 -27c0 -15 -11 -27 -27 -27zM336 606c-16 0 -28 12 -28 27c0 17 12 27 28 27s27 -10 27 -27c0 -15 -11 -27 -27 -27zM252 -3c-120 0 -183 85 -183 211v276h22v-265
c0 -136 64 -200 161 -200c103 0 184 90 184 226v239h22v-484h-22v127h-1c-33 -81 -103 -130 -183 -130z" />
    <glyph glyph-name="uni01D8" unicode="&#x1d8;" horiz-adv-x="532" 
d="M245 693l123 135h31l-124 -135h-30zM189 606c-16 0 -28 12 -28 27c0 17 12 27 28 27s27 -10 27 -27c0 -15 -11 -27 -27 -27zM336 606c-16 0 -28 12 -28 27c0 17 12 27 28 27s27 -10 27 -27c0 -15 -11 -27 -27 -27zM252 -3c-120 0 -183 85 -183 211v276h22v-265
c0 -136 64 -200 161 -200c103 0 184 90 184 226v239h22v-484h-22v127h-1c-33 -81 -103 -130 -183 -130z" />
    <glyph glyph-name="uni01DA" unicode="&#x1da;" horiz-adv-x="532" 
d="M249 707l-122 128h29l106 -110h2l106 110h29l-125 -128h-25zM189 606c-16 0 -28 12 -28 27c0 17 12 27 28 27s27 -10 27 -27c0 -15 -11 -27 -27 -27zM336 606c-16 0 -28 12 -28 27c0 17 12 27 28 27s27 -10 27 -27c0 -15 -11 -27 -27 -27zM252 -3
c-120 0 -183 85 -183 211v276h22v-265c0 -136 64 -200 161 -200c103 0 184 90 184 226v239h22v-484h-22v127h-1c-33 -81 -103 -130 -183 -130z" />
    <glyph glyph-name="uni01DC" unicode="&#x1dc;" horiz-adv-x="532" 
d="M287 693h-30l-124 135h31zM189 606c-16 0 -28 12 -28 27c0 17 12 27 28 27s27 -10 27 -27c0 -15 -11 -27 -27 -27zM336 606c-16 0 -28 12 -28 27c0 17 12 27 28 27s27 -10 27 -27c0 -15 -11 -27 -27 -27zM252 -3c-120 0 -183 85 -183 211v276h22v-265
c0 -136 64 -200 161 -200c103 0 184 90 184 226v239h22v-484h-22v127h-1c-33 -81 -103 -130 -183 -130z" />
    <glyph glyph-name="uni0251" unicode="&#x251;" horiz-adv-x="591" 
d="M285 -3c-132 0 -240 96 -240 240c0 138 97 251 241 251c92 0 172 -54 208 -141h1v137h22v-484h-22v133h-1c-35 -80 -110 -136 -209 -136zM285 19c116 0 210 87 210 218c0 126 -84 229 -209 229c-120 0 -218 -92 -218 -229c0 -120 86 -218 217 -218z" />
    <glyph glyph-name="uni0261" unicode="&#x261;" horiz-adv-x="586" 
d="M292 -201c-73 0 -134 17 -198 56l7 23c63 -40 122 -57 192 -57c136 0 198 81 198 194v131h-1c-34 -80 -107 -134 -209 -134c-129 0 -234 94 -234 241c0 129 94 235 235 235c94 0 172 -50 208 -130h1v126h22v-474c0 -125 -74 -211 -221 -211zM281 34c130 0 210 95 210 219
c0 127 -91 213 -209 213c-128 0 -212 -96 -212 -213c0 -133 94 -219 211 -219z" />
    <glyph glyph-name="uni1E31" unicode="&#x1e31;" horiz-adv-x="483" 
d="M81 0v736h22v-596l1 -1l317 345h31l-193 -210l191 -274h-28l-179 256l-140 -151v-105h-22zM201 561l123 135h31l-124 -135h-30z" />
    <glyph glyph-name="uogonek" unicode="&#x173;" horiz-adv-x="532" 
d="M499 -145l4 -23c-16 -8 -33 -13 -63 -13c-51 0 -84 26 -84 76c0 37 27 82 80 115v117h-1c-33 -81 -103 -130 -183 -130c-120 0 -183 85 -183 211v276h22v-265c0 -136 64 -200 161 -200c103 0 184 90 184 226v239h22v-484c-48 -25 -79 -66 -79 -104c0 -31 18 -54 61 -54
c29 0 41 4 59 13z" />
    <glyph glyph-name="uring" unicode="&#x16f;" horiz-adv-x="532" 
d="M263 555c-39 0 -73 34 -73 73c0 40 34 73 73 73c40 0 74 -33 74 -73c0 -39 -34 -73 -74 -73zM263 578c28 0 52 23 52 50c0 28 -24 51 -52 51s-51 -23 -51 -51c0 -27 23 -50 51 -50zM252 -3c-120 0 -183 85 -183 211v276h22v-265c0 -136 64 -200 161 -200
c103 0 184 90 184 226v239h22v-484h-22v127h-1c-33 -81 -103 -130 -183 -130z" />
    <glyph glyph-name="utilde" unicode="&#x169;" horiz-adv-x="532" 
d="M341 581c-32 0 -61 23 -88 42c-21 15 -42 27 -63 27c-28 0 -50 -22 -64 -61l-21 6c17 50 43 77 84 77c30 0 54 -15 77 -31c24 -16 48 -38 74 -38c24 0 48 19 60 62l21 -7c-16 -54 -49 -77 -80 -77zM252 -3c-120 0 -183 85 -183 211v276h22v-265c0 -136 64 -200 161 -200
c103 0 184 90 184 226v239h22v-484h-22v127h-1c-33 -81 -103 -130 -183 -130z" />
    <glyph glyph-name="v" unicode="v" horiz-adv-x="494" 
d="M237 0l-208 484h26l192 -450h2l190 450h25l-205 -484h-22z" />
    <glyph glyph-name="w" unicode="w" horiz-adv-x="752" 
d="M206 0l-172 484h24l159 -445h2l143 445h26l145 -445h2l159 445h24l-172 -484h-24l-145 451h-1l-147 -451h-23z" />
    <glyph glyph-name="wacute" unicode="&#x1e83;" horiz-adv-x="752" 
d="M359 561l123 135h31l-124 -135h-30zM206 0l-172 484h24l159 -445h2l143 445h26l145 -445h2l159 445h24l-172 -484h-24l-145 451h-1l-147 -451h-23z" />
    <glyph glyph-name="wcircumflex" unicode="&#x175;" horiz-adv-x="752" 
d="M240 562l125 128h25l122 -128h-29l-104 110h-2l-108 -110h-29zM206 0l-172 484h24l159 -445h2l143 445h26l145 -445h2l159 445h24l-172 -484h-24l-145 451h-1l-147 -451h-23z" />
    <glyph glyph-name="wdieresis" unicode="&#x1e85;" horiz-adv-x="752" 
d="M301 606c-16 0 -28 12 -28 27c0 17 12 27 28 27s27 -10 27 -27c0 -15 -11 -27 -27 -27zM448 606c-16 0 -28 12 -28 27c0 17 12 27 28 27s27 -10 27 -27c0 -15 -11 -27 -27 -27zM206 0l-172 484h24l159 -445h2l143 445h26l145 -445h2l159 445h24l-172 -484h-24l-145 451
h-1l-147 -451h-23z" />
    <glyph glyph-name="wgrave" unicode="&#x1e81;" horiz-adv-x="752" 
d="M359 565l-114 127h30l113 -127h-29zM206 0l-172 484h24l159 -445h2l143 445h26l145 -445h2l159 445h24l-172 -484h-24l-145 451h-1l-147 -451h-23z" />
    <glyph glyph-name="x" unicode="x" horiz-adv-x="466" 
d="M33 0l186 242l-188 242h30l171 -223h2l172 223h30l-187 -241l187 -243h-30l-172 222h-1l-171 -222h-29z" />
    <glyph glyph-name="y" unicode="y" horiz-adv-x="506" 
d="M162 -198l86 203l-221 479h27l205 -450h1l190 450h27l-290 -682h-25z" />
    <glyph glyph-name="yacute" unicode="&#xfd;" horiz-adv-x="506" 
d="M229 561l123 135h31l-124 -135h-30zM162 -198l86 203l-221 479h27l205 -450h1l190 450h27l-290 -682h-25z" />
    <glyph glyph-name="ycircumflex" unicode="&#x177;" horiz-adv-x="506" 
d="M119 562l125 128h25l122 -128h-29l-104 110h-2l-108 -110h-29zM162 -198l86 203l-221 479h27l205 -450h1l190 450h27l-290 -682h-25z" />
    <glyph glyph-name="ydieresis" unicode="&#xff;" horiz-adv-x="506" 
d="M180 606c-16 0 -28 12 -28 27c0 17 12 27 28 27s27 -10 27 -27c0 -15 -11 -27 -27 -27zM327 606c-16 0 -28 12 -28 27c0 17 12 27 28 27s27 -10 27 -27c0 -15 -11 -27 -27 -27zM162 -198l86 203l-221 479h27l205 -450h1l190 450h27l-290 -682h-25z" />
    <glyph glyph-name="uni1E8F" unicode="&#x1e8f;" horiz-adv-x="506" 
d="M256 606c-16 0 -28 12 -28 27c0 17 12 27 28 27s27 -10 27 -27c0 -15 -11 -27 -27 -27zM162 -198l86 203l-221 479h27l205 -450h1l190 450h27l-290 -682h-25z" />
    <glyph glyph-name="uni1EF5" unicode="&#x1ef5;" horiz-adv-x="506" 
d="M162 -198l86 203l-221 479h27l205 -450h1l190 450h27l-290 -682h-25zM369 -124c16 0 28 -12 28 -27c0 -17 -12 -27 -28 -27s-27 10 -27 27c0 15 11 27 27 27z" />
    <glyph glyph-name="ygrave" unicode="&#x1ef3;" horiz-adv-x="506" 
d="M267 565l-114 127h30l113 -127h-29zM162 -198l86 203l-221 479h27l205 -450h1l190 450h27l-290 -682h-25z" />
    <glyph glyph-name="uni1EF7" unicode="&#x1ef7;" horiz-adv-x="506" 
d="M232 555c42 29 102 66 102 107c0 35 -26 44 -60 44s-73 -13 -90 -31l-6 24c28 18 63 29 96 29c45 0 82 -19 82 -68c0 -46 -59 -83 -89 -105h-35zM162 -198l86 203l-221 479h27l205 -450h1l190 450h27l-290 -682h-25z" />
    <glyph glyph-name="uni0233" unicode="&#x233;" horiz-adv-x="506" 
d="M122 619v23h267v-23h-267zM162 -198l86 203l-221 479h27l205 -450h1l190 450h27l-290 -682h-25z" />
    <glyph glyph-name="uni1EF9" unicode="&#x1ef9;" horiz-adv-x="506" 
d="M333 581c-32 0 -61 23 -88 42c-21 15 -42 27 -63 27c-28 0 -50 -22 -64 -61l-21 6c17 50 43 77 84 77c30 0 54 -15 77 -31c24 -16 48 -38 74 -38c24 0 48 19 60 62l21 -7c-16 -54 -49 -77 -80 -77zM162 -198l86 203l-221 479h27l205 -450h1l190 450h27l-290 -682h-25z
" />
    <glyph glyph-name="z" unicode="z" horiz-adv-x="437" 
d="M29 0v22l342 439v1h-330v22h361v-20l-343 -441v-1h349v-22h-379z" />
    <glyph glyph-name="zacute" unicode="&#x17a;" horiz-adv-x="437" 
d="M209 561l123 135h31l-124 -135h-30zM29 0v22l342 439v1h-330v22h361v-20l-343 -441v-1h349v-22h-379z" />
    <glyph glyph-name="zcaron" unicode="&#x17e;" horiz-adv-x="437" 
d="M201 562l-122 128h29l106 -110h2l106 110h29l-125 -128h-25zM29 0v22l342 439v1h-330v22h361v-20l-343 -441v-1h349v-22h-379z" />
    <glyph glyph-name="zdotaccent" unicode="&#x17c;" horiz-adv-x="437" 
d="M216 606c-16 0 -28 12 -28 27c0 17 12 27 28 27s27 -10 27 -27c0 -15 -11 -27 -27 -27zM29 0v22l342 439v1h-330v22h361v-20l-343 -441v-1h349v-22h-379z" />
    <glyph glyph-name="uni1E93" unicode="&#x1e93;" horiz-adv-x="437" 
d="M29 0v22l342 439v1h-330v22h361v-20l-343 -441v-1h349v-22h-379zM215 -124c16 0 28 -12 28 -27c0 -17 -12 -27 -28 -27s-27 10 -27 27c0 15 11 27 27 27z" />
    <glyph glyph-name="a.alt" horiz-adv-x="479" 
d="M242 488c116 0 164 -84 164 -214v-274h-22v94h-1c-33 -54 -101 -97 -184 -97c-113 0 -162 65 -162 138c0 75 52 135 177 135h170v4c0 129 -49 192 -142 192c-61 0 -119 -22 -157 -44l-10 20c41 24 104 46 167 46zM199 19c103 0 185 74 185 146v83h-170
c-87 0 -154 -36 -154 -113c0 -60 39 -116 139 -116z" />
    <glyph glyph-name="aacute.alt" horiz-adv-x="479" 
d="M369 696l-124 -135h-30l123 135h31zM242 488c116 0 164 -84 164 -214v-274h-22v94h-1c-33 -54 -101 -97 -184 -97c-113 0 -162 65 -162 138c0 75 52 135 177 135h170v4c0 129 -49 192 -142 192c-61 0 -119 -22 -157 -44l-10 20c41 24 104 46 167 46zM199 19
c103 0 185 74 185 146v83h-170c-87 0 -154 -36 -154 -113c0 -60 39 -116 139 -116z" />
    <glyph glyph-name="abreve.alt" horiz-adv-x="479" 
d="M255 561c-62 0 -117 44 -122 127h21c4 -59 40 -105 101 -105s97 46 100 105h22c-6 -83 -60 -127 -122 -127zM242 488c116 0 164 -84 164 -214v-274h-22v94h-1c-33 -54 -101 -97 -184 -97c-113 0 -162 65 -162 138c0 75 52 135 177 135h170v4c0 129 -49 192 -142 192
c-61 0 -119 -22 -157 -44l-10 20c41 24 104 46 167 46zM199 19c103 0 185 74 185 146v83h-170c-87 0 -154 -36 -154 -113c0 -60 39 -116 139 -116z" />
    <glyph glyph-name="uni1EAF.alt" horiz-adv-x="479" 
d="M386 826l-125 -135h-29l123 135h31zM255 561c-62 0 -117 44 -122 127h21c4 -59 40 -105 101 -105s97 46 100 105h22c-6 -83 -60 -127 -122 -127zM242 488c116 0 164 -84 164 -214v-274h-22v94h-1c-33 -54 -101 -97 -184 -97c-113 0 -162 65 -162 138c0 75 52 135 177 135
h170v4c0 129 -49 192 -142 192c-61 0 -119 -22 -157 -44l-10 20c41 24 104 46 167 46zM199 19c103 0 185 74 185 146v83h-170c-87 0 -154 -36 -154 -113c0 -60 39 -116 139 -116z" />
    <glyph glyph-name="uni1EB7.alt" horiz-adv-x="479" 
d="M255 561c-62 0 -117 44 -122 127h21c4 -59 40 -105 101 -105s97 46 100 105h22c-6 -83 -60 -127 -122 -127zM242 488c116 0 164 -84 164 -214v-274h-22v94h-1c-33 -54 -101 -97 -184 -97c-113 0 -162 65 -162 138c0 75 52 135 177 135h170v4c0 129 -49 192 -142 192
c-61 0 -119 -22 -157 -44l-10 20c41 24 104 46 167 46zM199 19c103 0 185 74 185 146v83h-170c-87 0 -154 -36 -154 -113c0 -60 39 -116 139 -116zM251 -124c16 0 28 -12 28 -27c0 -17 -12 -27 -28 -27s-27 10 -27 27c0 15 11 27 27 27z" />
    <glyph glyph-name="uni1EB1.alt" horiz-adv-x="479" 
d="M289 691h-29l-125 135h31zM255 561c-62 0 -117 44 -122 127h21c4 -59 40 -105 101 -105s97 46 100 105h22c-6 -83 -60 -127 -122 -127zM242 488c116 0 164 -84 164 -214v-274h-22v94h-1c-33 -54 -101 -97 -184 -97c-113 0 -162 65 -162 138c0 75 52 135 177 135h170v4
c0 129 -49 192 -142 192c-61 0 -119 -22 -157 -44l-10 20c41 24 104 46 167 46zM199 19c103 0 185 74 185 146v83h-170c-87 0 -154 -36 -154 -113c0 -60 39 -116 139 -116z" />
    <glyph glyph-name="uni1EB3.alt" horiz-adv-x="479" 
d="M269 819c-32 0 -70 -12 -86 -29l-6 23c27 17 61 27 92 27c43 0 79 -18 79 -65c0 -44 -57 -80 -85 -101h-34c40 28 98 64 98 103c0 34 -25 42 -58 42zM254 561c-62 0 -117 44 -122 127h21c4 -59 40 -105 101 -105s97 46 100 105h22c-6 -83 -60 -127 -122 -127zM242 488
c116 0 164 -84 164 -214v-274h-22v94h-1c-33 -54 -101 -97 -184 -97c-113 0 -162 65 -162 138c0 75 52 135 177 135h170v4c0 129 -49 192 -142 192c-61 0 -119 -22 -157 -44l-10 20c41 24 104 46 167 46zM199 19c103 0 185 74 185 146v83h-170c-87 0 -154 -36 -154 -113
c0 -60 39 -116 139 -116z" />
    <glyph glyph-name="uni1EB5.alt" horiz-adv-x="479" 
d="M181 809c-28 0 -50 -22 -64 -61l-21 6c17 50 43 77 84 77c30 0 52 -14 75 -30c24 -16 49 -37 75 -37c33 0 50 21 61 62l21 -7c-15 -52 -41 -77 -82 -77c-31 0 -61 22 -88 41c-21 15 -40 26 -61 26zM255 583c61 0 97 46 100 105h22c-6 -83 -60 -127 -122 -127
s-117 44 -122 127h21c4 -59 40 -105 101 -105zM242 488c116 0 164 -84 164 -214v-274h-22v94h-1c-33 -54 -101 -97 -184 -97c-113 0 -162 65 -162 138c0 75 52 135 177 135h170v4c0 129 -49 192 -142 192c-61 0 -119 -22 -157 -44l-10 20c41 24 104 46 167 46zM199 19
c103 0 185 74 185 146v83h-170c-87 0 -154 -36 -154 -113c0 -60 39 -116 139 -116z" />
    <glyph glyph-name="uni01CE.alt" horiz-adv-x="479" 
d="M266 562h-25l-122 128h29l106 -110h2l106 110h29zM242 488c116 0 164 -84 164 -214v-274h-22v94h-1c-33 -54 -101 -97 -184 -97c-113 0 -162 65 -162 138c0 75 52 135 177 135h170v4c0 129 -49 192 -142 192c-61 0 -119 -22 -157 -44l-10 20c41 24 104 46 167 46zM199 19
c103 0 185 74 185 146v83h-170c-87 0 -154 -36 -154 -113c0 -60 39 -116 139 -116z" />
    <glyph glyph-name="acircumflex.alt" horiz-adv-x="479" 
d="M256 672l-108 -110h-29l125 128h25l122 -128h-29l-104 110h-2zM242 488c116 0 164 -84 164 -214v-274h-22v94h-1c-33 -54 -101 -97 -184 -97c-113 0 -162 65 -162 138c0 75 52 135 177 135h170v4c0 129 -49 192 -142 192c-61 0 -119 -22 -157 -44l-10 20
c41 24 104 46 167 46zM199 19c103 0 185 74 185 146v83h-170c-87 0 -154 -36 -154 -113c0 -60 39 -116 139 -116z" />
    <glyph glyph-name="uni1EA5.alt" horiz-adv-x="479" 
d="M506 776l-125 -135h-29l123 135h31zM258 673l-108 -110h-29l125 128h25l122 -128h-29l-104 110h-2zM242 488c116 0 164 -84 164 -214v-274h-22v94h-1c-33 -54 -101 -97 -184 -97c-113 0 -162 65 -162 138c0 75 52 135 177 135h170v4c0 129 -49 192 -142 192
c-61 0 -119 -22 -157 -44l-10 20c41 24 104 46 167 46zM199 19c103 0 185 74 185 146v83h-170c-87 0 -154 -36 -154 -113c0 -60 39 -116 139 -116z" />
    <glyph glyph-name="uni1EAD.alt" horiz-adv-x="479" 
d="M256 672l-108 -110h-29l125 128h25l122 -128h-29l-104 110h-2zM242 488c116 0 164 -84 164 -214v-274h-22v94h-1c-33 -54 -101 -97 -184 -97c-113 0 -162 65 -162 138c0 75 52 135 177 135h170v4c0 129 -49 192 -142 192c-61 0 -119 -22 -157 -44l-10 20
c41 24 104 46 167 46zM199 19c103 0 185 74 185 146v83h-170c-87 0 -154 -36 -154 -113c0 -60 39 -116 139 -116zM251 -124c16 0 28 -12 28 -27c0 -17 -12 -27 -28 -27s-27 10 -27 27c0 15 11 27 27 27z" />
    <glyph glyph-name="uni1EA7.alt" horiz-adv-x="479" 
d="M326 776l123 -135h-29l-125 135h31zM254 674l-108 -110h-29l125 128h25l122 -128h-29l-104 110h-2zM242 488c116 0 164 -84 164 -214v-274h-22v94h-1c-33 -54 -101 -97 -184 -97c-113 0 -162 65 -162 138c0 75 52 135 177 135h170v4c0 129 -49 192 -142 192
c-61 0 -119 -22 -157 -44l-10 20c41 24 104 46 167 46zM199 19c103 0 185 74 185 146v83h-170c-87 0 -154 -36 -154 -113c0 -60 39 -116 139 -116z" />
    <glyph glyph-name="uni1EA9.alt" horiz-adv-x="479" 
d="M410 800c43 0 79 -18 79 -65c0 -44 -57 -80 -85 -101h-34c40 28 98 64 98 103c0 34 -25 42 -58 42c-32 0 -70 -12 -86 -29l-6 23c27 17 61 27 92 27zM255 672l-108 -110h-29l125 128h25l122 -128h-29l-104 110h-2zM242 488c116 0 164 -84 164 -214v-274h-22v94h-1
c-33 -54 -101 -97 -184 -97c-113 0 -162 65 -162 138c0 75 52 135 177 135h170v4c0 129 -49 192 -142 192c-61 0 -119 -22 -157 -44l-10 20c41 24 104 46 167 46zM199 19c103 0 185 74 185 146v83h-170c-87 0 -154 -36 -154 -113c0 -60 39 -116 139 -116z" />
    <glyph glyph-name="uni1EAB.alt" horiz-adv-x="479" 
d="M180 826c-28 0 -50 -22 -64 -61l-21 6c17 50 43 77 84 77c30 0 52 -14 75 -30c24 -16 49 -37 75 -37c33 0 50 21 61 62l21 -7c-15 -52 -41 -77 -82 -77c-31 0 -61 22 -88 41c-21 15 -40 26 -61 26zM245 690h25l122 -128h-29l-104 110h-2l-108 -110h-29zM242 488
c116 0 164 -84 164 -214v-274h-22v94h-1c-33 -54 -101 -97 -184 -97c-113 0 -162 65 -162 138c0 75 52 135 177 135h170v4c0 129 -49 192 -142 192c-61 0 -119 -22 -157 -44l-10 20c41 24 104 46 167 46zM199 19c103 0 185 74 185 146v83h-170c-87 0 -154 -36 -154 -113
c0 -60 39 -116 139 -116z" />
    <glyph glyph-name="adieresis.alt" horiz-adv-x="479" 
d="M180 606c-16 0 -28 12 -28 27c0 17 12 27 28 27s27 -10 27 -27c0 -15 -11 -27 -27 -27zM327 606c-16 0 -28 12 -28 27c0 17 12 27 28 27s27 -10 27 -27c0 -15 -11 -27 -27 -27zM242 488c116 0 164 -84 164 -214v-274h-22v94h-1c-33 -54 -101 -97 -184 -97
c-113 0 -162 65 -162 138c0 75 52 135 177 135h170v4c0 129 -49 192 -142 192c-61 0 -119 -22 -157 -44l-10 20c41 24 104 46 167 46zM199 19c103 0 185 74 185 146v83h-170c-87 0 -154 -36 -154 -113c0 -60 39 -116 139 -116z" />
    <glyph glyph-name="uni1EA1.alt" horiz-adv-x="479" 
d="M242 488c116 0 164 -84 164 -214v-274h-22v94h-1c-33 -54 -101 -97 -184 -97c-113 0 -162 65 -162 138c0 75 52 135 177 135h170v4c0 129 -49 192 -142 192c-61 0 -119 -22 -157 -44l-10 20c41 24 104 46 167 46zM199 19c103 0 185 74 185 146v83h-170
c-87 0 -154 -36 -154 -113c0 -60 39 -116 139 -116zM251 -124c16 0 28 -12 28 -27c0 -17 -12 -27 -28 -27s-27 10 -27 27c0 15 11 27 27 27z" />
    <glyph glyph-name="agrave.alt" horiz-adv-x="479" 
d="M286 565h-29l-114 127h30zM242 488c116 0 164 -84 164 -214v-274h-22v94h-1c-33 -54 -101 -97 -184 -97c-113 0 -162 65 -162 138c0 75 52 135 177 135h170v4c0 129 -49 192 -142 192c-61 0 -119 -22 -157 -44l-10 20c41 24 104 46 167 46zM199 19c103 0 185 74 185 146
v83h-170c-87 0 -154 -36 -154 -113c0 -60 39 -116 139 -116z" />
    <glyph glyph-name="uni1EA3.alt" horiz-adv-x="479" 
d="M274 706c-34 0 -73 -13 -90 -31l-6 24c28 18 63 29 96 29c45 0 82 -19 82 -68c0 -46 -59 -83 -89 -105h-35c42 29 102 66 102 107c0 35 -26 44 -60 44zM242 488c116 0 164 -84 164 -214v-274h-22v94h-1c-33 -54 -101 -97 -184 -97c-113 0 -162 65 -162 138
c0 75 52 135 177 135h170v4c0 129 -49 192 -142 192c-61 0 -119 -22 -157 -44l-10 20c41 24 104 46 167 46zM199 19c103 0 185 74 185 146v83h-170c-87 0 -154 -36 -154 -113c0 -60 39 -116 139 -116z" />
    <glyph glyph-name="amacron.alt" horiz-adv-x="479" 
d="M389 642v-23h-267v23h267zM242 488c116 0 164 -84 164 -214v-274h-22v94h-1c-33 -54 -101 -97 -184 -97c-113 0 -162 65 -162 138c0 75 52 135 177 135h170v4c0 129 -49 192 -142 192c-61 0 -119 -22 -157 -44l-10 20c41 24 104 46 167 46zM199 19c103 0 185 74 185 146
v83h-170c-87 0 -154 -36 -154 -113c0 -60 39 -116 139 -116z" />
    <glyph glyph-name="aogonek.alt" horiz-adv-x="479" 
d="M447 -145l4 -23c-16 -8 -33 -13 -63 -13c-51 0 -84 26 -84 76c0 37 27 82 80 115v84h-1c-33 -54 -101 -97 -184 -97c-113 0 -162 65 -162 138c0 75 52 135 177 135h170v4c0 129 -49 192 -142 192c-61 0 -119 -22 -157 -44l-10 20c41 24 104 46 167 46
c116 0 164 -84 164 -214v-274c-48 -25 -79 -66 -79 -104c0 -31 18 -54 61 -54c29 0 41 4 59 13zM199 19c103 0 185 74 185 146v83h-170c-87 0 -154 -36 -154 -113c0 -60 39 -116 139 -116z" />
    <glyph glyph-name="aring.alt" horiz-adv-x="479" 
d="M255 555c-39 0 -73 34 -73 73c0 40 34 73 73 73c40 0 74 -33 74 -73c0 -39 -34 -73 -74 -73zM255 679c-28 0 -51 -23 -51 -51c0 -27 23 -50 51 -50s52 23 52 50c0 28 -24 51 -52 51zM242 488c116 0 164 -84 164 -214v-274h-22v94h-1c-33 -54 -101 -97 -184 -97
c-113 0 -162 65 -162 138c0 75 52 135 177 135h170v4c0 129 -49 192 -142 192c-61 0 -119 -22 -157 -44l-10 20c41 24 104 46 167 46zM199 19c103 0 185 74 185 146v83h-170c-87 0 -154 -36 -154 -113c0 -60 39 -116 139 -116z" />
    <glyph glyph-name="aringacute.alt" horiz-adv-x="481" 
d="M255 555c-39 0 -73 34 -73 73c0 40 34 73 73 73c25 0 47 -12 60 -31l93 58h39l-122 -78c3 -7 4 -14 4 -22c0 -39 -34 -73 -74 -73zM255 679c-28 0 -51 -23 -51 -51c0 -27 23 -50 51 -50s52 23 52 50c0 28 -24 51 -52 51zM242 488c116 0 164 -84 164 -214v-274h-22v94h-1
c-33 -54 -101 -97 -184 -97c-113 0 -162 65 -162 138c0 75 52 135 177 135h170v4c0 129 -49 192 -142 192c-61 0 -119 -22 -157 -44l-10 20c41 24 104 46 167 46zM199 19c103 0 185 74 185 146v83h-170c-87 0 -154 -36 -154 -113c0 -60 39 -116 139 -116z" />
    <glyph glyph-name="atilde.alt" horiz-adv-x="479" 
d="M182 650c-28 0 -50 -22 -64 -61l-21 6c17 50 43 77 84 77c30 0 54 -15 77 -31c24 -16 48 -38 74 -38c24 0 48 19 60 62l21 -7c-16 -54 -49 -77 -80 -77c-32 0 -61 23 -88 42c-21 15 -42 27 -63 27zM242 488c116 0 164 -84 164 -214v-274h-22v94h-1
c-33 -54 -101 -97 -184 -97c-113 0 -162 65 -162 138c0 75 52 135 177 135h170v4c0 129 -49 192 -142 192c-61 0 -119 -22 -157 -44l-10 20c41 24 104 46 167 46zM199 19c103 0 185 74 185 146v83h-170c-87 0 -154 -36 -154 -113c0 -60 39 -116 139 -116z" />
    <glyph glyph-name="g.alt" horiz-adv-x="550" 
d="M267 -215c-136 0 -223 47 -223 139c0 50 37 92 66 114v2c-25 11 -40 33 -40 59c1 33 22 58 67 100c-26 30 -42 69 -42 114c0 96 72 175 179 175c47 0 90 -16 122 -45l106 101l17 -17l-108 -99c26 -30 41 -69 41 -115c0 -93 -72 -173 -178 -173c-47 0 -90 16 -122 44
c-37 -35 -59 -53 -59 -83c-1 -31 24 -52 96 -52h89c121 0 225 -18 225 -118c0 -74 -68 -146 -236 -146zM274 162c87 0 155 65 155 151c0 88 -65 153 -155 153s-156 -65 -156 -153c0 -86 67 -151 156 -151zM268 -193c121 0 212 42 212 124c0 80 -84 96 -202 96h-89
c-26 0 -40 1 -54 4c-25 -16 -68 -58 -68 -107c0 -57 47 -117 201 -117z" />
    <glyph glyph-name="gbreve.alt" horiz-adv-x="550" 
d="M274 561c-62 0 -117 44 -122 127h21c4 -59 40 -105 101 -105s97 46 100 105h22c-6 -83 -60 -127 -122 -127zM267 -215c-136 0 -223 47 -223 139c0 50 37 92 66 114v2c-25 11 -40 33 -40 59c1 33 22 58 67 100c-26 30 -42 69 -42 114c0 96 72 175 179 175
c47 0 90 -16 122 -45l106 101l17 -17l-108 -99c26 -30 41 -69 41 -115c0 -93 -72 -173 -178 -173c-47 0 -90 16 -122 44c-37 -35 -59 -53 -59 -83c-1 -31 24 -52 96 -52h89c121 0 225 -18 225 -118c0 -74 -68 -146 -236 -146zM274 162c87 0 155 65 155 151
c0 88 -65 153 -155 153s-156 -65 -156 -153c0 -86 67 -151 156 -151zM268 -193c121 0 212 42 212 124c0 80 -84 96 -202 96h-89c-26 0 -40 1 -54 4c-25 -16 -68 -58 -68 -107c0 -57 47 -117 201 -117z" />
    <glyph glyph-name="gcaron.alt" horiz-adv-x="550" 
d="M260 562l-122 128h29l106 -110h2l106 110h29l-125 -128h-25zM267 -215c-136 0 -223 47 -223 139c0 50 37 92 66 114v2c-25 11 -40 33 -40 59c1 33 22 58 67 100c-26 30 -42 69 -42 114c0 96 72 175 179 175c47 0 90 -16 122 -45l106 101l17 -17l-108 -99
c26 -30 41 -69 41 -115c0 -93 -72 -173 -178 -173c-47 0 -90 16 -122 44c-37 -35 -59 -53 -59 -83c-1 -31 24 -52 96 -52h89c121 0 225 -18 225 -118c0 -74 -68 -146 -236 -146zM274 162c87 0 155 65 155 151c0 88 -65 153 -155 153s-156 -65 -156 -153
c0 -86 67 -151 156 -151zM268 -193c121 0 212 42 212 124c0 80 -84 96 -202 96h-89c-26 0 -40 1 -54 4c-25 -16 -68 -58 -68 -107c0 -57 47 -117 201 -117z" />
    <glyph glyph-name="gcircumflex.alt" horiz-adv-x="550" 
d="M138 560l122 136h25l125 -136h-29l-108 120l-106 -120h-29zM267 -215c-136 0 -223 47 -223 139c0 50 37 92 66 114v2c-25 11 -40 33 -40 59c1 33 22 58 67 100c-26 30 -42 69 -42 114c0 96 72 175 179 175c47 0 90 -16 122 -45l106 101l17 -17l-108 -99
c26 -30 41 -69 41 -115c0 -93 -72 -173 -178 -173c-47 0 -90 16 -122 44c-37 -35 -59 -53 -59 -83c-1 -31 24 -52 96 -52h89c121 0 225 -18 225 -118c0 -74 -68 -146 -236 -146zM274 162c87 0 155 65 155 151c0 88 -65 153 -155 153s-156 -65 -156 -153
c0 -86 67 -151 156 -151zM268 -193c121 0 212 42 212 124c0 80 -84 96 -202 96h-89c-26 0 -40 1 -54 4c-25 -16 -68 -58 -68 -107c0 -57 47 -117 201 -117z" />
    <glyph glyph-name="gcommaaccent.alt" horiz-adv-x="550" 
d="M352 696l8 -18c-59 -3 -68 -35 -68 -70c0 -18 2 -38 5 -56h-22c-3 17 -5 37 -5 55c0 45 18 85 82 89zM267 -215c-136 0 -223 47 -223 139c0 50 37 92 66 114v2c-25 11 -40 33 -40 59c1 33 22 58 67 100c-26 30 -42 69 -42 114c0 96 72 175 179 175c47 0 90 -16 122 -45
l106 101l17 -17l-108 -99c26 -30 41 -69 41 -115c0 -93 -72 -173 -178 -173c-47 0 -90 16 -122 44c-37 -35 -59 -53 -59 -83c-1 -31 24 -52 96 -52h89c121 0 225 -18 225 -118c0 -74 -68 -146 -236 -146zM274 162c87 0 155 65 155 151c0 88 -65 153 -155 153
s-156 -65 -156 -153c0 -86 67 -151 156 -151zM268 -193c121 0 212 42 212 124c0 80 -84 96 -202 96h-89c-26 0 -40 1 -54 4c-25 -16 -68 -58 -68 -107c0 -57 47 -117 201 -117z" />
    <glyph glyph-name="gdotaccent.alt" horiz-adv-x="550" 
d="M275 606c-16 0 -28 12 -28 27c0 17 12 27 28 27s27 -10 27 -27c0 -15 -11 -27 -27 -27zM267 -215c-136 0 -223 47 -223 139c0 50 37 92 66 114v2c-25 11 -40 33 -40 59c1 33 22 58 67 100c-26 30 -42 69 -42 114c0 96 72 175 179 175c47 0 90 -16 122 -45l106 101l17 -17
l-108 -99c26 -30 41 -69 41 -115c0 -93 -72 -173 -178 -173c-47 0 -90 16 -122 44c-37 -35 -59 -53 -59 -83c-1 -31 24 -52 96 -52h89c121 0 225 -18 225 -118c0 -74 -68 -146 -236 -146zM274 162c87 0 155 65 155 151c0 88 -65 153 -155 153s-156 -65 -156 -153
c0 -86 67 -151 156 -151zM268 -193c121 0 212 42 212 124c0 80 -84 96 -202 96h-89c-26 0 -40 1 -54 4c-25 -16 -68 -58 -68 -107c0 -57 47 -117 201 -117z" />
    <glyph glyph-name="uni1E21.alt" horiz-adv-x="550" 
d="M141 619v23h267v-23h-267zM267 -215c-136 0 -223 47 -223 139c0 50 37 92 66 114v2c-25 11 -40 33 -40 59c1 33 22 58 67 100c-26 30 -42 69 -42 114c0 96 72 175 179 175c47 0 90 -16 122 -45l106 101l17 -17l-108 -99c26 -30 41 -69 41 -115c0 -93 -72 -173 -178 -173
c-47 0 -90 16 -122 44c-37 -35 -59 -53 -59 -83c-1 -31 24 -52 96 -52h89c121 0 225 -18 225 -118c0 -74 -68 -146 -236 -146zM274 162c87 0 155 65 155 151c0 88 -65 153 -155 153s-156 -65 -156 -153c0 -86 67 -151 156 -151zM268 -193c121 0 212 42 212 124
c0 80 -84 96 -202 96h-89c-26 0 -40 1 -54 4c-25 -16 -68 -58 -68 -107c0 -57 47 -117 201 -117z" />
    <glyph glyph-name="f.calt" horiz-adv-x="311" 
d="M105 0v462h-68v22h68v118c0 96 48 138 117 138c25 0 46 -4 65 -11l-5 -22c-18 7 -38 11 -61 11c-52 0 -94 -31 -94 -116v-118h173v-22h-173v-462h-22z" />
    <glyph glyph-name="j.calt" horiz-adv-x="176" 
d="M95 606c-16 0 -28 12 -28 27c0 17 12 27 28 27s27 -10 27 -27c0 -15 -11 -27 -27 -27zM29 -201c-11 0 -25 2 -36 5l3 23c10 -4 22 -6 33 -6c27 0 54 20 54 89v574h22v-574c0 -59 -16 -111 -76 -111z" />
    <glyph glyph-name="uni0237.calt" horiz-adv-x="176" 
d="M29 -201c-11 0 -25 2 -36 5l3 23c10 -4 22 -6 33 -6c27 0 54 20 54 89v574h22v-574c0 -59 -16 -111 -76 -111z" />
    <glyph glyph-name="jcircumflex.calt" horiz-adv-x="176" 
d="M-42 562l125 128h25l122 -128h-29l-104 110h-2l-108 -110h-29zM29 -201c-11 0 -25 2 -36 5l3 23c10 -4 22 -6 33 -6c27 0 54 20 54 89v574h22v-574c0 -59 -16 -111 -76 -111z" />
    <glyph glyph-name="germandbls.calt" horiz-adv-x="695" 
d="M435 373c114 -44 219 -75 219 -199c0 -100 -82 -177 -223 -177c-83 0 -170 30 -233 100l13 23c52 -68 137 -100 222 -100c103 0 197 52 197 154c0 109 -97 135 -201 177c-27 11 -59 24 -85 37l153 277l-1 2c-62 15 -139 24 -212 24c-141 0 -201 -56 -201 -177v-514h-23
v517c0 133 69 197 221 197c75 0 169 -12 251 -32l-155 -285c19 -8 39 -17 58 -24z" />
    <glyph glyph-name="uni0162" unicode="&#x162;" horiz-adv-x="542" 
d="M278 0l-14 -34v-1c38 -3 80 -29 80 -77c0 -38 -30 -72 -85 -72c-16 0 -34 2 -49 6v23c13 -4 27 -7 45 -7c35 0 66 16 66 51c0 28 -26 57 -82 57l1 19l18 39v683h-233v23h492v-23h-236v-687h-3z" />
    <glyph glyph-name="uni021A" unicode="&#x21a;" horiz-adv-x="542" 
d="M258 0v687h-233v23h492v-23h-236v-687h-23zM205 -199l-8 18c59 3 68 35 68 70c0 18 -2 38 -5 56h22c3 -17 5 -37 5 -55c0 -45 -18 -85 -82 -89z" />
    <glyph glyph-name="ordfeminine" unicode="&#xaa;" horiz-adv-x="409" 
d="M203 394c-82 0 -147 58 -147 145c0 83 59 150 147 150c51 0 98 -26 124 -71h1v69h23v-291h-23v66h-1c-25 -42 -70 -68 -124 -68zM206 416c68 0 123 49 123 123c0 71 -50 128 -122 128s-128 -51 -128 -128c0 -68 50 -123 127 -123z" />
    <glyph glyph-name="ordmasculine" unicode="&#xba;" horiz-adv-x="411" 
d="M206 393c-90 0 -150 66 -150 148s60 148 150 148c83 0 149 -60 149 -148s-66 -148 -149 -148zM206 416c70 0 127 50 127 125s-57 126 -127 126c-77 0 -127 -57 -127 -126c0 -68 50 -125 127 -125z" />
    <glyph glyph-name="uni0410" unicode="&#x410;" horiz-adv-x="640" 
d="M29 0l275 710h29l278 -710h-25l-83 211h-367l-82 -211h-25zM145 234h349l-174 448h-2z" />
    <glyph glyph-name="uni0411" unicode="&#x411;" horiz-adv-x="597" 
d="M89 0v710h394v-23h-371v-285h196c136 0 234 -57 234 -201s-98 -201 -234 -201h-219zM112 23h196c152 0 210 75 210 178s-58 178 -210 178h-196v-356z" />
    <glyph glyph-name="uni0412" unicode="&#x412;" horiz-adv-x="610" 
d="M89 0v710h204c124 0 225 -43 225 -172c0 -76 -43 -143 -129 -166v-2c83 -12 163 -68 163 -182c0 -112 -77 -188 -245 -188h-218zM112 382h200c83 0 182 36 182 156c0 91 -58 149 -202 149h-180v-305zM112 23h199c128 0 217 52 217 162c0 111 -78 174 -217 174h-199v-336z
" />
    <glyph glyph-name="uni0413" unicode="&#x413;" horiz-adv-x="520" 
d="M89 0v710h412v-23h-389v-687h-23z" />
    <glyph glyph-name="uni0403" unicode="&#x403;" horiz-adv-x="520" 
d="M216 795l113 124h30l-114 -124h-29zM89 0v710h412v-23h-389v-687h-23z" />
    <glyph glyph-name="uni0490" unicode="&#x490;" horiz-adv-x="520" 
d="M481 857h20v-170h-389v-687h-23v710h390z" />
    <glyph glyph-name="uni0414" unicode="&#x414;" horiz-adv-x="783" 
d="M740 23v-170h-20l-2 147h-673l-2 -147h-20v170h85c60 80 93 183 116 311c18 99 27 214 29 376h389v-687h98zM246 330c-22 -126 -55 -229 -112 -307h485v664h-344c-3 -152 -12 -262 -29 -357z" />
    <glyph glyph-name="uni0415" unicode="&#x415;" horiz-adv-x="565" 
d="M89 0v710h412v-23h-389v-320h327v-23h-327v-321h410v-23h-433z" />
    <glyph glyph-name="uni0400" unicode="&#x400;" horiz-adv-x="565" 
d="M323 795l-114 124h30l113 -124h-29zM89 0v710h412v-23h-389v-320h327v-23h-327v-321h410v-23h-433z" />
    <glyph glyph-name="uni0401" unicode="&#x401;" horiz-adv-x="565" 
d="M211 846c-16 0 -28 12 -28 27c0 17 12 27 28 27s27 -10 27 -27c0 -15 -11 -27 -27 -27zM358 846c-16 0 -28 12 -28 27c0 17 12 27 28 27s27 -10 27 -27c0 -15 -11 -27 -27 -27zM89 0v710h412v-23h-389v-320h327v-23h-327v-321h410v-23h-433z" />
    <glyph glyph-name="uni0416" unicode="&#x416;" horiz-adv-x="918" 
d="M36 0l266 373l-268 337h30l381 -482h1v482h23v-484h1l375 484h30l-262 -337l271 -373h-29l-257 355l-129 -165v-190h-23v191l-129 164l-252 -355h-29z" />
    <glyph glyph-name="uni0417" unicode="&#x417;" horiz-adv-x="593" 
d="M300 -3c-107 0 -195 39 -251 104l16 19c47 -60 135 -100 236 -100c122 0 212 64 212 172c0 103 -78 167 -218 167h-132v23h133c84 0 183 46 183 158c0 95 -72 151 -187 151c-76 0 -146 -24 -198 -64l-16 17c48 41 133 70 215 70c126 0 210 -71 210 -174
c0 -74 -42 -143 -132 -168v-1c85 -12 166 -65 166 -176c0 -107 -80 -198 -237 -198z" />
    <glyph glyph-name="uni0418" unicode="&#x418;" horiz-adv-x="709" 
d="M89 0v710h23v-670h1l485 670h22v-710h-23v669h-1l-484 -669h-23z" />
    <glyph glyph-name="uni0419" unicode="&#x419;" horiz-adv-x="709" 
d="M355 790c-74 0 -130 44 -137 115l22 4c6 -50 42 -98 115 -98s109 48 114 98l23 -4c-8 -71 -63 -115 -137 -115zM89 0v710h23v-670h1l485 670h22v-710h-23v669h-1l-484 -669h-23z" />
    <glyph glyph-name="uni040D" unicode="&#x40d;" horiz-adv-x="709" 
d="M392 795l-114 124h30l113 -124h-29zM89 0v710h23v-670h1l485 670h22v-710h-23v669h-1l-484 -669h-23z" />
    <glyph glyph-name="uni048A" unicode="&#x48a;" horiz-adv-x="718" 
d="M355 790c-74 0 -130 44 -137 115l22 4c6 -50 42 -98 115 -98s109 48 114 98l23 -4c-8 -71 -63 -115 -137 -115zM620 23h38v-4l-59 -166h-20l48 147h-30v669h-1l-484 -669h-23v710h23v-670h1l485 670h22v-687z" />
    <glyph glyph-name="uni041A" unicode="&#x41a;" horiz-adv-x="612" 
d="M89 0v710h23v-483h2l418 483h31l-291 -336l296 -374h-30l-281 357l-145 -168v-189h-23z" />
    <glyph glyph-name="uni040C" unicode="&#x40c;" horiz-adv-x="612" 
d="M251 795l113 124h30l-114 -124h-29zM89 0v710h23v-483h2l418 483h31l-291 -336l296 -374h-30l-281 357l-145 -168v-189h-23z" />
    <glyph glyph-name="uni041B" unicode="&#x41b;" horiz-adv-x="697" 
d="M222 710h386v-710h-23v687h-340c-9 -126 -20 -292 -33 -393c-28 -222 -85 -296 -167 -296c-17 0 -24 2 -30 4l2 22c7 -2 19 -3 28 -3c66 0 115 60 143 267c12 88 24 240 34 422z" />
    <glyph glyph-name="uni041C" unicode="&#x41c;" horiz-adv-x="853" 
d="M89 0v710h24l313 -525h2l312 525h23v-710h-23v665h-1l-302 -510h-21l-303 510h-1v-665h-23z" />
    <glyph glyph-name="uni041D" unicode="&#x41d;" horiz-adv-x="692" 
d="M89 0v710h23v-364h468v364h23v-710h-23v323h-468v-323h-23z" />
    <glyph glyph-name="uni041E" unicode="&#x41e;" horiz-adv-x="822" 
d="M413 -3c-194 0 -351 143 -351 359c0 215 157 358 351 358c190 0 347 -143 347 -358c0 -216 -157 -359 -347 -359zM413 20c177 0 323 134 323 336c0 201 -146 335 -323 335c-181 0 -327 -134 -327 -335c0 -202 146 -336 327 -336z" />
    <glyph glyph-name="uni041F" unicode="&#x41f;" horiz-adv-x="672" 
d="M89 0v710h494v-710h-23v687h-448v-687h-23z" />
    <glyph glyph-name="uni0420" unicode="&#x420;" horiz-adv-x="582" 
d="M89 0v710h233c157 0 219 -86 219 -200c0 -144 -98 -205 -237 -205h-192v-305h-23zM112 328h191c156 0 214 79 214 182c0 121 -79 177 -189 177h-216v-359z" />
    <glyph glyph-name="uni0421" unicode="&#x421;" horiz-adv-x="714" 
d="M408 -3c-190 0 -346 125 -346 355c0 201 121 362 346 362c98 0 195 -40 271 -134l-19 -16c-71 90 -161 127 -252 127c-210 0 -322 -149 -322 -339c0 -216 143 -332 322 -332c115 0 193 51 252 125l19 -15c-63 -78 -146 -133 -271 -133z" />
    <glyph glyph-name="uni0422" unicode="&#x422;" horiz-adv-x="542" 
d="M258 0v687h-233v23h492v-23h-236v-687h-23z" />
    <glyph glyph-name="uni0423" unicode="&#x423;" horiz-adv-x="638" 
d="M583 710h25l-244 -541c-42 -93 -70 -173 -170 -173c-36 0 -82 13 -109 43l9 22c28 -31 69 -42 100 -42c68 0 98 46 141 142l-305 549h25l291 -520h2c0 2 1 3 2 5z" />
    <glyph glyph-name="uni040E" unicode="&#x40e;" horiz-adv-x="638" 
d="M320 790c-74 0 -130 44 -137 115l22 4c6 -50 42 -98 115 -98s109 48 114 98l23 -4c-8 -71 -63 -115 -137 -115zM583 710h25l-244 -541c-42 -93 -70 -173 -170 -173c-36 0 -82 13 -109 43l9 22c28 -31 69 -42 100 -42c68 0 98 46 141 142l-305 549h25l291 -520h2
c0 2 1 3 2 5z" />
    <glyph glyph-name="uni0424" unicode="&#x424;" horiz-adv-x="838" 
d="M435 664c206 0 346 -116 346 -304c0 -173 -140 -288 -345 -288h-6v-72h-23v72h-5c-207 1 -345 115 -345 288c0 188 137 304 344 304h6v64h23v-64h5zM81 360c0 -155 123 -264 321 -265h5v546h-6c-202 0 -320 -113 -320 -281zM436 95c197 0 321 110 321 265
c0 168 -120 280 -322 281h-5v-546h6z" />
    <glyph glyph-name="uni0425" unicode="&#x425;" horiz-adv-x="604" 
d="M34 0l254 354l-255 356h27l242 -335h1l240 335h29l-255 -356l254 -354h-29l-238 331h-2l-240 -331h-28z" />
    <glyph glyph-name="uni0427" unicode="&#x427;" horiz-adv-x="617" 
d="M505 710h23v-710h-23v314c-80 -45 -183 -57 -231 -57c-151 0 -206 74 -206 227v226h23v-224c0 -149 51 -206 183 -206c48 0 153 13 231 61v369z" />
    <glyph glyph-name="uni0426" unicode="&#x426;" horiz-adv-x="711" 
d="M667 23v-170h-20l-2 147h-556v710h23v-687h434v687h23v-687h98z" />
    <glyph glyph-name="uni0428" unicode="&#x428;" horiz-adv-x="952" 
d="M840 710h23v-710h-774v710h23v-687h353v687h23v-687h352v687z" />
    <glyph glyph-name="uni0429" unicode="&#x429;" horiz-adv-x="1005" 
d="M961 23v-170h-20l-2 147h-850v710h23v-687h353v687h23v-687h352v687h23v-687h98z" />
    <glyph glyph-name="uni040F" unicode="&#x40f;" horiz-adv-x="672" 
d="M583 710v-710h-236l-1 -147h-20l-1 147h-236v710h23v-687h448v687h23z" />
    <glyph glyph-name="uni042C" unicode="&#x42c;" horiz-adv-x="603" 
d="M89 0v710h23v-307h206c136 0 234 -57 234 -202c0 -144 -98 -201 -234 -201h-229zM112 23h206c152 0 210 75 210 178c0 104 -58 179 -210 179h-206v-357z" />
    <glyph glyph-name="uni042A" unicode="&#x42a;" horiz-adv-x="726" 
d="M441 403c136 0 234 -57 234 -202c0 -144 -98 -201 -234 -201h-229v687h-207v23h230v-307h206zM441 23c152 0 210 75 210 178c0 104 -58 179 -210 179h-206v-357h206z" />
    <glyph glyph-name="uni042B" unicode="&#x42b;" horiz-adv-x="781" 
d="M89 0v710h23v-307h186c136 0 234 -57 234 -202c0 -144 -98 -201 -234 -201h-209zM669 0v710h23v-710h-23zM112 23h186c152 0 210 75 210 178c0 104 -58 179 -210 179h-186v-357z" />
    <glyph glyph-name="uni0409" unicode="&#x409;" horiz-adv-x="1099" 
d="M814 403c136 0 234 -57 234 -202c0 -144 -98 -201 -234 -201h-229v687h-340c-9 -126 -20 -292 -33 -393c-28 -222 -85 -296 -167 -296c-17 0 -24 2 -30 4l2 22c7 -2 19 -3 28 -3c66 0 115 60 143 267c12 88 24 240 34 422h386v-307h206zM814 23c152 0 210 75 210 178
c0 104 -58 179 -210 179h-206v-357h206z" />
    <glyph glyph-name="uni040A" unicode="&#x40a;" horiz-adv-x="1085" 
d="M807 379c136 0 227 -57 227 -185c0 -137 -94 -194 -230 -194h-240v356h-452v-356h-23v710h23v-331h452v331h23v-331h220zM804 23c152 0 206 75 206 171c0 87 -51 162 -203 162h-220v-333h217z" />
    <glyph glyph-name="uni0405" unicode="&#x405;" horiz-adv-x="558" 
d="M282 -3c-86 0 -176 32 -239 107l18 18c51 -69 138 -102 223 -102c104 0 197 52 197 154c0 109 -96 134 -201 177c-99 40 -206 81 -206 196c0 96 82 167 202 167c69 0 146 -27 203 -74l-16 -19c-55 45 -125 70 -186 70c-89 0 -179 -49 -179 -144c0 -100 95 -137 189 -174
c113 -45 218 -75 218 -199c0 -100 -81 -177 -223 -177z" />
    <glyph glyph-name="uni0404" unicode="&#x404;" horiz-adv-x="714" 
d="M660 136l19 -15c-64 -75 -146 -124 -271 -124c-190 0 -346 125 -346 355c0 201 121 362 345 362c98 0 184 -30 262 -115l-19 -16c-73 81 -152 108 -243 108c-204 0 -315 -141 -321 -324h444v-23h-444c4 -211 145 -324 322 -324c115 0 192 45 252 116z" />
    <glyph glyph-name="uni042D" unicode="&#x42d;" horiz-adv-x="725" 
d="M318 714c215 0 346 -160 346 -362c0 -212 -142 -355 -347 -355c-128 0 -213 56 -269 120l18 15c47 -59 132 -112 252 -112c188 0 318 129 322 324h-456v23h456c-7 186 -128 324 -322 324c-91 0 -165 -30 -240 -96l-18 17c78 69 161 102 258 102z" />
    <glyph glyph-name="uni0406" unicode="&#x406;" horiz-adv-x="215" 
d="M96 0v710h23v-710h-23z" />
    <glyph glyph-name="uni0407" unicode="&#x407;" horiz-adv-x="215" 
d="M33 846c-16 0 -28 12 -28 27c0 17 12 27 28 27s27 -10 27 -27c0 -15 -11 -27 -27 -27zM180 846c-16 0 -28 12 -28 27c0 17 12 27 28 27s27 -10 27 -27c0 -15 -11 -27 -27 -27zM96 0v710h23v-710h-23z" />
    <glyph glyph-name="uni0408" unicode="&#x408;" horiz-adv-x="467" 
d="M212 -3c-57 0 -131 32 -186 94l14 18c52 -56 111 -89 172 -89c92 0 154 50 154 193v497h23v-502c0 -146 -64 -211 -177 -211z" />
    <glyph glyph-name="uni040B" unicode="&#x40b;" horiz-adv-x="767" 
d="M496 425c148 0 203 -74 203 -227v-198h-23v196c0 149 -51 206 -180 206c-53 0 -138 -13 -225 -61v-341h-23v687h-233v23h492v-23h-236v-321c87 46 172 59 225 59z" />
    <glyph glyph-name="uni042E" unicode="&#x42e;" horiz-adv-x="1015" 
d="M619 714c200 0 339 -150 339 -358s-139 -359 -339 -359c-187 0 -321 135 -335 326h-172v-323h-23v710h23v-364h171v10c0 208 138 358 336 358zM619 20c186 0 315 141 315 336c0 194 -129 335 -315 335c-185 0 -312 -140 -312 -335c0 -194 127 -336 312 -336z" />
    <glyph glyph-name="uni042F" unicode="&#x42f;" horiz-adv-x="622" 
d="M57 0l200 303c-112 14 -190 77 -190 207c0 114 69 200 223 200h243v-710h-23v300h-227l-198 -300h-28zM308 323h202v364h-221c-118 0 -198 -56 -198 -177c0 -108 60 -187 217 -187z" />
    <glyph glyph-name="uni0402" unicode="&#x402;" horiz-adv-x="793" 
d="M492 425c164 0 250 -81 250 -217c0 -135 -89 -212 -230 -212c-37 0 -59 1 -103 7l2 23c34 -5 58 -7 101 -7c127 0 206 69 206 189c0 124 -79 194 -226 194c-75 0 -160 -19 -221 -49v-353h-23v687h-233v23h492v-23h-236v-309c65 29 149 47 221 47z" />
    <glyph glyph-name="uni0462" unicode="&#x462;" horiz-adv-x="716" 
d="M431 403c136 0 234 -57 234 -202c0 -144 -98 -201 -234 -201h-229v579h-192v22h192v109h23v-109h272v-22h-272v-176h206zM431 23c152 0 210 75 210 178c0 104 -58 179 -210 179h-206v-357h206z" />
    <glyph glyph-name="uni0472" unicode="&#x472;" horiz-adv-x="822" 
d="M412 714c191 0 348 -143 348 -358c0 -216 -157 -359 -348 -359c-210 0 -350 160 -350 359c0 197 140 358 350 358zM412 691c-191 0 -321 -144 -326 -324h650c-5 195 -149 324 -324 324zM412 20c175 0 318 128 324 324h-650c6 -181 135 -324 326 -324z" />
    <glyph glyph-name="uni0474" unicode="&#x474;" horiz-adv-x="693" 
d="M303 0l-273 710h25l259 -674h2l193 561c28 82 54 117 120 117c33 0 64 -15 73 -25l-6 -23c-10 11 -39 25 -68 25c-56 0 -76 -37 -97 -99l-204 -592h-24z" />
    <glyph glyph-name="uni0492" unicode="&#x492;" horiz-adv-x="547" 
d="M528 687h-389v-331h212v-23h-212v-333h-23v333h-106v23h106v354h412v-23z" />
    <glyph glyph-name="uni0494" unicode="&#x494;" horiz-adv-x="629" 
d="M305 383c155 0 269 -85 269 -286c0 -206 -125 -298 -272 -298c-37 0 -62 3 -94 10l2 23c35 -7 58 -10 92 -10c141 0 248 90 248 275c0 188 -106 263 -245 263c-65 0 -131 -13 -193 -36v-324h-23v710h412v-23h-389v-338c48 16 114 34 193 34z" />
    <glyph glyph-name="uni0496" unicode="&#x496;" horiz-adv-x="940" 
d="M893 23v-170h-20l-2 147h-16l-257 355l-129 -165v-190h-23v191l-129 164l-252 -355h-29l266 373l-268 337h30l381 -482h1v482h23v-484h1l375 484h30l-262 -337l254 -350h26z" />
    <glyph glyph-name="uni0498" unicode="&#x498;" horiz-adv-x="593" 
d="M537 195c0 -107 -79 -197 -235 -198l-10 -41c42 -4 88 -20 88 -70c0 -45 -37 -66 -78 -68c-26 -1 -49 1 -73 10v25c17 -9 36 -13 63 -13c44 0 66 18 65 50c-1 33 -42 48 -93 48l16 59c-98 5 -178 43 -231 104l16 19c47 -60 135 -100 236 -100c122 0 212 64 212 172
c0 103 -78 167 -218 167h-132v23h133c84 0 183 46 183 158c0 95 -72 151 -187 151c-76 0 -146 -24 -198 -64l-16 17c48 41 133 70 215 70c126 0 210 -71 210 -174c0 -74 -42 -143 -132 -168v-1c85 -12 166 -65 166 -176z" />
    <glyph glyph-name="uni049A" unicode="&#x49a;" horiz-adv-x="634" 
d="M576 23v-170h-20l-2 147h-16l-281 357l-145 -168v-189h-23v710h23v-483h2l418 483h31l-291 -336l278 -351h26z" />
    <glyph glyph-name="uni049C" unicode="&#x49c;" horiz-adv-x="641" 
d="M567 0l-271 335h-38v-217h-23v217h-123v-335h-23v710h23v-352h123v218h23v-218h40l265 352h29l-275 -364l280 -346h-30z" />
    <glyph glyph-name="uni049E" unicode="&#x49e;" horiz-adv-x="622" 
d="M282 374l296 -374h-30l-281 357l-145 -168v-189h-23v579h-98v22h98v109h23v-109h176v-22h-176v-352h2l418 483h31z" />
    <glyph glyph-name="uni04A0" unicode="&#x4a0;" horiz-adv-x="735" 
d="M395 374l296 -374h-30l-281 357l-145 -168v-189h-23v687h-207v23h230v-483h2l418 483h31z" />
    <glyph glyph-name="uni04A2" unicode="&#x4a2;" horiz-adv-x="745" 
d="M701 23v-170h-20l-2 147h-99v323h-468v-323h-23v710h23v-364h468v364h23v-687h98z" />
    <glyph glyph-name="uni04A4" unicode="&#x4a4;" horiz-adv-x="830" 
d="M811 710v-23h-213v-687h-23v323h-463v-323h-23v710h23v-364h463v364h236z" />
    <glyph glyph-name="uni04A6" unicode="&#x4a6;" horiz-adv-x="1094" 
d="M770 383c155 0 269 -85 269 -286c0 -206 -125 -298 -272 -298c-37 0 -62 3 -94 10l2 23c35 -7 58 -10 92 -10c141 0 248 90 248 275c0 188 -106 263 -245 263c-65 0 -131 -13 -193 -36v-324h-23v687h-442v-687h-23v710h488v-361c48 16 114 34 193 34z" />
    <glyph glyph-name="uni0524" unicode="&#x524;" horiz-adv-x="725" 
d="M681 23v-170h-20l-2 147h-99v687h-448v-687h-23v710h494v-687h98z" />
    <glyph glyph-name="uni04A8" unicode="&#x4a8;" horiz-adv-x="857" 
d="M854 22c-29 -19 -67 -26 -105 -26c-53 0 -111 14 -157 37c-47 -23 -102 -37 -178 -37c-231 0 -364 159 -364 360c0 209 143 358 358 358c44 0 86 -7 124 -21l-12 -21c-35 13 -72 19 -112 19c-190 0 -334 -128 -334 -335c0 -197 131 -337 340 -337c65 0 112 11 151 28v1
c-96 62 -153 176 -154 310c-1 156 85 261 192 261c105 0 182 -107 182 -260c0 -145 -71 -253 -167 -311v-2c39 -17 87 -27 131 -27c39 0 69 7 99 26zM435 358c1 -131 59 -243 157 -298h1c99 54 168 161 168 299c0 137 -65 237 -158 237c-98 0 -169 -101 -168 -238z" />
    <glyph glyph-name="uni04AA" unicode="&#x4aa;" horiz-adv-x="714" 
d="M408 20c115 0 193 51 252 125l19 -15c-63 -78 -146 -133 -271 -133h-11l-10 -41c42 -4 88 -20 88 -70c0 -45 -37 -66 -78 -68c-26 -1 -49 1 -73 10v25c17 -9 36 -13 63 -13c44 0 66 18 65 50c-1 33 -42 48 -93 48l16 60c-175 14 -313 137 -313 354c0 201 121 362 346 362
c98 0 195 -40 271 -134l-19 -16c-71 90 -161 127 -252 127c-210 0 -322 -149 -322 -339c0 -216 143 -332 322 -332z" />
    <glyph glyph-name="uni04AC" unicode="&#x4ac;" horiz-adv-x="542" 
d="M517 687h-236v-664h98v-170h-20l-2 147h-99v687h-233v23h492v-23z" />
    <glyph glyph-name="uni04AE" unicode="&#x4ae;" horiz-adv-x="556" 
d="M266 0v323l-248 387h28l230 -361h2l232 361h28l-249 -387v-323h-23z" />
    <glyph glyph-name="uni04B0" unicode="&#x4b0;" horiz-adv-x="556" 
d="M538 710l-239 -371h152v-23h-162v-316h-23v316h-167v23h157l-238 371h28l230 -361h2l232 361h28z" />
    <glyph glyph-name="uni04B2" unicode="&#x4b2;" horiz-adv-x="626" 
d="M581 23v-170h-20l-2 147h-17l-238 331h-2l-240 -331h-28l254 354l-255 356h27l242 -335h1l240 335h29l-255 -356l237 -331h27z" />
    <glyph glyph-name="uni04B4" unicode="&#x4b4;" horiz-adv-x="870" 
d="M826 23v-170h-20l-2 147h-556v687h-233v23h492v-23h-236v-664h434v687h23v-687h98z" />
    <glyph glyph-name="uni04B6" unicode="&#x4b6;" horiz-adv-x="670" 
d="M626 23v-170h-20l-2 147h-99v314c-80 -45 -183 -57 -231 -57c-151 0 -206 74 -206 227v226h23v-224c0 -149 51 -206 183 -206c48 0 153 13 231 61v369h23v-687h98z" />
    <glyph glyph-name="uni04B8" unicode="&#x4b8;" horiz-adv-x="617" 
d="M505 710h23v-710h-23v314c-59 -33 -131 -48 -184 -54v-154h-23v152c-9 -1 -17 -1 -24 -1c-151 0 -206 74 -206 227v226h23v-224c0 -149 51 -206 183 -206c7 0 15 0 24 1v180h23v-178c53 6 126 22 184 58v369z" />
    <glyph glyph-name="uni04BA" unicode="&#x4ba;" horiz-adv-x="620" 
d="M346 455c151 0 206 -74 206 -227v-228h-23v226c0 149 -51 206 -183 206c-51 0 -156 -16 -234 -61v-371h-23v710h23v-313c80 43 183 58 234 58z" />
    <glyph glyph-name="uni04BC" unicode="&#x4bc;" horiz-adv-x="865" 
d="M813 373h-632c-1 -8 -1 -15 -1 -23c2 -193 117 -330 317 -330c102 0 217 37 271 120l19 -14c-58 -87 -178 -129 -290 -129c-218 0 -342 152 -342 353c0 7 0 15 1 22h-16c-100 0 -140 39 -140 105c0 19 4 41 13 64l23 -5c-9 -22 -13 -42 -13 -59c0 -53 30 -82 117 -82h17
c19 181 151 319 346 319c153 0 310 -107 310 -328v-13zM503 691c-182 0 -303 -126 -321 -295h608c-3 179 -132 295 -287 295z" />
    <glyph glyph-name="uni04BE" unicode="&#x4be;" horiz-adv-x="865" 
d="M813 373h-632c-1 -8 -1 -15 -1 -23c2 -193 117 -330 317 -330c102 0 217 37 271 120l19 -14c-57 -86 -175 -128 -285 -129l-1 -144h-20l-1 144c-207 8 -325 157 -325 353c0 7 0 15 1 22h-16c-100 0 -140 39 -140 105c0 19 4 41 13 64l23 -5c-9 -22 -13 -42 -13 -59
c0 -53 30 -82 117 -82h17c19 181 151 319 346 319c153 0 310 -107 310 -328v-13zM503 691c-182 0 -303 -126 -321 -295h608c-3 179 -132 295 -287 295z" />
    <glyph glyph-name="uni04C0" unicode="&#x4c0;" horiz-adv-x="215" 
d="M96 0v710h23v-710h-23z" />
    <glyph glyph-name="uni04C1" unicode="&#x4c1;" horiz-adv-x="918" 
d="M458 790c-74 0 -130 44 -137 115l22 4c6 -50 42 -98 115 -98s109 48 114 98l23 -4c-8 -71 -63 -115 -137 -115zM36 0l266 373l-268 337h30l381 -482h1v482h23v-484h1l375 484h30l-262 -337l271 -373h-29l-257 355l-129 -165v-190h-23v191l-129 164l-252 -355h-29z" />
    <glyph glyph-name="uni04C3" unicode="&#x4c3;" horiz-adv-x="641" 
d="M305 379c144 0 269 -85 269 -282c0 -206 -125 -298 -272 -298c-37 0 -62 3 -94 10l2 23c35 -7 58 -10 92 -10c141 0 248 90 248 275c0 184 -117 259 -245 259c-17 0 -34 -1 -51 -3l-142 -164v-189h-23v710h23v-483h2l418 483h31l-287 -332c9 1 19 1 29 1z" />
    <glyph glyph-name="uni04C5" unicode="&#x4c5;" horiz-adv-x="706" 
d="M608 23h38v-4l-59 -166h-20l48 147h-30v687h-340c-9 -126 -20 -292 -33 -393c-28 -222 -85 -296 -167 -296c-17 0 -24 2 -30 4l2 22c7 -2 19 -3 28 -3c66 0 115 60 143 267c12 88 24 240 34 422h386v-687z" />
    <glyph glyph-name="uni04C7" unicode="&#x4c7;" horiz-adv-x="692" 
d="M580 710h23v-735c0 -120 -41 -176 -152 -176c-26 0 -53 5 -72 14l2 23c19 -10 45 -15 71 -15c72 0 128 24 128 154v348h-468v-323h-23v710h23v-364h468v364z" />
    <glyph glyph-name="uni04C9" unicode="&#x4c9;" horiz-adv-x="701" 
d="M603 23h38v-4l-59 -166h-20l48 147h-30v323h-468v-323h-23v710h23v-364h468v364h23v-687z" />
    <glyph glyph-name="uni04CB" unicode="&#x4cb;" horiz-adv-x="617" 
d="M505 710h23v-710h-99l-2 -147h-20v170h98v291c-80 -45 -183 -57 -231 -57c-151 0 -206 74 -206 227v226h23v-224c0 -149 51 -206 183 -206c48 0 153 13 231 61v369z" />
    <glyph glyph-name="uni04CD" unicode="&#x4cd;" horiz-adv-x="862" 
d="M763 23h38v-4l-59 -166h-20l48 147h-30v665h-1l-302 -510h-21l-303 510h-1v-665h-23v710h24l313 -525h2l312 525h23v-687z" />
    <glyph glyph-name="uni04D0" unicode="&#x4d0;" horiz-adv-x="640" 
d="M320 790c-74 0 -130 44 -137 115l22 4c6 -50 42 -98 115 -98s109 48 114 98l23 -4c-8 -71 -63 -115 -137 -115zM29 0l275 710h29l278 -710h-25l-83 211h-367l-82 -211h-25zM145 234h349l-174 448h-2z" />
    <glyph glyph-name="uni04D2" unicode="&#x4d2;" horiz-adv-x="640" 
d="M245 846c-16 0 -28 12 -28 27c0 17 12 27 28 27s27 -10 27 -27c0 -15 -11 -27 -27 -27zM392 846c-16 0 -28 12 -28 27c0 17 12 27 28 27s27 -10 27 -27c0 -15 -11 -27 -27 -27zM29 0l275 710h29l278 -710h-25l-83 211h-367l-82 -211h-25zM145 234h349l-174 448h-2z" />
    <glyph glyph-name="uni04D4" unicode="&#x4d4;" horiz-adv-x="900" 
d="M5 0l412 710h428v-23h-389v-321h330v-23h-330v-320h409v-23h-432v211h-277l-123 -211h-28zM169 234h264v453h-1z" />
    <glyph glyph-name="uni04D6" unicode="&#x4d6;" horiz-adv-x="565" 
d="M286 790c-74 0 -130 44 -137 115l22 4c6 -50 42 -98 115 -98s109 48 114 98l23 -4c-8 -71 -63 -115 -137 -115zM89 0v710h412v-23h-389v-320h327v-23h-327v-321h410v-23h-433z" />
    <glyph glyph-name="uni04D8" unicode="&#x4d8;" horiz-adv-x="784" 
d="M376 714c215 0 346 -160 346 -359c0 -205 -137 -358 -331 -358c-170 0 -327 107 -327 328v13h633v17c-1 192 -123 336 -321 336c-96 0 -171 -30 -245 -91l-18 17c77 64 161 97 263 97zM391 20c168 0 289 123 304 295h-608c3 -179 132 -295 304 -295z" />
    <glyph glyph-name="uni04DA" unicode="&#x4da;" horiz-adv-x="784" 
d="M322 846c-16 0 -28 12 -28 27c0 17 12 27 28 27s27 -10 27 -27c0 -15 -11 -27 -27 -27zM469 846c-16 0 -28 12 -28 27c0 17 12 27 28 27s27 -10 27 -27c0 -15 -11 -27 -27 -27zM376 714c215 0 346 -160 346 -359c0 -205 -137 -358 -331 -358c-170 0 -327 107 -327 328v13
h633v17c-1 192 -123 336 -321 336c-96 0 -171 -30 -245 -91l-18 17c77 64 161 97 263 97zM391 20c168 0 289 123 304 295h-608c3 -179 132 -295 304 -295z" />
    <glyph glyph-name="uni04DC" unicode="&#x4dc;" horiz-adv-x="918" 
d="M383 846c-16 0 -28 12 -28 27c0 17 12 27 28 27s27 -10 27 -27c0 -15 -11 -27 -27 -27zM530 846c-16 0 -28 12 -28 27c0 17 12 27 28 27s27 -10 27 -27c0 -15 -11 -27 -27 -27zM36 0l266 373l-268 337h30l381 -482h1v482h23v-484h1l375 484h30l-262 -337l271 -373h-29
l-257 355l-129 -165v-190h-23v191l-129 164l-252 -355h-29z" />
    <glyph glyph-name="uni04DE" unicode="&#x4de;" horiz-adv-x="593" 
d="M215 846c-16 0 -28 12 -28 27c0 17 12 27 28 27s27 -10 27 -27c0 -15 -11 -27 -27 -27zM362 846c-16 0 -28 12 -28 27c0 17 12 27 28 27s27 -10 27 -27c0 -15 -11 -27 -27 -27zM300 -3c-107 0 -195 39 -251 104l16 19c47 -60 135 -100 236 -100c122 0 212 64 212 172
c0 103 -78 167 -218 167h-132v23h133c84 0 183 46 183 158c0 95 -72 151 -187 151c-76 0 -146 -24 -198 -64l-16 17c48 41 133 70 215 70c126 0 210 -71 210 -174c0 -74 -42 -143 -132 -168v-1c85 -12 166 -65 166 -176c0 -107 -80 -198 -237 -198z" />
    <glyph glyph-name="uni04E0" unicode="&#x4e0;" horiz-adv-x="583" 
d="M214 402c227 0 322 -66 322 -212c0 -106 -80 -193 -232 -193c-112 0 -199 39 -255 104l16 19c47 -60 134 -100 240 -100c117 0 208 60 208 170c0 133 -89 189 -299 189h-34v20l298 287l-1 1h-411v23h444v-23z" />
    <glyph glyph-name="uni04E2" unicode="&#x4e2;" horiz-adv-x="709" 
d="M222 835v23h267v-23h-267zM89 0v710h23v-670h1l485 670h22v-710h-23v669h-1l-484 -669h-23z" />
    <glyph glyph-name="uni04E4" unicode="&#x4e4;" horiz-adv-x="709" 
d="M280 846c-16 0 -28 12 -28 27c0 17 12 27 28 27s27 -10 27 -27c0 -15 -11 -27 -27 -27zM427 846c-16 0 -28 12 -28 27c0 17 12 27 28 27s27 -10 27 -27c0 -15 -11 -27 -27 -27zM89 0v710h23v-670h1l485 670h22v-710h-23v669h-1l-484 -669h-23z" />
    <glyph glyph-name="uni04E6" unicode="&#x4e6;" horiz-adv-x="822" 
d="M337 846c-16 0 -28 12 -28 27c0 17 12 27 28 27s27 -10 27 -27c0 -15 -11 -27 -27 -27zM484 846c-16 0 -28 12 -28 27c0 17 12 27 28 27s27 -10 27 -27c0 -15 -11 -27 -27 -27zM413 -3c-194 0 -351 143 -351 359c0 215 157 358 351 358c190 0 347 -143 347 -358
c0 -216 -157 -359 -347 -359zM413 20c177 0 323 134 323 336c0 201 -146 335 -323 335c-181 0 -327 -134 -327 -335c0 -202 146 -336 327 -336z" />
    <glyph glyph-name="uni04E8" unicode="&#x4e8;" horiz-adv-x="822" 
d="M412 714c191 0 348 -143 348 -358c0 -216 -157 -359 -348 -359c-210 0 -350 160 -350 359c0 197 140 358 350 358zM412 691c-191 0 -321 -144 -326 -324h650c-5 195 -149 324 -324 324zM412 20c175 0 318 128 324 324h-650c6 -181 135 -324 326 -324z" />
    <glyph glyph-name="uni04EA" unicode="&#x4ea;" horiz-adv-x="822" 
d="M339 846c-16 0 -28 12 -28 27c0 17 12 27 28 27s27 -10 27 -27c0 -15 -11 -27 -27 -27zM486 846c-16 0 -28 12 -28 27c0 17 12 27 28 27s27 -10 27 -27c0 -15 -11 -27 -27 -27zM412 714c191 0 348 -143 348 -358c0 -216 -157 -359 -348 -359c-210 0 -350 160 -350 359
c0 197 140 358 350 358zM412 691c-191 0 -321 -144 -326 -324h650c-5 195 -149 324 -324 324zM412 20c175 0 318 128 324 324h-650c6 -181 135 -324 326 -324z" />
    <glyph glyph-name="uni04EC" unicode="&#x4ec;" horiz-adv-x="725" 
d="M266 846c-16 0 -28 12 -28 27c0 17 12 27 28 27s27 -10 27 -27c0 -15 -11 -27 -27 -27zM413 846c-16 0 -28 12 -28 27c0 17 12 27 28 27s27 -10 27 -27c0 -15 -11 -27 -27 -27zM318 714c215 0 346 -160 346 -362c0 -212 -142 -355 -347 -355c-128 0 -213 56 -269 120
l18 15c47 -59 132 -112 252 -112c188 0 318 129 322 324h-456v23h456c-7 186 -128 324 -322 324c-91 0 -165 -30 -240 -96l-18 17c78 69 161 102 258 102z" />
    <glyph glyph-name="uni04EE" unicode="&#x4ee;" horiz-adv-x="638" 
d="M454 858v-23h-267v23h267zM583 710h25l-244 -541c-42 -93 -70 -173 -170 -173c-36 0 -82 13 -109 43l9 22c28 -31 69 -42 100 -42c68 0 98 46 141 142l-305 549h25l291 -520h2c0 2 1 3 2 5z" />
    <glyph glyph-name="uni04F0" unicode="&#x4f0;" horiz-adv-x="638" 
d="M245 846c-16 0 -28 12 -28 27c0 17 12 27 28 27s27 -10 27 -27c0 -15 -11 -27 -27 -27zM392 846c-16 0 -28 12 -28 27c0 17 12 27 28 27s27 -10 27 -27c0 -15 -11 -27 -27 -27zM583 710h25l-244 -541c-42 -93 -70 -173 -170 -173c-36 0 -82 13 -109 43l9 22
c28 -31 69 -42 100 -42c68 0 98 46 141 142l-305 549h25l291 -520h2c0 2 1 3 2 5z" />
    <glyph glyph-name="uni04F2" unicode="&#x4f2;" horiz-adv-x="638" 
d="M397 936l-124 -135h-29l122 135h31zM396 801h-28l122 135h31zM583 710h25l-244 -541c-42 -93 -70 -173 -170 -173c-36 0 -82 13 -109 43l9 22c28 -31 69 -42 100 -42c68 0 98 46 141 142l-305 549h25l291 -520h2c0 2 1 3 2 5z" />
    <glyph glyph-name="uni04F4" unicode="&#x4f4;" horiz-adv-x="617" 
d="M234 846c-16 0 -28 12 -28 27c0 17 12 27 28 27s27 -10 27 -27c0 -15 -11 -27 -27 -27zM381 846c-16 0 -28 12 -28 27c0 17 12 27 28 27s27 -10 27 -27c0 -15 -11 -27 -27 -27zM505 710h23v-710h-23v314c-80 -45 -183 -57 -231 -57c-151 0 -206 74 -206 227v226h23v-224
c0 -149 51 -206 183 -206c48 0 153 13 231 61v369z" />
    <glyph glyph-name="uni04F6" unicode="&#x4f6;" horiz-adv-x="520" 
d="M501 687h-389v-664h98v-170h-20l-2 147h-99v710h412v-23z" />
    <glyph glyph-name="uni04F8" unicode="&#x4f8;" horiz-adv-x="781" 
d="M316 846c-16 0 -28 12 -28 27c0 17 12 27 28 27s27 -10 27 -27c0 -15 -11 -27 -27 -27zM463 846c-16 0 -28 12 -28 27c0 17 12 27 28 27s27 -10 27 -27c0 -15 -11 -27 -27 -27zM89 0v710h23v-307h186c136 0 234 -57 234 -202c0 -144 -98 -201 -234 -201h-209zM669 0v710
h23v-710h-23zM112 23h186c152 0 210 75 210 178c0 104 -58 179 -210 179h-186v-357z" />
    <glyph glyph-name="uni04FA" unicode="&#x4fa;" horiz-adv-x="547" 
d="M528 687h-389v-331h212v-23h-212v-418c0 -60 -21 -116 -102 -116c-16 0 -42 4 -62 14l2 23c20 -12 45 -15 62 -15c45 0 77 25 77 94v418h-106v23h106v354h412v-23z" />
    <glyph glyph-name="uni04FC" unicode="&#x4fc;" horiz-adv-x="604" 
d="M413 -201c-26 0 -53 5 -72 14l2 23c19 -10 45 -15 70 -15c87 0 129 42 129 126c0 67 -49 133 -93 192l-145 192h-2l-240 -331h-28l254 354l-255 356h27l242 -335h1l240 335h29l-255 -356l150 -201c44 -59 98 -131 98 -206c0 -85 -41 -148 -152 -148z" />
    <glyph glyph-name="uni04FE" unicode="&#x4fe;" horiz-adv-x="604" 
d="M514 341h-188l245 -341h-29l-238 331h-2l-240 -331h-28l245 341h-187v23h189l-248 346h27l242 -335h1l240 335h29l-248 -346h190v-23z" />
    <glyph glyph-name="uni0510" unicode="&#x510;" horiz-adv-x="590" 
d="M295 -3c-164 0 -238 84 -238 190c0 114 88 171 162 183v1c-92 25 -130 96 -130 169c0 106 83 174 207 174c80 0 164 -29 212 -78l-16 -17c-52 49 -121 72 -194 72c-113 0 -185 -57 -185 -153c1 -111 96 -156 181 -156h133v-23h-132c-128 0 -214 -68 -214 -173
c0 -106 85 -166 213 -166c103 0 191 40 236 111l18 -17c-54 -77 -143 -117 -253 -117z" />
    <glyph glyph-name="uni0512" unicode="&#x512;" horiz-adv-x="697" 
d="M608 710v-735c0 -120 -41 -176 -152 -176c-26 0 -53 5 -72 14l2 23c19 -10 45 -15 71 -15c72 0 128 24 128 154v712h-340c-9 -126 -20 -292 -33 -393c-28 -222 -85 -296 -167 -296c-17 0 -24 2 -30 4l2 22c7 -2 19 -3 28 -3c66 0 115 60 143 267c12 88 24 240 34 422h386
z" />
    <glyph glyph-name="uni051A" unicode="&#x51a;" horiz-adv-x="830" 
d="M771 14l-15 -17l-104 93c-62 -59 -147 -93 -240 -93c-210 0 -350 160 -350 359c0 197 140 358 350 358c191 0 348 -143 348 -358c0 -102 -35 -187 -92 -249zM86 356c0 -186 131 -336 326 -336c86 0 164 31 222 86l-102 92l14 18l105 -93c53 58 85 138 85 233
c0 201 -146 335 -324 335c-195 0 -326 -150 -326 -335z" />
    <glyph glyph-name="uni051C" unicode="&#x51c;" horiz-adv-x="991" 
d="M264 0l-230 710h25l219 -676h1l201 676h31l200 -676h1l220 676h25l-230 -710h-30l-201 677h-1l-202 -677h-29z" />
    <glyph glyph-name="uni048C" unicode="&#x48c;" horiz-adv-x="625" 
d="M340 403c136 0 234 -57 234 -202c0 -144 -98 -201 -234 -201h-229v574h-105v23h105v113h23v-113h186v-23h-186v-171h206zM340 23c152 0 210 75 210 178c0 104 -58 179 -210 179h-206v-357h206z" />
    <glyph glyph-name="uni048E" unicode="&#x48e;" horiz-adv-x="582" 
d="M541 510c0 -109 -56 -170 -144 -194l84 -154l-21 -10l-87 159c-21 -4 -44 -6 -69 -6h-192v-305h-23v710h233c157 0 219 -86 219 -200zM386 337c94 24 131 91 131 173c0 121 -79 177 -189 177h-216v-359h191c21 0 41 1 58 4l-80 148l21 10z" />
    <glyph glyph-name="uni0416.alt" horiz-adv-x="920" 
d="M886 0h-30l-265 335h-120v-335h-23v335h-120l-265 -335h-30l274 346l-269 364h29l260 -352h121v352h23v-352h121l260 352h29l-269 -364z" />
    <glyph glyph-name="uni041A.alt" horiz-adv-x="612" 
d="M568 0h-30l-275 335h-151v-335h-23v710h23v-352h153l269 352h29l-279 -364z" />
    <glyph glyph-name="uni040C.alt" horiz-adv-x="612" 
d="M394 919l-114 -124h-29l113 124h30zM568 0h-30l-275 335h-151v-335h-23v710h23v-352h153l269 352h29l-279 -364z" />
    <glyph glyph-name="uni0496.alt" horiz-adv-x="942" 
d="M895 23v-170h-20l-2 147h-17l-265 335h-120v-335h-23v335h-120l-265 -335h-30l274 346l-269 364h29l260 -352h121v352h23v-352h121l260 352h29l-269 -364l256 -323h27z" />
    <glyph glyph-name="uni049A.alt" horiz-adv-x="634" 
d="M576 23v-170h-20l-2 147h-16l-275 335h-151v-335h-23v710h23v-352h153l269 352h29l-279 -364l265 -323h27z" />
    <glyph glyph-name="uni049E.alt" horiz-adv-x="623" 
d="M579 0h-30l-275 335h-151v-335h-23v579h-98v22h98v109h23v-109h176v-22h-176v-221h153l269 352h29l-279 -364z" />
    <glyph glyph-name="uni04A0.alt" horiz-adv-x="735" 
d="M691 0h-30l-275 335h-151v-335h-23v687h-207v23h230v-352h153l269 352h29l-279 -364z" />
    <glyph glyph-name="uni04C1.alt" horiz-adv-x="920" 
d="M460 790c-74 0 -130 44 -137 115l22 4c6 -50 42 -98 115 -98s109 48 114 98l23 -4c-8 -71 -63 -115 -137 -115zM886 0h-30l-265 335h-120v-335h-23v335h-120l-265 -335h-30l274 346l-269 364h29l260 -352h121v352h23v-352h121l260 352h29l-269 -364z" />
    <glyph glyph-name="uni04C3.alt" horiz-adv-x="649" 
d="M293 358c148 -1 289 -83 289 -261c0 -206 -125 -298 -272 -298c-37 0 -62 3 -94 10l2 23c35 -7 58 -10 92 -10c141 0 248 90 248 275c0 166 -127 238 -279 238c-46 0 -105 -3 -167 -8v-327h-23v710h23v-360c48 4 104 7 153 8l269 352h29z" />
    <glyph glyph-name="uni04DC.alt" horiz-adv-x="920" 
d="M385 846c-16 0 -28 12 -28 27c0 17 12 27 28 27s27 -10 27 -27c0 -15 -11 -27 -27 -27zM532 846c-16 0 -28 12 -28 27c0 17 12 27 28 27s27 -10 27 -27c0 -15 -11 -27 -27 -27zM886 0h-30l-265 335h-120v-335h-23v335h-120l-265 -335h-30l274 346l-269 364h29l260 -352
h121v352h23v-352h121l260 352h29l-269 -364z" />
    <glyph glyph-name="uni051A.alt" horiz-adv-x="821" 
d="M760 356c0 -159 -85 -278 -206 -330l161 -136l-13 -18l-171 145c-37 -13 -77 -20 -119 -20c-210 0 -350 160 -350 359c0 197 140 358 350 358c191 0 348 -143 348 -358zM86 356c0 -186 131 -336 326 -336c178 0 324 134 324 336c0 201 -146 335 -324 335
c-195 0 -326 -150 -326 -335z" />
    <glyph glyph-name="uni0528" unicode="&#x528;" horiz-adv-x="692" 
d="M580 710h23v-710h-23v323h-468v-408c0 -60 -21 -116 -102 -116c-16 0 -42 4 -62 14l2 23c20 -12 45 -15 62 -15c45 0 77 25 77 94v795h23v-364h468v364z" />
    <glyph glyph-name="uni052E" unicode="&#x52e;" horiz-adv-x="750" 
d="M706 23v-170h-20l-2 147h-99v687h-340c-9 -126 -20 -292 -33 -393c-28 -222 -85 -296 -167 -296c-17 0 -24 2 -30 4l2 22c7 -2 19 -3 28 -3c66 0 115 60 143 267c12 88 24 240 34 422h386v-687h98z" />
    <glyph glyph-name="uni0414.loclBGR" horiz-adv-x="755" 
d="M736 23v-170h-20l-2 147h-673l-2 -147h-20v170h74l266 687h29l269 -687h79zM118 23h514l-257 659h-1z" />
    <glyph glyph-name="uni041B.loclBGR" horiz-adv-x="643" 
d="M30 0l275 710h29l279 -710h-26l-266 682h-1l-265 -682h-25z" />
    <glyph glyph-name="uni0424.loclBGR" horiz-adv-x="836" 
d="M440 704c208 0 346 -145 346 -347c0 -204 -141 -349 -351 -349h-3v-69h-23v69h-8c-214 1 -351 141 -351 341c0 206 138 355 356 355h3v54h23v-54h8zM74 349c0 -182 122 -318 327 -318h8v650h-3c-213 0 -332 -146 -332 -332zM435 31c202 0 327 140 327 327
c0 181 -119 322 -322 323h-8v-650h3z" />
    <glyph glyph-name="uni0430" unicode="&#x430;" horiz-adv-x="591" 
d="M285 -3c-132 0 -240 96 -240 240c0 138 97 251 241 251c92 0 172 -54 208 -141h1v137h22v-484h-22v133h-1c-35 -80 -110 -136 -209 -136zM285 19c116 0 210 87 210 218c0 126 -84 229 -209 229c-120 0 -218 -92 -218 -229c0 -120 86 -218 217 -218z" />
    <glyph glyph-name="uni0431" unicode="&#x431;" horiz-adv-x="592" 
d="M311 -3c-157 0 -251 111 -250 305c1 198 14 365 247 405l186 32l6 -22l-188 -32c-197 -34 -224 -163 -229 -350h1c30 85 109 153 221 153c133 0 242 -100 242 -246s-117 -245 -236 -245zM313 19c113 0 211 99 211 223c0 129 -94 224 -219 224c-118 0 -217 -89 -217 -215
c0 -77 46 -232 225 -232z" />
    <glyph glyph-name="uni0432" unicode="&#x432;" horiz-adv-x="525" 
d="M81 0v484h215c98 0 155 -40 155 -117c0 -59 -33 -100 -81 -114v-1c53 -8 105 -46 105 -123c0 -81 -57 -129 -176 -129h-218zM103 262h202c74 0 123 37 123 104c0 65 -46 96 -135 96h-190v-200zM103 22h194c105 0 155 37 155 106c0 73 -52 112 -148 112h-201v-218z" />
    <glyph glyph-name="uni0433" unicode="&#x433;" horiz-adv-x="442" 
d="M81 0v484h333v-22h-311v-462h-22z" />
    <glyph glyph-name="uni0453" unicode="&#x453;" horiz-adv-x="442" 
d="M177 561l123 135h31l-124 -135h-30zM81 0v484h333v-22h-311v-462h-22z" />
    <glyph glyph-name="uni0491" unicode="&#x491;" horiz-adv-x="442" 
d="M395 627h19v-165h-311v-462h-22v484h312z" />
    <glyph glyph-name="uni0434" unicode="&#x434;" horiz-adv-x="586" 
d="M556 22v-165h-19l-2 143h-494l-2 -143h-19v165h66c48 63 75 140 90 221c14 77 18 158 19 241h284v-462h77zM113 22h344v440h-241c-1 -65 -3 -145 -17 -223c-16 -87 -44 -159 -86 -217z" />
    <glyph glyph-name="uni0435" unicode="&#x435;" horiz-adv-x="532" 
d="M489 243h-419v-1c0 -129 86 -223 207 -223c77 0 135 31 174 81l17 -13c-42 -56 -105 -90 -189 -90c-136 0 -232 104 -232 245s100 246 230 246c126 0 212 -99 212 -231v-14zM277 466c-110 0 -196 -85 -206 -201h395c-7 120 -80 201 -189 201z" />
    <glyph glyph-name="uni0450" unicode="&#x450;" horiz-adv-x="532" 
d="M318 565h-29l-114 127h30zM489 243h-419v-1c0 -129 86 -223 207 -223c77 0 135 31 174 81l17 -13c-42 -56 -105 -90 -189 -90c-136 0 -232 104 -232 245s100 246 230 246c126 0 212 -99 212 -231v-14zM277 466c-110 0 -196 -85 -206 -201h395c-7 120 -80 201 -189 201z
" />
    <glyph glyph-name="uni0451" unicode="&#x451;" horiz-adv-x="532" 
d="M203 606c-16 0 -28 12 -28 27c0 17 12 27 28 27s27 -10 27 -27c0 -15 -11 -27 -27 -27zM350 606c-16 0 -28 12 -28 27c0 17 12 27 28 27s27 -10 27 -27c0 -15 -11 -27 -27 -27zM489 243h-419v-1c0 -129 86 -223 207 -223c77 0 135 31 174 81l17 -13
c-42 -56 -105 -90 -189 -90c-136 0 -232 104 -232 245s100 246 230 246c126 0 212 -99 212 -231v-14zM277 466c-110 0 -196 -85 -206 -201h395c-7 120 -80 201 -189 201z" />
    <glyph glyph-name="uni0436" unicode="&#x436;" horiz-adv-x="760" 
d="M31 0l197 277l-196 207h31l302 -317h1v317h22v-317h1l294 317h31l-191 -205l206 -279h-29l-193 262l-119 -128v-134h-22v134l-122 126l-187 -260h-26z" />
    <glyph glyph-name="uni0437" unicode="&#x437;" horiz-adv-x="488" 
d="M240 -3c-102 0 -159 30 -198 55l7 23c37 -25 96 -56 191 -56c113 0 175 47 175 115c0 65 -52 106 -148 106h-117v22h117c75 0 124 37 124 101c0 65 -58 103 -149 103c-82 0 -131 -21 -169 -44l-10 20c41 25 95 46 180 46c103 0 171 -48 171 -124c0 -57 -33 -96 -82 -111
v-1c53 -9 106 -45 106 -117c0 -79 -63 -138 -198 -138z" />
    <glyph glyph-name="uni0438" unicode="&#x438;" horiz-adv-x="575" 
d="M81 0v484h22v-448h2l368 448h21v-484h-22v447h-2l-367 -447h-22z" />
    <glyph glyph-name="uni0439" unicode="&#x439;" horiz-adv-x="575" 
d="M289 561c-74 0 -130 44 -137 125l22 4c6 -60 42 -108 115 -108s109 48 114 108l23 -4c-8 -81 -63 -125 -137 -125zM81 0v484h22v-448h2l368 448h21v-484h-22v447h-2l-367 -447h-22z" />
    <glyph glyph-name="uni045D" unicode="&#x45d;" horiz-adv-x="575" 
d="M306 565l-114 127h30l113 -127h-29zM81 0v484h22v-448h2l368 448h21v-484h-22v447h-2l-367 -447h-22z" />
    <glyph glyph-name="uni048B" unicode="&#x48b;" horiz-adv-x="577" 
d="M289 561c-74 0 -130 44 -137 125l22 4c6 -60 42 -108 115 -108s109 48 114 108l23 -4c-8 -81 -63 -125 -137 -125zM494 22h35v-4l-54 -161h-19l47 143h-31v447h-2l-367 -447h-22v484h22v-448h2l368 448h21v-462z" />
    <glyph glyph-name="uni043A" unicode="&#x43a;" horiz-adv-x="511" 
d="M81 0v484h22v-332l2 -1l332 333h32l-208 -209l218 -275h-30l-205 258l-141 -141v-117h-22z" />
    <glyph glyph-name="uni045C" unicode="&#x45c;" horiz-adv-x="511" 
d="M190 561l123 135h31l-124 -135h-30zM81 0v484h22v-332l2 -1l332 333h32l-208 -209l218 -275h-30l-205 258l-141 -141v-117h-22z" />
    <glyph glyph-name="uni043B" unicode="&#x43b;" horiz-adv-x="541" 
d="M168 484h292v-484h-22v462h-248c-4 -93 -10 -194 -19 -270c-18 -162 -75 -193 -131 -193c-12 0 -17 1 -21 3l2 22c6 -2 13 -3 21 -3c48 0 93 43 107 174c8 79 14 185 19 289z" />
    <glyph glyph-name="uni043C" unicode="&#x43c;" horiz-adv-x="654" 
d="M81 0v484h22l223 -366h2l224 366h21v-484h-22v439h-1l-213 -347h-21l-212 347h-1v-439h-22z" />
    <glyph glyph-name="uni043D" unicode="&#x43d;" horiz-adv-x="564" 
d="M81 0v484h22v-238h358v238h22v-484h-22v224h-358v-224h-22z" />
    <glyph glyph-name="uni043E" unicode="&#x43e;" horiz-adv-x="579" 
d="M290 -3c-145 0 -243 111 -243 245c0 133 98 246 243 246c133 0 242 -100 242 -246s-109 -245 -242 -245zM290 19c122 0 219 90 219 223s-98 224 -219 224c-133 0 -220 -102 -220 -224s87 -223 220 -223z" />
    <glyph glyph-name="uni043F" unicode="&#x43f;" horiz-adv-x="557" 
d="M81 0v484h395v-484h-22v462h-351v-462h-22z" />
    <glyph glyph-name="uni0440" unicode="&#x440;" horiz-adv-x="600" 
d="M81 -198v682h22v-137h1c37 87 116 141 209 141c143 0 239 -113 239 -251c0 -144 -107 -240 -238 -240c-99 0 -175 55 -210 134h-1v-329h-22zM314 19c129 0 215 98 215 218c0 137 -97 229 -216 229c-127 0 -210 -103 -210 -229c0 -131 94 -218 211 -218z" />
    <glyph glyph-name="uni0441" unicode="&#x441;" horiz-adv-x="499" 
d="M278 -3c-138 0 -231 101 -231 245c0 143 94 246 232 246c67 0 134 -26 180 -77l-17 -17c-35 42 -94 72 -163 72c-125 0 -209 -94 -209 -224c0 -132 84 -223 208 -223c64 0 129 26 168 70l15 -17c-41 -43 -109 -75 -183 -75z" />
    <glyph glyph-name="uni0442" unicode="&#x442;" horiz-adv-x="428" 
d="M203 0v462h-184v22h390v-22h-184v-462h-22z" />
    <glyph glyph-name="uni0443" unicode="&#x443;" horiz-adv-x="506" 
d="M162 -198l86 203l-221 479h27l205 -450h1l190 450h27l-290 -682h-25z" />
    <glyph glyph-name="uni045E" unicode="&#x45e;" horiz-adv-x="506" 
d="M255 561c-74 0 -130 44 -137 125l22 4c6 -60 42 -108 115 -108s109 48 114 108l23 -4c-8 -81 -63 -125 -137 -125zM162 -198l86 203l-221 479h27l205 -450h1l190 450h27l-290 -682h-25z" />
    <glyph glyph-name="uni0444" unicode="&#x444;" horiz-adv-x="664" 
d="M343 488c178 0 282 -103 282 -246c0 -144 -109 -245 -281 -245h-1v-195h-22v195h-1c-172 0 -281 101 -281 245c0 143 104 246 282 246v248h22v-248zM62 242c0 -132 100 -223 258 -223h1v447c-165 0 -259 -94 -259 -224zM344 19c158 0 258 91 258 223
c0 130 -94 224 -259 224v-447h1z" />
    <glyph glyph-name="uni0445" unicode="&#x445;" horiz-adv-x="466" 
d="M33 0l186 242l-188 242h30l171 -223h2l172 223h30l-187 -241l187 -243h-30l-172 222h-1l-171 -222h-29z" />
    <glyph glyph-name="uni0447" unicode="&#x447;" horiz-adv-x="515" 
d="M412 484h22v-484h-22v204c-67 -27 -131 -37 -180 -37c-130 0 -181 53 -181 196v121h22v-118c0 -139 46 -177 159 -177c48 0 113 9 180 38v257z" />
    <glyph glyph-name="uni0446" unicode="&#x446;" horiz-adv-x="570" 
d="M540 22v-165h-19l-2 143h-438v484h22v-462h338v462h22v-462h77z" />
    <glyph glyph-name="uni0448" unicode="&#x448;" horiz-adv-x="808" 
d="M81 0v484h22v-462h290v462h22v-462h290v462h22v-484h-646z" />
    <glyph glyph-name="uni0449" unicode="&#x449;" horiz-adv-x="834" 
d="M804 22v-165h-19l-2 143h-702v484h22v-462h290v462h22v-462h290v462h22v-462h77z" />
    <glyph glyph-name="uni045F" unicode="&#x45f;" horiz-adv-x="544" 
d="M463 484v-484h-179l-1 -143h-19l-1 143h-182v484h22v-462h338v462h22z" />
    <glyph glyph-name="uni044C" unicode="&#x44c;" horiz-adv-x="473" 
d="M81 0v484h22v-186h176c109 0 161 -54 161 -149c0 -94 -56 -149 -172 -149h-187zM103 22h165c104 0 149 47 149 127c0 82 -44 127 -139 127h-175v-254z" />
    <glyph glyph-name="uni044A" unicode="&#x44a;" horiz-adv-x="572" 
d="M378 298c109 0 161 -54 161 -149c0 -94 -56 -149 -172 -149h-187v462h-164v22h186v-186h176zM367 22c104 0 149 47 149 127c0 82 -44 127 -139 127h-175v-254h165z" />
    <glyph glyph-name="uni044B" unicode="&#x44b;" horiz-adv-x="646" 
d="M81 0v484h22v-185h168c109 0 161 -54 161 -150c0 -94 -56 -149 -172 -149h-179zM543 0v484h22v-484h-22zM103 22h157c104 0 149 47 149 127c0 83 -44 128 -139 128h-167v-255z" />
    <glyph glyph-name="uni0459" unicode="&#x459;" horiz-adv-x="824" 
d="M630 298c109 0 161 -54 161 -149c0 -94 -56 -149 -172 -149h-187v462h-242c-4 -93 -10 -194 -19 -270c-18 -162 -75 -193 -131 -193c-12 0 -17 1 -21 3l2 22c6 -2 13 -3 21 -3c48 0 94 43 107 174c8 79 14 185 19 289h286v-186h176zM619 22c104 0 149 47 149 127
c0 82 -44 127 -139 127h-175v-254h165z" />
    <glyph glyph-name="uni045A" unicode="&#x45a;" horiz-adv-x="858" 
d="M675 279c102 0 150 -51 150 -140c0 -88 -53 -139 -161 -139h-213v252h-348v-252h-22v484h22v-210h348v210h22v-205h202zM664 22c96 0 138 43 138 117c0 76 -41 118 -128 118h-201v-235h191z" />
    <glyph glyph-name="uni0455" unicode="&#x455;" horiz-adv-x="415" 
d="M211 -3c-83 0 -138 32 -177 67l13 18c37 -33 82 -63 164 -63c89 0 140 49 140 103c0 75 -68 89 -153 120c-78 28 -141 54 -141 130c0 66 61 116 139 116c53 0 106 -13 158 -58l-15 -16c-48 41 -93 51 -142 51c-67 0 -117 -42 -117 -91c0 -65 58 -87 121 -110
c101 -36 174 -53 173 -144c-1 -65 -58 -123 -163 -123z" />
    <glyph glyph-name="uni0454" unicode="&#x454;" horiz-adv-x="512" 
d="M460 83l14 -16c-41 -44 -101 -70 -189 -70c-148 0 -238 108 -238 245c0 146 103 246 239 246c67 0 130 -21 171 -56l-15 -16c-38 31 -93 50 -155 50c-120 0 -211 -85 -217 -211h317v-22h-317c4 -120 82 -214 215 -214c81 0 136 23 175 64z" />
    <glyph glyph-name="uni044D" unicode="&#x44d;" horiz-adv-x="516" 
d="M230 488c136 0 239 -100 239 -246c0 -137 -90 -245 -238 -245c-89 0 -150 27 -189 60l13 18c37 -31 93 -56 176 -56c133 0 211 94 215 214h-317v22h317c-6 126 -97 211 -217 211c-65 0 -122 -21 -160 -44l-10 20c41 25 104 46 171 46z" />
    <glyph glyph-name="uni0456" unicode="&#x456;" horiz-adv-x="195" 
d="M99 606c-16 0 -28 12 -28 27c0 17 12 27 28 27s27 -10 27 -27c0 -15 -11 -27 -27 -27zM86 0v484h22v-484h-22z" />
    <glyph glyph-name="uni0457" unicode="&#x457;" horiz-adv-x="195" 
d="M23 606c-16 0 -28 12 -28 27c0 17 12 27 28 27s27 -10 27 -27c0 -15 -11 -27 -27 -27zM170 606c-16 0 -28 12 -28 27c0 17 12 27 28 27s27 -10 27 -27c0 -15 -11 -27 -27 -27zM86 0v484h22v-484h-22z" />
    <glyph glyph-name="uni0458" unicode="&#x458;" horiz-adv-x="176" 
d="M95 606c-16 0 -28 12 -28 27c0 17 12 27 28 27s27 -10 27 -27c0 -15 -11 -27 -27 -27zM4 -201c-16 0 -43 4 -63 14l3 24c20 -12 45 -16 62 -16c45 0 77 25 77 94v569h22v-569c0 -60 -21 -116 -101 -116z" />
    <glyph glyph-name="uni045B" unicode="&#x45b;" horiz-adv-x="539" 
d="M311 456c100 0 165 -71 165 -196v-260h-22v249c0 135 -66 185 -143 185c-128 0 -209 -91 -209 -227v-207h-22v573h-78v22h78v141h22v-141h228v-22h-228v-250h1c33 82 108 133 208 133z" />
    <glyph glyph-name="uni044E" unicode="&#x44e;" horiz-adv-x="765" 
d="M482 488c125 0 236 -100 236 -246s-111 -245 -236 -245c-142 0 -231 101 -238 227h-141v-224h-22v484h22v-238h140c2 131 91 242 239 242zM482 19c114 0 213 90 213 223s-100 224 -213 224c-137 0 -216 -102 -216 -224s79 -223 216 -223z" />
    <glyph glyph-name="uni044F" unicode="&#x44f;" horiz-adv-x="521" 
d="M229 484h211v-484h-22v193h-200h-6l-140 -193h-26l142 194c-89 10 -131 61 -131 141c0 94 56 149 172 149zM418 215v247h-189c-104 0 -149 -47 -149 -127c0 -75 44 -120 139 -120h199z" />
    <glyph glyph-name="uni0452" unicode="&#x452;" horiz-adv-x="539" 
d="M311 456c100 0 165 -71 165 -196v-303c0 -105 -30 -158 -136 -158c-22 0 -45 5 -65 14l3 22c20 -10 41 -14 62 -14c75 0 114 24 114 136v292c0 135 -66 185 -143 185c-128 0 -209 -91 -209 -227v-207h-22v573h-78v22h78v141h22v-141h228v-22h-228v-250h1
c33 82 108 133 208 133z" />
    <glyph glyph-name="uni0463" unicode="&#x463;" horiz-adv-x="559" 
d="M365 298c109 0 161 -54 161 -149c0 -94 -56 -149 -172 -149h-188v462h-164v22h164v252h22v-252h196v-22h-196v-164h177zM354 22c104 0 149 47 149 127c0 82 -44 127 -139 127h-176v-254h166z" />
    <glyph glyph-name="uni0473" unicode="&#x473;" horiz-adv-x="579" 
d="M290 488c133 0 242 -100 242 -246s-109 -245 -242 -245c-145 0 -243 111 -243 245c0 133 98 246 243 246zM290 466c-130 0 -216 -97 -220 -215h439c-4 128 -101 215 -219 215zM290 19c118 0 213 84 219 210h-439c6 -116 92 -210 220 -210z" />
    <glyph glyph-name="uni0475" unicode="&#x475;" horiz-adv-x="536" 
d="M237 0l-208 484h26l192 -450h2l142 362c23 60 40 90 85 90c21 0 45 -6 63 -18l-6 -23c-15 9 -34 18 -53 18c-33 0 -46 -21 -67 -75l-154 -388h-22z" />
    <glyph glyph-name="uni0493" unicode="&#x493;" horiz-adv-x="442" 
d="M414 462h-311v-211h229v-22h-229v-229h-22v229h-77v22h77v233h333v-22z" />
    <glyph glyph-name="uni0495" unicode="&#x495;" horiz-adv-x="507" 
d="M265 248c131 0 225 -73 225 -221c0 -146 -104 -228 -235 -228c-30 0 -52 3 -78 8l2 22c29 -6 48 -8 76 -8c126 0 212 80 212 206c0 128 -75 199 -202 199c-77 0 -119 -13 -162 -28v-198h-22v484h333v-22h-311v-241c40 13 85 27 162 27z" />
    <glyph glyph-name="uni0497" unicode="&#x497;" horiz-adv-x="770" 
d="M739 22v-165h-19l-2 143h-18l-193 262l-119 -128v-134h-22v134l-122 126l-187 -260h-26l197 277l-196 207h31l302 -317h1v317h22v-317h1l294 317h31l-191 -205l190 -257h26z" />
    <glyph glyph-name="uni0499" unicode="&#x499;" horiz-adv-x="488" 
d="M438 135c0 -76 -59 -134 -184 -138l-10 -41c42 -4 88 -20 88 -70c0 -45 -37 -66 -78 -68c-26 -1 -49 1 -73 10v25c17 -9 36 -13 63 -13c44 0 66 18 65 50c-1 33 -42 48 -93 48l16 59c-97 2 -152 31 -190 55l7 23c37 -25 96 -56 191 -56c113 0 175 47 175 115
c0 65 -52 106 -148 106h-117v22h117c75 0 124 37 124 101c0 65 -58 103 -149 103c-82 0 -131 -21 -169 -44l-10 20c41 25 95 46 180 46c103 0 171 -48 171 -124c0 -57 -33 -96 -82 -111v-1c53 -9 106 -45 106 -117z" />
    <glyph glyph-name="uni049B" unicode="&#x49b;" horiz-adv-x="521" 
d="M489 22v-165h-19l-2 143h-19l-205 258l-141 -141v-117h-22v484h22v-332l2 -1l332 333h32l-208 -209l201 -253h27z" />
    <glyph glyph-name="uni049D" unicode="&#x49d;" horiz-adv-x="520" 
d="M459 0l-174 232h-47v-144h-22v144h-113v-232h-22v484h22v-230h113v140h22v-140h48l159 230h28l-168 -240l183 -244h-29z" />
    <glyph glyph-name="uni049F" unicode="&#x49f;" horiz-adv-x="511" 
d="M261 275l218 -275h-30l-205 258l-141 -141v-117h-22v601h-77v22h77v113h22v-113h217v-22h-217v-449l2 -1l332 333h32z" />
    <glyph glyph-name="uni04A1" unicode="&#x4a1;" horiz-adv-x="605" 
d="M355 275l218 -275h-30l-205 258l-141 -141v-117h-22v462h-164v22h186v-332l2 -1l332 333h32z" />
    <glyph glyph-name="uni04A3" unicode="&#x4a3;" horiz-adv-x="590" 
d="M560 22v-165h-19l-2 143h-78v224h-358v-224h-22v484h22v-238h358v238h22v-462h77z" />
    <glyph glyph-name="uni04A5" unicode="&#x4a5;" horiz-adv-x="665" 
d="M642 484v-22h-166v-462h-22v224h-351v-224h-22v484h22v-238h351v238h188z" />
    <glyph glyph-name="uni04A7" unicode="&#x4a7;" horiz-adv-x="876" 
d="M634 248c131 0 225 -73 225 -221c0 -146 -104 -228 -235 -228c-30 0 -52 3 -78 8l2 22c29 -6 48 -8 76 -8c126 0 212 80 212 206c0 128 -75 199 -202 199c-77 0 -119 -13 -162 -28v-198h-22v462h-347v-462h-22v484h391v-263c40 13 85 27 162 27z" />
    <glyph glyph-name="uni0525" unicode="&#x525;" horiz-adv-x="583" 
d="M553 22v-165h-19l-2 143h-78v462h-351v-462h-22v484h395v-462h77z" />
    <glyph glyph-name="uni04A9" unicode="&#x4a9;" horiz-adv-x="589" 
d="M577 4c-11 -4 -39 -8 -61 -8c-39 0 -69 11 -101 29c-36 -18 -78 -29 -125 -29c-152 0 -255 110 -256 248c-1 137 93 244 223 244c3 0 25 0 40 -3l-7 -21c-8 1 -21 2 -33 2c-118 0 -201 -98 -200 -222c1 -131 99 -226 233 -226c36 0 70 7 100 20v2
c-70 47 -118 129 -118 220c0 100 58 185 141 185c79 0 136 -83 136 -188c0 -86 -44 -170 -111 -218l1 -2c24 -12 47 -19 77 -19c18 0 44 3 53 7zM295 260c0 -88 49 -167 119 -210c64 42 112 118 112 207c0 95 -50 166 -113 166c-66 0 -118 -70 -118 -163z" />
    <glyph glyph-name="uni04AB" unicode="&#x4ab;" horiz-adv-x="499" 
d="M461 72c-41 -43 -108 -74 -181 -75l-10 -41c42 -4 88 -20 88 -70c0 -45 -37 -66 -78 -68c-26 -1 -49 1 -73 10v25c17 -9 36 -13 63 -13c44 0 66 18 65 50c-1 33 -42 48 -93 48l16 60c-127 9 -211 107 -211 244c0 143 94 246 232 246c67 0 134 -26 180 -77l-17 -17
c-35 42 -94 72 -163 72c-125 0 -209 -94 -209 -224c0 -132 84 -223 208 -223c64 0 129 26 168 70z" />
    <glyph glyph-name="uni04AD" unicode="&#x4ad;" horiz-adv-x="428" 
d="M409 462h-184v-440h77v-165h-19l-2 143h-78v462h-184v22h390v-22z" />
    <glyph glyph-name="uni04AF" unicode="&#x4af;" horiz-adv-x="494" 
d="M439 484h25l-205 -494v-188h-22v188l-208 494h26l192 -460h2z" />
    <glyph glyph-name="uni04B1" unicode="&#x4b1;" horiz-adv-x="494" 
d="M464 484l-192 -462h129v-22h-138l-4 -10v-188h-22v188l-4 10h-140v22h131l-195 462h26l192 -460h2l190 460h25z" />
    <glyph glyph-name="uni04B3" unicode="&#x4b3;" horiz-adv-x="476" 
d="M445 22v-165h-19l-2 143h-18l-172 222h-1l-171 -222h-29l186 242l-188 242h30l171 -223h2l172 223h30l-187 -241l170 -221h26z" />
    <glyph glyph-name="uni04B5" unicode="&#x4b5;" horiz-adv-x="683" 
d="M653 22v-165h-19l-2 143h-438v462h-184v22h390v-22h-184v-440h338v462h22v-462h77z" />
    <glyph glyph-name="uni04B7" unicode="&#x4b7;" horiz-adv-x="541" 
d="M511 22v-165h-19l-2 143h-78v204c-67 -27 -131 -37 -180 -37c-130 0 -181 53 -181 196v121h22v-118c0 -139 46 -177 159 -177c48 0 113 9 180 38v257h22v-462h77z" />
    <glyph glyph-name="uni04B9" unicode="&#x4b9;" horiz-adv-x="515" 
d="M412 484h22v-484h-22v204c-51 -21 -100 -32 -143 -35v-109h-22v107h-15c-130 0 -181 53 -181 196v121h22v-118c0 -139 46 -177 159 -177h15v161h22v-159c42 3 92 14 143 36v257z" />
    </font>
</defs>
</svg>
