<?xml version="1.0" standalone="no"?>
<!DOCTYPE svg PUBLIC "-//W3C//DTD SVG 1.1//EN" "http://www.w3.org/Graphics/SVG/1.1/DTD/svg11.dtd" >
<svg xmlns="http://www.w3.org/2000/svg" xmlns:xlink="http://www.w3.org/1999/xlink" version="1.1">
<metadata>
Created by FontForge 20201107 at Sat Jul 15 12:17:14 2017
 By Jimmy Wärting
Copyright \(c\) 2015 by Kostas Bartsokas. All rights reserved.
</metadata>
<defs>
<font id="AvertaStdCY-Light" horiz-adv-x="0" >
  <font-face 
    font-family="Averta Std CY Light"
    font-weight="300"
    font-stretch="normal"
    units-per-em="1000"
    panose-1="0 0 4 0 0 0 0 0 0 0"
    ascent="800"
    descent="-200"
    x-height="485"
    cap-height="710"
    bbox="-669 -256 1368 1036"
    underline-thickness="29"
    underline-position="-80"
    stemh="45"
    stemv="46"
    unicode-range="U+000D-2E18"
  />
<missing-glyph horiz-adv-x="442" 
 />
    <glyph glyph-name=".notdef" horiz-adv-x="442" 
 />
    <glyph glyph-name="space" unicode=" " horiz-adv-x="276" 
 />
    <glyph glyph-name="A" unicode="A" horiz-adv-x="659" 
d="M27 0l271 710h60l274 -710h-60l-73 191h-340l-72 -191h-60zM177 242h304l-151 400h-2z" />
    <glyph glyph-name="Aacute" unicode="&#xc1;" horiz-adv-x="659" 
d="M299 788l113 128h62l-118 -128h-57zM27 0l271 710h60l274 -710h-60l-73 191h-340l-72 -191h-60zM177 242h304l-151 400h-2z" />
    <glyph glyph-name="Abreve" unicode="&#x102;" horiz-adv-x="659" 
d="M329 783c-74 0 -128 49 -134 123h44c4 -40 36 -78 90 -78s86 38 89 78h45c-7 -74 -60 -123 -134 -123zM27 0l271 710h60l274 -710h-60l-73 191h-340l-72 -191h-60zM177 242h304l-151 400h-2z" />
    <glyph glyph-name="uni1EAE" unicode="&#x1eae;" horiz-adv-x="659" 
d="M304 890l109 134h63l-124 -134h-48zM330 780c-78 0 -136 44 -142 111h47c4 -36 38 -71 95 -71s91 35 94 71h48c-7 -67 -64 -111 -142 -111zM27 0l271 710h60l274 -710h-60l-73 191h-340l-72 -191h-60zM177 242h304l-151 400h-2z" />
    <glyph glyph-name="uni1EB6" unicode="&#x1eb6;" horiz-adv-x="659" 
d="M329 783c-74 0 -128 49 -134 123h44c4 -40 36 -78 90 -78s86 38 89 78h45c-7 -74 -60 -123 -134 -123zM27 0l271 710h60l274 -710h-60l-73 191h-340l-72 -191h-60zM177 242h304l-151 400h-2zM329 -108c25 0 44 -20 44 -44c0 -25 -19 -43 -44 -43s-44 18 -44 43
c0 24 19 44 44 44z" />
    <glyph glyph-name="uni1EB0" unicode="&#x1eb0;" horiz-adv-x="659" 
d="M312 890l-124 134h62l109 -134h-47zM329 780c-78 0 -136 44 -142 111h47c4 -36 38 -71 95 -71s91 35 94 71h48c-7 -67 -64 -111 -142 -111zM27 0l271 710h60l274 -710h-60l-73 191h-340l-72 -191h-60zM177 242h304l-151 400h-2z" />
    <glyph glyph-name="uni1EB2" unicode="&#x1eb2;" horiz-adv-x="659" 
d="M295 890c35 25 77 50 77 77c0 25 -18 33 -44 33c-28 0 -62 -13 -81 -28l-11 31c23 18 59 33 100 33c44 0 78 -19 78 -65c0 -39 -46 -64 -73 -81h-46zM329 780c-78 0 -136 44 -142 111h47c4 -36 38 -71 95 -71s91 35 94 71h48c-7 -67 -64 -111 -142 -111zM27 0l271 710h60
l274 -710h-60l-73 191h-340l-72 -191h-60zM177 242h304l-151 400h-2z" />
    <glyph glyph-name="uni1EB4" unicode="&#x1eb4;" horiz-adv-x="659" 
d="M407 911c-30 0 -58 20 -84 36c-21 15 -42 27 -63 27c-25 0 -46 -21 -58 -57l-37 15c18 50 48 83 93 83c32 0 55 -15 80 -30c21 -13 43 -32 66 -32s44 18 56 58l37 -13c-18 -59 -52 -87 -90 -87zM329 780c-78 0 -136 44 -142 111h47c4 -36 38 -71 95 -71s91 35 94 71h48
c-7 -67 -64 -111 -142 -111zM27 0l271 710h60l274 -710h-60l-73 191h-340l-72 -191h-60zM177 242h304l-151 400h-2z" />
    <glyph glyph-name="uni01CD" unicode="&#x1cd;" horiz-adv-x="659" 
d="M299 788l-117 118h57l88 -85h2l89 85h58l-120 -118h-57zM27 0l271 710h60l274 -710h-60l-73 191h-340l-72 -191h-60zM177 242h304l-151 400h-2z" />
    <glyph glyph-name="Acircumflex" unicode="&#xc2;" horiz-adv-x="659" 
d="M182 788l120 118h57l117 -118h-58l-87 85h-2l-90 -85h-57zM27 0l271 710h60l274 -710h-60l-73 191h-340l-72 -191h-60zM177 242h304l-151 400h-2z" />
    <glyph glyph-name="uni1EA4" unicode="&#x1ea4;" horiz-adv-x="659" 
d="M465 848l109 135h63l-124 -135h-48zM182 788l120 118h57l117 -118h-58l-87 85h-2l-90 -85h-57zM27 0l271 710h60l274 -710h-60l-73 191h-340l-72 -191h-60zM177 242h304l-151 400h-2z" />
    <glyph glyph-name="uni1EAC" unicode="&#x1eac;" horiz-adv-x="659" 
d="M182 788l120 118h57l117 -118h-58l-87 85h-2l-90 -85h-57zM27 0l271 710h60l274 -710h-60l-73 191h-340l-72 -191h-60zM177 242h304l-151 400h-2zM329 -108c25 0 44 -20 44 -44c0 -25 -19 -43 -44 -43s-44 18 -44 43c0 24 19 44 44 44z" />
    <glyph glyph-name="uni1EA6" unicode="&#x1ea6;" horiz-adv-x="659" 
d="M503 847l-124 134h63l108 -134h-47zM182 788l120 118h57l117 -118h-58l-87 85h-2l-90 -85h-57zM27 0l271 710h60l274 -710h-60l-73 191h-340l-72 -191h-60zM177 242h304l-151 400h-2z" />
    <glyph glyph-name="uni1EA8" unicode="&#x1ea8;" horiz-adv-x="659" 
d="M463 851c37 26 80 52 80 80c0 25 -18 33 -46 33c-29 0 -65 -13 -84 -29l-12 33c25 17 62 33 105 33c46 0 81 -19 81 -67c0 -40 -47 -65 -76 -83h-48zM182 788l120 118h57l117 -118h-58l-87 85h-2l-90 -85h-57zM27 0l271 710h60l274 -710h-60l-73 191h-340l-72 -191h-60z
M177 242h304l-151 400h-2z" />
    <glyph glyph-name="uni1EAA" unicode="&#x1eaa;" horiz-adv-x="659" 
d="M410 925c-30 0 -58 20 -84 36c-21 15 -42 27 -63 27c-25 0 -46 -21 -58 -57l-37 15c18 50 48 83 93 83c32 0 55 -15 80 -30c21 -13 43 -32 66 -32s44 18 56 58l37 -13c-18 -59 -52 -87 -90 -87zM182 788l120 118h57l117 -118h-58l-87 85h-2l-90 -85h-57zM27 0l271 710h60
l274 -710h-60l-73 191h-340l-72 -191h-60zM177 242h304l-151 400h-2z" />
    <glyph glyph-name="Adieresis" unicode="&#xc4;" horiz-adv-x="659" 
d="M247 810c-24 0 -44 20 -44 43c0 25 20 43 44 43c25 0 44 -18 44 -43c0 -24 -19 -43 -44 -43zM412 810c-25 0 -44 20 -44 43c0 25 19 43 44 43s44 -18 44 -43c0 -24 -19 -43 -44 -43zM27 0l271 710h60l274 -710h-60l-73 191h-340l-72 -191h-60zM177 242h304l-151 400h-2z
" />
    <glyph glyph-name="uni1EA0" unicode="&#x1ea0;" horiz-adv-x="659" 
d="M27 0l271 710h60l274 -710h-60l-73 191h-340l-72 -191h-60zM177 242h304l-151 400h-2zM329 -108c25 0 44 -20 44 -44c0 -25 -19 -43 -44 -43s-44 18 -44 43c0 24 19 44 44 44z" />
    <glyph glyph-name="Agrave" unicode="&#xc0;" horiz-adv-x="659" 
d="M305 788l-118 128h63l113 -128h-58zM27 0l271 710h60l274 -710h-60l-73 191h-340l-72 -191h-60zM177 242h304l-151 400h-2z" />
    <glyph glyph-name="uni1EA2" unicode="&#x1ea2;" horiz-adv-x="659" 
d="M305 781c39 28 85 56 85 86c0 27 -20 36 -49 36c-31 0 -69 -14 -90 -31l-12 35c26 19 65 36 111 36c49 0 87 -21 87 -72c0 -43 -51 -71 -81 -90h-51zM27 0l271 710h60l274 -710h-60l-73 191h-340l-72 -191h-60zM177 242h304l-151 400h-2z" />
    <glyph glyph-name="Amacron" unicode="&#x100;" horiz-adv-x="659" 
d="M191 822v47h277v-47h-277zM27 0l271 710h60l274 -710h-60l-73 191h-340l-72 -191h-60zM177 242h304l-151 400h-2z" />
    <glyph glyph-name="Aogonek" unicode="&#x104;" horiz-adv-x="659" 
d="M653 -132l5 -39c-17 -8 -37 -12 -66 -12c-56 0 -93 29 -93 80c0 34 24 76 71 107l-71 187h-340l-72 -191h-60l271 710h60l274 -710h-6c-49 -19 -81 -58 -81 -94c0 -29 17 -50 55 -50c28 0 37 4 53 12zM177 242h304l-151 400h-2z" />
    <glyph glyph-name="Aring" unicode="&#xc5;" horiz-adv-x="659" 
d="M329 773c-46 0 -86 37 -86 84c0 46 38 84 86 84c46 0 86 -37 86 -84c0 -46 -38 -84 -86 -84zM329 811c25 0 47 21 47 46c0 26 -22 47 -47 47c-26 0 -47 -22 -47 -47s21 -46 47 -46zM27 0l271 710h60l274 -710h-60l-73 191h-340l-72 -191h-60zM177 242h304l-151 400h-2z
" />
    <glyph glyph-name="Aringacute" unicode="&#x1fa;" horiz-adv-x="659" 
d="M329 773c-46 0 -86 37 -86 84c0 46 38 84 86 84c29 0 55 -14 71 -36l79 53l69 1l-133 -94v-8c0 -46 -38 -84 -86 -84zM329 904c-26 0 -47 -22 -47 -47s21 -46 47 -46c25 0 47 21 47 46c0 26 -22 47 -47 47zM358 710l274 -710h-60l-73 191h-340l-72 -191h-60l271 710h60z
M177 242h304l-151 400h-2z" />
    <glyph glyph-name="Atilde" unicode="&#xc3;" horiz-adv-x="659" 
d="M407 788c-31 0 -60 20 -86 37c-22 15 -43 27 -64 27c-26 0 -47 -21 -60 -58l-37 15c18 52 48 86 94 86c33 0 57 -16 82 -31c22 -14 44 -33 68 -33c23 0 44 18 57 59l37 -13c-18 -60 -53 -89 -91 -89zM27 0l271 710h60l274 -710h-60l-73 191h-340l-72 -191h-60zM177 242
h304l-151 400h-2z" />
    <glyph glyph-name="AE" unicode="&#xc6;" horiz-adv-x="915" 
d="M7 0l392 710h458v-52h-367v-278h308v-52h-308v-276h387v-52h-444v191h-259l-106 -191h-61zM201 242h232v417h-1z" />
    <glyph glyph-name="AEacute" unicode="&#x1fc;" horiz-adv-x="915" 
d="M424 788l113 128h62l-118 -128h-57zM7 0l392 710h458v-52h-367v-278h308v-52h-308v-276h387v-52h-444v191h-259l-106 -191h-61zM201 242h232v417h-1z" />
    <glyph glyph-name="B" unicode="B" horiz-adv-x="623" 
d="M88 0v710h219c132 0 227 -48 227 -172c0 -73 -39 -140 -121 -165v-1c83 -15 156 -73 156 -182c0 -112 -77 -190 -241 -190h-240zM145 394h171c78 0 160 33 160 134c0 79 -51 130 -174 130h-157v-264zM145 52h180c110 0 185 46 185 141c0 94 -68 150 -191 150h-174v-291z
" />
    <glyph glyph-name="C" unicode="C" horiz-adv-x="719" 
d="M410 -4c-191 0 -350 125 -350 356c0 202 123 363 349 363c100 0 199 -41 274 -134l-43 -37c-65 82 -145 117 -231 117c-184 0 -290 -132 -290 -309c0 -192 127 -302 291 -302c103 0 177 48 231 115l43 -36c-62 -77 -149 -133 -274 -133z" />
    <glyph glyph-name="Cacute" unicode="&#x106;" horiz-adv-x="719" 
d="M363 788l113 128h62l-118 -128h-57zM410 -4c-191 0 -350 125 -350 356c0 202 123 363 349 363c100 0 199 -41 274 -134l-43 -37c-65 82 -145 117 -231 117c-184 0 -290 -132 -290 -309c0 -192 127 -302 291 -302c103 0 177 48 231 115l43 -36
c-62 -77 -149 -133 -274 -133z" />
    <glyph glyph-name="Ccaron" unicode="&#x10c;" horiz-adv-x="719" 
d="M379 788l-117 118h57l88 -85h2l89 85h58l-120 -118h-57zM410 -4c-191 0 -350 125 -350 356c0 202 123 363 349 363c100 0 199 -41 274 -134l-43 -37c-65 82 -145 117 -231 117c-184 0 -290 -132 -290 -309c0 -192 127 -302 291 -302c103 0 177 48 231 115l43 -36
c-62 -77 -149 -133 -274 -133z" />
    <glyph glyph-name="Ccedilla" unicode="&#xc7;" horiz-adv-x="719" 
d="M408 -4l-13 -29v-1c46 -3 84 -30 84 -78c0 -40 -32 -74 -97 -74c-19 0 -37 2 -52 6v34c13 -4 27 -7 47 -7c31 0 61 14 61 44c0 24 -28 49 -83 49v25l15 33c-173 16 -310 139 -310 354c0 202 123 363 349 363c100 0 199 -41 274 -134l-43 -37c-65 82 -145 117 -231 117
c-184 0 -290 -132 -290 -309c0 -192 127 -302 291 -302c103 0 177 48 231 115l43 -36c-62 -77 -149 -133 -274 -133h-2z" />
    <glyph glyph-name="Ccircumflex" unicode="&#x108;" horiz-adv-x="719" 
d="M262 788l120 118h57l117 -118h-58l-87 85h-2l-90 -85h-57zM410 -4c-191 0 -350 125 -350 356c0 202 123 363 349 363c100 0 199 -41 274 -134l-43 -37c-65 82 -145 117 -231 117c-184 0 -290 -132 -290 -309c0 -192 127 -302 291 -302c103 0 177 48 231 115l43 -36
c-62 -77 -149 -133 -274 -133z" />
    <glyph glyph-name="Cdotaccent" unicode="&#x10a;" horiz-adv-x="719" 
d="M410 809c-25 0 -44 20 -44 44c0 25 19 43 44 43s44 -18 44 -43c0 -24 -19 -44 -44 -44zM410 -4c-191 0 -350 125 -350 356c0 202 123 363 349 363c100 0 199 -41 274 -134l-43 -37c-65 82 -145 117 -231 117c-184 0 -290 -132 -290 -309c0 -192 127 -302 291 -302
c103 0 177 48 231 115l43 -36c-62 -77 -149 -133 -274 -133z" />
    <glyph glyph-name="D" unicode="D" horiz-adv-x="716" 
d="M88 0v710h201c224 0 369 -146 369 -356s-142 -354 -366 -354h-204zM145 52h144c192 0 310 126 310 302c0 179 -123 304 -310 304h-144v-606z" />
    <glyph glyph-name="Eth" unicode="&#xd0;" horiz-adv-x="716" 
d="M289 710c224 0 369 -146 369 -356s-142 -354 -366 -354h-204v330h-77v51h77v329h201zM289 52c192 0 310 126 310 302c0 179 -123 304 -310 304h-144v-277h210v-51h-210v-278h144z" />
    <glyph glyph-name="Dcaron" unicode="&#x10e;" horiz-adv-x="716" 
d="M306 788l-117 118h57l88 -85h2l89 85h58l-120 -118h-57zM88 0v710h201c224 0 369 -146 369 -356s-142 -354 -366 -354h-204zM145 52h144c192 0 310 126 310 302c0 179 -123 304 -310 304h-144v-606z" />
    <glyph glyph-name="Dcroat" unicode="&#x110;" horiz-adv-x="716" 
d="M289 710c224 0 369 -146 369 -356s-142 -354 -366 -354h-204v330h-77v51h77v329h201zM289 52c192 0 310 126 310 302c0 179 -123 304 -310 304h-144v-277h210v-51h-210v-278h144z" />
    <glyph glyph-name="uni1E0C" unicode="&#x1e0c;" horiz-adv-x="716" 
d="M88 0v710h201c224 0 369 -146 369 -356s-142 -354 -366 -354h-204zM145 52h144c192 0 310 126 310 302c0 179 -123 304 -310 304h-144v-606zM332 -108c25 0 44 -20 44 -44c0 -25 -19 -43 -44 -43s-44 18 -44 43c0 24 19 44 44 44z" />
    <glyph glyph-name="uni1E0E" unicode="&#x1e0e;" horiz-adv-x="716" 
d="M88 0v710h201c224 0 369 -146 369 -356s-142 -354 -366 -354h-204zM145 52h144c192 0 310 126 310 302c0 179 -123 304 -310 304h-144v-606zM471 -183h-277v48h277v-48z" />
    <glyph glyph-name="E" unicode="E" horiz-adv-x="579" 
d="M88 0v710h424v-52h-367v-278h305v-52h-305v-276h388v-52h-445z" />
    <glyph glyph-name="Eacute" unicode="&#xc9;" horiz-adv-x="579" 
d="M217 788l113 128h62l-118 -128h-57zM88 0v710h424v-52h-367v-278h305v-52h-305v-276h388v-52h-445z" />
    <glyph glyph-name="Ebreve" unicode="&#x114;" horiz-adv-x="579" 
d="M298 783c-74 0 -128 49 -134 123h44c4 -40 36 -78 90 -78s86 38 89 78h45c-7 -74 -60 -123 -134 -123zM88 0v710h424v-52h-367v-278h305v-52h-305v-276h388v-52h-445z" />
    <glyph glyph-name="Ecaron" unicode="&#x11a;" horiz-adv-x="579" 
d="M268 788l-117 118h57l88 -85h2l89 85h58l-120 -118h-57zM88 0v710h424v-52h-367v-278h305v-52h-305v-276h388v-52h-445z" />
    <glyph glyph-name="Ecircumflex" unicode="&#xca;" horiz-adv-x="579" 
d="M151 788l120 118h57l117 -118h-58l-87 85h-2l-90 -85h-57zM88 0v710h424v-52h-367v-278h305v-52h-305v-276h388v-52h-445z" />
    <glyph glyph-name="uni1EBE" unicode="&#x1ebe;" horiz-adv-x="579" 
d="M434 848l109 135h63l-124 -135h-48zM151 788l120 118h57l117 -118h-58l-87 85h-2l-90 -85h-57zM88 0v710h424v-52h-367v-278h305v-52h-305v-276h388v-52h-445z" />
    <glyph glyph-name="uni1EC6" unicode="&#x1ec6;" horiz-adv-x="579" 
d="M151 788l120 118h57l117 -118h-58l-87 85h-2l-90 -85h-57zM88 0v710h424v-52h-367v-278h305v-52h-305v-276h388v-52h-445zM309 -108c25 0 44 -20 44 -44c0 -25 -19 -43 -44 -43s-44 18 -44 43c0 24 19 44 44 44z" />
    <glyph glyph-name="uni1EC0" unicode="&#x1ec0;" horiz-adv-x="579" 
d="M472 847l-124 134h63l108 -134h-47zM151 788l120 118h57l117 -118h-58l-87 85h-2l-90 -85h-57zM88 0v710h424v-52h-367v-278h305v-52h-305v-276h388v-52h-445z" />
    <glyph glyph-name="uni1EC2" unicode="&#x1ec2;" horiz-adv-x="579" 
d="M432 851c37 26 80 52 80 80c0 25 -18 33 -46 33c-29 0 -65 -13 -84 -29l-12 33c25 17 62 33 105 33c46 0 81 -19 81 -67c0 -40 -47 -65 -76 -83h-48zM151 788l120 118h57l117 -118h-58l-87 85h-2l-90 -85h-57zM88 0v710h424v-52h-367v-278h305v-52h-305v-276h388v-52
h-445z" />
    <glyph glyph-name="uni1EC4" unicode="&#x1ec4;" horiz-adv-x="579" 
d="M379 925c-30 0 -58 20 -84 36c-21 15 -42 27 -63 27c-25 0 -46 -21 -58 -57l-37 15c18 50 48 83 93 83c32 0 55 -15 80 -30c21 -13 43 -32 66 -32s44 18 56 58l37 -13c-18 -59 -52 -87 -90 -87zM151 788l120 118h57l117 -118h-58l-87 85h-2l-90 -85h-57zM88 0v710h424
v-52h-367v-278h305v-52h-305v-276h388v-52h-445z" />
    <glyph glyph-name="Edieresis" unicode="&#xcb;" horiz-adv-x="579" 
d="M216 810c-24 0 -44 20 -44 43c0 25 20 43 44 43c25 0 44 -18 44 -43c0 -24 -19 -43 -44 -43zM381 810c-25 0 -44 20 -44 43c0 25 19 43 44 43s44 -18 44 -43c0 -24 -19 -43 -44 -43zM88 0v710h424v-52h-367v-278h305v-52h-305v-276h388v-52h-445z" />
    <glyph glyph-name="Edotaccent" unicode="&#x116;" horiz-adv-x="579" 
d="M299 809c-25 0 -44 20 -44 44c0 25 19 43 44 43s44 -18 44 -43c0 -24 -19 -44 -44 -44zM88 0v710h424v-52h-367v-278h305v-52h-305v-276h388v-52h-445z" />
    <glyph glyph-name="uni1EB8" unicode="&#x1eb8;" horiz-adv-x="579" 
d="M88 0v710h424v-52h-367v-278h305v-52h-305v-276h388v-52h-445zM309 -108c25 0 44 -20 44 -44c0 -25 -19 -43 -44 -43s-44 18 -44 43c0 24 19 44 44 44z" />
    <glyph glyph-name="Egrave" unicode="&#xc8;" horiz-adv-x="579" 
d="M322 788l-118 128h63l113 -128h-58zM88 0v710h424v-52h-367v-278h305v-52h-305v-276h388v-52h-445z" />
    <glyph glyph-name="uni1EBA" unicode="&#x1eba;" horiz-adv-x="579" 
d="M274 781c39 28 85 56 85 86c0 27 -20 36 -49 36c-31 0 -69 -14 -90 -31l-12 35c26 19 65 36 111 36c49 0 87 -21 87 -72c0 -43 -51 -71 -81 -90h-51zM88 0v710h424v-52h-367v-278h305v-52h-305v-276h388v-52h-445z" />
    <glyph glyph-name="Emacron" unicode="&#x112;" horiz-adv-x="579" 
d="M160 822v47h277v-47h-277zM88 0v710h424v-52h-367v-278h305v-52h-305v-276h388v-52h-445z" />
    <glyph glyph-name="Eogonek" unicode="&#x118;" horiz-adv-x="579" 
d="M558 -132l5 -39c-17 -8 -37 -12 -66 -12c-56 0 -93 29 -93 80c0 33 22 72 66 103h-382v710h424v-52h-367v-278h305v-52h-305v-276h388v-52h-2c-49 -19 -81 -58 -81 -94c0 -29 17 -50 55 -50c28 0 37 4 53 12z" />
    <glyph glyph-name="uni1EBC" unicode="&#x1ebc;" horiz-adv-x="579" 
d="M376 788c-31 0 -60 20 -86 37c-22 15 -43 27 -64 27c-26 0 -47 -21 -60 -58l-37 15c18 52 48 86 94 86c33 0 57 -16 82 -31c22 -14 44 -33 68 -33c23 0 44 18 57 59l37 -13c-18 -60 -53 -89 -91 -89zM88 0v710h424v-52h-367v-278h305v-52h-305v-276h388v-52h-445z" />
    <glyph glyph-name="F" unicode="F" horiz-adv-x="564" 
d="M88 0v710h443v-52h-386v-284h331v-53h-331v-321h-57z" />
    <glyph glyph-name="G" unicode="G" horiz-adv-x="760" 
d="M410 -4c-204 0 -350 142 -350 358c0 212 140 361 349 361c94 0 189 -28 265 -105l-40 -36c-64 62 -139 87 -225 87c-170 0 -290 -122 -290 -307c0 -179 117 -305 291 -305c86 0 161 23 219 69v184h-237v52h293v-266c-68 -60 -166 -92 -275 -92z" />
    <glyph glyph-name="Gbreve" unicode="&#x11e;" horiz-adv-x="760" 
d="M405 783c-74 0 -128 49 -134 123h44c4 -40 36 -78 90 -78s86 38 89 78h45c-7 -74 -60 -123 -134 -123zM410 -4c-204 0 -350 142 -350 358c0 212 140 361 349 361c94 0 189 -28 265 -105l-40 -36c-64 62 -139 87 -225 87c-170 0 -290 -122 -290 -307
c0 -179 117 -305 291 -305c86 0 161 23 219 69v184h-237v52h293v-266c-68 -60 -166 -92 -275 -92z" />
    <glyph glyph-name="Gcaron" unicode="&#x1e6;" horiz-adv-x="760" 
d="M375 788l-117 118h57l88 -85h2l89 85h58l-120 -118h-57zM410 -4c-204 0 -350 142 -350 358c0 212 140 361 349 361c94 0 189 -28 265 -105l-40 -36c-64 62 -139 87 -225 87c-170 0 -290 -122 -290 -307c0 -179 117 -305 291 -305c86 0 161 23 219 69v184h-237v52h293
v-266c-68 -60 -166 -92 -275 -92z" />
    <glyph glyph-name="Gcircumflex" unicode="&#x11c;" horiz-adv-x="760" 
d="M258 788l120 118h57l117 -118h-58l-87 85h-2l-90 -85h-57zM410 -4c-204 0 -350 142 -350 358c0 212 140 361 349 361c94 0 189 -28 265 -105l-40 -36c-64 62 -139 87 -225 87c-170 0 -290 -122 -290 -307c0 -179 117 -305 291 -305c86 0 161 23 219 69v184h-237v52h293
v-266c-68 -60 -166 -92 -275 -92z" />
    <glyph glyph-name="Gcommaaccent" unicode="&#x122;" horiz-adv-x="760" 
d="M410 -4c-204 0 -350 142 -350 358c0 212 140 361 349 361c94 0 189 -28 265 -105l-40 -36c-64 62 -139 87 -225 87c-170 0 -290 -122 -290 -307c0 -179 117 -305 291 -305c86 0 161 23 219 69v184h-237v52h293v-266c-68 -60 -166 -92 -275 -92zM331 -206l-14 34
c53 7 64 34 64 68c0 17 -2 32 -6 50h50c3 -17 5 -34 5 -53c0 -55 -33 -94 -99 -99z" />
    <glyph glyph-name="Gdotaccent" unicode="&#x120;" horiz-adv-x="760" 
d="M406 809c-25 0 -44 20 -44 44c0 25 19 43 44 43s44 -18 44 -43c0 -24 -19 -44 -44 -44zM410 -4c-204 0 -350 142 -350 358c0 212 140 361 349 361c94 0 189 -28 265 -105l-40 -36c-64 62 -139 87 -225 87c-170 0 -290 -122 -290 -307c0 -179 117 -305 291 -305
c86 0 161 23 219 69v184h-237v52h293v-266c-68 -60 -166 -92 -275 -92z" />
    <glyph glyph-name="uni1E20" unicode="&#x1e20;" horiz-adv-x="760" 
d="M267 822v47h277v-47h-277zM410 -4c-204 0 -350 142 -350 358c0 212 140 361 349 361c94 0 189 -28 265 -105l-40 -36c-64 62 -139 87 -225 87c-170 0 -290 -122 -290 -307c0 -179 117 -305 291 -305c86 0 161 23 219 69v184h-237v52h293v-266c-68 -60 -166 -92 -275 -92z
" />
    <glyph glyph-name="H" unicode="H" horiz-adv-x="707" 
d="M88 0v710h57v-348h417v348h57v-710h-57v310h-417v-310h-57z" />
    <glyph glyph-name="Hbar" unicode="&#x126;" horiz-adv-x="708" 
d="M686 577v-42h-66v-535h-57v310h-417v-310h-57v535h-70v42h70v133h57v-133h417v133h57v-133h66zM563 362v173h-417v-173h417z" />
    <glyph glyph-name="uni1E2A" unicode="&#x1e2a;" horiz-adv-x="707" 
d="M88 0v710h57v-348h417v348h57v-710h-57v310h-417v-310h-57zM354 -213c-74 0 -127 48 -134 134h45c3 -50 35 -90 89 -90c55 0 86 40 90 90h44c-6 -86 -60 -134 -134 -134z" />
    <glyph glyph-name="Hcircumflex" unicode="&#x124;" horiz-adv-x="707" 
d="M207 788l120 118h57l117 -118h-58l-87 85h-2l-90 -85h-57zM88 0v710h57v-348h417v348h57v-710h-57v310h-417v-310h-57z" />
    <glyph glyph-name="uni1E24" unicode="&#x1e24;" horiz-adv-x="707" 
d="M88 0v710h57v-348h417v348h57v-710h-57v310h-417v-310h-57zM354 -108c25 0 44 -20 44 -44c0 -25 -19 -43 -44 -43s-44 18 -44 43c0 24 19 44 44 44z" />
    <glyph glyph-name="I" unicode="I" horiz-adv-x="246" 
d="M94 0v710h57v-710h-57z" />
    <glyph glyph-name="IJ" unicode="&#x132;" horiz-adv-x="727" 
d="M94 0v710h57v-710h-57zM460 -4c-60 0 -134 31 -186 92l32 42c43 -47 98 -80 153 -80c79 0 134 45 134 174v486h56v-490c0 -149 -61 -224 -189 -224z" />
    <glyph glyph-name="Iacute" unicode="&#xcd;" horiz-adv-x="246" 
d="M96 788l113 128h62l-118 -128h-57zM94 0v710h57v-710h-57z" />
    <glyph glyph-name="Ibreve" unicode="&#x12c;" horiz-adv-x="246" 
d="M122 783c-74 0 -128 49 -134 123h44c4 -40 36 -78 90 -78s86 38 89 78h45c-7 -74 -60 -123 -134 -123zM94 0v710h57v-710h-57z" />
    <glyph glyph-name="uni01CF" unicode="&#x1cf;" horiz-adv-x="246" 
d="M92 788l-117 118h57l88 -85h2l89 85h58l-120 -118h-57zM94 0v710h57v-710h-57z" />
    <glyph glyph-name="Icircumflex" unicode="&#xce;" horiz-adv-x="246" 
d="M-25 788l120 118h57l117 -118h-58l-87 85h-2l-90 -85h-57zM94 0v710h57v-710h-57z" />
    <glyph glyph-name="Idieresis" unicode="&#xcf;" horiz-adv-x="246" 
d="M40 810c-24 0 -44 20 -44 43c0 25 20 43 44 43c25 0 44 -18 44 -43c0 -24 -19 -43 -44 -43zM205 810c-25 0 -44 20 -44 43c0 25 19 43 44 43s44 -18 44 -43c0 -24 -19 -43 -44 -43zM94 0v710h57v-710h-57z" />
    <glyph glyph-name="Idotaccent" unicode="&#x130;" horiz-adv-x="246" 
d="M123 809c-25 0 -44 20 -44 44c0 25 19 43 44 43s44 -18 44 -43c0 -24 -19 -44 -44 -44zM94 0v710h57v-710h-57z" />
    <glyph glyph-name="uni1ECA" unicode="&#x1eca;" horiz-adv-x="246" 
d="M94 0v710h57v-710h-57zM124 -108c25 0 44 -20 44 -44c0 -25 -19 -43 -44 -43s-44 18 -44 43c0 24 19 44 44 44z" />
    <glyph glyph-name="Igrave" unicode="&#xcc;" horiz-adv-x="246" 
d="M93 788l-118 128h63l113 -128h-58zM94 0v710h57v-710h-57z" />
    <glyph glyph-name="uni1EC8" unicode="&#x1ec8;" horiz-adv-x="246" 
d="M98 781c39 28 85 56 85 86c0 27 -20 36 -49 36c-31 0 -69 -14 -90 -31l-12 35c26 19 65 36 111 36c49 0 87 -21 87 -72c0 -43 -51 -71 -81 -90h-51zM94 0v710h57v-710h-57z" />
    <glyph glyph-name="Imacron" unicode="&#x12a;" horiz-adv-x="246" 
d="M-16 822v47h277v-47h-277zM94 0v710h57v-710h-57z" />
    <glyph glyph-name="Iogonek" unicode="&#x12e;" horiz-adv-x="246" 
d="M174 -132l5 -39c-17 -8 -37 -12 -66 -12c-56 0 -93 29 -93 80c0 35 25 77 74 109v704h57v-710h-4c-49 -19 -81 -58 -81 -94c0 -29 17 -50 55 -50c28 0 37 4 53 12z" />
    <glyph glyph-name="Itilde" unicode="&#x128;" horiz-adv-x="246" 
d="M200 788c-31 0 -60 20 -86 37c-22 15 -43 27 -64 27c-26 0 -47 -21 -60 -58l-37 15c18 52 48 86 94 86c33 0 57 -16 82 -31c22 -14 44 -33 68 -33c23 0 44 18 57 59l37 -13c-18 -60 -53 -89 -91 -89zM94 0v710h57v-710h-57z" />
    <glyph glyph-name="J" unicode="J" horiz-adv-x="481" 
d="M214 -4c-60 0 -134 31 -186 92l32 42c43 -47 98 -80 153 -80c79 0 134 45 134 174v486h56v-490c0 -149 -61 -224 -189 -224z" />
    <glyph glyph-name="uni00A40301" horiz-adv-x="481" 
d="M346 788l113 128h62l-118 -128h-57zM214 -4c-60 0 -134 31 -186 92l32 42c43 -47 98 -80 153 -80c79 0 134 45 134 174v486h56v-490c0 -149 -61 -224 -189 -224z" />
    <glyph glyph-name="Jcircumflex" unicode="&#x134;" horiz-adv-x="481" 
d="M229 788l120 118h57l117 -118h-58l-87 85h-2l-90 -85h-57zM214 -4c-60 0 -134 31 -186 92l32 42c43 -47 98 -80 153 -80c79 0 134 45 134 174v486h56v-490c0 -149 -61 -224 -189 -224z" />
    <glyph glyph-name="K" unicode="K" horiz-adv-x="630" 
d="M88 0v710h57v-434h2l368 434h73l-283 -329l289 -381h-71l-255 336l-123 -143v-193h-57z" />
    <glyph glyph-name="Kcommaaccent" unicode="&#x136;" horiz-adv-x="630" 
d="M88 0v710h57v-434h2l368 434h73l-283 -329l289 -381h-71l-255 336l-123 -143v-193h-57zM251 -206l-14 34c53 7 64 34 64 68c0 17 -2 32 -6 50h50c3 -17 5 -34 5 -53c0 -55 -33 -94 -99 -99z" />
    <glyph glyph-name="L" unicode="L" horiz-adv-x="544" 
d="M88 0v710h57v-658h372v-52h-429z" />
    <glyph glyph-name="Lacute" unicode="&#x139;" horiz-adv-x="544" 
d="M187 788l113 128h62l-118 -128h-57zM88 0v710h57v-658h372v-52h-429z" />
    <glyph glyph-name="Lcaron" unicode="&#x13d;" horiz-adv-x="544" 
d="M290 591l26 172h55l-41 -172h-40zM88 0v710h57v-658h372v-52h-429z" />
    <glyph glyph-name="Lcommaaccent" unicode="&#x13b;" horiz-adv-x="544" 
d="M88 0v710h57v-658h372v-52h-429zM223 -206l-14 34c53 7 64 34 64 68c0 17 -2 32 -6 50h50c3 -17 5 -34 5 -53c0 -55 -33 -94 -99 -99z" />
    <glyph glyph-name="Ldot" unicode="&#x13f;" horiz-adv-x="544" 
d="M88 0v710h57v-658h372v-52h-429zM394 294c-26 0 -45 19 -45 44s19 44 45 44c25 0 45 -19 45 -44s-20 -44 -45 -44z" />
    <glyph glyph-name="uni1E36" unicode="&#x1e36;" horiz-adv-x="544" 
d="M88 0v710h57v-658h372v-52h-429zM301 -108c25 0 44 -20 44 -44c0 -25 -19 -43 -44 -43s-44 18 -44 43c0 24 19 44 44 44z" />
    <glyph glyph-name="uni1E38" unicode="&#x1e38;" horiz-adv-x="544" 
d="M130 822v47h277v-47h-277zM88 0v710h57v-658h372v-52h-429zM301 -108c25 0 44 -20 44 -44c0 -25 -19 -43 -44 -43s-44 18 -44 43c0 24 19 44 44 44z" />
    <glyph glyph-name="uni1E3A" unicode="&#x1e3a;" horiz-adv-x="544" 
d="M88 0v710h57v-658h372v-52h-429zM440 -183h-277v48h277v-48z" />
    <glyph glyph-name="Lslash" unicode="&#x141;" horiz-adv-x="565" 
d="M167 52h372v-52h-429v292l-88 -37v51l88 37v367h57v-342l118 50v-51l-118 -50v-265z" />
    <glyph glyph-name="M" unicode="M" horiz-adv-x="865" 
d="M89 0v710h57l286 -491h2l285 491h57v-710h-57v599h-1l-265 -450h-41l-266 450h-1v-599h-56z" />
    <glyph glyph-name="uni1E42" unicode="&#x1e42;" horiz-adv-x="865" 
d="M89 0v710h57l286 -491h2l285 491h57v-710h-57v599h-1l-265 -450h-41l-266 450h-1v-599h-56zM431 -108c25 0 44 -20 44 -44c0 -25 -19 -43 -44 -43s-44 18 -44 43c0 24 19 44 44 44z" />
    <glyph glyph-name="N" unicode="N" horiz-adv-x="740" 
d="M88 0v710h56l449 -615h2v615h56v-710h-57l-448 611h-1v-611h-57z" />
    <glyph glyph-name="Nacute" unicode="&#x143;" horiz-adv-x="740" 
d="M289 788l113 128h62l-118 -128h-57zM88 0v710h56l449 -615h2v615h56v-710h-57l-448 611h-1v-611h-57z" />
    <glyph glyph-name="Ncaron" unicode="&#x147;" horiz-adv-x="740" 
d="M340 788l-117 118h57l88 -85h2l89 85h58l-120 -118h-57zM88 0v710h56l449 -615h2v615h56v-710h-57l-448 611h-1v-611h-57z" />
    <glyph glyph-name="Ncommaaccent" unicode="&#x145;" horiz-adv-x="740" 
d="M88 0v710h56l449 -615h2v615h56v-710h-57l-448 611h-1v-611h-57zM300 -206l-14 34c53 7 64 34 64 68c0 17 -2 32 -6 50h50c3 -17 5 -34 5 -53c0 -55 -33 -94 -99 -99z" />
    <glyph glyph-name="uni1E44" unicode="&#x1e44;" horiz-adv-x="740" 
d="M371 809c-25 0 -44 20 -44 44c0 25 19 43 44 43s44 -18 44 -43c0 -24 -19 -44 -44 -44zM88 0v710h56l449 -615h2v615h56v-710h-57l-448 611h-1v-611h-57z" />
    <glyph glyph-name="uni1E46" unicode="&#x1e46;" horiz-adv-x="740" 
d="M88 0v710h56l449 -615h2v615h56v-710h-57l-448 611h-1v-611h-57zM378 -108c25 0 44 -20 44 -44c0 -25 -19 -43 -44 -43s-44 18 -44 43c0 24 19 44 44 44z" />
    <glyph glyph-name="Eng" unicode="&#x14a;" horiz-adv-x="740" 
d="M594 710h57v-727c0 -135 -62 -185 -167 -185c-29 0 -54 4 -78 14l5 48c18 -9 44 -13 66 -13c72 0 117 32 117 134v18l-448 612h-1v-611h-57v710h55l449 -615h2v615z" />
    <glyph glyph-name="uni019D" unicode="&#x19d;" horiz-adv-x="740" 
d="M595 710h56v-710h-57l-448 611h-1v-670c0 -93 -38 -143 -118 -143c-18 0 -45 3 -70 14l5 48c19 -9 41 -13 57 -13c42 0 69 26 69 85v778h57v-1l448 -614h2v615z" />
    <glyph glyph-name="uni1E48" unicode="&#x1e48;" horiz-adv-x="740" 
d="M88 0v710h56l449 -615h2v615h56v-710h-57l-448 611h-1v-611h-57zM517 -183h-277v48h277v-48z" />
    <glyph glyph-name="Ntilde" unicode="&#xd1;" horiz-adv-x="740" 
d="M448 788c-31 0 -60 20 -86 37c-22 15 -43 27 -64 27c-26 0 -47 -21 -60 -58l-37 15c18 52 48 86 94 86c33 0 57 -16 82 -31c22 -14 44 -33 68 -33c23 0 44 18 57 59l37 -13c-18 -60 -53 -89 -91 -89zM88 0v710h56l449 -615h2v615h56v-710h-57l-448 611h-1v-611h-57z" />
    <glyph glyph-name="O" unicode="O" horiz-adv-x="824" 
d="M413 -5c-200 0 -353 147 -353 361c0 213 153 359 353 359c196 0 351 -144 351 -359c0 -216 -155 -361 -351 -361zM413 49c161 0 292 124 292 307c0 182 -131 305 -292 305c-166 0 -295 -126 -295 -305c0 -181 129 -307 295 -307z" />
    <glyph glyph-name="Oacute" unicode="&#xd3;" horiz-adv-x="824" 
d="M369 788l113 128h62l-118 -128h-57zM413 -5c-200 0 -353 147 -353 361c0 213 153 359 353 359c196 0 351 -144 351 -359c0 -216 -155 -361 -351 -361zM413 49c161 0 292 124 292 307c0 182 -131 305 -292 305c-166 0 -295 -126 -295 -305c0 -181 129 -307 295 -307z" />
    <glyph glyph-name="Obreve" unicode="&#x14e;" horiz-adv-x="824" 
d="M413 783c-74 0 -128 49 -134 123h44c4 -40 36 -78 90 -78s86 38 89 78h45c-7 -74 -60 -123 -134 -123zM413 -5c-200 0 -353 147 -353 361c0 213 153 359 353 359c196 0 351 -144 351 -359c0 -216 -155 -361 -351 -361zM413 49c161 0 292 124 292 307
c0 182 -131 305 -292 305c-166 0 -295 -126 -295 -305c0 -181 129 -307 295 -307z" />
    <glyph glyph-name="uni01D1" unicode="&#x1d1;" horiz-adv-x="824" 
d="M383 788l-117 118h57l88 -85h2l89 85h58l-120 -118h-57zM413 -5c-200 0 -353 147 -353 361c0 213 153 359 353 359c196 0 351 -144 351 -359c0 -216 -155 -361 -351 -361zM413 49c161 0 292 124 292 307c0 182 -131 305 -292 305c-166 0 -295 -126 -295 -305
c0 -181 129 -307 295 -307z" />
    <glyph glyph-name="Ocircumflex" unicode="&#xd4;" horiz-adv-x="824" 
d="M266 788l120 118h57l117 -118h-58l-87 85h-2l-90 -85h-57zM413 -5c-200 0 -353 147 -353 361c0 213 153 359 353 359c196 0 351 -144 351 -359c0 -216 -155 -361 -351 -361zM413 49c161 0 292 124 292 307c0 182 -131 305 -292 305c-166 0 -295 -126 -295 -305
c0 -181 129 -307 295 -307z" />
    <glyph glyph-name="uni1ED0" unicode="&#x1ed0;" horiz-adv-x="824" 
d="M549 848l109 135h63l-124 -135h-48zM266 788l120 118h57l117 -118h-58l-87 85h-2l-90 -85h-57zM413 -5c-200 0 -353 147 -353 361c0 213 153 359 353 359c196 0 351 -144 351 -359c0 -216 -155 -361 -351 -361zM413 49c161 0 292 124 292 307c0 182 -131 305 -292 305
c-166 0 -295 -126 -295 -305c0 -181 129 -307 295 -307z" />
    <glyph glyph-name="uni1ED8" unicode="&#x1ed8;" horiz-adv-x="824" 
d="M266 788l120 118h57l117 -118h-58l-87 85h-2l-90 -85h-57zM413 -5c-200 0 -353 147 -353 361c0 213 153 359 353 359c196 0 351 -144 351 -359c0 -216 -155 -361 -351 -361zM413 49c161 0 292 124 292 307c0 182 -131 305 -292 305c-166 0 -295 -126 -295 -305
c0 -181 129 -307 295 -307zM413 -108c25 0 44 -20 44 -44c0 -25 -19 -43 -44 -43s-44 18 -44 43c0 24 19 44 44 44z" />
    <glyph glyph-name="uni1ED2" unicode="&#x1ed2;" horiz-adv-x="824" 
d="M587 847l-124 134h63l108 -134h-47zM266 788l120 118h57l117 -118h-58l-87 85h-2l-90 -85h-57zM413 -5c-200 0 -353 147 -353 361c0 213 153 359 353 359c196 0 351 -144 351 -359c0 -216 -155 -361 -351 -361zM413 49c161 0 292 124 292 307c0 182 -131 305 -292 305
c-166 0 -295 -126 -295 -305c0 -181 129 -307 295 -307z" />
    <glyph glyph-name="uni1ED4" unicode="&#x1ed4;" horiz-adv-x="824" 
d="M547 851c37 26 80 52 80 80c0 25 -18 33 -46 33c-29 0 -65 -13 -84 -29l-12 33c25 17 62 33 105 33c46 0 81 -19 81 -67c0 -40 -47 -65 -76 -83h-48zM266 788l120 118h57l117 -118h-58l-87 85h-2l-90 -85h-57zM413 -5c-200 0 -353 147 -353 361c0 213 153 359 353 359
c196 0 351 -144 351 -359c0 -216 -155 -361 -351 -361zM413 49c161 0 292 124 292 307c0 182 -131 305 -292 305c-166 0 -295 -126 -295 -305c0 -181 129 -307 295 -307z" />
    <glyph glyph-name="uni1ED6" unicode="&#x1ed6;" horiz-adv-x="824" 
d="M494 925c-30 0 -58 20 -84 36c-21 15 -42 27 -63 27c-25 0 -46 -21 -58 -57l-37 15c18 50 48 83 93 83c32 0 55 -15 80 -30c21 -13 43 -32 66 -32s44 18 56 58l37 -13c-18 -59 -52 -87 -90 -87zM266 788l120 118h57l117 -118h-58l-87 85h-2l-90 -85h-57zM413 -5
c-200 0 -353 147 -353 361c0 213 153 359 353 359c196 0 351 -144 351 -359c0 -216 -155 -361 -351 -361zM413 49c161 0 292 124 292 307c0 182 -131 305 -292 305c-166 0 -295 -126 -295 -305c0 -181 129 -307 295 -307z" />
    <glyph glyph-name="Odieresis" unicode="&#xd6;" horiz-adv-x="824" 
d="M331 810c-24 0 -44 20 -44 43c0 25 20 43 44 43c25 0 44 -18 44 -43c0 -24 -19 -43 -44 -43zM496 810c-25 0 -44 20 -44 43c0 25 19 43 44 43s44 -18 44 -43c0 -24 -19 -43 -44 -43zM413 -5c-200 0 -353 147 -353 361c0 213 153 359 353 359c196 0 351 -144 351 -359
c0 -216 -155 -361 -351 -361zM413 49c161 0 292 124 292 307c0 182 -131 305 -292 305c-166 0 -295 -126 -295 -305c0 -181 129 -307 295 -307z" />
    <glyph glyph-name="uni1ECC" unicode="&#x1ecc;" horiz-adv-x="824" 
d="M413 -5c-200 0 -353 147 -353 361c0 213 153 359 353 359c196 0 351 -144 351 -359c0 -216 -155 -361 -351 -361zM413 49c161 0 292 124 292 307c0 182 -131 305 -292 305c-166 0 -295 -126 -295 -305c0 -181 129 -307 295 -307zM413 -108c25 0 44 -20 44 -44
c0 -25 -19 -43 -44 -43s-44 18 -44 43c0 24 19 44 44 44z" />
    <glyph glyph-name="Ograve" unicode="&#xd2;" horiz-adv-x="824" 
d="M392 788l-118 128h63l113 -128h-58zM413 -5c-200 0 -353 147 -353 361c0 213 153 359 353 359c196 0 351 -144 351 -359c0 -216 -155 -361 -351 -361zM413 49c161 0 292 124 292 307c0 182 -131 305 -292 305c-166 0 -295 -126 -295 -305c0 -181 129 -307 295 -307z" />
    <glyph glyph-name="uni1ECE" unicode="&#x1ece;" horiz-adv-x="824" 
d="M389 781c39 28 85 56 85 86c0 27 -20 36 -49 36c-31 0 -69 -14 -90 -31l-12 35c26 19 65 36 111 36c49 0 87 -21 87 -72c0 -43 -51 -71 -81 -90h-51zM413 -5c-200 0 -353 147 -353 361c0 213 153 359 353 359c196 0 351 -144 351 -359c0 -216 -155 -361 -351 -361z
M413 49c161 0 292 124 292 307c0 182 -131 305 -292 305c-166 0 -295 -126 -295 -305c0 -181 129 -307 295 -307z" />
    <glyph glyph-name="Ohorn" unicode="&#x1a0;" horiz-adv-x="864" 
d="M769 774h53v-75c0 -99 -36 -148 -102 -161c28 -52 44 -113 44 -182c0 -216 -155 -361 -351 -361c-200 0 -353 147 -353 361c0 213 153 359 353 359c117 0 220 -52 284 -139c53 7 72 43 72 125v73zM413 49c161 0 292 124 292 307c0 182 -131 305 -292 305
c-166 0 -295 -126 -295 -305c0 -181 129 -307 295 -307z" />
    <glyph glyph-name="uni1EDA" unicode="&#x1eda;" horiz-adv-x="864" 
d="M544 916l-118 -128h-57l113 128h62zM769 774h53v-75c0 -99 -36 -148 -102 -161c28 -52 44 -113 44 -182c0 -216 -155 -361 -351 -361c-200 0 -353 147 -353 361c0 213 153 359 353 359c117 0 220 -52 284 -139c53 7 72 43 72 125v73zM413 49c161 0 292 124 292 307
c0 182 -131 305 -292 305c-166 0 -295 -126 -295 -305c0 -181 129 -307 295 -307z" />
    <glyph glyph-name="uni1EE2" unicode="&#x1ee2;" horiz-adv-x="864" 
d="M769 774h53v-75c0 -99 -36 -148 -102 -161c28 -52 44 -113 44 -182c0 -216 -155 -361 -351 -361c-200 0 -353 147 -353 361c0 213 153 359 353 359c117 0 220 -52 284 -139c53 7 72 43 72 125v73zM413 49c161 0 292 124 292 307c0 182 -131 305 -292 305
c-166 0 -295 -126 -295 -305c0 -181 129 -307 295 -307zM413 -108c25 0 44 -20 44 -44c0 -25 -19 -43 -44 -43s-44 18 -44 43c0 24 19 44 44 44z" />
    <glyph glyph-name="uni1EDC" unicode="&#x1edc;" horiz-adv-x="864" 
d="M450 788h-58l-118 128h63zM769 774h53v-75c0 -99 -36 -148 -102 -161c28 -52 44 -113 44 -182c0 -216 -155 -361 -351 -361c-200 0 -353 147 -353 361c0 213 153 359 353 359c117 0 220 -52 284 -139c53 7 72 43 72 125v73zM413 49c161 0 292 124 292 307
c0 182 -131 305 -292 305c-166 0 -295 -126 -295 -305c0 -181 129 -307 295 -307z" />
    <glyph glyph-name="uni1EDE" unicode="&#x1ede;" horiz-adv-x="864" 
d="M425 903c-31 0 -69 -14 -90 -31l-12 35c26 19 65 36 111 36c49 0 87 -21 87 -72c0 -43 -51 -71 -81 -90h-51c39 28 85 56 85 86c0 27 -20 36 -49 36zM769 774h53v-75c0 -99 -36 -148 -102 -161c28 -52 44 -113 44 -182c0 -216 -155 -361 -351 -361
c-200 0 -353 147 -353 361c0 213 153 359 353 359c117 0 220 -52 284 -139c53 7 72 43 72 125v73zM413 49c161 0 292 124 292 307c0 182 -131 305 -292 305c-166 0 -295 -126 -295 -305c0 -181 129 -307 295 -307z" />
    <glyph glyph-name="uni1EE0" unicode="&#x1ee0;" horiz-adv-x="864" 
d="M341 852c-26 0 -47 -21 -60 -58l-37 15c18 52 48 86 94 86c33 0 57 -16 82 -31c22 -14 44 -33 68 -33c23 0 44 18 57 59l37 -13c-18 -60 -53 -89 -91 -89c-31 0 -60 20 -86 37c-22 15 -43 27 -64 27zM769 774h53v-75c0 -99 -36 -148 -102 -161c28 -52 44 -113 44 -182
c0 -216 -155 -361 -351 -361c-200 0 -353 147 -353 361c0 213 153 359 353 359c117 0 220 -52 284 -139c53 7 72 43 72 125v73zM413 49c161 0 292 124 292 307c0 182 -131 305 -292 305c-166 0 -295 -126 -295 -305c0 -181 129 -307 295 -307z" />
    <glyph glyph-name="Ohungarumlaut" unicode="&#x150;" horiz-adv-x="824" 
d="M313 789l119 138h60l-124 -138h-55zM460 789l119 138h60l-125 -138h-54zM413 -5c-200 0 -353 147 -353 361c0 213 153 359 353 359c196 0 351 -144 351 -359c0 -216 -155 -361 -351 -361zM413 49c161 0 292 124 292 307c0 182 -131 305 -292 305
c-166 0 -295 -126 -295 -305c0 -181 129 -307 295 -307z" />
    <glyph glyph-name="Omacron" unicode="&#x14c;" horiz-adv-x="824" 
d="M275 822v47h277v-47h-277zM413 -5c-200 0 -353 147 -353 361c0 213 153 359 353 359c196 0 351 -144 351 -359c0 -216 -155 -361 -351 -361zM413 49c161 0 292 124 292 307c0 182 -131 305 -292 305c-166 0 -295 -126 -295 -305c0 -181 129 -307 295 -307z" />
    <glyph glyph-name="uni01EA" unicode="&#x1ea;" horiz-adv-x="824" 
d="M456 -3c-46 -19 -75 -57 -75 -91c0 -29 17 -50 55 -50c28 0 37 4 53 12l5 -39c-17 -8 -37 -12 -66 -12c-56 0 -93 29 -93 80c0 31 20 68 58 97v2c-190 9 -333 153 -333 360c0 213 153 359 353 359c196 0 351 -144 351 -359c0 -200 -133 -339 -308 -359zM118 356
c0 -181 129 -307 295 -307c161 0 292 124 292 307c0 182 -131 305 -292 305c-166 0 -295 -126 -295 -305z" />
    <glyph glyph-name="Oslash" unicode="&#xd8;" horiz-adv-x="824" 
d="M677 600c54 -61 87 -145 87 -244c0 -216 -155 -361 -351 -361c-87 0 -166 28 -226 77l-85 -91l-37 33l86 92c-57 63 -91 149 -91 250c0 213 153 359 353 359c89 0 169 -29 230 -82l82 88l34 -32zM118 356c0 -83 27 -154 73 -208l413 443c-51 45 -118 70 -191 70
c-166 0 -295 -126 -295 -305zM413 49c161 0 292 124 292 307c0 81 -26 149 -68 201l-411 -443c50 -41 115 -65 187 -65z" />
    <glyph glyph-name="Oslashacute" unicode="&#x1fe;" horiz-adv-x="824" 
d="M544 916l-118 -128h-57l113 128h62zM677 600c54 -61 87 -145 87 -244c0 -216 -155 -361 -351 -361c-87 0 -166 28 -226 77l-85 -91l-37 33l86 92c-57 63 -91 149 -91 250c0 213 153 359 353 359c89 0 169 -29 230 -82l82 88l34 -32zM118 356c0 -83 27 -154 73 -208
l413 443c-51 45 -118 70 -191 70c-166 0 -295 -126 -295 -305zM413 49c161 0 292 124 292 307c0 81 -26 149 -68 201l-411 -443c50 -41 115 -65 187 -65z" />
    <glyph glyph-name="Otilde" unicode="&#xd5;" horiz-adv-x="824" 
d="M491 788c-31 0 -60 20 -86 37c-22 15 -43 27 -64 27c-26 0 -47 -21 -60 -58l-37 15c18 52 48 86 94 86c33 0 57 -16 82 -31c22 -14 44 -33 68 -33c23 0 44 18 57 59l37 -13c-18 -60 -53 -89 -91 -89zM413 -5c-200 0 -353 147 -353 361c0 213 153 359 353 359
c196 0 351 -144 351 -359c0 -216 -155 -361 -351 -361zM413 49c161 0 292 124 292 307c0 182 -131 305 -292 305c-166 0 -295 -126 -295 -305c0 -181 129 -307 295 -307z" />
    <glyph glyph-name="OE" unicode="&#x152;" horiz-adv-x="944" 
d="M509 52h389v-52h-482c-213 0 -356 160 -356 357c0 196 143 355 356 353h462v-52h-369v-278h310v-52h-310v-276zM416 54h39v602h-39c-165 2 -298 -122 -298 -299c0 -178 133 -304 298 -303z" />
    <glyph glyph-name="P" unicode="P" horiz-adv-x="598" 
d="M88 0v710h242c161 0 227 -90 227 -210c0 -148 -100 -213 -244 -213h-168v-287h-57zM145 340h163c137 0 190 69 190 160c0 105 -68 158 -170 158h-183v-318z" />
    <glyph glyph-name="Thorn" unicode="&#xde;" horiz-adv-x="616" 
d="M88 0v710h57v-149h203c162 0 227 -89 227 -210c0 -147 -100 -212 -244 -212h-186v-139h-57zM145 192h185c133 0 186 69 186 160c0 106 -67 157 -171 157h-200v-317z" />
    <glyph glyph-name="Q" unicode="Q" horiz-adv-x="836" 
d="M778 32l-33 -41l-98 89c-62 -54 -144 -85 -234 -85c-211 0 -353 158 -353 361c0 201 142 359 353 359c196 0 351 -144 351 -359c0 -96 -30 -178 -82 -239zM118 356c0 -173 121 -307 295 -307c74 0 140 26 191 70l-92 83l32 40l95 -86c41 53 66 121 66 200
c0 179 -128 305 -292 305c-174 0 -295 -134 -295 -305z" />
    <glyph glyph-name="R" unicode="R" horiz-adv-x="628" 
d="M88 0v710h243c159 0 228 -90 228 -210c0 -127 -75 -193 -194 -208l208 -292h-69l-202 287h-157v-287h-57zM145 340h166c136 0 189 69 189 160c0 105 -67 158 -174 158h-181v-318z" />
    <glyph glyph-name="Racute" unicode="&#x154;" horiz-adv-x="628" 
d="M227 788l113 128h62l-118 -128h-57zM88 0v710h243c159 0 228 -90 228 -210c0 -127 -75 -193 -194 -208l208 -292h-69l-202 287h-157v-287h-57zM145 340h166c136 0 189 69 189 160c0 105 -67 158 -174 158h-181v-318z" />
    <glyph glyph-name="Rcaron" unicode="&#x158;" horiz-adv-x="628" 
d="M278 788l-117 118h57l88 -85h2l89 85h58l-120 -118h-57zM88 0v710h243c159 0 228 -90 228 -210c0 -127 -75 -193 -194 -208l208 -292h-69l-202 287h-157v-287h-57zM145 340h166c136 0 189 69 189 160c0 105 -67 158 -174 158h-181v-318z" />
    <glyph glyph-name="Rcommaaccent" unicode="&#x156;" horiz-adv-x="628" 
d="M88 0v710h243c159 0 228 -90 228 -210c0 -127 -75 -193 -194 -208l208 -292h-69l-202 287h-157v-287h-57zM145 340h166c136 0 189 69 189 160c0 105 -67 158 -174 158h-181v-318zM236 -206l-14 34c53 7 64 34 64 68c0 17 -2 32 -6 50h50c3 -17 5 -34 5 -53
c0 -55 -33 -94 -99 -99z" />
    <glyph glyph-name="uni1E5A" unicode="&#x1e5a;" horiz-adv-x="628" 
d="M88 0v710h243c159 0 228 -90 228 -210c0 -127 -75 -193 -194 -208l208 -292h-69l-202 287h-157v-287h-57zM145 340h166c136 0 189 69 189 160c0 105 -67 158 -174 158h-181v-318zM314 -108c25 0 44 -20 44 -44c0 -25 -19 -43 -44 -43s-44 18 -44 43c0 24 19 44 44 44z
" />
    <glyph glyph-name="uni1E5C" unicode="&#x1e5c;" horiz-adv-x="628" 
d="M170 822v47h277v-47h-277zM88 0v710h243c159 0 228 -90 228 -210c0 -127 -75 -193 -194 -208l208 -292h-69l-202 287h-157v-287h-57zM145 340h166c136 0 189 69 189 160c0 105 -67 158 -174 158h-181v-318zM314 -108c25 0 44 -20 44 -44c0 -25 -19 -43 -44 -43
s-44 18 -44 43c0 24 19 44 44 44z" />
    <glyph glyph-name="uni1E5E" unicode="&#x1e5e;" horiz-adv-x="628" 
d="M88 0v710h243c159 0 228 -90 228 -210c0 -127 -75 -193 -194 -208l208 -292h-69l-202 287h-157v-287h-57zM145 340h166c136 0 189 69 189 160c0 105 -67 158 -174 158h-181v-318zM453 -183h-277v48h277v-48z" />
    <glyph glyph-name="S" unicode="S" horiz-adv-x="569" 
d="M288 -5c-88 0 -179 33 -245 109l38 44c51 -67 132 -99 209 -99c95 0 169 46 169 131c0 92 -79 116 -179 155c-102 39 -209 83 -209 203c0 101 89 177 210 177c74 0 152 -28 214 -78l-35 -45c-56 46 -122 71 -178 71c-77 0 -152 -43 -152 -123c0 -84 79 -114 170 -150
c116 -46 218 -77 218 -205c0 -117 -98 -190 -230 -190z" />
    <glyph glyph-name="Sacute" unicode="&#x15a;" horiz-adv-x="569" 
d="M233 788l113 128h62l-118 -128h-57zM288 -5c-88 0 -179 33 -245 109l38 44c51 -67 132 -99 209 -99c95 0 169 46 169 131c0 92 -79 116 -179 155c-102 39 -209 83 -209 203c0 101 89 177 210 177c74 0 152 -28 214 -78l-35 -45c-56 46 -122 71 -178 71
c-77 0 -152 -43 -152 -123c0 -84 79 -114 170 -150c116 -46 218 -77 218 -205c0 -117 -98 -190 -230 -190z" />
    <glyph glyph-name="Scaron" unicode="&#x160;" horiz-adv-x="569" 
d="M254 788l-117 118h57l88 -85h2l89 85h58l-120 -118h-57zM288 -5c-88 0 -179 33 -245 109l38 44c51 -67 132 -99 209 -99c95 0 169 46 169 131c0 92 -79 116 -179 155c-102 39 -209 83 -209 203c0 101 89 177 210 177c74 0 152 -28 214 -78l-35 -45
c-56 46 -122 71 -178 71c-77 0 -152 -43 -152 -123c0 -84 79 -114 170 -150c116 -46 218 -77 218 -205c0 -117 -98 -190 -230 -190z" />
    <glyph glyph-name="Scedilla" unicode="&#x15e;" horiz-adv-x="569" 
d="M295 -5l-12 -28v-1c46 -3 84 -30 84 -78c0 -40 -32 -74 -97 -74c-19 0 -37 2 -52 6v34c13 -4 27 -7 47 -7c31 0 61 14 61 44c0 24 -28 49 -83 49v25l15 31c-79 7 -157 41 -215 108l38 44c51 -67 132 -99 209 -99c95 0 169 46 169 131c0 92 -79 116 -179 155
c-102 39 -209 83 -209 203c0 101 89 177 210 177c74 0 152 -28 214 -78l-35 -45c-56 46 -122 71 -178 71c-77 0 -152 -43 -152 -123c0 -84 79 -114 170 -150c116 -46 218 -77 218 -205c0 -115 -94 -187 -223 -190z" />
    <glyph glyph-name="Scircumflex" unicode="&#x15c;" horiz-adv-x="569" 
d="M137 788l120 118h57l117 -118h-58l-87 85h-2l-90 -85h-57zM288 -5c-88 0 -179 33 -245 109l38 44c51 -67 132 -99 209 -99c95 0 169 46 169 131c0 92 -79 116 -179 155c-102 39 -209 83 -209 203c0 101 89 177 210 177c74 0 152 -28 214 -78l-35 -45
c-56 46 -122 71 -178 71c-77 0 -152 -43 -152 -123c0 -84 79 -114 170 -150c116 -46 218 -77 218 -205c0 -117 -98 -190 -230 -190z" />
    <glyph glyph-name="Scommaaccent" unicode="&#x218;" horiz-adv-x="569" 
d="M288 -5c-88 0 -179 33 -245 109l38 44c51 -67 132 -99 209 -99c95 0 169 46 169 131c0 92 -79 116 -179 155c-102 39 -209 83 -209 203c0 101 89 177 210 177c74 0 152 -28 214 -78l-35 -45c-56 46 -122 71 -178 71c-77 0 -152 -43 -152 -123c0 -84 79 -114 170 -150
c116 -46 218 -77 218 -205c0 -117 -98 -190 -230 -190zM220 -206l-14 34c53 7 64 34 64 68c0 17 -2 32 -6 50h50c3 -17 5 -34 5 -53c0 -55 -33 -94 -99 -99z" />
    <glyph glyph-name="uni1E60" unicode="&#x1e60;" horiz-adv-x="569" 
d="M285 809c-25 0 -44 20 -44 44c0 25 19 43 44 43s44 -18 44 -43c0 -24 -19 -44 -44 -44zM288 -5c-88 0 -179 33 -245 109l38 44c51 -67 132 -99 209 -99c95 0 169 46 169 131c0 92 -79 116 -179 155c-102 39 -209 83 -209 203c0 101 89 177 210 177c74 0 152 -28 214 -78
l-35 -45c-56 46 -122 71 -178 71c-77 0 -152 -43 -152 -123c0 -84 79 -114 170 -150c116 -46 218 -77 218 -205c0 -117 -98 -190 -230 -190z" />
    <glyph glyph-name="uni1E62" unicode="&#x1e62;" horiz-adv-x="569" 
d="M288 -5c-88 0 -179 33 -245 109l38 44c51 -67 132 -99 209 -99c95 0 169 46 169 131c0 92 -79 116 -179 155c-102 39 -209 83 -209 203c0 101 89 177 210 177c74 0 152 -28 214 -78l-35 -45c-56 46 -122 71 -178 71c-77 0 -152 -43 -152 -123c0 -84 79 -114 170 -150
c116 -46 218 -77 218 -205c0 -117 -98 -190 -230 -190zM298 -108c25 0 44 -20 44 -44c0 -25 -19 -43 -44 -43s-44 18 -44 43c0 24 19 44 44 44z" />
    <glyph glyph-name="uni1E9E" unicode="&#x1e9e;" horiz-adv-x="718" 
d="M464 390c117 -45 219 -77 219 -205c0 -117 -99 -190 -227 -190c-78 0 -162 29 -227 94l28 53c52 -63 129 -93 201 -93c91 0 166 46 166 131c0 92 -79 117 -179 155c-30 11 -63 25 -94 40l143 265l-1 3c-60 12 -129 20 -187 20c-128 0 -185 -49 -186 -163v-500h-57l1 504
c0 146 80 211 235 211c73 0 181 -14 275 -37l-147 -273z" />
    <glyph glyph-name="uni018F" unicode="&#x18f;" horiz-adv-x="770" 
d="M362 715c224 0 350 -160 350 -359c0 -214 -143 -361 -337 -361c-183 0 -330 115 -330 330c0 12 1 21 2 30h605v1c0 178 -108 305 -294 305c-87 0 -161 -26 -232 -81l-34 44c75 59 166 92 270 91zM374 49c146 0 256 98 275 254h-546c3 -155 116 -254 271 -254z" />
    <glyph glyph-name="T" unicode="T" horiz-adv-x="558" 
d="M249 0v658h-222v52h504v-52h-225v-658h-57z" />
    <glyph glyph-name="Tbar" unicode="&#x166;" horiz-adv-x="558" 
d="M531 658h-225v-270h122v-46h-122v-342h-57v342h-119v46h119v270h-222v52h504v-52z" />
    <glyph glyph-name="Tcaron" unicode="&#x164;" horiz-adv-x="558" 
d="M248 788l-117 118h57l88 -85h2l89 85h58l-120 -118h-57zM249 0v658h-222v52h504v-52h-225v-658h-57z" />
    <glyph glyph-name="Tdieresis" horiz-adv-x="558" 
d="M194 828c-24 0 -44 20 -44 43c0 25 20 43 44 43c25 0 44 -18 44 -43c0 -24 -19 -43 -44 -43zM359 828c-25 0 -44 20 -44 43c0 25 19 43 44 43s44 -18 44 -43c0 -24 -19 -43 -44 -43zM249 0v658h-222v52h504v-52h-225v-658h-57z" />
    <glyph glyph-name="uni1E6C" unicode="&#x1e6c;" horiz-adv-x="558" 
d="M249 0v658h-222v52h504v-52h-225v-658h-57zM286 -108c25 0 44 -20 44 -44c0 -25 -19 -43 -44 -43s-44 18 -44 43c0 24 19 44 44 44z" />
    <glyph glyph-name="uni1E6E" unicode="&#x1e6e;" horiz-adv-x="558" 
d="M249 0v658h-222v52h504v-52h-225v-658h-57zM425 -183h-277v48h277v-48z" />
    <glyph glyph-name="U" unicode="U" horiz-adv-x="695" 
d="M347 -5c-158 0 -267 108 -267 291v424h56v-421c0 -148 84 -239 211 -239c125 0 212 88 212 239v421h57v-424c0 -181 -108 -291 -269 -291z" />
    <glyph glyph-name="Uacute" unicode="&#xda;" horiz-adv-x="695" 
d="M289 788l113 128h62l-118 -128h-57zM347 -5c-158 0 -267 108 -267 291v424h56v-421c0 -148 84 -239 211 -239c125 0 212 88 212 239v421h57v-424c0 -181 -108 -291 -269 -291z" />
    <glyph glyph-name="Ubreve" unicode="&#x16c;" horiz-adv-x="695" 
d="M348 783c-74 0 -128 49 -134 123h44c4 -40 36 -78 90 -78s86 38 89 78h45c-7 -74 -60 -123 -134 -123zM347 -5c-158 0 -267 108 -267 291v424h56v-421c0 -148 84 -239 211 -239c125 0 212 88 212 239v421h57v-424c0 -181 -108 -291 -269 -291z" />
    <glyph glyph-name="Ucircumflex" unicode="&#xdb;" horiz-adv-x="695" 
d="M201 788l120 118h57l117 -118h-58l-87 85h-2l-90 -85h-57zM347 -5c-158 0 -267 108 -267 291v424h56v-421c0 -148 84 -239 211 -239c125 0 212 88 212 239v421h57v-424c0 -181 -108 -291 -269 -291z" />
    <glyph glyph-name="Udieresis" unicode="&#xdc;" horiz-adv-x="695" 
d="M266 810c-24 0 -44 20 -44 43c0 25 20 43 44 43c25 0 44 -18 44 -43c0 -24 -19 -43 -44 -43zM431 810c-25 0 -44 20 -44 43c0 25 19 43 44 43s44 -18 44 -43c0 -24 -19 -43 -44 -43zM347 -5c-158 0 -267 108 -267 291v424h56v-421c0 -148 84 -239 211 -239
c125 0 212 88 212 239v421h57v-424c0 -181 -108 -291 -269 -291z" />
    <glyph glyph-name="uni1EE4" unicode="&#x1ee4;" horiz-adv-x="695" 
d="M347 -5c-158 0 -267 108 -267 291v424h56v-421c0 -148 84 -239 211 -239c125 0 212 88 212 239v421h57v-424c0 -181 -108 -291 -269 -291zM347 -108c25 0 44 -20 44 -44c0 -25 -19 -43 -44 -43s-44 18 -44 43c0 24 19 44 44 44z" />
    <glyph glyph-name="Ugrave" unicode="&#xd9;" horiz-adv-x="695" 
d="M338 788l-118 128h63l113 -128h-58zM347 -5c-158 0 -267 108 -267 291v424h56v-421c0 -148 84 -239 211 -239c125 0 212 88 212 239v421h57v-424c0 -181 -108 -291 -269 -291z" />
    <glyph glyph-name="uni1EE6" unicode="&#x1ee6;" horiz-adv-x="695" 
d="M324 781c39 28 85 56 85 86c0 27 -20 36 -49 36c-31 0 -69 -14 -90 -31l-12 35c26 19 65 36 111 36c49 0 87 -21 87 -72c0 -43 -51 -71 -81 -90h-51zM347 -5c-158 0 -267 108 -267 291v424h56v-421c0 -148 84 -239 211 -239c125 0 212 88 212 239v421h57v-424
c0 -181 -108 -291 -269 -291z" />
    <glyph glyph-name="Uhorn" unicode="&#x1af;" horiz-adv-x="766" 
d="M696 774h53v-75c0 -113 -47 -162 -133 -164v-249c0 -181 -108 -291 -269 -291c-158 0 -267 108 -267 291v424h56v-421c0 -148 84 -239 211 -239c125 0 212 88 212 239v421h57v-135c60 5 80 40 80 126v73z" />
    <glyph glyph-name="uni1EE8" unicode="&#x1ee8;" horiz-adv-x="766" 
d="M464 916l-118 -128h-57l113 128h62zM696 774h53v-75c0 -113 -47 -162 -133 -164v-249c0 -181 -108 -291 -269 -291c-158 0 -267 108 -267 291v424h56v-421c0 -148 84 -239 211 -239c125 0 212 88 212 239v421h57v-135c60 5 80 40 80 126v73z" />
    <glyph glyph-name="uni1EF0" unicode="&#x1ef0;" horiz-adv-x="766" 
d="M696 774h53v-75c0 -113 -47 -162 -133 -164v-249c0 -181 -108 -291 -269 -291c-158 0 -267 108 -267 291v424h56v-421c0 -148 84 -239 211 -239c125 0 212 88 212 239v421h57v-135c60 5 80 40 80 126v73zM347 -108c25 0 44 -20 44 -44c0 -25 -19 -43 -44 -43
s-44 18 -44 43c0 24 19 44 44 44z" />
    <glyph glyph-name="uni1EEA" unicode="&#x1eea;" horiz-adv-x="766" 
d="M396 788h-58l-118 128h63zM696 774h53v-75c0 -113 -47 -162 -133 -164v-249c0 -181 -108 -291 -269 -291c-158 0 -267 108 -267 291v424h56v-421c0 -148 84 -239 211 -239c125 0 212 88 212 239v421h57v-135c60 5 80 40 80 126v73z" />
    <glyph glyph-name="uni1EEC" unicode="&#x1eec;" horiz-adv-x="766" 
d="M360 903c-31 0 -69 -14 -90 -31l-12 35c26 19 65 36 111 36c49 0 87 -21 87 -72c0 -43 -51 -71 -81 -90h-51c39 28 85 56 85 86c0 27 -20 36 -49 36zM696 774h53v-75c0 -113 -47 -162 -133 -164v-249c0 -181 -108 -291 -269 -291c-158 0 -267 108 -267 291v424h56v-421
c0 -148 84 -239 211 -239c125 0 212 88 212 239v421h57v-135c60 5 80 40 80 126v73z" />
    <glyph glyph-name="uni1EEE" unicode="&#x1eee;" horiz-adv-x="766" 
d="M276 852c-26 0 -47 -21 -60 -58l-37 15c18 52 48 86 94 86c33 0 57 -16 82 -31c22 -14 44 -33 68 -33c23 0 44 18 57 59l37 -13c-18 -60 -53 -89 -91 -89c-31 0 -60 20 -86 37c-22 15 -43 27 -64 27zM696 774h53v-75c0 -113 -47 -162 -133 -164v-249
c0 -181 -108 -291 -269 -291c-158 0 -267 108 -267 291v424h56v-421c0 -148 84 -239 211 -239c125 0 212 88 212 239v421h57v-135c60 5 80 40 80 126v73z" />
    <glyph glyph-name="Uhungarumlaut" unicode="&#x170;" horiz-adv-x="695" 
d="M248 789l119 138h60l-124 -138h-55zM395 789l119 138h60l-125 -138h-54zM347 -5c-158 0 -267 108 -267 291v424h56v-421c0 -148 84 -239 211 -239c125 0 212 88 212 239v421h57v-424c0 -181 -108 -291 -269 -291z" />
    <glyph glyph-name="Umacron" unicode="&#x16a;" horiz-adv-x="695" 
d="M210 822v47h277v-47h-277zM347 -5c-158 0 -267 108 -267 291v424h56v-421c0 -148 84 -239 211 -239c125 0 212 88 212 239v421h57v-424c0 -181 -108 -291 -269 -291z" />
    <glyph glyph-name="Uogonek" unicode="&#x172;" horiz-adv-x="695" 
d="M559 710h57v-424c0 -158 -82 -262 -210 -286c-47 -21 -77 -57 -77 -92c0 -29 17 -49 55 -49c28 0 37 3 53 11l5 -38c-17 -9 -37 -13 -66 -13c-57 0 -92 29 -92 80c0 30 18 66 54 95v1c-153 4 -258 111 -258 291v424h56v-421c0 -148 84 -239 211 -239
c125 0 212 88 212 239v421z" />
    <glyph glyph-name="Uring" unicode="&#x16e;" horiz-adv-x="695" 
d="M348 773c-46 0 -86 37 -86 84c0 46 38 84 86 84c46 0 86 -37 86 -84c0 -46 -38 -84 -86 -84zM348 811c25 0 47 21 47 46c0 26 -22 47 -47 47c-26 0 -47 -22 -47 -47s21 -46 47 -46zM347 -5c-158 0 -267 108 -267 291v424h56v-421c0 -148 84 -239 211 -239
c125 0 212 88 212 239v421h57v-424c0 -181 -108 -291 -269 -291z" />
    <glyph glyph-name="Utilde" unicode="&#x168;" horiz-adv-x="695" 
d="M426 788c-31 0 -60 20 -86 37c-22 15 -43 27 -64 27c-26 0 -47 -21 -60 -58l-37 15c18 52 48 86 94 86c33 0 57 -16 82 -31c22 -14 44 -33 68 -33c23 0 44 18 57 59l37 -13c-18 -60 -53 -89 -91 -89zM347 -5c-158 0 -267 108 -267 291v424h56v-421
c0 -148 84 -239 211 -239c125 0 212 88 212 239v421h57v-424c0 -181 -108 -291 -269 -291z" />
    <glyph glyph-name="V" unicode="V" horiz-adv-x="651" 
d="M300 0l-270 710h61l235 -626h2l234 626h61l-270 -710h-53z" />
    <glyph glyph-name="W" unicode="W" horiz-adv-x="1006" 
d="M262 0l-229 710h61l196 -619h1l180 619h64l179 -619h1l197 619h61l-228 -710h-59l-182 628h-1l-183 -628h-58z" />
    <glyph glyph-name="Wacute" unicode="&#x1e82;" horiz-adv-x="1006" 
d="M474 788l113 128h62l-118 -128h-57zM262 0l-229 710h61l196 -619h1l180 619h64l179 -619h1l197 619h61l-228 -710h-59l-182 628h-1l-183 -628h-58z" />
    <glyph glyph-name="Wcircumflex" unicode="&#x174;" horiz-adv-x="1006" 
d="M356 788l120 118h57l117 -118h-58l-87 85h-2l-90 -85h-57zM262 0l-229 710h61l196 -619h1l180 619h64l179 -619h1l197 619h61l-228 -710h-59l-182 628h-1l-183 -628h-58z" />
    <glyph glyph-name="Wdieresis" unicode="&#x1e84;" horiz-adv-x="1006" 
d="M421 810c-24 0 -44 20 -44 43c0 25 20 43 44 43c25 0 44 -18 44 -43c0 -24 -19 -43 -44 -43zM586 810c-25 0 -44 20 -44 43c0 25 19 43 44 43s44 -18 44 -43c0 -24 -19 -43 -44 -43zM262 0l-229 710h61l196 -619h1l180 619h64l179 -619h1l197 619h61l-228 -710h-59
l-182 628h-1l-183 -628h-58z" />
    <glyph glyph-name="Wgrave" unicode="&#x1e80;" horiz-adv-x="1006" 
d="M478 788l-118 128h63l113 -128h-58zM262 0l-229 710h61l196 -619h1l180 619h64l179 -619h1l197 619h61l-228 -710h-59l-182 628h-1l-183 -628h-58z" />
    <glyph glyph-name="X" unicode="X" horiz-adv-x="635" 
d="M33 0l248 355l-247 355h67l217 -310h1l216 310h66l-246 -355l248 -355h-68l-216 307h-2l-217 -307h-67z" />
    <glyph glyph-name="Y" unicode="Y" horiz-adv-x="580" 
d="M261 0v320l-244 390h66l205 -331h2l207 331h66l-245 -390v-320h-57z" />
    <glyph glyph-name="Yacute" unicode="&#xdd;" horiz-adv-x="580" 
d="M252 788l113 128h62l-118 -128h-57zM261 0v320l-244 390h66l205 -331h2l207 331h66l-245 -390v-320h-57z" />
    <glyph glyph-name="Ycircumflex" unicode="&#x176;" horiz-adv-x="580" 
d="M143 788l120 118h57l117 -118h-58l-87 85h-2l-90 -85h-57zM261 0v320l-244 390h66l205 -331h2l207 331h66l-245 -390v-320h-57z" />
    <glyph glyph-name="Ydieresis" unicode="&#x178;" horiz-adv-x="580" 
d="M208 810c-24 0 -44 20 -44 43c0 25 20 43 44 43c25 0 44 -18 44 -43c0 -24 -19 -43 -44 -43zM373 810c-25 0 -44 20 -44 43c0 25 19 43 44 43s44 -18 44 -43c0 -24 -19 -43 -44 -43zM261 0v320l-244 390h66l205 -331h2l207 331h66l-245 -390v-320h-57z" />
    <glyph glyph-name="uni1E8E" unicode="&#x1e8e;" horiz-adv-x="580" 
d="M291 809c-25 0 -44 20 -44 44c0 25 19 43 44 43s44 -18 44 -43c0 -24 -19 -44 -44 -44zM261 0v320l-244 390h66l205 -331h2l207 331h66l-245 -390v-320h-57z" />
    <glyph glyph-name="uni1EF4" unicode="&#x1ef4;" horiz-adv-x="580" 
d="M261 0v320l-244 390h66l205 -331h2l207 331h66l-245 -390v-320h-57zM289 -108c25 0 44 -20 44 -44c0 -25 -19 -43 -44 -43s-44 18 -44 43c0 24 19 44 44 44z" />
    <glyph glyph-name="Ygrave" unicode="&#x1ef2;" horiz-adv-x="580" 
d="M292 788l-118 128h63l113 -128h-58zM261 0v320l-244 390h66l205 -331h2l207 331h66l-245 -390v-320h-57z" />
    <glyph glyph-name="uni1EF6" unicode="&#x1ef6;" horiz-adv-x="580" 
d="M266 781c39 28 85 56 85 86c0 27 -20 36 -49 36c-31 0 -69 -14 -90 -31l-12 35c26 19 65 36 111 36c49 0 87 -21 87 -72c0 -43 -51 -71 -81 -90h-51zM261 0v320l-244 390h66l205 -331h2l207 331h66l-245 -390v-320h-57z" />
    <glyph glyph-name="uni0232" unicode="&#x232;" horiz-adv-x="580" 
d="M152 822v47h277v-47h-277zM261 0v320l-244 390h66l205 -331h2l207 331h66l-245 -390v-320h-57z" />
    <glyph glyph-name="uni1EF8" unicode="&#x1ef8;" horiz-adv-x="580" 
d="M368 788c-31 0 -60 20 -86 37c-22 15 -43 27 -64 27c-26 0 -47 -21 -60 -58l-37 15c18 52 48 86 94 86c33 0 57 -16 82 -31c22 -14 44 -33 68 -33c23 0 44 18 57 59l37 -13c-18 -60 -53 -89 -91 -89zM261 0v320l-244 390h66l205 -331h2l207 331h66l-245 -390v-320h-57z
" />
    <glyph glyph-name="Z" unicode="Z" horiz-adv-x="601" 
d="M56 0v47l405 609l-1 2h-380v52h456v-47l-407 -609l2 -2h408v-52h-483z" />
    <glyph glyph-name="Zacute" unicode="&#x179;" horiz-adv-x="601" 
d="M216 788l113 128h62l-118 -128h-57zM56 0v47l405 609l-1 2h-380v52h456v-47l-407 -609l2 -2h408v-52h-483z" />
    <glyph glyph-name="Zcaron" unicode="&#x17d;" horiz-adv-x="601" 
d="M267 788l-117 118h57l88 -85h2l89 85h58l-120 -118h-57zM56 0v47l405 609l-1 2h-380v52h456v-47l-407 -609l2 -2h408v-52h-483z" />
    <glyph glyph-name="Zdotaccent" unicode="&#x17b;" horiz-adv-x="601" 
d="M298 809c-25 0 -44 20 -44 44c0 25 19 43 44 43s44 -18 44 -43c0 -24 -19 -44 -44 -44zM56 0v47l405 609l-1 2h-380v52h456v-47l-407 -609l2 -2h408v-52h-483z" />
    <glyph glyph-name="uni1E92" unicode="&#x1e92;" horiz-adv-x="601" 
d="M56 0v47l405 609l-1 2h-380v52h456v-47l-407 -609l2 -2h408v-52h-483zM297 -108c25 0 44 -20 44 -44c0 -25 -19 -43 -44 -43s-44 18 -44 43c0 24 19 44 44 44z" />
    <glyph glyph-name="uni01D3" unicode="&#x1d3;" horiz-adv-x="695" 
d="M318 788l-117 118h57l88 -85h2l89 85h58l-120 -118h-57zM347 -5c-158 0 -267 108 -267 291v424h56v-421c0 -148 84 -239 211 -239c125 0 212 88 212 239v421h57v-424c0 -181 -108 -291 -269 -291z" />
    <glyph glyph-name="uni01D5" unicode="&#x1d5;" horiz-adv-x="695" 
d="M210 946v42h277v-42h-277zM268 796c-24 0 -43 19 -43 42c0 24 19 41 43 41s42 -17 42 -41c0 -23 -18 -42 -42 -42zM426 796c-24 0 -43 19 -43 42c0 24 19 41 43 41s42 -17 42 -41c0 -23 -18 -42 -42 -42zM347 -5c-158 0 -267 108 -267 291v424h56v-421
c0 -148 84 -239 211 -239c125 0 212 88 212 239v421h57v-424c0 -181 -108 -291 -269 -291z" />
    <glyph glyph-name="uni01D7" unicode="&#x1d7;" horiz-adv-x="695" 
d="M327 897l110 131h62l-124 -131h-48zM268 796c-24 0 -43 19 -43 42c0 24 19 41 43 41s42 -17 42 -41c0 -23 -18 -42 -42 -42zM426 796c-24 0 -43 19 -43 42c0 24 19 41 43 41s42 -17 42 -41c0 -23 -18 -42 -42 -42zM347 -5c-158 0 -267 108 -267 291v424h56v-421
c0 -148 84 -239 211 -239c125 0 212 88 212 239v421h57v-424c0 -181 -108 -291 -269 -291z" />
    <glyph glyph-name="uni01D9" unicode="&#x1d9;" horiz-adv-x="695" 
d="M323 911l-117 118h57l88 -85h2l89 85h58l-120 -118h-57zM268 796c-24 0 -43 19 -43 42c0 24 19 41 43 41s42 -17 42 -41c0 -23 -18 -42 -42 -42zM426 796c-24 0 -43 19 -43 42c0 24 19 41 43 41s42 -17 42 -41c0 -23 -18 -42 -42 -42zM347 -5c-158 0 -267 108 -267 291
v424h56v-421c0 -148 84 -239 211 -239c125 0 212 88 212 239v421h57v-424c0 -181 -108 -291 -269 -291z" />
    <glyph glyph-name="uni01DB" unicode="&#x1db;" horiz-adv-x="695" 
d="M325 897l-125 131h63l109 -131h-47zM268 796c-24 0 -43 19 -43 42c0 24 19 41 43 41s42 -17 42 -41c0 -23 -18 -42 -42 -42zM426 796c-24 0 -43 19 -43 42c0 24 19 41 43 41s42 -17 42 -41c0 -23 -18 -42 -42 -42zM347 -5c-158 0 -267 108 -267 291v424h56v-421
c0 -148 84 -239 211 -239c125 0 212 88 212 239v421h57v-424c0 -181 -108 -291 -269 -291z" />
    <glyph glyph-name="uni1E30" unicode="&#x1e30;" horiz-adv-x="630" 
d="M248 788l113 128h62l-118 -128h-57zM88 0v710h57v-434h2l368 434h73l-283 -329l289 -381h-71l-255 336l-123 -143v-193h-57z" />
    <glyph glyph-name="Q.alt" horiz-adv-x="823" 
d="M764 356c0 -149 -74 -265 -184 -322l152 -126l-34 -43l-173 147c-35 -11 -73 -17 -112 -17c-211 0 -353 158 -353 361c0 201 142 359 353 359c196 0 351 -144 351 -359zM118 356c0 -170 119 -307 295 -307c161 0 292 124 292 307c0 182 -131 305 -292 305
c-176 0 -295 -136 -295 -305z" />
    <glyph glyph-name="a" unicode="a" horiz-adv-x="598" 
d="M283 -5c-133 0 -239 97 -239 244c0 141 99 251 239 251c82 0 153 -43 189 -115h1v110h53v-485h-51v109l-2 1c-35 -69 -102 -115 -190 -115zM289 45c102 0 186 77 186 193c0 113 -76 203 -185 203c-106 0 -191 -80 -191 -203c0 -108 76 -193 190 -193z" />
    <glyph glyph-name="aacute" unicode="&#xe1;" horiz-adv-x="598" 
d="M270 560l120 138h63l-124 -138h-59zM283 -5c-133 0 -239 97 -239 244c0 141 99 251 239 251c82 0 153 -43 189 -115h1v110h53v-485h-51v109l-2 1c-35 -69 -102 -115 -190 -115zM289 45c102 0 186 77 186 193c0 113 -76 203 -185 203c-106 0 -191 -80 -191 -203
c0 -108 76 -193 190 -193z" />
    <glyph glyph-name="abreve" unicode="&#x103;" horiz-adv-x="598" 
d="M293 557c-74 0 -128 48 -134 134h44c4 -50 35 -90 90 -90c54 0 86 40 89 90h45c-7 -86 -60 -134 -134 -134zM283 -5c-133 0 -239 97 -239 244c0 141 99 251 239 251c82 0 153 -43 189 -115h1v110h53v-485h-51v109l-2 1c-35 -69 -102 -115 -190 -115zM289 45
c102 0 186 77 186 193c0 113 -76 203 -185 203c-106 0 -191 -80 -191 -203c0 -108 76 -193 190 -193z" />
    <glyph glyph-name="uni1EAF" unicode="&#x1eaf;" horiz-adv-x="598" 
d="M262 698l109 138h63l-125 -138h-47zM293 557c-74 0 -128 48 -134 134h44c4 -50 35 -90 90 -90c54 0 86 40 89 90h45c-7 -86 -60 -134 -134 -134zM283 -5c-133 0 -239 97 -239 244c0 141 99 251 239 251c82 0 153 -43 189 -115h1v110h53v-485h-51v109l-2 1
c-35 -69 -102 -115 -190 -115zM289 45c102 0 186 77 186 193c0 113 -76 203 -185 203c-106 0 -191 -80 -191 -203c0 -108 76 -193 190 -193z" />
    <glyph glyph-name="uni1EB7" unicode="&#x1eb7;" horiz-adv-x="598" 
d="M293 557c-74 0 -128 48 -134 134h44c4 -50 35 -90 90 -90c54 0 86 40 89 90h45c-7 -86 -60 -134 -134 -134zM283 -5c-133 0 -239 97 -239 244c0 141 99 251 239 251c82 0 153 -43 189 -115h1v110h53v-485h-51v109l-2 1c-35 -69 -102 -115 -190 -115zM289 45
c102 0 186 77 186 193c0 113 -76 203 -185 203c-106 0 -191 -80 -191 -203c0 -108 76 -193 190 -193zM291 -108c25 0 44 -20 44 -44c0 -25 -19 -43 -44 -43s-44 18 -44 43c0 24 19 44 44 44z" />
    <glyph glyph-name="uni1EB1" unicode="&#x1eb1;" horiz-adv-x="598" 
d="M284 698l-124 138h62l109 -138h-47zM293 557c-74 0 -128 48 -134 134h44c4 -50 35 -90 90 -90c54 0 86 40 89 90h45c-7 -86 -60 -134 -134 -134zM283 -5c-133 0 -239 97 -239 244c0 141 99 251 239 251c82 0 153 -43 189 -115h1v110h53v-485h-51v109l-2 1
c-35 -69 -102 -115 -190 -115zM289 45c102 0 186 77 186 193c0 113 -76 203 -185 203c-106 0 -191 -80 -191 -203c0 -108 76 -193 190 -193z" />
    <glyph glyph-name="uni1EB3" unicode="&#x1eb3;" horiz-adv-x="598" 
d="M260 683c42 28 87 62 87 95c0 26 -20 35 -47 35c-30 0 -62 -12 -86 -31l-11 33c25 20 62 37 106 37c46 0 82 -20 82 -70c0 -45 -52 -81 -82 -99h-49zM292 558c-75 0 -130 47 -136 131h45c4 -49 35 -88 91 -88c55 0 87 39 90 88h46c-7 -84 -61 -131 -136 -131zM283 -5
c-133 0 -239 97 -239 244c0 141 99 251 239 251c82 0 153 -43 189 -115h1v110h53v-485h-51v109l-2 1c-35 -69 -102 -115 -190 -115zM289 45c102 0 186 77 186 193c0 113 -76 203 -185 203c-106 0 -191 -80 -191 -203c0 -108 76 -193 190 -193z" />
    <glyph glyph-name="uni1EB5" unicode="&#x1eb5;" horiz-adv-x="598" 
d="M164 745l-37 14c18 54 45 87 91 87c27 0 49 -11 76 -28c29 -18 48 -33 69 -33c31 0 48 20 60 58l37 -12c-17 -57 -47 -90 -92 -90c-31 0 -60 20 -85 37c-22 14 -41 25 -61 24c-24 0 -45 -21 -58 -57zM293 557c-74 0 -128 48 -134 134h44c4 -50 35 -90 90 -90
c54 0 86 40 89 90h45c-7 -86 -60 -134 -134 -134zM283 -5c-133 0 -239 97 -239 244c0 141 99 251 239 251c82 0 153 -43 189 -115h1v110h53v-485h-51v109l-2 1c-35 -69 -102 -115 -190 -115zM289 45c102 0 186 77 186 193c0 113 -76 203 -185 203c-106 0 -191 -80 -191 -203
c0 -108 76 -193 190 -193z" />
    <glyph glyph-name="uni01CE" unicode="&#x1ce;" horiz-adv-x="598" 
d="M263 559l-116 134h56l88 -99h2l89 99h57l-119 -134h-57zM283 -5c-133 0 -239 97 -239 244c0 141 99 251 239 251c82 0 153 -43 189 -115h1v110h53v-485h-51v109l-2 1c-35 -69 -102 -115 -190 -115zM289 45c102 0 186 77 186 193c0 113 -76 203 -185 203
c-106 0 -191 -80 -191 -203c0 -108 76 -193 190 -193z" />
    <glyph glyph-name="acircumflex" unicode="&#xe2;" horiz-adv-x="598" 
d="M147 560l119 133h57l116 -133h-57l-86 98h-2l-90 -98h-57zM283 -5c-133 0 -239 97 -239 244c0 141 99 251 239 251c82 0 153 -43 189 -115h1v110h53v-485h-51v109l-2 1c-35 -69 -102 -115 -190 -115zM289 45c102 0 186 77 186 193c0 113 -76 203 -185 203
c-106 0 -191 -80 -191 -203c0 -108 76 -193 190 -193z" />
    <glyph glyph-name="uni1EA5" unicode="&#x1ea5;" horiz-adv-x="598" 
d="M403 643l110 138h62l-124 -138h-48zM149 561l119 133h57l116 -133h-57l-86 98h-2l-90 -98h-57zM283 -5c-133 0 -239 97 -239 244c0 141 99 251 239 251c82 0 153 -43 189 -115h1v110h53v-485h-51v109l-2 1c-35 -69 -102 -115 -190 -115zM289 45c102 0 186 77 186 193
c0 113 -76 203 -185 203c-106 0 -191 -80 -191 -203c0 -108 76 -193 190 -193z" />
    <glyph glyph-name="uni1EAD" unicode="&#x1ead;" horiz-adv-x="598" 
d="M147 560l119 133h57l116 -133h-57l-86 98h-2l-90 -98h-57zM283 -5c-133 0 -239 97 -239 244c0 141 99 251 239 251c82 0 153 -43 189 -115h1v110h53v-485h-51v109l-2 1c-35 -69 -102 -115 -190 -115zM289 45c102 0 186 77 186 193c0 113 -76 203 -185 203
c-106 0 -191 -80 -191 -203c0 -108 76 -193 190 -193zM291 -108c25 0 44 -20 44 -44c0 -25 -19 -43 -44 -43s-44 18 -44 43c0 24 19 44 44 44z" />
    <glyph glyph-name="uni1EA7" unicode="&#x1ea7;" horiz-adv-x="598" 
d="M458 643l-125 138h63l109 -138h-47zM146 561l119 133h57l116 -133h-57l-86 98h-2l-90 -98h-57zM283 -5c-133 0 -239 97 -239 244c0 141 99 251 239 251c82 0 153 -43 189 -115h1v110h53v-485h-51v109l-2 1c-35 -69 -102 -115 -190 -115zM289 45c102 0 186 77 186 193
c0 113 -76 203 -185 203c-106 0 -191 -80 -191 -203c0 -108 76 -193 190 -193z" />
    <glyph glyph-name="uni1EA9" unicode="&#x1ea9;" horiz-adv-x="598" 
d="M419 642c42 28 87 62 87 95c0 26 -20 35 -47 35c-30 0 -62 -12 -86 -31l-11 33c25 20 62 37 106 37c46 0 82 -20 82 -70c0 -45 -52 -81 -82 -99h-49zM146 560l119 133h57l116 -133h-57l-86 98h-2l-90 -98h-57zM283 -5c-133 0 -239 97 -239 244c0 141 99 251 239 251
c82 0 153 -43 189 -115h1v110h53v-485h-51v109l-2 1c-35 -69 -102 -115 -190 -115zM289 45c102 0 186 77 186 193c0 113 -76 203 -185 203c-106 0 -191 -80 -191 -203c0 -108 76 -193 190 -193z" />
    <glyph glyph-name="uni1EAB" unicode="&#x1eab;" horiz-adv-x="598" 
d="M164 757l-37 14c18 54 45 87 91 87c27 0 49 -11 76 -28c29 -18 48 -33 69 -33c31 0 48 20 60 58l37 -12c-17 -57 -47 -90 -92 -90c-31 0 -60 20 -85 37c-22 14 -41 25 -61 24c-24 0 -45 -21 -58 -57zM148 560l119 133h57l116 -133h-57l-86 98h-2l-90 -98h-57zM283 -5
c-133 0 -239 97 -239 244c0 141 99 251 239 251c82 0 153 -43 189 -115h1v110h53v-485h-51v109l-2 1c-35 -69 -102 -115 -190 -115zM289 45c102 0 186 77 186 193c0 113 -76 203 -185 203c-106 0 -191 -80 -191 -203c0 -108 76 -193 190 -193z" />
    <glyph glyph-name="adieresis" unicode="&#xe4;" horiz-adv-x="598" 
d="M209 591c-24 0 -44 20 -44 43c0 25 20 43 44 43c25 0 44 -18 44 -43c0 -24 -19 -43 -44 -43zM374 591c-25 0 -44 20 -44 43c0 25 19 43 44 43s44 -18 44 -43c0 -24 -19 -43 -44 -43zM283 -5c-133 0 -239 97 -239 244c0 141 99 251 239 251c82 0 153 -43 189 -115h1v110
h53v-485h-51v109l-2 1c-35 -69 -102 -115 -190 -115zM289 45c102 0 186 77 186 193c0 113 -76 203 -185 203c-106 0 -191 -80 -191 -203c0 -108 76 -193 190 -193z" />
    <glyph glyph-name="uni1EA1" unicode="&#x1ea1;" horiz-adv-x="598" 
d="M283 -5c-133 0 -239 97 -239 244c0 141 99 251 239 251c82 0 153 -43 189 -115h1v110h53v-485h-51v109l-2 1c-35 -69 -102 -115 -190 -115zM289 45c102 0 186 77 186 193c0 113 -76 203 -185 203c-106 0 -191 -80 -191 -203c0 -108 76 -193 190 -193zM291 -108
c25 0 44 -20 44 -44c0 -25 -19 -43 -44 -43s-44 18 -44 43c0 24 19 44 44 44z" />
    <glyph glyph-name="agrave" unicode="&#xe0;" horiz-adv-x="598" 
d="M287 561l-117 133h63l112 -133h-58zM283 -5c-133 0 -239 97 -239 244c0 141 99 251 239 251c82 0 153 -43 189 -115h1v110h53v-485h-51v109l-2 1c-35 -69 -102 -115 -190 -115zM289 45c102 0 186 77 186 193c0 113 -76 203 -185 203c-106 0 -191 -80 -191 -203
c0 -108 76 -193 190 -193z" />
    <glyph glyph-name="uni1EA3" unicode="&#x1ea3;" horiz-adv-x="598" 
d="M264 555c44 30 91 65 91 100c0 27 -21 36 -49 36c-32 0 -65 -12 -90 -32l-12 35c26 20 65 38 111 38c48 0 86 -21 86 -73c0 -47 -55 -85 -86 -104h-51zM283 -5c-133 0 -239 97 -239 244c0 141 99 251 239 251c82 0 153 -43 189 -115h1v110h53v-485h-51v109l-2 1
c-35 -69 -102 -115 -190 -115zM289 45c102 0 186 77 186 193c0 113 -76 203 -185 203c-106 0 -191 -80 -191 -203c0 -108 76 -193 190 -193z" />
    <glyph glyph-name="amacron" unicode="&#x101;" horiz-adv-x="598" 
d="M155 607v48h277v-48h-277zM283 -5c-133 0 -239 97 -239 244c0 141 99 251 239 251c82 0 153 -43 189 -115h1v110h53v-485h-51v109l-2 1c-35 -69 -102 -115 -190 -115zM289 45c102 0 186 77 186 193c0 113 -76 203 -185 203c-106 0 -191 -80 -191 -203
c0 -108 76 -193 190 -193z" />
    <glyph glyph-name="aogonek" unicode="&#x105;" horiz-adv-x="598" 
d="M551 -132l5 -39c-17 -8 -37 -12 -66 -12c-56 0 -93 29 -93 80c0 36 27 79 78 111v101l-2 1c-35 -69 -102 -115 -190 -115c-133 0 -239 97 -239 244c0 141 99 251 239 251c82 0 153 -43 189 -115h1v110h53v-485h-2c-49 -19 -81 -58 -81 -94c0 -29 17 -50 55 -50
c28 0 37 4 53 12zM289 45c102 0 186 77 186 193c0 113 -76 203 -185 203c-106 0 -191 -80 -191 -203c0 -108 76 -193 190 -193z" />
    <glyph glyph-name="aring" unicode="&#xe5;" horiz-adv-x="598" 
d="M293 550c-46 0 -86 37 -86 84c0 46 38 84 86 84c46 0 86 -37 86 -84c0 -46 -38 -84 -86 -84zM293 588c25 0 47 21 47 46c0 26 -22 47 -47 47c-26 0 -47 -22 -47 -47s21 -46 47 -46zM283 -5c-133 0 -239 97 -239 244c0 141 99 251 239 251c82 0 153 -43 189 -115h1v110h53
v-485h-51v109l-2 1c-35 -69 -102 -115 -190 -115zM289 45c102 0 186 77 186 193c0 113 -76 203 -185 203c-106 0 -191 -80 -191 -203c0 -108 76 -193 190 -193z" />
    <glyph glyph-name="aringacute" unicode="&#x1fb;" horiz-adv-x="598" 
d="M293 550c-46 0 -86 37 -86 84c0 46 38 84 86 84c26 0 51 -12 67 -31l77 52h70l-129 -90c0 -5 1 -10 1 -15c0 -46 -38 -84 -86 -84zM293 681c-26 0 -47 -22 -47 -47s21 -46 47 -46c25 0 47 21 47 46c0 26 -22 47 -47 47zM473 485h53v-485h-51v109l-2 1
c-35 -69 -102 -115 -190 -115c-133 0 -239 97 -239 244c0 141 99 251 239 251c82 0 153 -43 189 -115h1v110zM289 45c102 0 186 77 186 193c0 113 -76 203 -185 203c-106 0 -191 -80 -191 -203c0 -108 76 -193 190 -193z" />
    <glyph glyph-name="atilde" unicode="&#xe3;" horiz-adv-x="598" 
d="M372 572c-34 0 -62 21 -88 38c-20 14 -40 25 -61 25c-27 0 -48 -21 -62 -57l-37 14c18 55 48 89 94 89c34 0 57 -15 80 -30c22 -15 44 -34 68 -34s47 19 59 59l38 -13c-18 -60 -53 -91 -91 -91zM283 -5c-133 0 -239 97 -239 244c0 141 99 251 239 251
c82 0 153 -43 189 -115h1v110h53v-485h-51v109l-2 1c-35 -69 -102 -115 -190 -115zM289 45c102 0 186 77 186 193c0 113 -76 203 -185 203c-106 0 -191 -80 -191 -203c0 -108 76 -193 190 -193z" />
    <glyph glyph-name="ae" unicode="&#xe6;" horiz-adv-x="791" 
d="M750 253c0 -9 -1 -18 -2 -23h-351c8 -116 70 -185 165 -185c69 0 101 27 134 73l38 -32c-40 -56 -86 -91 -174 -91c-96 0 -152 55 -181 121h-1c-23 -73 -94 -121 -185 -121c-107 0 -158 67 -158 143c0 79 56 138 179 138l133 1v18c0 108 -30 146 -107 146
c-57 0 -108 -17 -146 -39l-22 43c38 22 100 45 170 45c83 0 125 -37 142 -114h2c32 71 93 114 170 114c112 0 194 -100 194 -237zM400 275h295c-6 97 -56 166 -141 166c-88 0 -145 -70 -154 -166zM197 42c80 0 150 50 150 146v44l-129 -1c-75 0 -130 -30 -130 -93
c0 -51 34 -96 109 -96z" />
    <glyph glyph-name="aeacute" unicode="&#x1fd;" horiz-adv-x="791" 
d="M532 698l-124 -138h-59l120 138h63zM750 253c0 -9 -1 -18 -2 -23h-351c8 -116 70 -185 165 -185c69 0 101 27 134 73l38 -32c-40 -56 -86 -91 -174 -91c-96 0 -152 55 -181 121h-1c-23 -73 -94 -121 -185 -121c-107 0 -158 67 -158 143c0 79 56 138 179 138l133 1v18
c0 108 -30 146 -107 146c-57 0 -108 -17 -146 -39l-22 43c38 22 100 45 170 45c83 0 125 -37 142 -114h2c32 71 93 114 170 114c112 0 194 -100 194 -237zM400 275h295c-6 97 -56 166 -141 166c-88 0 -145 -70 -154 -166zM197 42c80 0 150 50 150 146v44l-129 -1
c-75 0 -130 -30 -130 -93c0 -51 34 -96 109 -96z" />
    <glyph glyph-name="b" unicode="b" horiz-adv-x="607" 
d="M322 -5c-89 0 -156 45 -191 114h-1v-109h-52v736h53v-360h1c38 72 108 114 190 114c141 0 239 -110 239 -251c0 -147 -105 -244 -239 -244zM316 45c114 0 190 85 190 193c0 123 -85 203 -191 203c-111 0 -185 -90 -185 -203c0 -116 83 -193 186 -193z" />
    <glyph glyph-name="c" unicode="c" horiz-adv-x="510" 
d="M283 -5c-140 0 -237 102 -237 247c0 146 98 248 239 248c70 0 142 -27 189 -81l-38 -34c-32 39 -85 66 -149 66c-112 0 -187 -82 -187 -198c0 -118 76 -198 187 -198c60 0 118 25 152 65l36 -34c-41 -47 -107 -81 -192 -81z" />
    <glyph glyph-name="cacute" unicode="&#x107;" horiz-adv-x="510" 
d="M249 560l120 138h63l-124 -138h-59zM283 -5c-140 0 -237 102 -237 247c0 146 98 248 239 248c70 0 142 -27 189 -81l-38 -34c-32 39 -85 66 -149 66c-112 0 -187 -82 -187 -198c0 -118 76 -198 187 -198c60 0 118 25 152 65l36 -34c-41 -47 -107 -81 -192 -81z" />
    <glyph glyph-name="ccaron" unicode="&#x10d;" horiz-adv-x="510" 
d="M252 559l-116 134h56l88 -99h2l89 99h57l-119 -134h-57zM283 -5c-140 0 -237 102 -237 247c0 146 98 248 239 248c70 0 142 -27 189 -81l-38 -34c-32 39 -85 66 -149 66c-112 0 -187 -82 -187 -198c0 -118 76 -198 187 -198c60 0 118 25 152 65l36 -34
c-41 -47 -107 -81 -192 -81z" />
    <glyph glyph-name="ccedilla" unicode="&#xe7;" horiz-adv-x="510" 
d="M286 -5l-12 -28v-1c46 -3 84 -30 84 -78c0 -40 -32 -74 -97 -74c-19 0 -37 2 -52 6v34c13 -4 27 -7 47 -7c31 0 61 14 61 44c0 24 -28 49 -83 49v25l15 32c-122 15 -203 112 -203 245c0 146 98 248 239 248c70 0 142 -27 189 -81l-38 -34c-32 39 -85 66 -149 66
c-112 0 -187 -82 -187 -198c0 -118 76 -198 187 -198c60 0 118 25 152 65l36 -34c-40 -46 -105 -80 -189 -81z" />
    <glyph glyph-name="ccircumflex" unicode="&#x109;" horiz-adv-x="510" 
d="M136 560l119 133h57l116 -133h-57l-86 98h-2l-90 -98h-57zM283 -5c-140 0 -237 102 -237 247c0 146 98 248 239 248c70 0 142 -27 189 -81l-38 -34c-32 39 -85 66 -149 66c-112 0 -187 -82 -187 -198c0 -118 76 -198 187 -198c60 0 118 25 152 65l36 -34
c-41 -47 -107 -81 -192 -81z" />
    <glyph glyph-name="cdotaccent" unicode="&#x10b;" horiz-adv-x="510" 
d="M283 590c-25 0 -44 20 -44 44c0 25 19 43 44 43s44 -18 44 -43c0 -24 -19 -44 -44 -44zM283 -5c-140 0 -237 102 -237 247c0 146 98 248 239 248c70 0 142 -27 189 -81l-38 -34c-32 39 -85 66 -149 66c-112 0 -187 -82 -187 -198c0 -118 76 -198 187 -198
c60 0 118 25 152 65l36 -34c-41 -47 -107 -81 -192 -81z" />
    <glyph glyph-name="d" unicode="d" horiz-adv-x="607" 
d="M285 -5c-133 0 -239 97 -239 244c0 141 98 251 239 251c82 0 154 -43 190 -116h2v362h52v-736h-51v111h-2c-33 -69 -102 -116 -191 -116zM291 45c103 0 187 77 187 193c0 113 -76 203 -187 203c-106 0 -191 -80 -191 -203c0 -108 76 -193 191 -193z" />
    <glyph glyph-name="eth" unicode="&#xf0;" horiz-adv-x="584" 
d="M435 554c64 -83 103 -186 103 -297c0 -158 -100 -262 -247 -262c-136 0 -245 99 -245 243c0 140 100 246 234 246c75 0 142 -32 182 -85l2 2c-16 45 -40 87 -69 125c-22 28 -47 54 -74 77l-62 -71l-37 27l62 72c-40 27 -84 50 -131 67l20 42c51 -18 100 -42 143 -73
l71 82l38 -26l-72 -83c30 -26 58 -55 82 -86zM291 45c115 0 192 86 192 202c0 109 -84 188 -191 188c-115 0 -192 -88 -192 -194c0 -117 85 -196 191 -196z" />
    <glyph glyph-name="dcaron" unicode="&#x10f;" horiz-adv-x="670" 
d="M612 592l26 172h55l-41 -172h-40zM285 -5c-133 0 -239 97 -239 244c0 141 98 251 239 251c82 0 154 -43 190 -116h2v362h52v-736h-51v111h-2c-33 -69 -102 -116 -191 -116zM291 45c103 0 187 77 187 193c0 113 -76 203 -187 203c-106 0 -191 -80 -191 -203
c0 -108 76 -193 191 -193z" />
    <glyph glyph-name="dcroat" unicode="&#x111;" horiz-adv-x="602" 
d="M592 620v-41h-63v-579h-51v111h-2c-33 -69 -102 -116 -191 -116c-133 0 -239 97 -239 244c0 141 98 251 239 251c82 0 154 -43 190 -116h2v205h-225v41h225v116h52v-116h63zM291 45c103 0 187 77 187 193c0 113 -76 203 -187 203c-106 0 -191 -80 -191 -203
c0 -108 76 -193 191 -193z" />
    <glyph glyph-name="uni1E0D" unicode="&#x1e0d;" horiz-adv-x="607" 
d="M285 -5c-133 0 -239 97 -239 244c0 141 98 251 239 251c82 0 154 -43 190 -116h2v362h52v-736h-51v111h-2c-33 -69 -102 -116 -191 -116zM291 45c103 0 187 77 187 193c0 113 -76 203 -187 203c-106 0 -191 -80 -191 -203c0 -108 76 -193 191 -193zM303 -108
c25 0 44 -20 44 -44c0 -25 -19 -43 -44 -43s-44 18 -44 43c0 24 19 44 44 44z" />
    <glyph glyph-name="uni1E0F" unicode="&#x1e0f;" horiz-adv-x="607" 
d="M285 -5c-133 0 -239 97 -239 244c0 141 98 251 239 251c82 0 154 -43 190 -116h2v362h52v-736h-51v111h-2c-33 -69 -102 -116 -191 -116zM291 45c103 0 187 77 187 193c0 113 -76 203 -187 203c-106 0 -191 -80 -191 -203c0 -108 76 -193 191 -193zM442 -183h-277v48h277
v-48z" />
    <glyph glyph-name="e" unicode="e" horiz-adv-x="542" 
d="M499 255c0 -11 0 -21 -1 -24h-398c5 -111 80 -186 186 -186c70 0 122 29 156 73l38 -32c-41 -55 -104 -91 -195 -91c-140 0 -239 103 -239 248c0 144 101 247 235 247c130 0 218 -100 218 -235zM281 441c-93 0 -166 -66 -179 -166h344c-10 99 -71 166 -165 166z" />
    <glyph glyph-name="eacute" unicode="&#xe9;" horiz-adv-x="542" 
d="M426 698l-124 -138h-59l120 138h63zM499 255c0 -11 0 -21 -1 -24h-398c5 -111 80 -186 186 -186c70 0 122 29 156 73l38 -32c-41 -55 -104 -91 -195 -91c-140 0 -239 103 -239 248c0 144 101 247 235 247c130 0 218 -100 218 -235zM281 441c-93 0 -166 -66 -179 -166h344
c-10 99 -71 166 -165 166z" />
    <glyph glyph-name="ebreve" unicode="&#x115;" horiz-adv-x="542" 
d="M282 557c-74 0 -128 48 -134 134h44c4 -50 35 -90 90 -90c54 0 86 40 89 90h45c-7 -86 -60 -134 -134 -134zM499 255c0 -11 0 -21 -1 -24h-398c5 -111 80 -186 186 -186c70 0 122 29 156 73l38 -32c-41 -55 -104 -91 -195 -91c-140 0 -239 103 -239 248
c0 144 101 247 235 247c130 0 218 -100 218 -235zM281 441c-93 0 -166 -66 -179 -166h344c-10 99 -71 166 -165 166z" />
    <glyph glyph-name="ecaron" unicode="&#x11b;" horiz-adv-x="542" 
d="M309 559h-57l-116 134h56l88 -99h2l89 99h57zM499 255c0 -11 0 -21 -1 -24h-398c5 -111 80 -186 186 -186c70 0 122 29 156 73l38 -32c-41 -55 -104 -91 -195 -91c-140 0 -239 103 -239 248c0 144 101 247 235 247c130 0 218 -100 218 -235zM281 441
c-93 0 -166 -66 -179 -166h344c-10 99 -71 166 -165 166z" />
    <glyph glyph-name="ecircumflex" unicode="&#xea;" horiz-adv-x="542" 
d="M283 658l-90 -98h-57l119 133h57l116 -133h-57l-86 98h-2zM499 255c0 -11 0 -21 -1 -24h-398c5 -111 80 -186 186 -186c70 0 122 29 156 73l38 -32c-41 -55 -104 -91 -195 -91c-140 0 -239 103 -239 248c0 144 101 247 235 247c130 0 218 -100 218 -235zM281 441
c-93 0 -166 -66 -179 -166h344c-10 99 -71 166 -165 166z" />
    <glyph glyph-name="uni1EBF" unicode="&#x1ebf;" horiz-adv-x="542" 
d="M564 781l-124 -138h-48l110 138h62zM285 659l-90 -98h-57l119 133h57l116 -133h-57l-86 98h-2zM281 490c130 0 218 -100 218 -235c0 -11 0 -21 -1 -24h-398c5 -111 80 -186 186 -186c70 0 122 29 156 73l38 -32c-41 -55 -104 -91 -195 -91c-140 0 -239 103 -239 248
c0 144 101 247 235 247zM281 441c-93 0 -166 -66 -179 -166h344c-10 99 -71 166 -165 166z" />
    <glyph glyph-name="uni1EC7" unicode="&#x1ec7;" horiz-adv-x="542" 
d="M283 658l-90 -98h-57l119 133h57l116 -133h-57l-86 98h-2zM499 255c0 -11 0 -21 -1 -24h-398c5 -111 80 -186 186 -186c70 0 122 29 156 73l38 -32c-41 -55 -104 -91 -195 -91c-140 0 -239 103 -239 248c0 144 101 247 235 247c130 0 218 -100 218 -235zM281 441
c-93 0 -166 -66 -179 -166h344c-10 99 -71 166 -165 166zM287 -108c25 0 44 -20 44 -44c0 -25 -19 -43 -44 -43s-44 18 -44 43c0 24 19 44 44 44z" />
    <glyph glyph-name="uni1EC1" unicode="&#x1ec1;" horiz-adv-x="542" 
d="M494 643h-47l-125 138h63zM282 659l-90 -98h-57l119 133h57l116 -133h-57l-86 98h-2zM499 255c0 -11 0 -21 -1 -24h-398c5 -111 80 -186 186 -186c70 0 122 29 156 73l38 -32c-41 -55 -104 -91 -195 -91c-140 0 -239 103 -239 248c0 144 101 247 235 247
c130 0 218 -100 218 -235zM281 441c-93 0 -166 -66 -179 -166h344c-10 99 -71 166 -165 166z" />
    <glyph glyph-name="uni1EC3" unicode="&#x1ec3;" horiz-adv-x="542" 
d="M457 811c46 0 82 -20 82 -70c0 -45 -52 -81 -82 -99h-49c42 28 87 62 87 95c0 26 -20 35 -47 35c-30 0 -62 -12 -86 -31l-11 33c25 20 62 37 106 37zM282 658l-90 -98h-57l119 133h57l116 -133h-57l-86 98h-2zM281 490c130 0 218 -100 218 -235c0 -11 0 -21 -1 -24h-398
c5 -111 80 -186 186 -186c70 0 122 29 156 73l38 -32c-41 -55 -104 -91 -195 -91c-140 0 -239 103 -239 248c0 144 101 247 235 247zM281 441c-93 0 -166 -66 -179 -166h344c-10 99 -71 166 -165 166z" />
    <glyph glyph-name="uni1EC5" unicode="&#x1ec5;" horiz-adv-x="542" 
d="M211 814c-24 0 -45 -21 -58 -57l-37 14c18 54 45 87 91 87c27 0 49 -11 76 -28c29 -18 48 -33 69 -33c31 0 48 20 60 58l37 -12c-17 -57 -47 -90 -92 -90c-31 0 -60 20 -85 37c-22 14 -41 25 -61 24zM256 693h57l116 -133h-57l-86 98h-2l-90 -98h-57zM499 255
c0 -11 0 -21 -1 -24h-398c5 -111 80 -186 186 -186c70 0 122 29 156 73l38 -32c-41 -55 -104 -91 -195 -91c-140 0 -239 103 -239 248c0 144 101 247 235 247c130 0 218 -100 218 -235zM281 441c-93 0 -166 -66 -179 -166h344c-10 99 -71 166 -165 166z" />
    <glyph glyph-name="edieresis" unicode="&#xeb;" horiz-adv-x="542" 
d="M198 591c-24 0 -44 20 -44 43c0 25 20 43 44 43c25 0 44 -18 44 -43c0 -24 -19 -43 -44 -43zM363 591c-25 0 -44 20 -44 43c0 25 19 43 44 43s44 -18 44 -43c0 -24 -19 -43 -44 -43zM499 255c0 -11 0 -21 -1 -24h-398c5 -111 80 -186 186 -186c70 0 122 29 156 73l38 -32
c-41 -55 -104 -91 -195 -91c-140 0 -239 103 -239 248c0 144 101 247 235 247c130 0 218 -100 218 -235zM281 441c-93 0 -166 -66 -179 -166h344c-10 99 -71 166 -165 166z" />
    <glyph glyph-name="edotaccent" unicode="&#x117;" horiz-adv-x="542" 
d="M283 590c-25 0 -44 20 -44 44c0 25 19 43 44 43s44 -18 44 -43c0 -24 -19 -44 -44 -44zM499 255c0 -11 0 -21 -1 -24h-398c5 -111 80 -186 186 -186c70 0 122 29 156 73l38 -32c-41 -55 -104 -91 -195 -91c-140 0 -239 103 -239 248c0 144 101 247 235 247
c130 0 218 -100 218 -235zM281 441c-93 0 -166 -66 -179 -166h344c-10 99 -71 166 -165 166z" />
    <glyph glyph-name="uni1EB9" unicode="&#x1eb9;" horiz-adv-x="542" 
d="M499 255c0 -11 0 -21 -1 -24h-398c5 -111 80 -186 186 -186c70 0 122 29 156 73l38 -32c-41 -55 -104 -91 -195 -91c-140 0 -239 103 -239 248c0 144 101 247 235 247c130 0 218 -100 218 -235zM281 441c-93 0 -166 -66 -179 -166h344c-10 99 -71 166 -165 166zM287 -108
c25 0 44 -20 44 -44c0 -25 -19 -43 -44 -43s-44 18 -44 43c0 24 19 44 44 44z" />
    <glyph glyph-name="egrave" unicode="&#xe8;" horiz-adv-x="542" 
d="M336 561h-58l-117 133h63zM499 255c0 -11 0 -21 -1 -24h-398c5 -111 80 -186 186 -186c70 0 122 29 156 73l38 -32c-41 -55 -104 -91 -195 -91c-140 0 -239 103 -239 248c0 144 101 247 235 247c130 0 218 -100 218 -235zM281 441c-93 0 -166 -66 -179 -166h344
c-10 99 -71 166 -165 166z" />
    <glyph glyph-name="uni1EBB" unicode="&#x1ebb;" horiz-adv-x="542" 
d="M295 691c-32 0 -65 -12 -90 -32l-12 35c26 20 65 38 111 38c48 0 86 -21 86 -73c0 -47 -55 -85 -86 -104h-51c44 30 91 65 91 100c0 27 -21 36 -49 36zM499 255c0 -11 0 -21 -1 -24h-398c5 -111 80 -186 186 -186c70 0 122 29 156 73l38 -32c-41 -55 -104 -91 -195 -91
c-140 0 -239 103 -239 248c0 144 101 247 235 247c130 0 218 -100 218 -235zM281 441c-93 0 -166 -66 -179 -166h344c-10 99 -71 166 -165 166z" />
    <glyph glyph-name="emacron" unicode="&#x113;" horiz-adv-x="542" 
d="M421 655v-48h-277v48h277zM499 255c0 -11 0 -21 -1 -24h-398c5 -111 80 -186 186 -186c70 0 122 29 156 73l38 -32c-41 -55 -104 -91 -195 -91c-140 0 -239 103 -239 248c0 144 101 247 235 247c130 0 218 -100 218 -235zM281 441c-93 0 -166 -66 -179 -166h344
c-10 99 -71 166 -165 166z" />
    <glyph glyph-name="eogonek" unicode="&#x119;" horiz-adv-x="542" 
d="M499 255c0 -11 0 -21 -1 -24h-398c5 -111 80 -186 186 -186c70 0 122 29 156 73l38 -32c-33 -44 -79 -75 -143 -87c-46 -22 -76 -56 -76 -91c0 -27 17 -48 55 -48c28 0 37 4 52 11l5 -39c-16 -9 -36 -13 -65 -13c-60 0 -96 29 -96 80c0 31 19 67 56 96v1
c-131 8 -222 108 -222 247c0 144 101 247 235 247c130 0 218 -100 218 -235zM281 441c-93 0 -166 -66 -179 -166h344c-10 99 -71 166 -165 166z" />
    <glyph glyph-name="uni1EBD" unicode="&#x1ebd;" horiz-adv-x="542" 
d="M212 635c-27 0 -48 -21 -62 -57l-37 14c18 55 48 89 94 89c34 0 57 -15 80 -30c22 -15 44 -34 68 -34s47 19 59 59l38 -13c-18 -60 -53 -91 -91 -91c-34 0 -62 21 -88 38c-20 14 -40 25 -61 25zM499 255c0 -11 0 -21 -1 -24h-398c5 -111 80 -186 186 -186
c70 0 122 29 156 73l38 -32c-41 -55 -104 -91 -195 -91c-140 0 -239 103 -239 248c0 144 101 247 235 247c130 0 218 -100 218 -235zM281 441c-93 0 -166 -66 -179 -166h344c-10 99 -71 166 -165 166z" />
    <glyph glyph-name="uni0259" unicode="&#x259;" horiz-adv-x="545" 
d="M257 490c138 0 242 -98 242 -248c0 -142 -82 -247 -230 -247c-140 0 -224 101 -225 233c0 9 1 22 2 28h400c-6 114 -86 186 -192 186c-54 0 -103 -14 -151 -41l-22 43c56 31 113 46 176 46zM269 45c104 0 164 66 175 165h-346c5 -101 73 -165 171 -165z" />
    <glyph glyph-name="f" unicode="f" horiz-adv-x="322" 
d="M100 0v438h-63v47h63v108c0 101 50 148 128 148c43 0 76 -12 104 -28l-11 -47c-29 15 -57 25 -88 25c-46 0 -80 -28 -80 -102v-104h155v-47h-155v-438h-53z" />
    <glyph glyph-name="g" unicode="g" horiz-adv-x="593" 
d="M292 -202c-73 0 -138 17 -199 54l14 49c60 -36 113 -54 183 -54c122 0 180 72 180 168v104h-1c-35 -65 -101 -108 -188 -108c-132 0 -236 94 -236 241c0 133 95 238 234 238c81 0 151 -39 189 -105h1v100h53v-461c0 -133 -72 -226 -230 -226zM286 61
c113 0 185 82 185 192c0 112 -80 188 -185 188c-112 0 -186 -83 -186 -188c0 -117 82 -192 186 -192z" />
    <glyph glyph-name="gbreve" unicode="&#x11f;" horiz-adv-x="593" 
d="M286 557c-74 0 -128 48 -134 134h44c4 -50 35 -90 90 -90c54 0 86 40 89 90h45c-7 -86 -60 -134 -134 -134zM292 -202c-73 0 -138 17 -199 54l14 49c60 -36 113 -54 183 -54c122 0 180 72 180 168v104h-1c-35 -65 -101 -108 -188 -108c-132 0 -236 94 -236 241
c0 133 95 238 234 238c81 0 151 -39 189 -105h1v100h53v-461c0 -133 -72 -226 -230 -226zM286 61c113 0 185 82 185 192c0 112 -80 188 -185 188c-112 0 -186 -83 -186 -188c0 -117 82 -192 186 -192z" />
    <glyph glyph-name="gcaron" unicode="&#x1e7;" horiz-adv-x="593" 
d="M256 559l-116 134h56l88 -99h2l89 99h57l-119 -134h-57zM292 -202c-73 0 -138 17 -199 54l14 49c60 -36 113 -54 183 -54c122 0 180 72 180 168v104h-1c-35 -65 -101 -108 -188 -108c-132 0 -236 94 -236 241c0 133 95 238 234 238c81 0 151 -39 189 -105h1v100h53v-461
c0 -133 -72 -226 -230 -226zM286 61c113 0 185 82 185 192c0 112 -80 188 -185 188c-112 0 -186 -83 -186 -188c0 -117 82 -192 186 -192z" />
    <glyph glyph-name="gcircumflex" unicode="&#x11d;" horiz-adv-x="593" 
d="M140 560l119 133h57l116 -133h-57l-86 98h-2l-90 -98h-57zM292 -202c-73 0 -138 17 -199 54l14 49c60 -36 113 -54 183 -54c122 0 180 72 180 168v104h-1c-35 -65 -101 -108 -188 -108c-132 0 -236 94 -236 241c0 133 95 238 234 238c81 0 151 -39 189 -105h1v100h53
v-461c0 -133 -72 -226 -230 -226zM286 61c113 0 185 82 185 192c0 112 -80 188 -185 188c-112 0 -186 -83 -186 -188c0 -117 82 -192 186 -192z" />
    <glyph glyph-name="gcommaaccent" unicode="&#x123;" horiz-adv-x="593" 
d="M364 706l14 -34c-53 -7 -64 -34 -64 -68c0 -17 2 -32 6 -50h-50c-3 17 -5 34 -5 53c0 55 33 94 99 99zM292 -202c-73 0 -138 17 -199 54l14 49c60 -36 113 -54 183 -54c122 0 180 72 180 168v104h-1c-35 -65 -101 -108 -188 -108c-132 0 -236 94 -236 241
c0 133 95 238 234 238c81 0 151 -39 189 -105h1v100h53v-461c0 -133 -72 -226 -230 -226zM286 61c113 0 185 82 185 192c0 112 -80 188 -185 188c-112 0 -186 -83 -186 -188c0 -117 82 -192 186 -192z" />
    <glyph glyph-name="gdotaccent" unicode="&#x121;" horiz-adv-x="593" 
d="M287 590c-25 0 -44 20 -44 44c0 25 19 43 44 43s44 -18 44 -43c0 -24 -19 -44 -44 -44zM292 -202c-73 0 -138 17 -199 54l14 49c60 -36 113 -54 183 -54c122 0 180 72 180 168v104h-1c-35 -65 -101 -108 -188 -108c-132 0 -236 94 -236 241c0 133 95 238 234 238
c81 0 151 -39 189 -105h1v100h53v-461c0 -133 -72 -226 -230 -226zM286 61c113 0 185 82 185 192c0 112 -80 188 -185 188c-112 0 -186 -83 -186 -188c0 -117 82 -192 186 -192z" />
    <glyph glyph-name="uni1E21" unicode="&#x1e21;" horiz-adv-x="593" 
d="M148 607v48h277v-48h-277zM292 -202c-73 0 -138 17 -199 54l14 49c60 -36 113 -54 183 -54c122 0 180 72 180 168v104h-1c-35 -65 -101 -108 -188 -108c-132 0 -236 94 -236 241c0 133 95 238 234 238c81 0 151 -39 189 -105h1v100h53v-461c0 -133 -72 -226 -230 -226z
M286 61c113 0 185 82 185 192c0 112 -80 188 -185 188c-112 0 -186 -83 -186 -188c0 -117 82 -192 186 -192z" />
    <glyph glyph-name="h" unicode="h" horiz-adv-x="565" 
d="M78 0v736h53v-356h1c36 69 106 110 193 110c104 0 172 -66 172 -198v-292h-53v275c0 122 -56 166 -131 166c-111 0 -182 -77 -182 -199v-242h-53z" />
    <glyph glyph-name="hbar" unicode="&#x127;" horiz-adv-x="565" 
d="M325 490c104 0 172 -66 172 -198v-292h-53v275c0 122 -56 166 -131 166c-111 0 -182 -77 -182 -199v-242h-53v579h-73v41h73v116h53v-116h204v-41h-204v-199h1c36 69 106 110 193 110z" />
    <glyph glyph-name="uni1E2B" unicode="&#x1e2b;" horiz-adv-x="565" 
d="M78 0v736h53v-356h1c36 69 106 110 193 110c104 0 172 -66 172 -198v-292h-53v275c0 122 -56 166 -131 166c-111 0 -182 -77 -182 -199v-242h-53zM285 -213c-74 0 -127 48 -134 134h45c3 -50 35 -90 89 -90c55 0 86 40 90 90h44c-6 -86 -60 -134 -134 -134z" />
    <glyph glyph-name="hcircumflex" unicode="&#x125;" horiz-adv-x="565" 
d="M78 800l120 118h57l117 -118h-58l-87 85h-2l-90 -85h-57zM78 0v736h53v-356h1c36 69 106 110 193 110c104 0 172 -66 172 -198v-292h-53v275c0 122 -56 166 -131 166c-111 0 -182 -77 -182 -199v-242h-53z" />
    <glyph glyph-name="uni1E25" unicode="&#x1e25;" horiz-adv-x="565" 
d="M78 0v736h53v-356h1c36 69 106 110 193 110c104 0 172 -66 172 -198v-292h-53v275c0 122 -56 166 -131 166c-111 0 -182 -77 -182 -199v-242h-53zM285 -108c25 0 44 -20 44 -44c0 -25 -19 -43 -44 -43s-44 18 -44 43c0 24 19 44 44 44z" />
    <glyph glyph-name="i" unicode="i" horiz-adv-x="222" 
d="M112 590c-25 0 -44 20 -44 44c0 25 19 43 44 43s44 -18 44 -43c0 -24 -19 -44 -44 -44zM84 0v485h53v-485h-53z" />
    <glyph glyph-name="dotlessi" unicode="&#x131;" horiz-adv-x="222" 
d="M84 0v485h53v-485h-53z" />
    <glyph glyph-name="iacute" unicode="&#xed;" horiz-adv-x="222" 
d="M87 560l120 138h63l-124 -138h-59zM84 0v485h53v-485h-53z" />
    <glyph glyph-name="ibreve" unicode="&#x12d;" horiz-adv-x="222" 
d="M111 558c-67 0 -118 46 -123 133h45c2 -52 26 -92 78 -92c50 0 76 39 77 92h45c-5 -83 -53 -133 -122 -133zM84 0v485h53v-485h-53z" />
    <glyph glyph-name="uni01D0" unicode="&#x1d0;" horiz-adv-x="222" 
d="M81 559l-116 134h56l88 -99h2l89 99h57l-119 -134h-57zM84 0v485h53v-485h-53z" />
    <glyph glyph-name="icircumflex" unicode="&#xee;" horiz-adv-x="222" 
d="M-35 560l119 133h57l116 -133h-57l-86 98h-2l-90 -98h-57zM84 0v485h53v-485h-53z" />
    <glyph glyph-name="idieresis" unicode="&#xef;" horiz-adv-x="222" 
d="M27 591c-24 0 -44 20 -44 43c0 25 20 43 44 43c25 0 44 -18 44 -43c0 -24 -19 -43 -44 -43zM192 591c-25 0 -44 20 -44 43c0 25 19 43 44 43s44 -18 44 -43c0 -24 -19 -43 -44 -43zM84 0v485h53v-485h-53z" />
    <glyph glyph-name="i.loclTRK" horiz-adv-x="222" 
d="M112 590c-25 0 -44 20 -44 44c0 25 19 43 44 43s44 -18 44 -43c0 -24 -19 -44 -44 -44zM84 0v485h53v-485h-53z" />
    <glyph glyph-name="uni1ECB" unicode="&#x1ecb;" horiz-adv-x="222" 
d="M112 590c-25 0 -44 20 -44 44c0 25 19 43 44 43s44 -18 44 -43c0 -24 -19 -44 -44 -44zM84 0v485h53v-485h-53zM111 -108c25 0 44 -20 44 -44c0 -25 -19 -43 -44 -43s-44 18 -44 43c0 24 19 44 44 44z" />
    <glyph glyph-name="igrave" unicode="&#xec;" horiz-adv-x="222" 
d="M81 560l-90 138h61l86 -138h-57zM84 0v485h53v-485h-53z" />
    <glyph glyph-name="uni1EC9" unicode="&#x1ec9;" horiz-adv-x="222" 
d="M82 555c44 30 91 65 91 100c0 27 -21 36 -49 36c-32 0 -65 -12 -90 -32l-12 35c26 20 65 38 111 38c48 0 86 -21 86 -73c0 -47 -55 -85 -86 -104h-51zM84 0v485h53v-485h-53z" />
    <glyph glyph-name="ij" unicode="&#x133;" horiz-adv-x="423" 
d="M112 590c-25 0 -44 20 -44 44c0 25 19 43 44 43s44 -18 44 -43c0 -24 -19 -44 -44 -44zM328 590c-25 0 -44 20 -44 44c0 25 19 43 44 43s44 -18 44 -43c0 -24 -19 -44 -44 -44zM84 0v485h53v-485h-53zM240 -203c-22 0 -48 4 -74 16l9 49c18 -11 42 -15 58 -15
c40 0 68 24 68 86v552h53v-552c0 -79 -35 -136 -114 -136z" />
    <glyph glyph-name="imacron" unicode="&#x12b;" horiz-adv-x="222" 
d="M-27 607v48h277v-48h-277zM84 0v485h53v-485h-53z" />
    <glyph glyph-name="iogonek" unicode="&#x12f;" horiz-adv-x="222" 
d="M112 590c-25 0 -44 20 -44 44c0 25 19 43 44 43s44 -18 44 -43c0 -24 -19 -44 -44 -44zM162 -132l5 -39c-17 -8 -37 -12 -66 -12c-56 0 -93 29 -93 80c0 35 26 78 76 110v478h53v-485h-2c-49 -19 -81 -58 -81 -94c0 -29 17 -50 55 -50c28 0 37 4 53 12z" />
    <glyph glyph-name="itilde" unicode="&#x129;" horiz-adv-x="222" 
d="M190 572c-34 0 -62 21 -88 38c-20 14 -40 25 -61 25c-27 0 -48 -21 -62 -57l-37 14c18 55 48 89 94 89c34 0 57 -15 80 -30c22 -15 44 -34 68 -34s47 19 59 59l38 -13c-18 -60 -53 -91 -91 -91zM84 0v485h53v-485h-53z" />
    <glyph glyph-name="j" unicode="j" horiz-adv-x="201" 
d="M106 590c-25 0 -44 20 -44 44c0 25 19 43 44 43s44 -18 44 -43c0 -24 -19 -44 -44 -44zM18 -203c-22 0 -48 4 -74 16l9 49c18 -11 42 -15 58 -15c40 0 68 24 68 86v552h53v-552c0 -79 -35 -136 -114 -136z" />
    <glyph glyph-name="uni0237" unicode="&#x237;" horiz-adv-x="201" 
d="M18 -203c-22 0 -48 4 -74 16l9 49c18 -11 42 -15 58 -15c40 0 68 24 68 86v552h53v-552c0 -79 -35 -136 -114 -136z" />
    <glyph glyph-name="uni006A0301" horiz-adv-x="201" 
d="M80 572l120 138h63l-124 -138h-59zM18 -203c-22 0 -48 4 -74 16l9 49c18 -11 42 -15 58 -15c40 0 68 24 68 86v552h53v-552c0 -79 -35 -136 -114 -136z" />
    <glyph glyph-name="jcircumflex" unicode="&#x135;" horiz-adv-x="201" 
d="M-41 560l119 133h57l116 -133h-57l-86 98h-2l-90 -98h-57zM18 -203c-22 0 -48 4 -74 16l9 49c18 -11 42 -15 58 -15c40 0 68 24 68 86v552h53v-552c0 -79 -35 -136 -114 -136z" />
    <glyph glyph-name="k" unicode="k" horiz-adv-x="501" 
d="M78 0v736h53v-554l2 -1l276 304h66l-187 -205l186 -280h-61l-163 242l-119 -129v-113h-53z" />
    <glyph glyph-name="kcommaaccent" unicode="&#x137;" horiz-adv-x="501" 
d="M78 0v736h53v-554l2 -1l276 304h66l-187 -205l186 -280h-61l-163 242l-119 -129v-113h-53zM192 -206l-14 34c53 7 64 34 64 68c0 17 -2 32 -6 50h50c3 -17 5 -34 5 -53c0 -55 -33 -94 -99 -99z" />
    <glyph glyph-name="kgreenlandic" unicode="&#x138;" horiz-adv-x="526" 
d="M78 0v485h53v-304l2 -1l288 305h69l-202 -212l212 -273h-66l-183 236l-120 -125v-111h-53z" />
    <glyph glyph-name="l" unicode="l" horiz-adv-x="221" 
d="M84 0v736h53v-736h-53z" />
    <glyph glyph-name="lacute" unicode="&#x13a;" horiz-adv-x="221" 
d="M81 801l113 128h62l-118 -128h-57zM84 0v736h53v-736h-53z" />
    <glyph glyph-name="lcaron" unicode="&#x13e;" horiz-adv-x="277" 
d="M220 592l26 172h55l-41 -172h-40zM84 0v736h53v-736h-53z" />
    <glyph glyph-name="lcommaaccent" unicode="&#x13c;" horiz-adv-x="221" 
d="M84 0v736h53v-736h-53zM42 -206l-14 34c53 7 64 34 64 68c0 17 -2 32 -6 50h50c3 -17 5 -34 5 -53c0 -55 -33 -94 -99 -99z" />
    <glyph glyph-name="ldot" unicode="&#x140;" horiz-adv-x="294" 
d="M84 0v736h53v-736h-53zM257 221c-26 0 -45 19 -45 44s19 44 45 44c25 0 45 -19 45 -44s-20 -44 -45 -44z" />
    <glyph glyph-name="uni1E37" unicode="&#x1e37;" horiz-adv-x="221" 
d="M84 0v736h53v-736h-53zM120 -108c25 0 44 -20 44 -44c0 -25 -19 -43 -44 -43s-44 18 -44 43c0 24 19 44 44 44z" />
    <glyph glyph-name="uni1E39" unicode="&#x1e39;" horiz-adv-x="221" 
d="M-26 835v47h277v-47h-277zM84 0v736h53v-736h-53zM120 -108c25 0 44 -20 44 -44c0 -25 -19 -43 -44 -43s-44 18 -44 43c0 24 19 44 44 44z" />
    <glyph glyph-name="uni1E3B" unicode="&#x1e3b;" horiz-adv-x="221" 
d="M84 0v736h53v-736h-53zM259 -183h-277v48h277v-48z" />
    <glyph glyph-name="lslash" unicode="&#x142;" horiz-adv-x="243" 
d="M230 390v-46l-79 -32v-312h-53v291l-85 -34v46l85 34v399h53v-378z" />
    <glyph glyph-name="m" unicode="m" horiz-adv-x="874" 
d="M78 0v485h53v-106h1c36 70 101 111 173 111c81 0 134 -46 155 -124h2c34 78 102 124 181 124c110 0 165 -78 165 -211v-279h-53v262c0 119 -44 179 -124 179c-87 0 -158 -78 -158 -201v-240h-53v262c0 119 -47 179 -127 179c-91 0 -162 -78 -162 -201v-240h-53z" />
    <glyph glyph-name="uni1E43" unicode="&#x1e43;" horiz-adv-x="874" 
d="M78 0v485h53v-106h1c36 70 101 111 173 111c81 0 134 -46 155 -124h2c34 78 102 124 181 124c110 0 165 -78 165 -211v-279h-53v262c0 119 -44 179 -124 179c-87 0 -158 -78 -158 -201v-240h-53v262c0 119 -47 179 -127 179c-91 0 -162 -78 -162 -201v-240h-53zM447 -108
c25 0 44 -20 44 -44c0 -25 -19 -43 -44 -43s-44 18 -44 43c0 24 19 44 44 44z" />
    <glyph glyph-name="n" unicode="n" horiz-adv-x="560" 
d="M78 0v485h53v-107h2c36 71 105 112 188 112c104 0 171 -67 171 -200v-290h-53v273c0 124 -56 168 -131 168c-106 0 -177 -78 -177 -200v-241h-53z" />
    <glyph glyph-name="nacute" unicode="&#x144;" horiz-adv-x="560" 
d="M236 560l120 138h63l-124 -138h-59zM78 0v485h53v-107h2c36 71 105 112 188 112c104 0 171 -67 171 -200v-290h-53v273c0 124 -56 168 -131 168c-106 0 -177 -78 -177 -200v-241h-53z" />
    <glyph glyph-name="napostrophe" unicode="&#x149;" horiz-adv-x="621" 
d="M15 528l26 182h55l-41 -182h-40zM139 0v485h53v-107h2c36 71 105 112 188 112c104 0 171 -67 171 -200v-290h-53v273c0 124 -56 168 -131 168c-106 0 -177 -78 -177 -200v-241h-53z" />
    <glyph glyph-name="ncaron" unicode="&#x148;" horiz-adv-x="560" 
d="M257 559l-116 134h56l88 -99h2l89 99h57l-119 -134h-57zM78 0v485h53v-107h2c36 71 105 112 188 112c104 0 171 -67 171 -200v-290h-53v273c0 124 -56 168 -131 168c-106 0 -177 -78 -177 -200v-241h-53z" />
    <glyph glyph-name="ncommaaccent" unicode="&#x146;" horiz-adv-x="560" 
d="M78 0v485h53v-107h2c36 71 105 112 188 112c104 0 171 -67 171 -200v-290h-53v273c0 124 -56 168 -131 168c-106 0 -177 -78 -177 -200v-241h-53zM218 -206l-14 34c53 7 64 34 64 68c0 17 -2 32 -6 50h50c3 -17 5 -34 5 -53c0 -55 -33 -94 -99 -99z" />
    <glyph glyph-name="uni1E45" unicode="&#x1e45;" horiz-adv-x="560" 
d="M288 590c-25 0 -44 20 -44 44c0 25 19 43 44 43s44 -18 44 -43c0 -24 -19 -44 -44 -44zM78 0v485h53v-107h2c36 71 105 112 188 112c104 0 171 -67 171 -200v-290h-53v273c0 124 -56 168 -131 168c-106 0 -177 -78 -177 -200v-241h-53z" />
    <glyph glyph-name="uni1E47" unicode="&#x1e47;" horiz-adv-x="560" 
d="M78 0v485h53v-107h2c36 71 105 112 188 112c104 0 171 -67 171 -200v-290h-53v273c0 124 -56 168 -131 168c-106 0 -177 -78 -177 -200v-241h-53zM296 -108c25 0 44 -20 44 -44c0 -25 -19 -43 -44 -43s-44 18 -44 43c0 24 19 44 44 44z" />
    <glyph glyph-name="eng" unicode="&#x14b;" horiz-adv-x="559" 
d="M341 -202c-24 0 -46 4 -69 14l5 45c20 -10 40 -13 59 -13c69 0 102 26 102 121v308c0 124 -57 168 -132 168c-104 0 -175 -78 -175 -200v-241h-53v485h53v-107h2c36 71 103 112 187 112c104 0 171 -67 171 -200v-321c0 -115 -41 -171 -150 -171z" />
    <glyph glyph-name="uni0272" unicode="&#x272;" horiz-adv-x="560" 
d="M321 490c104 0 171 -67 171 -200v-290h-53v273c0 124 -56 168 -131 168c-106 0 -177 -78 -177 -200v-303c0 -82 -32 -140 -118 -140c-19 0 -44 3 -67 14l5 45c19 -10 41 -13 56 -13c43 0 71 27 71 90v551h53v-107h2c36 71 105 112 188 112z" />
    <glyph glyph-name="uni1E49" unicode="&#x1e49;" horiz-adv-x="560" 
d="M78 0v485h53v-107h2c36 71 105 112 188 112c104 0 171 -67 171 -200v-290h-53v273c0 124 -56 168 -131 168c-106 0 -177 -78 -177 -200v-241h-53zM435 -183h-277v48h277v-48z" />
    <glyph glyph-name="ntilde" unicode="&#xf1;" horiz-adv-x="560" 
d="M366 572c-34 0 -62 21 -88 38c-20 14 -40 25 -61 25c-27 0 -48 -21 -62 -57l-37 14c18 55 48 89 94 89c34 0 57 -15 80 -30c22 -15 44 -34 68 -34s47 19 59 59l38 -13c-18 -60 -53 -91 -91 -91zM78 0v485h53v-107h2c36 71 105 112 188 112c104 0 171 -67 171 -200v-290
h-53v273c0 124 -56 168 -131 168c-106 0 -177 -78 -177 -200v-241h-53z" />
    <glyph glyph-name="o" unicode="o" horiz-adv-x="586" 
d="M293 -5c-148 0 -247 110 -247 247s99 248 247 248c139 0 247 -100 247 -248c0 -146 -108 -247 -247 -247zM293 45c108 0 193 80 193 197c0 119 -86 199 -193 199c-116 0 -193 -89 -193 -199c0 -108 77 -197 193 -197z" />
    <glyph glyph-name="oacute" unicode="&#xf3;" horiz-adv-x="586" 
d="M263 560l120 138h63l-124 -138h-59zM293 -5c-148 0 -247 110 -247 247s99 248 247 248c139 0 247 -100 247 -248c0 -146 -108 -247 -247 -247zM293 45c108 0 193 80 193 197c0 119 -86 199 -193 199c-116 0 -193 -89 -193 -199c0 -108 77 -197 193 -197z" />
    <glyph glyph-name="obreve" unicode="&#x14f;" horiz-adv-x="586" 
d="M294 557c-74 0 -128 48 -134 134h44c4 -50 35 -90 90 -90c54 0 86 40 89 90h45c-7 -86 -60 -134 -134 -134zM293 -5c-148 0 -247 110 -247 247s99 248 247 248c139 0 247 -100 247 -248c0 -146 -108 -247 -247 -247zM293 45c108 0 193 80 193 197c0 119 -86 199 -193 199
c-116 0 -193 -89 -193 -199c0 -108 77 -197 193 -197z" />
    <glyph glyph-name="uni01D2" unicode="&#x1d2;" horiz-adv-x="586" 
d="M264 559l-116 134h56l88 -99h2l89 99h57l-119 -134h-57zM293 -5c-148 0 -247 110 -247 247s99 248 247 248c139 0 247 -100 247 -248c0 -146 -108 -247 -247 -247zM293 45c108 0 193 80 193 197c0 119 -86 199 -193 199c-116 0 -193 -89 -193 -199
c0 -108 77 -197 193 -197z" />
    <glyph glyph-name="ocircumflex" unicode="&#xf4;" horiz-adv-x="586" 
d="M148 560l119 133h57l116 -133h-57l-86 98h-2l-90 -98h-57zM293 -5c-148 0 -247 110 -247 247s99 248 247 248c139 0 247 -100 247 -248c0 -146 -108 -247 -247 -247zM293 45c108 0 193 80 193 197c0 119 -86 199 -193 199c-116 0 -193 -89 -193 -199
c0 -108 77 -197 193 -197z" />
    <glyph glyph-name="uni1ED1" unicode="&#x1ed1;" horiz-adv-x="586" 
d="M404 643l110 138h62l-124 -138h-48zM150 561l119 133h57l116 -133h-57l-86 98h-2l-90 -98h-57zM293 -5c-148 0 -247 110 -247 247s99 248 247 248c139 0 247 -100 247 -248c0 -146 -108 -247 -247 -247zM293 45c108 0 193 80 193 197c0 119 -86 199 -193 199
c-116 0 -193 -89 -193 -199c0 -108 77 -197 193 -197z" />
    <glyph glyph-name="uni1ED9" unicode="&#x1ed9;" horiz-adv-x="586" 
d="M148 560l119 133h57l116 -133h-57l-86 98h-2l-90 -98h-57zM293 -5c-148 0 -247 110 -247 247s99 248 247 248c139 0 247 -100 247 -248c0 -146 -108 -247 -247 -247zM293 45c108 0 193 80 193 197c0 119 -86 199 -193 199c-116 0 -193 -89 -193 -199
c0 -108 77 -197 193 -197zM293 -108c25 0 44 -20 44 -44c0 -25 -19 -43 -44 -43s-44 18 -44 43c0 24 19 44 44 44z" />
    <glyph glyph-name="uni1ED3" unicode="&#x1ed3;" horiz-adv-x="586" 
d="M459 643l-125 138h63l109 -138h-47zM147 561l119 133h57l116 -133h-57l-86 98h-2l-90 -98h-57zM293 -5c-148 0 -247 110 -247 247s99 248 247 248c139 0 247 -100 247 -248c0 -146 -108 -247 -247 -247zM293 45c108 0 193 80 193 197c0 119 -86 199 -193 199
c-116 0 -193 -89 -193 -199c0 -108 77 -197 193 -197z" />
    <glyph glyph-name="uni1ED5" unicode="&#x1ed5;" horiz-adv-x="586" 
d="M420 642c42 28 87 62 87 95c0 26 -20 35 -47 35c-30 0 -62 -12 -86 -31l-11 33c25 20 62 37 106 37c46 0 82 -20 82 -70c0 -45 -52 -81 -82 -99h-49zM147 560l119 133h57l116 -133h-57l-86 98h-2l-90 -98h-57zM293 -5c-148 0 -247 110 -247 247s99 248 247 248
c139 0 247 -100 247 -248c0 -146 -108 -247 -247 -247zM293 45c108 0 193 80 193 197c0 119 -86 199 -193 199c-116 0 -193 -89 -193 -199c0 -108 77 -197 193 -197z" />
    <glyph glyph-name="uni1ED7" unicode="&#x1ed7;" horiz-adv-x="586" 
d="M165 757l-37 14c18 54 45 87 91 87c27 0 49 -11 76 -28c29 -18 48 -33 69 -33c31 0 48 20 60 58l37 -12c-17 -57 -47 -90 -92 -90c-31 0 -60 20 -85 37c-22 14 -41 25 -61 24c-24 0 -45 -21 -58 -57zM149 560l119 133h57l116 -133h-57l-86 98h-2l-90 -98h-57zM293 -5
c-148 0 -247 110 -247 247s99 248 247 248c139 0 247 -100 247 -248c0 -146 -108 -247 -247 -247zM293 45c108 0 193 80 193 197c0 119 -86 199 -193 199c-116 0 -193 -89 -193 -199c0 -108 77 -197 193 -197z" />
    <glyph glyph-name="odieresis" unicode="&#xf6;" horiz-adv-x="586" 
d="M210 591c-24 0 -44 20 -44 43c0 25 20 43 44 43c25 0 44 -18 44 -43c0 -24 -19 -43 -44 -43zM375 591c-25 0 -44 20 -44 43c0 25 19 43 44 43s44 -18 44 -43c0 -24 -19 -43 -44 -43zM293 -5c-148 0 -247 110 -247 247s99 248 247 248c139 0 247 -100 247 -248
c0 -146 -108 -247 -247 -247zM293 45c108 0 193 80 193 197c0 119 -86 199 -193 199c-116 0 -193 -89 -193 -199c0 -108 77 -197 193 -197z" />
    <glyph glyph-name="uni1ECD" unicode="&#x1ecd;" horiz-adv-x="586" 
d="M293 -5c-148 0 -247 110 -247 247s99 248 247 248c139 0 247 -100 247 -248c0 -146 -108 -247 -247 -247zM293 45c108 0 193 80 193 197c0 119 -86 199 -193 199c-116 0 -193 -89 -193 -199c0 -108 77 -197 193 -197zM293 -108c25 0 44 -20 44 -44c0 -25 -19 -43 -44 -43
s-44 18 -44 43c0 24 19 44 44 44z" />
    <glyph glyph-name="ograve" unicode="&#xf2;" horiz-adv-x="586" 
d="M283 561l-117 133h63l112 -133h-58zM293 -5c-148 0 -247 110 -247 247s99 248 247 248c139 0 247 -100 247 -248c0 -146 -108 -247 -247 -247zM293 45c108 0 193 80 193 197c0 119 -86 199 -193 199c-116 0 -193 -89 -193 -199c0 -108 77 -197 193 -197z" />
    <glyph glyph-name="uni1ECF" unicode="&#x1ecf;" horiz-adv-x="586" 
d="M265 555c44 30 91 65 91 100c0 27 -21 36 -49 36c-32 0 -65 -12 -90 -32l-12 35c26 20 65 38 111 38c48 0 86 -21 86 -73c0 -47 -55 -85 -86 -104h-51zM293 -5c-148 0 -247 110 -247 247s99 248 247 248c139 0 247 -100 247 -248c0 -146 -108 -247 -247 -247zM293 45
c108 0 193 80 193 197c0 119 -86 199 -193 199c-116 0 -193 -89 -193 -199c0 -108 77 -197 193 -197z" />
    <glyph glyph-name="ohorn" unicode="&#x1a1;" horiz-adv-x="658" 
d="M580 565h53v-75c0 -101 -37 -151 -107 -162c9 -26 14 -55 14 -86c0 -146 -108 -247 -247 -247c-148 0 -247 110 -247 247s99 248 247 248c95 0 175 -47 217 -123c52 8 70 44 70 125v73zM293 45c108 0 193 80 193 197c0 119 -86 199 -193 199c-116 0 -193 -89 -193 -199
c0 -108 77 -197 193 -197z" />
    <glyph glyph-name="uni1EDB" unicode="&#x1edb;" horiz-adv-x="658" 
d="M446 698l-124 -138h-59l120 138h63zM580 565h53v-75c0 -101 -37 -151 -107 -162c9 -26 14 -55 14 -86c0 -146 -108 -247 -247 -247c-148 0 -247 110 -247 247s99 248 247 248c95 0 175 -47 217 -123c52 8 70 44 70 125v73zM293 45c108 0 193 80 193 197
c0 119 -86 199 -193 199c-116 0 -193 -89 -193 -199c0 -108 77 -197 193 -197z" />
    <glyph glyph-name="uni1EE3" unicode="&#x1ee3;" horiz-adv-x="658" 
d="M580 565h53v-75c0 -101 -37 -151 -107 -162c9 -26 14 -55 14 -86c0 -146 -108 -247 -247 -247c-148 0 -247 110 -247 247s99 248 247 248c95 0 175 -47 217 -123c52 8 70 44 70 125v73zM293 45c108 0 193 80 193 197c0 119 -86 199 -193 199c-116 0 -193 -89 -193 -199
c0 -108 77 -197 193 -197zM293 -108c25 0 44 -20 44 -44c0 -25 -19 -43 -44 -43s-44 18 -44 43c0 24 19 44 44 44z" />
    <glyph glyph-name="uni1EDD" unicode="&#x1edd;" horiz-adv-x="658" 
d="M341 561h-58l-117 133h63zM580 565h53v-75c0 -101 -37 -151 -107 -162c9 -26 14 -55 14 -86c0 -146 -108 -247 -247 -247c-148 0 -247 110 -247 247s99 248 247 248c95 0 175 -47 217 -123c52 8 70 44 70 125v73zM293 45c108 0 193 80 193 197c0 119 -86 199 -193 199
c-116 0 -193 -89 -193 -199c0 -108 77 -197 193 -197z" />
    <glyph glyph-name="uni1EDF" unicode="&#x1edf;" horiz-adv-x="658" 
d="M307 691c-32 0 -65 -12 -90 -32l-12 35c26 20 65 38 111 38c48 0 86 -21 86 -73c0 -47 -55 -85 -86 -104h-51c44 30 91 65 91 100c0 27 -21 36 -49 36zM580 565h53v-75c0 -101 -37 -151 -107 -162c9 -26 14 -55 14 -86c0 -146 -108 -247 -247 -247
c-148 0 -247 110 -247 247s99 248 247 248c95 0 175 -47 217 -123c52 8 70 44 70 125v73zM293 45c108 0 193 80 193 197c0 119 -86 199 -193 199c-116 0 -193 -89 -193 -199c0 -108 77 -197 193 -197z" />
    <glyph glyph-name="uni1EE1" unicode="&#x1ee1;" horiz-adv-x="658" 
d="M224 635c-27 0 -48 -21 -62 -57l-37 14c18 55 48 89 94 89c34 0 57 -15 80 -30c22 -15 44 -34 68 -34s47 19 59 59l38 -13c-18 -60 -53 -91 -91 -91c-34 0 -62 21 -88 38c-20 14 -40 25 -61 25zM580 565h53v-75c0 -101 -37 -151 -107 -162c9 -26 14 -55 14 -86
c0 -146 -108 -247 -247 -247c-148 0 -247 110 -247 247s99 248 247 248c95 0 175 -47 217 -123c52 8 70 44 70 125v73zM293 45c108 0 193 80 193 197c0 119 -86 199 -193 199c-116 0 -193 -89 -193 -199c0 -108 77 -197 193 -197z" />
    <glyph glyph-name="ohungarumlaut" unicode="&#x151;" horiz-adv-x="586" 
d="M194 560l119 138h60l-124 -138h-55zM341 560l119 138h60l-125 -138h-54zM293 -5c-148 0 -247 110 -247 247s99 248 247 248c139 0 247 -100 247 -248c0 -146 -108 -247 -247 -247zM293 45c108 0 193 80 193 197c0 119 -86 199 -193 199c-116 0 -193 -89 -193 -199
c0 -108 77 -197 193 -197z" />
    <glyph glyph-name="omacron" unicode="&#x14d;" horiz-adv-x="586" 
d="M156 607v48h277v-48h-277zM293 -5c-148 0 -247 110 -247 247s99 248 247 248c139 0 247 -100 247 -248c0 -146 -108 -247 -247 -247zM293 45c108 0 193 80 193 197c0 119 -86 199 -193 199c-116 0 -193 -89 -193 -199c0 -108 77 -197 193 -197z" />
    <glyph glyph-name="uni01EB" unicode="&#x1eb;" horiz-adv-x="586" 
d="M327 -3c-45 -20 -74 -57 -74 -91c0 -29 17 -50 55 -50c28 0 37 4 53 12l5 -39c-17 -8 -37 -12 -66 -12c-56 0 -93 29 -93 80c0 31 20 68 60 98l-1 1c-133 13 -220 117 -220 246c0 137 99 248 247 248c139 0 247 -100 247 -248c0 -134 -91 -230 -213 -245zM100 242
c0 -108 77 -197 193 -197c108 0 193 80 193 197c0 119 -86 199 -193 199c-116 0 -193 -89 -193 -199z" />
    <glyph glyph-name="oslash" unicode="&#xf8;" horiz-adv-x="586" 
d="M545 471l-62 -65c36 -43 57 -99 57 -164c0 -146 -108 -247 -247 -247c-60 0 -111 18 -151 48l-57 -60l-34 30l57 60c-39 44 -62 104 -62 169c0 137 99 248 247 248c61 0 117 -19 159 -54l61 64zM100 242c0 -50 16 -95 45 -130l271 286c-33 28 -76 43 -123 43
c-116 0 -193 -89 -193 -199zM486 242c0 49 -15 92 -39 125l-269 -286c31 -23 70 -36 115 -36c108 0 193 80 193 197z" />
    <glyph glyph-name="oslashacute" unicode="&#x1ff;" horiz-adv-x="586" 
d="M446 698l-124 -138h-59l120 138h63zM545 471l-62 -65c36 -43 57 -99 57 -164c0 -146 -108 -247 -247 -247c-60 0 -111 18 -151 48l-57 -60l-34 30l57 60c-39 44 -62 104 -62 169c0 137 99 248 247 248c61 0 117 -19 159 -54l61 64zM100 242c0 -50 16 -95 45 -130l271 286
c-33 28 -76 43 -123 43c-116 0 -193 -89 -193 -199zM486 242c0 49 -15 92 -39 125l-269 -286c31 -23 70 -36 115 -36c108 0 193 80 193 197z" />
    <glyph glyph-name="otilde" unicode="&#xf5;" horiz-adv-x="586" 
d="M373 572c-34 0 -62 21 -88 38c-20 14 -40 25 -61 25c-27 0 -48 -21 -62 -57l-37 14c18 55 48 89 94 89c34 0 57 -15 80 -30c22 -15 44 -34 68 -34s47 19 59 59l38 -13c-18 -60 -53 -91 -91 -91zM293 -5c-148 0 -247 110 -247 247s99 248 247 248c139 0 247 -100 247 -248
c0 -146 -108 -247 -247 -247zM293 45c108 0 193 80 193 197c0 119 -86 199 -193 199c-116 0 -193 -89 -193 -199c0 -108 77 -197 193 -197z" />
    <glyph glyph-name="oe" unicode="&#x153;" horiz-adv-x="819" 
d="M788 253c0 -9 -1 -18 -1 -22h-345c5 -116 64 -186 159 -186c67 0 102 28 133 73l38 -32c-39 -56 -89 -91 -171 -91c-104 0 -160 61 -186 130h-2c-27 -79 -96 -130 -173 -130c-128 0 -205 104 -205 247c0 141 82 248 205 248c81 0 145 -52 172 -130h2
c29 79 91 130 181 130c114 0 193 -100 193 -237zM239 45c84 0 149 80 149 197c0 119 -66 199 -147 199c-91 0 -152 -85 -152 -199s59 -197 150 -197zM444 275h291c-8 99 -59 166 -141 166c-90 0 -142 -68 -150 -166z" />
    <glyph glyph-name="p" unicode="p" horiz-adv-x="607" 
d="M78 -198v683h53v-109h2c36 71 107 114 190 114c140 0 238 -110 238 -251c0 -147 -105 -244 -238 -244c-88 0 -155 45 -190 112l-2 -1v-304h-53zM317 45c113 0 189 85 189 193c0 123 -85 203 -190 203c-112 0 -186 -90 -186 -203c0 -116 83 -193 187 -193z" />
    <glyph glyph-name="thorn" unicode="&#xfe;" horiz-adv-x="607" 
d="M78 -198v934h53v-359h2c36 70 107 113 189 113c141 0 239 -110 239 -251c0 -147 -105 -244 -239 -244c-87 0 -154 45 -189 111h-2v-304h-53zM316 45c114 0 190 85 190 193c0 123 -85 203 -191 203c-111 0 -185 -90 -185 -203c0 -116 83 -193 186 -193z" />
    <glyph glyph-name="q" unicode="q" horiz-adv-x="606" 
d="M477 -198v305h-1c-36 -67 -103 -112 -190 -112c-133 0 -239 97 -239 244c0 141 98 251 239 251c82 0 153 -43 190 -115h1v110h53v-683h-53zM292 45c103 0 187 77 187 193c0 113 -75 203 -186 203c-106 0 -191 -80 -191 -203c0 -108 76 -193 190 -193z" />
    <glyph glyph-name="r" unicode="r" horiz-adv-x="336" 
d="M78 0v485h53v-103h2c32 67 90 108 165 108h26v-59c-11 1 -22 2 -31 2c-99 0 -162 -80 -162 -195v-238h-53z" />
    <glyph glyph-name="racute" unicode="&#x155;" horiz-adv-x="336" 
d="M123 560l120 138h63l-124 -138h-59zM78 0v485h53v-103h2c32 67 90 108 165 108h26v-59c-11 1 -22 2 -31 2c-99 0 -162 -80 -162 -195v-238h-53z" />
    <glyph glyph-name="rcaron" unicode="&#x159;" horiz-adv-x="336" 
d="M174 559l-116 134h56l88 -99h2l89 99h57l-119 -134h-57zM78 0v485h53v-103h2c32 67 90 108 165 108h26v-59c-11 1 -22 2 -31 2c-99 0 -162 -80 -162 -195v-238h-53z" />
    <glyph glyph-name="rcommaaccent" unicode="&#x157;" horiz-adv-x="336" 
d="M78 0v485h53v-103h2c32 67 90 108 165 108h26v-59c-11 1 -22 2 -31 2c-99 0 -162 -80 -162 -195v-238h-53zM38 -206l-14 34c53 7 64 34 64 68c0 17 -2 32 -6 50h50c3 -17 5 -34 5 -53c0 -55 -33 -94 -99 -99z" />
    <glyph glyph-name="uni1E5B" unicode="&#x1e5b;" horiz-adv-x="336" 
d="M78 0v485h53v-103h2c32 67 90 108 165 108h26v-59c-11 1 -22 2 -31 2c-99 0 -162 -80 -162 -195v-238h-53zM116 -108c25 0 44 -20 44 -44c0 -25 -19 -43 -44 -43s-44 18 -44 43c0 24 19 44 44 44z" />
    <glyph glyph-name="uni1E5D" unicode="&#x1e5d;" horiz-adv-x="336" 
d="M66 607v48h277v-48h-277zM78 0v485h53v-103h2c32 67 90 108 165 108h26v-59c-11 1 -22 2 -31 2c-99 0 -162 -80 -162 -195v-238h-53zM116 -108c25 0 44 -20 44 -44c0 -25 -19 -43 -44 -43s-44 18 -44 43c0 24 19 44 44 44z" />
    <glyph glyph-name="uni1E5F" unicode="&#x1e5f;" horiz-adv-x="336" 
d="M78 0v485h53v-103h2c32 67 90 108 165 108h26v-59c-11 1 -22 2 -31 2c-99 0 -162 -80 -162 -195v-238h-53zM255 -183h-277v48h277v-48z" />
    <glyph glyph-name="s" unicode="s" horiz-adv-x="427" 
d="M217 -5c-81 0 -141 30 -184 69l28 40c38 -34 82 -61 156 -61c73 0 115 39 115 85c0 57 -55 71 -133 98c-79 28 -144 58 -144 141c0 71 65 123 151 123c56 0 110 -14 162 -59l-29 -40c-45 39 -90 51 -135 51c-51 0 -95 -32 -95 -74c0 -51 49 -71 106 -93
c102 -37 172 -55 172 -148c-1 -71 -58 -132 -170 -132z" />
    <glyph glyph-name="sacute" unicode="&#x15b;" horiz-adv-x="427" 
d="M183 560l120 138h63l-124 -138h-59zM217 -5c-81 0 -141 30 -184 69l28 40c38 -34 82 -61 156 -61c73 0 115 39 115 85c0 57 -55 71 -133 98c-79 28 -144 58 -144 141c0 71 65 123 151 123c56 0 110 -14 162 -59l-29 -40c-45 39 -90 51 -135 51c-51 0 -95 -32 -95 -74
c0 -51 49 -71 106 -93c102 -37 172 -55 172 -148c-1 -71 -58 -132 -170 -132z" />
    <glyph glyph-name="scaron" unicode="&#x161;" horiz-adv-x="427" 
d="M188 559l-116 134h56l88 -99h2l89 99h57l-119 -134h-57zM217 -5c-81 0 -141 30 -184 69l28 40c38 -34 82 -61 156 -61c73 0 115 39 115 85c0 57 -55 71 -133 98c-79 28 -144 58 -144 141c0 71 65 123 151 123c56 0 110 -14 162 -59l-29 -40c-45 39 -90 51 -135 51
c-51 0 -95 -32 -95 -74c0 -51 49 -71 106 -93c102 -37 172 -55 172 -148c-1 -71 -58 -132 -170 -132z" />
    <glyph glyph-name="scedilla" unicode="&#x15f;" horiz-adv-x="427" 
d="M211 -5l-12 -28v-1c46 -3 84 -30 84 -78c0 -40 -32 -74 -97 -74c-19 0 -37 2 -52 6v34c13 -4 27 -7 47 -7c31 0 61 14 61 44c0 24 -28 49 -83 49v25l15 33c-60 8 -106 34 -141 66l28 40c38 -34 82 -61 156 -61c73 0 115 39 115 85c0 57 -55 71 -133 98
c-79 28 -144 58 -144 141c0 71 65 123 151 123c56 0 110 -14 162 -59l-29 -40c-45 39 -90 51 -135 51c-51 0 -95 -32 -95 -74c0 -51 49 -71 106 -93c102 -37 172 -55 172 -148c-1 -71 -58 -132 -170 -132h-6z" />
    <glyph glyph-name="scircumflex" unicode="&#x15d;" horiz-adv-x="427" 
d="M72 560l119 133h57l116 -133h-57l-86 98h-2l-90 -98h-57zM217 -5c-81 0 -141 30 -184 69l28 40c38 -34 82 -61 156 -61c73 0 115 39 115 85c0 57 -55 71 -133 98c-79 28 -144 58 -144 141c0 71 65 123 151 123c56 0 110 -14 162 -59l-29 -40c-45 39 -90 51 -135 51
c-51 0 -95 -32 -95 -74c0 -51 49 -71 106 -93c102 -37 172 -55 172 -148c-1 -71 -58 -132 -170 -132z" />
    <glyph glyph-name="scommaaccent" unicode="&#x219;" horiz-adv-x="427" 
d="M217 -5c-81 0 -141 30 -184 69l28 40c38 -34 82 -61 156 -61c73 0 115 39 115 85c0 57 -55 71 -133 98c-79 28 -144 58 -144 141c0 71 65 123 151 123c56 0 110 -14 162 -59l-29 -40c-45 39 -90 51 -135 51c-51 0 -95 -32 -95 -74c0 -51 49 -71 106 -93
c102 -37 172 -55 172 -148c-1 -71 -58 -132 -170 -132zM136 -206l-14 34c53 7 64 34 64 68c0 17 -2 32 -6 50h50c3 -17 5 -34 5 -53c0 -55 -33 -94 -99 -99z" />
    <glyph glyph-name="uni1E61" unicode="&#x1e61;" horiz-adv-x="427" 
d="M219 590c-25 0 -44 20 -44 44c0 25 19 43 44 43s44 -18 44 -43c0 -24 -19 -44 -44 -44zM217 -5c-81 0 -141 30 -184 69l28 40c38 -34 82 -61 156 -61c73 0 115 39 115 85c0 57 -55 71 -133 98c-79 28 -144 58 -144 141c0 71 65 123 151 123c56 0 110 -14 162 -59l-29 -40
c-45 39 -90 51 -135 51c-51 0 -95 -32 -95 -74c0 -51 49 -71 106 -93c102 -37 172 -55 172 -148c-1 -71 -58 -132 -170 -132z" />
    <glyph glyph-name="uni1E63" unicode="&#x1e63;" horiz-adv-x="427" 
d="M217 -5c-81 0 -141 30 -184 69l28 40c38 -34 82 -61 156 -61c73 0 115 39 115 85c0 57 -55 71 -133 98c-79 28 -144 58 -144 141c0 71 65 123 151 123c56 0 110 -14 162 -59l-29 -40c-45 39 -90 51 -135 51c-51 0 -95 -32 -95 -74c0 -51 49 -71 106 -93
c102 -37 172 -55 172 -148c-1 -71 -58 -132 -170 -132zM214 -108c25 0 44 -20 44 -44c0 -25 -19 -43 -44 -43s-44 18 -44 43c0 24 19 44 44 44z" />
    <glyph glyph-name="germandbls" unicode="&#xdf;" horiz-adv-x="604" 
d="M230 -5v50h102c103 0 181 68 181 175c0 94 -71 182 -192 182h-61v48h58c128 0 149 79 149 118c0 75 -56 124 -159 124c-108 0 -176 -57 -176 -194v-498h-53v497c0 168 88 244 227 244c135 0 214 -66 214 -169c0 -42 -18 -111 -100 -139v-2c92 -33 146 -119 146 -211
c0 -138 -96 -225 -225 -225h-111z" />
    <glyph glyph-name="longs" unicode="&#x17f;" horiz-adv-x="303" 
d="M100 0v438h-63v47h63v108c0 101 50 148 128 148c43 0 76 -12 104 -28l-11 -47c-29 15 -57 25 -88 25c-46 0 -80 -28 -80 -102v-589h-53z" />
    <glyph glyph-name="t" unicode="t" horiz-adv-x="358" 
d="M209 -5c-89 0 -118 53 -118 142v301h-64v47h64v171l53 6v-177h177v-47h-177v-287c0 -67 12 -105 71 -105c38 0 71 15 91 28l14 -48c-23 -14 -60 -31 -111 -31z" />
    <glyph glyph-name="tbar" unicode="&#x167;" horiz-adv-x="358" 
d="M321 438h-177v-138h155v-41h-155v-108c0 -67 12 -105 71 -105c38 0 71 15 91 28l14 -48c-23 -14 -60 -31 -111 -31c-89 0 -118 53 -118 142v122h-52v41h52v138h-64v47h64v171l53 6v-177h177v-47z" />
    <glyph glyph-name="tcaron" unicode="&#x165;" horiz-adv-x="357" 
d="M225 592l26 172h55l-41 -172h-40zM209 -5c-89 0 -118 53 -118 142v301h-64v47h64v171l53 6v-177h177v-47h-177v-287c0 -67 12 -105 71 -105c38 0 71 15 91 28l14 -48c-23 -14 -60 -31 -111 -31z" />
    <glyph glyph-name="uni0163" unicode="&#x163;" horiz-adv-x="358" 
d="M321 438h-177v-287c0 -67 12 -105 71 -105c38 0 71 15 91 28l14 -48c-23 -14 -60 -31 -111 -31h-6l-12 -28v-1c46 -3 84 -30 84 -78c0 -40 -32 -74 -97 -74c-19 0 -37 2 -52 6v34c13 -4 27 -7 47 -7c31 0 61 14 61 44c0 24 -28 49 -83 49v25l16 35c-56 15 -76 64 -76 137
v301h-64v47h64v171l53 6v-177h177v-47z" />
    <glyph glyph-name="uni021B" unicode="&#x21b;" horiz-adv-x="358" 
d="M209 -5c-89 0 -118 53 -118 142v301h-64v47h64v171l53 6v-177h177v-47h-177v-287c0 -67 12 -105 71 -105c38 0 71 15 91 28l14 -48c-23 -14 -60 -31 -111 -31zM128 -206l-14 34c53 7 64 34 64 68c0 17 -2 32 -6 50h50c3 -17 5 -34 5 -53c0 -55 -33 -94 -99 -99z" />
    <glyph glyph-name="uni1E97" unicode="&#x1e97;" horiz-adv-x="358" 
d="M71 736c-24 0 -44 20 -44 43c0 25 20 43 44 43c25 0 44 -18 44 -43c0 -24 -19 -43 -44 -43zM236 736c-25 0 -44 20 -44 43c0 25 19 43 44 43s44 -18 44 -43c0 -24 -19 -43 -44 -43zM209 -5c-89 0 -118 53 -118 142v301h-64v47h64v171l53 6v-177h177v-47h-177v-287
c0 -67 12 -105 71 -105c38 0 71 15 91 28l14 -48c-23 -14 -60 -31 -111 -31z" />
    <glyph glyph-name="uni1E6D" unicode="&#x1e6d;" horiz-adv-x="358" 
d="M209 -5c-89 0 -118 53 -118 142v301h-64v47h64v171l53 6v-177h177v-47h-177v-287c0 -67 12 -105 71 -105c38 0 71 15 91 28l14 -48c-23 -14 -60 -31 -111 -31zM206 -108c25 0 44 -20 44 -44c0 -25 -19 -43 -44 -43s-44 18 -44 43c0 24 19 44 44 44z" />
    <glyph glyph-name="uni1E6F" unicode="&#x1e6f;" horiz-adv-x="358" 
d="M209 -5c-89 0 -118 53 -118 142v301h-64v47h64v171l53 6v-177h177v-47h-177v-287c0 -67 12 -105 71 -105c38 0 71 15 91 28l14 -48c-23 -14 -60 -31 -111 -31zM345 -183h-277v48h277v-48z" />
    <glyph glyph-name="u" unicode="u" horiz-adv-x="548" 
d="M250 -5c-116 0 -183 75 -183 207v283h53v-265c0 -123 52 -175 139 -175c90 0 164 78 164 203v237h53v-485h-53v104l-2 1c-35 -70 -99 -110 -171 -110z" />
    <glyph glyph-name="uacute" unicode="&#xfa;" horiz-adv-x="548" 
d="M235 560l120 138h63l-124 -138h-59zM250 -5c-116 0 -183 75 -183 207v283h53v-265c0 -123 52 -175 139 -175c90 0 164 78 164 203v237h53v-485h-53v104l-2 1c-35 -70 -99 -110 -171 -110z" />
    <glyph glyph-name="ubreve" unicode="&#x16d;" horiz-adv-x="548" 
d="M271 557c-74 0 -128 48 -134 134h44c4 -50 35 -90 90 -90c54 0 86 40 89 90h45c-7 -86 -60 -134 -134 -134zM250 -5c-116 0 -183 75 -183 207v283h53v-265c0 -123 52 -175 139 -175c90 0 164 78 164 203v237h53v-485h-53v104l-2 1c-35 -70 -99 -110 -171 -110z" />
    <glyph glyph-name="ucircumflex" unicode="&#xfb;" horiz-adv-x="548" 
d="M125 560l119 133h57l116 -133h-57l-86 98h-2l-90 -98h-57zM250 -5c-116 0 -183 75 -183 207v283h53v-265c0 -123 52 -175 139 -175c90 0 164 78 164 203v237h53v-485h-53v104l-2 1c-35 -70 -99 -110 -171 -110z" />
    <glyph glyph-name="udieresis" unicode="&#xfc;" horiz-adv-x="548" 
d="M187 591c-24 0 -44 20 -44 43c0 25 20 43 44 43c25 0 44 -18 44 -43c0 -24 -19 -43 -44 -43zM352 591c-25 0 -44 20 -44 43c0 25 19 43 44 43s44 -18 44 -43c0 -24 -19 -43 -44 -43zM250 -5c-116 0 -183 75 -183 207v283h53v-265c0 -123 52 -175 139 -175
c90 0 164 78 164 203v237h53v-485h-53v104l-2 1c-35 -70 -99 -110 -171 -110z" />
    <glyph glyph-name="uni1EE5" unicode="&#x1ee5;" horiz-adv-x="548" 
d="M250 -5c-116 0 -183 75 -183 207v283h53v-265c0 -123 52 -175 139 -175c90 0 164 78 164 203v237h53v-485h-53v104l-2 1c-35 -70 -99 -110 -171 -110zM274 -108c25 0 44 -20 44 -44c0 -25 -19 -43 -44 -43s-44 18 -44 43c0 24 19 44 44 44z" />
    <glyph glyph-name="ugrave" unicode="&#xf9;" horiz-adv-x="548" 
d="M274 561l-117 133h63l112 -133h-58zM250 -5c-116 0 -183 75 -183 207v283h53v-265c0 -123 52 -175 139 -175c90 0 164 78 164 203v237h53v-485h-53v104l-2 1c-35 -70 -99 -110 -171 -110z" />
    <glyph glyph-name="uni1EE7" unicode="&#x1ee7;" horiz-adv-x="548" 
d="M242 555c44 30 91 65 91 100c0 27 -21 36 -49 36c-32 0 -65 -12 -90 -32l-12 35c26 20 65 38 111 38c48 0 86 -21 86 -73c0 -47 -55 -85 -86 -104h-51zM250 -5c-116 0 -183 75 -183 207v283h53v-265c0 -123 52 -175 139 -175c90 0 164 78 164 203v237h53v-485h-53v104
l-2 1c-35 -70 -99 -110 -171 -110z" />
    <glyph glyph-name="uhorn" unicode="&#x1b0;" horiz-adv-x="629" 
d="M552 565h53v-75c0 -111 -46 -160 -129 -164v-326h-53v104l-2 1c-35 -70 -99 -110 -171 -110c-116 0 -183 75 -183 207v283h53v-265c0 -123 52 -175 139 -175c90 0 164 78 164 203v237h53v-119c57 7 76 42 76 126v73z" />
    <glyph glyph-name="uni1EE9" unicode="&#x1ee9;" horiz-adv-x="629" 
d="M418 698l-124 -138h-59l120 138h63zM552 565h53v-75c0 -111 -46 -160 -129 -164v-326h-53v104l-2 1c-35 -70 -99 -110 -171 -110c-116 0 -183 75 -183 207v283h53v-265c0 -123 52 -175 139 -175c90 0 164 78 164 203v237h53v-119c57 7 76 42 76 126v73z" />
    <glyph glyph-name="uni1EF1" unicode="&#x1ef1;" horiz-adv-x="629" 
d="M552 565h53v-75c0 -111 -46 -160 -129 -164v-326h-53v104l-2 1c-35 -70 -99 -110 -171 -110c-116 0 -183 75 -183 207v283h53v-265c0 -123 52 -175 139 -175c90 0 164 78 164 203v237h53v-119c57 7 76 42 76 126v73zM274 -108c25 0 44 -20 44 -44c0 -25 -19 -43 -44 -43
s-44 18 -44 43c0 24 19 44 44 44z" />
    <glyph glyph-name="uni1EEB" unicode="&#x1eeb;" horiz-adv-x="629" 
d="M319 561h-58l-117 133h63zM552 565h53v-75c0 -111 -46 -160 -129 -164v-326h-53v104l-2 1c-35 -70 -99 -110 -171 -110c-116 0 -183 75 -183 207v283h53v-265c0 -123 52 -175 139 -175c90 0 164 78 164 203v237h53v-119c57 7 76 42 76 126v73z" />
    <glyph glyph-name="uni1EED" unicode="&#x1eed;" horiz-adv-x="629" 
d="M284 691c-32 0 -65 -12 -90 -32l-12 35c26 20 65 38 111 38c48 0 86 -21 86 -73c0 -47 -55 -85 -86 -104h-51c44 30 91 65 91 100c0 27 -21 36 -49 36zM552 565h53v-75c0 -111 -46 -160 -129 -164v-326h-53v104l-2 1c-35 -70 -99 -110 -171 -110c-116 0 -183 75 -183 207
v283h53v-265c0 -123 52 -175 139 -175c90 0 164 78 164 203v237h53v-119c57 7 76 42 76 126v73z" />
    <glyph glyph-name="uni1EEF" unicode="&#x1eef;" horiz-adv-x="629" 
d="M201 635c-27 0 -48 -21 -62 -57l-37 14c18 55 48 89 94 89c34 0 57 -15 80 -30c22 -15 44 -34 68 -34s47 19 59 59l38 -13c-18 -60 -53 -91 -91 -91c-34 0 -62 21 -88 38c-20 14 -40 25 -61 25zM552 565h53v-75c0 -111 -46 -160 -129 -164v-326h-53v104l-2 1
c-35 -70 -99 -110 -171 -110c-116 0 -183 75 -183 207v283h53v-265c0 -123 52 -175 139 -175c90 0 164 78 164 203v237h53v-119c57 7 76 42 76 126v73z" />
    <glyph glyph-name="uhungarumlaut" unicode="&#x171;" horiz-adv-x="548" 
d="M171 560l119 138h60l-124 -138h-55zM318 560l119 138h60l-125 -138h-54zM250 -5c-116 0 -183 75 -183 207v283h53v-265c0 -123 52 -175 139 -175c90 0 164 78 164 203v237h53v-485h-53v104l-2 1c-35 -70 -99 -110 -171 -110z" />
    <glyph glyph-name="umacron" unicode="&#x16b;" horiz-adv-x="548" 
d="M133 607v48h277v-48h-277zM250 -5c-116 0 -183 75 -183 207v283h53v-265c0 -123 52 -175 139 -175c90 0 164 78 164 203v237h53v-485h-53v104l-2 1c-35 -70 -99 -110 -171 -110z" />
    <glyph glyph-name="uni01D4" unicode="&#x1d4;" horiz-adv-x="548" 
d="M241 559l-116 134h56l88 -99h2l89 99h57l-119 -134h-57zM250 -5c-116 0 -183 75 -183 207v283h53v-265c0 -123 52 -175 139 -175c90 0 164 78 164 203v237h53v-485h-53v104l-2 1c-35 -70 -99 -110 -171 -110z" />
    <glyph glyph-name="uni01D6" unicode="&#x1d6;" horiz-adv-x="548" 
d="M133 757v46h277v-46h-277zM188 592c-24 0 -44 18 -44 42s20 42 44 42c25 0 44 -18 44 -42s-19 -42 -44 -42zM353 592c-25 0 -44 18 -44 42s19 42 44 42s44 -18 44 -42s-19 -42 -44 -42zM250 -5c-116 0 -183 75 -183 207v283h53v-265c0 -123 52 -175 139 -175
c90 0 164 78 164 203v237h53v-485h-53v104l-2 1c-35 -70 -99 -110 -171 -110z" />
    <glyph glyph-name="uni01D8" unicode="&#x1d8;" horiz-adv-x="548" 
d="M244 705l120 139h63l-134 -139h-49zM188 592c-24 0 -44 18 -44 42s20 42 44 42c25 0 44 -18 44 -42s-19 -42 -44 -42zM353 592c-25 0 -44 18 -44 42s19 42 44 42s44 -18 44 -42s-19 -42 -44 -42zM250 -5c-116 0 -183 75 -183 207v283h53v-265c0 -123 52 -175 139 -175
c90 0 164 78 164 203v237h53v-485h-53v104l-2 1c-35 -70 -99 -110 -171 -110z" />
    <glyph glyph-name="uni01DA" unicode="&#x1da;" horiz-adv-x="548" 
d="M242 715l-116 134h56l88 -99h2l89 99h57l-119 -134h-57zM188 592c-24 0 -44 18 -44 42s20 42 44 42c25 0 44 -18 44 -42s-19 -42 -44 -42zM353 592c-25 0 -44 18 -44 42s19 42 44 42s44 -18 44 -42s-19 -42 -44 -42zM250 -5c-116 0 -183 75 -183 207v283h53v-265
c0 -123 52 -175 139 -175c90 0 164 78 164 203v237h53v-485h-53v104l-2 1c-35 -70 -99 -110 -171 -110z" />
    <glyph glyph-name="uni01DC" unicode="&#x1dc;" horiz-adv-x="548" 
d="M304 705h-49l-134 139h62zM188 592c-24 0 -44 18 -44 42s20 42 44 42c25 0 44 -18 44 -42s-19 -42 -44 -42zM353 592c-25 0 -44 18 -44 42s19 42 44 42s44 -18 44 -42s-19 -42 -44 -42zM250 -5c-116 0 -183 75 -183 207v283h53v-265c0 -123 52 -175 139 -175
c90 0 164 78 164 203v237h53v-485h-53v104l-2 1c-35 -70 -99 -110 -171 -110z" />
    <glyph glyph-name="uni0251" unicode="&#x251;" horiz-adv-x="598" 
d="M283 -5c-133 0 -239 97 -239 244c0 141 99 251 239 251c82 0 153 -43 189 -115h1v110h53v-485h-51v109l-2 1c-35 -69 -102 -115 -190 -115zM289 45c102 0 186 77 186 193c0 113 -76 203 -185 203c-106 0 -191 -80 -191 -203c0 -108 76 -193 190 -193z" />
    <glyph glyph-name="uni0261" unicode="&#x261;" horiz-adv-x="593" 
d="M292 -202c-73 0 -138 17 -199 54l14 49c60 -36 113 -54 183 -54c122 0 180 72 180 168v104h-1c-35 -65 -101 -108 -188 -108c-132 0 -236 94 -236 241c0 133 95 238 234 238c81 0 151 -39 189 -105h1v100h53v-461c0 -133 -72 -226 -230 -226zM286 61
c113 0 185 82 185 192c0 112 -80 188 -185 188c-112 0 -186 -83 -186 -188c0 -117 82 -192 186 -192z" />
    <glyph glyph-name="uni1E31" unicode="&#x1e31;" horiz-adv-x="501" 
d="M78 0v736h53v-554l2 -1l276 304h66l-187 -205l186 -280h-61l-163 242l-119 -129v-113h-53zM216 560l120 138h63l-124 -138h-59z" />
    <glyph glyph-name="uogonek" unicode="&#x173;" horiz-adv-x="548" 
d="M501 -132l5 -39c-17 -8 -37 -12 -66 -12c-56 0 -93 29 -93 80c0 35 26 78 76 110v97l-2 1c-35 -70 -99 -110 -171 -110c-116 0 -183 75 -183 207v283h53v-265c0 -123 52 -175 139 -175c90 0 164 78 164 203v237h53v-485h-2c-49 -19 -81 -58 -81 -94c0 -29 17 -50 55 -50
c28 0 37 4 53 12z" />
    <glyph glyph-name="uring" unicode="&#x16f;" horiz-adv-x="548" 
d="M271 550c-46 0 -86 37 -86 84c0 46 38 84 86 84c46 0 86 -37 86 -84c0 -46 -38 -84 -86 -84zM271 588c25 0 47 21 47 46c0 26 -22 47 -47 47c-26 0 -47 -22 -47 -47s21 -46 47 -46zM250 -5c-116 0 -183 75 -183 207v283h53v-265c0 -123 52 -175 139 -175
c90 0 164 78 164 203v237h53v-485h-53v104l-2 1c-35 -70 -99 -110 -171 -110z" />
    <glyph glyph-name="utilde" unicode="&#x169;" horiz-adv-x="548" 
d="M350 572c-34 0 -62 21 -88 38c-20 14 -40 25 -61 25c-27 0 -48 -21 -62 -57l-37 14c18 55 48 89 94 89c34 0 57 -15 80 -30c22 -15 44 -34 68 -34s47 19 59 59l38 -13c-18 -60 -53 -91 -91 -91zM250 -5c-116 0 -183 75 -183 207v283h53v-265c0 -123 52 -175 139 -175
c90 0 164 78 164 203v237h53v-485h-53v104l-2 1c-35 -70 -99 -110 -171 -110z" />
    <glyph glyph-name="v" unicode="v" horiz-adv-x="508" 
d="M229 0l-203 485h58l170 -414h2l168 414h57l-201 -485h-51z" />
    <glyph glyph-name="w" unicode="w" horiz-adv-x="759" 
d="M200 0l-170 485h56l139 -403h2l127 403h49l129 -403h2l140 403h54l-170 -485h-51l-127 401h-1l-129 -401h-50z" />
    <glyph glyph-name="wacute" unicode="&#x1e83;" horiz-adv-x="759" 
d="M349 560l120 138h63l-124 -138h-59zM200 0l-170 485h56l139 -403h2l127 403h49l129 -403h2l140 403h54l-170 -485h-51l-127 401h-1l-129 -401h-50z" />
    <glyph glyph-name="wcircumflex" unicode="&#x175;" horiz-adv-x="759" 
d="M233 560l119 133h57l116 -133h-57l-86 98h-2l-90 -98h-57zM200 0l-170 485h56l139 -403h2l127 403h49l129 -403h2l140 403h54l-170 -485h-51l-127 401h-1l-129 -401h-50z" />
    <glyph glyph-name="wdieresis" unicode="&#x1e85;" horiz-adv-x="759" 
d="M295 591c-24 0 -44 20 -44 43c0 25 20 43 44 43c25 0 44 -18 44 -43c0 -24 -19 -43 -44 -43zM460 591c-25 0 -44 20 -44 43c0 25 19 43 44 43s44 -18 44 -43c0 -24 -19 -43 -44 -43zM200 0l-170 485h56l139 -403h2l127 403h49l129 -403h2l140 403h54l-170 -485h-51
l-127 401h-1l-129 -401h-50z" />
    <glyph glyph-name="wgrave" unicode="&#x1e81;" horiz-adv-x="759" 
d="M348 561l-117 133h63l112 -133h-58zM200 0l-170 485h56l139 -403h2l127 403h49l129 -403h2l140 403h54l-170 -485h-51l-127 401h-1l-129 -401h-50z" />
    <glyph glyph-name="x" unicode="x" horiz-adv-x="487" 
d="M31 0l181 244l-182 241h64l148 -199h2l149 199h64l-181 -240l182 -245h-63l-151 199h-1l-150 -199h-62z" />
    <glyph glyph-name="y" unicode="y" horiz-adv-x="516" 
d="M151 -198l87 211l-214 472h59l181 -407h1l168 407h57l-282 -683h-57z" />
    <glyph glyph-name="yacute" unicode="&#xfd;" horiz-adv-x="516" 
d="M215 560l120 138h63l-124 -138h-59zM151 -198l87 211l-214 472h59l181 -407h1l168 407h57l-282 -683h-57z" />
    <glyph glyph-name="ycircumflex" unicode="&#x177;" horiz-adv-x="516" 
d="M113 560l119 133h57l116 -133h-57l-86 98h-2l-90 -98h-57zM151 -198l87 211l-214 472h59l181 -407h1l168 407h57l-282 -683h-57z" />
    <glyph glyph-name="ydieresis" unicode="&#xff;" horiz-adv-x="516" 
d="M175 591c-24 0 -44 20 -44 43c0 25 20 43 44 43c25 0 44 -18 44 -43c0 -24 -19 -43 -44 -43zM340 591c-25 0 -44 20 -44 43c0 25 19 43 44 43s44 -18 44 -43c0 -24 -19 -43 -44 -43zM151 -198l87 211l-214 472h59l181 -407h1l168 407h57l-282 -683h-57z" />
    <glyph glyph-name="uni1E8F" unicode="&#x1e8f;" horiz-adv-x="516" 
d="M260 590c-25 0 -44 20 -44 44c0 25 19 43 44 43s44 -18 44 -43c0 -24 -19 -44 -44 -44zM151 -198l87 211l-214 472h59l181 -407h1l168 407h57l-282 -683h-57z" />
    <glyph glyph-name="uni1EF5" unicode="&#x1ef5;" horiz-adv-x="516" 
d="M151 -198l87 211l-214 472h59l181 -407h1l168 407h57l-282 -683h-57zM381 -108c25 0 44 -20 44 -44c0 -25 -19 -43 -44 -43s-44 18 -44 43c0 24 19 44 44 44z" />
    <glyph glyph-name="ygrave" unicode="&#x1ef3;" horiz-adv-x="516" 
d="M253 561l-117 133h63l112 -133h-58zM151 -198l87 211l-214 472h59l181 -407h1l168 407h57l-282 -683h-57z" />
    <glyph glyph-name="uni1EF7" unicode="&#x1ef7;" horiz-adv-x="516" 
d="M230 555c44 30 91 65 91 100c0 27 -21 36 -49 36c-32 0 -65 -12 -90 -32l-12 35c26 20 65 38 111 38c48 0 86 -21 86 -73c0 -47 -55 -85 -86 -104h-51zM151 -198l87 211l-214 472h59l181 -407h1l168 407h57l-282 -683h-57z" />
    <glyph glyph-name="uni0233" unicode="&#x233;" horiz-adv-x="516" 
d="M121 607v48h277v-48h-277zM151 -198l87 211l-214 472h59l181 -407h1l168 407h57l-282 -683h-57z" />
    <glyph glyph-name="uni1EF9" unicode="&#x1ef9;" horiz-adv-x="516" 
d="M338 572c-34 0 -62 21 -88 38c-20 14 -40 25 -61 25c-27 0 -48 -21 -62 -57l-37 14c18 55 48 89 94 89c34 0 57 -15 80 -30c22 -15 44 -34 68 -34s47 19 59 59l38 -13c-18 -60 -53 -91 -91 -91zM151 -198l87 211l-214 472h59l181 -407h1l168 407h57l-282 -683h-57z" />
    <glyph glyph-name="z" unicode="z" horiz-adv-x="455" 
d="M33 0v42l310 395v1h-296v47h370v-39l-312 -397v-2h314v-47h-386z" />
    <glyph glyph-name="zacute" unicode="&#x17a;" horiz-adv-x="455" 
d="M194 560l120 138h63l-124 -138h-59zM33 0v42l310 395v1h-296v47h370v-39l-312 -397v-2h314v-47h-386z" />
    <glyph glyph-name="zcaron" unicode="&#x17e;" horiz-adv-x="455" 
d="M196 559l-116 134h56l88 -99h2l89 99h57l-119 -134h-57zM33 0v42l310 395v1h-296v47h370v-39l-312 -397v-2h314v-47h-386z" />
    <glyph glyph-name="zdotaccent" unicode="&#x17c;" horiz-adv-x="455" 
d="M227 590c-25 0 -44 20 -44 44c0 25 19 43 44 43s44 -18 44 -43c0 -24 -19 -44 -44 -44zM33 0v42l310 395v1h-296v47h370v-39l-312 -397v-2h314v-47h-386z" />
    <glyph glyph-name="uni1E93" unicode="&#x1e93;" horiz-adv-x="455" 
d="M33 0v42l310 395v1h-296v47h370v-39l-312 -397v-2h314v-47h-386zM226 -108c25 0 44 -20 44 -44c0 -25 -19 -43 -44 -43s-44 18 -44 43c0 24 19 44 44 44z" />
    <glyph glyph-name="a.alt" horiz-adv-x="491" 
d="M245 490c127 0 178 -78 178 -210v-280h-50l-1 77l-2 1c-33 -47 -95 -83 -169 -83c-109 0 -163 66 -163 144c0 84 56 144 182 144h152v1c0 108 -43 158 -130 158c-55 0 -109 -19 -147 -41l-21 45c45 24 113 44 171 44zM208 42c94 0 164 60 164 123v73h-152
c-78 0 -130 -33 -130 -97c0 -54 35 -99 118 -99z" />
    <glyph glyph-name="aacute.alt" horiz-adv-x="491" 
d="M392 696l-124 -138h-59l120 138h63zM245 490c127 0 178 -78 178 -210v-280h-50l-1 77l-2 1c-33 -47 -95 -83 -169 -83c-109 0 -163 66 -163 144c0 84 56 144 182 144h152v1c0 108 -43 158 -130 158c-55 0 -109 -19 -147 -41l-21 45c45 24 113 44 171 44zM208 42
c94 0 164 60 164 123v73h-152c-78 0 -130 -33 -130 -97c0 -54 35 -99 118 -99z" />
    <glyph glyph-name="abreve.alt" horiz-adv-x="491" 
d="M258 557c-74 0 -128 48 -134 134h44c4 -50 35 -90 90 -90c54 0 86 40 89 90h45c-7 -86 -60 -134 -134 -134zM245 490c127 0 178 -78 178 -210v-280h-50l-1 77l-2 1c-33 -47 -95 -83 -169 -83c-109 0 -163 66 -163 144c0 84 56 144 182 144h152v1c0 108 -43 158 -130 158
c-55 0 -109 -19 -147 -41l-21 45c45 24 113 44 171 44zM208 42c94 0 164 60 164 123v73h-152c-78 0 -130 -33 -130 -97c0 -54 35 -99 118 -99z" />
    <glyph glyph-name="uni1EAF.alt" horiz-adv-x="491" 
d="M399 836l-125 -138h-47l109 138h63zM258 557c-74 0 -128 48 -134 134h44c4 -50 35 -90 90 -90c54 0 86 40 89 90h45c-7 -86 -60 -134 -134 -134zM245 490c127 0 178 -78 178 -210v-280h-50l-1 77l-2 1c-33 -47 -95 -83 -169 -83c-109 0 -163 66 -163 144
c0 84 56 144 182 144h152v1c0 108 -43 158 -130 158c-55 0 -109 -19 -147 -41l-21 45c45 24 113 44 171 44zM208 42c94 0 164 60 164 123v73h-152c-78 0 -130 -33 -130 -97c0 -54 35 -99 118 -99z" />
    <glyph glyph-name="uni1EB7.alt" horiz-adv-x="491" 
d="M258 557c-74 0 -128 48 -134 134h44c4 -50 35 -90 90 -90c54 0 86 40 89 90h45c-7 -86 -60 -134 -134 -134zM245 490c127 0 178 -78 178 -210v-280h-50l-1 77l-2 1c-33 -47 -95 -83 -169 -83c-109 0 -163 66 -163 144c0 84 56 144 182 144h152v1c0 108 -43 158 -130 158
c-55 0 -109 -19 -147 -41l-21 45c45 24 113 44 171 44zM208 42c94 0 164 60 164 123v73h-152c-78 0 -130 -33 -130 -97c0 -54 35 -99 118 -99zM255 -108c25 0 44 -20 44 -44c0 -25 -19 -43 -44 -43s-44 18 -44 43c0 24 19 44 44 44z" />
    <glyph glyph-name="uni1EB1.alt" horiz-adv-x="491" 
d="M296 698h-47l-124 138h62zM258 557c-74 0 -128 48 -134 134h44c4 -50 35 -90 90 -90c54 0 86 40 89 90h45c-7 -86 -60 -134 -134 -134zM245 490c127 0 178 -78 178 -210v-280h-50l-1 77l-2 1c-33 -47 -95 -83 -169 -83c-109 0 -163 66 -163 144c0 84 56 144 182 144h152
v1c0 108 -43 158 -130 158c-55 0 -109 -19 -147 -41l-21 45c45 24 113 44 171 44zM208 42c94 0 164 60 164 123v73h-152c-78 0 -130 -33 -130 -97c0 -54 35 -99 118 -99z" />
    <glyph glyph-name="uni1EB3.alt" horiz-adv-x="491" 
d="M265 813c-30 0 -62 -12 -86 -31l-11 33c25 20 62 37 106 37c46 0 82 -20 82 -70c0 -45 -52 -81 -82 -99h-49c42 28 87 62 87 95c0 26 -20 35 -47 35zM257 558c-75 0 -130 47 -136 131h45c4 -49 35 -88 91 -88c55 0 87 39 90 88h46c-7 -84 -61 -131 -136 -131zM245 490
c127 0 178 -78 178 -210v-280h-50l-1 77l-2 1c-33 -47 -95 -83 -169 -83c-109 0 -163 66 -163 144c0 84 56 144 182 144h152v1c0 108 -43 158 -130 158c-55 0 -109 -19 -147 -41l-21 45c45 24 113 44 171 44zM208 42c94 0 164 60 164 123v73h-152c-78 0 -130 -33 -130 -97
c0 -54 35 -99 118 -99z" />
    <glyph glyph-name="uni1EB5.alt" horiz-adv-x="491" 
d="M187 802c-24 0 -45 -21 -58 -57l-37 14c18 54 45 87 91 87c27 0 49 -11 76 -28c29 -18 48 -33 69 -33c31 0 48 20 60 58l37 -12c-17 -57 -47 -90 -92 -90c-31 0 -60 20 -85 37c-22 14 -41 25 -61 24zM258 601c54 0 86 40 89 90h45c-7 -86 -60 -134 -134 -134
s-128 48 -134 134h44c4 -50 35 -90 90 -90zM245 490c127 0 178 -78 178 -210v-280h-50l-1 77l-2 1c-33 -47 -95 -83 -169 -83c-109 0 -163 66 -163 144c0 84 56 144 182 144h152v1c0 108 -43 158 -130 158c-55 0 -109 -19 -147 -41l-21 45c45 24 113 44 171 44zM208 42
c94 0 164 60 164 123v73h-152c-78 0 -130 -33 -130 -97c0 -54 35 -99 118 -99z" />
    <glyph glyph-name="uni01CE.alt" horiz-adv-x="491" 
d="M285 559h-57l-116 134h56l88 -99h2l89 99h57zM245 490c127 0 178 -78 178 -210v-280h-50l-1 77l-2 1c-33 -47 -95 -83 -169 -83c-109 0 -163 66 -163 144c0 84 56 144 182 144h152v1c0 108 -43 158 -130 158c-55 0 -109 -19 -147 -41l-21 45c45 24 113 44 171 44zM208 42
c94 0 164 60 164 123v73h-152c-78 0 -130 -33 -130 -97c0 -54 35 -99 118 -99z" />
    <glyph glyph-name="acircumflex.alt" horiz-adv-x="491" 
d="M259 658l-90 -98h-57l119 133h57l116 -133h-57l-86 98h-2zM245 490c127 0 178 -78 178 -210v-280h-50l-1 77l-2 1c-33 -47 -95 -83 -169 -83c-109 0 -163 66 -163 144c0 84 56 144 182 144h152v1c0 108 -43 158 -130 158c-55 0 -109 -19 -147 -41l-21 45
c45 24 113 44 171 44zM208 42c94 0 164 60 164 123v73h-152c-78 0 -130 -33 -130 -97c0 -54 35 -99 118 -99z" />
    <glyph glyph-name="uni1EA5.alt" horiz-adv-x="491" 
d="M540 781l-124 -138h-48l110 138h62zM261 659l-90 -98h-57l119 133h57l116 -133h-57l-86 98h-2zM245 490c127 0 178 -78 178 -210v-280h-50l-1 77l-2 1c-33 -47 -95 -83 -169 -83c-109 0 -163 66 -163 144c0 84 56 144 182 144h152v1c0 108 -43 158 -130 158
c-55 0 -109 -19 -147 -41l-21 45c45 24 113 44 171 44zM208 42c94 0 164 60 164 123v73h-152c-78 0 -130 -33 -130 -97c0 -54 35 -99 118 -99z" />
    <glyph glyph-name="uni1EAD.alt" horiz-adv-x="491" 
d="M259 658l-90 -98h-57l119 133h57l116 -133h-57l-86 98h-2zM245 490c127 0 178 -78 178 -210v-280h-50l-1 77l-2 1c-33 -47 -95 -83 -169 -83c-109 0 -163 66 -163 144c0 84 56 144 182 144h152v1c0 108 -43 158 -130 158c-55 0 -109 -19 -147 -41l-21 45
c45 24 113 44 171 44zM208 42c94 0 164 60 164 123v73h-152c-78 0 -130 -33 -130 -97c0 -54 35 -99 118 -99zM255 -108c25 0 44 -20 44 -44c0 -25 -19 -43 -44 -43s-44 18 -44 43c0 24 19 44 44 44z" />
    <glyph glyph-name="uni1EA7.alt" horiz-adv-x="491" 
d="M361 781l109 -138h-47l-125 138h63zM258 659l-90 -98h-57l119 133h57l116 -133h-57l-86 98h-2zM245 490c127 0 178 -78 178 -210v-280h-50l-1 77l-2 1c-33 -47 -95 -83 -169 -83c-109 0 -163 66 -163 144c0 84 56 144 182 144h152v1c0 108 -43 158 -130 158
c-55 0 -109 -19 -147 -41l-21 45c45 24 113 44 171 44zM208 42c94 0 164 60 164 123v73h-152c-78 0 -130 -33 -130 -97c0 -54 35 -99 118 -99z" />
    <glyph glyph-name="uni1EA9.alt" horiz-adv-x="491" 
d="M433 811c46 0 82 -20 82 -70c0 -45 -52 -81 -82 -99h-49c42 28 87 62 87 95c0 26 -20 35 -47 35c-30 0 -62 -12 -86 -31l-11 33c25 20 62 37 106 37zM258 658l-90 -98h-57l119 133h57l116 -133h-57l-86 98h-2zM245 490c127 0 178 -78 178 -210v-280h-50l-1 77l-2 1
c-33 -47 -95 -83 -169 -83c-109 0 -163 66 -163 144c0 84 56 144 182 144h152v1c0 108 -43 158 -130 158c-55 0 -109 -19 -147 -41l-21 45c45 24 113 44 171 44zM208 42c94 0 164 60 164 123v73h-152c-78 0 -130 -33 -130 -97c0 -54 35 -99 118 -99z" />
    <glyph glyph-name="uni1EAB.alt" horiz-adv-x="491" 
d="M187 814c-24 0 -45 -21 -58 -57l-37 14c18 54 45 87 91 87c27 0 49 -11 76 -28c29 -18 48 -33 69 -33c31 0 48 20 60 58l37 -12c-17 -57 -47 -90 -92 -90c-31 0 -60 20 -85 37c-22 14 -41 25 -61 24zM232 693h57l116 -133h-57l-86 98h-2l-90 -98h-57zM245 490
c127 0 178 -78 178 -210v-280h-50l-1 77l-2 1c-33 -47 -95 -83 -169 -83c-109 0 -163 66 -163 144c0 84 56 144 182 144h152v1c0 108 -43 158 -130 158c-55 0 -109 -19 -147 -41l-21 45c45 24 113 44 171 44zM208 42c94 0 164 60 164 123v73h-152c-78 0 -130 -33 -130 -97
c0 -54 35 -99 118 -99z" />
    <glyph glyph-name="adieresis.alt" horiz-adv-x="491" 
d="M174 591c-24 0 -44 20 -44 43c0 25 20 43 44 43c25 0 44 -18 44 -43c0 -24 -19 -43 -44 -43zM339 591c-25 0 -44 20 -44 43c0 25 19 43 44 43s44 -18 44 -43c0 -24 -19 -43 -44 -43zM245 490c127 0 178 -78 178 -210v-280h-50l-1 77l-2 1c-33 -47 -95 -83 -169 -83
c-109 0 -163 66 -163 144c0 84 56 144 182 144h152v1c0 108 -43 158 -130 158c-55 0 -109 -19 -147 -41l-21 45c45 24 113 44 171 44zM208 42c94 0 164 60 164 123v73h-152c-78 0 -130 -33 -130 -97c0 -54 35 -99 118 -99z" />
    <glyph glyph-name="uni1EA1.alt" horiz-adv-x="491" 
d="M245 490c127 0 178 -78 178 -210v-280h-50l-1 77l-2 1c-33 -47 -95 -83 -169 -83c-109 0 -163 66 -163 144c0 84 56 144 182 144h152v1c0 108 -43 158 -130 158c-55 0 -109 -19 -147 -41l-21 45c45 24 113 44 171 44zM208 42c94 0 164 60 164 123v73h-152
c-78 0 -130 -33 -130 -97c0 -54 35 -99 118 -99zM255 -108c25 0 44 -20 44 -44c0 -25 -19 -43 -44 -43s-44 18 -44 43c0 24 19 44 44 44z" />
    <glyph glyph-name="agrave.alt" horiz-adv-x="491" 
d="M310 561h-58l-117 133h63zM245 490c127 0 178 -78 178 -210v-280h-50l-1 77l-2 1c-33 -47 -95 -83 -169 -83c-109 0 -163 66 -163 144c0 84 56 144 182 144h152v1c0 108 -43 158 -130 158c-55 0 -109 -19 -147 -41l-21 45c45 24 113 44 171 44zM208 42
c94 0 164 60 164 123v73h-152c-78 0 -130 -33 -130 -97c0 -54 35 -99 118 -99z" />
    <glyph glyph-name="uni1EA3.alt" horiz-adv-x="491" 
d="M271 691c-32 0 -65 -12 -90 -32l-12 35c26 20 65 38 111 38c48 0 86 -21 86 -73c0 -47 -55 -85 -86 -104h-51c44 30 91 65 91 100c0 27 -21 36 -49 36zM245 490c127 0 178 -78 178 -210v-280h-50l-1 77l-2 1c-33 -47 -95 -83 -169 -83c-109 0 -163 66 -163 144
c0 84 56 144 182 144h152v1c0 108 -43 158 -130 158c-55 0 -109 -19 -147 -41l-21 45c45 24 113 44 171 44zM208 42c94 0 164 60 164 123v73h-152c-78 0 -130 -33 -130 -97c0 -54 35 -99 118 -99z" />
    <glyph glyph-name="amacron.alt" horiz-adv-x="491" 
d="M397 655v-48h-277v48h277zM245 490c127 0 178 -78 178 -210v-280h-50l-1 77l-2 1c-33 -47 -95 -83 -169 -83c-109 0 -163 66 -163 144c0 84 56 144 182 144h152v1c0 108 -43 158 -130 158c-55 0 -109 -19 -147 -41l-21 45c45 24 113 44 171 44zM208 42
c94 0 164 60 164 123v73h-152c-78 0 -130 -33 -130 -97c0 -54 35 -99 118 -99z" />
    <glyph glyph-name="aogonek.alt" horiz-adv-x="491" 
d="M450 -132l5 -39c-17 -8 -37 -12 -66 -12c-56 0 -93 29 -93 80c0 35 26 79 77 110l-1 70l-2 1c-33 -47 -95 -83 -169 -83c-109 0 -163 66 -163 144c0 84 56 144 182 144h152v1c0 108 -43 158 -130 158c-55 0 -109 -19 -147 -41l-21 45c45 24 113 44 171 44
c127 0 178 -78 178 -210v-280c-49 -19 -81 -58 -81 -94c0 -29 17 -50 55 -50c28 0 37 4 53 12zM208 42c94 0 164 60 164 123v73h-152c-78 0 -130 -33 -130 -97c0 -54 35 -99 118 -99z" />
    <glyph glyph-name="aring.alt" horiz-adv-x="491" 
d="M258 550c-46 0 -86 37 -86 84c0 46 38 84 86 84c46 0 86 -37 86 -84c0 -46 -38 -84 -86 -84zM258 681c-26 0 -47 -22 -47 -47s21 -46 47 -46c25 0 47 21 47 46c0 26 -22 47 -47 47zM245 490c127 0 178 -78 178 -210v-280h-50l-1 77l-2 1c-33 -47 -95 -83 -169 -83
c-109 0 -163 66 -163 144c0 84 56 144 182 144h152v1c0 108 -43 158 -130 158c-55 0 -109 -19 -147 -41l-21 45c45 24 113 44 171 44zM208 42c94 0 164 60 164 123v73h-152c-78 0 -130 -33 -130 -97c0 -54 35 -99 118 -99z" />
    <glyph glyph-name="aringacute.alt" horiz-adv-x="493" 
d="M258 550c-46 0 -86 37 -86 84c0 46 38 84 86 84c27 0 52 -13 68 -33l81 54h70l-134 -93c1 -4 1 -8 1 -12c0 -46 -38 -84 -86 -84zM258 681c-26 0 -47 -22 -47 -47s21 -46 47 -46c25 0 47 21 47 46c0 26 -22 47 -47 47zM245 490c127 0 178 -78 178 -210v-280h-50l-1 77
l-2 1c-33 -47 -95 -83 -169 -83c-109 0 -163 66 -163 144c0 84 56 144 182 144h152v1c0 108 -43 158 -130 158c-55 0 -109 -19 -147 -41l-21 45c45 24 113 44 171 44zM208 42c94 0 164 60 164 123v73h-152c-78 0 -130 -33 -130 -97c0 -54 35 -99 118 -99z" />
    <glyph glyph-name="atilde.alt" horiz-adv-x="491" 
d="M188 635c-27 0 -48 -21 -62 -57l-37 14c18 55 48 89 94 89c34 0 57 -15 80 -30c22 -15 44 -34 68 -34s47 19 59 59l38 -13c-18 -60 -53 -91 -91 -91c-34 0 -62 21 -88 38c-20 14 -40 25 -61 25zM245 490c127 0 178 -78 178 -210v-280h-50l-1 77l-2 1
c-33 -47 -95 -83 -169 -83c-109 0 -163 66 -163 144c0 84 56 144 182 144h152v1c0 108 -43 158 -130 158c-55 0 -109 -19 -147 -41l-21 45c45 24 113 44 171 44zM208 42c94 0 164 60 164 123v73h-152c-78 0 -130 -33 -130 -97c0 -54 35 -99 118 -99z" />
    <glyph glyph-name="g.alt" horiz-adv-x="541" 
d="M265 -216c-146 0 -230 51 -230 141c0 50 35 90 64 112v2c-23 13 -37 36 -37 63c0 34 19 60 63 102c-25 29 -41 67 -41 111c0 98 74 175 186 175c44 0 85 -13 116 -37l99 96l34 -33l-100 -93c23 -28 36 -65 36 -108c0 -95 -74 -173 -185 -173c-42 0 -82 13 -112 35
c-33 -31 -50 -47 -50 -72c0 -23 17 -45 83 -45h101c108 0 214 -19 214 -125c0 -78 -70 -151 -241 -151zM270 187c75 0 132 56 132 128c0 74 -55 130 -132 130c-78 0 -133 -56 -133 -130c0 -72 56 -128 133 -128zM267 -169c106 0 186 36 186 104c0 67 -71 80 -172 80h-78
c-23 0 -48 1 -66 5c-23 -18 -52 -51 -52 -89c0 -51 42 -99 182 -100z" />
    <glyph glyph-name="gbreve.alt" horiz-adv-x="541" 
d="M270 556c-74 0 -128 48 -134 134h44c4 -50 35 -90 90 -90c54 0 86 40 89 90h45c-7 -86 -60 -134 -134 -134zM265 -216c-146 0 -230 51 -230 141c0 50 35 90 64 112v2c-23 13 -37 36 -37 63c0 34 19 60 63 102c-25 29 -41 67 -41 111c0 98 74 175 186 175
c44 0 85 -13 116 -37l99 96l34 -33l-100 -93c23 -28 36 -65 36 -108c0 -95 -74 -173 -185 -173c-42 0 -82 13 -112 35c-33 -31 -50 -47 -50 -72c0 -23 17 -45 83 -45h101c108 0 214 -19 214 -125c0 -78 -70 -151 -241 -151zM270 187c75 0 132 56 132 128
c0 74 -55 130 -132 130c-78 0 -133 -56 -133 -130c0 -72 56 -128 133 -128zM267 -169c106 0 186 36 186 104c0 67 -71 80 -172 80h-78c-23 0 -48 1 -66 5c-23 -18 -52 -51 -52 -89c0 -51 42 -99 182 -100z" />
    <glyph glyph-name="gcaron.alt" horiz-adv-x="541" 
d="M240 558l-116 134h56l88 -99h2l89 99h57l-119 -134h-57zM265 -216c-146 0 -230 51 -230 141c0 50 35 90 64 112v2c-23 13 -37 36 -37 63c0 34 19 60 63 102c-25 29 -41 67 -41 111c0 98 74 175 186 175c44 0 85 -13 116 -37l99 96l34 -33l-100 -93c23 -28 36 -65 36 -108
c0 -95 -74 -173 -185 -173c-42 0 -82 13 -112 35c-33 -31 -50 -47 -50 -72c0 -23 17 -45 83 -45h101c108 0 214 -19 214 -125c0 -78 -70 -151 -241 -151zM270 187c75 0 132 56 132 128c0 74 -55 130 -132 130c-78 0 -133 -56 -133 -130c0 -72 56 -128 133 -128zM267 -169
c106 0 186 36 186 104c0 67 -71 80 -172 80h-78c-23 0 -48 1 -66 5c-23 -18 -52 -51 -52 -89c0 -51 42 -99 182 -100z" />
    <glyph glyph-name="gcircumflex.alt" horiz-adv-x="541" 
d="M123 558l119 140h51l122 -140h-57l-90 105l-88 -105h-57zM265 -216c-146 0 -230 51 -230 141c0 50 35 90 64 112v2c-23 13 -37 36 -37 63c0 34 19 60 63 102c-25 29 -41 67 -41 111c0 98 74 175 186 175c44 0 85 -13 116 -37l99 96l34 -33l-100 -93
c23 -28 36 -65 36 -108c0 -95 -74 -173 -185 -173c-42 0 -82 13 -112 35c-33 -31 -50 -47 -50 -72c0 -23 17 -45 83 -45h101c108 0 214 -19 214 -125c0 -78 -70 -151 -241 -151zM270 187c75 0 132 56 132 128c0 74 -55 130 -132 130c-78 0 -133 -56 -133 -130
c0 -72 56 -128 133 -128zM267 -169c106 0 186 36 186 104c0 67 -71 80 -172 80h-78c-23 0 -48 1 -66 5c-23 -18 -52 -51 -52 -89c0 -51 42 -99 182 -100z" />
    <glyph glyph-name="gcommaaccent.alt" horiz-adv-x="541" 
d="M348 705l14 -34c-53 -7 -64 -34 -64 -68c0 -17 2 -32 6 -50h-50c-3 17 -5 34 -5 53c0 55 33 94 99 99zM265 -216c-146 0 -230 51 -230 141c0 50 35 90 64 112v2c-23 13 -37 36 -37 63c0 34 19 60 63 102c-25 29 -41 67 -41 111c0 98 74 175 186 175c44 0 85 -13 116 -37
l99 96l34 -33l-100 -93c23 -28 36 -65 36 -108c0 -95 -74 -173 -185 -173c-42 0 -82 13 -112 35c-33 -31 -50 -47 -50 -72c0 -23 17 -45 83 -45h101c108 0 214 -19 214 -125c0 -78 -70 -151 -241 -151zM270 187c75 0 132 56 132 128c0 74 -55 130 -132 130
c-78 0 -133 -56 -133 -130c0 -72 56 -128 133 -128zM267 -169c106 0 186 36 186 104c0 67 -71 80 -172 80h-78c-23 0 -48 1 -66 5c-23 -18 -52 -51 -52 -89c0 -51 42 -99 182 -100z" />
    <glyph glyph-name="gdotaccent.alt" horiz-adv-x="541" 
d="M271 589c-25 0 -44 20 -44 44c0 25 19 43 44 43s44 -18 44 -43c0 -24 -19 -44 -44 -44zM265 -216c-146 0 -230 51 -230 141c0 50 35 90 64 112v2c-23 13 -37 36 -37 63c0 34 19 60 63 102c-25 29 -41 67 -41 111c0 98 74 175 186 175c44 0 85 -13 116 -37l99 96l34 -33
l-100 -93c23 -28 36 -65 36 -108c0 -95 -74 -173 -185 -173c-42 0 -82 13 -112 35c-33 -31 -50 -47 -50 -72c0 -23 17 -45 83 -45h101c108 0 214 -19 214 -125c0 -78 -70 -151 -241 -151zM270 187c75 0 132 56 132 128c0 74 -55 130 -132 130c-78 0 -133 -56 -133 -130
c0 -72 56 -128 133 -128zM267 -169c106 0 186 36 186 104c0 67 -71 80 -172 80h-78c-23 0 -48 1 -66 5c-23 -18 -52 -51 -52 -89c0 -51 42 -99 182 -100z" />
    <glyph glyph-name="uni1E21.alt" horiz-adv-x="541" 
d="M132 606v48h277v-48h-277zM265 -216c-146 0 -230 51 -230 141c0 50 35 90 64 112v2c-23 13 -37 36 -37 63c0 34 19 60 63 102c-25 29 -41 67 -41 111c0 98 74 175 186 175c44 0 85 -13 116 -37l99 96l34 -33l-100 -93c23 -28 36 -65 36 -108c0 -95 -74 -173 -185 -173
c-42 0 -82 13 -112 35c-33 -31 -50 -47 -50 -72c0 -23 17 -45 83 -45h101c108 0 214 -19 214 -125c0 -78 -70 -151 -241 -151zM270 187c75 0 132 56 132 128c0 74 -55 130 -132 130c-78 0 -133 -56 -133 -130c0 -72 56 -128 133 -128zM267 -169c106 0 186 36 186 104
c0 67 -71 80 -172 80h-78c-23 0 -48 1 -66 5c-23 -18 -52 -51 -52 -89c0 -51 42 -99 182 -100z" />
    <glyph glyph-name="f.calt" horiz-adv-x="322" 
d="M100 0v438h-63v47h63v110c0 101 50 146 128 146c27 0 50 -5 70 -12l-11 -47c-16 6 -34 10 -53 10c-43 0 -81 -24 -81 -103v-104h155v-47h-155v-438h-53z" />
    <glyph glyph-name="j.calt" horiz-adv-x="201" 
d="M106 590c-25 0 -44 20 -44 44c0 25 19 43 44 43s44 -18 44 -43c0 -24 -19 -44 -44 -44zM35 -203c-14 0 -29 2 -42 5l6 49c8 -3 21 -4 30 -4c28 0 50 21 50 83v555h53v-555c0 -78 -30 -133 -97 -133z" />
    <glyph glyph-name="uni0237.calt" horiz-adv-x="201" 
d="M35 -203c-14 0 -29 2 -42 5l6 49c8 -3 21 -4 30 -4c28 0 50 21 50 83v555h53v-555c0 -78 -30 -133 -97 -133z" />
    <glyph glyph-name="jcircumflex.calt" horiz-adv-x="201" 
d="M-41 560l119 133h57l116 -133h-57l-86 98h-2l-90 -98h-57zM35 -203c-14 0 -29 2 -42 5l6 49c8 -3 21 -4 30 -4c28 0 50 21 50 83v555h53v-555c0 -78 -30 -133 -97 -133z" />
    <glyph glyph-name="germandbls.calt" horiz-adv-x="718" 
d="M464 390c117 -45 219 -77 219 -205c0 -117 -99 -190 -227 -190c-78 0 -162 29 -227 94l28 53c52 -63 129 -93 201 -93c91 0 166 46 166 131c0 92 -79 117 -179 155c-30 11 -63 25 -94 40l143 265l-1 3c-60 12 -129 20 -187 20c-128 0 -185 -49 -186 -163v-500h-57l1 504
c0 146 80 211 235 211c73 0 181 -14 275 -37l-147 -273z" />
    <glyph glyph-name="uni0162" unicode="&#x162;" horiz-adv-x="558" 
d="M285 0l-14 -33v-1c46 -3 84 -30 84 -78c0 -40 -32 -74 -97 -74c-19 0 -37 2 -52 6v34c13 -4 27 -7 47 -7c31 0 61 14 61 44c0 24 -28 49 -83 49v25l18 39v654h-222v52h504v-52h-225v-658h-21z" />
    <glyph glyph-name="uni021A" unicode="&#x21a;" horiz-adv-x="558" 
d="M249 0v658h-222v52h504v-52h-225v-658h-57zM208 -206l-14 34c53 7 64 34 64 68c0 17 -2 32 -6 50h50c3 -17 5 -34 5 -53c0 -55 -33 -94 -99 -99z" />
    <glyph glyph-name="ordfeminine" unicode="&#xaa;" horiz-adv-x="413" 
d="M193 392c-83 0 -145 59 -145 147c0 85 58 151 144 151c46 0 90 -23 116 -62h1v59h43v-292h-43v55h-1c-25 -37 -66 -58 -115 -58zM202 432c59 0 107 43 107 107c0 62 -44 111 -106 111c-63 0 -112 -44 -112 -111c0 -60 44 -107 111 -107z" />
    <glyph glyph-name="ordmasculine" unicode="&#xba;" horiz-adv-x="403" 
d="M200 391c-91 0 -152 66 -152 150s61 149 152 149c86 0 152 -61 152 -149c0 -89 -66 -150 -152 -150zM200 432c60 0 109 44 109 109s-49 109 -109 109c-65 0 -108 -49 -108 -109s43 -109 108 -109z" />
    <glyph glyph-name="uni0410" unicode="&#x410;" horiz-adv-x="659" 
d="M27 0l271 710h60l274 -710h-60l-73 191h-340l-72 -191h-60zM177 242h304l-151 400h-2z" />
    <glyph glyph-name="uni0411" unicode="&#x411;" horiz-adv-x="611" 
d="M88 0v710h414v-52h-357v-243h173c156 0 241 -69 241 -204c0 -145 -89 -211 -241 -211h-230zM145 52h173c130 0 182 64 182 156c0 95 -55 155 -182 155h-173v-311z" />
    <glyph glyph-name="uni0412" unicode="&#x412;" horiz-adv-x="623" 
d="M88 0v710h219c132 0 227 -48 227 -172c0 -73 -39 -140 -121 -165v-1c83 -15 156 -73 156 -182c0 -112 -77 -190 -241 -190h-240zM145 394h171c78 0 160 33 160 134c0 79 -51 130 -174 130h-157v-264zM145 52h180c110 0 185 46 185 141c0 94 -68 150 -191 150h-174v-291z
" />
    <glyph glyph-name="uni0413" unicode="&#x413;" horiz-adv-x="538" 
d="M88 0v710h425v-52h-368v-658h-57z" />
    <glyph glyph-name="uni0403" unicode="&#x403;" horiz-adv-x="538" 
d="M217 788l113 128h62l-118 -128h-57zM88 0v710h425v-52h-368v-658h-57z" />
    <glyph glyph-name="uni0490" unicode="&#x490;" horiz-adv-x="538" 
d="M465 854h48v-196h-368v-658h-57v710h373z" />
    <glyph glyph-name="uni0414" unicode="&#x414;" horiz-adv-x="787" 
d="M747 52v-196h-48l-4 144h-624l-4 -144h-48v196h91c55 85 85 184 106 299c17 100 24 212 26 359h407v-658h98zM270 333c-20 -111 -50 -209 -98 -281h420v606h-295c-2 -127 -11 -232 -27 -325z" />
    <glyph glyph-name="uni0415" unicode="&#x415;" horiz-adv-x="579" 
d="M88 0v710h424v-52h-367v-278h305v-52h-305v-276h388v-52h-445z" />
    <glyph glyph-name="uni0400" unicode="&#x400;" horiz-adv-x="579" 
d="M322 788l-118 128h63l113 -128h-58zM88 0v710h424v-52h-367v-278h305v-52h-305v-276h388v-52h-445z" />
    <glyph glyph-name="uni0401" unicode="&#x401;" horiz-adv-x="579" 
d="M214 828c-24 0 -44 20 -44 43c0 25 20 43 44 43c25 0 44 -18 44 -43c0 -24 -19 -43 -44 -43zM379 828c-25 0 -44 20 -44 43c0 25 19 43 44 43s44 -18 44 -43c0 -24 -19 -43 -44 -43zM88 0v710h424v-52h-367v-278h305v-52h-305v-276h388v-52h-445z" />
    <glyph glyph-name="uni0416" unicode="&#x416;" horiz-adv-x="930" 
d="M31 0l254 381l-254 329h69l334 -434l2 1v433h55v-437h1l328 437h69l-247 -329l259 -381h-68l-232 341l-110 -142v-199h-55v201l-110 141l-228 -342h-67z" />
    <glyph glyph-name="uni0417" unicode="&#x417;" horiz-adv-x="600" 
d="M300 -5c-107 0 -198 39 -257 107l38 45c47 -63 127 -98 220 -98c111 0 188 55 188 149c0 90 -68 146 -195 146h-123v51h121c83 0 163 42 163 138c0 81 -60 129 -162 129c-71 0 -137 -23 -188 -63l-34 43c49 43 140 73 228 73c130 0 214 -69 214 -174
c0 -72 -39 -140 -122 -166v-2c84 -15 157 -68 157 -174c0 -114 -86 -204 -248 -204z" />
    <glyph glyph-name="uni0418" unicode="&#x418;" horiz-adv-x="722" 
d="M88 0v710h57v-614h1l437 614h51v-710h-57v611h-1l-435 -611h-53z" />
    <glyph glyph-name="uni0419" unicode="&#x419;" horiz-adv-x="722" 
d="M363 783c-75 0 -137 40 -149 122l48 6c5 -42 35 -90 101 -90s95 48 100 90l49 -6c-13 -82 -74 -122 -149 -122zM88 0v710h57v-614h1l437 614h51v-710h-57v611h-1l-435 -611h-53z" />
    <glyph glyph-name="uni040D" unicode="&#x40d;" horiz-adv-x="722" 
d="M387 788l-118 128h63l113 -128h-58zM88 0v710h57v-614h1l437 614h51v-710h-57v611h-1l-435 -611h-53z" />
    <glyph glyph-name="uni048A" unicode="&#x48a;" horiz-adv-x="735" 
d="M363 783c-75 0 -137 40 -149 122l48 6c5 -42 35 -90 101 -90s95 48 100 90l49 -6c-13 -82 -74 -122 -149 -122zM634 52h62v-19l-67 -177h-44l45 144h-53v611h-1l-435 -611h-53v710h57v-614h1l437 614h51v-658z" />
    <glyph glyph-name="uni041A" unicode="&#x41a;" horiz-adv-x="630" 
d="M88 0v710h57v-434h2l368 434h73l-283 -329l289 -381h-71l-255 336l-123 -143v-193h-57z" />
    <glyph glyph-name="uni040C" unicode="&#x40c;" horiz-adv-x="630" 
d="M248 788l113 128h62l-118 -128h-57zM88 0v710h57v-434h2l368 434h73l-283 -329l289 -381h-71l-255 336l-123 -143v-193h-57z" />
    <glyph glyph-name="uni041B" unicode="&#x41b;" horiz-adv-x="710" 
d="M216 710h406v-710h-57v658h-294c-8 -121 -16 -267 -28 -363c-26 -212 -78 -298 -179 -298c-20 0 -37 3 -47 7l4 48c9 -2 23 -3 32 -3c74 0 111 74 135 258c12 98 21 246 28 403z" />
    <glyph glyph-name="uni041C" unicode="&#x41c;" horiz-adv-x="865" 
d="M89 0v710h57l286 -491h2l285 491h57v-710h-57v599h-1l-265 -450h-41l-266 450h-1v-599h-56z" />
    <glyph glyph-name="uni041D" unicode="&#x41d;" horiz-adv-x="707" 
d="M88 0v710h57v-348h417v348h57v-710h-57v310h-417v-310h-57z" />
    <glyph glyph-name="uni041E" unicode="&#x41e;" horiz-adv-x="824" 
d="M413 -5c-200 0 -353 147 -353 361c0 213 153 359 353 359c196 0 351 -144 351 -359c0 -216 -155 -361 -351 -361zM413 49c161 0 292 124 292 307c0 182 -131 305 -292 305c-166 0 -295 -126 -295 -305c0 -181 129 -307 295 -307z" />
    <glyph glyph-name="uni041F" unicode="&#x41f;" horiz-adv-x="685" 
d="M88 0v710h508v-710h-56v658h-395v-658h-57z" />
    <glyph glyph-name="uni0420" unicode="&#x420;" horiz-adv-x="598" 
d="M88 0v710h242c161 0 227 -90 227 -210c0 -148 -100 -213 -244 -213h-168v-287h-57zM145 340h163c137 0 190 69 190 160c0 105 -68 158 -170 158h-183v-318z" />
    <glyph glyph-name="uni0421" unicode="&#x421;" horiz-adv-x="719" 
d="M410 -4c-191 0 -350 125 -350 356c0 202 123 363 349 363c100 0 199 -41 274 -134l-43 -37c-65 82 -145 117 -231 117c-184 0 -290 -132 -290 -309c0 -192 127 -302 291 -302c103 0 177 48 231 115l43 -36c-62 -77 -149 -133 -274 -133z" />
    <glyph glyph-name="uni0422" unicode="&#x422;" horiz-adv-x="558" 
d="M249 0v658h-222v52h504v-52h-225v-658h-57z" />
    <glyph glyph-name="uni0423" unicode="&#x423;" horiz-adv-x="640" 
d="M556 710h60l-239 -534c-44 -99 -74 -181 -181 -181c-35 0 -85 12 -112 40l20 49c29 -25 64 -34 91 -34c62 0 91 43 125 128l-296 532h64l257 -467h1z" />
    <glyph glyph-name="uni040E" unicode="&#x40e;" horiz-adv-x="640" 
d="M323 783c-75 0 -137 40 -149 122l48 6c5 -42 35 -90 101 -90s95 48 100 90l49 -6c-13 -82 -74 -122 -149 -122zM556 710h60l-239 -534c-44 -99 -74 -181 -181 -181c-35 0 -85 12 -112 40l20 49c29 -25 64 -34 91 -34c62 0 91 43 125 128l-296 532h64l257 -467h1z" />
    <glyph glyph-name="uni0424" unicode="&#x424;" horiz-adv-x="845" 
d="M792 361c0 -171 -132 -287 -342 -288v-73h-56v73c-211 1 -342 117 -342 288c0 182 131 301 342 303v64h56v-64c210 -2 342 -121 342 -303zM111 361c0 -138 106 -235 284 -236v486c-181 -1 -284 -103 -284 -250zM450 125c178 2 283 98 283 236c0 148 -103 248 -283 250
v-486z" />
    <glyph glyph-name="uni0425" unicode="&#x425;" horiz-adv-x="635" 
d="M33 0l248 355l-247 355h67l217 -310h1l216 310h66l-246 -355l248 -355h-68l-216 307h-2l-217 -307h-67z" />
    <glyph glyph-name="uni0427" unicode="&#x427;" horiz-adv-x="633" 
d="M488 710h57v-710h-57v304c-64 -35 -157 -52 -215 -52c-148 0 -206 77 -206 230v228h57v-221c0 -137 48 -183 160 -183c52 0 141 14 204 51v353z" />
    <glyph glyph-name="uni0426" unicode="&#x426;" horiz-adv-x="724" 
d="M683 52v-196h-48l-4 144h-543v710h57v-658h383v658h57v-658h98z" />
    <glyph glyph-name="uni0428" unicode="&#x428;" horiz-adv-x="961" 
d="M816 710h56v-710h-784v710h57v-658h307v658h57v-658h307v658z" />
    <glyph glyph-name="uni0429" unicode="&#x429;" horiz-adv-x="1012" 
d="M970 52v-196h-48l-4 144h-830v710h57v-658h307v658h57v-658h307v658h56v-658h98z" />
    <glyph glyph-name="uni040F" unicode="&#x40f;" horiz-adv-x="685" 
d="M596 710v-710h-228l-2 -144h-47l-2 144h-229v710h57v-658h395v658h56z" />
    <glyph glyph-name="uni042C" unicode="&#x42c;" horiz-adv-x="614" 
d="M88 0v710h57v-291h182c156 0 241 -70 241 -207c0 -146 -90 -212 -241 -212h-239zM145 52h182c130 0 182 64 182 157c0 97 -55 158 -182 158h-182v-315z" />
    <glyph glyph-name="uni042A" unicode="&#x42a;" horiz-adv-x="725" 
d="M438 419c155 0 240 -70 240 -207c0 -146 -89 -212 -241 -212h-238v658h-193v52h250v-291h182zM437 52c130 0 183 64 183 157c0 97 -55 158 -182 158h-182v-315h181z" />
    <glyph glyph-name="uni042B" unicode="&#x42b;" horiz-adv-x="816" 
d="M88 0v710h57v-291h162c156 0 241 -70 241 -207c0 -146 -90 -212 -241 -212h-219zM671 0v710h57v-710h-57zM145 52h162c130 0 182 64 182 157c0 97 -55 158 -182 158h-162v-315z" />
    <glyph glyph-name="uni0409" unicode="&#x409;" horiz-adv-x="1091" 
d="M804 419c156 0 241 -70 241 -207c0 -146 -90 -212 -241 -212h-239v658h-294c-8 -121 -16 -267 -28 -363c-26 -212 -78 -298 -179 -298c-20 0 -37 3 -47 7l4 48c9 -2 23 -3 32 -3c74 0 111 74 135 258c12 98 21 246 28 403h406v-291h182zM804 52c130 0 182 64 182 157
c0 97 -55 158 -182 158h-182v-315h182z" />
    <glyph glyph-name="uni040A" unicode="&#x40a;" horiz-adv-x="1080" 
d="M797 399c156 0 237 -69 237 -194c0 -139 -87 -205 -239 -205h-247v341h-403v-341h-57v710h57v-317h403v317h57v-311h192zM795 52c130 0 180 64 180 151c0 83 -50 144 -178 144h-192v-295h190z" />
    <glyph glyph-name="uni0405" unicode="&#x405;" horiz-adv-x="569" 
d="M288 -5c-88 0 -179 33 -245 109l38 44c51 -67 132 -99 209 -99c95 0 169 46 169 131c0 92 -79 116 -179 155c-102 39 -209 83 -209 203c0 101 89 177 210 177c74 0 152 -28 214 -78l-35 -45c-56 46 -122 71 -178 71c-77 0 -152 -43 -152 -123c0 -84 79 -114 170 -150
c116 -46 218 -77 218 -205c0 -117 -98 -190 -230 -190z" />
    <glyph glyph-name="uni0404" unicode="&#x404;" horiz-adv-x="720" 
d="M641 158l43 -36c-63 -76 -149 -126 -275 -126c-191 0 -349 120 -349 356c0 207 122 363 351 363c98 0 183 -31 260 -111l-41 -39c-63 69 -136 96 -220 96c-180 0 -282 -116 -291 -279h407v-51h-408c8 -181 130 -281 290 -281c103 0 176 40 233 108z" />
    <glyph glyph-name="uni042D" unicode="&#x42d;" horiz-adv-x="724" 
d="M317 715c220 0 349 -155 349 -363c0 -224 -149 -356 -347 -356c-119 0 -214 48 -275 116l36 43c48 -57 134 -105 240 -105c164 0 280 111 288 281h-416v51h415c-10 164 -119 279 -290 279c-84 0 -157 -27 -223 -84l-35 43c72 62 161 95 258 95z" />
    <glyph glyph-name="uni0406" unicode="&#x406;" horiz-adv-x="246" 
d="M94 0v710h57v-710h-57z" />
    <glyph glyph-name="uni0407" unicode="&#x407;" horiz-adv-x="246" 
d="M38 828c-24 0 -44 20 -44 43c0 25 20 43 44 43c25 0 44 -18 44 -43c0 -24 -19 -43 -44 -43zM203 828c-25 0 -44 20 -44 43c0 25 19 43 44 43s44 -18 44 -43c0 -24 -19 -43 -44 -43zM94 0v710h57v-710h-57z" />
    <glyph glyph-name="uni0408" unicode="&#x408;" horiz-adv-x="481" 
d="M214 -4c-60 0 -134 31 -186 92l32 42c43 -47 98 -80 153 -80c79 0 134 45 134 174v486h56v-490c0 -149 -61 -224 -189 -224z" />
    <glyph glyph-name="uni040B" unicode="&#x40b;" horiz-adv-x="774" 
d="M506 436c145 0 201 -77 201 -230v-206h-57v202c0 134 -48 180 -157 180c-56 0 -129 -13 -199 -52v-330h-56v658h-222v52h503v-52h-225v-275c69 34 147 53 212 53z" />
    <glyph glyph-name="uni042E" unicode="&#x42e;" horiz-adv-x="1029" 
d="M633 715c204 0 342 -148 342 -359s-138 -361 -342 -361c-185 0 -319 132 -337 315h-153v-310h-57v710h57v-348h151c4 207 143 353 339 353zM633 49c169 0 283 129 283 307c0 177 -114 305 -283 305c-163 0 -280 -130 -280 -309c0 -171 117 -303 280 -303z" />
    <glyph glyph-name="uni042F" unicode="&#x42f;" horiz-adv-x="640" 
d="M51 0l191 291c-105 21 -173 87 -173 206c0 128 77 213 234 213h248v-710h-57v282h-192l-184 -282h-67zM324 335h170v323h-186c-109 0 -180 -52 -180 -160c0 -95 56 -163 196 -163z" />
    <glyph glyph-name="uni0402" unicode="&#x402;" horiz-adv-x="792" 
d="M496 434c153 0 249 -79 249 -221s-94 -218 -233 -218c-39 0 -59 2 -96 7l4 50c31 -4 53 -7 90 -7c110 0 176 60 176 165c0 109 -70 170 -200 170c-65 0 -139 -15 -192 -42v-338h-56v658h-222v52h503v-52h-225v-269c54 25 130 45 202 45z" />
    <glyph glyph-name="uni0462" unicode="&#x462;" horiz-adv-x="717" 
d="M430 414c155 0 241 -69 241 -204c0 -144 -90 -210 -242 -210h-239v561h-181v49h181v100h56v-100h260v-49h-260v-147h184zM429 52c131 0 183 64 183 156c0 93 -55 154 -182 154h-184v-310h183z" />
    <glyph glyph-name="uni0472" unicode="&#x472;" horiz-adv-x="824" 
d="M413 715c196 0 351 -144 351 -359c0 -216 -155 -361 -351 -361c-211 0 -353 158 -353 361c0 201 142 359 353 359zM413 663c-169 0 -285 -124 -295 -283h588c-11 170 -137 283 -293 283zM413 48c155 0 281 113 293 283h-588c10 -160 127 -283 295 -283z" />
    <glyph glyph-name="uni0474" unicode="&#x474;" horiz-adv-x="711" 
d="M300 0l-270 710h61l235 -629h2l168 501c32 97 64 133 137 133c41 0 74 -15 88 -26l-13 -49c-11 10 -40 23 -69 23c-51 0 -70 -36 -91 -97l-195 -566h-53z" />
    <glyph glyph-name="uni0492" unicode="&#x492;" horiz-adv-x="564" 
d="M539 658h-368v-290h201v-48h-201v-320h-57v320h-103v48h103v342h425v-52z" />
    <glyph glyph-name="uni0494" unicode="&#x494;" horiz-adv-x="640" 
d="M319 390c159 0 269 -94 269 -289c0 -207 -118 -302 -269 -303c-36 0 -61 4 -90 10l4 50c31 -6 54 -9 82 -9c125 0 214 84 214 248c0 169 -94 239 -218 239c-55 0 -111 -11 -166 -31v-305h-57v710h425v-52h-368v-300c44 16 105 32 174 32z" />
    <glyph glyph-name="uni0496" unicode="&#x496;" horiz-adv-x="965" 
d="M925 52v-196h-48l-4 144h-40l-232 341l-110 -142v-199h-55v201l-110 141l-228 -342h-67l254 381l-254 329h69l334 -434l2 1v433h55v-437h1l328 437h69l-247 -329l224 -329h59z" />
    <glyph glyph-name="uni0498" unicode="&#x498;" horiz-adv-x="600" 
d="M548 199c0 -111 -81 -199 -234 -204l-9 -33c42 -8 80 -27 80 -70c0 -49 -37 -74 -90 -76c-23 0 -46 2 -70 9v39c17 -8 36 -12 59 -12c38 0 59 15 58 43c-1 27 -33 40 -81 43l13 58c-96 6 -177 44 -231 106l38 45c47 -63 127 -98 220 -98c111 0 188 55 188 149
c0 90 -68 146 -195 146h-123v51h121c83 0 163 42 163 138c0 81 -60 129 -162 129c-71 0 -137 -23 -188 -63l-34 43c49 43 140 73 228 73c130 0 214 -69 214 -174c0 -72 -39 -140 -122 -166v-2c84 -15 157 -68 157 -174z" />
    <glyph glyph-name="uni049A" unicode="&#x49a;" horiz-adv-x="665" 
d="M616 52v-196h-48l-4 144h-41l-255 336l-123 -143v-193h-57v710h57v-434h2l368 434h73l-283 -329l250 -329h61z" />
    <glyph glyph-name="uni049C" unicode="&#x49c;" horiz-adv-x="679" 
d="M574 0l-239 322l-38 1v-204h-49v204l-103 1v-324h-57v710h57v-337l103 1v206h49v-205h35l237 335h68l-253 -356l259 -354h-69z" />
    <glyph glyph-name="uni049E" unicode="&#x49e;" horiz-adv-x="640" 
d="M316 379l288 -379h-71l-254 335l-124 -145v-190h-57v567h-95v47h95v96h57v-96h151v-47h-151v-294h2l368 437h73z" />
    <glyph glyph-name="uni04A0" unicode="&#x4a0;" horiz-adv-x="741" 
d="M416 381l289 -381h-72l-254 336l-123 -143v-193h-57v658h-193v52h250v-434h2l367 434h74z" />
    <glyph glyph-name="uni04A2" unicode="&#x4a2;" horiz-adv-x="758" 
d="M717 52v-196h-48l-4 144h-103v310h-417v-310h-57v710h57v-348h417v348h57v-658h98z" />
    <glyph glyph-name="uni04A4" unicode="&#x4a4;" horiz-adv-x="846" 
d="M821 710v-52h-208v-658h-57v310h-411v-310h-57v710h57v-348h411v348h265z" />
    <glyph glyph-name="uni04A6" unicode="&#x4a6;" horiz-adv-x="1082" 
d="M761 390c159 0 269 -94 269 -289c0 -207 -118 -302 -269 -303c-36 0 -61 4 -90 10l4 50c31 -6 54 -9 82 -9c125 0 214 84 214 248c0 169 -94 239 -218 239c-55 0 -111 -11 -166 -31v-305h-57v658h-385v-658h-57v710h499v-352c44 16 105 32 174 32z" />
    <glyph glyph-name="uni0524" unicode="&#x524;" horiz-adv-x="736" 
d="M694 52v-196h-48l-4 144h-102v658h-395v-658h-57v710h508v-658h98z" />
    <glyph glyph-name="uni04A8" unicode="&#x4a8;" horiz-adv-x="852" 
d="M852 20c-25 -19 -67 -26 -105 -26c-58 0 -114 15 -154 38c-46 -24 -102 -38 -167 -38c-240 0 -372 163 -372 366c0 204 144 356 353 356c41 0 80 -6 113 -18l-23 -50c-27 9 -58 14 -88 14c-171 0 -296 -123 -297 -305c0 -176 117 -311 315 -311c48 0 83 7 114 19v1
c-81 67 -135 173 -135 296c-1 152 82 259 196 259c113 0 189 -107 189 -260c0 -127 -62 -240 -154 -299l1 -2c30 -11 66 -17 99 -17c40 0 76 9 105 29zM464 359c1 -112 47 -210 126 -270h4c84 53 139 151 139 268c0 123 -53 210 -132 210c-80 0 -138 -87 -137 -208z" />
    <glyph glyph-name="uni04AA" unicode="&#x4aa;" horiz-adv-x="719" 
d="M410 -4h-1l-9 -34c42 -8 80 -27 80 -70c0 -49 -37 -74 -90 -76c-23 0 -46 2 -70 9v39c17 -8 36 -12 59 -12c38 0 59 15 58 43c-1 27 -33 40 -81 43l14 60c-173 16 -310 139 -310 354c0 202 123 363 349 363c100 0 199 -41 274 -134l-43 -37c-65 82 -145 117 -231 117
c-184 0 -290 -132 -290 -309c0 -192 127 -302 291 -302c103 0 177 48 231 115l43 -36c-62 -77 -149 -133 -274 -133z" />
    <glyph glyph-name="uni04AC" unicode="&#x4ac;" horiz-adv-x="558" 
d="M531 658h-225v-606h98v-196h-48l-4 144h-103v658h-222v52h504v-52z" />
    <glyph glyph-name="uni04AE" unicode="&#x4ae;" horiz-adv-x="580" 
d="M261 0v320l-244 390h66l205 -331h2l207 331h66l-245 -390v-320h-57z" />
    <glyph glyph-name="uni04B0" unicode="&#x4b0;" horiz-adv-x="580" 
d="M563 710l-232 -370h146v-46h-159v-294h-57v294h-163v46h150l-231 370h66l205 -331h2l207 331h66z" />
    <glyph glyph-name="uni04B2" unicode="&#x4b2;" horiz-adv-x="670" 
d="M624 52v-196h-48l-4 144h-37l-216 307h-2l-217 -307h-67l248 355l-247 355h67l217 -310h1l216 310h66l-246 -355l212 -303h57z" />
    <glyph glyph-name="uni04B4" unicode="&#x4b4;" horiz-adv-x="873" 
d="M832 52v-196h-48l-4 144h-543v662h-222v48h493v-48h-214v-610h383v658h57v-658h98z" />
    <glyph glyph-name="uni04B6" unicode="&#x4b6;" horiz-adv-x="684" 
d="M643 52v-196h-48l-4 144h-103v304c-64 -35 -157 -52 -215 -52c-148 0 -206 77 -206 230v228h57v-221c0 -137 48 -183 160 -183c52 0 141 14 204 51v353h57v-658h98z" />
    <glyph glyph-name="uni04B8" unicode="&#x4b8;" horiz-adv-x="637" 
d="M492 710h57v-710h-57v304c-43 -25 -101 -40 -152 -47v-150h-45v146c-8 -1 -15 -1 -22 -1c-148 0 -206 77 -206 230v228h57v-221c0 -137 48 -183 160 -183h11v167h45v-164c50 6 108 20 152 46v355z" />
    <glyph glyph-name="uni04BA" unicode="&#x4ba;" horiz-adv-x="636" 
d="M363 463c148 0 206 -77 206 -230v-233h-57v230c0 133 -51 179 -162 179c-54 0 -142 -17 -205 -52v-357h-57v710h57v-300c66 34 158 53 218 53z" />
    <glyph glyph-name="uni04BC" unicode="&#x4bc;" horiz-adv-x="876" 
d="M826 383c0 -7 0 -18 -1 -27h-605c1 -182 106 -306 288 -306c101 0 200 38 249 110l43 -35c-57 -81 -169 -129 -292 -129c-220 0 -347 150 -347 358v1h-7c-104 0 -156 39 -156 116c0 22 4 47 14 74l51 -7c-9 -24 -13 -44 -13 -60c0 -52 33 -72 104 -72h10
c21 180 154 309 342 309c168 0 320 -116 320 -332zM507 661c-159 0 -265 -107 -284 -255h545c-7 153 -116 255 -261 255z" />
    <glyph glyph-name="uni04BE" unicode="&#x4be;" horiz-adv-x="876" 
d="M826 383c0 -7 0 -18 -1 -27h-605c1 -182 106 -306 288 -306c101 0 200 38 249 110l43 -35c-54 -77 -157 -124 -273 -129l-1 -140h-48l-2 141c-200 14 -315 159 -315 357v1h-7c-104 0 -156 39 -156 116c0 22 4 47 14 74l51 -7c-9 -24 -13 -44 -13 -60
c0 -52 33 -72 104 -72h10c21 180 154 309 342 309c168 0 320 -116 320 -332zM507 661c-159 0 -265 -107 -284 -255h545c-7 153 -116 255 -261 255z" />
    <glyph glyph-name="uni04C0" unicode="&#x4c0;" horiz-adv-x="246" 
d="M94 0v710h57v-710h-57z" />
    <glyph glyph-name="uni04C1" unicode="&#x4c1;" horiz-adv-x="930" 
d="M464 783c-75 0 -137 40 -149 122l48 6c5 -42 35 -90 101 -90s95 48 100 90l49 -6c-13 -82 -74 -122 -149 -122zM31 0l254 381l-254 329h69l334 -434l2 1v433h55v-437h1l328 437h69l-247 -329l259 -381h-68l-232 341l-110 -142v-199h-55v201l-110 141l-228 -342h-67z" />
    <glyph glyph-name="uni04C3" unicode="&#x4c3;" horiz-adv-x="654" 
d="M319 383c151 0 271 -93 271 -282c0 -207 -118 -303 -269 -303c-36 0 -61 4 -90 10l4 50c31 -6 54 -9 83 -9c124 0 213 84 213 248c0 167 -103 237 -224 237c-13 0 -28 -1 -43 -2l-119 -139v-193h-57v710h57v-434h2l368 434h73l-280 -327h11z" />
    <glyph glyph-name="uni04C5" unicode="&#x4c5;" horiz-adv-x="723" 
d="M622 52h62v-19l-67 -177h-44l45 144h-53v658h-294c-8 -121 -16 -267 -28 -363c-26 -212 -78 -298 -179 -298c-20 0 -37 3 -47 7l4 48c9 -2 23 -3 32 -3c74 0 111 74 135 258c12 98 21 246 28 403h406v-658z" />
    <glyph glyph-name="uni04C7" unicode="&#x4c7;" horiz-adv-x="707" 
d="M562 710h57v-727c0 -135 -61 -185 -167 -185c-29 0 -54 4 -77 14l4 48c18 -9 44 -13 67 -13c72 0 116 32 116 134v329h-417v-310h-57v710h57v-348h417v348z" />
    <glyph glyph-name="uni04C9" unicode="&#x4c9;" horiz-adv-x="720" 
d="M619 52h62v-19l-67 -177h-44l45 144h-53v310h-417v-310h-57v710h57v-348h417v348h57v-658z" />
    <glyph glyph-name="uni04CB" unicode="&#x4cb;" horiz-adv-x="633" 
d="M488 710h57v-710h-104l-3 -144h-48v196h98v252c-64 -35 -157 -52 -215 -52c-148 0 -206 77 -206 230v228h57v-221c0 -137 48 -183 160 -183c52 0 141 14 204 51v353z" />
    <glyph glyph-name="uni04CD" unicode="&#x4cd;" horiz-adv-x="878" 
d="M776 52h62v-19l-67 -177h-44l45 144h-53v599h-1l-265 -450h-41l-266 450h-1v-599h-56v710h57l286 -491h2l285 491h57v-658z" />
    <glyph glyph-name="uni04D0" unicode="&#x4d0;" horiz-adv-x="659" 
d="M329 783c-75 0 -137 40 -149 122l48 6c5 -42 35 -90 101 -90s95 48 100 90l49 -6c-13 -82 -74 -122 -149 -122zM27 0l271 710h60l274 -710h-60l-73 191h-340l-72 -191h-60zM177 242h304l-151 400h-2z" />
    <glyph glyph-name="uni04D2" unicode="&#x4d2;" horiz-adv-x="659" 
d="M245 828c-24 0 -44 20 -44 43c0 25 20 43 44 43c25 0 44 -18 44 -43c0 -24 -19 -43 -44 -43zM410 828c-25 0 -44 20 -44 43c0 25 19 43 44 43s44 -18 44 -43c0 -24 -19 -43 -44 -43zM27 0l271 710h60l274 -710h-60l-73 191h-340l-72 -191h-60zM177 242h304l-151 400h-2z
" />
    <glyph glyph-name="uni04D4" unicode="&#x4d4;" horiz-adv-x="915" 
d="M7 0l392 710h458v-52h-367v-278h308v-52h-308v-276h387v-52h-444v191h-259l-106 -191h-61zM201 242h232v417h-1z" />
    <glyph glyph-name="uni04D6" unicode="&#x4d6;" horiz-adv-x="579" 
d="M298 783c-75 0 -137 40 -149 122l48 6c5 -42 35 -90 101 -90s95 48 100 90l49 -6c-13 -82 -74 -122 -149 -122zM88 0v710h424v-52h-367v-278h305v-52h-305v-276h388v-52h-445z" />
    <glyph glyph-name="uni04D8" unicode="&#x4d8;" horiz-adv-x="770" 
d="M362 715c224 0 350 -160 350 -359c0 -214 -143 -361 -337 -361c-183 0 -330 115 -330 330c0 12 1 21 2 30h605v1c0 178 -108 305 -294 305c-87 0 -161 -26 -232 -81l-34 44c75 59 166 92 270 91zM374 49c146 0 256 98 275 254h-546c3 -155 116 -254 271 -254z" />
    <glyph glyph-name="uni04DA" unicode="&#x4da;" horiz-adv-x="770" 
d="M298 828c-24 0 -44 20 -44 43c0 25 20 43 44 43c25 0 44 -18 44 -43c0 -24 -19 -43 -44 -43zM463 828c-25 0 -44 20 -44 43c0 25 19 43 44 43s44 -18 44 -43c0 -24 -19 -43 -44 -43zM362 715c224 0 350 -160 350 -359c0 -214 -143 -361 -337 -361
c-183 0 -330 115 -330 330c0 12 1 21 2 30h605v1c0 178 -108 305 -294 305c-87 0 -161 -26 -232 -81l-34 44c75 59 166 92 270 91zM374 49c146 0 256 98 275 254h-546c3 -155 116 -254 271 -254z" />
    <glyph glyph-name="uni04DC" unicode="&#x4dc;" horiz-adv-x="930" 
d="M380 828c-24 0 -44 20 -44 43c0 25 20 43 44 43c25 0 44 -18 44 -43c0 -24 -19 -43 -44 -43zM545 828c-25 0 -44 20 -44 43c0 25 19 43 44 43s44 -18 44 -43c0 -24 -19 -43 -44 -43zM31 0l254 381l-254 329h69l334 -434l2 1v433h55v-437h1l328 437h69l-247 -329l259 -381
h-68l-232 341l-110 -142v-199h-55v201l-110 141l-228 -342h-67z" />
    <glyph glyph-name="uni04DE" unicode="&#x4de;" horiz-adv-x="600" 
d="M210 828c-24 0 -44 20 -44 43c0 25 20 43 44 43c25 0 44 -18 44 -43c0 -24 -19 -43 -44 -43zM375 828c-25 0 -44 20 -44 43c0 25 19 43 44 43s44 -18 44 -43c0 -24 -19 -43 -44 -43zM300 -5c-107 0 -198 39 -257 107l38 45c47 -63 127 -98 220 -98c111 0 188 55 188 149
c0 90 -68 146 -195 146h-123v51h121c83 0 163 42 163 138c0 81 -60 129 -162 129c-71 0 -137 -23 -188 -63l-34 43c49 43 140 73 228 73c130 0 214 -69 214 -174c0 -72 -39 -140 -122 -166v-2c84 -15 157 -68 157 -174c0 -114 -86 -204 -248 -204z" />
    <glyph glyph-name="uni04E0" unicode="&#x4e0;" horiz-adv-x="590" 
d="M260 409c186 1 285 -74 286 -210c0 -119 -89 -204 -244 -204c-112 0 -201 39 -260 108l37 44c46 -61 131 -99 224 -99c103 0 184 52 184 151c0 110 -74 162 -258 162h-52v32l267 264l-1 1h-376v52h453v-44z" />
    <glyph glyph-name="uni04E2" unicode="&#x4e2;" horiz-adv-x="722" 
d="M225 822v47h277v-47h-277zM88 0v710h57v-614h1l437 614h51v-710h-57v611h-1l-435 -611h-53z" />
    <glyph glyph-name="uni04E4" unicode="&#x4e4;" horiz-adv-x="722" 
d="M279 828c-24 0 -44 20 -44 43c0 25 20 43 44 43c25 0 44 -18 44 -43c0 -24 -19 -43 -44 -43zM444 828c-25 0 -44 20 -44 43c0 25 19 43 44 43s44 -18 44 -43c0 -24 -19 -43 -44 -43zM88 0v710h57v-614h1l437 614h51v-710h-57v611h-1l-435 -611h-53z" />
    <glyph glyph-name="uni04E6" unicode="&#x4e6;" horiz-adv-x="824" 
d="M329 828c-24 0 -44 20 -44 43c0 25 20 43 44 43c25 0 44 -18 44 -43c0 -24 -19 -43 -44 -43zM494 828c-25 0 -44 20 -44 43c0 25 19 43 44 43s44 -18 44 -43c0 -24 -19 -43 -44 -43zM413 -5c-200 0 -353 147 -353 361c0 213 153 359 353 359c196 0 351 -144 351 -359
c0 -216 -155 -361 -351 -361zM413 49c161 0 292 124 292 307c0 182 -131 305 -292 305c-166 0 -295 -126 -295 -305c0 -181 129 -307 295 -307z" />
    <glyph glyph-name="uni04E8" unicode="&#x4e8;" horiz-adv-x="824" 
d="M413 715c196 0 351 -144 351 -359c0 -216 -155 -361 -351 -361c-211 0 -353 158 -353 361c0 201 142 359 353 359zM413 663c-169 0 -285 -124 -295 -283h588c-11 170 -137 283 -293 283zM413 48c155 0 281 113 293 283h-588c10 -160 127 -283 295 -283z" />
    <glyph glyph-name="uni04EA" unicode="&#x4ea;" horiz-adv-x="824" 
d="M331 828c-24 0 -44 20 -44 43c0 25 20 43 44 43c25 0 44 -18 44 -43c0 -24 -19 -43 -44 -43zM496 828c-25 0 -44 20 -44 43c0 25 19 43 44 43s44 -18 44 -43c0 -24 -19 -43 -44 -43zM413 715c196 0 351 -144 351 -359c0 -216 -155 -361 -351 -361
c-211 0 -353 158 -353 361c0 201 142 359 353 359zM413 663c-169 0 -285 -124 -295 -283h588c-11 170 -137 283 -293 283zM413 48c155 0 281 113 293 283h-588c10 -160 127 -283 295 -283z" />
    <glyph glyph-name="uni04EC" unicode="&#x4ec;" horiz-adv-x="724" 
d="M256 828c-24 0 -44 20 -44 43c0 25 20 43 44 43c25 0 44 -18 44 -43c0 -24 -19 -43 -44 -43zM421 828c-25 0 -44 20 -44 43c0 25 19 43 44 43s44 -18 44 -43c0 -24 -19 -43 -44 -43zM317 715c220 0 349 -155 349 -363c0 -224 -149 -356 -347 -356
c-119 0 -214 48 -275 116l36 43c48 -57 134 -105 240 -105c164 0 280 111 288 281h-416v51h415c-10 164 -119 279 -290 279c-84 0 -157 -27 -223 -84l-35 43c72 62 161 95 258 95z" />
    <glyph glyph-name="uni04EE" unicode="&#x4ee;" horiz-adv-x="640" 
d="M462 869v-47h-277v47h277zM556 710h60l-239 -534c-44 -99 -74 -181 -181 -181c-35 0 -85 12 -112 40l20 49c29 -25 64 -34 91 -34c62 0 91 43 125 128l-296 532h64l257 -467h1z" />
    <glyph glyph-name="uni04F0" unicode="&#x4f0;" horiz-adv-x="640" 
d="M239 828c-24 0 -44 20 -44 43c0 25 20 43 44 43c25 0 44 -18 44 -43c0 -24 -19 -43 -44 -43zM404 828c-25 0 -44 20 -44 43c0 25 19 43 44 43s44 -18 44 -43c0 -24 -19 -43 -44 -43zM556 710h60l-239 -534c-44 -99 -74 -181 -181 -181c-35 0 -85 12 -112 40l20 49
c29 -25 64 -34 91 -34c62 0 91 43 125 128l-296 532h64l257 -467h1z" />
    <glyph glyph-name="uni04F2" unicode="&#x4f2;" horiz-adv-x="640" 
d="M402 935l-124 -138h-55l119 138h60zM424 797h-54l119 138h60zM556 710h60l-239 -534c-44 -99 -74 -181 -181 -181c-35 0 -85 12 -112 40l20 49c29 -25 64 -34 91 -34c62 0 91 43 125 128l-296 532h64l257 -467h1z" />
    <glyph glyph-name="uni04F4" unicode="&#x4f4;" horiz-adv-x="633" 
d="M233 828c-24 0 -44 20 -44 43c0 25 20 43 44 43c25 0 44 -18 44 -43c0 -24 -19 -43 -44 -43zM398 828c-25 0 -44 20 -44 43c0 25 19 43 44 43s44 -18 44 -43c0 -24 -19 -43 -44 -43zM488 710h57v-710h-57v304c-64 -35 -157 -52 -215 -52c-148 0 -206 77 -206 230v228h57
v-221c0 -137 48 -183 160 -183c52 0 141 14 204 51v353z" />
    <glyph glyph-name="uni04F6" unicode="&#x4f6;" horiz-adv-x="538" 
d="M513 658h-368v-606h98v-196h-48l-4 144h-103v710h425v-52z" />
    <glyph glyph-name="uni04F8" unicode="&#x4f8;" horiz-adv-x="816" 
d="M325 828c-24 0 -44 20 -44 43c0 25 20 43 44 43c25 0 44 -18 44 -43c0 -24 -19 -43 -44 -43zM490 828c-25 0 -44 20 -44 43c0 25 19 43 44 43s44 -18 44 -43c0 -24 -19 -43 -44 -43zM88 0v710h57v-291h162c156 0 241 -70 241 -207c0 -146 -90 -212 -241 -212h-219zM671 0
v710h57v-710h-57zM145 52h162c130 0 182 64 182 157c0 97 -55 158 -182 158h-162v-315z" />
    <glyph glyph-name="uni04FA" unicode="&#x4fa;" horiz-adv-x="564" 
d="M539 658h-368v-290h201v-48h-201v-379c0 -93 -38 -143 -118 -143c-18 0 -45 3 -70 14l5 48c19 -9 41 -13 57 -13c42 0 69 26 69 85v388h-103v48h103v342h425v-52z" />
    <glyph glyph-name="uni04FC" unicode="&#x4fc;" horiz-adv-x="633" 
d="M425 -202c-29 0 -58 5 -77 14l4 48c19 -9 43 -13 66 -13c73 0 114 36 114 107c0 58 -37 113 -77 168l-136 185h-2l-217 -307h-67l248 355l-247 355h67l217 -310h1l216 310h66l-246 -355l145 -201c48 -66 89 -129 89 -199c0 -99 -58 -157 -164 -157z" />
    <glyph glyph-name="uni04FE" unicode="&#x4fe;" horiz-adv-x="635" 
d="M368 329l235 -329h-68l-216 307h-2l-217 -307h-67l234 329h-169v47h171l-235 334h67l217 -313h1l216 313h66l-235 -334h175v-47h-173z" />
    <glyph glyph-name="uni0510" unicode="&#x510;" horiz-adv-x="600" 
d="M300 -5c-166 0 -247 83 -247 192c0 108 83 169 155 182v1c-85 28 -123 99 -123 170c0 108 86 175 215 175c89 0 174 -32 222 -81l-35 -42c-48 47 -113 70 -182 70c-101 0 -161 -50 -161 -131c0 -93 83 -136 161 -136h121v-51h-123c-117 0 -191 -59 -191 -150
c0 -92 73 -145 189 -145c93 0 171 34 217 106l43 -39c-59 -83 -150 -121 -261 -121z" />
    <glyph glyph-name="uni0512" unicode="&#x512;" horiz-adv-x="710" 
d="M622 710v-727c0 -135 -61 -185 -167 -185c-29 0 -54 4 -77 14l4 48c18 -9 44 -13 67 -13c72 0 116 32 116 134v677h-294c-8 -121 -16 -267 -28 -363c-26 -212 -78 -298 -179 -298c-20 0 -37 3 -47 7l4 48c9 -2 23 -3 32 -3c74 0 111 74 135 258c12 98 21 246 28 403h406z
" />
    <glyph glyph-name="uni051A" unicode="&#x51a;" horiz-adv-x="836" 
d="M778 32l-33 -41l-98 89c-62 -54 -144 -85 -234 -85c-211 0 -353 158 -353 361c0 201 142 359 353 359c196 0 351 -144 351 -359c0 -96 -30 -178 -82 -239zM118 356c0 -173 121 -307 295 -307c74 0 140 26 191 70l-92 83l32 40l95 -86c41 53 66 121 66 200
c0 179 -128 305 -292 305c-174 0 -295 -134 -295 -305z" />
    <glyph glyph-name="uni051C" unicode="&#x51c;" horiz-adv-x="1006" 
d="M262 0l-229 710h61l196 -619h1l180 619h64l179 -619h1l197 619h61l-228 -710h-59l-182 628h-1l-183 -628h-58z" />
    <glyph glyph-name="uni048C" unicode="&#x48c;" horiz-adv-x="636" 
d="M349 414c156 0 241 -69 241 -204c0 -144 -90 -210 -241 -210h-240v562h-102v47h102v101h57v-101h168v-47h-168v-148h183zM349 52c130 0 182 64 182 156c0 93 -55 154 -182 154h-183v-310h183z" />
    <glyph glyph-name="uni048E" unicode="&#x48e;" horiz-adv-x="600" 
d="M558 500c0 -105 -51 -169 -132 -196l77 -143l-43 -22l-83 153c-20 -3 -41 -5 -63 -5h-169v-287h-57v710h243c161 0 227 -90 227 -210zM398 352c73 23 101 77 101 148c0 105 -68 158 -170 158h-184v-318h165c15 0 28 1 41 2l-72 134l41 21z" />
    <glyph glyph-name="uni0416.alt" horiz-adv-x="932" 
d="M903 0h-70l-237 323l-104 2v-325h-55v325l-106 -2l-235 -323h-67l259 359l-255 351h70l239 -335l95 -2v337h55v-338l97 3l237 335h68l-253 -351z" />
    <glyph glyph-name="uni041A.alt" horiz-adv-x="629" 
d="M594 0h-70l-251 323l-128 2v-325h-57v710h57v-338l127 3l247 335h67l-263 -356z" />
    <glyph glyph-name="uni040C.alt" horiz-adv-x="629" 
d="M423 916l-118 -128h-57l113 128h62zM594 0h-70l-251 323l-128 2v-325h-57v710h57v-338l127 3l247 335h67l-263 -356z" />
    <glyph glyph-name="uni0496.alt" horiz-adv-x="967" 
d="M926 52v-196h-48l-4 144h-41l-237 323l-104 2v-325h-55v325l-106 -2l-235 -323h-67l259 359l-255 351h70l239 -335l95 -2v337h55v-338l97 3l237 335h68l-253 -351l224 -307h61z" />
    <glyph glyph-name="uni049A.alt" horiz-adv-x="664" 
d="M616 52v-196h-48l-4 144h-40l-251 323l-128 2v-325h-57v710h57v-338l127 3l247 335h67l-263 -356l231 -302h62z" />
    <glyph glyph-name="uni049E.alt" horiz-adv-x="640" 
d="M604 0h-70l-251 323l-128 2v-325h-57v569h-94v45h94v96h57v-96h152v-45h-152v-197l127 3l247 335h67l-263 -356z" />
    <glyph glyph-name="uni04A0.alt" horiz-adv-x="740" 
d="M705 0h-70l-251 323l-128 2v-325h-57v662h-193v48h250v-338l127 3l247 335h67l-263 -356z" />
    <glyph glyph-name="uni04C1.alt" horiz-adv-x="932" 
d="M465 783c-75 0 -137 40 -149 122l48 6c5 -42 35 -90 101 -90s95 48 100 90l49 -6c-13 -82 -74 -122 -149 -122zM903 0h-70l-237 323l-104 2v-325h-55v325l-106 -2l-235 -323h-67l259 359l-255 351h70l239 -335l95 -2v337h55v-338l97 3l237 335h68l-253 -351z" />
    <glyph glyph-name="uni04C3.alt" horiz-adv-x="658" 
d="M334 369c142 -9 261 -100 261 -268c0 -207 -118 -303 -269 -303c-36 0 -61 4 -90 10l4 50c31 -6 55 -9 83 -9c124 0 213 84 213 248c0 158 -117 226 -257 226c-38 0 -85 -3 -134 -8v-315h-57v710h57v-343c41 3 86 6 127 8l247 335h67z" />
    <glyph glyph-name="uni04DC.alt" horiz-adv-x="932" 
d="M381 828c-24 0 -44 20 -44 43c0 25 20 43 44 43c25 0 44 -18 44 -43c0 -24 -19 -43 -44 -43zM546 828c-25 0 -44 20 -44 43c0 25 19 43 44 43s44 -18 44 -43c0 -24 -19 -43 -44 -43zM903 0h-70l-237 323l-104 2v-325h-55v325l-106 -2l-235 -323h-67l259 359l-255 351h70
l239 -335l95 -2v337h55v-338l97 3l237 335h68l-253 -351z" />
    <glyph glyph-name="uni051A.alt" horiz-adv-x="823" 
d="M764 356c0 -149 -74 -265 -184 -322l152 -126l-34 -43l-173 147c-35 -11 -73 -17 -112 -17c-211 0 -353 158 -353 361c0 201 142 359 353 359c196 0 351 -144 351 -359zM118 356c0 -170 119 -307 295 -307c161 0 292 124 292 307c0 182 -131 305 -292 305
c-176 0 -295 -136 -295 -305z" />
    <glyph glyph-name="uni0528" unicode="&#x528;" horiz-adv-x="707" 
d="M562 710h57v-710h-57v310h-417v-369c0 -93 -38 -143 -118 -143c-18 0 -45 3 -70 14l5 48c19 -9 41 -13 57 -13c42 0 69 26 69 85v778h57v-348h417v348z" />
    <glyph glyph-name="uni052E" unicode="&#x52e;" horiz-adv-x="761" 
d="M720 52v-196h-48l-4 144h-103v658h-294c-8 -121 -16 -267 -28 -363c-26 -212 -78 -298 -179 -298c-20 0 -37 3 -47 7l4 48c9 -2 23 -3 32 -3c74 0 111 74 135 258c12 98 21 246 28 403h406v-658h98z" />
    <glyph glyph-name="uni0414.loclBGR" horiz-adv-x="761" 
d="M742 52v-196h-48l-4 144h-619l-4 -144h-48v196h75l253 658h60l255 -658h80zM155 52h446l-223 589h-1z" />
    <glyph glyph-name="uni041B.loclBGR" horiz-adv-x="657" 
d="M29 0l268 710h60l271 -710h-62l-237 633h-2l-237 -633h-61z" />
    <glyph glyph-name="uni0424.loclBGR" horiz-adv-x="840" 
d="M794 358c0 -200 -138 -345 -344 -350v-68h-55v68c-215 3 -348 148 -348 342c0 200 133 350 348 355v57h55v-57c204 -3 344 -146 344 -347zM450 59c177 4 285 128 285 299c0 168 -106 293 -285 295v-594zM105 351c0 -166 104 -291 290 -292v594
c-189 -4 -290 -131 -290 -302z" />
    <glyph glyph-name="uni0430" unicode="&#x430;" horiz-adv-x="598" 
d="M283 -5c-133 0 -239 97 -239 244c0 141 99 251 239 251c82 0 153 -43 189 -115h1v110h53v-485h-51v109l-2 1c-35 -69 -102 -115 -190 -115zM289 45c102 0 186 77 186 193c0 113 -76 203 -185 203c-106 0 -191 -80 -191 -203c0 -108 76 -193 190 -193z" />
    <glyph glyph-name="uni0431" unicode="&#x431;" horiz-adv-x="596" 
d="M314 -5c-168 0 -252 123 -252 311c1 206 23 363 247 402l187 33l14 -48l-191 -34c-178 -31 -200 -139 -207 -303h1c31 74 100 133 204 133c129 0 236 -100 236 -245c0 -147 -113 -249 -239 -249zM314 45c98 0 184 85 184 199c0 113 -82 195 -190 195
c-110 0 -189 -87 -189 -187c0 -81 50 -207 195 -207z" />
    <glyph glyph-name="uni0432" unicode="&#x432;" horiz-adv-x="531" 
d="M78 0v485h222c102 0 160 -39 160 -117c0 -58 -30 -98 -81 -114v-1c57 -9 105 -48 105 -121c0 -80 -53 -132 -179 -132h-227zM131 272h169c67 0 107 30 107 86s-41 81 -111 81h-165v-167zM131 46h170c88 0 129 31 129 90c0 61 -43 92 -123 92h-176v-182z" />
    <glyph glyph-name="uni0433" unicode="&#x433;" horiz-adv-x="439" 
d="M78 0v485h334v-48h-281v-437h-53z" />
    <glyph glyph-name="uni0453" unicode="&#x453;" horiz-adv-x="439" 
d="M166 560l120 138h63l-124 -138h-59zM78 0v485h334v-48h-281v-437h-53z" />
    <glyph glyph-name="uni0491" unicode="&#x491;" horiz-adv-x="439" 
d="M367 624h45v-187h-281v-437h-53v485h285z" />
    <glyph glyph-name="uni0434" unicode="&#x434;" horiz-adv-x="599" 
d="M570 48v-187h-44l-4 139h-452l-4 -139h-45v187h73c38 59 61 128 75 201c14 76 18 156 18 236h302v-437h81zM150 48h286v389h-198c-1 -61 -5 -134 -19 -204c-13 -70 -36 -133 -69 -185z" />
    <glyph glyph-name="uni0435" unicode="&#x435;" horiz-adv-x="542" 
d="M499 255c0 -11 0 -21 -1 -24h-398c5 -111 80 -186 186 -186c70 0 122 29 156 73l38 -32c-41 -55 -104 -91 -195 -91c-140 0 -239 103 -239 248c0 144 101 247 235 247c130 0 218 -100 218 -235zM281 441c-93 0 -166 -66 -179 -166h344c-10 99 -71 166 -165 166z" />
    <glyph glyph-name="uni0450" unicode="&#x450;" horiz-adv-x="542" 
d="M336 561h-58l-117 133h63zM499 255c0 -11 0 -21 -1 -24h-398c5 -111 80 -186 186 -186c70 0 122 29 156 73l38 -32c-41 -55 -104 -91 -195 -91c-140 0 -239 103 -239 248c0 144 101 247 235 247c130 0 218 -100 218 -235zM281 441c-93 0 -166 -66 -179 -166h344
c-10 99 -71 166 -165 166z" />
    <glyph glyph-name="uni0451" unicode="&#x451;" horiz-adv-x="542" 
d="M198 591c-24 0 -44 20 -44 43c0 25 20 43 44 43c25 0 44 -18 44 -43c0 -24 -19 -43 -44 -43zM363 591c-25 0 -44 20 -44 43c0 25 19 43 44 43s44 -18 44 -43c0 -24 -19 -43 -44 -43zM499 255c0 -11 0 -21 -1 -24h-398c5 -111 80 -186 186 -186c70 0 122 29 156 73l38 -32
c-41 -55 -104 -91 -195 -91c-140 0 -239 103 -239 248c0 144 101 247 235 247c130 0 218 -100 218 -235zM281 441c-93 0 -166 -66 -179 -166h344c-10 99 -71 166 -165 166z" />
    <glyph glyph-name="uni0436" unicode="&#x436;" horiz-adv-x="768" 
d="M26 0l193 274l-190 211h65l261 -286h1v286h52v-288h1l255 288h64l-186 -210l200 -275h-64l-173 243l-97 -106v-137h-52v138l-99 105l-170 -243h-61z" />
    <glyph glyph-name="uni0437" unicode="&#x437;" horiz-adv-x="489" 
d="M239 -5c-98 0 -159 28 -198 54l16 48c41 -28 101 -53 182 -53c94 0 149 37 149 96c0 55 -45 87 -127 87h-113v45h107c69 0 110 30 110 84c0 57 -50 86 -125 86c-70 0 -120 -18 -159 -40l-21 43c37 22 96 45 180 45c108 0 178 -47 178 -123c0 -54 -31 -95 -82 -112v-1
c55 -11 106 -49 106 -119c0 -82 -68 -140 -203 -140z" />
    <glyph glyph-name="uni0438" unicode="&#x438;" horiz-adv-x="581" 
d="M78 0v485h53v-406h2l320 406h50v-485h-53v403h-2l-318 -403h-52z" />
    <glyph glyph-name="uni0439" unicode="&#x439;" horiz-adv-x="581" 
d="M294 558c-75 0 -137 40 -149 129l48 9c5 -52 35 -100 101 -100s95 48 100 100l49 -9c-13 -89 -74 -129 -149 -129zM78 0v485h53v-406h2l320 406h50v-485h-53v403h-2l-318 -403h-52z" />
    <glyph glyph-name="uni045D" unicode="&#x45d;" horiz-adv-x="581" 
d="M299 561l-117 133h63l112 -133h-58zM78 0v485h53v-406h2l320 406h50v-485h-53v403h-2l-318 -403h-52z" />
    <glyph glyph-name="uni048B" unicode="&#x48b;" horiz-adv-x="594" 
d="M294 558c-75 0 -137 40 -149 129l48 9c5 -52 35 -100 101 -100s95 48 100 100l49 -9c-13 -89 -74 -129 -149 -129zM503 48h57v-12l-64 -175h-40l44 139h-50v403h-2l-318 -403h-52v485h53v-406h2l320 406h50v-437z" />
    <glyph glyph-name="uni043A" unicode="&#x43a;" horiz-adv-x="525" 
d="M78 0v485h53v-296l2 -1l286 297h69l-201 -209l211 -276h-65l-185 242l-117 -119v-123h-53z" />
    <glyph glyph-name="uni045C" unicode="&#x45c;" horiz-adv-x="525" 
d="M188 560l120 138h63l-124 -138h-59zM78 0v485h53v-296l2 -1l286 297h69l-201 -209l211 -276h-65l-185 242l-117 -119v-123h-53z" />
    <glyph glyph-name="uni043B" unicode="&#x43b;" horiz-adv-x="552" 
d="M161 485h313v-485h-53v437h-208c-4 -87 -9 -176 -18 -245c-17 -148 -71 -194 -143 -194c-14 0 -25 1 -32 4l3 48c7 -2 13 -3 22 -3c49 0 88 47 100 159c9 78 13 187 16 279z" />
    <glyph glyph-name="uni043C" unicode="&#x43c;" horiz-adv-x="667" 
d="M78 0v485h52l202 -337h2l203 337h52v-485h-52v392h-1l-183 -303h-39l-183 302h-1v-391h-52z" />
    <glyph glyph-name="uni043D" unicode="&#x43d;" horiz-adv-x="571" 
d="M78 0v485h53v-225h309v225h53v-485h-53v213h-309v-213h-53z" />
    <glyph glyph-name="uni043E" unicode="&#x43e;" horiz-adv-x="586" 
d="M293 -5c-148 0 -247 110 -247 247s99 248 247 248c139 0 247 -100 247 -248c0 -146 -108 -247 -247 -247zM293 45c108 0 193 80 193 197c0 119 -86 199 -193 199c-116 0 -193 -89 -193 -199c0 -108 77 -197 193 -197z" />
    <glyph glyph-name="uni043F" unicode="&#x43f;" horiz-adv-x="561" 
d="M78 0v485h405v-485h-53v437h-299v-437h-53z" />
    <glyph glyph-name="uni0440" unicode="&#x440;" horiz-adv-x="607" 
d="M78 -198v683h53v-109h2c36 71 107 114 190 114c140 0 238 -110 238 -251c0 -147 -105 -244 -238 -244c-88 0 -155 45 -190 112l-2 -1v-304h-53zM317 45c113 0 189 85 189 193c0 123 -85 203 -190 203c-112 0 -186 -90 -186 -203c0 -116 83 -193 187 -193z" />
    <glyph glyph-name="uni0441" unicode="&#x441;" horiz-adv-x="510" 
d="M283 -5c-140 0 -237 102 -237 247c0 146 98 248 239 248c70 0 142 -27 189 -81l-38 -34c-32 39 -85 66 -149 66c-112 0 -187 -82 -187 -198c0 -118 76 -198 187 -198c60 0 118 25 152 65l36 -34c-41 -47 -107 -81 -192 -81z" />
    <glyph glyph-name="uni0442" unicode="&#x442;" horiz-adv-x="444" 
d="M195 0v437h-173v48h399v-48h-173v-437h-53z" />
    <glyph glyph-name="uni0443" unicode="&#x443;" horiz-adv-x="516" 
d="M151 -198l87 211l-214 472h59l181 -407h1l168 407h57l-282 -683h-57z" />
    <glyph glyph-name="uni045E" unicode="&#x45e;" horiz-adv-x="516" 
d="M259 558c-75 0 -137 40 -149 129l48 9c5 -52 35 -100 101 -100s95 48 100 100l49 -9c-13 -89 -74 -129 -149 -129zM151 -198l87 211l-214 472h59l181 -407h1l168 407h57l-282 -683h-57z" />
    <glyph glyph-name="uni0444" unicode="&#x444;" horiz-adv-x="683" 
d="M644 242c0 -143 -107 -244 -276 -246v-194h-53v194c-172 2 -277 101 -277 246c0 143 104 246 277 248v246h53v-246c172 -1 276 -104 276 -248zM367 43c142 3 223 81 223 198c0 118 -82 200 -223 203v-401zM93 241c0 -118 81 -195 222 -198v401
c-142 -4 -222 -87 -222 -203z" />
    <glyph glyph-name="uni0445" unicode="&#x445;" horiz-adv-x="487" 
d="M31 0l181 244l-182 241h64l148 -199h2l149 199h64l-181 -240l182 -245h-63l-151 199h-1l-150 -199h-62z" />
    <glyph glyph-name="uni0447" unicode="&#x447;" horiz-adv-x="524" 
d="M393 485h53v-485h-53v198c-54 -24 -117 -35 -166 -35c-125 0 -178 53 -178 187v135h53v-124c0 -122 44 -150 136 -150c47 0 104 10 155 33v241z" />
    <glyph glyph-name="uni0446" unicode="&#x446;" horiz-adv-x="582" 
d="M553 48v-187h-44l-4 139h-427v485h53v-437h286v437h53v-437h83z" />
    <glyph glyph-name="uni0448" unicode="&#x448;" horiz-adv-x="811" 
d="M78 0v485h53v-437h248v437h53v-437h249v437h53v-485h-656z" />
    <glyph glyph-name="uni0449" unicode="&#x449;" horiz-adv-x="845" 
d="M817 48v-187h-45l-3 139h-691v485h53v-437h248v437h53v-437h249v437h53v-437h83z" />
    <glyph glyph-name="uni045F" unicode="&#x45f;" horiz-adv-x="551" 
d="M473 485v-485h-172l-2 -139h-45l-1 139h-175v485h53v-437h289v437h53z" />
    <glyph glyph-name="uni044C" unicode="&#x44c;" horiz-adv-x="485" 
d="M78 0v485h53v-173h146c123 0 174 -59 174 -156c0 -95 -55 -156 -183 -156h-190zM131 47h137c89 0 129 39 129 109c0 72 -40 109 -122 109h-144v-218z" />
    <glyph glyph-name="uni044A" unicode="&#x44a;" horiz-adv-x="569" 
d="M362 312c123 0 174 -59 174 -156c0 -95 -55 -156 -183 -156h-190v437h-151v48h204v-173h146zM353 47c89 0 129 39 129 109c0 72 -40 109 -122 109h-144v-218h137z" />
    <glyph glyph-name="uni044B" unicode="&#x44b;" horiz-adv-x="675" 
d="M78 0v485h53v-173h137c123 0 175 -59 175 -156c0 -95 -56 -156 -184 -156h-181zM544 0v485h53v-485h-53zM131 47h129c88 0 128 39 128 109c0 72 -39 110 -122 110h-135v-219z" />
    <glyph glyph-name="uni0459" unicode="&#x459;" horiz-adv-x="818" 
d="M614 312c123 0 174 -59 174 -156c0 -95 -55 -156 -183 -156h-190v437h-204c-4 -87 -9 -176 -18 -245c-17 -148 -71 -194 -142 -194c-14 0 -25 1 -32 4l3 48c7 -2 13 -3 22 -3c49 0 89 47 100 159c9 78 13 187 16 279h308v-173h146zM605 47c89 0 129 39 129 109
c0 72 -40 109 -122 109h-144v-218h137z" />
    <glyph glyph-name="uni045A" unicode="&#x45a;" horiz-adv-x="848" 
d="M655 292c116 0 163 -55 163 -146c0 -89 -52 -146 -172 -146h-216v237h-300v-237h-53v485h53v-201h300v201h52v-193h173zM645 47c82 0 119 36 119 99c0 65 -36 100 -113 100h-169v-199h163z" />
    <glyph glyph-name="uni0455" unicode="&#x455;" horiz-adv-x="427" 
d="M217 -5c-81 0 -141 30 -184 69l28 40c38 -34 82 -61 156 -61c73 0 115 39 115 85c0 57 -55 71 -133 98c-79 28 -144 58 -144 141c0 71 65 123 151 123c56 0 110 -14 162 -59l-29 -40c-45 39 -90 51 -135 51c-51 0 -95 -32 -95 -74c0 -51 49 -71 106 -93
c102 -37 172 -55 172 -148c-1 -71 -58 -132 -170 -132z" />
    <glyph glyph-name="uni0454" unicode="&#x454;" horiz-adv-x="520" 
d="M452 102l33 -35c-39 -44 -106 -71 -191 -72c-164 0 -248 110 -248 248c0 145 98 247 246 247c67 0 132 -19 177 -59l-34 -35c-35 30 -87 46 -141 46c-106 0 -184 -68 -194 -175h292v-44h-292c8 -105 77 -178 196 -178c71 0 121 19 156 57z" />
    <glyph glyph-name="uni044D" unicode="&#x44d;" horiz-adv-x="523" 
d="M229 490c149 0 248 -100 248 -249c0 -137 -84 -246 -247 -246c-82 0 -152 27 -192 61l29 41c37 -31 90 -53 167 -53c113 1 181 72 189 179h-292v44h292c-10 108 -87 174 -195 175c-57 0 -111 -18 -151 -41l-21 45c36 22 103 44 173 44z" />
    <glyph glyph-name="uni0456" unicode="&#x456;" horiz-adv-x="222" 
d="M112 590c-25 0 -44 20 -44 44c0 25 19 43 44 43s44 -18 44 -43c0 -24 -19 -44 -44 -44zM84 0v485h53v-485h-53z" />
    <glyph glyph-name="uni0457" unicode="&#x457;" horiz-adv-x="222" 
d="M27 591c-24 0 -44 20 -44 43c0 25 20 43 44 43c25 0 44 -18 44 -43c0 -24 -19 -43 -44 -43zM192 591c-25 0 -44 20 -44 43c0 25 19 43 44 43s44 -18 44 -43c0 -24 -19 -43 -44 -43zM84 0v485h53v-485h-53z" />
    <glyph glyph-name="uni0458" unicode="&#x458;" horiz-adv-x="201" 
d="M106 590c-25 0 -44 20 -44 44c0 25 19 43 44 43s44 -18 44 -43c0 -24 -19 -44 -44 -44zM18 -203c-22 0 -48 4 -74 16l9 49c18 -11 42 -15 58 -15c40 0 68 24 68 86v552h53v-552c0 -79 -35 -136 -114 -136z" />
    <glyph glyph-name="uni045B" unicode="&#x45b;" horiz-adv-x="557" 
d="M327 456c99 0 168 -66 168 -198v-258h-53v240c0 122 -57 167 -128 167c-113 0 -183 -77 -183 -199v-208h-53v564h-75v46h75v126h53v-126h208v-46h-208v-219h1c35 70 105 111 195 111z" />
    <glyph glyph-name="uni044E" unicode="&#x44e;" horiz-adv-x="778" 
d="M494 490c133 0 240 -100 240 -248c0 -146 -107 -247 -240 -247c-137 0 -227 94 -240 218h-124v-213h-53v485h53v-225h124c7 129 98 230 240 230zM494 45c101 0 185 80 185 197c0 119 -84 199 -185 199c-117 0 -188 -88 -188 -199c0 -109 71 -197 188 -197z" />
    <glyph glyph-name="uni044F" unicode="&#x44f;" horiz-adv-x="529" 
d="M238 486h213v-486h-53v184h-163l-132 -184h-61l137 188c-81 15 -123 67 -123 143c0 95 60 155 182 155zM398 231v207h-161c-87 0 -126 -38 -126 -107c0 -62 36 -100 120 -100h167z" />
    <glyph glyph-name="uni0452" unicode="&#x452;" horiz-adv-x="557" 
d="M327 456c99 0 168 -66 168 -198v-289c0 -115 -41 -171 -151 -171c-23 0 -45 4 -68 14l5 45c20 -10 40 -13 58 -13c70 0 103 26 103 121v275c0 122 -57 167 -128 167c-113 0 -183 -77 -183 -199v-208h-53v564h-75v46h75v126h53v-126h208v-46h-208v-219h1
c35 70 105 111 195 111z" />
    <glyph glyph-name="uni0463" unicode="&#x463;" horiz-adv-x="562" 
d="M358 305c120 0 171 -58 171 -153c0 -93 -55 -152 -179 -152h-198v438h-151v47h151v251h53v-251h185v-47h-185v-133h153zM350 47c86 0 124 38 124 105c0 70 -38 106 -118 106h-151v-211h145z" />
    <glyph glyph-name="uni0473" unicode="&#x473;" horiz-adv-x="586" 
d="M293 490c140 0 247 -100 247 -248c0 -147 -107 -247 -247 -247c-148 0 -247 110 -247 247c0 138 99 248 247 248zM293 442c-110 0 -184 -76 -193 -178h387c-10 108 -92 178 -194 178zM293 44c102 0 184 70 194 176h-387c10 -100 84 -176 193 -176z" />
    <glyph glyph-name="uni0475" unicode="&#x475;" horiz-adv-x="540" 
d="M229 0l-203 485h58l170 -414h2l117 316c24 69 44 102 99 102c23 0 50 -6 69 -19l-11 -44c-14 7 -30 14 -46 14c-31 0 -43 -22 -63 -73l-142 -367h-50z" />
    <glyph glyph-name="uni0493" unicode="&#x493;" horiz-adv-x="439" 
d="M412 437h-281v-185h207v-41h-207v-211h-53v211h-74v41h74v233h334v-48z" />
    <glyph glyph-name="uni0495" unicode="&#x495;" horiz-adv-x="514" 
d="M274 255c129 0 223 -76 224 -222c0 -155 -99 -235 -232 -235c-29 0 -51 3 -75 8l4 46c25 -6 44 -8 68 -8c110 0 180 74 180 186c0 114 -66 176 -177 176c-61 0 -98 -10 -135 -22v-184h-53v485h334v-48h-281v-208c39 14 80 26 143 26z" />
    <glyph glyph-name="uni0497" unicode="&#x497;" horiz-adv-x="786" 
d="M756 48v-187h-45l-3 139h-30l-173 243l-97 -106v-137h-52v138l-99 105l-170 -243h-61l193 274l-190 211h65l261 -286h1v286h52v-288h1l255 288h64l-186 -210l165 -227h49z" />
    <glyph glyph-name="uni0499" unicode="&#x499;" horiz-adv-x="489" 
d="M442 135c0 -77 -59 -132 -178 -139l-9 -34c42 -8 80 -27 80 -70c0 -49 -37 -74 -90 -76c-23 0 -46 2 -70 9v39c17 -8 36 -12 59 -12c38 0 59 15 58 43c-1 27 -33 40 -81 43l13 57c-89 3 -146 29 -183 54l16 48c41 -28 101 -53 182 -53c94 0 149 37 149 96
c0 55 -45 87 -127 87h-113v45h107c69 0 110 30 110 84c0 57 -50 86 -125 86c-70 0 -120 -18 -159 -40l-21 43c37 22 96 45 180 45c108 0 178 -47 178 -123c0 -54 -31 -95 -82 -112v-1c55 -11 106 -49 106 -119z" />
    <glyph glyph-name="uni049B" unicode="&#x49b;" horiz-adv-x="543" 
d="M513 48v-187h-45l-3 139h-32l-185 242l-117 -119v-123h-53v485h53v-296l2 -1l286 297h69l-201 -209l174 -228h52z" />
    <glyph glyph-name="uni049D" unicode="&#x49d;" horiz-adv-x="550" 
d="M461 0l-155 219l-39 1v-136h-41v136l-95 1v-221h-53v485h53v-224l95 1v135h41v-135l37 1l145 222h60l-159 -238l173 -247h-62z" />
    <glyph glyph-name="uni049F" unicode="&#x49f;" horiz-adv-x="525" 
d="M287 276l211 -276h-65l-185 242l-117 -119v-123h-53v588h-73v40h73v108h53v-108h198v-40h-198v-399l2 -1l286 297h69z" />
    <glyph glyph-name="uni04A1" unicode="&#x4a1;" horiz-adv-x="613" 
d="M375 276l211 -276h-64l-186 242l-116 -119v-123h-53v437h-158v48h211v-296l2 -1l286 297h68z" />
    <glyph glyph-name="uni04A3" unicode="&#x4a3;" horiz-adv-x="605" 
d="M576 48v-187h-45l-3 139h-88v213h-309v-213h-53v485h53v-225h309v225h53v-437h83z" />
    <glyph glyph-name="uni04A5" unicode="&#x4a5;" horiz-adv-x="666" 
d="M642 485v-48h-158v-437h-53v213h-300v-213h-53v485h53v-225h300v225h211z" />
    <glyph glyph-name="uni04A7" unicode="&#x4a7;" horiz-adv-x="861" 
d="M844 33c1 -156 -99 -235 -231 -235c-30 0 -52 3 -76 8l4 46c26 -6 44 -8 68 -8c110 0 181 74 181 186c0 114 -67 176 -177 176c-61 0 -99 -10 -135 -22v-184h-53v437h-294v-437h-53v485h400v-256c39 14 81 26 143 26c128 0 222 -76 223 -222z" />
    <glyph glyph-name="uni0525" unicode="&#x525;" horiz-adv-x="595" 
d="M566 48v-187h-45l-3 139h-88v437h-299v-437h-53v485h405v-437h83z" />
    <glyph glyph-name="uni04A9" unicode="&#x4a9;" horiz-adv-x="608" 
d="M593 2c-11 -4 -41 -8 -65 -8c-40 0 -81 12 -110 33c-34 -21 -80 -33 -128 -33c-155 0 -255 108 -255 250c-1 142 96 247 227 247c13 0 34 -2 47 -4l-19 -48c-9 1 -18 2 -27 2c-104 -1 -175 -87 -174 -198c0 -117 85 -202 209 -202c26 0 51 4 74 12v2
c-61 47 -99 121 -99 204c0 101 54 191 147 191c89 0 144 -82 144 -192c0 -87 -45 -163 -102 -204v-4h-1c20 -7 39 -10 61 -10c21 0 47 3 62 10zM328 263c0 -82 38 -152 92 -189c53 39 89 107 89 188c0 73 -38 139 -88 139c-55 0 -93 -67 -93 -138z" />
    <glyph glyph-name="uni04AB" unicode="&#x4ab;" horiz-adv-x="510" 
d="M475 76c-39 -45 -100 -77 -179 -81l-9 -33c42 -8 80 -27 80 -70c0 -49 -37 -74 -90 -76c-23 0 -46 2 -70 9v39c17 -8 36 -12 59 -12c38 0 59 15 58 43c-1 27 -33 40 -81 43l13 58c-125 12 -210 110 -210 246c0 146 98 248 239 248c70 0 142 -27 189 -81l-38 -34
c-32 39 -85 66 -149 66c-112 0 -187 -82 -187 -198c0 -118 76 -198 187 -198c60 0 118 25 152 65z" />
    <glyph glyph-name="uni04AD" unicode="&#x4ad;" horiz-adv-x="444" 
d="M421 437h-173v-389h81v-187h-45l-3 139h-86v437h-173v48h399v-48z" />
    <glyph glyph-name="uni04AF" unicode="&#x4af;" horiz-adv-x="508" 
d="M481 485l-200 -496v-187h-53v187l-202 496h58l170 -428h2l167 428h58z" />
    <glyph glyph-name="uni04B1" unicode="&#x4b1;" horiz-adv-x="508" 
d="M481 485l-181 -444h119v-41h-136l-2 -6v-192h-53v195l-1 3h-139v41h122l-184 444h58l170 -428h2l167 428h58z" />
    <glyph glyph-name="uni04B3" unicode="&#x4b3;" horiz-adv-x="505" 
d="M476 48v-187h-45l-3 139h-33l-151 199h-1l-150 -199h-62l181 244l-182 241h64l148 -199h2l149 199h64l-181 -240l146 -197h54z" />
    <glyph glyph-name="uni04B5" unicode="&#x4b5;" horiz-adv-x="692" 
d="M663 48v-187h-45l-4 139h-426v437h-173v48h392v-48h-166v-389h285v437h53v-437h84z" />
    </font>
</defs>
</svg>
