<?xml version="1.0" standalone="no"?>
<!DOCTYPE svg PUBLIC "-//W3C//DTD SVG 1.1//EN" "http://www.w3.org/Graphics/SVG/1.1/DTD/svg11.dtd" >
<svg xmlns="http://www.w3.org/2000/svg" xmlns:xlink="http://www.w3.org/1999/xlink" version="1.1">
<metadata>
Created by FontForge 20201107 at Sat Jul 15 12:17:23 2017
 By Jimmy Wärting
Copyright \(c\) 2015 by Kostas Bartsokas. All rights reserved.
</metadata>
<defs>
<font id="AvertaStdCY-Extrabold" horiz-adv-x="0" >
  <font-face 
    font-family="Averta Std CY Extrabold"
    font-weight="800"
    font-stretch="normal"
    units-per-em="1000"
    panose-1="0 0 9 0 0 0 0 0 0 0"
    ascent="800"
    descent="-200"
    x-height="489"
    cap-height="710"
    bbox="-710 -258 1433 1063"
    underline-thickness="58"
    underline-position="-97"
    stemh="106"
    stemv="115"
    unicode-range="U+000D-2E18"
  />
<missing-glyph horiz-adv-x="441" 
 />
    <glyph glyph-name=".notdef" horiz-adv-x="441" 
 />
    <glyph glyph-name="space" unicode=" " horiz-adv-x="242" 
 />
    <glyph glyph-name="A" unicode="A" horiz-adv-x="694" 
d="M6 0l261 710h160l260 -710h-174l-42 128h-248l-42 -128h-175zM268 268h159l-79 240h-2z" />
    <glyph glyph-name="Aacute" unicode="&#xc1;" horiz-adv-x="694" 
d="M278 761l108 140h159l-126 -140h-141zM6 0l261 710h160l260 -710h-174l-42 128h-248l-42 -128h-175zM268 268h159l-79 240h-2z" />
    <glyph glyph-name="Abreve" unicode="&#x102;" horiz-adv-x="694" 
d="M346 754c-100 0 -163 51 -172 147h114c3 -26 25 -46 58 -46c34 0 57 21 59 46h114c-8 -86 -61 -147 -173 -147zM6 0l261 710h160l260 -710h-174l-42 128h-248l-42 -128h-175zM268 268h159l-79 240h-2z" />
    <glyph glyph-name="uni1EAE" unicode="&#x1eae;" horiz-adv-x="694" 
d="M296 899l81 133l150 1l-120 -134h-111zM346 748c-105 0 -171 48 -180 137h119c3 -24 26 -42 61 -42c36 0 60 19 62 42h119c-8 -80 -64 -137 -181 -137zM6 0l261 710h160l260 -710h-174l-42 128h-248l-42 -128h-175zM268 268h159l-79 240h-2z" />
    <glyph glyph-name="uni1EB6" unicode="&#x1eb6;" horiz-adv-x="694" 
d="M346 754c-100 0 -163 51 -172 147h114c3 -26 25 -46 58 -46c34 0 57 21 59 46h114c-8 -86 -61 -147 -173 -147zM6 0l261 710h160l260 -710h-174l-42 128h-248l-42 -128h-175zM268 268h159l-79 240h-2zM348 -58c54 0 93 -39 93 -90c0 -48 -39 -88 -93 -88s-94 39 -94 88
c0 51 40 90 94 90z" />
    <glyph glyph-name="uni1EB0" unicode="&#x1eb0;" horiz-adv-x="694" 
d="M300 902l-119 134l149 -1l81 -133h-111zM346 748c-105 0 -171 48 -180 137h119c3 -24 26 -42 61 -42c36 0 60 19 62 42h119c-8 -80 -64 -137 -181 -137zM6 0l261 710h160l260 -710h-174l-42 128h-248l-42 -128h-175zM268 268h159l-79 240h-2z" />
    <glyph glyph-name="uni1EB2" unicode="&#x1eb2;" horiz-adv-x="694" 
d="M294 890c25 16 50 35 50 54c0 10 -8 17 -26 17c-19 0 -44 -7 -62 -17l-26 58c25 21 76 42 132 42c59 0 95 -24 95 -70c0 -38 -36 -67 -81 -84h-82zM346 748c-105 0 -171 48 -180 137h119c3 -24 26 -42 61 -42c36 0 60 19 62 42h119c-8 -80 -64 -137 -181 -137zM6 0
l261 710h160l260 -710h-174l-42 128h-248l-42 -128h-175zM268 268h159l-79 240h-2z" />
    <glyph glyph-name="uni1EB4" unicode="&#x1eb4;" horiz-adv-x="694" 
d="M424 902c-33 0 -57 13 -80 25c-20 10 -36 19 -51 19c-21 0 -38 -15 -51 -43l-84 33c20 57 60 107 119 107c41 0 64 -13 84 -26c16 -9 30 -16 47 -16c22 0 38 16 50 42l84 -27c-21 -64 -61 -114 -118 -114zM346 748c-105 0 -171 48 -180 137h119c3 -24 26 -42 61 -42
c36 0 60 19 62 42h119c-8 -80 -64 -137 -181 -137zM6 0l261 710h160l260 -710h-174l-42 128h-248l-42 -128h-175zM268 268h159l-79 240h-2z" />
    <glyph glyph-name="uni01CD" unicode="&#x1cd;" horiz-adv-x="694" 
d="M264 761l-98 140h136l45 -65h2l45 65h133l-95 -140h-168zM6 0l261 710h160l260 -710h-174l-42 128h-248l-42 -128h-175zM268 268h159l-79 240h-2z" />
    <glyph glyph-name="Acircumflex" unicode="&#xc2;" horiz-adv-x="694" 
d="M166 761l95 140h168l98 -140h-136l-45 65h-2l-45 -65h-133zM6 0l261 710h160l260 -710h-174l-42 128h-248l-42 -128h-175zM268 268h159l-79 240h-2z" />
    <glyph glyph-name="uni1EA4" unicode="&#x1ea4;" horiz-adv-x="694" 
d="M509 822l81 146l150 1l-117 -147h-114zM166 761l95 140h168l98 -140h-136l-45 65h-2l-45 -65h-133zM6 0l261 710h160l260 -710h-174l-42 128h-248l-42 -128h-175zM268 268h159l-79 240h-2z" />
    <glyph glyph-name="uni1EAC" unicode="&#x1eac;" horiz-adv-x="694" 
d="M166 761l95 140h168l98 -140h-136l-45 65h-2l-45 -65h-133zM6 0l261 710h160l260 -710h-174l-42 128h-248l-42 -128h-175zM268 268h159l-79 240h-2zM348 -58c54 0 93 -39 93 -90c0 -48 -39 -88 -93 -88s-94 39 -94 88c0 51 40 90 94 90z" />
    <glyph glyph-name="uni1EA6" unicode="&#x1ea6;" horiz-adv-x="694" 
d="M548 822l-116 147l149 -1l81 -146h-114zM166 761l95 140h168l98 -140h-136l-45 65h-2l-45 -65h-133zM6 0l261 710h160l260 -710h-174l-42 128h-248l-42 -128h-175zM268 268h159l-79 240h-2z" />
    <glyph glyph-name="uni1EA8" unicode="&#x1ea8;" horiz-adv-x="694" 
d="M513 837c25 16 50 35 50 54c0 10 -8 17 -26 17c-19 0 -44 -7 -62 -17l-26 58c25 21 76 42 132 42c59 0 95 -24 95 -70c0 -38 -36 -67 -81 -84h-82zM166 761l95 140h168l98 -140h-136l-45 65h-2l-45 -65h-133zM6 0l261 710h160l260 -710h-174l-42 128h-248l-42 -128h-175z
M268 268h159l-79 240h-2z" />
    <glyph glyph-name="uni1EAA" unicode="&#x1eaa;" horiz-adv-x="694" 
d="M424 922c-33 0 -57 13 -80 25c-20 10 -36 19 -51 19c-21 0 -38 -15 -51 -43l-84 33c20 57 60 107 119 107c41 0 64 -13 84 -26c16 -9 30 -16 47 -16c22 0 38 16 50 42l84 -27c-21 -64 -61 -114 -118 -114zM166 761l95 140h168l98 -140h-136l-45 65h-2l-45 -65h-133zM6 0
l261 710h160l260 -710h-174l-42 128h-248l-42 -128h-175zM268 268h159l-79 240h-2z" />
    <glyph glyph-name="Adieresis" unicode="&#xc4;" horiz-adv-x="694" 
d="M234 756c-54 0 -93 39 -93 89c0 48 39 87 93 87s94 -38 94 -87c0 -51 -40 -89 -94 -89zM458 756c-54 0 -93 39 -93 89c0 48 39 87 93 87c53 0 93 -38 93 -87c0 -51 -40 -89 -93 -89zM6 0l261 710h160l260 -710h-174l-42 128h-248l-42 -128h-175zM268 268h159l-79 240h-2z
" />
    <glyph glyph-name="uni1EA0" unicode="&#x1ea0;" horiz-adv-x="694" 
d="M6 0l261 710h160l260 -710h-174l-42 128h-248l-42 -128h-175zM268 268h159l-79 240h-2zM348 -58c54 0 93 -39 93 -90c0 -48 -39 -88 -93 -88s-94 39 -94 88c0 51 40 90 94 90z" />
    <glyph glyph-name="Agrave" unicode="&#xc0;" horiz-adv-x="694" 
d="M285 761l-126 140h160l108 -140h-142zM6 0l261 710h160l260 -710h-174l-42 128h-248l-42 -128h-175zM268 268h159l-79 240h-2z" />
    <glyph glyph-name="uni1EA2" unicode="&#x1ea2;" horiz-adv-x="694" 
d="M305 761c28 18 55 39 55 60c0 12 -9 19 -29 19c-21 0 -49 -8 -69 -19l-28 65c27 23 84 47 146 47c66 0 106 -27 106 -78c0 -42 -40 -75 -90 -94h-91zM6 0l261 710h160l260 -710h-174l-42 128h-248l-42 -128h-175zM268 268h159l-79 240h-2z" />
    <glyph glyph-name="Amacron" unicode="&#x100;" horiz-adv-x="694" 
d="M190 777v114h313v-114h-313zM6 0l261 710h160l260 -710h-174l-42 128h-248l-42 -128h-175zM268 268h159l-79 240h-2z" />
    <glyph glyph-name="Aogonek" unicode="&#x104;" horiz-adv-x="694" 
d="M659 0c-58 -3 -94 -37 -94 -69c0 -25 15 -39 39 -39c21 0 27 3 37 5l7 -77c-21 -8 -51 -11 -76 -11c-74 0 -120 39 -120 94c0 32 18 72 60 99l-41 126h-248l-42 -128h-175l261 710h160l260 -710h-28zM268 268h159l-79 240h-2z" />
    <glyph glyph-name="Aring" unicode="&#xc5;" horiz-adv-x="694" 
d="M347 745c-60 0 -110 44 -110 106c0 58 44 105 110 105c61 0 110 -43 110 -105c0 -58 -44 -106 -110 -106zM347 816c20 0 36 17 36 36c0 20 -16 36 -36 36s-35 -17 -35 -36c0 -20 15 -36 35 -36zM6 0l261 710h160l260 -710h-174l-42 128h-248l-42 -128h-175zM268 268h159
l-79 240h-2z" />
    <glyph glyph-name="Aringacute" unicode="&#x1fa;" horiz-adv-x="694" 
d="M347 745c-60 0 -110 44 -110 106c0 58 44 105 110 105c27 0 51 -8 70 -23l63 50l159 1l-183 -149c-8 -51 -49 -90 -109 -90zM347 888c-20 0 -35 -17 -35 -36c0 -20 15 -36 35 -36s36 17 36 36c0 20 -16 36 -36 36zM427 710l260 -710h-174l-42 128h-248l-42 -128h-175
l261 710h160zM268 268h159l-79 240h-2z" />
    <glyph glyph-name="Atilde" unicode="&#xc3;" horiz-adv-x="694" 
d="M432 761c-36 0 -61 14 -86 27c-21 11 -39 20 -55 20c-22 0 -40 -16 -54 -46l-90 35c21 62 64 115 127 115c44 0 69 -13 90 -27c17 -10 32 -18 51 -18c23 0 40 18 53 46l90 -29c-22 -69 -65 -123 -126 -123zM6 0l261 710h160l260 -710h-174l-42 128h-248l-42 -128h-175z
M268 268h159l-79 240h-2z" />
    <glyph glyph-name="AE" unicode="&#xc6;" horiz-adv-x="940" 
d="M2 0l322 710h565v-149h-303v-136h245v-145h-245v-131h324v-149h-485v128h-191l-56 -128h-176zM292 262h139v312h-2z" />
    <glyph glyph-name="AEacute" unicode="&#x1fc;" horiz-adv-x="940" 
d="M378 761l108 140h159l-126 -140h-141zM2 0l322 710h565v-149h-303v-136h245v-145h-245v-131h324v-149h-485v128h-191l-56 -128h-176zM292 262h139v312h-2z" />
    <glyph glyph-name="B" unicode="B" horiz-adv-x="633" 
d="M64 0v710h269c157 0 233 -64 233 -173c0 -61 -25 -125 -107 -157v-2c101 -26 144 -92 144 -180c0 -115 -75 -198 -234 -198h-305zM227 425h91c52 0 82 23 82 70c0 41 -22 69 -91 69h-82v-139zM227 145h114c56 0 89 26 89 76c0 48 -33 77 -95 77h-108v-153z" />
    <glyph glyph-name="C" unicode="C" horiz-adv-x="714" 
d="M405 -9c-204 0 -367 127 -367 363c0 203 132 366 366 366c100 0 208 -42 286 -137l-122 -105c-38 45 -95 82 -164 82c-103 0 -190 -76 -190 -206c0 -114 75 -203 191 -203c66 0 123 31 164 80l122 -105c-61 -75 -160 -135 -286 -135z" />
    <glyph glyph-name="Cacute" unicode="&#x106;" horiz-adv-x="714" 
d="M317 761l108 140h159l-126 -140h-141zM405 -9c-204 0 -367 127 -367 363c0 203 132 366 366 366c100 0 208 -42 286 -137l-122 -105c-38 45 -95 82 -164 82c-103 0 -190 -76 -190 -206c0 -114 75 -203 191 -203c66 0 123 31 164 80l122 -105c-61 -75 -160 -135 -286 -135
z" />
    <glyph glyph-name="Ccaron" unicode="&#x10c;" horiz-adv-x="714" 
d="M321 761l-98 140h136l45 -65h2l45 65h133l-95 -140h-168zM405 -9c-204 0 -367 127 -367 363c0 203 132 366 366 366c100 0 208 -42 286 -137l-122 -105c-38 45 -95 82 -164 82c-103 0 -190 -76 -190 -206c0 -114 75 -203 191 -203c66 0 123 31 164 80l122 -105
c-61 -75 -160 -135 -286 -135z" />
    <glyph glyph-name="Ccedilla" unicode="&#xc7;" horiz-adv-x="714" 
d="M691 126c-59 -73 -154 -131 -274 -135l-12 -20l1 -2c70 -2 104 -30 104 -80c0 -48 -45 -82 -139 -82c-33 0 -50 3 -65 6v64c13 -4 27 -7 46 -7c20 0 44 6 44 27c0 18 -29 30 -73 30v38l16 31c-172 24 -301 148 -301 358c0 203 132 366 366 366c100 0 208 -42 286 -137
l-122 -105c-38 45 -95 82 -164 82c-103 0 -190 -76 -190 -206c0 -114 75 -203 191 -203c66 0 123 31 164 80z" />
    <glyph glyph-name="Ccircumflex" unicode="&#x108;" horiz-adv-x="714" 
d="M223 761l95 140h168l98 -140h-136l-45 65h-2l-45 -65h-133zM405 -9c-204 0 -367 127 -367 363c0 203 132 366 366 366c100 0 208 -42 286 -137l-122 -105c-38 45 -95 82 -164 82c-103 0 -190 -76 -190 -206c0 -114 75 -203 191 -203c66 0 123 31 164 80l122 -105
c-61 -75 -160 -135 -286 -135z" />
    <glyph glyph-name="Cdotaccent" unicode="&#x10a;" horiz-adv-x="714" 
d="M404 755c-54 0 -93 39 -93 90c0 48 39 88 93 88s94 -39 94 -88c0 -51 -40 -90 -94 -90zM405 -9c-204 0 -367 127 -367 363c0 203 132 366 366 366c100 0 208 -42 286 -137l-122 -105c-38 45 -95 82 -164 82c-103 0 -190 -76 -190 -206c0 -114 75 -203 191 -203
c66 0 123 31 164 80l122 -105c-61 -75 -160 -135 -286 -135z" />
    <glyph glyph-name="D" unicode="D" horiz-adv-x="717" 
d="M64 0v710h246c225 0 369 -146 369 -356c0 -209 -136 -354 -366 -354h-249zM227 149h75c122 0 202 90 202 205c0 119 -81 207 -190 207h-87v-412z" />
    <glyph glyph-name="Eth" unicode="&#xd0;" horiz-adv-x="717" 
d="M310 710c225 0 369 -146 369 -356c0 -209 -136 -354 -366 -354h-249v278h-48v140h48v292h246zM302 149c122 0 202 90 202 205c0 119 -81 207 -190 207h-87v-143h135v-140h-135v-129h75z" />
    <glyph glyph-name="Dcaron" unicode="&#x10e;" horiz-adv-x="717" 
d="M257 760l-98 140h136l45 -65h2l45 65h133l-95 -140h-168zM64 0v710h246c225 0 369 -146 369 -356c0 -209 -136 -354 -366 -354h-249zM227 149h75c122 0 202 90 202 205c0 119 -81 207 -190 207h-87v-412z" />
    <glyph glyph-name="Dcroat" unicode="&#x110;" horiz-adv-x="717" 
d="M310 710c225 0 369 -146 369 -356c0 -209 -136 -354 -366 -354h-249v278h-48v140h48v292h246zM302 149c122 0 202 90 202 205c0 119 -81 207 -190 207h-87v-143h135v-140h-135v-129h75z" />
    <glyph glyph-name="uni1E0C" unicode="&#x1e0c;" horiz-adv-x="717" 
d="M64 0v710h246c225 0 369 -146 369 -356c0 -209 -136 -354 -366 -354h-249zM227 149h75c122 0 202 90 202 205c0 119 -81 207 -190 207h-87v-412zM337 -58c54 0 93 -39 93 -90c0 -48 -39 -88 -93 -88s-94 39 -94 88c0 51 40 90 94 90z" />
    <glyph glyph-name="uni1E0E" unicode="&#x1e0e;" horiz-adv-x="717" 
d="M64 0v710h246c225 0 369 -146 369 -356c0 -209 -136 -354 -366 -354h-249zM227 149h75c122 0 202 90 202 205c0 119 -81 207 -190 207h-87v-412zM494 -221h-313v120h313v-120z" />
    <glyph glyph-name="E" unicode="E" horiz-adv-x="585" 
d="M64 0v710h463v-149h-300v-136h237v-144h-237v-132h321v-149h-484z" />
    <glyph glyph-name="Eacute" unicode="&#xc9;" horiz-adv-x="585" 
d="M185 760l108 140h159l-126 -140h-141zM64 0v710h463v-149h-300v-136h237v-144h-237v-132h321v-149h-484z" />
    <glyph glyph-name="Ebreve" unicode="&#x114;" horiz-adv-x="585" 
d="M298 753c-100 0 -163 51 -172 147h114c3 -26 25 -46 58 -46c34 0 57 21 59 46h114c-8 -86 -61 -147 -173 -147zM64 0v710h463v-149h-300v-136h237v-144h-237v-132h321v-149h-484z" />
    <glyph glyph-name="Ecaron" unicode="&#x11a;" horiz-adv-x="585" 
d="M216 760l-98 140h136l45 -65h2l45 65h133l-95 -140h-168zM64 0v710h463v-149h-300v-136h237v-144h-237v-132h321v-149h-484z" />
    <glyph glyph-name="Ecircumflex" unicode="&#xca;" horiz-adv-x="585" 
d="M118 760l95 140h168l98 -140h-136l-45 65h-2l-45 -65h-133zM64 0v710h463v-149h-300v-136h237v-144h-237v-132h321v-149h-484z" />
    <glyph glyph-name="uni1EBE" unicode="&#x1ebe;" horiz-adv-x="585" 
d="M461 821l81 146l150 1l-117 -147h-114zM118 760l95 140h168l98 -140h-136l-45 65h-2l-45 -65h-133zM64 0v710h463v-149h-300v-136h237v-144h-237v-132h321v-149h-484z" />
    <glyph glyph-name="uni1EC6" unicode="&#x1ec6;" horiz-adv-x="585" 
d="M118 760l95 140h168l98 -140h-136l-45 65h-2l-45 -65h-133zM64 0v710h463v-149h-300v-136h237v-144h-237v-132h321v-149h-484zM306 -58c54 0 93 -39 93 -90c0 -48 -39 -88 -93 -88s-94 39 -94 88c0 51 40 90 94 90z" />
    <glyph glyph-name="uni1EC0" unicode="&#x1ec0;" horiz-adv-x="585" 
d="M500 821l-116 147l149 -1l81 -146h-114zM118 760l95 140h168l98 -140h-136l-45 65h-2l-45 -65h-133zM64 0v710h463v-149h-300v-136h237v-144h-237v-132h321v-149h-484z" />
    <glyph glyph-name="uni1EC2" unicode="&#x1ec2;" horiz-adv-x="585" 
d="M465 836c25 16 50 35 50 54c0 10 -8 17 -26 17c-19 0 -44 -7 -62 -17l-26 58c25 21 76 42 132 42c59 0 95 -24 95 -70c0 -38 -36 -67 -81 -84h-82zM118 760l95 140h168l98 -140h-136l-45 65h-2l-45 -65h-133zM64 0v710h463v-149h-300v-136h237v-144h-237v-132h321v-149
h-484z" />
    <glyph glyph-name="uni1EC4" unicode="&#x1ec4;" horiz-adv-x="585" 
d="M376 921c-33 0 -57 13 -80 25c-20 10 -36 19 -51 19c-21 0 -38 -15 -51 -43l-84 33c20 57 60 107 119 107c41 0 64 -13 84 -26c16 -9 30 -16 47 -16c22 0 38 16 50 42l84 -27c-21 -64 -61 -114 -118 -114zM118 760l95 140h168l98 -140h-136l-45 65h-2l-45 -65h-133zM64 0
v710h463v-149h-300v-136h237v-144h-237v-132h321v-149h-484z" />
    <glyph glyph-name="Edieresis" unicode="&#xcb;" horiz-adv-x="585" 
d="M186 755c-54 0 -93 39 -93 89c0 48 39 87 93 87s94 -38 94 -87c0 -51 -40 -89 -94 -89zM410 755c-54 0 -93 39 -93 89c0 48 39 87 93 87c53 0 93 -38 93 -87c0 -51 -40 -89 -93 -89zM64 0v710h463v-149h-300v-136h237v-144h-237v-132h321v-149h-484z" />
    <glyph glyph-name="Edotaccent" unicode="&#x116;" horiz-adv-x="585" 
d="M299 754c-54 0 -93 39 -93 90c0 48 39 88 93 88s94 -39 94 -88c0 -51 -40 -90 -94 -90zM64 0v710h463v-149h-300v-136h237v-144h-237v-132h321v-149h-484z" />
    <glyph glyph-name="uni1EB8" unicode="&#x1eb8;" horiz-adv-x="585" 
d="M64 0v710h463v-149h-300v-136h237v-144h-237v-132h321v-149h-484zM306 -58c54 0 93 -39 93 -90c0 -48 -39 -88 -93 -88s-94 39 -94 88c0 51 40 90 94 90z" />
    <glyph glyph-name="Egrave" unicode="&#xc8;" horiz-adv-x="585" 
d="M265 760l-126 140h160l108 -140h-142zM64 0v710h463v-149h-300v-136h237v-144h-237v-132h321v-149h-484z" />
    <glyph glyph-name="uni1EBA" unicode="&#x1eba;" horiz-adv-x="585" 
d="M257 760c28 18 55 39 55 60c0 12 -9 19 -29 19c-21 0 -49 -8 -69 -19l-28 65c27 23 84 47 146 47c66 0 106 -27 106 -78c0 -42 -40 -75 -90 -94h-91zM64 0v710h463v-149h-300v-136h237v-144h-237v-132h321v-149h-484z" />
    <glyph glyph-name="Emacron" unicode="&#x112;" horiz-adv-x="585" 
d="M142 776v114h313v-114h-313zM64 0v710h463v-149h-300v-136h237v-144h-237v-132h321v-149h-484z" />
    <glyph glyph-name="Eogonek" unicode="&#x118;" horiz-adv-x="585" 
d="M227 149h321v-149h-3c-58 -3 -94 -37 -94 -69c0 -25 15 -39 39 -39c21 0 27 3 37 5l7 -77c-21 -8 -51 -11 -76 -11c-74 0 -120 39 -120 94c0 31 17 70 57 97h-331v710h463v-149h-300v-136h237v-144h-237v-132z" />
    <glyph glyph-name="uni1EBC" unicode="&#x1ebc;" horiz-adv-x="585" 
d="M384 760c-36 0 -61 14 -86 27c-21 11 -39 20 -55 20c-22 0 -40 -16 -54 -46l-90 35c21 62 64 115 127 115c44 0 69 -13 90 -27c17 -10 32 -18 51 -18c23 0 40 18 53 46l90 -29c-22 -69 -65 -123 -126 -123zM64 0v710h463v-149h-300v-136h237v-144h-237v-132h321v-149
h-484z" />
    <glyph glyph-name="F" unicode="F" horiz-adv-x="574" 
d="M64 0v710h480v-149h-317v-160h262v-148h-262v-253h-163z" />
    <glyph glyph-name="G" unicode="G" horiz-adv-x="737" 
d="M405 -8c-205 0 -367 131 -367 362c0 206 133 366 360 366c103 0 215 -43 288 -127l-118 -100c-38 37 -94 70 -170 70c-101 0 -185 -77 -185 -209c0 -115 71 -209 192 -209c44 0 82 9 123 31v84h-138v138h298v-319c-65 -50 -173 -87 -283 -87z" />
    <glyph glyph-name="Gbreve" unicode="&#x11e;" horiz-adv-x="737" 
d="M387 753c-100 0 -163 51 -172 147h114c3 -26 25 -46 58 -46c34 0 57 21 59 46h114c-8 -86 -61 -147 -173 -147zM405 -8c-205 0 -367 131 -367 362c0 206 133 366 360 366c103 0 215 -43 288 -127l-118 -100c-38 37 -94 70 -170 70c-101 0 -185 -77 -185 -209
c0 -115 71 -209 192 -209c44 0 82 9 123 31v84h-138v138h298v-319c-65 -50 -173 -87 -283 -87z" />
    <glyph glyph-name="Gcaron" unicode="&#x1e6;" horiz-adv-x="737" 
d="M305 760l-98 140h136l45 -65h2l45 65h133l-95 -140h-168zM405 -8c-205 0 -367 131 -367 362c0 206 133 366 360 366c103 0 215 -43 288 -127l-118 -100c-38 37 -94 70 -170 70c-101 0 -185 -77 -185 -209c0 -115 71 -209 192 -209c44 0 82 9 123 31v84h-138v138h298v-319
c-65 -50 -173 -87 -283 -87z" />
    <glyph glyph-name="Gcircumflex" unicode="&#x11c;" horiz-adv-x="737" 
d="M207 760l95 140h168l98 -140h-136l-45 65h-2l-45 -65h-133zM405 -8c-205 0 -367 131 -367 362c0 206 133 366 360 366c103 0 215 -43 288 -127l-118 -100c-38 37 -94 70 -170 70c-101 0 -185 -77 -185 -209c0 -115 71 -209 192 -209c44 0 82 9 123 31v84h-138v138h298
v-319c-65 -50 -173 -87 -283 -87z" />
    <glyph glyph-name="Gcommaaccent" unicode="&#x122;" horiz-adv-x="737" 
d="M405 -8c-205 0 -367 131 -367 362c0 206 133 366 360 366c103 0 215 -43 288 -127l-118 -100c-38 37 -94 70 -170 70c-101 0 -185 -77 -185 -209c0 -115 71 -209 192 -209c44 0 82 9 123 31v84h-138v138h298v-319c-65 -50 -173 -87 -283 -87zM302 -221l-28 85
c38 8 54 20 54 47c0 11 -2 21 -7 36h128c3 -14 5 -26 5 -42c0 -81 -55 -124 -152 -126z" />
    <glyph glyph-name="Gdotaccent" unicode="&#x120;" horiz-adv-x="737" 
d="M388 754c-54 0 -93 39 -93 90c0 48 39 88 93 88s94 -39 94 -88c0 -51 -40 -90 -94 -90zM405 -8c-205 0 -367 131 -367 362c0 206 133 366 360 366c103 0 215 -43 288 -127l-118 -100c-38 37 -94 70 -170 70c-101 0 -185 -77 -185 -209c0 -115 71 -209 192 -209
c44 0 82 9 123 31v84h-138v138h298v-319c-65 -50 -173 -87 -283 -87z" />
    <glyph glyph-name="uni1E20" unicode="&#x1e20;" horiz-adv-x="737" 
d="M231 776v114h313v-114h-313zM405 -8c-205 0 -367 131 -367 362c0 206 133 366 360 366c103 0 215 -43 288 -127l-118 -100c-38 37 -94 70 -170 70c-101 0 -185 -77 -185 -209c0 -115 71 -209 192 -209c44 0 82 9 123 31v84h-138v138h298v-319c-65 -50 -173 -87 -283 -87z
" />
    <glyph glyph-name="H" unicode="H" horiz-adv-x="715" 
d="M64 0v710h169v-294h250v294h168v-710h-168v268h-250v-268h-169z" />
    <glyph glyph-name="Hbar" unicode="&#x126;" horiz-adv-x="734" 
d="M712 617v-108h-52v-509h-168v268h-250v-268h-169v509h-48v108h48v93h169v-93h250v93h168v-93h52zM492 416v93h-250v-93h250z" />
    <glyph glyph-name="uni1E2A" unicode="&#x1e2a;" horiz-adv-x="715" 
d="M64 0v710h169v-294h250v294h168v-710h-168v268h-250v-268h-169zM362 -234c-105 0 -166 67 -173 157h114c2 -26 25 -49 59 -49c33 0 55 22 58 49h114c-8 -100 -79 -157 -172 -157z" />
    <glyph glyph-name="Hcircumflex" unicode="&#x124;" horiz-adv-x="715" 
d="M180 761l95 140h168l98 -140h-136l-45 65h-2l-45 -65h-133zM64 0v710h169v-294h250v294h168v-710h-168v268h-250v-268h-169z" />
    <glyph glyph-name="uni1E24" unicode="&#x1e24;" horiz-adv-x="715" 
d="M64 0v710h169v-294h250v294h168v-710h-168v268h-250v-268h-169zM361 -58c54 0 93 -39 93 -90c0 -48 -39 -88 -93 -88s-94 39 -94 88c0 51 40 90 94 90z" />
    <glyph glyph-name="I" unicode="I" horiz-adv-x="308" 
d="M68 0v710h171v-710h-171z" />
    <glyph glyph-name="IJ" unicode="&#x132;" horiz-adv-x="810" 
d="M68 0v710h171v-710h-171zM526 -9c-85 0 -156 33 -205 95l97 115c22 -29 55 -54 94 -54s70 24 70 102v461h170v-458c0 -160 -65 -261 -226 -261z" />
    <glyph glyph-name="Iacute" unicode="&#xcd;" horiz-adv-x="308" 
d="M77 759l108 140h159l-126 -140h-141zM68 0v710h171v-710h-171z" />
    <glyph glyph-name="Ibreve" unicode="&#x12c;" horiz-adv-x="308" 
d="M153 753c-100 0 -163 51 -172 147h114c3 -26 25 -46 58 -46c34 0 57 21 59 46h114c-8 -86 -61 -147 -173 -147zM68 0v710h171v-710h-171z" />
    <glyph glyph-name="uni01CF" unicode="&#x1cf;" horiz-adv-x="308" 
d="M71 760l-98 140h136l45 -65h2l45 65h133l-95 -140h-168zM68 0v710h171v-710h-171z" />
    <glyph glyph-name="Icircumflex" unicode="&#xce;" horiz-adv-x="308" 
d="M-27 760l95 140h168l98 -140h-136l-45 65h-2l-45 -65h-133zM68 0v710h171v-710h-171z" />
    <glyph glyph-name="Idieresis" unicode="&#xcf;" horiz-adv-x="308" 
d="M41 755c-54 0 -93 39 -93 89c0 48 39 87 93 87s94 -38 94 -87c0 -51 -40 -89 -94 -89zM265 755c-54 0 -93 39 -93 89c0 48 39 87 93 87c53 0 93 -38 93 -87c0 -51 -40 -89 -93 -89zM68 0v710h171v-710h-171z" />
    <glyph glyph-name="Idotaccent" unicode="&#x130;" horiz-adv-x="308" 
d="M154 754c-54 0 -93 39 -93 90c0 48 39 88 93 88s94 -39 94 -88c0 -51 -40 -90 -94 -90zM68 0v710h171v-710h-171z" />
    <glyph glyph-name="uni1ECA" unicode="&#x1eca;" horiz-adv-x="308" 
d="M68 0v710h171v-710h-171zM155 -58c54 0 93 -39 93 -90c0 -48 -39 -88 -93 -88s-94 39 -94 88c0 51 40 90 94 90z" />
    <glyph glyph-name="Igrave" unicode="&#xcc;" horiz-adv-x="308" 
d="M90 759l-126 140h160l108 -140h-142zM68 0v710h171v-710h-171z" />
    <glyph glyph-name="uni1EC8" unicode="&#x1ec8;" horiz-adv-x="308" 
d="M112 760c28 18 55 39 55 60c0 12 -9 19 -29 19c-21 0 -49 -8 -69 -19l-28 65c27 23 84 47 146 47c66 0 106 -27 106 -78c0 -42 -40 -75 -90 -94h-91zM68 0v710h171v-710h-171z" />
    <glyph glyph-name="Imacron" unicode="&#x12a;" horiz-adv-x="308" 
d="M-3 776v114h313v-114h-313zM68 0v710h171v-710h-171z" />
    <glyph glyph-name="Iogonek" unicode="&#x12e;" horiz-adv-x="308" 
d="M68 710h171v-710h-20c-58 -3 -94 -37 -94 -69c0 -25 15 -39 39 -39c21 0 27 3 37 5l7 -77c-21 -8 -51 -11 -76 -11c-74 0 -120 39 -120 94c0 31 17 70 57 97h-1v710z" />
    <glyph glyph-name="Itilde" unicode="&#x128;" horiz-adv-x="308" 
d="M239 760c-36 0 -61 14 -86 27c-21 11 -39 20 -55 20c-22 0 -40 -16 -54 -46l-90 35c21 62 64 115 127 115c44 0 69 -13 90 -27c17 -10 32 -18 51 -18c23 0 40 18 53 46l90 -29c-22 -69 -65 -123 -126 -123zM68 0v710h171v-710h-171z" />
    <glyph glyph-name="J" unicode="J" horiz-adv-x="502" 
d="M218 -9c-85 0 -156 33 -205 95l97 115c22 -29 55 -54 94 -54s70 24 70 102v461h170v-458c0 -160 -65 -261 -226 -261z" />
    <glyph glyph-name="uni00A40301" horiz-adv-x="502" 
d="M287 761l108 140h159l-126 -140h-141zM218 -9c-85 0 -156 33 -205 95l97 115c22 -29 55 -54 94 -54s70 24 70 102v461h170v-458c0 -160 -65 -261 -226 -261z" />
    <glyph glyph-name="Jcircumflex" unicode="&#x134;" horiz-adv-x="502" 
d="M180 761l95 140h168l98 -140h-136l-45 65h-2l-45 -65h-133zM218 -9c-85 0 -156 33 -205 95l97 115c22 -29 55 -54 94 -54s70 24 70 102v461h170v-458c0 -160 -65 -261 -226 -261z" />
    <glyph glyph-name="K" unicode="K" horiz-adv-x="662" 
d="M64 0v710h167v-272h2l206 272h211l-256 -308l265 -402h-205l-170 270l-53 -65v-205h-167z" />
    <glyph glyph-name="Kcommaaccent" unicode="&#x136;" horiz-adv-x="662" 
d="M64 0v710h167v-272h2l206 272h211l-256 -308l265 -402h-205l-170 270l-53 -65v-205h-167zM253 -221l-28 85c38 8 54 20 54 47c0 11 -2 21 -7 36h128c3 -14 5 -26 5 -42c0 -81 -55 -124 -152 -126z" />
    <glyph glyph-name="L" unicode="L" horiz-adv-x="553" 
d="M64 0v710h171v-561h295v-149h-466z" />
    <glyph glyph-name="Lacute" unicode="&#x139;" horiz-adv-x="553" 
d="M173 761l108 140h159l-126 -140h-141zM64 0v710h171v-561h295v-149h-466z" />
    <glyph glyph-name="Lcaron" unicode="&#x13d;" horiz-adv-x="566" 
d="M336 575l32 217h148l-71 -217h-109zM64 0v710h171v-561h295v-149h-466z" />
    <glyph glyph-name="Lcommaaccent" unicode="&#x13b;" horiz-adv-x="553" 
d="M64 0v710h171v-561h295v-149h-466zM215 -221l-28 85c38 8 54 20 54 47c0 11 -2 21 -7 36h128c3 -14 5 -26 5 -42c0 -81 -55 -124 -152 -126z" />
    <glyph glyph-name="Ldot" unicode="&#x13f;" horiz-adv-x="553" 
d="M64 0v710h171v-561h295v-149h-466zM429 253c-50 0 -90 39 -90 88s40 89 90 89c49 0 90 -40 90 -89s-41 -88 -90 -88z" />
    <glyph glyph-name="uni1E36" unicode="&#x1e36;" horiz-adv-x="553" 
d="M64 0v710h171v-561h295v-149h-466zM300 -58c54 0 93 -39 93 -90c0 -48 -39 -88 -93 -88s-94 39 -94 88c0 51 40 90 94 90z" />
    <glyph glyph-name="uni1E38" unicode="&#x1e38;" horiz-adv-x="553" 
d="M130 777v114h313v-114h-313zM64 0v710h171v-561h295v-149h-466zM300 -58c54 0 93 -39 93 -90c0 -48 -39 -88 -93 -88s-94 39 -94 88c0 51 40 90 94 90z" />
    <glyph glyph-name="uni1E3A" unicode="&#x1e3a;" horiz-adv-x="553" 
d="M64 0v710h171v-561h295v-149h-466zM457 -221h-313v120h313v-120z" />
    <glyph glyph-name="Lslash" unicode="&#x141;" horiz-adv-x="564" 
d="M246 149h295v-149h-466v256l-65 -28v121l65 28v333h171v-259l107 46v-122l-107 -46v-180z" />
    <glyph glyph-name="M" unicode="M" horiz-adv-x="860" 
d="M65 0v710h168l197 -377h2l195 377h169v-710h-166v391h-2l-144 -260h-107l-144 261h-3v-392h-165z" />
    <glyph glyph-name="uni1E42" unicode="&#x1e42;" horiz-adv-x="860" 
d="M65 0v710h168l197 -377h2l195 377h169v-710h-166v391h-2l-144 -260h-107l-144 261h-3v-392h-165zM431 -58c54 0 93 -39 93 -90c0 -48 -39 -88 -93 -88s-94 39 -94 88c0 51 40 90 94 90z" />
    <glyph glyph-name="N" unicode="N" horiz-adv-x="739" 
d="M64 0v710h161l283 -438l2 1v437h165v-710h-166l-278 426h-2v-426h-165z" />
    <glyph glyph-name="Nacute" unicode="&#x143;" horiz-adv-x="739" 
d="M258 761l108 140h159l-126 -140h-141zM64 0v710h161l283 -438l2 1v437h165v-710h-166l-278 426h-2v-426h-165z" />
    <glyph glyph-name="Ncaron" unicode="&#x147;" horiz-adv-x="739" 
d="M289 761l-98 140h136l45 -65h2l45 65h133l-95 -140h-168zM64 0v710h161l283 -438l2 1v437h165v-710h-166l-278 426h-2v-426h-165z" />
    <glyph glyph-name="Ncommaaccent" unicode="&#x145;" horiz-adv-x="739" 
d="M64 0v710h161l283 -438l2 1v437h165v-710h-166l-278 426h-2v-426h-165zM285 -221l-28 85c38 8 54 20 54 47c0 11 -2 21 -7 36h128c3 -14 5 -26 5 -42c0 -81 -55 -124 -152 -126z" />
    <glyph glyph-name="uni1E44" unicode="&#x1e44;" horiz-adv-x="739" 
d="M372 755c-54 0 -93 39 -93 90c0 48 39 88 93 88s94 -39 94 -88c0 -51 -40 -90 -94 -90zM64 0v710h161l283 -438l2 1v437h165v-710h-166l-278 426h-2v-426h-165z" />
    <glyph glyph-name="uni1E46" unicode="&#x1e46;" horiz-adv-x="739" 
d="M64 0v710h161l283 -438l2 1v437h165v-710h-166l-278 426h-2v-426h-165zM370 -58c54 0 93 -39 93 -90c0 -48 -39 -88 -93 -88s-94 39 -94 88c0 51 40 90 94 90z" />
    <glyph glyph-name="Eng" unicode="&#x14a;" horiz-adv-x="739" 
d="M510 710h165v-711c0 -152 -89 -206 -208 -206c-33 0 -63 4 -99 12l12 126c17 -5 36 -7 50 -7c56 0 79 28 79 73v4l-278 425h-2v-426h-165v710h160l284 -438h2v438z" />
    <glyph glyph-name="uni019D" unicode="&#x19d;" horiz-adv-x="739" 
d="M510 710h165v-710h-166l-278 426h-1v-430c0 -149 -77 -203 -176 -203c-26 0 -53 4 -90 12l12 126c16 -5 28 -7 39 -7c36 0 49 22 49 64v722h161l283 -438l2 1v437z" />
    <glyph glyph-name="uni1E48" unicode="&#x1e48;" horiz-adv-x="739" 
d="M64 0v710h161l283 -438l2 1v437h165v-710h-166l-278 426h-2v-426h-165zM527 -221h-313v120h313v-120z" />
    <glyph glyph-name="Ntilde" unicode="&#xd1;" horiz-adv-x="739" 
d="M457 761c-36 0 -61 14 -86 27c-21 11 -39 20 -55 20c-22 0 -40 -16 -54 -46l-90 35c21 62 64 115 127 115c44 0 69 -13 90 -27c17 -10 32 -18 51 -18c23 0 40 18 53 46l90 -29c-22 -69 -65 -123 -126 -123zM64 0v710h161l283 -438l2 1v437h165v-710h-166l-278 426h-2
v-426h-165z" />
    <glyph glyph-name="O" unicode="O" horiz-adv-x="808" 
d="M404 -9c-216 0 -366 150 -366 364s150 365 366 365c212 0 365 -147 365 -365c0 -217 -153 -364 -365 -364zM404 146c110 0 190 91 190 209s-80 209 -190 209c-112 0 -191 -93 -191 -209s79 -209 191 -209z" />
    <glyph glyph-name="Oacute" unicode="&#xd3;" horiz-adv-x="808" 
d="M323 761l108 140h159l-126 -140h-141zM404 -9c-216 0 -366 150 -366 364s150 365 366 365c212 0 365 -147 365 -365c0 -217 -153 -364 -365 -364zM404 146c110 0 190 91 190 209s-80 209 -190 209c-112 0 -191 -93 -191 -209s79 -209 191 -209z" />
    <glyph glyph-name="Obreve" unicode="&#x14e;" horiz-adv-x="808" 
d="M404 754c-100 0 -163 51 -172 147h114c3 -26 25 -46 58 -46c34 0 57 21 59 46h114c-8 -86 -61 -147 -173 -147zM404 -9c-216 0 -366 150 -366 364s150 365 366 365c212 0 365 -147 365 -365c0 -217 -153 -364 -365 -364zM404 146c110 0 190 91 190 209s-80 209 -190 209
c-112 0 -191 -93 -191 -209s79 -209 191 -209z" />
    <glyph glyph-name="uni01D1" unicode="&#x1d1;" horiz-adv-x="808" 
d="M322 761l-98 140h136l45 -65h2l45 65h133l-95 -140h-168zM404 -9c-216 0 -366 150 -366 364s150 365 366 365c212 0 365 -147 365 -365c0 -217 -153 -364 -365 -364zM404 146c110 0 190 91 190 209s-80 209 -190 209c-112 0 -191 -93 -191 -209s79 -209 191 -209z" />
    <glyph glyph-name="Ocircumflex" unicode="&#xd4;" horiz-adv-x="808" 
d="M224 761l95 140h168l98 -140h-136l-45 65h-2l-45 -65h-133zM404 -9c-216 0 -366 150 -366 364s150 365 366 365c212 0 365 -147 365 -365c0 -217 -153 -364 -365 -364zM404 146c110 0 190 91 190 209s-80 209 -190 209c-112 0 -191 -93 -191 -209s79 -209 191 -209z" />
    <glyph glyph-name="uni1ED0" unicode="&#x1ed0;" horiz-adv-x="808" 
d="M567 822l81 146l150 1l-117 -147h-114zM224 761l95 140h168l98 -140h-136l-45 65h-2l-45 -65h-133zM404 -9c-216 0 -366 150 -366 364s150 365 366 365c212 0 365 -147 365 -365c0 -217 -153 -364 -365 -364zM404 146c110 0 190 91 190 209s-80 209 -190 209
c-112 0 -191 -93 -191 -209s79 -209 191 -209z" />
    <glyph glyph-name="uni1ED8" unicode="&#x1ed8;" horiz-adv-x="808" 
d="M224 761l95 140h168l98 -140h-136l-45 65h-2l-45 -65h-133zM404 -9c-216 0 -366 150 -366 364s150 365 366 365c212 0 365 -147 365 -365c0 -217 -153 -364 -365 -364zM404 146c110 0 190 91 190 209s-80 209 -190 209c-112 0 -191 -93 -191 -209s79 -209 191 -209z
M404 -58c54 0 93 -39 93 -90c0 -48 -39 -88 -93 -88s-94 39 -94 88c0 51 40 90 94 90z" />
    <glyph glyph-name="uni1ED2" unicode="&#x1ed2;" horiz-adv-x="808" 
d="M606 822l-116 147l149 -1l81 -146h-114zM224 761l95 140h168l98 -140h-136l-45 65h-2l-45 -65h-133zM404 -9c-216 0 -366 150 -366 364s150 365 366 365c212 0 365 -147 365 -365c0 -217 -153 -364 -365 -364zM404 146c110 0 190 91 190 209s-80 209 -190 209
c-112 0 -191 -93 -191 -209s79 -209 191 -209z" />
    <glyph glyph-name="uni1ED4" unicode="&#x1ed4;" horiz-adv-x="808" 
d="M571 837c25 16 50 35 50 54c0 10 -8 17 -26 17c-19 0 -44 -7 -62 -17l-26 58c25 21 76 42 132 42c59 0 95 -24 95 -70c0 -38 -36 -67 -81 -84h-82zM224 761l95 140h168l98 -140h-136l-45 65h-2l-45 -65h-133zM404 -9c-216 0 -366 150 -366 364s150 365 366 365
c212 0 365 -147 365 -365c0 -217 -153 -364 -365 -364zM404 146c110 0 190 91 190 209s-80 209 -190 209c-112 0 -191 -93 -191 -209s79 -209 191 -209z" />
    <glyph glyph-name="uni1ED6" unicode="&#x1ed6;" horiz-adv-x="808" 
d="M482 922c-33 0 -57 13 -80 25c-20 10 -36 19 -51 19c-21 0 -38 -15 -51 -43l-84 33c20 57 60 107 119 107c41 0 64 -13 84 -26c16 -9 30 -16 47 -16c22 0 38 16 50 42l84 -27c-21 -64 -61 -114 -118 -114zM224 761l95 140h168l98 -140h-136l-45 65h-2l-45 -65h-133z
M404 -9c-216 0 -366 150 -366 364s150 365 366 365c212 0 365 -147 365 -365c0 -217 -153 -364 -365 -364zM404 146c110 0 190 91 190 209s-80 209 -190 209c-112 0 -191 -93 -191 -209s79 -209 191 -209z" />
    <glyph glyph-name="Odieresis" unicode="&#xd6;" horiz-adv-x="808" 
d="M292 756c-54 0 -93 39 -93 89c0 48 39 87 93 87s94 -38 94 -87c0 -51 -40 -89 -94 -89zM516 756c-54 0 -93 39 -93 89c0 48 39 87 93 87c53 0 93 -38 93 -87c0 -51 -40 -89 -93 -89zM404 -9c-216 0 -366 150 -366 364s150 365 366 365c212 0 365 -147 365 -365
c0 -217 -153 -364 -365 -364zM404 146c110 0 190 91 190 209s-80 209 -190 209c-112 0 -191 -93 -191 -209s79 -209 191 -209z" />
    <glyph glyph-name="uni1ECC" unicode="&#x1ecc;" horiz-adv-x="808" 
d="M404 -9c-216 0 -366 150 -366 364s150 365 366 365c212 0 365 -147 365 -365c0 -217 -153 -364 -365 -364zM404 146c110 0 190 91 190 209s-80 209 -190 209c-112 0 -191 -93 -191 -209s79 -209 191 -209zM404 -58c54 0 93 -39 93 -90c0 -48 -39 -88 -93 -88
s-94 39 -94 88c0 51 40 90 94 90z" />
    <glyph glyph-name="Ograve" unicode="&#xd2;" horiz-adv-x="808" 
d="M351 761l-126 140h160l108 -140h-142zM404 -9c-216 0 -366 150 -366 364s150 365 366 365c212 0 365 -147 365 -365c0 -217 -153 -364 -365 -364zM404 146c110 0 190 91 190 209s-80 209 -190 209c-112 0 -191 -93 -191 -209s79 -209 191 -209z" />
    <glyph glyph-name="uni1ECE" unicode="&#x1ece;" horiz-adv-x="808" 
d="M363 761c28 18 55 39 55 60c0 12 -9 19 -29 19c-21 0 -49 -8 -69 -19l-28 65c27 23 84 47 146 47c66 0 106 -27 106 -78c0 -42 -40 -75 -90 -94h-91zM404 -9c-216 0 -366 150 -366 364s150 365 366 365c212 0 365 -147 365 -365c0 -217 -153 -364 -365 -364zM404 146
c110 0 190 91 190 209s-80 209 -190 209c-112 0 -191 -93 -191 -209s79 -209 191 -209z" />
    <glyph glyph-name="Ohorn" unicode="&#x1a0;" horiz-adv-x="841" 
d="M716 774h134v-76c0 -96 -44 -152 -118 -172c24 -50 37 -107 37 -171c0 -217 -153 -364 -365 -364c-216 0 -366 150 -366 364s150 365 366 365c117 0 216 -45 281 -121c28 17 31 50 31 96v79zM404 146c110 0 190 91 190 209s-80 209 -190 209c-112 0 -191 -93 -191 -209
s79 -209 191 -209z" />
    <glyph glyph-name="uni1EDA" unicode="&#x1eda;" horiz-adv-x="841" 
d="M590 901l-126 -140h-141l108 140h159zM716 774h134v-76c0 -96 -44 -152 -118 -172c24 -50 37 -107 37 -171c0 -217 -153 -364 -365 -364c-216 0 -366 150 -366 364s150 365 366 365c117 0 216 -45 281 -121c28 17 31 50 31 96v79zM404 146c110 0 190 91 190 209
s-80 209 -190 209c-112 0 -191 -93 -191 -209s79 -209 191 -209z" />
    <glyph glyph-name="uni1EE2" unicode="&#x1ee2;" horiz-adv-x="841" 
d="M716 774h134v-76c0 -96 -44 -152 -118 -172c24 -50 37 -107 37 -171c0 -217 -153 -364 -365 -364c-216 0 -366 150 -366 364s150 365 366 365c117 0 216 -45 281 -121c28 17 31 50 31 96v79zM404 146c110 0 190 91 190 209s-80 209 -190 209c-112 0 -191 -93 -191 -209
s79 -209 191 -209zM404 -58c54 0 93 -39 93 -90c0 -48 -39 -88 -93 -88s-94 39 -94 88c0 51 40 90 94 90z" />
    <glyph glyph-name="uni1EDC" unicode="&#x1edc;" horiz-adv-x="841" 
d="M493 761h-142l-126 140h160zM716 774h134v-76c0 -96 -44 -152 -118 -172c24 -50 37 -107 37 -171c0 -217 -153 -364 -365 -364c-216 0 -366 150 -366 364s150 365 366 365c117 0 216 -45 281 -121c28 17 31 50 31 96v79zM404 146c110 0 190 91 190 209s-80 209 -190 209
c-112 0 -191 -93 -191 -209s79 -209 191 -209z" />
    <glyph glyph-name="uni1EDE" unicode="&#x1ede;" horiz-adv-x="841" 
d="M389 840c-21 0 -49 -8 -69 -19l-28 65c27 23 84 47 146 47c66 0 106 -27 106 -78c0 -42 -40 -75 -90 -94h-91c28 18 55 39 55 60c0 12 -9 19 -29 19zM716 774h134v-76c0 -96 -44 -152 -118 -172c24 -50 37 -107 37 -171c0 -217 -153 -364 -365 -364
c-216 0 -366 150 -366 364s150 365 366 365c117 0 216 -45 281 -121c28 17 31 50 31 96v79zM404 146c110 0 190 91 190 209s-80 209 -190 209c-112 0 -191 -93 -191 -209s79 -209 191 -209z" />
    <glyph glyph-name="uni1EE0" unicode="&#x1ee0;" horiz-adv-x="841" 
d="M349 808c-22 0 -40 -16 -54 -46l-90 35c21 62 64 115 127 115c44 0 69 -13 90 -27c17 -10 32 -18 51 -18c23 0 40 18 53 46l90 -29c-22 -69 -65 -123 -126 -123c-36 0 -61 14 -86 27c-21 11 -39 20 -55 20zM716 774h134v-76c0 -96 -44 -152 -118 -172
c24 -50 37 -107 37 -171c0 -217 -153 -364 -365 -364c-216 0 -366 150 -366 364s150 365 366 365c117 0 216 -45 281 -121c28 17 31 50 31 96v79zM404 146c110 0 190 91 190 209s-80 209 -190 209c-112 0 -191 -93 -191 -209s79 -209 191 -209z" />
    <glyph glyph-name="Ohungarumlaut" unicode="&#x150;" horiz-adv-x="808" 
d="M226 762l110 149l155 1l-123 -150h-142zM448 762l110 149l155 1l-123 -150h-142zM404 -9c-216 0 -366 150 -366 364s150 365 366 365c212 0 365 -147 365 -365c0 -217 -153 -364 -365 -364zM404 146c110 0 190 91 190 209s-80 209 -190 209c-112 0 -191 -93 -191 -209
s79 -209 191 -209z" />
    <glyph glyph-name="Omacron" unicode="&#x14c;" horiz-adv-x="808" 
d="M248 777v114h313v-114h-313zM404 -9c-216 0 -366 150 -366 364s150 365 366 365c212 0 365 -147 365 -365c0 -217 -153 -364 -365 -364zM404 146c110 0 190 91 190 209s-80 209 -190 209c-112 0 -191 -93 -191 -209s79 -209 191 -209z" />
    <glyph glyph-name="uni01EA" unicode="&#x1ea;" horiz-adv-x="808" 
d="M769 355c0 -185 -112 -320 -277 -355h1h-1c-11 -2 -21 -4 -31 -5c-39 -12 -62 -38 -62 -64c0 -25 15 -39 39 -39c21 0 27 3 37 5l7 -77c-21 -8 -51 -11 -76 -11c-74 0 -120 39 -120 94c0 29 15 65 50 92l-1 1c-178 29 -297 169 -297 359c0 214 150 365 366 365
c212 0 365 -147 365 -365zM404 146c110 0 190 91 190 209s-80 209 -190 209c-112 0 -191 -93 -191 -209s79 -209 191 -209z" />
    <glyph glyph-name="Oslash" unicode="&#xd8;" horiz-adv-x="808" 
d="M691 592c49 -62 78 -143 78 -237c0 -217 -153 -364 -365 -364c-80 0 -151 21 -208 57l-78 -85l-69 64l75 82c-55 63 -86 148 -86 246c0 214 150 365 366 365c84 0 159 -23 219 -65l77 85l68 -63zM213 355c0 -43 11 -83 30 -116l266 292c-29 21 -65 33 -105 33
c-112 0 -191 -93 -191 -209zM404 146c110 0 190 91 190 209c0 39 -9 74 -24 105l-262 -288c28 -17 60 -26 96 -26z" />
    <glyph glyph-name="Oslashacute" unicode="&#x1fe;" horiz-adv-x="808" 
d="M597 900l-126 -140h-141l108 140h159zM691 592c49 -62 78 -143 78 -237c0 -217 -153 -364 -365 -364c-80 0 -151 21 -208 57l-78 -85l-69 64l75 82c-55 63 -86 148 -86 246c0 214 150 365 366 365c84 0 159 -23 219 -65l77 85l68 -63zM213 355c0 -43 11 -83 30 -116
l266 292c-29 21 -65 33 -105 33c-112 0 -191 -93 -191 -209zM404 146c110 0 190 91 190 209c0 39 -9 74 -24 105l-262 -288c28 -17 60 -26 96 -26z" />
    <glyph glyph-name="Otilde" unicode="&#xd5;" horiz-adv-x="808" 
d="M490 761c-36 0 -61 14 -86 27c-21 11 -39 20 -55 20c-22 0 -40 -16 -54 -46l-90 35c21 62 64 115 127 115c44 0 69 -13 90 -27c17 -10 32 -18 51 -18c23 0 40 18 53 46l90 -29c-22 -69 -65 -123 -126 -123zM404 -9c-216 0 -366 150 -366 364s150 365 366 365
c212 0 365 -147 365 -365c0 -217 -153 -364 -365 -364zM404 146c110 0 190 91 190 209s-80 209 -190 209c-112 0 -191 -93 -191 -209s79 -209 191 -209z" />
    <glyph glyph-name="OE" unicode="&#x152;" horiz-adv-x="949" 
d="M594 149h319v-149h-510c-217 0 -365 151 -365 355c0 205 148 355 365 355h490v-148h-299v-138h239v-142h-239v-133zM403 155h30v400h-30c-110 0 -190 -89 -190 -200c0 -110 80 -201 190 -200z" />
    <glyph glyph-name="P" unicode="P" horiz-adv-x="612" 
d="M64 0v710h270c175 0 253 -103 253 -245c0 -158 -105 -236 -266 -236h-94v-229h-163zM227 375h75c74 0 112 35 112 94c0 54 -34 94 -109 94h-78v-188z" />
    <glyph glyph-name="Thorn" unicode="&#xde;" horiz-adv-x="636" 
d="M64 0v710h163v-118h129c175 0 252 -104 252 -245c0 -155 -105 -233 -265 -233h-116v-114h-163zM227 260h97c74 0 111 36 111 91c0 53 -32 93 -108 93h-100v-184z" />
    <glyph glyph-name="Q" unicode="Q" horiz-adv-x="819" 
d="M789 84l-84 -108l-85 78c-59 -41 -132 -63 -215 -63c-217 0 -367 150 -367 364s150 365 367 365c212 0 364 -147 364 -365c0 -79 -20 -148 -55 -205zM213 355c0 -122 81 -211 192 -211c38 0 72 11 101 29l-62 56l71 84l61 -54c12 29 19 61 19 96c0 116 -77 209 -190 209
c-111 0 -192 -90 -192 -209z" />
    <glyph glyph-name="R" unicode="R" horiz-adv-x="649" 
d="M64 0v710h277c176 0 254 -103 254 -245c0 -103 -46 -177 -134 -213l169 -252h-196l-146 229h-61v-229h-163zM227 375h84c72 0 111 35 111 94c0 54 -33 94 -108 94h-87v-188z" />
    <glyph glyph-name="Racute" unicode="&#x154;" horiz-adv-x="649" 
d="M200 761l108 140h159l-126 -140h-141zM64 0v710h277c176 0 254 -103 254 -245c0 -103 -46 -177 -134 -213l169 -252h-196l-146 229h-61v-229h-163zM227 375h84c72 0 111 35 111 94c0 54 -33 94 -108 94h-87v-188z" />
    <glyph glyph-name="Rcaron" unicode="&#x158;" horiz-adv-x="649" 
d="M231 761l-98 140h136l45 -65h2l45 65h133l-95 -140h-168zM64 0v710h277c176 0 254 -103 254 -245c0 -103 -46 -177 -134 -213l169 -252h-196l-146 229h-61v-229h-163zM227 375h84c72 0 111 35 111 94c0 54 -33 94 -108 94h-87v-188z" />
    <glyph glyph-name="Rcommaaccent" unicode="&#x156;" horiz-adv-x="649" 
d="M64 0v710h277c176 0 254 -103 254 -245c0 -103 -46 -177 -134 -213l169 -252h-196l-146 229h-61v-229h-163zM227 375h84c72 0 111 35 111 94c0 54 -33 94 -108 94h-87v-188zM244 -221l-28 85c38 8 54 20 54 47c0 11 -2 21 -7 36h128c3 -14 5 -26 5 -42
c0 -81 -55 -124 -152 -126z" />
    <glyph glyph-name="uni1E5A" unicode="&#x1e5a;" horiz-adv-x="649" 
d="M64 0v710h277c176 0 254 -103 254 -245c0 -103 -46 -177 -134 -213l169 -252h-196l-146 229h-61v-229h-163zM227 375h84c72 0 111 35 111 94c0 54 -33 94 -108 94h-87v-188zM329 -58c54 0 93 -39 93 -90c0 -48 -39 -88 -93 -88s-94 39 -94 88c0 51 40 90 94 90z" />
    <glyph glyph-name="uni1E5C" unicode="&#x1e5c;" horiz-adv-x="649" 
d="M157 777v114h313v-114h-313zM64 0v710h277c176 0 254 -103 254 -245c0 -103 -46 -177 -134 -213l169 -252h-196l-146 229h-61v-229h-163zM227 375h84c72 0 111 35 111 94c0 54 -33 94 -108 94h-87v-188zM329 -58c54 0 93 -39 93 -90c0 -48 -39 -88 -93 -88s-94 39 -94 88
c0 51 40 90 94 90z" />
    <glyph glyph-name="uni1E5E" unicode="&#x1e5e;" horiz-adv-x="649" 
d="M64 0v710h277c176 0 254 -103 254 -245c0 -103 -46 -177 -134 -213l169 -252h-196l-146 229h-61v-229h-163zM227 375h84c72 0 111 35 111 94c0 54 -33 94 -108 94h-87v-188zM486 -221h-313v120h313v-120z" />
    <glyph glyph-name="S" unicode="S" horiz-adv-x="570" 
d="M280 -9c-91 0 -185 35 -261 113l98 119c54 -59 119 -84 168 -84c56 0 80 28 80 60c0 39 -25 56 -105 83c-108 37 -216 88 -216 228c0 118 101 207 233 209c93 2 178 -34 246 -92l-94 -122c-61 48 -105 67 -145 67c-41 0 -66 -21 -66 -55c-1 -34 25 -52 102 -82
c125 -48 221 -80 221 -217c0 -167 -143 -227 -261 -227z" />
    <glyph glyph-name="Sacute" unicode="&#x15a;" horiz-adv-x="570" 
d="M200 761l108 140h159l-126 -140h-141zM280 -9c-91 0 -185 35 -261 113l98 119c54 -59 119 -84 168 -84c56 0 80 28 80 60c0 39 -25 56 -105 83c-108 37 -216 88 -216 228c0 118 101 207 233 209c93 2 178 -34 246 -92l-94 -122c-61 48 -105 67 -145 67
c-41 0 -66 -21 -66 -55c-1 -34 25 -52 102 -82c125 -48 221 -80 221 -217c0 -167 -143 -227 -261 -227z" />
    <glyph glyph-name="Scaron" unicode="&#x160;" horiz-adv-x="570" 
d="M202 761l-98 140h136l45 -65h2l45 65h133l-95 -140h-168zM280 -9c-91 0 -185 35 -261 113l98 119c54 -59 119 -84 168 -84c56 0 80 28 80 60c0 39 -25 56 -105 83c-108 37 -216 88 -216 228c0 118 101 207 233 209c93 2 178 -34 246 -92l-94 -122c-61 48 -105 67 -145 67
c-41 0 -66 -21 -66 -55c-1 -34 25 -52 102 -82c125 -48 221 -80 221 -217c0 -167 -143 -227 -261 -227z" />
    <glyph glyph-name="Scedilla" unicode="&#x15e;" horiz-adv-x="570" 
d="M541 218c0 -159 -129 -221 -243 -227l-12 -20l1 -2c70 -2 104 -30 104 -80c0 -48 -45 -82 -139 -82c-33 0 -50 3 -65 6v64c13 -4 27 -7 46 -7c20 0 44 6 44 27c0 18 -29 30 -73 30v38l17 31c-72 12 -142 47 -202 108l98 119c54 -59 119 -84 168 -84c56 0 80 28 80 60
c0 39 -25 56 -105 83c-108 37 -216 88 -216 228c0 118 101 207 233 209c93 2 178 -34 246 -92l-94 -122c-61 48 -105 67 -145 67c-41 0 -66 -21 -66 -55c-1 -34 25 -52 102 -82c125 -48 221 -80 221 -217z" />
    <glyph glyph-name="Scircumflex" unicode="&#x15c;" horiz-adv-x="570" 
d="M104 761l95 140h168l98 -140h-136l-45 65h-2l-45 -65h-133zM280 -9c-91 0 -185 35 -261 113l98 119c54 -59 119 -84 168 -84c56 0 80 28 80 60c0 39 -25 56 -105 83c-108 37 -216 88 -216 228c0 118 101 207 233 209c93 2 178 -34 246 -92l-94 -122
c-61 48 -105 67 -145 67c-41 0 -66 -21 -66 -55c-1 -34 25 -52 102 -82c125 -48 221 -80 221 -217c0 -167 -143 -227 -261 -227z" />
    <glyph glyph-name="Scommaaccent" unicode="&#x218;" horiz-adv-x="570" 
d="M280 -9c-91 0 -185 35 -261 113l98 119c54 -59 119 -84 168 -84c56 0 80 28 80 60c0 39 -25 56 -105 83c-108 37 -216 88 -216 228c0 118 101 207 233 209c93 2 178 -34 246 -92l-94 -122c-61 48 -105 67 -145 67c-41 0 -66 -21 -66 -55c-1 -34 25 -52 102 -82
c125 -48 221 -80 221 -217c0 -167 -143 -227 -261 -227zM201 -221l-28 85c38 8 54 20 54 47c0 11 -2 21 -7 36h128c3 -14 5 -26 5 -42c0 -81 -55 -124 -152 -126z" />
    <glyph glyph-name="uni1E60" unicode="&#x1e60;" horiz-adv-x="570" 
d="M285 755c-54 0 -93 39 -93 90c0 48 39 88 93 88s94 -39 94 -88c0 -51 -40 -90 -94 -90zM280 -9c-91 0 -185 35 -261 113l98 119c54 -59 119 -84 168 -84c56 0 80 28 80 60c0 39 -25 56 -105 83c-108 37 -216 88 -216 228c0 118 101 207 233 209c93 2 178 -34 246 -92
l-94 -122c-61 48 -105 67 -145 67c-41 0 -66 -21 -66 -55c-1 -34 25 -52 102 -82c125 -48 221 -80 221 -217c0 -167 -143 -227 -261 -227z" />
    <glyph glyph-name="uni1E62" unicode="&#x1e62;" horiz-adv-x="570" 
d="M280 -9c-91 0 -185 35 -261 113l98 119c54 -59 119 -84 168 -84c56 0 80 28 80 60c0 39 -25 56 -105 83c-108 37 -216 88 -216 228c0 118 101 207 233 209c93 2 178 -34 246 -92l-94 -122c-61 48 -105 67 -145 67c-41 0 -66 -21 -66 -55c-1 -34 25 -52 102 -82
c125 -48 221 -80 221 -217c0 -167 -143 -227 -261 -227zM286 -58c54 0 93 -39 93 -90c0 -48 -39 -88 -93 -88s-94 39 -94 88c0 51 40 90 94 90z" />
    <glyph glyph-name="uni1E9E" unicode="&#x1e9e;" horiz-adv-x="778" 
d="M551 429c117 -44 205 -80 205 -211c0 -167 -143 -227 -244 -227c-74 0 -155 27 -224 85l75 138c53 -53 114 -75 151 -75c44 0 66 28 66 60c0 40 -24 58 -105 84c-42 14 -85 32 -130 62l118 218l-2 4c-42 4 -82 7 -115 7c-77 0 -130 -34 -130 -119l-1 -455h-164l1 461
c0 194 113 259 284 259c106 0 234 -19 345 -48z" />
    <glyph glyph-name="uni018F" unicode="&#x18f;" horiz-adv-x="765" 
d="M363 720c235 0 364 -145 364 -365c0 -242 -152 -364 -351 -364c-223 0 -343 142 -345 335c0 32 2 55 6 74h516c-14 113 -87 166 -202 166c-62 0 -121 -16 -180 -53l-92 123c70 53 178 85 284 84zM374 136c96 0 160 49 176 129h-349c8 -72 73 -129 173 -129z" />
    <glyph glyph-name="T" unicode="T" horiz-adv-x="586" 
d="M208 0v561h-185v149h541v-149h-186v-561h-170z" />
    <glyph glyph-name="Tbar" unicode="&#x166;" horiz-adv-x="586" 
d="M564 561h-186v-181h117v-117h-117v-263h-170v263h-109v117h109v181h-185v149h541v-149z" />
    <glyph glyph-name="Tcaron" unicode="&#x164;" horiz-adv-x="586" 
d="M209 761l-98 140h136l45 -65h2l45 65h133l-95 -140h-168zM208 0v561h-185v149h541v-149h-186v-561h-170z" />
    <glyph glyph-name="Tdieresis" horiz-adv-x="586" 
d="M179 775c-54 0 -93 39 -93 89c0 48 39 87 93 87s94 -38 94 -87c0 -51 -40 -89 -94 -89zM403 775c-54 0 -93 39 -93 89c0 48 39 87 93 87c53 0 93 -38 93 -87c0 -51 -40 -89 -93 -89zM208 0v561h-185v149h541v-149h-186v-561h-170z" />
    <glyph glyph-name="uni1E6C" unicode="&#x1e6c;" horiz-adv-x="586" 
d="M208 0v561h-185v149h541v-149h-186v-561h-170zM291 -58c54 0 93 -39 93 -90c0 -48 -39 -88 -93 -88s-94 39 -94 88c0 51 40 90 94 90z" />
    <glyph glyph-name="uni1E6E" unicode="&#x1e6e;" horiz-adv-x="586" 
d="M208 0v561h-185v149h541v-149h-186v-561h-170zM448 -221h-313v120h313v-120z" />
    <glyph glyph-name="U" unicode="U" horiz-adv-x="700" 
d="M349 -9c-175 0 -293 108 -293 305v414h168v-404c0 -87 42 -159 125 -159c74 0 128 58 128 159v404h167v-414c0 -185 -106 -305 -295 -305z" />
    <glyph glyph-name="Uacute" unicode="&#xda;" horiz-adv-x="700" 
d="M266 761l108 140h159l-126 -140h-141zM349 -9c-175 0 -293 108 -293 305v414h168v-404c0 -87 42 -159 125 -159c74 0 128 58 128 159v404h167v-414c0 -185 -106 -305 -295 -305z" />
    <glyph glyph-name="Ubreve" unicode="&#x16c;" horiz-adv-x="700" 
d="M349 754c-100 0 -163 51 -172 147h114c3 -26 25 -46 58 -46c34 0 57 21 59 46h114c-8 -86 -61 -147 -173 -147zM349 -9c-175 0 -293 108 -293 305v414h168v-404c0 -87 42 -159 125 -159c74 0 128 58 128 159v404h167v-414c0 -185 -106 -305 -295 -305z" />
    <glyph glyph-name="Ucircumflex" unicode="&#xdb;" horiz-adv-x="700" 
d="M169 761l95 140h168l98 -140h-136l-45 65h-2l-45 -65h-133zM349 -9c-175 0 -293 108 -293 305v414h168v-404c0 -87 42 -159 125 -159c74 0 128 58 128 159v404h167v-414c0 -185 -106 -305 -295 -305z" />
    <glyph glyph-name="Udieresis" unicode="&#xdc;" horiz-adv-x="700" 
d="M237 756c-54 0 -93 39 -93 89c0 48 39 87 93 87s94 -38 94 -87c0 -51 -40 -89 -94 -89zM461 756c-54 0 -93 39 -93 89c0 48 39 87 93 87c53 0 93 -38 93 -87c0 -51 -40 -89 -93 -89zM349 -9c-175 0 -293 108 -293 305v414h168v-404c0 -87 42 -159 125 -159
c74 0 128 58 128 159v404h167v-414c0 -185 -106 -305 -295 -305z" />
    <glyph glyph-name="uni1EE4" unicode="&#x1ee4;" horiz-adv-x="700" 
d="M349 -9c-175 0 -293 108 -293 305v414h168v-404c0 -87 42 -159 125 -159c74 0 128 58 128 159v404h167v-414c0 -185 -106 -305 -295 -305zM349 -58c54 0 93 -39 93 -90c0 -48 -39 -88 -93 -88s-94 39 -94 88c0 51 40 90 94 90z" />
    <glyph glyph-name="Ugrave" unicode="&#xd9;" horiz-adv-x="700" 
d="M285 761l-126 140h160l108 -140h-142zM349 -9c-175 0 -293 108 -293 305v414h168v-404c0 -87 42 -159 125 -159c74 0 128 58 128 159v404h167v-414c0 -185 -106 -305 -295 -305z" />
    <glyph glyph-name="uni1EE6" unicode="&#x1ee6;" horiz-adv-x="700" 
d="M308 761c28 18 55 39 55 60c0 12 -9 19 -29 19c-21 0 -49 -8 -69 -19l-28 65c27 23 84 47 146 47c66 0 106 -27 106 -78c0 -42 -40 -75 -90 -94h-91zM349 -9c-175 0 -293 108 -293 305v414h168v-404c0 -87 42 -159 125 -159c74 0 128 58 128 159v404h167v-414
c0 -185 -106 -305 -295 -305z" />
    <glyph glyph-name="Uhorn" unicode="&#x1af;" horiz-adv-x="825" 
d="M707 774h134v-76c0 -127 -78 -183 -197 -181v-221c0 -185 -106 -305 -295 -305c-175 0 -293 108 -293 305v414h168v-404c0 -87 42 -159 125 -159c74 0 128 58 128 159v404h167v-122c58 9 63 47 63 107v79z" />
    <glyph glyph-name="uni1EE8" unicode="&#x1ee8;" horiz-adv-x="825" 
d="M533 901l-126 -140h-141l108 140h159zM707 774h134v-76c0 -127 -78 -183 -197 -181v-221c0 -185 -106 -305 -295 -305c-175 0 -293 108 -293 305v414h168v-404c0 -87 42 -159 125 -159c74 0 128 58 128 159v404h167v-122c58 9 63 47 63 107v79z" />
    <glyph glyph-name="uni1EF0" unicode="&#x1ef0;" horiz-adv-x="825" 
d="M707 774h134v-76c0 -127 -78 -183 -197 -181v-221c0 -185 -106 -305 -295 -305c-175 0 -293 108 -293 305v414h168v-404c0 -87 42 -159 125 -159c74 0 128 58 128 159v404h167v-122c58 9 63 47 63 107v79zM349 -58c54 0 93 -39 93 -90c0 -48 -39 -88 -93 -88
s-94 39 -94 88c0 51 40 90 94 90z" />
    <glyph glyph-name="uni1EEA" unicode="&#x1eea;" horiz-adv-x="825" 
d="M427 761h-142l-126 140h160zM707 774h134v-76c0 -127 -78 -183 -197 -181v-221c0 -185 -106 -305 -295 -305c-175 0 -293 108 -293 305v414h168v-404c0 -87 42 -159 125 -159c74 0 128 58 128 159v404h167v-122c58 9 63 47 63 107v79z" />
    <glyph glyph-name="uni1EEC" unicode="&#x1eec;" horiz-adv-x="825" 
d="M334 840c-21 0 -49 -8 -69 -19l-28 65c27 23 84 47 146 47c66 0 106 -27 106 -78c0 -42 -40 -75 -90 -94h-91c28 18 55 39 55 60c0 12 -9 19 -29 19zM707 774h134v-76c0 -127 -78 -183 -197 -181v-221c0 -185 -106 -305 -295 -305c-175 0 -293 108 -293 305v414h168v-404
c0 -87 42 -159 125 -159c74 0 128 58 128 159v404h167v-122c58 9 63 47 63 107v79z" />
    <glyph glyph-name="uni1EEE" unicode="&#x1eee;" horiz-adv-x="825" 
d="M294 808c-22 0 -40 -16 -54 -46l-90 35c21 62 64 115 127 115c44 0 69 -13 90 -27c17 -10 32 -18 51 -18c23 0 40 18 53 46l90 -29c-22 -69 -65 -123 -126 -123c-36 0 -61 14 -86 27c-21 11 -39 20 -55 20zM707 774h134v-76c0 -127 -78 -183 -197 -181v-221
c0 -185 -106 -305 -295 -305c-175 0 -293 108 -293 305v414h168v-404c0 -87 42 -159 125 -159c74 0 128 58 128 159v404h167v-122c58 9 63 47 63 107v79z" />
    <glyph glyph-name="Uhungarumlaut" unicode="&#x170;" horiz-adv-x="700" 
d="M171 762l110 149l155 1l-123 -150h-142zM393 762l110 149l155 1l-123 -150h-142zM349 -9c-175 0 -293 108 -293 305v414h168v-404c0 -87 42 -159 125 -159c74 0 128 58 128 159v404h167v-414c0 -185 -106 -305 -295 -305z" />
    <glyph glyph-name="Umacron" unicode="&#x16a;" horiz-adv-x="700" 
d="M193 777v114h313v-114h-313zM349 -9c-175 0 -293 108 -293 305v414h168v-404c0 -87 42 -159 125 -159c74 0 128 58 128 159v404h167v-414c0 -185 -106 -305 -295 -305z" />
    <glyph glyph-name="Uogonek" unicode="&#x172;" horiz-adv-x="700" 
d="M477 710h167v-414c0 -144 -64 -249 -182 -288c-61 -20 -95 -48 -95 -79c0 -23 15 -35 39 -35c18 0 28 2 37 5l6 -77c-20 -9 -50 -12 -75 -12c-74 0 -120 40 -120 95c0 27 14 61 45 87v2c-147 19 -243 124 -243 302v414h168v-404c0 -87 42 -159 125 -159
c74 0 128 58 128 159v404z" />
    <glyph glyph-name="Uring" unicode="&#x16e;" horiz-adv-x="700" 
d="M350 745c-60 0 -110 44 -110 106c0 58 44 105 110 105c61 0 110 -43 110 -105c0 -58 -44 -106 -110 -106zM350 816c20 0 36 17 36 36c0 20 -16 36 -36 36s-35 -17 -35 -36c0 -20 15 -36 35 -36zM349 -9c-175 0 -293 108 -293 305v414h168v-404c0 -87 42 -159 125 -159
c74 0 128 58 128 159v404h167v-414c0 -185 -106 -305 -295 -305z" />
    <glyph glyph-name="Utilde" unicode="&#x168;" horiz-adv-x="700" 
d="M435 761c-36 0 -61 14 -86 27c-21 11 -39 20 -55 20c-22 0 -40 -16 -54 -46l-90 35c21 62 64 115 127 115c44 0 69 -13 90 -27c17 -10 32 -18 51 -18c23 0 40 18 53 46l90 -29c-22 -69 -65 -123 -126 -123zM349 -9c-175 0 -293 108 -293 305v414h168v-404
c0 -87 42 -159 125 -159c74 0 128 58 128 159v404h167v-414c0 -185 -106 -305 -295 -305z" />
    <glyph glyph-name="V" unicode="V" horiz-adv-x="688" 
d="M272 0l-262 710h181l154 -471h2l154 471h179l-261 -710h-147z" />
    <glyph glyph-name="W" unicode="W" horiz-adv-x="1025" 
d="M238 0l-223 710h179l119 -436h3l109 436h176l108 -435h3l120 435h178l-223 -710h-153l-118 466h-2l-123 -466h-153z" />
    <glyph glyph-name="Wacute" unicode="&#x1e82;" horiz-adv-x="1025" 
d="M440 761l108 140h159l-126 -140h-141zM238 0l-223 710h179l119 -436h3l109 436h176l108 -435h3l120 435h178l-223 -710h-153l-118 466h-2l-123 -466h-153z" />
    <glyph glyph-name="Wcircumflex" unicode="&#x174;" horiz-adv-x="1025" 
d="M333 761l95 140h168l98 -140h-136l-45 65h-2l-45 -65h-133zM238 0l-223 710h179l119 -436h3l109 436h176l108 -435h3l120 435h178l-223 -710h-153l-118 466h-2l-123 -466h-153z" />
    <glyph glyph-name="Wdieresis" unicode="&#x1e84;" horiz-adv-x="1025" 
d="M401 756c-54 0 -93 39 -93 89c0 48 39 87 93 87s94 -38 94 -87c0 -51 -40 -89 -94 -89zM625 756c-54 0 -93 39 -93 89c0 48 39 87 93 87c53 0 93 -38 93 -87c0 -51 -40 -89 -93 -89zM238 0l-223 710h179l119 -436h3l109 436h176l108 -435h3l120 435h178l-223 -710h-153
l-118 466h-2l-123 -466h-153z" />
    <glyph glyph-name="Wgrave" unicode="&#x1e80;" horiz-adv-x="1025" 
d="M449 761l-126 140h160l108 -140h-142zM238 0l-223 710h179l119 -436h3l109 436h176l108 -435h3l120 435h178l-223 -710h-153l-118 466h-2l-123 -466h-153z" />
    <glyph glyph-name="X" unicode="X" horiz-adv-x="706" 
d="M15 0l227 357l-218 353h193l136 -225h3l137 225h189l-218 -353l227 -357h-197l-141 229h-3l-142 -229h-193z" />
    <glyph glyph-name="Y" unicode="Y" horiz-adv-x="636" 
d="M232 0v309l-231 401h191l125 -236h2l123 236h193l-233 -401v-309h-170z" />
    <glyph glyph-name="Yacute" unicode="&#xdd;" horiz-adv-x="636" 
d="M235 761l108 140h159l-126 -140h-141zM232 0v309l-231 401h191l125 -236h2l123 236h193l-233 -401v-309h-170z" />
    <glyph glyph-name="Ycircumflex" unicode="&#x176;" horiz-adv-x="636" 
d="M138 761l95 140h168l98 -140h-136l-45 65h-2l-45 -65h-133zM232 0v309l-231 401h191l125 -236h2l123 236h193l-233 -401v-309h-170z" />
    <glyph glyph-name="Ydieresis" unicode="&#x178;" horiz-adv-x="636" 
d="M206 756c-54 0 -93 39 -93 89c0 48 39 87 93 87s94 -38 94 -87c0 -51 -40 -89 -94 -89zM430 756c-54 0 -93 39 -93 89c0 48 39 87 93 87c53 0 93 -38 93 -87c0 -51 -40 -89 -93 -89zM232 0v309l-231 401h191l125 -236h2l123 236h193l-233 -401v-309h-170z" />
    <glyph glyph-name="uni1E8E" unicode="&#x1e8e;" horiz-adv-x="636" 
d="M319 755c-54 0 -93 39 -93 90c0 48 39 88 93 88s94 -39 94 -88c0 -51 -40 -90 -94 -90zM232 0v309l-231 401h191l125 -236h2l123 236h193l-233 -401v-309h-170z" />
    <glyph glyph-name="uni1EF4" unicode="&#x1ef4;" horiz-adv-x="636" 
d="M232 0v309l-231 401h191l125 -236h2l123 236h193l-233 -401v-309h-170zM317 -58c54 0 93 -39 93 -90c0 -48 -39 -88 -93 -88s-94 39 -94 88c0 51 40 90 94 90z" />
    <glyph glyph-name="Ygrave" unicode="&#x1ef2;" horiz-adv-x="636" 
d="M266 761l-126 140h160l108 -140h-142zM232 0v309l-231 401h191l125 -236h2l123 236h193l-233 -401v-309h-170z" />
    <glyph glyph-name="uni1EF6" unicode="&#x1ef6;" horiz-adv-x="636" 
d="M277 761c28 18 55 39 55 60c0 12 -9 19 -29 19c-21 0 -49 -8 -69 -19l-28 65c27 23 84 47 146 47c66 0 106 -27 106 -78c0 -42 -40 -75 -90 -94h-91zM232 0v309l-231 401h191l125 -236h2l123 236h193l-233 -401v-309h-170z" />
    <glyph glyph-name="uni0232" unicode="&#x232;" horiz-adv-x="636" 
d="M162 777v114h313v-114h-313zM232 0v309l-231 401h191l125 -236h2l123 236h193l-233 -401v-309h-170z" />
    <glyph glyph-name="uni1EF8" unicode="&#x1ef8;" horiz-adv-x="636" 
d="M404 761c-36 0 -61 14 -86 27c-21 11 -39 20 -55 20c-22 0 -40 -16 -54 -46l-90 35c21 62 64 115 127 115c44 0 69 -13 90 -27c17 -10 32 -18 51 -18c23 0 40 18 53 46l90 -29c-22 -69 -65 -123 -126 -123zM232 0v309l-231 401h191l125 -236h2l123 236h193l-233 -401
v-309h-170z" />
    <glyph glyph-name="Z" unicode="Z" horiz-adv-x="613" 
d="M41 0v130l308 429l-2 2h-295v149h519v-126l-316 -432l2 -3h315v-149h-531z" />
    <glyph glyph-name="Zacute" unicode="&#x179;" horiz-adv-x="613" 
d="M190 761l108 140h159l-126 -140h-141zM41 0v130l308 429l-2 2h-295v149h519v-126l-316 -432l2 -3h315v-149h-531z" />
    <glyph glyph-name="Zcaron" unicode="&#x17d;" horiz-adv-x="613" 
d="M221 761l-98 140h136l45 -65h2l45 65h133l-95 -140h-168zM41 0v130l308 429l-2 2h-295v149h519v-126l-316 -432l2 -3h315v-149h-531z" />
    <glyph glyph-name="Zdotaccent" unicode="&#x17b;" horiz-adv-x="613" 
d="M304 755c-54 0 -93 39 -93 90c0 48 39 88 93 88s94 -39 94 -88c0 -51 -40 -90 -94 -90zM41 0v130l308 429l-2 2h-295v149h519v-126l-316 -432l2 -3h315v-149h-531z" />
    <glyph glyph-name="uni1E92" unicode="&#x1e92;" horiz-adv-x="613" 
d="M41 0v130l308 429l-2 2h-295v149h519v-126l-316 -432l2 -3h315v-149h-531zM304 -58c54 0 93 -39 93 -90c0 -48 -39 -88 -93 -88s-94 39 -94 88c0 51 40 90 94 90z" />
    <glyph glyph-name="uni01D3" unicode="&#x1d3;" horiz-adv-x="700" 
d="M267 761l-98 140h136l45 -65h2l45 65h133l-95 -140h-168zM349 -9c-175 0 -293 108 -293 305v414h168v-404c0 -87 42 -159 125 -159c74 0 128 58 128 159v404h167v-414c0 -185 -106 -305 -295 -305z" />
    <glyph glyph-name="uni01D5" unicode="&#x1d5;" horiz-adv-x="700" 
d="M194 932v80h313v-80h-313zM248 755c-45 0 -77 32 -77 74c0 39 32 72 77 72s78 -32 78 -72c0 -42 -33 -74 -78 -74zM459 755c-45 0 -77 32 -77 74c0 39 32 72 77 72s78 -32 78 -72c0 -42 -33 -74 -78 -74zM349 -9c-175 0 -293 108 -293 305v414h168v-404
c0 -87 42 -159 125 -159c74 0 128 58 128 159v404h167v-414c0 -185 -106 -305 -295 -305z" />
    <glyph glyph-name="uni01D7" unicode="&#x1d7;" horiz-adv-x="700" 
d="M303 910l86 131h158l-139 -131h-105zM248 756c-45 0 -77 32 -77 74c0 39 32 72 77 72s78 -32 78 -72c0 -42 -33 -74 -78 -74zM459 756c-45 0 -77 32 -77 74c0 39 32 72 77 72s78 -32 78 -72c0 -42 -33 -74 -78 -74zM349 -9c-175 0 -293 108 -293 305v414h168v-404
c0 -87 42 -159 125 -159c74 0 128 58 128 159v404h167v-414c0 -185 -106 -305 -295 -305z" />
    <glyph glyph-name="uni01D9" unicode="&#x1d9;" horiz-adv-x="700" 
d="M274 913l-98 126h136l45 -59h2l45 59h133l-95 -126h-168zM248 756c-45 0 -77 32 -77 74c0 39 32 72 77 72s78 -32 78 -72c0 -42 -33 -74 -78 -74zM459 756c-45 0 -77 32 -77 74c0 39 32 72 77 72s78 -32 78 -72c0 -42 -33 -74 -78 -74zM349 -9c-175 0 -293 108 -293 305
v414h168v-404c0 -87 42 -159 125 -159c74 0 128 58 128 159v404h167v-414c0 -185 -106 -305 -295 -305z" />
    <glyph glyph-name="uni01DB" unicode="&#x1db;" horiz-adv-x="700" 
d="M308 909l-139 132l158 -1l86 -131h-105zM248 755c-45 0 -77 32 -77 74c0 39 32 72 77 72s78 -32 78 -72c0 -42 -33 -74 -78 -74zM459 755c-45 0 -77 32 -77 74c0 39 32 72 77 72s78 -32 78 -72c0 -42 -33 -74 -78 -74zM349 -9c-175 0 -293 108 -293 305v414h168v-404
c0 -87 42 -159 125 -159c74 0 128 58 128 159v404h167v-414c0 -185 -106 -305 -295 -305z" />
    <glyph glyph-name="uni1E30" unicode="&#x1e30;" horiz-adv-x="662" 
d="M218 761l108 140h159l-126 -140h-141zM64 0v710h167v-272h2l206 272h211l-256 -308l265 -402h-205l-170 270l-53 -65v-205h-167z" />
    <glyph glyph-name="Q.alt" horiz-adv-x="808" 
d="M774 -36l-99 -122l-187 157c-26 -5 -54 -8 -83 -8c-217 0 -367 150 -367 364s150 365 367 365c212 0 364 -147 364 -365c0 -121 -47 -220 -126 -284zM213 355c0 -116 79 -209 192 -209c111 0 190 91 190 209s-79 209 -190 209c-113 0 -192 -93 -192 -209z" />
    <glyph glyph-name="a" unicode="a" horiz-adv-x="596" 
d="M259 -9c-134 0 -231 102 -231 253c0 150 97 254 223 254c52 0 101 -21 135 -61l2 1v51h157v-489h-149v51l-2 1c-32 -41 -76 -61 -135 -61zM292 129c56 0 103 45 103 115c0 67 -45 116 -103 116c-60 0 -105 -46 -105 -116c0 -69 43 -115 105 -115z" />
    <glyph glyph-name="aacute" unicode="&#xe1;" horiz-adv-x="596" 
d="M204 549l111 149l158 1l-124 -150h-145zM259 -9c-134 0 -231 102 -231 253c0 150 97 254 223 254c52 0 101 -21 135 -61l2 1v51h157v-489h-149v51l-2 1c-32 -41 -76 -61 -135 -61zM292 129c56 0 103 45 103 115c0 67 -45 116 -103 116c-60 0 -105 -46 -105 -116
c0 -69 43 -115 105 -115z" />
    <glyph glyph-name="abreve" unicode="&#x103;" horiz-adv-x="596" 
d="M295 539c-93 0 -164 57 -172 157h114c3 -27 25 -49 58 -49c34 0 57 23 59 49h114c-7 -90 -68 -157 -173 -157zM259 -9c-134 0 -231 102 -231 253c0 150 97 254 223 254c52 0 101 -21 135 -61l2 1v51h157v-489h-149v51l-2 1c-32 -41 -76 -61 -135 -61zM292 129
c56 0 103 45 103 115c0 67 -45 116 -103 116c-60 0 -105 -46 -105 -116c0 -69 43 -115 105 -115z" />
    <glyph glyph-name="uni1EAF" unicode="&#x1eaf;" horiz-adv-x="596" 
d="M241 715l74 150l150 1l-117 -151h-107zM295 539c-93 0 -164 57 -172 157h114c3 -27 25 -49 58 -49c34 0 57 23 59 49h114c-7 -90 -68 -157 -173 -157zM259 -9c-134 0 -231 102 -231 253c0 150 97 254 223 254c52 0 101 -21 135 -61l2 1v51h157v-489h-149v51l-2 1
c-32 -41 -76 -61 -135 -61zM292 129c56 0 103 45 103 115c0 67 -45 116 -103 116c-60 0 -105 -46 -105 -116c0 -69 43 -115 105 -115z" />
    <glyph glyph-name="uni1EB7" unicode="&#x1eb7;" horiz-adv-x="596" 
d="M295 539c-93 0 -164 57 -172 157h114c3 -27 25 -49 58 -49c34 0 57 23 59 49h114c-7 -90 -68 -157 -173 -157zM259 -9c-134 0 -231 102 -231 253c0 150 97 254 223 254c52 0 101 -21 135 -61l2 1v51h157v-489h-149v51l-2 1c-32 -41 -76 -61 -135 -61zM292 129
c56 0 103 45 103 115c0 67 -45 116 -103 116c-60 0 -105 -46 -105 -116c0 -69 43 -115 105 -115zM291 -58c54 0 93 -39 93 -90c0 -48 -39 -88 -93 -88s-94 39 -94 88c0 51 40 90 94 90z" />
    <glyph glyph-name="uni1EB1" unicode="&#x1eb1;" horiz-adv-x="596" 
d="M248 715l-117 151l150 -1l74 -150h-107zM295 539c-93 0 -164 57 -172 157h114c3 -27 25 -49 58 -49c34 0 57 23 59 49h114c-7 -90 -68 -157 -173 -157zM259 -9c-134 0 -231 102 -231 253c0 150 97 254 223 254c52 0 101 -21 135 -61l2 1v51h157v-489h-149v51l-2 1
c-32 -41 -76 -61 -135 -61zM292 129c56 0 103 45 103 115c0 67 -45 116 -103 116c-60 0 -105 -46 -105 -116c0 -69 43 -115 105 -115z" />
    <glyph glyph-name="uni1EB3" unicode="&#x1eb3;" horiz-adv-x="596" 
d="M246 699c28 22 51 46 50 69c0 13 -8 21 -27 21c-20 0 -41 -7 -62 -21l-26 59c25 25 76 51 133 51c61 0 97 -27 97 -79c0 -42 -36 -80 -82 -100h-83zM294 538c-96 0 -168 54 -177 150h117c4 -26 26 -47 60 -47c35 0 58 22 61 47h117c-8 -86 -70 -150 -178 -150zM259 -9
c-134 0 -231 102 -231 253c0 150 97 254 223 254c52 0 101 -21 135 -61l2 1v51h157v-489h-149v51l-2 1c-32 -41 -76 -61 -135 -61zM292 129c56 0 103 45 103 115c0 67 -45 116 -103 116c-60 0 -105 -46 -105 -116c0 -69 43 -115 105 -115z" />
    <glyph glyph-name="uni1EB5" unicode="&#x1eb5;" horiz-adv-x="596" 
d="M193 718l-91 36c22 57 61 110 124 110c32 0 54 -12 79 -25c23 -13 34 -18 44 -18c21 0 36 16 51 45l89 -28c-20 -59 -61 -118 -123 -118c-27 0 -51 11 -73 24c-21 12 -35 20 -52 19c-20 0 -36 -18 -48 -45zM293 539c-93 0 -164 57 -172 157h114c3 -27 25 -49 58 -49
c34 0 57 23 59 49h114c-7 -90 -68 -157 -173 -157zM259 -9c-134 0 -231 102 -231 253c0 150 97 254 223 254c52 0 101 -21 135 -61l2 1v51h157v-489h-149v51l-2 1c-32 -41 -76 -61 -135 -61zM292 129c56 0 103 45 103 115c0 67 -45 116 -103 116c-60 0 -105 -46 -105 -116
c0 -69 43 -115 105 -115z" />
    <glyph glyph-name="uni01CE" unicode="&#x1ce;" horiz-adv-x="596" 
d="M213 547l-97 149h137l44 -72h2l44 72h133l-94 -149h-169zM259 -9c-134 0 -231 102 -231 253c0 150 97 254 223 254c52 0 101 -21 135 -61l2 1v51h157v-489h-149v51l-2 1c-32 -41 -76 -61 -135 -61zM292 129c56 0 103 45 103 115c0 67 -45 116 -103 116
c-60 0 -105 -46 -105 -116c0 -69 43 -115 105 -115z" />
    <glyph glyph-name="acircumflex" unicode="&#xe2;" horiz-adv-x="596" 
d="M116 548l95 149h168l97 -149h-136l-44 72h-2l-45 -72h-133zM259 -9c-134 0 -231 102 -231 253c0 150 97 254 223 254c52 0 101 -21 135 -61l2 1v51h157v-489h-149v51l-2 1c-32 -41 -76 -61 -135 -61zM292 129c56 0 103 45 103 115c0 67 -45 116 -103 116
c-60 0 -105 -46 -105 -116c0 -69 43 -115 105 -115z" />
    <glyph glyph-name="uni1EA5" unicode="&#x1ea5;" horiz-adv-x="596" 
d="M437 652l75 150l149 1l-117 -151h-107zM115 548l95 149h168l97 -149h-136l-44 72h-2l-45 -72h-133zM259 -9c-134 0 -231 102 -231 253c0 150 97 254 223 254c52 0 101 -21 135 -61l2 1v51h157v-489h-149v51l-2 1c-32 -41 -76 -61 -135 -61zM292 129c56 0 103 45 103 115
c0 67 -45 116 -103 116c-60 0 -105 -46 -105 -116c0 -69 43 -115 105 -115z" />
    <glyph glyph-name="uni1EAD" unicode="&#x1ead;" horiz-adv-x="596" 
d="M116 548l95 149h168l97 -149h-136l-44 72h-2l-45 -72h-133zM259 -9c-134 0 -231 102 -231 253c0 150 97 254 223 254c52 0 101 -21 135 -61l2 1v51h157v-489h-149v51l-2 1c-32 -41 -76 -61 -135 -61zM292 129c56 0 103 45 103 115c0 67 -45 116 -103 116
c-60 0 -105 -46 -105 -116c0 -69 43 -115 105 -115zM291 -58c54 0 93 -39 93 -90c0 -48 -39 -88 -93 -88s-94 39 -94 88c0 51 40 90 94 90z" />
    <glyph glyph-name="uni1EA7" unicode="&#x1ea7;" horiz-adv-x="596" 
d="M469 652l-117 151l150 -1l74 -150h-107zM116 548l95 149h168l97 -149h-136l-44 72h-2l-45 -72h-133zM259 -9c-134 0 -231 102 -231 253c0 150 97 254 223 254c52 0 101 -21 135 -61l2 1v51h157v-489h-149v51l-2 1c-32 -41 -76 -61 -135 -61zM292 129c56 0 103 45 103 115
c0 67 -45 116 -103 116c-60 0 -105 -46 -105 -116c0 -69 43 -115 105 -115z" />
    <glyph glyph-name="uni1EA9" unicode="&#x1ea9;" horiz-adv-x="596" 
d="M449 645c28 22 51 46 50 69c0 13 -8 21 -27 21c-20 0 -41 -7 -62 -21l-26 59c25 25 76 51 133 51c61 0 97 -27 97 -79c0 -42 -36 -80 -82 -100h-83zM116 548l95 149h168l97 -149h-136l-44 72h-2l-45 -72h-133zM259 -9c-134 0 -231 102 -231 253c0 150 97 254 223 254
c52 0 101 -21 135 -61l2 1v51h157v-489h-149v51l-2 1c-32 -41 -76 -61 -135 -61zM292 129c56 0 103 45 103 115c0 67 -45 116 -103 116c-60 0 -105 -46 -105 -116c0 -69 43 -115 105 -115z" />
    <glyph glyph-name="uni1EAB" unicode="&#x1eab;" horiz-adv-x="596" 
d="M195 725l-91 36c22 57 61 110 124 110c32 0 54 -12 79 -25c23 -13 34 -18 44 -18c21 0 36 16 51 45l89 -28c-20 -59 -61 -118 -123 -118c-27 0 -51 11 -73 24c-21 12 -35 20 -52 19c-20 0 -36 -18 -48 -45zM116 548l95 149h168l97 -149h-136l-44 72h-2l-45 -72h-133z
M259 -9c-134 0 -231 102 -231 253c0 150 97 254 223 254c52 0 101 -21 135 -61l2 1v51h157v-489h-149v51l-2 1c-32 -41 -76 -61 -135 -61zM292 129c56 0 103 45 103 115c0 67 -45 116 -103 116c-60 0 -105 -46 -105 -116c0 -69 43 -115 105 -115z" />
    <glyph glyph-name="adieresis" unicode="&#xe4;" horiz-adv-x="596" 
d="M183 551c-54 0 -93 39 -93 89c0 48 39 87 93 87s94 -38 94 -87c0 -51 -40 -89 -94 -89zM407 551c-54 0 -93 39 -93 89c0 48 39 87 93 87c53 0 93 -38 93 -87c0 -51 -40 -89 -93 -89zM259 -9c-134 0 -231 102 -231 253c0 150 97 254 223 254c52 0 101 -21 135 -61l2 1v51
h157v-489h-149v51l-2 1c-32 -41 -76 -61 -135 -61zM292 129c56 0 103 45 103 115c0 67 -45 116 -103 116c-60 0 -105 -46 -105 -116c0 -69 43 -115 105 -115z" />
    <glyph glyph-name="uni1EA1" unicode="&#x1ea1;" horiz-adv-x="596" 
d="M259 -9c-134 0 -231 102 -231 253c0 150 97 254 223 254c52 0 101 -21 135 -61l2 1v51h157v-489h-149v51l-2 1c-32 -41 -76 -61 -135 -61zM292 129c56 0 103 45 103 115c0 67 -45 116 -103 116c-60 0 -105 -46 -105 -116c0 -69 43 -115 105 -115zM291 -58
c54 0 93 -39 93 -90c0 -48 -39 -88 -93 -88s-94 39 -94 88c0 51 40 90 94 90z" />
    <glyph glyph-name="agrave" unicode="&#xe0;" horiz-adv-x="596" 
d="M248 548l-123 149l159 -1l106 -148h-142zM259 -9c-134 0 -231 102 -231 253c0 150 97 254 223 254c52 0 101 -21 135 -61l2 1v51h157v-489h-149v51l-2 1c-32 -41 -76 -61 -135 -61zM292 129c56 0 103 45 103 115c0 67 -45 116 -103 116c-60 0 -105 -46 -105 -116
c0 -69 43 -115 105 -115z" />
    <glyph glyph-name="uni1EA3" unicode="&#x1ea3;" horiz-adv-x="596" 
d="M254 550c31 24 56 50 55 75c0 14 -9 23 -29 23c-22 0 -45 -8 -68 -23l-28 65c27 27 83 55 145 55c66 0 106 -29 106 -86c0 -46 -40 -87 -90 -109h-91zM259 -9c-134 0 -231 102 -231 253c0 150 97 254 223 254c52 0 101 -21 135 -61l2 1v51h157v-489h-149v51l-2 1
c-32 -41 -76 -61 -135 -61zM292 129c56 0 103 45 103 115c0 67 -45 116 -103 116c-60 0 -105 -46 -105 -116c0 -69 43 -115 105 -115z" />
    <glyph glyph-name="amacron" unicode="&#x101;" horiz-adv-x="596" 
d="M139 573v120h313v-120h-313zM259 -9c-134 0 -231 102 -231 253c0 150 97 254 223 254c52 0 101 -21 135 -61l2 1v51h157v-489h-149v51l-2 1c-32 -41 -76 -61 -135 -61zM292 129c56 0 103 45 103 115c0 67 -45 116 -103 116c-60 0 -105 -46 -105 -116
c0 -69 43 -115 105 -115z" />
    <glyph glyph-name="aogonek" unicode="&#x105;" horiz-adv-x="596" 
d="M388 489h157v-489h-9c-58 -3 -94 -37 -94 -69c0 -25 15 -39 39 -39c21 0 27 3 37 5l7 -77c-21 -8 -51 -11 -76 -11c-74 0 -120 39 -120 94c0 34 20 76 67 104v44l-2 1c-32 -41 -76 -61 -135 -61c-134 0 -231 102 -231 253c0 150 97 254 223 254c52 0 101 -21 135 -61l2 1
v51zM292 129c56 0 103 45 103 115c0 67 -45 116 -103 116c-60 0 -105 -46 -105 -116c0 -69 43 -115 105 -115z" />
    <glyph glyph-name="aring" unicode="&#xe5;" horiz-adv-x="596" 
d="M296 538c-60 0 -110 44 -110 106c0 58 44 105 110 105c61 0 110 -43 110 -105c0 -58 -44 -106 -110 -106zM296 609c20 0 36 17 36 36c0 20 -16 36 -36 36s-35 -17 -35 -36c0 -20 15 -36 35 -36zM259 -9c-134 0 -231 102 -231 253c0 150 97 254 223 254
c52 0 101 -21 135 -61l2 1v51h157v-489h-149v51l-2 1c-32 -41 -76 -61 -135 -61zM292 129c56 0 103 45 103 115c0 67 -45 116 -103 116c-60 0 -105 -46 -105 -116c0 -69 43 -115 105 -115z" />
    <glyph glyph-name="aringacute" unicode="&#x1fb;" horiz-adv-x="596" 
d="M296 538c-60 0 -110 44 -110 106c0 58 44 105 110 105c28 0 54 -9 74 -26l64 51h158l-188 -153c-10 -47 -51 -83 -108 -83zM296 681c-20 0 -35 -17 -35 -36c0 -20 15 -36 35 -36s36 17 36 36c0 20 -16 36 -36 36zM388 438v51h157v-489h-149v51l-2 1
c-32 -41 -76 -61 -135 -61c-134 0 -231 102 -231 253c0 150 97 254 223 254c52 0 101 -21 135 -61zM292 129c56 0 103 45 103 115c0 67 -45 116 -103 116c-60 0 -105 -46 -105 -116c0 -69 43 -115 105 -115z" />
    <glyph glyph-name="atilde" unicode="&#xe3;" horiz-adv-x="596" 
d="M382 549c-38 0 -65 14 -88 27c-18 10 -35 20 -53 20c-24 0 -42 -20 -55 -48l-90 38c21 69 65 123 128 123c43 0 67 -14 88 -26c16 -10 31 -19 50 -19c24 0 43 20 55 46l90 -29c-21 -75 -65 -132 -125 -132zM259 -9c-134 0 -231 102 -231 253c0 150 97 254 223 254
c52 0 101 -21 135 -61l2 1v51h157v-489h-149v51l-2 1c-32 -41 -76 -61 -135 -61zM292 129c56 0 103 45 103 115c0 67 -45 116 -103 116c-60 0 -105 -46 -105 -116c0 -69 43 -115 105 -115z" />
    <glyph glyph-name="ae" unicode="&#xe6;" horiz-adv-x="790" 
d="M766 247c0 -14 -2 -33 -4 -44h-315c13 -52 50 -83 113 -83c41 0 71 18 101 53l91 -95c-41 -52 -111 -87 -200 -87c-70 0 -129 19 -171 64h-2c-38 -38 -104 -64 -174 -64c-127 0 -183 65 -183 151c0 92 59 152 200 152l74 1v4c0 56 -22 73 -66 73c-41 0 -84 -13 -123 -33
l-55 113c36 20 111 46 193 46c55 0 106 -14 139 -58h3c39 37 93 58 154 58c132 0 225 -106 225 -251zM534 373c-45 0 -77 -28 -88 -78h169c-10 49 -39 78 -81 78zM224 105c46 0 72 32 72 61v40l-57 -1c-43 -1 -69 -17 -69 -52c0 -28 19 -48 54 -48z" />
    <glyph glyph-name="aeacute" unicode="&#x1fd;" horiz-adv-x="790" 
d="M569 699l-124 -150h-145l111 149zM766 247c0 -14 -2 -33 -4 -44h-315c13 -52 50 -83 113 -83c41 0 71 18 101 53l91 -95c-41 -52 -111 -87 -200 -87c-70 0 -129 19 -171 64h-2c-38 -38 -104 -64 -174 -64c-127 0 -183 65 -183 151c0 92 59 152 200 152l74 1v4
c0 56 -22 73 -66 73c-41 0 -84 -13 -123 -33l-55 113c36 20 111 46 193 46c55 0 106 -14 139 -58h3c39 37 93 58 154 58c132 0 225 -106 225 -251zM534 373c-45 0 -77 -28 -88 -78h169c-10 49 -39 78 -81 78zM224 105c46 0 72 32 72 61v40l-57 -1c-43 -1 -69 -17 -69 -52
c0 -28 19 -48 54 -48z" />
    <glyph glyph-name="b" unicode="b" horiz-adv-x="604" 
d="M343 -9c-60 0 -107 20 -139 61h-2v-52h-148v736h156v-299h2c35 41 84 61 139 61c127 0 223 -104 223 -254c0 -151 -96 -253 -231 -253zM312 129c60 0 104 46 104 115c0 70 -45 116 -105 116c-63 0 -108 -49 -108 -116c0 -70 47 -115 109 -115z" />
    <glyph glyph-name="c" unicode="c" horiz-adv-x="522" 
d="M286 -9c-148 0 -256 102 -256 252c0 153 104 255 260 255c75 0 157 -24 211 -85l-101 -100c-23 30 -61 46 -97 46c-68 0 -115 -46 -115 -115s48 -114 116 -114c44 0 76 16 104 46l96 -100c-44 -51 -116 -85 -218 -85z" />
    <glyph glyph-name="cacute" unicode="&#x107;" horiz-adv-x="522" 
d="M211 549l111 149l158 1l-124 -150h-145zM286 -9c-148 0 -256 102 -256 252c0 153 104 255 260 255c75 0 157 -24 211 -85l-101 -100c-23 30 -61 46 -97 46c-68 0 -115 -46 -115 -115s48 -114 116 -114c44 0 76 16 104 46l96 -100c-44 -51 -116 -85 -218 -85z" />
    <glyph glyph-name="ccaron" unicode="&#x10d;" horiz-adv-x="522" 
d="M207 547l-97 149h137l44 -72h2l44 72h133l-94 -149h-169zM286 -9c-148 0 -256 102 -256 252c0 153 104 255 260 255c75 0 157 -24 211 -85l-101 -100c-23 30 -61 46 -97 46c-68 0 -115 -46 -115 -115s48 -114 116 -114c44 0 76 16 104 46l96 -100
c-44 -51 -116 -85 -218 -85z" />
    <glyph glyph-name="ccedilla" unicode="&#xe7;" horiz-adv-x="522" 
d="M504 76c-42 -48 -109 -81 -202 -85l-12 -20l1 -2c70 -2 104 -30 104 -80c0 -48 -45 -82 -139 -82c-33 0 -50 3 -65 6v64c13 -4 27 -7 46 -7c20 0 44 6 44 27c0 18 -29 30 -73 30v38l17 32c-116 24 -195 117 -195 246c0 153 104 255 260 255c75 0 157 -24 211 -85
l-101 -100c-23 30 -61 46 -97 46c-68 0 -115 -46 -115 -115s48 -114 116 -114c44 0 76 16 104 46z" />
    <glyph glyph-name="ccircumflex" unicode="&#x109;" horiz-adv-x="522" 
d="M110 548l95 149h168l97 -149h-136l-44 72h-2l-45 -72h-133zM286 -9c-148 0 -256 102 -256 252c0 153 104 255 260 255c75 0 157 -24 211 -85l-101 -100c-23 30 -61 46 -97 46c-68 0 -115 -46 -115 -115s48 -114 116 -114c44 0 76 16 104 46l96 -100
c-44 -51 -116 -85 -218 -85z" />
    <glyph glyph-name="cdotaccent" unicode="&#x10b;" horiz-adv-x="522" 
d="M290 550c-54 0 -93 39 -93 90c0 48 39 88 93 88s94 -39 94 -88c0 -51 -40 -90 -94 -90zM286 -9c-148 0 -256 102 -256 252c0 153 104 255 260 255c75 0 157 -24 211 -85l-101 -100c-23 30 -61 46 -97 46c-68 0 -115 -46 -115 -115s48 -114 116 -114c44 0 76 16 104 46
l96 -100c-44 -51 -116 -85 -218 -85z" />
    <glyph glyph-name="d" unicode="d" horiz-adv-x="603" 
d="M260 -9c-135 0 -231 102 -231 253c0 150 97 254 223 254c55 0 105 -21 140 -61h1v299h157v-736h-149v52h-2c-32 -40 -78 -61 -139 -61zM292 129c61 0 107 45 107 115c0 67 -44 116 -107 116c-59 0 -105 -46 -105 -116c0 -69 44 -115 105 -115z" />
    <glyph glyph-name="eth" unicode="&#xf0;" horiz-adv-x="585" 
d="M408 589c91 -89 148 -196 148 -320c0 -184 -107 -278 -263 -278c-153 0 -263 103 -263 243c0 151 101 246 218 246c34 0 63 -8 89 -21l1 1c-51 69 -125 124 -226 175l59 113c51 -24 100 -52 144 -83l74 100l100 -72zM293 129c61 0 106 48 106 114c0 65 -44 111 -106 111
c-61 0 -105 -48 -105 -111c0 -66 46 -114 105 -114z" />
    <glyph glyph-name="dcaron" unicode="&#x10f;" horiz-adv-x="670" 
d="M602 577l32 217h148l-71 -217h-109zM260 -9c-135 0 -231 102 -231 253c0 150 97 254 223 254c55 0 105 -21 140 -61h1v299h157v-736h-149v52h-2c-32 -40 -78 -61 -139 -61zM292 129c61 0 107 45 107 115c0 67 -44 116 -107 116c-59 0 -105 -46 -105 -116
c0 -69 44 -115 105 -115z" />
    <glyph glyph-name="dcroat" unicode="&#x111;" horiz-adv-x="601" 
d="M606 638v-93h-56v-545h-149v52h-2c-32 -40 -78 -61 -139 -61c-135 0 -231 102 -231 253c0 150 97 254 223 254c55 0 105 -21 140 -61h1v108h-165v93h165v98h157v-98h56zM292 129c61 0 107 45 107 115c0 67 -44 116 -107 116c-59 0 -105 -46 -105 -116
c0 -69 44 -115 105 -115z" />
    <glyph glyph-name="uni1E0D" unicode="&#x1e0d;" horiz-adv-x="603" 
d="M260 -9c-135 0 -231 102 -231 253c0 150 97 254 223 254c55 0 105 -21 140 -61h1v299h157v-736h-149v52h-2c-32 -40 -78 -61 -139 -61zM292 129c61 0 107 45 107 115c0 67 -44 116 -107 116c-59 0 -105 -46 -105 -116c0 -69 44 -115 105 -115zM302 -58
c54 0 93 -39 93 -90c0 -48 -39 -88 -93 -88s-94 39 -94 88c0 51 40 90 94 90z" />
    <glyph glyph-name="uni1E0F" unicode="&#x1e0f;" horiz-adv-x="603" 
d="M260 -9c-135 0 -231 102 -231 253c0 150 97 254 223 254c55 0 105 -21 140 -61h1v299h157v-736h-149v52h-2c-32 -40 -78 -61 -139 -61zM292 129c61 0 107 45 107 115c0 67 -44 116 -107 116c-59 0 -105 -46 -105 -116c0 -69 44 -115 105 -115zM459 -221h-313v120h313
v-120z" />
    <glyph glyph-name="e" unicode="e" horiz-adv-x="550" 
d="M521 250c0 -14 -2 -37 -3 -47h-333c10 -56 57 -85 117 -85c40 1 81 16 114 53l90 -92c-41 -51 -109 -88 -220 -88c-148 0 -256 102 -256 254c0 148 104 253 252 253c138 0 239 -103 239 -248zM280 374c-48 0 -84 -29 -94 -78h183c-10 48 -42 78 -89 78z" />
    <glyph glyph-name="eacute" unicode="&#xe9;" horiz-adv-x="550" 
d="M481 699l-124 -150h-145l111 149zM521 250c0 -14 -2 -37 -3 -47h-333c10 -56 57 -85 117 -85c40 1 81 16 114 53l90 -92c-41 -51 -109 -88 -220 -88c-148 0 -256 102 -256 254c0 148 104 253 252 253c138 0 239 -103 239 -248zM280 374c-48 0 -84 -29 -94 -78h183
c-10 48 -42 78 -89 78z" />
    <glyph glyph-name="ebreve" unicode="&#x115;" horiz-adv-x="550" 
d="M281 539c-93 0 -164 57 -172 157h114c3 -27 25 -49 58 -49c34 0 57 23 59 49h114c-7 -90 -68 -157 -173 -157zM521 250c0 -14 -2 -37 -3 -47h-333c10 -56 57 -85 117 -85c40 1 81 16 114 53l90 -92c-41 -51 -109 -88 -220 -88c-148 0 -256 102 -256 254
c0 148 104 253 252 253c138 0 239 -103 239 -248zM280 374c-48 0 -84 -29 -94 -78h183c-10 48 -42 78 -89 78z" />
    <glyph glyph-name="ecaron" unicode="&#x11b;" horiz-adv-x="550" 
d="M368 547h-169l-97 149h137l44 -72h2l44 72h133zM521 250c0 -14 -2 -37 -3 -47h-333c10 -56 57 -85 117 -85c40 1 81 16 114 53l90 -92c-41 -51 -109 -88 -220 -88c-148 0 -256 102 -256 254c0 148 104 253 252 253c138 0 239 -103 239 -248zM280 374
c-48 0 -84 -29 -94 -78h183c-10 48 -42 78 -89 78z" />
    <glyph glyph-name="ecircumflex" unicode="&#xea;" horiz-adv-x="550" 
d="M280 620l-45 -72h-133l95 149h168l97 -149h-136l-44 72h-2zM521 250c0 -14 -2 -37 -3 -47h-333c10 -56 57 -85 117 -85c40 1 81 16 114 53l90 -92c-41 -51 -109 -88 -220 -88c-148 0 -256 102 -256 254c0 148 104 253 252 253c138 0 239 -103 239 -248zM280 374
c-48 0 -84 -29 -94 -78h183c-10 48 -42 78 -89 78z" />
    <glyph glyph-name="uni1EBF" unicode="&#x1ebf;" horiz-adv-x="550" 
d="M498 802l149 1l-117 -151h-107zM279 620l-45 -72h-133l95 149h168l97 -149h-136l-44 72h-2zM282 498c138 0 239 -103 239 -248c0 -14 -2 -37 -3 -47h-333c10 -56 57 -85 117 -85c40 1 81 16 114 53l90 -92c-41 -51 -109 -88 -220 -88c-148 0 -256 102 -256 254
c0 148 104 253 252 253zM280 374c-48 0 -84 -29 -94 -78h183c-10 48 -42 78 -89 78z" />
    <glyph glyph-name="uni1EC7" unicode="&#x1ec7;" horiz-adv-x="550" 
d="M280 620l-45 -72h-133l95 149h168l97 -149h-136l-44 72h-2zM521 250c0 -14 -2 -37 -3 -47h-333c10 -56 57 -85 117 -85c40 1 81 16 114 53l90 -92c-41 -51 -109 -88 -220 -88c-148 0 -256 102 -256 254c0 148 104 253 252 253c138 0 239 -103 239 -248zM280 374
c-48 0 -84 -29 -94 -78h183c-10 48 -42 78 -89 78zM284 -58c54 0 93 -39 93 -90c0 -48 -39 -88 -93 -88s-94 39 -94 88c0 51 40 90 94 90z" />
    <glyph glyph-name="uni1EC1" unicode="&#x1ec1;" horiz-adv-x="550" 
d="M562 652h-107l-117 151l150 -1zM280 620l-45 -72h-133l95 149h168l97 -149h-136l-44 72h-2zM282 498c138 0 239 -103 239 -248c0 -14 -2 -37 -3 -47h-333c10 -56 57 -85 117 -85c40 1 81 16 114 53l90 -92c-41 -51 -109 -88 -220 -88c-148 0 -256 102 -256 254
c0 148 104 253 252 253zM280 374c-48 0 -84 -29 -94 -78h183c-10 48 -42 78 -89 78z" />
    <glyph glyph-name="uni1EC3" unicode="&#x1ec3;" horiz-adv-x="550" 
d="M503 824c61 0 97 -27 97 -79c0 -42 -36 -80 -82 -100h-83c28 22 51 46 50 69c0 13 -8 21 -27 21c-20 0 -41 -7 -62 -21l-26 59c25 25 76 51 133 51zM280 620l-45 -72h-133l95 149h168l97 -149h-136l-44 72h-2zM282 498c138 0 239 -103 239 -248c0 -14 -2 -37 -3 -47h-333
c10 -56 57 -85 117 -85c40 1 81 16 114 53l90 -92c-41 -51 -109 -88 -220 -88c-148 0 -256 102 -256 254c0 148 104 253 252 253zM280 374c-48 0 -84 -29 -94 -78h183c-10 48 -42 78 -89 78z" />
    <glyph glyph-name="uni1EC5" unicode="&#x1ec5;" horiz-adv-x="550" 
d="M229 770c-20 0 -36 -18 -48 -45l-91 36c22 57 61 110 124 110c32 0 54 -12 79 -25c23 -13 34 -18 44 -18c21 0 36 16 51 45l89 -28c-20 -59 -61 -118 -123 -118c-27 0 -51 11 -73 24c-21 12 -35 20 -52 19zM197 697h168l97 -149h-136l-44 72h-2l-45 -72h-133zM521 250
c0 -14 -2 -37 -3 -47h-333c10 -56 57 -85 117 -85c40 1 81 16 114 53l90 -92c-41 -51 -109 -88 -220 -88c-148 0 -256 102 -256 254c0 148 104 253 252 253c138 0 239 -103 239 -248zM280 374c-48 0 -84 -29 -94 -78h183c-10 48 -42 78 -89 78z" />
    <glyph glyph-name="edieresis" unicode="&#xeb;" horiz-adv-x="550" 
d="M169 551c-54 0 -93 39 -93 89c0 48 39 87 93 87s94 -38 94 -87c0 -51 -40 -89 -94 -89zM393 551c-54 0 -93 39 -93 89c0 48 39 87 93 87c53 0 93 -38 93 -87c0 -51 -40 -89 -93 -89zM521 250c0 -14 -2 -37 -3 -47h-333c10 -56 57 -85 117 -85c40 1 81 16 114 53l90 -92
c-41 -51 -109 -88 -220 -88c-148 0 -256 102 -256 254c0 148 104 253 252 253c138 0 239 -103 239 -248zM280 374c-48 0 -84 -29 -94 -78h183c-10 48 -42 78 -89 78z" />
    <glyph glyph-name="edotaccent" unicode="&#x117;" horiz-adv-x="550" 
d="M282 550c-54 0 -93 39 -93 90c0 48 39 88 93 88s94 -39 94 -88c0 -51 -40 -90 -94 -90zM521 250c0 -14 -2 -37 -3 -47h-333c10 -56 57 -85 117 -85c40 1 81 16 114 53l90 -92c-41 -51 -109 -88 -220 -88c-148 0 -256 102 -256 254c0 148 104 253 252 253
c138 0 239 -103 239 -248zM280 374c-48 0 -84 -29 -94 -78h183c-10 48 -42 78 -89 78z" />
    <glyph glyph-name="uni1EB9" unicode="&#x1eb9;" horiz-adv-x="550" 
d="M521 250c0 -14 -2 -37 -3 -47h-333c10 -56 57 -85 117 -85c40 1 81 16 114 53l90 -92c-41 -51 -109 -88 -220 -88c-148 0 -256 102 -256 254c0 148 104 253 252 253c138 0 239 -103 239 -248zM280 374c-48 0 -84 -29 -94 -78h183c-10 48 -42 78 -89 78zM284 -58
c54 0 93 -39 93 -90c0 -48 -39 -88 -93 -88s-94 39 -94 88c0 51 40 90 94 90z" />
    <glyph glyph-name="egrave" unicode="&#xe8;" horiz-adv-x="550" 
d="M374 548h-142l-123 149l159 -1zM521 250c0 -14 -2 -37 -3 -47h-333c10 -56 57 -85 117 -85c40 1 81 16 114 53l90 -92c-41 -51 -109 -88 -220 -88c-148 0 -256 102 -256 254c0 148 104 253 252 253c138 0 239 -103 239 -248zM280 374c-48 0 -84 -29 -94 -78h183
c-10 48 -42 78 -89 78z" />
    <glyph glyph-name="uni1EBB" unicode="&#x1ebb;" horiz-adv-x="550" 
d="M266 648c-22 0 -45 -8 -68 -23l-28 65c27 27 83 55 145 55c66 0 106 -29 106 -86c0 -46 -40 -87 -90 -109h-91c31 24 56 50 55 75c0 14 -9 23 -29 23zM521 250c0 -14 -2 -37 -3 -47h-333c10 -56 57 -85 117 -85c40 1 81 16 114 53l90 -92c-41 -51 -109 -88 -220 -88
c-148 0 -256 102 -256 254c0 148 104 253 252 253c138 0 239 -103 239 -248zM280 374c-48 0 -84 -29 -94 -78h183c-10 48 -42 78 -89 78z" />
    <glyph glyph-name="emacron" unicode="&#x113;" horiz-adv-x="550" 
d="M438 693v-120h-313v120h313zM521 250c0 -14 -2 -37 -3 -47h-333c10 -56 57 -85 117 -85c40 1 81 16 114 53l90 -92c-41 -51 -109 -88 -220 -88c-148 0 -256 102 -256 254c0 148 104 253 252 253c138 0 239 -103 239 -248zM280 374c-48 0 -84 -29 -94 -78h183
c-10 48 -42 78 -89 78z" />
    <glyph glyph-name="eogonek" unicode="&#x119;" horiz-adv-x="550" 
d="M521 250c0 -14 -2 -37 -3 -47h-333c10 -56 57 -85 117 -85c40 1 81 16 114 53l90 -92c-31 -38 -76 -68 -144 -81c-38 -16 -65 -38 -65 -65c0 -24 15 -38 38 -38c24 0 27 3 38 5l6 -78c-21 -9 -50 -12 -75 -12c-78 0 -123 40 -123 95c0 28 14 62 46 89v3
c-117 23 -197 117 -197 248c0 148 104 253 252 253c138 0 239 -103 239 -248zM280 374c-48 0 -84 -29 -94 -78h183c-10 48 -42 78 -89 78z" />
    <glyph glyph-name="uni1EBD" unicode="&#x1ebd;" horiz-adv-x="550" 
d="M227 596c-24 0 -42 -20 -55 -48l-90 38c21 69 65 123 128 123c43 0 67 -14 88 -26c16 -10 31 -19 50 -19c24 0 43 20 55 46l90 -29c-21 -75 -65 -132 -125 -132c-38 0 -65 14 -88 27c-18 10 -35 20 -53 20zM521 250c0 -14 -2 -37 -3 -47h-333c10 -56 57 -85 117 -85
c40 1 81 16 114 53l90 -92c-41 -51 -109 -88 -220 -88c-148 0 -256 102 -256 254c0 148 104 253 252 253c138 0 239 -103 239 -248zM280 374c-48 0 -84 -29 -94 -78h183c-10 48 -42 78 -89 78z" />
    <glyph glyph-name="uni0259" unicode="&#x259;" horiz-adv-x="549" 
d="M254 498c152 0 265 -89 265 -253c0 -154 -95 -254 -248 -254c-160 0 -243 104 -243 248c0 14 2 37 5 48h334c-11 56 -62 83 -121 83c-40 0 -84 -11 -120 -35l-63 113c55 34 138 50 191 50zM273 115c53 0 86 28 94 78h-191c7 -43 40 -78 97 -78z" />
    <glyph glyph-name="f" unicode="f" horiz-adv-x="347" 
d="M71 0v363h-47v126h47v77c0 121 63 180 161 180c65 0 115 -26 132 -38l-29 -113c-21 11 -47 18 -61 18c-28 0 -46 -14 -46 -53v-71h93v-126h-93v-363h-157z" />
    <glyph glyph-name="g" unicode="g" horiz-adv-x="594" 
d="M280 -207c-79 0 -141 14 -201 47l35 127c41 -24 95 -43 149 -43c85 0 128 42 128 93v45l-2 1c-33 -34 -78 -54 -135 -54c-132 0 -226 102 -226 241c0 145 94 248 217 248c53 0 103 -19 140 -57h2v48h157v-425c0 -159 -66 -271 -264 -271zM291 148c59 0 103 44 103 106
s-45 105 -103 105c-60 0 -104 -43 -104 -106s45 -105 104 -105z" />
    <glyph glyph-name="gbreve" unicode="&#x11f;" horiz-adv-x="594" 
d="M295 539c-93 0 -164 57 -172 157h114c3 -27 25 -49 58 -49c34 0 57 23 59 49h114c-7 -90 -68 -157 -173 -157zM280 -207c-79 0 -141 14 -201 47l35 127c41 -24 95 -43 149 -43c85 0 128 42 128 93v45l-2 1c-33 -34 -78 -54 -135 -54c-132 0 -226 102 -226 241
c0 145 94 248 217 248c53 0 103 -19 140 -57h2v48h157v-425c0 -159 -66 -271 -264 -271zM291 148c59 0 103 44 103 106s-45 105 -103 105c-60 0 -104 -43 -104 -106s45 -105 104 -105z" />
    <glyph glyph-name="gcaron" unicode="&#x1e7;" horiz-adv-x="594" 
d="M213 547l-97 149h137l44 -72h2l44 72h133l-94 -149h-169zM280 -207c-79 0 -141 14 -201 47l35 127c41 -24 95 -43 149 -43c85 0 128 42 128 93v45l-2 1c-33 -34 -78 -54 -135 -54c-132 0 -226 102 -226 241c0 145 94 248 217 248c53 0 103 -19 140 -57h2v48h157v-425
c0 -159 -66 -271 -264 -271zM291 148c59 0 103 44 103 106s-45 105 -103 105c-60 0 -104 -43 -104 -106s45 -105 104 -105z" />
    <glyph glyph-name="gcircumflex" unicode="&#x11d;" horiz-adv-x="594" 
d="M116 548l95 149h168l97 -149h-136l-44 72h-2l-45 -72h-133zM280 -207c-79 0 -141 14 -201 47l35 127c41 -24 95 -43 149 -43c85 0 128 42 128 93v45l-2 1c-33 -34 -78 -54 -135 -54c-132 0 -226 102 -226 241c0 145 94 248 217 248c53 0 103 -19 140 -57h2v48h157v-425
c0 -159 -66 -271 -264 -271zM291 148c59 0 103 44 103 106s-45 105 -103 105c-60 0 -104 -43 -104 -106s45 -105 104 -105z" />
    <glyph glyph-name="gcommaaccent" unicode="&#x123;" horiz-adv-x="594" 
d="M381 734l28 -85c-38 -8 -54 -20 -54 -47c0 -11 2 -21 7 -36h-128c-3 14 -5 26 -5 42c0 81 55 124 152 126zM280 -207c-79 0 -141 14 -201 47l35 127c41 -24 95 -43 149 -43c85 0 128 42 128 93v45l-2 1c-33 -34 -78 -54 -135 -54c-132 0 -226 102 -226 241
c0 145 94 248 217 248c53 0 103 -19 140 -57h2v48h157v-425c0 -159 -66 -271 -264 -271zM291 148c59 0 103 44 103 106s-45 105 -103 105c-60 0 -104 -43 -104 -106s45 -105 104 -105z" />
    <glyph glyph-name="gdotaccent" unicode="&#x121;" horiz-adv-x="594" 
d="M296 550c-54 0 -93 39 -93 90c0 48 39 88 93 88s94 -39 94 -88c0 -51 -40 -90 -94 -90zM280 -207c-79 0 -141 14 -201 47l35 127c41 -24 95 -43 149 -43c85 0 128 42 128 93v45l-2 1c-33 -34 -78 -54 -135 -54c-132 0 -226 102 -226 241c0 145 94 248 217 248
c53 0 103 -19 140 -57h2v48h157v-425c0 -159 -66 -271 -264 -271zM291 148c59 0 103 44 103 106s-45 105 -103 105c-60 0 -104 -43 -104 -106s45 -105 104 -105z" />
    <glyph glyph-name="uni1E21" unicode="&#x1e21;" horiz-adv-x="594" 
d="M139 573v120h313v-120h-313zM280 -207c-79 0 -141 14 -201 47l35 127c41 -24 95 -43 149 -43c85 0 128 42 128 93v45l-2 1c-33 -34 -78 -54 -135 -54c-132 0 -226 102 -226 241c0 145 94 248 217 248c53 0 103 -19 140 -57h2v48h157v-425c0 -159 -66 -271 -264 -271z
M291 148c59 0 103 44 103 106s-45 105 -103 105c-60 0 -104 -43 -104 -106s45 -105 104 -105z" />
    <glyph glyph-name="h" unicode="h" horiz-adv-x="587" 
d="M54 0v736h156v-302l2 -1c38 43 91 65 151 65c101 0 176 -49 176 -203v-295h-156v256c0 79 -27 103 -82 103s-91 -36 -91 -112v-247h-156z" />
    <glyph glyph-name="hbar" unicode="&#x127;" horiz-adv-x="587" 
d="M363 498c101 0 176 -49 176 -203v-295h-156v256c0 79 -27 103 -82 103s-91 -36 -91 -112v-247h-156v545h-54v93h54v98h156v-98h166v-93h-166v-111l2 -1c38 43 91 65 151 65z" />
    <glyph glyph-name="uni1E2B" unicode="&#x1e2b;" horiz-adv-x="587" 
d="M54 0v736h156v-302l2 -1c38 43 91 65 151 65c101 0 176 -49 176 -203v-295h-156v256c0 79 -27 103 -82 103s-91 -36 -91 -112v-247h-156zM292 -234c-105 0 -166 67 -173 157h114c2 -26 25 -49 59 -49c33 0 55 22 58 49h114c-8 -100 -79 -157 -172 -157z" />
    <glyph glyph-name="hcircumflex" unicode="&#x125;" horiz-adv-x="587" 
d="M79 773l95 140h168l98 -140h-136l-45 65h-2l-45 -65h-133zM54 0v736h156v-302l2 -1c38 43 91 65 151 65c101 0 176 -49 176 -203v-295h-156v256c0 79 -27 103 -82 103s-91 -36 -91 -112v-247h-156z" />
    <glyph glyph-name="uni1E25" unicode="&#x1e25;" horiz-adv-x="587" 
d="M54 0v736h156v-302l2 -1c38 43 91 65 151 65c101 0 176 -49 176 -203v-295h-156v256c0 79 -27 103 -82 103s-91 -36 -91 -112v-247h-156zM291 -58c54 0 93 -39 93 -90c0 -48 -39 -88 -93 -88s-94 39 -94 88c0 51 40 90 94 90z" />
    <glyph glyph-name="i" unicode="i" horiz-adv-x="274" 
d="M137 550c-54 0 -93 39 -93 90c0 48 39 88 93 88s94 -39 94 -88c0 -51 -40 -90 -94 -90zM59 0v489h156v-489h-156z" />
    <glyph glyph-name="dotlessi" unicode="&#x131;" horiz-adv-x="274" 
d="M59 0v489h156v-489h-156z" />
    <glyph glyph-name="iacute" unicode="&#xed;" horiz-adv-x="274" 
d="M68 549l111 149l158 1l-124 -150h-145zM59 0v489h156v-489h-156z" />
    <glyph glyph-name="ibreve" unicode="&#x12d;" horiz-adv-x="274" 
d="M137 550c-80 0 -143 55 -151 156h110c3 -32 15 -57 41 -57c23 0 38 20 40 57h112c-8 -87 -57 -156 -152 -156zM59 0v489h156v-489h-156z" />
    <glyph glyph-name="uni01D0" unicode="&#x1d0;" horiz-adv-x="274" 
d="M54 547l-97 149h137l44 -72h2l44 72h133l-94 -149h-169zM59 0v489h156v-489h-156z" />
    <glyph glyph-name="icircumflex" unicode="&#xee;" horiz-adv-x="274" 
d="M-43 548l95 149h168l97 -149h-136l-44 72h-2l-45 -72h-133zM59 0v489h156v-489h-156z" />
    <glyph glyph-name="idieresis" unicode="&#xef;" horiz-adv-x="274" 
d="M36 550c-51 0 -92 41 -92 90c0 48 41 88 92 88c48 0 89 -40 89 -88c0 -49 -41 -90 -89 -90zM238 551c-49 0 -90 40 -90 89c0 47 41 88 90 88s90 -41 90 -88c0 -49 -41 -89 -90 -89zM59 0v489h156v-489h-156z" />
    <glyph glyph-name="i.loclTRK" horiz-adv-x="274" 
d="M137 550c-54 0 -93 39 -93 90c0 48 39 88 93 88s94 -39 94 -88c0 -51 -40 -90 -94 -90zM59 0v489h156v-489h-156z" />
    <glyph glyph-name="uni1ECB" unicode="&#x1ecb;" horiz-adv-x="274" 
d="M137 550c-54 0 -93 39 -93 90c0 48 39 88 93 88s94 -39 94 -88c0 -51 -40 -90 -94 -90zM59 0v489h156v-489h-156zM137 -58c54 0 93 -39 93 -90c0 -48 -39 -88 -93 -88s-94 39 -94 88c0 51 40 90 94 90z" />
    <glyph glyph-name="igrave" unicode="&#xec;" horiz-adv-x="274" 
d="M68 557l-83 150l157 -1l70 -149h-144zM59 0v489h156v-489h-156z" />
    <glyph glyph-name="uni1EC9" unicode="&#x1ec9;" horiz-adv-x="274" 
d="M95 550c31 24 56 50 55 75c0 14 -9 23 -29 23c-22 0 -45 -8 -68 -23l-28 65c27 27 83 55 145 55c66 0 106 -29 106 -86c0 -46 -40 -87 -90 -109h-91zM59 0v489h156v-489h-156z" />
    <glyph glyph-name="ij" unicode="&#x133;" horiz-adv-x="535" 
d="M137 550c-54 0 -93 39 -93 90c0 48 39 88 93 88s94 -39 94 -88c0 -51 -40 -90 -94 -90zM406 550c-54 0 -93 39 -93 90c0 48 39 88 93 88s94 -39 94 -88c0 -51 -40 -90 -94 -90zM59 0v489h156v-489h-156zM329 -207c-55 0 -86 9 -111 18l25 124c14 -6 31 -9 45 -9
c31 0 39 22 39 63v500h156v-513c0 -122 -56 -183 -154 -183z" />
    <glyph glyph-name="imacron" unicode="&#x12b;" horiz-adv-x="274" 
d="M-20 573v120h313v-120h-313zM59 0v489h156v-489h-156z" />
    <glyph glyph-name="iogonek" unicode="&#x12f;" horiz-adv-x="274" 
d="M137 550c-54 0 -93 39 -93 90c0 48 39 88 93 88s94 -39 94 -88c0 -51 -40 -90 -94 -90zM59 2v487h156v-489h-8c-58 -3 -94 -37 -94 -69c0 -25 15 -39 39 -39c21 0 27 3 37 5l7 -77c-21 -8 -51 -11 -76 -11c-74 0 -120 39 -120 94c0 32 18 71 59 99z" />
    <glyph glyph-name="itilde" unicode="&#x129;" horiz-adv-x="274" 
d="M36 542l-91 38c22 59 61 113 124 113c32 0 54 -12 79 -26c23 -13 34 -18 44 -18c21 0 36 16 51 46l89 -29c-20 -61 -61 -122 -123 -122c-27 0 -51 12 -73 25c-21 13 -35 21 -52 20c-20 0 -36 -19 -48 -47zM59 0v489h156v-489h-156z" />
    <glyph glyph-name="j" unicode="j" horiz-adv-x="261" 
d="M132 550c-54 0 -93 39 -93 90c0 48 39 88 93 88s94 -39 94 -88c0 -51 -40 -90 -94 -90zM55 -207c-55 0 -86 9 -111 18l25 124c14 -6 31 -9 45 -9c31 0 39 22 39 63v500h156v-513c0 -122 -56 -183 -154 -183z" />
    <glyph glyph-name="uni0237" unicode="&#x237;" horiz-adv-x="261" 
d="M55 -207c-55 0 -86 9 -111 18l25 124c14 -6 31 -9 45 -9c31 0 39 22 39 63v500h156v-513c0 -122 -56 -183 -154 -183z" />
    <glyph glyph-name="uni006A0301" horiz-adv-x="261" 
d="M62 552l111 149l158 1l-124 -150h-145zM55 -207c-55 0 -86 9 -111 18l25 124c14 -6 31 -9 45 -9c31 0 39 22 39 63v500h156v-513c0 -122 -56 -183 -154 -183z" />
    <glyph glyph-name="jcircumflex" unicode="&#x135;" horiz-adv-x="261" 
d="M-48 548l95 149h168l97 -149h-136l-44 72h-2l-45 -72h-133zM55 -207c-55 0 -86 9 -111 18l25 124c14 -6 31 -9 45 -9c31 0 39 22 39 63v500h156v-513c0 -122 -56 -183 -154 -183z" />
    <glyph glyph-name="k" unicode="k" horiz-adv-x="538" 
d="M54 0v736h154v-423h2l143 176h181l-165 -195l170 -294h-173l-109 192l-49 -54v-138h-154z" />
    <glyph glyph-name="kcommaaccent" unicode="&#x137;" horiz-adv-x="538" 
d="M54 0v736h154v-423h2l143 176h181l-165 -195l170 -294h-173l-109 192l-49 -54v-138h-154zM192 -221l-28 85c38 8 54 20 54 47c0 11 -2 21 -7 36h128c3 -14 5 -26 5 -42c0 -81 -55 -124 -152 -126z" />
    <glyph glyph-name="kgreenlandic" unicode="&#x138;" horiz-adv-x="549" 
d="M54 0v489h154v-180h2l149 180h183l-175 -199l183 -290h-177l-117 190l-48 -52v-138h-154z" />
    <glyph glyph-name="l" unicode="l" horiz-adv-x="274" 
d="M59 0v736h156v-736h-156z" />
    <glyph glyph-name="lacute" unicode="&#x13a;" horiz-adv-x="274" 
d="M63 774l108 140h159l-126 -140h-141zM59 0v736h156v-736h-156z" />
    <glyph glyph-name="lcaron" unicode="&#x13e;" horiz-adv-x="336" 
d="M267 577l32 217h148l-71 -217h-109zM59 0v736h156v-736h-156z" />
    <glyph glyph-name="lcommaaccent" unicode="&#x13c;" horiz-adv-x="274" 
d="M59 0v736h156v-736h-156zM53 -221l-28 85c38 8 54 20 54 47c0 11 -2 21 -7 36h128c3 -14 5 -26 5 -42c0 -81 -55 -124 -152 -126z" />
    <glyph glyph-name="ldot" unicode="&#x140;" horiz-adv-x="483" 
d="M59 0v736h156v-736h-156zM378 178c-50 0 -90 39 -90 88s40 89 90 89c49 0 90 -40 90 -89s-41 -88 -90 -88z" />
    <glyph glyph-name="uni1E37" unicode="&#x1e37;" horiz-adv-x="274" 
d="M59 0v736h156v-736h-156zM138 -58c54 0 93 -39 93 -90c0 -48 -39 -88 -93 -88s-94 39 -94 88c0 51 40 90 94 90z" />
    <glyph glyph-name="uni1E39" unicode="&#x1e39;" horiz-adv-x="274" 
d="M-17 790v114h313v-114h-313zM59 0v736h156v-736h-156zM138 -58c54 0 93 -39 93 -90c0 -48 -39 -88 -93 -88s-94 39 -94 88c0 51 40 90 94 90z" />
    <glyph glyph-name="uni1E3B" unicode="&#x1e3b;" horiz-adv-x="274" 
d="M59 0v736h156v-736h-156zM295 -221h-313v120h313v-120z" />
    <glyph glyph-name="lslash" unicode="&#x142;" horiz-adv-x="322" 
d="M309 445v-106l-68 -30v-309h-156v241l-71 -31v105l71 31v390h156v-321z" />
    <glyph glyph-name="m" unicode="m" horiz-adv-x="880" 
d="M54 0v489h156v-58h1c38 44 87 67 138 67c62 0 113 -22 142 -73h2c39 49 97 73 165 73c103 0 173 -59 173 -213v-285h-156v249c0 64 -17 110 -71 110c-45 0 -82 -37 -82 -114v-245h-156v249c0 64 -19 110 -71 110c-49 0 -85 -37 -85 -114v-245h-156z" />
    <glyph glyph-name="uni1E43" unicode="&#x1e43;" horiz-adv-x="880" 
d="M54 0v489h156v-58h1c38 44 87 67 138 67c62 0 113 -22 142 -73h2c39 49 97 73 165 73c103 0 173 -59 173 -213v-285h-156v249c0 64 -17 110 -71 110c-45 0 -82 -37 -82 -114v-245h-156v249c0 64 -19 110 -71 110c-49 0 -85 -37 -85 -114v-245h-156zM446 -58
c54 0 93 -39 93 -90c0 -48 -39 -88 -93 -88s-94 39 -94 88c0 51 40 90 94 90z" />
    <glyph glyph-name="n" unicode="n" horiz-adv-x="582" 
d="M54 0v489h156v-57h2c38 44 90 66 147 66c101 0 175 -50 175 -205v-293h-156v255c0 81 -27 104 -78 104c-54 0 -90 -37 -90 -113v-246h-156z" />
    <glyph glyph-name="nacute" unicode="&#x144;" horiz-adv-x="582" 
d="M205 549l111 149l158 1l-124 -150h-145zM54 0v489h156v-57h2c38 44 90 66 147 66c101 0 175 -50 175 -205v-293h-156v255c0 81 -27 104 -78 104c-54 0 -90 -37 -90 -113v-246h-156z" />
    <glyph glyph-name="napostrophe" unicode="&#x149;" horiz-adv-x="710" 
d="M-27 483l33 227h147l-71 -227h-109zM182 0v489h156v-57h2c38 44 90 66 147 66c101 0 175 -50 175 -205v-293h-156v255c0 81 -27 104 -78 104c-54 0 -90 -37 -90 -113v-246h-156z" />
    <glyph glyph-name="ncaron" unicode="&#x148;" horiz-adv-x="582" 
d="M217 547l-97 149h137l44 -72h2l44 72h133l-94 -149h-169zM54 0v489h156v-57h2c38 44 90 66 147 66c101 0 175 -50 175 -205v-293h-156v255c0 81 -27 104 -78 104c-54 0 -90 -37 -90 -113v-246h-156z" />
    <glyph glyph-name="ncommaaccent" unicode="&#x146;" horiz-adv-x="582" 
d="M54 0v489h156v-57h2c38 44 90 66 147 66c101 0 175 -50 175 -205v-293h-156v255c0 81 -27 104 -78 104c-54 0 -90 -37 -90 -113v-246h-156zM219 -221l-28 85c38 8 54 20 54 47c0 11 -2 21 -7 36h128c3 -14 5 -26 5 -42c0 -81 -55 -124 -152 -126z" />
    <glyph glyph-name="uni1E45" unicode="&#x1e45;" horiz-adv-x="582" 
d="M300 550c-54 0 -93 39 -93 90c0 48 39 88 93 88s94 -39 94 -88c0 -51 -40 -90 -94 -90zM54 0v489h156v-57h2c38 44 90 66 147 66c101 0 175 -50 175 -205v-293h-156v255c0 81 -27 104 -78 104c-54 0 -90 -37 -90 -113v-246h-156z" />
    <glyph glyph-name="uni1E47" unicode="&#x1e47;" horiz-adv-x="582" 
d="M54 0v489h156v-57h2c38 44 90 66 147 66c101 0 175 -50 175 -205v-293h-156v255c0 81 -27 104 -78 104c-54 0 -90 -37 -90 -113v-246h-156zM304 -58c54 0 93 -39 93 -90c0 -48 -39 -88 -93 -88s-94 39 -94 88c0 51 40 90 94 90z" />
    <glyph glyph-name="eng" unicode="&#x14b;" horiz-adv-x="578" 
d="M343 -207c-30 0 -62 6 -85 15l12 114c17 -5 31 -7 42 -7c45 0 62 25 62 78v262c0 81 -26 104 -78 104s-86 -37 -86 -113v-246h-156v489h156v-57h2c36 44 87 66 143 66c102 0 176 -50 176 -205v-296c0 -142 -57 -204 -188 -204z" />
    <glyph glyph-name="uni0272" unicode="&#x272;" horiz-adv-x="582" 
d="M359 498c101 0 175 -50 175 -205v-293h-156v255c0 81 -27 104 -78 104c-49 0 -83 -30 -89 -92v-273c0 -139 -54 -201 -172 -201c-34 0 -61 6 -82 15l11 114c13 -4 25 -6 35 -6c35 0 51 24 51 73v500h156v-1h1v-56h1c38 44 90 66 147 66z" />
    <glyph glyph-name="uni1E49" unicode="&#x1e49;" horiz-adv-x="582" 
d="M54 0v489h156v-57h2c38 44 90 66 147 66c101 0 175 -50 175 -205v-293h-156v255c0 81 -27 104 -78 104c-54 0 -90 -37 -90 -113v-246h-156zM461 -221h-313v120h313v-120z" />
    <glyph glyph-name="ntilde" unicode="&#xf1;" horiz-adv-x="582" 
d="M386 549c-38 0 -65 14 -88 27c-18 10 -35 20 -53 20c-24 0 -42 -20 -55 -48l-90 38c21 69 65 123 128 123c43 0 67 -14 88 -26c16 -10 31 -19 50 -19c24 0 43 20 55 46l90 -29c-21 -75 -65 -132 -125 -132zM54 0v489h156v-57h2c38 44 90 66 147 66
c101 0 175 -50 175 -205v-293h-156v255c0 81 -27 104 -78 104c-54 0 -90 -37 -90 -113v-246h-156z" />
    <glyph glyph-name="o" unicode="o" horiz-adv-x="589" 
d="M295 -9c-158 0 -265 105 -265 253c0 149 107 254 265 254c154 0 264 -103 264 -254c0 -150 -110 -253 -264 -253zM295 129c59 0 106 48 106 115c0 68 -45 115 -106 115c-63 0 -107 -48 -107 -115c0 -65 45 -115 107 -115z" />
    <glyph glyph-name="oacute" unicode="&#xf3;" horiz-adv-x="589" 
d="M223 549l111 149l158 1l-124 -150h-145zM295 -9c-158 0 -265 105 -265 253c0 149 107 254 265 254c154 0 264 -103 264 -254c0 -150 -110 -253 -264 -253zM295 129c59 0 106 48 106 115c0 68 -45 115 -106 115c-63 0 -107 -48 -107 -115c0 -65 45 -115 107 -115z" />
    <glyph glyph-name="obreve" unicode="&#x14f;" horiz-adv-x="589" 
d="M294 539c-93 0 -164 57 -172 157h114c3 -27 25 -49 58 -49c34 0 57 23 59 49h114c-7 -90 -68 -157 -173 -157zM295 -9c-158 0 -265 105 -265 253c0 149 107 254 265 254c154 0 264 -103 264 -254c0 -150 -110 -253 -264 -253zM295 129c59 0 106 48 106 115
c0 68 -45 115 -106 115c-63 0 -107 -48 -107 -115c0 -65 45 -115 107 -115z" />
    <glyph glyph-name="uni01D2" unicode="&#x1d2;" horiz-adv-x="589" 
d="M212 547l-97 149h137l44 -72h2l44 72h133l-94 -149h-169zM295 -9c-158 0 -265 105 -265 253c0 149 107 254 265 254c154 0 264 -103 264 -254c0 -150 -110 -253 -264 -253zM295 129c59 0 106 48 106 115c0 68 -45 115 -106 115c-63 0 -107 -48 -107 -115
c0 -65 45 -115 107 -115z" />
    <glyph glyph-name="ocircumflex" unicode="&#xf4;" horiz-adv-x="589" 
d="M115 548l95 149h168l97 -149h-136l-44 72h-2l-45 -72h-133zM295 -9c-158 0 -265 105 -265 253c0 149 107 254 265 254c154 0 264 -103 264 -254c0 -150 -110 -253 -264 -253zM295 129c59 0 106 48 106 115c0 68 -45 115 -106 115c-63 0 -107 -48 -107 -115
c0 -65 45 -115 107 -115z" />
    <glyph glyph-name="uni1ED1" unicode="&#x1ed1;" horiz-adv-x="589" 
d="M436 652l75 150l149 1l-117 -151h-107zM114 548l95 149h168l97 -149h-136l-44 72h-2l-45 -72h-133zM295 -9c-158 0 -265 105 -265 253c0 149 107 254 265 254c154 0 264 -103 264 -254c0 -150 -110 -253 -264 -253zM295 129c59 0 106 48 106 115c0 68 -45 115 -106 115
c-63 0 -107 -48 -107 -115c0 -65 45 -115 107 -115z" />
    <glyph glyph-name="uni1ED9" unicode="&#x1ed9;" horiz-adv-x="589" 
d="M115 548l95 149h168l97 -149h-136l-44 72h-2l-45 -72h-133zM295 -9c-158 0 -265 105 -265 253c0 149 107 254 265 254c154 0 264 -103 264 -254c0 -150 -110 -253 -264 -253zM295 129c59 0 106 48 106 115c0 68 -45 115 -106 115c-63 0 -107 -48 -107 -115
c0 -65 45 -115 107 -115zM295 -58c54 0 93 -39 93 -90c0 -48 -39 -88 -93 -88s-94 39 -94 88c0 51 40 90 94 90z" />
    <glyph glyph-name="uni1ED3" unicode="&#x1ed3;" horiz-adv-x="589" 
d="M468 652l-117 151l150 -1l74 -150h-107zM115 548l95 149h168l97 -149h-136l-44 72h-2l-45 -72h-133zM295 -9c-158 0 -265 105 -265 253c0 149 107 254 265 254c154 0 264 -103 264 -254c0 -150 -110 -253 -264 -253zM295 129c59 0 106 48 106 115c0 68 -45 115 -106 115
c-63 0 -107 -48 -107 -115c0 -65 45 -115 107 -115z" />
    <glyph glyph-name="uni1ED5" unicode="&#x1ed5;" horiz-adv-x="589" 
d="M448 645c28 22 51 46 50 69c0 13 -8 21 -27 21c-20 0 -41 -7 -62 -21l-26 59c25 25 76 51 133 51c61 0 97 -27 97 -79c0 -42 -36 -80 -82 -100h-83zM115 548l95 149h168l97 -149h-136l-44 72h-2l-45 -72h-133zM295 -9c-158 0 -265 105 -265 253c0 149 107 254 265 254
c154 0 264 -103 264 -254c0 -150 -110 -253 -264 -253zM295 129c59 0 106 48 106 115c0 68 -45 115 -106 115c-63 0 -107 -48 -107 -115c0 -65 45 -115 107 -115z" />
    <glyph glyph-name="uni1ED7" unicode="&#x1ed7;" horiz-adv-x="589" 
d="M194 725l-91 36c22 57 61 110 124 110c32 0 54 -12 79 -25c23 -13 34 -18 44 -18c21 0 36 16 51 45l89 -28c-20 -59 -61 -118 -123 -118c-27 0 -51 11 -73 24c-21 12 -35 20 -52 19c-20 0 -36 -18 -48 -45zM115 548l95 149h168l97 -149h-136l-44 72h-2l-45 -72h-133z
M295 -9c-158 0 -265 105 -265 253c0 149 107 254 265 254c154 0 264 -103 264 -254c0 -150 -110 -253 -264 -253zM295 129c59 0 106 48 106 115c0 68 -45 115 -106 115c-63 0 -107 -48 -107 -115c0 -65 45 -115 107 -115z" />
    <glyph glyph-name="odieresis" unicode="&#xf6;" horiz-adv-x="589" 
d="M182 551c-54 0 -93 39 -93 89c0 48 39 87 93 87s94 -38 94 -87c0 -51 -40 -89 -94 -89zM406 551c-54 0 -93 39 -93 89c0 48 39 87 93 87c53 0 93 -38 93 -87c0 -51 -40 -89 -93 -89zM295 -9c-158 0 -265 105 -265 253c0 149 107 254 265 254c154 0 264 -103 264 -254
c0 -150 -110 -253 -264 -253zM295 129c59 0 106 48 106 115c0 68 -45 115 -106 115c-63 0 -107 -48 -107 -115c0 -65 45 -115 107 -115z" />
    <glyph glyph-name="uni1ECD" unicode="&#x1ecd;" horiz-adv-x="589" 
d="M295 -9c-158 0 -265 105 -265 253c0 149 107 254 265 254c154 0 264 -103 264 -254c0 -150 -110 -253 -264 -253zM295 129c59 0 106 48 106 115c0 68 -45 115 -106 115c-63 0 -107 -48 -107 -115c0 -65 45 -115 107 -115zM295 -58c54 0 93 -39 93 -90
c0 -48 -39 -88 -93 -88s-94 39 -94 88c0 51 40 90 94 90z" />
    <glyph glyph-name="ograve" unicode="&#xf2;" horiz-adv-x="589" 
d="M241 548l-123 149l159 -1l106 -148h-142zM295 -9c-158 0 -265 105 -265 253c0 149 107 254 265 254c154 0 264 -103 264 -254c0 -150 -110 -253 -264 -253zM295 129c59 0 106 48 106 115c0 68 -45 115 -106 115c-63 0 -107 -48 -107 -115c0 -65 45 -115 107 -115z" />
    <glyph glyph-name="uni1ECF" unicode="&#x1ecf;" horiz-adv-x="589" 
d="M253 550c31 24 56 50 55 75c0 14 -9 23 -29 23c-22 0 -45 -8 -68 -23l-28 65c27 27 83 55 145 55c66 0 106 -29 106 -86c0 -46 -40 -87 -90 -109h-91zM295 -9c-158 0 -265 105 -265 253c0 149 107 254 265 254c154 0 264 -103 264 -254c0 -150 -110 -253 -264 -253z
M295 129c59 0 106 48 106 115c0 68 -45 115 -106 115c-63 0 -107 -48 -107 -115c0 -65 45 -115 107 -115z" />
    <glyph glyph-name="ohorn" unicode="&#x1a1;" horiz-adv-x="694" 
d="M541 565h134v-76c0 -99 -47 -155 -125 -174c6 -22 9 -46 9 -71c0 -150 -110 -253 -264 -253c-158 0 -265 105 -265 253c0 149 107 254 265 254c95 0 174 -39 220 -105c23 17 26 49 26 93v79zM295 129c59 0 106 48 106 115c0 68 -45 115 -106 115
c-63 0 -107 -48 -107 -115c0 -65 45 -115 107 -115z" />
    <glyph glyph-name="uni1EDB" unicode="&#x1edb;" horiz-adv-x="694" 
d="M492 699l-124 -150h-145l111 149zM541 565h134v-76c0 -99 -47 -155 -125 -174c6 -22 9 -46 9 -71c0 -150 -110 -253 -264 -253c-158 0 -265 105 -265 253c0 149 107 254 265 254c95 0 174 -39 220 -105c23 17 26 49 26 93v79zM295 129c59 0 106 48 106 115
c0 68 -45 115 -106 115c-63 0 -107 -48 -107 -115c0 -65 45 -115 107 -115z" />
    <glyph glyph-name="uni1EE3" unicode="&#x1ee3;" horiz-adv-x="694" 
d="M541 565h134v-76c0 -99 -47 -155 -125 -174c6 -22 9 -46 9 -71c0 -150 -110 -253 -264 -253c-158 0 -265 105 -265 253c0 149 107 254 265 254c95 0 174 -39 220 -105c23 17 26 49 26 93v79zM295 129c59 0 106 48 106 115c0 68 -45 115 -106 115
c-63 0 -107 -48 -107 -115c0 -65 45 -115 107 -115zM295 -58c54 0 93 -39 93 -90c0 -48 -39 -88 -93 -88s-94 39 -94 88c0 51 40 90 94 90z" />
    <glyph glyph-name="uni1EDD" unicode="&#x1edd;" horiz-adv-x="694" 
d="M383 548h-142l-123 149l159 -1zM541 565h134v-76c0 -99 -47 -155 -125 -174c6 -22 9 -46 9 -71c0 -150 -110 -253 -264 -253c-158 0 -265 105 -265 253c0 149 107 254 265 254c95 0 174 -39 220 -105c23 17 26 49 26 93v79zM295 129c59 0 106 48 106 115
c0 68 -45 115 -106 115c-63 0 -107 -48 -107 -115c0 -65 45 -115 107 -115z" />
    <glyph glyph-name="uni1EDF" unicode="&#x1edf;" horiz-adv-x="694" 
d="M279 648c-22 0 -45 -8 -68 -23l-28 65c27 27 83 55 145 55c66 0 106 -29 106 -86c0 -46 -40 -87 -90 -109h-91c31 24 56 50 55 75c0 14 -9 23 -29 23zM541 565h134v-76c0 -99 -47 -155 -125 -174c6 -22 9 -46 9 -71c0 -150 -110 -253 -264 -253c-158 0 -265 105 -265 253
c0 149 107 254 265 254c95 0 174 -39 220 -105c23 17 26 49 26 93v79zM295 129c59 0 106 48 106 115c0 68 -45 115 -106 115c-63 0 -107 -48 -107 -115c0 -65 45 -115 107 -115z" />
    <glyph glyph-name="uni1EE1" unicode="&#x1ee1;" horiz-adv-x="694" 
d="M240 596c-24 0 -42 -20 -55 -48l-90 38c21 69 65 123 128 123c43 0 67 -14 88 -26c16 -10 31 -19 50 -19c24 0 43 20 55 46l90 -29c-21 -75 -65 -132 -125 -132c-38 0 -65 14 -88 27c-18 10 -35 20 -53 20zM541 565h134v-76c0 -99 -47 -155 -125 -174c6 -22 9 -46 9 -71
c0 -150 -110 -253 -264 -253c-158 0 -265 105 -265 253c0 149 107 254 265 254c95 0 174 -39 220 -105c23 17 26 49 26 93v79zM295 129c59 0 106 48 106 115c0 68 -45 115 -106 115c-63 0 -107 -48 -107 -115c0 -65 45 -115 107 -115z" />
    <glyph glyph-name="ohungarumlaut" unicode="&#x151;" horiz-adv-x="589" 
d="M116 557l110 149l155 1l-123 -150h-142zM338 557l110 149l155 1l-123 -150h-142zM295 -9c-158 0 -265 105 -265 253c0 149 107 254 265 254c154 0 264 -103 264 -254c0 -150 -110 -253 -264 -253zM295 129c59 0 106 48 106 115c0 68 -45 115 -106 115
c-63 0 -107 -48 -107 -115c0 -65 45 -115 107 -115z" />
    <glyph glyph-name="omacron" unicode="&#x14d;" horiz-adv-x="589" 
d="M138 573v120h313v-120h-313zM295 -9c-158 0 -265 105 -265 253c0 149 107 254 265 254c154 0 264 -103 264 -254c0 -150 -110 -253 -264 -253zM295 129c59 0 106 48 106 115c0 68 -45 115 -106 115c-63 0 -107 -48 -107 -115c0 -65 45 -115 107 -115z" />
    <glyph glyph-name="uni01EB" unicode="&#x1eb;" horiz-adv-x="589" 
d="M330 -7c-35 -12 -56 -38 -56 -62c0 -25 15 -39 39 -39c21 0 27 3 37 5l7 -77c-21 -8 -51 -11 -76 -11c-74 0 -120 39 -120 94c0 31 16 68 54 95l-1 3c-112 29 -184 122 -184 243c0 149 107 254 265 254c154 0 264 -103 264 -254c0 -138 -94 -237 -229 -251zM295 359
c-63 0 -107 -48 -107 -115c0 -65 45 -115 107 -115c59 0 106 48 106 115c0 68 -45 115 -106 115z" />
    <glyph glyph-name="oslash" unicode="&#xf8;" horiz-adv-x="589" 
d="M502 410c36 -43 57 -100 57 -166c0 -150 -110 -253 -264 -253c-56 0 -106 13 -146 37l-52 -56l-58 54l49 53c-37 43 -58 100 -58 165c0 149 107 254 265 254c55 0 105 -13 146 -37l50 54l58 -54zM188 244c0 -17 3 -33 9 -47l142 153c-14 6 -28 9 -44 9
c-63 0 -107 -48 -107 -115zM295 129c59 0 106 48 106 115c0 17 -3 34 -8 48l-142 -154c13 -6 28 -9 44 -9z" />
    <glyph glyph-name="oslashacute" unicode="&#x1ff;" horiz-adv-x="589" 
d="M492 699l-124 -150h-145l111 149zM502 410c36 -43 57 -100 57 -166c0 -150 -110 -253 -264 -253c-56 0 -106 13 -146 37l-52 -56l-58 54l49 53c-37 43 -58 100 -58 165c0 149 107 254 265 254c55 0 105 -13 146 -37l50 54l58 -54zM188 244c0 -17 3 -33 9 -47l142 153
c-14 6 -28 9 -44 9c-63 0 -107 -48 -107 -115zM295 129c59 0 106 48 106 115c0 17 -3 34 -8 48l-142 -154c13 -6 28 -9 44 -9z" />
    <glyph glyph-name="otilde" unicode="&#xf5;" horiz-adv-x="589" 
d="M381 549c-38 0 -65 14 -88 27c-18 10 -35 20 -53 20c-24 0 -42 -20 -55 -48l-90 38c21 69 65 123 128 123c43 0 67 -14 88 -26c16 -10 31 -19 50 -19c24 0 43 20 55 46l90 -29c-21 -75 -65 -132 -125 -132zM295 -9c-158 0 -265 105 -265 253c0 149 107 254 265 254
c154 0 264 -103 264 -254c0 -150 -110 -253 -264 -253zM295 129c59 0 106 48 106 115c0 68 -45 115 -106 115c-63 0 -107 -48 -107 -115c0 -65 45 -115 107 -115z" />
    <glyph glyph-name="oe" unicode="&#x153;" horiz-adv-x="815" 
d="M791 247c0 -14 -2 -33 -5 -44h-305c13 -52 48 -82 107 -82c40 0 70 18 99 53l90 -95c-40 -53 -110 -88 -197 -88c-82 0 -134 25 -173 65h-3c-40 -41 -96 -65 -157 -65c-137 0 -222 102 -222 252c0 151 86 255 227 255c56 0 113 -23 152 -63h3c39 40 98 63 161 63
c136 0 223 -106 223 -251zM567 373c-51 0 -78 -32 -87 -78h160c-7 44 -35 78 -73 78zM257 129c46 0 76 48 76 115c0 68 -26 115 -74 115c-42 0 -76 -45 -76 -115c0 -68 29 -115 74 -115z" />
    <glyph glyph-name="p" unicode="p" horiz-adv-x="604" 
d="M54 -198v687h156v-52h2c35 40 84 61 139 61c127 0 223 -104 223 -254c0 -151 -96 -253 -231 -253c-56 0 -99 20 -131 57l-2 -1v-245h-156zM312 129c60 0 104 46 104 115c0 70 -45 116 -105 116c-63 0 -108 -49 -108 -116c0 -70 47 -115 109 -115z" />
    <glyph glyph-name="thorn" unicode="&#xfe;" horiz-adv-x="604" 
d="M54 -198v934h156v-298h2c35 40 84 60 139 60c127 0 223 -104 223 -254c0 -151 -96 -253 -231 -253c-56 0 -100 20 -131 57l-2 -1v-245h-156zM312 129c60 0 104 46 104 115c0 70 -45 116 -105 116c-63 0 -108 -49 -108 -116c0 -70 47 -115 109 -115z" />
    <glyph glyph-name="q" unicode="q" horiz-adv-x="604" 
d="M395 -198v246l-2 1c-31 -38 -76 -58 -133 -58c-134 0 -230 102 -230 253c0 150 96 254 223 254c56 0 104 -21 139 -61h2v52h157v-687h-156zM293 129c61 0 107 45 107 115c0 67 -45 116 -107 116c-60 0 -105 -46 -105 -116c0 -69 44 -115 105 -115z" />
    <glyph glyph-name="r" unicode="r" horiz-adv-x="373" 
d="M54 0v489h156v-68h2c36 50 87 77 141 77h6v-169c-15 1 -29 2 -37 2c-74 0 -112 -47 -112 -111v-220h-156z" />
    <glyph glyph-name="racute" unicode="&#x155;" horiz-adv-x="373" 
d="M108 549l111 149l158 1l-124 -150h-145zM54 0v489h156v-68h2c36 50 87 77 141 77h6v-169c-15 1 -29 2 -37 2c-74 0 -112 -47 -112 -111v-220h-156z" />
    <glyph glyph-name="rcaron" unicode="&#x159;" horiz-adv-x="373" 
d="M140 547l-97 149h137l44 -72h2l44 72h133l-94 -149h-169zM54 0v489h156v-68h2c36 50 87 77 141 77h6v-169c-15 1 -29 2 -37 2c-74 0 -112 -47 -112 -111v-220h-156z" />
    <glyph glyph-name="rcommaaccent" unicode="&#x157;" horiz-adv-x="373" 
d="M54 0v489h156v-68h2c36 50 87 77 141 77h6v-169c-15 1 -29 2 -37 2c-74 0 -112 -47 -112 -111v-220h-156zM49 -221l-28 85c38 8 54 20 54 47c0 11 -2 21 -7 36h128c3 -14 5 -26 5 -42c0 -81 -55 -124 -152 -126z" />
    <glyph glyph-name="uni1E5B" unicode="&#x1e5b;" horiz-adv-x="373" 
d="M54 0v489h156v-68h2c36 50 87 77 141 77h6v-169c-15 1 -29 2 -37 2c-74 0 -112 -47 -112 -111v-220h-156zM134 -58c54 0 93 -39 93 -90c0 -48 -39 -88 -93 -88s-94 39 -94 88c0 51 40 90 94 90z" />
    <glyph glyph-name="uni1E5D" unicode="&#x1e5d;" horiz-adv-x="373" 
d="M66 573v120h313v-120h-313zM54 0v489h156v-68h2c36 50 87 77 141 77h6v-169c-15 1 -29 2 -37 2c-74 0 -112 -47 -112 -111v-220h-156zM134 -58c54 0 93 -39 93 -90c0 -48 -39 -88 -93 -88s-94 39 -94 88c0 51 40 90 94 90z" />
    <glyph glyph-name="uni1E5F" unicode="&#x1e5f;" horiz-adv-x="373" 
d="M54 0v489h156v-68h2c36 50 87 77 141 77h6v-169c-15 1 -29 2 -37 2c-74 0 -112 -47 -112 -111v-220h-156zM291 -221h-313v120h313v-120z" />
    <glyph glyph-name="s" unicode="s" horiz-adv-x="440" 
d="M215 -9c-77 0 -145 24 -199 72l73 101c41 -37 83 -55 128 -55c31 0 47 11 47 29c0 16 -15 26 -76 45c-82 25 -154 65 -154 159c0 99 81 156 183 156c74 0 128 -19 185 -61l-74 -109c-34 34 -76 51 -109 51c-18 0 -39 -8 -39 -27c0 -15 18 -26 67 -43
c108 -37 167 -65 167 -161c0 -91 -65 -157 -199 -157z" />
    <glyph glyph-name="sacute" unicode="&#x15b;" horiz-adv-x="440" 
d="M130 549l111 149l158 1l-124 -150h-145zM215 -9c-77 0 -145 24 -199 72l73 101c41 -37 83 -55 128 -55c31 0 47 11 47 29c0 16 -15 26 -76 45c-82 25 -154 65 -154 159c0 99 81 156 183 156c74 0 128 -19 185 -61l-74 -109c-34 34 -76 51 -109 51c-18 0 -39 -8 -39 -27
c0 -15 18 -26 67 -43c108 -37 167 -65 167 -161c0 -91 -65 -157 -199 -157z" />
    <glyph glyph-name="scaron" unicode="&#x161;" horiz-adv-x="440" 
d="M141 547l-97 149h137l44 -72h2l44 72h133l-94 -149h-169zM215 -9c-77 0 -145 24 -199 72l73 101c41 -37 83 -55 128 -55c31 0 47 11 47 29c0 16 -15 26 -76 45c-82 25 -154 65 -154 159c0 99 81 156 183 156c74 0 128 -19 185 -61l-74 -109c-34 34 -76 51 -109 51
c-18 0 -39 -8 -39 -27c0 -15 18 -26 67 -43c108 -37 167 -65 167 -161c0 -91 -65 -157 -199 -157z" />
    <glyph glyph-name="scedilla" unicode="&#x15f;" horiz-adv-x="440" 
d="M414 148c0 -86 -58 -150 -178 -156l-12 -21l1 -2c70 -2 104 -30 104 -80c0 -48 -45 -82 -139 -82c-33 0 -50 3 -65 6v64c13 -4 27 -7 46 -7c20 0 44 6 44 27c0 18 -29 30 -73 30v38l16 31c-53 9 -102 31 -142 67l73 101c41 -37 83 -55 128 -55c31 0 47 11 47 29
c0 16 -15 26 -76 45c-82 25 -154 65 -154 159c0 99 81 156 183 156c74 0 128 -19 185 -61l-74 -109c-34 34 -76 51 -109 51c-18 0 -39 -8 -39 -27c0 -15 18 -26 67 -43c108 -37 167 -65 167 -161z" />
    <glyph glyph-name="scircumflex" unicode="&#x15d;" horiz-adv-x="440" 
d="M44 548l95 149h168l97 -149h-136l-44 72h-2l-45 -72h-133zM215 -9c-77 0 -145 24 -199 72l73 101c41 -37 83 -55 128 -55c31 0 47 11 47 29c0 16 -15 26 -76 45c-82 25 -154 65 -154 159c0 99 81 156 183 156c74 0 128 -19 185 -61l-74 -109c-34 34 -76 51 -109 51
c-18 0 -39 -8 -39 -27c0 -15 18 -26 67 -43c108 -37 167 -65 167 -161c0 -91 -65 -157 -199 -157z" />
    <glyph glyph-name="scommaaccent" unicode="&#x219;" horiz-adv-x="440" 
d="M215 -9c-77 0 -145 24 -199 72l73 101c41 -37 83 -55 128 -55c31 0 47 11 47 29c0 16 -15 26 -76 45c-82 25 -154 65 -154 159c0 99 81 156 183 156c74 0 128 -19 185 -61l-74 -109c-34 34 -76 51 -109 51c-18 0 -39 -8 -39 -27c0 -15 18 -26 67 -43
c108 -37 167 -65 167 -161c0 -91 -65 -157 -199 -157zM139 -221l-28 85c38 8 54 20 54 47c0 11 -2 21 -7 36h128c3 -14 5 -26 5 -42c0 -81 -55 -124 -152 -126z" />
    <glyph glyph-name="uni1E61" unicode="&#x1e61;" horiz-adv-x="440" 
d="M224 550c-54 0 -93 39 -93 90c0 48 39 88 93 88s94 -39 94 -88c0 -51 -40 -90 -94 -90zM215 -9c-77 0 -145 24 -199 72l73 101c41 -37 83 -55 128 -55c31 0 47 11 47 29c0 16 -15 26 -76 45c-82 25 -154 65 -154 159c0 99 81 156 183 156c74 0 128 -19 185 -61l-74 -109
c-34 34 -76 51 -109 51c-18 0 -39 -8 -39 -27c0 -15 18 -26 67 -43c108 -37 167 -65 167 -161c0 -91 -65 -157 -199 -157z" />
    <glyph glyph-name="uni1E63" unicode="&#x1e63;" horiz-adv-x="440" 
d="M215 -9c-77 0 -145 24 -199 72l73 101c41 -37 83 -55 128 -55c31 0 47 11 47 29c0 16 -15 26 -76 45c-82 25 -154 65 -154 159c0 99 81 156 183 156c74 0 128 -19 185 -61l-74 -109c-34 34 -76 51 -109 51c-18 0 -39 -8 -39 -27c0 -15 18 -26 67 -43
c108 -37 167 -65 167 -161c0 -91 -65 -157 -199 -157zM224 -58c54 0 93 -39 93 -90c0 -48 -39 -88 -93 -88s-94 39 -94 88c0 51 40 90 94 90z" />
    <glyph glyph-name="germandbls" unicode="&#xdf;" horiz-adv-x="627" 
d="M288 -9v137h50c66 0 108 44 108 103c0 61 -44 105 -119 105h-29v127h22c65 0 89 44 89 76c0 41 -33 73 -92 73c-61 0 -106 -30 -106 -118v-494h-157v483c0 177 98 263 259 263c169 0 248 -92 248 -190c0 -46 -16 -100 -73 -136v-2c72 -35 115 -109 115 -196
c0 -142 -88 -231 -228 -231h-87z" />
    <glyph glyph-name="longs" unicode="&#x17f;" horiz-adv-x="345" 
d="M71 0v363h-47v126h47v77c0 121 63 180 161 180c65 0 115 -26 132 -38l-29 -113c-21 11 -47 18 -61 18c-28 0 -46 -14 -46 -53v-560h-157z" />
    <glyph glyph-name="t" unicode="t" horiz-adv-x="374" 
d="M213 -9c-84 0 -144 52 -144 163v209h-55v126h55v157l157 16v-173h118v-126h-118v-180c0 -32 7 -55 37 -55c11 0 31 3 48 11l39 -115c-34 -19 -69 -33 -137 -33z" />
    <glyph glyph-name="tbar" unicode="&#x167;" horiz-adv-x="374" 
d="M311 139l39 -115c-34 -19 -69 -33 -137 -33c-84 0 -144 52 -144 163v58h-45v93h45v58h-55v126h55v157l157 16v-173h118v-126h-118v-58h97v-93h-97v-29c0 -32 7 -55 37 -55c11 0 31 3 48 11z" />
    <glyph glyph-name="tcaron" unicode="&#x165;" horiz-adv-x="373" 
d="M269 577l32 217h148l-71 -217h-109zM213 -9c-84 0 -144 52 -144 163v209h-55v126h55v157l157 16v-173h118v-126h-118v-180c0 -32 7 -55 37 -55c11 0 31 3 48 11l39 -115c-34 -19 -69 -33 -137 -33z" />
    <glyph glyph-name="uni0163" unicode="&#x163;" horiz-adv-x="374" 
d="M210 -31c70 -2 104 -30 104 -80c0 -48 -45 -82 -139 -82c-33 0 -50 3 -65 6v64c13 -4 27 -7 46 -7c20 0 44 6 44 27c0 18 -29 30 -73 30v38l21 39c-48 21 -79 71 -79 150v209h-55v126h55v157l157 16v-173h118v-126h-118v-180c0 -32 7 -55 37 -55c11 0 31 3 48 11l39 -115
c-33 -18 -66 -32 -130 -33l-11 -20z" />
    <glyph glyph-name="uni021B" unicode="&#x21b;" horiz-adv-x="374" 
d="M213 -9c-84 0 -144 52 -144 163v209h-55v126h55v157l157 16v-173h118v-126h-118v-180c0 -32 7 -55 37 -55c11 0 31 3 48 11l39 -115c-34 -19 -69 -33 -137 -33zM124 -221l-28 85c38 8 54 20 54 47c0 11 -2 21 -7 36h128c3 -14 5 -26 5 -42c0 -81 -55 -124 -152 -126z" />
    <glyph glyph-name="uni1E97" unicode="&#x1e97;" horiz-adv-x="374" 
d="M76 700c-54 0 -93 39 -93 89c0 48 39 87 93 87s94 -38 94 -87c0 -51 -40 -89 -94 -89zM300 700c-54 0 -93 39 -93 89c0 48 39 87 93 87c53 0 93 -38 93 -87c0 -51 -40 -89 -93 -89zM213 -9c-84 0 -144 52 -144 163v209h-55v126h55v157l157 16v-173h118v-126h-118v-180
c0 -32 7 -55 37 -55c11 0 31 3 48 11l39 -115c-34 -19 -69 -33 -137 -33z" />
    <glyph glyph-name="uni1E6D" unicode="&#x1e6d;" horiz-adv-x="374" 
d="M213 -9c-84 0 -144 52 -144 163v209h-55v126h55v157l157 16v-173h118v-126h-118v-180c0 -32 7 -55 37 -55c11 0 31 3 48 11l39 -115c-34 -19 -69 -33 -137 -33zM209 -58c54 0 93 -39 93 -90c0 -48 -39 -88 -93 -88s-94 39 -94 88c0 51 40 90 94 90z" />
    <glyph glyph-name="uni1E6F" unicode="&#x1e6f;" horiz-adv-x="374" 
d="M213 -9c-84 0 -144 52 -144 163v209h-55v126h55v157l157 16v-173h118v-126h-118v-180c0 -32 7 -55 37 -55c11 0 31 3 48 11l39 -115c-34 -19 -69 -33 -137 -33zM366 -221h-313v120h313v-120z" />
    <glyph glyph-name="u" unicode="u" horiz-adv-x="570" 
d="M222 -9c-103 0 -176 54 -176 208v290h156v-251c0 -79 22 -109 75 -109c47 0 86 39 86 118v242h157v-489h-157v55l-2 1c-36 -44 -85 -65 -139 -65z" />
    <glyph glyph-name="uacute" unicode="&#xfa;" horiz-adv-x="570" 
d="M208 549l111 149l158 1l-124 -150h-145zM222 -9c-103 0 -176 54 -176 208v290h156v-251c0 -79 22 -109 75 -109c47 0 86 39 86 118v242h157v-489h-157v55l-2 1c-36 -44 -85 -65 -139 -65z" />
    <glyph glyph-name="ubreve" unicode="&#x16d;" horiz-adv-x="570" 
d="M285 539c-93 0 -164 57 -172 157h114c3 -27 25 -49 58 -49c34 0 57 23 59 49h114c-7 -90 -68 -157 -173 -157zM222 -9c-103 0 -176 54 -176 208v290h156v-251c0 -79 22 -109 75 -109c47 0 86 39 86 118v242h157v-489h-157v55l-2 1c-36 -44 -85 -65 -139 -65z" />
    <glyph glyph-name="ucircumflex" unicode="&#xfb;" horiz-adv-x="570" 
d="M106 548l95 149h168l97 -149h-136l-44 72h-2l-45 -72h-133zM222 -9c-103 0 -176 54 -176 208v290h156v-251c0 -79 22 -109 75 -109c47 0 86 39 86 118v242h157v-489h-157v55l-2 1c-36 -44 -85 -65 -139 -65z" />
    <glyph glyph-name="udieresis" unicode="&#xfc;" horiz-adv-x="570" 
d="M173 551c-54 0 -93 39 -93 89c0 48 39 87 93 87s94 -38 94 -87c0 -51 -40 -89 -94 -89zM397 551c-54 0 -93 39 -93 89c0 48 39 87 93 87c53 0 93 -38 93 -87c0 -51 -40 -89 -93 -89zM222 -9c-103 0 -176 54 -176 208v290h156v-251c0 -79 22 -109 75 -109
c47 0 86 39 86 118v242h157v-489h-157v55l-2 1c-36 -44 -85 -65 -139 -65z" />
    <glyph glyph-name="uni1EE5" unicode="&#x1ee5;" horiz-adv-x="570" 
d="M222 -9c-103 0 -176 54 -176 208v290h156v-251c0 -79 22 -109 75 -109c47 0 86 39 86 118v242h157v-489h-157v55l-2 1c-36 -44 -85 -65 -139 -65zM291 -58c54 0 93 -39 93 -90c0 -48 -39 -88 -93 -88s-94 39 -94 88c0 51 40 90 94 90z" />
    <glyph glyph-name="ugrave" unicode="&#xf9;" horiz-adv-x="570" 
d="M232 548l-123 149l159 -1l106 -148h-142zM222 -9c-103 0 -176 54 -176 208v290h156v-251c0 -79 22 -109 75 -109c47 0 86 39 86 118v242h157v-489h-157v55l-2 1c-36 -44 -85 -65 -139 -65z" />
    <glyph glyph-name="uni1EE7" unicode="&#x1ee7;" horiz-adv-x="570" 
d="M244 550c31 24 56 50 55 75c0 14 -9 23 -29 23c-22 0 -45 -8 -68 -23l-28 65c27 27 83 55 145 55c66 0 106 -29 106 -86c0 -46 -40 -87 -90 -109h-91zM222 -9c-103 0 -176 54 -176 208v290h156v-251c0 -79 22 -109 75 -109c47 0 86 39 86 118v242h157v-489h-157v55l-2 1
c-36 -44 -85 -65 -139 -65z" />
    <glyph glyph-name="uhorn" unicode="&#x1b0;" horiz-adv-x="714" 
d="M572 565h134v-76c0 -123 -73 -180 -186 -181v-308h-157v55l-2 1c-36 -44 -85 -65 -139 -65c-103 0 -176 54 -176 208v290h156v-251c0 -79 22 -109 75 -109c47 0 86 39 86 118v242h157v-108c48 12 52 49 52 105v79z" />
    <glyph glyph-name="uni1EE9" unicode="&#x1ee9;" horiz-adv-x="714" 
d="M477 699l-124 -150h-145l111 149zM572 565h134v-76c0 -123 -73 -180 -186 -181v-308h-157v55l-2 1c-36 -44 -85 -65 -139 -65c-103 0 -176 54 -176 208v290h156v-251c0 -79 22 -109 75 -109c47 0 86 39 86 118v242h157v-108c48 12 52 49 52 105v79z" />
    <glyph glyph-name="uni1EF1" unicode="&#x1ef1;" horiz-adv-x="714" 
d="M572 565h134v-76c0 -123 -73 -180 -186 -181v-308h-157v55l-2 1c-36 -44 -85 -65 -139 -65c-103 0 -176 54 -176 208v290h156v-251c0 -79 22 -109 75 -109c47 0 86 39 86 118v242h157v-108c48 12 52 49 52 105v79zM291 -58c54 0 93 -39 93 -90c0 -48 -39 -88 -93 -88
s-94 39 -94 88c0 51 40 90 94 90z" />
    <glyph glyph-name="uni1EEB" unicode="&#x1eeb;" horiz-adv-x="714" 
d="M374 548h-142l-123 149l159 -1zM572 565h134v-76c0 -123 -73 -180 -186 -181v-308h-157v55l-2 1c-36 -44 -85 -65 -139 -65c-103 0 -176 54 -176 208v290h156v-251c0 -79 22 -109 75 -109c47 0 86 39 86 118v242h157v-108c48 12 52 49 52 105v79z" />
    <glyph glyph-name="uni1EED" unicode="&#x1eed;" horiz-adv-x="714" 
d="M270 648c-22 0 -45 -8 -68 -23l-28 65c27 27 83 55 145 55c66 0 106 -29 106 -86c0 -46 -40 -87 -90 -109h-91c31 24 56 50 55 75c0 14 -9 23 -29 23zM572 565h134v-76c0 -123 -73 -180 -186 -181v-308h-157v55l-2 1c-36 -44 -85 -65 -139 -65c-103 0 -176 54 -176 208
v290h156v-251c0 -79 22 -109 75 -109c47 0 86 39 86 118v242h157v-108c48 12 52 49 52 105v79z" />
    <glyph glyph-name="uni1EEF" unicode="&#x1eef;" horiz-adv-x="714" 
d="M231 596c-24 0 -42 -20 -55 -48l-90 38c21 69 65 123 128 123c43 0 67 -14 88 -26c16 -10 31 -19 50 -19c24 0 43 20 55 46l90 -29c-21 -75 -65 -132 -125 -132c-38 0 -65 14 -88 27c-18 10 -35 20 -53 20zM572 565h134v-76c0 -123 -73 -180 -186 -181v-308h-157v55l-2 1
c-36 -44 -85 -65 -139 -65c-103 0 -176 54 -176 208v290h156v-251c0 -79 22 -109 75 -109c47 0 86 39 86 118v242h157v-108c48 12 52 49 52 105v79z" />
    <glyph glyph-name="uhungarumlaut" unicode="&#x171;" horiz-adv-x="570" 
d="M107 557l110 149l155 1l-123 -150h-142zM329 557l110 149l155 1l-123 -150h-142zM222 -9c-103 0 -176 54 -176 208v290h156v-251c0 -79 22 -109 75 -109c47 0 86 39 86 118v242h157v-489h-157v55l-2 1c-36 -44 -85 -65 -139 -65z" />
    <glyph glyph-name="umacron" unicode="&#x16b;" horiz-adv-x="570" 
d="M129 573v120h313v-120h-313zM222 -9c-103 0 -176 54 -176 208v290h156v-251c0 -79 22 -109 75 -109c47 0 86 39 86 118v242h157v-489h-157v55l-2 1c-36 -44 -85 -65 -139 -65z" />
    <glyph glyph-name="uni01D4" unicode="&#x1d4;" horiz-adv-x="570" 
d="M203 547l-97 149h137l44 -72h2l44 72h133l-94 -149h-169zM222 -9c-103 0 -176 54 -176 208v290h156v-251c0 -79 22 -109 75 -109c47 0 86 39 86 118v242h157v-489h-157v55l-2 1c-36 -44 -85 -65 -139 -65z" />
    <glyph glyph-name="uni01D6" unicode="&#x1d6;" horiz-adv-x="570" 
d="M130 740v101h313v-101h-313zM188 544c-48 0 -84 34 -84 80c0 43 36 78 84 78s85 -34 85 -78c0 -46 -37 -80 -85 -80zM390 544c-48 0 -83 34 -83 80c0 43 35 78 83 78c49 0 86 -34 86 -78c0 -46 -37 -80 -86 -80zM222 -9c-103 0 -176 54 -176 208v290h156v-251
c0 -79 22 -109 75 -109c47 0 86 39 86 118v242h157v-489h-157v55l-2 1c-36 -44 -85 -65 -139 -65z" />
    <glyph glyph-name="uni01D8" unicode="&#x1d8;" horiz-adv-x="570" 
d="M225 726l111 136l148 1l-143 -137h-116zM184 547c-48 0 -84 34 -84 80c0 43 36 78 84 78s85 -34 85 -78c0 -46 -37 -80 -85 -80zM386 547c-48 0 -83 34 -83 80c0 43 35 78 83 78c49 0 86 -34 86 -78c0 -46 -37 -80 -86 -80zM222 -9c-103 0 -176 54 -176 208v290h156v-251
c0 -79 22 -109 75 -109c47 0 86 39 86 118v242h157v-489h-157v55l-2 1c-36 -44 -85 -65 -139 -65z" />
    <glyph glyph-name="uni01DA" unicode="&#x1da;" horiz-adv-x="570" 
d="M202 726l-97 139h137l44 -67h2l44 67h133l-94 -139h-169zM184 547c-48 0 -84 34 -84 80c0 43 36 78 84 78s85 -34 85 -78c0 -46 -37 -80 -85 -80zM386 547c-48 0 -83 34 -83 80c0 43 35 78 83 78c49 0 86 -34 86 -78c0 -46 -37 -80 -86 -80zM222 -9
c-103 0 -176 54 -176 208v290h156v-251c0 -79 22 -109 75 -109c47 0 86 39 86 118v242h157v-489h-157v55l-2 1c-36 -44 -85 -65 -139 -65z" />
    <glyph glyph-name="uni01DC" unicode="&#x1dc;" horiz-adv-x="570" 
d="M349 726h-116l-143 137l148 -1zM184 547c-48 0 -84 34 -84 80c0 43 36 78 84 78s85 -34 85 -78c0 -46 -37 -80 -85 -80zM386 547c-48 0 -83 34 -83 80c0 43 35 78 83 78c49 0 86 -34 86 -78c0 -46 -37 -80 -86 -80zM222 -9c-103 0 -176 54 -176 208v290h156v-251
c0 -79 22 -109 75 -109c47 0 86 39 86 118v242h157v-489h-157v55l-2 1c-36 -44 -85 -65 -139 -65z" />
    <glyph glyph-name="uni0251" unicode="&#x251;" horiz-adv-x="596" 
d="M259 -9c-134 0 -231 102 -231 253c0 150 97 254 223 254c52 0 101 -21 135 -61l2 1v51h157v-489h-149v51l-2 1c-32 -41 -76 -61 -135 -61zM292 129c56 0 103 45 103 115c0 67 -45 116 -103 116c-60 0 -105 -46 -105 -116c0 -69 43 -115 105 -115z" />
    <glyph glyph-name="uni0261" unicode="&#x261;" horiz-adv-x="594" 
d="M280 -207c-79 0 -141 14 -201 47l35 127c41 -24 95 -43 149 -43c85 0 128 42 128 93v45l-2 1c-33 -34 -78 -54 -135 -54c-132 0 -226 102 -226 241c0 145 94 248 217 248c53 0 103 -19 140 -57h2v48h157v-425c0 -159 -66 -271 -264 -271zM291 148c59 0 103 44 103 106
s-45 105 -103 105c-60 0 -104 -43 -104 -106s45 -105 104 -105z" />
    <glyph glyph-name="uni1E31" unicode="&#x1e31;" horiz-adv-x="538" 
d="M54 0v736h154v-423h2l143 176h181l-165 -195l170 -294h-173l-109 192l-49 -54v-138h-154zM248 549l111 149l158 1l-124 -150h-145z" />
    <glyph glyph-name="uogonek" unicode="&#x173;" horiz-adv-x="570" 
d="M363 489h157v-489h-9c-58 -3 -94 -37 -94 -69c0 -25 15 -39 39 -39c21 0 27 3 37 5l7 -77c-21 -8 -51 -11 -76 -11c-74 0 -120 39 -120 94c0 32 18 71 59 99v53l-2 1c-36 -44 -85 -65 -139 -65c-103 0 -176 54 -176 208v290h156v-251c0 -79 22 -109 75 -109
c47 0 86 39 86 118v242z" />
    <glyph glyph-name="uring" unicode="&#x16f;" horiz-adv-x="570" 
d="M286 538c-60 0 -110 44 -110 106c0 58 44 105 110 105c61 0 110 -43 110 -105c0 -58 -44 -106 -110 -106zM286 609c20 0 36 17 36 36c0 20 -16 36 -36 36s-35 -17 -35 -36c0 -20 15 -36 35 -36zM222 -9c-103 0 -176 54 -176 208v290h156v-251c0 -79 22 -109 75 -109
c47 0 86 39 86 118v242h157v-489h-157v55l-2 1c-36 -44 -85 -65 -139 -65z" />
    <glyph glyph-name="utilde" unicode="&#x169;" horiz-adv-x="570" 
d="M372 549c-38 0 -65 14 -88 27c-18 10 -35 20 -53 20c-24 0 -42 -20 -55 -48l-90 38c21 69 65 123 128 123c43 0 67 -14 88 -26c16 -10 31 -19 50 -19c24 0 43 20 55 46l90 -29c-21 -75 -65 -132 -125 -132zM222 -9c-103 0 -176 54 -176 208v290h156v-251
c0 -79 22 -109 75 -109c47 0 86 39 86 118v242h157v-489h-157v55l-2 1c-36 -44 -85 -65 -139 -65z" />
    <glyph glyph-name="v" unicode="v" horiz-adv-x="540" 
d="M198 0l-189 489h165l96 -301h1l97 301h163l-190 -489h-143z" />
    <glyph glyph-name="w" unicode="w" horiz-adv-x="766" 
d="M176 0l-165 489h156l80 -265h1l74 265h121l74 -265h2l81 265h155l-166 -489h-126l-80 284h-1l-78 -284h-128z" />
    <glyph glyph-name="wacute" unicode="&#x1e83;" horiz-adv-x="766" 
d="M310 549l111 149l158 1l-124 -150h-145zM176 0l-165 489h156l80 -265h1l74 265h121l74 -265h2l81 265h155l-166 -489h-126l-80 284h-1l-78 -284h-128z" />
    <glyph glyph-name="wcircumflex" unicode="&#x175;" horiz-adv-x="766" 
d="M202 548l95 149h168l97 -149h-136l-44 72h-2l-45 -72h-133zM176 0l-165 489h156l80 -265h1l74 265h121l74 -265h2l81 265h155l-166 -489h-126l-80 284h-1l-78 -284h-128z" />
    <glyph glyph-name="wdieresis" unicode="&#x1e85;" horiz-adv-x="766" 
d="M269 551c-54 0 -93 39 -93 89c0 48 39 87 93 87s94 -38 94 -87c0 -51 -40 -89 -94 -89zM493 551c-54 0 -93 39 -93 89c0 48 39 87 93 87c53 0 93 -38 93 -87c0 -51 -40 -89 -93 -89zM176 0l-165 489h156l80 -265h1l74 265h121l74 -265h2l81 265h155l-166 -489h-126
l-80 284h-1l-78 -284h-128z" />
    <glyph glyph-name="wgrave" unicode="&#x1e81;" horiz-adv-x="766" 
d="M312 548l-123 149l159 -1l106 -148h-142zM176 0l-165 489h156l80 -265h1l74 265h121l74 -265h2l81 265h155l-166 -489h-126l-80 284h-1l-78 -284h-128z" />
    <glyph glyph-name="x" unicode="x" horiz-adv-x="525" 
d="M10 0l165 252l-162 237h176l72 -121h1l74 121h175l-162 -238l165 -251h-168l-83 122h-1l-84 -122h-168z" />
    <glyph glyph-name="y" unicode="y" horiz-adv-x="536" 
d="M116 -198l84 231l-191 456h167l98 -263h3l94 263h156l-257 -687h-154z" />
    <glyph glyph-name="yacute" unicode="&#xfd;" horiz-adv-x="536" 
d="M184 549l111 149l158 1l-124 -150h-145zM116 -198l84 231l-191 456h167l98 -263h3l94 263h156l-257 -687h-154z" />
    <glyph glyph-name="ycircumflex" unicode="&#x177;" horiz-adv-x="536" 
d="M90 548l95 149h168l97 -149h-136l-44 72h-2l-45 -72h-133zM116 -198l84 231l-191 456h167l98 -263h3l94 263h156l-257 -687h-154z" />
    <glyph glyph-name="ydieresis" unicode="&#xff;" horiz-adv-x="536" 
d="M157 551c-54 0 -93 39 -93 89c0 48 39 87 93 87s94 -38 94 -87c0 -51 -40 -89 -94 -89zM381 551c-54 0 -93 39 -93 89c0 48 39 87 93 87c53 0 93 -38 93 -87c0 -51 -40 -89 -93 -89zM116 -198l84 231l-191 456h167l98 -263h3l94 263h156l-257 -687h-154z" />
    <glyph glyph-name="uni1E8F" unicode="&#x1e8f;" horiz-adv-x="536" 
d="M270 550c-54 0 -93 39 -93 90c0 48 39 88 93 88s94 -39 94 -88c0 -51 -40 -90 -94 -90zM116 -198l84 231l-191 456h167l98 -263h3l94 263h156l-257 -687h-154z" />
    <glyph glyph-name="uni1EF5" unicode="&#x1ef5;" horiz-adv-x="536" 
d="M116 -198l84 231l-191 456h167l98 -263h3l94 263h156l-257 -687h-154zM432 -58c54 0 93 -39 93 -90c0 -48 -39 -88 -93 -88s-94 39 -94 88c0 51 40 90 94 90z" />
    <glyph glyph-name="ygrave" unicode="&#x1ef3;" horiz-adv-x="536" 
d="M215 548l-123 149l159 -1l106 -148h-142zM116 -198l84 231l-191 456h167l98 -263h3l94 263h156l-257 -687h-154z" />
    <glyph glyph-name="uni1EF7" unicode="&#x1ef7;" horiz-adv-x="536" 
d="M228 550c31 24 56 50 55 75c0 14 -9 23 -29 23c-22 0 -45 -8 -68 -23l-28 65c27 27 83 55 145 55c66 0 106 -29 106 -86c0 -46 -40 -87 -90 -109h-91zM116 -198l84 231l-191 456h167l98 -263h3l94 263h156l-257 -687h-154z" />
    <glyph glyph-name="uni0233" unicode="&#x233;" horiz-adv-x="536" 
d="M113 573v120h313v-120h-313zM116 -198l84 231l-191 456h167l98 -263h3l94 263h156l-257 -687h-154z" />
    <glyph glyph-name="uni1EF9" unicode="&#x1ef9;" horiz-adv-x="536" 
d="M356 549c-38 0 -65 14 -88 27c-18 10 -35 20 -53 20c-24 0 -42 -20 -55 -48l-90 38c21 69 65 123 128 123c43 0 67 -14 88 -26c16 -10 31 -19 50 -19c24 0 43 20 55 46l90 -29c-21 -75 -65 -132 -125 -132zM116 -198l84 231l-191 456h167l98 -263h3l94 263h156l-257 -687
h-154z" />
    <glyph glyph-name="z" unicode="z" horiz-adv-x="478" 
d="M29 0v104l213 259v3h-194v123h402v-103l-217 -260v-2h209v-124h-413z" />
    <glyph glyph-name="zacute" unicode="&#x17a;" horiz-adv-x="478" 
d="M149 549l111 149l158 1l-124 -150h-145zM29 0v104l213 259v3h-194v123h402v-103l-217 -260v-2h209v-124h-413z" />
    <glyph glyph-name="zcaron" unicode="&#x17e;" horiz-adv-x="478" 
d="M158 547l-97 149h137l44 -72h2l44 72h133l-94 -149h-169zM29 0v104l213 259v3h-194v123h402v-103l-217 -260v-2h209v-124h-413z" />
    <glyph glyph-name="zdotaccent" unicode="&#x17c;" horiz-adv-x="478" 
d="M241 550c-54 0 -93 39 -93 90c0 48 39 88 93 88s94 -39 94 -88c0 -51 -40 -90 -94 -90zM29 0v104l213 259v3h-194v123h402v-103l-217 -260v-2h209v-124h-413z" />
    <glyph glyph-name="uni1E93" unicode="&#x1e93;" horiz-adv-x="478" 
d="M29 0v104l213 259v3h-194v123h402v-103l-217 -260v-2h209v-124h-413zM241 -58c54 0 93 -39 93 -90c0 -48 -39 -88 -93 -88s-94 39 -94 88c0 51 40 90 94 90z" />
    <glyph glyph-name="a.alt" horiz-adv-x="507" 
d="M243 498c142 0 219 -48 219 -208v-290h-143l-6 39l-3 1c-30 -26 -73 -49 -128 -49c-106 0 -160 65 -160 153c0 95 60 154 200 154h87c0 54 -23 75 -82 75c-39 0 -82 -12 -119 -34l-61 110c45 25 130 49 196 49zM228 102c54 0 81 35 81 56v51h-74c-41 0 -64 -20 -64 -54
s20 -53 57 -53z" />
    <glyph glyph-name="aacute.alt" horiz-adv-x="507" 
d="M441 697l-124 -150h-145l111 149zM243 498c142 0 219 -48 219 -208v-290h-143l-6 39l-3 1c-30 -26 -73 -49 -128 -49c-106 0 -160 65 -160 153c0 95 60 154 200 154h87c0 54 -23 75 -82 75c-39 0 -82 -12 -119 -34l-61 110c45 25 130 49 196 49zM228 102
c54 0 81 35 81 56v51h-74c-41 0 -64 -20 -64 -54s20 -53 57 -53z" />
    <glyph glyph-name="abreve.alt" horiz-adv-x="507" 
d="M257 539c-93 0 -164 57 -172 157h114c3 -27 25 -49 58 -49c34 0 57 23 59 49h114c-7 -90 -68 -157 -173 -157zM243 498c142 0 219 -48 219 -208v-290h-143l-6 39l-3 1c-30 -26 -73 -49 -128 -49c-106 0 -160 65 -160 153c0 95 60 154 200 154h87c0 54 -23 75 -82 75
c-39 0 -82 -12 -119 -34l-61 110c45 25 130 49 196 49zM228 102c54 0 81 35 81 56v51h-74c-41 0 -64 -20 -64 -54s20 -53 57 -53z" />
    <glyph glyph-name="uni1EAF.alt" horiz-adv-x="507" 
d="M427 866l-117 -151h-107l74 150zM257 539c-93 0 -164 57 -172 157h114c3 -27 25 -49 58 -49c34 0 57 23 59 49h114c-7 -90 -68 -157 -173 -157zM243 498c142 0 219 -48 219 -208v-290h-143l-6 39l-3 1c-30 -26 -73 -49 -128 -49c-106 0 -160 65 -160 153
c0 95 60 154 200 154h87c0 54 -23 75 -82 75c-39 0 -82 -12 -119 -34l-61 110c45 25 130 49 196 49zM228 102c54 0 81 35 81 56v51h-74c-41 0 -64 -20 -64 -54s20 -53 57 -53z" />
    <glyph glyph-name="uni1EB7.alt" horiz-adv-x="507" 
d="M257 539c-93 0 -164 57 -172 157h114c3 -27 25 -49 58 -49c34 0 57 23 59 49h114c-7 -90 -68 -157 -173 -157zM243 498c142 0 219 -48 219 -208v-290h-143l-6 39l-3 1c-30 -26 -73 -49 -128 -49c-106 0 -160 65 -160 153c0 95 60 154 200 154h87c0 54 -23 75 -82 75
c-39 0 -82 -12 -119 -34l-61 110c45 25 130 49 196 49zM228 102c54 0 81 35 81 56v51h-74c-41 0 -64 -20 -64 -54s20 -53 57 -53zM258 -58c54 0 93 -39 93 -90c0 -48 -39 -88 -93 -88s-94 39 -94 88c0 51 40 90 94 90z" />
    <glyph glyph-name="uni1EB1.alt" horiz-adv-x="507" 
d="M317 715h-107l-117 151l150 -1zM257 539c-93 0 -164 57 -172 157h114c3 -27 25 -49 58 -49c34 0 57 23 59 49h114c-7 -90 -68 -157 -173 -157zM243 498c142 0 219 -48 219 -208v-290h-143l-6 39l-3 1c-30 -26 -73 -49 -128 -49c-106 0 -160 65 -160 153
c0 95 60 154 200 154h87c0 54 -23 75 -82 75c-39 0 -82 -12 -119 -34l-61 110c45 25 130 49 196 49zM228 102c54 0 81 35 81 56v51h-74c-41 0 -64 -20 -64 -54s20 -53 57 -53z" />
    <glyph glyph-name="uni1EB3.alt" horiz-adv-x="507" 
d="M231 789c-20 0 -41 -7 -62 -21l-26 59c25 25 76 51 133 51c61 0 97 -27 97 -79c0 -42 -36 -80 -82 -100h-83c28 22 51 46 50 69c0 13 -8 21 -27 21zM256 538c-96 0 -168 54 -177 150h117c4 -26 26 -47 60 -47c35 0 58 22 61 47h117c-8 -86 -70 -150 -178 -150zM243 498
c142 0 219 -48 219 -208v-290h-143l-6 39l-3 1c-30 -26 -73 -49 -128 -49c-106 0 -160 65 -160 153c0 95 60 154 200 154h87c0 54 -23 75 -82 75c-39 0 -82 -12 -119 -34l-61 110c45 25 130 49 196 49zM228 102c54 0 81 35 81 56v51h-74c-41 0 -64 -20 -64 -54
s20 -53 57 -53z" />
    <glyph glyph-name="uni1EB5.alt" horiz-adv-x="507" 
d="M203 763c-20 0 -36 -18 -48 -45l-91 36c22 57 61 110 124 110c32 0 54 -12 79 -25c23 -13 34 -18 44 -18c21 0 36 16 51 45l89 -28c-20 -59 -61 -118 -123 -118c-27 0 -51 11 -73 24c-21 12 -35 20 -52 19zM255 647c34 0 57 23 59 49h114c-7 -90 -68 -157 -173 -157
c-93 0 -164 57 -172 157h114c3 -27 25 -49 58 -49zM243 498c142 0 219 -48 219 -208v-290h-143l-6 39l-3 1c-30 -26 -73 -49 -128 -49c-106 0 -160 65 -160 153c0 95 60 154 200 154h87c0 54 -23 75 -82 75c-39 0 -82 -12 -119 -34l-61 110c45 25 130 49 196 49zM228 102
c54 0 81 35 81 56v51h-74c-41 0 -64 -20 -64 -54s20 -53 57 -53z" />
    <glyph glyph-name="uni01CE.alt" horiz-adv-x="507" 
d="M344 547h-169l-97 149h137l44 -72h2l44 72h133zM243 498c142 0 219 -48 219 -208v-290h-143l-6 39l-3 1c-30 -26 -73 -49 -128 -49c-106 0 -160 65 -160 153c0 95 60 154 200 154h87c0 54 -23 75 -82 75c-39 0 -82 -12 -119 -34l-61 110c45 25 130 49 196 49zM228 102
c54 0 81 35 81 56v51h-74c-41 0 -64 -20 -64 -54s20 -53 57 -53z" />
    <glyph glyph-name="acircumflex.alt" horiz-adv-x="507" 
d="M256 620l-45 -72h-133l95 149h168l97 -149h-136l-44 72h-2zM243 498c142 0 219 -48 219 -208v-290h-143l-6 39l-3 1c-30 -26 -73 -49 -128 -49c-106 0 -160 65 -160 153c0 95 60 154 200 154h87c0 54 -23 75 -82 75c-39 0 -82 -12 -119 -34l-61 110c45 25 130 49 196 49z
M228 102c54 0 81 35 81 56v51h-74c-41 0 -64 -20 -64 -54s20 -53 57 -53z" />
    <glyph glyph-name="uni1EA5.alt" horiz-adv-x="507" 
d="M474 802l149 1l-117 -151h-107zM255 620l-45 -72h-133l95 149h168l97 -149h-136l-44 72h-2zM243 498c142 0 219 -48 219 -208v-290h-143l-6 39l-3 1c-30 -26 -73 -49 -128 -49c-106 0 -160 65 -160 153c0 95 60 154 200 154h87c0 54 -23 75 -82 75
c-39 0 -82 -12 -119 -34l-61 110c45 25 130 49 196 49zM228 102c54 0 81 35 81 56v51h-74c-41 0 -64 -20 -64 -54s20 -53 57 -53z" />
    <glyph glyph-name="uni1EAD.alt" horiz-adv-x="507" 
d="M256 620l-45 -72h-133l95 149h168l97 -149h-136l-44 72h-2zM243 498c142 0 219 -48 219 -208v-290h-143l-6 39l-3 1c-30 -26 -73 -49 -128 -49c-106 0 -160 65 -160 153c0 95 60 154 200 154h87c0 54 -23 75 -82 75c-39 0 -82 -12 -119 -34l-61 110c45 25 130 49 196 49z
M228 102c54 0 81 35 81 56v51h-74c-41 0 -64 -20 -64 -54s20 -53 57 -53zM258 -58c54 0 93 -39 93 -90c0 -48 -39 -88 -93 -88s-94 39 -94 88c0 51 40 90 94 90z" />
    <glyph glyph-name="uni1EA7.alt" horiz-adv-x="507" 
d="M538 652h-107l-117 151l150 -1zM256 620l-45 -72h-133l95 149h168l97 -149h-136l-44 72h-2zM243 498c142 0 219 -48 219 -208v-290h-143l-6 39l-3 1c-30 -26 -73 -49 -128 -49c-106 0 -160 65 -160 153c0 95 60 154 200 154h87c0 54 -23 75 -82 75
c-39 0 -82 -12 -119 -34l-61 110c45 25 130 49 196 49zM228 102c54 0 81 35 81 56v51h-74c-41 0 -64 -20 -64 -54s20 -53 57 -53z" />
    <glyph glyph-name="uni1EA9.alt" horiz-adv-x="507" 
d="M479 824c61 0 97 -27 97 -79c0 -42 -36 -80 -82 -100h-83c28 22 51 46 50 69c0 13 -8 21 -27 21c-20 0 -41 -7 -62 -21l-26 59c25 25 76 51 133 51zM256 620l-45 -72h-133l95 149h168l97 -149h-136l-44 72h-2zM243 498c142 0 219 -48 219 -208v-290h-143l-6 39l-3 1
c-30 -26 -73 -49 -128 -49c-106 0 -160 65 -160 153c0 95 60 154 200 154h87c0 54 -23 75 -82 75c-39 0 -82 -12 -119 -34l-61 110c45 25 130 49 196 49zM228 102c54 0 81 35 81 56v51h-74c-41 0 -64 -20 -64 -54s20 -53 57 -53z" />
    <glyph glyph-name="uni1EAB.alt" horiz-adv-x="507" 
d="M205 770c-20 0 -36 -18 -48 -45l-91 36c22 57 61 110 124 110c32 0 54 -12 79 -25c23 -13 34 -18 44 -18c21 0 36 16 51 45l89 -28c-20 -59 -61 -118 -123 -118c-27 0 -51 11 -73 24c-21 12 -35 20 -52 19zM173 697h168l97 -149h-136l-44 72h-2l-45 -72h-133zM243 498
c142 0 219 -48 219 -208v-290h-143l-6 39l-3 1c-30 -26 -73 -49 -128 -49c-106 0 -160 65 -160 153c0 95 60 154 200 154h87c0 54 -23 75 -82 75c-39 0 -82 -12 -119 -34l-61 110c45 25 130 49 196 49zM228 102c54 0 81 35 81 56v51h-74c-41 0 -64 -20 -64 -54
s20 -53 57 -53z" />
    <glyph glyph-name="adieresis.alt" horiz-adv-x="507" 
d="M145 551c-54 0 -93 39 -93 89c0 48 39 87 93 87s94 -38 94 -87c0 -51 -40 -89 -94 -89zM369 551c-54 0 -93 39 -93 89c0 48 39 87 93 87c53 0 93 -38 93 -87c0 -51 -40 -89 -93 -89zM243 498c142 0 219 -48 219 -208v-290h-143l-6 39l-3 1c-30 -26 -73 -49 -128 -49
c-106 0 -160 65 -160 153c0 95 60 154 200 154h87c0 54 -23 75 -82 75c-39 0 -82 -12 -119 -34l-61 110c45 25 130 49 196 49zM228 102c54 0 81 35 81 56v51h-74c-41 0 -64 -20 -64 -54s20 -53 57 -53z" />
    <glyph glyph-name="uni1EA1.alt" horiz-adv-x="507" 
d="M243 498c142 0 219 -48 219 -208v-290h-143l-6 39l-3 1c-30 -26 -73 -49 -128 -49c-106 0 -160 65 -160 153c0 95 60 154 200 154h87c0 54 -23 75 -82 75c-39 0 -82 -12 -119 -34l-61 110c45 25 130 49 196 49zM228 102c54 0 81 35 81 56v51h-74c-41 0 -64 -20 -64 -54
s20 -53 57 -53zM258 -58c54 0 93 -39 93 -90c0 -48 -39 -88 -93 -88s-94 39 -94 88c0 51 40 90 94 90z" />
    <glyph glyph-name="agrave.alt" horiz-adv-x="507" 
d="M363 548h-142l-123 149l159 -1zM243 498c142 0 219 -48 219 -208v-290h-143l-6 39l-3 1c-30 -26 -73 -49 -128 -49c-106 0 -160 65 -160 153c0 95 60 154 200 154h87c0 54 -23 75 -82 75c-39 0 -82 -12 -119 -34l-61 110c45 25 130 49 196 49zM228 102c54 0 81 35 81 56
v51h-74c-41 0 -64 -20 -64 -54s20 -53 57 -53z" />
    <glyph glyph-name="uni1EA3.alt" horiz-adv-x="507" 
d="M242 648c-22 0 -45 -8 -68 -23l-28 65c27 27 83 55 145 55c66 0 106 -29 106 -86c0 -46 -40 -87 -90 -109h-91c31 24 56 50 55 75c0 14 -9 23 -29 23zM243 498c142 0 219 -48 219 -208v-290h-143l-6 39l-3 1c-30 -26 -73 -49 -128 -49c-106 0 -160 65 -160 153
c0 95 60 154 200 154h87c0 54 -23 75 -82 75c-39 0 -82 -12 -119 -34l-61 110c45 25 130 49 196 49zM228 102c54 0 81 35 81 56v51h-74c-41 0 -64 -20 -64 -54s20 -53 57 -53z" />
    <glyph glyph-name="amacron.alt" horiz-adv-x="507" 
d="M414 693v-120h-313v120h313zM243 498c142 0 219 -48 219 -208v-290h-143l-6 39l-3 1c-30 -26 -73 -49 -128 -49c-106 0 -160 65 -160 153c0 95 60 154 200 154h87c0 54 -23 75 -82 75c-39 0 -82 -12 -119 -34l-61 110c45 25 130 49 196 49zM228 102c54 0 81 35 81 56v51
h-74c-41 0 -64 -20 -64 -54s20 -53 57 -53z" />
    <glyph glyph-name="aogonek.alt" horiz-adv-x="507" 
d="M243 498c142 0 219 -48 219 -208v-290h-1c-58 -3 -94 -37 -94 -69c0 -25 15 -39 39 -39c21 0 27 3 37 5l7 -77c-21 -8 -51 -11 -76 -11c-74 0 -120 39 -120 94c0 33 19 74 64 102l-5 34l-3 1c-30 -26 -73 -49 -128 -49c-106 0 -160 65 -160 153c0 95 60 154 200 154h87
c0 54 -23 75 -82 75c-39 0 -82 -12 -119 -34l-61 110c45 25 130 49 196 49zM228 102c54 0 81 35 81 56v51h-74c-41 0 -64 -20 -64 -54s20 -53 57 -53z" />
    <glyph glyph-name="aring.alt" horiz-adv-x="507" 
d="M258 538c-60 0 -110 44 -110 106c0 58 44 105 110 105c61 0 110 -43 110 -105c0 -58 -44 -106 -110 -106zM258 681c-20 0 -35 -17 -35 -36c0 -20 15 -36 35 -36s36 17 36 36c0 20 -16 36 -36 36zM243 498c142 0 219 -48 219 -208v-290h-143l-6 39l-3 1
c-30 -26 -73 -49 -128 -49c-106 0 -160 65 -160 153c0 95 60 154 200 154h87c0 54 -23 75 -82 75c-39 0 -82 -12 -119 -34l-61 110c45 25 130 49 196 49zM228 102c54 0 81 35 81 56v51h-74c-41 0 -64 -20 -64 -54s20 -53 57 -53z" />
    <glyph glyph-name="aringacute.alt" horiz-adv-x="511" 
d="M258 538c-60 0 -110 44 -110 106c0 58 44 105 110 105c30 0 57 -10 76 -28l68 53h158l-196 -159c-12 -44 -51 -77 -106 -77zM258 681c-20 0 -35 -17 -35 -36c0 -20 15 -36 35 -36s36 17 36 36c0 20 -16 36 -36 36zM243 498c142 0 219 -48 219 -208v-290h-143l-6 39l-3 1
c-30 -26 -73 -49 -128 -49c-106 0 -160 65 -160 153c0 95 60 154 200 154h87c0 54 -23 75 -82 75c-39 0 -82 -12 -119 -34l-61 110c45 25 130 49 196 49zM228 102c54 0 81 35 81 56v51h-74c-41 0 -64 -20 -64 -54s20 -53 57 -53z" />
    <glyph glyph-name="atilde.alt" horiz-adv-x="507" 
d="M203 596c-24 0 -42 -20 -55 -48l-90 38c21 69 65 123 128 123c43 0 67 -14 88 -26c16 -10 31 -19 50 -19c24 0 43 20 55 46l90 -29c-21 -75 -65 -132 -125 -132c-38 0 -65 14 -88 27c-18 10 -35 20 -53 20zM243 498c142 0 219 -48 219 -208v-290h-143l-6 39l-3 1
c-30 -26 -73 -49 -128 -49c-106 0 -160 65 -160 153c0 95 60 154 200 154h87c0 54 -23 75 -82 75c-39 0 -82 -12 -119 -34l-61 110c45 25 130 49 196 49zM228 102c54 0 81 35 81 56v51h-74c-41 0 -64 -20 -64 -54s20 -53 57 -53z" />
    <glyph glyph-name="g.alt" horiz-adv-x="530" 
d="M249 -221c-163 0 -240 59 -240 143c0 50 31 88 59 113v3c-23 17 -36 42 -36 74s13 65 54 105c-25 29 -38 64 -38 105c0 103 83 176 210 176c35 0 68 -6 96 -17l88 89l86 -87l-83 -74c16 -25 24 -55 24 -87c0 -103 -84 -176 -211 -176c-32 0 -64 5 -91 15
c-16 -15 -24 -27 -24 -39c0 -11 6 -27 53 -27h94c111 0 225 -27 225 -148c0 -86 -71 -168 -266 -168zM258 255c38 0 62 28 62 67s-24 67 -62 67s-63 -28 -63 -67s25 -67 63 -67zM250 -107c67 0 110 19 110 50c0 28 -33 35 -89 35c-18 0 -52 0 -73 1c-17 1 -38 3 -47 4
c-12 -13 -15 -25 -15 -39c0 -30 32 -50 114 -51z" />
    <glyph glyph-name="gbreve.alt" horiz-adv-x="530" 
d="M257 538c-93 0 -164 57 -172 157h114c3 -27 25 -49 58 -49c34 0 57 23 59 49h114c-7 -90 -68 -157 -173 -157zM249 -221c-163 0 -240 59 -240 143c0 50 31 88 59 113v3c-23 17 -36 42 -36 74s13 65 54 105c-25 29 -38 64 -38 105c0 103 83 176 210 176c35 0 68 -6 96 -17
l88 89l86 -87l-83 -74c16 -25 24 -55 24 -87c0 -103 -84 -176 -211 -176c-32 0 -64 5 -91 15c-16 -15 -24 -27 -24 -39c0 -11 6 -27 53 -27h94c111 0 225 -27 225 -148c0 -86 -71 -168 -266 -168zM258 255c38 0 62 28 62 67s-24 67 -62 67s-63 -28 -63 -67s25 -67 63 -67z
M250 -107c67 0 110 19 110 50c0 28 -33 35 -89 35c-18 0 -52 0 -73 1c-17 1 -38 3 -47 4c-12 -13 -15 -25 -15 -39c0 -30 32 -50 114 -51z" />
    <glyph glyph-name="gcaron.alt" horiz-adv-x="530" 
d="M175 546l-97 149h137l44 -72h2l44 72h133l-94 -149h-169zM249 -221c-163 0 -240 59 -240 143c0 50 31 88 59 113v3c-23 17 -36 42 -36 74s13 65 54 105c-25 29 -38 64 -38 105c0 103 83 176 210 176c35 0 68 -6 96 -17l88 89l86 -87l-83 -74c16 -25 24 -55 24 -87
c0 -103 -84 -176 -211 -176c-32 0 -64 5 -91 15c-16 -15 -24 -27 -24 -39c0 -11 6 -27 53 -27h94c111 0 225 -27 225 -148c0 -86 -71 -168 -266 -168zM258 255c38 0 62 28 62 67s-24 67 -62 67s-63 -28 -63 -67s25 -67 63 -67zM250 -107c67 0 110 19 110 50
c0 28 -33 35 -89 35c-18 0 -52 0 -73 1c-17 1 -38 3 -47 4c-12 -13 -15 -25 -15 -39c0 -30 32 -50 114 -51z" />
    <glyph glyph-name="gcircumflex.alt" horiz-adv-x="530" 
d="M290 95c111 0 225 -27 225 -148c0 -86 -71 -168 -266 -168c-163 0 -240 59 -240 143c0 50 31 88 59 113v3c-23 17 -36 42 -36 74s13 65 54 105c-25 29 -38 64 -38 105c0 103 83 176 210 176c35 0 68 -6 96 -17l72 73h-129l-44 74l-44 -74h-135l108 153h137l112 -149
l11 12l86 -87l-83 -74c16 -25 24 -55 24 -87c0 -103 -84 -176 -211 -176c-32 0 -64 5 -91 15c-16 -15 -24 -27 -24 -39c0 -11 6 -27 53 -27h94zM258 389c-38 0 -63 -28 -63 -67s25 -67 63 -67s62 28 62 67s-24 67 -62 67zM250 -107c67 0 110 19 110 50c0 28 -33 35 -89 35
c-18 0 -52 0 -73 1c-17 1 -38 3 -47 4c-12 -13 -15 -25 -15 -39c0 -30 32 -50 114 -51z" />
    <glyph glyph-name="gcommaaccent.alt" horiz-adv-x="530" 
d="M343 733l28 -85c-38 -8 -54 -20 -54 -47c0 -11 2 -21 7 -36h-128c-3 14 -5 26 -5 42c0 81 55 124 152 126zM249 -221c-163 0 -240 59 -240 143c0 50 31 88 59 113v3c-23 17 -36 42 -36 74s13 65 54 105c-25 29 -38 64 -38 105c0 103 83 176 210 176c35 0 68 -6 96 -17
l88 89l86 -87l-83 -74c16 -25 24 -55 24 -87c0 -103 -84 -176 -211 -176c-32 0 -64 5 -91 15c-16 -15 -24 -27 -24 -39c0 -11 6 -27 53 -27h94c111 0 225 -27 225 -148c0 -86 -71 -168 -266 -168zM258 255c38 0 62 28 62 67s-24 67 -62 67s-63 -28 -63 -67s25 -67 63 -67z
M250 -107c67 0 110 19 110 50c0 28 -33 35 -89 35c-18 0 -52 0 -73 1c-17 1 -38 3 -47 4c-12 -13 -15 -25 -15 -39c0 -30 32 -50 114 -51z" />
    <glyph glyph-name="gdotaccent.alt" horiz-adv-x="530" 
d="M258 549c-54 0 -93 39 -93 90c0 48 39 88 93 88s94 -39 94 -88c0 -51 -40 -90 -94 -90zM249 -221c-163 0 -240 59 -240 143c0 50 31 88 59 113v3c-23 17 -36 42 -36 74s13 65 54 105c-25 29 -38 64 -38 105c0 103 83 176 210 176c35 0 68 -6 96 -17l88 89l86 -87l-83 -74
c16 -25 24 -55 24 -87c0 -103 -84 -176 -211 -176c-32 0 -64 5 -91 15c-16 -15 -24 -27 -24 -39c0 -11 6 -27 53 -27h94c111 0 225 -27 225 -148c0 -86 -71 -168 -266 -168zM258 255c38 0 62 28 62 67s-24 67 -62 67s-63 -28 -63 -67s25 -67 63 -67zM250 -107
c67 0 110 19 110 50c0 28 -33 35 -89 35c-18 0 -52 0 -73 1c-17 1 -38 3 -47 4c-12 -13 -15 -25 -15 -39c0 -30 32 -50 114 -51z" />
    <glyph glyph-name="uni1E21.alt" horiz-adv-x="530" 
d="M101 572v120h313v-120h-313zM249 -221c-163 0 -240 59 -240 143c0 50 31 88 59 113v3c-23 17 -36 42 -36 74s13 65 54 105c-25 29 -38 64 -38 105c0 103 83 176 210 176c35 0 68 -6 96 -17l88 89l86 -87l-83 -74c16 -25 24 -55 24 -87c0 -103 -84 -176 -211 -176
c-32 0 -64 5 -91 15c-16 -15 -24 -27 -24 -39c0 -11 6 -27 53 -27h94c111 0 225 -27 225 -148c0 -86 -71 -168 -266 -168zM258 255c38 0 62 28 62 67s-24 67 -62 67s-63 -28 -63 -67s25 -67 63 -67zM250 -107c67 0 110 19 110 50c0 28 -33 35 -89 35c-18 0 -52 0 -73 1
c-17 1 -38 3 -47 4c-12 -13 -15 -25 -15 -39c0 -30 32 -50 114 -51z" />
    <glyph glyph-name="f.calt" horiz-adv-x="347" 
d="M71 0v363h-47v126h47v78c0 121 63 179 161 179c32 0 62 -7 84 -15l-19 -122c-8 3 -15 5 -22 5c-25 0 -47 -10 -47 -54v-71h93v-126h-93v-363h-157z" />
    <glyph glyph-name="j.calt" horiz-adv-x="261" 
d="M131 550c-54 0 -93 39 -93 90c0 48 39 88 93 88s94 -39 94 -88c0 -51 -40 -90 -94 -90zM55 -207c-30 0 -53 3 -72 7l16 127c4 -1 16 -1 20 -1c29 0 34 22 34 63v500h156v-513c0 -122 -54 -183 -154 -183z" />
    <glyph glyph-name="uni0237.calt" horiz-adv-x="261" 
d="M55 -207c-30 0 -53 3 -72 7l16 127c4 -1 16 -1 20 -1c29 0 34 22 34 63v500h156v-513c0 -122 -54 -183 -154 -183z" />
    <glyph glyph-name="jcircumflex.calt" horiz-adv-x="261" 
d="M-49 548l95 149h168l97 -149h-136l-44 72h-2l-45 -72h-133zM55 -207c-30 0 -53 3 -72 7l16 127c4 -1 16 -1 20 -1c29 0 34 22 34 63v500h156v-513c0 -122 -54 -183 -154 -183z" />
    <glyph glyph-name="germandbls.calt" horiz-adv-x="778" 
d="M551 429c117 -44 205 -80 205 -211c0 -167 -143 -227 -244 -227c-74 0 -155 27 -224 85l75 138c53 -53 114 -75 151 -75c44 0 66 28 66 60c0 40 -24 58 -105 84c-42 14 -85 32 -130 62l118 218l-2 4c-42 4 -82 7 -115 7c-77 0 -130 -34 -130 -119l-1 -455h-164l1 461
c0 194 113 259 284 259c106 0 234 -19 345 -48z" />
    <glyph glyph-name="uni0162" unicode="&#x162;" horiz-adv-x="586" 
d="M378 0h-70l-17 -29l1 -2c70 -2 104 -30 104 -80c0 -48 -45 -82 -139 -82c-33 0 -50 3 -65 6v64c13 -4 27 -7 46 -7c20 0 44 6 44 27c0 18 -29 30 -73 30v38l19 35h-20v561h-185v149h541v-149h-186v-561z" />
    <glyph glyph-name="uni021A" unicode="&#x21a;" horiz-adv-x="586" 
d="M208 0v561h-185v149h541v-149h-186v-561h-170zM206 -221l-28 85c38 8 54 20 54 47c0 11 -2 21 -7 36h128c3 -14 5 -26 5 -42c0 -81 -55 -124 -152 -126z" />
    <glyph glyph-name="ordfeminine" unicode="&#xaa;" horiz-adv-x="390" 
d="M158 385c-83 0 -137 64 -137 155s54 153 131 153c35 0 66 -15 90 -42h2v36h106v-295h-106v28h-2c-20 -24 -49 -35 -84 -35zM187 485c30 0 54 21 54 54s-24 55 -54 55c-31 0 -56 -23 -56 -55c0 -33 25 -54 56 -54z" />
    <glyph glyph-name="ordmasculine" unicode="&#xba;" horiz-adv-x="379" 
d="M184 385c-96 0 -163 63 -163 155c0 90 67 153 163 153c97 0 164 -63 164 -153c0 -92 -67 -155 -164 -155zM184 484c31 0 53 24 53 56c0 31 -21 55 -53 55c-31 0 -52 -23 -52 -55c0 -33 22 -56 52 -56z" />
    <glyph glyph-name="uni0410" unicode="&#x410;" horiz-adv-x="694" 
d="M6 0l261 710h160l260 -710h-174l-42 128h-248l-42 -128h-175zM268 268h159l-79 240h-2z" />
    <glyph glyph-name="uni0411" unicode="&#x411;" horiz-adv-x="622" 
d="M64 0v710h474v-148h-311v-113h107c184 0 261 -81 261 -211c0 -146 -58 -238 -271 -238h-260zM227 145h102c61 0 93 27 93 83c0 55 -36 81 -92 81h-103v-164z" />
    <glyph glyph-name="uni0412" unicode="&#x412;" horiz-adv-x="633" 
d="M64 0v710h269c157 0 233 -64 233 -173c0 -61 -25 -125 -107 -157v-2c101 -26 144 -92 144 -180c0 -115 -75 -198 -234 -198h-305zM227 425h91c52 0 82 23 82 70c0 41 -22 69 -91 69h-82v-139zM227 145h114c56 0 89 26 89 76c0 48 -33 77 -95 77h-108v-153z" />
    <glyph glyph-name="uni0413" unicode="&#x413;" horiz-adv-x="561" 
d="M64 0v710h469v-149h-298v-561h-171z" />
    <glyph glyph-name="uni0403" unicode="&#x403;" horiz-adv-x="561" 
d="M185 761l108 140h159l-126 -140h-141zM64 0v710h469v-149h-298v-561h-171z" />
    <glyph glyph-name="uni0490" unicode="&#x490;" horiz-adv-x="561" 
d="M397 847h136v-286h-298v-561h-171v710h325z" />
    <glyph glyph-name="uni0414" unicode="&#x414;" horiz-adv-x="805" 
d="M784 150v-287h-136l-8 137h-485l-8 -137h-136v287h101c40 80 66 165 81 247c15 93 19 194 20 313h470v-560h101zM370 561c-3 -92 -10 -171 -26 -246c-13 -58 -31 -113 -56 -165h228v411h-146z" />
    <glyph glyph-name="uni0415" unicode="&#x415;" horiz-adv-x="585" 
d="M64 0v710h463v-149h-300v-136h237v-144h-237v-132h321v-149h-484z" />
    <glyph glyph-name="uni0400" unicode="&#x400;" horiz-adv-x="585" 
d="M265 760l-126 140h160l108 -140h-142zM64 0v710h463v-149h-300v-136h237v-144h-237v-132h321v-149h-484z" />
    <glyph glyph-name="uni0401" unicode="&#x401;" horiz-adv-x="585" 
d="M186 774c-54 0 -93 39 -93 89c0 48 39 87 93 87s94 -38 94 -87c0 -51 -40 -89 -94 -89zM410 774c-54 0 -93 39 -93 89c0 48 39 87 93 87c53 0 93 -38 93 -87c0 -51 -40 -89 -93 -89zM64 0v710h463v-149h-300v-136h237v-144h-237v-132h321v-149h-484z" />
    <glyph glyph-name="uni0416" unicode="&#x416;" horiz-adv-x="979" 
d="M8 0l219 391l-215 319h200l192 -301l2 1v300h161v-301l2 -1l188 302h200l-211 -316l225 -394h-200l-160 294l-44 -61v-233h-161v234l-44 61l-159 -295h-195z" />
    <glyph glyph-name="uni0417" unicode="&#x417;" horiz-adv-x="615" 
d="M295 -9c-103 0 -202 28 -274 107l100 125c55 -62 123 -78 178 -78c71 0 111 29 111 78c0 43 -32 72 -111 72h-109v137h92c68 0 101 28 101 71c0 42 -31 65 -94 65c-53 0 -102 -17 -153 -54l-81 128c59 48 149 78 244 78c162 0 253 -70 253 -174c0 -62 -32 -131 -110 -163
v-2c94 -24 141 -86 141 -172c0 -130 -101 -218 -288 -218z" />
    <glyph glyph-name="uni0418" unicode="&#x418;" horiz-adv-x="725" 
d="M64 0v710h167v-440h2l270 440h158v-710h-167v429l-2 1l-266 -430h-162z" />
    <glyph glyph-name="uni0419" unicode="&#x419;" horiz-adv-x="725" 
d="M365 756c-106 0 -162 48 -184 141l124 12c7 -33 24 -63 61 -63c36 0 53 30 60 63l124 -12c-21 -93 -79 -141 -185 -141zM64 0v710h167v-440h2l270 440h158v-710h-167v429l-2 1l-266 -430h-162z" />
    <glyph glyph-name="uni040D" unicode="&#x40d;" horiz-adv-x="725" 
d="M331 761l-126 140h160l108 -140h-142zM64 0v710h167v-440h2l270 440h158v-710h-167v429l-2 1l-266 -430h-162z" />
    <glyph glyph-name="uni048A" unicode="&#x48a;" horiz-adv-x="772" 
d="M365 756c-106 0 -162 48 -184 141l124 12c7 -33 24 -63 61 -63c36 0 53 30 60 63l124 -12c-21 -93 -79 -141 -185 -141zM661 149h114v-47l-89 -239h-116l36 137h-112v429l-2 1l-266 -430h-162v710h167v-440h2l270 440h158v-561z" />
    <glyph glyph-name="uni041A" unicode="&#x41a;" horiz-adv-x="662" 
d="M64 0v710h167v-272h2l206 272h211l-256 -308l265 -402h-205l-170 270l-53 -65v-205h-167z" />
    <glyph glyph-name="uni040C" unicode="&#x40c;" horiz-adv-x="662" 
d="M218 761l108 140h159l-126 -140h-141zM64 0v710h167v-272h2l206 272h211l-256 -308l265 -402h-205l-170 270l-53 -65v-205h-167z" />
    <glyph glyph-name="uni041B" unicode="&#x41b;" horiz-adv-x="730" 
d="M189 710h476v-710h-168v560h-148c-6 -126 -12 -240 -28 -329c-26 -150 -82 -237 -222 -237c-31 0 -68 5 -88 13l11 140c13 -3 29 -5 40 -5c63 0 87 67 103 166c18 108 20 258 24 402z" />
    <glyph glyph-name="uni041C" unicode="&#x41c;" horiz-adv-x="860" 
d="M65 0v710h168l197 -377h2l195 377h169v-710h-166v391h-2l-144 -260h-107l-144 261h-3v-392h-165z" />
    <glyph glyph-name="uni041D" unicode="&#x41d;" horiz-adv-x="715" 
d="M64 0v710h169v-294h250v294h168v-710h-168v268h-250v-268h-169z" />
    <glyph glyph-name="uni041E" unicode="&#x41e;" horiz-adv-x="808" 
d="M404 -9c-216 0 -366 150 -366 364s150 365 366 365c212 0 365 -147 365 -365c0 -217 -153 -364 -365 -364zM404 146c110 0 190 91 190 209s-80 209 -190 209c-112 0 -191 -93 -191 -209s79 -209 191 -209z" />
    <glyph glyph-name="uni041F" unicode="&#x41f;" horiz-adv-x="685" 
d="M64 0v710h557v-710h-169v560h-219v-560h-169z" />
    <glyph glyph-name="uni0420" unicode="&#x420;" horiz-adv-x="612" 
d="M64 0v710h270c175 0 253 -103 253 -245c0 -158 -105 -236 -266 -236h-94v-229h-163zM227 375h75c74 0 112 35 112 94c0 54 -34 94 -109 94h-78v-188z" />
    <glyph glyph-name="uni0421" unicode="&#x421;" horiz-adv-x="714" 
d="M405 -9c-204 0 -367 127 -367 363c0 203 132 366 366 366c100 0 208 -42 286 -137l-122 -105c-38 45 -95 82 -164 82c-103 0 -190 -76 -190 -206c0 -114 75 -203 191 -203c66 0 123 31 164 80l122 -105c-61 -75 -160 -135 -286 -135z" />
    <glyph glyph-name="uni0422" unicode="&#x422;" horiz-adv-x="586" 
d="M208 0v561h-185v149h541v-149h-186v-561h-170z" />
    <glyph glyph-name="uni0423" unicode="&#x423;" horiz-adv-x="658" 
d="M470 710h187l-234 -534c-45 -102 -85 -185 -206 -185c-53 0 -110 13 -141 34l55 142c29 -16 54 -22 74 -22c38 0 61 24 74 69l-275 496h191l153 -309h3z" />
    <glyph glyph-name="uni040E" unicode="&#x40e;" horiz-adv-x="658" 
d="M329 756c-106 0 -162 48 -184 141l124 12c7 -33 24 -63 61 -63c36 0 53 30 60 63l124 -12c-21 -93 -79 -141 -185 -141zM470 710h187l-234 -534c-45 -102 -85 -185 -206 -185c-53 0 -110 13 -141 34l55 142c29 -16 54 -22 74 -22c38 0 61 24 74 69l-275 496h191l153 -309
h3z" />
    <glyph glyph-name="uni0424" unicode="&#x424;" horiz-adv-x="870" 
d="M838 361c0 -162 -105 -278 -318 -289v-72h-166v72c-213 9 -322 127 -322 289c0 166 108 292 322 302v63h166v-63c213 -10 318 -137 318 -302zM514 210c106 10 155 72 155 153c0 82 -49 151 -155 161v-314zM204 364c0 -82 48 -145 157 -155v315
c-107 -9 -157 -77 -157 -160z" />
    <glyph glyph-name="uni0425" unicode="&#x425;" horiz-adv-x="706" 
d="M15 0l227 357l-218 353h193l136 -225h3l137 225h189l-218 -353l227 -357h-197l-141 229h-3l-142 -229h-193z" />
    <glyph glyph-name="uni0427" unicode="&#x427;" horiz-adv-x="650" 
d="M417 710h168v-710h-168v257c-43 -20 -108 -34 -167 -34c-142 0 -203 82 -203 228v259h169v-238c0 -79 27 -99 97 -99c34 0 71 6 104 22v315z" />
    <glyph glyph-name="uni0426" unicode="&#x426;" horiz-adv-x="738" 
d="M717 149v-286h-137l-8 137h-508v710h169v-561h215v561h168v-561h101z" />
    <glyph glyph-name="uni0428" unicode="&#x428;" horiz-adv-x="974" 
d="M741 710h168v-710h-845v710h169v-561h171v561h166v-561h171v561z" />
    <glyph glyph-name="uni0429" unicode="&#x429;" horiz-adv-x="1032" 
d="M909 149h101v-286h-137l-8 137h-801v710h169v-561h171v561h166v-561h171v561h168v-561z" />
    <glyph glyph-name="uni040F" unicode="&#x40f;" horiz-adv-x="685" 
d="M621 710v-710h-206l-4 -137h-136l-4 137h-207v710h169v-560h219v560h169z" />
    <glyph glyph-name="uni042C" unicode="&#x42c;" horiz-adv-x="623" 
d="M64 0v710h166v-244h112c184 0 261 -81 261 -223c0 -151 -57 -243 -271 -243h-268zM230 145h108c60 0 92 27 92 89c0 61 -35 87 -92 87h-108v-176z" />
    <glyph glyph-name="uni042A" unicode="&#x42a;" horiz-adv-x="731" 
d="M450 466c184 0 261 -81 261 -223c0 -151 -58 -243 -271 -243h-268v561h-165v149h331v-244h112zM445 145c61 0 93 27 93 89c0 61 -36 87 -92 87h-108v-176h107z" />
    <glyph glyph-name="uni042B" unicode="&#x42b;" horiz-adv-x="890" 
d="M64 0v710h165v-244h98c185 0 262 -81 262 -223c0 -151 -58 -243 -271 -243h-254zM657 0v710h168v-710h-168zM229 145h94c60 0 93 27 93 89c0 61 -36 87 -93 87h-94v-176z" />
    <glyph glyph-name="uni0409" unicode="&#x409;" horiz-adv-x="1057" 
d="M775 466c184 0 261 -81 261 -223c0 -151 -57 -243 -271 -243h-268v560h-151c-7 -126 -15 -240 -32 -326c-28 -153 -87 -240 -222 -240c-24 0 -61 5 -81 13l11 139c13 -3 29 -6 40 -6c63 0 87 67 103 168c18 108 21 258 25 402h473v-244h112zM771 145c60 0 92 27 92 89
c0 61 -35 87 -92 87h-108v-176h108z" />
    <glyph glyph-name="uni040A" unicode="&#x40a;" horiz-adv-x="1044" 
d="M763 451c184 0 261 -81 261 -214c0 -145 -57 -237 -271 -237h-278v290h-242v-290h-169v710h169v-272h242v272h169v-259h119zM759 145c61 0 92 29 92 82s-33 80 -92 80h-115v-162h115z" />
    <glyph glyph-name="uni0405" unicode="&#x405;" horiz-adv-x="570" 
d="M280 -9c-91 0 -185 35 -261 113l98 119c54 -59 119 -84 168 -84c56 0 80 28 80 60c0 39 -25 56 -105 83c-108 37 -216 88 -216 228c0 118 101 207 233 209c93 2 178 -34 246 -92l-94 -122c-61 48 -105 67 -145 67c-41 0 -66 -21 -66 -55c-1 -34 25 -52 102 -82
c125 -48 221 -80 221 -217c0 -167 -143 -227 -261 -227z" />
    <glyph glyph-name="uni0404" unicode="&#x404;" horiz-adv-x="715" 
d="M575 218l118 -100c-62 -76 -162 -127 -289 -127c-204 0 -366 122 -366 363c0 208 131 366 369 366c98 0 193 -32 272 -111l-111 -111c-36 37 -94 66 -157 66c-106 0 -178 -47 -200 -140h296l1 -136h-299c18 -89 87 -142 195 -142c72 0 129 25 171 72z" />
    <glyph glyph-name="uni042D" unicode="&#x42d;" horiz-adv-x="708" 
d="M307 720c233 0 363 -151 363 -366c0 -248 -155 -363 -353 -363c-106 0 -221 33 -293 106l91 126c57 -57 132 -77 200 -77c111 0 171 57 187 142h-301l1 136h298c-21 88 -90 140 -194 141c-60 0 -119 -17 -172 -53l-92 123c64 50 169 85 265 85z" />
    <glyph glyph-name="uni0406" unicode="&#x406;" horiz-adv-x="308" 
d="M68 0v710h171v-710h-171z" />
    <glyph glyph-name="uni0407" unicode="&#x407;" horiz-adv-x="308" 
d="M41 774c-54 0 -93 39 -93 89c0 48 39 87 93 87s94 -38 94 -87c0 -51 -40 -89 -94 -89zM265 774c-54 0 -93 39 -93 89c0 48 39 87 93 87c53 0 93 -38 93 -87c0 -51 -40 -89 -93 -89zM68 0v710h171v-710h-171z" />
    <glyph glyph-name="uni0408" unicode="&#x408;" horiz-adv-x="502" 
d="M218 -9c-85 0 -156 33 -205 95l97 115c22 -29 55 -54 94 -54s70 24 70 102v461h170v-458c0 -160 -65 -261 -226 -261z" />
    <glyph glyph-name="uni040B" unicode="&#x40b;" horiz-adv-x="778" 
d="M540 460c133 0 191 -82 191 -228v-232h-168v209c0 75 -28 95 -88 95c-31 0 -71 -6 -108 -24v-280h-166v561h-187v149h542v-149h-189v-140c43 22 109 39 173 39z" />
    <glyph glyph-name="uni042E" unicode="&#x42e;" horiz-adv-x="1062" 
d="M673 720c217 0 353 -146 353 -365c0 -218 -136 -364 -353 -364c-174 0 -307 111 -341 277h-102v-268h-168v710h168v-294h98c26 183 163 304 345 304zM672 146c113 0 180 86 180 209s-67 209 -180 209c-98 0 -178 -87 -178 -212c0 -119 80 -206 178 -206z" />
    <glyph glyph-name="uni042F" unicode="&#x42f;" horiz-adv-x="656" 
d="M16 0l166 256c-85 40 -127 110 -127 204c0 145 83 250 257 250h280v-710h-163v222h-82l-137 -222h-194zM344 368h85v195h-87c-77 0 -114 -40 -114 -100c0 -61 45 -95 116 -95z" />
    <glyph glyph-name="uni0402" unicode="&#x402;" horiz-adv-x="779" 
d="M517 456c151 0 242 -84 242 -232s-100 -233 -235 -233c-38 0 -62 4 -88 10l11 132c18 -3 32 -5 48 -5c59 0 92 28 92 88c0 57 -38 90 -114 90c-35 0 -74 -8 -106 -24v-282h-166v561h-187v149h541v-149h-188v-135c39 17 98 30 150 30z" />
    <glyph glyph-name="uni0462" unicode="&#x462;" horiz-adv-x="715" 
d="M445 436c186 0 250 -79 250 -206c0 -138 -55 -230 -266 -230h-273v507h-149v133h149v70h163v-70h208v-133h-208v-71h126zM429 143c67 0 93 31 93 80c0 52 -28 80 -89 80h-114v-160h110z" />
    <glyph glyph-name="uni0472" unicode="&#x472;" horiz-adv-x="808" 
d="M404 720c212 0 365 -147 365 -365c0 -217 -153 -365 -365 -365c-216 0 -366 151 -366 365s150 365 366 365zM404 571c-99 0 -173 -60 -192 -152h383c-19 93 -93 152 -191 152zM404 139c97 0 170 57 190 149h-381c20 -91 93 -149 191 -149z" />
    <glyph glyph-name="uni0474" unicode="&#x474;" horiz-adv-x="744" 
d="M272 0l-262 710h181l154 -484h1l84 314c37 141 102 178 188 178c53 0 98 -12 137 -31l-37 -139c-21 10 -44 18 -64 18c-47 0 -64 -44 -87 -117l-148 -449h-147z" />
    <glyph glyph-name="uni0492" unicode="&#x492;" horiz-adv-x="607" 
d="M579 562h-301v-169h175v-116h-175v-277h-168v277h-95v116h95v317h469v-148z" />
    <glyph glyph-name="uni0494" unicode="&#x494;" horiz-adv-x="642" 
d="M357 399c164 0 258 -111 258 -294c0 -207 -105 -309 -260 -309c-35 0 -63 4 -84 9l11 127c16 -2 33 -4 46 -4c69 0 116 54 116 165c0 112 -59 157 -132 157c-26 0 -54 -5 -82 -16v-234h-166v710h469v-148h-303v-183c36 13 82 20 127 20z" />
    <glyph glyph-name="uni0496" unicode="&#x496;" horiz-adv-x="1027" 
d="M886 149h122v-286h-136l-8 137h-93l-160 294l-44 -61v-233h-161v234l-44 61l-159 -295h-195l219 391l-215 319h200l192 -301l2 1v300h161v-301l2 -1l188 302h200l-211 -316z" />
    <glyph glyph-name="uni0498" unicode="&#x498;" horiz-adv-x="615" 
d="M583 209c0 -119 -85 -203 -243 -216l-4 -16c38 -11 83 -33 83 -77c0 -51 -37 -92 -131 -92c-30 0 -55 4 -73 8v67c16 -4 32 -6 46 -6c24 0 42 7 42 28c0 18 -22 28 -63 31l17 56c-89 7 -173 37 -236 106l100 125c55 -62 123 -78 178 -78c71 0 111 29 111 78
c0 43 -32 72 -111 72h-109v137h92c68 0 101 28 101 71c0 42 -31 65 -94 65c-53 0 -102 -17 -153 -54l-81 128c59 48 149 78 244 78c162 0 253 -70 253 -174c0 -62 -32 -131 -110 -163v-2c94 -24 141 -86 141 -172z" />
    <glyph glyph-name="uni049A" unicode="&#x49a;" horiz-adv-x="710" 
d="M561 149h129v-286h-136l-8 137h-92l-170 270l-53 -65v-205h-167v710h167v-272h2l206 272h211l-256 -308z" />
    <glyph glyph-name="uni049C" unicode="&#x49c;" horiz-adv-x="750" 
d="M551 0l-151 296h-8v-179h-108v182l-58 1v-300h-167v710h167v-305l58 2v190h108v-176l152 289h193l-205 -333l216 -377h-197z" />
    <glyph glyph-name="uni049E" unicode="&#x49e;" horiz-adv-x="676" 
d="M429 369l244 -369h-205l-162 258l-62 -93v-165h-166v531h-72v113h72v66h160v-66h86v-113h-86v-174h1l224 353h201z" />
    <glyph glyph-name="uni04A0" unicode="&#x4a0;" horiz-adv-x="770" 
d="M502 402l265 -402h-205l-170 270l-54 -65v-205h-166v561h-165v149h331v-272h3l205 272h212z" />
    <glyph glyph-name="uni04A2" unicode="&#x4a2;" horiz-adv-x="773" 
d="M651 149h101v-286h-137l-8 137h-124v268h-250v-268h-169v710h169v-294h250v294h168v-561z" />
    <glyph glyph-name="uni04A4" unicode="&#x4a4;" horiz-adv-x="848" 
d="M820 710v-147h-182v-563h-169v268h-236v-268h-169v710h169v-294h236v294h351z" />
    <glyph glyph-name="uni04A6" unicode="&#x4a6;" horiz-adv-x="1018" 
d="M733 399c164 0 258 -111 258 -294c0 -207 -105 -309 -260 -309c-35 0 -63 4 -84 9l11 127c16 -2 33 -4 46 -4c69 0 116 54 116 165c0 112 -59 157 -132 157c-26 0 -55 -5 -83 -16v-234h-165v560h-207v-560h-169v710h541v-331c36 12 83 20 128 20z" />
    <glyph glyph-name="uni0524" unicode="&#x524;" horiz-adv-x="743" 
d="M621 149h101v-286h-137l-8 137h-125v560h-219v-560h-169v710h557v-561z" />
    <glyph glyph-name="uni04A8" unicode="&#x4a8;" horiz-adv-x="865" 
d="M856 17c-19 -18 -63 -27 -107 -27c-60 0 -121 20 -156 44c-48 -26 -114 -44 -184 -44c-232 0 -379 148 -379 372c0 205 142 358 360 358c30 0 62 -4 89 -10l-61 -147c-7 2 -15 2 -23 2c-117 0 -190 -99 -190 -210c0 -134 90 -227 229 -227c12 0 23 1 34 2l1 3
c-55 62 -88 138 -88 235c0 142 85 251 215 251c149 0 222 -114 222 -257c0 -94 -38 -177 -105 -235l1 -3c5 -1 11 -1 16 -1c41 0 81 12 108 31zM588 471c-37 0 -58 -55 -58 -122c1 -74 22 -131 51 -177h4c35 41 59 104 59 178c0 70 -21 121 -56 121z" />
    <glyph glyph-name="uni04AA" unicode="&#x4aa;" horiz-adv-x="714" 
d="M691 126c-58 -71 -151 -129 -268 -135l-4 -14c38 -11 83 -33 83 -77c0 -51 -37 -92 -131 -92c-30 0 -55 4 -73 8v67c16 -4 32 -6 46 -6c24 0 42 7 42 28c0 18 -22 28 -63 31l18 59c-173 24 -303 148 -303 359c0 203 132 366 366 366c100 0 208 -42 286 -137l-122 -105
c-38 45 -95 82 -164 82c-103 0 -190 -76 -190 -206c0 -114 75 -203 191 -203c66 0 123 31 164 80z" />
    <glyph glyph-name="uni04AC" unicode="&#x4ac;" horiz-adv-x="586" 
d="M564 561h-186v-412h99v-286h-137l-8 137h-124v561h-185v149h541v-149z" />
    <glyph glyph-name="uni04AE" unicode="&#x4ae;" horiz-adv-x="636" 
d="M232 0v309l-231 401h191l125 -236h2l123 236h193l-233 -401v-309h-170z" />
    <glyph glyph-name="uni04B0" unicode="&#x4b0;" horiz-adv-x="636" 
d="M635 710l-205 -352h116v-117h-144v-241h-170v241h-142v117h114l-203 352h191l125 -236h2l123 236h193z" />
    <glyph glyph-name="uni04B2" unicode="&#x4b2;" horiz-adv-x="754" 
d="M596 149h124v-286h-136l-8 137h-82l-141 229h-3l-142 -229h-193l227 357l-218 353h193l136 -225h3l137 225h189l-218 -353z" />
    <glyph glyph-name="uni04B4" unicode="&#x4b4;" horiz-adv-x="874" 
d="M752 149h101v-286h-137l-8 137h-508v564h-186v147h490v-147h-135v-415h215v561h168v-561z" />
    <glyph glyph-name="uni04B6" unicode="&#x4b6;" horiz-adv-x="708" 
d="M585 149h101v-286h-137l-8 137h-124v257c-43 -20 -108 -34 -167 -34c-142 0 -203 82 -203 228v259h169v-238c0 -79 27 -99 97 -99c34 0 71 6 104 22v315h168v-561z" />
    <glyph glyph-name="uni04B8" unicode="&#x4b8;" horiz-adv-x="686" 
d="M457 710h164v-710h-168v260c-16 -7 -37 -13 -59 -18v-129h-108v113c-13 -1 -25 -1 -36 -1c-142 0 -203 82 -203 226v259h166v-245c0 -68 20 -92 73 -98v133h108v-130c22 3 44 7 63 14v326z" />
    <glyph glyph-name="uni04BA" unicode="&#x4ba;" horiz-adv-x="657" 
d="M407 493c143 0 203 -82 203 -229v-264h-168v248c0 74 -31 95 -99 95c-30 0 -73 -9 -110 -25v-318h-169v710h169v-257c45 21 114 40 174 40z" />
    <glyph glyph-name="uni04BC" unicode="&#x4bc;" horiz-adv-x="898" 
d="M866 381c0 -27 -2 -52 -5 -73h-516c16 -108 90 -163 195 -163c82 0 144 33 183 77l120 -98c-59 -73 -166 -133 -312 -133c-215 0 -341 130 -358 317c-109 2 -182 40 -182 136c0 27 5 59 17 95l123 -13c-7 -20 -10 -36 -10 -49c0 -36 26 -40 57 -41
c29 171 150 284 342 284c215 0 346 -144 346 -339zM523 574c-89 0 -156 -46 -176 -131h347c-14 77 -77 131 -171 131z" />
    <glyph glyph-name="uni04BE" unicode="&#x4be;" horiz-adv-x="898" 
d="M866 381c0 -27 -2 -52 -5 -73h-516c16 -108 90 -163 195 -163c82 0 144 33 183 77l120 -98c-50 -61 -133 -114 -246 -129l-4 -132h-136l-4 134c-167 28 -265 148 -280 311c-109 2 -182 40 -182 136c0 27 5 59 17 95l123 -13c-7 -20 -10 -36 -10 -49c0 -36 26 -40 57 -41
c29 171 150 284 342 284c215 0 346 -144 346 -339zM523 574c-89 0 -156 -46 -176 -131h347c-14 77 -77 131 -171 131z" />
    <glyph glyph-name="uni04C0" unicode="&#x4c0;" horiz-adv-x="308" 
d="M68 0v710h171v-710h-171z" />
    <glyph glyph-name="uni04C1" unicode="&#x4c1;" horiz-adv-x="979" 
d="M487 756c-106 0 -162 48 -184 141l124 12c7 -33 24 -63 61 -63c36 0 53 30 60 63l124 -12c-21 -93 -79 -141 -185 -141zM8 0l219 391l-215 319h200l192 -301l2 1v300h161v-301l2 -1l188 302h200l-211 -316l225 -394h-200l-160 294l-44 -61v-233h-161v234l-44 61
l-159 -295h-195z" />
    <glyph glyph-name="uni04C3" unicode="&#x4c3;" horiz-adv-x="673" 
d="M394 400c146 -18 229 -126 229 -295c0 -206 -100 -309 -262 -309c-35 0 -63 4 -84 9l11 127c16 -2 33 -4 46 -4c69 0 118 54 118 165c0 119 -60 174 -142 174c-23 0 -50 -5 -79 -15v-252h-167v710h167v-272h3l205 272h211z" />
    <glyph glyph-name="uni04C5" unicode="&#x4c5;" horiz-adv-x="777" 
d="M665 149h114v-47l-89 -239h-116l36 137h-113v560h-148c-6 -126 -12 -240 -28 -329c-26 -150 -82 -237 -222 -237c-31 0 -68 5 -88 13l11 140c13 -3 29 -5 40 -5c63 0 87 67 103 166c18 108 20 258 24 402h476v-561z" />
    <glyph glyph-name="uni04C7" unicode="&#x4c7;" horiz-adv-x="715" 
d="M651 710v-711c0 -152 -88 -206 -207 -206c-33 0 -63 4 -100 12l12 126c18 -5 36 -7 51 -7c52 0 75 28 75 73v271h-249v-268h-169v710h169v-294h249v294h169z" />
    <glyph glyph-name="uni04C9" unicode="&#x4c9;" horiz-adv-x="762" 
d="M651 149h114v-47l-89 -239h-116l36 137h-113v268h-250v-268h-169v710h169v-294h250v294h168v-561z" />
    <glyph glyph-name="uni04CB" unicode="&#x4cb;" horiz-adv-x="650" 
d="M417 710h168v-710h-124l-9 -137h-136v266h101v128c-43 -20 -108 -34 -167 -34c-142 0 -203 82 -203 228v259h169v-238c0 -79 27 -99 97 -99c34 0 71 6 104 22v315z" />
    <glyph glyph-name="uni04CD" unicode="&#x4cd;" horiz-adv-x="907" 
d="M796 149h114v-47l-89 -239h-116l36 137h-111v391h-2l-144 -260h-107l-144 261h-3v-392h-165v710h168l197 -377h2l195 377h169v-561z" />
    <glyph glyph-name="uni04D0" unicode="&#x4d0;" horiz-adv-x="694" 
d="M347 756c-106 0 -162 48 -184 141l124 12c7 -33 24 -63 61 -63c36 0 53 30 60 63l124 -12c-21 -93 -79 -141 -185 -141zM6 0l261 710h160l260 -710h-174l-42 128h-248l-42 -128h-175zM268 268h159l-79 240h-2z" />
    <glyph glyph-name="uni04D2" unicode="&#x4d2;" horiz-adv-x="694" 
d="M234 775c-54 0 -93 39 -93 89c0 48 39 87 93 87s94 -38 94 -87c0 -51 -40 -89 -94 -89zM458 775c-54 0 -93 39 -93 89c0 48 39 87 93 87c53 0 93 -38 93 -87c0 -51 -40 -89 -93 -89zM6 0l261 710h160l260 -710h-174l-42 128h-248l-42 -128h-175zM268 268h159l-79 240h-2z
" />
    <glyph glyph-name="uni04D4" unicode="&#x4d4;" horiz-adv-x="940" 
d="M2 0l322 710h565v-149h-303v-136h245v-145h-245v-131h324v-149h-485v128h-191l-56 -128h-176zM292 262h139v312h-2z" />
    <glyph glyph-name="uni04D6" unicode="&#x4d6;" horiz-adv-x="585" 
d="M299 755c-106 0 -162 48 -184 141l124 12c7 -33 24 -63 61 -63c36 0 53 30 60 63l124 -12c-21 -93 -79 -141 -185 -141zM64 0v710h463v-149h-300v-136h237v-144h-237v-132h321v-149h-484z" />
    <glyph glyph-name="uni04D8" unicode="&#x4d8;" horiz-adv-x="765" 
d="M363 720c235 0 364 -145 364 -365c0 -242 -152 -364 -351 -364c-223 0 -343 142 -345 335c0 32 2 55 6 74h516c-14 113 -87 166 -202 166c-62 0 -121 -16 -180 -53l-92 123c70 53 178 85 284 84zM374 136c96 0 160 49 176 129h-349c8 -72 73 -129 173 -129z" />
    <glyph glyph-name="uni04DA" unicode="&#x4da;" horiz-adv-x="765" 
d="M274 775c-54 0 -93 39 -93 89c0 48 39 87 93 87s94 -38 94 -87c0 -51 -40 -89 -94 -89zM498 775c-54 0 -93 39 -93 89c0 48 39 87 93 87c53 0 93 -38 93 -87c0 -51 -40 -89 -93 -89zM363 720c235 0 364 -145 364 -365c0 -242 -152 -364 -351 -364
c-223 0 -343 142 -345 335c0 32 2 55 6 74h516c-14 113 -87 166 -202 166c-62 0 -121 -16 -180 -53l-92 123c70 53 178 85 284 84zM374 136c96 0 160 49 176 129h-349c8 -72 73 -129 173 -129z" />
    <glyph glyph-name="uni04DC" unicode="&#x4dc;" horiz-adv-x="979" 
d="M374 775c-54 0 -93 39 -93 89c0 48 39 87 93 87s94 -38 94 -87c0 -51 -40 -89 -94 -89zM598 775c-54 0 -93 39 -93 89c0 48 39 87 93 87c53 0 93 -38 93 -87c0 -51 -40 -89 -93 -89zM8 0l219 391l-215 319h200l192 -301l2 1v300h161v-301l2 -1l188 302h200l-211 -316
l225 -394h-200l-160 294l-44 -61v-233h-161v234l-44 61l-159 -295h-195z" />
    <glyph glyph-name="uni04DE" unicode="&#x4de;" horiz-adv-x="615" 
d="M193 775c-54 0 -93 39 -93 89c0 48 39 87 93 87s94 -38 94 -87c0 -51 -40 -89 -94 -89zM417 775c-54 0 -93 39 -93 89c0 48 39 87 93 87c53 0 93 -38 93 -87c0 -51 -40 -89 -93 -89zM295 -9c-103 0 -202 28 -274 107l100 125c55 -62 123 -78 178 -78c71 0 111 29 111 78
c0 43 -32 72 -111 72h-109v137h92c68 0 101 28 101 71c0 42 -31 65 -94 65c-53 0 -102 -17 -153 -54l-81 128c59 48 149 78 244 78c162 0 253 -70 253 -174c0 -62 -32 -131 -110 -163v-2c94 -24 141 -86 141 -172c0 -130 -101 -218 -288 -218z" />
    <glyph glyph-name="uni04E0" unicode="&#x4e0;" horiz-adv-x="599" 
d="M378 433c146 -10 203 -117 203 -208c0 -150 -115 -235 -284 -235c-103 0 -203 29 -276 108l97 125c56 -60 127 -79 182 -79c64 0 107 29 107 83c0 51 -38 81 -150 81h-86l-1 76l164 175l-2 3h-266v148h479v-103z" />
    <glyph glyph-name="uni04E2" unicode="&#x4e2;" horiz-adv-x="725" 
d="M208 777v114h313v-114h-313zM64 0v710h167v-440h2l270 440h158v-710h-167v429l-2 1l-266 -430h-162z" />
    <glyph glyph-name="uni04E4" unicode="&#x4e4;" horiz-adv-x="725" 
d="M252 775c-54 0 -93 39 -93 89c0 48 39 87 93 87s94 -38 94 -87c0 -51 -40 -89 -94 -89zM476 775c-54 0 -93 39 -93 89c0 48 39 87 93 87c53 0 93 -38 93 -87c0 -51 -40 -89 -93 -89zM64 0v710h167v-440h2l270 440h158v-710h-167v429l-2 1l-266 -430h-162z" />
    <glyph glyph-name="uni04E6" unicode="&#x4e6;" horiz-adv-x="808" 
d="M292 775c-54 0 -93 39 -93 89c0 48 39 87 93 87s94 -38 94 -87c0 -51 -40 -89 -94 -89zM516 775c-54 0 -93 39 -93 89c0 48 39 87 93 87c53 0 93 -38 93 -87c0 -51 -40 -89 -93 -89zM404 -9c-216 0 -366 150 -366 364s150 365 366 365c212 0 365 -147 365 -365
c0 -217 -153 -364 -365 -364zM404 146c110 0 190 91 190 209s-80 209 -190 209c-112 0 -191 -93 -191 -209s79 -209 191 -209z" />
    <glyph glyph-name="uni04E8" unicode="&#x4e8;" horiz-adv-x="808" 
d="M404 720c212 0 365 -147 365 -365c0 -217 -153 -365 -365 -365c-216 0 -366 151 -366 365s150 365 366 365zM404 571c-99 0 -173 -60 -192 -152h383c-19 93 -93 152 -191 152zM404 139c97 0 170 57 190 149h-381c20 -91 93 -149 191 -149z" />
    <glyph glyph-name="uni04EA" unicode="&#x4ea;" horiz-adv-x="808" 
d="M292 775c-54 0 -93 39 -93 89c0 48 39 87 93 87s94 -38 94 -87c0 -51 -40 -89 -94 -89zM516 775c-54 0 -93 39 -93 89c0 48 39 87 93 87c53 0 93 -38 93 -87c0 -51 -40 -89 -93 -89zM404 720c212 0 365 -147 365 -365c0 -217 -153 -365 -365 -365
c-216 0 -366 151 -366 365s150 365 366 365zM404 571c-99 0 -173 -60 -192 -152h383c-19 93 -93 152 -191 152zM404 139c97 0 170 57 190 149h-381c20 -91 93 -149 191 -149z" />
    <glyph glyph-name="uni04EC" unicode="&#x4ec;" horiz-adv-x="708" 
d="M221 775c-54 0 -93 39 -93 89c0 48 39 87 93 87s94 -38 94 -87c0 -51 -40 -89 -94 -89zM445 775c-54 0 -93 39 -93 89c0 48 39 87 93 87c53 0 93 -38 93 -87c0 -51 -40 -89 -93 -89zM307 720c233 0 363 -151 363 -366c0 -248 -155 -363 -353 -363
c-106 0 -221 33 -293 106l91 126c57 -57 132 -77 200 -77c111 0 171 57 187 142h-301l1 136h298c-21 88 -90 140 -194 141c-60 0 -119 -17 -172 -53l-92 123c64 50 169 85 265 85z" />
    <glyph glyph-name="uni04EE" unicode="&#x4ee;" horiz-adv-x="658" 
d="M485 891v-114h-313v114h313zM470 710h187l-234 -534c-45 -102 -85 -185 -206 -185c-53 0 -110 13 -141 34l55 142c29 -16 54 -22 74 -22c38 0 61 24 74 69l-275 496h191l153 -309h3z" />
    <glyph glyph-name="uni04F0" unicode="&#x4f0;" horiz-adv-x="658" 
d="M216 775c-54 0 -93 39 -93 89c0 48 39 87 93 87s94 -38 94 -87c0 -51 -40 -89 -94 -89zM440 775c-54 0 -93 39 -93 89c0 48 39 87 93 87c53 0 93 -38 93 -87c0 -51 -40 -89 -93 -89zM470 710h187l-234 -534c-45 -102 -85 -185 -206 -185c-53 0 -110 13 -141 34l55 142
c29 -16 54 -22 74 -22c38 0 61 24 74 69l-275 496h191l153 -309h3z" />
    <glyph glyph-name="uni04F2" unicode="&#x4f2;" horiz-adv-x="658" 
d="M415 931l-123 -150h-142l110 149zM514 781h-142l110 149l155 1zM470 710h187l-234 -534c-45 -102 -85 -185 -206 -185c-53 0 -110 13 -141 34l55 142c29 -16 54 -22 74 -22c38 0 61 24 74 69l-275 496h191l153 -309h3z" />
    <glyph glyph-name="uni04F4" unicode="&#x4f4;" horiz-adv-x="650" 
d="M212 775c-54 0 -93 39 -93 89c0 48 39 87 93 87s94 -38 94 -87c0 -51 -40 -89 -94 -89zM436 775c-54 0 -93 39 -93 89c0 48 39 87 93 87c53 0 93 -38 93 -87c0 -51 -40 -89 -93 -89zM417 710h168v-710h-168v257c-43 -20 -108 -34 -167 -34c-142 0 -203 82 -203 228v259
h169v-238c0 -79 27 -99 97 -99c34 0 71 6 104 22v315z" />
    <glyph glyph-name="uni04F6" unicode="&#x4f6;" horiz-adv-x="561" 
d="M533 561h-298v-412h101v-286h-137l-8 137h-127v710h469v-149z" />
    <glyph glyph-name="uni04F8" unicode="&#x4f8;" horiz-adv-x="890" 
d="M332 775c-54 0 -93 39 -93 89c0 48 39 87 93 87s94 -38 94 -87c0 -51 -40 -89 -94 -89zM556 775c-54 0 -93 39 -93 89c0 48 39 87 93 87c53 0 93 -38 93 -87c0 -51 -40 -89 -93 -89zM64 0v710h165v-244h98c185 0 262 -81 262 -223c0 -151 -58 -243 -271 -243h-254zM657 0
v710h168v-710h-168zM229 145h94c60 0 93 27 93 89c0 61 -36 87 -93 87h-94v-176z" />
    <glyph glyph-name="uni04FA" unicode="&#x4fa;" horiz-adv-x="607" 
d="M579 562h-301v-169h175v-116h-175v-281c0 -149 -78 -203 -179 -203c-27 0 -55 4 -92 12l12 126c16 -5 29 -7 40 -7c36 0 50 22 50 64v289h-94v116h94v184h1v133h469v-148z" />
    <glyph glyph-name="uni04FC" unicode="&#x4fc;" horiz-adv-x="697" 
d="M454 -207c-33 0 -67 4 -99 12l11 126c19 -5 36 -7 51 -7c46 0 70 23 70 58c0 31 -13 63 -37 100l-97 147h-3l-142 -229h-193l227 357l-218 353h193l136 -225h3l137 225h189l-218 -353l132 -195c46 -69 64 -118 64 -173c0 -132 -87 -196 -206 -196z" />
    <glyph glyph-name="uni04FE" unicode="&#x4fe;" horiz-adv-x="706" 
d="M495 286l196 -286h-197l-141 229h-3l-142 -229h-193l196 286h-117v116h126l-196 308h193l136 -235h3l137 235h189l-198 -308h129v-116h-118z" />
    <glyph glyph-name="uni0510" unicode="&#x510;" horiz-adv-x="610" 
d="M308 -9c-187 -2 -275 89 -276 195c-1 95 69 161 147 176l-1 2c-60 27 -115 93 -117 176c-1 109 90 179 244 180c103 1 193 -34 253 -82l-92 -127c-46 41 -98 58 -148 58c-56 -1 -89 -25 -89 -66c0 -43 39 -71 94 -71h99v-137h-107c-71 0 -111 -30 -110 -76
c0 -43 39 -73 115 -73c56 0 111 12 163 78l115 -115c-68 -86 -180 -118 -290 -118z" />
    <glyph glyph-name="uni0512" unicode="&#x512;" horiz-adv-x="730" 
d="M665 710v-711c0 -152 -88 -206 -207 -206c-33 0 -63 4 -100 12l12 126c18 -5 36 -7 51 -7c52 0 75 28 75 73v563h-147c-6 -126 -12 -240 -28 -329c-26 -150 -82 -237 -222 -237c-31 0 -68 5 -88 13l11 140c13 -3 29 -5 40 -5c63 0 87 67 103 166c18 108 20 258 24 402
h476z" />
    <glyph glyph-name="uni051A" unicode="&#x51a;" horiz-adv-x="819" 
d="M789 84l-84 -108l-85 78c-59 -41 -132 -63 -215 -63c-217 0 -367 150 -367 364s150 365 367 365c212 0 364 -147 364 -365c0 -79 -20 -148 -55 -205zM213 355c0 -122 81 -211 192 -211c38 0 72 11 101 29l-62 56l71 84l61 -54c12 29 19 61 19 96c0 116 -77 209 -190 209
c-111 0 -192 -90 -192 -209z" />
    <glyph glyph-name="uni051C" unicode="&#x51c;" horiz-adv-x="1025" 
d="M238 0l-223 710h179l119 -436h3l109 436h176l108 -435h3l120 435h178l-223 -710h-153l-118 466h-2l-123 -466h-153z" />
    <glyph glyph-name="uni048C" unicode="&#x48c;" horiz-adv-x="663" 
d="M387 436c186 0 256 -79 256 -206c0 -138 -55 -230 -266 -230h-275v526h-95v117h95v67h163v-67h135v-117h-135v-90h122zM381 143c64 0 87 31 87 81c0 49 -25 79 -87 79h-116v-160h116z" />
    <glyph glyph-name="uni048E" unicode="&#x48e;" horiz-adv-x="621" 
d="M596 465c0 -95 -38 -161 -103 -199l59 -107l-105 -58l-72 130c-15 -1 -30 -2 -45 -2h-103v-229h-163v710h279c175 0 253 -103 253 -245zM221 368h93l-49 88l80 41l58 -103c17 17 26 41 26 75c0 54 -34 94 -109 94h-99v-195z" />
    <glyph glyph-name="uni0416.alt" horiz-adv-x="979" 
d="M971 0h-198l-153 277l-53 5v-282h-161v282l-53 -5l-152 -277h-193l209 370l-206 340h201l161 -292l33 -4v296h161v-296l39 4l158 292h195l-203 -336z" />
    <glyph glyph-name="uni041A.alt" horiz-adv-x="661" 
d="M658 0h-196l-165 276l-63 4v-280h-170v710h170v-294l55 5l164 289h195l-214 -340z" />
    <glyph glyph-name="uni040C.alt" horiz-adv-x="661" 
d="M485 901l-126 -140h-141l108 140h159zM658 0h-196l-165 276l-63 4v-280h-170v710h170v-294l55 5l164 289h195l-214 -340z" />
    <glyph glyph-name="uni0496.alt" horiz-adv-x="1027" 
d="M885 149h123v-286h-136l-8 137h-91l-153 277l-53 5v-282h-161v282l-53 -5l-152 -277h-193l209 370l-206 340h201l161 -292l33 -4v296h161v-296l39 4l158 292h195l-203 -336z" />
    <glyph glyph-name="uni049A.alt" horiz-adv-x="709" 
d="M568 149h122v-286h-136l-8 137h-84l-165 276l-63 4v-280h-170v710h170v-294l55 5l164 289h195l-214 -340z" />
    <glyph glyph-name="uni049E.alt" horiz-adv-x="671" 
d="M668 0h-196l-165 276l-63 4v-280h-170v530h-67v115h67v65h170v-65h75v-115h-75v-114l55 5l164 289h195l-214 -340z" />
    <glyph glyph-name="uni04A0.alt" horiz-adv-x="768" 
d="M765 0h-196l-165 276l-63 4v-280h-170v564h-163v147h273v-1h60v-294l55 5l164 289h195l-214 -340z" />
    <glyph glyph-name="uni04C1.alt" horiz-adv-x="979" 
d="M487 756c-106 0 -162 48 -184 141l124 12c7 -33 24 -63 61 -63c36 0 53 30 60 63l124 -12c-21 -93 -79 -141 -185 -141zM971 0h-198l-153 277l-53 5v-282h-161v282l-53 -5l-152 -277h-193l209 370l-206 340h201l161 -292l33 -4v296h161v-296l39 4l158 292h195l-203 -336z
" />
    <glyph glyph-name="uni04C3.alt" horiz-adv-x="671" 
d="M447 390c106 -34 181 -135 181 -280c0 -212 -108 -314 -264 -314c-34 0 -62 4 -83 9l11 127c15 -2 33 -4 45 -4c69 0 116 54 116 170c0 124 -83 179 -176 179c-14 0 -28 -1 -43 -4v-273h-170v710h170v-301c17 1 34 3 51 4l168 297h195z" />
    <glyph glyph-name="uni04DC.alt" horiz-adv-x="979" 
d="M374 775c-54 0 -93 39 -93 89c0 48 39 87 93 87s94 -38 94 -87c0 -51 -40 -89 -94 -89zM598 775c-54 0 -93 39 -93 89c0 48 39 87 93 87c53 0 93 -38 93 -87c0 -51 -40 -89 -93 -89zM971 0h-198l-153 277l-53 5v-282h-161v282l-53 -5l-152 -277h-193l209 370l-206 340
h201l161 -292l33 -4v296h161v-296l39 4l158 292h195l-203 -336z" />
    <glyph glyph-name="uni051A.alt" horiz-adv-x="808" 
d="M774 -36l-99 -122l-187 157c-26 -5 -54 -8 -83 -8c-217 0 -367 150 -367 364s150 365 367 365c212 0 364 -147 364 -365c0 -121 -47 -220 -126 -284zM213 355c0 -116 79 -209 192 -209c111 0 190 91 190 209s-79 209 -190 209c-113 0 -192 -93 -192 -209z" />
    <glyph glyph-name="uni0528" unicode="&#x528;" horiz-adv-x="715" 
d="M483 710h168v-710h-168v268h-250v-272c0 -149 -78 -203 -179 -203c-27 0 -55 4 -92 12l12 126c16 -5 29 -7 40 -7c36 0 50 22 50 64v722h169v-294h250v294z" />
    <glyph glyph-name="uni052E" unicode="&#x52e;" horiz-adv-x="788" 
d="M665 149h101v-286h-137l-8 137h-124v560h-148c-6 -126 -12 -240 -28 -329c-26 -150 -82 -237 -222 -237c-31 0 -68 5 -88 13l11 140c13 -3 29 -5 40 -5c63 0 87 67 103 166c18 108 20 258 24 402h476v-561z" />
    <glyph glyph-name="uni0414.loclBGR" horiz-adv-x="771" 
d="M756 150v-287h-136l-8 137h-453l-8 -137h-137v287h84l204 560h162l205 -560h87zM269 150h225l-110 355h-2z" />
    <glyph glyph-name="uni041B.loclBGR" horiz-adv-x="669" 
d="M7 0l246 710h162l247 -710h-179l-147 475h-3l-148 -475h-178z" />
    <glyph glyph-name="uni0424.loclBGR" horiz-adv-x="855" 
d="M824 358c0 -176 -111 -330 -315 -351v-66h-159v65c-214 17 -319 175 -319 346c0 174 107 332 319 351v65h159v-65c198 -19 315 -172 315 -345zM203 352c0 -118 52 -198 152 -212v427c-99 -16 -152 -101 -152 -215zM506 142c93 19 145 98 145 216c0 110 -52 192 -145 209
v-425z" />
    <glyph glyph-name="uni0430" unicode="&#x430;" horiz-adv-x="596" 
d="M259 -9c-134 0 -231 102 -231 253c0 150 97 254 223 254c52 0 101 -21 135 -61l2 1v51h157v-489h-149v51l-2 1c-32 -41 -76 -61 -135 -61zM292 129c56 0 103 45 103 115c0 67 -45 116 -103 116c-60 0 -105 -46 -105 -116c0 -69 43 -115 105 -115z" />
    <glyph glyph-name="uni0431" unicode="&#x431;" horiz-adv-x="587" 
d="M307 -9c-199 0 -269 152 -268 331c1 222 47 357 253 393l193 34l38 -138l-203 -37c-113 -20 -137 -72 -143 -183l2 -1c29 50 83 92 167 92c114 0 213 -96 213 -236c0 -150 -110 -255 -252 -255zM300 129c54 0 101 44 101 112c0 64 -46 107 -104 107
c-66 0 -100 -56 -100 -103c0 -68 45 -116 103 -116z" />
    <glyph glyph-name="uni0432" unicode="&#x432;" horiz-adv-x="542" 
d="M54 0v489h242c142 0 195 -44 195 -119c0 -45 -18 -87 -83 -109v-2c72 -15 108 -59 108 -116c0 -80 -49 -143 -201 -143h-261zM204 293h76c40 0 58 13 58 41s-22 39 -55 39h-79v-80zM204 116h90c45 0 64 14 64 44c0 28 -20 42 -63 42h-91v-86z" />
    <glyph glyph-name="uni0433" unicode="&#x433;" horiz-adv-x="429" 
d="M54 0v489h356v-127h-200v-362h-156z" />
    <glyph glyph-name="uni0453" unicode="&#x453;" horiz-adv-x="429" 
d="M128 549l111 149l158 1l-124 -150h-145zM54 0v489h356v-127h-200v-362h-156z" />
    <glyph glyph-name="uni0491" unicode="&#x491;" horiz-adv-x="429" 
d="M281 619h129v-257h-200v-362h-156v489h218z" />
    <glyph glyph-name="uni0434" unicode="&#x434;" horiz-adv-x="619" 
d="M604 130v-257h-129l-9 127h-320l-5 -127h-129l1 257h72c20 41 33 82 42 124c15 71 16 144 16 235h383v-359h78zM235 130h138v233h-87c-4 -54 -10 -104 -22 -152c-7 -28 -17 -55 -29 -81z" />
    <glyph glyph-name="uni0435" unicode="&#x435;" horiz-adv-x="550" 
d="M521 250c0 -14 -2 -37 -3 -47h-333c10 -56 57 -85 117 -85c40 1 81 16 114 53l90 -92c-41 -51 -109 -88 -220 -88c-148 0 -256 102 -256 254c0 148 104 253 252 253c138 0 239 -103 239 -248zM280 374c-48 0 -84 -29 -94 -78h183c-10 48 -42 78 -89 78z" />
    <glyph glyph-name="uni0450" unicode="&#x450;" horiz-adv-x="550" 
d="M374 548h-142l-123 149l159 -1zM521 250c0 -14 -2 -37 -3 -47h-333c10 -56 57 -85 117 -85c40 1 81 16 114 53l90 -92c-41 -51 -109 -88 -220 -88c-148 0 -256 102 -256 254c0 148 104 253 252 253c138 0 239 -103 239 -248zM280 374c-48 0 -84 -29 -94 -78h183
c-10 48 -42 78 -89 78z" />
    <glyph glyph-name="uni0451" unicode="&#x451;" horiz-adv-x="550" 
d="M169 551c-54 0 -93 39 -93 89c0 48 39 87 93 87s94 -38 94 -87c0 -51 -40 -89 -94 -89zM393 551c-54 0 -93 39 -93 89c0 48 39 87 93 87c53 0 93 -38 93 -87c0 -51 -40 -89 -93 -89zM521 250c0 -14 -2 -37 -3 -47h-333c10 -56 57 -85 117 -85c40 1 81 16 114 53l90 -92
c-41 -51 -109 -88 -220 -88c-148 0 -256 102 -256 254c0 148 104 253 252 253c138 0 239 -103 239 -248zM280 374c-48 0 -84 -29 -94 -78h183c-10 48 -42 78 -89 78z" />
    <glyph glyph-name="uni0436" unicode="&#x436;" horiz-adv-x="794" 
d="M4 0l170 262l-167 227h178l134 -202h2v202h149v-206h2l130 206h176l-162 -226l174 -263h-172l-111 178l-37 -39v-139h-149v140l-36 39l-110 -179h-171z" />
    <glyph glyph-name="uni0437" unicode="&#x437;" horiz-adv-x="493" 
d="M241 -10c-105 0 -163 17 -219 48l44 127c44 -33 108 -49 162 -49c52 0 79 15 79 43c0 24 -22 37 -70 37h-94v101h81c43 0 63 14 63 35c0 30 -32 38 -66 38c-42 0 -86 -9 -125 -29l-61 113c34 19 110 44 201 44c128 0 207 -45 207 -124c0 -43 -24 -90 -81 -112v-1
c69 -17 105 -64 105 -120c0 -98 -86 -151 -226 -151z" />
    <glyph glyph-name="uni0438" unicode="&#x438;" horiz-adv-x="584" 
d="M54 0v489h154v-287l2 -1l171 288h149v-489h-154v269l-2 1l-169 -270h-151z" />
    <glyph glyph-name="uni0439" unicode="&#x439;" horiz-adv-x="584" 
d="M297 542c-106 0 -162 49 -184 142l124 21c7 -43 24 -72 61 -72c36 0 53 29 60 72l124 -21c-21 -93 -79 -142 -185 -142zM54 0v489h154v-287l2 -1l171 288h149v-489h-154v269l-2 1l-169 -270h-151z" />
    <glyph glyph-name="uni045D" unicode="&#x45d;" horiz-adv-x="584" 
d="M252 548l-123 149l159 -1l106 -148h-142zM54 0v489h154v-287l2 -1l171 288h149v-489h-154v269l-2 1l-169 -270h-151z" />
    <glyph glyph-name="uni048B" unicode="&#x48b;" horiz-adv-x="633" 
d="M297 542c-106 0 -162 49 -184 142l124 21c7 -43 24 -72 61 -72c36 0 53 29 60 72l124 -21c-21 -93 -79 -142 -185 -142zM530 130h105v-26l-89 -231h-109l35 127h-96v269l-2 1l-169 -270h-151v489h154v-287l2 -1l171 288h149v-359z" />
    <glyph glyph-name="uni043A" unicode="&#x43a;" horiz-adv-x="558" 
d="M54 0v489h154v-194h2l153 194h182l-172 -208l182 -281h-177l-123 193l-47 -56v-137h-154z" />
    <glyph glyph-name="uni045C" unicode="&#x45c;" horiz-adv-x="558" 
d="M174 549l111 149l158 1l-124 -150h-145zM54 0v489h154v-194h2l153 194h182l-172 -208l182 -281h-177l-123 193l-47 -56v-137h-154z" />
    <glyph glyph-name="uni043B" unicode="&#x43b;" horiz-adv-x="575" 
d="M133 489h388v-489h-157v362h-88c-4 -75 -9 -141 -20 -195c-22 -109 -71 -173 -182 -173c-17 0 -43 3 -59 9l6 133c9 -3 16 -4 25 -4c41 0 63 42 73 103c11 69 13 169 14 254z" />
    <glyph glyph-name="uni043C" unicode="&#x43c;" horiz-adv-x="682" 
d="M54 0v489h150l136 -262h2l135 262h151v-489h-148v246l-2 1l-85 -162h-105l-84 161h-2v-246h-148z" />
    <glyph glyph-name="uni043D" unicode="&#x43d;" horiz-adv-x="575" 
d="M54 0v489h156v-188h155v188h157v-489h-157v175h-155v-175h-156z" />
    <glyph glyph-name="uni043E" unicode="&#x43e;" horiz-adv-x="589" 
d="M295 -9c-158 0 -265 105 -265 253c0 149 107 254 265 254c154 0 264 -103 264 -254c0 -150 -110 -253 -264 -253zM295 129c59 0 106 48 106 115c0 68 -45 115 -106 115c-63 0 -107 -48 -107 -115c0 -65 45 -115 107 -115z" />
    <glyph glyph-name="uni043F" unicode="&#x43f;" horiz-adv-x="559" 
d="M54 0v490h452v-490h-157v362h-139v-362h-156z" />
    <glyph glyph-name="uni0440" unicode="&#x440;" horiz-adv-x="604" 
d="M54 -198v687h156v-52h2c35 40 84 61 139 61c127 0 223 -104 223 -254c0 -151 -96 -253 -231 -253c-56 0 -99 20 -131 57l-2 -1v-245h-156zM312 129c60 0 104 46 104 115c0 70 -45 116 -105 116c-63 0 -108 -49 -108 -116c0 -70 47 -115 109 -115z" />
    <glyph glyph-name="uni0441" unicode="&#x441;" horiz-adv-x="522" 
d="M286 -9c-148 0 -256 102 -256 252c0 153 104 255 260 255c75 0 157 -24 211 -85l-101 -100c-23 30 -61 46 -97 46c-68 0 -115 -46 -115 -115s48 -114 116 -114c44 0 76 16 104 46l96 -100c-44 -51 -116 -85 -218 -85z" />
    <glyph glyph-name="uni0442" unicode="&#x442;" horiz-adv-x="455" 
d="M149 0v362h-133v127h422v-127h-132v-362h-157z" />
    <glyph glyph-name="uni0443" unicode="&#x443;" horiz-adv-x="536" 
d="M116 -198l84 231l-191 456h167l98 -263h3l94 263h156l-257 -687h-154z" />
    <glyph glyph-name="uni045E" unicode="&#x45e;" horiz-adv-x="536" 
d="M270 542c-106 0 -162 49 -184 142l124 21c7 -43 24 -72 61 -72c36 0 53 29 60 72l124 -21c-21 -93 -79 -142 -185 -142zM116 -198l84 231l-191 456h167l98 -263h3l94 263h156l-257 -687h-154z" />
    <glyph glyph-name="uni0444" unicode="&#x444;" horiz-adv-x="739" 
d="M714 244c0 -154 -105 -250 -266 -254v-188h-156v188c-168 3 -266 99 -266 254c0 147 108 249 266 256v236h156v-236c158 -6 266 -108 266 -256zM184 242c0 -75 44 -118 114 -125v257c-70 -7 -114 -56 -114 -132zM442 117c70 7 114 51 114 126c0 76 -45 124 -114 131v-257
z" />
    <glyph glyph-name="uni0445" unicode="&#x445;" horiz-adv-x="525" 
d="M10 0l165 252l-162 237h176l72 -121h1l74 121h175l-162 -238l165 -251h-168l-83 122h-1l-84 -122h-168z" />
    <glyph glyph-name="uni0447" unicode="&#x447;" horiz-adv-x="538" 
d="M328 489h157v-489h-157v162c-36 -17 -85 -27 -124 -27c-116 0 -173 59 -173 178v176h157v-148c0 -62 28 -74 66 -74c21 0 47 4 74 16v206z" />
    <glyph glyph-name="uni0446" unicode="&#x446;" horiz-adv-x="597" 
d="M582 127v-254h-128l-9 127h-391v489h156v-362h131v362h157v-362h84z" />
    <glyph glyph-name="uni0448" unicode="&#x448;" horiz-adv-x="815" 
d="M51 0v489h156v-360h125v360h152v-360h124v360h156v-489h-713z" />
    <glyph glyph-name="uni0449" unicode="&#x449;" horiz-adv-x="864" 
d="M764 127h87v-254h-129l-9 127h-662v489h156v-360h125v360h152v-360h124v360h156v-362z" />
    <glyph glyph-name="uni045F" unicode="&#x45f;" horiz-adv-x="554" 
d="M500 489v-489h-153l-5 -127h-129l-4 127h-155v489h156v-362h134v362h156z" />
    <glyph glyph-name="uni044C" unicode="&#x44c;" horiz-adv-x="513" 
d="M54 0v489h154v-127h66c160 0 217 -68 217 -174c0 -115 -59 -188 -221 -188h-216zM198 124h62c46 0 72 20 72 61c0 40 -25 59 -68 59h-66v-120z" />
    <glyph glyph-name="uni044A" unicode="&#x44a;" horiz-adv-x="577" 
d="M338 362c160 0 217 -68 217 -174c0 -115 -59 -188 -221 -188h-216v362h-116v127h270v-127h66zM324 124c46 0 72 20 72 61c0 40 -25 59 -68 59h-66v-120h62z" />
    <glyph glyph-name="uni044B" unicode="&#x44b;" horiz-adv-x="753" 
d="M54 0v489h154v-127h62c160 0 216 -68 216 -174c0 -115 -58 -188 -221 -188h-211zM543 0v489h157v-489h-157zM198 124h57c46 0 72 20 72 61c0 40 -25 59 -68 59h-61v-120z" />
    <glyph glyph-name="uni0459" unicode="&#x459;" horiz-adv-x="815" 
d="M582 362c160 0 217 -68 217 -174c0 -115 -59 -188 -221 -188h-216v362h-88c-4 -75 -9 -141 -20 -195c-22 -109 -71 -173 -181 -173c-17 0 -43 3 -59 9l6 133c9 -3 16 -4 25 -4c41 0 63 42 73 103c11 69 13 169 14 254h384v-127h66zM568 124c46 0 72 20 72 61
c0 40 -25 59 -68 59h-66v-120h62z" />
    <glyph glyph-name="uni045A" unicode="&#x45a;" horiz-adv-x="825" 
d="M599 346c153 0 207 -64 207 -166c0 -110 -56 -180 -211 -180h-239v190h-147v-190h-157v490h157v-174h147v174h155v-144h88zM578 123c45 0 69 18 69 54c0 35 -23 51 -65 51h-76v-105h72z" />
    <glyph glyph-name="uni0455" unicode="&#x455;" horiz-adv-x="440" 
d="M215 -9c-77 0 -145 24 -199 72l73 101c41 -37 83 -55 128 -55c31 0 47 11 47 29c0 16 -15 26 -76 45c-82 25 -154 65 -154 159c0 99 81 156 183 156c74 0 128 -19 185 -61l-74 -109c-34 34 -76 51 -109 51c-18 0 -39 -8 -39 -27c0 -15 18 -26 67 -43
c108 -37 167 -65 167 -161c0 -91 -65 -157 -199 -157z" />
    <glyph glyph-name="uni0454" unicode="&#x454;" horiz-adv-x="528" 
d="M420 165l90 -103c-57 -54 -138 -71 -209 -71c-179 0 -271 106 -271 253c0 153 104 254 268 254c78 0 149 -21 197 -68l-91 -99c-31 28 -68 38 -105 38c-50 0 -98 -18 -113 -75h199v-96h-200c14 -59 65 -77 119 -77c49 0 86 14 116 44z" />
    <glyph glyph-name="uni044D" unicode="&#x44d;" horiz-adv-x="521" 
d="M228 498c158 0 263 -99 263 -255c0 -149 -92 -252 -259 -252c-82 0 -158 19 -216 60l75 114c37 -27 75 -45 135 -44c59 0 103 21 113 77h-203v96h202c-11 49 -54 74 -115 75c-47 0 -88 -13 -122 -34l-66 112c37 24 104 51 193 51z" />
    <glyph glyph-name="uni0456" unicode="&#x456;" horiz-adv-x="274" 
d="M137 550c-54 0 -93 39 -93 90c0 48 39 88 93 88s94 -39 94 -88c0 -51 -40 -90 -94 -90zM59 0v489h156v-489h-156z" />
    <glyph glyph-name="uni0457" unicode="&#x457;" horiz-adv-x="274" 
d="M36 550c-51 0 -92 41 -92 90c0 48 41 88 92 88c48 0 89 -40 89 -88c0 -49 -41 -90 -89 -90zM238 551c-49 0 -90 40 -90 89c0 47 41 88 90 88s90 -41 90 -88c0 -49 -41 -89 -90 -89zM59 0v489h156v-489h-156z" />
    <glyph glyph-name="uni0458" unicode="&#x458;" horiz-adv-x="261" 
d="M132 550c-54 0 -93 39 -93 90c0 48 39 88 93 88s94 -39 94 -88c0 -51 -40 -90 -94 -90zM55 -207c-55 0 -86 9 -111 18l25 124c14 -6 31 -9 45 -9c31 0 39 22 39 63v500h156v-513c0 -122 -56 -183 -154 -183z" />
    <glyph glyph-name="uni045B" unicode="&#x45b;" horiz-adv-x="581" 
d="M367 457c95 0 170 -49 170 -203v-254h-157v215c0 79 -26 103 -76 103c-58 0 -93 -36 -93 -112v-206h-157v528h-53v118h53v90h154v-90h161v-118h-161v-135l2 -1c38 43 93 65 157 65z" />
    <glyph glyph-name="uni044E" unicode="&#x44e;" horiz-adv-x="807" 
d="M519 498c154 0 261 -103 261 -254c0 -150 -107 -253 -261 -253c-126 0 -216 74 -241 186h-71v-177h-157v489h157v-191h69c20 120 112 200 243 200zM521 129c57 0 101 48 101 115c0 68 -42 115 -101 115c-60 0 -101 -47 -101 -115c0 -66 42 -115 101 -115z" />
    <glyph glyph-name="uni044F" unicode="&#x44f;" horiz-adv-x="538" 
d="M267 489h217v-489h-151v152h-49l-98 -152h-171l121 174c-61 27 -97 78 -97 142c0 105 62 173 228 173zM333 260v108h-70c-44 0 -67 -18 -67 -56c0 -31 20 -52 63 -52h74z" />
    <glyph glyph-name="uni0452" unicode="&#x452;" horiz-adv-x="581" 
d="M367 457c95 0 170 -49 170 -203v-257c0 -142 -58 -204 -188 -204c-31 0 -62 6 -85 15l12 114c16 -5 30 -7 41 -7c46 0 63 25 63 77v223c0 79 -26 103 -76 103c-58 0 -93 -36 -93 -112v-206h-157v528h-53v118h53v90h154v-90h161v-118h-161v-135l2 -1c38 43 93 65 157 65z
" />
    <glyph glyph-name="uni0463" unicode="&#x463;" horiz-adv-x="585" 
d="M371 321c142 0 192 -60 192 -154c0 -102 -52 -167 -196 -167h-249v364h-116v126h116v246h154v-246h157v-119h-157v-50h99zM343 117c39 0 61 17 61 49c0 31 -21 46 -58 46h-76v-95h73z" />
    <glyph glyph-name="uni0473" unicode="&#x473;" horiz-adv-x="589" 
d="M295 498c155 0 264 -102 264 -253s-109 -255 -264 -255c-158 0 -265 105 -265 255c0 149 107 253 265 253zM295 374c-59 0 -97 -32 -108 -76h217c-12 44 -50 76 -109 76zM295 115c60 0 99 34 109 80h-217c10 -46 48 -80 108 -80z" />
    <glyph glyph-name="uni0475" unicode="&#x475;" horiz-adv-x="559" 
d="M196 0l-189 489h163l98 -304h1l49 176c30 109 73 137 143 137c36 0 68 -7 99 -21l-25 -117c-14 4 -24 7 -34 7c-30 0 -44 -27 -66 -92l-97 -275h-142z" />
    <glyph glyph-name="uni0493" unicode="&#x493;" horiz-adv-x="436" 
d="M417 362h-200v-110h137v-93h-137v-159h-156v159h-67v93h67v237h356v-127z" />
    <glyph glyph-name="uni0495" unicode="&#x495;" horiz-adv-x="535" 
d="M524 43c1 -175 -91 -250 -226 -250c-30 0 -54 4 -73 9l10 118c14 -2 25 -4 37 -4c60 0 95 42 95 117c0 68 -37 106 -95 106c-21 0 -42 -3 -62 -9v-130h-156v489h356v-127h-200v-109c37 11 71 17 106 17c113 0 207 -80 208 -227z" />
    <glyph glyph-name="uni0497" unicode="&#x497;" horiz-adv-x="823" 
d="M705 129h98v-256h-128l-9 127h-48l-111 178l-37 -39v-139h-149v140l-36 39l-110 -179h-171l170 262l-167 227h178l134 -202h2v202h149v-206h2l130 206h176l-162 -226z" />
    <glyph glyph-name="uni0499" unicode="&#x499;" horiz-adv-x="493" 
d="M467 141c0 -88 -69 -139 -183 -149l-4 -15c38 -11 83 -33 83 -77c0 -51 -37 -92 -131 -92c-30 0 -55 4 -73 8v67c16 -4 32 -6 46 -6c24 0 42 7 42 28c0 18 -22 28 -63 31l17 55c-81 4 -131 20 -179 47l44 127c44 -33 108 -49 162 -49c52 0 79 15 79 43
c0 24 -22 37 -70 37h-94v101h81c43 0 63 14 63 35c0 30 -32 38 -66 38c-42 0 -86 -9 -125 -29l-61 113c34 19 110 44 201 44c128 0 207 -45 207 -124c0 -43 -24 -90 -81 -112v-1c69 -17 105 -64 105 -120z" />
    <glyph glyph-name="uni049B" unicode="&#x49b;" horiz-adv-x="587" 
d="M471 129h101v-256h-128l-9 127h-57l-123 193l-47 -56v-137h-154v489h154v-194h2l153 194h182l-172 -208z" />
    <glyph glyph-name="uni049D" unicode="&#x49d;" horiz-adv-x="613" 
d="M437 0l-85 178l-21 1v-113h-82v116l-45 1v-183h-150v489h150v-201l45 1v121h82v-119h12l92 198h165l-127 -232l136 -257h-172z" />
    <glyph glyph-name="uni049F" unicode="&#x49f;" horiz-adv-x="558" 
d="M373 281l182 -281h-177l-123 193l-47 -56v-137h-154v551h-53v93h53v92h154v-92h146v-93h-146v-256h2l153 194h182z" />
    <glyph glyph-name="uni04A1" unicode="&#x4a1;" horiz-adv-x="642" 
d="M457 281l182 -281h-177l-123 193l-47 -56v-137h-154v362h-136v127h290v-194h2l153 194h182z" />
    <glyph glyph-name="uni04A3" unicode="&#x4a3;" horiz-adv-x="624" 
d="M522 127h87v-254h-129l-9 127h-106v175h-155v-175h-156v489h156v-188h155v188h157v-362z" />
    <glyph glyph-name="uni04A5" unicode="&#x4a5;" horiz-adv-x="661" 
d="M642 489v-127h-135v-362h-150v175h-147v-175h-156v489h156v-188h147v188h285z" />
    <glyph glyph-name="uni04A7" unicode="&#x4a7;" horiz-adv-x="825" 
d="M814 43c1 -175 -91 -250 -226 -250c-30 0 -54 4 -73 9l10 118c14 -2 25 -4 37 -4c60 0 95 42 95 117c0 68 -37 106 -95 106c-21 0 -42 -3 -62 -9v-130h-156v362h-134v-362h-156v489h446v-236c37 11 71 17 106 17c113 0 207 -80 208 -227z" />
    <glyph glyph-name="uni0525" unicode="&#x525;" horiz-adv-x="608" 
d="M506 127h87v-254h-129l-9 127h-106v362h-139v-362h-156v490h452v-363z" />
    <glyph glyph-name="uni04A9" unicode="&#x4a9;" horiz-adv-x="646" 
d="M638 -2c-13 -4 -41 -8 -68 -8c-44 0 -101 12 -132 37c-37 -26 -90 -37 -147 -37c-158 0 -268 98 -268 256c0 146 102 252 236 252c14 0 29 -2 39 -3l-46 -132h-3c-38 -13 -73 -59 -73 -125c0 -70 50 -123 128 -123h12l1 2c-35 40 -52 94 -52 148c0 103 60 203 172 203
c108 0 173 -77 173 -185c0 -66 -27 -136 -71 -175v-2h6c30 0 58 6 84 21zM387 252c-1 -38 11 -79 33 -108h2c22 27 40 66 40 113c1 38 -11 77 -35 77c-21 0 -40 -35 -40 -82z" />
    <glyph glyph-name="uni04AB" unicode="&#x4ab;" horiz-adv-x="522" 
d="M504 76c-40 -46 -102 -78 -189 -84l-4 -15c38 -11 83 -33 83 -77c0 -51 -37 -92 -131 -92c-30 0 -55 4 -73 8v67c16 -4 32 -6 46 -6c24 0 42 7 42 28c0 18 -22 28 -63 31l18 60c-120 21 -203 115 -203 247c0 153 104 255 260 255c75 0 157 -24 211 -85l-101 -100
c-23 30 -61 46 -97 46c-68 0 -115 -46 -115 -115s48 -114 116 -114c44 0 76 16 104 46z" />
    <glyph glyph-name="uni04AD" unicode="&#x4ad;" horiz-adv-x="455" 
d="M438 362h-132v-232h85v-257h-129l-9 127h-104v362h-133v127h422v-127z" />
    <glyph glyph-name="uni04AF" unicode="&#x4af;" horiz-adv-x="540" 
d="M531 489l-183 -492v-195h-156v198l-183 489h163l98 -320h1l96 320h164z" />
    <glyph glyph-name="uni04B1" unicode="&#x4b1;" horiz-adv-x="540" 
d="M531 489l-153 -397h89v-92h-119v-198h-156v198h-122v92h92l-153 397h163l98 -320h1l96 320h164z" />
    <glyph glyph-name="uni04B3" unicode="&#x4b3;" horiz-adv-x="554" 
d="M429 129h110v-256h-128l-9 127h-56l-83 122h-1l-84 -122h-168l165 252l-162 237h176l72 -121h1l74 121h175l-162 -238z" />
    <glyph glyph-name="uni04B5" unicode="&#x4b5;" horiz-adv-x="713" 
d="M698 127v-254h-129l-9 127h-413v362h-132v127h393v-127h-104v-235h153v362h156v-362h85z" />
    <glyph glyph-name="uni04B7" unicode="&#x4b7;" horiz-adv-x="587" 
d="M485 127h87v-254h-129l-9 127h-106v162c-36 -17 -85 -27 -124 -27c-116 0 -173 59 -173 178v176h157v-148c0 -62 28 -74 66 -74c21 0 47 4 74 16v206h157v-362z" />
    <glyph glyph-name="uni04B9" unicode="&#x4b9;" horiz-adv-x="566" 
d="M357 489h155v-489h-155v166c-11 -5 -24 -9 -38 -13v-96h-82v82c-12 -1 -23 -2 -33 -2c-116 0 -173 59 -173 176v176h154v-152c0 -53 21 -69 52 -73v114h82v-108c13 3 26 6 38 11v208z" />
    <glyph glyph-name="uni04BB" unicode="&#x4bb;" horiz-adv-x="587" 
d="M54 0v736h156v-302l2 -1c38 43 91 65 151 65c101 0 176 -49 176 -203v-295h-156v256c0 79 -27 103 -82 103s-91 -36 -91 -112v-247h-156z" />
    <glyph glyph-name="uni04BD" unicode="&#x4bd;" horiz-adv-x="648" 
d="M619 250c0 -14 -2 -37 -3 -47h-335c10 -56 56 -85 118 -85c40 1 82 16 115 53l90 -92c-41 -51 -109 -88 -220 -88c-133 0 -233 82 -253 208c-85 1 -141 31 -141 105c0 21 4 46 14 74l95 -10c-5 -16 -8 -29 -8 -39c0 -27 19 -31 42 -31c22 119 117 200 247 200
c138 1 239 -103 239 -248zM378 374c-49 0 -86 -29 -96 -78h185c-10 48 -42 78 -89 78z" />
    </font>
</defs>
</svg>
