<?xml version="1.0" standalone="no"?>
<!DOCTYPE svg PUBLIC "-//W3C//DTD SVG 1.1//EN" "http://www.w3.org/Graphics/SVG/1.1/DTD/svg11.dtd" >
<svg xmlns="http://www.w3.org/2000/svg" xmlns:xlink="http://www.w3.org/1999/xlink" version="1.1">
<metadata>
Created by FontForge 20201107 at Sat Jul 15 12:17:15 2017
 By Jimmy Wärting
Copyright \(c\) 2015 by Kostas Bartsokas. All rights reserved.
</metadata>
<defs>
<font id="AvertaStdCY-Semibold" horiz-adv-x="0" >
  <font-face 
    font-family="Averta Std CY Semibold"
    font-weight="600"
    font-stretch="normal"
    units-per-em="1000"
    panose-1="0 0 7 0 0 0 0 0 0 0"
    ascent="800"
    descent="-200"
    x-height="488"
    cap-height="710"
    bbox="-695 -257 1427 1056"
    underline-thickness="49"
    underline-position="-85"
    stemh="88"
    stemv="93"
    unicode-range="U+000D-2E18"
  />
<missing-glyph horiz-adv-x="449" 
 />
    <glyph glyph-name=".notdef" horiz-adv-x="449" 
 />
    <glyph glyph-name="space" unicode=" " horiz-adv-x="268" 
 />
    <glyph glyph-name="A" unicode="A" horiz-adv-x="695" 
d="M23 0l265 710h118l266 -710h-126l-54 153h-290l-53 -153h-126zM239 257h217l-108 308h-2z" />
    <glyph glyph-name="Aacute" unicode="&#xc1;" horiz-adv-x="695" 
d="M294 775l112 133h125l-126 -133h-111zM23 0l265 710h118l266 -710h-126l-54 153h-290l-53 -153h-126zM239 257h217l-108 308h-2z" />
    <glyph glyph-name="Abreve" unicode="&#x102;" horiz-adv-x="695" 
d="M347 768c-96 0 -149 57 -156 140h88c2 -31 26 -54 68 -54s66 24 68 54h88c-7 -83 -60 -140 -156 -140zM23 0l265 710h118l266 -710h-126l-54 153h-290l-53 -153h-126zM239 257h217l-108 308h-2z" />
    <glyph glyph-name="uni1EAE" unicode="&#x1eae;" horiz-adv-x="695" 
d="M307 896l82 135h123l-122 -135h-83zM347 765c-102 0 -158 53 -165 129h93c2 -28 27 -49 72 -49s70 22 72 49h93c-7 -76 -63 -129 -165 -129zM23 0l265 710h118l266 -710h-126l-54 153h-290l-53 -153h-126zM239 257h217l-108 308h-2z" />
    <glyph glyph-name="uni1EB6" unicode="&#x1eb6;" horiz-adv-x="695" 
d="M347 768c-96 0 -149 57 -156 140h88c2 -31 26 -54 68 -54s66 24 68 54h88c-7 -83 -60 -140 -156 -140zM23 0l265 710h118l266 -710h-126l-54 153h-290l-53 -153h-126zM239 257h217l-108 308h-2zM349 -78c42 0 75 -34 75 -75c0 -40 -33 -74 -75 -74s-76 34 -76 74
c0 41 34 75 76 75z" />
    <glyph glyph-name="uni1EB0" unicode="&#x1eb0;" horiz-adv-x="695" 
d="M314 896l-122 135h123l82 -135h-83zM347 765c-102 0 -158 53 -165 129h93c2 -28 27 -49 72 -49s70 22 72 49h93c-7 -76 -63 -129 -165 -129zM23 0l265 710h118l266 -710h-126l-54 153h-290l-53 -153h-126zM239 257h217l-108 308h-2z" />
    <glyph glyph-name="uni1EB2" unicode="&#x1eb2;" horiz-adv-x="695" 
d="M299 889c32 24 63 45 63 66c0 10 -8 18 -26 18c-24 0 -55 -14 -80 -29l-24 52c20 18 64 43 128 43c49 0 85 -23 85 -70c0 -45 -43 -68 -72 -80h-74zM347 765c-102 0 -158 53 -165 129h93c2 -28 27 -49 72 -49s70 22 72 49h93c-7 -76 -63 -129 -165 -129zM23 0l265 710
h118l266 -710h-126l-54 153h-290l-53 -153h-126zM239 257h217l-108 308h-2z" />
    <glyph glyph-name="uni1EB4" unicode="&#x1eb4;" horiz-adv-x="695" 
d="M419 914c-28 0 -54 13 -79 27c-21 12 -41 22 -59 22c-21 0 -38 -18 -51 -48l-64 29c19 54 55 96 108 96c36 0 62 -15 83 -27c20 -11 36 -23 56 -23c19 0 34 14 48 49l64 -22c-21 -67 -57 -103 -106 -103zM347 765c-102 0 -158 53 -165 129h93c2 -28 27 -49 72 -49
s70 22 72 49h93c-7 -76 -63 -129 -165 -129zM23 0l265 710h118l266 -710h-126l-54 153h-290l-53 -153h-126zM239 257h217l-108 308h-2z" />
    <glyph glyph-name="uni01CD" unicode="&#x1cd;" horiz-adv-x="695" 
d="M286 775l-108 133h109l57 -71h2l57 71h111l-111 -133h-117zM23 0l265 710h118l266 -710h-126l-54 153h-290l-53 -153h-126zM239 257h217l-108 308h-2z" />
    <glyph glyph-name="Acircumflex" unicode="&#xc2;" horiz-adv-x="695" 
d="M178 775l111 133h117l108 -133h-109l-57 71h-2l-57 -71h-111zM23 0l265 710h118l266 -710h-126l-54 153h-290l-53 -153h-126zM239 257h217l-108 308h-2z" />
    <glyph glyph-name="uni1EA4" unicode="&#x1ea4;" horiz-adv-x="695" 
d="M500 831l82 135h123l-122 -135h-83zM178 775l111 133h117l108 -133h-109l-57 71h-2l-57 -71h-111zM23 0l265 710h118l266 -710h-126l-54 153h-290l-53 -153h-126zM239 257h217l-108 308h-2z" />
    <glyph glyph-name="uni1EAC" unicode="&#x1eac;" horiz-adv-x="695" 
d="M178 775l111 133h117l108 -133h-109l-57 71h-2l-57 -71h-111zM23 0l265 710h118l266 -710h-126l-54 153h-290l-53 -153h-126zM239 257h217l-108 308h-2zM349 -78c42 0 75 -34 75 -75c0 -40 -33 -74 -75 -74s-76 34 -76 74c0 41 34 75 76 75z" />
    <glyph glyph-name="uni1EA6" unicode="&#x1ea6;" horiz-adv-x="695" 
d="M551 830l-122 135h123l82 -135h-83zM178 775l111 133h117l108 -133h-109l-57 71h-2l-57 -71h-111zM23 0l265 710h118l266 -710h-126l-54 153h-290l-53 -153h-126zM239 257h217l-108 308h-2z" />
    <glyph glyph-name="uni1EA8" unicode="&#x1ea8;" horiz-adv-x="695" 
d="M509 840c32 24 63 45 63 66c0 10 -8 18 -26 18c-24 0 -55 -14 -80 -29l-24 52c20 18 64 43 128 43c49 0 85 -23 85 -70c0 -45 -43 -68 -72 -80h-74zM178 775l111 133h117l108 -133h-109l-57 71h-2l-57 -71h-111zM23 0l265 710h118l266 -710h-126l-54 153h-290l-53 -153
h-126zM239 257h217l-108 308h-2z" />
    <glyph glyph-name="uni1EAA" unicode="&#x1eaa;" horiz-adv-x="695" 
d="M420 930c-28 0 -54 13 -79 27c-21 12 -41 22 -59 22c-21 0 -38 -18 -51 -48l-64 29c19 54 55 96 108 96c36 0 62 -15 83 -27c20 -11 36 -23 56 -23c19 0 34 14 48 49l64 -22c-21 -67 -57 -103 -106 -103zM178 775l111 133h117l108 -133h-109l-57 71h-2l-57 -71h-111z
M23 0l265 710h118l266 -710h-126l-54 153h-290l-53 -153h-126zM239 257h217l-108 308h-2z" />
    <glyph glyph-name="Adieresis" unicode="&#xc4;" horiz-adv-x="695" 
d="M248 775c-41 0 -74 34 -74 74c0 39 33 72 74 72s75 -34 75 -73c0 -40 -34 -73 -75 -73zM447 775c-41 0 -74 34 -74 74c0 39 33 72 74 72s75 -34 75 -73c0 -40 -34 -73 -75 -73zM23 0l265 710h118l266 -710h-126l-54 153h-290l-53 -153h-126zM239 257h217l-108 308h-2z
" />
    <glyph glyph-name="uni1EA0" unicode="&#x1ea0;" horiz-adv-x="695" 
d="M23 0l265 710h118l266 -710h-126l-54 153h-290l-53 -153h-126zM239 257h217l-108 308h-2zM349 -78c42 0 75 -34 75 -75c0 -40 -33 -74 -75 -74s-76 34 -76 74c0 41 34 75 76 75z" />
    <glyph glyph-name="Agrave" unicode="&#xc0;" horiz-adv-x="695" 
d="M302 775l-126 133h125l112 -133h-111zM23 0l265 710h118l266 -710h-126l-54 153h-290l-53 -153h-126zM239 257h217l-108 308h-2z" />
    <glyph glyph-name="uni1EA2" unicode="&#x1ea2;" horiz-adv-x="695" 
d="M307 775c36 26 70 50 70 73c0 11 -9 20 -29 20c-27 0 -61 -16 -89 -32l-26 58c22 19 71 47 142 47c54 0 94 -25 94 -78c0 -50 -48 -75 -80 -88h-82zM23 0l265 710h118l266 -710h-126l-54 153h-290l-53 -153h-126zM239 257h217l-108 308h-2z" />
    <glyph glyph-name="Amacron" unicode="&#x100;" horiz-adv-x="695" 
d="M198 797v89h298v-89h-298zM23 0l265 710h118l266 -710h-126l-54 153h-290l-53 -153h-126zM239 257h217l-108 308h-2z" />
    <glyph glyph-name="Aogonek" unicode="&#x104;" horiz-adv-x="695" 
d="M612 -116c25 0 30 3 41 8l7 -68c-19 -8 -45 -12 -72 -12c-66 0 -108 35 -108 88c0 32 23 72 66 101l-54 152h-290l-53 -153h-126l265 710h118l266 -710h-24c-49 -11 -79 -44 -79 -75c0 -25 15 -41 43 -41zM239 257h217l-108 308h-2z" />
    <glyph glyph-name="Aring" unicode="&#xc5;" horiz-adv-x="695" 
d="M346 748c-58 0 -108 45 -108 105c0 57 45 105 108 105c60 0 109 -45 109 -105c0 -57 -45 -105 -109 -105zM346 816c22 0 39 17 39 38s-17 38 -39 38c-21 0 -38 -18 -38 -38c0 -22 17 -38 38 -38zM23 0l265 710h118l266 -710h-126l-54 153h-290l-53 -153h-126zM239 257
h217l-108 308h-2z" />
    <glyph glyph-name="Aringacute" unicode="&#x1fa;" horiz-adv-x="695" 
d="M346 748c-58 0 -108 45 -108 105c0 57 45 105 108 105c31 0 59 -12 79 -32l59 44l126 1l-155 -120c-1 -56 -46 -103 -109 -103zM346 892c-21 0 -38 -18 -38 -38c0 -22 17 -38 38 -38c22 0 39 17 39 38s-17 38 -39 38zM406 710l266 -710h-126l-54 153h-290l-53 -153h-126
l265 710h118zM239 257h217l-108 308h-2z" />
    <glyph glyph-name="Atilde" unicode="&#xc3;" horiz-adv-x="695" 
d="M425 775c-30 0 -58 14 -84 29c-23 13 -44 24 -63 24c-22 0 -41 -20 -54 -52l-68 31c20 58 58 103 114 103c39 0 66 -16 89 -29c21 -12 38 -24 59 -24s36 15 51 52l68 -23c-22 -73 -60 -111 -112 -111zM23 0l265 710h118l266 -710h-126l-54 153h-290l-53 -153h-126z
M239 257h217l-108 308h-2z" />
    <glyph glyph-name="AE" unicode="&#xc6;" horiz-adv-x="943" 
d="M11 0l354 710h516v-108h-327v-195h268v-108h-268v-191h347v-108h-467v153h-225l-75 -153h-123zM261 257h173v348h-2z" />
    <glyph glyph-name="AEacute" unicode="&#x1fc;" horiz-adv-x="943" 
d="M411 775l112 133h125l-126 -133h-111zM11 0l354 710h516v-108h-327v-195h268v-108h-268v-191h347v-108h-467v153h-225l-75 -153h-123zM261 257h173v348h-2z" />
    <glyph glyph-name="B" unicode="B" horiz-adv-x="648" 
d="M87 0v710h247c146 0 231 -57 231 -173c0 -66 -32 -132 -105 -161v-1c83 -20 141 -82 141 -180c0 -113 -76 -195 -233 -195h-281zM208 416h117c68 0 117 27 117 94c0 56 -38 93 -121 93l-113 -1v-186zM208 108h145c75 0 122 33 122 100c0 63 -47 104 -141 104h-126v-204z
" />
    <glyph glyph-name="C" unicode="C" horiz-adv-x="729" 
d="M413 -6c-193 0 -358 126 -358 359c0 202 128 365 356 365c104 0 206 -45 280 -136l-89 -75c-53 65 -116 97 -191 97c-135 0 -230 -101 -230 -251c0 -146 97 -246 232 -246c80 0 146 41 191 97l89 -76c-61 -76 -155 -134 -280 -134z" />
    <glyph glyph-name="Cacute" unicode="&#x106;" horiz-adv-x="729" 
d="M333 775l112 133h125l-126 -133h-111zM413 -6c-193 0 -358 126 -358 359c0 202 128 365 356 365c104 0 206 -45 280 -136l-89 -75c-53 65 -116 97 -191 97c-135 0 -230 -101 -230 -251c0 -146 97 -246 232 -246c80 0 146 41 191 97l89 -76c-61 -76 -155 -134 -280 -134z
" />
    <glyph glyph-name="Ccaron" unicode="&#x10c;" horiz-adv-x="729" 
d="M350 775l-108 133h109l57 -71h2l57 71h111l-111 -133h-117zM413 -6c-193 0 -358 126 -358 359c0 202 128 365 356 365c104 0 206 -45 280 -136l-89 -75c-53 65 -116 97 -191 97c-135 0 -230 -101 -230 -251c0 -146 97 -246 232 -246c80 0 146 41 191 97l89 -76
c-61 -76 -155 -134 -280 -134z" />
    <glyph glyph-name="Ccedilla" unicode="&#xc7;" horiz-adv-x="729" 
d="M417 -6l-11 -24v-2c61 -2 92 -31 92 -80c0 -44 -35 -78 -119 -78c-27 0 -44 3 -59 6v55c12 -4 27 -7 50 -7c24 0 51 9 51 30c0 18 -29 34 -84 34v36l15 34c-165 24 -297 147 -297 355c0 202 128 365 356 365c104 0 206 -45 280 -136l-89 -75c-53 65 -116 97 -191 97
c-135 0 -230 -101 -230 -251c0 -146 97 -246 232 -246c80 0 146 41 191 97l89 -76c-60 -75 -153 -133 -276 -134z" />
    <glyph glyph-name="Ccircumflex" unicode="&#x108;" horiz-adv-x="729" 
d="M242 775l111 133h117l108 -133h-109l-57 71h-2l-57 -71h-111zM413 -6c-193 0 -358 126 -358 359c0 202 128 365 356 365c104 0 206 -45 280 -136l-89 -75c-53 65 -116 97 -191 97c-135 0 -230 -101 -230 -251c0 -146 97 -246 232 -246c80 0 146 41 191 97l89 -76
c-61 -76 -155 -134 -280 -134z" />
    <glyph glyph-name="Cdotaccent" unicode="&#x10a;" horiz-adv-x="729" 
d="M412 773c-42 0 -75 34 -75 75c0 40 33 74 75 74s76 -34 76 -74c0 -41 -34 -75 -76 -75zM413 -6c-193 0 -358 126 -358 359c0 202 128 365 356 365c104 0 206 -45 280 -136l-89 -75c-53 65 -116 97 -191 97c-135 0 -230 -101 -230 -251c0 -146 97 -246 232 -246
c80 0 146 41 191 97l89 -76c-61 -76 -155 -134 -280 -134z" />
    <glyph glyph-name="D" unicode="D" horiz-adv-x="736" 
d="M87 0v710h226c225 0 369 -146 369 -356c0 -209 -138 -354 -366 -354h-229zM208 108h101c150 0 248 105 248 246c0 144 -99 248 -242 248h-107v-494z" />
    <glyph glyph-name="Eth" unicode="&#xd0;" horiz-adv-x="736" 
d="M313 710c225 0 369 -146 369 -356c0 -209 -138 -354 -366 -354h-229v301h-59v103h59v306h226zM309 108c150 0 248 105 248 246c0 144 -99 248 -242 248h-107v-198h168v-103h-168v-193h101z" />
    <glyph glyph-name="Dcaron" unicode="&#x10e;" horiz-adv-x="736" 
d="M301 775l-108 133h109l57 -71h2l57 71h111l-111 -133h-117zM87 0v710h226c225 0 369 -146 369 -356c0 -209 -138 -354 -366 -354h-229zM208 108h101c150 0 248 105 248 246c0 144 -99 248 -242 248h-107v-494z" />
    <glyph glyph-name="Dcroat" unicode="&#x110;" horiz-adv-x="736" 
d="M313 710c225 0 369 -146 369 -356c0 -209 -138 -354 -366 -354h-229v301h-59v103h59v306h226zM309 108c150 0 248 105 248 246c0 144 -99 248 -242 248h-107v-198h168v-103h-168v-193h101z" />
    <glyph glyph-name="uni1E0C" unicode="&#x1e0c;" horiz-adv-x="736" 
d="M87 0v710h226c225 0 369 -146 369 -356c0 -209 -138 -354 -366 -354h-229zM208 108h101c150 0 248 105 248 246c0 144 -99 248 -242 248h-107v-494zM352 -78c42 0 75 -34 75 -75c0 -40 -33 -74 -75 -74s-76 34 -76 74c0 41 34 75 76 75z" />
    <glyph glyph-name="uni1E0E" unicode="&#x1e0e;" horiz-adv-x="736" 
d="M87 0v710h226c225 0 369 -146 369 -356c0 -209 -138 -354 -366 -354h-229zM208 108h101c150 0 248 105 248 246c0 144 -99 248 -242 248h-107v-494zM501 -207h-298v94h298v-94z" />
    <glyph glyph-name="E" unicode="E" horiz-adv-x="607" 
d="M87 0v710h447v-108h-326v-196h263v-108h-263v-190h347v-108h-468z" />
    <glyph glyph-name="Eacute" unicode="&#xc9;" horiz-adv-x="607" 
d="M219 775l112 133h125l-126 -133h-111zM87 0v710h447v-108h-326v-196h263v-108h-263v-190h347v-108h-468z" />
    <glyph glyph-name="Ebreve" unicode="&#x114;" horiz-adv-x="607" 
d="M320 768c-96 0 -149 57 -156 140h88c2 -31 26 -54 68 -54s66 24 68 54h88c-7 -83 -60 -140 -156 -140zM87 0v710h447v-108h-326v-196h263v-108h-263v-190h347v-108h-468z" />
    <glyph glyph-name="Ecaron" unicode="&#x11a;" horiz-adv-x="607" 
d="M259 775l-108 133h109l57 -71h2l57 71h111l-111 -133h-117zM87 0v710h447v-108h-326v-196h263v-108h-263v-190h347v-108h-468z" />
    <glyph glyph-name="Ecircumflex" unicode="&#xca;" horiz-adv-x="607" 
d="M151 775l111 133h117l108 -133h-109l-57 71h-2l-57 -71h-111zM87 0v710h447v-108h-326v-196h263v-108h-263v-190h347v-108h-468z" />
    <glyph glyph-name="uni1EBE" unicode="&#x1ebe;" horiz-adv-x="607" 
d="M473 831l82 135h123l-122 -135h-83zM151 775l111 133h117l108 -133h-109l-57 71h-2l-57 -71h-111zM87 0v710h447v-108h-326v-196h263v-108h-263v-190h347v-108h-468z" />
    <glyph glyph-name="uni1EC6" unicode="&#x1ec6;" horiz-adv-x="607" 
d="M151 775l111 133h117l108 -133h-109l-57 71h-2l-57 -71h-111zM87 0v710h447v-108h-326v-196h263v-108h-263v-190h347v-108h-468zM327 -78c42 0 75 -34 75 -75c0 -40 -33 -74 -75 -74s-76 34 -76 74c0 41 34 75 76 75z" />
    <glyph glyph-name="uni1EC0" unicode="&#x1ec0;" horiz-adv-x="607" 
d="M524 830l-122 135h123l82 -135h-83zM151 775l111 133h117l108 -133h-109l-57 71h-2l-57 -71h-111zM87 0v710h447v-108h-326v-196h263v-108h-263v-190h347v-108h-468z" />
    <glyph glyph-name="uni1EC2" unicode="&#x1ec2;" horiz-adv-x="607" 
d="M482 840c32 24 63 45 63 66c0 10 -8 18 -26 18c-24 0 -55 -14 -80 -29l-24 52c20 18 64 43 128 43c49 0 85 -23 85 -70c0 -45 -43 -68 -72 -80h-74zM151 775l111 133h117l108 -133h-109l-57 71h-2l-57 -71h-111zM87 0v710h447v-108h-326v-196h263v-108h-263v-190h347
v-108h-468z" />
    <glyph glyph-name="uni1EC4" unicode="&#x1ec4;" horiz-adv-x="607" 
d="M393 930c-28 0 -54 13 -79 27c-21 12 -41 22 -59 22c-21 0 -38 -18 -51 -48l-64 29c19 54 55 96 108 96c36 0 62 -15 83 -27c20 -11 36 -23 56 -23c19 0 34 14 48 49l64 -22c-21 -67 -57 -103 -106 -103zM151 775l111 133h117l108 -133h-109l-57 71h-2l-57 -71h-111z
M87 0v710h447v-108h-326v-196h263v-108h-263v-190h347v-108h-468z" />
    <glyph glyph-name="Edieresis" unicode="&#xcb;" horiz-adv-x="607" 
d="M221 775c-41 0 -74 34 -74 74c0 39 33 72 74 72s75 -34 75 -73c0 -40 -34 -73 -75 -73zM420 775c-41 0 -74 34 -74 74c0 39 33 72 74 72s75 -34 75 -73c0 -40 -34 -73 -75 -73zM87 0v710h447v-108h-326v-196h263v-108h-263v-190h347v-108h-468z" />
    <glyph glyph-name="Edotaccent" unicode="&#x116;" horiz-adv-x="607" 
d="M321 773c-42 0 -75 34 -75 75c0 40 33 74 75 74s76 -34 76 -74c0 -41 -34 -75 -76 -75zM87 0v710h447v-108h-326v-196h263v-108h-263v-190h347v-108h-468z" />
    <glyph glyph-name="uni1EB8" unicode="&#x1eb8;" horiz-adv-x="607" 
d="M87 0v710h447v-108h-326v-196h263v-108h-263v-190h347v-108h-468zM327 -78c42 0 75 -34 75 -75c0 -40 -33 -74 -75 -74s-76 34 -76 74c0 41 34 75 76 75z" />
    <glyph glyph-name="Egrave" unicode="&#xc8;" horiz-adv-x="607" 
d="M320 775l-126 133h125l112 -133h-111zM87 0v710h447v-108h-326v-196h263v-108h-263v-190h347v-108h-468z" />
    <glyph glyph-name="uni1EBA" unicode="&#x1eba;" horiz-adv-x="607" 
d="M280 775c36 26 70 50 70 73c0 11 -9 20 -29 20c-27 0 -61 -16 -89 -32l-26 58c22 19 71 47 142 47c54 0 94 -25 94 -78c0 -50 -48 -75 -80 -88h-82zM87 0v710h447v-108h-326v-196h263v-108h-263v-190h347v-108h-468z" />
    <glyph glyph-name="Emacron" unicode="&#x112;" horiz-adv-x="607" 
d="M171 797v89h298v-89h-298zM87 0v710h447v-108h-326v-196h263v-108h-263v-190h347v-108h-468z" />
    <glyph glyph-name="Eogonek" unicode="&#x118;" horiz-adv-x="607" 
d="M542 0c-49 -11 -79 -44 -79 -75c0 -25 15 -41 43 -41c25 0 30 3 41 8l7 -68c-19 -8 -45 -12 -72 -12c-66 0 -108 35 -108 88c0 32 23 71 64 100h-351v710h447v-108h-326v-196h263v-108h-263v-190h347v-108h-13z" />
    <glyph glyph-name="uni1EBC" unicode="&#x1ebc;" horiz-adv-x="607" 
d="M398 775c-30 0 -58 14 -84 29c-23 13 -44 24 -63 24c-22 0 -41 -20 -54 -52l-68 31c20 58 58 103 114 103c39 0 66 -16 89 -29c21 -12 38 -24 59 -24s36 15 51 52l68 -23c-22 -73 -60 -111 -112 -111zM87 0v710h447v-108h-326v-196h263v-108h-263v-190h347v-108h-468z
" />
    <glyph glyph-name="F" unicode="F" horiz-adv-x="595" 
d="M87 0v710h464v-108h-343v-212h288v-109h-288v-281h-121z" />
    <glyph glyph-name="G" unicode="G" horiz-adv-x="759" 
d="M413 -6c-204 0 -358 135 -358 360c0 209 135 364 354 364c99 0 203 -37 277 -117l-85 -74c-49 48 -113 77 -193 77c-128 0 -227 -96 -227 -250c0 -142 90 -250 232 -250c57 0 110 15 158 47v120h-174v108h294v-296c-65 -54 -169 -89 -278 -89z" />
    <glyph glyph-name="Gbreve" unicode="&#x11e;" horiz-adv-x="759" 
d="M406 768c-96 0 -149 57 -156 140h88c2 -31 26 -54 68 -54s66 24 68 54h88c-7 -83 -60 -140 -156 -140zM413 -6c-204 0 -358 135 -358 360c0 209 135 364 354 364c99 0 203 -37 277 -117l-85 -74c-49 48 -113 77 -193 77c-128 0 -227 -96 -227 -250
c0 -142 90 -250 232 -250c57 0 110 15 158 47v120h-174v108h294v-296c-65 -54 -169 -89 -278 -89z" />
    <glyph glyph-name="Gcaron" unicode="&#x1e6;" horiz-adv-x="759" 
d="M345 775l-108 133h109l57 -71h2l57 71h111l-111 -133h-117zM413 -6c-204 0 -358 135 -358 360c0 209 135 364 354 364c99 0 203 -37 277 -117l-85 -74c-49 48 -113 77 -193 77c-128 0 -227 -96 -227 -250c0 -142 90 -250 232 -250c57 0 110 15 158 47v120h-174v108h294
v-296c-65 -54 -169 -89 -278 -89z" />
    <glyph glyph-name="Gcircumflex" unicode="&#x11c;" horiz-adv-x="759" 
d="M237 775l111 133h117l108 -133h-109l-57 71h-2l-57 -71h-111zM413 -6c-204 0 -358 135 -358 360c0 209 135 364 354 364c99 0 203 -37 277 -117l-85 -74c-49 48 -113 77 -193 77c-128 0 -227 -96 -227 -250c0 -142 90 -250 232 -250c57 0 110 15 158 47v120h-174v108h294
v-296c-65 -54 -169 -89 -278 -89z" />
    <glyph glyph-name="Gcommaaccent" unicode="&#x122;" horiz-adv-x="759" 
d="M413 -6c-204 0 -358 135 -358 360c0 209 135 364 354 364c99 0 203 -37 277 -117l-85 -74c-49 48 -113 77 -193 77c-128 0 -227 -96 -227 -250c0 -142 90 -250 232 -250c57 0 110 15 158 47v120h-174v108h294v-296c-65 -54 -169 -89 -278 -89zM336 -219l-26 65
c40 14 55 30 55 62c0 15 -2 22 -6 39h102c3 -15 4 -28 4 -47c0 -76 -61 -112 -129 -119z" />
    <glyph glyph-name="Gdotaccent" unicode="&#x120;" horiz-adv-x="759" 
d="M407 773c-42 0 -75 34 -75 75c0 40 33 74 75 74s76 -34 76 -74c0 -41 -34 -75 -76 -75zM413 -6c-204 0 -358 135 -358 360c0 209 135 364 354 364c99 0 203 -37 277 -117l-85 -74c-49 48 -113 77 -193 77c-128 0 -227 -96 -227 -250c0 -142 90 -250 232 -250
c57 0 110 15 158 47v120h-174v108h294v-296c-65 -54 -169 -89 -278 -89z" />
    <glyph glyph-name="uni1E20" unicode="&#x1e20;" horiz-adv-x="759" 
d="M257 797v89h298v-89h-298zM413 -6c-204 0 -358 135 -358 360c0 209 135 364 354 364c99 0 203 -37 277 -117l-85 -74c-49 48 -113 77 -193 77c-128 0 -227 -96 -227 -250c0 -142 90 -250 232 -250c57 0 110 15 158 47v120h-174v108h294v-296c-65 -54 -169 -89 -278 -89z
" />
    <glyph glyph-name="H" unicode="H" horiz-adv-x="736" 
d="M87 0v710h121v-317h320v317h121v-710h-121v285h-320v-285h-121z" />
    <glyph glyph-name="Hbar" unicode="&#x126;" horiz-adv-x="738" 
d="M705 599v-83h-54v-516h-121v285h-320v-285h-121v516h-52v83h52v111h121v-111h320v111h121v-111h54zM530 393v123h-320v-123h320z" />
    <glyph glyph-name="uni1E2A" unicode="&#x1e2a;" horiz-adv-x="736" 
d="M87 0v710h121v-317h320v317h121v-710h-121v285h-320v-285h-121zM371 -226c-96 0 -149 57 -156 149h88c2 -33 26 -63 68 -63s66 30 68 63h88c-7 -92 -60 -149 -156 -149z" />
    <glyph glyph-name="Hcircumflex" unicode="&#x124;" horiz-adv-x="736" 
d="M202 775l111 133h117l108 -133h-109l-57 71h-2l-57 -71h-111zM87 0v710h121v-317h320v317h121v-710h-121v285h-320v-285h-121z" />
    <glyph glyph-name="uni1E24" unicode="&#x1e24;" horiz-adv-x="736" 
d="M87 0v710h121v-317h320v317h121v-710h-121v285h-320v-285h-121zM371 -78c42 0 75 -34 75 -75c0 -40 -33 -74 -75 -74s-76 34 -76 74c0 41 34 75 76 75z" />
    <glyph glyph-name="I" unicode="I" horiz-adv-x="304" 
d="M91 0v710h121v-710h-121z" />
    <glyph glyph-name="IJ" unicode="&#x132;" horiz-adv-x="811" 
d="M91 0v710h121v-710h-121zM523 -6c-67 0 -142 29 -188 89l68 88c26 -31 71 -63 115 -63c56 0 96 35 96 136v466h121v-467c0 -156 -58 -249 -212 -249z" />
    <glyph glyph-name="Iacute" unicode="&#xcd;" horiz-adv-x="304" 
d="M95 775l112 133h125l-126 -133h-111zM91 0v710h121v-710h-121z" />
    <glyph glyph-name="Ibreve" unicode="&#x12c;" horiz-adv-x="304" 
d="M150 768c-96 0 -149 57 -156 140h88c2 -31 26 -54 68 -54s66 24 68 54h88c-7 -83 -60 -140 -156 -140zM91 0v710h121v-710h-121z" />
    <glyph glyph-name="uni01CF" unicode="&#x1cf;" horiz-adv-x="304" 
d="M89 775l-108 133h109l57 -71h2l57 71h111l-111 -133h-117zM91 0v710h121v-710h-121z" />
    <glyph glyph-name="Icircumflex" unicode="&#xce;" horiz-adv-x="304" 
d="M-19 775l111 133h117l108 -133h-109l-57 71h-2l-57 -71h-111zM91 0v710h121v-710h-121z" />
    <glyph glyph-name="Idieresis" unicode="&#xcf;" horiz-adv-x="304" 
d="M51 775c-41 0 -74 34 -74 74c0 39 33 72 74 72s75 -34 75 -73c0 -40 -34 -73 -75 -73zM250 775c-41 0 -74 34 -74 74c0 39 33 72 74 72s75 -34 75 -73c0 -40 -34 -73 -75 -73zM91 0v710h121v-710h-121z" />
    <glyph glyph-name="Idotaccent" unicode="&#x130;" horiz-adv-x="304" 
d="M151 773c-42 0 -75 34 -75 75c0 40 33 74 75 74s76 -34 76 -74c0 -41 -34 -75 -76 -75zM91 0v710h121v-710h-121z" />
    <glyph glyph-name="uni1ECA" unicode="&#x1eca;" horiz-adv-x="304" 
d="M91 0v710h121v-710h-121zM154 -78c42 0 75 -34 75 -75c0 -40 -33 -74 -75 -74s-76 34 -76 74c0 41 34 75 76 75z" />
    <glyph glyph-name="Igrave" unicode="&#xcc;" horiz-adv-x="304" 
d="M100 775l-126 133h125l112 -133h-111zM91 0v710h121v-710h-121z" />
    <glyph glyph-name="uni1EC8" unicode="&#x1ec8;" horiz-adv-x="304" 
d="M110 775c36 26 70 50 70 73c0 11 -9 20 -29 20c-27 0 -61 -16 -89 -32l-26 58c22 19 71 47 142 47c54 0 94 -25 94 -78c0 -50 -48 -75 -80 -88h-82zM91 0v710h121v-710h-121z" />
    <glyph glyph-name="Imacron" unicode="&#x12a;" horiz-adv-x="304" 
d="M1 797v89h298v-89h-298zM91 0v710h121v-710h-121z" />
    <glyph glyph-name="Iogonek" unicode="&#x12e;" horiz-adv-x="304" 
d="M193 0c-49 -11 -79 -44 -79 -75c0 -25 15 -41 43 -41c25 0 30 3 41 8l7 -68c-19 -8 -45 -12 -72 -12c-66 0 -108 35 -108 88c0 32 23 72 66 101v709h121v-710h-19z" />
    <glyph glyph-name="Itilde" unicode="&#x128;" horiz-adv-x="304" 
d="M228 775c-30 0 -58 14 -84 29c-23 13 -44 24 -63 24c-22 0 -41 -20 -54 -52l-68 31c20 58 58 103 114 103c39 0 66 -16 89 -29c21 -12 38 -24 59 -24s36 15 51 52l68 -23c-22 -73 -60 -111 -112 -111zM91 0v710h121v-710h-121z" />
    <glyph glyph-name="J" unicode="J" horiz-adv-x="507" 
d="M219 -6c-67 0 -142 29 -188 89l68 88c26 -31 71 -63 115 -63c56 0 96 35 96 136v466h121v-467c0 -156 -58 -249 -212 -249z" />
    <glyph glyph-name="uni00A40301" horiz-adv-x="507" 
d="M316 775l112 133h125l-126 -133h-111zM219 -6c-67 0 -142 29 -188 89l68 88c26 -31 71 -63 115 -63c56 0 96 35 96 136v466h121v-467c0 -156 -58 -249 -212 -249z" />
    <glyph glyph-name="Jcircumflex" unicode="&#x134;" horiz-adv-x="507" 
d="M201 775l111 133h117l108 -133h-109l-57 71h-2l-57 -71h-111zM219 -6c-67 0 -142 29 -188 89l68 88c26 -31 71 -63 115 -63c56 0 96 35 96 136v466h121v-467c0 -156 -58 -249 -212 -249z" />
    <glyph glyph-name="K" unicode="K" horiz-adv-x="664" 
d="M87 0v710h121v-340h2l272 340h154l-267 -317l275 -393h-150l-205 297l-81 -96v-201h-121z" />
    <glyph glyph-name="Kcommaaccent" unicode="&#x136;" horiz-adv-x="664" 
d="M87 0v710h121v-340h2l272 340h154l-267 -317l275 -393h-150l-205 297l-81 -96v-201h-121zM265 -219l-26 65c40 14 55 30 55 62c0 15 -2 22 -6 39h102c3 -15 4 -28 4 -47c0 -76 -61 -112 -129 -119z" />
    <glyph glyph-name="L" unicode="L" horiz-adv-x="573" 
d="M87 0v710h121v-602h329v-108h-450z" />
    <glyph glyph-name="Lacute" unicode="&#x139;" horiz-adv-x="573" 
d="M193 775l112 133h125l-126 -133h-111zM87 0v710h121v-602h329v-108h-450z" />
    <glyph glyph-name="Lcaron" unicode="&#x13d;" horiz-adv-x="573" 
d="M320 582l30 198h108l-58 -198h-80zM87 0v710h121v-602h329v-108h-450z" />
    <glyph glyph-name="Lcommaaccent" unicode="&#x13b;" horiz-adv-x="573" 
d="M87 0v710h121v-602h329v-108h-450zM230 -219l-26 65c40 14 55 30 55 62c0 15 -2 22 -6 39h102c3 -15 4 -28 4 -47c0 -76 -61 -112 -129 -119z" />
    <glyph glyph-name="Ldot" unicode="&#x13f;" horiz-adv-x="573" 
d="M87 0v710h121v-602h329v-108h-450zM438 265c-42 0 -76 33 -76 74s34 75 76 75c41 0 75 -34 75 -75s-34 -74 -75 -74z" />
    <glyph glyph-name="uni1E36" unicode="&#x1e36;" horiz-adv-x="573" 
d="M87 0v710h121v-602h329v-108h-450zM308 -78c42 0 75 -34 75 -75c0 -40 -33 -74 -75 -74s-76 34 -76 74c0 41 34 75 76 75z" />
    <glyph glyph-name="uni1E38" unicode="&#x1e38;" horiz-adv-x="573" 
d="M145 797v89h298v-89h-298zM87 0v710h121v-602h329v-108h-450zM308 -78c42 0 75 -34 75 -75c0 -40 -33 -74 -75 -74s-76 34 -76 74c0 41 34 75 76 75z" />
    <glyph glyph-name="uni1E3A" unicode="&#x1e3a;" horiz-adv-x="573" 
d="M87 0v710h121v-602h329v-108h-450zM457 -207h-298v94h298v-94z" />
    <glyph glyph-name="Lslash" unicode="&#x141;" horiz-adv-x="579" 
d="M214 108h329v-108h-450v270l-72 -31v98l72 31v342h121v-289l118 51v-100l-118 -50v-214z" />
    <glyph glyph-name="M" unicode="M" horiz-adv-x="887" 
d="M88 0v710h121l234 -425h2l234 425h121v-710h-121v475h-2l-194 -338h-79l-194 338h-1v-475h-121z" />
    <glyph glyph-name="uni1E42" unicode="&#x1e42;" horiz-adv-x="887" 
d="M88 0v710h121l234 -425h2l234 425h121v-710h-121v475h-2l-194 -338h-79l-194 338h-1v-475h-121zM444 -78c42 0 75 -34 75 -75c0 -40 -33 -74 -75 -74s-76 34 -76 74c0 41 34 75 76 75z" />
    <glyph glyph-name="N" unicode="N" horiz-adv-x="763" 
d="M87 0v710h120l347 -510h2v510h120v-710h-123l-343 501h-2v-501h-121z" />
    <glyph glyph-name="Nacute" unicode="&#x143;" horiz-adv-x="763" 
d="M280 775l112 133h125l-126 -133h-111zM87 0v710h120l347 -510h2v510h120v-710h-123l-343 501h-2v-501h-121z" />
    <glyph glyph-name="Ncaron" unicode="&#x147;" horiz-adv-x="763" 
d="M320 775l-108 133h109l57 -71h2l57 71h111l-111 -133h-117zM87 0v710h120l347 -510h2v510h120v-710h-123l-343 501h-2v-501h-121z" />
    <glyph glyph-name="Ncommaaccent" unicode="&#x145;" horiz-adv-x="763" 
d="M87 0v710h120l347 -510h2v510h120v-710h-123l-343 501h-2v-501h-121zM303 -219l-26 65c40 14 55 30 55 62c0 15 -2 22 -6 39h102c3 -15 4 -28 4 -47c0 -76 -61 -112 -129 -119z" />
    <glyph glyph-name="uni1E44" unicode="&#x1e44;" horiz-adv-x="763" 
d="M382 773c-42 0 -75 34 -75 75c0 40 33 74 75 74s76 -34 76 -74c0 -41 -34 -75 -76 -75zM87 0v710h120l347 -510h2v510h120v-710h-123l-343 501h-2v-501h-121z" />
    <glyph glyph-name="uni1E46" unicode="&#x1e46;" horiz-adv-x="763" 
d="M87 0v710h120l347 -510h2v510h120v-710h-123l-343 501h-2v-501h-121zM381 -78c42 0 75 -34 75 -75c0 -40 -33 -74 -75 -74s-76 34 -76 74c0 41 34 75 76 75z" />
    <glyph glyph-name="Eng" unicode="&#x14a;" horiz-adv-x="764" 
d="M556 710h121v-713c0 -163 -100 -202 -195 -202c-35 0 -55 3 -88 14l9 98c17 -8 43 -11 58 -11c72 0 95 49 95 96v7l-346 501h-2v-500h-121v710h118l349 -511h2v511z" />
    <glyph glyph-name="uni019D" unicode="&#x19d;" horiz-adv-x="763" 
d="M556 710h120v-710h-123l-343 501h-2v-512c0 -155 -70 -194 -147 -194c-23 0 -53 3 -86 14l9 98c19 -6 34 -10 48 -10c38 0 55 27 55 67v746h121v-1l346 -509h2v510z" />
    <glyph glyph-name="uni1E48" unicode="&#x1e48;" horiz-adv-x="763" 
d="M87 0v710h120l347 -510h2v510h120v-710h-123l-343 501h-2v-501h-121zM530 -207h-298v94h298v-94z" />
    <glyph glyph-name="Ntilde" unicode="&#xd1;" horiz-adv-x="763" 
d="M459 775c-30 0 -58 14 -84 29c-23 13 -44 24 -63 24c-22 0 -41 -20 -54 -52l-68 31c20 58 58 103 114 103c39 0 66 -16 89 -29c21 -12 38 -24 59 -24s36 15 51 52l68 -23c-22 -73 -60 -111 -112 -111zM87 0v710h120l347 -510h2v510h120v-710h-123l-343 501h-2v-501h-121z
" />
    <glyph glyph-name="O" unicode="O" horiz-adv-x="827" 
d="M414 -8c-213 0 -359 154 -359 363s146 363 359 363c205 0 358 -146 358 -363c0 -216 -153 -363 -358 -363zM414 105c131 0 232 105 232 250c0 146 -101 250 -232 250c-139 0 -234 -111 -234 -250s95 -250 234 -250z" />
    <glyph glyph-name="Oacute" unicode="&#xd3;" horiz-adv-x="827" 
d="M353 775l112 133h125l-126 -133h-111zM414 -8c-213 0 -359 154 -359 363s146 363 359 363c205 0 358 -146 358 -363c0 -216 -153 -363 -358 -363zM414 105c131 0 232 105 232 250c0 146 -101 250 -232 250c-139 0 -234 -111 -234 -250s95 -250 234 -250z" />
    <glyph glyph-name="Obreve" unicode="&#x14e;" horiz-adv-x="827" 
d="M415 768c-96 0 -149 57 -156 140h88c2 -31 26 -54 68 -54s66 24 68 54h88c-7 -83 -60 -140 -156 -140zM414 -8c-213 0 -359 154 -359 363s146 363 359 363c205 0 358 -146 358 -363c0 -216 -153 -363 -358 -363zM414 105c131 0 232 105 232 250c0 146 -101 250 -232 250
c-139 0 -234 -111 -234 -250s95 -250 234 -250z" />
    <glyph glyph-name="uni01D1" unicode="&#x1d1;" horiz-adv-x="827" 
d="M354 775l-108 133h109l57 -71h2l57 71h111l-111 -133h-117zM414 -8c-213 0 -359 154 -359 363s146 363 359 363c205 0 358 -146 358 -363c0 -216 -153 -363 -358 -363zM414 105c131 0 232 105 232 250c0 146 -101 250 -232 250c-139 0 -234 -111 -234 -250
s95 -250 234 -250z" />
    <glyph glyph-name="Ocircumflex" unicode="&#xd4;" horiz-adv-x="827" 
d="M246 775l111 133h117l108 -133h-109l-57 71h-2l-57 -71h-111zM414 -8c-213 0 -359 154 -359 363s146 363 359 363c205 0 358 -146 358 -363c0 -216 -153 -363 -358 -363zM414 105c131 0 232 105 232 250c0 146 -101 250 -232 250c-139 0 -234 -111 -234 -250
s95 -250 234 -250z" />
    <glyph glyph-name="uni1ED0" unicode="&#x1ed0;" horiz-adv-x="827" 
d="M568 831l82 135h123l-122 -135h-83zM246 775l111 133h117l108 -133h-109l-57 71h-2l-57 -71h-111zM414 -8c-213 0 -359 154 -359 363s146 363 359 363c205 0 358 -146 358 -363c0 -216 -153 -363 -358 -363zM414 105c131 0 232 105 232 250c0 146 -101 250 -232 250
c-139 0 -234 -111 -234 -250s95 -250 234 -250z" />
    <glyph glyph-name="uni1ED8" unicode="&#x1ed8;" horiz-adv-x="827" 
d="M246 775l111 133h117l108 -133h-109l-57 71h-2l-57 -71h-111zM414 -8c-213 0 -359 154 -359 363s146 363 359 363c205 0 358 -146 358 -363c0 -216 -153 -363 -358 -363zM414 105c131 0 232 105 232 250c0 146 -101 250 -232 250c-139 0 -234 -111 -234 -250
s95 -250 234 -250zM414 -78c42 0 75 -34 75 -75c0 -40 -33 -74 -75 -74s-76 34 -76 74c0 41 34 75 76 75z" />
    <glyph glyph-name="uni1ED2" unicode="&#x1ed2;" horiz-adv-x="827" 
d="M619 830l-122 135h123l82 -135h-83zM246 775l111 133h117l108 -133h-109l-57 71h-2l-57 -71h-111zM414 -8c-213 0 -359 154 -359 363s146 363 359 363c205 0 358 -146 358 -363c0 -216 -153 -363 -358 -363zM414 105c131 0 232 105 232 250c0 146 -101 250 -232 250
c-139 0 -234 -111 -234 -250s95 -250 234 -250z" />
    <glyph glyph-name="uni1ED4" unicode="&#x1ed4;" horiz-adv-x="827" 
d="M577 840c32 24 63 45 63 66c0 10 -8 18 -26 18c-24 0 -55 -14 -80 -29l-24 52c20 18 64 43 128 43c49 0 85 -23 85 -70c0 -45 -43 -68 -72 -80h-74zM246 775l111 133h117l108 -133h-109l-57 71h-2l-57 -71h-111zM414 -8c-213 0 -359 154 -359 363s146 363 359 363
c205 0 358 -146 358 -363c0 -216 -153 -363 -358 -363zM414 105c131 0 232 105 232 250c0 146 -101 250 -232 250c-139 0 -234 -111 -234 -250s95 -250 234 -250z" />
    <glyph glyph-name="uni1ED6" unicode="&#x1ed6;" horiz-adv-x="827" 
d="M488 930c-28 0 -54 13 -79 27c-21 12 -41 22 -59 22c-21 0 -38 -18 -51 -48l-64 29c19 54 55 96 108 96c36 0 62 -15 83 -27c20 -11 36 -23 56 -23c19 0 34 14 48 49l64 -22c-21 -67 -57 -103 -106 -103zM246 775l111 133h117l108 -133h-109l-57 71h-2l-57 -71h-111z
M414 -8c-213 0 -359 154 -359 363s146 363 359 363c205 0 358 -146 358 -363c0 -216 -153 -363 -358 -363zM414 105c131 0 232 105 232 250c0 146 -101 250 -232 250c-139 0 -234 -111 -234 -250s95 -250 234 -250z" />
    <glyph glyph-name="Odieresis" unicode="&#xd6;" horiz-adv-x="827" 
d="M316 775c-41 0 -74 34 -74 74c0 39 33 72 74 72s75 -34 75 -73c0 -40 -34 -73 -75 -73zM515 775c-41 0 -74 34 -74 74c0 39 33 72 74 72s75 -34 75 -73c0 -40 -34 -73 -75 -73zM414 -8c-213 0 -359 154 -359 363s146 363 359 363c205 0 358 -146 358 -363
c0 -216 -153 -363 -358 -363zM414 105c131 0 232 105 232 250c0 146 -101 250 -232 250c-139 0 -234 -111 -234 -250s95 -250 234 -250z" />
    <glyph glyph-name="uni1ECC" unicode="&#x1ecc;" horiz-adv-x="827" 
d="M414 -8c-213 0 -359 154 -359 363s146 363 359 363c205 0 358 -146 358 -363c0 -216 -153 -363 -358 -363zM414 105c131 0 232 105 232 250c0 146 -101 250 -232 250c-139 0 -234 -111 -234 -250s95 -250 234 -250zM414 -78c42 0 75 -34 75 -75c0 -40 -33 -74 -75 -74
s-76 34 -76 74c0 41 34 75 76 75z" />
    <glyph glyph-name="Ograve" unicode="&#xd2;" horiz-adv-x="827" 
d="M373 775l-126 133h125l112 -133h-111zM414 -8c-213 0 -359 154 -359 363s146 363 359 363c205 0 358 -146 358 -363c0 -216 -153 -363 -358 -363zM414 105c131 0 232 105 232 250c0 146 -101 250 -232 250c-139 0 -234 -111 -234 -250s95 -250 234 -250z" />
    <glyph glyph-name="uni1ECE" unicode="&#x1ece;" horiz-adv-x="827" 
d="M375 775c36 26 70 50 70 73c0 11 -9 20 -29 20c-27 0 -61 -16 -89 -32l-26 58c22 19 71 47 142 47c54 0 94 -25 94 -78c0 -50 -48 -75 -80 -88h-82zM414 -8c-213 0 -359 154 -359 363s146 363 359 363c205 0 358 -146 358 -363c0 -216 -153 -363 -358 -363zM414 105
c131 0 232 105 232 250c0 146 -101 250 -232 250c-139 0 -234 -111 -234 -250s95 -250 234 -250z" />
    <glyph glyph-name="Ohorn" unicode="&#x1a0;" horiz-adv-x="870" 
d="M732 774h114v-71c0 -90 -37 -155 -110 -180c23 -49 36 -106 36 -168c0 -216 -153 -363 -358 -363c-213 0 -359 154 -359 363s146 363 359 363c115 0 214 -46 279 -125c40 19 39 64 39 117v64zM414 105c131 0 232 105 232 250c0 146 -101 250 -232 250
c-139 0 -234 -111 -234 -250s95 -250 234 -250z" />
    <glyph glyph-name="uni1EDA" unicode="&#x1eda;" horiz-adv-x="870" 
d="M590 908l-126 -133h-111l112 133h125zM732 774h114v-71c0 -90 -37 -155 -110 -180c23 -49 36 -106 36 -168c0 -216 -153 -363 -358 -363c-213 0 -359 154 -359 363s146 363 359 363c115 0 214 -46 279 -125c40 19 39 64 39 117v64zM414 105c131 0 232 105 232 250
c0 146 -101 250 -232 250c-139 0 -234 -111 -234 -250s95 -250 234 -250z" />
    <glyph glyph-name="uni1EE2" unicode="&#x1ee2;" horiz-adv-x="870" 
d="M732 774h114v-71c0 -90 -37 -155 -110 -180c23 -49 36 -106 36 -168c0 -216 -153 -363 -358 -363c-213 0 -359 154 -359 363s146 363 359 363c115 0 214 -46 279 -125c40 19 39 64 39 117v64zM414 105c131 0 232 105 232 250c0 146 -101 250 -232 250
c-139 0 -234 -111 -234 -250s95 -250 234 -250zM414 -78c42 0 75 -34 75 -75c0 -40 -33 -74 -75 -74s-76 34 -76 74c0 41 34 75 76 75z" />
    <glyph glyph-name="uni1EDC" unicode="&#x1edc;" horiz-adv-x="870" 
d="M484 775h-111l-126 133h125zM732 774h114v-71c0 -90 -37 -155 -110 -180c23 -49 36 -106 36 -168c0 -216 -153 -363 -358 -363c-213 0 -359 154 -359 363s146 363 359 363c115 0 214 -46 279 -125c40 19 39 64 39 117v64zM414 105c131 0 232 105 232 250
c0 146 -101 250 -232 250c-139 0 -234 -111 -234 -250s95 -250 234 -250z" />
    <glyph glyph-name="uni1EDE" unicode="&#x1ede;" horiz-adv-x="870" 
d="M416 868c-27 0 -61 -16 -89 -32l-26 58c22 19 71 47 142 47c54 0 94 -25 94 -78c0 -50 -48 -75 -80 -88h-82c36 26 70 50 70 73c0 11 -9 20 -29 20zM732 774h114v-71c0 -90 -37 -155 -110 -180c23 -49 36 -106 36 -168c0 -216 -153 -363 -358 -363
c-213 0 -359 154 -359 363s146 363 359 363c115 0 214 -46 279 -125c40 19 39 64 39 117v64zM414 105c131 0 232 105 232 250c0 146 -101 250 -232 250c-139 0 -234 -111 -234 -250s95 -250 234 -250z" />
    <glyph glyph-name="uni1EE0" unicode="&#x1ee0;" horiz-adv-x="870" 
d="M346 828c-22 0 -41 -20 -54 -52l-68 31c20 58 58 103 114 103c39 0 66 -16 89 -29c21 -12 38 -24 59 -24s36 15 51 52l68 -23c-22 -73 -60 -111 -112 -111c-30 0 -58 14 -84 29c-23 13 -44 24 -63 24zM732 774h114v-71c0 -90 -37 -155 -110 -180c23 -49 36 -106 36 -168
c0 -216 -153 -363 -358 -363c-213 0 -359 154 -359 363s146 363 359 363c115 0 214 -46 279 -125c40 19 39 64 39 117v64zM414 105c131 0 232 105 232 250c0 146 -101 250 -232 250c-139 0 -234 -111 -234 -250s95 -250 234 -250z" />
    <glyph glyph-name="Ohungarumlaut" unicode="&#x150;" horiz-adv-x="827" 
d="M267 775l115 144l114 1l-124 -145h-105zM458 775l114 144l114 1l-124 -145h-104zM414 -8c-213 0 -359 154 -359 363s146 363 359 363c205 0 358 -146 358 -363c0 -216 -153 -363 -358 -363zM414 105c131 0 232 105 232 250c0 146 -101 250 -232 250
c-139 0 -234 -111 -234 -250s95 -250 234 -250z" />
    <glyph glyph-name="Omacron" unicode="&#x14c;" horiz-adv-x="827" 
d="M266 797v89h298v-89h-298zM414 -8c-213 0 -359 154 -359 363s146 363 359 363c205 0 358 -146 358 -363c0 -216 -153 -363 -358 -363zM414 105c131 0 232 105 232 250c0 146 -101 250 -232 250c-139 0 -234 -111 -234 -250s95 -250 234 -250z" />
    <glyph glyph-name="uni01EA" unicode="&#x1ea;" horiz-adv-x="827" 
d="M474 -4c-41 -13 -66 -43 -66 -71c0 -25 15 -41 43 -41c25 0 30 3 41 8l7 -68c-19 -8 -45 -12 -72 -12c-66 0 -108 35 -108 88c0 29 19 64 54 92v2c-191 19 -318 166 -318 361c0 209 146 363 359 363c205 0 358 -146 358 -363c0 -194 -124 -333 -298 -359zM180 355
c0 -139 95 -250 234 -250c131 0 232 105 232 250c0 146 -101 250 -232 250c-139 0 -234 -111 -234 -250z" />
    <glyph glyph-name="Oslash" unicode="&#xd8;" horiz-adv-x="827" 
d="M785 677l-85 -93c45 -60 72 -139 72 -229c0 -216 -153 -363 -358 -363c-79 0 -148 21 -205 58l-78 -85l-69 64l77 83c-54 63 -84 147 -84 243c0 209 146 363 359 363c84 0 160 -25 220 -69l83 90zM180 355c0 -57 16 -109 44 -150l328 355c-39 29 -86 45 -138 45
c-139 0 -234 -111 -234 -250zM646 355c0 51 -12 96 -34 134l-321 -350c35 -22 76 -34 123 -34c131 0 232 105 232 250z" />
    <glyph glyph-name="Oslashacute" unicode="&#x1fe;" horiz-adv-x="827" 
d="M587 908l-126 -133h-111l112 133h125zM785 677l-85 -93c45 -60 72 -139 72 -229c0 -216 -153 -363 -358 -363c-79 0 -148 21 -205 58l-78 -85l-69 64l77 83c-54 63 -84 147 -84 243c0 209 146 363 359 363c84 0 160 -25 220 -69l83 90zM180 355c0 -57 16 -109 44 -150
l328 355c-39 29 -86 45 -138 45c-139 0 -234 -111 -234 -250zM646 355c0 51 -12 96 -34 134l-321 -350c35 -22 76 -34 123 -34c131 0 232 105 232 250z" />
    <glyph glyph-name="Otilde" unicode="&#xd5;" horiz-adv-x="827" 
d="M493 775c-30 0 -58 14 -84 29c-23 13 -44 24 -63 24c-22 0 -41 -20 -54 -52l-68 31c20 58 58 103 114 103c39 0 66 -16 89 -29c21 -12 38 -24 59 -24s36 15 51 52l68 -23c-22 -73 -60 -111 -112 -111zM414 -8c-213 0 -359 154 -359 363s146 363 359 363
c205 0 358 -146 358 -363c0 -216 -153 -363 -358 -363zM414 105c131 0 232 105 232 250c0 146 -101 250 -232 250c-139 0 -234 -111 -234 -250s95 -250 234 -250z" />
    <glyph glyph-name="OE" unicode="&#x152;" horiz-adv-x="966" 
d="M565 108h349v-108h-498c-215 0 -361 155 -361 356s146 355 361 354h478v-108h-329v-197h269v-108h-269v-189zM416 112l34 1v485h-34c-133 1 -236 -103 -236 -242s103 -245 236 -244z" />
    <glyph glyph-name="P" unicode="P" horiz-adv-x="629" 
d="M87 0v710h257c170 0 243 -98 243 -230c0 -154 -104 -227 -257 -227h-122v-253h-121zM208 362h110c99 0 144 50 144 120c0 75 -48 120 -135 120h-119v-240z" />
    <glyph glyph-name="Thorn" unicode="&#xde;" horiz-adv-x="649" 
d="M87 0v710h121v-131h157c169 0 241 -98 241 -230c0 -152 -103 -224 -256 -224h-142v-125h-121zM208 233h130c99 0 143 50 143 118c0 75 -47 120 -135 120h-138v-238z" />
    <glyph glyph-name="Q" unicode="Q" horiz-adv-x="848" 
d="M792 65l-68 -86l-90 82c-60 -44 -136 -69 -220 -69c-213 0 -359 154 -359 363s146 363 359 363c205 0 358 -146 358 -363c0 -84 -23 -157 -63 -216zM180 355c0 -146 102 -250 234 -250c50 0 94 15 130 40l-71 65l67 80l74 -66c21 38 32 83 32 131c0 139 -93 250 -232 250
c-132 0 -234 -104 -234 -250z" />
    <glyph glyph-name="R" unicode="R" horiz-adv-x="659" 
d="M87 0v710h262c169 0 243 -98 243 -230c0 -111 -54 -185 -158 -215l184 -265h-145l-170 253h-95v-253h-121zM208 362h115c97 0 144 50 144 120c0 75 -49 120 -136 120h-123v-240z" />
    <glyph glyph-name="Racute" unicode="&#x154;" horiz-adv-x="659" 
d="M227 775l112 133h125l-126 -133h-111zM87 0v710h262c169 0 243 -98 243 -230c0 -111 -54 -185 -158 -215l184 -265h-145l-170 253h-95v-253h-121zM208 362h115c97 0 144 50 144 120c0 75 -49 120 -136 120h-123v-240z" />
    <glyph glyph-name="Rcaron" unicode="&#x158;" horiz-adv-x="659" 
d="M267 775l-108 133h109l57 -71h2l57 71h111l-111 -133h-117zM87 0v710h262c169 0 243 -98 243 -230c0 -111 -54 -185 -158 -215l184 -265h-145l-170 253h-95v-253h-121zM208 362h115c97 0 144 50 144 120c0 75 -49 120 -136 120h-123v-240z" />
    <glyph glyph-name="Rcommaaccent" unicode="&#x156;" horiz-adv-x="659" 
d="M87 0v710h262c169 0 243 -98 243 -230c0 -111 -54 -185 -158 -215l184 -265h-145l-170 253h-95v-253h-121zM208 362h115c97 0 144 50 144 120c0 75 -49 120 -136 120h-123v-240zM250 -219l-26 65c40 14 55 30 55 62c0 15 -2 22 -6 39h102c3 -15 4 -28 4 -47
c0 -76 -61 -112 -129 -119z" />
    <glyph glyph-name="uni1E5A" unicode="&#x1e5a;" horiz-adv-x="659" 
d="M87 0v710h262c169 0 243 -98 243 -230c0 -111 -54 -185 -158 -215l184 -265h-145l-170 253h-95v-253h-121zM208 362h115c97 0 144 50 144 120c0 75 -49 120 -136 120h-123v-240zM328 -78c42 0 75 -34 75 -75c0 -40 -33 -74 -75 -74s-76 34 -76 74c0 41 34 75 76 75z" />
    <glyph glyph-name="uni1E5C" unicode="&#x1e5c;" horiz-adv-x="659" 
d="M179 797v89h298v-89h-298zM87 0v710h262c169 0 243 -98 243 -230c0 -111 -54 -185 -158 -215l184 -265h-145l-170 253h-95v-253h-121zM208 362h115c97 0 144 50 144 120c0 75 -49 120 -136 120h-123v-240zM328 -78c42 0 75 -34 75 -75c0 -40 -33 -74 -75 -74
s-76 34 -76 74c0 41 34 75 76 75z" />
    <glyph glyph-name="uni1E5E" unicode="&#x1e5e;" horiz-adv-x="659" 
d="M87 0v710h262c169 0 243 -98 243 -230c0 -111 -54 -185 -158 -215l184 -265h-145l-170 253h-95v-253h-121zM208 362h115c97 0 144 50 144 120c0 75 -49 120 -136 120h-123v-240zM477 -207h-298v94h298v-94z" />
    <glyph glyph-name="S" unicode="S" horiz-adv-x="591" 
d="M299 -8c-91 0 -183 35 -257 112l76 93c51 -62 121 -93 182 -93c78 0 118 34 118 86c0 62 -47 82 -137 114c-108 38 -215 86 -215 216c0 111 102 198 225 198c84 0 163 -30 235 -87l-72 -95c-58 48 -115 73 -163 73c-55 0 -99 -30 -100 -83c-1 -52 47 -70 133 -103
c122 -48 220 -81 220 -218c0 -147 -131 -213 -245 -213z" />
    <glyph glyph-name="Sacute" unicode="&#x15a;" horiz-adv-x="591" 
d="M222 775l112 133h125l-126 -133h-111zM299 -8c-91 0 -183 35 -257 112l76 93c51 -62 121 -93 182 -93c78 0 118 34 118 86c0 62 -47 82 -137 114c-108 38 -215 86 -215 216c0 111 102 198 225 198c84 0 163 -30 235 -87l-72 -95c-58 48 -115 73 -163 73
c-55 0 -99 -30 -100 -83c-1 -52 47 -70 133 -103c122 -48 220 -81 220 -218c0 -147 -131 -213 -245 -213z" />
    <glyph glyph-name="Scaron" unicode="&#x160;" horiz-adv-x="591" 
d="M232 775l-108 133h109l57 -71h2l57 71h111l-111 -133h-117zM299 -8c-91 0 -183 35 -257 112l76 93c51 -62 121 -93 182 -93c78 0 118 34 118 86c0 62 -47 82 -137 114c-108 38 -215 86 -215 216c0 111 102 198 225 198c84 0 163 -30 235 -87l-72 -95
c-58 48 -115 73 -163 73c-55 0 -99 -30 -100 -83c-1 -52 47 -70 133 -103c122 -48 220 -81 220 -218c0 -147 -131 -213 -245 -213z" />
    <glyph glyph-name="Scedilla" unicode="&#x15e;" horiz-adv-x="591" 
d="M313 -8l-11 -22v-2c61 -2 92 -31 92 -80c0 -44 -35 -78 -119 -78c-27 0 -44 3 -59 6v55c12 -4 27 -7 50 -7c24 0 51 9 51 30c0 18 -29 34 -84 34v36l14 32c-73 11 -145 46 -205 108l76 93c51 -62 121 -93 182 -93c78 0 118 34 118 86c0 62 -47 82 -137 114
c-108 38 -215 86 -215 216c0 111 102 198 225 198c84 0 163 -30 235 -87l-72 -95c-58 48 -115 73 -163 73c-55 0 -99 -30 -100 -83c-1 -52 47 -70 133 -103c122 -48 220 -81 220 -218c0 -141 -121 -208 -231 -213z" />
    <glyph glyph-name="Scircumflex" unicode="&#x15c;" horiz-adv-x="591" 
d="M124 775l111 133h117l108 -133h-109l-57 71h-2l-57 -71h-111zM299 -8c-91 0 -183 35 -257 112l76 93c51 -62 121 -93 182 -93c78 0 118 34 118 86c0 62 -47 82 -137 114c-108 38 -215 86 -215 216c0 111 102 198 225 198c84 0 163 -30 235 -87l-72 -95
c-58 48 -115 73 -163 73c-55 0 -99 -30 -100 -83c-1 -52 47 -70 133 -103c122 -48 220 -81 220 -218c0 -147 -131 -213 -245 -213z" />
    <glyph glyph-name="Scommaaccent" unicode="&#x218;" horiz-adv-x="591" 
d="M299 -8c-91 0 -183 35 -257 112l76 93c51 -62 121 -93 182 -93c78 0 118 34 118 86c0 62 -47 82 -137 114c-108 38 -215 86 -215 216c0 111 102 198 225 198c84 0 163 -30 235 -87l-72 -95c-58 48 -115 73 -163 73c-55 0 -99 -30 -100 -83c-1 -52 47 -70 133 -103
c122 -48 220 -81 220 -218c0 -147 -131 -213 -245 -213zM231 -219l-26 65c40 14 55 30 55 62c0 15 -2 22 -6 39h102c3 -15 4 -28 4 -47c0 -76 -61 -112 -129 -119z" />
    <glyph glyph-name="uni1E60" unicode="&#x1e60;" horiz-adv-x="591" 
d="M294 773c-42 0 -75 34 -75 75c0 40 33 74 75 74s76 -34 76 -74c0 -41 -34 -75 -76 -75zM299 -8c-91 0 -183 35 -257 112l76 93c51 -62 121 -93 182 -93c78 0 118 34 118 86c0 62 -47 82 -137 114c-108 38 -215 86 -215 216c0 111 102 198 225 198c84 0 163 -30 235 -87
l-72 -95c-58 48 -115 73 -163 73c-55 0 -99 -30 -100 -83c-1 -52 47 -70 133 -103c122 -48 220 -81 220 -218c0 -147 -131 -213 -245 -213z" />
    <glyph glyph-name="uni1E62" unicode="&#x1e62;" horiz-adv-x="591" 
d="M299 -8c-91 0 -183 35 -257 112l76 93c51 -62 121 -93 182 -93c78 0 118 34 118 86c0 62 -47 82 -137 114c-108 38 -215 86 -215 216c0 111 102 198 225 198c84 0 163 -30 235 -87l-72 -95c-58 48 -115 73 -163 73c-55 0 -99 -30 -100 -83c-1 -52 47 -70 133 -103
c122 -48 220 -81 220 -218c0 -147 -131 -213 -245 -213zM309 -78c42 0 75 -34 75 -75c0 -40 -33 -74 -75 -74s-76 34 -76 74c0 41 34 75 76 75z" />
    <glyph glyph-name="uni1E9E" unicode="&#x1e9e;" horiz-adv-x="762" 
d="M523 422c120 -48 216 -81 216 -217c0 -147 -131 -213 -235 -213c-68 0 -147 26 -215 82l56 109c50 -53 113 -79 160 -79c68 0 108 34 108 86c0 62 -46 84 -137 114c-36 12 -72 28 -112 47l123 242l-1 4c-56 7 -108 12 -139 12c-103 0 -155 -34 -156 -136v-473h-121l1 479
c0 170 102 239 262 239c68 0 205 -20 321 -47z" />
    <glyph glyph-name="uni018F" unicode="&#x18f;" horiz-adv-x="780" 
d="M371 718c239 0 355 -160 355 -360c0 -232 -152 -366 -348 -366c-208 0 -334 130 -334 334c0 24 2 42 4 61h553c-10 134 -91 217 -242 217c-71 1 -144 -19 -207 -61l-66 93c72 52 175 84 285 82zM375 105c105 0 193 57 219 175h-427c6 -108 86 -175 208 -175z" />
    <glyph glyph-name="T" unicode="T" horiz-adv-x="589" 
d="M233 0v602h-201v108h526v-108h-204v-602h-121z" />
    <glyph glyph-name="Tbar" unicode="&#x166;" horiz-adv-x="589" 
d="M558 602h-204v-219h122v-94h-122v-289h-121v289h-116v94h116v219h-201v108h526v-108z" />
    <glyph glyph-name="Tcaron" unicode="&#x164;" horiz-adv-x="589" 
d="M232 775l-108 133h109l57 -71h2l57 71h111l-111 -133h-117zM233 0v602h-201v108h526v-108h-204v-602h-121z" />
    <glyph glyph-name="Tdieresis" horiz-adv-x="589" 
d="M193 793c-41 0 -74 34 -74 74c0 39 33 72 74 72s75 -34 75 -73c0 -40 -34 -73 -75 -73zM392 793c-41 0 -74 34 -74 74c0 39 33 72 74 72s75 -34 75 -73c0 -40 -34 -73 -75 -73zM233 0v602h-201v108h526v-108h-204v-602h-121z" />
    <glyph glyph-name="uni1E6C" unicode="&#x1e6c;" horiz-adv-x="589" 
d="M233 0v602h-201v108h526v-108h-204v-602h-121zM292 -78c42 0 75 -34 75 -75c0 -40 -33 -74 -75 -74s-76 34 -76 74c0 41 34 75 76 75z" />
    <glyph glyph-name="uni1E6E" unicode="&#x1e6e;" horiz-adv-x="589" 
d="M233 0v602h-201v108h526v-108h-204v-602h-121zM441 -207h-298v94h298v-94z" />
    <glyph glyph-name="U" unicode="U" horiz-adv-x="719" 
d="M359 -8c-168 0 -282 109 -282 300v418h120v-409c0 -113 60 -195 162 -195c95 0 163 73 163 195v409h121v-418c0 -184 -107 -300 -284 -300z" />
    <glyph glyph-name="Uacute" unicode="&#xda;" horiz-adv-x="719" 
d="M284 775l112 133h125l-126 -133h-111zM359 -8c-168 0 -282 109 -282 300v418h120v-409c0 -113 60 -195 162 -195c95 0 163 73 163 195v409h121v-418c0 -184 -107 -300 -284 -300z" />
    <glyph glyph-name="Ubreve" unicode="&#x16c;" horiz-adv-x="719" 
d="M359 768c-96 0 -149 57 -156 140h88c2 -31 26 -54 68 -54s66 24 68 54h88c-7 -83 -60 -140 -156 -140zM359 -8c-168 0 -282 109 -282 300v418h120v-409c0 -113 60 -195 162 -195c95 0 163 73 163 195v409h121v-418c0 -184 -107 -300 -284 -300z" />
    <glyph glyph-name="Ucircumflex" unicode="&#xdb;" horiz-adv-x="719" 
d="M190 775l111 133h117l108 -133h-109l-57 71h-2l-57 -71h-111zM359 -8c-168 0 -282 109 -282 300v418h120v-409c0 -113 60 -195 162 -195c95 0 163 73 163 195v409h121v-418c0 -184 -107 -300 -284 -300z" />
    <glyph glyph-name="Udieresis" unicode="&#xdc;" horiz-adv-x="719" 
d="M260 775c-41 0 -74 34 -74 74c0 39 33 72 74 72s75 -34 75 -73c0 -40 -34 -73 -75 -73zM459 775c-41 0 -74 34 -74 74c0 39 33 72 74 72s75 -34 75 -73c0 -40 -34 -73 -75 -73zM359 -8c-168 0 -282 109 -282 300v418h120v-409c0 -113 60 -195 162 -195
c95 0 163 73 163 195v409h121v-418c0 -184 -107 -300 -284 -300z" />
    <glyph glyph-name="uni1EE4" unicode="&#x1ee4;" horiz-adv-x="719" 
d="M359 -8c-168 0 -282 109 -282 300v418h120v-409c0 -113 60 -195 162 -195c95 0 163 73 163 195v409h121v-418c0 -184 -107 -300 -284 -300zM359 -78c42 0 75 -34 75 -75c0 -40 -33 -74 -75 -74s-76 34 -76 74c0 41 34 75 76 75z" />
    <glyph glyph-name="Ugrave" unicode="&#xd9;" horiz-adv-x="719" 
d="M321 775l-126 133h125l112 -133h-111zM359 -8c-168 0 -282 109 -282 300v418h120v-409c0 -113 60 -195 162 -195c95 0 163 73 163 195v409h121v-418c0 -184 -107 -300 -284 -300z" />
    <glyph glyph-name="uni1EE6" unicode="&#x1ee6;" horiz-adv-x="719" 
d="M319 775c36 26 70 50 70 73c0 11 -9 20 -29 20c-27 0 -61 -16 -89 -32l-26 58c22 19 71 47 142 47c54 0 94 -25 94 -78c0 -50 -48 -75 -80 -88h-82zM359 -8c-168 0 -282 109 -282 300v418h120v-409c0 -113 60 -195 162 -195c95 0 163 73 163 195v409h121v-418
c0 -184 -107 -300 -284 -300z" />
    <glyph glyph-name="Uhorn" unicode="&#x1af;" horiz-adv-x="819" 
d="M703 774h114v-71c0 -113 -60 -188 -174 -191v-220c0 -184 -107 -300 -284 -300c-168 0 -282 109 -282 300v418h120v-409c0 -113 60 -195 162 -195c95 0 163 73 163 195v409h121v-124c62 13 60 63 60 124v64z" />
    <glyph glyph-name="uni1EE8" unicode="&#x1ee8;" horiz-adv-x="819" 
d="M521 908l-126 -133h-111l112 133h125zM703 774h114v-71c0 -113 -60 -188 -174 -191v-220c0 -184 -107 -300 -284 -300c-168 0 -282 109 -282 300v418h120v-409c0 -113 60 -195 162 -195c95 0 163 73 163 195v409h121v-124c62 13 60 63 60 124v64z" />
    <glyph glyph-name="uni1EF0" unicode="&#x1ef0;" horiz-adv-x="819" 
d="M703 774h114v-71c0 -113 -60 -188 -174 -191v-220c0 -184 -107 -300 -284 -300c-168 0 -282 109 -282 300v418h120v-409c0 -113 60 -195 162 -195c95 0 163 73 163 195v409h121v-124c62 13 60 63 60 124v64zM359 -78c42 0 75 -34 75 -75c0 -40 -33 -74 -75 -74
s-76 34 -76 74c0 41 34 75 76 75z" />
    <glyph glyph-name="uni1EEA" unicode="&#x1eea;" horiz-adv-x="819" 
d="M432 775h-111l-126 133h125zM703 774h114v-71c0 -113 -60 -188 -174 -191v-220c0 -184 -107 -300 -284 -300c-168 0 -282 109 -282 300v418h120v-409c0 -113 60 -195 162 -195c95 0 163 73 163 195v409h121v-124c62 13 60 63 60 124v64z" />
    <glyph glyph-name="uni1EEC" unicode="&#x1eec;" horiz-adv-x="819" 
d="M360 868c-27 0 -61 -16 -89 -32l-26 58c22 19 71 47 142 47c54 0 94 -25 94 -78c0 -50 -48 -75 -80 -88h-82c36 26 70 50 70 73c0 11 -9 20 -29 20zM703 774h114v-71c0 -113 -60 -188 -174 -191v-220c0 -184 -107 -300 -284 -300c-168 0 -282 109 -282 300v418h120v-409
c0 -113 60 -195 162 -195c95 0 163 73 163 195v409h121v-124c62 13 60 63 60 124v64z" />
    <glyph glyph-name="uni1EEE" unicode="&#x1eee;" horiz-adv-x="819" 
d="M290 828c-22 0 -41 -20 -54 -52l-68 31c20 58 58 103 114 103c39 0 66 -16 89 -29c21 -12 38 -24 59 -24s36 15 51 52l68 -23c-22 -73 -60 -111 -112 -111c-30 0 -58 14 -84 29c-23 13 -44 24 -63 24zM703 774h114v-71c0 -113 -60 -188 -174 -191v-220
c0 -184 -107 -300 -284 -300c-168 0 -282 109 -282 300v418h120v-409c0 -113 60 -195 162 -195c95 0 163 73 163 195v409h121v-124c62 13 60 63 60 124v64z" />
    <glyph glyph-name="Uhungarumlaut" unicode="&#x170;" horiz-adv-x="719" 
d="M211 775l115 144l114 1l-124 -145h-105zM402 775l114 144l114 1l-124 -145h-104zM359 -8c-168 0 -282 109 -282 300v418h120v-409c0 -113 60 -195 162 -195c95 0 163 73 163 195v409h121v-418c0 -184 -107 -300 -284 -300z" />
    <glyph glyph-name="Umacron" unicode="&#x16a;" horiz-adv-x="719" 
d="M210 797v89h298v-89h-298zM359 -8c-168 0 -282 109 -282 300v418h120v-409c0 -113 60 -195 162 -195c95 0 163 73 163 195v409h121v-418c0 -184 -107 -300 -284 -300z" />
    <glyph glyph-name="Uogonek" unicode="&#x172;" horiz-adv-x="719" 
d="M522 710h121v-418c0 -148 -69 -252 -188 -287c-52 -15 -85 -44 -85 -75c0 -25 15 -41 43 -41c25 0 30 2 41 7l6 -67c-19 -9 -44 -13 -71 -13c-67 0 -108 36 -108 89c0 27 16 59 47 86l-1 2c-150 13 -250 120 -250 299v418h120v-409c0 -113 60 -195 162 -195
c95 0 163 73 163 195v409z" />
    <glyph glyph-name="Uring" unicode="&#x16e;" horiz-adv-x="719" 
d="M358 748c-58 0 -108 45 -108 105c0 57 45 105 108 105c60 0 109 -45 109 -105c0 -57 -45 -105 -109 -105zM358 816c22 0 39 17 39 38s-17 38 -39 38c-21 0 -38 -18 -38 -38c0 -22 17 -38 38 -38zM359 -8c-168 0 -282 109 -282 300v418h120v-409c0 -113 60 -195 162 -195
c95 0 163 73 163 195v409h121v-418c0 -184 -107 -300 -284 -300z" />
    <glyph glyph-name="Utilde" unicode="&#x168;" horiz-adv-x="719" 
d="M437 775c-30 0 -58 14 -84 29c-23 13 -44 24 -63 24c-22 0 -41 -20 -54 -52l-68 31c20 58 58 103 114 103c39 0 66 -16 89 -29c21 -12 38 -24 59 -24s36 15 51 52l68 -23c-22 -73 -60 -111 -112 -111zM359 -8c-168 0 -282 109 -282 300v418h120v-409
c0 -113 60 -195 162 -195c95 0 163 73 163 195v409h121v-418c0 -184 -107 -300 -284 -300z" />
    <glyph glyph-name="V" unicode="V" horiz-adv-x="691" 
d="M295 0l-265 710h130l189 -536h1l188 536h129l-265 -710h-107z" />
    <glyph glyph-name="W" unicode="W" horiz-adv-x="1035" 
d="M257 0l-225 710h129l152 -512h2l139 512h128l138 -511h2l153 511h128l-225 -710h-113l-145 534h-2l-148 -534h-113z" />
    <glyph glyph-name="Wacute" unicode="&#x1e82;" horiz-adv-x="1035" 
d="M468 775l112 133h125l-126 -133h-111zM257 0l-225 710h129l152 -512h2l139 512h128l138 -511h2l153 511h128l-225 -710h-113l-145 534h-2l-148 -534h-113z" />
    <glyph glyph-name="Wcircumflex" unicode="&#x174;" horiz-adv-x="1035" 
d="M350 775l111 133h117l108 -133h-109l-57 71h-2l-57 -71h-111zM257 0l-225 710h129l152 -512h2l139 512h128l138 -511h2l153 511h128l-225 -710h-113l-145 534h-2l-148 -534h-113z" />
    <glyph glyph-name="Wdieresis" unicode="&#x1e84;" horiz-adv-x="1035" 
d="M420 775c-41 0 -74 34 -74 74c0 39 33 72 74 72s75 -34 75 -73c0 -40 -34 -73 -75 -73zM619 775c-41 0 -74 34 -74 74c0 39 33 72 74 72s75 -34 75 -73c0 -40 -34 -73 -75 -73zM257 0l-225 710h129l152 -512h2l139 512h128l138 -511h2l153 511h128l-225 -710h-113
l-145 534h-2l-148 -534h-113z" />
    <glyph glyph-name="Wgrave" unicode="&#x1e80;" horiz-adv-x="1035" 
d="M468 775l-126 133h125l112 -133h-111zM257 0l-225 710h129l152 -512h2l139 512h128l138 -511h2l153 511h128l-225 -710h-113l-145 534h-2l-148 -534h-113z" />
    <glyph glyph-name="X" unicode="X" horiz-adv-x="694" 
d="M32 0l235 356l-230 354h141l170 -262h1l170 262h138l-230 -354l236 -356h-142l-174 262h-2l-173 -262h-140z" />
    <glyph glyph-name="Y" unicode="Y" horiz-adv-x="625" 
d="M251 0v314l-237 396h138l159 -275h2l158 275h140l-239 -396v-314h-121z" />
    <glyph glyph-name="Yacute" unicode="&#xdd;" horiz-adv-x="625" 
d="M245 775l112 133h125l-126 -133h-111zM251 0v314l-237 396h138l159 -275h2l158 275h140l-239 -396v-314h-121z" />
    <glyph glyph-name="Ycircumflex" unicode="&#x176;" horiz-adv-x="625" 
d="M145 775l111 133h117l108 -133h-109l-57 71h-2l-57 -71h-111zM251 0v314l-237 396h138l159 -275h2l158 275h140l-239 -396v-314h-121z" />
    <glyph glyph-name="Ydieresis" unicode="&#x178;" horiz-adv-x="625" 
d="M215 775c-41 0 -74 34 -74 74c0 39 33 72 74 72s75 -34 75 -73c0 -40 -34 -73 -75 -73zM414 775c-41 0 -74 34 -74 74c0 39 33 72 74 72s75 -34 75 -73c0 -40 -34 -73 -75 -73zM251 0v314l-237 396h138l159 -275h2l158 275h140l-239 -396v-314h-121z" />
    <glyph glyph-name="uni1E8E" unicode="&#x1e8e;" horiz-adv-x="625" 
d="M315 773c-42 0 -75 34 -75 75c0 40 33 74 75 74s76 -34 76 -74c0 -41 -34 -75 -76 -75zM251 0v314l-237 396h138l159 -275h2l158 275h140l-239 -396v-314h-121z" />
    <glyph glyph-name="uni1EF4" unicode="&#x1ef4;" horiz-adv-x="625" 
d="M251 0v314l-237 396h138l159 -275h2l158 275h140l-239 -396v-314h-121zM312 -78c42 0 75 -34 75 -75c0 -40 -33 -74 -75 -74s-76 34 -76 74c0 41 34 75 76 75z" />
    <glyph glyph-name="Ygrave" unicode="&#x1ef2;" horiz-adv-x="625" 
d="M286 775l-126 133h125l112 -133h-111zM251 0v314l-237 396h138l159 -275h2l158 275h140l-239 -396v-314h-121z" />
    <glyph glyph-name="uni1EF6" unicode="&#x1ef6;" horiz-adv-x="625" 
d="M274 775c36 26 70 50 70 73c0 11 -9 20 -29 20c-27 0 -61 -16 -89 -32l-26 58c22 19 71 47 142 47c54 0 94 -25 94 -78c0 -50 -48 -75 -80 -88h-82zM251 0v314l-237 396h138l159 -275h2l158 275h140l-239 -396v-314h-121z" />
    <glyph glyph-name="uni0232" unicode="&#x232;" horiz-adv-x="625" 
d="M165 797v89h298v-89h-298zM251 0v314l-237 396h138l159 -275h2l158 275h140l-239 -396v-314h-121z" />
    <glyph glyph-name="uni1EF8" unicode="&#x1ef8;" horiz-adv-x="625" 
d="M392 775c-30 0 -58 14 -84 29c-23 13 -44 24 -63 24c-22 0 -41 -20 -54 -52l-68 31c20 58 58 103 114 103c39 0 66 -16 89 -29c21 -12 38 -24 59 -24s36 15 51 52l68 -23c-22 -73 -60 -111 -112 -111zM251 0v314l-237 396h138l159 -275h2l158 275h140l-239 -396v-314
h-121z" />
    <glyph glyph-name="Z" unicode="Z" horiz-adv-x="626" 
d="M57 0v95l349 505l-1 2h-332v108h492v-93l-355 -506l2 -3h355v-108h-510z" />
    <glyph glyph-name="Zacute" unicode="&#x179;" horiz-adv-x="626" 
d="M212 775l112 133h125l-126 -133h-111zM57 0v95l349 505l-1 2h-332v108h492v-93l-355 -506l2 -3h355v-108h-510z" />
    <glyph glyph-name="Zcaron" unicode="&#x17d;" horiz-adv-x="626" 
d="M252 775l-108 133h109l57 -71h2l57 71h111l-111 -133h-117zM57 0v95l349 505l-1 2h-332v108h492v-93l-355 -506l2 -3h355v-108h-510z" />
    <glyph glyph-name="Zdotaccent" unicode="&#x17b;" horiz-adv-x="626" 
d="M314 773c-42 0 -75 34 -75 75c0 40 33 74 75 74s76 -34 76 -74c0 -41 -34 -75 -76 -75zM57 0v95l349 505l-1 2h-332v108h492v-93l-355 -506l2 -3h355v-108h-510z" />
    <glyph glyph-name="uni1E92" unicode="&#x1e92;" horiz-adv-x="626" 
d="M57 0v95l349 505l-1 2h-332v108h492v-93l-355 -506l2 -3h355v-108h-510zM313 -78c42 0 75 -34 75 -75c0 -40 -33 -74 -75 -74s-76 34 -76 74c0 41 34 75 76 75z" />
    <glyph glyph-name="uni01D3" unicode="&#x1d3;" horiz-adv-x="719" 
d="M298 775l-108 133h109l57 -71h2l57 71h111l-111 -133h-117zM359 -8c-168 0 -282 109 -282 300v418h120v-409c0 -113 60 -195 162 -195c95 0 163 73 163 195v409h121v-418c0 -184 -107 -300 -284 -300z" />
    <glyph glyph-name="uni01D5" unicode="&#x1d5;" horiz-adv-x="719" 
d="M210 934v76h298v-76h-298zM267 765c-38 0 -67 29 -67 65c0 34 29 63 67 63s68 -29 68 -63c0 -36 -30 -65 -68 -65zM446 765c-38 0 -67 29 -67 65c0 34 29 63 67 63s68 -29 68 -63c0 -36 -30 -65 -68 -65zM359 -8c-168 0 -282 109 -282 300v418h120v-409
c0 -113 60 -195 162 -195c95 0 163 73 163 195v409h121v-418c0 -184 -107 -300 -284 -300z" />
    <glyph glyph-name="uni01D7" unicode="&#x1d7;" horiz-adv-x="719" 
d="M318 907l84 125h123l-124 -125h-83zM267 765c-38 0 -67 29 -67 65c0 34 29 63 67 63s68 -29 68 -63c0 -36 -30 -65 -68 -65zM446 765c-38 0 -67 29 -67 65c0 34 29 63 67 63s68 -29 68 -63c0 -36 -30 -65 -68 -65zM359 -8c-168 0 -282 109 -282 300v418h120v-409
c0 -113 60 -195 162 -195c95 0 163 73 163 195v409h121v-418c0 -184 -107 -300 -284 -300z" />
    <glyph glyph-name="uni01D9" unicode="&#x1d9;" horiz-adv-x="719" 
d="M301 906l-108 133h109l57 -71h2l57 71h111l-111 -133h-117zM267 765c-38 0 -67 29 -67 65c0 34 29 63 67 63s68 -29 68 -63c0 -36 -30 -65 -68 -65zM446 765c-38 0 -67 29 -67 65c0 34 29 63 67 63s68 -29 68 -63c0 -36 -30 -65 -68 -65zM359 -8
c-168 0 -282 109 -282 300v418h120v-409c0 -113 60 -195 162 -195c95 0 163 73 163 195v409h121v-418c0 -184 -107 -300 -284 -300z" />
    <glyph glyph-name="uni01DB" unicode="&#x1db;" horiz-adv-x="719" 
d="M317 907l-124 125h123l84 -125h-83zM267 765c-38 0 -67 29 -67 65c0 34 29 63 67 63s68 -29 68 -63c0 -36 -30 -65 -68 -65zM446 765c-38 0 -67 29 -67 65c0 34 29 63 67 63s68 -29 68 -63c0 -36 -30 -65 -68 -65zM359 -8c-168 0 -282 109 -282 300v418h120v-409
c0 -113 60 -195 162 -195c95 0 163 73 163 195v409h121v-418c0 -184 -107 -300 -284 -300z" />
    <glyph glyph-name="uni1E30" unicode="&#x1e30;" horiz-adv-x="664" 
d="M242 775l112 133h125l-126 -133h-111zM87 0v710h121v-340h2l272 340h154l-267 -317l275 -393h-150l-205 297l-81 -96v-201h-121z" />
    <glyph glyph-name="Q.alt" horiz-adv-x="828" 
d="M772 355c0 -131 -57 -237 -147 -300l138 -114l-73 -90l-180 152c-30 -7 -63 -11 -96 -11c-213 0 -359 154 -359 363s146 363 359 363c205 0 358 -146 358 -363zM180 355c0 -139 95 -250 234 -250c131 0 232 105 232 250c0 146 -101 250 -232 250
c-139 0 -234 -111 -234 -250z" />
    <glyph glyph-name="a" unicode="a" horiz-adv-x="611" 
d="M279 -8c-135 0 -236 99 -236 250c0 147 101 253 235 253c62 0 116 -23 151 -67l2 1v59h112v-488h-107v64l-2 1c-35 -47 -87 -73 -155 -73zM297 94c76 0 139 59 139 147c0 87 -59 153 -139 153c-78 0 -140 -59 -140 -153c0 -86 57 -147 140 -147z" />
    <glyph glyph-name="aacute" unicode="&#xe1;" horiz-adv-x="611" 
d="M233 556l115 144l123 1l-124 -145h-114zM279 -8c-135 0 -236 99 -236 250c0 147 101 253 235 253c62 0 116 -23 151 -67l2 1v59h112v-488h-107v64l-2 1c-35 -47 -87 -73 -155 -73zM297 94c76 0 139 59 139 147c0 87 -59 153 -139 153c-78 0 -140 -59 -140 -153
c0 -86 57 -147 140 -147z" />
    <glyph glyph-name="abreve" unicode="&#x103;" horiz-adv-x="611" 
d="M305 548c-96 0 -149 57 -156 149h88c2 -33 26 -63 68 -63s66 30 68 63h88c-7 -92 -60 -149 -156 -149zM279 -8c-135 0 -236 99 -236 250c0 147 101 253 235 253c62 0 116 -23 151 -67l2 1v59h112v-488h-107v64l-2 1c-35 -47 -87 -73 -155 -73zM297 94
c76 0 139 59 139 147c0 87 -59 153 -139 153c-78 0 -140 -59 -140 -153c0 -86 57 -147 140 -147z" />
    <glyph glyph-name="uni1EAF" unicode="&#x1eaf;" horiz-adv-x="611" 
d="M258 710l83 145h123l-123 -145h-83zM305 548c-96 0 -149 57 -156 149h88c2 -33 26 -63 68 -63s66 30 68 63h88c-7 -92 -60 -149 -156 -149zM279 -8c-135 0 -236 99 -236 250c0 147 101 253 235 253c62 0 116 -23 151 -67l2 1v59h112v-488h-107v64l-2 1
c-35 -47 -87 -73 -155 -73zM297 94c76 0 139 59 139 147c0 87 -59 153 -139 153c-78 0 -140 -59 -140 -153c0 -86 57 -147 140 -147z" />
    <glyph glyph-name="uni1EB7" unicode="&#x1eb7;" horiz-adv-x="611" 
d="M305 548c-96 0 -149 57 -156 149h88c2 -33 26 -63 68 -63s66 30 68 63h88c-7 -92 -60 -149 -156 -149zM279 -8c-135 0 -236 99 -236 250c0 147 101 253 235 253c62 0 116 -23 151 -67l2 1v59h112v-488h-107v64l-2 1c-35 -47 -87 -73 -155 -73zM297 94
c76 0 139 59 139 147c0 87 -59 153 -139 153c-78 0 -140 -59 -140 -153c0 -86 57 -147 140 -147zM294 -78c42 0 75 -34 75 -75c0 -40 -33 -74 -75 -74s-76 34 -76 74c0 41 34 75 76 75z" />
    <glyph glyph-name="uni1EB1" unicode="&#x1eb1;" horiz-adv-x="611" 
d="M269 710l-123 145h123l83 -145h-83zM305 548c-96 0 -149 57 -156 149h88c2 -33 26 -63 68 -63s66 30 68 63h88c-7 -92 -60 -149 -156 -149zM279 -8c-135 0 -236 99 -236 250c0 147 101 253 235 253c62 0 116 -23 151 -67l2 1v59h112v-488h-107v64l-2 1
c-35 -47 -87 -73 -155 -73zM297 94c76 0 139 59 139 147c0 87 -59 153 -139 153c-78 0 -140 -59 -140 -153c0 -86 57 -147 140 -147z" />
    <glyph glyph-name="uni1EB3" unicode="&#x1eb3;" horiz-adv-x="611" 
d="M260 697c44 32 67 61 66 82c0 12 -10 20 -27 20c-27 0 -48 -8 -84 -32l-24 55c21 21 66 50 134 50c51 0 89 -24 89 -78c0 -47 -46 -84 -76 -97h-78zM305 550c-100 0 -155 54 -162 140h91c2 -31 27 -59 71 -59s69 28 71 59h91c-7 -86 -62 -140 -162 -140zM279 -8
c-135 0 -236 99 -236 250c0 147 101 253 235 253c62 0 116 -23 151 -67l2 1v59h112v-488h-107v64l-2 1c-35 -47 -87 -73 -155 -73zM297 94c76 0 139 59 139 147c0 87 -59 153 -139 153c-78 0 -140 -59 -140 -153c0 -86 57 -147 140 -147z" />
    <glyph glyph-name="uni1EB5" unicode="&#x1eb5;" horiz-adv-x="611" 
d="M192 737l-68 31c20 61 51 104 107 104c19 0 43 -4 77 -24c37 -22 46 -25 57 -25c27 0 44 20 57 52l68 -23c-20 -67 -57 -113 -111 -113c-30 0 -57 14 -80 28c-22 13 -41 24 -59 22c-16 -2 -36 -20 -48 -52zM304 548c-96 0 -149 57 -156 149h88c2 -33 26 -63 68 -63
s66 30 68 63h88c-7 -92 -60 -149 -156 -149zM279 -8c-135 0 -236 99 -236 250c0 147 101 253 235 253c62 0 116 -23 151 -67l2 1v59h112v-488h-107v64l-2 1c-35 -47 -87 -73 -155 -73zM297 94c76 0 139 59 139 147c0 87 -59 153 -139 153c-78 0 -140 -59 -140 -153
c0 -86 57 -147 140 -147z" />
    <glyph glyph-name="uni01CE" unicode="&#x1ce;" horiz-adv-x="611" 
d="M244 552l-105 145h109l54 -77h2l55 77h111l-109 -145h-117zM279 -8c-135 0 -236 99 -236 250c0 147 101 253 235 253c62 0 116 -23 151 -67l2 1v59h112v-488h-107v64l-2 1c-35 -47 -87 -73 -155 -73zM297 94c76 0 139 59 139 147c0 87 -59 153 -139 153
c-78 0 -140 -59 -140 -153c0 -86 57 -147 140 -147z" />
    <glyph glyph-name="acircumflex" unicode="&#xe2;" horiz-adv-x="611" 
d="M139 554l109 145h117l105 -145h-109l-54 77h-2l-55 -77h-111zM279 -8c-135 0 -236 99 -236 250c0 147 101 253 235 253c62 0 116 -23 151 -67l2 1v59h112v-488h-107v64l-2 1c-35 -47 -87 -73 -155 -73zM297 94c76 0 139 59 139 147c0 87 -59 153 -139 153
c-78 0 -140 -59 -140 -153c0 -86 57 -147 140 -147z" />
    <glyph glyph-name="uni1EA5" unicode="&#x1ea5;" horiz-adv-x="611" 
d="M441 645l83 145h123l-123 -145h-83zM140 554l109 145h117l105 -145h-109l-54 77h-2l-55 -77h-111zM279 -8c-135 0 -236 99 -236 250c0 147 101 253 235 253c62 0 116 -23 151 -67l2 1v59h112v-488h-107v64l-2 1c-35 -47 -87 -73 -155 -73zM297 94c76 0 139 59 139 147
c0 87 -59 153 -139 153c-78 0 -140 -59 -140 -153c0 -86 57 -147 140 -147z" />
    <glyph glyph-name="uni1EAD" unicode="&#x1ead;" horiz-adv-x="611" 
d="M139 554l109 145h117l105 -145h-109l-54 77h-2l-55 -77h-111zM279 -8c-135 0 -236 99 -236 250c0 147 101 253 235 253c62 0 116 -23 151 -67l2 1v59h112v-488h-107v64l-2 1c-35 -47 -87 -73 -155 -73zM297 94c76 0 139 59 139 147c0 87 -59 153 -139 153
c-78 0 -140 -59 -140 -153c0 -86 57 -147 140 -147zM294 -78c42 0 75 -34 75 -75c0 -40 -33 -74 -75 -74s-76 34 -76 74c0 41 34 75 76 75z" />
    <glyph glyph-name="uni1EA7" unicode="&#x1ea7;" horiz-adv-x="611" 
d="M469 645l-123 145h123l83 -145h-83zM140 554l109 145h117l105 -145h-109l-54 77h-2l-55 -77h-111zM279 -8c-135 0 -236 99 -236 250c0 147 101 253 235 253c62 0 116 -23 151 -67l2 1v59h112v-488h-107v64l-2 1c-35 -47 -87 -73 -155 -73zM297 94c76 0 139 59 139 147
c0 87 -59 153 -139 153c-78 0 -140 -59 -140 -153c0 -86 57 -147 140 -147z" />
    <glyph glyph-name="uni1EA9" unicode="&#x1ea9;" horiz-adv-x="611" 
d="M454 655c44 32 67 61 66 82c0 12 -10 20 -27 20c-27 0 -48 -8 -84 -32l-24 55c21 21 66 50 134 50c51 0 89 -24 89 -78c0 -47 -46 -84 -76 -97h-78zM139 554l109 145h117l105 -145h-109l-54 77h-2l-55 -77h-111zM279 -8c-135 0 -236 99 -236 250c0 147 101 253 235 253
c62 0 116 -23 151 -67l2 1v59h112v-488h-107v64l-2 1c-35 -47 -87 -73 -155 -73zM297 94c76 0 139 59 139 147c0 87 -59 153 -139 153c-78 0 -140 -59 -140 -153c0 -86 57 -147 140 -147z" />
    <glyph glyph-name="uni1EAB" unicode="&#x1eab;" horiz-adv-x="611" 
d="M194 740l-68 31c20 61 51 104 107 104c19 0 43 -4 77 -24c37 -22 46 -25 57 -25c27 0 44 20 57 52l68 -23c-20 -67 -57 -113 -111 -113c-30 0 -57 14 -80 28c-22 13 -41 24 -59 22c-16 -2 -36 -20 -48 -52zM140 554l109 145h117l105 -145h-109l-54 77h-2l-55 -77h-111z
M279 -8c-135 0 -236 99 -236 250c0 147 101 253 235 253c62 0 116 -23 151 -67l2 1v59h112v-488h-107v64l-2 1c-35 -47 -87 -73 -155 -73zM297 94c76 0 139 59 139 147c0 87 -59 153 -139 153c-78 0 -140 -59 -140 -153c0 -86 57 -147 140 -147z" />
    <glyph glyph-name="adieresis" unicode="&#xe4;" horiz-adv-x="611" 
d="M205 562c-41 0 -74 34 -74 74c0 39 33 72 74 72s75 -34 75 -73c0 -40 -34 -73 -75 -73zM404 562c-41 0 -74 34 -74 74c0 39 33 72 74 72s75 -34 75 -73c0 -40 -34 -73 -75 -73zM279 -8c-135 0 -236 99 -236 250c0 147 101 253 235 253c62 0 116 -23 151 -67l2 1v59h112
v-488h-107v64l-2 1c-35 -47 -87 -73 -155 -73zM297 94c76 0 139 59 139 147c0 87 -59 153 -139 153c-78 0 -140 -59 -140 -153c0 -86 57 -147 140 -147z" />
    <glyph glyph-name="uni1EA1" unicode="&#x1ea1;" horiz-adv-x="611" 
d="M279 -8c-135 0 -236 99 -236 250c0 147 101 253 235 253c62 0 116 -23 151 -67l2 1v59h112v-488h-107v64l-2 1c-35 -47 -87 -73 -155 -73zM297 94c76 0 139 59 139 147c0 87 -59 153 -139 153c-78 0 -140 -59 -140 -153c0 -86 57 -147 140 -147zM294 -78
c42 0 75 -34 75 -75c0 -40 -33 -74 -75 -74s-76 34 -76 74c0 41 34 75 76 75z" />
    <glyph glyph-name="agrave" unicode="&#xe0;" horiz-adv-x="611" 
d="M273 554l-124 144l125 -1l110 -143h-111zM279 -8c-135 0 -236 99 -236 250c0 147 101 253 235 253c62 0 116 -23 151 -67l2 1v59h112v-488h-107v64l-2 1c-35 -47 -87 -73 -155 -73zM297 94c76 0 139 59 139 147c0 87 -59 153 -139 153c-78 0 -140 -59 -140 -153
c0 -86 57 -147 140 -147z" />
    <glyph glyph-name="uni1EA3" unicode="&#x1ea3;" horiz-adv-x="611" 
d="M265 554c46 33 71 64 70 86c0 13 -11 21 -29 21c-28 0 -50 -8 -88 -34l-26 58c22 23 70 53 141 53c54 0 94 -25 94 -82c0 -50 -48 -89 -80 -102h-82zM279 -8c-135 0 -236 99 -236 250c0 147 101 253 235 253c62 0 116 -23 151 -67l2 1v59h112v-488h-107v64l-2 1
c-35 -47 -87 -73 -155 -73zM297 94c76 0 139 59 139 147c0 87 -59 153 -139 153c-78 0 -140 -59 -140 -153c0 -86 57 -147 140 -147z" />
    <glyph glyph-name="amacron" unicode="&#x101;" horiz-adv-x="611" 
d="M156 584v94h298v-94h-298zM279 -8c-135 0 -236 99 -236 250c0 147 101 253 235 253c62 0 116 -23 151 -67l2 1v59h112v-488h-107v64l-2 1c-35 -47 -87 -73 -155 -73zM297 94c76 0 139 59 139 147c0 87 -59 153 -139 153c-78 0 -140 -59 -140 -153c0 -86 57 -147 140 -147
z" />
    <glyph glyph-name="aogonek" unicode="&#x105;" horiz-adv-x="611" 
d="M537 -108l7 -68c-19 -8 -45 -12 -72 -12c-66 0 -108 35 -108 88c0 33 25 76 72 105v59l-2 1c-35 -47 -87 -73 -155 -73c-135 0 -236 99 -236 250c0 147 101 253 235 253c62 0 116 -23 151 -67l2 1v59h112v-488h-11c-49 -11 -79 -44 -79 -75c0 -25 15 -41 43 -41
c25 0 30 3 41 8zM297 94c76 0 139 59 139 147c0 87 -59 153 -139 153c-78 0 -140 -59 -140 -153c0 -86 57 -147 140 -147z" />
    <glyph glyph-name="aring" unicode="&#xe5;" horiz-adv-x="611" 
d="M304 540c-58 0 -108 45 -108 105c0 57 45 105 108 105c60 0 109 -45 109 -105c0 -57 -45 -105 -109 -105zM304 608c22 0 39 17 39 38s-17 38 -39 38c-21 0 -38 -18 -38 -38c0 -22 17 -38 38 -38zM279 -8c-135 0 -236 99 -236 250c0 147 101 253 235 253
c62 0 116 -23 151 -67l2 1v59h112v-488h-107v64l-2 1c-35 -47 -87 -73 -155 -73zM297 94c76 0 139 59 139 147c0 87 -59 153 -139 153c-78 0 -140 -59 -140 -153c0 -86 57 -147 140 -147z" />
    <glyph glyph-name="aringacute" unicode="&#x1fb;" horiz-adv-x="611" 
d="M304 540c-58 0 -108 45 -108 105c0 57 45 105 108 105c30 0 58 -12 78 -31l54 40h127l-150 -115c-1 -57 -45 -104 -109 -104zM304 684c-21 0 -38 -18 -38 -38c0 -22 17 -38 38 -38c22 0 39 17 39 38s-17 38 -39 38zM431 429v59h112v-488h-107v64l-2 1
c-35 -47 -87 -73 -155 -73c-135 0 -236 99 -236 250c0 147 101 253 235 253c62 0 116 -23 151 -67zM297 94c76 0 139 59 139 147c0 87 -59 153 -139 153c-78 0 -140 -59 -140 -153c0 -86 57 -147 140 -147z" />
    <glyph glyph-name="atilde" unicode="&#xe3;" horiz-adv-x="611" 
d="M384 553c-36 0 -64 17 -88 32c-19 12 -37 22 -56 22c-26 0 -45 -20 -58 -52l-68 31c20 65 58 110 114 110c39 0 62 -14 84 -28c19 -12 37 -25 58 -25c24 0 44 20 57 52l68 -23c-20 -73 -60 -119 -111 -119zM279 -8c-135 0 -236 99 -236 250c0 147 101 253 235 253
c62 0 116 -23 151 -67l2 1v59h112v-488h-107v64l-2 1c-35 -47 -87 -73 -155 -73zM297 94c76 0 139 59 139 147c0 87 -59 153 -139 153c-78 0 -140 -59 -140 -153c0 -86 57 -147 140 -147z" />
    <glyph glyph-name="ae" unicode="&#xe6;" horiz-adv-x="789" 
d="M760 250c0 -18 -1 -36 -3 -45h-326c13 -67 59 -111 131 -111c56 0 83 23 109 57l77 -67c-42 -53 -88 -92 -196 -92c-71 0 -128 29 -168 77h-2c-30 -39 -87 -77 -173 -77c-124 0 -179 71 -179 154c0 95 65 153 193 153h98v6c0 70 -30 91 -87 91c-39 0 -94 -13 -132 -34
l-42 90c29 16 109 43 181 43c68 0 119 -19 152 -72h3c42 50 103 72 157 72c124 0 207 -103 207 -245zM433 295h214c-6 53 -34 99 -99 99c-56 0 -101 -41 -115 -99zM220 85c54 0 102 35 102 91v34h-88c-62 0 -94 -20 -94 -63c0 -36 25 -62 80 -62z" />
    <glyph glyph-name="aeacute" unicode="&#x1fd;" horiz-adv-x="789" 
d="M571 701l-124 -145h-114l115 144zM760 250c0 -18 -1 -36 -3 -45h-326c13 -67 59 -111 131 -111c56 0 83 23 109 57l77 -67c-42 -53 -88 -92 -196 -92c-71 0 -128 29 -168 77h-2c-30 -39 -87 -77 -173 -77c-124 0 -179 71 -179 154c0 95 65 153 193 153h98v6
c0 70 -30 91 -87 91c-39 0 -94 -13 -132 -34l-42 90c29 16 109 43 181 43c68 0 119 -19 152 -72h3c42 50 103 72 157 72c124 0 207 -103 207 -245zM433 295h214c-6 53 -34 99 -99 99c-56 0 -101 -41 -115 -99zM220 85c54 0 102 35 102 91v34h-88c-62 0 -94 -20 -94 -63
c0 -36 25 -62 80 -62z" />
    <glyph glyph-name="b" unicode="b" horiz-adv-x="621" 
d="M340 -8c-70 0 -122 26 -158 73h-2v-65h-107v736h112v-306h1c38 43 91 65 155 65c135 0 236 -106 236 -253c0 -151 -101 -250 -237 -250zM323 94c82 0 140 61 140 147c0 94 -63 153 -141 153c-84 0 -142 -66 -142 -153c0 -88 63 -147 143 -147z" />
    <glyph glyph-name="c" unicode="c" horiz-adv-x="532" 
d="M293 -8c-144 0 -249 102 -249 251c0 150 105 252 253 252c76 0 156 -31 205 -91l-76 -66c-28 33 -70 56 -123 56c-87 0 -145 -61 -145 -150c0 -90 59 -150 145 -150c54 0 98 24 123 57l77 -68c-41 -53 -104 -91 -210 -91z" />
    <glyph glyph-name="cacute" unicode="&#x107;" horiz-adv-x="532" 
d="M226 556l115 144l123 1l-124 -145h-114zM293 -8c-144 0 -249 102 -249 251c0 150 105 252 253 252c76 0 156 -31 205 -91l-76 -66c-28 33 -70 56 -123 56c-87 0 -145 -61 -145 -150c0 -90 59 -150 145 -150c54 0 98 24 123 57l77 -68c-41 -53 -104 -91 -210 -91z" />
    <glyph glyph-name="ccaron" unicode="&#x10d;" horiz-adv-x="532" 
d="M238 552l-105 145h109l54 -77h2l55 77h111l-109 -145h-117zM293 -8c-144 0 -249 102 -249 251c0 150 105 252 253 252c76 0 156 -31 205 -91l-76 -66c-28 33 -70 56 -123 56c-87 0 -145 -61 -145 -150c0 -90 59 -150 145 -150c54 0 98 24 123 57l77 -68
c-41 -53 -104 -91 -210 -91z" />
    <glyph glyph-name="ccedilla" unicode="&#xe7;" horiz-adv-x="532" 
d="M309 -8l-11 -22v-2c61 -2 92 -31 92 -80c0 -44 -35 -78 -119 -78c-27 0 -44 3 -59 6v55c12 -4 27 -7 50 -7c24 0 51 9 51 30c0 18 -29 34 -84 34v36l15 32c-118 21 -200 116 -200 247c0 150 105 252 253 252c76 0 156 -31 205 -91l-76 -66c-28 33 -70 56 -123 56
c-87 0 -145 -61 -145 -150c0 -90 59 -150 145 -150c54 0 98 24 123 57l77 -68c-39 -50 -98 -87 -194 -91z" />
    <glyph glyph-name="ccircumflex" unicode="&#x109;" horiz-adv-x="532" 
d="M133 554l109 145h117l105 -145h-109l-54 77h-2l-55 -77h-111zM293 -8c-144 0 -249 102 -249 251c0 150 105 252 253 252c76 0 156 -31 205 -91l-76 -66c-28 33 -70 56 -123 56c-87 0 -145 -61 -145 -150c0 -90 59 -150 145 -150c54 0 98 24 123 57l77 -68
c-41 -53 -104 -91 -210 -91z" />
    <glyph glyph-name="cdotaccent" unicode="&#x10b;" horiz-adv-x="532" 
d="M299 560c-42 0 -75 34 -75 75c0 40 33 74 75 74s76 -34 76 -74c0 -41 -34 -75 -76 -75zM293 -8c-144 0 -249 102 -249 251c0 150 105 252 253 252c76 0 156 -31 205 -91l-76 -66c-28 33 -70 56 -123 56c-87 0 -145 -61 -145 -150c0 -90 59 -150 145 -150
c54 0 98 24 123 57l77 -68c-41 -53 -104 -91 -210 -91z" />
    <glyph glyph-name="d" unicode="d" horiz-adv-x="620" 
d="M280 -8c-135 0 -237 99 -237 250c0 147 102 253 236 253c64 0 119 -23 156 -67h1v308h111v-736h-107v66h-1c-36 -47 -89 -74 -159 -74zM297 94c80 0 143 59 143 147c0 87 -58 153 -142 153c-78 0 -141 -59 -141 -153c0 -86 58 -147 140 -147z" />
    <glyph glyph-name="eth" unicode="&#xf0;" horiz-adv-x="596" 
d="M430 575c75 -85 120 -192 120 -307c0 -184 -104 -276 -256 -276c-140 0 -249 101 -249 239c0 151 104 246 217 246c62 0 108 -16 144 -49v1c-16 34 -36 64 -61 91c-11 12 -22 23 -34 34l-39 -47l-73 53l38 46c-34 20 -70 36 -110 51l49 84c44 -15 85 -34 124 -57l64 79
l77 -51l-67 -82c20 -17 39 -35 56 -55zM295 94c83 0 141 62 141 145c0 80 -59 139 -140 139c-80 0 -137 -63 -137 -139c0 -84 60 -145 136 -145z" />
    <glyph glyph-name="dcaron" unicode="&#x10f;" horiz-adv-x="703" 
d="M612 583l30 198h108l-58 -198h-80zM280 -8c-135 0 -237 99 -237 250c0 147 102 253 236 253c64 0 119 -23 156 -67h1v308h111v-736h-107v66h-1c-36 -47 -89 -74 -159 -74zM297 94c80 0 143 59 143 147c0 87 -58 153 -142 153c-78 0 -141 -59 -141 -153
c0 -86 58 -147 140 -147z" />
    <glyph glyph-name="dcroat" unicode="&#x111;" horiz-adv-x="609" 
d="M609 638v-76h-62v-562h-107v66h-1c-36 -47 -89 -74 -159 -74c-135 0 -237 99 -237 250c0 147 102 253 236 253c64 0 119 -23 156 -67h1v134h-186v76h186v98h111v-98h62zM297 94c80 0 143 59 143 147c0 87 -58 153 -142 153c-78 0 -141 -59 -141 -153
c0 -86 58 -147 140 -147z" />
    <glyph glyph-name="uni1E0D" unicode="&#x1e0d;" horiz-adv-x="620" 
d="M280 -8c-135 0 -237 99 -237 250c0 147 102 253 236 253c64 0 119 -23 156 -67h1v308h111v-736h-107v66h-1c-36 -47 -89 -74 -159 -74zM297 94c80 0 143 59 143 147c0 87 -58 153 -142 153c-78 0 -141 -59 -141 -153c0 -86 58 -147 140 -147zM310 -78c42 0 75 -34 75 -75
c0 -40 -33 -74 -75 -74s-76 34 -76 74c0 41 34 75 76 75z" />
    <glyph glyph-name="uni1E0F" unicode="&#x1e0f;" horiz-adv-x="620" 
d="M280 -8c-135 0 -237 99 -237 250c0 147 102 253 236 253c64 0 119 -23 156 -67h1v308h111v-736h-107v66h-1c-36 -47 -89 -74 -159 -74zM297 94c80 0 143 59 143 147c0 87 -58 153 -142 153c-78 0 -141 -59 -141 -153c0 -86 58 -147 140 -147zM459 -207h-298v94h298v-94z
" />
    <glyph glyph-name="e" unicode="e" horiz-adv-x="562" 
d="M519 250c0 -18 -2 -35 -3 -43h-356c14 -71 67 -113 143 -113c58 0 98 26 123 57l78 -67c-41 -53 -102 -92 -207 -92c-148 0 -253 99 -253 252c0 150 102 251 245 251c137 0 230 -103 230 -245zM288 394c-62 0 -110 -35 -126 -99h244c-14 59 -54 99 -118 99z" />
    <glyph glyph-name="eacute" unicode="&#xe9;" horiz-adv-x="561" 
d="M461 701l-124 -145h-114l115 144zM519 250c0 -18 -2 -35 -3 -43h-356c14 -71 67 -113 143 -113c58 0 98 26 123 57l78 -67c-41 -53 -102 -92 -207 -92c-148 0 -253 99 -253 252c0 150 102 251 245 251c137 0 230 -103 230 -245zM288 394c-62 0 -110 -35 -126 -99h244
c-14 59 -54 99 -118 99z" />
    <glyph glyph-name="ebreve" unicode="&#x115;" horiz-adv-x="562" 
d="M291 548c-96 0 -149 57 -156 149h88c2 -33 26 -63 68 -63s66 30 68 63h88c-7 -92 -60 -149 -156 -149zM519 250c0 -18 -2 -35 -3 -43h-356c14 -71 67 -113 143 -113c58 0 98 26 123 57l78 -67c-41 -53 -102 -92 -207 -92c-148 0 -253 99 -253 252c0 150 102 251 245 251
c137 0 230 -103 230 -245zM288 394c-62 0 -110 -35 -126 -99h244c-14 59 -54 99 -118 99z" />
    <glyph glyph-name="ecaron" unicode="&#x11b;" horiz-adv-x="562" 
d="M347 552h-117l-105 145h109l54 -77h2l55 77h111zM519 250c0 -18 -2 -35 -3 -43h-356c14 -71 67 -113 143 -113c58 0 98 26 123 57l78 -67c-41 -53 -102 -92 -207 -92c-148 0 -253 99 -253 252c0 150 102 251 245 251c137 0 230 -103 230 -245zM288 394
c-62 0 -110 -35 -126 -99h244c-14 59 -54 99 -118 99z" />
    <glyph glyph-name="ecircumflex" unicode="&#xea;" horiz-adv-x="562" 
d="M291 631l-55 -77h-111l109 145h117l105 -145h-109l-54 77h-2zM519 250c0 -18 -2 -35 -3 -43h-356c14 -71 67 -113 143 -113c58 0 98 26 123 57l78 -67c-41 -53 -102 -92 -207 -92c-148 0 -253 99 -253 252c0 150 102 251 245 251c137 0 230 -103 230 -245zM288 394
c-62 0 -110 -35 -126 -99h244c-14 59 -54 99 -118 99z" />
    <glyph glyph-name="uni1EBF" unicode="&#x1ebf;" horiz-adv-x="562" 
d="M633 790l-123 -145h-83l83 145h123zM292 631l-55 -77h-111l109 145h117l105 -145h-109l-54 77h-2zM289 495c137 0 230 -103 230 -245c0 -18 -2 -35 -3 -43h-356c14 -71 67 -113 143 -113c58 0 98 26 123 57l78 -67c-41 -53 -102 -92 -207 -92c-148 0 -253 99 -253 252
c0 150 102 251 245 251zM288 394c-62 0 -110 -35 -126 -99h244c-14 59 -54 99 -118 99z" />
    <glyph glyph-name="uni1EC7" unicode="&#x1ec7;" horiz-adv-x="562" 
d="M291 631l-55 -77h-111l109 145h117l105 -145h-109l-54 77h-2zM519 250c0 -18 -2 -35 -3 -43h-356c14 -71 67 -113 143 -113c58 0 98 26 123 57l78 -67c-41 -53 -102 -92 -207 -92c-148 0 -253 99 -253 252c0 150 102 251 245 251c137 0 230 -103 230 -245zM288 394
c-62 0 -110 -35 -126 -99h244c-14 59 -54 99 -118 99zM296 -78c42 0 75 -34 75 -75c0 -40 -33 -74 -75 -74s-76 34 -76 74c0 41 34 75 76 75z" />
    <glyph glyph-name="uni1EC1" unicode="&#x1ec1;" horiz-adv-x="562" 
d="M538 645h-83l-123 145h123zM292 631l-55 -77h-111l109 145h117l105 -145h-109l-54 77h-2zM289 495c137 0 230 -103 230 -245c0 -18 -2 -35 -3 -43h-356c14 -71 67 -113 143 -113c58 0 98 26 123 57l78 -67c-41 -53 -102 -92 -207 -92c-148 0 -253 99 -253 252
c0 150 102 251 245 251zM288 394c-62 0 -110 -35 -126 -99h244c-14 59 -54 99 -118 99z" />
    <glyph glyph-name="uni1EC3" unicode="&#x1ec3;" horiz-adv-x="562" 
d="M505 830c51 0 89 -24 89 -78c0 -47 -46 -84 -76 -97h-78c44 32 67 61 66 82c0 12 -10 20 -27 20c-27 0 -48 -8 -84 -32l-24 55c21 21 66 50 134 50zM291 631l-55 -77h-111l109 145h117l105 -145h-109l-54 77h-2zM289 495c137 0 230 -103 230 -245c0 -18 -2 -35 -3 -43
h-356c14 -71 67 -113 143 -113c58 0 98 26 123 57l78 -67c-41 -53 -102 -92 -207 -92c-148 0 -253 99 -253 252c0 150 102 251 245 251zM288 394c-62 0 -110 -35 -126 -99h244c-14 59 -54 99 -118 99z" />
    <glyph glyph-name="uni1EC5" unicode="&#x1ec5;" horiz-adv-x="562" 
d="M228 792c-16 -2 -36 -20 -48 -52l-68 31c20 61 51 104 107 104c19 0 43 -4 77 -24c37 -22 46 -25 57 -25c27 0 44 20 57 52l68 -23c-20 -67 -57 -113 -111 -113c-30 0 -57 14 -80 28c-22 13 -41 24 -59 22zM235 699h117l105 -145h-109l-54 77h-2l-55 -77h-111zM519 250
c0 -18 -2 -35 -3 -43h-356c14 -71 67 -113 143 -113c58 0 98 26 123 57l78 -67c-41 -53 -102 -92 -207 -92c-148 0 -253 99 -253 252c0 150 102 251 245 251c137 0 230 -103 230 -245zM288 394c-62 0 -110 -35 -126 -99h244c-14 59 -54 99 -118 99z" />
    <glyph glyph-name="edieresis" unicode="&#xeb;" horiz-adv-x="562" 
d="M191 562c-41 0 -74 34 -74 74c0 39 33 72 74 72s75 -34 75 -73c0 -40 -34 -73 -75 -73zM390 562c-41 0 -74 34 -74 74c0 39 33 72 74 72s75 -34 75 -73c0 -40 -34 -73 -75 -73zM519 250c0 -18 -2 -35 -3 -43h-356c14 -71 67 -113 143 -113c58 0 98 26 123 57l78 -67
c-41 -53 -102 -92 -207 -92c-148 0 -253 99 -253 252c0 150 102 251 245 251c137 0 230 -103 230 -245zM288 394c-62 0 -110 -35 -126 -99h244c-14 59 -54 99 -118 99z" />
    <glyph glyph-name="edotaccent" unicode="&#x117;" horiz-adv-x="562" 
d="M291 560c-42 0 -75 34 -75 75c0 40 33 74 75 74s76 -34 76 -74c0 -41 -34 -75 -76 -75zM519 250c0 -18 -2 -35 -3 -43h-356c14 -71 67 -113 143 -113c58 0 98 26 123 57l78 -67c-41 -53 -102 -92 -207 -92c-148 0 -253 99 -253 252c0 150 102 251 245 251
c137 0 230 -103 230 -245zM288 394c-62 0 -110 -35 -126 -99h244c-14 59 -54 99 -118 99z" />
    <glyph glyph-name="uni1EB9" unicode="&#x1eb9;" horiz-adv-x="562" 
d="M519 250c0 -18 -2 -35 -3 -43h-356c14 -71 67 -113 143 -113c58 0 98 26 123 57l78 -67c-41 -53 -102 -92 -207 -92c-148 0 -253 99 -253 252c0 150 102 251 245 251c137 0 230 -103 230 -245zM288 394c-62 0 -110 -35 -126 -99h244c-14 59 -54 99 -118 99zM296 -78
c42 0 75 -34 75 -75c0 -40 -33 -74 -75 -74s-76 34 -76 74c0 41 34 75 76 75z" />
    <glyph glyph-name="egrave" unicode="&#xe8;" horiz-adv-x="561" 
d="M370 554h-111l-124 144l125 -1zM519 250c0 -18 -2 -35 -3 -43h-356c14 -71 67 -113 143 -113c58 0 98 26 123 57l78 -67c-41 -53 -102 -92 -207 -92c-148 0 -253 99 -253 252c0 150 102 251 245 251c137 0 230 -103 230 -245zM288 394c-62 0 -110 -35 -126 -99h244
c-14 59 -54 99 -118 99z" />
    <glyph glyph-name="uni1EBB" unicode="&#x1ebb;" horiz-adv-x="562" 
d="M292 661c-28 0 -50 -8 -88 -34l-26 58c22 23 70 53 141 53c54 0 94 -25 94 -82c0 -50 -48 -89 -80 -102h-82c46 33 71 64 70 86c0 13 -11 21 -29 21zM519 250c0 -18 -2 -35 -3 -43h-356c14 -71 67 -113 143 -113c58 0 98 26 123 57l78 -67c-41 -53 -102 -92 -207 -92
c-148 0 -253 99 -253 252c0 150 102 251 245 251c137 0 230 -103 230 -245zM288 394c-62 0 -110 -35 -126 -99h244c-14 59 -54 99 -118 99z" />
    <glyph glyph-name="emacron" unicode="&#x113;" horiz-adv-x="562" 
d="M440 678v-94h-298v94h298zM519 250c0 -18 -2 -35 -3 -43h-356c14 -71 67 -113 143 -113c58 0 98 26 123 57l78 -67c-41 -53 -102 -92 -207 -92c-148 0 -253 99 -253 252c0 150 102 251 245 251c137 0 230 -103 230 -245zM288 394c-62 0 -110 -35 -126 -99h244
c-14 59 -54 99 -118 99z" />
    <glyph glyph-name="eogonek" unicode="&#x119;" horiz-adv-x="561" 
d="M519 250c0 -18 -2 -35 -3 -43h-356c14 -71 67 -113 143 -113c58 0 98 26 123 57l78 -67c-32 -41 -75 -73 -142 -86c-41 -17 -68 -40 -68 -68c0 -21 15 -37 43 -37c25 0 30 3 41 7l7 -71c-19 -9 -45 -13 -72 -13c-75 0 -117 36 -117 89c0 28 17 61 50 88v3
c-121 21 -202 113 -202 248c0 150 102 251 245 251c137 0 230 -103 230 -245zM288 394c-62 0 -110 -35 -126 -99h244c-14 59 -54 99 -118 99z" />
    <glyph glyph-name="uni1EBD" unicode="&#x1ebd;" horiz-adv-x="562" 
d="M226 607c-26 0 -45 -20 -58 -52l-68 31c20 65 58 110 114 110c39 0 62 -14 84 -28c19 -12 37 -25 58 -25c24 0 44 20 57 52l68 -23c-20 -73 -60 -119 -111 -119c-36 0 -64 17 -88 32c-19 12 -37 22 -56 22zM519 250c0 -18 -2 -35 -3 -43h-356c14 -71 67 -113 143 -113
c58 0 98 26 123 57l78 -67c-41 -53 -102 -92 -207 -92c-148 0 -253 99 -253 252c0 150 102 251 245 251c137 0 230 -103 230 -245zM288 394c-62 0 -110 -35 -126 -99h244c-14 59 -54 99 -118 99z" />
    <glyph glyph-name="uni0259" unicode="&#x259;" horiz-adv-x="561" 
d="M261 495c139 0 256 -85 256 -255c0 -143 -85 -248 -239 -248c-153 0 -234 108 -234 244c0 14 2 37 3 46h356c-15 77 -76 114 -150 114c-46 0 -88 -12 -134 -36l-43 91c60 31 123 44 185 44zM278 93c69 0 110 39 124 99h-244c9 -63 52 -99 120 -99z" />
    <glyph glyph-name="f" unicode="f" horiz-adv-x="343" 
d="M91 0v393h-54v95h54v89c0 109 52 167 148 167c54 0 96 -17 122 -34l-25 -94c-32 15 -60 25 -81 25c-34 0 -52 -23 -52 -76v-77h120v-95h-120v-393h-112z" />
    <glyph glyph-name="g" unicode="g" horiz-adv-x="607" 
d="M291 -205c-73 0 -144 18 -199 51l27 98c53 -28 96 -48 166 -48c96 0 145 55 145 120v51h-2c-37 -37 -88 -59 -148 -59c-136 0 -238 96 -238 241c0 143 97 246 232 246c56 0 111 -20 152 -59h2v52h112v-438c0 -148 -68 -255 -249 -255zM295 111c81 0 138 60 138 143
s-60 139 -138 139c-83 0 -139 -58 -139 -141c0 -87 60 -141 139 -141z" />
    <glyph glyph-name="gbreve" unicode="&#x11f;" horiz-adv-x="607" 
d="M293 548c-96 0 -149 57 -156 149h88c2 -33 26 -63 68 -63s66 30 68 63h88c-7 -92 -60 -149 -156 -149zM291 -205c-73 0 -144 18 -199 51l27 98c53 -28 96 -48 166 -48c96 0 145 55 145 120v51h-2c-37 -37 -88 -59 -148 -59c-136 0 -238 96 -238 241c0 143 97 246 232 246
c56 0 111 -20 152 -59h2v52h112v-438c0 -148 -68 -255 -249 -255zM295 111c81 0 138 60 138 143s-60 139 -138 139c-83 0 -139 -58 -139 -141c0 -87 60 -141 139 -141z" />
    <glyph glyph-name="gcaron" unicode="&#x1e7;" horiz-adv-x="607" 
d="M232 552l-105 145h109l54 -77h2l55 77h111l-109 -145h-117zM291 -205c-73 0 -144 18 -199 51l27 98c53 -28 96 -48 166 -48c96 0 145 55 145 120v51h-2c-37 -37 -88 -59 -148 -59c-136 0 -238 96 -238 241c0 143 97 246 232 246c56 0 111 -20 152 -59h2v52h112v-438
c0 -148 -68 -255 -249 -255zM295 111c81 0 138 60 138 143s-60 139 -138 139c-83 0 -139 -58 -139 -141c0 -87 60 -141 139 -141z" />
    <glyph glyph-name="gcircumflex" unicode="&#x11d;" horiz-adv-x="607" 
d="M127 554l109 145h117l105 -145h-109l-54 77h-2l-55 -77h-111zM291 -205c-73 0 -144 18 -199 51l27 98c53 -28 96 -48 166 -48c96 0 145 55 145 120v51h-2c-37 -37 -88 -59 -148 -59c-136 0 -238 96 -238 241c0 143 97 246 232 246c56 0 111 -20 152 -59h2v52h112v-438
c0 -148 -68 -255 -249 -255zM295 111c81 0 138 60 138 143s-60 139 -138 139c-83 0 -139 -58 -139 -141c0 -87 60 -141 139 -141z" />
    <glyph glyph-name="gcommaaccent" unicode="&#x123;" horiz-adv-x="607" 
d="M371 725l26 -65c-40 -14 -55 -30 -55 -62c0 -15 2 -22 6 -39h-102c-3 15 -4 28 -4 47c0 76 61 112 129 119zM291 -205c-73 0 -144 18 -199 51l27 98c53 -28 96 -48 166 -48c96 0 145 55 145 120v51h-2c-37 -37 -88 -59 -148 -59c-136 0 -238 96 -238 241
c0 143 97 246 232 246c56 0 111 -20 152 -59h2v52h112v-438c0 -148 -68 -255 -249 -255zM295 111c81 0 138 60 138 143s-60 139 -138 139c-83 0 -139 -58 -139 -141c0 -87 60 -141 139 -141z" />
    <glyph glyph-name="gdotaccent" unicode="&#x121;" horiz-adv-x="607" 
d="M293 560c-42 0 -75 34 -75 75c0 40 33 74 75 74s76 -34 76 -74c0 -41 -34 -75 -76 -75zM291 -205c-73 0 -144 18 -199 51l27 98c53 -28 96 -48 166 -48c96 0 145 55 145 120v51h-2c-37 -37 -88 -59 -148 -59c-136 0 -238 96 -238 241c0 143 97 246 232 246
c56 0 111 -20 152 -59h2v52h112v-438c0 -148 -68 -255 -249 -255zM295 111c81 0 138 60 138 143s-60 139 -138 139c-83 0 -139 -58 -139 -141c0 -87 60 -141 139 -141z" />
    <glyph glyph-name="uni1E21" unicode="&#x1e21;" horiz-adv-x="607" 
d="M144 584v94h298v-94h-298zM291 -205c-73 0 -144 18 -199 51l27 98c53 -28 96 -48 166 -48c96 0 145 55 145 120v51h-2c-37 -37 -88 -59 -148 -59c-136 0 -238 96 -238 241c0 143 97 246 232 246c56 0 111 -20 152 -59h2v52h112v-438c0 -148 -68 -255 -249 -255zM295 111
c81 0 138 60 138 143s-60 139 -138 139c-83 0 -139 -58 -139 -141c0 -87 60 -141 139 -141z" />
    <glyph glyph-name="h" unicode="h" horiz-adv-x="598" 
d="M73 0v736h112v-309h1c41 45 100 68 166 68c107 0 182 -57 182 -203v-292h-112v263c0 97 -39 131 -106 131c-81 0 -131 -50 -131 -146v-248h-112z" />
    <glyph glyph-name="hbar" unicode="&#x127;" horiz-adv-x="598" 
d="M352 495c107 0 182 -57 182 -203v-292h-112v263c0 97 -39 131 -106 131c-81 0 -131 -50 -131 -146v-248h-112v562h-67v76h67v98h112v-98h174v-76h-174v-135h1c41 45 100 68 166 68z" />
    <glyph glyph-name="uni1E2B" unicode="&#x1e2b;" horiz-adv-x="598" 
d="M73 0v736h112v-309h1c41 45 100 68 166 68c107 0 182 -57 182 -203v-292h-112v263c0 97 -39 131 -106 131c-81 0 -131 -50 -131 -146v-248h-112zM294 -226c-96 0 -149 57 -156 149h88c2 -33 26 -63 68 -63s66 30 68 63h88c-7 -92 -60 -149 -156 -149z" />
    <glyph glyph-name="hcircumflex" unicode="&#x125;" horiz-adv-x="598" 
d="M72 785l111 133h117l108 -133h-109l-57 71h-2l-57 -71h-111zM73 0v736h112v-309h1c41 45 100 68 166 68c107 0 182 -57 182 -203v-292h-112v263c0 97 -39 131 -106 131c-81 0 -131 -50 -131 -146v-248h-112z" />
    <glyph glyph-name="uni1E25" unicode="&#x1e25;" horiz-adv-x="598" 
d="M73 0v736h112v-309h1c41 45 100 68 166 68c107 0 182 -57 182 -203v-292h-112v263c0 97 -39 131 -106 131c-81 0 -131 -50 -131 -146v-248h-112zM294 -78c42 0 75 -34 75 -75c0 -40 -33 -74 -75 -74s-76 34 -76 74c0 41 34 75 76 75z" />
    <glyph glyph-name="i" unicode="i" horiz-adv-x="272" 
d="M136 560c-42 0 -75 34 -75 75c0 40 33 74 75 74s76 -34 76 -74c0 -41 -34 -75 -76 -75zM80 0v488h112v-488h-112z" />
    <glyph glyph-name="dotlessi" unicode="&#x131;" horiz-adv-x="272" 
d="M80 0v488h112v-488h-112z" />
    <glyph glyph-name="iacute" unicode="&#xed;" horiz-adv-x="272" 
d="M84 556l115 144l123 1l-124 -145h-114zM80 0v488h112v-488h-112z" />
    <glyph glyph-name="ibreve" unicode="&#x12d;" horiz-adv-x="272" 
d="M136 551c-75 0 -135 51 -142 146h88c3 -38 20 -68 54 -68c30 0 51 27 53 68h88c-6 -85 -57 -146 -141 -146zM80 0v488h112v-488h-112z" />
    <glyph glyph-name="uni01D0" unicode="&#x1d0;" horiz-adv-x="272" 
d="M75 552l-105 145h109l54 -77h2l55 77h111l-109 -145h-117zM80 0v488h112v-488h-112z" />
    <glyph glyph-name="icircumflex" unicode="&#xee;" horiz-adv-x="272" 
d="M-30 554l109 145h117l105 -145h-109l-54 77h-2l-55 -77h-111zM80 0v488h112v-488h-112z" />
    <glyph glyph-name="idieresis" unicode="&#xef;" horiz-adv-x="272" 
d="M49 560c-43 0 -76 34 -76 75c0 40 33 74 76 74c41 0 75 -34 75 -74c0 -41 -34 -75 -75 -75zM225 562c-41 0 -75 33 -75 73c0 39 34 73 75 73c40 0 74 -34 74 -73c0 -40 -34 -73 -74 -73zM80 0v488h112v-488h-112z" />
    <glyph glyph-name="i.loclTRK" horiz-adv-x="272" 
d="M136 560c-42 0 -75 34 -75 75c0 40 33 74 75 74s76 -34 76 -74c0 -41 -34 -75 -76 -75zM80 0v488h112v-488h-112z" />
    <glyph glyph-name="uni1ECB" unicode="&#x1ecb;" horiz-adv-x="272" 
d="M136 560c-42 0 -75 34 -75 75c0 40 33 74 75 74s76 -34 76 -74c0 -41 -34 -75 -76 -75zM80 0v488h112v-488h-112zM136 -78c42 0 75 -34 75 -75c0 -40 -33 -74 -75 -74s-76 34 -76 74c0 41 34 75 76 75z" />
    <glyph glyph-name="igrave" unicode="&#xec;" horiz-adv-x="273" 
d="M79 556l-90 145l123 -1l81 -144h-114zM80 0v488h112v-488h-112z" />
    <glyph glyph-name="uni1EC9" unicode="&#x1ec9;" horiz-adv-x="272" 
d="M96 554c46 33 71 64 70 86c0 13 -11 21 -29 21c-28 0 -50 -8 -88 -34l-26 58c22 23 70 53 141 53c54 0 94 -25 94 -82c0 -50 -48 -89 -80 -102h-82zM80 0v488h112v-488h-112z" />
    <glyph glyph-name="ij" unicode="&#x133;" horiz-adv-x="521" 
d="M136 560c-42 0 -75 34 -75 75c0 40 33 74 75 74s76 -34 76 -74c0 -41 -34 -75 -76 -75zM397 560c-42 0 -75 34 -75 75c0 40 33 74 75 74s76 -34 76 -74c0 -41 -34 -75 -76 -75zM80 0v488h112v-488h-112zM318 -206c-35 0 -58 3 -95 18l19 97c14 -9 36 -14 51 -14
c31 0 49 23 49 72v521h112v-521c0 -114 -60 -173 -136 -173z" />
    <glyph glyph-name="imacron" unicode="&#x12b;" horiz-adv-x="272" 
d="M-13 584v94h298v-94h-298zM80 0v488h112v-488h-112z" />
    <glyph glyph-name="iogonek" unicode="&#x12f;" horiz-adv-x="272" 
d="M136 560c-42 0 -75 34 -75 75c0 40 33 74 75 74s76 -34 76 -74c0 -41 -34 -75 -76 -75zM145 -116c25 0 30 3 41 8l7 -68c-19 -8 -45 -12 -72 -12c-66 0 -108 35 -108 88c0 32 23 73 67 102v486h112v-488h-11c-49 -11 -79 -44 -79 -75c0 -25 15 -41 43 -41z" />
    <glyph glyph-name="itilde" unicode="&#x129;" horiz-adv-x="272" 
d="M24 558l-68 31c20 61 51 104 107 104c19 0 43 -4 77 -24c37 -22 46 -25 57 -25c27 0 44 20 57 52l68 -23c-20 -67 -57 -113 -111 -113c-30 0 -57 14 -80 28c-22 13 -41 24 -59 22c-16 -2 -36 -20 -48 -52zM80 0v488h112v-488h-112z" />
    <glyph glyph-name="j" unicode="j" horiz-adv-x="249" 
d="M125 560c-42 0 -75 34 -75 75c0 40 33 74 75 74s76 -34 76 -74c0 -41 -34 -75 -76 -75zM46 -206c-35 0 -58 3 -95 18l19 97c14 -9 36 -14 51 -14c31 0 49 23 49 72v521h112v-521c0 -114 -60 -173 -136 -173z" />
    <glyph glyph-name="uni0237" unicode="&#x237;" horiz-adv-x="249" 
d="M46 -206c-35 0 -58 3 -95 18l19 97c14 -9 36 -14 51 -14c31 0 49 23 49 72v521h112v-521c0 -114 -60 -173 -136 -173z" />
    <glyph glyph-name="uni006A0301" horiz-adv-x="249" 
d="M74 565l115 144l123 1l-124 -145h-114zM46 -206c-35 0 -58 3 -95 18l19 97c14 -9 36 -14 51 -14c31 0 49 23 49 72v521h112v-521c0 -114 -60 -173 -136 -173z" />
    <glyph glyph-name="jcircumflex" unicode="&#x135;" horiz-adv-x="249" 
d="M-41 554l109 145h117l105 -145h-109l-54 77h-2l-55 -77h-111zM46 -206c-35 0 -58 3 -95 18l19 97c14 -9 36 -14 51 -14c31 0 49 23 49 72v521h112v-521c0 -114 -60 -173 -136 -173z" />
    <glyph glyph-name="k" unicode="k" horiz-adv-x="535" 
d="M73 0v736h112v-473l2 -1l198 226h133l-176 -196l179 -292h-126l-131 215l-79 -86v-129h-112z" />
    <glyph glyph-name="kcommaaccent" unicode="&#x137;" horiz-adv-x="535" 
d="M73 0v736h112v-473l2 -1l198 226h133l-176 -196l179 -292h-126l-131 215l-79 -86v-129h-112zM210 -219l-26 65c40 14 55 30 55 62c0 15 -2 22 -6 39h102c3 -15 4 -28 4 -47c0 -76 -61 -112 -129 -119z" />
    <glyph glyph-name="kgreenlandic" unicode="&#x138;" horiz-adv-x="555" 
d="M73 0v488h112v-226l2 -1l204 227h139l-196 -210l207 -278h-136l-145 205l-75 -80v-125h-112z" />
    <glyph glyph-name="l" unicode="l" horiz-adv-x="272" 
d="M80 0v736h112v-736h-112z" />
    <glyph glyph-name="lacute" unicode="&#x13a;" horiz-adv-x="272" 
d="M79 788l112 133h125l-126 -133h-111zM80 0v736h112v-736h-112z" />
    <glyph glyph-name="lcaron" unicode="&#x13e;" horiz-adv-x="346" 
d="M257 583l30 198h108l-58 -198h-80zM80 0v736h112v-736h-112z" />
    <glyph glyph-name="lcommaaccent" unicode="&#x13c;" horiz-adv-x="272" 
d="M80 0v736h112v-736h-112zM59 -219l-26 65c40 14 55 30 55 62c0 15 -2 22 -6 39h102c3 -15 4 -28 4 -47c0 -76 -61 -112 -129 -119z" />
    <glyph glyph-name="ldot" unicode="&#x140;" horiz-adv-x="453" 
d="M80 0v736h112v-736h-112zM360 171c-42 0 -76 33 -76 74s34 75 76 75c41 0 75 -34 75 -75s-34 -74 -75 -74z" />
    <glyph glyph-name="uni1E37" unicode="&#x1e37;" horiz-adv-x="272" 
d="M80 0v736h112v-736h-112zM137 -78c42 0 75 -34 75 -75c0 -40 -33 -74 -75 -74s-76 34 -76 74c0 41 34 75 76 75z" />
    <glyph glyph-name="uni1E39" unicode="&#x1e39;" horiz-adv-x="272" 
d="M-9 810v89h298v-89h-298zM80 0v736h112v-736h-112zM137 -78c42 0 75 -34 75 -75c0 -40 -33 -74 -75 -74s-76 34 -76 74c0 41 34 75 76 75z" />
    <glyph glyph-name="uni1E3B" unicode="&#x1e3b;" horiz-adv-x="272" 
d="M80 0v736h112v-736h-112zM286 -207h-298v94h298v-94z" />
    <glyph glyph-name="lslash" unicode="&#x142;" horiz-adv-x="307" 
d="M284 418v-88l-70 -30v-300h-112v252l-74 -32v88l74 32v396h112v-348z" />
    <glyph glyph-name="m" unicode="m" horiz-adv-x="897" 
d="M73 0v488h112v-67h1c40 48 96 74 152 74c66 0 117 -26 146 -81h2c41 53 103 81 175 81c107 0 171 -67 171 -213v-282h-112v254c0 88 -29 140 -95 140c-63 0 -114 -55 -114 -151v-243h-112v254c0 88 -31 140 -97 140c-67 0 -117 -55 -117 -151v-243h-112z" />
    <glyph glyph-name="uni1E43" unicode="&#x1e43;" horiz-adv-x="897" 
d="M73 0v488h112v-67h1c40 48 96 74 152 74c66 0 117 -26 146 -81h2c41 53 103 81 175 81c107 0 171 -67 171 -213v-282h-112v254c0 88 -29 140 -95 140c-63 0 -114 -55 -114 -151v-243h-112v254c0 88 -31 140 -97 140c-67 0 -117 -55 -117 -151v-243h-112zM456 -78
c42 0 75 -34 75 -75c0 -40 -33 -74 -75 -74s-76 34 -76 74c0 41 34 75 76 75z" />
    <glyph glyph-name="n" unicode="n" horiz-adv-x="593" 
d="M73 0v488h112v-67h2c40 48 99 74 163 74c107 0 179 -61 179 -208v-287h-112v258c0 103 -39 136 -106 136c-76 0 -126 -53 -126 -149v-245h-112z" />
    <glyph glyph-name="nacute" unicode="&#x144;" horiz-adv-x="593" 
d="M226 556l115 144l123 1l-124 -145h-114zM73 0v488h112v-67h2c40 48 99 74 163 74c107 0 179 -61 179 -208v-287h-112v258c0 103 -39 136 -106 136c-76 0 -126 -53 -126 -149v-245h-112z" />
    <glyph glyph-name="napostrophe" unicode="&#x149;" horiz-adv-x="676" 
d="M-9 502l30 208h108l-58 -208h-80zM156 0v488h112v-67h2c40 48 99 74 163 74c107 0 179 -61 179 -208v-287h-112v258c0 103 -39 136 -106 136c-76 0 -126 -53 -126 -149v-245h-112z" />
    <glyph glyph-name="ncaron" unicode="&#x148;" horiz-adv-x="593" 
d="M235 552l-105 145h109l54 -77h2l55 77h111l-109 -145h-117zM73 0v488h112v-67h2c40 48 99 74 163 74c107 0 179 -61 179 -208v-287h-112v258c0 103 -39 136 -106 136c-76 0 -126 -53 -126 -149v-245h-112z" />
    <glyph glyph-name="ncommaaccent" unicode="&#x146;" horiz-adv-x="593" 
d="M73 0v488h112v-67h2c40 48 99 74 163 74c107 0 179 -61 179 -208v-287h-112v258c0 103 -39 136 -106 136c-76 0 -126 -53 -126 -149v-245h-112zM235 -219l-26 65c40 14 55 30 55 62c0 15 -2 22 -6 39h102c3 -15 4 -28 4 -47c0 -76 -61 -112 -129 -119z" />
    <glyph glyph-name="uni1E45" unicode="&#x1e45;" horiz-adv-x="593" 
d="M296 560c-42 0 -75 34 -75 75c0 40 33 74 75 74s76 -34 76 -74c0 -41 -34 -75 -76 -75zM73 0v488h112v-67h2c40 48 99 74 163 74c107 0 179 -61 179 -208v-287h-112v258c0 103 -39 136 -106 136c-76 0 -126 -53 -126 -149v-245h-112z" />
    <glyph glyph-name="uni1E47" unicode="&#x1e47;" horiz-adv-x="593" 
d="M73 0v488h112v-67h2c40 48 99 74 163 74c107 0 179 -61 179 -208v-287h-112v258c0 103 -39 136 -106 136c-76 0 -126 -53 -126 -149v-245h-112zM313 -78c42 0 75 -34 75 -75c0 -40 -33 -74 -75 -74s-76 34 -76 74c0 41 34 75 76 75z" />
    <glyph glyph-name="eng" unicode="&#x14b;" horiz-adv-x="589" 
d="M348 -205c-26 0 -47 3 -75 14l8 89c21 -8 39 -10 52 -10c60 0 80 30 80 92v278c0 103 -39 136 -106 136c-72 0 -122 -53 -122 -149v-245h-112v488h112v-67h2c40 48 95 74 159 74c107 0 179 -61 179 -208v-296c0 -133 -62 -196 -177 -196z" />
    <glyph glyph-name="uni0272" unicode="&#x272;" horiz-adv-x="593" 
d="M350 495c107 0 179 -61 179 -208v-287h-112v258c0 103 -39 136 -106 136c-76 0 -126 -53 -126 -149v-264c0 -123 -52 -186 -148 -186c-26 0 -47 3 -75 14l8 89c18 -7 33 -10 46 -10c39 0 57 30 57 82v518h112v-67h2c40 48 99 74 163 74z" />
    <glyph glyph-name="uni1E49" unicode="&#x1e49;" horiz-adv-x="593" 
d="M73 0v488h112v-67h2c40 48 99 74 163 74c107 0 179 -61 179 -208v-287h-112v258c0 103 -39 136 -106 136c-76 0 -126 -53 -126 -149v-245h-112zM462 -207h-298v94h298v-94z" />
    <glyph glyph-name="ntilde" unicode="&#xf1;" horiz-adv-x="593" 
d="M375 553c-36 0 -64 17 -88 32c-19 12 -37 22 -56 22c-26 0 -45 -20 -58 -52l-68 31c20 65 58 110 114 110c39 0 62 -14 84 -28c19 -12 37 -25 58 -25c24 0 44 20 57 52l68 -23c-20 -73 -60 -119 -111 -119zM73 0v488h112v-67h2c40 48 99 74 163 74
c107 0 179 -61 179 -208v-287h-112v258c0 103 -39 136 -106 136c-76 0 -126 -53 -126 -149v-245h-112z" />
    <glyph glyph-name="o" unicode="o" horiz-adv-x="600" 
d="M300 -8c-154 0 -256 108 -256 251c0 144 102 252 256 252c150 0 256 -102 256 -252c0 -148 -106 -251 -256 -251zM300 94c79 0 142 61 142 149c0 90 -62 151 -142 151c-85 0 -142 -66 -142 -151c0 -83 58 -149 142 -149z" />
    <glyph glyph-name="oacute" unicode="&#xf3;" horiz-adv-x="600" 
d="M240 556l115 144l123 1l-124 -145h-114zM300 -8c-154 0 -256 108 -256 251c0 144 102 252 256 252c150 0 256 -102 256 -252c0 -148 -106 -251 -256 -251zM300 94c79 0 142 61 142 149c0 90 -62 151 -142 151c-85 0 -142 -66 -142 -151c0 -83 58 -149 142 -149z" />
    <glyph glyph-name="obreve" unicode="&#x14f;" horiz-adv-x="600" 
d="M300 548c-96 0 -149 57 -156 149h88c2 -33 26 -63 68 -63s66 30 68 63h88c-7 -92 -60 -149 -156 -149zM300 -8c-154 0 -256 108 -256 251c0 144 102 252 256 252c150 0 256 -102 256 -252c0 -148 -106 -251 -256 -251zM300 94c79 0 142 61 142 149c0 90 -62 151 -142 151
c-85 0 -142 -66 -142 -151c0 -83 58 -149 142 -149z" />
    <glyph glyph-name="uni01D2" unicode="&#x1d2;" horiz-adv-x="600" 
d="M239 552l-105 145h109l54 -77h2l55 77h111l-109 -145h-117zM300 -8c-154 0 -256 108 -256 251c0 144 102 252 256 252c150 0 256 -102 256 -252c0 -148 -106 -251 -256 -251zM300 94c79 0 142 61 142 149c0 90 -62 151 -142 151c-85 0 -142 -66 -142 -151
c0 -83 58 -149 142 -149z" />
    <glyph glyph-name="ocircumflex" unicode="&#xf4;" horiz-adv-x="600" 
d="M134 554l109 145h117l105 -145h-109l-54 77h-2l-55 -77h-111zM300 -8c-154 0 -256 108 -256 251c0 144 102 252 256 252c150 0 256 -102 256 -252c0 -148 -106 -251 -256 -251zM300 94c79 0 142 61 142 149c0 90 -62 151 -142 151c-85 0 -142 -66 -142 -151
c0 -83 58 -149 142 -149z" />
    <glyph glyph-name="uni1ED1" unicode="&#x1ed1;" horiz-adv-x="600" 
d="M436 645l83 145h123l-123 -145h-83zM135 554l109 145h117l105 -145h-109l-54 77h-2l-55 -77h-111zM300 -8c-154 0 -256 108 -256 251c0 144 102 252 256 252c150 0 256 -102 256 -252c0 -148 -106 -251 -256 -251zM300 94c79 0 142 61 142 149c0 90 -62 151 -142 151
c-85 0 -142 -66 -142 -151c0 -83 58 -149 142 -149z" />
    <glyph glyph-name="uni1ED9" unicode="&#x1ed9;" horiz-adv-x="600" 
d="M134 554l109 145h117l105 -145h-109l-54 77h-2l-55 -77h-111zM300 -8c-154 0 -256 108 -256 251c0 144 102 252 256 252c150 0 256 -102 256 -252c0 -148 -106 -251 -256 -251zM300 94c79 0 142 61 142 149c0 90 -62 151 -142 151c-85 0 -142 -66 -142 -151
c0 -83 58 -149 142 -149zM300 -78c42 0 75 -34 75 -75c0 -40 -33 -74 -75 -74s-76 34 -76 74c0 41 34 75 76 75z" />
    <glyph glyph-name="uni1ED3" unicode="&#x1ed3;" horiz-adv-x="600" 
d="M464 645l-123 145h123l83 -145h-83zM135 554l109 145h117l105 -145h-109l-54 77h-2l-55 -77h-111zM300 -8c-154 0 -256 108 -256 251c0 144 102 252 256 252c150 0 256 -102 256 -252c0 -148 -106 -251 -256 -251zM300 94c79 0 142 61 142 149c0 90 -62 151 -142 151
c-85 0 -142 -66 -142 -151c0 -83 58 -149 142 -149z" />
    <glyph glyph-name="uni1ED5" unicode="&#x1ed5;" horiz-adv-x="600" 
d="M449 655c44 32 67 61 66 82c0 12 -10 20 -27 20c-27 0 -48 -8 -84 -32l-24 55c21 21 66 50 134 50c51 0 89 -24 89 -78c0 -47 -46 -84 -76 -97h-78zM134 554l109 145h117l105 -145h-109l-54 77h-2l-55 -77h-111zM300 -8c-154 0 -256 108 -256 251c0 144 102 252 256 252
c150 0 256 -102 256 -252c0 -148 -106 -251 -256 -251zM300 94c79 0 142 61 142 149c0 90 -62 151 -142 151c-85 0 -142 -66 -142 -151c0 -83 58 -149 142 -149z" />
    <glyph glyph-name="uni1ED7" unicode="&#x1ed7;" horiz-adv-x="600" 
d="M189 740l-68 31c20 61 51 104 107 104c19 0 43 -4 77 -24c37 -22 46 -25 57 -25c27 0 44 20 57 52l68 -23c-20 -67 -57 -113 -111 -113c-30 0 -57 14 -80 28c-22 13 -41 24 -59 22c-16 -2 -36 -20 -48 -52zM135 554l109 145h117l105 -145h-109l-54 77h-2l-55 -77h-111z
M300 -8c-154 0 -256 108 -256 251c0 144 102 252 256 252c150 0 256 -102 256 -252c0 -148 -106 -251 -256 -251zM300 94c79 0 142 61 142 149c0 90 -62 151 -142 151c-85 0 -142 -66 -142 -151c0 -83 58 -149 142 -149z" />
    <glyph glyph-name="odieresis" unicode="&#xf6;" horiz-adv-x="600" 
d="M200 562c-41 0 -74 34 -74 74c0 39 33 72 74 72s75 -34 75 -73c0 -40 -34 -73 -75 -73zM399 562c-41 0 -74 34 -74 74c0 39 33 72 74 72s75 -34 75 -73c0 -40 -34 -73 -75 -73zM300 -8c-154 0 -256 108 -256 251c0 144 102 252 256 252c150 0 256 -102 256 -252
c0 -148 -106 -251 -256 -251zM300 94c79 0 142 61 142 149c0 90 -62 151 -142 151c-85 0 -142 -66 -142 -151c0 -83 58 -149 142 -149z" />
    <glyph glyph-name="uni1ECD" unicode="&#x1ecd;" horiz-adv-x="600" 
d="M300 -8c-154 0 -256 108 -256 251c0 144 102 252 256 252c150 0 256 -102 256 -252c0 -148 -106 -251 -256 -251zM300 94c79 0 142 61 142 149c0 90 -62 151 -142 151c-85 0 -142 -66 -142 -151c0 -83 58 -149 142 -149zM300 -78c42 0 75 -34 75 -75
c0 -40 -33 -74 -75 -74s-76 34 -76 74c0 41 34 75 76 75z" />
    <glyph glyph-name="ograve" unicode="&#xf2;" horiz-adv-x="600" 
d="M261 554l-124 144l125 -1l110 -143h-111zM300 -8c-154 0 -256 108 -256 251c0 144 102 252 256 252c150 0 256 -102 256 -252c0 -148 -106 -251 -256 -251zM300 94c79 0 142 61 142 149c0 90 -62 151 -142 151c-85 0 -142 -66 -142 -151c0 -83 58 -149 142 -149z" />
    <glyph glyph-name="uni1ECF" unicode="&#x1ecf;" horiz-adv-x="600" 
d="M260 554c46 33 71 64 70 86c0 13 -11 21 -29 21c-28 0 -50 -8 -88 -34l-26 58c22 23 70 53 141 53c54 0 94 -25 94 -82c0 -50 -48 -89 -80 -102h-82zM300 -8c-154 0 -256 108 -256 251c0 144 102 252 256 252c150 0 256 -102 256 -252c0 -148 -106 -251 -256 -251z
M300 94c79 0 142 61 142 149c0 90 -62 151 -142 151c-85 0 -142 -66 -142 -151c0 -83 58 -149 142 -149z" />
    <glyph glyph-name="ohorn" unicode="&#x1a1;" horiz-adv-x="681" 
d="M555 565h114v-71c0 -94 -41 -162 -121 -184c5 -21 8 -43 8 -67c0 -148 -106 -251 -256 -251c-154 0 -256 108 -256 251c0 144 102 252 256 252c96 0 174 -42 217 -111c39 20 38 65 38 117v64zM300 94c79 0 142 61 142 149c0 90 -62 151 -142 151
c-85 0 -142 -66 -142 -151c0 -83 58 -149 142 -149z" />
    <glyph glyph-name="uni1EDB" unicode="&#x1edb;" horiz-adv-x="681" 
d="M478 701l-124 -145h-114l115 144zM555 565h114v-71c0 -94 -41 -162 -121 -184c5 -21 8 -43 8 -67c0 -148 -106 -251 -256 -251c-154 0 -256 108 -256 251c0 144 102 252 256 252c96 0 174 -42 217 -111c39 20 38 65 38 117v64zM300 94c79 0 142 61 142 149
c0 90 -62 151 -142 151c-85 0 -142 -66 -142 -151c0 -83 58 -149 142 -149z" />
    <glyph glyph-name="uni1EE3" unicode="&#x1ee3;" horiz-adv-x="681" 
d="M555 565h114v-71c0 -94 -41 -162 -121 -184c5 -21 8 -43 8 -67c0 -148 -106 -251 -256 -251c-154 0 -256 108 -256 251c0 144 102 252 256 252c96 0 174 -42 217 -111c39 20 38 65 38 117v64zM300 94c79 0 142 61 142 149c0 90 -62 151 -142 151
c-85 0 -142 -66 -142 -151c0 -83 58 -149 142 -149zM300 -78c42 0 75 -34 75 -75c0 -40 -33 -74 -75 -74s-76 34 -76 74c0 41 34 75 76 75z" />
    <glyph glyph-name="uni1EDD" unicode="&#x1edd;" horiz-adv-x="681" 
d="M372 554h-111l-124 144l125 -1zM555 565h114v-71c0 -94 -41 -162 -121 -184c5 -21 8 -43 8 -67c0 -148 -106 -251 -256 -251c-154 0 -256 108 -256 251c0 144 102 252 256 252c96 0 174 -42 217 -111c39 20 38 65 38 117v64zM300 94c79 0 142 61 142 149
c0 90 -62 151 -142 151c-85 0 -142 -66 -142 -151c0 -83 58 -149 142 -149z" />
    <glyph glyph-name="uni1EDF" unicode="&#x1edf;" horiz-adv-x="681" 
d="M301 661c-28 0 -50 -8 -88 -34l-26 58c22 23 70 53 141 53c54 0 94 -25 94 -82c0 -50 -48 -89 -80 -102h-82c46 33 71 64 70 86c0 13 -11 21 -29 21zM555 565h114v-71c0 -94 -41 -162 -121 -184c5 -21 8 -43 8 -67c0 -148 -106 -251 -256 -251c-154 0 -256 108 -256 251
c0 144 102 252 256 252c96 0 174 -42 217 -111c39 20 38 65 38 117v64zM300 94c79 0 142 61 142 149c0 90 -62 151 -142 151c-85 0 -142 -66 -142 -151c0 -83 58 -149 142 -149z" />
    <glyph glyph-name="uni1EE1" unicode="&#x1ee1;" horiz-adv-x="681" 
d="M235 607c-26 0 -45 -20 -58 -52l-68 31c20 65 58 110 114 110c39 0 62 -14 84 -28c19 -12 37 -25 58 -25c24 0 44 20 57 52l68 -23c-20 -73 -60 -119 -111 -119c-36 0 -64 17 -88 32c-19 12 -37 22 -56 22zM555 565h114v-71c0 -94 -41 -162 -121 -184c5 -21 8 -43 8 -67
c0 -148 -106 -251 -256 -251c-154 0 -256 108 -256 251c0 144 102 252 256 252c96 0 174 -42 217 -111c39 20 38 65 38 117v64zM300 94c79 0 142 61 142 149c0 90 -62 151 -142 151c-85 0 -142 -66 -142 -151c0 -83 58 -149 142 -149z" />
    <glyph glyph-name="ohungarumlaut" unicode="&#x151;" horiz-adv-x="600" 
d="M152 556l115 144l114 1l-124 -145h-105zM343 556l114 144l114 1l-124 -145h-104zM300 -8c-154 0 -256 108 -256 251c0 144 102 252 256 252c150 0 256 -102 256 -252c0 -148 -106 -251 -256 -251zM300 94c79 0 142 61 142 149c0 90 -62 151 -142 151
c-85 0 -142 -66 -142 -151c0 -83 58 -149 142 -149z" />
    <glyph glyph-name="omacron" unicode="&#x14d;" horiz-adv-x="600" 
d="M151 584v94h298v-94h-298zM300 -8c-154 0 -256 108 -256 251c0 144 102 252 256 252c150 0 256 -102 256 -252c0 -148 -106 -251 -256 -251zM300 94c79 0 142 61 142 149c0 90 -62 151 -142 151c-85 0 -142 -66 -142 -151c0 -83 58 -149 142 -149z" />
    <glyph glyph-name="uni01EB" unicode="&#x1eb;" horiz-adv-x="600" 
d="M338 -6c-38 -14 -60 -42 -60 -69c0 -25 15 -41 43 -41c25 0 30 3 41 8l7 -68c-19 -8 -45 -12 -72 -12c-66 0 -108 35 -108 88c0 30 20 67 57 95v2c-123 22 -202 121 -202 246c0 144 102 252 256 252c150 0 256 -102 256 -252c0 -135 -88 -233 -218 -249zM158 243
c0 -83 58 -149 142 -149c79 0 142 61 142 149c0 90 -62 151 -142 151c-85 0 -142 -66 -142 -151z" />
    <glyph glyph-name="oslash" unicode="&#xf8;" horiz-adv-x="600" 
d="M569 459l-59 -63c29 -42 46 -93 46 -153c0 -148 -106 -251 -256 -251c-51 0 -97 12 -135 34l-51 -55l-60 56l47 51c-36 43 -57 101 -57 165c0 144 102 252 256 252c58 0 110 -15 151 -43l59 63zM158 243c0 -30 8 -58 22 -82l197 211c-22 14 -49 22 -77 22
c-85 0 -142 -66 -142 -151zM442 243c0 24 -5 47 -13 66l-189 -202c18 -9 38 -13 60 -13c79 0 142 61 142 149z" />
    <glyph glyph-name="oslashacute" unicode="&#x1ff;" horiz-adv-x="600" 
d="M478 701l-124 -145h-114l115 144zM569 459l-59 -63c29 -42 46 -93 46 -153c0 -148 -106 -251 -256 -251c-51 0 -97 12 -135 34l-51 -55l-60 56l47 51c-36 43 -57 101 -57 165c0 144 102 252 256 252c58 0 110 -15 151 -43l59 63zM158 243c0 -30 8 -58 22 -82l197 211
c-22 14 -49 22 -77 22c-85 0 -142 -66 -142 -151zM442 243c0 24 -5 47 -13 66l-189 -202c18 -9 38 -13 60 -13c79 0 142 61 142 149z" />
    <glyph glyph-name="otilde" unicode="&#xf5;" horiz-adv-x="600" 
d="M379 553c-36 0 -64 17 -88 32c-19 12 -37 22 -56 22c-26 0 -45 -20 -58 -52l-68 31c20 65 58 110 114 110c39 0 62 -14 84 -28c19 -12 37 -25 58 -25c24 0 44 20 57 52l68 -23c-20 -73 -60 -119 -111 -119zM300 -8c-154 0 -256 108 -256 251c0 144 102 252 256 252
c150 0 256 -102 256 -252c0 -148 -106 -251 -256 -251zM300 94c79 0 142 61 142 149c0 90 -62 151 -142 151c-85 0 -142 -66 -142 -151c0 -83 58 -149 142 -149z" />
    <glyph glyph-name="oe" unicode="&#x153;" horiz-adv-x="810" 
d="M782 250c0 -18 -2 -35 -3 -42h-311c10 -68 49 -114 121 -114c46 0 82 26 103 57l78 -67c-38 -53 -98 -92 -187 -92c-81 0 -140 30 -178 81h-2c-31 -51 -96 -81 -156 -81c-134 0 -217 97 -217 250c0 147 86 253 217 253c79 0 127 -36 156 -81h2c38 51 95 81 176 81
c123 0 201 -103 201 -245zM245 93c57 0 106 62 106 150c0 90 -43 151 -100 151c-62 0 -107 -63 -107 -151c0 -91 39 -150 101 -150zM469 293h202c-8 61 -39 101 -93 101c-63 0 -98 -38 -109 -101z" />
    <glyph glyph-name="p" unicode="p" horiz-adv-x="621" 
d="M73 -198v686h112v-58h2c36 42 90 65 154 65c135 0 236 -106 236 -253c0 -151 -101 -250 -237 -250c-66 0 -117 24 -153 68l-2 -1v-257h-112zM323 94c82 0 140 61 140 147c0 94 -63 153 -141 153c-84 0 -142 -66 -142 -153c0 -88 63 -147 143 -147z" />
    <glyph glyph-name="thorn" unicode="&#xfe;" horiz-adv-x="621" 
d="M73 -198v934h112v-305h2c37 42 90 64 154 64c135 0 236 -106 236 -253c0 -151 -101 -250 -237 -250c-66 0 -118 24 -153 67l-2 -1v-256h-112zM323 94c82 0 140 61 140 147c0 94 -63 153 -141 153c-84 0 -142 -66 -142 -153c0 -88 63 -147 143 -147z" />
    <glyph glyph-name="q" unicode="q" horiz-adv-x="616" 
d="M436 -198v258h-1c-36 -44 -88 -68 -155 -68c-135 0 -236 99 -236 250c0 147 101 253 235 253c65 0 119 -23 156 -67h1v60h112v-686h-112zM298 94c79 0 142 59 142 147c0 87 -58 153 -142 153c-78 0 -140 -59 -140 -153c0 -86 57 -147 140 -147z" />
    <glyph glyph-name="r" unicode="r" horiz-adv-x="372" 
d="M73 0v488h112v-73h2c38 51 92 80 151 80h14v-125c-13 1 -26 2 -34 2c-85 0 -133 -61 -133 -141v-231h-112z" />
    <glyph glyph-name="racute" unicode="&#x155;" horiz-adv-x="372" 
d="M122 556l115 144l123 1l-124 -145h-114zM73 0v488h112v-73h2c38 51 92 80 151 80h14v-125c-13 1 -26 2 -34 2c-85 0 -133 -61 -133 -141v-231h-112z" />
    <glyph glyph-name="rcaron" unicode="&#x159;" horiz-adv-x="372" 
d="M161 552l-105 145h109l54 -77h2l55 77h111l-109 -145h-117zM73 0v488h112v-73h2c38 51 92 80 151 80h14v-125c-13 1 -26 2 -34 2c-85 0 -133 -61 -133 -141v-231h-112z" />
    <glyph glyph-name="rcommaaccent" unicode="&#x157;" horiz-adv-x="372" 
d="M73 0v488h112v-73h2c38 51 92 80 151 80h14v-125c-13 1 -26 2 -34 2c-85 0 -133 -61 -133 -141v-231h-112zM54 -219l-26 65c40 14 55 30 55 62c0 15 -2 22 -6 39h102c3 -15 4 -28 4 -47c0 -76 -61 -112 -129 -119z" />
    <glyph glyph-name="uni1E5B" unicode="&#x1e5b;" horiz-adv-x="372" 
d="M73 0v488h112v-73h2c38 51 92 80 151 80h14v-125c-13 1 -26 2 -34 2c-85 0 -133 -61 -133 -141v-231h-112zM132 -78c42 0 75 -34 75 -75c0 -40 -33 -74 -75 -74s-76 34 -76 74c0 41 34 75 76 75z" />
    <glyph glyph-name="uni1E5D" unicode="&#x1e5d;" horiz-adv-x="372" 
d="M73 584v94h298v-94h-298zM73 0v488h112v-73h2c38 51 92 80 151 80h14v-125c-13 1 -26 2 -34 2c-85 0 -133 -61 -133 -141v-231h-112zM132 -78c42 0 75 -34 75 -75c0 -40 -33 -74 -75 -74s-76 34 -76 74c0 41 34 75 76 75z" />
    <glyph glyph-name="uni1E5F" unicode="&#x1e5f;" horiz-adv-x="372" 
d="M73 0v488h112v-73h2c38 51 92 80 151 80h14v-125c-13 1 -26 2 -34 2c-85 0 -133 -61 -133 -141v-231h-112zM281 -207h-298v94h298v-94z" />
    <glyph glyph-name="s" unicode="s" horiz-adv-x="449" 
d="M229 -8c-79 0 -146 26 -197 71l56 84c39 -38 81 -57 141 -57c43 0 68 19 68 48c0 25 -32 37 -96 59c-80 28 -149 64 -149 160c0 80 72 138 172 138c62 0 118 -17 172 -61l-56 -88c-39 37 -84 52 -122 52c-22 0 -53 -12 -53 -42c0 -24 30 -41 77 -59
c104 -41 169 -60 169 -157c0 -82 -58 -148 -182 -148z" />
    <glyph glyph-name="sacute" unicode="&#x15b;" horiz-adv-x="449" 
d="M154 556l115 144l123 1l-124 -145h-114zM229 -8c-79 0 -146 26 -197 71l56 84c39 -38 81 -57 141 -57c43 0 68 19 68 48c0 25 -32 37 -96 59c-80 28 -149 64 -149 160c0 80 72 138 172 138c62 0 118 -17 172 -61l-56 -88c-39 37 -84 52 -122 52c-22 0 -53 -12 -53 -42
c0 -24 30 -41 77 -59c104 -41 169 -60 169 -157c0 -82 -58 -148 -182 -148z" />
    <glyph glyph-name="scaron" unicode="&#x161;" horiz-adv-x="449" 
d="M170 552l-105 145h109l54 -77h2l55 77h111l-109 -145h-117zM229 -8c-79 0 -146 26 -197 71l56 84c39 -38 81 -57 141 -57c43 0 68 19 68 48c0 25 -32 37 -96 59c-80 28 -149 64 -149 160c0 80 72 138 172 138c62 0 118 -17 172 -61l-56 -88c-39 37 -84 52 -122 52
c-22 0 -53 -12 -53 -42c0 -24 30 -41 77 -59c104 -41 169 -60 169 -157c0 -82 -58 -148 -182 -148z" />
    <glyph glyph-name="scedilla" unicode="&#x15f;" horiz-adv-x="449" 
d="M230 -8l-10 -22v-2c61 -2 92 -31 92 -80c0 -44 -35 -78 -119 -78c-27 0 -44 3 -59 6v55c12 -4 27 -7 50 -7c24 0 51 9 51 30c0 18 -29 34 -84 34v36l15 34c-52 10 -97 32 -134 65l56 84c39 -38 81 -57 141 -57c43 0 68 19 68 48c0 25 -32 37 -96 59
c-80 28 -149 64 -149 160c0 80 72 138 172 138c62 0 118 -17 172 -61l-56 -88c-39 37 -84 52 -122 52c-22 0 -53 -12 -53 -42c0 -24 30 -41 77 -59c104 -41 169 -60 169 -157c0 -82 -58 -148 -181 -148z" />
    <glyph glyph-name="scircumflex" unicode="&#x15d;" horiz-adv-x="449" 
d="M65 554l109 145h117l105 -145h-109l-54 77h-2l-55 -77h-111zM229 -8c-79 0 -146 26 -197 71l56 84c39 -38 81 -57 141 -57c43 0 68 19 68 48c0 25 -32 37 -96 59c-80 28 -149 64 -149 160c0 80 72 138 172 138c62 0 118 -17 172 -61l-56 -88c-39 37 -84 52 -122 52
c-22 0 -53 -12 -53 -42c0 -24 30 -41 77 -59c104 -41 169 -60 169 -157c0 -82 -58 -148 -182 -148z" />
    <glyph glyph-name="scommaaccent" unicode="&#x219;" horiz-adv-x="449" 
d="M229 -8c-79 0 -146 26 -197 71l56 84c39 -38 81 -57 141 -57c43 0 68 19 68 48c0 25 -32 37 -96 59c-80 28 -149 64 -149 160c0 80 72 138 172 138c62 0 118 -17 172 -61l-56 -88c-39 37 -84 52 -122 52c-22 0 -53 -12 -53 -42c0 -24 30 -41 77 -59
c104 -41 169 -60 169 -157c0 -82 -58 -148 -182 -148zM149 -219l-26 65c40 14 55 30 55 62c0 15 -2 22 -6 39h102c3 -15 4 -28 4 -47c0 -76 -61 -112 -129 -119z" />
    <glyph glyph-name="uni1E61" unicode="&#x1e61;" horiz-adv-x="449" 
d="M231 560c-42 0 -75 34 -75 75c0 40 33 74 75 74s76 -34 76 -74c0 -41 -34 -75 -76 -75zM229 -8c-79 0 -146 26 -197 71l56 84c39 -38 81 -57 141 -57c43 0 68 19 68 48c0 25 -32 37 -96 59c-80 28 -149 64 -149 160c0 80 72 138 172 138c62 0 118 -17 172 -61l-56 -88
c-39 37 -84 52 -122 52c-22 0 -53 -12 -53 -42c0 -24 30 -41 77 -59c104 -41 169 -60 169 -157c0 -82 -58 -148 -182 -148z" />
    <glyph glyph-name="uni1E63" unicode="&#x1e63;" horiz-adv-x="449" 
d="M229 -8c-79 0 -146 26 -197 71l56 84c39 -38 81 -57 141 -57c43 0 68 19 68 48c0 25 -32 37 -96 59c-80 28 -149 64 -149 160c0 80 72 138 172 138c62 0 118 -17 172 -61l-56 -88c-39 37 -84 52 -122 52c-22 0 -53 -12 -53 -42c0 -24 30 -41 77 -59
c104 -41 169 -60 169 -157c0 -82 -58 -148 -182 -148zM227 -78c42 0 75 -34 75 -75c0 -40 -33 -74 -75 -74s-76 34 -76 74c0 41 34 75 76 75z" />
    <glyph glyph-name="germandbls" unicode="&#xdf;" horiz-adv-x="639" 
d="M277 -8v101h76c77 0 136 54 136 130c0 73 -55 138 -149 138h-47v96h42c101 1 114 71 114 95c0 45 -37 91 -119 91c-93 0 -144 -41 -144 -154v-489h-112v486c0 176 91 258 252 258c152 0 233 -81 233 -181c0 -44 -17 -102 -80 -137v-2c78 -36 124 -115 124 -203
c0 -140 -91 -229 -223 -229h-103z" />
    <glyph glyph-name="longs" unicode="&#x17f;" horiz-adv-x="337" 
d="M91 0v393h-54v95h54v89c0 109 52 167 148 167c54 0 96 -17 122 -34l-25 -94c-32 15 -60 25 -81 25c-34 0 -52 -23 -52 -76v-565h-112z" />
    <glyph glyph-name="t" unicode="t" horiz-adv-x="365" 
d="M218 -8c-84 0 -136 53 -136 162v239h-60v95h60v162l112 12v-174h143v-95h-143v-228c0 -50 15 -68 47 -68c19 0 46 7 72 21l29 -97c-29 -16 -60 -29 -124 -29z" />
    <glyph glyph-name="tbar" unicode="&#x167;" horiz-adv-x="365" 
d="M313 118l29 -97c-29 -16 -60 -29 -124 -29c-84 0 -136 53 -136 162v73h-54v76h54v90h-60v95h60v162l112 12v-174h143v-95h-143v-90h116v-76h-116v-62c0 -50 15 -68 47 -68c19 0 46 7 72 21z" />
    <glyph glyph-name="tcaron" unicode="&#x165;" horiz-adv-x="364" 
d="M255 583l30 198h108l-58 -198h-80zM218 -8c-84 0 -136 53 -136 162v239h-60v95h60v162l112 12v-174h143v-95h-143v-228c0 -50 15 -68 47 -68c19 0 46 7 72 21l29 -97c-29 -16 -60 -29 -124 -29z" />
    <glyph glyph-name="uni0163" unicode="&#x163;" horiz-adv-x="365" 
d="M208 -32c61 -2 92 -31 92 -80c0 -44 -35 -78 -119 -78c-27 0 -44 3 -59 6v55c12 -4 27 -7 50 -7c24 0 51 9 51 30c0 18 -29 34 -84 34v36l18 40c-47 21 -75 71 -75 150v239h-60v95h60v162l112 12v-174h143v-95h-143v-228c0 -50 15 -68 47 -68c19 0 46 7 72 21l29 -97
c-29 -16 -60 -29 -124 -29l-10 -22v-2z" />
    <glyph glyph-name="uni021B" unicode="&#x21b;" horiz-adv-x="365" 
d="M218 -8c-84 0 -136 53 -136 162v239h-60v95h60v162l112 12v-174h143v-95h-143v-228c0 -50 15 -68 47 -68c19 0 46 7 72 21l29 -97c-29 -16 -60 -29 -124 -29zM137 -219l-26 65c40 14 55 30 55 62c0 15 -2 22 -6 39h102c3 -15 4 -28 4 -47c0 -76 -61 -112 -129 -119z" />
    <glyph glyph-name="uni1E97" unicode="&#x1e97;" horiz-adv-x="365" 
d="M81 710c-41 0 -74 34 -74 74c0 39 33 72 74 72s75 -34 75 -73c0 -40 -34 -73 -75 -73zM280 710c-41 0 -74 34 -74 74c0 39 33 72 74 72s75 -34 75 -73c0 -40 -34 -73 -75 -73zM218 -8c-84 0 -136 53 -136 162v239h-60v95h60v162l112 12v-174h143v-95h-143v-228
c0 -50 15 -68 47 -68c19 0 46 7 72 21l29 -97c-29 -16 -60 -29 -124 -29z" />
    <glyph glyph-name="uni1E6D" unicode="&#x1e6d;" horiz-adv-x="365" 
d="M218 -8c-84 0 -136 53 -136 162v239h-60v95h60v162l112 12v-174h143v-95h-143v-228c0 -50 15 -68 47 -68c19 0 46 7 72 21l29 -97c-29 -16 -60 -29 -124 -29zM215 -78c42 0 75 -34 75 -75c0 -40 -33 -74 -75 -74s-76 34 -76 74c0 41 34 75 76 75z" />
    <glyph glyph-name="uni1E6F" unicode="&#x1e6f;" horiz-adv-x="365" 
d="M218 -8c-84 0 -136 53 -136 162v239h-60v95h60v162l112 12v-174h143v-95h-143v-228c0 -50 15 -68 47 -68c19 0 46 7 72 21l29 -97c-29 -16 -60 -29 -124 -29zM364 -207h-298v94h298v-94z" />
    <glyph glyph-name="u" unicode="u" horiz-adv-x="578" 
d="M246 -8c-108 0 -183 54 -183 199v297h112v-267c0 -97 30 -127 97 -127c65 0 125 55 125 160v234h112v-488h-112v61l-2 1c-39 -47 -93 -70 -149 -70z" />
    <glyph glyph-name="uacute" unicode="&#xfa;" horiz-adv-x="578" 
d="M229 556l115 144l123 1l-124 -145h-114zM246 -8c-108 0 -183 54 -183 199v297h112v-267c0 -97 30 -127 97 -127c65 0 125 55 125 160v234h112v-488h-112v61l-2 1c-39 -47 -93 -70 -149 -70z" />
    <glyph glyph-name="ubreve" unicode="&#x16d;" horiz-adv-x="578" 
d="M287 548c-96 0 -149 57 -156 149h88c2 -33 26 -63 68 -63s66 30 68 63h88c-7 -92 -60 -149 -156 -149zM246 -8c-108 0 -183 54 -183 199v297h112v-267c0 -97 30 -127 97 -127c65 0 125 55 125 160v234h112v-488h-112v61l-2 1c-39 -47 -93 -70 -149 -70z" />
    <glyph glyph-name="ucircumflex" unicode="&#xfb;" horiz-adv-x="578" 
d="M121 554l109 145h117l105 -145h-109l-54 77h-2l-55 -77h-111zM246 -8c-108 0 -183 54 -183 199v297h112v-267c0 -97 30 -127 97 -127c65 0 125 55 125 160v234h112v-488h-112v61l-2 1c-39 -47 -93 -70 -149 -70z" />
    <glyph glyph-name="udieresis" unicode="&#xfc;" horiz-adv-x="578" 
d="M187 562c-41 0 -74 34 -74 74c0 39 33 72 74 72s75 -34 75 -73c0 -40 -34 -73 -75 -73zM386 562c-41 0 -74 34 -74 74c0 39 33 72 74 72s75 -34 75 -73c0 -40 -34 -73 -75 -73zM246 -8c-108 0 -183 54 -183 199v297h112v-267c0 -97 30 -127 97 -127c65 0 125 55 125 160
v234h112v-488h-112v61l-2 1c-39 -47 -93 -70 -149 -70z" />
    <glyph glyph-name="uni1EE5" unicode="&#x1ee5;" horiz-adv-x="578" 
d="M246 -8c-108 0 -183 54 -183 199v297h112v-267c0 -97 30 -127 97 -127c65 0 125 55 125 160v234h112v-488h-112v61l-2 1c-39 -47 -93 -70 -149 -70zM292 -78c42 0 75 -34 75 -75c0 -40 -33 -74 -75 -74s-76 34 -76 74c0 41 34 75 76 75z" />
    <glyph glyph-name="ugrave" unicode="&#xf9;" horiz-adv-x="578" 
d="M253 554l-124 144l125 -1l110 -143h-111zM246 -8c-108 0 -183 54 -183 199v297h112v-267c0 -97 30 -127 97 -127c65 0 125 55 125 160v234h112v-488h-112v61l-2 1c-39 -47 -93 -70 -149 -70z" />
    <glyph glyph-name="uni1EE7" unicode="&#x1ee7;" horiz-adv-x="578" 
d="M247 554c46 33 71 64 70 86c0 13 -11 21 -29 21c-28 0 -50 -8 -88 -34l-26 58c22 23 70 53 141 53c54 0 94 -25 94 -82c0 -50 -48 -89 -80 -102h-82zM246 -8c-108 0 -183 54 -183 199v297h112v-267c0 -97 30 -127 97 -127c65 0 125 55 125 160v234h112v-488h-112v61l-2 1
c-39 -47 -93 -70 -149 -70z" />
    <glyph glyph-name="uhorn" unicode="&#x1b0;" horiz-adv-x="687" 
d="M562 565h114v-71c0 -111 -57 -185 -167 -191v-303h-112v61l-2 1c-39 -47 -93 -70 -149 -70c-108 0 -183 54 -183 199v297h112v-267c0 -97 30 -127 97 -127c65 0 125 55 125 160v234h112v-110c55 16 53 64 53 123v64z" />
    <glyph glyph-name="uni1EE9" unicode="&#x1ee9;" horiz-adv-x="687" 
d="M467 701l-124 -145h-114l115 144zM562 565h114v-71c0 -111 -57 -185 -167 -191v-303h-112v61l-2 1c-39 -47 -93 -70 -149 -70c-108 0 -183 54 -183 199v297h112v-267c0 -97 30 -127 97 -127c65 0 125 55 125 160v234h112v-110c55 16 53 64 53 123v64z" />
    <glyph glyph-name="uni1EF1" unicode="&#x1ef1;" horiz-adv-x="687" 
d="M562 565h114v-71c0 -111 -57 -185 -167 -191v-303h-112v61l-2 1c-39 -47 -93 -70 -149 -70c-108 0 -183 54 -183 199v297h112v-267c0 -97 30 -127 97 -127c65 0 125 55 125 160v234h112v-110c55 16 53 64 53 123v64zM292 -78c42 0 75 -34 75 -75c0 -40 -33 -74 -75 -74
s-76 34 -76 74c0 41 34 75 76 75z" />
    <glyph glyph-name="uni1EEB" unicode="&#x1eeb;" horiz-adv-x="687" 
d="M364 554h-111l-124 144l125 -1zM562 565h114v-71c0 -111 -57 -185 -167 -191v-303h-112v61l-2 1c-39 -47 -93 -70 -149 -70c-108 0 -183 54 -183 199v297h112v-267c0 -97 30 -127 97 -127c65 0 125 55 125 160v234h112v-110c55 16 53 64 53 123v64z" />
    <glyph glyph-name="uni1EED" unicode="&#x1eed;" horiz-adv-x="687" 
d="M288 661c-28 0 -50 -8 -88 -34l-26 58c22 23 70 53 141 53c54 0 94 -25 94 -82c0 -50 -48 -89 -80 -102h-82c46 33 71 64 70 86c0 13 -11 21 -29 21zM562 565h114v-71c0 -111 -57 -185 -167 -191v-303h-112v61l-2 1c-39 -47 -93 -70 -149 -70c-108 0 -183 54 -183 199
v297h112v-267c0 -97 30 -127 97 -127c65 0 125 55 125 160v234h112v-110c55 16 53 64 53 123v64z" />
    <glyph glyph-name="uni1EEF" unicode="&#x1eef;" horiz-adv-x="687" 
d="M222 607c-26 0 -45 -20 -58 -52l-68 31c20 65 58 110 114 110c39 0 62 -14 84 -28c19 -12 37 -25 58 -25c24 0 44 20 57 52l68 -23c-20 -73 -60 -119 -111 -119c-36 0 -64 17 -88 32c-19 12 -37 22 -56 22zM562 565h114v-71c0 -111 -57 -185 -167 -191v-303h-112v61l-2 1
c-39 -47 -93 -70 -149 -70c-108 0 -183 54 -183 199v297h112v-267c0 -97 30 -127 97 -127c65 0 125 55 125 160v234h112v-110c55 16 53 64 53 123v64z" />
    <glyph glyph-name="uhungarumlaut" unicode="&#x171;" horiz-adv-x="578" 
d="M139 556l115 144l114 1l-124 -145h-105zM330 556l114 144l114 1l-124 -145h-104zM246 -8c-108 0 -183 54 -183 199v297h112v-267c0 -97 30 -127 97 -127c65 0 125 55 125 160v234h112v-488h-112v61l-2 1c-39 -47 -93 -70 -149 -70z" />
    <glyph glyph-name="umacron" unicode="&#x16b;" horiz-adv-x="578" 
d="M138 584v94h298v-94h-298zM246 -8c-108 0 -183 54 -183 199v297h112v-267c0 -97 30 -127 97 -127c65 0 125 55 125 160v234h112v-488h-112v61l-2 1c-39 -47 -93 -70 -149 -70z" />
    <glyph glyph-name="uni01D4" unicode="&#x1d4;" horiz-adv-x="578" 
d="M226 552l-105 145h109l54 -77h2l55 77h111l-109 -145h-117zM246 -8c-108 0 -183 54 -183 199v297h112v-267c0 -97 30 -127 97 -127c65 0 125 55 125 160v234h112v-488h-112v61l-2 1c-39 -47 -93 -70 -149 -70z" />
    <glyph glyph-name="uni01D6" unicode="&#x1d6;" horiz-adv-x="578" 
d="M137 757v85h298v-85h-298zM188 565c-42 0 -75 31 -75 71c0 39 33 71 75 71s76 -32 76 -71c0 -40 -34 -71 -76 -71zM386 565c-42 0 -75 31 -75 71c0 39 33 71 75 71s76 -32 76 -71c0 -40 -34 -71 -76 -71zM246 -8c-108 0 -183 54 -183 199v297h112v-267
c0 -97 30 -127 97 -127c65 0 125 55 125 160v234h112v-488h-112v61l-2 1c-39 -47 -93 -70 -149 -70z" />
    <glyph glyph-name="uni01D8" unicode="&#x1d8;" horiz-adv-x="578" 
d="M241 728l115 145h123l-153 -145h-85zM188 565c-42 0 -75 31 -75 71c0 39 33 71 75 71s76 -32 76 -71c0 -40 -34 -71 -76 -71zM386 565c-42 0 -75 31 -75 71c0 39 33 71 75 71s76 -32 76 -71c0 -40 -34 -71 -76 -71zM246 -8c-108 0 -183 54 -183 199v297h112v-267
c0 -97 30 -127 97 -127c65 0 125 55 125 160v234h112v-488h-112v61l-2 1c-39 -47 -93 -70 -149 -70z" />
    <glyph glyph-name="uni01DA" unicode="&#x1da;" horiz-adv-x="578" 
d="M227 730l-105 145h109l54 -77h2l55 77h111l-109 -145h-117zM188 565c-42 0 -75 31 -75 71c0 39 33 71 75 71s76 -32 76 -71c0 -40 -34 -71 -76 -71zM386 565c-42 0 -75 31 -75 71c0 39 33 71 75 71s76 -32 76 -71c0 -40 -34 -71 -76 -71zM246 -8c-108 0 -183 54 -183 199
v297h112v-267c0 -97 30 -127 97 -127c65 0 125 55 125 160v234h112v-488h-112v61l-2 1c-39 -47 -93 -70 -149 -70z" />
    <glyph glyph-name="uni01DC" unicode="&#x1dc;" horiz-adv-x="578" 
d="M335 728h-85l-153 145h123zM188 565c-42 0 -75 31 -75 71c0 39 33 71 75 71s76 -32 76 -71c0 -40 -34 -71 -76 -71zM386 565c-42 0 -75 31 -75 71c0 39 33 71 75 71s76 -32 76 -71c0 -40 -34 -71 -76 -71zM246 -8c-108 0 -183 54 -183 199v297h112v-267
c0 -97 30 -127 97 -127c65 0 125 55 125 160v234h112v-488h-112v61l-2 1c-39 -47 -93 -70 -149 -70z" />
    <glyph glyph-name="uni0251" unicode="&#x251;" horiz-adv-x="611" 
d="M279 -8c-135 0 -236 99 -236 250c0 147 101 253 235 253c62 0 116 -23 151 -67l2 1v59h112v-488h-107v64l-2 1c-35 -47 -87 -73 -155 -73zM297 94c76 0 139 59 139 147c0 87 -59 153 -139 153c-78 0 -140 -59 -140 -153c0 -86 57 -147 140 -147z" />
    <glyph glyph-name="uni0261" unicode="&#x261;" horiz-adv-x="607" 
d="M291 -205c-73 0 -144 18 -199 51l27 98c53 -28 96 -48 166 -48c96 0 145 55 145 120v51h-2c-37 -37 -88 -59 -148 -59c-136 0 -238 96 -238 241c0 143 97 246 232 246c56 0 111 -20 152 -59h2v52h112v-438c0 -148 -68 -255 -249 -255zM295 111c81 0 138 60 138 143
s-60 139 -138 139c-83 0 -139 -58 -139 -141c0 -87 60 -141 139 -141z" />
    <glyph glyph-name="uni1E31" unicode="&#x1e31;" horiz-adv-x="535" 
d="M73 0v736h112v-473l2 -1l198 226h133l-176 -196l179 -292h-126l-131 215l-79 -86v-129h-112zM246 556l115 144l123 1l-124 -145h-114z" />
    <glyph glyph-name="uogonek" unicode="&#x173;" horiz-adv-x="578" 
d="M497 0c-49 -11 -79 -44 -79 -75c0 -25 15 -41 43 -41c25 0 30 3 41 8l7 -68c-19 -8 -45 -12 -72 -12c-66 0 -108 35 -108 88c0 32 24 73 68 102v59l-2 1c-39 -47 -93 -70 -149 -70c-108 0 -183 54 -183 199v297h112v-267c0 -97 30 -127 97 -127c65 0 125 55 125 160v234
h112v-488h-12z" />
    <glyph glyph-name="uring" unicode="&#x16f;" horiz-adv-x="578" 
d="M286 540c-58 0 -108 45 -108 105c0 57 45 105 108 105c60 0 109 -45 109 -105c0 -57 -45 -105 -109 -105zM286 608c22 0 39 17 39 38s-17 38 -39 38c-21 0 -38 -18 -38 -38c0 -22 17 -38 38 -38zM246 -8c-108 0 -183 54 -183 199v297h112v-267c0 -97 30 -127 97 -127
c65 0 125 55 125 160v234h112v-488h-112v61l-2 1c-39 -47 -93 -70 -149 -70z" />
    <glyph glyph-name="utilde" unicode="&#x169;" horiz-adv-x="578" 
d="M366 553c-36 0 -64 17 -88 32c-19 12 -37 22 -56 22c-26 0 -45 -20 -58 -52l-68 31c20 65 58 110 114 110c39 0 62 -14 84 -28c19 -12 37 -25 58 -25c24 0 44 20 57 52l68 -23c-20 -73 -60 -119 -111 -119zM246 -8c-108 0 -183 54 -183 199v297h112v-267
c0 -97 30 -127 97 -127c65 0 125 55 125 160v234h112v-488h-112v61l-2 1c-39 -47 -93 -70 -149 -70z" />
    <glyph glyph-name="v" unicode="v" horiz-adv-x="534" 
d="M213 0l-193 488h120l127 -348h1l127 348h119l-194 -488h-107z" />
    <glyph glyph-name="w" unicode="w" horiz-adv-x="771" 
d="M189 0l-166 488h115l103 -324h2l96 324h93l98 -324h2l103 324h113l-166 -488h-103l-94 307h-1l-94 -307h-101z" />
    <glyph glyph-name="wacute" unicode="&#x1e83;" horiz-adv-x="771" 
d="M330 556l115 144l123 1l-124 -145h-114zM189 0l-166 488h115l103 -324h2l96 324h93l98 -324h2l103 324h113l-166 -488h-103l-94 307h-1l-94 -307h-101z" />
    <glyph glyph-name="wcircumflex" unicode="&#x175;" horiz-adv-x="771" 
d="M219 554l109 145h117l105 -145h-109l-54 77h-2l-55 -77h-111zM189 0l-166 488h115l103 -324h2l96 324h93l98 -324h2l103 324h113l-166 -488h-103l-94 307h-1l-94 -307h-101z" />
    <glyph glyph-name="wdieresis" unicode="&#x1e85;" horiz-adv-x="771" 
d="M285 562c-41 0 -74 34 -74 74c0 39 33 72 74 72s75 -34 75 -73c0 -40 -34 -73 -75 -73zM484 562c-41 0 -74 34 -74 74c0 39 33 72 74 72s75 -34 75 -73c0 -40 -34 -73 -75 -73zM189 0l-166 488h115l103 -324h2l96 324h93l98 -324h2l103 324h113l-166 -488h-103l-94 307
h-1l-94 -307h-101z" />
    <glyph glyph-name="wgrave" unicode="&#x1e81;" horiz-adv-x="771" 
d="M329 554l-124 144l125 -1l110 -143h-111zM189 0l-166 488h115l103 -324h2l96 324h93l98 -324h2l103 324h113l-166 -488h-103l-94 307h-1l-94 -307h-101z" />
    <glyph glyph-name="x" unicode="x" horiz-adv-x="527" 
d="M27 0l172 249l-171 239h130l103 -154h2l105 154h129l-170 -240l173 -248h-125l-111 154h-1l-112 -154h-124z" />
    <glyph glyph-name="y" unicode="y" horiz-adv-x="535" 
d="M131 -198l88 225l-200 461h120l134 -327h2l125 327h115l-268 -686h-116z" />
    <glyph glyph-name="yacute" unicode="&#xfd;" horiz-adv-x="535" 
d="M190 556l115 144l123 1l-124 -145h-114zM131 -198l88 225l-200 461h120l134 -327h2l125 327h115l-268 -686h-116z" />
    <glyph glyph-name="ycircumflex" unicode="&#x177;" horiz-adv-x="535" 
d="M102 554l109 145h117l105 -145h-109l-54 77h-2l-55 -77h-111zM131 -198l88 225l-200 461h120l134 -327h2l125 327h115l-268 -686h-116z" />
    <glyph glyph-name="ydieresis" unicode="&#xff;" horiz-adv-x="535" 
d="M168 562c-41 0 -74 34 -74 74c0 39 33 72 74 72s75 -34 75 -73c0 -40 -34 -73 -75 -73zM367 562c-41 0 -74 34 -74 74c0 39 33 72 74 72s75 -34 75 -73c0 -40 -34 -73 -75 -73zM131 -198l88 225l-200 461h120l134 -327h2l125 327h115l-268 -686h-116z" />
    <glyph glyph-name="uni1E8F" unicode="&#x1e8f;" horiz-adv-x="535" 
d="M268 560c-42 0 -75 34 -75 75c0 40 33 74 75 74s76 -34 76 -74c0 -41 -34 -75 -76 -75zM131 -198l88 225l-200 461h120l134 -327h2l125 327h115l-268 -686h-116z" />
    <glyph glyph-name="uni1EF5" unicode="&#x1ef5;" horiz-adv-x="535" 
d="M131 -198l88 225l-200 461h120l134 -327h2l125 327h115l-268 -686h-116zM403 -78c42 0 75 -34 75 -75c0 -40 -33 -74 -75 -74s-76 34 -76 74c0 41 34 75 76 75z" />
    <glyph glyph-name="ygrave" unicode="&#x1ef3;" horiz-adv-x="535" 
d="M228 554l-124 144l125 -1l110 -143h-111zM131 -198l88 225l-200 461h120l134 -327h2l125 327h115l-268 -686h-116z" />
    <glyph glyph-name="uni1EF7" unicode="&#x1ef7;" horiz-adv-x="535" 
d="M228 554c46 33 71 64 70 86c0 13 -11 21 -29 21c-28 0 -50 -8 -88 -34l-26 58c22 23 70 53 141 53c54 0 94 -25 94 -82c0 -50 -48 -89 -80 -102h-82zM131 -198l88 225l-200 461h120l134 -327h2l125 327h115l-268 -686h-116z" />
    <glyph glyph-name="uni0233" unicode="&#x233;" horiz-adv-x="535" 
d="M119 584v94h298v-94h-298zM131 -198l88 225l-200 461h120l134 -327h2l125 327h115l-268 -686h-116z" />
    <glyph glyph-name="uni1EF9" unicode="&#x1ef9;" horiz-adv-x="535" 
d="M347 553c-36 0 -64 17 -88 32c-19 12 -37 22 -56 22c-26 0 -45 -20 -58 -52l-68 31c20 65 58 110 114 110c39 0 62 -14 84 -28c19 -12 37 -25 58 -25c24 0 44 20 57 52l68 -23c-20 -73 -60 -119 -111 -119zM131 -198l88 225l-200 461h120l134 -327h2l125 327h115
l-268 -686h-116z" />
    <glyph glyph-name="z" unicode="z" horiz-adv-x="489" 
d="M40 0v79l251 311l-1 3h-233v95h388v-77l-253 -314l1 -2h248v-95h-401z" />
    <glyph glyph-name="zacute" unicode="&#x17a;" horiz-adv-x="489" 
d="M167 556l115 144l123 1l-124 -145h-114zM40 0v79l251 311l-1 3h-233v95h388v-77l-253 -314l1 -2h248v-95h-401z" />
    <glyph glyph-name="zcaron" unicode="&#x17e;" horiz-adv-x="489" 
d="M186 552l-105 145h109l54 -77h2l55 77h111l-109 -145h-117zM40 0v79l251 311l-1 3h-233v95h388v-77l-253 -314l1 -2h248v-95h-401z" />
    <glyph glyph-name="zdotaccent" unicode="&#x17c;" horiz-adv-x="489" 
d="M247 560c-42 0 -75 34 -75 75c0 40 33 74 75 74s76 -34 76 -74c0 -41 -34 -75 -76 -75zM40 0v79l251 311l-1 3h-233v95h388v-77l-253 -314l1 -2h248v-95h-401z" />
    <glyph glyph-name="uni1E93" unicode="&#x1e93;" horiz-adv-x="489" 
d="M40 0v79l251 311l-1 3h-233v95h388v-77l-253 -314l1 -2h248v-95h-401zM247 -78c42 0 75 -34 75 -75c0 -40 -33 -74 -75 -74s-76 34 -76 74c0 41 34 75 76 75z" />
    <glyph glyph-name="a.alt" horiz-adv-x="514" 
d="M252 495c146 0 204 -67 204 -205v-290h-104l-4 46l-2 1c-35 -33 -85 -55 -141 -55c-103 0 -166 66 -166 155c0 101 64 160 193 160h116c-2 64 -33 89 -106 89c-43 0 -91 -12 -129 -34l-41 91c52 25 129 42 180 42zM224 85c77 0 124 35 124 80v53h-117
c-60 0 -83 -26 -83 -67s26 -66 76 -66z" />
    <glyph glyph-name="aacute.alt" horiz-adv-x="514" 
d="M436 696l-124 -145h-114l115 144zM252 495c146 0 204 -67 204 -205v-290h-104l-4 46l-2 1c-35 -33 -85 -55 -141 -55c-103 0 -166 66 -166 155c0 101 64 160 193 160h116c-2 64 -33 89 -106 89c-43 0 -91 -12 -129 -34l-41 91c52 25 129 42 180 42zM224 85
c77 0 124 35 124 80v53h-117c-60 0 -83 -26 -83 -67s26 -66 76 -66z" />
    <glyph glyph-name="abreve.alt" horiz-adv-x="514" 
d="M263 548c-96 0 -149 57 -156 149h88c2 -33 26 -63 68 -63s66 30 68 63h88c-7 -92 -60 -149 -156 -149zM252 495c146 0 204 -67 204 -205v-290h-104l-4 46l-2 1c-35 -33 -85 -55 -141 -55c-103 0 -166 66 -166 155c0 101 64 160 193 160h116c-2 64 -33 89 -106 89
c-43 0 -91 -12 -129 -34l-41 91c52 25 129 42 180 42zM224 85c77 0 124 35 124 80v53h-117c-60 0 -83 -26 -83 -67s26 -66 76 -66z" />
    <glyph glyph-name="uni1EAF.alt" horiz-adv-x="514" 
d="M422 855l-123 -145h-83l83 145h123zM263 548c-96 0 -149 57 -156 149h88c2 -33 26 -63 68 -63s66 30 68 63h88c-7 -92 -60 -149 -156 -149zM252 495c146 0 204 -67 204 -205v-290h-104l-4 46l-2 1c-35 -33 -85 -55 -141 -55c-103 0 -166 66 -166 155
c0 101 64 160 193 160h116c-2 64 -33 89 -106 89c-43 0 -91 -12 -129 -34l-41 91c52 25 129 42 180 42zM224 85c77 0 124 35 124 80v53h-117c-60 0 -83 -26 -83 -67s26 -66 76 -66z" />
    <glyph glyph-name="uni1EB7.alt" horiz-adv-x="514" 
d="M263 548c-96 0 -149 57 -156 149h88c2 -33 26 -63 68 -63s66 30 68 63h88c-7 -92 -60 -149 -156 -149zM252 495c146 0 204 -67 204 -205v-290h-104l-4 46l-2 1c-35 -33 -85 -55 -141 -55c-103 0 -166 66 -166 155c0 101 64 160 193 160h116c-2 64 -33 89 -106 89
c-43 0 -91 -12 -129 -34l-41 91c52 25 129 42 180 42zM224 85c77 0 124 35 124 80v53h-117c-60 0 -83 -26 -83 -67s26 -66 76 -66zM263 -78c42 0 75 -34 75 -75c0 -40 -33 -74 -75 -74s-76 34 -76 74c0 41 34 75 76 75z" />
    <glyph glyph-name="uni1EB1.alt" horiz-adv-x="514" 
d="M310 710h-83l-123 145h123zM195 697c2 -33 26 -63 68 -63s66 30 68 63h88c-7 -92 -60 -149 -156 -149s-149 57 -156 149h88zM252 495c146 0 204 -67 204 -205v-290h-104l-4 46l-2 1c-35 -33 -85 -55 -141 -55c-103 0 -166 66 -166 155c0 101 64 160 193 160h116
c-2 64 -33 89 -106 89c-43 0 -91 -12 -129 -34l-41 91c52 25 129 42 180 42zM224 85c77 0 124 35 124 80v53h-117c-60 0 -83 -26 -83 -67s26 -66 76 -66z" />
    <glyph glyph-name="uni1EB3.alt" horiz-adv-x="514" 
d="M257 799c-27 0 -48 -8 -84 -32l-24 55c21 21 66 50 134 50c51 0 89 -24 89 -78c0 -47 -46 -84 -76 -97h-78c44 32 67 61 66 82c0 12 -10 20 -27 20zM263 550c-100 0 -155 54 -162 140h91c2 -31 27 -59 71 -59s69 28 71 59h91c-7 -86 -62 -140 -162 -140zM252 495
c146 0 204 -67 204 -205v-290h-104l-4 46l-2 1c-35 -33 -85 -55 -141 -55c-103 0 -166 66 -166 155c0 101 64 160 193 160h116c-2 64 -33 89 -106 89c-43 0 -91 -12 -129 -34l-41 91c52 25 129 42 180 42zM224 85c77 0 124 35 124 80v53h-117c-60 0 -83 -26 -83 -67
s26 -66 76 -66z" />
    <glyph glyph-name="uni1EB5.alt" horiz-adv-x="514" 
d="M198 789c-16 -2 -36 -20 -48 -52l-68 31c20 61 51 104 107 104c19 0 43 -4 77 -24c37 -22 46 -25 57 -25c27 0 44 20 57 52l68 -23c-20 -67 -57 -113 -111 -113c-30 0 -57 14 -80 28c-22 13 -41 24 -59 22zM262 634c42 0 66 30 68 63h88c-7 -92 -60 -149 -156 -149
s-149 57 -156 149h88c2 -33 26 -63 68 -63zM252 495c146 0 204 -67 204 -205v-290h-104l-4 46l-2 1c-35 -33 -85 -55 -141 -55c-103 0 -166 66 -166 155c0 101 64 160 193 160h116c-2 64 -33 89 -106 89c-43 0 -91 -12 -129 -34l-41 91c52 25 129 42 180 42zM224 85
c77 0 124 35 124 80v53h-117c-60 0 -83 -26 -83 -67s26 -66 76 -66z" />
    <glyph glyph-name="uni01CE.alt" horiz-adv-x="514" 
d="M319 552h-117l-105 145h109l54 -77h2l55 77h111zM252 495c146 0 204 -67 204 -205v-290h-104l-4 46l-2 1c-35 -33 -85 -55 -141 -55c-103 0 -166 66 -166 155c0 101 64 160 193 160h116c-2 64 -33 89 -106 89c-43 0 -91 -12 -129 -34l-41 91c52 25 129 42 180 42zM224 85
c77 0 124 35 124 80v53h-117c-60 0 -83 -26 -83 -67s26 -66 76 -66z" />
    <glyph glyph-name="acircumflex.alt" horiz-adv-x="514" 
d="M263 631l-55 -77h-111l109 145h117l105 -145h-109l-54 77h-2zM252 495c146 0 204 -67 204 -205v-290h-104l-4 46l-2 1c-35 -33 -85 -55 -141 -55c-103 0 -166 66 -166 155c0 101 64 160 193 160h116c-2 64 -33 89 -106 89c-43 0 -91 -12 -129 -34l-41 91
c52 25 129 42 180 42zM224 85c77 0 124 35 124 80v53h-117c-60 0 -83 -26 -83 -67s26 -66 76 -66z" />
    <glyph glyph-name="uni1EA5.alt" horiz-adv-x="514" 
d="M482 790h123l-123 -145h-83zM264 631l-55 -77h-111l109 145h117l105 -145h-109l-54 77h-2zM252 495c146 0 204 -67 204 -205v-290h-104l-4 46l-2 1c-35 -33 -85 -55 -141 -55c-103 0 -166 66 -166 155c0 101 64 160 193 160h116c-2 64 -33 89 -106 89
c-43 0 -91 -12 -129 -34l-41 91c52 25 129 42 180 42zM224 85c77 0 124 35 124 80v53h-117c-60 0 -83 -26 -83 -67s26 -66 76 -66z" />
    <glyph glyph-name="uni1EAD.alt" horiz-adv-x="514" 
d="M263 631l-55 -77h-111l109 145h117l105 -145h-109l-54 77h-2zM252 495c146 0 204 -67 204 -205v-290h-104l-4 46l-2 1c-35 -33 -85 -55 -141 -55c-103 0 -166 66 -166 155c0 101 64 160 193 160h116c-2 64 -33 89 -106 89c-43 0 -91 -12 -129 -34l-41 91
c52 25 129 42 180 42zM224 85c77 0 124 35 124 80v53h-117c-60 0 -83 -26 -83 -67s26 -66 76 -66zM263 -78c42 0 75 -34 75 -75c0 -40 -33 -74 -75 -74s-76 34 -76 74c0 41 34 75 76 75z" />
    <glyph glyph-name="uni1EA7.alt" horiz-adv-x="514" 
d="M510 645h-83l-123 145h123zM264 631l-55 -77h-111l109 145h117l105 -145h-109l-54 77h-2zM252 495c146 0 204 -67 204 -205v-290h-104l-4 46l-2 1c-35 -33 -85 -55 -141 -55c-103 0 -166 66 -166 155c0 101 64 160 193 160h116c-2 64 -33 89 -106 89
c-43 0 -91 -12 -129 -34l-41 91c52 25 129 42 180 42zM224 85c77 0 124 35 124 80v53h-117c-60 0 -83 -26 -83 -67s26 -66 76 -66z" />
    <glyph glyph-name="uni1EA9.alt" horiz-adv-x="514" 
d="M477 830c51 0 89 -24 89 -78c0 -47 -46 -84 -76 -97h-78c44 32 67 61 66 82c0 12 -10 20 -27 20c-27 0 -48 -8 -84 -32l-24 55c21 21 66 50 134 50zM263 631l-55 -77h-111l109 145h117l105 -145h-109l-54 77h-2zM252 495c146 0 204 -67 204 -205v-290h-104l-4 46l-2 1
c-35 -33 -85 -55 -141 -55c-103 0 -166 66 -166 155c0 101 64 160 193 160h116c-2 64 -33 89 -106 89c-43 0 -91 -12 -129 -34l-41 91c52 25 129 42 180 42zM224 85c77 0 124 35 124 80v53h-117c-60 0 -83 -26 -83 -67s26 -66 76 -66z" />
    <glyph glyph-name="uni1EAB.alt" horiz-adv-x="514" 
d="M200 792c-16 -2 -36 -20 -48 -52l-68 31c20 61 51 104 107 104c19 0 43 -4 77 -24c37 -22 46 -25 57 -25c27 0 44 20 57 52l68 -23c-20 -67 -57 -113 -111 -113c-30 0 -57 14 -80 28c-22 13 -41 24 -59 22zM207 699h117l105 -145h-109l-54 77h-2l-55 -77h-111zM252 495
c146 0 204 -67 204 -205v-290h-104l-4 46l-2 1c-35 -33 -85 -55 -141 -55c-103 0 -166 66 -166 155c0 101 64 160 193 160h116c-2 64 -33 89 -106 89c-43 0 -91 -12 -129 -34l-41 91c52 25 129 42 180 42zM224 85c77 0 124 35 124 80v53h-117c-60 0 -83 -26 -83 -67
s26 -66 76 -66z" />
    <glyph glyph-name="adieresis.alt" horiz-adv-x="514" 
d="M163 562c-41 0 -74 34 -74 74c0 39 33 72 74 72s75 -34 75 -73c0 -40 -34 -73 -75 -73zM362 562c-41 0 -74 34 -74 74c0 39 33 72 74 72s75 -34 75 -73c0 -40 -34 -73 -75 -73zM252 495c146 0 204 -67 204 -205v-290h-104l-4 46l-2 1c-35 -33 -85 -55 -141 -55
c-103 0 -166 66 -166 155c0 101 64 160 193 160h116c-2 64 -33 89 -106 89c-43 0 -91 -12 -129 -34l-41 91c52 25 129 42 180 42zM224 85c77 0 124 35 124 80v53h-117c-60 0 -83 -26 -83 -67s26 -66 76 -66z" />
    <glyph glyph-name="uni1EA1.alt" horiz-adv-x="514" 
d="M252 495c146 0 204 -67 204 -205v-290h-104l-4 46l-2 1c-35 -33 -85 -55 -141 -55c-103 0 -166 66 -166 155c0 101 64 160 193 160h116c-2 64 -33 89 -106 89c-43 0 -91 -12 -129 -34l-41 91c52 25 129 42 180 42zM224 85c77 0 124 35 124 80v53h-117
c-60 0 -83 -26 -83 -67s26 -66 76 -66zM263 -78c42 0 75 -34 75 -75c0 -40 -33 -74 -75 -74s-76 34 -76 74c0 41 34 75 76 75z" />
    <glyph glyph-name="agrave.alt" horiz-adv-x="514" 
d="M353 554h-111l-124 144l125 -1zM252 495c146 0 204 -67 204 -205v-290h-104l-4 46l-2 1c-35 -33 -85 -55 -141 -55c-103 0 -166 66 -166 155c0 101 64 160 193 160h116c-2 64 -33 89 -106 89c-43 0 -91 -12 -129 -34l-41 91c52 25 129 42 180 42zM224 85
c77 0 124 35 124 80v53h-117c-60 0 -83 -26 -83 -67s26 -66 76 -66z" />
    <glyph glyph-name="uni1EA3.alt" horiz-adv-x="514" 
d="M264 661c-28 0 -50 -8 -88 -34l-26 58c22 23 70 53 141 53c54 0 94 -25 94 -82c0 -50 -48 -89 -80 -102h-82c46 33 71 64 70 86c0 13 -11 21 -29 21zM252 495c146 0 204 -67 204 -205v-290h-104l-4 46l-2 1c-35 -33 -85 -55 -141 -55c-103 0 -166 66 -166 155
c0 101 64 160 193 160h116c-2 64 -33 89 -106 89c-43 0 -91 -12 -129 -34l-41 91c52 25 129 42 180 42zM224 85c77 0 124 35 124 80v53h-117c-60 0 -83 -26 -83 -67s26 -66 76 -66z" />
    <glyph glyph-name="amacron.alt" horiz-adv-x="514" 
d="M412 678v-94h-298v94h298zM252 495c146 0 204 -67 204 -205v-290h-104l-4 46l-2 1c-35 -33 -85 -55 -141 -55c-103 0 -166 66 -166 155c0 101 64 160 193 160h116c-2 64 -33 89 -106 89c-43 0 -91 -12 -129 -34l-41 91c52 25 129 42 180 42zM224 85c77 0 124 35 124 80
v53h-117c-60 0 -83 -26 -83 -67s26 -66 76 -66z" />
    <glyph glyph-name="aogonek.alt" horiz-adv-x="514" 
d="M455 -108l7 -68c-19 -8 -45 -12 -72 -12c-66 0 -108 35 -108 88c0 33 24 74 70 103l-4 43l-2 1c-35 -33 -85 -55 -141 -55c-103 0 -166 66 -166 155c0 101 64 160 193 160h116c-2 64 -33 89 -106 89c-43 0 -91 -12 -129 -34l-41 91c52 25 129 42 180 42
c146 0 204 -67 204 -205v-290h-6c-49 -11 -79 -44 -79 -75c0 -25 15 -41 43 -41c25 0 30 3 41 8zM224 85c77 0 124 35 124 80v53h-117c-60 0 -83 -26 -83 -67s26 -66 76 -66z" />
    <glyph glyph-name="aring.alt" horiz-adv-x="514" 
d="M262 540c-58 0 -108 45 -108 105c0 57 45 105 108 105c60 0 109 -45 109 -105c0 -57 -45 -105 -109 -105zM262 684c-21 0 -38 -18 -38 -38c0 -22 17 -38 38 -38c22 0 39 17 39 38s-17 38 -39 38zM252 495c146 0 204 -67 204 -205v-290h-104l-4 46l-2 1
c-35 -33 -85 -55 -141 -55c-103 0 -166 66 -166 155c0 101 64 160 193 160h116c-2 64 -33 89 -106 89c-43 0 -91 -12 -129 -34l-41 91c52 25 129 42 180 42zM224 85c77 0 124 35 124 80v53h-117c-60 0 -83 -26 -83 -67s26 -66 76 -66z" />
    <glyph glyph-name="aringacute.alt" horiz-adv-x="516" 
d="M262 540c-58 0 -108 45 -108 105c0 57 45 105 108 105c33 0 63 -14 83 -36l61 45h127l-163 -125c-5 -52 -48 -94 -108 -94zM262 684c-21 0 -38 -18 -38 -38c0 -22 17 -38 38 -38c22 0 39 17 39 38s-17 38 -39 38zM252 495c146 0 204 -67 204 -205v-290h-104l-4 46l-2 1
c-35 -33 -85 -55 -141 -55c-103 0 -166 66 -166 155c0 101 64 160 193 160h116c-2 64 -33 89 -106 89c-43 0 -91 -12 -129 -34l-41 91c52 25 129 42 180 42zM224 85c77 0 124 35 124 80v53h-117c-60 0 -83 -26 -83 -67s26 -66 76 -66z" />
    <glyph glyph-name="atilde.alt" horiz-adv-x="514" 
d="M198 607c-26 0 -45 -20 -58 -52l-68 31c20 65 58 110 114 110c39 0 62 -14 84 -28c19 -12 37 -25 58 -25c24 0 44 20 57 52l68 -23c-20 -73 -60 -119 -111 -119c-36 0 -64 17 -88 32c-19 12 -37 22 -56 22zM252 495c146 0 204 -67 204 -205v-290h-104l-4 46l-2 1
c-35 -33 -85 -55 -141 -55c-103 0 -166 66 -166 155c0 101 64 160 193 160h116c-2 64 -33 89 -106 89c-43 0 -91 -12 -129 -34l-41 91c52 25 129 42 180 42zM224 85c77 0 124 35 124 80v53h-117c-60 0 -83 -26 -83 -67s26 -66 76 -66z" />
    <glyph glyph-name="g.alt" horiz-adv-x="525" 
d="M262 -219c-165 0 -243 60 -243 146c0 51 29 85 60 108v3c-21 17 -33 41 -33 71c0 34 15 63 57 104c-25 28 -40 65 -40 106c0 101 79 176 199 176c40 0 75 -8 105 -23l87 87l65 -64l-85 -81c18 -26 28 -59 28 -95c0 -98 -78 -174 -200 -174c-33 0 -65 7 -93 19
c-24 -23 -32 -37 -32 -50c0 -9 2 -33 57 -33h125c83 0 194 -22 194 -137c0 -88 -74 -163 -251 -163zM262 235c53 0 89 39 89 84c0 47 -36 85 -89 85c-54 0 -90 -39 -90 -85c0 -45 36 -84 90 -84zM265 -122c79 0 136 22 136 65c0 41 -47 48 -113 48h-57c-20 0 -64 3 -89 7
c-20 -21 -23 -36 -23 -55c0 -38 34 -64 146 -65z" />
    <glyph glyph-name="gbreve.alt" horiz-adv-x="525" 
d="M262 545c-96 0 -149 57 -156 149h88c2 -33 26 -63 68 -63s66 30 68 63h88c-7 -92 -60 -149 -156 -149zM262 -219c-165 0 -243 60 -243 146c0 51 29 85 60 108v3c-21 17 -33 41 -33 71c0 34 15 63 57 104c-25 28 -40 65 -40 106c0 101 79 176 199 176c40 0 75 -8 105 -23
l87 87l65 -64l-85 -81c18 -26 28 -59 28 -95c0 -98 -78 -174 -200 -174c-33 0 -65 7 -93 19c-24 -23 -32 -37 -32 -50c0 -9 2 -33 57 -33h125c83 0 194 -22 194 -137c0 -88 -74 -163 -251 -163zM262 235c53 0 89 39 89 84c0 47 -36 85 -89 85c-54 0 -90 -39 -90 -85
c0 -45 36 -84 90 -84zM265 -122c79 0 136 22 136 65c0 41 -47 48 -113 48h-57c-20 0 -64 3 -89 7c-20 -21 -23 -36 -23 -55c0 -38 34 -64 146 -65z" />
    <glyph glyph-name="gcaron.alt" horiz-adv-x="525" 
d="M201 549l-105 145h109l54 -77h2l55 77h111l-109 -145h-117zM262 -219c-165 0 -243 60 -243 146c0 51 29 85 60 108v3c-21 17 -33 41 -33 71c0 34 15 63 57 104c-25 28 -40 65 -40 106c0 101 79 176 199 176c40 0 75 -8 105 -23l87 87l65 -64l-85 -81
c18 -26 28 -59 28 -95c0 -98 -78 -174 -200 -174c-33 0 -65 7 -93 19c-24 -23 -32 -37 -32 -50c0 -9 2 -33 57 -33h125c83 0 194 -22 194 -137c0 -88 -74 -163 -251 -163zM262 235c53 0 89 39 89 84c0 47 -36 85 -89 85c-54 0 -90 -39 -90 -85c0 -45 36 -84 90 -84z
M265 -122c79 0 136 22 136 65c0 41 -47 48 -113 48h-57c-20 0 -64 3 -89 7c-20 -21 -23 -36 -23 -55c0 -38 34 -64 146 -65z" />
    <glyph glyph-name="gcircumflex.alt" horiz-adv-x="525" 
d="M95 554l112 147h101l117 -147h-110l-56 77l-55 -77h-109zM262 -219c-165 0 -243 60 -243 146c0 51 29 85 60 108v3c-21 17 -33 41 -33 71c0 34 15 63 57 104c-25 28 -40 65 -40 106c0 101 79 176 199 176c40 0 75 -8 105 -23l87 87l65 -64l-85 -81c18 -26 28 -59 28 -95
c0 -98 -78 -174 -200 -174c-33 0 -65 7 -93 19c-24 -23 -32 -37 -32 -50c0 -9 2 -33 57 -33h125c83 0 194 -22 194 -137c0 -88 -74 -163 -251 -163zM262 235c53 0 89 39 89 84c0 47 -36 85 -89 85c-54 0 -90 -39 -90 -85c0 -45 36 -84 90 -84zM265 -122c79 0 136 22 136 65
c0 41 -47 48 -113 48h-57c-20 0 -64 3 -89 7c-20 -21 -23 -36 -23 -55c0 -38 34 -64 146 -65z" />
    <glyph glyph-name="gcommaaccent.alt" horiz-adv-x="525" 
d="M340 722l26 -65c-40 -14 -55 -30 -55 -62c0 -15 2 -22 6 -39h-102c-3 15 -4 28 -4 47c0 76 61 112 129 119zM262 -219c-165 0 -243 60 -243 146c0 51 29 85 60 108v3c-21 17 -33 41 -33 71c0 34 15 63 57 104c-25 28 -40 65 -40 106c0 101 79 176 199 176
c40 0 75 -8 105 -23l87 87l65 -64l-85 -81c18 -26 28 -59 28 -95c0 -98 -78 -174 -200 -174c-33 0 -65 7 -93 19c-24 -23 -32 -37 -32 -50c0 -9 2 -33 57 -33h125c83 0 194 -22 194 -137c0 -88 -74 -163 -251 -163zM262 235c53 0 89 39 89 84c0 47 -36 85 -89 85
c-54 0 -90 -39 -90 -85c0 -45 36 -84 90 -84zM265 -122c79 0 136 22 136 65c0 41 -47 48 -113 48h-57c-20 0 -64 3 -89 7c-20 -21 -23 -36 -23 -55c0 -38 34 -64 146 -65z" />
    <glyph glyph-name="gdotaccent.alt" horiz-adv-x="525" 
d="M262 557c-42 0 -75 34 -75 75c0 40 33 74 75 74s76 -34 76 -74c0 -41 -34 -75 -76 -75zM262 -219c-165 0 -243 60 -243 146c0 51 29 85 60 108v3c-21 17 -33 41 -33 71c0 34 15 63 57 104c-25 28 -40 65 -40 106c0 101 79 176 199 176c40 0 75 -8 105 -23l87 87l65 -64
l-85 -81c18 -26 28 -59 28 -95c0 -98 -78 -174 -200 -174c-33 0 -65 7 -93 19c-24 -23 -32 -37 -32 -50c0 -9 2 -33 57 -33h125c83 0 194 -22 194 -137c0 -88 -74 -163 -251 -163zM262 235c53 0 89 39 89 84c0 47 -36 85 -89 85c-54 0 -90 -39 -90 -85c0 -45 36 -84 90 -84z
M265 -122c79 0 136 22 136 65c0 41 -47 48 -113 48h-57c-20 0 -64 3 -89 7c-20 -21 -23 -36 -23 -55c0 -38 34 -64 146 -65z" />
    <glyph glyph-name="uni1E21.alt" horiz-adv-x="525" 
d="M113 581v94h298v-94h-298zM262 -219c-165 0 -243 60 -243 146c0 51 29 85 60 108v3c-21 17 -33 41 -33 71c0 34 15 63 57 104c-25 28 -40 65 -40 106c0 101 79 176 199 176c40 0 75 -8 105 -23l87 87l65 -64l-85 -81c18 -26 28 -59 28 -95c0 -98 -78 -174 -200 -174
c-33 0 -65 7 -93 19c-24 -23 -32 -37 -32 -50c0 -9 2 -33 57 -33h125c83 0 194 -22 194 -137c0 -88 -74 -163 -251 -163zM262 235c53 0 89 39 89 84c0 47 -36 85 -89 85c-54 0 -90 -39 -90 -85c0 -45 36 -84 90 -84zM265 -122c79 0 136 22 136 65c0 41 -47 48 -113 48h-57
c-20 0 -64 3 -89 7c-20 -21 -23 -36 -23 -55c0 -38 34 -64 146 -65z" />
    <glyph glyph-name="f.calt" horiz-adv-x="343" 
d="M91 0v393h-54v95h54v94c0 109 52 162 148 162c30 0 58 -7 80 -15l-23 -95c-12 5 -25 9 -36 9c-28 0 -57 -11 -57 -78v-77h120v-95h-120v-393h-112z" />
    <glyph glyph-name="j.calt" horiz-adv-x="249" 
d="M125 560c-42 0 -75 34 -75 75c0 40 33 74 75 74s76 -34 76 -74c0 -41 -34 -75 -76 -75zM46 -206c-20 0 -36 1 -53 5l12 97c3 -1 20 -1 23 -1c32 0 42 23 42 72v521h112v-521c0 -114 -55 -173 -136 -173z" />
    <glyph glyph-name="uni0237.calt" horiz-adv-x="249" 
d="M46 -206c-20 0 -36 1 -53 5l12 97c3 -1 20 -1 23 -1c32 0 42 23 42 72v521h112v-521c0 -114 -55 -173 -136 -173z" />
    <glyph glyph-name="jcircumflex.calt" horiz-adv-x="249" 
d="M-41 554l109 145h117l105 -145h-109l-54 77h-2l-55 -77h-111zM46 -206c-20 0 -36 1 -53 5l12 97c3 -1 20 -1 23 -1c32 0 42 23 42 72v521h112v-521c0 -114 -55 -173 -136 -173z" />
    <glyph glyph-name="germandbls.calt" horiz-adv-x="762" 
d="M523 422c120 -48 216 -81 216 -217c0 -147 -131 -213 -235 -213c-68 0 -147 26 -215 82l56 109c50 -53 113 -79 160 -79c68 0 108 34 108 86c0 62 -46 84 -137 114c-36 12 -72 28 -112 47l123 242l-1 4c-56 7 -108 12 -139 12c-103 0 -155 -34 -156 -136v-473h-121l1 479
c0 170 102 239 262 239c68 0 205 -20 321 -47z" />
    <glyph glyph-name="uni0162" unicode="&#x162;" horiz-adv-x="589" 
d="M299 0l-14 -30v-2c61 -2 92 -31 92 -80c0 -44 -35 -78 -119 -78c-27 0 -44 3 -59 6v55c12 -4 27 -7 50 -7c24 0 51 9 51 30c0 18 -29 34 -84 34v36l17 38v600h-201v108h526v-108h-204v-602h-55z" />
    <glyph glyph-name="uni021A" unicode="&#x21a;" horiz-adv-x="589" 
d="M233 0v602h-201v108h526v-108h-204v-602h-121zM214 -219l-26 65c40 14 55 30 55 62c0 15 -2 22 -6 39h102c3 -15 4 -28 4 -47c0 -76 -61 -112 -129 -119z" />
    <glyph glyph-name="ordfeminine" unicode="&#xaa;" horiz-adv-x="421" 
d="M175 388c-86 0 -143 62 -143 152c0 88 56 152 139 152c38 0 74 -16 102 -44h1v39h79v-293h-79v33h-2c-24 -26 -58 -39 -97 -39zM194 463c43 0 78 30 78 77c0 44 -33 78 -78 78s-81 -32 -81 -78c0 -45 34 -77 81 -77z" />
    <glyph glyph-name="ordmasculine" unicode="&#xba;" horiz-adv-x="389" 
d="M189 388c-93 0 -157 64 -157 153c0 87 64 151 157 151c91 0 158 -62 158 -151c0 -91 -67 -153 -158 -153zM189 462c41 0 73 33 73 79c0 45 -31 78 -73 78c-43 0 -72 -34 -72 -78c0 -45 29 -79 72 -79z" />
    <glyph glyph-name="uni0410" unicode="&#x410;" horiz-adv-x="695" 
d="M23 0l265 710h118l266 -710h-126l-54 153h-290l-53 -153h-126zM239 257h217l-108 308h-2z" />
    <glyph glyph-name="uni0411" unicode="&#x411;" horiz-adv-x="637" 
d="M87 0v710h450v-108h-329v-162h129c193 0 254 -93 254 -211c0 -146 -73 -229 -255 -229h-249zM208 108h128c89 0 130 41 130 114c0 78 -49 112 -129 112h-129v-226z" />
    <glyph glyph-name="uni0412" unicode="&#x412;" horiz-adv-x="648" 
d="M87 0v710h247c146 0 231 -57 231 -173c0 -66 -32 -132 -105 -161v-1c83 -20 141 -82 141 -180c0 -113 -76 -195 -233 -195h-281zM208 416h117c68 0 117 27 117 94c0 56 -38 93 -121 93l-113 -1v-186zM208 108h145c75 0 122 33 122 100c0 63 -47 104 -141 104h-126v-204z
" />
    <glyph glyph-name="uni0413" unicode="&#x413;" horiz-adv-x="572" 
d="M87 0v710h449v-108h-328v-602h-121z" />
    <glyph glyph-name="uni0403" unicode="&#x403;" horiz-adv-x="572" 
d="M219 775l112 133h125l-126 -133h-111zM87 0v710h449v-108h-328v-602h-121z" />
    <glyph glyph-name="uni0490" unicode="&#x490;" horiz-adv-x="572" 
d="M435 847h101v-245h-328v-602h-121v710h342z" />
    <glyph glyph-name="uni0414" unicode="&#x414;" horiz-adv-x="796" 
d="M662 108h98v-245h-101l-6 137h-534l-6 -137h-101v245h100c46 90 72 180 88 274c16 103 19 210 20 328h442v-602zM338 602c0 -80 -7 -173 -23 -262c-16 -86 -39 -168 -73 -232h299v494h-203z" />
    <glyph glyph-name="uni0415" unicode="&#x415;" horiz-adv-x="607" 
d="M87 0v710h447v-108h-326v-196h263v-108h-263v-190h347v-108h-468z" />
    <glyph glyph-name="uni0400" unicode="&#x400;" horiz-adv-x="607" 
d="M320 775l-126 133h125l112 -133h-111zM87 0v710h447v-108h-326v-196h263v-108h-263v-190h347v-108h-468z" />
    <glyph glyph-name="uni0401" unicode="&#x401;" horiz-adv-x="607" 
d="M220 793c-41 0 -74 34 -74 74c0 39 33 72 74 72s75 -34 75 -73c0 -40 -34 -73 -75 -73zM419 793c-41 0 -74 34 -74 74c0 39 33 72 74 72s75 -34 75 -73c0 -40 -34 -73 -75 -73zM87 0v710h447v-108h-326v-196h263v-108h-263v-190h347v-108h-468z" />
    <glyph glyph-name="uni0416" unicode="&#x416;" horiz-adv-x="954" 
d="M21 0l233 396l-230 314h145l245 -342l2 1v341h116v-348l2 -1l239 349h144l-220 -315l236 -395h-141l-186 313l-74 -97v-216h-116v219l-73 97l-183 -316h-139z" />
    <glyph glyph-name="uni0417" unicode="&#x417;" horiz-adv-x="614" 
d="M300 -8c-108 0 -203 38 -268 113l78 93c49 -68 114 -94 192 -94c89 0 141 37 141 104c0 66 -48 107 -151 107h-105v104h96c82 0 127 36 127 100c0 56 -38 87 -116 87c-61 0 -118 -20 -169 -61l-66 93c49 47 153 80 250 80c140 0 224 -66 224 -176
c0 -68 -33 -134 -105 -162v-2c84 -21 141 -74 141 -172c0 -127 -98 -214 -269 -214z" />
    <glyph glyph-name="uni0418" unicode="&#x418;" horiz-adv-x="747" 
d="M87 0v710h121v-509h2l345 509h105v-710h-121v502h-2l-342 -502h-108z" />
    <glyph glyph-name="uni0419" unicode="&#x419;" horiz-adv-x="747" 
d="M378 768c-77 0 -151 32 -171 137l98 10c3 -29 22 -77 73 -77c52 0 70 48 73 77l98 -10c-20 -105 -94 -137 -171 -137zM87 0v710h121v-509h2l345 509h105v-710h-121v502h-2l-342 -502h-108z" />
    <glyph glyph-name="uni040D" unicode="&#x40d;" horiz-adv-x="747" 
d="M378 775l-126 133h125l112 -133h-111zM87 0v710h121v-509h2l345 509h105v-710h-121v502h-2l-342 -502h-108z" />
    <glyph glyph-name="uni048A" unicode="&#x48a;" horiz-adv-x="768" 
d="M378 768c-77 0 -151 32 -171 137l98 10c3 -29 22 -77 73 -77c52 0 70 48 73 77l98 -10c-20 -105 -94 -137 -171 -137zM660 108h107v-47l-83 -198h-88l40 137h-97v502h-2l-342 -502h-108v710h121v-509h2l345 509h105v-602z" />
    <glyph glyph-name="uni041A" unicode="&#x41a;" horiz-adv-x="664" 
d="M87 0v710h121v-340h2l272 340h154l-267 -317l275 -393h-150l-205 297l-81 -96v-201h-121z" />
    <glyph glyph-name="uni040C" unicode="&#x40c;" horiz-adv-x="664" 
d="M242 775l112 133h125l-126 -133h-111zM87 0v710h121v-340h2l272 340h154l-267 -317l275 -393h-150l-205 297l-81 -96v-201h-121z" />
    <glyph glyph-name="uni041B" unicode="&#x41b;" horiz-adv-x="735" 
d="M205 710h443v-710h-121v602h-205c-5 -109 -12 -219 -21 -306c-20 -191 -64 -300 -202 -300c-26 0 -60 5 -78 11l9 99c10 -2 29 -3 39 -3c89 0 103 101 119 241c12 115 16 257 17 366z" />
    <glyph glyph-name="uni041C" unicode="&#x41c;" horiz-adv-x="887" 
d="M88 0v710h121l234 -425h2l234 425h121v-710h-121v475h-2l-194 -338h-79l-194 338h-1v-475h-121z" />
    <glyph glyph-name="uni041D" unicode="&#x41d;" horiz-adv-x="736" 
d="M87 0v710h121v-317h320v317h121v-710h-121v285h-320v-285h-121z" />
    <glyph glyph-name="uni041E" unicode="&#x41e;" horiz-adv-x="827" 
d="M414 -8c-213 0 -359 154 -359 363s146 363 359 363c205 0 358 -146 358 -363c0 -216 -153 -363 -358 -363zM414 105c131 0 232 105 232 250c0 146 -101 250 -232 250c-139 0 -234 -111 -234 -250s95 -250 234 -250z" />
    <glyph glyph-name="uni041F" unicode="&#x41f;" horiz-adv-x="709" 
d="M87 0v710h535v-710h-121v602h-293v-602h-121z" />
    <glyph glyph-name="uni0420" unicode="&#x420;" horiz-adv-x="629" 
d="M87 0v710h257c170 0 243 -98 243 -230c0 -154 -104 -227 -257 -227h-122v-253h-121zM208 362h110c99 0 144 50 144 120c0 75 -48 120 -135 120h-119v-240z" />
    <glyph glyph-name="uni0421" unicode="&#x421;" horiz-adv-x="729" 
d="M413 -6c-193 0 -358 126 -358 359c0 202 128 365 356 365c104 0 206 -45 280 -136l-89 -75c-53 65 -116 97 -191 97c-135 0 -230 -101 -230 -251c0 -146 97 -246 232 -246c80 0 146 41 191 97l89 -76c-61 -76 -155 -134 -280 -134z" />
    <glyph glyph-name="uni0422" unicode="&#x422;" horiz-adv-x="589" 
d="M233 0v602h-201v108h526v-108h-204v-602h-121z" />
    <glyph glyph-name="uni0423" unicode="&#x423;" horiz-adv-x="645" 
d="M504 710h128l-231 -522c-48 -109 -82 -196 -201 -196c-32 0 -91 12 -117 34l41 102c29 -14 53 -20 74 -20c47 0 75 35 95 96l-280 506h137l193 -366h2z" />
    <glyph glyph-name="uni040E" unicode="&#x40e;" horiz-adv-x="645" 
d="M328 768c-77 0 -151 32 -171 137l98 10c3 -29 22 -77 73 -77c52 0 70 48 73 77l98 -10c-20 -105 -94 -137 -171 -137zM504 710h128l-231 -522c-48 -109 -82 -196 -201 -196c-32 0 -91 12 -117 34l41 102c29 -14 53 -20 74 -20c47 0 75 35 95 96l-280 506h137l193 -366h2z
" />
    <glyph glyph-name="uni0424" unicode="&#x424;" horiz-adv-x="857" 
d="M814 362c0 -164 -114 -279 -325 -288v-74h-121v74c-209 8 -325 124 -325 288c0 167 115 293 325 301v66h121v-66c210 -9 325 -134 325 -301zM169 362c0 -103 69 -174 202 -181v373c-133 -7 -202 -85 -202 -192zM487 182c133 7 201 77 201 180c0 107 -68 184 -201 192
v-372z" />
    <glyph glyph-name="uni0425" unicode="&#x425;" horiz-adv-x="694" 
d="M32 0l235 356l-230 354h141l170 -262h1l170 262h138l-230 -354l236 -356h-142l-174 262h-2l-173 -262h-140z" />
    <glyph glyph-name="uni0427" unicode="&#x427;" horiz-adv-x="663" 
d="M455 710h121v-710h-121v284c-40 -21 -115 -41 -185 -41c-141 0 -204 82 -204 235v232h121v-214c0 -116 42 -141 117 -141c55 0 114 12 151 32v323z" />
    <glyph glyph-name="uni0426" unicode="&#x426;" horiz-adv-x="748" 
d="M712 108v-245h-101l-6 137h-518v710h121v-602h285v602h121v-602h98z" />
    <glyph glyph-name="uni0428" unicode="&#x428;" horiz-adv-x="977" 
d="M769 710h121v-710h-803v710h121v-602h220v602h121v-602h220v602z" />
    <glyph glyph-name="uni0429" unicode="&#x429;" horiz-adv-x="1024" 
d="M988 108v-245h-101l-6 137h-794v710h121v-602h220v602h121v-602h220v602h121v-602h98z" />
    <glyph glyph-name="uni040F" unicode="&#x40f;" horiz-adv-x="709" 
d="M622 710v-710h-214l-3 -137h-100l-3 137h-215v710h121v-602h293v602h121z" />
    <glyph glyph-name="uni042C" unicode="&#x42c;" horiz-adv-x="636" 
d="M87 0v710h121v-261h136c193 0 254 -93 254 -217c0 -149 -73 -232 -255 -232h-256zM208 108h135c89 0 130 41 130 117c0 82 -49 116 -129 116h-136v-233z" />
    <glyph glyph-name="uni042A" unicode="&#x42a;" horiz-adv-x="723" 
d="M431 449c193 0 254 -93 254 -217c0 -149 -73 -232 -255 -232h-256v602h-166v108h287v-261h136zM430 108c89 0 130 41 130 117c0 82 -49 116 -129 116h-136v-233h135z" />
    <glyph glyph-name="uni042B" unicode="&#x42b;" horiz-adv-x="883" 
d="M87 0v710h121v-261h116c193 0 254 -93 254 -217c0 -149 -73 -232 -255 -232h-236zM675 0v710h121v-710h-121zM208 108h115c89 0 130 41 130 117c0 82 -49 116 -129 116h-116v-233z" />
    <glyph glyph-name="uni0409" unicode="&#x409;" horiz-adv-x="1076" 
d="M784 449c193 0 254 -93 254 -217c0 -149 -73 -232 -255 -232h-256v602h-205c-5 -109 -12 -219 -21 -306c-20 -191 -64 -300 -202 -300c-26 0 -60 5 -78 11l9 99c10 -2 29 -3 39 -3c89 0 103 101 119 241c12 115 16 257 17 366h443v-261h136zM783 108c89 0 130 41 130 117
c0 82 -49 116 -129 116h-136v-233h135z" />
    <glyph glyph-name="uni040A" unicode="&#x40a;" horiz-adv-x="1071" 
d="M779 438c193 0 254 -93 254 -212c0 -143 -73 -226 -255 -226h-260v312h-310v-312h-121v710h121v-290h310v290h121v-272h140zM778 108c89 0 130 41 130 111c0 77 -49 111 -129 111h-140v-222h139z" />
    <glyph glyph-name="uni0405" unicode="&#x405;" horiz-adv-x="591" 
d="M299 -8c-91 0 -183 35 -257 112l76 93c51 -62 121 -93 182 -93c78 0 118 34 118 86c0 62 -47 82 -137 114c-108 38 -215 86 -215 216c0 111 102 198 225 198c84 0 163 -30 235 -87l-72 -95c-58 48 -115 73 -163 73c-55 0 -99 -30 -100 -83c-1 -52 47 -70 133 -103
c122 -48 220 -81 220 -218c0 -147 -131 -213 -245 -213z" />
    <glyph glyph-name="uni0404" unicode="&#x404;" horiz-adv-x="730" 
d="M605 199l89 -76c-62 -77 -155 -129 -283 -129c-193 0 -356 111 -356 359c0 218 125 365 365 365c97 0 181 -33 254 -104l-82 -82c-45 45 -105 72 -175 72c-134 0 -217 -72 -235 -193h336l1 -106h-338c15 -123 102 -198 228 -198c78 0 146 30 196 92z" />
    <glyph glyph-name="uni042D" unicode="&#x42d;" horiz-adv-x="723" 
d="M316 718c229 0 353 -147 353 -365c0 -248 -162 -359 -347 -359c-102 0 -215 33 -285 108l70 96c49 -52 137 -91 217 -91c119 0 205 75 220 198h-338l1 106h337c-15 121 -102 194 -229 194c-72 0 -141 -22 -190 -62l-67 93c61 48 160 82 258 82z" />
    <glyph glyph-name="uni0406" unicode="&#x406;" horiz-adv-x="304" 
d="M91 0v710h121v-710h-121z" />
    <glyph glyph-name="uni0407" unicode="&#x407;" horiz-adv-x="304" 
d="M50 793c-41 0 -74 34 -74 74c0 39 33 72 74 72s75 -34 75 -73c0 -40 -34 -73 -75 -73zM249 793c-41 0 -74 34 -74 74c0 39 33 72 74 72s75 -34 75 -73c0 -40 -34 -73 -75 -73zM91 0v710h121v-710h-121z" />
    <glyph glyph-name="uni0408" unicode="&#x408;" horiz-adv-x="507" 
d="M219 -6c-67 0 -142 29 -188 89l68 88c26 -31 71 -63 115 -63c56 0 96 35 96 136v466h121v-467c0 -156 -58 -249 -212 -249z" />
    <glyph glyph-name="uni040B" unicode="&#x40b;" horiz-adv-x="787" 
d="M526 457c138 0 195 -82 195 -235v-222h-121v213c0 105 -43 130 -113 130c-55 0 -107 -12 -148 -33v-310h-121v602h-201v108h526v-108h-204v-188c40 18 106 43 187 43z" />
    <glyph glyph-name="uni042E" unicode="&#x42e;" horiz-adv-x="1057" 
d="M659 718c212 0 348 -146 348 -363c0 -216 -136 -363 -348 -363c-178 0 -313 125 -338 293h-120v-285h-121v710h121v-317h117c20 192 157 325 341 325zM659 105c137 0 222 105 222 250c0 146 -85 250 -222 250c-122 0 -220 -111 -220 -260c0 -129 98 -240 220 -240z" />
    <glyph glyph-name="uni042F" unicode="&#x42f;" horiz-adv-x="673" 
d="M39 0l174 268c-91 35 -139 107 -139 205c0 153 91 237 253 237h259v-710h-121v248h-128l-155 -248h-143zM353 357h112v245h-120c-94 0 -146 -44 -146 -127c0 -69 47 -118 154 -118z" />
    <glyph glyph-name="uni0402" unicode="&#x402;" horiz-adv-x="789" 
d="M504 450c133 0 247 -75 247 -227c0 -155 -103 -231 -238 -231c-45 0 -61 4 -84 9l9 101c24 -4 42 -7 67 -7c78 0 121 43 121 120c0 79 -54 123 -151 123c-44 0 -97 -9 -136 -29v-309h-121v602h-201v108h526v-108h-204v-190c37 18 98 38 165 38z" />
    <glyph glyph-name="uni0462" unicode="&#x462;" horiz-adv-x="719" 
d="M427 436c193 0 254 -93 254 -209c0 -144 -73 -227 -255 -227h-260v526h-158v101h158v83h121v-83h235v-101h-235v-90h140zM426 108c89 0 130 41 130 112c0 74 -49 108 -129 108h-140v-220h139z" />
    <glyph glyph-name="uni0472" unicode="&#x472;" horiz-adv-x="827" 
d="M414 718c205 0 358 -146 358 -363c0 -216 -153 -363 -358 -363c-213 0 -359 154 -359 363s146 363 359 363zM414 610c-125 0 -215 -87 -235 -205h468c-20 122 -115 205 -233 205zM414 100c118 0 212 84 233 205h-468c20 -117 110 -205 235 -205z" />
    <glyph glyph-name="uni0474" unicode="&#x474;" horiz-adv-x="744" 
d="M295 0l-265 710h129l191 -543h1l120 386c39 125 84 164 171 164c54 0 93 -14 114 -29l-26 -96c-13 7 -42 19 -70 19c-43 0 -60 -36 -80 -95l-178 -516h-107z" />
    <glyph glyph-name="uni0492" unicode="&#x492;" horiz-adv-x="596" 
d="M560 602h-328v-212h181v-94h-181v-296h-121v296h-99v94h99v320h449v-108z" />
    <glyph glyph-name="uni0494" unicode="&#x494;" horiz-adv-x="660" 
d="M346 402c165 0 268 -109 268 -292c0 -210 -105 -312 -264 -313c-33 0 -59 4 -82 9l9 101c22 -4 47 -6 64 -6c92 0 148 71 148 195c0 134 -71 194 -168 194c-35 0 -73 -6 -113 -21v-269h-121v710h449v-108h-328v-226c37 14 86 26 138 26z" />
    <glyph glyph-name="uni0496" unicode="&#x496;" horiz-adv-x="1013" 
d="M983 108v-245h-101l-6 137h-84l-186 313l-74 -97v-216h-116v219l-73 97l-183 -316h-139l233 396l-230 314h145l245 -342l2 1v341h116v-348l2 -1l239 349h144l-220 -315l171 -287h115z" />
    <glyph glyph-name="uni0498" unicode="&#x498;" horiz-adv-x="614" 
d="M569 206c0 -117 -83 -200 -230 -212l-7 -22c40 -14 64 -39 64 -70c0 -55 -36 -89 -112 -89c-19 0 -40 2 -64 6v65c17 -5 34 -8 49 -8c27 0 46 9 46 28c0 16 -17 26 -59 33l9 56c-93 8 -175 45 -233 112l78 93c49 -68 114 -94 192 -94c89 0 141 37 141 104
c0 66 -48 107 -151 107h-105v104h96c82 0 127 36 127 100c0 56 -38 87 -116 87c-61 0 -118 -20 -169 -61l-66 93c49 47 153 80 250 80c140 0 224 -66 224 -176c0 -68 -33 -134 -105 -162v-2c84 -21 141 -74 141 -172z" />
    <glyph glyph-name="uni049A" unicode="&#x49a;" horiz-adv-x="723" 
d="M692 108v-245h-101l-6 137h-91l-205 297l-81 -96v-201h-121v710h121v-340h2l272 340h154l-267 -317l199 -285h124z" />
    <glyph glyph-name="uni049C" unicode="&#x49c;" horiz-adv-x="727" 
d="M563 0l-186 305h-16v-185h-88v187l-70 2v-309h-121v710h121v-316l70 2v192h88v-189h6l190 311h139l-217 -340l228 -370h-144z" />
    <glyph glyph-name="uni049E" unicode="&#x49e;" horiz-adv-x="673" 
d="M381 389l272 -389h-148l-203 294l-85 -103v-191h-121v544h-89v94h89v72h121v-72h104v-94h-104v-184h2l275 350h151z" />
    <glyph glyph-name="uni04A0" unicode="&#x4a0;" horiz-adv-x="751" 
d="M456 393l275 -393h-150l-205 297l-81 -96v-201h-121v602h-166v108h287v-340h2l272 340h154z" />
    <glyph glyph-name="uni04A2" unicode="&#x4a2;" horiz-adv-x="783" 
d="M747 108v-245h-101l-6 137h-112v285h-320v-285h-121v710h121v-317h320v317h121v-602h98z" />
    <glyph glyph-name="uni04A4" unicode="&#x4a4;" horiz-adv-x="877" 
d="M841 710v-108h-200v-602h-121v285h-312v-285h-121v710h121v-317h312v317h321z" />
    <glyph glyph-name="uni04A6" unicode="&#x4a6;" horiz-adv-x="1058" 
d="M744 402c165 0 268 -109 268 -292c0 -210 -105 -312 -264 -313c-33 0 -59 4 -82 9l9 101c22 -4 47 -6 64 -6c92 0 148 71 148 195c0 134 -71 194 -168 194c-35 0 -73 -6 -113 -21v-269h-121v602h-277v-602h-121v710h519v-334c37 14 86 26 138 26z" />
    <glyph glyph-name="uni0524" unicode="&#x524;" horiz-adv-x="756" 
d="M720 108v-245h-101l-6 137h-112v602h-293v-602h-121v710h535v-602h98z" />
    <glyph glyph-name="uni04A8" unicode="&#x4a8;" horiz-adv-x="869" 
d="M849 17c-19 -18 -66 -25 -105 -25c-59 0 -117 20 -153 43c-47 -25 -116 -43 -177 -43c-244 0 -369 167 -369 375c0 196 146 351 357 351c37 0 72 -3 97 -11l-46 -105c-12 2 -31 3 -48 3c-147 0 -236 -114 -236 -251c0 -127 81 -255 261 -255c25 0 48 3 68 7l1 2
c-56 58 -101 148 -101 259c0 147 75 257 205 257c126 0 200 -107 200 -263c0 -91 -45 -204 -123 -266l1 -1c11 -3 23 -5 34 -5c43 0 89 14 116 34zM600 517c-49 0 -79 -65 -79 -159c0 -82 22 -154 71 -211h3c54 48 85 122 85 206c0 96 -29 164 -80 164z" />
    <glyph glyph-name="uni04AA" unicode="&#x4aa;" horiz-adv-x="729" 
d="M693 128c-58 -72 -146 -128 -261 -134l-7 -22c40 -14 64 -39 64 -70c0 -55 -36 -89 -112 -89c-19 0 -40 2 -64 6v65c17 -5 34 -8 49 -8c27 0 46 9 46 28c0 16 -17 26 -59 33l10 60c-169 22 -304 145 -304 356c0 202 128 365 356 365c104 0 206 -45 280 -136l-89 -75
c-53 65 -116 97 -191 97c-135 0 -230 -101 -230 -251c0 -146 97 -246 232 -246c80 0 146 41 191 97z" />
    <glyph glyph-name="uni04AC" unicode="&#x4ac;" horiz-adv-x="589" 
d="M558 602h-204v-494h98v-245h-101l-6 137h-112v602h-201v108h526v-108z" />
    <glyph glyph-name="uni04AE" unicode="&#x4ae;" horiz-adv-x="625" 
d="M251 0v314l-237 396h138l159 -275h2l158 275h140l-239 -396v-314h-121z" />
    <glyph glyph-name="uni04B0" unicode="&#x4b0;" horiz-adv-x="625" 
d="M611 710l-223 -369h138v-94h-154v-247h-121v247h-157v94h141l-221 369h138l159 -275h2l158 275h140z" />
    <glyph glyph-name="uni04B2" unicode="&#x4b2;" horiz-adv-x="753" 
d="M705 108v-245h-101l-6 137h-77l-174 262h-2l-173 -262h-140l235 356l-230 354h141l170 -262h1l170 262h138l-230 -354l164 -248h114z" />
    <glyph glyph-name="uni04B4" unicode="&#x4b4;" horiz-adv-x="879" 
d="M843 108v-245h-101l-6 137h-518v602h-201v108h487v-108h-165v-494h285v602h121v-602h98z" />
    <glyph glyph-name="uni04B6" unicode="&#x4b6;" horiz-adv-x="710" 
d="M674 108v-245h-101l-6 137h-112v284c-40 -21 -115 -41 -185 -41c-141 0 -204 82 -204 235v232h121v-214c0 -116 42 -141 117 -141c55 0 114 12 151 32v323h121v-602h98z" />
    <glyph glyph-name="uni04B8" unicode="&#x4b8;" horiz-adv-x="675" 
d="M467 710h121v-710h-121v283c-21 -11 -53 -21 -90 -29v-146h-88v135h-19c-141 0 -204 82 -204 235v232h121v-214c0 -108 36 -137 102 -141v142h88v-138c36 5 67 13 90 24v327z" />
    <glyph glyph-name="uni04BA" unicode="&#x4ba;" horiz-adv-x="666" 
d="M396 478c141 0 204 -82 204 -235v-243h-121v239c0 102 -51 127 -122 127c-55 0 -112 -17 -149 -34v-332h-121v710h121v-277c42 21 114 45 188 45z" />
    <glyph glyph-name="uni04BC" unicode="&#x4bc;" horiz-adv-x="897" 
d="M852 378c0 -12 -1 -34 -3 -55h-552c15 -134 97 -216 231 -216c101 0 169 40 209 92l89 -76c-55 -69 -152 -129 -297 -129c-211 0 -342 129 -357 329c-107 2 -179 41 -179 136c0 27 5 59 17 95l103 -13c-8 -26 -12 -46 -12 -62c0 -46 34 -52 75 -53
c26 177 160 292 336 292c196 0 340 -134 340 -340zM516 605c-117 0 -195 -70 -216 -179h425c-12 106 -87 179 -209 179z" />
    <glyph glyph-name="uni04BE" unicode="&#x4be;" horiz-adv-x="897" 
d="M852 378c0 -12 -1 -34 -3 -55h-552c15 -134 97 -216 231 -216c101 0 169 40 209 92l89 -76c-49 -61 -131 -115 -250 -127l-3 -133h-100l-3 135c-176 22 -284 145 -298 325c-107 2 -179 41 -179 136c0 27 5 59 17 95l103 -13c-8 -26 -12 -46 -12 -62c0 -46 34 -52 75 -53
c26 177 160 292 336 292c196 0 340 -134 340 -340zM516 605c-117 0 -195 -70 -216 -179h425c-12 106 -87 179 -209 179z" />
    <glyph glyph-name="uni04C0" unicode="&#x4c0;" horiz-adv-x="304" 
d="M91 0v710h121v-710h-121z" />
    <glyph glyph-name="uni04C1" unicode="&#x4c1;" horiz-adv-x="954" 
d="M474 768c-77 0 -151 32 -171 137l98 10c3 -29 22 -77 73 -77c52 0 70 48 73 77l98 -10c-20 -105 -94 -137 -171 -137zM21 0l233 396l-230 314h145l245 -342l2 1v341h116v-348l2 -1l239 349h144l-220 -315l236 -395h-141l-186 313l-74 -97v-216h-116v219l-73 97l-183 -316
h-139z" />
    <glyph glyph-name="uni04C3" unicode="&#x4c3;" horiz-adv-x="680" 
d="M368 391c152 -9 252 -116 252 -281c0 -210 -105 -313 -264 -313c-33 0 -59 4 -82 9l9 101c22 -4 47 -6 64 -6c92 0 148 71 148 195c0 135 -76 195 -184 195c-27 0 -63 -4 -103 -16v-275h-121v710h121v-340h2l272 340h154z" />
    <glyph glyph-name="uni04C5" unicode="&#x4c5;" horiz-adv-x="756" 
d="M648 108h107v-47l-83 -198h-88l40 137h-97v602h-205c-5 -109 -12 -219 -21 -306c-20 -191 -64 -300 -202 -300c-26 0 -60 5 -78 11l9 99c10 -2 29 -3 39 -3c89 0 103 101 119 241c12 115 16 257 17 366h443v-602z" />
    <glyph glyph-name="uni04C7" unicode="&#x4c7;" horiz-adv-x="736" 
d="M528 710h121v-713c0 -163 -100 -202 -195 -202c-35 0 -55 3 -88 14l9 98c17 -8 43 -11 58 -11c72 0 95 49 95 96v293h-320v-285h-121v710h121v-317h320v317z" />
    <glyph glyph-name="uni04C9" unicode="&#x4c9;" horiz-adv-x="757" 
d="M649 108h107v-47l-83 -198h-88l40 137h-97v285h-320v-285h-121v710h121v-317h320v317h121v-602z" />
    <glyph glyph-name="uni04CB" unicode="&#x4cb;" horiz-adv-x="663" 
d="M455 710h121v-710h-112l-6 -137h-101v245h98v176c-40 -21 -115 -41 -185 -41c-141 0 -204 82 -204 235v232h121v-214c0 -116 42 -141 117 -141c55 0 114 12 151 32v323z" />
    <glyph glyph-name="uni04CD" unicode="&#x4cd;" horiz-adv-x="908" 
d="M800 108h107v-47l-83 -198h-88l40 137h-97v475h-2l-194 -338h-79l-194 338h-1v-475h-121v710h121l234 -425h2l234 425h121v-602z" />
    <glyph glyph-name="uni04D0" unicode="&#x4d0;" horiz-adv-x="695" 
d="M347 768c-77 0 -151 32 -171 137l98 10c3 -29 22 -77 73 -77c52 0 70 48 73 77l98 -10c-20 -105 -94 -137 -171 -137zM23 0l265 710h118l266 -710h-126l-54 153h-290l-53 -153h-126zM239 257h217l-108 308h-2z" />
    <glyph glyph-name="uni04D2" unicode="&#x4d2;" horiz-adv-x="695" 
d="M247 793c-41 0 -74 34 -74 74c0 39 33 72 74 72s75 -34 75 -73c0 -40 -34 -73 -75 -73zM446 793c-41 0 -74 34 -74 74c0 39 33 72 74 72s75 -34 75 -73c0 -40 -34 -73 -75 -73zM23 0l265 710h118l266 -710h-126l-54 153h-290l-53 -153h-126zM239 257h217l-108 308h-2z
" />
    <glyph glyph-name="uni04D4" unicode="&#x4d4;" horiz-adv-x="943" 
d="M11 0l354 710h516v-108h-327v-195h268v-108h-268v-191h347v-108h-467v153h-225l-75 -153h-123zM261 257h173v348h-2z" />
    <glyph glyph-name="uni04D6" unicode="&#x4d6;" horiz-adv-x="607" 
d="M320 768c-77 0 -151 32 -171 137l98 10c3 -29 22 -77 73 -77c52 0 70 48 73 77l98 -10c-20 -105 -94 -137 -171 -137zM87 0v710h447v-108h-326v-196h263v-108h-263v-190h347v-108h-468z" />
    <glyph glyph-name="uni04D8" unicode="&#x4d8;" horiz-adv-x="780" 
d="M371 718c239 0 355 -160 355 -360c0 -232 -152 -366 -348 -366c-208 0 -334 130 -334 334c0 24 2 42 4 61h553c-10 134 -91 217 -242 217c-71 1 -144 -19 -207 -61l-66 93c72 52 175 84 285 82zM375 105c105 0 193 57 219 175h-427c6 -108 86 -175 208 -175z" />
    <glyph glyph-name="uni04DA" unicode="&#x4da;" horiz-adv-x="780" 
d="M287 793c-41 0 -74 34 -74 74c0 39 33 72 74 72s75 -34 75 -73c0 -40 -34 -73 -75 -73zM486 793c-41 0 -74 34 -74 74c0 39 33 72 74 72s75 -34 75 -73c0 -40 -34 -73 -75 -73zM371 718c239 0 355 -160 355 -360c0 -232 -152 -366 -348 -366c-208 0 -334 130 -334 334
c0 24 2 42 4 61h553c-10 134 -91 217 -242 217c-71 1 -144 -19 -207 -61l-66 93c72 52 175 84 285 82zM375 105c105 0 193 57 219 175h-427c6 -108 86 -175 208 -175z" />
    <glyph glyph-name="uni04DC" unicode="&#x4dc;" horiz-adv-x="954" 
d="M374 793c-41 0 -74 34 -74 74c0 39 33 72 74 72s75 -34 75 -73c0 -40 -34 -73 -75 -73zM573 793c-41 0 -74 34 -74 74c0 39 33 72 74 72s75 -34 75 -73c0 -40 -34 -73 -75 -73zM21 0l233 396l-230 314h145l245 -342l2 1v341h116v-348l2 -1l239 349h144l-220 -315
l236 -395h-141l-186 313l-74 -97v-216h-116v219l-73 97l-183 -316h-139z" />
    <glyph glyph-name="uni04DE" unicode="&#x4de;" horiz-adv-x="614" 
d="M201 793c-41 0 -74 34 -74 74c0 39 33 72 74 72s75 -34 75 -73c0 -40 -34 -73 -75 -73zM400 793c-41 0 -74 34 -74 74c0 39 33 72 74 72s75 -34 75 -73c0 -40 -34 -73 -75 -73zM300 -8c-108 0 -203 38 -268 113l78 93c49 -68 114 -94 192 -94c89 0 141 37 141 104
c0 66 -48 107 -151 107h-105v104h96c82 0 127 36 127 100c0 56 -38 87 -116 87c-61 0 -118 -20 -169 -61l-66 93c49 47 153 80 250 80c140 0 224 -66 224 -176c0 -68 -33 -134 -105 -162v-2c84 -21 141 -74 141 -172c0 -127 -98 -214 -269 -214z" />
    <glyph glyph-name="uni04E0" unicode="&#x4e0;" horiz-adv-x="602" 
d="M339 416c117 3 225 -83 225 -198c0 -153 -107 -226 -266 -226c-111 0 -206 38 -271 113l78 93c44 -63 125 -96 196 -96c74 0 137 36 137 110c0 72 -47 113 -191 113h-75l-1 55l208 220l-1 2h-311v108h472v-83z" />
    <glyph glyph-name="uni04E2" unicode="&#x4e2;" horiz-adv-x="747" 
d="M229 797v89h298v-89h-298zM87 0v710h121v-509h2l345 509h105v-710h-121v502h-2l-342 -502h-108z" />
    <glyph glyph-name="uni04E4" unicode="&#x4e4;" horiz-adv-x="747" 
d="M278 793c-41 0 -74 34 -74 74c0 39 33 72 74 72s75 -34 75 -73c0 -40 -34 -73 -75 -73zM477 793c-41 0 -74 34 -74 74c0 39 33 72 74 72s75 -34 75 -73c0 -40 -34 -73 -75 -73zM87 0v710h121v-509h2l345 509h105v-710h-121v502h-2l-342 -502h-108z" />
    <glyph glyph-name="uni04E6" unicode="&#x4e6;" horiz-adv-x="827" 
d="M315 793c-41 0 -74 34 -74 74c0 39 33 72 74 72s75 -34 75 -73c0 -40 -34 -73 -75 -73zM514 793c-41 0 -74 34 -74 74c0 39 33 72 74 72s75 -34 75 -73c0 -40 -34 -73 -75 -73zM414 -8c-213 0 -359 154 -359 363s146 363 359 363c205 0 358 -146 358 -363
c0 -216 -153 -363 -358 -363zM414 105c131 0 232 105 232 250c0 146 -101 250 -232 250c-139 0 -234 -111 -234 -250s95 -250 234 -250z" />
    <glyph glyph-name="uni04E8" unicode="&#x4e8;" horiz-adv-x="827" 
d="M414 718c205 0 358 -146 358 -363c0 -216 -153 -363 -358 -363c-213 0 -359 154 -359 363s146 363 359 363zM414 610c-125 0 -215 -87 -235 -205h468c-20 122 -115 205 -233 205zM414 100c118 0 212 84 233 205h-468c20 -117 110 -205 235 -205z" />
    <glyph glyph-name="uni04EA" unicode="&#x4ea;" horiz-adv-x="827" 
d="M316 793c-41 0 -74 34 -74 74c0 39 33 72 74 72s75 -34 75 -73c0 -40 -34 -73 -75 -73zM515 793c-41 0 -74 34 -74 74c0 39 33 72 74 72s75 -34 75 -73c0 -40 -34 -73 -75 -73zM414 718c205 0 358 -146 358 -363c0 -216 -153 -363 -358 -363c-213 0 -359 154 -359 363
s146 363 359 363zM414 610c-125 0 -215 -87 -235 -205h468c-20 122 -115 205 -233 205zM414 100c118 0 212 84 233 205h-468c20 -117 110 -205 235 -205z" />
    <glyph glyph-name="uni04EC" unicode="&#x4ec;" horiz-adv-x="723" 
d="M237 793c-41 0 -74 34 -74 74c0 39 33 72 74 72s75 -34 75 -73c0 -40 -34 -73 -75 -73zM436 793c-41 0 -74 34 -74 74c0 39 33 72 74 72s75 -34 75 -73c0 -40 -34 -73 -75 -73zM316 718c229 0 353 -147 353 -365c0 -248 -162 -359 -347 -359c-102 0 -215 33 -285 108
l70 96c49 -52 137 -91 217 -91c119 0 205 75 220 198h-338l1 106h337c-15 121 -102 194 -229 194c-72 0 -141 -22 -190 -62l-67 93c61 48 160 82 258 82z" />
    <glyph glyph-name="uni04EE" unicode="&#x4ee;" horiz-adv-x="645" 
d="M477 886v-89h-298v89h298zM504 710h128l-231 -522c-48 -109 -82 -196 -201 -196c-32 0 -91 12 -117 34l41 102c29 -14 53 -20 74 -20c47 0 75 35 95 96l-280 506h137l193 -366h2z" />
    <glyph glyph-name="uni04F0" unicode="&#x4f0;" horiz-adv-x="645" 
d="M228 793c-41 0 -74 34 -74 74c0 39 33 72 74 72s75 -34 75 -73c0 -40 -34 -73 -75 -73zM427 793c-41 0 -74 34 -74 74c0 39 33 72 74 72s75 -34 75 -73c0 -40 -34 -73 -75 -73zM504 710h128l-231 -522c-48 -109 -82 -196 -201 -196c-32 0 -91 12 -117 34l41 102
c29 -14 53 -20 74 -20c47 0 75 35 95 96l-280 506h137l193 -366h2z" />
    <glyph glyph-name="uni04F2" unicode="&#x4f2;" horiz-adv-x="645" 
d="M409 932l-124 -145h-105l115 144zM475 787h-104l114 144l114 1zM504 710h128l-231 -522c-48 -109 -82 -196 -201 -196c-32 0 -91 12 -117 34l41 102c29 -14 53 -20 74 -20c47 0 75 35 95 96l-280 506h137l193 -366h2z" />
    <glyph glyph-name="uni04F4" unicode="&#x4f4;" horiz-adv-x="663" 
d="M231 793c-41 0 -74 34 -74 74c0 39 33 72 74 72s75 -34 75 -73c0 -40 -34 -73 -75 -73zM430 793c-41 0 -74 34 -74 74c0 39 33 72 74 72s75 -34 75 -73c0 -40 -34 -73 -75 -73zM455 710h121v-710h-121v284c-40 -21 -115 -41 -185 -41c-141 0 -204 82 -204 235v232h121
v-214c0 -116 42 -141 117 -141c55 0 114 12 151 32v323z" />
    <glyph glyph-name="uni04F6" unicode="&#x4f6;" horiz-adv-x="572" 
d="M536 602h-328v-494h98v-245h-101l-6 137h-112v710h449v-108z" />
    <glyph glyph-name="uni04F8" unicode="&#x4f8;" horiz-adv-x="883" 
d="M342 793c-41 0 -74 34 -74 74c0 39 33 72 74 72s75 -34 75 -73c0 -40 -34 -73 -75 -73zM541 793c-41 0 -74 34 -74 74c0 39 33 72 74 72s75 -34 75 -73c0 -40 -34 -73 -75 -73zM87 0v710h121v-261h116c193 0 254 -93 254 -217c0 -149 -73 -232 -255 -232h-236zM675 0v710
h121v-710h-121zM208 108h115c89 0 130 41 130 117c0 82 -49 116 -129 116h-116v-233z" />
    <glyph glyph-name="uni04FA" unicode="&#x4fa;" horiz-adv-x="596" 
d="M560 602h-328v-212h181v-94h-181v-307c0 -155 -70 -194 -147 -194c-23 0 -53 3 -86 14l9 98c19 -6 34 -10 48 -10c38 0 55 27 55 67v332h-99v94h99v320h449v-108z" />
    <glyph glyph-name="uni04FC" unicode="&#x4fc;" horiz-adv-x="688" 
d="M448 -205c-35 0 -67 5 -88 14l9 98c20 -8 40 -11 59 -11c47 0 85 24 85 71c0 41 -14 74 -48 124l-118 171h-2l-173 -262h-140l235 356l-230 354h141l170 -262h1l170 262h138l-230 -354l136 -199c54 -79 72 -127 72 -188c0 -125 -92 -174 -187 -174z" />
    <glyph glyph-name="uni04FE" unicode="&#x4fe;" horiz-adv-x="694" 
d="M448 305l215 -305h-142l-174 262h-2l-173 -262h-140l212 305h-135v94h139l-211 311h141l170 -272h1l170 272h138l-212 -311h146v-94h-143z" />
    <glyph glyph-name="uni0510" unicode="&#x510;" horiz-adv-x="618" 
d="M309 -8c-168 0 -264 81 -264 194c0 98 73 166 143 181v2c-73 33 -110 103 -110 171c0 111 92 178 230 178c105 0 193 -39 241 -89l-72 -89c-40 43 -96 66 -160 66c-78 0 -115 -37 -115 -87c0 -61 58 -100 124 -100h98v-104h-106c-97 0 -147 -42 -147 -107
c0 -64 50 -104 143 -104c75 0 132 23 181 97l90 -81c-67 -94 -162 -128 -276 -128z" />
    <glyph glyph-name="uni0512" unicode="&#x512;" horiz-adv-x="735" 
d="M648 710v-713c0 -163 -100 -202 -195 -202c-35 0 -55 3 -88 14l9 98c17 -8 43 -11 58 -11c72 0 95 49 95 96v610h-205c-5 -109 -12 -219 -21 -306c-20 -191 -64 -300 -202 -300c-26 0 -60 5 -78 11l9 99c10 -2 29 -3 39 -3c89 0 103 101 119 241c12 115 16 257 17 366
h443z" />
    <glyph glyph-name="uni051A" unicode="&#x51a;" horiz-adv-x="848" 
d="M792 65l-68 -86l-90 82c-60 -44 -136 -69 -220 -69c-213 0 -359 154 -359 363s146 363 359 363c205 0 358 -146 358 -363c0 -84 -23 -157 -63 -216zM180 355c0 -146 102 -250 234 -250c50 0 94 15 130 40l-71 65l67 80l74 -66c21 38 32 83 32 131c0 139 -93 250 -232 250
c-132 0 -234 -104 -234 -250z" />
    <glyph glyph-name="uni051C" unicode="&#x51c;" horiz-adv-x="1035" 
d="M257 0l-225 710h129l152 -512h2l139 512h128l138 -511h2l153 511h128l-225 -710h-113l-145 534h-2l-148 -534h-113z" />
    <glyph glyph-name="uni048C" unicode="&#x48c;" horiz-adv-x="658" 
d="M366 436c193 0 254 -93 254 -209c0 -144 -73 -227 -255 -227h-260v539h-97v94h97v77h121v-77h136v-94h-136v-103h140zM365 108c89 0 130 41 130 112c0 74 -49 108 -129 108h-140v-220h139z" />
    <glyph glyph-name="uni048E" unicode="&#x48e;" horiz-adv-x="633" 
d="M591 480c0 -98 -42 -163 -111 -197l66 -125l-86 -45l-76 143c-16 -2 -33 -3 -50 -3h-126v-253h-121v710h261c170 0 243 -98 243 -230zM208 362h114h9l-57 107l80 40l68 -127c32 20 44 53 44 100c0 75 -48 120 -135 120h-123v-240z" />
    <glyph glyph-name="uni0416.alt" horiz-adv-x="955" 
d="M934 0h-144l-186 301l-72 4v-305h-116v306l-76 -4l-180 -302h-139l231 382l-228 328h147l204 -306l41 -3v309h116v-310l44 4l201 306h141l-222 -327z" />
    <glyph glyph-name="uni041A.alt" horiz-adv-x="662" 
d="M642 0h-146l-207 302l-81 3v-305h-121v710h121v-310l74 4l208 306h141l-238 -341z" />
    <glyph glyph-name="uni040C.alt" horiz-adv-x="662" 
d="M479 908l-126 -133h-111l112 133h125zM642 0h-146l-207 302l-81 3v-305h-121v710h121v-310l74 4l208 306h141l-238 -341z" />
    <glyph glyph-name="uni0496.alt" horiz-adv-x="1014" 
d="M983 108v-245h-101l-6 137h-86l-186 301l-72 4v-305h-116v306l-76 -4l-180 -302h-139l231 382l-228 328h147l204 -306l41 -3v309h116v-310l44 4l201 306h141l-222 -327l171 -275h116z" />
    <glyph glyph-name="uni049A.alt" horiz-adv-x="721" 
d="M692 108v-245h-101l-6 137h-89l-207 302l-81 3v-305h-121v710h121v-310l74 4l208 306h141l-238 -341l176 -261h123z" />
    <glyph glyph-name="uni049E.alt" horiz-adv-x="671" 
d="M651 0h-146l-207 302l-81 3v-305h-121v544h-89v94h89v72h121v-72h104v-94h-104v-144l74 4l208 306h141l-238 -341z" />
    <glyph glyph-name="uni04A0.alt" horiz-adv-x="749" 
d="M729 0h-146l-207 302l-81 3v-305h-121v602h-166v108h287v-310l74 4l208 306h141l-238 -341z" />
    <glyph glyph-name="uni04C1.alt" horiz-adv-x="955" 
d="M474 768c-77 0 -151 32 -171 137l98 10c3 -29 22 -77 73 -77c52 0 70 48 73 77l98 -10c-20 -105 -94 -137 -171 -137zM934 0h-144l-186 301l-72 4v-305h-116v306l-76 -4l-180 -302h-139l231 382l-228 328h147l204 -306l41 -3v309h116v-310l44 4l201 306h141l-222 -327z
" />
    <glyph glyph-name="uni04C3.alt" horiz-adv-x="675" 
d="M405 387c126 -24 215 -127 215 -277c0 -210 -105 -313 -264 -313c-33 0 -59 4 -82 9l9 101c22 -4 47 -6 64 -6c92 0 148 71 148 195c0 143 -99 205 -215 205c-22 0 -47 -2 -72 -6v-295h-121v710h121v-310c25 1 49 3 74 4l208 306h141z" />
    <glyph glyph-name="uni04DC.alt" horiz-adv-x="955" 
d="M374 793c-41 0 -74 34 -74 74c0 39 33 72 74 72s75 -34 75 -73c0 -40 -34 -73 -75 -73zM573 793c-41 0 -74 34 -74 74c0 39 33 72 74 72s75 -34 75 -73c0 -40 -34 -73 -75 -73zM934 0h-144l-186 301l-72 4v-305h-116v306l-76 -4l-180 -302h-139l231 382l-228 328h147
l204 -306l41 -3v309h116v-310l44 4l201 306h141l-222 -327z" />
    <glyph glyph-name="uni051A.alt" horiz-adv-x="828" 
d="M772 355c0 -131 -57 -237 -147 -300l138 -114l-73 -90l-180 152c-30 -7 -63 -11 -96 -11c-213 0 -359 154 -359 363s146 363 359 363c205 0 358 -146 358 -363zM180 355c0 -139 95 -250 234 -250c131 0 232 105 232 250c0 146 -101 250 -232 250
c-139 0 -234 -111 -234 -250z" />
    <glyph glyph-name="uni0528" unicode="&#x528;" horiz-adv-x="736" 
d="M528 710h121v-710h-121v285h-320v-296c0 -155 -70 -194 -147 -194c-23 0 -53 3 -86 14l9 98c19 -6 34 -10 48 -10c38 0 55 27 55 67v746h121v-317h320v317z" />
    <glyph glyph-name="uni052E" unicode="&#x52e;" horiz-adv-x="782" 
d="M746 108v-245h-101l-6 137h-112v602h-205c-5 -109 -12 -219 -21 -306c-20 -191 -64 -300 -202 -300c-26 0 -60 5 -78 11l9 99c10 -2 29 -3 39 -3c89 0 103 101 119 241c12 115 16 257 17 366h443v-602h98z" />
    <glyph glyph-name="uni0414.loclBGR" horiz-adv-x="772" 
d="M753 108v-245h-101l-6 137h-520l-6 -137h-101v245h78l226 602h121l228 -602h81zM224 108h319l-158 454h-2z" />
    <glyph glyph-name="uni041B.loclBGR" horiz-adv-x="684" 
d="M26 0l255 710h120l256 -710h-131l-183 540h-4l-183 -540h-130z" />
    <glyph glyph-name="uni0424.loclBGR" horiz-adv-x="849" 
d="M809 361c0 -192 -130 -334 -325 -350v-69h-117v68c-207 14 -327 166 -327 343c0 184 121 337 327 354v62h117v-62c189 -15 325 -154 325 -346zM164 354c0 -132 66 -230 205 -240v486c-138 -11 -205 -107 -205 -246zM483 114c125 13 201 105 201 245
c0 135 -75 229 -201 241v-486z" />
    <glyph glyph-name="uni0430" unicode="&#x430;" horiz-adv-x="611" 
d="M279 -8c-135 0 -236 99 -236 250c0 147 101 253 235 253c62 0 116 -23 151 -67l2 1v59h112v-488h-107v64l-2 1c-35 -47 -87 -73 -155 -73zM297 94c76 0 139 59 139 147c0 87 -59 153 -139 153c-78 0 -140 -59 -140 -153c0 -86 57 -147 140 -147z" />
    <glyph glyph-name="uni0431" unicode="&#x431;" horiz-adv-x="605" 
d="M321 -8c-189 0 -256 146 -256 323c0 220 39 358 245 395l189 34l31 -98l-198 -37c-141 -26 -153 -92 -166 -213l2 -1c33 53 84 95 173 95c121 0 223 -100 223 -243c0 -148 -105 -255 -243 -255zM316 93c70 0 134 59 134 154c0 83 -61 142 -135 142
c-97 0 -136 -85 -137 -136c0 -89 57 -160 138 -160z" />
    <glyph glyph-name="uni0432" unicode="&#x432;" horiz-adv-x="542" 
d="M73 0v488h234c110 0 170 -39 170 -119c0 -56 -23 -93 -80 -112v-1c64 -13 105 -54 105 -117c0 -80 -46 -139 -186 -139h-243zM183 291h108c54 0 76 16 76 53c0 39 -30 51 -65 51h-119v-104zM183 93h125c55 0 80 17 80 58c0 37 -27 53 -76 53h-129v-111z" />
    <glyph glyph-name="uni0433" unicode="&#x433;" horiz-adv-x="434" 
d="M73 0v488h335v-98h-223v-390h-112z" />
    <glyph glyph-name="uni0453" unicode="&#x453;" horiz-adv-x="434" 
d="M147 556l115 144l123 1l-124 -145h-114zM73 0v488h335v-98h-223v-390h-112z" />
    <glyph glyph-name="uni0491" unicode="&#x491;" horiz-adv-x="434" 
d="M314 618h94v-228h-223v-390h-112v488h235z" />
    <glyph glyph-name="uni0434" unicode="&#x434;" horiz-adv-x="625" 
d="M598 98v-228h-94l-6 130h-375l-6 -130h-94v228h80c25 49 42 104 52 161c14 75 18 154 18 229h336v-390h89zM216 98h181v292h-117c-3 -54 -9 -111 -22 -167c-10 -44 -24 -86 -42 -125z" />
    <glyph glyph-name="uni0435" unicode="&#x435;" horiz-adv-x="562" 
d="M519 250c0 -18 -2 -35 -3 -43h-356c14 -71 67 -113 143 -113c58 0 98 26 123 57l78 -67c-41 -53 -102 -92 -207 -92c-148 0 -253 99 -253 252c0 150 102 251 245 251c137 0 230 -103 230 -245zM288 394c-62 0 -110 -35 -126 -99h244c-14 59 -54 99 -118 99z" />
    <glyph glyph-name="uni0450" unicode="&#x450;" horiz-adv-x="561" 
d="M370 554h-111l-124 144l125 -1zM519 250c0 -18 -2 -35 -3 -43h-356c14 -71 67 -113 143 -113c58 0 98 26 123 57l78 -67c-41 -53 -102 -92 -207 -92c-148 0 -253 99 -253 252c0 150 102 251 245 251c137 0 230 -103 230 -245zM288 394c-62 0 -110 -35 -126 -99h244
c-14 59 -54 99 -118 99z" />
    <glyph glyph-name="uni0451" unicode="&#x451;" horiz-adv-x="562" 
d="M191 562c-41 0 -74 34 -74 74c0 39 33 72 74 72s75 -34 75 -73c0 -40 -34 -73 -75 -73zM390 562c-41 0 -74 34 -74 74c0 39 33 72 74 72s75 -34 75 -73c0 -40 -34 -73 -75 -73zM519 250c0 -18 -2 -35 -3 -43h-356c14 -71 67 -113 143 -113c58 0 98 26 123 57l78 -67
c-41 -53 -102 -92 -207 -92c-148 0 -253 99 -253 252c0 150 102 251 245 251c137 0 230 -103 230 -245zM288 394c-62 0 -110 -35 -126 -99h244c-14 59 -54 99 -118 99z" />
    <glyph glyph-name="uni0436" unicode="&#x436;" horiz-adv-x="783" 
d="M17 0l186 267l-181 221h132l182 -228h2v228h108v-233h1l181 233h128l-177 -221l187 -267h-129l-137 208l-54 -64v-144h-108v146l-56 64l-139 -210h-126z" />
    <glyph glyph-name="uni0437" unicode="&#x437;" horiz-adv-x="491" 
d="M238 -8c-91 0 -160 24 -199 50l34 98c49 -35 111 -49 165 -49c58 0 99 18 99 60c0 37 -33 51 -86 51h-106v88h87c58 0 83 17 83 52c0 43 -34 54 -80 54c-47 0 -99 -12 -139 -33l-42 89c29 16 99 43 179 43c119 0 193 -45 193 -123c0 -48 -28 -93 -82 -113v-1
c58 -15 107 -56 107 -123c0 -87 -79 -143 -213 -143z" />
    <glyph glyph-name="uni0438" unicode="&#x438;" horiz-adv-x="593" 
d="M73 0v488h112v-328h2l227 328h106v-488h-112v318h-2l-225 -318h-108z" />
    <glyph glyph-name="uni0439" unicode="&#x439;" horiz-adv-x="593" 
d="M304 551c-77 0 -151 32 -171 137l98 18c3 -37 22 -85 73 -85c52 0 70 48 73 85l98 -18c-20 -105 -94 -137 -171 -137zM73 0v488h112v-328h2l227 328h106v-488h-112v318h-2l-225 -318h-108z" />
    <glyph glyph-name="uni045D" unicode="&#x45d;" horiz-adv-x="593" 
d="M287 554l-124 144l125 -1l110 -143h-111zM73 0v488h112v-328h2l227 328h106v-488h-112v318h-2l-225 -318h-108z" />
    <glyph glyph-name="uni048B" unicode="&#x48b;" horiz-adv-x="626" 
d="M304 551c-77 0 -151 32 -171 137l98 18c3 -37 22 -85 73 -85c52 0 70 48 73 85l98 -18c-20 -105 -94 -137 -171 -137zM520 98h98v-27l-83 -201h-78l39 130h-88v318h-2l-225 -318h-108v488h112v-328h2l227 328h106v-390z" />
    <glyph glyph-name="uni043A" unicode="&#x43a;" horiz-adv-x="551" 
d="M73 0v488h112v-230h2l199 230h137l-188 -210l199 -278h-131l-148 212l-70 -78v-134h-112z" />
    <glyph glyph-name="uni045C" unicode="&#x45c;" horiz-adv-x="551" 
d="M185 556l115 144l123 1l-124 -145h-114zM73 0v488h112v-230h2l199 230h137l-188 -210l199 -278h-131l-148 212l-70 -78v-134h-112z" />
    <glyph glyph-name="uni043B" unicode="&#x43b;" horiz-adv-x="574" 
d="M148 488h353v-488h-112v390h-132c-3 -73 -7 -141 -15 -199c-17 -119 -64 -196 -167 -196c-19 0 -41 3 -54 8l7 96c7 -1 13 -2 24 -2c51 0 77 54 86 131c9 75 10 189 10 260z" />
    <glyph glyph-name="uni043C" unicode="&#x43c;" horiz-adv-x="691" 
d="M73 0v488h109l162 -283h2l163 283h109v-488h-108v303h-2l-126 -221h-73l-126 219h-2v-301h-108z" />
    <glyph glyph-name="uni043D" unicode="&#x43d;" horiz-adv-x="584" 
d="M73 0v488h112v-201h214v201h112v-488h-112v192h-214v-192h-112z" />
    <glyph glyph-name="uni043E" unicode="&#x43e;" horiz-adv-x="600" 
d="M300 -8c-154 0 -256 108 -256 251c0 144 102 252 256 252c150 0 256 -102 256 -252c0 -148 -106 -251 -256 -251zM300 94c79 0 142 61 142 149c0 90 -62 151 -142 151c-85 0 -142 -66 -142 -151c0 -83 58 -149 142 -149z" />
    <glyph glyph-name="uni043F" unicode="&#x43f;" horiz-adv-x="570" 
d="M73 0v488h424v-488h-112v390h-200v-390h-112z" />
    <glyph glyph-name="uni0440" unicode="&#x440;" horiz-adv-x="621" 
d="M73 -198v686h112v-58h2c36 42 90 65 154 65c135 0 236 -106 236 -253c0 -151 -101 -250 -237 -250c-66 0 -117 24 -153 68l-2 -1v-257h-112zM323 94c82 0 140 61 140 147c0 94 -63 153 -141 153c-84 0 -142 -66 -142 -153c0 -88 63 -147 143 -147z" />
    <glyph glyph-name="uni0441" unicode="&#x441;" horiz-adv-x="532" 
d="M293 -8c-144 0 -249 102 -249 251c0 150 105 252 253 252c76 0 156 -31 205 -91l-76 -66c-28 33 -70 56 -123 56c-87 0 -145 -61 -145 -150c0 -90 59 -150 145 -150c54 0 98 24 123 57l77 -68c-41 -53 -104 -91 -210 -91z" />
    <glyph glyph-name="uni0442" unicode="&#x442;" horiz-adv-x="474" 
d="M181 0v390h-152v98h416v-98h-152v-390h-112z" />
    <glyph glyph-name="uni0443" unicode="&#x443;" horiz-adv-x="535" 
d="M131 -198l88 225l-200 461h120l134 -327h2l125 327h115l-268 -686h-116z" />
    <glyph glyph-name="uni045E" unicode="&#x45e;" horiz-adv-x="535" 
d="M268 551c-77 0 -151 32 -171 137l98 18c3 -37 22 -85 73 -85c52 0 70 48 73 85l98 -18c-20 -105 -94 -137 -171 -137zM131 -198l88 225l-200 461h120l134 -327h2l125 327h115l-268 -686h-116z" />
    <glyph glyph-name="uni0444" unicode="&#x444;" horiz-adv-x="718" 
d="M681 241c0 -140 -104 -240 -266 -248v-191h-112v191c-169 6 -266 103 -266 248c0 142 103 248 266 254v241h112v-241c163 -4 266 -106 266 -254zM413 89c108 8 154 64 154 151c0 93 -59 151 -154 160v-311zM151 239c0 -89 47 -143 154 -150v311
c-98 -10 -154 -71 -154 -161z" />
    <glyph glyph-name="uni0445" unicode="&#x445;" horiz-adv-x="527" 
d="M27 0l172 249l-171 239h130l103 -154h2l105 154h129l-170 -240l173 -248h-125l-111 154h-1l-112 -154h-124z" />
    <glyph glyph-name="uni0447" unicode="&#x447;" horiz-adv-x="541" 
d="M356 488h112v-488h-112v184c-35 -16 -94 -30 -139 -30c-116 0 -173 55 -173 172v162h112v-136c0 -89 41 -100 93 -100c41 0 80 10 107 22v214z" />
    <glyph glyph-name="uni0446" unicode="&#x446;" horiz-adv-x="606" 
d="M579 98v-228h-94l-6 130h-406v488h112v-390h187v390h112v-390h95z" />
    <glyph glyph-name="uni0448" unicode="&#x448;" horiz-adv-x="818" 
d="M71 0v488h112v-390h170v390h112v-390h170v390h112v-488h-676z" />
    <glyph glyph-name="uni0449" unicode="&#x449;" horiz-adv-x="867" 
d="M842 98v-228h-94l-6 130h-671v488h112v-390h170v390h112v-390h170v390h112v-390h95z" />
    <glyph glyph-name="uni045F" unicode="&#x45f;" horiz-adv-x="564" 
d="M491 488v-488h-158l-3 -130h-94l-3 130h-160v488h112v-390h194v390h112z" />
    <glyph glyph-name="uni044C" unicode="&#x44c;" horiz-adv-x="507" 
d="M73 0v488h112v-150h88c150 0 200 -69 200 -169c0 -98 -54 -169 -205 -169h-195zM185 95h84c59 0 90 24 90 73c0 53 -31 77 -90 77h-84v-150z" />
    <glyph glyph-name="uni044A" unicode="&#x44a;" horiz-adv-x="564" 
d="M330 338c150 0 200 -69 200 -169c0 -98 -54 -169 -205 -169h-195v390h-125v98h237v-150h88zM326 95c59 0 90 24 90 73c0 53 -31 77 -90 77h-84v-150h84z" />
    <glyph glyph-name="uni044B" unicode="&#x44b;" horiz-adv-x="730" 
d="M73 0v488h112v-150h78c150 0 200 -69 200 -169c0 -98 -54 -169 -205 -169h-185zM545 0v488h112v-488h-112zM185 95h74c59 0 90 24 90 73c0 53 -31 77 -90 77h-74v-150z" />
    <glyph glyph-name="uni0459" unicode="&#x459;" horiz-adv-x="806" 
d="M582 338c150 0 200 -69 200 -169c0 -98 -54 -169 -205 -169h-195v390h-131c-3 -73 -7 -141 -15 -199c-17 -119 -64 -196 -164 -196c-19 0 -41 3 -54 8l7 96c7 -1 13 -2 24 -2c51 0 77 54 86 131c9 75 10 189 10 260h349v-150h88zM578 95c59 0 90 24 90 73
c0 53 -31 77 -90 77h-84v-150h84z" />
    <glyph glyph-name="uni045A" unicode="&#x45a;" horiz-adv-x="829" 
d="M617 318c143 0 188 -65 188 -159c0 -92 -51 -159 -193 -159h-223v208h-207v-208h-112v488h112v-185h207v185h111v-170h117zM608 95c56 0 83 21 83 63c0 45 -27 67 -83 67h-108v-130h108z" />
    <glyph glyph-name="uni0455" unicode="&#x455;" horiz-adv-x="449" 
d="M229 -8c-79 0 -146 26 -197 71l56 84c39 -38 81 -57 141 -57c43 0 68 19 68 48c0 25 -32 37 -96 59c-80 28 -149 64 -149 160c0 80 72 138 172 138c62 0 118 -17 172 -61l-56 -88c-39 37 -84 52 -122 52c-22 0 -53 -12 -53 -42c0 -24 30 -41 77 -59
c104 -41 169 -60 169 -157c0 -82 -58 -148 -182 -148z" />
    <glyph glyph-name="uni0454" unicode="&#x454;" horiz-adv-x="536" 
d="M437 138l70 -72c-35 -44 -116 -73 -195 -74c-195 0 -268 112 -268 253c0 143 89 250 259 250c68 0 137 -17 189 -66l-69 -72c-32 28 -77 38 -116 38c-79 0 -132 -35 -147 -104h241v-88h-242c15 -72 69 -110 158 -110c51 0 92 14 120 45z" />
    <glyph glyph-name="uni044D" unicode="&#x44d;" horiz-adv-x="535" 
d="M228 495c172 0 263 -101 263 -255c0 -139 -71 -248 -264 -248c-69 0 -156 26 -196 63l58 84c38 -30 86 -48 150 -47c76 2 125 34 138 111h-243v88h243c-14 69 -67 102 -151 104c-42 1 -89 -11 -135 -33l-42 91c28 17 101 42 179 42z" />
    <glyph glyph-name="uni0456" unicode="&#x456;" horiz-adv-x="272" 
d="M136 560c-42 0 -75 34 -75 75c0 40 33 74 75 74s76 -34 76 -74c0 -41 -34 -75 -76 -75zM80 0v488h112v-488h-112z" />
    <glyph glyph-name="uni0457" unicode="&#x457;" horiz-adv-x="272" 
d="M49 560c-43 0 -76 34 -76 75c0 40 33 74 76 74c41 0 75 -34 75 -74c0 -41 -34 -75 -75 -75zM225 562c-41 0 -75 33 -75 73c0 39 34 73 75 73c40 0 74 -34 74 -73c0 -40 -34 -73 -74 -73zM80 0v488h112v-488h-112z" />
    <glyph glyph-name="uni0458" unicode="&#x458;" horiz-adv-x="249" 
d="M125 560c-42 0 -75 34 -75 75c0 40 33 74 75 74s76 -34 76 -74c0 -41 -34 -75 -76 -75zM46 -206c-35 0 -58 3 -95 18l19 97c14 -9 36 -14 51 -14c31 0 49 23 49 72v521h112v-521c0 -114 -60 -173 -136 -173z" />
    <glyph glyph-name="uni045B" unicode="&#x45b;" horiz-adv-x="590" 
d="M356 456c99 0 174 -57 174 -203v-253h-112v224c0 97 -39 131 -98 131c-85 0 -135 -50 -135 -146v-209h-112v547h-67v92h67v97h112v-97h172v-92h-172v-159h1c41 45 100 68 170 68z" />
    <glyph glyph-name="uni044E" unicode="&#x44e;" horiz-adv-x="804" 
d="M516 495c148 0 247 -102 247 -252c0 -148 -99 -251 -247 -251c-128 0 -220 81 -240 200h-94v-192h-112v488h112v-201h93c18 124 110 208 241 208zM516 94c77 0 133 61 133 149c0 90 -55 151 -133 151s-133 -63 -133 -151c0 -86 56 -149 133 -149z" />
    <glyph glyph-name="uni044F" unicode="&#x44f;" horiz-adv-x="545" 
d="M255 488h217v-488h-112v165h-82l-117 -165h-127l130 178c-70 23 -109 75 -109 145c0 98 65 165 200 165zM360 257v136h-106c-56 0 -85 -23 -85 -70c0 -38 22 -66 81 -66h110z" />
    <glyph glyph-name="uni0452" unicode="&#x452;" horiz-adv-x="590" 
d="M530 -9c1 -133 -62 -196 -177 -196c-26 0 -47 3 -75 14l8 89c21 -8 39 -10 52 -10c60 0 80 30 80 92l1 244c0 97 -40 131 -99 131c-85 0 -135 -50 -135 -146v-209h-112v547h-67v92h67v97h112v-97h172v-92h-172v-159h1c41 45 100 68 170 68c99 0 174 -57 174 -203v-262z
" />
    <glyph glyph-name="uni0463" unicode="&#x463;" horiz-adv-x="568" 
d="M346 318c141 0 188 -65 188 -159c0 -92 -51 -159 -193 -159h-216v392h-125v96h125v248h111v-248h164v-96h-164v-74h110zM342 95c51 0 78 21 78 63c0 46 -27 67 -78 67h-106v-130h106z" />
    <glyph glyph-name="uni0473" unicode="&#x473;" horiz-adv-x="600" 
d="M300 495c152 0 256 -100 256 -252c0 -150 -104 -251 -256 -251c-155 0 -256 106 -256 251c0 146 101 252 256 252zM300 396c-75 0 -126 -39 -142 -107h286c-18 68 -74 107 -144 107zM300 92c71 0 129 43 145 112h-288c14 -69 67 -112 143 -112z" />
    <glyph glyph-name="uni0475" unicode="&#x475;" horiz-adv-x="548" 
d="M214 0l-194 488h119l128 -348h1l71 231c26 86 52 124 125 124c28 0 59 -6 82 -20l-22 -86c-12 5 -22 7 -32 7c-27 0 -38 -23 -55 -69l-119 -327h-104z" />
    <glyph glyph-name="uni0493" unicode="&#x493;" horiz-adv-x="434" 
d="M408 390h-223v-138h162v-76h-162v-176h-112v176h-67v76h67v236h335v-98z" />
    <glyph glyph-name="uni0495" unicode="&#x495;" horiz-adv-x="528" 
d="M512 44c2 -173 -89 -249 -224 -249c-29 0 -51 3 -71 9l8 91c19 -4 36 -6 52 -6c80 0 121 62 121 146c0 89 -50 133 -129 133c-32 0 -58 -5 -84 -13v-155h-112v488h335v-98h-223v-144c36 14 70 21 106 21c125 0 219 -80 221 -223z" />
    <glyph glyph-name="uni0497" unicode="&#x497;" horiz-adv-x="817" 
d="M790 98v-228h-94l-6 130h-53l-137 208l-54 -64v-144h-108v146l-56 64l-139 -210h-126l186 267l-181 221h132l182 -228h2v228h108v-233h1l181 233h128l-177 -221l118 -169h93z" />
    <glyph glyph-name="uni0499" unicode="&#x499;" horiz-adv-x="491" 
d="M451 135c0 -76 -61 -129 -166 -141l-7 -22c40 -14 64 -39 64 -70c0 -55 -36 -89 -112 -89c-19 0 -40 2 -64 6v65c17 -5 34 -8 49 -8c27 0 46 9 46 28c0 16 -17 26 -59 33l9 56c-78 4 -137 26 -172 49l34 98c49 -35 111 -49 165 -49c58 0 99 18 99 60c0 37 -33 51 -86 51
h-106v88h87c58 0 83 17 83 52c0 43 -34 54 -80 54c-47 0 -99 -12 -139 -33l-42 89c29 16 99 43 179 43c119 0 193 -45 193 -123c0 -48 -28 -93 -82 -113v-1c58 -15 107 -56 107 -123z" />
    <glyph glyph-name="uni049B" unicode="&#x49b;" horiz-adv-x="585" 
d="M558 98v-228h-94l-6 130h-55l-148 212l-70 -78v-134h-112v488h112v-230h2l199 230h137l-188 -210l129 -180h94z" />
    <glyph glyph-name="uni049D" unicode="&#x49d;" horiz-adv-x="607" 
d="M464 0l-120 195h-22v-120h-76v122l-61 2v-199h-112v488h112v-213l61 2v127h76v-124l14 1l122 207h120l-144 -237l156 -251h-126z" />
    <glyph glyph-name="uni049F" unicode="&#x49f;" horiz-adv-x="551" 
d="M335 278l199 -278h-131l-148 212l-70 -78v-134h-112v562h-67v76h67v98h112v-98h160v-76h-160v-304h2l199 230h137z" />
    <glyph glyph-name="uni04A1" unicode="&#x4a1;" horiz-adv-x="629" 
d="M413 278l199 -278h-131l-148 212l-70 -78v-134h-112v390h-146v98h258v-230h2l199 230h137z" />
    <glyph glyph-name="uni04A3" unicode="&#x4a3;" horiz-adv-x="633" 
d="M606 98v-228h-94l-6 130h-107v192h-214v-192h-112v488h112v-201h214v201h112v-390h95z" />
    <glyph glyph-name="uni04A5" unicode="&#x4a5;" horiz-adv-x="669" 
d="M643 488v-98h-143v-390h-112v192h-203v-192h-112v488h112v-201h203v201h255z" />
    <glyph glyph-name="uni04A7" unicode="&#x4a7;" horiz-adv-x="832" 
d="M816 44c2 -174 -89 -249 -224 -249c-29 0 -51 3 -71 9l8 91c19 -4 36 -6 52 -6c80 0 121 62 121 146c0 89 -50 133 -129 133c-32 0 -58 -5 -84 -13v-155h-112v390h-192v-390h-112v488h416v-242c36 14 70 21 106 21c125 0 219 -80 221 -223z" />
    <glyph glyph-name="uni0525" unicode="&#x525;" horiz-adv-x="619" 
d="M592 98v-228h-94l-6 130h-107v390h-200v-390h-112v488h424v-390h95z" />
    <glyph glyph-name="uni04A9" unicode="&#x4a9;" horiz-adv-x="643" 
d="M626 0c-13 -4 -47 -8 -73 -8c-42 0 -97 12 -126 35c-36 -24 -86 -35 -136 -35c-159 0 -257 103 -257 253c0 140 103 250 224 250c22 0 41 -3 49 -5l-41 -96h-6c-62 -5 -112 -67 -112 -153c0 -96 61 -160 166 -160c10 0 20 1 29 2l1 3c-45 41 -69 102 -69 166
c0 107 57 208 165 208c104 0 153 -85 153 -188c0 -69 -33 -146 -81 -189v-2c7 -1 15 -1 22 -1c28 0 54 5 80 16zM384 255c-1 -54 18 -107 45 -136c21 25 50 58 52 141c1 47 -13 99 -44 99c-23 0 -52 -35 -53 -104z" />
    <glyph glyph-name="uni04AB" unicode="&#x4ab;" horiz-adv-x="532" 
d="M503 83c-36 -47 -90 -82 -177 -90l-6 -21c40 -14 64 -39 64 -70c0 -55 -36 -89 -112 -89c-19 0 -40 2 -64 6v65c17 -5 34 -8 49 -8c27 0 46 9 46 28c0 16 -17 26 -59 33l9 58c-123 17 -209 113 -209 248c0 150 105 252 253 252c76 0 156 -31 205 -91l-76 -66
c-28 33 -70 56 -123 56c-87 0 -145 -61 -145 -150c0 -90 59 -150 145 -150c54 0 98 24 123 57z" />
    <glyph glyph-name="uni04AD" unicode="&#x4ad;" horiz-adv-x="474" 
d="M445 390h-152v-292h89v-228h-94l-6 130h-101v390h-152v98h416v-98z" />
    <glyph glyph-name="uni04AF" unicode="&#x4af;" horiz-adv-x="534" 
d="M514 488l-190 -500v-186h-112v183l-192 503h119l128 -368h1l126 368h120z" />
    <glyph glyph-name="uni04B1" unicode="&#x4b1;" horiz-adv-x="534" 
d="M514 488l-163 -411h103v-77h-130v-198h-112v198h-133v77h104l-163 411h119l128 -368h1l126 368h120z" />
    <glyph glyph-name="uni04B3" unicode="&#x4b3;" horiz-adv-x="561" 
d="M534 98v-228h-94l-6 130h-59l-111 154h-1l-112 -154h-124l172 249l-171 239h130l103 -154h2l105 154h129l-170 -240l105 -150h102z" />
    <glyph glyph-name="uni04B5" unicode="&#x4b5;" horiz-adv-x="708" 
d="M681 98v-228h-94l-6 130h-405v390h-152v98h395v-98h-131v-292h186v390h112v-390h95z" />
    <glyph glyph-name="uni04B7" unicode="&#x4b7;" horiz-adv-x="590" 
d="M563 98v-228h-94l-6 130h-107v184c-35 -16 -94 -30 -139 -30c-116 0 -173 55 -173 172v162h112v-136c0 -89 41 -100 93 -100c41 0 80 10 107 22v214h112v-390h95z" />
    </font>
</defs>
</svg>
