<?xml version="1.0" standalone="no"?>
<!DOCTYPE svg PUBLIC "-//W3C//DTD SVG 1.1//EN" "http://www.w3.org/Graphics/SVG/1.1/DTD/svg11.dtd" >
<svg xmlns="http://www.w3.org/2000/svg" xmlns:xlink="http://www.w3.org/1999/xlink" version="1.1">
<metadata>
Created by FontForge 20201107 at Sat Jul 15 12:33:06 2017
 By Jimmy Wärting
Copyright \(c\) 2015 by Kostas Bartsokas. All rights reserved.
</metadata>
<defs>
<font id="AvertaStdCY-BoldItalic" horiz-adv-x="0" >
  <font-face 
    font-family="Averta Std CY Bold"
    font-weight="700"
    font-style="italic"
    font-stretch="normal"
    units-per-em="1000"
    panose-1="0 0 8 0 0 0 0 0 0 0"
    ascent="800"
    descent="-200"
    x-height="489"
    cap-height="710"
    bbox="-729 -378 1387 1056"
    underline-thickness="53"
    underline-position="-90"
    slope="-7"
    stemh="95"
    stemv="101"
    unicode-range="U+000D-2E18"
  />
<missing-glyph horiz-adv-x="401" 
 />
    <glyph glyph-name=".notdef" horiz-adv-x="401" 
 />
    <glyph glyph-name="space" unicode=" " horiz-adv-x="192" 
 />
    <glyph glyph-name="A" unicode="A" horiz-adv-x="642" 
d="M-12 0l322 710h136l149 -710h-142l-26 144h-237l-61 -144h-141zM237 261h170l-51 281h-2z" />
    <glyph glyph-name="Aacute" unicode="&#xc1;" horiz-adv-x="642" 
d="M330 769l115 134l136 1l-130 -135h-121zM-12 0l322 710h136l149 -710h-142l-26 144h-237l-61 -144h-141zM237 261h170l-51 281h-2z" />
    <glyph glyph-name="Abreve" unicode="&#x102;" horiz-adv-x="642" 
d="M392 762c-95 0 -141 54 -134 142h95c-4 -26 9 -51 45 -51c35 0 61 27 68 51h95c-17 -82 -75 -142 -169 -142zM-12 0l322 710h136l149 -710h-142l-26 144h-237l-61 -144h-141zM237 261h170l-51 281h-2z" />
    <glyph glyph-name="uni1EAE" unicode="&#x1eae;" horiz-adv-x="642" 
d="M364 897l105 133l128 1l-142 -134h-91zM393 758c-100 0 -149 50 -141 131h100c-4 -24 9 -47 47 -47c37 0 65 25 72 47h100c-18 -76 -79 -131 -178 -131zM-12 0l322 710h136l149 -710h-142l-26 144h-237l-61 -144h-141zM237 261h170l-51 281h-2z" />
    <glyph glyph-name="uni1EB6" unicode="&#x1eb6;" horiz-adv-x="642" 
d="M392 762c-95 0 -141 54 -134 142h95c-4 -26 9 -51 45 -51c35 0 61 27 68 51h95c-17 -82 -75 -142 -169 -142zM-12 0l322 710h136l149 -710h-142l-26 144h-237l-61 -144h-141zM237 261h170l-51 281h-2zM278 -71c46 0 79 -34 79 -78c0 -46 -34 -80 -82 -80
c-46 0 -80 33 -80 77c0 46 35 81 83 81z" />
    <glyph glyph-name="uni1EB0" unicode="&#x1eb0;" horiz-adv-x="642" 
d="M370 898l-93 135l121 -1l58 -134h-86zM393 758c-100 0 -149 50 -141 131h100c-4 -24 9 -47 47 -47c37 0 65 25 72 47h100c-18 -76 -79 -131 -178 -131zM-12 0l322 710h136l149 -710h-142l-26 144h-237l-61 -144h-141zM237 261h170l-51 281h-2z" />
    <glyph glyph-name="uni1EB2" unicode="&#x1eb2;" horiz-adv-x="642" 
d="M437 890l-69 1c28 19 60 38 61 62c1 9 -8 16 -22 16c-20 0 -39 -7 -67 -26l-17 52c24 20 70 45 124 45c40 0 70 -18 70 -57c0 -48 -44 -78 -80 -93zM393 758c-100 0 -149 50 -141 131h100c-4 -24 9 -47 47 -47c37 0 65 25 72 47h100c-18 -76 -79 -131 -178 -131zM-12 0
l322 710h136l149 -710h-142l-26 144h-237l-61 -144h-141zM237 261h170l-51 281h-2z" />
    <glyph glyph-name="uni1EB4" unicode="&#x1eb4;" horiz-adv-x="642" 
d="M482 909c-34 0 -57 17 -73 28c-15 12 -28 20 -42 20c-21 0 -41 -20 -54 -49l-70 35c26 53 64 96 113 96c38 0 55 -15 72 -26c14 -10 28 -21 43 -21c21 0 42 20 55 48l69 -27c-25 -60 -65 -104 -113 -104zM393 758c-100 0 -149 50 -141 131h100c-4 -24 9 -47 47 -47
c37 0 65 25 72 47h100c-18 -76 -79 -131 -178 -131zM-12 0l322 710h136l149 -710h-142l-26 144h-237l-61 -144h-141zM237 261h170l-51 281h-2z" />
    <glyph glyph-name="uni01CD" unicode="&#x1cd;" horiz-adv-x="642" 
d="M327 769l-80 135h113l38 -66h2l54 66h112l-114 -135h-125zM-12 0l322 710h136l149 -710h-142l-26 144h-237l-61 -144h-141zM237 261h170l-51 281h-2z" />
    <glyph glyph-name="Acircumflex" unicode="&#xc2;" horiz-adv-x="642" 
d="M231 769l115 135h125l79 -135h-113l-37 66h-3l-54 -66h-112zM-12 0l322 710h136l149 -710h-142l-26 144h-237l-61 -144h-141zM237 261h170l-51 281h-2z" />
    <glyph glyph-name="uni1EA4" unicode="&#x1ea4;" horiz-adv-x="642" 
d="M546 828l107 138l128 1l-144 -139h-91zM232 769l115 135h125l79 -135h-113l-37 66h-3l-54 -66h-112zM-12 0l322 710h136l149 -710h-142l-26 144h-237l-61 -144h-141zM237 261h170l-51 281h-2z" />
    <glyph glyph-name="uni1EAC" unicode="&#x1eac;" horiz-adv-x="642" 
d="M231 769l115 135h125l79 -135h-113l-37 66h-3l-54 -66h-112zM-12 0l322 710h136l149 -710h-142l-26 144h-237l-61 -144h-141zM237 261h170l-51 281h-2zM278 -71c46 0 79 -34 79 -78c0 -46 -34 -80 -82 -80c-46 0 -80 33 -80 77c0 46 35 81 83 81z" />
    <glyph glyph-name="uni1EA6" unicode="&#x1ea6;" horiz-adv-x="642" 
d="M570 826l-93 140h121l59 -140h-87zM232 768l115 135h125l79 -135h-113l-37 66h-3l-54 -66h-112zM-12 0l322 710h136l149 -710h-142l-26 144h-237l-61 -144h-141zM237 261h170l-51 281h-2z" />
    <glyph glyph-name="uni1EA8" unicode="&#x1ea8;" horiz-adv-x="642" 
d="M612 839l-69 1c28 19 60 38 61 62c1 9 -8 16 -22 16c-20 0 -39 -7 -67 -26l-17 52c24 20 70 45 124 45c40 0 70 -18 70 -57c0 -48 -44 -78 -80 -93zM232 769l115 135h125l79 -135h-113l-37 66h-3l-54 -66h-112zM-12 0l322 710h136l149 -710h-142l-26 144h-237l-61 -144
h-141zM237 261h170l-51 281h-2z" />
    <glyph glyph-name="uni1EAA" unicode="&#x1eaa;" horiz-adv-x="642" 
d="M485 925c-34 0 -57 17 -73 28c-15 12 -28 20 -42 20c-21 0 -41 -20 -54 -49l-70 35c26 53 64 96 113 96c38 0 55 -15 72 -26c14 -10 28 -21 43 -21c21 0 42 20 55 48l69 -27c-25 -60 -65 -104 -113 -104zM232 769l115 135h125l79 -135h-113l-37 66h-3l-54 -66h-112z
M-12 0l322 710h136l149 -710h-142l-26 144h-237l-61 -144h-141zM237 261h170l-51 281h-2z" />
    <glyph glyph-name="Adieresis" unicode="&#xc4;" horiz-adv-x="642" 
d="M296 767c-46 0 -79 34 -79 78c0 46 34 80 82 80c46 0 79 -33 79 -77c0 -46 -34 -81 -82 -81zM498 767c-47 0 -80 34 -80 78c0 46 35 80 83 80c46 0 79 -33 79 -77c0 -46 -34 -81 -82 -81zM-12 0l322 710h136l149 -710h-142l-26 144h-237l-61 -144h-141zM237 261h170
l-51 281h-2z" />
    <glyph glyph-name="uni1EA0" unicode="&#x1ea0;" horiz-adv-x="642" 
d="M-12 0l322 710h136l149 -710h-142l-26 144h-237l-61 -144h-141zM237 261h170l-51 281h-2zM278 -71c46 0 79 -34 79 -78c0 -46 -34 -80 -82 -80c-46 0 -80 33 -80 77c0 46 35 81 83 81z" />
    <glyph glyph-name="Agrave" unicode="&#xc0;" horiz-adv-x="642" 
d="M330 769l-96 135l134 -1l83 -134h-121zM-12 0l322 710h136l149 -710h-142l-26 144h-237l-61 -144h-141zM237 261h170l-51 281h-2z" />
    <glyph glyph-name="uni1EA2" unicode="&#x1ea2;" horiz-adv-x="642" 
d="M419 777l-76 1c31 23 66 58 67 86c1 11 -7 19 -23 19c-23 0 -45 -8 -76 -29l-18 59c26 23 77 52 137 52c46 0 79 -22 79 -66c0 -56 -49 -103 -90 -122zM-12 0l322 710h136l149 -710h-142l-26 144h-237l-61 -144h-141zM237 261h170l-51 281h-2z" />
    <glyph glyph-name="Amacron" unicode="&#x100;" horiz-adv-x="642" 
d="M254 790l12 98h279l-13 -98h-278zM-12 0l322 710h136l149 -710h-142l-26 144h-237l-61 -144h-141zM237 261h170l-51 281h-2z" />
    <glyph glyph-name="Aogonek" unicode="&#x104;" horiz-adv-x="642" 
d="M582 0c-54 -8 -95 -49 -95 -86c0 -19 10 -28 27 -28c16 0 28 3 37 8l2 -72c-20 -9 -48 -11 -72 -11c-62 0 -94 27 -94 76c0 43 28 86 66 114l-26 143h-237l-61 -144h-141l322 710h136l149 -710h-13zM237 261h170l-51 281h-2z" />
    <glyph glyph-name="Aring" unicode="&#xc5;" horiz-adv-x="642" 
d="M397 756c-58 0 -103 44 -103 103c0 61 46 106 107 106c59 0 103 -44 103 -102c0 -62 -46 -107 -107 -107zM399 823c22 0 38 17 38 38s-16 37 -37 37c-22 0 -38 -17 -38 -38s15 -37 37 -37zM-12 0l322 710h136l149 -710h-142l-26 144h-237l-61 -144h-141zM237 261h170
l-51 281h-2z" />
    <glyph glyph-name="Aringacute" unicode="&#x1fa;" horiz-adv-x="642" 
d="M397 756c-58 0 -103 44 -103 103c0 61 46 106 107 106c29 0 54 -11 73 -28l58 45h133l-161 -121c-1 -61 -47 -105 -107 -105zM400 898c-22 0 -38 -17 -38 -38s15 -37 37 -37s38 17 38 38s-16 37 -37 37zM310 710h136l149 -710h-142l-26 144h-237l-61 -144h-141zM237 261
h170l-51 281h-2z" />
    <glyph glyph-name="Atilde" unicode="&#xc3;" horiz-adv-x="642" 
d="M472 768c-36 0 -61 19 -78 31c-16 12 -30 21 -45 21c-22 0 -43 -22 -57 -53l-75 38c28 57 68 103 121 103c40 0 59 -16 77 -28c15 -11 29 -22 45 -22c23 0 45 21 59 51l74 -29c-27 -64 -70 -112 -121 -112zM-12 0l322 710h136l149 -710h-142l-26 144h-237l-61 -144h-141z
M237 261h170l-51 281h-2z" />
    <glyph glyph-name="AE" unicode="&#xc6;" horiz-adv-x="872" 
d="M-26 0l400 710h488l-15 -122h-283l-23 -175h231l-15 -120h-230l-21 -171h302l-15 -122h-434l18 144h-177l-79 -144h-147zM262 261h130l36 301h-2z" />
    <glyph glyph-name="AEacute" unicode="&#x1fc;" horiz-adv-x="872" 
d="M413 769l115 134l136 1l-130 -135h-121zM-26 0l400 710h488l-15 -122h-283l-23 -175h231l-15 -120h-230l-21 -171h302l-15 -122h-434l18 144h-177l-79 -144h-147zM262 261h130l36 301h-2z" />
    <glyph glyph-name="B" unicode="B" horiz-adv-x="603" 
d="M52 0l87 710h238c120 0 189 -45 189 -149c0 -68 -39 -146 -111 -181v-2c60 -21 102 -69 102 -146c0 -147 -90 -232 -270 -232h-235zM238 419h83c61 0 107 39 107 110c0 44 -28 60 -85 60h-84zM201 120h91c82 0 126 44 126 120c0 45 -30 67 -94 67h-100z" />
    <glyph glyph-name="C" unicode="C" horiz-adv-x="669" 
d="M348 -9c-164 0 -288 100 -288 299c0 234 148 429 372 429c87 0 179 -37 246 -149l-111 -81c-35 66 -82 100 -142 100c-136 0 -223 -147 -223 -297c0 -107 56 -171 153 -171c58 0 118 32 158 81l99 -89c-65 -74 -158 -122 -264 -122z" />
    <glyph glyph-name="Cacute" unicode="&#x106;" horiz-adv-x="669" 
d="M370 769l115 134l136 1l-130 -135h-121zM348 -9c-164 0 -288 100 -288 299c0 234 148 429 372 429c87 0 179 -37 246 -149l-111 -81c-35 66 -82 100 -142 100c-136 0 -223 -147 -223 -297c0 -107 56 -171 153 -171c58 0 118 32 158 81l99 -89
c-65 -74 -158 -122 -264 -122z" />
    <glyph glyph-name="Ccaron" unicode="&#x10c;" horiz-adv-x="669" 
d="M393 769l-80 135h113l38 -66h2l54 66h112l-114 -135h-125zM348 -9c-164 0 -288 100 -288 299c0 234 148 429 372 429c87 0 179 -37 246 -149l-111 -81c-35 66 -82 100 -142 100c-136 0 -223 -147 -223 -297c0 -107 56 -171 153 -171c58 0 118 32 158 81l99 -89
c-65 -74 -158 -122 -264 -122z" />
    <glyph glyph-name="Ccedilla" unicode="&#xc7;" horiz-adv-x="669" 
d="M355 121c58 0 118 32 158 81l99 -89c-63 -72 -152 -119 -253 -122l-15 -21l1 -1c48 -2 75 -23 75 -67c0 -62 -51 -94 -126 -94c-20 0 -36 3 -51 6l3 58c10 -4 25 -6 37 -6c32 0 56 12 56 36c0 18 -21 25 -67 25l2 37l18 31c-135 21 -232 119 -232 295
c0 234 148 429 372 429c87 0 179 -37 246 -149l-111 -81c-35 66 -82 100 -142 100c-136 0 -223 -147 -223 -297c0 -107 56 -171 153 -171z" />
    <glyph glyph-name="Ccircumflex" unicode="&#x108;" horiz-adv-x="669" 
d="M297 769l115 135h125l79 -135h-113l-37 66h-3l-54 -66h-112zM348 -9c-164 0 -288 100 -288 299c0 234 148 429 372 429c87 0 179 -37 246 -149l-111 -81c-35 66 -82 100 -142 100c-136 0 -223 -147 -223 -297c0 -107 56 -171 153 -171c58 0 118 32 158 81l99 -89
c-65 -74 -158 -122 -264 -122z" />
    <glyph glyph-name="Cdotaccent" unicode="&#x10a;" horiz-adv-x="669" 
d="M462 767c-46 0 -79 34 -79 78c0 46 34 80 82 80c46 0 80 -33 80 -77c0 -46 -35 -81 -83 -81zM348 -9c-164 0 -288 100 -288 299c0 234 148 429 372 429c87 0 179 -37 246 -149l-111 -81c-35 66 -82 100 -142 100c-136 0 -223 -147 -223 -297c0 -107 56 -171 153 -171
c58 0 118 32 158 81l99 -89c-65 -74 -158 -122 -264 -122z" />
    <glyph glyph-name="D" unicode="D" horiz-adv-x="682" 
d="M52 0l87 710h217c194 0 292 -114 292 -294c0 -249 -144 -416 -379 -416h-217zM201 122h82c141 0 223 126 223 293c0 106 -55 173 -163 173h-85z" />
    <glyph glyph-name="Eth" unicode="&#xd0;" horiz-adv-x="683" 
d="M358 710c194 0 292 -114 292 -294c0 -249 -144 -416 -379 -416h-217l36 294h-53l16 115h51l37 301h217zM285 122c141 0 223 126 223 293c0 106 -55 173 -163 173h-85l-22 -179h129l-16 -115h-127l-21 -172h82z" />
    <glyph glyph-name="Dcaron" unicode="&#x10e;" horiz-adv-x="682" 
d="M338 768l-80 135h113l38 -66h2l54 66h112l-114 -135h-125zM52 0l87 710h217c194 0 292 -114 292 -294c0 -249 -144 -416 -379 -416h-217zM201 122h82c141 0 223 126 223 293c0 106 -55 173 -163 173h-85z" />
    <glyph glyph-name="Dcroat" unicode="&#x110;" horiz-adv-x="683" 
d="M358 710c194 0 292 -114 292 -294c0 -249 -144 -416 -379 -416h-217l36 294h-53l16 115h51l37 301h217zM285 122c141 0 223 126 223 293c0 106 -55 173 -163 173h-85l-22 -179h129l-16 -115h-127l-21 -172h82z" />
    <glyph glyph-name="uni1E0C" unicode="&#x1e0c;" horiz-adv-x="682" 
d="M52 0l87 710h217c194 0 292 -114 292 -294c0 -249 -144 -416 -379 -416h-217zM201 122h82c141 0 223 126 223 293c0 106 -55 173 -163 173h-85zM269 -71c46 0 79 -34 79 -78c0 -46 -34 -80 -82 -80c-46 0 -80 33 -80 77c0 46 35 81 83 81z" />
    <glyph glyph-name="uni1E0E" unicode="&#x1e0e;" horiz-adv-x="682" 
d="M52 0l87 710h217c194 0 292 -114 292 -294c0 -249 -144 -416 -379 -416h-217zM201 122h82c141 0 223 126 223 293c0 106 -55 173 -163 173h-85zM123 -209l12 102h279l-13 -102h-278z" />
    <glyph glyph-name="E" unicode="E" horiz-adv-x="563" 
d="M51 0l87 710h415l-16 -122h-280l-21 -176h224l-15 -120h-224l-21 -170h299l-15 -122h-433z" />
    <glyph glyph-name="Eacute" unicode="&#xc9;" horiz-adv-x="563" 
d="M256 768l115 134l136 1l-130 -135h-121zM51 0l87 710h415l-16 -122h-280l-21 -176h224l-15 -120h-224l-21 -170h299l-15 -122h-433z" />
    <glyph glyph-name="Ebreve" unicode="&#x114;" horiz-adv-x="563" 
d="M359 761c-95 0 -141 54 -134 142h95c-4 -26 9 -51 45 -51c35 0 61 27 68 51h95c-17 -82 -75 -142 -169 -142zM51 0l87 710h415l-16 -122h-280l-21 -176h224l-15 -120h-224l-21 -170h299l-15 -122h-433z" />
    <glyph glyph-name="Ecaron" unicode="&#x11a;" horiz-adv-x="563" 
d="M294 768l-80 135h113l38 -66h2l54 66h112l-114 -135h-125zM51 0l87 710h415l-16 -122h-280l-21 -176h224l-15 -120h-224l-21 -170h299l-15 -122h-433z" />
    <glyph glyph-name="Ecircumflex" unicode="&#xca;" horiz-adv-x="563" 
d="M198 768l115 135h125l79 -135h-113l-37 66h-3l-54 -66h-112zM51 0l87 710h415l-16 -122h-280l-21 -176h224l-15 -120h-224l-21 -170h299l-15 -122h-433z" />
    <glyph glyph-name="uni1EBE" unicode="&#x1ebe;" horiz-adv-x="563" 
d="M513 827l107 138l128 1l-144 -139h-91zM199 768l115 135h125l79 -135h-113l-37 66h-3l-54 -66h-112zM51 0l87 710h415l-16 -122h-280l-21 -176h224l-15 -120h-224l-21 -170h299l-15 -122h-433z" />
    <glyph glyph-name="uni1EC6" unicode="&#x1ec6;" horiz-adv-x="563" 
d="M198 768l115 135h125l79 -135h-113l-37 66h-3l-54 -66h-112zM51 0l87 710h415l-16 -122h-280l-21 -176h224l-15 -120h-224l-21 -170h299l-15 -122h-433zM260 -71c46 0 79 -34 79 -78c0 -46 -34 -80 -82 -80c-46 0 -80 33 -80 77c0 46 35 81 83 81z" />
    <glyph glyph-name="uni1EC0" unicode="&#x1ec0;" horiz-adv-x="563" 
d="M537 825l-93 140h121l59 -140h-87zM199 767l115 135h125l79 -135h-113l-37 66h-3l-54 -66h-112zM51 0l87 710h415l-16 -122h-280l-21 -176h224l-15 -120h-224l-21 -170h299l-15 -122h-433z" />
    <glyph glyph-name="uni1EC2" unicode="&#x1ec2;" horiz-adv-x="563" 
d="M579 838l-69 1c28 19 60 38 61 62c1 9 -8 16 -22 16c-20 0 -39 -7 -67 -26l-17 52c24 20 70 45 124 45c40 0 70 -18 70 -57c0 -48 -44 -78 -80 -93zM199 768l115 135h125l79 -135h-113l-37 66h-3l-54 -66h-112zM51 0l87 710h415l-16 -122h-280l-21 -176h224l-15 -120
h-224l-21 -170h299l-15 -122h-433z" />
    <glyph glyph-name="uni1EC4" unicode="&#x1ec4;" horiz-adv-x="563" 
d="M452 924c-34 0 -57 17 -73 28c-15 12 -28 20 -42 20c-21 0 -41 -20 -54 -49l-70 35c26 53 64 96 113 96c38 0 55 -15 72 -26c14 -10 28 -21 43 -21c21 0 42 20 55 48l69 -27c-25 -60 -65 -104 -113 -104zM199 768l115 135h125l79 -135h-113l-37 66h-3l-54 -66h-112zM51 0
l87 710h415l-16 -122h-280l-21 -176h224l-15 -120h-224l-21 -170h299l-15 -122h-433z" />
    <glyph glyph-name="Edieresis" unicode="&#xcb;" horiz-adv-x="563" 
d="M263 766c-46 0 -79 34 -79 78c0 46 34 80 82 80c46 0 79 -33 79 -77c0 -46 -34 -81 -82 -81zM465 766c-47 0 -80 34 -80 78c0 46 35 80 83 80c46 0 79 -33 79 -77c0 -46 -34 -81 -82 -81zM51 0l87 710h415l-16 -122h-280l-21 -176h224l-15 -120h-224l-21 -170h299
l-15 -122h-433z" />
    <glyph glyph-name="Edotaccent" unicode="&#x116;" horiz-adv-x="563" 
d="M363 766c-46 0 -79 34 -79 78c0 46 34 80 82 80c46 0 80 -33 80 -77c0 -46 -35 -81 -83 -81zM51 0l87 710h415l-16 -122h-280l-21 -176h224l-15 -120h-224l-21 -170h299l-15 -122h-433z" />
    <glyph glyph-name="uni1EB8" unicode="&#x1eb8;" horiz-adv-x="563" 
d="M51 0l87 710h415l-16 -122h-280l-21 -176h224l-15 -120h-224l-21 -170h299l-15 -122h-433zM260 -71c46 0 79 -34 79 -78c0 -46 -34 -80 -82 -80c-46 0 -80 33 -80 77c0 46 35 81 83 81z" />
    <glyph glyph-name="Egrave" unicode="&#xc8;" horiz-adv-x="563" 
d="M335 768l-96 135l134 -1l83 -134h-121zM51 0l87 710h415l-16 -122h-280l-21 -176h224l-15 -120h-224l-21 -170h299l-15 -122h-433z" />
    <glyph glyph-name="uni1EBA" unicode="&#x1eba;" horiz-adv-x="563" 
d="M385 768l-76 1c31 21 66 43 67 69c1 10 -8 18 -24 18c-22 0 -44 -8 -75 -29l-18 58c26 22 77 50 137 50c45 0 78 -20 78 -63c0 -54 -49 -87 -89 -104zM51 0l87 710h415l-16 -122h-280l-21 -176h224l-15 -120h-224l-21 -170h299l-15 -122h-433z" />
    <glyph glyph-name="Emacron" unicode="&#x112;" horiz-adv-x="563" 
d="M221 789l12 98h279l-13 -98h-278zM51 0l87 710h415l-16 -122h-280l-21 -176h224l-15 -120h-224l-21 -170h299l-15 -122h-433z" />
    <glyph glyph-name="Eogonek" unicode="&#x118;" horiz-adv-x="563" 
d="M537 588h-280l-21 -176h224l-15 -120h-224l-21 -170h299l-15 -122h-2c-54 -8 -95 -49 -95 -86c0 -19 10 -28 27 -28c16 0 28 3 37 8l2 -72c-20 -9 -48 -11 -72 -11c-62 0 -94 27 -94 76c0 43 27 86 65 113h-301l87 710h415z" />
    <glyph glyph-name="uni1EBC" unicode="&#x1ebc;" horiz-adv-x="563" 
d="M439 767c-36 0 -61 19 -78 31c-16 12 -30 21 -45 21c-22 0 -43 -22 -57 -53l-75 38c28 57 68 103 121 103c40 0 59 -16 77 -28c15 -11 29 -22 45 -22c23 0 45 21 59 51l74 -29c-27 -64 -70 -112 -121 -112zM51 0l87 710h415l-16 -122h-280l-21 -176h224l-15 -120h-224
l-21 -170h299l-15 -122h-433z" />
    <glyph glyph-name="F" unicode="F" horiz-adv-x="551" 
d="M52 0l87 710h429l-15 -122h-294l-25 -194h245l-14 -121h-246l-32 -273h-135z" />
    <glyph glyph-name="G" unicode="G" horiz-adv-x="695" 
d="M350 -9c-165 0 -290 98 -290 298c0 235 151 430 368 430c101 0 190 -41 243 -125l-109 -82c-30 47 -77 78 -141 78c-128 0 -218 -137 -218 -296c0 -113 56 -177 154 -177c45 0 85 12 129 42l15 108h-135l15 118h268l-36 -306c-64 -53 -165 -88 -263 -88z" />
    <glyph glyph-name="Gbreve" unicode="&#x11e;" horiz-adv-x="695" 
d="M444 761c-95 0 -141 54 -134 142h95c-4 -26 9 -51 45 -51c35 0 61 27 68 51h95c-17 -82 -75 -142 -169 -142zM350 -9c-165 0 -290 98 -290 298c0 235 151 430 368 430c101 0 190 -41 243 -125l-109 -82c-30 47 -77 78 -141 78c-128 0 -218 -137 -218 -296
c0 -113 56 -177 154 -177c45 0 85 12 129 42l15 108h-135l15 118h268l-36 -306c-64 -53 -165 -88 -263 -88z" />
    <glyph glyph-name="Gcaron" unicode="&#x1e6;" horiz-adv-x="695" 
d="M379 768l-80 135h113l38 -66h2l54 66h112l-114 -135h-125zM350 -9c-165 0 -290 98 -290 298c0 235 151 430 368 430c101 0 190 -41 243 -125l-109 -82c-30 47 -77 78 -141 78c-128 0 -218 -137 -218 -296c0 -113 56 -177 154 -177c45 0 85 12 129 42l15 108h-135l15 118
h268l-36 -306c-64 -53 -165 -88 -263 -88z" />
    <glyph glyph-name="Gcircumflex" unicode="&#x11c;" horiz-adv-x="695" 
d="M283 768l115 135h125l79 -135h-113l-37 66h-3l-54 -66h-112zM350 -9c-165 0 -290 98 -290 298c0 235 151 430 368 430c101 0 190 -41 243 -125l-109 -82c-30 47 -77 78 -141 78c-128 0 -218 -137 -218 -296c0 -113 56 -177 154 -177c45 0 85 12 129 42l15 108h-135
l15 118h268l-36 -306c-64 -53 -165 -88 -263 -88z" />
    <glyph glyph-name="Gcommaaccent" unicode="&#x122;" horiz-adv-x="695" 
d="M350 -9c-165 0 -290 98 -290 298c0 235 151 430 368 430c101 0 190 -41 243 -125l-109 -82c-30 47 -77 78 -141 78c-128 0 -218 -137 -218 -296c0 -113 56 -177 154 -177c45 0 85 12 129 42l15 108h-135l15 118h268l-36 -306c-64 -53 -165 -88 -263 -88zM244 -220l-15 74
c41 13 57 29 57 69c0 7 -1 14 -2 24h108v-23c0 -85 -53 -137 -148 -144z" />
    <glyph glyph-name="Gdotaccent" unicode="&#x120;" horiz-adv-x="695" 
d="M448 766c-46 0 -79 34 -79 78c0 46 34 80 82 80c46 0 80 -33 80 -77c0 -46 -35 -81 -83 -81zM350 -9c-165 0 -290 98 -290 298c0 235 151 430 368 430c101 0 190 -41 243 -125l-109 -82c-30 47 -77 78 -141 78c-128 0 -218 -137 -218 -296c0 -113 56 -177 154 -177
c45 0 85 12 129 42l15 108h-135l15 118h268l-36 -306c-64 -53 -165 -88 -263 -88z" />
    <glyph glyph-name="uni1E20" unicode="&#x1e20;" horiz-adv-x="695" 
d="M306 789l12 98h279l-13 -98h-278zM350 -9c-165 0 -290 98 -290 298c0 235 151 430 368 430c101 0 190 -41 243 -125l-109 -82c-30 47 -77 78 -141 78c-128 0 -218 -137 -218 -296c0 -113 56 -177 154 -177c45 0 85 12 129 42l15 108h-135l15 118h268l-36 -306
c-64 -53 -165 -88 -263 -88z" />
    <glyph glyph-name="H" unicode="H" horiz-adv-x="686" 
d="M52 0l87 710h136l-38 -309h251l38 309h136l-87 -710h-137l35 279h-251l-34 -279h-136z" />
    <glyph glyph-name="Hbar" unicode="&#x126;" horiz-adv-x="691" 
d="M694 606l-10 -90h-44l-63 -516h-137l35 279h-251l-34 -279h-136l63 516h-44l11 90h44l13 104h136l-13 -104h251l13 104h136l-13 -104h43zM490 401l14 115h-251l-14 -115h251z" />
    <glyph glyph-name="uni1E2A" unicode="&#x1e2a;" horiz-adv-x="686" 
d="M52 0l87 710h136l-38 -309h251l38 309h136l-87 -710h-137l35 279h-251l-34 -279h-136zM293 -229c-92 0 -141 55 -133 152h95c-4 -32 9 -57 44 -57s61 27 69 57h95c-17 -91 -78 -152 -170 -152z" />
    <glyph glyph-name="Hcircumflex" unicode="&#x124;" horiz-adv-x="686" 
d="M250 769l115 135h125l79 -135h-113l-37 66h-3l-54 -66h-112zM52 0l87 710h136l-38 -309h251l38 309h136l-87 -710h-137l35 279h-251l-34 -279h-136z" />
    <glyph glyph-name="uni1E24" unicode="&#x1e24;" horiz-adv-x="686" 
d="M52 0l87 710h136l-38 -309h251l38 309h136l-87 -710h-137l35 279h-251l-34 -279h-136zM301 -71c46 0 79 -34 79 -78c0 -46 -34 -80 -82 -80c-46 0 -80 33 -80 77c0 46 35 81 83 81z" />
    <glyph glyph-name="I" unicode="I" horiz-adv-x="310" 
d="M56 0l87 710h138l-87 -710h-138z" />
    <glyph glyph-name="IJ" unicode="&#x132;" horiz-adv-x="786" 
d="M56 0l87 710h138l-87 -710h-138zM484 -9c-66 0 -132 33 -169 95l92 93c16 -30 41 -58 76 -58c46 0 83 34 97 144l55 445h137l-56 -452c-21 -175 -88 -267 -232 -267z" />
    <glyph glyph-name="Iacute" unicode="&#xcd;" horiz-adv-x="310" 
d="M161 769l115 134l136 1l-130 -135h-121zM56 0l87 710h138l-87 -710h-138z" />
    <glyph glyph-name="Ibreve" unicode="&#x12c;" horiz-adv-x="310" 
d="M220 761c-95 0 -141 54 -134 142h95c-4 -26 9 -51 45 -51c35 0 61 27 68 51h95c-17 -82 -75 -142 -169 -142zM56 0l87 710h138l-87 -710h-138z" />
    <glyph glyph-name="uni01CF" unicode="&#x1cf;" horiz-adv-x="310" 
d="M155 768l-80 135h113l38 -66h2l54 66h112l-114 -135h-125zM56 0l87 710h138l-87 -710h-138z" />
    <glyph glyph-name="Icircumflex" unicode="&#xce;" horiz-adv-x="310" 
d="M59 768l115 135h125l79 -135h-113l-37 66h-3l-54 -66h-112zM56 0l87 710h138l-87 -710h-138z" />
    <glyph glyph-name="Idieresis" unicode="&#xcf;" horiz-adv-x="310" 
d="M124 766c-46 0 -79 34 -79 78c0 46 34 80 82 80c46 0 79 -33 79 -77c0 -46 -34 -81 -82 -81zM326 766c-47 0 -80 34 -80 78c0 46 35 80 83 80c46 0 79 -33 79 -77c0 -46 -34 -81 -82 -81zM56 0l87 710h138l-87 -710h-138z" />
    <glyph glyph-name="Idotaccent" unicode="&#x130;" horiz-adv-x="310" 
d="M224 766c-46 0 -79 34 -79 78c0 46 34 80 82 80c46 0 80 -33 80 -77c0 -46 -35 -81 -83 -81zM56 0l87 710h138l-87 -710h-138z" />
    <glyph glyph-name="uni1ECA" unicode="&#x1eca;" horiz-adv-x="310" 
d="M56 0l87 710h138l-87 -710h-138zM108 -71c46 0 79 -34 79 -78c0 -46 -34 -80 -82 -80c-46 0 -80 33 -80 77c0 46 35 81 83 81z" />
    <glyph glyph-name="Igrave" unicode="&#xcc;" horiz-adv-x="310" 
d="M163 769l-96 135l134 -1l83 -134h-121zM56 0l87 710h138l-87 -710h-138z" />
    <glyph glyph-name="uni1EC8" unicode="&#x1ec8;" horiz-adv-x="310" 
d="M246 768l-76 1c31 21 66 43 67 69c1 10 -8 18 -24 18c-22 0 -44 -8 -75 -29l-18 58c26 22 77 50 137 50c45 0 78 -20 78 -63c0 -54 -49 -87 -89 -104zM56 0l87 710h138l-87 -710h-138z" />
    <glyph glyph-name="Imacron" unicode="&#x12a;" horiz-adv-x="310" 
d="M82 789l12 98h279l-13 -98h-278zM56 0l87 710h138l-87 -710h-138z" />
    <glyph glyph-name="Iogonek" unicode="&#x12e;" horiz-adv-x="310" 
d="M143 710h138l-87 -710h-9c-54 -8 -95 -49 -95 -86c0 -19 10 -28 27 -28c16 0 28 3 37 8l2 -72c-20 -9 -48 -11 -72 -11c-62 0 -94 27 -94 76c0 43 28 87 66 114z" />
    <glyph glyph-name="Itilde" unicode="&#x128;" horiz-adv-x="310" 
d="M300 767c-36 0 -61 19 -78 31c-16 12 -30 21 -45 21c-22 0 -43 -22 -57 -53l-75 38c28 57 68 103 121 103c40 0 59 -16 77 -28c15 -11 29 -22 45 -22c23 0 45 21 59 51l74 -29c-27 -64 -70 -112 -121 -112zM56 0l87 710h138l-87 -710h-138z" />
    <glyph glyph-name="J" unicode="J" horiz-adv-x="476" 
d="M174 -9c-66 0 -132 33 -169 95l92 93c16 -30 41 -58 76 -58c46 0 83 34 97 144l55 445h137l-56 -452c-21 -175 -88 -267 -232 -267z" />
    <glyph glyph-name="uni00A40301" horiz-adv-x="476" 
d="M338 769l115 134l136 1l-130 -135h-121zM174 -9c-66 0 -132 33 -169 95l92 93c16 -30 41 -58 76 -58c46 0 83 34 97 144l55 445h137l-56 -452c-21 -175 -88 -267 -232 -267z" />
    <glyph glyph-name="Jcircumflex" unicode="&#x134;" horiz-adv-x="476" 
d="M240 769l115 135h125l79 -135h-113l-37 66h-3l-54 -66h-112zM174 -9c-66 0 -132 33 -169 95l92 93c16 -30 41 -58 76 -58c46 0 83 34 97 144l55 445h137l-56 -452c-21 -175 -88 -267 -232 -267z" />
    <glyph glyph-name="K" unicode="K" horiz-adv-x="621" 
d="M662 710l-263 -317l181 -393h-155l-129 295l-85 -100l-24 -195h-135l87 710h135l-39 -319l3 -1l257 320h167z" />
    <glyph glyph-name="Kcommaaccent" unicode="&#x136;" horiz-adv-x="621" 
d="M662 710l-263 -317l181 -393h-155l-129 295l-85 -100l-24 -195h-135l87 710h135l-39 -319l3 -1l257 320h167zM232 -77c0 7 -1 14 -2 24h108v-23c0 -85 -53 -137 -148 -144l-15 74c41 13 57 29 57 69z" />
    <glyph glyph-name="L" unicode="L" horiz-adv-x="535" 
d="M52 0l87 710h136l-72 -588h280l-15 -122h-416z" />
    <glyph glyph-name="Lacute" unicode="&#x139;" horiz-adv-x="535" 
d="M265 769l115 134l136 1l-130 -135h-121zM52 0l87 710h136l-72 -588h280l-15 -122h-416z" />
    <glyph glyph-name="Lcaron" unicode="&#x13d;" horiz-adv-x="539" 
d="M352 580l54 206h126l-87 -206h-93zM52 0l87 710h136l-72 -588h280l-15 -122h-416z" />
    <glyph glyph-name="Lcommaaccent" unicode="&#x13b;" horiz-adv-x="535" 
d="M52 0l87 710h136l-72 -588h280l-15 -122h-416zM156 -220l-15 74c41 13 57 29 57 69c0 7 -1 14 -2 24h108v-23c0 -85 -53 -137 -148 -144z" />
    <glyph glyph-name="Ldot" unicode="&#x13f;" horiz-adv-x="536" 
d="M52 0l87 710h136l-72 -588h280l-15 -122h-416zM424 261c-47 0 -78 33 -78 77c0 47 33 81 81 81c46 0 78 -33 78 -78c0 -46 -33 -80 -81 -80z" />
    <glyph glyph-name="uni1E36" unicode="&#x1e36;" horiz-adv-x="535" 
d="M52 0l87 710h136l-72 -588h280l-15 -122h-416zM245 -71c46 0 79 -34 79 -78c0 -46 -34 -80 -82 -80c-46 0 -80 33 -80 77c0 46 35 81 83 81z" />
    <glyph glyph-name="uni1E38" unicode="&#x1e38;" horiz-adv-x="535" 
d="M230 790l12 98h279l-13 -98h-278zM52 0l87 710h136l-72 -588h280l-15 -122h-416zM245 -71c46 0 79 -34 79 -78c0 -46 -34 -80 -82 -80c-46 0 -80 33 -80 77c0 46 35 81 83 81z" />
    <glyph glyph-name="uni1E3A" unicode="&#x1e3a;" horiz-adv-x="535" 
d="M52 0l87 710h136l-72 -588h280l-15 -122h-416zM99 -209l12 102h279l-13 -102h-278z" />
    <glyph glyph-name="Lslash" unicode="&#x141;" horiz-adv-x="536" 
d="M204 122h280l-15 -122h-416l33 265l-73 -31l14 107l72 31l41 338h136l-34 -275l102 44l-14 -108l-101 -44z" />
    <glyph glyph-name="M" unicode="M" horiz-adv-x="817" 
d="M52 0l87 710h135l144 -408h3l237 408h135l-87 -710h-135l52 432l-3 1l-178 -298h-88l-111 312l-2 -1l-54 -446h-135z" />
    <glyph glyph-name="uni1E42" unicode="&#x1e42;" horiz-adv-x="817" 
d="M52 0l87 710h135l144 -408h3l237 408h135l-87 -710h-135l52 432l-3 1l-178 -298h-88l-111 312l-2 -1l-54 -446h-135zM362 -71c46 0 79 -34 79 -78c0 -46 -34 -80 -82 -80c-46 0 -80 33 -80 77c0 46 35 81 83 81z" />
    <glyph glyph-name="N" unicode="N" horiz-adv-x="707" 
d="M52 0l87 710h132l216 -481l3 2l59 479h134l-88 -710h-135l-213 472h-3l-58 -472h-134z" />
    <glyph glyph-name="Nacute" unicode="&#x143;" horiz-adv-x="707" 
d="M324 769l115 134l136 1l-130 -135h-121zM52 0l87 710h132l216 -481l3 2l59 479h134l-88 -710h-135l-213 472h-3l-58 -472h-134z" />
    <glyph glyph-name="Ncaron" unicode="&#x147;" horiz-adv-x="707" 
d="M362 769l-80 135h113l38 -66h2l54 66h112l-114 -135h-125zM52 0l87 710h132l216 -481l3 2l59 479h134l-88 -710h-135l-213 472h-3l-58 -472h-134z" />
    <glyph glyph-name="Ncommaaccent" unicode="&#x145;" horiz-adv-x="707" 
d="M52 0l87 710h132l216 -481l3 2l59 479h134l-88 -710h-135l-213 472h-3l-58 -472h-134zM228 -220l-15 74c41 13 57 29 57 69c0 7 -1 14 -2 24h108v-23c0 -85 -53 -137 -148 -144z" />
    <glyph glyph-name="uni1E44" unicode="&#x1e44;" horiz-adv-x="707" 
d="M435 785c-46 0 -79 34 -79 78c0 46 34 80 82 80c46 0 80 -33 80 -77c0 -46 -35 -81 -83 -81zM52 0l87 710h132l216 -481l3 2l59 479h134l-88 -710h-135l-213 472h-3l-58 -472h-134z" />
    <glyph glyph-name="uni1E46" unicode="&#x1e46;" horiz-adv-x="707" 
d="M52 0l87 710h132l216 -481l3 2l59 479h134l-88 -710h-135l-213 472h-3l-58 -472h-134zM317 -71c46 0 79 -34 79 -78c0 -46 -34 -80 -82 -80c-46 0 -80 33 -80 77c0 46 35 81 83 81z" />
    <glyph glyph-name="Eng" unicode="&#x14a;" horiz-adv-x="707" 
d="M549 710h134l-88 -710c-19 -157 -107 -204 -225 -204c-17 0 -37 1 -62 7l18 107c13 -3 25 -5 36 -5c62 0 89 33 97 95v2l-212 470h-3l-58 -472h-134l87 710h132l216 -481l3 2z" />
    <glyph glyph-name="uni019D" unicode="&#x19d;" horiz-adv-x="705" 
d="M8 -204c-21 0 -47 2 -69 7l18 107c13 -3 25 -5 34 -5c44 0 53 33 61 98l87 707h132l210 -481l3 2l63 479h134l-92 -710h-135l-207 472h-3l-61 -493c-19 -149 -82 -183 -175 -183z" />
    <glyph glyph-name="uni1E48" unicode="&#x1e48;" horiz-adv-x="707" 
d="M52 0l87 710h132l216 -481l3 2l59 479h134l-88 -710h-135l-213 472h-3l-58 -472h-134zM171 -209l12 102h279l-13 -102h-278z" />
    <glyph glyph-name="Ntilde" unicode="&#xd1;" horiz-adv-x="707" 
d="M507 768c-36 0 -61 19 -78 31c-16 12 -30 21 -45 21c-22 0 -43 -22 -57 -53l-75 38c28 57 68 103 121 103c40 0 59 -16 77 -28c15 -11 29 -22 45 -22c23 0 45 21 59 51l74 -29c-27 -64 -70 -112 -121 -112zM52 0l87 710h132l216 -481l3 2l59 479h134l-88 -710h-135
l-213 472h-3l-58 -472h-134z" />
    <glyph glyph-name="O" unicode="O" horiz-adv-x="754" 
d="M346 -9c-172 0 -286 110 -286 301c0 224 147 427 374 427c171 0 287 -110 287 -299c0 -231 -139 -429 -375 -429zM357 119c131 0 222 139 222 295c0 121 -63 178 -159 178c-128 0 -219 -145 -219 -295c0 -120 63 -178 156 -178z" />
    <glyph glyph-name="Oacute" unicode="&#xd3;" horiz-adv-x="754" 
d="M388 769l115 134l136 1l-130 -135h-121zM346 -9c-172 0 -286 110 -286 301c0 224 147 427 374 427c171 0 287 -110 287 -299c0 -231 -139 -429 -375 -429zM357 119c131 0 222 139 222 295c0 121 -63 178 -159 178c-128 0 -219 -145 -219 -295c0 -120 63 -178 156 -178z
" />
    <glyph glyph-name="Obreve" unicode="&#x14e;" horiz-adv-x="754" 
d="M468 762c-95 0 -141 54 -134 142h95c-4 -26 9 -51 45 -51c35 0 61 27 68 51h95c-17 -82 -75 -142 -169 -142zM346 -9c-172 0 -286 110 -286 301c0 224 147 427 374 427c171 0 287 -110 287 -299c0 -231 -139 -429 -375 -429zM357 119c131 0 222 139 222 295
c0 121 -63 178 -159 178c-128 0 -219 -145 -219 -295c0 -120 63 -178 156 -178z" />
    <glyph glyph-name="uni01D1" unicode="&#x1d1;" horiz-adv-x="754" 
d="M403 769l-80 135h113l38 -66h2l54 66h112l-114 -135h-125zM346 -9c-172 0 -286 110 -286 301c0 224 147 427 374 427c171 0 287 -110 287 -299c0 -231 -139 -429 -375 -429zM357 119c131 0 222 139 222 295c0 121 -63 178 -159 178c-128 0 -219 -145 -219 -295
c0 -120 63 -178 156 -178z" />
    <glyph glyph-name="Ocircumflex" unicode="&#xd4;" horiz-adv-x="754" 
d="M307 769l115 135h125l79 -135h-113l-37 66h-3l-54 -66h-112zM346 -9c-172 0 -286 110 -286 301c0 224 147 427 374 427c171 0 287 -110 287 -299c0 -231 -139 -429 -375 -429zM357 119c131 0 222 139 222 295c0 121 -63 178 -159 178c-128 0 -219 -145 -219 -295
c0 -120 63 -178 156 -178z" />
    <glyph glyph-name="uni1ED0" unicode="&#x1ed0;" horiz-adv-x="754" 
d="M622 828l107 138l128 1l-144 -139h-91zM308 769l115 135h125l79 -135h-113l-37 66h-3l-54 -66h-112zM346 -9c-172 0 -286 110 -286 301c0 224 147 427 374 427c171 0 287 -110 287 -299c0 -231 -139 -429 -375 -429zM357 119c131 0 222 139 222 295
c0 121 -63 178 -159 178c-128 0 -219 -145 -219 -295c0 -120 63 -178 156 -178z" />
    <glyph glyph-name="uni1ED8" unicode="&#x1ed8;" horiz-adv-x="754" 
d="M307 769l115 135h125l79 -135h-113l-37 66h-3l-54 -66h-112zM346 -9c-172 0 -286 110 -286 301c0 224 147 427 374 427c171 0 287 -110 287 -299c0 -231 -139 -429 -375 -429zM357 119c131 0 222 139 222 295c0 121 -63 178 -159 178c-128 0 -219 -145 -219 -295
c0 -120 63 -178 156 -178zM330 -71c46 0 79 -34 79 -78c0 -46 -34 -80 -82 -80c-46 0 -80 33 -80 77c0 46 35 81 83 81z" />
    <glyph glyph-name="uni1ED2" unicode="&#x1ed2;" horiz-adv-x="754" 
d="M646 826l-93 140h121l59 -140h-87zM308 768l115 135h125l79 -135h-113l-37 66h-3l-54 -66h-112zM346 -9c-172 0 -286 110 -286 301c0 224 147 427 374 427c171 0 287 -110 287 -299c0 -231 -139 -429 -375 -429zM357 119c131 0 222 139 222 295c0 121 -63 178 -159 178
c-128 0 -219 -145 -219 -295c0 -120 63 -178 156 -178z" />
    <glyph glyph-name="uni1ED4" unicode="&#x1ed4;" horiz-adv-x="754" 
d="M688 839l-69 1c28 19 60 38 61 62c1 9 -8 16 -22 16c-20 0 -39 -7 -67 -26l-17 52c24 20 70 45 124 45c40 0 70 -18 70 -57c0 -48 -44 -78 -80 -93zM308 769l115 135h125l79 -135h-113l-37 66h-3l-54 -66h-112zM346 -9c-172 0 -286 110 -286 301c0 224 147 427 374 427
c171 0 287 -110 287 -299c0 -231 -139 -429 -375 -429zM357 119c131 0 222 139 222 295c0 121 -63 178 -159 178c-128 0 -219 -145 -219 -295c0 -120 63 -178 156 -178z" />
    <glyph glyph-name="uni1ED6" unicode="&#x1ed6;" horiz-adv-x="754" 
d="M561 925c-34 0 -57 17 -73 28c-15 12 -28 20 -42 20c-21 0 -41 -20 -54 -49l-70 35c26 53 64 96 113 96c38 0 55 -15 72 -26c14 -10 28 -21 43 -21c21 0 42 20 55 48l69 -27c-25 -60 -65 -104 -113 -104zM308 769l115 135h125l79 -135h-113l-37 66h-3l-54 -66h-112z
M346 -9c-172 0 -286 110 -286 301c0 224 147 427 374 427c171 0 287 -110 287 -299c0 -231 -139 -429 -375 -429zM357 119c131 0 222 139 222 295c0 121 -63 178 -159 178c-128 0 -219 -145 -219 -295c0 -120 63 -178 156 -178z" />
    <glyph glyph-name="Odieresis" unicode="&#xd6;" horiz-adv-x="754" 
d="M372 767c-46 0 -79 34 -79 78c0 46 34 80 82 80c46 0 79 -33 79 -77c0 -46 -34 -81 -82 -81zM574 767c-47 0 -80 34 -80 78c0 46 35 80 83 80c46 0 79 -33 79 -77c0 -46 -34 -81 -82 -81zM346 -9c-172 0 -286 110 -286 301c0 224 147 427 374 427
c171 0 287 -110 287 -299c0 -231 -139 -429 -375 -429zM357 119c131 0 222 139 222 295c0 121 -63 178 -159 178c-128 0 -219 -145 -219 -295c0 -120 63 -178 156 -178z" />
    <glyph glyph-name="uni1ECC" unicode="&#x1ecc;" horiz-adv-x="754" 
d="M346 -9c-172 0 -286 110 -286 301c0 224 147 427 374 427c171 0 287 -110 287 -299c0 -231 -139 -429 -375 -429zM357 119c131 0 222 139 222 295c0 121 -63 178 -159 178c-128 0 -219 -145 -219 -295c0 -120 63 -178 156 -178zM330 -71c46 0 79 -34 79 -78
c0 -46 -34 -80 -82 -80c-46 0 -80 33 -80 77c0 46 35 81 83 81z" />
    <glyph glyph-name="Ograve" unicode="&#xd2;" horiz-adv-x="754" 
d="M400 769l-96 135l134 -1l83 -134h-121zM346 -9c-172 0 -286 110 -286 301c0 224 147 427 374 427c171 0 287 -110 287 -299c0 -231 -139 -429 -375 -429zM357 119c131 0 222 139 222 295c0 121 -63 178 -159 178c-128 0 -219 -145 -219 -295c0 -120 63 -178 156 -178z
" />
    <glyph glyph-name="uni1ECE" unicode="&#x1ece;" horiz-adv-x="754" 
d="M494 769l-76 1c31 21 66 43 67 69c1 10 -8 18 -24 18c-22 0 -44 -8 -75 -29l-18 58c26 22 77 50 137 50c45 0 78 -20 78 -63c0 -54 -49 -87 -89 -104zM346 -9c-172 0 -286 110 -286 301c0 224 147 427 374 427c171 0 287 -110 287 -299c0 -231 -139 -429 -375 -429z
M357 119c131 0 222 139 222 295c0 121 -63 178 -159 178c-128 0 -219 -145 -219 -295c0 -120 63 -178 156 -178z" />
    <glyph glyph-name="Ohorn" unicode="&#x1a0;" horiz-adv-x="804" 
d="M730 774h111l-11 -89c-13 -102 -58 -157 -120 -172c7 -28 11 -59 11 -93c0 -231 -139 -429 -375 -429c-172 0 -286 110 -286 301c0 224 147 427 374 427c113 0 202 -48 250 -136c23 16 29 62 36 116zM357 119c131 0 222 139 222 295c0 121 -63 178 -159 178
c-128 0 -219 -145 -219 -295c0 -120 63 -178 156 -178z" />
    <glyph glyph-name="uni1EDA" unicode="&#x1eda;" horiz-adv-x="804" 
d="M636 904l-130 -135h-121l115 134zM730 774h111l-11 -89c-13 -102 -58 -157 -120 -172c7 -28 11 -59 11 -93c0 -231 -139 -429 -375 -429c-172 0 -286 110 -286 301c0 224 147 427 374 427c113 0 202 -48 250 -136c23 16 29 62 36 116zM357 119c131 0 222 139 222 295
c0 121 -63 178 -159 178c-128 0 -219 -145 -219 -295c0 -120 63 -178 156 -178z" />
    <glyph glyph-name="uni1EE2" unicode="&#x1ee2;" horiz-adv-x="804" 
d="M730 774h111l-11 -89c-13 -102 -58 -157 -120 -172c7 -28 11 -59 11 -93c0 -231 -139 -429 -375 -429c-172 0 -286 110 -286 301c0 224 147 427 374 427c113 0 202 -48 250 -136c23 16 29 62 36 116zM357 119c131 0 222 139 222 295c0 121 -63 178 -159 178
c-128 0 -219 -145 -219 -295c0 -120 63 -178 156 -178zM330 -71c46 0 79 -34 79 -78c0 -46 -34 -80 -82 -80c-46 0 -80 33 -80 77c0 46 35 81 83 81z" />
    <glyph glyph-name="uni1EDC" unicode="&#x1edc;" horiz-adv-x="804" 
d="M521 769h-121l-96 135l134 -1zM730 774h111l-11 -89c-13 -102 -58 -157 -120 -172c7 -28 11 -59 11 -93c0 -231 -139 -429 -375 -429c-172 0 -286 110 -286 301c0 224 147 427 374 427c113 0 202 -48 250 -136c23 16 29 62 36 116zM357 119c131 0 222 139 222 295
c0 121 -63 178 -159 178c-128 0 -219 -145 -219 -295c0 -120 63 -178 156 -178z" />
    <glyph glyph-name="uni1EDE" unicode="&#x1ede;" horiz-adv-x="804" 
d="M461 857c-22 0 -44 -8 -75 -29l-18 58c26 22 77 50 137 50c45 0 78 -20 78 -63c0 -54 -49 -87 -89 -104l-76 1c31 21 66 43 67 69c1 10 -8 18 -24 18zM730 774h111l-11 -89c-13 -102 -58 -157 -120 -172c7 -28 11 -59 11 -93c0 -231 -139 -429 -375 -429
c-172 0 -286 110 -286 301c0 224 147 427 374 427c113 0 202 -48 250 -136c23 16 29 62 36 116zM357 119c131 0 222 139 222 295c0 121 -63 178 -159 178c-128 0 -219 -145 -219 -295c0 -120 63 -178 156 -178z" />
    <glyph glyph-name="uni1EE0" unicode="&#x1ee0;" horiz-adv-x="804" 
d="M425 820c-22 0 -43 -22 -57 -53l-75 38c28 57 68 103 121 103c40 0 59 -16 77 -28c15 -11 29 -22 45 -22c23 0 45 21 59 51l74 -29c-27 -64 -70 -112 -121 -112c-36 0 -61 19 -78 31c-16 12 -30 21 -45 21zM730 774h111l-11 -89c-13 -102 -58 -157 -120 -172
c7 -28 11 -59 11 -93c0 -231 -139 -429 -375 -429c-172 0 -286 110 -286 301c0 224 147 427 374 427c113 0 202 -48 250 -136c23 16 29 62 36 116zM357 119c131 0 222 139 222 295c0 121 -63 178 -159 178c-128 0 -219 -145 -219 -295c0 -120 63 -178 156 -178z" />
    <glyph glyph-name="Ohungarumlaut" unicode="&#x150;" horiz-adv-x="754" 
d="M302 766l118 146l129 1l-129 -147h-118zM496 766l117 146l129 1l-129 -147h-117zM346 -9c-172 0 -286 110 -286 301c0 224 147 427 374 427c171 0 287 -110 287 -299c0 -231 -139 -429 -375 -429zM357 119c131 0 222 139 222 295c0 121 -63 178 -159 178
c-128 0 -219 -145 -219 -295c0 -120 63 -178 156 -178z" />
    <glyph glyph-name="Omacron" unicode="&#x14c;" horiz-adv-x="754" 
d="M330 790l12 98h279l-13 -98h-278zM346 -9c-172 0 -286 110 -286 301c0 224 147 427 374 427c171 0 287 -110 287 -299c0 -231 -139 -429 -375 -429zM357 119c131 0 222 139 222 295c0 121 -63 178 -159 178c-128 0 -219 -145 -219 -295c0 -120 63 -178 156 -178z" />
    <glyph glyph-name="uni01EA" unicode="&#x1ea;" horiz-adv-x="754" 
d="M405 -5c-44 -14 -75 -49 -75 -81c0 -19 10 -28 27 -28c16 0 28 3 37 8l2 -72c-20 -9 -48 -11 -72 -11c-62 0 -94 27 -94 76c0 40 24 80 58 108v1c-139 22 -228 128 -228 296c0 224 147 427 374 427c171 0 287 -110 287 -299c0 -211 -116 -395 -316 -425zM201 297
c0 -120 63 -178 156 -178c131 0 222 139 222 295c0 121 -63 178 -159 178c-128 0 -219 -145 -219 -295z" />
    <glyph glyph-name="Oslash" unicode="&#xd8;" horiz-adv-x="756" 
d="M752 681l-76 -81c30 -47 47 -108 47 -180c0 -231 -139 -429 -375 -429c-76 0 -140 21 -189 62l-79 -84l-60 61l84 88c-27 47 -42 105 -42 174c0 224 147 427 374 427c72 0 135 -20 183 -57l73 78zM203 297c0 -24 3 -46 8 -66l312 330c-26 21 -61 31 -101 31
c-128 0 -219 -145 -219 -295zM581 414c0 29 -4 54 -10 75l-316 -335c27 -23 62 -35 104 -35c131 0 222 139 222 295z" />
    <glyph glyph-name="Oslashacute" unicode="&#x1fe;" horiz-adv-x="756" 
d="M634 903l-130 -135h-121l115 134zM752 681l-76 -81c30 -47 47 -108 47 -180c0 -231 -139 -429 -375 -429c-76 0 -140 21 -189 62l-79 -84l-60 61l84 88c-27 47 -42 105 -42 174c0 224 147 427 374 427c72 0 135 -20 183 -57l73 78zM203 297c0 -24 3 -46 8 -66l312 330
c-26 21 -61 31 -101 31c-128 0 -219 -145 -219 -295zM581 414c0 29 -4 54 -10 75l-316 -335c27 -23 62 -35 104 -35c131 0 222 139 222 295z" />
    <glyph glyph-name="Otilde" unicode="&#xd5;" horiz-adv-x="754" 
d="M548 768c-36 0 -61 19 -78 31c-16 12 -30 21 -45 21c-22 0 -43 -22 -57 -53l-75 38c28 57 68 103 121 103c40 0 59 -16 77 -28c15 -11 29 -22 45 -22c23 0 45 21 59 51l74 -29c-27 -64 -70 -112 -121 -112zM346 -9c-172 0 -286 110 -286 301c0 224 147 427 374 427
c171 0 287 -110 287 -299c0 -231 -139 -429 -375 -429zM357 119c131 0 222 139 222 295c0 121 -63 178 -159 178c-128 0 -219 -145 -219 -295c0 -120 63 -178 156 -178z" />
    <glyph glyph-name="OE" unicode="&#x152;" horiz-adv-x="882" 
d="M857 588h-276l-22 -176h220l-15 -120h-219l-21 -170h294l-15 -122h-457c-172 0 -286 109 -286 291c0 229 148 419 377 419h435zM357 127h33l56 457h-23c-130 1 -222 -135 -222 -286c0 -113 63 -171 156 -171z" />
    <glyph glyph-name="P" unicode="P" horiz-adv-x="585" 
d="M52 0l87 710h242c140 0 197 -74 197 -193c0 -166 -98 -272 -282 -272h-80l-29 -245h-135zM231 366h78c78 0 128 51 128 143c0 52 -37 80 -88 80h-90z" />
    <glyph glyph-name="Thorn" unicode="&#xde;" horiz-adv-x="605" 
d="M52 0l87 710h135l-16 -125h124c139 0 199 -74 199 -193c0 -163 -99 -271 -281 -271h-99l-14 -121h-135zM216 242h97c77 0 127 53 127 142c0 52 -37 80 -88 80h-109z" />
    <glyph glyph-name="Q" unicode="Q" horiz-adv-x="768" 
d="M721 420c0 -106 -29 -205 -83 -281l62 -68l-83 -92l-66 73c-56 -38 -125 -61 -205 -61c-172 0 -286 110 -286 301c0 224 148 426 374 426c171 0 287 -109 287 -298zM357 119c39 0 74 12 104 33l-54 60l82 88l51 -55c25 49 39 108 39 169c0 121 -63 177 -159 177
c-128 0 -219 -144 -219 -294c0 -120 63 -178 156 -178z" />
    <glyph glyph-name="R" unicode="R" horiz-adv-x="617" 
d="M52 0l87 710h248c139 0 197 -74 197 -193s-53 -209 -155 -250l124 -267h-150l-106 245h-81l-29 -245h-135zM231 366h83c78 0 128 54 128 143c0 52 -37 80 -88 80h-95z" />
    <glyph glyph-name="Racute" unicode="&#x154;" horiz-adv-x="617" 
d="M271 769l115 134l136 1l-130 -135h-121zM52 0l87 710h248c139 0 197 -74 197 -193s-53 -209 -155 -250l124 -267h-150l-106 245h-81l-29 -245h-135zM231 366h83c78 0 128 54 128 143c0 52 -37 80 -88 80h-95z" />
    <glyph glyph-name="Rcaron" unicode="&#x158;" horiz-adv-x="617" 
d="M309 769l-80 135h113l38 -66h2l54 66h112l-114 -135h-125zM52 0l87 710h248c139 0 197 -74 197 -193s-53 -209 -155 -250l124 -267h-150l-106 245h-81l-29 -245h-135zM231 366h83c78 0 128 54 128 143c0 52 -37 80 -88 80h-95z" />
    <glyph glyph-name="Rcommaaccent" unicode="&#x156;" horiz-adv-x="617" 
d="M52 0l87 710h248c139 0 197 -74 197 -193s-53 -209 -155 -250l124 -267h-150l-106 245h-81l-29 -245h-135zM231 366h83c78 0 128 54 128 143c0 52 -37 80 -88 80h-95zM185 -220l-15 74c41 13 57 29 57 69c0 7 -1 14 -2 24h108v-23c0 -85 -53 -137 -148 -144z" />
    <glyph glyph-name="uni1E5A" unicode="&#x1e5a;" horiz-adv-x="617" 
d="M52 0l87 710h248c139 0 197 -74 197 -193s-53 -209 -155 -250l124 -267h-150l-106 245h-81l-29 -245h-135zM231 366h83c78 0 128 54 128 143c0 52 -37 80 -88 80h-95zM274 -71c46 0 79 -34 79 -78c0 -46 -34 -80 -82 -80c-46 0 -80 33 -80 77c0 46 35 81 83 81z" />
    <glyph glyph-name="uni1E5C" unicode="&#x1e5c;" horiz-adv-x="617" 
d="M236 790l12 98h279l-13 -98h-278zM52 0l87 710h248c139 0 197 -74 197 -193s-53 -209 -155 -250l124 -267h-150l-106 245h-81l-29 -245h-135zM231 366h83c78 0 128 54 128 143c0 52 -37 80 -88 80h-95zM274 -71c46 0 79 -34 79 -78c0 -46 -34 -80 -82 -80
c-46 0 -80 33 -80 77c0 46 35 81 83 81z" />
    <glyph glyph-name="uni1E5E" unicode="&#x1e5e;" horiz-adv-x="617" 
d="M52 0l87 710h248c139 0 197 -74 197 -193s-53 -209 -155 -250l124 -267h-150l-106 245h-81l-29 -245h-135zM231 366h83c78 0 128 54 128 143c0 52 -37 80 -88 80h-95zM128 -209l12 102h279l-13 -102h-278z" />
    <glyph glyph-name="S" unicode="S" horiz-adv-x="556" 
d="M261 -9c-99 0 -192 44 -242 124l98 88c31 -58 87 -88 139 -88c67 0 111 39 111 86c-1 44 -41 59 -111 100c-83 48 -176 94 -176 205c0 131 106 213 237 213c82 0 163 -38 212 -106l-98 -84c-39 56 -86 68 -121 68c-54 0 -89 -34 -88 -75c1 -37 30 -57 93 -95
c98 -58 194 -92 194 -207c0 -150 -109 -229 -248 -229z" />
    <glyph glyph-name="Sacute" unicode="&#x15a;" horiz-adv-x="556" 
d="M271 769l115 134l136 1l-130 -135h-121zM261 -9c-99 0 -192 44 -242 124l98 88c31 -58 87 -88 139 -88c67 0 111 39 111 86c-1 44 -41 59 -111 100c-83 48 -176 94 -176 205c0 131 106 213 237 213c82 0 163 -38 212 -106l-98 -84c-39 56 -86 68 -121 68
c-54 0 -89 -34 -88 -75c1 -37 30 -57 93 -95c98 -58 194 -92 194 -207c0 -150 -109 -229 -248 -229z" />
    <glyph glyph-name="Scaron" unicode="&#x160;" horiz-adv-x="556" 
d="M271 769l-80 135h113l38 -66h2l54 66h112l-114 -135h-125zM261 -9c-99 0 -192 44 -242 124l98 88c31 -58 87 -88 139 -88c67 0 111 39 111 86c-1 44 -41 59 -111 100c-83 48 -176 94 -176 205c0 131 106 213 237 213c82 0 163 -38 212 -106l-98 -84
c-39 56 -86 68 -121 68c-54 0 -89 -34 -88 -75c1 -37 30 -57 93 -95c98 -58 194 -92 194 -207c0 -150 -109 -229 -248 -229z" />
    <glyph glyph-name="Scedilla" unicode="&#x15e;" horiz-adv-x="556" 
d="M315 427c98 -58 194 -92 194 -207c0 -149 -108 -228 -246 -229l-15 -21l1 -1c48 -2 75 -23 75 -67c0 -62 -51 -94 -126 -94c-20 0 -36 3 -51 6l3 58c10 -4 25 -6 37 -6c32 0 56 12 56 36c0 18 -21 25 -67 25l2 37l20 33c-74 15 -140 55 -179 118l98 88
c31 -58 87 -88 139 -88c67 0 111 39 111 86c-1 44 -41 59 -111 100c-83 48 -176 94 -176 205c0 131 106 213 237 213c82 0 163 -38 212 -106l-98 -84c-39 56 -86 68 -121 68c-54 0 -89 -34 -88 -75c1 -37 30 -57 93 -95z" />
    <glyph glyph-name="Scircumflex" unicode="&#x15c;" horiz-adv-x="556" 
d="M175 769l115 135h125l79 -135h-113l-37 66h-3l-54 -66h-112zM261 -9c-99 0 -192 44 -242 124l98 88c31 -58 87 -88 139 -88c67 0 111 39 111 86c-1 44 -41 59 -111 100c-83 48 -176 94 -176 205c0 131 106 213 237 213c82 0 163 -38 212 -106l-98 -84
c-39 56 -86 68 -121 68c-54 0 -89 -34 -88 -75c1 -37 30 -57 93 -95c98 -58 194 -92 194 -207c0 -150 -109 -229 -248 -229z" />
    <glyph glyph-name="Scommaaccent" unicode="&#x218;" horiz-adv-x="556" 
d="M261 -9c-99 0 -192 44 -242 124l98 88c31 -58 87 -88 139 -88c67 0 111 39 111 86c-1 44 -41 59 -111 100c-83 48 -176 94 -176 205c0 131 106 213 237 213c82 0 163 -38 212 -106l-98 -84c-39 56 -86 68 -121 68c-54 0 -89 -34 -88 -75c1 -37 30 -57 93 -95
c98 -58 194 -92 194 -207c0 -150 -109 -229 -248 -229zM152 -220l-15 74c41 13 57 29 57 69c0 7 -1 14 -2 24h108v-23c0 -85 -53 -137 -148 -144z" />
    <glyph glyph-name="uni1E60" unicode="&#x1e60;" horiz-adv-x="556" 
d="M344 785c-46 0 -79 34 -79 78c0 46 34 80 82 80c46 0 80 -33 80 -77c0 -46 -35 -81 -83 -81zM261 -9c-99 0 -192 44 -242 124l98 88c31 -58 87 -88 139 -88c67 0 111 39 111 86c-1 44 -41 59 -111 100c-83 48 -176 94 -176 205c0 131 106 213 237 213
c82 0 163 -38 212 -106l-98 -84c-39 56 -86 68 -121 68c-54 0 -89 -34 -88 -75c1 -37 30 -57 93 -95c98 -58 194 -92 194 -207c0 -150 -109 -229 -248 -229z" />
    <glyph glyph-name="uni1E62" unicode="&#x1e62;" horiz-adv-x="556" 
d="M261 -9c-99 0 -192 44 -242 124l98 88c31 -58 87 -88 139 -88c67 0 111 39 111 86c-1 44 -41 59 -111 100c-83 48 -176 94 -176 205c0 131 106 213 237 213c82 0 163 -38 212 -106l-98 -84c-39 56 -86 68 -121 68c-54 0 -89 -34 -88 -75c1 -37 30 -57 93 -95
c98 -58 194 -92 194 -207c0 -150 -109 -229 -248 -229zM241 -71c46 0 79 -34 79 -78c0 -46 -34 -80 -82 -80c-46 0 -80 33 -80 77c0 46 35 81 83 81z" />
    <glyph glyph-name="uni1E9E" unicode="&#x1e9e;" horiz-adv-x="742" 
d="M537 414c94 -55 183 -90 183 -197c0 -147 -108 -226 -234 -226c-83 0 -164 34 -215 90l72 118c31 -59 88 -86 140 -86c56 0 94 40 94 88c1 46 -44 66 -100 96c-37 20 -71 37 -107 65l139 222l-1 5c-48 6 -91 9 -119 9c-89 0 -145 -34 -156 -133l-58 -465h-134l58 471
c23 181 134 248 293 248c75 0 202 -20 309 -48z" />
    <glyph glyph-name="uni018F" unicode="&#x18f;" horiz-adv-x="713" 
d="M401 719c170 0 282 -110 282 -299c0 -231 -134 -429 -358 -429c-167 0 -280 110 -280 294c0 39 7 73 14 104h483c1 8 1 17 1 25c0 119 -68 178 -157 178c-59 0 -114 -25 -158 -62l-80 101c69 53 153 88 253 88zM333 119c83 0 150 63 185 153h-338
c6 -102 68 -153 153 -153z" />
    <glyph glyph-name="T" unicode="T" horiz-adv-x="543" 
d="M173 0l72 588h-173l14 122h485l-15 -122h-175l-72 -588h-136z" />
    <glyph glyph-name="Tbar" unicode="&#x166;" horiz-adv-x="543" 
d="M556 588h-175l-25 -206h104l-13 -99h-103l-35 -283h-136l35 283h-100l12 99h100l25 206h-173l14 122h485z" />
    <glyph glyph-name="Tcaron" unicode="&#x164;" horiz-adv-x="543" 
d="M271 769l-80 135h113l38 -66h2l54 66h112l-114 -135h-125zM173 0l72 588h-173l14 122h485l-15 -122h-175l-72 -588h-136z" />
    <glyph glyph-name="uni0162" unicode="&#x162;" horiz-adv-x="543" 
d="M86 710h485l-15 -122h-175l-72 -588h-54l-21 -30l1 -1c48 -2 75 -23 75 -67c0 -62 -51 -94 -126 -94c-20 0 -36 3 -51 6l3 58c10 -4 25 -6 37 -6c32 0 56 12 56 36c0 18 -21 25 -67 25l2 37l21 36h-12l72 588h-173z" />
    <glyph glyph-name="uni021A" unicode="&#x21a;" horiz-adv-x="543" 
d="M173 0l72 588h-173l14 122h485l-15 -122h-175l-72 -588h-136zM138 -220l-15 74c41 13 57 29 57 69c0 7 -1 14 -2 24h108v-23c0 -85 -53 -137 -148 -144z" />
    <glyph glyph-name="Tdieresis" horiz-adv-x="543" 
d="M243 785c-46 0 -79 34 -79 78c0 46 34 80 82 80c46 0 79 -33 79 -77c0 -46 -34 -81 -82 -81zM445 785c-47 0 -80 34 -80 78c0 46 35 80 83 80c46 0 79 -33 79 -77c0 -46 -34 -81 -82 -81zM173 0l72 588h-173l14 122h485l-15 -122h-175l-72 -588h-136z" />
    <glyph glyph-name="uni1E6C" unicode="&#x1e6c;" horiz-adv-x="543" 
d="M173 0l72 588h-173l14 122h485l-15 -122h-175l-72 -588h-136zM227 -71c46 0 79 -34 79 -78c0 -46 -34 -80 -82 -80c-46 0 -80 33 -80 77c0 46 35 81 83 81z" />
    <glyph glyph-name="uni1E6E" unicode="&#x1e6e;" horiz-adv-x="543" 
d="M173 0l72 588h-173l14 122h485l-15 -122h-175l-72 -588h-136zM81 -209l12 102h279l-13 -102h-278z" />
    <glyph glyph-name="U" unicode="U" horiz-adv-x="669" 
d="M306 -9c-182 0 -250 127 -227 318l50 401h136l-50 -405c-13 -102 8 -185 100 -185c79 0 136 45 152 175l51 415h136l-51 -416c-26 -214 -124 -303 -297 -303z" />
    <glyph glyph-name="Uacute" unicode="&#xda;" horiz-adv-x="669" 
d="M331 769l115 134l136 1l-130 -135h-121zM306 -9c-182 0 -250 127 -227 318l50 401h136l-50 -405c-13 -102 8 -185 100 -185c79 0 136 45 152 175l51 415h136l-51 -416c-26 -214 -124 -303 -297 -303z" />
    <glyph glyph-name="Ubreve" unicode="&#x16c;" horiz-adv-x="669" 
d="M405 762c-95 0 -141 54 -134 142h95c-4 -26 9 -51 45 -51c35 0 61 27 68 51h95c-17 -82 -75 -142 -169 -142zM306 -9c-182 0 -250 127 -227 318l50 401h136l-50 -405c-13 -102 8 -185 100 -185c79 0 136 45 152 175l51 415h136l-51 -416c-26 -214 -124 -303 -297 -303z
" />
    <glyph glyph-name="Ucircumflex" unicode="&#xdb;" horiz-adv-x="669" 
d="M244 769l115 135h125l79 -135h-113l-37 66h-3l-54 -66h-112zM306 -9c-182 0 -250 127 -227 318l50 401h136l-50 -405c-13 -102 8 -185 100 -185c79 0 136 45 152 175l51 415h136l-51 -416c-26 -214 -124 -303 -297 -303z" />
    <glyph glyph-name="Udieresis" unicode="&#xdc;" horiz-adv-x="669" 
d="M309 767c-46 0 -79 34 -79 78c0 46 34 80 82 80c46 0 79 -33 79 -77c0 -46 -34 -81 -82 -81zM511 767c-47 0 -80 34 -80 78c0 46 35 80 83 80c46 0 79 -33 79 -77c0 -46 -34 -81 -82 -81zM306 -9c-182 0 -250 127 -227 318l50 401h136l-50 -405c-13 -102 8 -185 100 -185
c79 0 136 45 152 175l51 415h136l-51 -416c-26 -214 -124 -303 -297 -303z" />
    <glyph glyph-name="uni1EE4" unicode="&#x1ee4;" horiz-adv-x="669" 
d="M306 -9c-182 0 -250 127 -227 318l50 401h136l-50 -405c-13 -102 8 -185 100 -185c79 0 136 45 152 175l51 415h136l-51 -416c-26 -214 -124 -303 -297 -303zM290 -71c46 0 79 -34 79 -78c0 -46 -34 -80 -82 -80c-46 0 -80 33 -80 77c0 46 35 81 83 81z" />
    <glyph glyph-name="Ugrave" unicode="&#xd9;" horiz-adv-x="669" 
d="M344 769l-96 135l134 -1l83 -134h-121zM306 -9c-182 0 -250 127 -227 318l50 401h136l-50 -405c-13 -102 8 -185 100 -185c79 0 136 45 152 175l51 415h136l-51 -416c-26 -214 -124 -303 -297 -303z" />
    <glyph glyph-name="uni1EE6" unicode="&#x1ee6;" horiz-adv-x="669" 
d="M431 769l-76 1c31 21 66 43 67 69c1 10 -8 18 -24 18c-22 0 -44 -8 -75 -29l-18 58c26 22 77 50 137 50c45 0 78 -20 78 -63c0 -54 -49 -87 -89 -104zM306 -9c-182 0 -250 127 -227 318l50 401h136l-50 -405c-13 -102 8 -185 100 -185c79 0 136 45 152 175l51 415h136
l-51 -416c-26 -214 -124 -303 -297 -303z" />
    <glyph glyph-name="Uhorn" unicode="&#x1af;" horiz-adv-x="768" 
d="M719 774h111l-11 -89c-16 -121 -75 -176 -156 -176c-11 0 -22 1 -33 3l-27 -218c-26 -214 -124 -303 -297 -303c-182 0 -250 127 -227 318l50 401h136l-50 -405c-13 -102 8 -185 100 -185c79 0 136 45 152 175l51 415h136l-16 -131c5 -1 9 -2 14 -2c41 0 48 54 57 122z
" />
    <glyph glyph-name="uni1EE8" unicode="&#x1ee8;" horiz-adv-x="768" 
d="M582 904l-130 -135h-121l115 134zM719 774h111l-11 -89c-16 -121 -75 -176 -156 -176c-11 0 -22 1 -33 3l-27 -218c-26 -214 -124 -303 -297 -303c-182 0 -250 127 -227 318l50 401h136l-50 -405c-13 -102 8 -185 100 -185c79 0 136 45 152 175l51 415h136l-16 -131
c5 -1 9 -2 14 -2c41 0 48 54 57 122z" />
    <glyph glyph-name="uni1EF0" unicode="&#x1ef0;" horiz-adv-x="768" 
d="M719 774h111l-11 -89c-16 -121 -75 -176 -156 -176c-11 0 -22 1 -33 3l-27 -218c-26 -214 -124 -303 -297 -303c-182 0 -250 127 -227 318l50 401h136l-50 -405c-13 -102 8 -185 100 -185c79 0 136 45 152 175l51 415h136l-16 -131c5 -1 9 -2 14 -2c41 0 48 54 57 122z
M290 -71c46 0 79 -34 79 -78c0 -46 -34 -80 -82 -80c-46 0 -80 33 -80 77c0 46 35 81 83 81z" />
    <glyph glyph-name="uni1EEA" unicode="&#x1eea;" horiz-adv-x="768" 
d="M465 769h-121l-96 135l134 -1zM719 774h111l-11 -89c-16 -121 -75 -176 -156 -176c-11 0 -22 1 -33 3l-27 -218c-26 -214 -124 -303 -297 -303c-182 0 -250 127 -227 318l50 401h136l-50 -405c-13 -102 8 -185 100 -185c79 0 136 45 152 175l51 415h136l-16 -131
c5 -1 9 -2 14 -2c41 0 48 54 57 122z" />
    <glyph glyph-name="uni1EEC" unicode="&#x1eec;" horiz-adv-x="768" 
d="M398 857c-22 0 -44 -8 -75 -29l-18 58c26 22 77 50 137 50c45 0 78 -20 78 -63c0 -54 -49 -87 -89 -104l-76 1c31 21 66 43 67 69c1 10 -8 18 -24 18zM719 774h111l-11 -89c-16 -121 -75 -176 -156 -176c-11 0 -22 1 -33 3l-27 -218c-26 -214 -124 -303 -297 -303
c-182 0 -250 127 -227 318l50 401h136l-50 -405c-13 -102 8 -185 100 -185c79 0 136 45 152 175l51 415h136l-16 -131c5 -1 9 -2 14 -2c41 0 48 54 57 122z" />
    <glyph glyph-name="uni1EEE" unicode="&#x1eee;" horiz-adv-x="768" 
d="M362 820c-22 0 -43 -22 -57 -53l-75 38c28 57 68 103 121 103c40 0 59 -16 77 -28c15 -11 29 -22 45 -22c23 0 45 21 59 51l74 -29c-27 -64 -70 -112 -121 -112c-36 0 -61 19 -78 31c-16 12 -30 21 -45 21zM719 774h111l-11 -89c-16 -121 -75 -176 -156 -176
c-11 0 -22 1 -33 3l-27 -218c-26 -214 -124 -303 -297 -303c-182 0 -250 127 -227 318l50 401h136l-50 -405c-13 -102 8 -185 100 -185c79 0 136 45 152 175l51 415h136l-16 -131c5 -1 9 -2 14 -2c41 0 48 54 57 122z" />
    <glyph glyph-name="Uhungarumlaut" unicode="&#x170;" horiz-adv-x="669" 
d="M239 766l118 146l129 1l-129 -147h-118zM433 766l117 146l129 1l-129 -147h-117zM306 -9c-182 0 -250 127 -227 318l50 401h136l-50 -405c-13 -102 8 -185 100 -185c79 0 136 45 152 175l51 415h136l-51 -416c-26 -214 -124 -303 -297 -303z" />
    <glyph glyph-name="Umacron" unicode="&#x16a;" horiz-adv-x="669" 
d="M267 790l12 98h279l-13 -98h-278zM306 -9c-182 0 -250 127 -227 318l50 401h136l-50 -405c-13 -102 8 -185 100 -185c79 0 136 45 152 175l51 415h136l-51 -416c-26 -214 -124 -303 -297 -303z" />
    <glyph glyph-name="Uogonek" unicode="&#x172;" horiz-adv-x="669" 
d="M518 710h136l-51 -416c-21 -173 -89 -264 -205 -293c-50 -18 -90 -53 -90 -87c0 -17 11 -28 26 -28c13 0 24 2 38 8l1 -72c-20 -9 -48 -11 -71 -11c-63 0 -94 27 -94 76c0 38 23 76 55 104l-1 3c-149 19 -204 140 -183 315l50 401h136l-50 -405c-13 -102 8 -185 100 -185
c79 0 136 45 152 175z" />
    <glyph glyph-name="Uring" unicode="&#x16e;" horiz-adv-x="669" 
d="M410 756c-58 0 -103 44 -103 103c0 61 46 106 107 106c59 0 103 -44 103 -102c0 -62 -46 -107 -107 -107zM412 823c22 0 38 17 38 38s-16 37 -37 37c-22 0 -38 -17 -38 -38s15 -37 37 -37zM306 -9c-182 0 -250 127 -227 318l50 401h136l-50 -405
c-13 -102 8 -185 100 -185c79 0 136 45 152 175l51 415h136l-51 -416c-26 -214 -124 -303 -297 -303z" />
    <glyph glyph-name="Utilde" unicode="&#x168;" horiz-adv-x="669" 
d="M485 768c-36 0 -61 19 -78 31c-16 12 -30 21 -45 21c-22 0 -43 -22 -57 -53l-75 38c28 57 68 103 121 103c40 0 59 -16 77 -28c15 -11 29 -22 45 -22c23 0 45 21 59 51l74 -29c-27 -64 -70 -112 -121 -112zM306 -9c-182 0 -250 127 -227 318l50 401h136l-50 -405
c-13 -102 8 -185 100 -185c79 0 136 45 152 175l51 415h136l-51 -416c-26 -214 -124 -303 -297 -303z" />
    <glyph glyph-name="V" unicode="V" horiz-adv-x="637" 
d="M229 0l-149 710h145l88 -516h2l211 516h150l-322 -710h-125z" />
    <glyph glyph-name="W" unicode="W" horiz-adv-x="942" 
d="M197 0l-113 710h141l64 -486h3l164 486h145l48 -473h3l175 473h147l-288 -710h-130l-56 493h-2l-173 -493h-128z" />
    <glyph glyph-name="Wacute" unicode="&#x1e82;" horiz-adv-x="942" 
d="M474 769l115 134l136 1l-130 -135h-121zM197 0l-113 710h141l64 -486h3l164 486h145l48 -473h3l175 473h147l-288 -710h-130l-56 493h-2l-173 -493h-128z" />
    <glyph glyph-name="Wcircumflex" unicode="&#x174;" horiz-adv-x="942" 
d="M375 769l115 135h125l79 -135h-113l-37 66h-3l-54 -66h-112zM197 0l-113 710h141l64 -486h3l164 486h145l48 -473h3l175 473h147l-288 -710h-130l-56 493h-2l-173 -493h-128z" />
    <glyph glyph-name="Wdieresis" unicode="&#x1e84;" horiz-adv-x="942" 
d="M440 767c-46 0 -79 34 -79 78c0 46 34 80 82 80c46 0 79 -33 79 -77c0 -46 -34 -81 -82 -81zM642 767c-47 0 -80 34 -80 78c0 46 35 80 83 80c46 0 79 -33 79 -77c0 -46 -34 -81 -82 -81zM197 0l-113 710h141l64 -486h3l164 486h145l48 -473h3l175 473h147l-288 -710
h-130l-56 493h-2l-173 -493h-128z" />
    <glyph glyph-name="Wgrave" unicode="&#x1e80;" horiz-adv-x="942" 
d="M474 769l-96 135l134 -1l83 -134h-121zM197 0l-113 710h141l64 -486h3l164 486h145l48 -473h3l175 473h147l-288 -710h-130l-56 493h-2l-173 -493h-128z" />
    <glyph glyph-name="X" unicode="X" horiz-adv-x="624" 
d="M-19 0l252 360l-155 350h149l108 -251h4l163 251h161l-246 -354l164 -356h-154l-113 254h-4l-174 -254h-155z" />
    <glyph glyph-name="Y" unicode="Y" horiz-adv-x="581" 
d="M191 0l39 312l-163 398h150l94 -269h3l160 269h157l-264 -398l-39 -312h-137z" />
    <glyph glyph-name="Yacute" unicode="&#xdd;" horiz-adv-x="581" 
d="M288 769l115 134l136 1l-130 -135h-121zM191 0l39 312l-163 398h150l94 -269h3l160 269h157l-264 -398l-39 -312h-137z" />
    <glyph glyph-name="Ycircumflex" unicode="&#x176;" horiz-adv-x="581" 
d="M193 769l115 135h125l79 -135h-113l-37 66h-3l-54 -66h-112zM191 0l39 312l-163 398h150l94 -269h3l160 269h157l-264 -398l-39 -312h-137z" />
    <glyph glyph-name="Ydieresis" unicode="&#x178;" horiz-adv-x="581" 
d="M258 767c-46 0 -79 34 -79 78c0 46 34 80 82 80c46 0 79 -33 79 -77c0 -46 -34 -81 -82 -81zM460 767c-47 0 -80 34 -80 78c0 46 35 80 83 80c46 0 79 -33 79 -77c0 -46 -34 -81 -82 -81zM191 0l39 312l-163 398h150l94 -269h3l160 269h157l-264 -398l-39 -312h-137z" />
    <glyph glyph-name="uni1E8E" unicode="&#x1e8e;" horiz-adv-x="581" 
d="M362 785c-46 0 -79 34 -79 78c0 46 34 80 82 80c46 0 80 -33 80 -77c0 -46 -35 -81 -83 -81zM191 0l39 312l-163 398h150l94 -269h3l160 269h157l-264 -398l-39 -312h-137z" />
    <glyph glyph-name="uni1EF4" unicode="&#x1ef4;" horiz-adv-x="581" 
d="M191 0l39 312l-163 398h150l94 -269h3l160 269h157l-264 -398l-39 -312h-137zM244 -71c46 0 79 -34 79 -78c0 -46 -34 -80 -82 -80c-46 0 -80 33 -80 77c0 46 35 81 83 81z" />
    <glyph glyph-name="Ygrave" unicode="&#x1ef2;" horiz-adv-x="581" 
d="M304 769l-96 135l134 -1l83 -134h-121zM191 0l39 312l-163 398h150l94 -269h3l160 269h157l-264 -398l-39 -312h-137z" />
    <glyph glyph-name="uni1EF6" unicode="&#x1ef6;" horiz-adv-x="581" 
d="M380 769l-76 1c31 21 66 43 67 69c1 10 -8 18 -24 18c-22 0 -44 -8 -75 -29l-18 58c26 22 77 50 137 50c45 0 78 -20 78 -63c0 -54 -49 -87 -89 -104zM191 0l39 312l-163 398h150l94 -269h3l160 269h157l-264 -398l-39 -312h-137z" />
    <glyph glyph-name="uni0232" unicode="&#x232;" horiz-adv-x="581" 
d="M216 790l12 98h279l-13 -98h-278zM191 0l39 312l-163 398h150l94 -269h3l160 269h157l-264 -398l-39 -312h-137z" />
    <glyph glyph-name="uni1EF8" unicode="&#x1ef8;" horiz-adv-x="581" 
d="M434 768c-36 0 -61 19 -78 31c-16 12 -30 21 -45 21c-22 0 -43 -22 -57 -53l-75 38c28 57 68 103 121 103c40 0 59 -16 77 -28c15 -11 29 -22 45 -22c23 0 45 21 59 51l74 -29c-27 -64 -70 -112 -121 -112zM191 0l39 312l-163 398h150l94 -269h3l160 269h157l-264 -398
l-39 -312h-137z" />
    <glyph glyph-name="Z" unicode="Z" horiz-adv-x="581" 
d="M23 0l12 107l359 478l-1 3h-287l14 122h463l-12 -104l-366 -480l2 -4h304l-15 -122h-473z" />
    <glyph glyph-name="Zacute" unicode="&#x179;" horiz-adv-x="581" 
d="M255 769l115 134l136 1l-130 -135h-121zM23 0l12 107l359 478l-1 3h-287l14 122h463l-12 -104l-366 -480l2 -4h304l-15 -122h-473z" />
    <glyph glyph-name="Zcaron" unicode="&#x17d;" horiz-adv-x="581" 
d="M293 769l-80 135h113l38 -66h2l54 66h112l-114 -135h-125zM23 0l12 107l359 478l-1 3h-287l14 122h463l-12 -104l-366 -480l2 -4h304l-15 -122h-473z" />
    <glyph glyph-name="Zdotaccent" unicode="&#x17b;" horiz-adv-x="581" 
d="M362 767c-46 0 -79 34 -79 78c0 46 34 80 82 80c46 0 80 -33 80 -77c0 -46 -35 -81 -83 -81zM23 0l12 107l359 478l-1 3h-287l14 122h463l-12 -104l-366 -480l2 -4h304l-15 -122h-473z" />
    <glyph glyph-name="uni1E92" unicode="&#x1e92;" horiz-adv-x="581" 
d="M23 0l12 107l359 478l-1 3h-287l14 122h463l-12 -104l-366 -480l2 -4h304l-15 -122h-473zM255 -71c46 0 79 -34 79 -78c0 -46 -34 -80 -82 -80c-46 0 -80 33 -80 77c0 46 35 81 83 81z" />
    <glyph glyph-name="uni01D3" unicode="&#x1d3;" horiz-adv-x="669" 
d="M340 769l-80 135h113l38 -66h2l54 66h112l-114 -135h-125zM306 -9c-182 0 -250 127 -227 318l50 401h136l-50 -405c-13 -102 8 -185 100 -185c79 0 136 45 152 175l51 415h136l-51 -416c-26 -214 -124 -303 -297 -303z" />
    <glyph glyph-name="uni01D5" unicode="&#x1d5;" horiz-adv-x="669" 
d="M277 938l10 77h279l-10 -77h-279zM308 767c-40 0 -69 28 -69 65c0 39 30 68 72 68c40 0 70 -28 70 -65c0 -39 -31 -68 -73 -68zM501 767c-40 0 -69 28 -69 65c0 39 30 68 72 68c40 0 70 -28 70 -65c0 -39 -31 -68 -73 -68zM306 -9c-182 0 -250 127 -227 318l50 401h136
l-50 -405c-13 -102 8 -185 100 -185c79 0 136 45 152 175l51 415h136l-51 -416c-26 -214 -124 -303 -297 -303z" />
    <glyph glyph-name="uni01D7" unicode="&#x1d7;" horiz-adv-x="669" 
d="M366 913l105 131l130 1l-149 -132h-86zM308 767c-40 0 -69 28 -69 65c0 39 30 68 72 68c40 0 70 -28 70 -65c0 -39 -31 -68 -73 -68zM501 767c-40 0 -69 28 -69 65c0 39 30 68 72 68c40 0 70 -28 70 -65c0 -39 -31 -68 -73 -68zM306 -9c-182 0 -250 127 -227 318l50 401
h136l-50 -405c-13 -102 8 -185 100 -185c79 0 136 45 152 175l51 415h136l-51 -416c-26 -214 -124 -303 -297 -303z" />
    <glyph glyph-name="uni01D9" unicode="&#x1d9;" horiz-adv-x="669" 
d="M347 919l-80 121h113l38 -59h2l54 59h112l-114 -121h-125zM308 767c-40 0 -69 28 -69 65c0 39 30 68 72 68c40 0 70 -28 70 -65c0 -39 -31 -68 -73 -68zM501 767c-40 0 -69 28 -69 65c0 39 30 68 72 68c40 0 70 -28 70 -65c0 -39 -31 -68 -73 -68zM306 -9
c-182 0 -250 127 -227 318l50 401h136l-50 -405c-13 -102 8 -185 100 -185c79 0 136 45 152 175l51 415h136l-51 -416c-26 -214 -124 -303 -297 -303z" />
    <glyph glyph-name="uni01DB" unicode="&#x1db;" horiz-adv-x="669" 
d="M375 913l-103 129h114l66 -129h-77zM308 767c-40 0 -69 28 -69 65c0 39 30 68 72 68c40 0 70 -28 70 -65c0 -39 -31 -68 -73 -68zM501 767c-40 0 -69 28 -69 65c0 39 30 68 72 68c40 0 70 -28 70 -65c0 -39 -31 -68 -73 -68zM306 -9c-182 0 -250 127 -227 318l50 401h136
l-50 -405c-13 -102 8 -185 100 -185c79 0 136 45 152 175l51 415h136l-51 -416c-26 -214 -124 -303 -297 -303z" />
    <glyph glyph-name="uni1E30" unicode="&#x1e30;" horiz-adv-x="621" 
d="M542 904l-130 -135h-121l115 134zM662 710l-263 -317l181 -393h-155l-129 295l-85 -100l-24 -195h-135l87 710h135l-39 -319l3 -1l257 320h167z" />
    <glyph glyph-name="Q.alt" horiz-adv-x="755" 
d="M721 420c0 -149 -58 -285 -162 -362l110 -110l-94 -100l-148 151c-25 -5 -52 -8 -81 -8c-172 0 -286 110 -286 301c0 224 148 426 374 426c171 0 287 -109 287 -298zM201 297c0 -120 63 -178 156 -178c131 0 222 139 222 295c0 121 -63 178 -159 178
c-128 0 -219 -145 -219 -295z" />
    <glyph glyph-name="a" unicode="a" horiz-adv-x="558" 
d="M198 -9c-111 0 -164 89 -164 199c0 163 98 306 236 306c50 0 93 -14 122 -45l3 1l5 36h127l-60 -488h-127l10 82l-3 1c-42 -60 -96 -92 -149 -92zM231 104c61 0 133 82 151 221l2 16c-26 26 -63 41 -98 41c-78 0 -124 -100 -124 -188c0 -55 25 -90 69 -90z" />
    <glyph glyph-name="aacute" unicode="&#xe1;" horiz-adv-x="558" 
d="M249 556l119 146l134 1l-129 -147h-124zM198 -9c-111 0 -164 89 -164 199c0 163 98 306 236 306c50 0 93 -14 122 -45l3 1l5 36h127l-60 -488h-127l10 82l-3 1c-42 -60 -96 -92 -149 -92zM231 104c61 0 133 82 151 221l2 16c-26 26 -63 41 -98 41
c-78 0 -124 -100 -124 -188c0 -55 25 -90 69 -90z" />
    <glyph glyph-name="abreve" unicode="&#x103;" horiz-adv-x="558" 
d="M326 544c-92 0 -141 55 -133 152h95c-4 -32 9 -57 44 -57s61 27 69 57h95c-17 -91 -78 -152 -170 -152zM198 -9c-111 0 -164 89 -164 199c0 163 98 306 236 306c50 0 93 -14 122 -45l3 1l5 36h127l-60 -488h-127l10 82l-3 1c-42 -60 -96 -92 -149 -92zM231 104
c61 0 133 82 151 221l2 16c-26 26 -63 41 -98 41c-78 0 -124 -100 -124 -188c0 -55 25 -90 69 -90z" />
    <glyph glyph-name="uni1EAF" unicode="&#x1eaf;" horiz-adv-x="558" 
d="M295 712l112 146h128l-148 -146h-92zM325 544c-92 0 -141 55 -133 152h95c-4 -32 9 -57 44 -57s61 27 69 57h95c-17 -91 -78 -152 -170 -152zM198 -9c-111 0 -164 89 -164 199c0 163 98 306 236 306c50 0 93 -14 122 -45l3 1l5 36h127l-60 -488h-127l10 82l-3 1
c-42 -60 -96 -92 -149 -92zM231 104c61 0 133 82 151 221l2 16c-26 26 -63 41 -98 41c-78 0 -124 -100 -124 -188c0 -55 25 -90 69 -90z" />
    <glyph glyph-name="uni1EB7" unicode="&#x1eb7;" horiz-adv-x="558" 
d="M326 544c-92 0 -141 55 -133 152h95c-4 -32 9 -57 44 -57s61 27 69 57h95c-17 -91 -78 -152 -170 -152zM198 -9c-111 0 -164 89 -164 199c0 163 98 306 236 306c50 0 93 -14 122 -45l3 1l5 36h127l-60 -488h-127l10 82l-3 1c-42 -60 -96 -92 -149 -92zM231 104
c61 0 133 82 151 221l2 16c-26 26 -63 41 -98 41c-78 0 -124 -100 -124 -188c0 -55 25 -90 69 -90zM232 -71c46 0 79 -34 79 -78c0 -46 -34 -80 -82 -80c-46 0 -80 33 -80 77c0 46 35 81 83 81z" />
    <glyph glyph-name="uni1EB1" unicode="&#x1eb1;" horiz-adv-x="558" 
d="M305 712l-91 147h122l55 -147h-86zM325 544c-92 0 -141 55 -133 152h95c-4 -32 9 -57 44 -57s61 27 69 57h95c-17 -91 -78 -152 -170 -152zM198 -9c-111 0 -164 89 -164 199c0 163 98 306 236 306c50 0 93 -14 122 -45l3 1l5 36h127l-60 -488h-127l10 82l-3 1
c-42 -60 -96 -92 -149 -92zM231 104c61 0 133 82 151 221l2 16c-26 26 -63 41 -98 41c-78 0 -124 -100 -124 -188c0 -55 25 -90 69 -90z" />
    <glyph glyph-name="uni1EB3" unicode="&#x1eb3;" horiz-adv-x="558" 
d="M378 695l-71 1c29 21 62 54 63 80c0 11 -7 18 -22 18c-22 0 -42 -7 -71 -27l-17 55c24 22 72 49 128 49c43 0 74 -21 74 -62c0 -52 -46 -96 -84 -114zM327 545c-95 0 -146 52 -137 143h98c-4 -30 9 -54 45 -54c37 0 63 26 72 54h98c-18 -86 -81 -143 -176 -143zM198 -9
c-111 0 -164 89 -164 199c0 163 98 306 236 306c50 0 93 -14 122 -45l3 1l5 36h127l-60 -488h-127l10 82l-3 1c-42 -60 -96 -92 -149 -92zM231 104c61 0 133 82 151 221l2 16c-26 26 -63 41 -98 41c-78 0 -124 -100 -124 -188c0 -55 25 -90 69 -90z" />
    <glyph glyph-name="uni1EB5" unicode="&#x1eb5;" horiz-adv-x="558" 
d="M420 727c-33 0 -50 19 -66 31c-14 11 -27 20 -41 20c-22 0 -42 -21 -56 -51l-69 36c25 57 65 102 115 102c37 0 54 -14 71 -26c16 -11 29 -24 43 -24c22 0 40 22 54 52l70 -29c-27 -64 -71 -111 -121 -111zM324 544c-92 0 -141 55 -133 152h95c-4 -32 9 -57 44 -57
s61 27 69 57h95c-17 -91 -78 -152 -170 -152zM198 -9c-111 0 -164 89 -164 199c0 163 98 306 236 306c50 0 93 -14 122 -45l3 1l5 36h127l-60 -488h-127l10 82l-3 1c-42 -60 -96 -92 -149 -92zM231 104c61 0 133 82 151 221l2 16c-26 26 -63 41 -98 41
c-78 0 -124 -100 -124 -188c0 -55 25 -90 69 -90z" />
    <glyph glyph-name="uni01CE" unicode="&#x1ce;" horiz-adv-x="558" 
d="M262 549l-75 147h112l34 -73h3l52 73h112l-113 -147h-125zM198 -9c-111 0 -164 89 -164 199c0 163 98 306 236 306c50 0 93 -14 122 -45l3 1l5 36h127l-60 -488h-127l10 82l-3 1c-42 -60 -96 -92 -149 -92zM231 104c61 0 133 82 151 221l2 16c-26 26 -63 41 -98 41
c-78 0 -124 -100 -124 -188c0 -55 25 -90 69 -90z" />
    <glyph glyph-name="acircumflex" unicode="&#xe2;" horiz-adv-x="558" 
d="M166 554l116 149h116l85 -149h-116l-30 75h-2l-49 -75h-120zM198 -9c-111 0 -164 89 -164 199c0 163 98 306 236 306c50 0 93 -14 122 -45l3 1l5 36h127l-60 -488h-127l10 82l-3 1c-42 -60 -96 -92 -149 -92zM231 104c61 0 133 82 151 221l2 16c-26 26 -63 41 -98 41
c-78 0 -124 -100 -124 -188c0 -55 25 -90 69 -90z" />
    <glyph glyph-name="uni1EA5" unicode="&#x1ea5;" horiz-adv-x="558" 
d="M453 647l109 147h128l-148 -147h-89zM167 554l116 149h116l85 -149h-116l-30 75h-2l-49 -75h-120zM198 -9c-111 0 -164 89 -164 199c0 163 98 306 236 306c50 0 93 -14 122 -45l3 1l5 36h127l-60 -488h-127l10 82l-3 1c-42 -60 -96 -92 -149 -92zM231 104
c61 0 133 82 151 221l2 16c-26 26 -63 41 -98 41c-78 0 -124 -100 -124 -188c0 -55 25 -90 69 -90z" />
    <glyph glyph-name="uni1EAD" unicode="&#x1ead;" horiz-adv-x="558" 
d="M166 554l116 149h116l85 -149h-116l-30 75h-2l-49 -75h-120zM198 -9c-111 0 -164 89 -164 199c0 163 98 306 236 306c50 0 93 -14 122 -45l3 1l5 36h127l-60 -488h-127l10 82l-3 1c-42 -60 -96 -92 -149 -92zM231 104c61 0 133 82 151 221l2 16c-26 26 -63 41 -98 41
c-78 0 -124 -100 -124 -188c0 -55 25 -90 69 -90zM232 -71c46 0 79 -34 79 -78c0 -46 -34 -80 -82 -80c-46 0 -80 33 -80 77c0 46 35 81 83 81z" />
    <glyph glyph-name="uni1EA7" unicode="&#x1ea7;" horiz-adv-x="558" 
d="M478 648l-92 147h123l54 -147h-85zM167 554l116 149h116l85 -149h-116l-30 75h-2l-49 -75h-120zM198 -9c-111 0 -164 89 -164 199c0 163 98 306 236 306c50 0 93 -14 122 -45l3 1l5 36h127l-60 -488h-127l10 82l-3 1c-42 -60 -96 -92 -149 -92zM231 104
c61 0 133 82 151 221l2 16c-26 26 -63 41 -98 41c-78 0 -124 -100 -124 -188c0 -55 25 -90 69 -90z" />
    <glyph glyph-name="uni1EA9" unicode="&#x1ea9;" horiz-adv-x="558" 
d="M539 648l-71 1c29 21 62 54 63 80c0 11 -7 18 -22 18c-22 0 -42 -7 -71 -27l-17 55c24 22 72 49 128 49c43 0 74 -21 74 -62c0 -52 -46 -96 -84 -114zM166 554l116 149h116l85 -149h-116l-30 75h-2l-49 -75h-120zM198 -9c-111 0 -164 89 -164 199c0 163 98 306 236 306
c50 0 93 -14 122 -45l3 1l5 36h127l-60 -488h-127l10 82l-3 1c-42 -60 -96 -92 -149 -92zM231 104c61 0 133 82 151 221l2 16c-26 26 -63 41 -98 41c-78 0 -124 -100 -124 -188c0 -55 25 -90 69 -90z" />
    <glyph glyph-name="uni1EAB" unicode="&#x1eab;" horiz-adv-x="558" 
d="M423 736c-33 0 -50 19 -66 31c-14 11 -27 20 -41 20c-22 0 -42 -21 -56 -51l-69 36c25 57 65 102 115 102c37 0 54 -14 71 -26c16 -11 29 -24 43 -24c22 0 40 22 54 52l70 -29c-27 -64 -71 -111 -121 -111zM168 554l116 149h116l85 -149h-116l-30 75h-2l-49 -75h-120z
M198 -9c-111 0 -164 89 -164 199c0 163 98 306 236 306c50 0 93 -14 122 -45l3 1l5 36h127l-60 -488h-127l10 82l-3 1c-42 -60 -96 -92 -149 -92zM231 104c61 0 133 82 151 221l2 16c-26 26 -63 41 -98 41c-78 0 -124 -100 -124 -188c0 -55 25 -90 69 -90z" />
    <glyph glyph-name="adieresis" unicode="&#xe4;" horiz-adv-x="558" 
d="M233 557c-46 0 -79 34 -79 78c0 46 34 80 82 80c46 0 79 -33 79 -77c0 -46 -34 -81 -82 -81zM435 557c-47 0 -80 34 -80 78c0 46 35 80 83 80c46 0 79 -33 79 -77c0 -46 -34 -81 -82 -81zM198 -9c-111 0 -164 89 -164 199c0 163 98 306 236 306c50 0 93 -14 122 -45l3 1
l5 36h127l-60 -488h-127l10 82l-3 1c-42 -60 -96 -92 -149 -92zM231 104c61 0 133 82 151 221l2 16c-26 26 -63 41 -98 41c-78 0 -124 -100 -124 -188c0 -55 25 -90 69 -90z" />
    <glyph glyph-name="uni1EA1" unicode="&#x1ea1;" horiz-adv-x="558" 
d="M198 -9c-111 0 -164 89 -164 199c0 163 98 306 236 306c50 0 93 -14 122 -45l3 1l5 36h127l-60 -488h-127l10 82l-3 1c-42 -60 -96 -92 -149 -92zM231 104c61 0 133 82 151 221l2 16c-26 26 -63 41 -98 41c-78 0 -124 -100 -124 -188c0 -55 25 -90 69 -90zM232 -71
c46 0 79 -34 79 -78c0 -46 -34 -80 -82 -80c-46 0 -80 33 -80 77c0 46 35 81 83 81z" />
    <glyph glyph-name="agrave" unicode="&#xe0;" horiz-adv-x="558" 
d="M280 557l-93 147l134 -1l82 -146h-123zM198 -9c-111 0 -164 89 -164 199c0 163 98 306 236 306c50 0 93 -14 122 -45l3 1l5 36h127l-60 -488h-127l10 82l-3 1c-42 -60 -96 -92 -149 -92zM231 104c61 0 133 82 151 221l2 16c-26 26 -63 41 -98 41
c-78 0 -124 -100 -124 -188c0 -55 25 -90 69 -90z" />
    <glyph glyph-name="uni1EA3" unicode="&#x1ea3;" horiz-adv-x="558" 
d="M353 549l-76 1c31 23 66 58 67 86c1 11 -7 19 -23 19c-23 0 -45 -8 -76 -29l-18 59c26 23 77 52 137 52c46 0 79 -22 79 -66c0 -56 -49 -103 -90 -122zM198 -9c-111 0 -164 89 -164 199c0 163 98 306 236 306c50 0 93 -14 122 -45l3 1l5 36h127l-60 -488h-127l10 82l-3 1
c-42 -60 -96 -92 -149 -92zM231 104c61 0 133 82 151 221l2 16c-26 26 -63 41 -98 41c-78 0 -124 -100 -124 -188c0 -55 25 -90 69 -90z" />
    <glyph glyph-name="amacron" unicode="&#x101;" horiz-adv-x="558" 
d="M190 583l12 102h279l-13 -102h-278zM198 -9c-111 0 -164 89 -164 199c0 163 98 306 236 306c50 0 93 -14 122 -45l3 1l5 36h127l-60 -488h-127l10 82l-3 1c-42 -60 -96 -92 -149 -92zM231 104c61 0 133 82 151 221l2 16c-26 26 -63 41 -98 41c-78 0 -124 -100 -124 -188
c0 -55 25 -90 69 -90z" />
    <glyph glyph-name="aogonek" unicode="&#x105;" horiz-adv-x="558" 
d="M400 488h127l-60 -488h-6c-54 -8 -95 -49 -95 -86c0 -19 10 -28 27 -28c16 0 28 3 37 8l2 -72c-20 -9 -48 -11 -72 -11c-62 0 -94 27 -94 76c0 47 33 93 75 120l9 75l-3 1c-42 -60 -96 -92 -149 -92c-111 0 -164 89 -164 199c0 163 98 306 236 306c50 0 93 -14 122 -45
l3 1zM231 104c61 0 133 82 151 221l2 16c-26 26 -63 41 -98 41c-78 0 -124 -100 -124 -188c0 -55 25 -90 69 -90z" />
    <glyph glyph-name="aring" unicode="&#xe5;" horiz-adv-x="558" 
d="M336 539c-58 0 -103 44 -103 103c0 61 46 106 107 106c59 0 103 -44 103 -102c0 -62 -46 -107 -107 -107zM338 606c22 0 38 17 38 38s-16 37 -37 37c-22 0 -38 -17 -38 -38s15 -37 37 -37zM198 -9c-111 0 -164 89 -164 199c0 163 98 306 236 306c50 0 93 -14 122 -45l3 1
l5 36h127l-60 -488h-127l10 82l-3 1c-42 -60 -96 -92 -149 -92zM231 104c61 0 133 82 151 221l2 16c-26 26 -63 41 -98 41c-78 0 -124 -100 -124 -188c0 -55 25 -90 69 -90z" />
    <glyph glyph-name="aringacute" unicode="&#x1fb;" horiz-adv-x="558" 
d="M336 539c-58 0 -103 44 -103 103c0 61 46 106 107 106c28 0 53 -10 71 -27l57 43h136l-161 -120c-1 -61 -47 -105 -107 -105zM339 681c-22 0 -38 -17 -38 -38s15 -37 37 -37s38 17 38 38s-16 37 -37 37zM395 452l5 36h127l-60 -488h-127l10 82l-3 1
c-42 -60 -96 -92 -149 -92c-111 0 -164 89 -164 199c0 163 98 306 236 306c50 0 93 -14 122 -45zM382 325l2 16c-26 26 -63 41 -98 41c-78 0 -124 -100 -124 -188c0 -55 25 -90 69 -90c61 0 133 82 151 221z" />
    <glyph glyph-name="atilde" unicode="&#xe3;" horiz-adv-x="558" 
d="M407 552c-37 0 -59 20 -76 31c-16 12 -31 20 -45 20c-25 0 -46 -22 -60 -52l-75 38c28 66 70 112 123 112c40 0 57 -17 74 -28c17 -12 30 -22 45 -22c24 0 46 22 60 52l75 -30c-28 -74 -71 -121 -121 -121zM198 -9c-111 0 -164 89 -164 199c0 163 98 306 236 306
c50 0 93 -14 122 -45l3 1l5 36h127l-60 -488h-127l10 82l-3 1c-42 -60 -96 -92 -149 -92zM231 104c61 0 133 82 151 221l2 16c-26 26 -63 41 -98 41c-78 0 -124 -100 -124 -188c0 -55 25 -90 69 -90z" />
    <glyph glyph-name="ae" unicode="&#xe6;" horiz-adv-x="693" 
d="M481 103c21 0 56 8 89 50l96 -64c-50 -65 -115 -96 -190 -96c-83 0 -141 34 -166 99c-30 -62 -80 -101 -143 -101c-92 0 -149 76 -147 184c2 168 101 314 260 314c39 0 82 -6 121 -30c36 24 78 37 129 37c82 0 153 -47 153 -130c0 -112 -122 -177 -291 -192
c10 -49 48 -71 89 -71zM517 386c-44 0 -100 -46 -120 -126c99 14 161 47 161 96c0 15 -13 30 -41 30zM188 101c52 0 80 105 99 176c9 36 22 70 39 100c-11 2 -21 3 -30 3c-92 0 -148 -102 -148 -210c0 -45 18 -69 40 -69z" />
    <glyph glyph-name="aeacute" unicode="&#x1fd;" horiz-adv-x="693" 
d="M599 703l-129 -147h-124l119 146zM481 103c21 0 56 8 89 50l96 -64c-50 -65 -115 -96 -190 -96c-83 0 -141 34 -166 99c-30 -62 -80 -101 -143 -101c-92 0 -149 76 -147 184c2 168 101 314 260 314c39 0 82 -6 121 -30c36 24 78 37 129 37c82 0 153 -47 153 -130
c0 -112 -122 -177 -291 -192c10 -49 48 -71 89 -71zM517 386c-44 0 -100 -46 -120 -126c99 14 161 47 161 96c0 15 -13 30 -41 30zM188 101c52 0 80 105 99 176c9 36 22 70 39 100c-11 2 -21 3 -30 3c-92 0 -148 -102 -148 -210c0 -45 18 -69 40 -69z" />
    <glyph glyph-name="b" unicode="b" horiz-adv-x="567" 
d="M249 -9c-82 0 -146 17 -208 54l85 691h127l-39 -324l2 -1c42 56 95 85 153 85c109 0 162 -92 162 -205c0 -158 -91 -300 -282 -300zM241 105c105 0 162 89 162 189c0 47 -25 88 -69 88c-68 0 -136 -82 -154 -223l-6 -45c26 -7 50 -9 67 -9z" />
    <glyph glyph-name="c" unicode="c" horiz-adv-x="487" 
d="M240 -8c-125 0 -204 71 -204 210c0 154 93 294 258 294c81 0 145 -30 182 -85l-98 -74c-19 31 -49 45 -84 45c-77 0 -130 -79 -130 -173c0 -70 37 -102 83 -102c31 0 67 14 99 50l99 -67c-52 -62 -116 -98 -205 -98z" />
    <glyph glyph-name="cacute" unicode="&#x107;" horiz-adv-x="487" 
d="M239 556l119 146l134 1l-129 -147h-124zM240 -8c-125 0 -204 71 -204 210c0 154 93 294 258 294c81 0 145 -30 182 -85l-98 -74c-19 31 -49 45 -84 45c-77 0 -130 -79 -130 -173c0 -70 37 -102 83 -102c31 0 67 14 99 50l99 -67c-52 -62 -116 -98 -205 -98z" />
    <glyph glyph-name="ccaron" unicode="&#x10d;" horiz-adv-x="487" 
d="M254 549l-75 147h112l34 -73h3l52 73h112l-113 -147h-125zM240 -8c-125 0 -204 71 -204 210c0 154 93 294 258 294c81 0 145 -30 182 -85l-98 -74c-19 31 -49 45 -84 45c-77 0 -130 -79 -130 -173c0 -70 37 -102 83 -102c31 0 67 14 99 50l99 -67
c-52 -62 -116 -98 -205 -98z" />
    <glyph glyph-name="ccedilla" unicode="&#xe7;" horiz-adv-x="487" 
d="M247 107c31 0 67 14 99 50l99 -67c-49 -58 -108 -94 -189 -98l-16 -22l1 -1c48 -2 75 -23 75 -67c0 -62 -51 -94 -126 -94c-20 0 -36 3 -51 6l3 58c10 -4 25 -6 37 -6c32 0 56 12 56 36c0 18 -21 25 -67 25l2 37l19 32c-95 18 -153 87 -153 206c0 154 93 294 258 294
c81 0 145 -30 182 -85l-98 -74c-19 31 -49 45 -84 45c-77 0 -130 -79 -130 -173c0 -70 37 -102 83 -102z" />
    <glyph glyph-name="ccircumflex" unicode="&#x109;" horiz-adv-x="487" 
d="M158 554l116 149h116l85 -149h-116l-30 75h-2l-49 -75h-120zM240 -8c-125 0 -204 71 -204 210c0 154 93 294 258 294c81 0 145 -30 182 -85l-98 -74c-19 31 -49 45 -84 45c-77 0 -130 -79 -130 -173c0 -70 37 -102 83 -102c31 0 67 14 99 50l99 -67
c-52 -62 -116 -98 -205 -98z" />
    <glyph glyph-name="cdotaccent" unicode="&#x10b;" horiz-adv-x="487" 
d="M326 557c-46 0 -79 34 -79 78c0 46 34 80 82 80c46 0 80 -33 80 -77c0 -46 -35 -81 -83 -81zM240 -8c-125 0 -204 71 -204 210c0 154 93 294 258 294c81 0 145 -30 182 -85l-98 -74c-19 31 -49 45 -84 45c-77 0 -130 -79 -130 -173c0 -70 37 -102 83 -102
c31 0 67 14 99 50l99 -67c-52 -62 -116 -98 -205 -98z" />
    <glyph glyph-name="d" unicode="d" horiz-adv-x="562" 
d="M199 -9c-112 0 -164 89 -164 199c0 162 97 306 236 306c47 0 92 -13 125 -45l3 1l35 284h127l-91 -736h-127l11 83l-3 1c-42 -61 -96 -93 -152 -93zM231 104c64 0 135 82 154 219l3 19c-26 28 -63 40 -102 40c-77 0 -123 -101 -123 -188c0 -55 24 -90 68 -90z" />
    <glyph glyph-name="eth" unicode="&#xf0;" horiz-adv-x="540" 
d="M451 547c37 -65 57 -142 56 -232c-1 -170 -78 -323 -263 -323c-127 0 -208 81 -208 204c0 155 107 279 235 279c33 0 65 -7 94 -26c-5 17 -12 33 -19 47c-43 83 -117 121 -182 159l56 87c46 -19 89 -43 126 -72l74 90l68 -63l-77 -91c15 -19 28 -38 40 -59zM247 106
c99 0 136 113 135 226v4c-27 23 -58 28 -82 28c-78 0 -137 -73 -137 -157c0 -68 42 -101 84 -101z" />
    <glyph glyph-name="dcaron" unicode="&#x10f;" horiz-adv-x="617" 
d="M595 580l54 206h126l-87 -206h-93zM199 -9c-112 0 -164 89 -164 199c0 162 97 306 236 306c47 0 92 -13 125 -45l3 1l35 284h127l-91 -736h-127l11 83l-3 1c-42 -61 -96 -93 -152 -93zM231 104c64 0 135 82 154 219l3 19c-26 28 -63 40 -102 40
c-77 0 -123 -101 -123 -188c0 -55 24 -90 68 -90z" />
    <glyph glyph-name="dcroat" unicode="&#x111;" horiz-adv-x="546" 
d="M597 637l-10 -82h-48l-69 -555h-127l11 83l-3 1c-42 -61 -96 -93 -152 -93c-112 0 -164 89 -164 199c0 162 97 306 236 306c47 0 92 -13 125 -45l3 1l13 103h-166l10 82h166l12 99h127l-12 -99h48zM385 323l3 19c-26 28 -63 40 -102 40c-77 0 -123 -101 -123 -188
c0 -55 24 -90 68 -90c64 0 135 82 154 219z" />
    <glyph glyph-name="uni1E0D" unicode="&#x1e0d;" horiz-adv-x="562" 
d="M199 -9c-112 0 -164 89 -164 199c0 162 97 306 236 306c47 0 92 -13 125 -45l3 1l35 284h127l-91 -736h-127l11 83l-3 1c-42 -61 -96 -93 -152 -93zM231 104c64 0 135 82 154 219l3 19c-26 28 -63 40 -102 40c-77 0 -123 -101 -123 -188c0 -55 24 -90 68 -90zM232 -71
c46 0 79 -34 79 -78c0 -46 -34 -80 -82 -80c-46 0 -80 33 -80 77c0 46 35 81 83 81z" />
    <glyph glyph-name="uni1E0F" unicode="&#x1e0f;" horiz-adv-x="562" 
d="M199 -9c-112 0 -164 89 -164 199c0 162 97 306 236 306c47 0 92 -13 125 -45l3 1l35 284h127l-91 -736h-127l11 83l-3 1c-42 -61 -96 -93 -152 -93zM231 104c64 0 135 82 154 219l3 19c-26 28 -63 40 -102 40c-77 0 -123 -101 -123 -188c0 -55 24 -90 68 -90zM86 -209
l12 102h279l-13 -102h-278z" />
    <glyph glyph-name="e" unicode="e" horiz-adv-x="478" 
d="M244 102c39 0 69 15 101 51l97 -63c-54 -63 -112 -98 -206 -98c-122 0 -201 77 -201 204c0 162 98 300 261 300c81 0 162 -44 162 -133c-1 -124 -149 -172 -298 -188c9 -50 46 -73 84 -73zM288 386c-48 0 -103 -39 -123 -122c87 10 167 33 168 87c0 22 -16 35 -45 35z
" />
    <glyph glyph-name="eacute" unicode="&#xe9;" horiz-adv-x="478" 
d="M486 703l-129 -147h-124l119 146zM458 363c-1 -124 -149 -172 -298 -188c9 -50 46 -73 84 -73c39 0 69 15 101 51l97 -63c-54 -63 -112 -98 -206 -98c-122 0 -201 77 -201 204c0 162 98 300 261 300c81 0 162 -44 162 -133zM165 264c87 10 167 33 168 87
c0 22 -16 35 -45 35c-48 0 -103 -39 -123 -122z" />
    <glyph glyph-name="ebreve" unicode="&#x115;" horiz-adv-x="478" 
d="M291 544c-92 0 -141 55 -133 152h95c-4 -32 9 -57 44 -57s61 27 69 57h95c-17 -91 -78 -152 -170 -152zM458 363c-1 -124 -149 -172 -298 -188c9 -50 46 -73 84 -73c39 0 69 15 101 51l97 -63c-54 -63 -112 -98 -206 -98c-122 0 -201 77 -201 204c0 162 98 300 261 300
c81 0 162 -44 162 -133zM165 264c87 10 167 33 168 87c0 22 -16 35 -45 35c-48 0 -103 -39 -123 -122z" />
    <glyph glyph-name="ecaron" unicode="&#x11b;" horiz-adv-x="478" 
d="M352 549h-125l-75 147h112l34 -73h3l52 73h112zM458 363c-1 -124 -149 -172 -298 -188c9 -50 46 -73 84 -73c39 0 69 15 101 51l97 -63c-54 -63 -112 -98 -206 -98c-122 0 -201 77 -201 204c0 162 98 300 261 300c81 0 162 -44 162 -133zM165 264c87 10 167 33 168 87
c0 22 -16 35 -45 35c-48 0 -103 -39 -123 -122z" />
    <glyph glyph-name="ecircumflex" unicode="&#xea;" horiz-adv-x="478" 
d="M300 629l-49 -75h-120l116 149h116l85 -149h-116l-30 75h-2zM244 102c39 0 69 15 101 51l97 -63c-54 -63 -112 -98 -206 -98c-122 0 -201 77 -201 204c0 162 98 300 261 300c81 0 162 -44 162 -133c-1 -124 -149 -172 -298 -188c9 -50 46 -73 84 -73zM288 386
c-48 0 -103 -39 -123 -122c87 10 167 33 168 87c0 22 -16 35 -45 35z" />
    <glyph glyph-name="uni1EBF" unicode="&#x1ebf;" horiz-adv-x="478" 
d="M527 794h128l-148 -147h-89zM301 629l-49 -75h-120l116 149h116l85 -149h-116l-30 75h-2zM458 363c-1 -124 -149 -172 -298 -188c9 -50 46 -73 84 -73c39 0 69 15 101 51l97 -63c-54 -63 -112 -98 -206 -98c-122 0 -201 77 -201 204c0 162 98 300 261 300
c81 0 162 -44 162 -133zM165 264c87 10 167 33 168 87c0 22 -16 35 -45 35c-48 0 -103 -39 -123 -122z" />
    <glyph glyph-name="uni1EC7" unicode="&#x1ec7;" horiz-adv-x="478" 
d="M300 629l-49 -75h-120l116 149h116l85 -149h-116l-30 75h-2zM244 102c39 0 69 15 101 51l97 -63c-54 -63 -112 -98 -206 -98c-122 0 -201 77 -201 204c0 162 98 300 261 300c81 0 162 -44 162 -133c-1 -124 -149 -172 -298 -188c9 -50 46 -73 84 -73zM288 386
c-48 0 -103 -39 -123 -122c87 10 167 33 168 87c0 22 -16 35 -45 35zM218 -71c46 0 79 -34 79 -78c0 -46 -34 -80 -82 -80c-46 0 -80 33 -80 77c0 46 35 81 83 81z" />
    <glyph glyph-name="uni1EC1" unicode="&#x1ec1;" horiz-adv-x="478" 
d="M528 648h-85l-92 147h123zM301 629l-49 -75h-120l116 149h116l85 -149h-116l-30 75h-2zM458 363c-1 -124 -149 -172 -298 -188c9 -50 46 -73 84 -73c39 0 69 15 101 51l97 -63c-54 -63 -112 -98 -206 -98c-122 0 -201 77 -201 204c0 162 98 300 261 300
c81 0 162 -44 162 -133zM165 264c87 10 167 33 168 87c0 22 -16 35 -45 35c-48 0 -103 -39 -123 -122z" />
    <glyph glyph-name="uni1EC3" unicode="&#x1ec3;" horiz-adv-x="478" 
d="M514 824c43 0 74 -21 74 -62c0 -52 -46 -96 -84 -114l-71 1c29 21 62 54 63 80c0 11 -7 18 -22 18c-22 0 -42 -7 -71 -27l-17 55c24 22 72 49 128 49zM300 629l-49 -75h-120l116 149h116l85 -149h-116l-30 75h-2zM458 363c-1 -124 -149 -172 -298 -188
c9 -50 46 -73 84 -73c39 0 69 15 101 51l97 -63c-54 -63 -112 -98 -206 -98c-122 0 -201 77 -201 204c0 162 98 300 261 300c81 0 162 -44 162 -133zM165 264c87 10 167 33 168 87c0 22 -16 35 -45 35c-48 0 -103 -39 -123 -122z" />
    <glyph glyph-name="uni1EC5" unicode="&#x1ec5;" horiz-adv-x="478" 
d="M439 876l70 -29c-27 -64 -71 -111 -121 -111c-33 0 -50 19 -66 31c-14 11 -27 20 -41 20c-22 0 -42 -21 -56 -51l-69 36c25 57 65 102 115 102c37 0 54 -14 71 -26c16 -11 29 -24 43 -24c22 0 40 22 54 52zM304 629h-2l-49 -75h-120l116 149h116l85 -149h-116zM458 363
c-1 -124 -149 -172 -298 -188c9 -50 46 -73 84 -73c39 0 69 15 101 51l97 -63c-54 -63 -112 -98 -206 -98c-122 0 -201 77 -201 204c0 162 98 300 261 300c81 0 162 -44 162 -133zM165 264c87 10 167 33 168 87c0 22 -16 35 -45 35c-48 0 -103 -39 -123 -122z" />
    <glyph glyph-name="edieresis" unicode="&#xeb;" horiz-adv-x="478" 
d="M198 557c-46 0 -79 34 -79 78c0 46 34 80 82 80c46 0 79 -33 79 -77c0 -46 -34 -81 -82 -81zM403 715c46 0 79 -33 79 -77c0 -46 -34 -81 -82 -81c-47 0 -80 34 -80 78c0 46 35 80 83 80zM458 363c-1 -124 -149 -172 -298 -188c9 -50 46 -73 84 -73c39 0 69 15 101 51
l97 -63c-54 -63 -112 -98 -206 -98c-122 0 -201 77 -201 204c0 162 98 300 261 300c81 0 162 -44 162 -133zM165 264c87 10 167 33 168 87c0 22 -16 35 -45 35c-48 0 -103 -39 -123 -122z" />
    <glyph glyph-name="edotaccent" unicode="&#x117;" horiz-adv-x="478" 
d="M299 557c-46 0 -79 34 -79 78c0 46 34 80 82 80c46 0 80 -33 80 -77c0 -46 -35 -81 -83 -81zM244 102c39 0 69 15 101 51l97 -63c-54 -63 -112 -98 -206 -98c-122 0 -201 77 -201 204c0 162 98 300 261 300c81 0 162 -44 162 -133c-1 -124 -149 -172 -298 -188
c9 -50 46 -73 84 -73zM288 386c-48 0 -103 -39 -123 -122c87 10 167 33 168 87c0 22 -16 35 -45 35z" />
    <glyph glyph-name="uni1EB9" unicode="&#x1eb9;" horiz-adv-x="478" 
d="M244 102c39 0 69 15 101 51l97 -63c-54 -63 -112 -98 -206 -98c-122 0 -201 77 -201 204c0 162 98 300 261 300c81 0 162 -44 162 -133c-1 -124 -149 -172 -298 -188c9 -50 46 -73 84 -73zM288 386c-48 0 -103 -39 -123 -122c87 10 167 33 168 87c0 22 -16 35 -45 35z
M218 -71c46 0 79 -34 79 -78c0 -46 -34 -80 -82 -80c-46 0 -80 33 -80 77c0 46 35 81 83 81z" />
    <glyph glyph-name="egrave" unicode="&#xe8;" horiz-adv-x="478" 
d="M380 557h-123l-93 147l134 -1zM244 102c39 0 69 15 101 51l97 -63c-54 -63 -112 -98 -206 -98c-122 0 -201 77 -201 204c0 162 98 300 261 300c81 0 162 -44 162 -133c-1 -124 -149 -172 -298 -188c9 -50 46 -73 84 -73zM288 386c-48 0 -103 -39 -123 -122
c87 10 167 33 168 87c0 22 -16 35 -45 35z" />
    <glyph glyph-name="uni1EBB" unicode="&#x1ebb;" horiz-adv-x="478" 
d="M286 655c-23 0 -45 -8 -76 -29l-18 59c26 23 77 52 137 52c46 0 79 -22 79 -66c0 -56 -49 -103 -90 -122l-76 1c31 23 66 58 67 86c1 11 -7 19 -23 19zM244 102c39 0 69 15 101 51l97 -63c-54 -63 -112 -98 -206 -98c-122 0 -201 77 -201 204c0 162 98 300 261 300
c81 0 162 -44 162 -133c-1 -124 -149 -172 -298 -188c9 -50 46 -73 84 -73zM288 386c-48 0 -103 -39 -123 -122c87 10 167 33 168 87c0 22 -16 35 -45 35z" />
    <glyph glyph-name="emacron" unicode="&#x113;" horiz-adv-x="478" 
d="M446 685l-13 -102h-278l12 102h279zM244 102c39 0 69 15 101 51l97 -63c-54 -63 -112 -98 -206 -98c-122 0 -201 77 -201 204c0 162 98 300 261 300c81 0 162 -44 162 -133c-1 -124 -149 -172 -298 -188c9 -50 46 -73 84 -73zM288 386c-48 0 -103 -39 -123 -122
c87 10 167 33 168 87c0 22 -16 35 -45 35z" />
    <glyph glyph-name="eogonek" unicode="&#x119;" horiz-adv-x="478" 
d="M244 102c39 0 69 15 101 51l97 -63c-38 -44 -78 -75 -131 -89c-50 -19 -86 -53 -86 -87c0 -16 8 -28 29 -28c8 0 25 3 34 8l2 -72c-20 -9 -48 -11 -71 -11c-62 0 -94 27 -94 76c0 40 24 80 58 108l-1 3c-91 19 -147 91 -147 198c0 162 98 300 261 300
c81 0 162 -44 162 -133c-1 -124 -149 -172 -298 -188c9 -50 46 -73 84 -73zM288 386c-48 0 -103 -39 -123 -122c87 10 167 33 168 87c0 22 -16 35 -45 35z" />
    <glyph glyph-name="uni1EBD" unicode="&#x1ebd;" horiz-adv-x="478" 
d="M251 603c-25 0 -46 -22 -60 -52l-75 38c28 66 70 112 123 112c40 0 57 -17 74 -28c17 -12 30 -22 45 -22c24 0 46 22 60 52l75 -30c-28 -74 -71 -121 -121 -121c-37 0 -59 20 -76 31c-16 12 -31 20 -45 20zM458 363c-1 -124 -149 -172 -298 -188c9 -50 46 -73 84 -73
c39 0 69 15 101 51l97 -63c-54 -63 -112 -98 -206 -98c-122 0 -201 77 -201 204c0 162 98 300 261 300c81 0 162 -44 162 -133zM165 264c87 10 167 33 168 87c0 22 -16 35 -45 35c-48 0 -103 -39 -123 -122z" />
    <glyph glyph-name="uni0259" unicode="&#x259;" horiz-adv-x="466" 
d="M236 496c123 0 203 -80 203 -210c0 -164 -90 -294 -264 -294c-91 0 -160 50 -160 137c0 127 144 178 299 193c-9 41 -40 64 -85 64c-22 0 -63 -9 -101 -40l-69 85c46 40 115 65 177 65zM187 103c68 0 109 52 124 126c-95 -11 -171 -37 -171 -90c0 -25 19 -36 47 -36z" />
    <glyph glyph-name="f" unicode="f" horiz-adv-x="317" 
d="M41 0l46 383h-44l13 106h45l11 92c13 109 67 164 154 164c43 0 79 -10 114 -35l-33 -99c-21 14 -41 21 -58 21c-27 0 -45 -13 -53 -76l-8 -67h89l-13 -106h-90l-47 -383h-126z" />
    <glyph glyph-name="g" unicode="g" horiz-adv-x="559" 
d="M195 -206c-59 0 -117 14 -170 47l41 105c41 -26 82 -40 130 -40c83 0 139 28 155 185l16 4l-17 6c-42 -61 -97 -94 -151 -94c-112 0 -164 89 -164 195c0 151 97 294 236 294c50 0 93 -14 123 -44l2 1l4 36h127l-52 -427c-27 -218 -146 -268 -280 -268zM231 120
c60 0 131 77 149 196l4 25c-26 26 -63 41 -97 41c-78 0 -124 -100 -124 -175c0 -54 25 -87 68 -87z" />
    <glyph glyph-name="gbreve" unicode="&#x11f;" horiz-adv-x="559" 
d="M326 544c-92 0 -141 55 -133 152h95c-4 -32 9 -57 44 -57s61 27 69 57h95c-17 -91 -78 -152 -170 -152zM195 -206c-59 0 -117 14 -170 47l41 105c41 -26 82 -40 130 -40c83 0 139 28 155 185l16 4l-17 6c-42 -61 -97 -94 -151 -94c-112 0 -164 89 -164 195
c0 151 97 294 236 294c50 0 93 -14 123 -44l2 1l4 36h127l-52 -427c-27 -218 -146 -268 -280 -268zM231 120c60 0 131 77 149 196l4 25c-26 26 -63 41 -97 41c-78 0 -124 -100 -124 -175c0 -54 25 -87 68 -87z" />
    <glyph glyph-name="gcaron" unicode="&#x1e7;" horiz-adv-x="559" 
d="M262 549l-75 147h112l34 -73h3l52 73h112l-113 -147h-125zM195 -206c-59 0 -117 14 -170 47l41 105c41 -26 82 -40 130 -40c83 0 139 28 155 185l16 4l-17 6c-42 -61 -97 -94 -151 -94c-112 0 -164 89 -164 195c0 151 97 294 236 294c50 0 93 -14 123 -44l2 1l4 36h127
l-52 -427c-27 -218 -146 -268 -280 -268zM231 120c60 0 131 77 149 196l4 25c-26 26 -63 41 -97 41c-78 0 -124 -100 -124 -175c0 -54 25 -87 68 -87z" />
    <glyph glyph-name="gcircumflex" unicode="&#x11d;" horiz-adv-x="559" 
d="M166 554l116 149h116l85 -149h-116l-30 75h-2l-49 -75h-120zM195 -206c-59 0 -117 14 -170 47l41 105c41 -26 82 -40 130 -40c83 0 139 28 155 185l16 4l-17 6c-42 -61 -97 -94 -151 -94c-112 0 -164 89 -164 195c0 151 97 294 236 294c50 0 93 -14 123 -44l2 1l4 36h127
l-52 -427c-27 -218 -146 -268 -280 -268zM231 120c60 0 131 77 149 196l4 25c-26 26 -63 41 -97 41c-78 0 -124 -100 -124 -175c0 -54 25 -87 68 -87z" />
    <glyph glyph-name="gcommaaccent" unicode="&#x123;" horiz-adv-x="559" 
d="M426 729l15 -74c-41 -13 -57 -29 -57 -69c0 -7 1 -14 2 -24h-108v23c0 85 53 137 148 144zM195 -206c-59 0 -117 14 -170 47l41 105c41 -26 82 -40 130 -40c83 0 139 28 155 185l16 4l-17 6c-42 -61 -97 -94 -151 -94c-112 0 -164 89 -164 195c0 151 97 294 236 294
c50 0 93 -14 123 -44l2 1l4 36h127l-52 -427c-27 -218 -146 -268 -280 -268zM231 120c60 0 131 77 149 196l4 25c-26 26 -63 41 -97 41c-78 0 -124 -100 -124 -175c0 -54 25 -87 68 -87z" />
    <glyph glyph-name="gdotaccent" unicode="&#x121;" horiz-adv-x="559" 
d="M334 557c-46 0 -79 34 -79 78c0 46 34 80 82 80c46 0 80 -33 80 -77c0 -46 -35 -81 -83 -81zM195 -206c-59 0 -117 14 -170 47l41 105c41 -26 82 -40 130 -40c83 0 139 28 155 185l16 4l-17 6c-42 -61 -97 -94 -151 -94c-112 0 -164 89 -164 195c0 151 97 294 236 294
c50 0 93 -14 123 -44l2 1l4 36h127l-52 -427c-27 -218 -146 -268 -280 -268zM231 120c60 0 131 77 149 196l4 25c-26 26 -63 41 -97 41c-78 0 -124 -100 -124 -175c0 -54 25 -87 68 -87z" />
    <glyph glyph-name="uni1E21" unicode="&#x1e21;" horiz-adv-x="559" 
d="M190 583l12 102h279l-13 -102h-278zM195 -206c-59 0 -117 14 -170 47l41 105c41 -26 82 -40 130 -40c83 0 139 28 155 185l16 4l-17 6c-42 -61 -97 -94 -151 -94c-112 0 -164 89 -164 195c0 151 97 294 236 294c50 0 93 -14 123 -44l2 1l4 36h127l-52 -427
c-27 -218 -146 -268 -280 -268zM231 120c60 0 131 77 149 196l4 25c-26 26 -63 41 -97 41c-78 0 -124 -100 -124 -175c0 -54 25 -87 68 -87z" />
    <glyph glyph-name="h" unicode="h" horiz-adv-x="552" 
d="M35 0l91 736h126l-40 -325l2 -1c47 58 106 86 170 86c100 0 136 -65 118 -200l-40 -296h-127l38 276c9 70 2 106 -40 106c-54 0 -135 -80 -150 -204l-21 -178h-127z" />
    <glyph glyph-name="hbar" unicode="&#x127;" horiz-adv-x="552" 
d="M384 496c100 0 136 -65 118 -200l-40 -296h-127l38 276c9 70 2 106 -40 106c-54 0 -135 -80 -150 -204l-21 -178h-127l69 555h-53l9 82h54l12 99h126l-12 -99h161l-9 -82h-162l-18 -144l2 -1c47 58 106 86 170 86z" />
    <glyph glyph-name="uni1E2B" unicode="&#x1e2b;" horiz-adv-x="552" 
d="M35 0l91 736h126l-40 -325l2 -1c47 58 106 86 170 86c100 0 136 -65 118 -200l-40 -296h-127l38 276c9 70 2 106 -40 106c-54 0 -135 -80 -150 -204l-21 -178h-127zM229 -229c-92 0 -141 55 -133 152h95c-4 -32 9 -57 44 -57s61 27 69 57h95c-17 -91 -78 -152 -170 -152z
" />
    <glyph glyph-name="hcircumflex" unicode="&#x125;" horiz-adv-x="552" 
d="M180 780l115 135h125l79 -135h-113l-37 66h-3l-54 -66h-112zM35 0l91 736h126l-40 -325l2 -1c47 58 106 86 170 86c100 0 136 -65 118 -200l-40 -296h-127l38 276c9 70 2 106 -40 106c-54 0 -135 -80 -150 -204l-21 -178h-127z" />
    <glyph glyph-name="uni1E25" unicode="&#x1e25;" horiz-adv-x="552" 
d="M35 0l91 736h126l-40 -325l2 -1c47 58 106 86 170 86c100 0 136 -65 118 -200l-40 -296h-127l38 276c9 70 2 106 -40 106c-54 0 -135 -80 -150 -204l-21 -178h-127zM237 -71c46 0 79 -34 79 -78c0 -46 -34 -80 -82 -80c-46 0 -80 33 -80 77c0 46 35 81 83 81z" />
    <glyph glyph-name="i" unicode="i" horiz-adv-x="262" 
d="M181 557c-46 0 -79 34 -79 78c0 46 34 80 82 80c46 0 80 -33 80 -77c0 -46 -35 -81 -83 -81zM37 0l61 489h127l-60 -489h-128z" />
    <glyph glyph-name="dotlessi" unicode="&#x131;" horiz-adv-x="262" 
d="M37 0l61 489h127l-60 -489h-128z" />
    <glyph glyph-name="iacute" unicode="&#xed;" horiz-adv-x="262" 
d="M111 556l119 146l134 1l-129 -147h-124zM37 0l61 489h127l-60 -489h-128z" />
    <glyph glyph-name="ibreve" unicode="&#x12d;" horiz-adv-x="262" 
d="M179 550c-74 0 -127 55 -121 150h89c-5 -39 8 -64 36 -64c30 0 50 27 52 64h91c-15 -89 -68 -150 -147 -150zM37 0l61 489h127l-60 -489h-128z" />
    <glyph glyph-name="uni01D0" unicode="&#x1d0;" horiz-adv-x="262" 
d="M109 549l-75 147h112l34 -73h3l52 73h112l-113 -147h-125zM37 0l61 489h127l-60 -489h-128z" />
    <glyph glyph-name="icircumflex" unicode="&#xee;" horiz-adv-x="262" 
d="M13 554l116 149h116l85 -149h-116l-30 75h-2l-49 -75h-120zM37 0l61 489h127l-60 -489h-128z" />
    <glyph glyph-name="idieresis" unicode="&#xef;" horiz-adv-x="262" 
d="M222 714c40 0 73 -32 73 -76c0 -46 -34 -81 -76 -81c-13 0 -25 3 -36 9c-11 -6 -23 -9 -36 -9c-42 0 -75 34 -75 78c0 46 34 79 78 79c13 0 24 -3 35 -9c11 6 23 9 37 9zM37 0l61 489h127l-60 -489h-128z" />
    <glyph glyph-name="i.loclTRK" horiz-adv-x="262" 
d="M181 557c-46 0 -79 34 -79 78c0 46 34 80 82 80c46 0 80 -33 80 -77c0 -46 -35 -81 -83 -81zM37 0l61 489h127l-60 -489h-128z" />
    <glyph glyph-name="uni1ECB" unicode="&#x1ecb;" horiz-adv-x="262" 
d="M181 557c-46 0 -79 34 -79 78c0 46 34 80 82 80c46 0 80 -33 80 -77c0 -46 -35 -81 -83 -81zM37 0l61 489h127l-60 -489h-128zM85 -71c46 0 79 -34 79 -78c0 -46 -34 -80 -82 -80c-46 0 -80 33 -80 77c0 46 35 81 83 81z" />
    <glyph glyph-name="igrave" unicode="&#xec;" horiz-adv-x="263" 
d="M106 563l-57 147l134 -1l47 -146h-124zM37 0l61 489h127l-60 -489h-128z" />
    <glyph glyph-name="uni1EC9" unicode="&#x1ec9;" horiz-adv-x="262" 
d="M200 549l-76 1c31 23 66 58 67 86c1 11 -7 19 -23 19c-23 0 -45 -8 -76 -29l-18 59c26 23 77 52 137 52c46 0 79 -22 79 -66c0 -56 -49 -103 -90 -122zM37 0l61 489h127l-60 -489h-128z" />
    <glyph glyph-name="ij" unicode="&#x133;" horiz-adv-x="507" 
d="M181 557c-46 0 -79 34 -79 78c0 46 34 80 82 80c46 0 80 -33 80 -77c0 -46 -35 -81 -83 -81zM429 557c-46 0 -79 34 -79 78c0 46 34 80 82 80c46 0 80 -33 80 -77c0 -46 -35 -81 -83 -81zM37 0l61 489h127l-60 -489h-128zM254 -206c-44 0 -69 9 -95 23l32 99
c13 -10 26 -14 41 -14c31 0 45 25 52 88l62 499h127l-63 -517c-16 -126 -73 -178 -156 -178z" />
    <glyph glyph-name="imacron" unicode="&#x12b;" horiz-adv-x="262" 
d="M37 583l12 102h279l-13 -102h-278zM37 0l61 489h127l-60 -489h-128z" />
    <glyph glyph-name="iogonek" unicode="&#x12f;" horiz-adv-x="262" 
d="M184 715c46 0 80 -33 80 -77c0 -46 -35 -81 -83 -81c-46 0 -79 34 -79 78c0 46 34 80 82 80zM38 6l60 483h127l-60 -489h-6c-54 -8 -95 -49 -95 -86c0 -19 10 -28 27 -28c16 0 28 3 37 8l2 -72c-20 -9 -48 -11 -72 -11c-62 0 -94 27 -94 76c0 46 32 92 74 119z" />
    <glyph glyph-name="itilde" unicode="&#x129;" horiz-adv-x="262" 
d="M246 550c-33 0 -50 19 -66 31c-14 11 -27 20 -41 20c-22 0 -42 -21 -56 -51l-69 36c25 58 65 104 115 104c37 0 54 -15 71 -27c16 -11 29 -24 43 -24c22 0 40 22 54 53l70 -30c-27 -65 -71 -112 -121 -112zM37 0l61 489h127l-60 -489h-128z" />
    <glyph glyph-name="j" unicode="j" horiz-adv-x="245" 
d="M167 557c-46 0 -79 34 -79 78c0 46 34 80 82 80c46 0 80 -33 80 -77c0 -46 -35 -81 -83 -81zM-8 -206c-44 0 -69 9 -95 23l32 99c13 -10 26 -14 41 -14c31 0 45 25 52 88l62 499h127l-63 -517c-16 -126 -73 -178 -156 -178z" />
    <glyph glyph-name="uni0237" unicode="&#x237;" horiz-adv-x="245" 
d="M-8 -206c-44 0 -69 9 -95 23l32 99c13 -10 26 -14 41 -14c31 0 45 25 52 88l62 499h127l-63 -517c-16 -126 -73 -178 -156 -178z" />
    <glyph glyph-name="uni006A0301" horiz-adv-x="245" 
d="M97 557l119 146l134 1l-129 -147h-124zM-8 -206c-44 0 -69 9 -95 23l32 99c13 -10 26 -14 41 -14c31 0 45 25 52 88l62 499h127l-63 -517c-16 -126 -73 -178 -156 -178z" />
    <glyph glyph-name="jcircumflex" unicode="&#x135;" horiz-adv-x="245" 
d="M-1 554l116 149h116l85 -149h-116l-30 75h-2l-49 -75h-120zM-8 -206c-44 0 -69 9 -95 23l32 99c13 -10 26 -14 41 -14c31 0 45 25 52 88l62 499h127l-63 -517c-16 -126 -73 -178 -156 -178z" />
    <glyph glyph-name="k" unicode="k" horiz-adv-x="516" 
d="M435 -7c-9 -1 -18 -2 -32 -2c-77 1 -104 58 -137 146l-10 27c-26 -17 -53 -33 -82 -45l-14 -119h-125l91 736h126l-59 -485l2 -1c100 65 149 151 174 239h130c-19 -95 -71 -180 -143 -250l21 -55c26 -70 48 -84 91 -90z" />
    <glyph glyph-name="kcommaaccent" unicode="&#x137;" horiz-adv-x="516" 
d="M435 -7c-9 -1 -18 -2 -32 -2c-77 1 -104 58 -137 146l-10 27c-26 -17 -53 -33 -82 -45l-14 -119h-125l91 736h126l-59 -485l2 -1c100 65 149 151 174 239h130c-19 -95 -71 -180 -143 -250l21 -55c26 -70 48 -84 91 -90zM134 -220l-15 74c41 13 57 29 57 69
c0 7 -1 14 -2 24h108v-23c0 -85 -53 -137 -148 -144z" />
    <glyph glyph-name="kgreenlandic" unicode="&#x138;" horiz-adv-x="515" 
d="M434 -7c-9 -1 -18 -2 -32 -2c-76 1 -104 58 -137 146l-9 25c-25 -17 -53 -32 -81 -45l-14 -117h-126l61 489h125l-28 -231l4 -2c98 63 147 146 171 233h130c-19 -95 -71 -180 -142 -250l20 -55c26 -70 48 -84 91 -90z" />
    <glyph glyph-name="l" unicode="l" horiz-adv-x="262" 
d="M40 0l90 736h127l-91 -736h-126z" />
    <glyph glyph-name="lacute" unicode="&#x13a;" horiz-adv-x="262" 
d="M143 782l115 134l136 1l-130 -135h-121zM40 0l90 736h127l-91 -736h-126z" />
    <glyph glyph-name="lcaron" unicode="&#x13e;" horiz-adv-x="320" 
d="M301 580l54 206h125l-86 -206h-93zM40 0l90 736h127l-91 -736h-126z" />
    <glyph glyph-name="lcommaaccent" unicode="&#x13c;" horiz-adv-x="262" 
d="M40 0l90 736h127l-91 -736h-126zM1 -220l-15 74c41 13 57 29 57 69c0 7 -1 14 -2 24h108v-23c0 -85 -53 -137 -148 -144z" />
    <glyph glyph-name="ldot" unicode="&#x140;" horiz-adv-x="443" 
d="M40 0l90 736h127l-91 -736h-126zM352 175c-47 0 -78 33 -78 77c0 47 33 81 81 81c46 0 78 -33 78 -78c0 -46 -33 -80 -81 -80z" />
    <glyph glyph-name="uni1E37" unicode="&#x1e37;" horiz-adv-x="262" 
d="M40 0l90 736h127l-91 -736h-126zM90 -71c46 0 79 -34 79 -78c0 -46 -34 -80 -82 -80c-46 0 -80 33 -80 77c0 46 35 81 83 81z" />
    <glyph glyph-name="uni1E39" unicode="&#x1e39;" horiz-adv-x="262" 
d="M66 803l12 98h279l-13 -98h-278zM40 0l90 736h127l-91 -736h-126zM83 -71c46 0 79 -34 79 -78c0 -46 -34 -80 -82 -80c-46 0 -80 33 -80 77c0 46 35 81 83 81z" />
    <glyph glyph-name="uni1E3B" unicode="&#x1e3b;" horiz-adv-x="262" 
d="M40 0l90 736h127l-91 -736h-126zM-56 -209l12 102h279l-13 -102h-278z" />
    <glyph glyph-name="lslash" unicode="&#x142;" horiz-adv-x="307" 
d="M305 429l-12 -96l-69 -30l-37 -303h-126l30 244l-66 -29l12 95l65 29l49 397h127l-42 -338z" />
    <glyph glyph-name="m" unicode="m" horiz-adv-x="824" 
d="M36 0l60 489h127l-9 -73l3 -1c46 54 100 81 157 81c59 0 96 -26 110 -82h5c45 55 101 82 167 82c100 0 135 -65 117 -202l-40 -294h-127l38 276c9 70 1 106 -34 106c-42 0 -122 -73 -139 -197l-24 -185h-126l36 276c9 70 3 106 -33 106c-43 0 -124 -78 -139 -196
l-22 -186h-127z" />
    <glyph glyph-name="uni1E43" unicode="&#x1e43;" horiz-adv-x="824" 
d="M36 0l60 489h127l-9 -73l3 -1c46 54 100 81 157 81c59 0 96 -26 110 -82h5c45 55 101 82 167 82c100 0 135 -65 117 -202l-40 -294h-127l38 276c9 70 1 106 -34 106c-42 0 -122 -73 -139 -197l-24 -185h-126l36 276c9 70 3 106 -33 106c-43 0 -124 -78 -139 -196
l-22 -186h-127zM366 -71c46 0 79 -34 79 -78c0 -46 -34 -80 -82 -80c-46 0 -80 33 -80 77c0 46 35 81 83 81z" />
    <glyph glyph-name="n" unicode="n" horiz-adv-x="552" 
d="M35 0l61 489h126l-9 -78l2 -1c48 58 105 86 169 86c100 0 136 -65 118 -200l-40 -296h-126l37 276c9 70 2 106 -40 106c-53 0 -133 -79 -149 -201l-22 -181h-127z" />
    <glyph glyph-name="nacute" unicode="&#x144;" horiz-adv-x="552" 
d="M226 556l119 146l134 1l-129 -147h-124zM35 0l61 489h126l-9 -78l2 -1c48 58 105 86 169 86c100 0 136 -65 118 -200l-40 -296h-126l37 276c9 70 2 106 -40 106c-53 0 -133 -79 -149 -201l-22 -181h-127z" />
    <glyph glyph-name="napostrophe" unicode="&#x149;" horiz-adv-x="669" 
d="M13 496l54 214h125l-87 -214h-92zM152 0l61 489h126l-9 -78l2 -1c48 58 105 86 169 86c100 0 136 -65 118 -200l-40 -296h-126l37 276c9 70 2 106 -40 106c-53 0 -133 -79 -149 -201l-22 -181h-127z" />
    <glyph glyph-name="ncaron" unicode="&#x148;" horiz-adv-x="552" 
d="M264 549l-75 147h112l34 -73h3l52 73h112l-113 -147h-125zM35 0l61 489h126l-9 -78l2 -1c48 58 105 86 169 86c100 0 136 -65 118 -200l-40 -296h-126l37 276c9 70 2 106 -40 106c-53 0 -133 -79 -149 -201l-22 -181h-127z" />
    <glyph glyph-name="ncommaaccent" unicode="&#x146;" horiz-adv-x="552" 
d="M35 0l61 489h126l-9 -78l2 -1c48 58 105 86 169 86c100 0 136 -65 118 -200l-40 -296h-126l37 276c9 70 2 106 -40 106c-53 0 -133 -79 -149 -201l-22 -181h-127zM149 -220l-15 74c41 13 57 29 57 69c0 7 -1 14 -2 24h108v-23c0 -85 -53 -137 -148 -144z" />
    <glyph glyph-name="uni1E45" unicode="&#x1e45;" horiz-adv-x="552" 
d="M336 557c-46 0 -79 34 -79 78c0 46 34 80 82 80c46 0 80 -33 80 -77c0 -46 -35 -81 -83 -81zM35 0l61 489h126l-9 -78l2 -1c48 58 105 86 169 86c100 0 136 -65 118 -200l-40 -296h-126l37 276c9 70 2 106 -40 106c-53 0 -133 -79 -149 -201l-22 -181h-127z" />
    <glyph glyph-name="uni1E47" unicode="&#x1e47;" horiz-adv-x="552" 
d="M35 0l61 489h126l-9 -78l2 -1c48 58 105 86 169 86c100 0 136 -65 118 -200l-40 -296h-126l37 276c9 70 2 106 -40 106c-53 0 -133 -79 -149 -201l-22 -181h-127zM238 -71c46 0 79 -34 79 -78c0 -46 -34 -80 -82 -80c-46 0 -80 33 -80 77c0 46 35 81 83 81z" />
    <glyph glyph-name="eng" unicode="&#x14b;" horiz-adv-x="547" 
d="M254 -205c-20 0 -40 2 -61 8l22 97c8 -2 16 -3 23 -3c52 0 84 41 96 126l34 253c9 70 2 106 -40 106c-53 0 -128 -79 -144 -201l-22 -181h-127l61 489h126l-9 -78l2 -1c43 58 100 86 164 86c100 0 136 -65 118 -200l-39 -296c-18 -140 -96 -205 -204 -205z" />
    <glyph glyph-name="uni0272" unicode="&#x272;" horiz-adv-x="552" 
d="M384 496c100 0 136 -65 118 -200l-40 -296h-126l37 276c9 70 2 106 -40 106c-52 0 -129 -75 -148 -192l-23 -190c-19 -149 -77 -205 -188 -205c-19 0 -40 2 -60 8l21 97c9 -1 15 -3 22 -3c48 0 67 30 79 114l9 66l50 412h127l-9 -78l2 -1c48 58 105 86 169 86z" />
    <glyph glyph-name="uni1E49" unicode="&#x1e49;" horiz-adv-x="552" 
d="M35 0l61 489h126l-9 -78l2 -1c48 58 105 86 169 86c100 0 136 -65 118 -200l-40 -296h-126l37 276c9 70 2 106 -40 106c-53 0 -133 -79 -149 -201l-22 -181h-127zM92 -209l12 102h279l-13 -102h-278z" />
    <glyph glyph-name="ntilde" unicode="&#xf1;" horiz-adv-x="552" 
d="M409 552c-37 0 -59 20 -76 31c-16 12 -31 20 -45 20c-25 0 -46 -22 -60 -52l-75 38c28 66 70 112 123 112c40 0 57 -17 74 -28c17 -12 30 -22 45 -22c24 0 46 22 60 52l75 -30c-28 -74 -71 -121 -121 -121zM35 0l61 489h126l-9 -78l2 -1c48 58 105 86 169 86
c100 0 136 -65 118 -200l-40 -296h-126l37 276c9 70 2 106 -40 106c-53 0 -133 -79 -149 -201l-22 -181h-127z" />
    <glyph glyph-name="o" unicode="o" horiz-adv-x="543" 
d="M241 -9c-124 0 -205 76 -205 208c0 157 97 297 263 297c125 0 208 -73 208 -204c0 -164 -89 -301 -266 -301zM248 106c78 0 131 81 131 176c0 82 -53 100 -89 100c-78 0 -127 -87 -127 -172c0 -64 35 -104 85 -104z" />
    <glyph glyph-name="oacute" unicode="&#xf3;" horiz-adv-x="543" 
d="M252 556l119 146l134 1l-129 -147h-124zM241 -9c-124 0 -205 76 -205 208c0 157 97 297 263 297c125 0 208 -73 208 -204c0 -164 -89 -301 -266 -301zM248 106c78 0 131 81 131 176c0 82 -53 100 -89 100c-78 0 -127 -87 -127 -172c0 -64 35 -104 85 -104z" />
    <glyph glyph-name="obreve" unicode="&#x14f;" horiz-adv-x="543" 
d="M317 544c-92 0 -141 55 -133 152h95c-4 -32 9 -57 44 -57s61 27 69 57h95c-17 -91 -78 -152 -170 -152zM241 -9c-124 0 -205 76 -205 208c0 157 97 297 263 297c125 0 208 -73 208 -204c0 -164 -89 -301 -266 -301zM248 106c78 0 131 81 131 176c0 82 -53 100 -89 100
c-78 0 -127 -87 -127 -172c0 -64 35 -104 85 -104z" />
    <glyph glyph-name="uni01D2" unicode="&#x1d2;" horiz-adv-x="543" 
d="M253 549l-75 147h112l34 -73h3l52 73h112l-113 -147h-125zM241 -9c-124 0 -205 76 -205 208c0 157 97 297 263 297c125 0 208 -73 208 -204c0 -164 -89 -301 -266 -301zM248 106c78 0 131 81 131 176c0 82 -53 100 -89 100c-78 0 -127 -87 -127 -172
c0 -64 35 -104 85 -104z" />
    <glyph glyph-name="ocircumflex" unicode="&#xf4;" horiz-adv-x="543" 
d="M157 554l116 149h116l85 -149h-116l-30 75h-2l-49 -75h-120zM241 -9c-124 0 -205 76 -205 208c0 157 97 297 263 297c125 0 208 -73 208 -204c0 -164 -89 -301 -266 -301zM248 106c78 0 131 81 131 176c0 82 -53 100 -89 100c-78 0 -127 -87 -127 -172
c0 -64 35 -104 85 -104z" />
    <glyph glyph-name="uni1ED1" unicode="&#x1ed1;" horiz-adv-x="543" 
d="M444 647l109 147h128l-148 -147h-89zM158 554l116 149h116l85 -149h-116l-30 75h-2l-49 -75h-120zM241 -9c-124 0 -205 76 -205 208c0 157 97 297 263 297c125 0 208 -73 208 -204c0 -164 -89 -301 -266 -301zM248 106c78 0 131 81 131 176c0 82 -53 100 -89 100
c-78 0 -127 -87 -127 -172c0 -64 35 -104 85 -104z" />
    <glyph glyph-name="uni1ED9" unicode="&#x1ed9;" horiz-adv-x="543" 
d="M157 554l116 149h116l85 -149h-116l-30 75h-2l-49 -75h-120zM241 -9c-124 0 -205 76 -205 208c0 157 97 297 263 297c125 0 208 -73 208 -204c0 -164 -89 -301 -266 -301zM248 106c78 0 131 81 131 176c0 82 -53 100 -89 100c-78 0 -127 -87 -127 -172
c0 -64 35 -104 85 -104zM222 -71c46 0 79 -34 79 -78c0 -46 -34 -80 -82 -80c-46 0 -80 33 -80 77c0 46 35 81 83 81z" />
    <glyph glyph-name="uni1ED3" unicode="&#x1ed3;" horiz-adv-x="543" 
d="M469 648l-92 147h123l54 -147h-85zM158 554l116 149h116l85 -149h-116l-30 75h-2l-49 -75h-120zM241 -9c-124 0 -205 76 -205 208c0 157 97 297 263 297c125 0 208 -73 208 -204c0 -164 -89 -301 -266 -301zM248 106c78 0 131 81 131 176c0 82 -53 100 -89 100
c-78 0 -127 -87 -127 -172c0 -64 35 -104 85 -104z" />
    <glyph glyph-name="uni1ED5" unicode="&#x1ed5;" horiz-adv-x="543" 
d="M530 648l-71 1c29 21 62 54 63 80c0 11 -7 18 -22 18c-22 0 -42 -7 -71 -27l-17 55c24 22 72 49 128 49c43 0 74 -21 74 -62c0 -52 -46 -96 -84 -114zM157 554l116 149h116l85 -149h-116l-30 75h-2l-49 -75h-120zM241 -9c-124 0 -205 76 -205 208c0 157 97 297 263 297
c125 0 208 -73 208 -204c0 -164 -89 -301 -266 -301zM248 106c78 0 131 81 131 176c0 82 -53 100 -89 100c-78 0 -127 -87 -127 -172c0 -64 35 -104 85 -104z" />
    <glyph glyph-name="uni1ED7" unicode="&#x1ed7;" horiz-adv-x="543" 
d="M414 736c-33 0 -50 19 -66 31c-14 11 -27 20 -41 20c-22 0 -42 -21 -56 -51l-69 36c25 57 65 102 115 102c37 0 54 -14 71 -26c16 -11 29 -24 43 -24c22 0 40 22 54 52l70 -29c-27 -64 -71 -111 -121 -111zM159 554l116 149h116l85 -149h-116l-30 75h-2l-49 -75h-120z
M241 -9c-124 0 -205 76 -205 208c0 157 97 297 263 297c125 0 208 -73 208 -204c0 -164 -89 -301 -266 -301zM248 106c78 0 131 81 131 176c0 82 -53 100 -89 100c-78 0 -127 -87 -127 -172c0 -64 35 -104 85 -104z" />
    <glyph glyph-name="odieresis" unicode="&#xf6;" horiz-adv-x="543" 
d="M224 557c-46 0 -79 34 -79 78c0 46 34 80 82 80c46 0 79 -33 79 -77c0 -46 -34 -81 -82 -81zM426 557c-47 0 -80 34 -80 78c0 46 35 80 83 80c46 0 79 -33 79 -77c0 -46 -34 -81 -82 -81zM241 -9c-124 0 -205 76 -205 208c0 157 97 297 263 297c125 0 208 -73 208 -204
c0 -164 -89 -301 -266 -301zM248 106c78 0 131 81 131 176c0 82 -53 100 -89 100c-78 0 -127 -87 -127 -172c0 -64 35 -104 85 -104z" />
    <glyph glyph-name="uni1ECD" unicode="&#x1ecd;" horiz-adv-x="543" 
d="M241 -9c-124 0 -205 76 -205 208c0 157 97 297 263 297c125 0 208 -73 208 -204c0 -164 -89 -301 -266 -301zM248 106c78 0 131 81 131 176c0 82 -53 100 -89 100c-78 0 -127 -87 -127 -172c0 -64 35 -104 85 -104zM222 -71c46 0 79 -34 79 -78c0 -46 -34 -80 -82 -80
c-46 0 -80 33 -80 77c0 46 35 81 83 81z" />
    <glyph glyph-name="ograve" unicode="&#xf2;" horiz-adv-x="543" 
d="M257 557l-93 147l134 -1l82 -146h-123zM241 -9c-124 0 -205 76 -205 208c0 157 97 297 263 297c125 0 208 -73 208 -204c0 -164 -89 -301 -266 -301zM248 106c78 0 131 81 131 176c0 82 -53 100 -89 100c-78 0 -127 -87 -127 -172c0 -64 35 -104 85 -104z" />
    <glyph glyph-name="uni1ECF" unicode="&#x1ecf;" horiz-adv-x="543" 
d="M344 549l-76 1c31 23 66 58 67 86c1 11 -7 19 -23 19c-23 0 -45 -8 -76 -29l-18 59c26 23 77 52 137 52c46 0 79 -22 79 -66c0 -56 -49 -103 -90 -122zM241 -9c-124 0 -205 76 -205 208c0 157 97 297 263 297c125 0 208 -73 208 -204c0 -164 -89 -301 -266 -301zM248 106
c78 0 131 81 131 176c0 82 -53 100 -89 100c-78 0 -127 -87 -127 -172c0 -64 35 -104 85 -104z" />
    <glyph glyph-name="ohorn" unicode="&#x1a1;" horiz-adv-x="635" 
d="M547 565h111l-11 -89c-15 -113 -67 -168 -140 -175v-9c0 -164 -89 -301 -266 -301c-124 0 -205 76 -205 208c0 157 97 297 263 297c97 0 169 -44 196 -125c28 12 34 60 42 119zM248 106c78 0 131 81 131 176c0 82 -53 100 -89 100c-78 0 -127 -87 -127 -172
c0 -64 35 -104 85 -104z" />
    <glyph glyph-name="uni1EDB" unicode="&#x1edb;" horiz-adv-x="635" 
d="M505 703l-129 -147h-124l119 146zM547 565h111l-11 -89c-15 -113 -67 -168 -140 -175v-9c0 -164 -89 -301 -266 -301c-124 0 -205 76 -205 208c0 157 97 297 263 297c97 0 169 -44 196 -125c28 12 34 60 42 119zM248 106c78 0 131 81 131 176c0 82 -53 100 -89 100
c-78 0 -127 -87 -127 -172c0 -64 35 -104 85 -104z" />
    <glyph glyph-name="uni1EE3" unicode="&#x1ee3;" horiz-adv-x="635" 
d="M547 565h111l-11 -89c-15 -113 -67 -168 -140 -175v-9c0 -164 -89 -301 -266 -301c-124 0 -205 76 -205 208c0 157 97 297 263 297c97 0 169 -44 196 -125c28 12 34 60 42 119zM248 106c78 0 131 81 131 176c0 82 -53 100 -89 100c-78 0 -127 -87 -127 -172
c0 -64 35 -104 85 -104zM222 -71c46 0 79 -34 79 -78c0 -46 -34 -80 -82 -80c-46 0 -80 33 -80 77c0 46 35 81 83 81z" />
    <glyph glyph-name="uni1EDD" unicode="&#x1edd;" horiz-adv-x="635" 
d="M380 557h-123l-93 147l134 -1zM547 565h111l-11 -89c-15 -113 -67 -168 -140 -175v-9c0 -164 -89 -301 -266 -301c-124 0 -205 76 -205 208c0 157 97 297 263 297c97 0 169 -44 196 -125c28 12 34 60 42 119zM248 106c78 0 131 81 131 176c0 82 -53 100 -89 100
c-78 0 -127 -87 -127 -172c0 -64 35 -104 85 -104z" />
    <glyph glyph-name="uni1EDF" unicode="&#x1edf;" horiz-adv-x="635" 
d="M312 655c-23 0 -45 -8 -76 -29l-18 59c26 23 77 52 137 52c46 0 79 -22 79 -66c0 -56 -49 -103 -90 -122l-76 1c31 23 66 58 67 86c1 11 -7 19 -23 19zM547 565h111l-11 -89c-15 -113 -67 -168 -140 -175v-9c0 -164 -89 -301 -266 -301c-124 0 -205 76 -205 208
c0 157 97 297 263 297c97 0 169 -44 196 -125c28 12 34 60 42 119zM248 106c78 0 131 81 131 176c0 82 -53 100 -89 100c-78 0 -127 -87 -127 -172c0 -64 35 -104 85 -104z" />
    <glyph glyph-name="uni1EE1" unicode="&#x1ee1;" horiz-adv-x="635" 
d="M277 603c-25 0 -46 -22 -60 -52l-75 38c28 66 70 112 123 112c40 0 57 -17 74 -28c17 -12 30 -22 45 -22c24 0 46 22 60 52l75 -30c-28 -74 -71 -121 -121 -121c-37 0 -59 20 -76 31c-16 12 -31 20 -45 20zM547 565h111l-11 -89c-15 -113 -67 -168 -140 -175v-9
c0 -164 -89 -301 -266 -301c-124 0 -205 76 -205 208c0 157 97 297 263 297c97 0 169 -44 196 -125c28 12 34 60 42 119zM248 106c78 0 131 81 131 176c0 82 -53 100 -89 100c-78 0 -127 -87 -127 -172c0 -64 35 -104 85 -104z" />
    <glyph glyph-name="ohungarumlaut" unicode="&#x151;" horiz-adv-x="543" 
d="M163 556l118 146l129 1l-129 -147h-118zM357 556l117 146l129 1l-129 -147h-117zM241 -9c-124 0 -205 76 -205 208c0 157 97 297 263 297c125 0 208 -73 208 -204c0 -164 -89 -301 -266 -301zM248 106c78 0 131 81 131 176c0 82 -53 100 -89 100
c-78 0 -127 -87 -127 -172c0 -64 35 -104 85 -104z" />
    <glyph glyph-name="omacron" unicode="&#x14d;" horiz-adv-x="543" 
d="M181 583l12 102h279l-13 -102h-278zM241 -9c-124 0 -205 76 -205 208c0 157 97 297 263 297c125 0 208 -73 208 -204c0 -164 -89 -301 -266 -301zM248 106c78 0 131 81 131 176c0 82 -53 100 -89 100c-78 0 -127 -87 -127 -172c0 -64 35 -104 85 -104z" />
    <glyph glyph-name="uni01EB" unicode="&#x1eb;" horiz-adv-x="543" 
d="M282 -6c-41 -15 -70 -49 -70 -80c0 -19 10 -28 27 -28c16 0 28 3 37 8l2 -72c-20 -9 -48 -11 -72 -11c-62 0 -94 27 -94 76c0 42 26 83 62 111l-1 2c-85 23 -137 93 -137 199c0 157 97 297 263 297c125 0 208 -73 208 -204c0 -151 -75 -279 -225 -298zM290 382
c-78 0 -127 -87 -127 -172c0 -64 35 -104 85 -104c78 0 131 81 131 176c0 82 -53 100 -89 100z" />
    <glyph glyph-name="oslash" unicode="&#xf8;" horiz-adv-x="545" 
d="M529 462l-51 -54c19 -31 29 -70 29 -116c0 -164 -89 -301 -266 -301c-50 0 -94 13 -127 36l-49 -51l-48 48l50 53c-20 32 -31 73 -31 122c0 157 97 297 263 297c53 0 98 -13 133 -38l49 51zM163 210c0 -11 1 -21 3 -30l178 186c-17 12 -37 16 -54 16
c-78 0 -127 -87 -127 -172zM379 282c0 8 0 15 -1 21l-176 -183c13 -9 29 -14 46 -14c78 0 131 81 131 176z" />
    <glyph glyph-name="oslashacute" unicode="&#x1ff;" horiz-adv-x="545" 
d="M505 703l-129 -147h-124l119 146zM529 462l-51 -54c19 -31 29 -70 29 -116c0 -164 -89 -301 -266 -301c-50 0 -94 13 -127 36l-49 -51l-48 48l50 53c-20 32 -31 73 -31 122c0 157 97 297 263 297c53 0 98 -13 133 -38l49 51zM163 210c0 -11 1 -21 3 -30l178 186
c-17 12 -37 16 -54 16c-78 0 -127 -87 -127 -172zM379 282c0 8 0 15 -1 21l-176 -183c13 -9 29 -14 46 -14c78 0 131 81 131 176z" />
    <glyph glyph-name="otilde" unicode="&#xf5;" horiz-adv-x="543" 
d="M398 552c-37 0 -59 20 -76 31c-16 12 -31 20 -45 20c-25 0 -46 -22 -60 -52l-75 38c28 66 70 112 123 112c40 0 57 -17 74 -28c17 -12 30 -22 45 -22c24 0 46 22 60 52l75 -30c-28 -74 -71 -121 -121 -121zM241 -9c-124 0 -205 76 -205 208c0 157 97 297 263 297
c125 0 208 -73 208 -204c0 -164 -89 -301 -266 -301zM248 106c78 0 131 81 131 176c0 82 -53 100 -89 100c-78 0 -127 -87 -127 -172c0 -64 35 -104 85 -104z" />
    <glyph glyph-name="oe" unicode="&#x153;" horiz-adv-x="732" 
d="M524 102c21 0 58 8 89 51l96 -64c-49 -66 -115 -97 -192 -97c-67 0 -121 25 -155 73h-3c-39 -45 -92 -73 -158 -73c-111 0 -178 80 -178 202c0 162 93 302 245 302c56 0 106 -21 136 -73h4c43 46 100 73 165 73c82 0 153 -40 153 -124c0 -114 -117 -180 -278 -211
c13 -41 46 -59 76 -59zM561 386c-42 0 -97 -50 -113 -135c91 23 153 58 153 105c0 15 -13 30 -40 30zM215 107c57 0 111 75 111 181c0 63 -28 95 -62 95c-65 0 -114 -88 -114 -181c0 -71 34 -95 65 -95z" />
    <glyph glyph-name="p" unicode="p" horiz-adv-x="565" 
d="M11 -198l85 687h126l-10 -84l2 -2c40 60 93 93 160 93c105 0 157 -91 157 -199c0 -162 -98 -306 -239 -306c-48 0 -91 12 -123 39l-3 -1l-28 -227h-127zM259 105c92 0 144 89 144 181c0 53 -22 97 -65 97c-66 0 -140 -83 -158 -218l-2 -19c17 -27 48 -41 81 -41z" />
    <glyph glyph-name="thorn" unicode="&#xfe;" horiz-adv-x="565" 
d="M11 -198l115 934h126l-41 -331l3 -2c40 60 93 93 160 93c105 0 157 -91 157 -199c0 -162 -98 -306 -239 -306c-48 0 -91 12 -123 39l-3 -1l-28 -227h-127zM259 105c92 0 144 89 144 181c0 53 -22 97 -65 97c-66 0 -140 -83 -158 -218l-2 -19c17 -27 48 -41 81 -41z" />
    <glyph glyph-name="q" unicode="q" horiz-adv-x="558" 
d="M316 -198l35 281l-3 1c-42 -60 -97 -93 -150 -93c-111 0 -164 89 -164 199c0 163 98 306 236 306c50 0 93 -14 123 -44l2 1l5 36h127l-84 -687h-127zM231 104c61 0 133 85 150 216l3 21c-26 27 -63 42 -98 42c-78 0 -124 -101 -124 -189c0 -55 25 -90 69 -90z" />
    <glyph glyph-name="r" unicode="r" horiz-adv-x="355" 
d="M36 0l60 489h127l-10 -80h2c42 58 95 87 152 87l-18 -142c-87 21 -147 -50 -164 -169l-22 -185h-127z" />
    <glyph glyph-name="racute" unicode="&#x155;" horiz-adv-x="355" 
d="M136 556l119 146l134 1l-129 -147h-124zM36 0l60 489h127l-10 -80h2c42 58 95 87 152 87l-18 -142c-87 21 -147 -50 -164 -169l-22 -185h-127z" />
    <glyph glyph-name="rcaron" unicode="&#x159;" horiz-adv-x="355" 
d="M192 549l-75 147h112l34 -73h3l52 73h112l-113 -147h-125zM36 0l60 489h127l-10 -80h2c42 58 95 87 152 87l-18 -142c-87 21 -147 -50 -164 -169l-22 -185h-127z" />
    <glyph glyph-name="rcommaaccent" unicode="&#x157;" horiz-adv-x="355" 
d="M36 0l60 489h127l-10 -80h2c42 58 95 87 152 87l-18 -142c-87 21 -147 -50 -164 -169l-22 -185h-127zM-4 -220l-15 74c41 13 57 29 57 69c0 7 -1 14 -2 24h108v-23c0 -85 -53 -137 -148 -144z" />
    <glyph glyph-name="uni1E5B" unicode="&#x1e5b;" horiz-adv-x="355" 
d="M36 0l60 489h127l-10 -80h2c42 58 95 87 152 87l-18 -142c-87 21 -147 -50 -164 -169l-22 -185h-127zM85 -71c46 0 79 -34 79 -78c0 -46 -34 -80 -82 -80c-46 0 -80 33 -80 77c0 46 35 81 83 81z" />
    <glyph glyph-name="uni1E5D" unicode="&#x1e5d;" horiz-adv-x="355" 
d="M120 583l12 102h279l-13 -102h-278zM36 0l60 489h127l-10 -80h2c42 58 95 87 152 87l-18 -142c-87 21 -147 -50 -164 -169l-22 -185h-127zM85 -71c46 0 79 -34 79 -78c0 -46 -34 -80 -82 -80c-46 0 -80 33 -80 77c0 46 35 81 83 81z" />
    <glyph glyph-name="uni1E5F" unicode="&#x1e5f;" horiz-adv-x="355" 
d="M36 0l60 489h127l-10 -80h2c42 58 95 87 152 87l-18 -142c-87 21 -147 -50 -164 -169l-22 -185h-127zM-61 -209l12 102h279l-13 -102h-278z" />
    <glyph glyph-name="s" unicode="s" horiz-adv-x="424" 
d="M190 -9c-71 0 -146 32 -184 84l77 79c29 -37 70 -59 109 -59c35 0 63 14 63 39c0 23 -27 34 -83 61c-71 33 -120 74 -120 146c0 94 78 155 174 155c63 0 128 -22 172 -73l-80 -79c-28 37 -65 49 -92 50c-28 0 -49 -15 -49 -40c0 -22 30 -41 75 -63
c64 -32 128 -66 129 -142c1 -100 -76 -158 -191 -158z" />
    <glyph glyph-name="sacute" unicode="&#x15b;" horiz-adv-x="424" 
d="M168 556l119 146l134 1l-129 -147h-124zM190 -9c-71 0 -146 32 -184 84l77 79c29 -37 70 -59 109 -59c35 0 63 14 63 39c0 23 -27 34 -83 61c-71 33 -120 74 -120 146c0 94 78 155 174 155c63 0 128 -22 172 -73l-80 -79c-28 37 -65 49 -92 50c-28 0 -49 -15 -49 -40
c0 -22 30 -41 75 -63c64 -32 128 -66 129 -142c1 -100 -76 -158 -191 -158z" />
    <glyph glyph-name="scaron" unicode="&#x161;" horiz-adv-x="424" 
d="M187 549l-75 147h112l34 -73h3l52 73h112l-113 -147h-125zM190 -9c-71 0 -146 32 -184 84l77 79c29 -37 70 -59 109 -59c35 0 63 14 63 39c0 23 -27 34 -83 61c-71 33 -120 74 -120 146c0 94 78 155 174 155c63 0 128 -22 172 -73l-80 -79c-28 37 -65 49 -92 50
c-28 0 -49 -15 -49 -40c0 -22 30 -41 75 -63c64 -32 128 -66 129 -142c1 -100 -76 -158 -191 -158z" />
    <glyph glyph-name="scedilla" unicode="&#x15f;" horiz-adv-x="424" 
d="M252 291c64 -32 128 -66 129 -142c1 -100 -76 -158 -191 -158h-2l-15 -21l1 -1c48 -2 75 -23 75 -67c0 -62 -51 -94 -126 -94c-20 0 -36 3 -51 6l3 58c10 -4 25 -6 37 -6c32 0 56 12 56 36c0 18 -21 25 -67 25l2 37l21 36c-48 13 -92 39 -118 75l77 79
c29 -37 70 -59 109 -59c35 0 63 14 63 39c0 23 -27 34 -83 61c-71 33 -120 74 -120 146c0 94 78 155 174 155c63 0 128 -22 172 -73l-80 -79c-28 37 -65 49 -92 50c-28 0 -49 -15 -49 -40c0 -22 30 -41 75 -63z" />
    <glyph glyph-name="scircumflex" unicode="&#x15d;" horiz-adv-x="424" 
d="M91 554l116 149h116l85 -149h-116l-30 75h-2l-49 -75h-120zM190 -9c-71 0 -146 32 -184 84l77 79c29 -37 70 -59 109 -59c35 0 63 14 63 39c0 23 -27 34 -83 61c-71 33 -120 74 -120 146c0 94 78 155 174 155c63 0 128 -22 172 -73l-80 -79c-28 37 -65 49 -92 50
c-28 0 -49 -15 -49 -40c0 -22 30 -41 75 -63c64 -32 128 -66 129 -142c1 -100 -76 -158 -191 -158z" />
    <glyph glyph-name="scommaaccent" unicode="&#x219;" horiz-adv-x="424" 
d="M190 -9c-71 0 -146 32 -184 84l77 79c29 -37 70 -59 109 -59c35 0 63 14 63 39c0 23 -27 34 -83 61c-71 33 -120 74 -120 146c0 94 78 155 174 155c63 0 128 -22 172 -73l-80 -79c-28 37 -65 49 -92 50c-28 0 -49 -15 -49 -40c0 -22 30 -41 75 -63
c64 -32 128 -66 129 -142c1 -100 -76 -158 -191 -158zM77 -220l-15 74c41 13 57 29 57 69c0 7 -1 14 -2 24h108v-23c0 -85 -53 -137 -148 -144z" />
    <glyph glyph-name="uni1E61" unicode="&#x1e61;" horiz-adv-x="424" 
d="M259 557c-46 0 -79 34 -79 78c0 46 34 80 82 80c46 0 80 -33 80 -77c0 -46 -35 -81 -83 -81zM190 -9c-71 0 -146 32 -184 84l77 79c29 -37 70 -59 109 -59c35 0 63 14 63 39c0 23 -27 34 -83 61c-71 33 -120 74 -120 146c0 94 78 155 174 155c63 0 128 -22 172 -73
l-80 -79c-28 37 -65 49 -92 50c-28 0 -49 -15 -49 -40c0 -22 30 -41 75 -63c64 -32 128 -66 129 -142c1 -100 -76 -158 -191 -158z" />
    <glyph glyph-name="uni1E63" unicode="&#x1e63;" horiz-adv-x="424" 
d="M190 -9c-71 0 -146 32 -184 84l77 79c29 -37 70 -59 109 -59c35 0 63 14 63 39c0 23 -27 34 -83 61c-71 33 -120 74 -120 146c0 94 78 155 174 155c63 0 128 -22 172 -73l-80 -79c-28 37 -65 49 -92 50c-28 0 -49 -15 -49 -40c0 -22 30 -41 75 -63
c64 -32 128 -66 129 -142c1 -100 -76 -158 -191 -158zM166 -71c46 0 79 -34 79 -78c0 -46 -34 -80 -82 -80c-46 0 -80 33 -80 77c0 46 35 81 83 81z" />
    <glyph glyph-name="germandbls" unicode="&#xdf;" horiz-adv-x="625" 
d="M414 -9c-72 0 -145 32 -184 84l79 78c29 -38 66 -58 103 -58c34 0 61 18 61 44c0 23 -22 34 -73 63c-64 36 -116 74 -116 142c0 66 54 100 94 142c25 25 44 54 44 88c1 36 -29 59 -79 59c-58 0 -106 -30 -117 -116l-63 -517h-127l65 530c18 150 115 215 236 215
c137 0 214 -64 212 -167c0 -65 -35 -105 -77 -142c-32 -28 -61 -50 -61 -74c0 -15 9 -31 61 -63c71 -41 126 -69 126 -150c0 -104 -77 -158 -184 -158z" />
    <glyph glyph-name="longs" unicode="&#x17f;" horiz-adv-x="315" 
d="M41 0l46 383h-44l13 106h45l11 92c13 109 67 164 154 164c43 0 79 -10 114 -35l-33 -99c-21 14 -41 21 -58 21c-27 0 -45 -13 -53 -76l-69 -556h-126z" />
    <glyph glyph-name="t" unicode="t" horiz-adv-x="340" 
d="M169 -9c-80 0 -122 52 -111 149l30 243h-51l13 106h50l20 148l129 25l-21 -173h111l-13 -106h-111l-27 -223c-5 -36 8 -50 28 -50c16 0 37 7 61 21l19 -105c-39 -23 -85 -35 -127 -35z" />
    <glyph glyph-name="tbar" unicode="&#x167;" horiz-adv-x="340" 
d="M326 383h-111l-10 -79h91l-11 -82h-89l-8 -62c-5 -36 8 -50 28 -50c16 0 37 7 61 21l19 -105c-39 -23 -85 -35 -127 -35c-80 0 -122 52 -111 149l10 82h-44l10 82h44l10 79h-51l13 106h50l20 148l129 25l-21 -173h111z" />
    <glyph glyph-name="tcaron" unicode="&#x165;" horiz-adv-x="357" 
d="M291 580l54 206h124l-86 -206h-92zM169 -9c-80 0 -122 52 -111 149l30 243h-51l13 106h50l20 148l129 25l-21 -173h111l-13 -106h-111l-27 -223c-5 -36 8 -50 28 -50c16 0 37 7 61 21l19 -105c-39 -23 -85 -35 -127 -35z" />
    <glyph glyph-name="uni0163" unicode="&#x163;" horiz-adv-x="340" 
d="M215 383l-27 -223c-5 -36 8 -50 28 -50c16 0 37 7 61 21l19 -105c-38 -22 -82 -34 -122 -35l-15 -21l1 -1c48 -2 75 -23 75 -67c0 -62 -51 -94 -126 -94c-20 0 -36 3 -51 6l3 58c10 -4 25 -6 37 -6c32 0 56 12 56 36c0 18 -21 25 -67 25l2 37l23 39
c-42 20 -62 67 -54 137l30 243h-51l13 106h50l20 148l129 25l-21 -173h111l-13 -106h-111z" />
    <glyph glyph-name="uni021B" unicode="&#x21b;" horiz-adv-x="340" 
d="M169 -9c-80 0 -122 52 -111 149l30 243h-51l13 106h50l20 148l129 25l-21 -173h111l-13 -106h-111l-27 -223c-5 -36 8 -50 28 -50c16 0 37 7 61 21l19 -105c-39 -23 -85 -35 -127 -35zM63 -220l-15 74c41 13 57 29 57 69c0 7 -1 14 -2 24h108v-23
c0 -85 -53 -137 -148 -144z" />
    <glyph glyph-name="uni1E97" unicode="&#x1e97;" horiz-adv-x="340" 
d="M127 702c-46 0 -79 34 -79 78c0 46 34 80 82 80c46 0 79 -33 79 -77c0 -46 -34 -81 -82 -81zM329 702c-47 0 -80 34 -80 78c0 46 35 80 83 80c46 0 79 -33 79 -77c0 -46 -34 -81 -82 -81zM169 -9c-80 0 -122 52 -111 149l30 243h-51l13 106h50l20 148l129 25l-21 -173
h111l-13 -106h-111l-27 -223c-5 -36 8 -50 28 -50c16 0 37 7 61 21l19 -105c-39 -23 -85 -35 -127 -35z" />
    <glyph glyph-name="uni1E6D" unicode="&#x1e6d;" horiz-adv-x="340" 
d="M169 -9c-80 0 -122 52 -111 149l30 243h-51l13 106h50l20 148l129 25l-21 -173h111l-13 -106h-111l-27 -223c-5 -36 8 -50 28 -50c16 0 37 7 61 21l19 -105c-39 -23 -85 -35 -127 -35zM152 -71c46 0 79 -34 79 -78c0 -46 -34 -80 -82 -80c-46 0 -80 33 -80 77
c0 46 35 81 83 81z" />
    <glyph glyph-name="uni1E6F" unicode="&#x1e6f;" horiz-adv-x="340" 
d="M169 -9c-80 0 -122 52 -111 149l30 243h-51l13 106h50l20 148l129 25l-21 -173h111l-13 -106h-111l-27 -223c-5 -36 8 -50 28 -50c16 0 37 7 61 21l19 -105c-39 -23 -85 -35 -127 -35zM6 -209l12 102h279l-13 -102h-278z" />
    <glyph glyph-name="u" unicode="u" horiz-adv-x="542" 
d="M178 -9c-97 0 -147 54 -128 196l43 302h126l-38 -277c-12 -80 2 -106 42 -106c48 0 123 74 135 167l26 216h127l-60 -489h-126l9 80h-2c-37 -52 -88 -89 -154 -89z" />
    <glyph glyph-name="uacute" unicode="&#xfa;" horiz-adv-x="542" 
d="M246 556l119 146l134 1l-129 -147h-124zM178 -9c-97 0 -147 54 -128 196l43 302h126l-38 -277c-12 -80 2 -106 42 -106c48 0 123 74 135 167l26 216h127l-60 -489h-126l9 80h-2c-37 -52 -88 -89 -154 -89z" />
    <glyph glyph-name="ubreve" unicode="&#x16d;" horiz-adv-x="542" 
d="M312 544c-92 0 -141 55 -133 152h95c-4 -32 9 -57 44 -57s61 27 69 57h95c-17 -91 -78 -152 -170 -152zM178 -9c-97 0 -147 54 -128 196l43 302h126l-38 -277c-12 -80 2 -106 42 -106c48 0 123 74 135 167l26 216h127l-60 -489h-126l9 80h-2c-37 -52 -88 -89 -154 -89z
" />
    <glyph glyph-name="ucircumflex" unicode="&#xfb;" horiz-adv-x="542" 
d="M152 554l116 149h116l85 -149h-116l-30 75h-2l-49 -75h-120zM178 -9c-97 0 -147 54 -128 196l43 302h126l-38 -277c-12 -80 2 -106 42 -106c48 0 123 74 135 167l26 216h127l-60 -489h-126l9 80h-2c-37 -52 -88 -89 -154 -89z" />
    <glyph glyph-name="udieresis" unicode="&#xfc;" horiz-adv-x="542" 
d="M219 557c-46 0 -79 34 -79 78c0 46 34 80 82 80c46 0 79 -33 79 -77c0 -46 -34 -81 -82 -81zM421 557c-47 0 -80 34 -80 78c0 46 35 80 83 80c46 0 79 -33 79 -77c0 -46 -34 -81 -82 -81zM178 -9c-97 0 -147 54 -128 196l43 302h126l-38 -277c-12 -80 2 -106 42 -106
c48 0 123 74 135 167l26 216h127l-60 -489h-126l9 80h-2c-37 -52 -88 -89 -154 -89z" />
    <glyph glyph-name="uni1EE5" unicode="&#x1ee5;" horiz-adv-x="542" 
d="M178 -9c-97 0 -147 54 -128 196l43 302h126l-38 -277c-12 -80 2 -106 42 -106c48 0 123 74 135 167l26 216h127l-60 -489h-126l9 80h-2c-37 -52 -88 -89 -154 -89zM226 -71c46 0 79 -34 79 -78c0 -46 -34 -80 -82 -80c-46 0 -80 33 -80 77c0 46 35 81 83 81z" />
    <glyph glyph-name="ugrave" unicode="&#xf9;" horiz-adv-x="542" 
d="M253 557l-93 147l134 -1l82 -146h-123zM178 -9c-97 0 -147 54 -128 196l43 302h126l-38 -277c-12 -80 2 -106 42 -106c48 0 123 74 135 167l26 216h127l-60 -489h-126l9 80h-2c-37 -52 -88 -89 -154 -89z" />
    <glyph glyph-name="uni1EE7" unicode="&#x1ee7;" horiz-adv-x="542" 
d="M339 549l-76 1c31 23 66 58 67 86c1 11 -7 19 -23 19c-23 0 -45 -8 -76 -29l-18 59c26 23 77 52 137 52c46 0 79 -22 79 -66c0 -56 -49 -103 -90 -122zM178 -9c-97 0 -147 54 -128 196l43 302h126l-38 -277c-12 -80 2 -106 42 -106c48 0 123 74 135 167l26 216h127
l-60 -489h-126l9 80h-2c-37 -52 -88 -89 -154 -89z" />
    <glyph glyph-name="uhorn" unicode="&#x1b0;" horiz-adv-x="654" 
d="M573 565h111l-11 -89c-16 -121 -75 -176 -156 -176c-10 0 -19 1 -29 2l-37 -302h-126l9 80h-2c-37 -52 -88 -89 -154 -89c-97 0 -147 54 -128 196l43 302h126l-38 -277c-12 -80 2 -106 42 -106c48 0 123 74 135 167l26 216h127l-15 -120c4 -1 7 -1 10 -1
c41 0 48 54 57 122z" />
    <glyph glyph-name="uni1EE9" unicode="&#x1ee9;" horiz-adv-x="654" 
d="M499 703l-129 -147h-124l119 146zM573 565h111l-11 -89c-16 -121 -75 -176 -156 -176c-10 0 -19 1 -29 2l-37 -302h-126l9 80h-2c-37 -52 -88 -89 -154 -89c-97 0 -147 54 -128 196l43 302h126l-38 -277c-12 -80 2 -106 42 -106c48 0 123 74 135 167l26 216h127l-15 -120
c4 -1 7 -1 10 -1c41 0 48 54 57 122z" />
    <glyph glyph-name="uni1EF1" unicode="&#x1ef1;" horiz-adv-x="654" 
d="M573 565h111l-11 -89c-16 -121 -75 -176 -156 -176c-10 0 -19 1 -29 2l-37 -302h-126l9 80h-2c-37 -52 -88 -89 -154 -89c-97 0 -147 54 -128 196l43 302h126l-38 -277c-12 -80 2 -106 42 -106c48 0 123 74 135 167l26 216h127l-15 -120c4 -1 7 -1 10 -1
c41 0 48 54 57 122zM226 -71c46 0 79 -34 79 -78c0 -46 -34 -80 -82 -80c-46 0 -80 33 -80 77c0 46 35 81 83 81z" />
    <glyph glyph-name="uni1EEB" unicode="&#x1eeb;" horiz-adv-x="654" 
d="M376 557h-123l-93 147l134 -1zM573 565h111l-11 -89c-16 -121 -75 -176 -156 -176c-10 0 -19 1 -29 2l-37 -302h-126l9 80h-2c-37 -52 -88 -89 -154 -89c-97 0 -147 54 -128 196l43 302h126l-38 -277c-12 -80 2 -106 42 -106c48 0 123 74 135 167l26 216h127l-15 -120
c4 -1 7 -1 10 -1c41 0 48 54 57 122z" />
    <glyph glyph-name="uni1EED" unicode="&#x1eed;" horiz-adv-x="654" 
d="M307 655c-23 0 -45 -8 -76 -29l-18 59c26 23 77 52 137 52c46 0 79 -22 79 -66c0 -56 -49 -103 -90 -122l-76 1c31 23 66 58 67 86c1 11 -7 19 -23 19zM573 565h111l-11 -89c-16 -121 -75 -176 -156 -176c-10 0 -19 1 -29 2l-37 -302h-126l9 80h-2
c-37 -52 -88 -89 -154 -89c-97 0 -147 54 -128 196l43 302h126l-38 -277c-12 -80 2 -106 42 -106c48 0 123 74 135 167l26 216h127l-15 -120c4 -1 7 -1 10 -1c41 0 48 54 57 122z" />
    <glyph glyph-name="uni1EEF" unicode="&#x1eef;" horiz-adv-x="654" 
d="M272 603c-25 0 -46 -22 -60 -52l-75 38c28 66 70 112 123 112c40 0 57 -17 74 -28c17 -12 30 -22 45 -22c24 0 46 22 60 52l75 -30c-28 -74 -71 -121 -121 -121c-37 0 -59 20 -76 31c-16 12 -31 20 -45 20zM573 565h111l-11 -89c-16 -121 -75 -176 -156 -176
c-10 0 -19 1 -29 2l-37 -302h-126l9 80h-2c-37 -52 -88 -89 -154 -89c-97 0 -147 54 -128 196l43 302h126l-38 -277c-12 -80 2 -106 42 -106c48 0 123 74 135 167l26 216h127l-15 -120c4 -1 7 -1 10 -1c41 0 48 54 57 122z" />
    <glyph glyph-name="uhungarumlaut" unicode="&#x171;" horiz-adv-x="542" 
d="M158 556l118 146l129 1l-129 -147h-118zM352 556l117 146l129 1l-129 -147h-117zM178 -9c-97 0 -147 54 -128 196l43 302h126l-38 -277c-12 -80 2 -106 42 -106c48 0 123 74 135 167l26 216h127l-60 -489h-126l9 80h-2c-37 -52 -88 -89 -154 -89z" />
    <glyph glyph-name="umacron" unicode="&#x16b;" horiz-adv-x="542" 
d="M176 583l12 102h279l-13 -102h-278zM178 -9c-97 0 -147 54 -128 196l43 302h126l-38 -277c-12 -80 2 -106 42 -106c48 0 123 74 135 167l26 216h127l-60 -489h-126l9 80h-2c-37 -52 -88 -89 -154 -89z" />
    <glyph glyph-name="uni01D4" unicode="&#x1d4;" horiz-adv-x="542" 
d="M248 549l-75 147h112l34 -73h3l52 73h112l-113 -147h-125zM178 -9c-97 0 -147 54 -128 196l43 302h126l-38 -277c-12 -80 2 -106 42 -106c48 0 123 74 135 167l26 216h127l-60 -489h-126l9 80h-2c-37 -52 -88 -89 -154 -89z" />
    <glyph glyph-name="uni01D6" unicode="&#x1d6;" horiz-adv-x="542" 
d="M189 752l11 84h279l-11 -84h-279zM218 557c-43 0 -75 32 -75 73c0 44 33 76 78 76c42 0 75 -31 75 -73c0 -44 -33 -76 -78 -76zM410 557c-44 0 -75 32 -75 73c0 44 32 76 77 76c43 0 75 -31 75 -73c0 -44 -33 -76 -77 -76zM178 -9c-97 0 -147 54 -128 196l43 302h126
l-38 -277c-12 -80 2 -106 42 -106c48 0 123 74 135 167l26 216h127l-60 -489h-126l9 80h-2c-37 -52 -88 -89 -154 -89z" />
    <glyph glyph-name="uni01D8" unicode="&#x1d8;" horiz-adv-x="542" 
d="M276 723l113 141h130l-149 -141h-94zM218 557c-43 0 -75 32 -75 73c0 44 33 76 78 76c42 0 75 -31 75 -73c0 -44 -33 -76 -78 -76zM410 557c-44 0 -75 32 -75 73c0 44 32 76 77 76c43 0 75 -31 75 -73c0 -44 -33 -76 -77 -76zM178 -9c-97 0 -147 54 -128 196l43 302h126
l-38 -277c-12 -80 2 -106 42 -106c48 0 123 74 135 167l26 216h127l-60 -489h-126l9 80h-2c-37 -52 -88 -89 -154 -89z" />
    <glyph glyph-name="uni01DA" unicode="&#x1da;" horiz-adv-x="542" 
d="M265 720l-75 143h112l34 -71h3l52 71h112l-113 -143h-125zM218 557c-43 0 -75 32 -75 73c0 44 33 76 78 76c42 0 75 -31 75 -73c0 -44 -33 -76 -78 -76zM410 557c-44 0 -75 32 -75 73c0 44 32 76 77 76c43 0 75 -31 75 -73c0 -44 -33 -76 -77 -76zM178 -9
c-97 0 -147 54 -128 196l43 302h126l-38 -277c-12 -80 2 -106 42 -106c48 0 123 74 135 167l26 216h127l-60 -489h-126l9 80h-2c-37 -52 -88 -89 -154 -89z" />
    <glyph glyph-name="uni01DC" unicode="&#x1dc;" horiz-adv-x="542" 
d="M274 723l-103 141h128l67 -141h-92zM218 557c-43 0 -75 32 -75 73c0 44 33 76 78 76c42 0 75 -31 75 -73c0 -44 -33 -76 -78 -76zM410 557c-44 0 -75 32 -75 73c0 44 32 76 77 76c43 0 75 -31 75 -73c0 -44 -33 -76 -77 -76zM178 -9c-97 0 -147 54 -128 196l43 302h126
l-38 -277c-12 -80 2 -106 42 -106c48 0 123 74 135 167l26 216h127l-60 -489h-126l9 80h-2c-37 -52 -88 -89 -154 -89z" />
    <glyph glyph-name="uni0251" unicode="&#x251;" horiz-adv-x="558" 
d="M198 -9c-111 0 -164 89 -164 199c0 163 98 306 236 306c50 0 93 -14 122 -45l3 1l5 36h127l-60 -488h-127l10 82l-3 1c-42 -60 -96 -92 -149 -92zM231 104c61 0 133 82 151 221l2 16c-26 26 -63 41 -98 41c-78 0 -124 -100 -124 -188c0 -55 25 -90 69 -90z" />
    <glyph glyph-name="uni0261" unicode="&#x261;" horiz-adv-x="559" 
d="M195 -206c-59 0 -117 14 -170 47l41 105c41 -26 82 -40 130 -40c83 0 139 28 155 185l16 4l-17 6c-42 -61 -97 -94 -151 -94c-112 0 -164 89 -164 195c0 151 97 294 236 294c50 0 93 -14 123 -44l2 1l4 36h127l-52 -427c-27 -218 -146 -268 -280 -268zM231 120
c60 0 131 77 149 196l4 25c-26 26 -63 41 -97 41c-78 0 -124 -100 -124 -175c0 -54 25 -87 68 -87z" />
    <glyph glyph-name="uni1E31" unicode="&#x1e31;" horiz-adv-x="516" 
d="M435 -7c-9 -1 -18 -2 -32 -2c-77 1 -104 58 -137 146l-10 27c-26 -17 -53 -33 -82 -45l-14 -119h-125l91 736h126l-59 -485l2 -1c100 65 149 151 174 239h130c-19 -95 -71 -180 -143 -250l21 -55c26 -70 48 -84 91 -90zM265 556l119 146l134 1l-129 -147h-124z" />
    <glyph glyph-name="uogonek" unicode="&#x173;" horiz-adv-x="542" 
d="M384 489h127l-60 -489h-5c-54 -8 -95 -49 -95 -86c0 -19 10 -28 27 -28c16 0 28 3 37 8l2 -72c-20 -9 -48 -11 -72 -11c-62 0 -94 27 -94 76c0 47 33 93 75 120l8 73h-2c-37 -52 -88 -89 -154 -89c-97 0 -147 54 -128 196l43 302h126l-38 -277c-12 -80 2 -106 42 -106
c48 0 123 74 135 167z" />
    <glyph glyph-name="uring" unicode="&#x16f;" horiz-adv-x="542" 
d="M322 539c-58 0 -103 44 -103 103c0 61 46 106 107 106c59 0 103 -44 103 -102c0 -62 -46 -107 -107 -107zM324 606c22 0 38 17 38 38s-16 37 -37 37c-22 0 -38 -17 -38 -38s15 -37 37 -37zM178 -9c-97 0 -147 54 -128 196l43 302h126l-38 -277c-12 -80 2 -106 42 -106
c48 0 123 74 135 167l26 216h127l-60 -489h-126l9 80h-2c-37 -52 -88 -89 -154 -89z" />
    <glyph glyph-name="utilde" unicode="&#x169;" horiz-adv-x="542" 
d="M393 552c-37 0 -59 20 -76 31c-16 12 -31 20 -45 20c-25 0 -46 -22 -60 -52l-75 38c28 66 70 112 123 112c40 0 57 -17 74 -28c17 -12 30 -22 45 -22c24 0 46 22 60 52l75 -30c-28 -74 -71 -121 -121 -121zM178 -9c-97 0 -147 54 -128 196l43 302h126l-38 -277
c-12 -80 2 -106 42 -106c48 0 123 74 135 167l26 216h127l-60 -489h-126l9 80h-2c-37 -52 -88 -89 -154 -89z" />
    <glyph glyph-name="v" unicode="v" horiz-adv-x="505" 
d="M197 -9c-121 0 -164 81 -147 216l35 282h126l-32 -264c-10 -79 -4 -119 36 -119c42 0 108 51 132 194c10 62 10 122 0 189h128c12 -66 12 -147 -1 -219c-36 -203 -154 -279 -277 -279z" />
    <glyph glyph-name="w" unicode="w" horiz-adv-x="773" 
d="M173 -9c-99 0 -143 73 -125 206l40 292h126l-36 -272c-10 -80 5 -111 41 -111c32 0 99 37 115 173l26 210h125l-34 -281c-10 -76 4 -102 37 -102c40 0 104 51 126 194c11 62 10 122 1 189h129c11 -66 11 -147 -2 -219c-35 -203 -153 -279 -271 -279
c-79 0 -125 43 -136 94h-2c-34 -60 -109 -94 -160 -94z" />
    <glyph glyph-name="wacute" unicode="&#x1e83;" horiz-adv-x="773" 
d="M369 556l119 146l134 1l-129 -147h-124zM173 -9c-99 0 -143 73 -125 206l40 292h126l-36 -272c-10 -80 5 -111 41 -111c32 0 99 37 115 173l26 210h125l-34 -281c-10 -76 4 -102 37 -102c40 0 104 51 126 194c11 62 10 122 1 189h129c11 -66 11 -147 -2 -219
c-35 -203 -153 -279 -271 -279c-79 0 -125 43 -136 94h-2c-34 -60 -109 -94 -160 -94z" />
    <glyph glyph-name="wcircumflex" unicode="&#x175;" horiz-adv-x="773" 
d="M272 554l116 149h116l85 -149h-116l-30 75h-2l-49 -75h-120zM173 -9c-99 0 -143 73 -125 206l40 292h126l-36 -272c-10 -80 5 -111 41 -111c32 0 99 37 115 173l26 210h125l-34 -281c-10 -76 4 -102 37 -102c40 0 104 51 126 194c11 62 10 122 1 189h129
c11 -66 11 -147 -2 -219c-35 -203 -153 -279 -271 -279c-79 0 -125 43 -136 94h-2c-34 -60 -109 -94 -160 -94z" />
    <glyph glyph-name="wdieresis" unicode="&#x1e85;" horiz-adv-x="773" 
d="M339 557c-46 0 -79 34 -79 78c0 46 34 80 82 80c46 0 79 -33 79 -77c0 -46 -34 -81 -82 -81zM541 557c-47 0 -80 34 -80 78c0 46 35 80 83 80c46 0 79 -33 79 -77c0 -46 -34 -81 -82 -81zM173 -9c-99 0 -143 73 -125 206l40 292h126l-36 -272c-10 -80 5 -111 41 -111
c32 0 99 37 115 173l26 210h125l-34 -281c-10 -76 4 -102 37 -102c40 0 104 51 126 194c11 62 10 122 1 189h129c11 -66 11 -147 -2 -219c-35 -203 -153 -279 -271 -279c-79 0 -125 43 -136 94h-2c-34 -60 -109 -94 -160 -94z" />
    <glyph glyph-name="wgrave" unicode="&#x1e81;" horiz-adv-x="773" 
d="M369 557l-93 147l134 -1l82 -146h-123zM173 -9c-99 0 -143 73 -125 206l40 292h126l-36 -272c-10 -80 5 -111 41 -111c32 0 99 37 115 173l26 210h125l-34 -281c-10 -76 4 -102 37 -102c40 0 104 51 126 194c11 62 10 122 1 189h129c11 -66 11 -147 -2 -219
c-35 -203 -153 -279 -271 -279c-79 0 -125 43 -136 94h-2c-34 -60 -109 -94 -160 -94z" />
    <glyph glyph-name="x" unicode="x" horiz-adv-x="479" 
d="M-13 0l181 251l-117 238h142l58 -141h2l91 141h149l-180 -244l121 -245h-141l-63 144h-2l-100 -144h-141z" />
    <glyph glyph-name="y" unicode="y" horiz-adv-x="540" 
d="M385 489h125l-52 -426c-26 -219 -148 -269 -270 -269c-57 0 -119 14 -172 47l40 103c42 -27 83 -41 128 -41c75 0 131 27 149 166l1 10l-2 1c-38 -53 -89 -89 -157 -89c-97 0 -147 54 -127 196l41 302h126l-37 -277c-10 -80 2 -105 43 -106c52 0 127 79 138 174z" />
    <glyph glyph-name="yacute" unicode="&#xfd;" horiz-adv-x="540" 
d="M489 703l-129 -147h-124l119 146zM385 489h125l-52 -426c-26 -219 -148 -269 -270 -269c-57 0 -119 14 -172 47l40 103c42 -27 83 -41 128 -41c75 0 131 27 149 166l1 10l-2 1c-38 -53 -89 -89 -157 -89c-97 0 -147 54 -127 196l41 302h126l-37 -277
c-10 -80 2 -105 43 -106c52 0 127 79 138 174z" />
    <glyph glyph-name="ycircumflex" unicode="&#x177;" horiz-adv-x="540" 
d="M318 629l-49 -75h-120l116 149h116l85 -149h-116l-30 75h-2zM385 489h125l-52 -426c-26 -219 -148 -269 -270 -269c-57 0 -119 14 -172 47l40 103c42 -27 83 -41 128 -41c75 0 131 27 149 166l1 10l-2 1c-38 -53 -89 -89 -157 -89c-97 0 -147 54 -127 196l41 302h126
l-37 -277c-10 -80 2 -105 43 -106c52 0 127 79 138 174z" />
    <glyph glyph-name="ydieresis" unicode="&#xff;" horiz-adv-x="540" 
d="M216 557c-46 0 -79 34 -79 78c0 46 34 80 82 80c46 0 79 -33 79 -77c0 -46 -34 -81 -82 -81zM418 557c-47 0 -80 34 -80 78c0 46 35 80 83 80c46 0 79 -33 79 -77c0 -46 -34 -81 -82 -81zM385 489h125l-52 -426c-26 -219 -148 -269 -270 -269c-57 0 -119 14 -172 47
l40 103c42 -27 83 -41 128 -41c75 0 131 27 149 166l1 10l-2 1c-38 -53 -89 -89 -157 -89c-97 0 -147 54 -127 196l41 302h126l-37 -277c-10 -80 2 -105 43 -106c52 0 127 79 138 174z" />
    <glyph glyph-name="uni1E8F" unicode="&#x1e8f;" horiz-adv-x="540" 
d="M317 557c-46 0 -79 34 -79 78c0 46 34 80 82 80c46 0 80 -33 80 -77c0 -46 -35 -81 -83 -81zM385 489h125l-52 -426c-26 -219 -148 -269 -270 -269c-57 0 -119 14 -172 47l40 103c42 -27 83 -41 128 -41c75 0 131 27 149 166l1 10l-2 1c-38 -53 -89 -89 -157 -89
c-97 0 -147 54 -127 196l41 302h126l-37 -277c-10 -80 2 -105 43 -106c52 0 127 79 138 174z" />
    <glyph glyph-name="uni1EF5" unicode="&#x1ef5;" horiz-adv-x="540" 
d="M385 489h125l-52 -426c-26 -219 -148 -269 -270 -269c-57 0 -119 14 -172 47l40 103c42 -27 83 -41 128 -41c75 0 131 27 149 166l1 10l-2 1c-38 -53 -89 -89 -157 -89c-97 0 -147 54 -127 196l41 302h126l-37 -277c-10 -80 2 -105 43 -106c52 0 127 79 138 174z
M211 -220c46 0 79 -34 79 -78c0 -46 -34 -80 -82 -80c-46 0 -80 33 -80 77c0 46 35 81 83 81z" />
    <glyph glyph-name="ygrave" unicode="&#x1ef3;" horiz-adv-x="540" 
d="M379 557h-123l-93 147l134 -1zM385 489h125l-52 -426c-26 -219 -148 -269 -270 -269c-57 0 -119 14 -172 47l40 103c42 -27 83 -41 128 -41c75 0 131 27 149 166l1 10l-2 1c-38 -53 -89 -89 -157 -89c-97 0 -147 54 -127 196l41 302h126l-37 -277c-10 -80 2 -105 43 -106
c52 0 127 79 138 174z" />
    <glyph glyph-name="uni1EF7" unicode="&#x1ef7;" horiz-adv-x="540" 
d="M304 655c-23 0 -45 -8 -76 -29l-18 59c26 23 77 52 137 52c46 0 79 -22 79 -66c0 -56 -49 -103 -90 -122l-76 1c31 23 66 58 67 86c1 11 -7 19 -23 19zM385 489h125l-52 -426c-26 -219 -148 -269 -270 -269c-57 0 -119 14 -172 47l40 103c42 -27 83 -41 128 -41
c75 0 131 27 149 166l1 10l-2 1c-38 -53 -89 -89 -157 -89c-97 0 -147 54 -127 196l41 302h126l-37 -277c-10 -80 2 -105 43 -106c52 0 127 79 138 174z" />
    <glyph glyph-name="uni0233" unicode="&#x233;" horiz-adv-x="540" 
d="M464 685l-13 -102h-278l12 102h279zM385 489h125l-52 -426c-26 -219 -148 -269 -270 -269c-57 0 -119 14 -172 47l40 103c42 -27 83 -41 128 -41c75 0 131 27 149 166l1 10l-2 1c-38 -53 -89 -89 -157 -89c-97 0 -147 54 -127 196l41 302h126l-37 -277
c-10 -80 2 -105 43 -106c52 0 127 79 138 174z" />
    <glyph glyph-name="uni1EF9" unicode="&#x1ef9;" horiz-adv-x="540" 
d="M269 603c-25 0 -46 -22 -60 -52l-75 38c28 66 70 112 123 112c40 0 57 -17 74 -28c17 -12 30 -22 45 -22c24 0 46 22 60 52l75 -30c-28 -74 -71 -121 -121 -121c-37 0 -59 20 -76 31c-16 12 -31 20 -45 20zM359 280l26 209h125l-52 -426c-26 -219 -148 -269 -270 -269
c-57 0 -119 14 -172 47l40 103c42 -27 83 -41 128 -41c75 0 131 27 149 166l1 10l-2 1c-38 -53 -89 -89 -157 -89c-97 0 -147 54 -127 196l41 302h126l-37 -277c-10 -80 2 -105 43 -106c52 0 127 79 138 174z" />
    <glyph glyph-name="z" unicode="z" horiz-adv-x="458" 
d="M372 -28c-105 28 -237 28 -365 28l10 87l241 296v1h-187l12 105h359l-9 -87l-245 -296v-2c71 -2 147 -9 216 -31z" />
    <glyph glyph-name="zacute" unicode="&#x17a;" horiz-adv-x="458" 
d="M169 556l119 146l134 1l-129 -147h-124zM372 -28c-105 28 -237 28 -365 28l10 87l241 296v1h-187l12 105h359l-9 -87l-245 -296v-2c71 -2 147 -9 216 -31z" />
    <glyph glyph-name="zcaron" unicode="&#x17e;" horiz-adv-x="458" 
d="M206 549l-75 147h112l34 -73h3l52 73h112l-113 -147h-125zM372 -28c-105 28 -237 28 -365 28l10 87l241 296v1h-187l12 105h359l-9 -87l-245 -296v-2c71 -2 147 -9 216 -31z" />
    <glyph glyph-name="zdotaccent" unicode="&#x17c;" horiz-adv-x="458" 
d="M278 557c-46 0 -79 34 -79 78c0 46 34 80 82 80c46 0 80 -33 80 -77c0 -46 -35 -81 -83 -81zM372 -28c-105 28 -237 28 -365 28l10 87l241 296v1h-187l12 105h359l-9 -87l-245 -296v-2c71 -2 147 -9 216 -31z" />
    <glyph glyph-name="uni1E93" unicode="&#x1e93;" horiz-adv-x="458" 
d="M372 -28c-105 28 -237 28 -365 28l10 87l241 296v1h-187l12 105h359l-9 -87l-245 -296v-2c71 -2 147 -9 216 -31zM185 -71c46 0 79 -34 79 -78c0 -46 -34 -80 -82 -80c-46 0 -80 33 -80 77c0 46 35 81 83 81z" />
    <glyph glyph-name="f.calt" horiz-adv-x="317" 
d="M47 0l47 383h-44l12 106h45l11 92c13 109 67 164 155 164c24 0 47 -3 68 -11l-28 -103c-7 1 -12 2 -17 2c-27 0 -46 -13 -54 -77l-8 -67h89l-13 -106h-90l-46 -383h-127z" />
    <glyph glyph-name="germandbls.calt" horiz-adv-x="742" 
d="M537 414c94 -55 183 -90 183 -197c0 -147 -108 -226 -234 -226c-83 0 -164 34 -215 90l72 118c31 -59 88 -86 140 -86c56 0 94 40 94 88c1 46 -44 66 -100 96c-37 20 -71 37 -107 65l139 222l-1 5c-48 6 -91 9 -119 9c-89 0 -145 -34 -156 -133l-58 -465h-134l58 471
c23 181 134 248 293 248c75 0 202 -20 309 -48z" />
    <glyph glyph-name="ordfeminine" unicode="&#xaa;" horiz-adv-x="364" 
d="M158 388c-52 0 -100 39 -100 122c0 103 71 182 152 182c30 0 51 -10 65 -25h2l3 20h87l-36 -294h-88l6 43h-3c-23 -28 -53 -48 -88 -48zM182 469c33 0 76 40 86 112l1 9c-11 16 -34 20 -48 20c-43 0 -72 -50 -72 -97c0 -28 12 -44 33 -44z" />
    <glyph glyph-name="ordmasculine" unicode="&#xba;" horiz-adv-x="332" 
d="M184 389c-74 0 -124 44 -124 125c0 92 55 178 162 178c70 0 123 -39 123 -123c0 -91 -51 -180 -161 -180zM190 470c34 0 64 41 64 91c0 41 -25 50 -39 50c-37 0 -64 -44 -64 -88c0 -33 17 -53 39 -53z" />
    <glyph glyph-name="uni0410" unicode="&#x410;" horiz-adv-x="642" 
d="M-12 0l322 710h136l149 -710h-142l-26 144h-237l-61 -144h-141zM237 261h170l-51 281h-2z" />
    <glyph glyph-name="uni0411" unicode="&#x411;" horiz-adv-x="597" 
d="M52 0l87 710h416l-15 -122h-282l-18 -147h105c185 0 213 -104 211 -190c-2 -170 -102 -251 -277 -251h-227zM200 120h88c84 0 127 44 127 121c0 62 -30 83 -94 83h-95z" />
    <glyph glyph-name="uni0412" unicode="&#x412;" horiz-adv-x="603" 
d="M52 0l87 710h238c120 0 189 -45 189 -149c0 -68 -39 -146 -111 -181v-2c60 -21 102 -69 102 -146c0 -147 -90 -232 -270 -232h-235zM238 419h83c61 0 107 39 107 110c0 44 -28 60 -85 60h-84zM201 120h91c82 0 126 44 126 120c0 45 -30 67 -94 67h-100z" />
    <glyph glyph-name="uni0413" unicode="&#x413;" horiz-adv-x="528" 
d="M52 0l87 710h416l-15 -122h-280l-72 -588h-136z" />
    <glyph glyph-name="uni0403" unicode="&#x403;" horiz-adv-x="528" 
d="M255 769l115 134l136 1l-130 -135h-121zM52 0l87 710h416l-15 -122h-280l-72 -588h-136z" />
    <glyph glyph-name="uni0490" unicode="&#x490;" horiz-adv-x="528" 
d="M460 847h112l-32 -259h-280l-72 -588h-136l87 710h295z" />
    <glyph glyph-name="uni0414" unicode="&#x414;" horiz-adv-x="734" 
d="M701 122l-38 -259h-112l11 137h-454l-25 -137h-112l29 259h82c50 85 85 171 111 262c29 99 47 206 62 326h423l-73 -588h96zM316 331c-23 -76 -51 -148 -86 -209h240l58 466h-158c-12 -84 -29 -171 -54 -257z" />
    <glyph glyph-name="uni0415" unicode="&#x415;" horiz-adv-x="563" 
d="M51 0l87 710h415l-16 -122h-280l-21 -176h224l-15 -120h-224l-21 -170h299l-15 -122h-433z" />
    <glyph glyph-name="uni0400" unicode="&#x400;" horiz-adv-x="563" 
d="M335 768l-96 135l134 -1l83 -134h-121zM51 0l87 710h415l-16 -122h-280l-21 -176h224l-15 -120h-224l-21 -170h299l-15 -122h-433z" />
    <glyph glyph-name="uni0401" unicode="&#x401;" horiz-adv-x="563" 
d="M266 784c-46 0 -79 34 -79 78c0 46 34 80 82 80c46 0 79 -33 79 -77c0 -46 -34 -81 -82 -81zM468 784c-47 0 -80 34 -80 78c0 46 35 80 83 80c46 0 79 -33 79 -77c0 -46 -34 -81 -82 -81zM51 0l87 710h415l-16 -122h-280l-21 -176h224l-15 -120h-224l-21 -170h299
l-15 -122h-433z" />
    <glyph glyph-name="uni0416" unicode="&#x416;" horiz-adv-x="876" 
d="M916 710l-244 -334l170 -376h-155l-126 295l-66 -81l-25 -214h-131l26 216l-44 79l-193 -295h-154l256 379l-166 331h158l160 -338l3 1l41 337h131l-42 -336l3 -1l236 337h162z" />
    <glyph glyph-name="uni0417" unicode="&#x417;" horiz-adv-x="566" 
d="M260 -9c-110 0 -204 44 -252 121l96 91c32 -56 91 -87 158 -87c75 0 119 43 119 107c0 63 -45 86 -114 86h-92l15 113h84c74 0 122 37 122 97c0 53 -40 74 -90 74c-46 0 -98 -18 -135 -50l-80 99c68 57 158 76 233 76c125 0 211 -60 211 -164c0 -72 -44 -139 -118 -171
v-3c67 -29 105 -88 105 -167c0 -134 -98 -222 -262 -222z" />
    <glyph glyph-name="uni0418" unicode="&#x418;" horiz-adv-x="697" 
d="M52 0l87 710h135l-60 -478h3l327 478h128l-86 -710h-137l57 461h-2l-326 -461h-126z" />
    <glyph glyph-name="uni0419" unicode="&#x419;" horiz-adv-x="697" 
d="M416 764c-86 0 -138 37 -144 141l103 9c2 -44 26 -68 55 -68c31 0 67 28 89 72l91 -27c-47 -96 -127 -127 -194 -127zM52 0l87 710h135l-60 -478h3l327 478h128l-86 -710h-137l57 461h-2l-326 -461h-126z" />
    <glyph glyph-name="uni040D" unicode="&#x40d;" horiz-adv-x="697" 
d="M395 769l-96 135l134 -1l83 -134h-121zM52 0l87 710h135l-60 -478h3l327 478h128l-86 -710h-137l57 461h-2l-326 -461h-126z" />
    <glyph glyph-name="uni048A" unicode="&#x48a;" horiz-adv-x="729" 
d="M416 764c-86 0 -138 37 -144 141l103 9c2 -44 26 -68 55 -68c31 0 67 28 89 72l91 -27c-47 -96 -127 -127 -194 -127zM601 122h109l-5 -44l-109 -215h-93l48 137h-102l57 461h-2l-326 -461h-126l87 710h135l-60 -478h3l327 478h128z" />
    <glyph glyph-name="uni041A" unicode="&#x41a;" horiz-adv-x="621" 
d="M662 710l-263 -317l181 -393h-155l-129 295l-85 -100l-24 -195h-135l87 710h135l-39 -319l3 -1l257 320h167z" />
    <glyph glyph-name="uni040C" unicode="&#x40c;" horiz-adv-x="621" 
d="M542 904l-130 -135h-121l115 134zM662 710l-263 -317l181 -393h-155l-129 295l-85 -100l-24 -195h-135l87 710h135l-39 -319l3 -1l257 320h167z" />
    <glyph glyph-name="uni041B" unicode="&#x41b;" horiz-adv-x="689" 
d="M241 710h424l-88 -710h-135l72 588h-160c-20 -117 -39 -225 -62 -316c-44 -182 -101 -279 -232 -279c-34 0 -59 6 -76 13l20 111c11 -2 26 -4 34 -4c69 0 104 91 135 224c27 118 51 258 68 373z" />
    <glyph glyph-name="uni041C" unicode="&#x41c;" horiz-adv-x="817" 
d="M52 0l87 710h135l144 -408h3l237 408h135l-87 -710h-135l52 432l-3 1l-178 -298h-88l-111 312l-2 -1l-54 -446h-135z" />
    <glyph glyph-name="uni041D" unicode="&#x41d;" horiz-adv-x="686" 
d="M52 0l87 710h136l-38 -309h251l38 309h136l-87 -710h-137l35 279h-251l-34 -279h-136z" />
    <glyph glyph-name="uni041E" unicode="&#x41e;" horiz-adv-x="754" 
d="M346 -9c-172 0 -286 110 -286 301c0 224 147 427 374 427c171 0 287 -110 287 -299c0 -231 -139 -429 -375 -429zM357 119c131 0 222 139 222 295c0 121 -63 178 -159 178c-128 0 -219 -145 -219 -295c0 -120 63 -178 156 -178z" />
    <glyph glyph-name="uni041F" unicode="&#x41f;" horiz-adv-x="659" 
d="M52 0l87 710h496l-87 -710h-136l72 588h-224l-72 -588h-136z" />
    <glyph glyph-name="uni0420" unicode="&#x420;" horiz-adv-x="585" 
d="M52 0l87 710h242c140 0 197 -74 197 -193c0 -166 -98 -272 -282 -272h-80l-29 -245h-135zM231 366h78c78 0 128 51 128 143c0 52 -37 80 -88 80h-90z" />
    <glyph glyph-name="uni0421" unicode="&#x421;" horiz-adv-x="669" 
d="M348 -9c-164 0 -288 100 -288 299c0 234 148 429 372 429c87 0 179 -37 246 -149l-111 -81c-35 66 -82 100 -142 100c-136 0 -223 -147 -223 -297c0 -107 56 -171 153 -171c58 0 118 32 158 81l99 -89c-65 -74 -158 -122 -264 -122z" />
    <glyph glyph-name="uni0422" unicode="&#x422;" horiz-adv-x="543" 
d="M173 0l72 588h-173l14 122h485l-15 -122h-175l-72 -588h-136z" />
    <glyph glyph-name="uni0423" unicode="&#x423;" horiz-adv-x="599" 
d="M495 710h152l-274 -527c-56 -108 -100 -192 -207 -192c-46 0 -93 16 -116 35l42 112c22 -16 42 -25 65 -25c41 0 69 41 100 102l-191 495h150l112 -349h3z" />
    <glyph glyph-name="uni040E" unicode="&#x40e;" horiz-adv-x="599" 
d="M362 764c-86 0 -138 37 -144 141l103 9c2 -44 26 -68 55 -68c31 0 67 28 89 72l91 -27c-47 -96 -127 -127 -194 -127zM495 710h152l-274 -527c-56 -108 -100 -192 -207 -192c-46 0 -93 16 -116 35l42 112c22 -16 42 -25 65 -25c41 0 69 41 100 102l-191 495h150l112 -349
h3z" />
    <glyph glyph-name="uni0424" unicode="&#x424;" horiz-adv-x="804" 
d="M778 397c0 -179 -110 -319 -330 -326l-8 -71h-135l9 72c-155 10 -260 98 -260 253c0 172 117 329 332 339l8 63h135l-8 -65c149 -13 257 -109 257 -265zM194 335c0 -95 49 -139 138 -147l45 362c-121 -11 -183 -109 -183 -215zM458 187c121 9 180 92 180 202
c0 93 -49 150 -135 160z" />
    <glyph glyph-name="uni0425" unicode="&#x425;" horiz-adv-x="624" 
d="M-19 0l252 360l-155 350h149l108 -251h4l163 251h161l-246 -354l164 -356h-154l-113 254h-4l-174 -254h-155z" />
    <glyph glyph-name="uni0427" unicode="&#x427;" horiz-adv-x="612" 
d="M451 710h137l-88 -710h-136l33 277c-42 -24 -110 -42 -168 -42c-130 0 -177 74 -158 224l34 251h134l-32 -248c-9 -78 5 -106 71 -106c34 0 80 6 134 32z" />
    <glyph glyph-name="uni0426" unicode="&#x426;" horiz-adv-x="686" 
d="M653 122l-38 -259h-112l11 137h-462l87 710h136l-72 -588h217l73 588h136l-72 -588h96z" />
    <glyph glyph-name="uni0428" unicode="&#x428;" horiz-adv-x="923" 
d="M763 710h136l-87 -710h-760l87 710h136l-72 -588h176l72 588h135l-72 -588h177z" />
    <glyph glyph-name="uni0429" unicode="&#x429;" horiz-adv-x="956" 
d="M923 122l-38 -259h-112l11 137h-732l87 710h136l-72 -588h176l72 588h135l-72 -588h177l72 588h136l-72 -588h96z" />
    <glyph glyph-name="uni040F" unicode="&#x40f;" horiz-adv-x="659" 
d="M635 710l-87 -710h-189l-21 -137h-112l12 137h-186l87 710h136l-72 -588h223l73 588h136z" />
    <glyph glyph-name="uni042C" unicode="&#x42c;" horiz-adv-x="585" 
d="M52 0l87 710h135l-32 -259h112c184 0 211 -116 210 -202c-3 -167 -101 -249 -280 -249h-232zM202 121h92c86 0 129 45 129 121c0 60 -29 89 -93 89h-102z" />
    <glyph glyph-name="uni042A" unicode="&#x42a;" horiz-adv-x="669" 
d="M437 451c184 0 211 -116 210 -202c-3 -167 -101 -249 -280 -249h-232l72 588h-160l15 122h295l-31 -259h111zM377 121c86 0 129 45 129 121c0 60 -29 89 -93 89h-102l-26 -210h92z" />
    <glyph glyph-name="uni042B" unicode="&#x42b;" horiz-adv-x="863" 
d="M52 0l87 710h135l-32 -259h101c184 0 211 -116 210 -202c-3 -167 -101 -249 -280 -249h-221zM614 0l87 710h138l-87 -710h-138zM202 121h81c86 0 129 45 129 121c0 60 -29 89 -93 89h-91z" />
    <glyph glyph-name="uni0409" unicode="&#x409;" horiz-adv-x="976" 
d="M744 451c184 0 211 -116 210 -202c-3 -167 -101 -249 -280 -249h-232l72 588h-160c-20 -117 -39 -225 -62 -316c-44 -182 -101 -279 -232 -279c-34 0 -59 6 -76 13l20 111c11 -2 26 -4 34 -4c69 0 104 91 135 224c27 118 51 258 68 373h424l-32 -259h111zM684 121
c86 0 129 45 129 121c0 60 -29 89 -93 89h-102l-23 -189l-3 -21h92z" />
    <glyph glyph-name="uni040A" unicode="&#x40a;" horiz-adv-x="968" 
d="M736 437c184 0 211 -116 210 -194c-4 -161 -101 -243 -280 -243h-235l37 300h-243l-37 -300h-136l87 710h136l-35 -289h243l35 289h136l-34 -273h116zM676 121c86 0 129 46 129 115c0 53 -29 81 -94 81h-106l-24 -196h95z" />
    <glyph glyph-name="uni0405" unicode="&#x405;" horiz-adv-x="556" 
d="M261 -9c-99 0 -192 44 -242 124l98 88c31 -58 87 -88 139 -88c67 0 111 39 111 86c-1 44 -41 59 -111 100c-83 48 -176 94 -176 205c0 131 106 213 237 213c82 0 163 -38 212 -106l-98 -84c-39 56 -86 68 -121 68c-54 0 -89 -34 -88 -75c1 -37 30 -57 93 -95
c98 -58 194 -92 194 -207c0 -150 -109 -229 -248 -229z" />
    <glyph glyph-name="uni0404" unicode="&#x404;" horiz-adv-x="666" 
d="M355 118c62 0 122 27 164 76l99 -89c-67 -72 -160 -114 -269 -114c-166 0 -289 95 -289 299c0 237 140 429 364 429c90 0 185 -26 247 -115l-106 -90c-33 53 -85 77 -148 77c-99 0 -171 -73 -202 -175h279l-14 -116h-281v-8c-2 -111 56 -174 156 -174z" />
    <glyph glyph-name="uni042D" unicode="&#x42d;" horiz-adv-x="656" 
d="M339 719c187 0 286 -119 286 -300c0 -237 -127 -428 -361 -428c-107 0 -197 38 -249 118l101 88c30 -52 80 -80 150 -80c104 0 179 71 206 183h-281l14 116h282c-1 113 -59 178 -165 178c-50 0 -105 -23 -144 -59l-80 99c68 58 157 85 241 85z" />
    <glyph glyph-name="uni0406" unicode="&#x406;" horiz-adv-x="310" 
d="M56 0l87 710h138l-87 -710h-138z" />
    <glyph glyph-name="uni0407" unicode="&#x407;" horiz-adv-x="310" 
d="M127 784c-46 0 -79 34 -79 78c0 46 34 80 82 80c46 0 79 -33 79 -77c0 -46 -34 -81 -82 -81zM329 784c-47 0 -80 34 -80 78c0 46 35 80 83 80c46 0 79 -33 79 -77c0 -46 -34 -81 -82 -81zM56 0l87 710h138l-87 -710h-138z" />
    <glyph glyph-name="uni0408" unicode="&#x408;" horiz-adv-x="476" 
d="M174 -9c-66 0 -132 33 -169 95l92 93c16 -30 41 -58 76 -58c46 0 83 34 97 144l55 445h137l-56 -452c-21 -175 -88 -267 -232 -267z" />
    <glyph glyph-name="uni040B" unicode="&#x40b;" horiz-adv-x="725" 
d="M537 457c121 0 162 -75 142 -224l-31 -233h-135l30 229c10 78 -5 107 -63 107c-40 0 -84 -9 -133 -36l-38 -300h-136l72 588h-173l14 122h485l-15 -122h-175l-21 -179c45 23 122 48 177 48z" />
    <glyph glyph-name="uni042E" unicode="&#x42e;" horiz-adv-x="989" 
d="M685 718c166 0 283 -110 283 -297c0 -229 -139 -429 -369 -429c-162 0 -271 111 -273 289h-108l-34 -281h-137l87 710h137l-38 -308h105c38 177 162 316 347 316zM608 119c131 0 218 144 218 301c0 114 -66 171 -148 171c-126 0 -215 -140 -215 -291
c0 -122 64 -181 145 -181z" />
    <glyph glyph-name="uni042F" unicode="&#x42f;" horiz-adv-x="617" 
d="M342 710h251l-87 -710h-135l30 244h-96l-158 -244h-152l186 280c-63 35 -98 99 -98 167c0 152 84 263 259 263zM415 364l28 225h-99c-78 0 -120 -51 -120 -128c0 -63 39 -97 101 -97h90z" />
    <glyph glyph-name="uni0402" unicode="&#x402;" horiz-adv-x="714" 
d="M500 455c111 0 192 -67 192 -196c0 -174 -111 -266 -259 -266c-18 0 -38 2 -58 5l18 110c7 -1 15 -2 23 -2c80 0 134 53 134 138c0 65 -43 87 -99 87c-39 0 -78 -8 -115 -29l-37 -302h-136l72 588h-173l14 122h485l-15 -122h-175l-22 -178c43 27 98 45 151 45z" />
    <glyph glyph-name="uni0462" unicode="&#x462;" horiz-adv-x="655" 
d="M428 436c180 0 206 -111 205 -194c-3 -162 -98 -242 -273 -242h-242l64 521h-143l14 112h143l9 77h134l-9 -77h200l-14 -112h-200l-10 -85h122zM370 120c79 0 121 43 121 115c0 59 -28 85 -87 85h-113l-24 -200h103z" />
    <glyph glyph-name="uni0472" unicode="&#x472;" horiz-adv-x="753" 
d="M432 719c171 0 288 -110 288 -299c0 -231 -139 -429 -374 -429c-172 0 -286 110 -286 301c0 224 147 427 372 427zM419 596c-100 0 -175 -77 -206 -185h369v11c0 108 -57 174 -163 174zM356 115c103 0 179 72 211 184h-369v-8c0 -108 55 -176 158 -176z" />
    <glyph glyph-name="uni0474" unicode="&#x474;" horiz-adv-x="674" 
d="M224 0l-145 710h144l83 -520h2l130 372c43 123 91 156 175 156c41 0 95 -14 127 -31l-42 -106c-22 10 -40 15 -56 15c-41 0 -62 -35 -88 -97l-205 -499h-125z" />
    <glyph glyph-name="uni0492" unicode="&#x492;" horiz-adv-x="548" 
d="M560 588h-281l-25 -205h174l-12 -98h-174l-35 -285h-136l35 285h-91l13 98h90l40 327h417z" />
    <glyph glyph-name="uni0494" unicode="&#x494;" horiz-adv-x="613" 
d="M355 400c115 0 203 -92 203 -250c0 -188 -92 -354 -290 -354c-22 0 -43 2 -60 7l18 110c11 -2 23 -4 33 -4c105 0 157 119 157 231c0 86 -37 137 -110 137c-33 0 -61 -7 -87 -18l-32 -259h-135l87 710h416l-15 -122h-281l-26 -215c33 16 75 27 122 27z" />
    <glyph glyph-name="uni0496" unicode="&#x496;" horiz-adv-x="914" 
d="M672 376l115 -254h99l-38 -259h-112l11 137h-60l-126 295l-66 -81l-25 -214h-131l26 216l-44 79l-193 -295h-154l256 379l-166 331h158l160 -338l3 1l41 337h131l-42 -336l3 -1l236 337h162z" />
    <glyph glyph-name="uni0498" unicode="&#x498;" horiz-adv-x="566" 
d="M417 380c67 -29 105 -88 105 -167c0 -130 -92 -216 -247 -222l-9 -19c38 -11 67 -34 67 -68c0 -63 -52 -93 -126 -93c-23 0 -43 2 -61 6l4 61c12 -4 29 -5 44 -5c29 0 48 10 48 32c0 18 -25 26 -56 32l22 57c-87 12 -160 53 -200 118l96 91c32 -56 91 -87 158 -87
c75 0 119 43 119 107c0 63 -45 86 -114 86h-92l15 113h84c74 0 122 37 122 97c0 53 -40 74 -90 74c-46 0 -98 -18 -135 -50l-80 99c68 57 158 76 233 76c125 0 211 -60 211 -164c0 -72 -44 -139 -118 -171v-3z" />
    <glyph glyph-name="uni049A" unicode="&#x49a;" horiz-adv-x="659" 
d="M399 393l125 -271h100l-38 -259h-112l11 137h-60l-129 295l-85 -100l-24 -195h-135l87 710h135l-39 -319l3 -1l257 320h167z" />
    <glyph glyph-name="uni049C" unicode="&#x49c;" horiz-adv-x="712" 
d="M749 710l-232 -347l155 -363h-153l-120 300h-13l-23 -181h-93l22 179l-68 -1l-36 -297h-136l87 710h136l-38 -311l68 2l24 191h93l-23 -188h6l183 306h161z" />
    <glyph glyph-name="uni049E" unicode="&#x49e;" horiz-adv-x="629" 
d="M670 710l-263 -317l182 -393h-156l-128 296l-86 -101l-24 -195h-135l66 542h-87l12 99h88l8 69h136l-8 -69h61l-12 -99h-62l-18 -151l3 -1l256 320h167z" />
    <glyph glyph-name="uni04A0" unicode="&#x4a0;" horiz-adv-x="704" 
d="M745 710l-263 -317l181 -393h-155l-129 295l-85 -100l-24 -195h-135l72 588h-160l15 122h295l-39 -319l3 -1l257 320h167z" />
    <glyph glyph-name="uni04A2" unicode="&#x4a2;" horiz-adv-x="719" 
d="M686 122l-38 -259h-112l11 137h-109l35 279h-251l-34 -279h-136l87 710h136l-38 -309h251l38 309h136l-72 -588h96z" />
    <glyph glyph-name="uni04A4" unicode="&#x4a4;" horiz-adv-x="812" 
d="M518 710h321l-15 -122h-185l-72 -588h-136l34 279h-243l-34 -279h-136l87 710h136l-38 -309h243z" />
    <glyph glyph-name="uni04A6" unicode="&#x4a6;" horiz-adv-x="973" 
d="M715 400c115 0 203 -92 203 -250c0 -188 -92 -354 -290 -354c-22 0 -43 2 -60 7l18 110c11 -2 23 -4 33 -4c105 0 157 119 157 231c0 86 -37 137 -110 137c-33 0 -61 -7 -87 -18l-32 -259h-135l72 588h-224l-72 -588h-136l87 710h495l-41 -337c33 16 75 27 122 27z" />
    <glyph glyph-name="uni0524" unicode="&#x524;" horiz-adv-x="692" 
d="M659 122l-38 -259h-112l11 137h-108l72 588h-224l-72 -588h-136l87 710h496l-72 -588h96z" />
    <glyph glyph-name="uni04A8" unicode="&#x4a8;" horiz-adv-x="804" 
d="M784 28c-23 -21 -72 -36 -123 -36c-65 0 -117 20 -148 44c-45 -29 -101 -45 -166 -45c-171 0 -294 120 -294 307c0 225 148 421 368 421c17 0 33 -1 49 -4l-31 -117c-9 1 -19 2 -28 2c-122 0 -216 -147 -216 -296c0 -121 67 -199 184 -199c16 0 31 2 45 5h-1l1 2
c-35 48 -58 115 -58 192c0 158 88 317 226 317c115 0 171 -83 171 -202c0 -126 -62 -249 -155 -317l1 -1c12 -3 24 -5 36 -5c31 0 63 11 94 33zM583 504c-59 0 -96 -128 -96 -211c0 -51 10 -96 28 -135l4 -1c67 65 102 170 102 265c0 53 -13 82 -38 82z" />
    <glyph glyph-name="uni04AA" unicode="&#x4aa;" horiz-adv-x="669" 
d="M355 121c58 0 118 32 158 81l99 -89c-61 -70 -148 -117 -247 -122l-9 -19c38 -11 67 -34 67 -68c0 -63 -52 -93 -126 -93c-23 0 -43 2 -61 6l4 61c12 -4 29 -5 44 -5c29 0 48 10 48 32c0 18 -25 26 -56 32l22 57c-138 19 -238 118 -238 296c0 234 148 429 372 429
c87 0 179 -37 246 -149l-111 -81c-35 66 -82 100 -142 100c-136 0 -223 -147 -223 -297c0 -107 56 -171 153 -171z" />
    <glyph glyph-name="uni04AC" unicode="&#x4ac;" horiz-adv-x="543" 
d="M556 588h-175l-57 -466h96l-38 -259h-112l11 137h-108l72 588h-173l14 122h485z" />
    <glyph glyph-name="uni04AE" unicode="&#x4ae;" horiz-adv-x="581" 
d="M191 0l39 312l-163 398h150l94 -269h3l160 269h157l-264 -398l-39 -312h-137z" />
    <glyph glyph-name="uni04B0" unicode="&#x4b0;" horiz-adv-x="581" 
d="M631 710l-243 -367h121l-13 -99h-137l-31 -244h-137l31 244h-140l13 99h122l-150 367h150l94 -269h3l160 269h157z" />
    <glyph glyph-name="uni04B2" unicode="&#x4b2;" horiz-adv-x="655" 
d="M417 356l108 -234h101l-38 -259h-112l11 137h-60l-113 254h-4l-174 -254h-155l252 360l-155 350h149l108 -251h4l163 251h161z" />
    <glyph glyph-name="uni04B4" unicode="&#x4b4;" horiz-adv-x="802" 
d="M769 122l-38 -259h-112l11 137h-462l72 588h-169l15 122h436l-15 -122h-131l-57 -466h217l73 588h136l-72 -588h96z" />
    <glyph glyph-name="uni04B6" unicode="&#x4b6;" horiz-adv-x="645" 
d="M515 122h96l-38 -259h-112l11 137h-108l33 277c-42 -24 -110 -42 -168 -42c-130 0 -177 74 -158 224l34 251h134l-32 -248c-9 -78 5 -106 71 -106c34 0 80 6 134 32l39 322h137z" />
    <glyph glyph-name="uni04B8" unicode="&#x4b8;" horiz-adv-x="632" 
d="M472 710h136l-87 -710h-136l35 278c-17 -9 -39 -17 -62 -23l-18 -145h-93l16 127c-12 -1 -23 -2 -34 -2c-130 0 -177 74 -158 224l34 251h133l-32 -248c-10 -81 5 -109 71 -109l18 145h93l-17 -133c20 4 41 11 61 20z" />
    <glyph glyph-name="uni04BA" unicode="&#x4ba;" horiz-adv-x="621" 
d="M420 482c137 0 176 -83 158 -225l-34 -257h-135l31 241c11 85 -3 120 -69 120c-34 0 -85 -6 -142 -31l-40 -330h-137l87 710h137l-33 -270c44 22 117 42 177 42z" />
    <glyph glyph-name="uni04BC" unicode="&#x4bc;" horiz-adv-x="819" 
d="M793 316h-483v-20c0 -119 62 -178 161 -178c65 0 120 34 160 82l97 -87c-65 -74 -155 -122 -264 -122c-179 0 -291 110 -291 299c0 9 0 17 1 26c-95 1 -152 41 -152 120c0 41 16 88 42 115l96 -27c-15 -25 -25 -45 -25 -62c0 -20 16 -32 53 -32h2c42 166 161 289 338 289
c166 0 279 -110 279 -297c0 -39 -7 -73 -14 -106zM519 591c-84 0 -152 -65 -186 -158h340c-5 106 -68 158 -154 158z" />
    <glyph glyph-name="uni04BE" unicode="&#x4be;" horiz-adv-x="819" 
d="M793 316h-483v-20c0 -119 62 -178 161 -178c65 0 120 34 160 82l97 -87c-55 -63 -128 -107 -215 -119l-20 -131h-112l10 135c-136 26 -218 130 -218 292c0 9 0 17 1 26c-95 1 -152 41 -152 120c0 41 16 88 42 115l96 -27c-15 -25 -25 -45 -25 -62c0 -20 16 -32 53 -32h2
c42 166 161 289 338 289c166 0 279 -110 279 -297c0 -39 -7 -73 -14 -106zM519 591c-84 0 -152 -65 -186 -158h340c-5 106 -68 158 -154 158z" />
    <glyph glyph-name="uni04C0" unicode="&#x4c0;" horiz-adv-x="310" 
d="M56 0l87 710h138l-87 -710h-138z" />
    <glyph glyph-name="uni04C1" unicode="&#x4c1;" horiz-adv-x="876" 
d="M497 764c-86 0 -138 37 -144 141l103 9c2 -44 26 -68 55 -68c31 0 67 28 89 72l91 -27c-47 -96 -127 -127 -194 -127zM916 710l-244 -334l170 -376h-155l-126 295l-66 -81l-25 -214h-131l26 216l-44 79l-193 -295h-154l256 379l-166 331h158l160 -338l3 1l41 337h131
l-42 -336l3 -1l236 337h162z" />
    <glyph glyph-name="uni04C3" unicode="&#x4c3;" horiz-adv-x="640" 
d="M390 382c115 -24 186 -128 186 -249c0 -178 -92 -337 -290 -337c-22 0 -42 2 -60 7l18 110c11 -2 23 -4 33 -4c105 0 158 111 158 212c0 112 -81 153 -174 155c-12 1 -25 1 -37 1l-37 -277h-135l87 710h135l-39 -319l3 -1l257 320h167z" />
    <glyph glyph-name="uni04C5" unicode="&#x4c5;" horiz-adv-x="721" 
d="M592 122h109l-5 -44l-109 -215h-93l48 137h-100l72 588h-160c-20 -117 -39 -225 -62 -316c-44 -182 -101 -279 -232 -279c-34 0 -59 6 -76 13l20 111c11 -2 26 -4 34 -4c69 0 104 91 135 224c27 118 51 258 68 373h424z" />
    <glyph glyph-name="uni04C7" unicode="&#x4c7;" horiz-adv-x="686" 
d="M663 710l-88 -710c-19 -157 -108 -204 -226 -204c-17 0 -37 1 -62 7l18 107c14 -3 25 -5 37 -5c62 0 88 33 96 95l35 279h-251l-34 -279h-136l87 710h136l-38 -309h251l38 309h137z" />
    <glyph glyph-name="uni04C9" unicode="&#x4c9;" horiz-adv-x="718" 
d="M590 122h109l-5 -44l-109 -215h-93l48 137h-102l35 279h-251l-34 -279h-136l87 710h136l-38 -309h251l38 309h136z" />
    <glyph glyph-name="uni04CB" unicode="&#x4cb;" horiz-adv-x="612" 
d="M451 710h137l-88 -710h-114l-25 -137h-111l28 252h100l19 162c-42 -24 -110 -42 -168 -42c-130 0 -177 74 -158 224l34 251h134l-32 -248c-9 -78 5 -106 71 -106c34 0 80 6 134 32z" />
    <glyph glyph-name="uni04CD" unicode="&#x4cd;" horiz-adv-x="849" 
d="M721 122h109l-5 -44l-109 -215h-93l48 137h-100l52 432l-3 1l-178 -298h-88l-111 312l-2 -1l-54 -446h-135l87 710h135l144 -408h3l237 408h135z" />
    <glyph glyph-name="uni04D0" unicode="&#x4d0;" horiz-adv-x="642" 
d="M389 764c-86 0 -138 37 -144 141l103 9c2 -44 26 -68 55 -68c31 0 67 28 89 72l91 -27c-47 -96 -127 -127 -194 -127zM-12 0l322 710h136l149 -710h-142l-26 144h-237l-61 -144h-141zM237 261h170l-51 281h-2z" />
    <glyph glyph-name="uni04D2" unicode="&#x4d2;" horiz-adv-x="642" 
d="M299 785c-46 0 -79 34 -79 78c0 46 34 80 82 80c46 0 79 -33 79 -77c0 -46 -34 -81 -82 -81zM501 785c-47 0 -80 34 -80 78c0 46 35 80 83 80c46 0 79 -33 79 -77c0 -46 -34 -81 -82 -81zM-12 0l322 710h136l149 -710h-142l-26 144h-237l-61 -144h-141zM237 261h170
l-51 281h-2z" />
    <glyph glyph-name="uni04D4" unicode="&#x4d4;" horiz-adv-x="872" 
d="M-26 0l400 710h488l-15 -122h-283l-23 -175h231l-15 -120h-230l-21 -171h302l-15 -122h-434l18 144h-177l-79 -144h-147zM262 261h130l36 301h-2z" />
    <glyph glyph-name="uni04D6" unicode="&#x4d6;" horiz-adv-x="563" 
d="M356 763c-86 0 -138 37 -144 141l103 9c2 -44 26 -68 55 -68c31 0 67 28 89 72l91 -27c-47 -96 -127 -127 -194 -127zM51 0l87 710h415l-16 -122h-280l-21 -176h224l-15 -120h-224l-21 -170h299l-15 -122h-433z" />
    <glyph glyph-name="uni04D8" unicode="&#x4d8;" horiz-adv-x="713" 
d="M401 719c170 0 282 -110 282 -299c0 -231 -134 -429 -358 -429c-167 0 -280 110 -280 294c0 39 7 73 14 104h483c1 8 1 17 1 25c0 119 -68 178 -157 178c-59 0 -114 -25 -158 -62l-80 101c69 53 153 88 253 88zM333 119c83 0 150 63 185 153h-338
c6 -102 68 -153 153 -153z" />
    <glyph glyph-name="uni04DA" unicode="&#x4da;" horiz-adv-x="713" 
d="M350 785c-46 0 -79 34 -79 78c0 46 34 80 82 80c46 0 79 -33 79 -77c0 -46 -34 -81 -82 -81zM552 785c-47 0 -80 34 -80 78c0 46 35 80 83 80c46 0 79 -33 79 -77c0 -46 -34 -81 -82 -81zM401 719c170 0 282 -110 282 -299c0 -231 -134 -429 -358 -429
c-167 0 -280 110 -280 294c0 39 7 73 14 104h483c1 8 1 17 1 25c0 119 -68 178 -157 178c-59 0 -114 -25 -158 -62l-80 101c69 53 153 88 253 88zM333 119c83 0 150 63 185 153h-338c6 -102 68 -153 153 -153z" />
    <glyph glyph-name="uni04DC" unicode="&#x4dc;" horiz-adv-x="876" 
d="M407 785c-46 0 -79 34 -79 78c0 46 34 80 82 80c46 0 79 -33 79 -77c0 -46 -34 -81 -82 -81zM609 785c-47 0 -80 34 -80 78c0 46 35 80 83 80c46 0 79 -33 79 -77c0 -46 -34 -81 -82 -81zM916 710l-244 -334l170 -376h-155l-126 295l-66 -81l-25 -214h-131l26 216l-44 79
l-193 -295h-154l256 379l-166 331h158l160 -338l3 1l41 337h131l-42 -336l3 -1l236 337h162z" />
    <glyph glyph-name="uni04DE" unicode="&#x4de;" horiz-adv-x="566" 
d="M252 785c-46 0 -79 34 -79 78c0 46 34 80 82 80c46 0 79 -33 79 -77c0 -46 -34 -81 -82 -81zM454 785c-47 0 -80 34 -80 78c0 46 35 80 83 80c46 0 79 -33 79 -77c0 -46 -34 -81 -82 -81zM260 -9c-110 0 -204 44 -252 121l96 91c32 -56 91 -87 158 -87
c75 0 119 43 119 107c0 63 -45 86 -114 86h-92l15 113h84c74 0 122 37 122 97c0 53 -40 74 -90 74c-46 0 -98 -18 -135 -50l-80 99c68 57 158 76 233 76c125 0 211 -60 211 -164c0 -72 -44 -139 -118 -171v-3c67 -29 105 -88 105 -167c0 -134 -98 -222 -262 -222z" />
    <glyph glyph-name="uni04E0" unicode="&#x4e0;" horiz-adv-x="558" 
d="M260 -9c-110 0 -204 44 -252 121l96 91c32 -56 91 -87 158 -87c75 0 119 43 119 105c0 75 -62 97 -167 97h-46l6 64l195 203l-2 3h-256l15 122h426l-11 -90l-192 -205v-1c111 -18 173 -82 173 -191c0 -144 -98 -232 -262 -232z" />
    <glyph glyph-name="uni04E2" unicode="&#x4e2;" horiz-adv-x="697" 
d="M281 790l12 98h279l-13 -98h-278zM52 0l87 710h135l-60 -478h3l327 478h128l-86 -710h-137l57 461h-2l-326 -461h-126z" />
    <glyph glyph-name="uni04E4" unicode="&#x4e4;" horiz-adv-x="697" 
d="M326 785c-46 0 -79 34 -79 78c0 46 34 80 82 80c46 0 79 -33 79 -77c0 -46 -34 -81 -82 -81zM528 785c-47 0 -80 34 -80 78c0 46 35 80 83 80c46 0 79 -33 79 -77c0 -46 -34 -81 -82 -81zM52 0l87 710h135l-60 -478h3l327 478h128l-86 -710h-137l57 461h-2l-326 -461
h-126z" />
    <glyph glyph-name="uni04E6" unicode="&#x4e6;" horiz-adv-x="754" 
d="M375 785c-46 0 -79 34 -79 78c0 46 34 80 82 80c46 0 79 -33 79 -77c0 -46 -34 -81 -82 -81zM577 785c-47 0 -80 34 -80 78c0 46 35 80 83 80c46 0 79 -33 79 -77c0 -46 -34 -81 -82 -81zM346 -9c-172 0 -286 110 -286 301c0 224 147 427 374 427
c171 0 287 -110 287 -299c0 -231 -139 -429 -375 -429zM357 119c131 0 222 139 222 295c0 121 -63 178 -159 178c-128 0 -219 -145 -219 -295c0 -120 63 -178 156 -178z" />
    <glyph glyph-name="uni04E8" unicode="&#x4e8;" horiz-adv-x="753" 
d="M432 719c171 0 288 -110 288 -299c0 -231 -139 -429 -374 -429c-172 0 -286 110 -286 301c0 224 147 427 372 427zM419 596c-100 0 -175 -77 -206 -185h369v11c0 108 -57 174 -163 174zM356 115c103 0 179 72 211 184h-369v-8c0 -108 55 -176 158 -176z" />
    <glyph glyph-name="uni04EA" unicode="&#x4ea;" horiz-adv-x="753" 
d="M374 785c-46 0 -79 34 -79 78c0 46 34 80 82 80c46 0 79 -33 79 -77c0 -46 -34 -81 -82 -81zM576 785c-47 0 -80 34 -80 78c0 46 35 80 83 80c46 0 79 -33 79 -77c0 -46 -34 -81 -82 -81zM432 719c171 0 288 -110 288 -299c0 -231 -139 -429 -374 -429
c-172 0 -286 110 -286 301c0 224 147 427 372 427zM419 596c-100 0 -175 -77 -206 -185h369v11c0 108 -57 174 -163 174zM356 115c103 0 179 72 211 184h-369v-8c0 -108 55 -176 158 -176z" />
    <glyph glyph-name="uni04EC" unicode="&#x4ec;" horiz-adv-x="656" 
d="M279 786c-46 0 -79 34 -79 78c0 46 34 80 82 80c46 0 79 -33 79 -77c0 -46 -34 -81 -82 -81zM481 786c-47 0 -80 34 -80 78c0 46 35 80 83 80c46 0 79 -33 79 -77c0 -46 -34 -81 -82 -81zM339 719c187 0 286 -119 286 -300c0 -237 -127 -428 -361 -428
c-107 0 -197 38 -249 118l101 88c30 -52 80 -80 150 -80c104 0 179 71 206 183h-281l14 116h282c-1 113 -59 178 -165 178c-50 0 -105 -23 -144 -59l-80 99c68 58 157 85 241 85z" />
    <glyph glyph-name="uni04EE" unicode="&#x4ee;" horiz-adv-x="599" 
d="M518 888l-13 -98h-278l12 98h279zM495 710h152l-274 -527c-56 -108 -100 -192 -207 -192c-46 0 -93 16 -116 35l42 112c22 -16 42 -25 65 -25c41 0 69 41 100 102l-191 495h150l112 -349h3z" />
    <glyph glyph-name="uni04F0" unicode="&#x4f0;" horiz-adv-x="599" 
d="M272 785c-46 0 -79 34 -79 78c0 46 34 80 82 80c46 0 79 -33 79 -77c0 -46 -34 -81 -82 -81zM474 785c-47 0 -80 34 -80 78c0 46 35 80 83 80c46 0 79 -33 79 -77c0 -46 -34 -81 -82 -81zM495 710h152l-274 -527c-56 -108 -100 -192 -207 -192c-46 0 -93 16 -116 35
l42 112c22 -16 42 -25 65 -25c41 0 69 41 100 102l-191 495h150l112 -349h3z" />
    <glyph glyph-name="uni04F2" unicode="&#x4f2;" horiz-adv-x="599" 
d="M458 931l-129 -147h-118l118 146zM522 784h-117l117 146l129 1zM331 361l164 349h152l-274 -527c-56 -108 -100 -192 -207 -192c-46 0 -93 16 -116 35l42 112c22 -16 42 -25 65 -25c41 0 69 41 100 102l-191 495h150l112 -349h3z" />
    <glyph glyph-name="uni04F4" unicode="&#x4f4;" horiz-adv-x="612" 
d="M268 785c-46 0 -79 34 -79 78c0 46 34 80 82 80c46 0 79 -33 79 -77c0 -46 -34 -81 -82 -81zM470 785c-47 0 -80 34 -80 78c0 46 35 80 83 80c46 0 79 -33 79 -77c0 -46 -34 -81 -82 -81zM451 710h137l-88 -710h-136l33 277c-42 -24 -110 -42 -168 -42
c-130 0 -177 74 -158 224l34 251h134l-32 -248c-9 -78 5 -106 71 -106c34 0 80 6 134 32z" />
    <glyph glyph-name="uni04F6" unicode="&#x4f6;" horiz-adv-x="528" 
d="M540 588h-280l-57 -466h96l-38 -259h-112l11 137h-108l87 710h416z" />
    <glyph glyph-name="uni04F8" unicode="&#x4f8;" horiz-adv-x="863" 
d="M400 785c-46 0 -79 34 -79 78c0 46 34 80 82 80c46 0 79 -33 79 -77c0 -46 -34 -81 -82 -81zM602 785c-47 0 -80 34 -80 78c0 46 35 80 83 80c46 0 79 -33 79 -77c0 -46 -34 -81 -82 -81zM52 0l87 710h135l-32 -259h101c184 0 211 -116 210 -202
c-3 -167 -101 -249 -280 -249h-221zM614 0l87 710h138l-87 -710h-138zM202 121h81c86 0 129 45 129 121c0 60 -29 89 -93 89h-91z" />
    <glyph glyph-name="uni04FA" unicode="&#x4fa;" horiz-adv-x="548" 
d="M560 588h-281l-25 -205h174l-12 -98h-174l-35 -285l-3 -21c-19 -149 -84 -183 -177 -183c-22 0 -48 2 -71 7l19 107c13 -3 25 -5 35 -5c44 0 52 33 60 98l35 282h-90l13 98h89l40 327h418z" />
    <glyph glyph-name="uni04FC" unicode="&#x4fc;" horiz-adv-x="608" 
d="M321 -204c-23 0 -40 2 -63 7l18 110c14 -3 23 -4 35 -4c58 0 106 42 106 102c0 28 -6 56 -48 135l-55 108h-4l-174 -254h-155l252 360l-155 350h149l108 -251h4l163 251h161l-246 -354l72 -139c36 -69 69 -136 69 -200c0 -135 -102 -221 -237 -221z" />
    <glyph glyph-name="uni04FE" unicode="&#x4fe;" horiz-adv-x="624" 
d="M549 294h-110l142 -294h-154l-112 258h-4l-175 -258h-155l214 294h-112l13 98h129l-147 318h149l109 -259h4l162 259h161l-224 -318h123z" />
    <glyph glyph-name="uni0510" unicode="&#x510;" horiz-adv-x="561" 
d="M265 -9c-156 0 -230 81 -230 182s71 166 141 195v2c-45 36 -74 90 -74 152c0 127 106 197 245 197c99 0 177 -37 225 -105l-97 -92c-34 45 -82 72 -133 71c-61 0 -104 -36 -104 -91c0 -47 34 -80 87 -80h91l-13 -113h-101c-71 0 -126 -53 -126 -111c0 -44 32 -81 106 -81
c53 0 108 23 161 85l95 -91c-72 -90 -174 -120 -273 -120z" />
    <glyph glyph-name="uni0512" unicode="&#x512;" horiz-adv-x="689" 
d="M665 710l-88 -710c-19 -157 -108 -204 -226 -204c-17 0 -37 1 -62 7l18 107c14 -3 25 -5 37 -5c62 0 88 33 96 95l73 588h-159c-20 -117 -39 -225 -62 -316c-44 -182 -101 -279 -232 -279c-34 0 -59 6 -76 13l20 111c11 -2 26 -4 34 -4c69 0 104 91 135 224
c27 118 51 258 68 373h424z" />
    <glyph glyph-name="uni051A" unicode="&#x51a;" horiz-adv-x="768" 
d="M721 420c0 -106 -29 -205 -83 -281l62 -68l-83 -92l-66 73c-56 -38 -125 -61 -205 -61c-172 0 -286 110 -286 301c0 224 148 426 374 426c171 0 287 -109 287 -298zM357 119c39 0 74 12 104 33l-54 60l82 88l51 -55c25 49 39 108 39 169c0 121 -63 177 -159 177
c-128 0 -219 -144 -219 -294c0 -120 63 -178 156 -178z" />
    <glyph glyph-name="uni051C" unicode="&#x51c;" horiz-adv-x="942" 
d="M197 0l-113 710h141l64 -486h3l164 486h145l48 -473h3l175 473h147l-288 -710h-130l-56 493h-2l-173 -493h-128z" />
    <glyph glyph-name="uni048C" unicode="&#x48c;" horiz-adv-x="601" 
d="M374 436c179 0 206 -111 204 -194c-3 -162 -98 -242 -272 -242h-242l65 533h-92l13 99h91l10 78h134l-10 -78h137l-13 -99h-136l-12 -97h123zM316 120c79 0 120 43 120 115c0 59 -28 85 -86 85h-113l-25 -200h104z" />
    <glyph glyph-name="uni048E" unicode="&#x48e;" horiz-adv-x="596" 
d="M590 517c0 -112 -45 -196 -130 -239l45 -120l-90 -45l-52 135c-17 -2 -36 -3 -55 -3h-92l-29 -245h-135l87 710h254c139 0 197 -74 197 -193zM229 364h93h6l-37 101l73 38l41 -113c29 24 46 64 46 119c0 52 -37 80 -88 80h-106z" />
    <glyph glyph-name="uni0416.alt" horiz-adv-x="876" 
d="M915 710l-237 -346l164 -364h-154l-126 289l-56 2l-36 -291h-131l36 290l-62 -4l-185 -286h-153l241 373l-152 337h157l124 -305l43 -2l38 307h131l-37 -305l44 5l190 300h161z" />
    <glyph glyph-name="uni041A.alt" horiz-adv-x="620" 
d="M660 710l-246 -347l168 -363h-153l-134 289l-71 2l-36 -291h-136l87 710h136l-37 -306l61 7l200 299h161z" />
    <glyph glyph-name="uni040C.alt" horiz-adv-x="620" 
d="M542 904l-130 -135h-121l115 134zM660 710l-246 -347l168 -363h-153l-134 289l-71 2l-36 -291h-136l87 710h136l-37 -306l61 7l200 299h161z" />
    <glyph glyph-name="uni0496.alt" horiz-adv-x="914" 
d="M678 364l109 -242h99l-38 -259h-112l11 137h-59l-126 289l-56 2l-36 -291h-131l36 290l-62 -4l-185 -286h-153l241 373l-152 337h157l124 -305l43 -2l38 307h131l-37 -305l44 5l190 300h161z" />
    <glyph glyph-name="uni049A.alt" horiz-adv-x="658" 
d="M414 363l111 -241h101l-38 -259h-112l11 137h-58l-134 289l-71 2l-36 -291h-136l87 710h136l-37 -306l61 7l200 299h161z" />
    <glyph glyph-name="uni049E.alt" horiz-adv-x="628" 
d="M668 710l-246 -347l168 -363h-153l-134 289l-71 2l-36 -291h-136l66 542h-87l12 99h88l8 69h136l-8 -69h89l-12 -99h-90l-16 -138l61 7l200 299h161z" />
    <glyph glyph-name="uni04A0.alt" horiz-adv-x="703" 
d="M743 710l-246 -347l168 -363h-153l-134 289l-71 2l-36 -291h-136l72 588h-160l15 122h296l-37 -306l61 7l200 299h161z" />
    <glyph glyph-name="uni04C1.alt" horiz-adv-x="876" 
d="M497 764c-86 0 -138 37 -144 141l103 9c2 -44 26 -68 55 -68c31 0 67 28 89 72l91 -27c-47 -96 -127 -127 -194 -127zM915 710l-237 -346l164 -364h-154l-126 289l-56 2l-36 -291h-131l36 290l-62 -4l-185 -286h-153l241 373l-152 337h157l124 -305l43 -2l38 307h131
l-37 -305l44 5l190 300h161z" />
    <glyph glyph-name="uni04C3.alt" horiz-adv-x="638" 
d="M427 382c89 -35 149 -131 149 -241c0 -186 -92 -345 -290 -345c-22 0 -42 2 -60 7l18 110c11 -2 23 -4 33 -4c105 0 158 111 158 222c0 112 -71 159 -174 163c-12 1 -24 1 -37 1l-36 -295h-136l87 710h136l-37 -306l61 7l200 299h161z" />
    <glyph glyph-name="uni04DC.alt" horiz-adv-x="876" 
d="M407 785c-46 0 -79 34 -79 78c0 46 34 80 82 80c46 0 79 -33 79 -77c0 -46 -34 -81 -82 -81zM609 785c-47 0 -80 34 -80 78c0 46 35 80 83 80c46 0 79 -33 79 -77c0 -46 -34 -81 -82 -81zM915 710l-237 -346l164 -364h-154l-126 289l-56 2l-36 -291h-131l36 290l-62 -4
l-185 -286h-153l241 373l-152 337h157l124 -305l43 -2l38 307h131l-37 -305l44 5l190 300h161z" />
    <glyph glyph-name="uni051A.alt" horiz-adv-x="755" 
d="M721 420c0 -149 -58 -285 -162 -362l110 -110l-94 -100l-148 151c-25 -5 -52 -8 -81 -8c-172 0 -286 110 -286 301c0 224 148 426 374 426c171 0 287 -109 287 -298zM201 297c0 -120 63 -178 156 -178c131 0 222 139 222 295c0 121 -63 178 -159 178
c-128 0 -219 -145 -219 -295z" />
    <glyph glyph-name="uni0528" unicode="&#x528;" horiz-adv-x="686" 
d="M526 710h136l-87 -710h-137l35 279h-249l-37 -300c-19 -149 -84 -183 -178 -183c-22 0 -48 2 -71 7l19 107c13 -3 25 -5 35 -5c43 0 53 32 61 95h-1l87 710h138l-38 -309h249z" />
    <glyph glyph-name="uni052E" unicode="&#x52e;" horiz-adv-x="722" 
d="M592 122h96l-38 -259h-112l11 137h-107l72 588h-160c-20 -117 -39 -225 -62 -316c-44 -182 -101 -279 -232 -279c-34 0 -59 6 -76 13l20 111c11 -2 26 -4 34 -4c69 0 104 91 135 224c27 118 51 258 68 373h424z" />
    <glyph glyph-name="uni0414.loclBGR" horiz-adv-x="696" 
d="M669 122l-38 -259h-112l11 137h-420l-25 -137h-113l30 259h73l261 588h136l120 -588h77zM383 538l-169 -416h240l-70 416h-1z" />
    <glyph glyph-name="uni041B.loclBGR" horiz-adv-x="626" 
d="M-12 0l313 710h137l138 -710h-141l-87 529h-2l-215 -529h-143z" />
    <glyph glyph-name="uni0424.loclBGR" horiz-adv-x="789" 
d="M766 402c0 -198 -112 -364 -331 -387l-9 -73h-136l9 72c-136 16 -251 112 -251 287c0 203 116 378 335 399l8 68h136l-8 -70c147 -20 247 -120 247 -296zM187 316c0 -93 34 -175 130 -190l57 463c-122 -15 -187 -148 -187 -273zM443 126c121 18 184 138 184 271
c0 97 -39 178 -127 191z" />
    <glyph glyph-name="uni0430" unicode="&#x430;" horiz-adv-x="558" 
d="M198 -9c-111 0 -164 89 -164 199c0 163 98 306 236 306c50 0 93 -14 122 -45l3 1l5 36h127l-60 -488h-127l10 82l-3 1c-42 -60 -96 -92 -149 -92zM231 104c61 0 133 82 151 221l2 16c-26 26 -63 41 -98 41c-78 0 -124 -100 -124 -188c0 -55 25 -90 69 -90z" />
    <glyph glyph-name="uni0431" unicode="&#x431;" horiz-adv-x="555" 
d="M257 -9c-131 0 -205 95 -205 258c0 226 86 435 282 462c70 10 131 13 181 42l25 -101c-51 -45 -118 -46 -188 -55c-89 -12 -138 -73 -166 -183l2 -1c33 40 86 78 149 78c105 0 185 -74 185 -199c0 -164 -89 -301 -265 -301zM264 106c76 0 129 77 129 170
c0 83 -54 100 -89 100c-71 0 -127 -72 -127 -150c0 -79 40 -120 87 -120z" />
    <glyph glyph-name="uni0432" unicode="&#x432;" horiz-adv-x="509" 
d="M383 260c55 -14 83 -57 83 -104c0 -109 -105 -165 -220 -165c-141 0 -214 75 -214 208c0 153 94 297 268 297c99 0 176 -43 176 -121c0 -62 -48 -97 -93 -113v-2zM245 287c56 12 102 32 102 66c0 27 -24 39 -51 39c-55 0 -117 -47 -138 -125zM252 98c34 0 88 16 88 60
c0 53 -53 53 -117 42l-72 -14c7 -57 39 -88 101 -88z" />
    <glyph glyph-name="uni0433" unicode="&#x433;" horiz-adv-x="431" 
d="M180 -9c-109 1 -162 50 -163 121c0 74 52 120 134 162l53 28c53 27 73 36 72 60c-1 18 -16 26 -45 26c-28 0 -61 -11 -96 -40l-68 88c41 35 118 60 179 60c73 0 159 -30 159 -122c0 -89 -67 -124 -131 -156l-63 -32c-53 -26 -64 -42 -64 -59c0 -22 26 -28 42 -28
c40 0 78 17 108 50l95 -67c-55 -59 -119 -91 -212 -91z" />
    <glyph glyph-name="uni0453" unicode="&#x453;" horiz-adv-x="431" 
d="M171 557l119 146l134 1l-129 -147h-124zM180 -9c-109 1 -162 50 -163 121c0 74 52 120 134 162l53 28c53 27 73 36 72 60c-1 18 -16 26 -45 26c-28 0 -61 -11 -96 -40l-68 88c41 35 118 60 179 60c73 0 159 -30 159 -122c0 -89 -67 -124 -131 -156l-63 -32
c-53 -26 -64 -42 -64 -59c0 -22 26 -28 42 -28c40 0 78 17 108 50l95 -67c-55 -59 -119 -91 -212 -91z" />
    <glyph glyph-name="uni0491" unicode="&#x491;" horiz-adv-x="401" 
d="M331 612h97l-28 -231h-191l-46 -381h-128l60 489h210z" />
    <glyph glyph-name="uni0434" unicode="&#x434;" horiz-adv-x="545" 
d="M240 -8c-124 0 -205 81 -205 211c0 162 107 286 234 286c41 0 80 -10 115 -40l1 1c-7 93 -35 142 -109 170c-35 13 -74 17 -113 20l27 105c280 -3 327 -187 325 -349c-4 -230 -88 -404 -275 -404zM244 106c87 0 134 125 142 240c-28 28 -62 33 -88 33
c-78 0 -136 -74 -136 -166c0 -74 42 -107 82 -107z" />
    <glyph glyph-name="uni0435" unicode="&#x435;" horiz-adv-x="478" 
d="M244 102c39 0 69 15 101 51l97 -63c-54 -63 -112 -98 -206 -98c-122 0 -201 77 -201 204c0 162 98 300 261 300c81 0 162 -44 162 -133c-1 -124 -149 -172 -298 -188c9 -50 46 -73 84 -73zM288 386c-48 0 -103 -39 -123 -122c87 10 167 33 168 87c0 22 -16 35 -45 35z
" />
    <glyph glyph-name="uni0450" unicode="&#x450;" horiz-adv-x="478" 
d="M380 557h-123l-93 147l134 -1zM244 102c39 0 69 15 101 51l97 -63c-54 -63 -112 -98 -206 -98c-122 0 -201 77 -201 204c0 162 98 300 261 300c81 0 162 -44 162 -133c-1 -124 -149 -172 -298 -188c9 -50 46 -73 84 -73zM288 386c-48 0 -103 -39 -123 -122
c87 10 167 33 168 87c0 22 -16 35 -45 35z" />
    <glyph glyph-name="uni0451" unicode="&#x451;" horiz-adv-x="478" 
d="M198 557c-46 0 -79 34 -79 78c0 46 34 80 82 80c46 0 79 -33 79 -77c0 -46 -34 -81 -82 -81zM403 715c46 0 79 -33 79 -77c0 -46 -34 -81 -82 -81c-47 0 -80 34 -80 78c0 46 35 80 83 80zM458 363c-1 -124 -149 -172 -298 -188c9 -50 46 -73 84 -73c39 0 69 15 101 51
l97 -63c-54 -63 -112 -98 -206 -98c-122 0 -201 77 -201 204c0 162 98 300 261 300c81 0 162 -44 162 -133zM165 264c87 10 167 33 168 87c0 22 -16 35 -45 35c-48 0 -103 -39 -123 -122z" />
    <glyph glyph-name="uni0436" unicode="&#x436;" horiz-adv-x="720" 
d="M591 184c22 -70 49 -84 91 -90l-32 -101c-10 -1 -18 -2 -33 -2c-74 0 -109 56 -134 146l-10 36c-22 -12 -44 -21 -67 -28l-18 -145h-122l28 224l-2 1c-94 -56 -130 -133 -158 -225h-130c21 93 77 180 147 244l-19 61c-22 71 -49 84 -92 91l31 98c10 1 19 2 33 2
c76 0 114 -53 137 -145l9 -37c19 11 38 19 58 25l18 150h122l-28 -228l2 -1c99 57 140 138 165 229h130c-21 -95 -74 -182 -145 -247z" />
    <glyph glyph-name="uni0437" unicode="&#x437;" horiz-adv-x="446" 
d="M189 -8c-90 0 -145 22 -190 50l47 106c41 -34 96 -47 142 -47c51 0 88 23 88 61c0 30 -30 41 -74 40l-79 -1l12 88l63 1c64 1 90 30 90 59c0 24 -24 38 -60 38c-41 0 -86 -12 -123 -31l-45 98c33 17 106 42 177 42c97 0 178 -43 178 -124c0 -58 -48 -96 -94 -113v-2
c53 -13 82 -53 82 -102c0 -108 -90 -163 -214 -163z" />
    <glyph glyph-name="uni0438" unicode="&#x438;" horiz-adv-x="543" 
d="M177 -9c-97 0 -147 54 -128 196l43 302h126l-38 -277c-12 -80 2 -106 42 -106c48 0 123 74 135 167l26 216h127l-60 -489h-126l9 80h-2c-37 -52 -88 -89 -154 -89z" />
    <glyph glyph-name="uni0439" unicode="&#x439;" horiz-adv-x="543" 
d="M308 550c-85 0 -138 36 -144 141l103 15c2 -51 25 -75 55 -75c31 0 68 28 90 78l90 -31c-47 -97 -127 -128 -194 -128zM177 -9c-97 0 -147 54 -128 196l43 302h126l-38 -277c-12 -80 2 -106 42 -106c48 0 123 74 135 167l26 216h127l-60 -489h-126l9 80h-2
c-37 -52 -88 -89 -154 -89z" />
    <glyph glyph-name="uni045D" unicode="&#x45d;" horiz-adv-x="543" 
d="M253 557l-93 147l134 -1l82 -146h-123zM177 -9c-97 0 -147 54 -128 196l43 302h126l-38 -277c-12 -80 2 -106 42 -106c48 0 123 74 135 167l26 216h127l-60 -489h-126l9 80h-2c-37 -52 -88 -89 -154 -89z" />
    <glyph glyph-name="uni048B" unicode="&#x48b;" horiz-adv-x="578" 
d="M308 550c-85 0 -138 36 -144 141l103 15c2 -51 25 -75 55 -75c31 0 68 28 90 78l90 -31c-47 -97 -127 -128 -194 -128zM517 104h44l-4 -22l-106 -211h-89l49 129c-41 12 -62 48 -66 90c0 2 0 3 -1 5h-2c-36 -58 -98 -104 -165 -104c-97 0 -148 54 -128 196l42 302h126
l-38 -277c-11 -80 3 -106 43 -106c48 0 123 74 134 165l27 218h127l-39 -318c-9 -64 12 -66 46 -67z" />
    <glyph glyph-name="uni043A" unicode="&#x43a;" horiz-adv-x="514" 
d="M35 0l60 489h126l-28 -238l2 -1c100 65 149 151 174 239h130c-19 -95 -72 -181 -142 -249l21 -56c25 -70 48 -84 91 -90l-33 -101c-9 -1 -18 -2 -32 -2c-77 1 -104 58 -137 146l-10 28c-27 -18 -55 -34 -83 -46l-14 -119h-125z" />
    <glyph glyph-name="uni045C" unicode="&#x45c;" horiz-adv-x="514" 
d="M220 556l119 146l134 1l-129 -147h-124zM35 0l60 489h126l-28 -238l2 -1c100 65 149 151 174 239h130c-19 -95 -72 -181 -142 -249l21 -56c25 -70 48 -84 91 -90l-33 -101c-9 -1 -18 -2 -32 -2c-77 1 -104 58 -137 146l-10 28c-27 -18 -55 -34 -83 -46l-14 -119h-125z
" />
    <glyph glyph-name="uni043B" unicode="&#x43b;" horiz-adv-x="536" 
d="M303 489h199l-60 -489h-126l47 381h-40c-41 0 -59 -22 -68 -60c-11 -42 -19 -81 -34 -142c-30 -119 -89 -186 -175 -186c-22 0 -45 3 -66 13l25 103c8 -3 17 -5 25 -5c39 0 64 52 81 130c7 29 14 65 20 104c16 90 77 151 172 151z" />
    <glyph glyph-name="uni043C" unicode="&#x43c;" horiz-adv-x="639" 
d="M31 0l61 489h129l95 -275h2l162 275h129l-60 -489h-123l35 281h-1l-120 -197h-82l-67 202h-1l-36 -286h-123z" />
    <glyph glyph-name="uni043D" unicode="&#x43d;" horiz-adv-x="550" 
d="M390 489h127l-60 -489h-127l23 187l-168 -1l-23 -186h-127l60 489h127l-24 -198l168 1z" />
    <glyph glyph-name="uni043E" unicode="&#x43e;" horiz-adv-x="543" 
d="M241 -9c-124 0 -205 76 -205 208c0 157 97 297 263 297c125 0 208 -73 208 -204c0 -164 -89 -301 -266 -301zM248 106c78 0 131 81 131 176c0 82 -53 100 -89 100c-78 0 -127 -87 -127 -172c0 -64 35 -104 85 -104z" />
    <glyph glyph-name="uni043F" unicode="&#x43f;" horiz-adv-x="552" 
d="M35 0l61 489h126l-9 -78l2 -1c48 58 105 86 169 86c100 0 136 -65 118 -200l-40 -296h-126l37 276c9 70 2 106 -40 106c-53 0 -133 -79 -149 -201l-22 -181h-127z" />
    <glyph glyph-name="uni0440" unicode="&#x440;" horiz-adv-x="565" 
d="M11 -198l85 687h126l-10 -84l2 -2c40 60 93 93 160 93c105 0 157 -91 157 -199c0 -162 -98 -306 -239 -306c-48 0 -91 12 -123 39l-3 -1l-28 -227h-127zM259 105c92 0 144 89 144 181c0 53 -22 97 -65 97c-66 0 -140 -83 -158 -218l-2 -19c17 -27 48 -41 81 -41z" />
    <glyph glyph-name="uni0441" unicode="&#x441;" horiz-adv-x="487" 
d="M240 -8c-125 0 -204 71 -204 210c0 154 93 294 258 294c81 0 145 -30 182 -85l-98 -74c-19 31 -49 45 -84 45c-77 0 -130 -79 -130 -173c0 -70 37 -102 83 -102c31 0 67 14 99 50l99 -67c-52 -62 -116 -98 -205 -98z" />
    <glyph glyph-name="uni0442" unicode="&#x442;" horiz-adv-x="824" 
d="M36 0l60 489h127l-9 -73l3 -1c46 54 100 81 157 81c59 0 96 -26 110 -82h5c45 55 101 82 167 82c100 0 135 -65 117 -202l-40 -294h-127l38 276c9 70 1 106 -34 106c-42 0 -122 -73 -139 -197l-24 -185h-126l36 276c9 70 3 106 -33 106c-43 0 -124 -78 -139 -196
l-22 -186h-127z" />
    <glyph glyph-name="uni0443" unicode="&#x443;" horiz-adv-x="540" 
d="M385 489h125l-52 -426c-26 -219 -148 -269 -270 -269c-57 0 -119 14 -172 47l40 103c42 -27 83 -41 128 -41c75 0 131 27 149 166l1 10l-2 1c-38 -53 -89 -89 -157 -89c-97 0 -147 54 -127 196l41 302h126l-37 -277c-10 -80 2 -105 43 -106c52 0 127 79 138 174z" />
    <glyph glyph-name="uni045E" unicode="&#x45e;" horiz-adv-x="540" 
d="M306 550c-85 0 -138 36 -144 141l103 15c2 -51 25 -75 55 -75c31 0 68 28 90 78l90 -31c-47 -97 -127 -128 -194 -128zM385 489h125l-52 -426c-26 -219 -148 -269 -270 -269c-57 0 -119 14 -172 47l40 103c42 -27 83 -41 128 -41c75 0 131 27 149 166l1 10l-2 1
c-38 -53 -89 -89 -157 -89c-97 0 -147 54 -127 196l41 302h126l-37 -277c-10 -80 2 -105 43 -106c52 0 127 79 138 174z" />
    <glyph glyph-name="uni0444" unicode="&#x444;" horiz-adv-x="725" 
d="M245 -198l33 255l-2 1c-33 -46 -73 -67 -110 -67c-90 0 -140 85 -139 207c2 157 73 298 199 298c39 0 78 -18 97 -46l2 1l35 285h126l-39 -308l2 -1c31 48 76 69 112 69c88 0 139 -84 137 -207c-2 -157 -72 -298 -199 -298c-39 0 -77 18 -96 47l-3 -2l-29 -234h-126z
M467 105c73 0 102 95 104 176c1 65 -20 107 -50 107c-50 0 -97 -99 -111 -221l-2 -21c17 -27 36 -41 59 -41zM208 99c46 0 94 96 108 222l2 21c-17 27 -37 40 -59 40c-73 0 -102 -94 -105 -176c-1 -65 21 -107 54 -107z" />
    <glyph glyph-name="uni0445" unicode="&#x445;" horiz-adv-x="479" 
d="M-13 0l181 251l-117 238h142l58 -141h2l91 141h149l-180 -244l121 -245h-141l-63 144h-2l-100 -144h-141z" />
    <glyph glyph-name="uni0447" unicode="&#x447;" horiz-adv-x="514" 
d="M293 0l27 217h-2c-42 -52 -106 -78 -156 -78c-96 0 -131 59 -116 161l26 189h126l-25 -178c-6 -41 3 -63 43 -62c53 1 115 65 121 110l16 129h127l-60 -488h-127z" />
    <glyph glyph-name="uni0446" unicode="&#x446;" horiz-adv-x="602" 
d="M517 104h56l-43 -235h-102l15 127h-1c-61 0 -92 42 -97 94c0 2 0 3 -1 5h-2c-36 -58 -98 -104 -165 -104c-97 0 -148 54 -128 196l42 302h126l-38 -277c-11 -80 3 -106 43 -106c48 0 123 74 134 165l27 218h127l-39 -318c-9 -64 12 -66 46 -67z" />
    <glyph glyph-name="uni0448" unicode="&#x448;" horiz-adv-x="798" 
d="M169 -9c-92 0 -141 60 -121 204l42 294h126l-38 -270c-12 -86 5 -113 41 -113c32 0 101 43 116 166l27 217h125l-35 -277c-10 -80 4 -106 39 -106c38 0 110 72 123 174l25 209h128l-60 -489h-127l10 82h-3c-32 -53 -90 -91 -148 -91c-56 0 -96 38 -106 94h-2
c-35 -59 -112 -94 -162 -94z" />
    <glyph glyph-name="uni0449" unicode="&#x449;" horiz-adv-x="857" 
d="M774 104h56l-43 -235h-102l15 127h-1c-61 0 -93 41 -97 94c0 2 0 3 -1 5h-2c-36 -58 -98 -104 -160 -104c-58 0 -96 38 -106 94h-2c-35 -59 -112 -94 -162 -94c-92 0 -141 60 -121 204l42 294h126l-38 -270c-12 -86 5 -113 41 -113c32 0 101 43 116 166l27 217h125
l-35 -277c-10 -80 4 -106 39 -106c38 0 110 72 123 174l25 209h128l-39 -318c-8 -64 12 -66 46 -67z" />
    <glyph glyph-name="uni045F" unicode="&#x45f;" horiz-adv-x="543" 
d="M383 489h127l-60 -489h-126l9 80h-2c-15 -21 -32 -40 -52 -54l-32 -201h-103l20 166c-88 5 -133 61 -115 196l43 302h126l-38 -277c-12 -80 2 -106 42 -106c48 0 123 74 135 167z" />
    <glyph glyph-name="uni044C" unicode="&#x44c;" horiz-adv-x="478" 
d="M219 -9c-142 0 -194 78 -175 205l41 293h126l-27 -172l1 -1c22 32 71 64 132 64c73 0 136 -56 135 -149c-1 -137 -82 -240 -233 -240zM228 99c61 0 96 57 96 113c0 46 -34 60 -62 60c-51 0 -90 -41 -97 -91c-7 -45 13 -82 63 -82z" />
    <glyph glyph-name="uni044A" unicode="&#x44a;" horiz-adv-x="525" 
d="M364 380c73 0 136 -56 135 -149c-1 -137 -82 -240 -233 -240c-142 0 -194 78 -175 205l26 185h-97l14 108h224l-27 -172l1 -1c22 32 71 64 132 64zM275 99c61 0 96 57 96 113c0 46 -34 60 -62 60c-51 0 -90 -41 -97 -91c-7 -45 13 -82 63 -82z" />
    <glyph glyph-name="uni044B" unicode="&#x44b;" horiz-adv-x="709" 
d="M219 -9c-142 0 -194 78 -175 205l41 293h126l-27 -171l1 -1c20 29 70 63 127 63c73 0 136 -56 135 -149c-2 -137 -82 -240 -228 -240zM488 0l61 489h126l-60 -489h-127zM228 99c56 0 91 57 91 113c0 46 -34 60 -57 60c-51 0 -90 -41 -97 -91c-7 -45 13 -82 63 -82z" />
    <glyph glyph-name="uni0459" unicode="&#x459;" horiz-adv-x="768" 
d="M609 380c71 0 133 -56 133 -149c-2 -137 -83 -240 -233 -240c-142 0 -194 78 -176 205l27 185h-39c-41 0 -59 -22 -68 -60c-10 -42 -17 -81 -32 -142c-30 -119 -89 -186 -175 -186c-22 0 -45 3 -66 13l25 103c8 -3 17 -5 25 -5c39 0 64 52 81 130c7 29 14 65 20 104
c16 90 77 151 172 151h198l-28 -180l1 -1c21 33 76 72 135 72zM517 99c62 0 96 57 96 113c0 46 -33 60 -61 60c-52 0 -90 -41 -97 -91c-7 -45 13 -82 62 -82z" />
    <glyph glyph-name="uni045A" unicode="&#x45a;" horiz-adv-x="751" 
d="M599 380c72 0 134 -56 133 -149c-1 -137 -82 -240 -233 -240c-139 0 -190 74 -176 196l-145 -1l-23 -186h-127l60 489h127l-24 -198l146 1l28 197h126l-27 -180l1 -1c21 33 75 72 134 72zM508 99c62 0 96 57 96 113c0 46 -34 60 -62 60c-51 0 -89 -41 -97 -91
c-6 -45 13 -82 63 -82z" />
    <glyph glyph-name="uni0455" unicode="&#x455;" horiz-adv-x="424" 
d="M190 -9c-71 0 -146 32 -184 84l77 79c29 -37 70 -59 109 -59c35 0 63 14 63 39c0 23 -27 34 -83 61c-71 33 -120 74 -120 146c0 94 78 155 174 155c63 0 128 -22 172 -73l-80 -79c-28 37 -65 49 -92 50c-28 0 -49 -15 -49 -40c0 -22 30 -41 75 -63
c64 -32 128 -66 129 -142c1 -100 -76 -158 -191 -158z" />
    <glyph glyph-name="uni0454" unicode="&#x454;" horiz-adv-x="495" 
d="M259 104c30 0 69 10 100 44l98 -69c-56 -62 -121 -87 -206 -87c-129 0 -216 71 -215 211c1 167 99 293 268 293c65 0 142 -20 185 -77l-92 -77c-24 29 -64 42 -98 42c-57 0 -102 -35 -124 -91l191 1l-10 -92l-195 -2c4 -70 49 -96 98 -96z" />
    <glyph glyph-name="uni044D" unicode="&#x44d;" horiz-adv-x="479" 
d="M232 496c127 0 211 -71 210 -211c-1 -167 -99 -293 -270 -293c-67 0 -136 20 -178 69l82 85c23 -29 62 -41 101 -41c60 0 107 37 128 98l-197 -2l12 91l196 2c-4 58 -37 91 -96 91c-22 0 -64 -9 -99 -38l-69 86c45 39 114 63 180 63z" />
    <glyph glyph-name="uni0456" unicode="&#x456;" horiz-adv-x="262" 
d="M181 557c-46 0 -79 34 -79 78c0 46 34 80 82 80c46 0 80 -33 80 -77c0 -46 -35 -81 -83 -81zM37 0l61 489h127l-60 -489h-128z" />
    <glyph glyph-name="uni0457" unicode="&#x457;" horiz-adv-x="262" 
d="M222 714c40 0 73 -32 73 -76c0 -46 -34 -81 -76 -81c-13 0 -25 3 -36 9c-11 -6 -23 -9 -36 -9c-42 0 -75 34 -75 78c0 46 34 79 78 79c13 0 24 -3 35 -9c11 6 23 9 37 9zM37 0l61 489h127l-60 -489h-128z" />
    <glyph glyph-name="uni0458" unicode="&#x458;" horiz-adv-x="245" 
d="M167 557c-46 0 -79 34 -79 78c0 46 34 80 82 80c46 0 80 -33 80 -77c0 -46 -35 -81 -83 -81zM-8 -206c-44 0 -69 9 -95 23l32 99c13 -10 26 -14 41 -14c31 0 45 25 52 88l62 499h127l-63 -517c-16 -126 -73 -178 -156 -178z" />
    <glyph glyph-name="uni045B" unicode="&#x45b;" horiz-adv-x="547" 
d="M377 458c100 0 136 -65 118 -200l-33 -258h-127l31 238c9 69 2 106 -39 106c-55 0 -133 -79 -147 -205l-17 -139h-127l67 539h-62l12 96h62l12 101h125l-13 -101h166l-12 -96h-165l-21 -166l2 -2c46 58 104 87 168 87z" />
    <glyph glyph-name="uni044E" unicode="&#x44e;" horiz-adv-x="745" 
d="M512 496c121 0 204 -73 204 -204c0 -166 -89 -301 -258 -301c-118 0 -194 72 -200 197l-77 -1l-23 -187h-127l60 489h127l-24 -199l75 1c29 115 115 205 243 205zM464 106c69 0 124 75 124 170c0 69 -36 106 -86 106c-69 0 -123 -77 -123 -171c0 -66 35 -105 85 -105z
" />
    <glyph glyph-name="uni044F" unicode="&#x44f;" horiz-adv-x="504" 
d="M274 488l197 1l-60 -489h-126l20 167l-45 -1h-21l-14 -29c-47 -94 -93 -146 -173 -146c-14 0 -28 2 -36 3l-8 100c46 6 73 20 108 84l11 20c-52 26 -68 76 -68 113c0 123 90 177 215 177zM260 260l57 1l15 120h-59c-49 0 -87 -24 -87 -70c0 -37 30 -51 74 -51z" />
    <glyph glyph-name="uni0452" unicode="&#x452;" horiz-adv-x="540" 
d="M374 458c132 0 152 -131 126 -270c-36 -184 -142 -335 -295 -396l-54 80c120 67 192 191 220 336c16 76 11 136 -45 136c-54 0 -132 -79 -146 -205l-17 -139h-127l67 539h-62l12 96h62l12 101h125l-13 -101h166l-12 -96h-165l-21 -166l2 -2c46 58 104 87 165 87z" />
    <glyph glyph-name="uni0463" unicode="&#x463;" horiz-adv-x="741" 
d="M489 -9c-142 0 -200 79 -173 218l11 61c15 77 1 112 -30 112c-37 0 -103 -79 -118 -201l-22 -181h-128l61 489h127l-10 -78l2 -1c38 52 87 86 144 86c82 0 125 -61 102 -184l1 -1c22 32 75 69 133 69c71 0 134 -56 133 -149c-2 -137 -82 -240 -233 -240zM498 99
c61 0 96 57 96 113c0 46 -34 60 -62 60c-51 0 -90 -41 -97 -91c-7 -45 13 -82 63 -82z" />
    <glyph glyph-name="uni0473" unicode="&#x473;" horiz-adv-x="531" 
d="M295 496c124 0 207 -73 207 -204c0 -164 -87 -301 -266 -301c-124 0 -206 78 -206 208c0 157 97 297 265 297zM286 386c-58 0 -101 -40 -121 -97l213 4c-3 85 -51 93 -92 93zM244 101c62 0 108 40 126 102l-216 -4c1 -68 34 -98 90 -98z" />
    <glyph glyph-name="uni0475" unicode="&#x475;" horiz-adv-x="502" 
d="M138 0l-99 489h132l51 -346h1l79 226c33 97 78 127 148 127c31 0 65 -7 92 -28l-32 -101c-20 12 -34 16 -45 16c-29 0 -43 -29 -65 -81l-126 -302h-136z" />
    <glyph glyph-name="uni0493" unicode="&#x493;" horiz-adv-x="431" 
d="M190 99c40 0 77 15 108 48l94 -67c-55 -59 -119 -89 -212 -89c-109 0 -162 50 -163 119c0 63 46 103 107 129l-8 4l-13 4v1l-30 12l25 51l79 -32l5 10l22 11c53 26 73 38 72 63c-1 17 -17 26 -46 26c-28 0 -60 -11 -95 -39l-68 86c41 35 118 60 179 60
c73 0 159 -30 159 -119c0 -66 -45 -94 -91 -115v-4h-5v2c-10 -5 -20 -9 -29 -13l-11 -5l38 -15l-23 -52l-55 22l-19 -9c-53 -27 -63 -44 -63 -61c0 -22 26 -28 43 -28z" />
    <glyph glyph-name="uni0495" unicode="&#x495;" horiz-adv-x="510" 
d="M317 269c93 0 159 -72 159 -186c0 -177 -107 -289 -280 -289c-25 0 -49 2 -72 6l28 101c8 0 17 -1 28 -1c104 0 169 66 169 168c0 59 -30 86 -77 86c-52 0 -94 -45 -99 -75l-12 -79h-126l60 489h318l-13 -108h-191l-21 -175h2c22 27 64 63 127 63z" />
    <glyph glyph-name="uni0497" unicode="&#x497;" horiz-adv-x="752" 
d="M687 104h39l-43 -235h-102l15 128c-59 9 -90 61 -113 140c-3 12 -7 24 -10 36c-22 -12 -44 -21 -67 -28l-18 -145h-122l28 224l-2 1c-94 -56 -130 -133 -158 -225h-130c21 93 77 180 147 244l-19 62c-22 71 -49 84 -92 90l31 99c10 1 19 2 33 2c76 0 114 -53 137 -145
l9 -38c19 11 38 19 58 25l18 150h122l-28 -228l2 -1c99 57 140 138 165 229h130c-21 -95 -74 -183 -145 -247c6 -20 12 -38 19 -58c22 -70 51 -80 96 -80z" />
    <glyph glyph-name="uni0499" unicode="&#x499;" horiz-adv-x="446" 
d="M321 257c53 -13 82 -53 82 -102c0 -101 -79 -156 -190 -162l-10 -21c38 -11 67 -34 67 -68c0 -63 -52 -93 -126 -93c-23 0 -43 2 -61 6l4 61c12 -4 29 -5 44 -5c29 0 48 10 48 32c0 18 -25 26 -56 32l22 57c-65 6 -109 25 -146 48l47 106c41 -34 96 -47 142 -47
c51 0 88 23 88 61c0 30 -30 41 -74 40l-79 -1l12 88l63 1c64 1 90 30 90 59c0 24 -24 38 -60 38c-41 0 -86 -12 -123 -31l-45 98c33 17 106 42 177 42c97 0 178 -43 178 -124c0 -58 -48 -96 -94 -113v-2z" />
    <glyph glyph-name="uni049B" unicode="&#x49b;" horiz-adv-x="542" 
d="M473 104h39l-43 -235h-102l15 128c-60 10 -87 63 -115 140l-9 26c-27 -17 -55 -32 -84 -44l-14 -119h-125l60 489h126l-28 -238l2 -1c100 65 149 151 174 239h130c-19 -95 -71 -180 -142 -248l21 -57c25 -69 51 -80 95 -80z" />
    <glyph glyph-name="uni049D" unicode="&#x49d;" horiz-adv-x="568" 
d="M431 184c26 -70 48 -84 91 -90l-33 -101c-9 -1 -18 -2 -32 -2c-77 0 -104 51 -133 143l-16 56c-2 -1 -4 -1 -6 -2l-16 -130h-70l12 101l-50 -15l-18 -144h-125l60 489h125l-30 -249l2 -1c16 5 33 11 48 18l17 136h71l-11 -90c65 53 89 127 105 186h130
c-19 -95 -72 -181 -142 -249z" />
    <glyph glyph-name="uni049F" unicode="&#x49f;" horiz-adv-x="514" 
d="M378 184c25 -70 48 -84 91 -90l-33 -101c-9 -1 -18 -2 -32 -2c-77 1 -104 58 -137 146l-10 28c-27 -18 -55 -34 -83 -46l-14 -119h-125l69 558h-53l9 82h54l12 96h126l-12 -96h127l-10 -82h-127l-37 -307l2 -1c100 65 149 151 174 239h130c-19 -95 -72 -181 -142 -249z
" />
    <glyph glyph-name="uni04A1" unicode="&#x4a1;" horiz-adv-x="573" 
d="M437 184c25 -70 48 -84 90 -90l-32 -101c-10 -1 -18 -2 -33 -2c-76 0 -104 58 -137 146l-9 28c-27 -18 -55 -34 -83 -46l-14 -119h-125l47 381h-121l14 108h246l-29 -238l2 -1c100 65 150 151 174 239h130c-19 -95 -71 -181 -142 -249z" />
    <glyph glyph-name="uni04A3" unicode="&#x4a3;" horiz-adv-x="605" 
d="M520 104h56l-43 -235h-102l15 127h-1c-65 0 -116 26 -106 112l10 79l-164 -1l-23 -186h-127l60 489h127l-24 -198l163 1l24 197h128l-40 -321c-7 -63 13 -63 47 -64z" />
    <glyph glyph-name="uni04A5" unicode="&#x4a5;" horiz-adv-x="627" 
d="M639 489l-13 -108h-135l-46 -381h-127l23 187l-156 -1l-23 -186h-127l60 489h127l-24 -198l156 1l24 197h261z" />
    <glyph glyph-name="uni04A7" unicode="&#x4a7;" horiz-adv-x="803" 
d="M489 -206c-25 0 -49 2 -72 6l28 101c8 0 17 -1 28 -1c104 0 169 66 169 168c0 59 -30 86 -77 86c-52 0 -94 -45 -98 -75l-12 -79h-127l37 276c9 70 2 106 -39 106c-46 0 -127 -79 -142 -201l-22 -181h-127l61 489h126l-9 -78l2 -1c48 58 103 86 161 86
c100 0 136 -65 118 -200l-12 -90h2c22 27 63 63 127 63c92 0 159 -72 159 -186c0 -177 -108 -289 -281 -289z" />
    <glyph glyph-name="uni0525" unicode="&#x525;" horiz-adv-x="607" 
d="M523 104h56l-43 -235h-102l15 127h-1c-65 0 -120 26 -105 122l24 152c12 76 -1 112 -42 112c-53 0 -126 -79 -141 -201l-22 -181h-127l61 489h126l-9 -78l2 -1c48 58 96 86 161 86c99 0 142 -65 121 -200l-22 -135c-9 -56 14 -56 48 -57z" />
    <glyph glyph-name="uni04A9" unicode="&#x4a9;" horiz-adv-x="641" 
d="M631 42c-38 -30 -92 -50 -159 -50c-46 0 -88 8 -123 27c-32 -19 -69 -27 -112 -27c-118 0 -207 79 -207 216c0 102 47 229 140 304l89 -64c-66 -66 -101 -155 -101 -233c0 -64 31 -120 108 -120h11c-18 33 -26 75 -26 120c0 133 70 280 192 280c92 0 136 -60 136 -152
c0 -100 -51 -197 -129 -253l1 -2h6c50 0 90 22 118 52zM431 381c-39 0 -78 -108 -78 -184c0 -23 3 -44 10 -61l2 -1c56 47 90 131 90 202c0 27 -7 44 -24 44z" />
    <glyph glyph-name="uni04AB" unicode="&#x4ab;" horiz-adv-x="487" 
d="M247 107c31 0 67 14 99 50l99 -67c-48 -57 -105 -92 -183 -97l-10 -21c38 -11 67 -34 67 -68c0 -63 -52 -93 -126 -93c-23 0 -43 2 -61 6l4 61c12 -4 29 -5 44 -5c29 0 48 10 48 32c0 18 -25 26 -56 32l23 58c-99 16 -159 86 -159 207c0 154 93 294 258 294
c81 0 145 -30 182 -85l-98 -74c-19 31 -49 45 -84 45c-77 0 -130 -79 -130 -173c0 -70 37 -102 83 -102z" />
    <glyph glyph-name="uni04AD" unicode="&#x4ad;" horiz-adv-x="870" 
d="M787 104h56l-43 -235h-102l15 127h-1c-65 0 -119 26 -104 123l24 151c11 72 3 112 -32 112c-42 0 -114 -73 -130 -197l-25 -185h-126l37 276c9 70 3 106 -34 106c-43 0 -122 -78 -136 -196l-23 -186h-127l60 489h127l-9 -73l3 -1c44 54 98 81 155 81c59 0 96 -26 111 -82
h4c37 55 92 82 159 82c100 0 136 -70 115 -200l-21 -135c-9 -56 14 -56 47 -57z" />
    <glyph glyph-name="uni04AF" unicode="&#x4af;" horiz-adv-x="487" 
d="M118 -198l23 185l-99 502h132l58 -358h2c61 105 110 233 133 358h130c-39 -190 -109 -342 -228 -493l-25 -194h-126z" />
    <glyph glyph-name="uni04B1" unicode="&#x4b1;" horiz-adv-x="487" 
d="M497 489c-31 -152 -83 -280 -173 -406h75l-10 -83h-119l-26 -198h-126l26 198h-101l10 83h75l-86 406h132l58 -358h2c61 105 110 233 133 358h130z" />
    <glyph glyph-name="uni04B3" unicode="&#x4b3;" horiz-adv-x="512" 
d="M348 177c31 -60 50 -73 95 -73h39l-43 -235h-102l15 128c-57 8 -84 54 -115 124l-9 19h-2l-98 -140h-141l181 251l-117 238h142l57 -139h2l92 139h149l-180 -244z" />
    <glyph glyph-name="uni04B5" unicode="&#x4b5;" horiz-adv-x="602" 
d="M484 685l-13 -102h-311l13 102h311zM517 104h56l-43 -235h-102l15 127h-1c-61 0 -92 42 -97 94c0 2 0 3 -1 5h-2c-36 -58 -98 -104 -165 -104c-97 0 -148 54 -128 196l42 302h126l-38 -277c-11 -80 3 -106 43 -106c48 0 123 74 134 165l27 218h127l-39 -318
c-9 -64 12 -66 46 -67z" />
    <glyph glyph-name="uni04B7" unicode="&#x4b7;" horiz-adv-x="568" 
d="M482 104h56l-43 -235h-102l15 127h-1c-65 0 -116 26 -106 112l14 109h-2c-40 -52 -101 -78 -151 -78c-96 0 -131 59 -116 161l26 189h126l-25 -178c-6 -41 3 -63 43 -62c53 1 110 65 116 110l16 129h127l-40 -320c-8 -63 13 -63 47 -64z" />
    </font>
</defs>
</svg>
