<?xml version="1.0" standalone="no"?>
<!DOCTYPE svg PUBLIC "-//W3C//DTD SVG 1.1//EN" "http://www.w3.org/Graphics/SVG/1.1/DTD/svg11.dtd" >
<svg xmlns="http://www.w3.org/2000/svg" xmlns:xlink="http://www.w3.org/1999/xlink" version="1.1">
<metadata>
Created by FontForge 20201107 at Sat Jul 15 12:33:08 2017
 By Jimmy Wärting
Copyright \(c\) 2015 by Kostas Bartsokas. All rights reserved.
</metadata>
<defs>
<font id="AvertaStdCY-BlackItalic" horiz-adv-x="0" >
  <font-face 
    font-family="Averta Std CY Black"
    font-weight="900"
    font-style="italic"
    font-stretch="normal"
    units-per-em="1000"
    panose-1="0 0 10 0 0 0 0 0 0 0"
    ascent="800"
    descent="-200"
    x-height="490"
    cap-height="710"
    bbox="-763 -399 1385 1068"
    underline-thickness="63"
    underline-position="-103"
    slope="-7"
    stemh="112"
    stemv="122"
    unicode-range="U+000D-2E18"
  />
<missing-glyph horiz-adv-x="392" 
 />
    <glyph glyph-name=".notdef" horiz-adv-x="392" 
 />
    <glyph glyph-name="space" unicode=" " horiz-adv-x="166" 
 />
    <glyph glyph-name="A" unicode="A" horiz-adv-x="629" 
d="M-33 0l318 710h170l144 -710h-188l-18 120h-192l-43 -120h-191zM256 270h115l-33 222h-2z" />
    <glyph glyph-name="Aacute" unicode="&#xc1;" horiz-adv-x="629" 
d="M302 754l115 142l165 1l-131 -143h-149zM-33 0l318 710h170l144 -710h-188l-18 120h-192l-43 -120h-191zM256 270h115l-33 222h-2z" />
    <glyph glyph-name="Abreve" unicode="&#x102;" horiz-adv-x="629" 
d="M377 747c-100 0 -146 59 -140 150h119c-3 -21 9 -40 34 -40c28 0 49 20 56 40h120c-17 -81 -71 -150 -189 -150zM-33 0l318 710h170l144 -710h-188l-18 120h-192l-43 -120h-191zM256 270h115l-33 222h-2z" />
    <glyph glyph-name="uni1EAE" unicode="&#x1eae;" horiz-adv-x="629" 
d="M350 900l97 133l148 1l-132 -134h-113zM378 739c-104 0 -152 55 -145 141h123c-3 -20 10 -38 36 -38c29 0 51 19 58 38h125c-18 -76 -74 -141 -197 -141zM-33 0l318 710h170l144 -710h-188l-18 120h-192l-43 -120h-191zM256 270h115l-33 222h-2z" />
    <glyph glyph-name="uni1EB6" unicode="&#x1eb6;" horiz-adv-x="629" 
d="M377 747c-100 0 -146 59 -140 150h119c-3 -21 9 -40 34 -40c28 0 49 20 56 40h120c-17 -81 -71 -150 -189 -150zM-33 0l318 710h170l144 -710h-188l-18 120h-192l-43 -120h-191zM256 270h115l-33 222h-2zM276 -50c60 0 100 -40 100 -94s-41 -95 -103 -95
c-60 0 -99 39 -99 92c0 56 41 97 102 97z" />
    <glyph glyph-name="uni1EB0" unicode="&#x1eb0;" horiz-adv-x="629" 
d="M353 905l-92 133l148 -1l57 -132h-113zM379 739c-104 0 -152 55 -145 141h123c-3 -20 10 -38 36 -38c29 0 51 19 58 38h125c-18 -76 -74 -141 -197 -141zM-33 0l318 710h170l144 -710h-188l-18 120h-192l-43 -120h-191zM256 270h115l-33 222h-2z" />
    <glyph glyph-name="uni1EB2" unicode="&#x1eb2;" horiz-adv-x="629" 
d="M438 890l-76 1c20 15 42 31 45 49c2 9 -4 16 -20 16s-35 -5 -49 -13l-17 60c28 23 80 44 125 44c50 0 79 -20 79 -56c0 -39 -33 -78 -87 -101zM379 739c-104 0 -152 55 -145 141h123c-3 -20 10 -38 36 -38c29 0 51 19 58 38h125c-18 -76 -74 -141 -197 -141zM-33 0
l318 710h170l144 -710h-188l-18 120h-192l-43 -120h-191zM256 270h115l-33 222h-2z" />
    <glyph glyph-name="uni1EB4" unicode="&#x1eb4;" horiz-adv-x="629" 
d="M477 898c-34 0 -53 15 -71 26c-16 11 -28 16 -40 16c-22 0 -41 -20 -54 -45l-86 42c28 57 72 107 126 107c34 0 53 -12 70 -23c13 -8 24 -17 39 -17c23 0 42 19 55 43l84 -33c-27 -62 -69 -116 -123 -116zM379 739c-104 0 -152 55 -145 141h123c-3 -20 10 -38 36 -38
c29 0 51 19 58 38h125c-18 -76 -74 -141 -197 -141zM-33 0l318 710h170l144 -710h-188l-18 120h-192l-43 -120h-191zM256 270h115l-33 222h-2z" />
    <glyph glyph-name="uni01CD" unicode="&#x1cd;" horiz-adv-x="629" 
d="M296 754l-68 143h138l26 -61h1l42 61h134l-101 -143h-172zM-33 0l318 710h170l144 -710h-188l-18 120h-192l-43 -120h-191zM256 270h115l-33 222h-2z" />
    <glyph glyph-name="Acircumflex" unicode="&#xc2;" horiz-adv-x="629" 
d="M211 754l101 143h172l68 -143h-138l-26 61h-1l-42 -61h-134zM-33 0l318 710h170l144 -710h-188l-18 120h-192l-43 -120h-191zM256 270h115l-33 222h-2z" />
    <glyph glyph-name="uni1EA4" unicode="&#x1ea4;" horiz-adv-x="629" 
d="M545 819l104 150l148 1l-135 -151h-117zM213 754l101 143h172l68 -143h-138l-26 61h-1l-42 -61h-134zM-33 0l318 710h170l144 -710h-188l-18 120h-192l-43 -120h-191zM256 270h115l-33 222h-2z" />
    <glyph glyph-name="uni1EAC" unicode="&#x1eac;" horiz-adv-x="629" 
d="M211 754l101 143h172l68 -143h-138l-26 61h-1l-42 -61h-134zM-33 0l318 710h170l144 -710h-188l-18 120h-192l-43 -120h-191zM256 270h115l-33 222h-2zM276 -50c60 0 100 -40 100 -94s-41 -95 -103 -95c-60 0 -99 39 -99 92c0 56 41 97 102 97z" />
    <glyph glyph-name="uni1EA6" unicode="&#x1ea6;" horiz-adv-x="629" 
d="M571 818l-91 153h147l62 -153h-118zM213 752l101 143h172l68 -143h-138l-26 61h-1l-42 -61h-134zM-33 0l318 710h170l144 -710h-188l-18 120h-192l-43 -120h-191zM256 270h115l-33 222h-2z" />
    <glyph glyph-name="uni1EA8" unicode="&#x1ea8;" horiz-adv-x="629" 
d="M610 835l-76 1c20 15 42 31 45 49c2 9 -4 16 -20 16s-35 -5 -49 -13l-17 60c28 23 80 44 125 44c50 0 79 -20 79 -56c0 -39 -33 -78 -87 -101zM212 754l101 143h172l68 -143h-138l-26 61h-1l-42 -61h-134zM-33 0l318 710h170l144 -710h-188l-18 120h-192l-43 -120h-191z
M256 270h115l-33 222h-2z" />
    <glyph glyph-name="uni1EAA" unicode="&#x1eaa;" horiz-adv-x="629" 
d="M476 919c-34 0 -53 15 -71 26c-16 11 -28 16 -40 16c-22 0 -41 -20 -54 -45l-86 42c28 57 72 107 126 107c34 0 53 -12 70 -23c13 -8 24 -17 39 -17c23 0 42 19 55 43l84 -33c-27 -62 -69 -116 -123 -116zM213 754l101 143h172l68 -143h-138l-26 61h-1l-42 -61h-134z
M-33 0l318 710h170l144 -710h-188l-18 120h-192l-43 -120h-191zM256 270h115l-33 222h-2z" />
    <glyph glyph-name="Adieresis" unicode="&#xc4;" horiz-adv-x="629" 
d="M272 748c-60 0 -99 40 -99 94s41 95 102 95c60 0 99 -39 99 -92c0 -56 -41 -97 -102 -97zM502 748c-59 0 -99 40 -99 94s41 95 103 95c59 0 99 -39 99 -92c0 -56 -41 -97 -103 -97zM-33 0l318 710h170l144 -710h-188l-18 120h-192l-43 -120h-191zM256 270h115l-33 222h-2
z" />
    <glyph glyph-name="uni1EA0" unicode="&#x1ea0;" horiz-adv-x="629" 
d="M-33 0l318 710h170l144 -710h-188l-18 120h-192l-43 -120h-191zM256 270h115l-33 222h-2zM276 -50c60 0 100 -40 100 -94s-41 -95 -103 -95c-60 0 -99 39 -99 92c0 56 41 97 102 97z" />
    <glyph glyph-name="Agrave" unicode="&#xc0;" horiz-adv-x="629" 
d="M305 754l-93 143l164 -1l80 -142h-151zM-33 0l318 710h170l144 -710h-188l-18 120h-192l-43 -120h-191zM256 270h115l-33 222h-2z" />
    <glyph glyph-name="uni1EA2" unicode="&#x1ea2;" horiz-adv-x="629" 
d="M410 762l-85 1c24 19 48 44 52 71c2 14 -5 24 -23 24c-17 0 -40 -8 -55 -18l-19 67c31 28 89 55 139 55c59 0 92 -26 92 -71c0 -50 -37 -100 -101 -129zM-33 0l318 710h170l144 -710h-188l-18 120h-192l-43 -120h-191zM256 270h115l-33 222h-2z" />
    <glyph glyph-name="Amacron" unicode="&#x100;" horiz-adv-x="629" 
d="M236 776l16 122h291l-16 -122h-291zM-33 0l318 710h170l144 -710h-188l-18 120h-192l-43 -120h-191zM256 270h115l-33 222h-2z" />
    <glyph glyph-name="Aogonek" unicode="&#x104;" horiz-adv-x="629" 
d="M569 0c-52 -1 -99 -45 -99 -85c0 -16 8 -21 23 -21c11 0 23 3 30 6l2 -82c-21 -7 -45 -10 -77 -10c-65 0 -100 28 -100 80c0 42 25 85 63 114l-18 118h-192l-43 -120h-191l318 710h170l144 -710h-30zM256 270h115l-33 222h-2z" />
    <glyph glyph-name="Aring" unicode="&#xc5;" horiz-adv-x="629" 
d="M381 740c-60 0 -105 46 -105 105c0 61 46 107 108 107c60 0 105 -45 105 -103c0 -62 -46 -109 -108 -109zM383 811c20 0 35 15 35 36c0 19 -15 34 -34 34c-21 0 -37 -15 -37 -35s15 -35 36 -35zM-33 0l318 710h170l144 -710h-188l-18 120h-192l-43 -120h-191zM256 270
h115l-33 222h-2z" />
    <glyph glyph-name="Aringacute" unicode="&#x1fa;" horiz-adv-x="629" 
d="M382 740c-60 0 -105 46 -105 105c0 61 46 107 108 107c25 0 47 -8 65 -21l64 49l158 1l-182 -138c-3 -59 -48 -103 -108 -103zM385 881c-21 0 -37 -15 -37 -35s15 -35 36 -35c20 0 35 15 35 36c0 19 -15 34 -34 34zM285 710h170l144 -710h-188l-18 120h-192l-43 -120
h-191zM256 270h115l-33 222h-2z" />
    <glyph glyph-name="Atilde" unicode="&#xc3;" horiz-adv-x="629" 
d="M467 756c-36 0 -57 16 -76 28c-17 11 -30 17 -43 17c-24 0 -44 -22 -58 -49l-92 45c30 62 77 116 135 116c36 0 57 -13 75 -25c14 -9 26 -18 42 -18c25 0 45 20 59 46l91 -36c-29 -66 -75 -124 -133 -124zM-33 0l318 710h170l144 -710h-188l-18 120h-192l-43 -120h-191z
M256 270h115l-33 222h-2z" />
    <glyph glyph-name="AE" unicode="&#xc6;" horiz-adv-x="861" 
d="M-33 0l381 710h520l-20 -161h-253l-15 -119h201l-20 -155h-200l-14 -114h272l-20 -161h-447l15 120h-148l-61 -120h-191zM295 272h91l28 231h-2z" />
    <glyph glyph-name="AEacute" unicode="&#x1fc;" horiz-adv-x="861" 
d="M382 754l115 142l165 1l-131 -143h-149zM-33 0l381 710h520l-20 -161h-253l-15 -119h201l-20 -155h-200l-14 -114h272l-20 -161h-447l15 120h-148l-61 -120h-191zM295 272h91l28 231h-2z" />
    <glyph glyph-name="B" unicode="B" horiz-adv-x="578" 
d="M26 0l87 710h260c130 0 187 -51 187 -145c0 -68 -37 -145 -106 -181v-3c60 -25 97 -76 97 -151c0 -139 -73 -230 -278 -230h-247zM254 428h43c49 0 80 37 80 81c0 28 -16 43 -50 43h-57zM221 156h64c64 0 84 41 84 88c0 30 -19 49 -60 49h-71z" />
    <glyph glyph-name="C" unicode="C" horiz-adv-x="644" 
d="M334 -10c-167 0 -292 102 -292 301c0 236 149 429 380 429c82 0 181 -37 247 -149l-141 -109c-27 48 -68 84 -117 84c-111 0 -178 -128 -178 -246c0 -89 45 -135 114 -135c49 0 100 23 135 66l125 -118c-67 -80 -164 -123 -273 -123z" />
    <glyph glyph-name="Cacute" unicode="&#x106;" horiz-adv-x="644" 
d="M336 754l115 142l165 1l-131 -143h-149zM334 -10c-167 0 -292 102 -292 301c0 236 149 429 380 429c82 0 181 -37 247 -149l-141 -109c-27 48 -68 84 -117 84c-111 0 -178 -128 -178 -246c0 -89 45 -135 114 -135c49 0 100 23 135 66l125 -118
c-67 -80 -164 -123 -273 -123z" />
    <glyph glyph-name="Ccaron" unicode="&#x10c;" horiz-adv-x="644" 
d="M358 754l-68 143h138l26 -61h1l42 61h134l-101 -143h-172zM334 -10c-167 0 -292 102 -292 301c0 236 149 429 380 429c82 0 181 -37 247 -149l-141 -109c-27 48 -68 84 -117 84c-111 0 -178 -128 -178 -246c0 -89 45 -135 114 -135c49 0 100 23 135 66l125 -118
c-67 -80 -164 -123 -273 -123z" />
    <glyph glyph-name="Ccedilla" unicode="&#xc7;" horiz-adv-x="644" 
d="M347 165c49 0 100 23 135 66l125 -118c-62 -75 -151 -117 -251 -122l-15 -20l1 -1c47 -2 75 -23 75 -67c0 -66 -51 -96 -131 -96c-29 0 -45 3 -58 6l2 65c11 -4 29 -6 41 -6c31 0 49 12 49 31c0 16 -20 23 -63 23l1 39l19 29c-138 21 -235 121 -235 297
c0 236 149 429 380 429c82 0 181 -37 247 -149l-141 -109c-27 48 -68 84 -117 84c-111 0 -178 -128 -178 -246c0 -89 45 -135 114 -135z" />
    <glyph glyph-name="Ccircumflex" unicode="&#x108;" horiz-adv-x="644" 
d="M273 754l101 143h172l68 -143h-138l-26 61h-1l-42 -61h-134zM334 -10c-167 0 -292 102 -292 301c0 236 149 429 380 429c82 0 181 -37 247 -149l-141 -109c-27 48 -68 84 -117 84c-111 0 -178 -128 -178 -246c0 -89 45 -135 114 -135c49 0 100 23 135 66l125 -118
c-67 -80 -164 -123 -273 -123z" />
    <glyph glyph-name="Cdotaccent" unicode="&#x10a;" horiz-adv-x="644" 
d="M450 748c-60 0 -100 40 -100 94s41 95 103 95c60 0 99 -39 99 -92c0 -56 -41 -97 -102 -97zM334 -10c-167 0 -292 102 -292 301c0 236 149 429 380 429c82 0 181 -37 247 -149l-141 -109c-27 48 -68 84 -117 84c-111 0 -178 -128 -178 -246c0 -89 45 -135 114 -135
c49 0 100 23 135 66l125 -118c-67 -80 -164 -123 -273 -123z" />
    <glyph glyph-name="D" unicode="D" horiz-adv-x="653" 
d="M26 0l87 710h230c198 0 294 -115 294 -296c0 -243 -144 -414 -389 -414h-222zM221 161h48c124 0 180 116 180 249c0 90 -37 139 -128 139h-52z" />
    <glyph glyph-name="Eth" unicode="&#xd0;" horiz-adv-x="654" 
d="M344 710c198 0 294 -115 294 -296c0 -243 -144 -414 -389 -414h-222l33 271h-40l20 152h39l35 287h230zM270 161c124 0 180 116 180 249c0 90 -37 139 -128 139h-52l-16 -126h98l-21 -152h-95l-14 -110h48z" />
    <glyph glyph-name="Dcaron" unicode="&#x10e;" horiz-adv-x="653" 
d="M291 752l-68 143h138l26 -61h1l42 61h134l-101 -143h-172zM26 0l87 710h230c198 0 294 -115 294 -296c0 -243 -144 -414 -389 -414h-222zM221 161h48c124 0 180 116 180 249c0 90 -37 139 -128 139h-52z" />
    <glyph glyph-name="Dcroat" unicode="&#x110;" horiz-adv-x="654" 
d="M344 710c198 0 294 -115 294 -296c0 -243 -144 -414 -389 -414h-222l33 271h-40l20 152h39l35 287h230zM270 161c124 0 180 116 180 249c0 90 -37 139 -128 139h-52l-16 -126h98l-21 -152h-95l-14 -110h48z" />
    <glyph glyph-name="uni1E0C" unicode="&#x1e0c;" horiz-adv-x="653" 
d="M26 0l87 710h230c198 0 294 -115 294 -296c0 -243 -144 -414 -389 -414h-222zM221 161h48c124 0 180 116 180 249c0 90 -37 139 -128 139h-52zM258 -50c60 0 100 -40 100 -94s-41 -95 -103 -95c-60 0 -99 39 -99 92c0 56 41 97 102 97z" />
    <glyph glyph-name="uni1E0E" unicode="&#x1e0e;" horiz-adv-x="653" 
d="M26 0l87 710h230c198 0 294 -115 294 -296c0 -243 -144 -414 -389 -414h-222zM221 161h48c124 0 180 116 180 249c0 90 -37 139 -128 139h-52zM101 -215l16 127h291l-16 -127h-291z" />
    <glyph glyph-name="E" unicode="E" horiz-adv-x="533" 
d="M25 0l87 710h428l-20 -161h-252l-15 -118h196l-18 -155h-196l-15 -115h271l-20 -161h-446z" />
    <glyph glyph-name="Eacute" unicode="&#xc9;" horiz-adv-x="533" 
d="M222 752l115 142l165 1l-131 -143h-149zM25 0l87 710h428l-20 -161h-252l-15 -118h196l-18 -155h-196l-15 -115h271l-20 -161h-446z" />
    <glyph glyph-name="Ebreve" unicode="&#x114;" horiz-adv-x="533" 
d="M333 745c-100 0 -146 59 -140 150h119c-3 -21 9 -40 34 -40c28 0 49 20 56 40h120c-17 -81 -71 -150 -189 -150zM25 0l87 710h428l-20 -161h-252l-15 -118h196l-18 -155h-196l-15 -115h271l-20 -161h-446z" />
    <glyph glyph-name="Ecaron" unicode="&#x11a;" horiz-adv-x="533" 
d="M252 752l-68 143h138l26 -61h1l42 61h134l-101 -143h-172zM25 0l87 710h428l-20 -161h-252l-15 -118h196l-18 -155h-196l-15 -115h271l-20 -161h-446z" />
    <glyph glyph-name="Ecircumflex" unicode="&#xca;" horiz-adv-x="533" 
d="M167 752l101 143h172l68 -143h-138l-26 61h-1l-42 -61h-134zM25 0l87 710h428l-20 -161h-252l-15 -118h196l-18 -155h-196l-15 -115h271l-20 -161h-446z" />
    <glyph glyph-name="uni1EBE" unicode="&#x1ebe;" horiz-adv-x="533" 
d="M501 817l104 150l148 1l-135 -151h-117zM169 752l101 143h172l68 -143h-138l-26 61h-1l-42 -61h-134zM25 0l87 710h428l-20 -161h-252l-15 -118h196l-18 -155h-196l-15 -115h271l-20 -161h-446z" />
    <glyph glyph-name="uni1EC6" unicode="&#x1ec6;" horiz-adv-x="533" 
d="M167 752l101 143h172l68 -143h-138l-26 61h-1l-42 -61h-134zM25 0l87 710h428l-20 -161h-252l-15 -118h196l-18 -155h-196l-15 -115h271l-20 -161h-446zM247 -50c60 0 100 -40 100 -94s-41 -95 -103 -95c-60 0 -99 39 -99 92c0 56 41 97 102 97z" />
    <glyph glyph-name="uni1EC0" unicode="&#x1ec0;" horiz-adv-x="533" 
d="M527 816l-91 153h147l62 -153h-118zM169 750l101 143h172l68 -143h-138l-26 61h-1l-42 -61h-134zM25 0l87 710h428l-20 -161h-252l-15 -118h196l-18 -155h-196l-15 -115h271l-20 -161h-446z" />
    <glyph glyph-name="uni1EC2" unicode="&#x1ec2;" horiz-adv-x="533" 
d="M566 833l-76 1c20 15 42 31 45 49c2 9 -4 16 -20 16s-35 -5 -49 -13l-17 60c28 23 80 44 125 44c50 0 79 -20 79 -56c0 -39 -33 -78 -87 -101zM168 752l101 143h172l68 -143h-138l-26 61h-1l-42 -61h-134zM25 0l87 710h428l-20 -161h-252l-15 -118h196l-18 -155h-196
l-15 -115h271l-20 -161h-446z" />
    <glyph glyph-name="uni1EC4" unicode="&#x1ec4;" horiz-adv-x="533" 
d="M432 917c-34 0 -53 15 -71 26c-16 11 -28 16 -40 16c-22 0 -41 -20 -54 -45l-86 42c28 57 72 107 126 107c34 0 53 -12 70 -23c13 -8 24 -17 39 -17c23 0 42 19 55 43l84 -33c-27 -62 -69 -116 -123 -116zM169 752l101 143h172l68 -143h-138l-26 61h-1l-42 -61h-134z
M25 0l87 710h428l-20 -161h-252l-15 -118h196l-18 -155h-196l-15 -115h271l-20 -161h-446z" />
    <glyph glyph-name="Edieresis" unicode="&#xcb;" horiz-adv-x="533" 
d="M228 746c-60 0 -99 40 -99 94s41 95 102 95c60 0 99 -39 99 -92c0 -56 -41 -97 -102 -97zM458 746c-59 0 -99 40 -99 94s41 95 103 95c59 0 99 -39 99 -92c0 -56 -41 -97 -103 -97zM25 0l87 710h428l-20 -161h-252l-15 -118h196l-18 -155h-196l-15 -115h271l-20 -161
h-446z" />
    <glyph glyph-name="Edotaccent" unicode="&#x116;" horiz-adv-x="533" 
d="M344 746c-60 0 -100 40 -100 94s41 95 103 95c60 0 99 -39 99 -92c0 -56 -41 -97 -102 -97zM25 0l87 710h428l-20 -161h-252l-15 -118h196l-18 -155h-196l-15 -115h271l-20 -161h-446z" />
    <glyph glyph-name="uni1EB8" unicode="&#x1eb8;" horiz-adv-x="533" 
d="M25 0l87 710h428l-20 -161h-252l-15 -118h196l-18 -155h-196l-15 -115h271l-20 -161h-446zM247 -50c60 0 100 -40 100 -94s-41 -95 -103 -95c-60 0 -99 39 -99 92c0 56 41 97 102 97z" />
    <glyph glyph-name="Egrave" unicode="&#xc8;" horiz-adv-x="533" 
d="M294 752l-93 143l164 -1l80 -142h-151zM25 0l87 710h428l-20 -161h-252l-15 -118h196l-18 -155h-196l-15 -115h271l-20 -161h-446z" />
    <glyph glyph-name="uni1EBA" unicode="&#x1eba;" horiz-adv-x="533" 
d="M365 752l-85 1c23 16 47 34 51 54c2 10 -5 18 -23 18c-17 0 -39 -6 -54 -14l-19 66c31 26 89 49 139 49c55 0 88 -22 88 -62c0 -43 -37 -87 -97 -112zM25 0l87 710h428l-20 -161h-252l-15 -118h196l-18 -155h-196l-15 -115h271l-20 -161h-446z" />
    <glyph glyph-name="Emacron" unicode="&#x112;" horiz-adv-x="533" 
d="M192 774l16 122h291l-16 -122h-291zM25 0l87 710h428l-20 -161h-252l-15 -118h196l-18 -155h-196l-15 -115h271l-20 -161h-446z" />
    <glyph glyph-name="Eogonek" unicode="&#x118;" horiz-adv-x="533" 
d="M520 549h-252l-15 -118h196l-18 -155h-196l-15 -115h271l-20 -161h-1c-52 -1 -99 -45 -99 -85c0 -16 8 -21 23 -21c11 0 23 3 30 6l2 -82c-21 -7 -45 -10 -77 -10c-65 0 -100 28 -100 80c0 41 25 83 61 112h-285l87 710h428z" />
    <glyph glyph-name="uni1EBC" unicode="&#x1ebc;" horiz-adv-x="533" 
d="M423 754c-36 0 -57 16 -76 28c-17 11 -30 17 -43 17c-24 0 -44 -22 -58 -49l-92 45c30 62 77 116 135 116c36 0 57 -13 75 -25c14 -9 26 -18 42 -18c25 0 45 20 59 46l91 -36c-29 -66 -75 -124 -133 -124zM25 0l87 710h428l-20 -161h-252l-15 -118h196l-18 -155h-196
l-15 -115h271l-20 -161h-446z" />
    <glyph glyph-name="F" unicode="F" horiz-adv-x="522" 
d="M26 0l87 710h442l-20 -161h-265l-18 -144h216l-18 -158h-218l-29 -247h-177z" />
    <glyph glyph-name="G" unicode="G" horiz-adv-x="666" 
d="M334 -10c-163 0 -292 95 -292 298c0 239 149 432 379 432c97 0 193 -46 243 -132l-137 -105c-23 35 -64 67 -117 67c-110 0 -178 -126 -178 -250c0 -96 46 -142 115 -142c31 0 59 6 94 27l11 71h-102l18 148h273l-38 -329c-63 -48 -166 -85 -269 -85z" />
    <glyph glyph-name="Gbreve" unicode="&#x11e;" horiz-adv-x="666" 
d="M422 745c-100 0 -146 59 -140 150h119c-3 -21 9 -40 34 -40c28 0 49 20 56 40h120c-17 -81 -71 -150 -189 -150zM334 -10c-163 0 -292 95 -292 298c0 239 149 432 379 432c97 0 193 -46 243 -132l-137 -105c-23 35 -64 67 -117 67c-110 0 -178 -126 -178 -250
c0 -96 46 -142 115 -142c31 0 59 6 94 27l11 71h-102l18 148h273l-38 -329c-63 -48 -166 -85 -269 -85z" />
    <glyph glyph-name="Gcaron" unicode="&#x1e6;" horiz-adv-x="666" 
d="M341 752l-68 143h138l26 -61h1l42 61h134l-101 -143h-172zM334 -10c-163 0 -292 95 -292 298c0 239 149 432 379 432c97 0 193 -46 243 -132l-137 -105c-23 35 -64 67 -117 67c-110 0 -178 -126 -178 -250c0 -96 46 -142 115 -142c31 0 59 6 94 27l11 71h-102l18 148h273
l-38 -329c-63 -48 -166 -85 -269 -85z" />
    <glyph glyph-name="Gcircumflex" unicode="&#x11c;" horiz-adv-x="666" 
d="M256 752l101 143h172l68 -143h-138l-26 61h-1l-42 -61h-134zM334 -10c-163 0 -292 95 -292 298c0 239 149 432 379 432c97 0 193 -46 243 -132l-137 -105c-23 35 -64 67 -117 67c-110 0 -178 -126 -178 -250c0 -96 46 -142 115 -142c31 0 59 6 94 27l11 71h-102l18 148
h273l-38 -329c-63 -48 -166 -85 -269 -85z" />
    <glyph glyph-name="Gcommaaccent" unicode="&#x122;" horiz-adv-x="666" 
d="M334 -10c-163 0 -292 95 -292 298c0 239 149 432 379 432c97 0 193 -46 243 -132l-137 -105c-23 35 -64 67 -117 67c-110 0 -178 -126 -178 -250c0 -96 46 -142 115 -142c31 0 59 6 94 27l11 71h-102l18 148h273l-38 -329c-63 -48 -166 -85 -269 -85zM221 -222l-15 95
c39 5 55 18 55 49c0 7 -1 15 -3 25h132c1 -8 2 -16 2 -24c0 -96 -67 -145 -171 -145z" />
    <glyph glyph-name="Gdotaccent" unicode="&#x120;" horiz-adv-x="666" 
d="M433 746c-60 0 -100 40 -100 94s41 95 103 95c60 0 99 -39 99 -92c0 -56 -41 -97 -102 -97zM334 -10c-163 0 -292 95 -292 298c0 239 149 432 379 432c97 0 193 -46 243 -132l-137 -105c-23 35 -64 67 -117 67c-110 0 -178 -126 -178 -250c0 -96 46 -142 115 -142
c31 0 59 6 94 27l11 71h-102l18 148h273l-38 -329c-63 -48 -166 -85 -269 -85z" />
    <glyph glyph-name="uni1E20" unicode="&#x1e20;" horiz-adv-x="666" 
d="M281 774l16 122h291l-16 -122h-291zM334 -10c-163 0 -292 95 -292 298c0 239 149 432 379 432c97 0 193 -46 243 -132l-137 -105c-23 35 -64 67 -117 67c-110 0 -178 -126 -178 -250c0 -96 46 -142 115 -142c31 0 59 6 94 27l11 71h-102l18 148h273l-38 -329
c-63 -48 -166 -85 -269 -85z" />
    <glyph glyph-name="H" unicode="H" horiz-adv-x="655" 
d="M26 0l87 710h183l-35 -287h176l35 287h184l-88 -710h-183l32 262h-176l-32 -262h-183z" />
    <glyph glyph-name="Hbar" unicode="&#x126;" horiz-adv-x="655" 
d="M684 626l-14 -114h-39l-63 -512h-183l32 262h-176l-32 -262h-183l63 512h-36l14 114h36l10 84h183l-10 -84h176l10 84h184l-10 -84h38zM437 423l11 89h-176l-11 -89h176z" />
    <glyph glyph-name="uni1E2A" unicode="&#x1e2a;" horiz-adv-x="655" 
d="M26 0l87 710h183l-35 -287h176l35 287h184l-88 -710h-183l32 262h-176l-32 -262h-183zM268 -237c-93 0 -146 59 -140 161h119c-3 -22 9 -41 34 -41c28 0 49 20 56 41h120c-17 -92 -81 -161 -189 -161z" />
    <glyph glyph-name="Hcircumflex" unicode="&#x124;" horiz-adv-x="655" 
d="M220 754l101 143h172l68 -143h-138l-26 61h-1l-42 -61h-134zM26 0l87 710h183l-35 -287h176l35 287h184l-88 -710h-183l32 262h-176l-32 -262h-183z" />
    <glyph glyph-name="uni1E24" unicode="&#x1e24;" horiz-adv-x="655" 
d="M26 0l87 710h183l-35 -287h176l35 287h184l-88 -710h-183l32 262h-176l-32 -262h-183zM285 -50c60 0 100 -40 100 -94s-41 -95 -103 -95c-60 0 -99 39 -99 92c0 56 41 97 102 97z" />
    <glyph glyph-name="I" unicode="I" horiz-adv-x="306" 
d="M31 0l87 710h184l-87 -710h-184z" />
    <glyph glyph-name="IJ" unicode="&#x132;" horiz-adv-x="760" 
d="M31 0l87 710h184l-87 -710h-184zM471 -10c-72 0 -144 33 -180 100l117 121c10 -26 32 -47 59 -47s51 14 62 105l55 441h181l-55 -449c-23 -188 -90 -271 -239 -271z" />
    <glyph glyph-name="Iacute" unicode="&#xcd;" horiz-adv-x="306" 
d="M133 754l115 142l165 1l-131 -143h-149zM31 0l87 710h184l-87 -710h-184z" />
    <glyph glyph-name="Ibreve" unicode="&#x12c;" horiz-adv-x="306" 
d="M210 745c-100 0 -146 59 -140 150h119c-3 -21 9 -40 34 -40c28 0 49 20 56 40h120c-17 -81 -71 -150 -189 -150zM31 0l87 710h184l-87 -710h-184z" />
    <glyph glyph-name="uni01CF" unicode="&#x1cf;" horiz-adv-x="306" 
d="M129 752l-68 143h138l26 -61h1l42 61h134l-101 -143h-172zM31 0l87 710h184l-87 -710h-184z" />
    <glyph glyph-name="Icircumflex" unicode="&#xce;" horiz-adv-x="306" 
d="M44 752l101 143h172l68 -143h-138l-26 61h-1l-42 -61h-134zM31 0l87 710h184l-87 -710h-184z" />
    <glyph glyph-name="Idieresis" unicode="&#xcf;" horiz-adv-x="306" 
d="M105 746c-60 0 -99 40 -99 94s41 95 102 95c60 0 99 -39 99 -92c0 -56 -41 -97 -102 -97zM335 746c-59 0 -99 40 -99 94s41 95 103 95c59 0 99 -39 99 -92c0 -56 -41 -97 -103 -97zM31 0l87 710h184l-87 -710h-184z" />
    <glyph glyph-name="Idotaccent" unicode="&#x130;" horiz-adv-x="306" 
d="M221 746c-60 0 -100 40 -100 94s41 95 103 95c60 0 99 -39 99 -92c0 -56 -41 -97 -102 -97zM31 0l87 710h184l-87 -710h-184z" />
    <glyph glyph-name="uni1ECA" unicode="&#x1eca;" horiz-adv-x="306" 
d="M31 0l87 710h184l-87 -710h-184zM109 -50c60 0 100 -40 100 -94s-41 -95 -103 -95c-60 0 -99 39 -99 92c0 56 41 97 102 97z" />
    <glyph glyph-name="Igrave" unicode="&#xcc;" horiz-adv-x="306" 
d="M145 752l-93 143l164 -1l80 -142h-151zM31 0l87 710h184l-87 -710h-184z" />
    <glyph glyph-name="uni1EC8" unicode="&#x1ec8;" horiz-adv-x="306" 
d="M242 752l-85 1c23 16 47 34 51 54c2 10 -5 18 -23 18c-17 0 -39 -6 -54 -14l-19 66c31 26 89 49 139 49c55 0 88 -22 88 -62c0 -43 -37 -87 -97 -112zM31 0l87 710h184l-87 -710h-184z" />
    <glyph glyph-name="Imacron" unicode="&#x12a;" horiz-adv-x="306" 
d="M69 774l16 122h291l-16 -122h-291zM31 0l87 710h184l-87 -710h-184z" />
    <glyph glyph-name="Iogonek" unicode="&#x12e;" horiz-adv-x="306" 
d="M118 710h184l-87 -710h-25c-52 -1 -99 -45 -99 -85c0 -16 8 -21 23 -21c11 0 23 3 30 6l2 -82c-21 -7 -45 -10 -77 -10c-65 0 -100 28 -100 80c0 42 25 85 62 113z" />
    <glyph glyph-name="Itilde" unicode="&#x128;" horiz-adv-x="306" 
d="M300 754c-36 0 -57 16 -76 28c-17 11 -30 17 -43 17c-24 0 -44 -22 -58 -49l-92 45c30 62 77 116 135 116c36 0 57 -13 75 -25c14 -9 26 -18 42 -18c25 0 45 20 59 46l91 -36c-29 -66 -75 -124 -133 -124zM31 0l87 710h184l-87 -710h-184z" />
    <glyph glyph-name="J" unicode="J" horiz-adv-x="454" 
d="M165 -10c-72 0 -144 33 -180 100l117 121c10 -26 32 -47 59 -47s51 14 62 105l55 441h181l-55 -449c-23 -188 -90 -271 -239 -271z" />
    <glyph glyph-name="uni00A40301" horiz-adv-x="454" 
d="M297 754l115 142l165 1l-131 -143h-149zM165 -10c-72 0 -144 33 -180 100l117 121c10 -26 32 -47 59 -47s51 14 62 105l55 441h181l-55 -449c-23 -188 -90 -271 -239 -271z" />
    <glyph glyph-name="Jcircumflex" unicode="&#x134;" horiz-adv-x="454" 
d="M202 754l101 143h172l68 -143h-138l-26 61h-1l-42 -61h-134zM165 -10c-72 0 -144 33 -180 100l117 121c10 -26 32 -47 59 -47s51 14 62 105l55 441h181l-55 -449c-23 -188 -90 -271 -239 -271z" />
    <glyph glyph-name="K" unicode="K" horiz-adv-x="615" 
d="M668 710l-249 -320l170 -390h-206l-104 261l-49 -59l-25 -202h-179l87 710h180l-32 -265l3 -1l190 266h214z" />
    <glyph glyph-name="Kcommaaccent" unicode="&#x136;" horiz-adv-x="615" 
d="M668 710l-249 -320l170 -390h-206l-104 261l-49 -59l-25 -202h-179l87 710h180l-32 -265l3 -1l190 266h214zM209 -53h132c1 -8 2 -16 2 -24c0 -96 -67 -145 -171 -145l-15 95c39 5 55 18 55 49c0 7 -1 15 -3 25z" />
    <glyph glyph-name="L" unicode="L" horiz-adv-x="508" 
d="M26 0l87 710h182l-67 -549h246l-19 -161h-429z" />
    <glyph glyph-name="Lacute" unicode="&#x139;" horiz-adv-x="508" 
d="M244 754l115 142l165 1l-131 -143h-149zM26 0l87 710h182l-67 -549h246l-19 -161h-429z" />
    <glyph glyph-name="Lcaron" unicode="&#x13d;" horiz-adv-x="523" 
d="M353 574l58 223h157l-99 -223h-116zM26 0l87 710h182l-67 -549h246l-19 -161h-429z" />
    <glyph glyph-name="Lcommaaccent" unicode="&#x13b;" horiz-adv-x="508" 
d="M26 0l87 710h182l-67 -549h246l-19 -161h-429zM129 -222l-15 95c39 5 55 18 55 49c0 7 -1 15 -3 25h132c1 -8 2 -16 2 -24c0 -96 -67 -145 -171 -145z" />
    <glyph glyph-name="Ldot" unicode="&#x13f;" horiz-adv-x="510" 
d="M26 0l87 710h182l-67 -549h246l-19 -161h-429zM411 248c-60 0 -94 40 -94 94c0 55 36 95 97 95c60 0 94 -39 94 -92c0 -56 -36 -97 -97 -97z" />
    <glyph glyph-name="uni1E36" unicode="&#x1e36;" horiz-adv-x="508" 
d="M26 0l87 710h182l-67 -549h246l-19 -161h-429zM231 -50c60 0 100 -40 100 -94s-41 -95 -103 -95c-60 0 -99 39 -99 92c0 56 41 97 102 97z" />
    <glyph glyph-name="uni1E38" unicode="&#x1e38;" horiz-adv-x="508" 
d="M214 776l16 122h291l-16 -122h-291zM26 0l87 710h182l-67 -549h246l-19 -161h-429zM231 -50c60 0 100 -40 100 -94s-41 -95 -103 -95c-60 0 -99 39 -99 92c0 56 41 97 102 97z" />
    <glyph glyph-name="uni1E3A" unicode="&#x1e3a;" horiz-adv-x="508" 
d="M26 0l87 710h182l-67 -549h246l-19 -161h-429zM74 -215l16 127h291l-16 -127h-291z" />
    <glyph glyph-name="Lslash" unicode="&#x141;" horiz-adv-x="509" 
d="M229 161h246l-19 -161h-429l31 249l-62 -27l16 133l62 28l40 327h182l-29 -242l93 42l-17 -134l-93 -41z" />
    <glyph glyph-name="M" unicode="M" horiz-adv-x="781" 
d="M26 0l87 710h175l121 -366h3l193 366h177l-87 -710h-177l43 349l-2 1l-125 -221h-105l-80 227l-3 -1l-43 -355h-177z" />
    <glyph glyph-name="uni1E42" unicode="&#x1e42;" horiz-adv-x="781" 
d="M26 0l87 710h175l121 -366h3l193 366h177l-87 -710h-177l43 349l-2 1l-125 -221h-105l-80 227l-3 -1l-43 -355h-177zM354 -50c60 0 100 -40 100 -94s-41 -95 -103 -95c-60 0 -99 39 -99 92c0 56 41 97 102 97z" />
    <glyph glyph-name="N" unicode="N" horiz-adv-x="668" 
d="M26 0l87 710h165l165 -404l3 1l49 403h175l-88 -710h-172l-158 392l-3 -1l-49 -391h-174z" />
    <glyph glyph-name="Nacute" unicode="&#x143;" horiz-adv-x="668" 
d="M288 754l115 142l165 1l-131 -143h-149zM26 0l87 710h165l165 -404l3 1l49 403h175l-88 -710h-172l-158 392l-3 -1l-49 -391h-174z" />
    <glyph glyph-name="Ncaron" unicode="&#x147;" horiz-adv-x="668" 
d="M318 754l-68 143h138l26 -61h1l42 61h134l-101 -143h-172zM26 0l87 710h165l165 -404l3 1l49 403h175l-88 -710h-172l-158 392l-3 -1l-49 -391h-174z" />
    <glyph glyph-name="Ncommaaccent" unicode="&#x145;" horiz-adv-x="668" 
d="M26 0l87 710h165l165 -404l3 1l49 403h175l-88 -710h-172l-158 392l-3 -1l-49 -391h-174zM201 -222l-15 95c39 5 55 18 55 49c0 7 -1 15 -3 25h132c1 -8 2 -16 2 -24c0 -96 -67 -145 -171 -145z" />
    <glyph glyph-name="uni1E44" unicode="&#x1e44;" horiz-adv-x="668" 
d="M410 767c-60 0 -100 40 -100 94s41 95 103 95c60 0 99 -39 99 -92c0 -56 -41 -97 -102 -97zM26 0l87 710h165l165 -404l3 1l49 403h175l-88 -710h-172l-158 392l-3 -1l-49 -391h-174z" />
    <glyph glyph-name="uni1E46" unicode="&#x1e46;" horiz-adv-x="668" 
d="M26 0l87 710h165l165 -404l3 1l49 403h175l-88 -710h-172l-158 392l-3 -1l-49 -391h-174zM303 -50c60 0 100 -40 100 -94s-41 -95 -103 -95c-60 0 -99 39 -99 92c0 56 41 97 102 97z" />
    <glyph glyph-name="Eng" unicode="&#x14a;" horiz-adv-x="668" 
d="M495 710h175l-88 -710c-19 -154 -102 -205 -240 -205c-15 0 -43 1 -67 6l23 135c10 -1 19 -2 28 -2c42 0 71 15 78 66l2 12l-154 380l-3 -1l-49 -391h-174l87 710h165l165 -404l3 1z" />
    <glyph glyph-name="uni019D" unicode="&#x19d;" horiz-adv-x="664" 
d="M-6 -206c-31 0 -52 2 -71 7l25 135c8 -1 16 -2 23 -2c33 0 49 15 56 76l86 700h165l158 -404l3 1l52 403h175l-91 -710h-172l-151 392l-3 -1l-49 -391c-22 -174 -99 -206 -206 -206z" />
    <glyph glyph-name="uni1E48" unicode="&#x1e48;" horiz-adv-x="668" 
d="M26 0l87 710h165l165 -404l3 1l49 403h175l-88 -710h-172l-158 392l-3 -1l-49 -391h-174zM146 -215l16 127h291l-16 -127h-291z" />
    <glyph glyph-name="Ntilde" unicode="&#xd1;" horiz-adv-x="668" 
d="M489 756c-36 0 -57 16 -76 28c-17 11 -30 17 -43 17c-24 0 -44 -22 -58 -49l-92 45c30 62 77 116 135 116c36 0 57 -13 75 -25c14 -9 26 -18 42 -18c25 0 45 20 59 46l91 -36c-29 -66 -75 -124 -133 -124zM26 0l87 710h165l165 -404l3 1l49 403h175l-88 -710h-172
l-158 392l-3 -1l-49 -391h-174z" />
    <glyph glyph-name="O" unicode="O" horiz-adv-x="726" 
d="M332 -10c-175 0 -290 110 -290 303c0 227 146 427 378 427c174 0 291 -110 291 -300c0 -237 -137 -430 -379 -430zM346 160c104 0 176 106 176 248c0 100 -52 143 -118 143c-99 0 -174 -117 -174 -245c0 -101 52 -146 116 -146z" />
    <glyph glyph-name="Oacute" unicode="&#xd3;" horiz-adv-x="726" 
d="M351 754l115 142l165 1l-131 -143h-149zM332 -10c-175 0 -290 110 -290 303c0 227 146 427 378 427c174 0 291 -110 291 -300c0 -237 -137 -430 -379 -430zM346 160c104 0 176 106 176 248c0 100 -52 143 -118 143c-99 0 -174 -117 -174 -245c0 -101 52 -146 116 -146z
" />
    <glyph glyph-name="Obreve" unicode="&#x14e;" horiz-adv-x="726" 
d="M452 747c-100 0 -146 59 -140 150h119c-3 -21 9 -40 34 -40c28 0 49 20 56 40h120c-17 -81 -71 -150 -189 -150zM332 -10c-175 0 -290 110 -290 303c0 227 146 427 378 427c174 0 291 -110 291 -300c0 -237 -137 -430 -379 -430zM346 160c104 0 176 106 176 248
c0 100 -52 143 -118 143c-99 0 -174 -117 -174 -245c0 -101 52 -146 116 -146z" />
    <glyph glyph-name="uni01D1" unicode="&#x1d1;" horiz-adv-x="726" 
d="M371 754l-68 143h138l26 -61h1l42 61h134l-101 -143h-172zM332 -10c-175 0 -290 110 -290 303c0 227 146 427 378 427c174 0 291 -110 291 -300c0 -237 -137 -430 -379 -430zM346 160c104 0 176 106 176 248c0 100 -52 143 -118 143c-99 0 -174 -117 -174 -245
c0 -101 52 -146 116 -146z" />
    <glyph glyph-name="Ocircumflex" unicode="&#xd4;" horiz-adv-x="726" 
d="M286 754l101 143h172l68 -143h-138l-26 61h-1l-42 -61h-134zM332 -10c-175 0 -290 110 -290 303c0 227 146 427 378 427c174 0 291 -110 291 -300c0 -237 -137 -430 -379 -430zM346 160c104 0 176 106 176 248c0 100 -52 143 -118 143c-99 0 -174 -117 -174 -245
c0 -101 52 -146 116 -146z" />
    <glyph glyph-name="uni1ED0" unicode="&#x1ed0;" horiz-adv-x="726" 
d="M620 819l104 150l148 1l-135 -151h-117zM288 754l101 143h172l68 -143h-138l-26 61h-1l-42 -61h-134zM332 -10c-175 0 -290 110 -290 303c0 227 146 427 378 427c174 0 291 -110 291 -300c0 -237 -137 -430 -379 -430zM346 160c104 0 176 106 176 248
c0 100 -52 143 -118 143c-99 0 -174 -117 -174 -245c0 -101 52 -146 116 -146z" />
    <glyph glyph-name="uni1ED8" unicode="&#x1ed8;" horiz-adv-x="726" 
d="M286 754l101 143h172l68 -143h-138l-26 61h-1l-42 -61h-134zM332 -10c-175 0 -290 110 -290 303c0 227 146 427 378 427c174 0 291 -110 291 -300c0 -237 -137 -430 -379 -430zM346 160c104 0 176 106 176 248c0 100 -52 143 -118 143c-99 0 -174 -117 -174 -245
c0 -101 52 -146 116 -146zM321 -50c60 0 100 -40 100 -94s-41 -95 -103 -95c-60 0 -99 39 -99 92c0 56 41 97 102 97z" />
    <glyph glyph-name="uni1ED2" unicode="&#x1ed2;" horiz-adv-x="726" 
d="M646 818l-91 153h147l62 -153h-118zM288 752l101 143h172l68 -143h-138l-26 61h-1l-42 -61h-134zM332 -10c-175 0 -290 110 -290 303c0 227 146 427 378 427c174 0 291 -110 291 -300c0 -237 -137 -430 -379 -430zM346 160c104 0 176 106 176 248c0 100 -52 143 -118 143
c-99 0 -174 -117 -174 -245c0 -101 52 -146 116 -146z" />
    <glyph glyph-name="uni1ED4" unicode="&#x1ed4;" horiz-adv-x="726" 
d="M685 835l-76 1c20 15 42 31 45 49c2 9 -4 16 -20 16s-35 -5 -49 -13l-17 60c28 23 80 44 125 44c50 0 79 -20 79 -56c0 -39 -33 -78 -87 -101zM287 754l101 143h172l68 -143h-138l-26 61h-1l-42 -61h-134zM332 -10c-175 0 -290 110 -290 303c0 227 146 427 378 427
c174 0 291 -110 291 -300c0 -237 -137 -430 -379 -430zM346 160c104 0 176 106 176 248c0 100 -52 143 -118 143c-99 0 -174 -117 -174 -245c0 -101 52 -146 116 -146z" />
    <glyph glyph-name="uni1ED6" unicode="&#x1ed6;" horiz-adv-x="726" 
d="M551 919c-34 0 -53 15 -71 26c-16 11 -28 16 -40 16c-22 0 -41 -20 -54 -45l-86 42c28 57 72 107 126 107c34 0 53 -12 70 -23c13 -8 24 -17 39 -17c23 0 42 19 55 43l84 -33c-27 -62 -69 -116 -123 -116zM288 754l101 143h172l68 -143h-138l-26 61h-1l-42 -61h-134z
M332 -10c-175 0 -290 110 -290 303c0 227 146 427 378 427c174 0 291 -110 291 -300c0 -237 -137 -430 -379 -430zM346 160c104 0 176 106 176 248c0 100 -52 143 -118 143c-99 0 -174 -117 -174 -245c0 -101 52 -146 116 -146z" />
    <glyph glyph-name="Odieresis" unicode="&#xd6;" horiz-adv-x="726" 
d="M347 748c-60 0 -99 40 -99 94s41 95 102 95c60 0 99 -39 99 -92c0 -56 -41 -97 -102 -97zM577 748c-59 0 -99 40 -99 94s41 95 103 95c59 0 99 -39 99 -92c0 -56 -41 -97 -103 -97zM332 -10c-175 0 -290 110 -290 303c0 227 146 427 378 427c174 0 291 -110 291 -300
c0 -237 -137 -430 -379 -430zM346 160c104 0 176 106 176 248c0 100 -52 143 -118 143c-99 0 -174 -117 -174 -245c0 -101 52 -146 116 -146z" />
    <glyph glyph-name="uni1ECC" unicode="&#x1ecc;" horiz-adv-x="726" 
d="M332 -10c-175 0 -290 110 -290 303c0 227 146 427 378 427c174 0 291 -110 291 -300c0 -237 -137 -430 -379 -430zM346 160c104 0 176 106 176 248c0 100 -52 143 -118 143c-99 0 -174 -117 -174 -245c0 -101 52 -146 116 -146zM321 -50c60 0 100 -40 100 -94
s-41 -95 -103 -95c-60 0 -99 39 -99 92c0 56 41 97 102 97z" />
    <glyph glyph-name="Ograve" unicode="&#xd2;" horiz-adv-x="726" 
d="M377 754l-93 143l164 -1l80 -142h-151zM332 -10c-175 0 -290 110 -290 303c0 227 146 427 378 427c174 0 291 -110 291 -300c0 -237 -137 -430 -379 -430zM346 160c104 0 176 106 176 248c0 100 -52 143 -118 143c-99 0 -174 -117 -174 -245c0 -101 52 -146 116 -146z
" />
    <glyph glyph-name="uni1ECE" unicode="&#x1ece;" horiz-adv-x="726" 
d="M484 754l-85 1c23 16 47 34 51 54c2 10 -5 18 -23 18c-17 0 -39 -6 -54 -14l-19 66c31 26 89 49 139 49c55 0 88 -22 88 -62c0 -43 -37 -87 -97 -112zM332 -10c-175 0 -290 110 -290 303c0 227 146 427 378 427c174 0 291 -110 291 -300c0 -237 -137 -430 -379 -430z
M346 160c104 0 176 106 176 248c0 100 -52 143 -118 143c-99 0 -174 -117 -174 -245c0 -101 52 -146 116 -146z" />
    <glyph glyph-name="Ohorn" unicode="&#x1a0;" horiz-adv-x="789" 
d="M712 774h131l-10 -84c-13 -112 -66 -168 -132 -178c6 -28 10 -59 10 -92c0 -237 -137 -430 -379 -430c-175 0 -290 110 -290 303c0 227 146 427 378 427c114 0 203 -47 251 -132c18 16 24 57 30 105zM346 160c104 0 176 106 176 248c0 100 -52 143 -118 143
c-99 0 -174 -117 -174 -245c0 -101 52 -146 116 -146z" />
    <glyph glyph-name="uni1EDA" unicode="&#x1eda;" horiz-adv-x="789" 
d="M621 897l-131 -143h-149l115 142zM712 774h131l-10 -84c-13 -112 -66 -168 -132 -178c6 -28 10 -59 10 -92c0 -237 -137 -430 -379 -430c-175 0 -290 110 -290 303c0 227 146 427 378 427c114 0 203 -47 251 -132c18 16 24 57 30 105zM346 160c104 0 176 106 176 248
c0 100 -52 143 -118 143c-99 0 -174 -117 -174 -245c0 -101 52 -146 116 -146z" />
    <glyph glyph-name="uni1EE2" unicode="&#x1ee2;" horiz-adv-x="789" 
d="M712 774h131l-10 -84c-13 -112 -66 -168 -132 -178c6 -28 10 -59 10 -92c0 -237 -137 -430 -379 -430c-175 0 -290 110 -290 303c0 227 146 427 378 427c114 0 203 -47 251 -132c18 16 24 57 30 105zM346 160c104 0 176 106 176 248c0 100 -52 143 -118 143
c-99 0 -174 -117 -174 -245c0 -101 52 -146 116 -146zM321 -50c60 0 100 -40 100 -94s-41 -95 -103 -95c-60 0 -99 39 -99 92c0 56 41 97 102 97z" />
    <glyph glyph-name="uni1EDC" unicode="&#x1edc;" horiz-adv-x="789" 
d="M528 754h-151l-93 143l164 -1zM712 774h131l-10 -84c-13 -112 -66 -168 -132 -178c6 -28 10 -59 10 -92c0 -237 -137 -430 -379 -430c-175 0 -290 110 -290 303c0 227 146 427 378 427c114 0 203 -47 251 -132c18 16 24 57 30 105zM346 160c104 0 176 106 176 248
c0 100 -52 143 -118 143c-99 0 -174 -117 -174 -245c0 -101 52 -146 116 -146z" />
    <glyph glyph-name="uni1EDE" unicode="&#x1ede;" horiz-adv-x="789" 
d="M427 827c-17 0 -39 -6 -54 -14l-19 66c31 26 89 49 139 49c55 0 88 -22 88 -62c0 -43 -37 -87 -97 -112l-85 1c23 16 47 34 51 54c2 10 -5 18 -23 18zM712 774h131l-10 -84c-13 -112 -66 -168 -132 -178c6 -28 10 -59 10 -92c0 -237 -137 -430 -379 -430
c-175 0 -290 110 -290 303c0 227 146 427 378 427c114 0 203 -47 251 -132c18 16 24 57 30 105zM346 160c104 0 176 106 176 248c0 100 -52 143 -118 143c-99 0 -174 -117 -174 -245c0 -101 52 -146 116 -146z" />
    <glyph glyph-name="uni1EE0" unicode="&#x1ee0;" horiz-adv-x="789" 
d="M423 801c-24 0 -44 -22 -58 -49l-92 45c30 62 77 116 135 116c36 0 57 -13 75 -25c14 -9 26 -18 42 -18c25 0 45 20 59 46l91 -36c-29 -66 -75 -124 -133 -124c-36 0 -57 16 -76 28c-17 11 -30 17 -43 17zM712 774h131l-10 -84c-13 -112 -66 -168 -132 -178
c6 -28 10 -59 10 -92c0 -237 -137 -430 -379 -430c-175 0 -290 110 -290 303c0 227 146 427 378 427c114 0 203 -47 251 -132c18 16 24 57 30 105zM346 160c104 0 176 106 176 248c0 100 -52 143 -118 143c-99 0 -174 -117 -174 -245c0 -101 52 -146 116 -146z" />
    <glyph glyph-name="Ohungarumlaut" unicode="&#x150;" horiz-adv-x="726" 
d="M255 752l116 151l164 1l-130 -152h-150zM474 752l115 151l164 1l-129 -152h-150zM332 -10c-175 0 -290 110 -290 303c0 227 146 427 378 427c174 0 291 -110 291 -300c0 -237 -137 -430 -379 -430zM346 160c104 0 176 106 176 248c0 100 -52 143 -118 143
c-99 0 -174 -117 -174 -245c0 -101 52 -146 116 -146z" />
    <glyph glyph-name="Omacron" unicode="&#x14c;" horiz-adv-x="726" 
d="M311 776l16 122h291l-16 -122h-291zM332 -10c-175 0 -290 110 -290 303c0 227 146 427 378 427c174 0 291 -110 291 -300c0 -237 -137 -430 -379 -430zM346 160c104 0 176 106 176 248c0 100 -52 143 -118 143c-99 0 -174 -117 -174 -245c0 -101 52 -146 116 -146z" />
    <glyph glyph-name="uni01EA" unicode="&#x1ea;" horiz-adv-x="726" 
d="M382 -7c-36 -14 -64 -47 -64 -78c0 -16 8 -21 23 -21c11 0 23 3 30 6l2 -82c-21 -7 -45 -10 -77 -10c-65 0 -100 28 -100 80c0 39 23 80 56 108v3c-129 29 -210 132 -210 294c0 227 146 427 378 427c174 0 291 -110 291 -300c0 -220 -118 -402 -329 -427zM404 551
c-99 0 -174 -117 -174 -245c0 -101 52 -146 116 -146c104 0 176 106 176 248c0 100 -52 143 -118 143z" />
    <glyph glyph-name="Oslash" unicode="&#xd8;" horiz-adv-x="727" 
d="M741 677l-75 -79c30 -47 46 -107 46 -178c0 -237 -137 -430 -379 -430c-74 0 -137 20 -185 57l-79 -84l-64 63l83 88c-29 47 -45 107 -45 179c0 227 146 427 378 427c73 0 136 -19 185 -56l70 75zM231 306c0 -13 1 -26 3 -37l243 259c-20 16 -45 23 -72 23
c-99 0 -174 -117 -174 -245zM523 408c0 13 -1 24 -2 35l-244 -259c19 -16 44 -24 70 -24c104 0 176 106 176 248z" />
    <glyph glyph-name="Oslashacute" unicode="&#x1fe;" horiz-adv-x="727" 
d="M622 895l-131 -143h-149l115 142zM741 677l-75 -79c30 -47 46 -107 46 -178c0 -237 -137 -430 -379 -430c-74 0 -137 20 -185 57l-79 -84l-64 63l83 88c-29 47 -45 107 -45 179c0 227 146 427 378 427c73 0 136 -19 185 -56l70 75zM231 306c0 -13 1 -26 3 -37l243 259
c-20 16 -45 23 -72 23c-99 0 -174 -117 -174 -245zM523 408c0 13 -1 24 -2 35l-244 -259c19 -16 44 -24 70 -24c104 0 176 106 176 248z" />
    <glyph glyph-name="Otilde" unicode="&#xd5;" horiz-adv-x="726" 
d="M542 756c-36 0 -57 16 -76 28c-17 11 -30 17 -43 17c-24 0 -44 -22 -58 -49l-92 45c30 62 77 116 135 116c36 0 57 -13 75 -25c14 -9 26 -18 42 -18c25 0 45 20 59 46l91 -36c-29 -66 -75 -124 -133 -124zM332 -10c-175 0 -290 110 -290 303c0 227 146 427 378 427
c174 0 291 -110 291 -300c0 -237 -137 -430 -379 -430zM346 160c104 0 176 106 176 248c0 100 -52 143 -118 143c-99 0 -174 -117 -174 -245c0 -101 52 -146 116 -146z" />
    <glyph glyph-name="OE" unicode="&#x152;" horiz-adv-x="858" 
d="M845 549h-247l-15 -118h191l-20 -158h-190l-14 -112h266l-20 -161h-465c-175 0 -289 110 -289 291c0 233 148 419 376 419h447zM346 169h29l46 372h-17c-97 0 -174 -107 -174 -234c0 -93 52 -138 116 -138z" />
    <glyph glyph-name="P" unicode="P" horiz-adv-x="557" 
d="M26 0l87 710h252c144 0 204 -88 204 -199c0 -170 -103 -290 -284 -290h-56l-26 -221h-177zM249 379h39c57 0 93 50 93 105c0 51 -32 67 -63 67h-48z" />
    <glyph glyph-name="Thorn" unicode="&#xde;" horiz-adv-x="582" 
d="M26 0l87 710h177l-14 -111h95c143 0 204 -89 204 -200c0 -169 -104 -289 -284 -289h-75l-13 -110h-177zM236 268h58c57 0 93 50 93 105c0 50 -33 66 -63 66h-67z" />
    <glyph glyph-name="Q" unicode="Q" horiz-adv-x="729" 
d="M711 420c0 -103 -25 -197 -73 -271l54 -59l-101 -114l-60 67c-54 -34 -121 -53 -199 -53c-175 0 -290 110 -290 303c0 227 147 427 379 427c173 0 290 -110 290 -300zM346 160c24 0 47 6 67 16l-42 47l99 108l35 -38c12 34 18 73 18 115c0 100 -53 143 -119 143
c-98 0 -174 -117 -174 -245c0 -101 53 -146 116 -146z" />
    <glyph glyph-name="R" unicode="R" horiz-adv-x="594" 
d="M26 0l87 710h258c144 0 204 -88 204 -199c0 -116 -48 -206 -135 -255l115 -256h-193l-89 221h-44l-26 -221h-177zM249 379h45c57 0 93 50 93 105c0 51 -33 67 -63 67h-54z" />
    <glyph glyph-name="Racute" unicode="&#x154;" horiz-adv-x="594" 
d="M238 754l115 142l165 1l-131 -143h-149zM26 0l87 710h258c144 0 204 -88 204 -199c0 -116 -48 -206 -135 -255l115 -256h-193l-89 221h-44l-26 -221h-177zM249 379h45c57 0 93 50 93 105c0 51 -33 67 -63 67h-54z" />
    <glyph glyph-name="Rcaron" unicode="&#x158;" horiz-adv-x="594" 
d="M268 754l-68 143h138l26 -61h1l42 61h134l-101 -143h-172zM26 0l87 710h258c144 0 204 -88 204 -199c0 -116 -48 -206 -135 -255l115 -256h-193l-89 221h-44l-26 -221h-177zM249 379h45c57 0 93 50 93 105c0 51 -33 67 -63 67h-54z" />
    <glyph glyph-name="Rcommaaccent" unicode="&#x156;" horiz-adv-x="594" 
d="M26 0l87 710h258c144 0 204 -88 204 -199c0 -116 -48 -206 -135 -255l115 -256h-193l-89 221h-44l-26 -221h-177zM249 379h45c57 0 93 50 93 105c0 51 -33 67 -63 67h-54zM162 -222l-15 95c39 5 55 18 55 49c0 7 -1 15 -3 25h132c1 -8 2 -16 2 -24
c0 -96 -67 -145 -171 -145z" />
    <glyph glyph-name="uni1E5A" unicode="&#x1e5a;" horiz-adv-x="594" 
d="M26 0l87 710h258c144 0 204 -88 204 -199c0 -116 -48 -206 -135 -255l115 -256h-193l-89 221h-44l-26 -221h-177zM249 379h45c57 0 93 50 93 105c0 51 -33 67 -63 67h-54zM264 -50c60 0 100 -40 100 -94s-41 -95 -103 -95c-60 0 -99 39 -99 92c0 56 41 97 102 97z" />
    <glyph glyph-name="uni1E5C" unicode="&#x1e5c;" horiz-adv-x="594" 
d="M208 776l16 122h291l-16 -122h-291zM26 0l87 710h258c144 0 204 -88 204 -199c0 -116 -48 -206 -135 -255l115 -256h-193l-89 221h-44l-26 -221h-177zM249 379h45c57 0 93 50 93 105c0 51 -33 67 -63 67h-54zM264 -50c60 0 100 -40 100 -94s-41 -95 -103 -95
c-60 0 -99 39 -99 92c0 56 41 97 102 97z" />
    <glyph glyph-name="uni1E5E" unicode="&#x1e5e;" horiz-adv-x="594" 
d="M26 0l87 710h258c144 0 204 -88 204 -199c0 -116 -48 -206 -135 -255l115 -256h-193l-89 221h-44l-26 -221h-177zM249 379h45c57 0 93 50 93 105c0 51 -33 67 -63 67h-54zM107 -215l16 127h291l-16 -127h-291z" />
    <glyph glyph-name="S" unicode="S" horiz-adv-x="536" 
d="M246 -10c-86 0 -188 33 -251 131l128 110c35 -55 86 -81 127 -81c48 0 71 24 71 51c0 25 -20 38 -84 75c-83 49 -174 96 -174 216c0 140 110 228 248 228c84 0 174 -35 223 -112l-127 -106c-39 50 -71 59 -101 59c-32 0 -55 -20 -54 -48c0 -21 10 -42 63 -73
c107 -64 195 -98 195 -211c0 -150 -107 -239 -264 -239z" />
    <glyph glyph-name="Sacute" unicode="&#x15a;" horiz-adv-x="536" 
d="M238 754l115 142l165 1l-131 -143h-149zM246 -10c-86 0 -188 33 -251 131l128 110c35 -55 86 -81 127 -81c48 0 71 24 71 51c0 25 -20 38 -84 75c-83 49 -174 96 -174 216c0 140 110 228 248 228c84 0 174 -35 223 -112l-127 -106c-39 50 -71 59 -101 59
c-32 0 -55 -20 -54 -48c0 -21 10 -42 63 -73c107 -64 195 -98 195 -211c0 -150 -107 -239 -264 -239z" />
    <glyph glyph-name="Scaron" unicode="&#x160;" horiz-adv-x="536" 
d="M242 754l-68 143h138l26 -61h1l42 61h134l-101 -143h-172zM246 -10c-86 0 -188 33 -251 131l128 110c35 -55 86 -81 127 -81c48 0 71 24 71 51c0 25 -20 38 -84 75c-83 49 -174 96 -174 216c0 140 110 228 248 228c84 0 174 -35 223 -112l-127 -106
c-39 50 -71 59 -101 59c-32 0 -55 -20 -54 -48c0 -21 10 -42 63 -73c107 -64 195 -98 195 -211c0 -150 -107 -239 -264 -239z" />
    <glyph glyph-name="Scedilla" unicode="&#x15e;" horiz-adv-x="536" 
d="M315 440c107 -64 195 -98 195 -211c0 -148 -104 -236 -256 -239l-15 -19l1 -1c47 -2 75 -23 75 -67c0 -66 -51 -96 -131 -96c-29 0 -45 3 -58 6l2 65c11 -4 29 -6 41 -6c31 0 49 12 49 31c0 16 -20 23 -63 23l1 39l21 32c-67 14 -135 51 -182 124l128 110
c35 -55 86 -81 127 -81c48 0 71 24 71 51c0 25 -20 38 -84 75c-83 49 -174 96 -174 216c0 140 110 228 248 228c84 0 174 -35 223 -112l-127 -106c-39 50 -71 59 -101 59c-32 0 -55 -20 -54 -48c0 -21 10 -42 63 -73z" />
    <glyph glyph-name="Scircumflex" unicode="&#x15c;" horiz-adv-x="536" 
d="M157 754l101 143h172l68 -143h-138l-26 61h-1l-42 -61h-134zM246 -10c-86 0 -188 33 -251 131l128 110c35 -55 86 -81 127 -81c48 0 71 24 71 51c0 25 -20 38 -84 75c-83 49 -174 96 -174 216c0 140 110 228 248 228c84 0 174 -35 223 -112l-127 -106
c-39 50 -71 59 -101 59c-32 0 -55 -20 -54 -48c0 -21 10 -42 63 -73c107 -64 195 -98 195 -211c0 -150 -107 -239 -264 -239z" />
    <glyph glyph-name="Scommaaccent" unicode="&#x218;" horiz-adv-x="536" 
d="M246 -10c-86 0 -188 33 -251 131l128 110c35 -55 86 -81 127 -81c48 0 71 24 71 51c0 25 -20 38 -84 75c-83 49 -174 96 -174 216c0 140 110 228 248 228c84 0 174 -35 223 -112l-127 -106c-39 50 -71 59 -101 59c-32 0 -55 -20 -54 -48c0 -21 10 -42 63 -73
c107 -64 195 -98 195 -211c0 -150 -107 -239 -264 -239zM128 -222l-15 95c39 5 55 18 55 49c0 7 -1 15 -3 25h132c1 -8 2 -16 2 -24c0 -96 -67 -145 -171 -145z" />
    <glyph glyph-name="uni1E60" unicode="&#x1e60;" horiz-adv-x="536" 
d="M334 767c-60 0 -100 40 -100 94s41 95 103 95c60 0 99 -39 99 -92c0 -56 -41 -97 -102 -97zM246 -10c-86 0 -188 33 -251 131l128 110c35 -55 86 -81 127 -81c48 0 71 24 71 51c0 25 -20 38 -84 75c-83 49 -174 96 -174 216c0 140 110 228 248 228c84 0 174 -35 223 -112
l-127 -106c-39 50 -71 59 -101 59c-32 0 -55 -20 -54 -48c0 -21 10 -42 63 -73c107 -64 195 -98 195 -211c0 -150 -107 -239 -264 -239z" />
    <glyph glyph-name="uni1E62" unicode="&#x1e62;" horiz-adv-x="536" 
d="M246 -10c-86 0 -188 33 -251 131l128 110c35 -55 86 -81 127 -81c48 0 71 24 71 51c0 25 -20 38 -84 75c-83 49 -174 96 -174 216c0 140 110 228 248 228c84 0 174 -35 223 -112l-127 -106c-39 50 -71 59 -101 59c-32 0 -55 -20 -54 -48c0 -21 10 -42 63 -73
c107 -64 195 -98 195 -211c0 -150 -107 -239 -264 -239zM230 -50c60 0 100 -40 100 -94s-41 -95 -103 -95c-60 0 -99 39 -99 92c0 56 41 97 102 97z" />
    <glyph glyph-name="uni1E9E" unicode="&#x1e9e;" horiz-adv-x="768" 
d="M567 436c104 -61 189 -96 189 -207c0 -150 -102 -239 -259 -239c-73 0 -152 23 -213 84l92 154c35 -54 85 -79 128 -79c46 0 63 24 63 52c0 25 -20 37 -84 75c-39 23 -99 55 -129 95l119 191l-1 4c-34 4 -63 6 -86 6c-62 0 -118 -35 -129 -126l-55 -446h-176l56 452
c26 206 147 269 314 269c98 0 215 -18 317 -49z" />
    <glyph glyph-name="uni018F" unicode="&#x18f;" horiz-adv-x="697" 
d="M389 720c175 0 293 -110 293 -300c0 -237 -137 -430 -361 -430c-176 0 -286 110 -286 303c0 35 8 84 19 117h445c-1 93 -54 143 -121 143c-46 0 -90 -18 -129 -56l-107 134c63 52 165 89 247 89zM328 150c68 0 116 32 144 109h-263c4 -74 59 -109 119 -109z" />
    <glyph glyph-name="T" unicode="T" horiz-adv-x="535" 
d="M147 0l67 549h-158l20 161h497l-20 -161h-158l-67 -549h-181z" />
    <glyph glyph-name="Tbar" unicode="&#x166;" horiz-adv-x="535" 
d="M553 549h-158l-20 -163h98l-15 -124h-98l-32 -262h-181l32 262h-95l16 124h94l20 163h-158l20 161h497z" />
    <glyph glyph-name="Tcaron" unicode="&#x164;" horiz-adv-x="535" 
d="M241 754l-68 143h138l26 -61h1l42 61h134l-101 -143h-172zM147 0l67 549h-158l20 161h497l-20 -161h-158l-67 -549h-181z" />
    <glyph glyph-name="uni0162" unicode="&#x162;" horiz-adv-x="535" 
d="M76 710h497l-20 -161h-158l-67 -549h-73l-22 -29l1 -1c47 -2 75 -23 75 -67c0 -66 -51 -96 -131 -96c-29 0 -45 3 -58 6l2 65c11 -4 29 -6 41 -6c31 0 49 12 49 31c0 16 -20 23 -63 23l1 39l23 35h-26l67 549h-158z" />
    <glyph glyph-name="uni021A" unicode="&#x21a;" horiz-adv-x="535" 
d="M147 0l67 549h-158l20 161h497l-20 -161h-158l-67 -549h-181zM122 -222l-15 95c39 5 55 18 55 49c0 7 -1 15 -3 25h132c1 -8 2 -16 2 -24c0 -96 -67 -145 -171 -145z" />
    <glyph glyph-name="Tdieresis" horiz-adv-x="535" 
d="M221 767c-60 0 -99 40 -99 94s41 95 102 95c60 0 99 -39 99 -92c0 -56 -41 -97 -102 -97zM451 767c-59 0 -99 40 -99 94s41 95 103 95c59 0 99 -39 99 -92c0 -56 -41 -97 -103 -97zM147 0l67 549h-158l20 161h497l-20 -161h-158l-67 -549h-181z" />
    <glyph glyph-name="uni1E6C" unicode="&#x1e6c;" horiz-adv-x="535" 
d="M147 0l67 549h-158l20 161h497l-20 -161h-158l-67 -549h-181zM224 -50c60 0 100 -40 100 -94s-41 -95 -103 -95c-60 0 -99 39 -99 92c0 56 41 97 102 97z" />
    <glyph glyph-name="uni1E6E" unicode="&#x1e6e;" horiz-adv-x="535" 
d="M147 0l67 549h-158l20 161h497l-20 -161h-158l-67 -549h-181zM67 -215l16 127h291l-16 -127h-291z" />
    <glyph glyph-name="U" unicode="U" horiz-adv-x="640" 
d="M292 -10c-197 0 -260 128 -234 335l48 385h181l-49 -404c-10 -82 -1 -147 71 -147c54 0 95 32 108 140l51 411h180l-51 -417c-28 -227 -131 -303 -305 -303z" />
    <glyph glyph-name="Uacute" unicode="&#xda;" horiz-adv-x="640" 
d="M296 754l115 142l165 1l-131 -143h-149zM292 -10c-197 0 -260 128 -234 335l48 385h181l-49 -404c-10 -82 -1 -147 71 -147c54 0 95 32 108 140l51 411h180l-51 -417c-28 -227 -131 -303 -305 -303z" />
    <glyph glyph-name="Ubreve" unicode="&#x16c;" horiz-adv-x="640" 
d="M380 747c-100 0 -146 59 -140 150h119c-3 -21 9 -40 34 -40c28 0 49 20 56 40h120c-17 -81 -71 -150 -189 -150zM292 -10c-197 0 -260 128 -234 335l48 385h181l-49 -404c-10 -82 -1 -147 71 -147c54 0 95 32 108 140l51 411h180l-51 -417c-28 -227 -131 -303 -305 -303z
" />
    <glyph glyph-name="Ucircumflex" unicode="&#xdb;" horiz-adv-x="640" 
d="M214 754l101 143h172l68 -143h-138l-26 61h-1l-42 -61h-134zM292 -10c-197 0 -260 128 -234 335l48 385h181l-49 -404c-10 -82 -1 -147 71 -147c54 0 95 32 108 140l51 411h180l-51 -417c-28 -227 -131 -303 -305 -303z" />
    <glyph glyph-name="Udieresis" unicode="&#xdc;" horiz-adv-x="640" 
d="M275 748c-60 0 -99 40 -99 94s41 95 102 95c60 0 99 -39 99 -92c0 -56 -41 -97 -102 -97zM505 748c-59 0 -99 40 -99 94s41 95 103 95c59 0 99 -39 99 -92c0 -56 -41 -97 -103 -97zM292 -10c-197 0 -260 128 -234 335l48 385h181l-49 -404c-10 -82 -1 -147 71 -147
c54 0 95 32 108 140l51 411h180l-51 -417c-28 -227 -131 -303 -305 -303z" />
    <glyph glyph-name="uni1EE4" unicode="&#x1ee4;" horiz-adv-x="640" 
d="M292 -10c-197 0 -260 128 -234 335l48 385h181l-49 -404c-10 -82 -1 -147 71 -147c54 0 95 32 108 140l51 411h180l-51 -417c-28 -227 -131 -303 -305 -303zM281 -50c60 0 100 -40 100 -94s-41 -95 -103 -95c-60 0 -99 39 -99 92c0 56 41 97 102 97z" />
    <glyph glyph-name="Ugrave" unicode="&#xd9;" horiz-adv-x="640" 
d="M311 754l-93 143l164 -1l80 -142h-151zM292 -10c-197 0 -260 128 -234 335l48 385h181l-49 -404c-10 -82 -1 -147 71 -147c54 0 95 32 108 140l51 411h180l-51 -417c-28 -227 -131 -303 -305 -303z" />
    <glyph glyph-name="uni1EE6" unicode="&#x1ee6;" horiz-adv-x="640" 
d="M412 754l-85 1c23 16 47 34 51 54c2 10 -5 18 -23 18c-17 0 -39 -6 -54 -14l-19 66c31 26 89 49 139 49c55 0 88 -22 88 -62c0 -43 -37 -87 -97 -112zM292 -10c-197 0 -260 128 -234 335l48 385h181l-49 -404c-10 -82 -1 -147 71 -147c54 0 95 32 108 140l51 411h180
l-51 -417c-28 -227 -131 -303 -305 -303z" />
    <glyph glyph-name="Uhorn" unicode="&#x1af;" horiz-adv-x="772" 
d="M707 774h131l-10 -84c-15 -125 -78 -180 -155 -180c-18 0 -34 2 -49 6l-27 -223c-28 -227 -131 -303 -305 -303c-197 0 -260 128 -234 335l48 385h181l-49 -404c-10 -82 -1 -147 71 -147c54 0 95 32 108 140l51 411h180l-16 -129c5 -1 9 -2 13 -2c35 0 43 50 51 114z" />
    <glyph glyph-name="uni1EE8" unicode="&#x1ee8;" horiz-adv-x="772" 
d="M576 897l-131 -143h-149l115 142zM707 774h131l-10 -84c-15 -125 -78 -180 -155 -180c-18 0 -34 2 -49 6l-27 -223c-28 -227 -131 -303 -305 -303c-197 0 -260 128 -234 335l48 385h181l-49 -404c-10 -82 -1 -147 71 -147c54 0 95 32 108 140l51 411h180l-16 -129
c5 -1 9 -2 13 -2c35 0 43 50 51 114z" />
    <glyph glyph-name="uni1EF0" unicode="&#x1ef0;" horiz-adv-x="772" 
d="M707 774h131l-10 -84c-15 -125 -78 -180 -155 -180c-18 0 -34 2 -49 6l-27 -223c-28 -227 -131 -303 -305 -303c-197 0 -260 128 -234 335l48 385h181l-49 -404c-10 -82 -1 -147 71 -147c54 0 95 32 108 140l51 411h180l-16 -129c5 -1 9 -2 13 -2c35 0 43 50 51 114z
M281 -50c60 0 100 -40 100 -94s-41 -95 -103 -95c-60 0 -99 39 -99 92c0 56 41 97 102 97z" />
    <glyph glyph-name="uni1EEA" unicode="&#x1eea;" horiz-adv-x="772" 
d="M462 754h-151l-93 143l164 -1zM707 774h131l-10 -84c-15 -125 -78 -180 -155 -180c-18 0 -34 2 -49 6l-27 -223c-28 -227 -131 -303 -305 -303c-197 0 -260 128 -234 335l48 385h181l-49 -404c-10 -82 -1 -147 71 -147c54 0 95 32 108 140l51 411h180l-16 -129
c5 -1 9 -2 13 -2c35 0 43 50 51 114z" />
    <glyph glyph-name="uni1EEC" unicode="&#x1eec;" horiz-adv-x="772" 
d="M355 827c-17 0 -39 -6 -54 -14l-19 66c31 26 89 49 139 49c55 0 88 -22 88 -62c0 -43 -37 -87 -97 -112l-85 1c23 16 47 34 51 54c2 10 -5 18 -23 18zM707 774h131l-10 -84c-15 -125 -78 -180 -155 -180c-18 0 -34 2 -49 6l-27 -223c-28 -227 -131 -303 -305 -303
c-197 0 -260 128 -234 335l48 385h181l-49 -404c-10 -82 -1 -147 71 -147c54 0 95 32 108 140l51 411h180l-16 -129c5 -1 9 -2 13 -2c35 0 43 50 51 114z" />
    <glyph glyph-name="uni1EEE" unicode="&#x1eee;" horiz-adv-x="772" 
d="M351 801c-24 0 -44 -22 -58 -49l-92 45c30 62 77 116 135 116c36 0 57 -13 75 -25c14 -9 26 -18 42 -18c25 0 45 20 59 46l91 -36c-29 -66 -75 -124 -133 -124c-36 0 -57 16 -76 28c-17 11 -30 17 -43 17zM707 774h131l-10 -84c-15 -125 -78 -180 -155 -180
c-18 0 -34 2 -49 6l-27 -223c-28 -227 -131 -303 -305 -303c-197 0 -260 128 -234 335l48 385h181l-49 -404c-10 -82 -1 -147 71 -147c54 0 95 32 108 140l51 411h180l-16 -129c5 -1 9 -2 13 -2c35 0 43 50 51 114z" />
    <glyph glyph-name="Uhungarumlaut" unicode="&#x170;" horiz-adv-x="640" 
d="M183 752l116 151l164 1l-130 -152h-150zM402 752l115 151l164 1l-129 -152h-150zM292 -10c-197 0 -260 128 -234 335l48 385h181l-49 -404c-10 -82 -1 -147 71 -147c54 0 95 32 108 140l51 411h180l-51 -417c-28 -227 -131 -303 -305 -303z" />
    <glyph glyph-name="Umacron" unicode="&#x16a;" horiz-adv-x="640" 
d="M239 776l16 122h291l-16 -122h-291zM292 -10c-197 0 -260 128 -234 335l48 385h181l-49 -404c-10 -82 -1 -147 71 -147c54 0 95 32 108 140l51 411h180l-51 -417c-28 -227 -131 -303 -305 -303z" />
    <glyph glyph-name="Uogonek" unicode="&#x172;" horiz-adv-x="640" 
d="M468 710h180l-51 -417c-21 -173 -86 -258 -192 -289c-51 -17 -95 -51 -95 -89c0 -12 8 -21 23 -21c7 0 19 2 30 6l2 -82c-21 -7 -46 -10 -77 -10c-65 0 -100 28 -100 80c0 37 24 74 56 102l-1 3c-158 20 -209 143 -185 332l48 385h181l-49 -404c-10 -82 -1 -147 71 -147
c54 0 95 32 108 140z" />
    <glyph glyph-name="Uring" unicode="&#x16e;" horiz-adv-x="640" 
d="M384 740c-60 0 -105 46 -105 105c0 61 46 107 108 107c60 0 105 -45 105 -103c0 -62 -46 -109 -108 -109zM386 811c20 0 35 15 35 36c0 19 -15 34 -34 34c-21 0 -37 -15 -37 -35s15 -35 36 -35zM292 -10c-197 0 -260 128 -234 335l48 385h181l-49 -404
c-10 -82 -1 -147 71 -147c54 0 95 32 108 140l51 411h180l-51 -417c-28 -227 -131 -303 -305 -303z" />
    <glyph glyph-name="Utilde" unicode="&#x168;" horiz-adv-x="640" 
d="M470 756c-36 0 -57 16 -76 28c-17 11 -30 17 -43 17c-24 0 -44 -22 -58 -49l-92 45c30 62 77 116 135 116c36 0 57 -13 75 -25c14 -9 26 -18 42 -18c25 0 45 20 59 46l91 -36c-29 -66 -75 -124 -133 -124zM292 -10c-197 0 -260 128 -234 335l48 385h181l-49 -404
c-10 -82 -1 -147 71 -147c54 0 95 32 108 140l51 411h180l-51 -417c-28 -227 -131 -303 -305 -303z" />
    <glyph glyph-name="V" unicode="V" horiz-adv-x="623" 
d="M205 0l-146 710h195l60 -430h2l166 430h198l-319 -710h-156z" />
    <glyph glyph-name="W" unicode="W" horiz-adv-x="923" 
d="M177 0l-112 710h188l42 -412h2l138 412h178l30 -402h3l135 402h193l-286 -710h-161l-41 430h-2l-153 -430h-154z" />
    <glyph glyph-name="Wacute" unicode="&#x1e82;" horiz-adv-x="923" 
d="M447 754l115 142l165 1l-131 -143h-149zM177 0l-112 710h188l42 -412h2l138 412h178l30 -402h3l135 402h193l-286 -710h-161l-41 430h-2l-153 -430h-154z" />
    <glyph glyph-name="Wcircumflex" unicode="&#x174;" horiz-adv-x="923" 
d="M347 754l101 143h172l68 -143h-138l-26 61h-1l-42 -61h-134zM177 0l-112 710h188l42 -412h2l138 412h178l30 -402h3l135 402h193l-286 -710h-161l-41 430h-2l-153 -430h-154z" />
    <glyph glyph-name="Wdieresis" unicode="&#x1e84;" horiz-adv-x="923" 
d="M408 748c-60 0 -99 40 -99 94s41 95 102 95c60 0 99 -39 99 -92c0 -56 -41 -97 -102 -97zM638 748c-59 0 -99 40 -99 94s41 95 103 95c59 0 99 -39 99 -92c0 -56 -41 -97 -103 -97zM177 0l-112 710h188l42 -412h2l138 412h178l30 -402h3l135 402h193l-286 -710h-161
l-41 430h-2l-153 -430h-154z" />
    <glyph glyph-name="Wgrave" unicode="&#x1e80;" horiz-adv-x="923" 
d="M456 754l-93 143l164 -1l80 -142h-151zM177 0l-112 710h188l42 -412h2l138 412h178l30 -402h3l135 402h193l-286 -710h-161l-41 430h-2l-153 -430h-154z" />
    <glyph glyph-name="X" unicode="X" horiz-adv-x="633" 
d="M-33 0l245 361l-147 349h191l85 -215h5l129 215h207l-238 -353l158 -357h-196l-91 220h-4l-144 -220h-200z" />
    <glyph glyph-name="Y" unicode="Y" horiz-adv-x="581" 
d="M168 0l39 308l-155 402h199l66 -233h3l119 233h206l-255 -402l-38 -308h-184z" />
    <glyph glyph-name="Yacute" unicode="&#xdd;" horiz-adv-x="581" 
d="M275 754l115 142l165 1l-131 -143h-149zM168 0l39 308l-155 402h199l66 -233h3l119 233h206l-255 -402l-38 -308h-184z" />
    <glyph glyph-name="Ycircumflex" unicode="&#x176;" horiz-adv-x="581" 
d="M185 754l101 143h172l68 -143h-138l-26 61h-1l-42 -61h-134zM168 0l39 308l-155 402h199l66 -233h3l119 233h206l-255 -402l-38 -308h-184z" />
    <glyph glyph-name="Ydieresis" unicode="&#x178;" horiz-adv-x="581" 
d="M246 748c-60 0 -99 40 -99 94s41 95 102 95c60 0 99 -39 99 -92c0 -56 -41 -97 -102 -97zM476 748c-59 0 -99 40 -99 94s41 95 103 95c59 0 99 -39 99 -92c0 -56 -41 -97 -103 -97zM168 0l39 308l-155 402h199l66 -233h3l119 233h206l-255 -402l-38 -308h-184z" />
    <glyph glyph-name="uni1E8E" unicode="&#x1e8e;" horiz-adv-x="581" 
d="M362 767c-60 0 -100 40 -100 94s41 95 103 95c60 0 99 -39 99 -92c0 -56 -41 -97 -102 -97zM168 0l39 308l-155 402h199l66 -233h3l119 233h206l-255 -402l-38 -308h-184z" />
    <glyph glyph-name="uni1EF4" unicode="&#x1ef4;" horiz-adv-x="581" 
d="M168 0l39 308l-155 402h199l66 -233h3l119 233h206l-255 -402l-38 -308h-184zM244 -50c60 0 100 -40 100 -94s-41 -95 -103 -95c-60 0 -99 39 -99 92c0 56 41 97 102 97z" />
    <glyph glyph-name="Ygrave" unicode="&#x1ef2;" horiz-adv-x="581" 
d="M285 754l-93 143l164 -1l80 -142h-151zM168 0l39 308l-155 402h199l66 -233h3l119 233h206l-255 -402l-38 -308h-184z" />
    <glyph glyph-name="uni1EF6" unicode="&#x1ef6;" horiz-adv-x="581" 
d="M383 754l-85 1c23 16 47 34 51 54c2 10 -5 18 -23 18c-17 0 -39 -6 -54 -14l-19 66c31 26 89 49 139 49c55 0 88 -22 88 -62c0 -43 -37 -87 -97 -112zM168 0l39 308l-155 402h199l66 -233h3l119 233h206l-255 -402l-38 -308h-184z" />
    <glyph glyph-name="uni0232" unicode="&#x232;" horiz-adv-x="581" 
d="M210 776l16 122h291l-16 -122h-291zM168 0l39 308l-155 402h199l66 -233h3l119 233h206l-255 -402l-38 -308h-184z" />
    <glyph glyph-name="uni1EF8" unicode="&#x1ef8;" horiz-adv-x="581" 
d="M441 756c-36 0 -57 16 -76 28c-17 11 -30 17 -43 17c-24 0 -44 -22 -58 -49l-92 45c30 62 77 116 135 116c36 0 57 -13 75 -25c14 -9 26 -18 42 -18c25 0 45 20 59 46l91 -36c-29 -66 -75 -124 -133 -124zM168 0l39 308l-155 402h199l66 -233h3l119 233h206l-255 -402
l-38 -308h-184z" />
    <glyph glyph-name="Z" unicode="Z" horiz-adv-x="560" 
d="M5 0l16 141l314 404l-2 4h-253l19 161h484l-16 -137l-321 -408l2 -4h266l-19 -161h-490z" />
    <glyph glyph-name="Zacute" unicode="&#x179;" horiz-adv-x="560" 
d="M236 754l115 142l165 1l-131 -143h-149zM5 0l16 141l314 404l-2 4h-253l19 161h484l-16 -137l-321 -408l2 -4h266l-19 -161h-490z" />
    <glyph glyph-name="Zcaron" unicode="&#x17d;" horiz-adv-x="560" 
d="M266 754l-68 143h138l26 -61h1l42 61h134l-101 -143h-172zM5 0l16 141l314 404l-2 4h-253l19 161h484l-16 -137l-321 -408l2 -4h266l-19 -161h-490z" />
    <glyph glyph-name="Zdotaccent" unicode="&#x17b;" horiz-adv-x="560" 
d="M358 748c-60 0 -100 40 -100 94s41 95 103 95c60 0 99 -39 99 -92c0 -56 -41 -97 -102 -97zM5 0l16 141l314 404l-2 4h-253l19 161h484l-16 -137l-321 -408l2 -4h266l-19 -161h-490z" />
    <glyph glyph-name="uni1E92" unicode="&#x1e92;" horiz-adv-x="560" 
d="M5 0l16 141l314 404l-2 4h-253l19 161h484l-16 -137l-321 -408l2 -4h266l-19 -161h-490zM244 -50c60 0 100 -40 100 -94s-41 -95 -103 -95c-60 0 -99 39 -99 92c0 56 41 97 102 97z" />
    <glyph glyph-name="uni01D3" unicode="&#x1d3;" horiz-adv-x="640" 
d="M299 754l-68 143h138l26 -61h1l42 61h134l-101 -143h-172zM292 -10c-197 0 -260 128 -234 335l48 385h181l-49 -404c-10 -82 -1 -147 71 -147c54 0 95 32 108 140l51 411h180l-51 -417c-28 -227 -131 -303 -305 -303z" />
    <glyph glyph-name="uni01D5" unicode="&#x1d5;" horiz-adv-x="640" 
d="M253 927l10 82h291l-10 -82h-291zM275 748c-48 0 -80 32 -80 75s33 76 82 76c48 0 80 -31 80 -73c0 -45 -33 -78 -82 -78zM503 748c-48 0 -80 32 -80 75s33 76 82 76c48 0 80 -31 80 -73c0 -45 -33 -78 -82 -78zM292 -10c-197 0 -260 128 -234 335l48 385h181l-49 -404
c-10 -82 -1 -147 71 -147c54 0 95 32 108 140l51 411h180l-51 -417c-28 -227 -131 -303 -305 -303z" />
    <glyph glyph-name="uni01D7" unicode="&#x1d7;" horiz-adv-x="640" 
d="M342 906l97 134l155 1l-154 -135h-98zM275 748c-48 0 -80 32 -80 75s33 76 82 76c48 0 80 -31 80 -73c0 -45 -33 -78 -82 -78zM503 748c-48 0 -80 32 -80 75s33 76 82 76c48 0 80 -31 80 -73c0 -45 -33 -78 -82 -78zM292 -10c-197 0 -260 128 -234 335l48 385h181
l-49 -404c-10 -82 -1 -147 71 -147c54 0 95 32 108 140l51 411h180l-51 -417c-28 -227 -131 -303 -305 -303z" />
    <glyph glyph-name="uni01D9" unicode="&#x1d9;" horiz-adv-x="640" 
d="M308 914l-68 129h138l26 -55h1l42 55h134l-101 -129h-172zM275 748c-48 0 -80 32 -80 75s33 76 82 76c48 0 80 -31 80 -73c0 -45 -33 -78 -82 -78zM503 748c-48 0 -80 32 -80 75s33 76 82 76c48 0 80 -31 80 -73c0 -45 -33 -78 -82 -78zM292 -10
c-197 0 -260 128 -234 335l48 385h181l-49 -404c-10 -82 -1 -147 71 -147c54 0 95 32 108 140l51 411h180l-51 -417c-28 -227 -131 -303 -305 -303z" />
    <glyph glyph-name="uni01DB" unicode="&#x1db;" horiz-adv-x="640" 
d="M337 905l-126 135h123l86 -135h-83zM275 748c-48 0 -80 32 -80 75s33 76 82 76c48 0 80 -31 80 -73c0 -45 -33 -78 -82 -78zM503 748c-48 0 -80 32 -80 75s33 76 82 76c48 0 80 -31 80 -73c0 -45 -33 -78 -82 -78zM292 -10c-197 0 -260 128 -234 335l48 385h181l-49 -404
c-10 -82 -1 -147 71 -147c54 0 95 32 108 140l51 411h180l-51 -417c-28 -227 -131 -303 -305 -303z" />
    <glyph glyph-name="uni1E30" unicode="&#x1e30;" horiz-adv-x="615" 
d="M539 897l-131 -143h-149l115 142zM668 710l-249 -320l170 -390h-206l-104 261l-49 -59l-25 -202h-179l87 710h180l-32 -265l3 -1l190 266h214z" />
    <glyph glyph-name="Q.alt" horiz-adv-x="727" 
d="M711 420c0 -143 -48 -270 -140 -348l103 -102l-119 -131l-153 157c-22 -4 -45 -6 -70 -6c-175 0 -290 110 -290 303c0 227 147 427 379 427c173 0 290 -110 290 -300zM230 306c0 -101 53 -146 116 -146c105 0 177 106 177 248c0 100 -53 143 -119 143
c-98 0 -174 -117 -174 -245z" />
    <glyph glyph-name="a" unicode="a" horiz-adv-x="548" 
d="M176 -10c-100 0 -155 87 -155 201c0 185 107 309 226 309c52 0 86 -17 109 -42h3l4 32h171l-60 -490h-171l8 63l-3 1c-32 -45 -76 -74 -132 -74zM237 141c44 0 93 56 110 166l2 11c-19 21 -39 31 -67 31c-56 0 -90 -80 -90 -140c0 -41 19 -68 45 -68z" />
    <glyph glyph-name="aacute" unicode="&#xe1;" horiz-adv-x="548" 
d="M228 557l116 151l168 1l-130 -152h-154zM176 -10c-100 0 -155 87 -155 201c0 185 107 309 226 309c52 0 86 -17 109 -42h3l4 32h171l-60 -490h-171l8 63l-3 1c-32 -45 -76 -74 -132 -74zM237 141c44 0 93 56 110 166l2 11c-19 21 -39 31 -67 31c-56 0 -90 -80 -90 -140
c0 -41 19 -68 45 -68z" />
    <glyph glyph-name="abreve" unicode="&#x103;" horiz-adv-x="548" 
d="M310 534c-93 0 -146 59 -140 161h119c-3 -22 9 -41 34 -41c28 0 49 20 56 41h120c-17 -92 -81 -161 -189 -161zM176 -10c-100 0 -155 87 -155 201c0 185 107 309 226 309c52 0 86 -17 109 -42h3l4 32h171l-60 -490h-171l8 63l-3 1c-32 -45 -76 -74 -132 -74zM237 141
c44 0 93 56 110 166l2 11c-19 21 -39 31 -67 31c-56 0 -90 -80 -90 -140c0 -41 19 -68 45 -68z" />
    <glyph glyph-name="uni1EAF" unicode="&#x1eaf;" horiz-adv-x="548" 
d="M270 717l104 150l148 1l-135 -151h-117zM309 534c-93 0 -146 59 -140 161h119c-3 -22 9 -41 34 -41c28 0 49 20 56 41h120c-17 -92 -81 -161 -189 -161zM176 -10c-100 0 -155 87 -155 201c0 185 107 309 226 309c52 0 86 -17 109 -42h3l4 32h171l-60 -490h-171l8 63l-3 1
c-32 -45 -76 -74 -132 -74zM237 141c44 0 93 56 110 166l2 11c-19 21 -39 31 -67 31c-56 0 -90 -80 -90 -140c0 -41 19 -68 45 -68z" />
    <glyph glyph-name="uni1EB7" unicode="&#x1eb7;" horiz-adv-x="548" 
d="M310 534c-93 0 -146 59 -140 161h119c-3 -22 9 -41 34 -41c28 0 49 20 56 41h120c-17 -92 -81 -161 -189 -161zM176 -10c-100 0 -155 87 -155 201c0 185 107 309 226 309c52 0 86 -17 109 -42h3l4 32h171l-60 -490h-171l8 63l-3 1c-32 -45 -76 -74 -132 -74zM237 141
c44 0 93 56 110 166l2 11c-19 21 -39 31 -67 31c-56 0 -90 -80 -90 -140c0 -41 19 -68 45 -68zM228 -50c60 0 100 -40 100 -94s-41 -95 -103 -95c-60 0 -99 39 -99 92c0 56 41 97 102 97z" />
    <glyph glyph-name="uni1EB1" unicode="&#x1eb1;" horiz-adv-x="548" 
d="M281 717l-85 153l148 -1l45 -152h-108zM310 534c-93 0 -146 59 -140 161h119c-3 -22 9 -41 34 -41c28 0 49 20 56 41h120c-17 -92 -81 -161 -189 -161zM176 -10c-100 0 -155 87 -155 201c0 185 107 309 226 309c52 0 86 -17 109 -42h3l4 32h171l-60 -490h-171l8 63l-3 1
c-32 -45 -76 -74 -132 -74zM237 141c44 0 93 56 110 166l2 11c-19 21 -39 31 -67 31c-56 0 -90 -80 -90 -140c0 -41 19 -68 45 -68z" />
    <glyph glyph-name="uni1EB3" unicode="&#x1eb3;" horiz-adv-x="548" 
d="M375 694l-77 1c22 17 44 40 47 64c2 13 -4 22 -21 22c-15 0 -35 -7 -49 -16l-17 60c28 25 80 49 125 49c53 0 83 -23 83 -63c0 -45 -34 -90 -91 -117zM311 532c-95 0 -149 56 -143 154h121c-3 -21 9 -39 35 -39c28 0 50 19 57 39h122c-17 -88 -82 -154 -192 -154z
M176 -10c-100 0 -155 87 -155 201c0 185 107 309 226 309c52 0 86 -17 109 -42h3l4 32h171l-60 -490h-171l8 63l-3 1c-32 -45 -76 -74 -132 -74zM237 141c44 0 93 56 110 166l2 11c-19 21 -39 31 -67 31c-56 0 -90 -80 -90 -140c0 -41 19 -68 45 -68z" />
    <glyph glyph-name="uni1EB5" unicode="&#x1eb5;" horiz-adv-x="548" 
d="M407 720c-32 0 -49 16 -65 27c-12 9 -23 15 -38 15c-23 0 -42 -21 -55 -43l-88 39c28 57 73 108 129 108c30 0 50 -10 67 -20c17 -11 31 -23 46 -23c25 0 40 23 53 48l87 -37c-28 -59 -75 -114 -136 -114zM309 534c-93 0 -146 59 -140 161h119c-3 -22 9 -41 34 -41
c28 0 49 20 56 41h120c-17 -92 -81 -161 -189 -161zM176 -10c-100 0 -155 87 -155 201c0 185 107 309 226 309c52 0 86 -17 109 -42h3l4 32h171l-60 -490h-171l8 63l-3 1c-32 -45 -76 -74 -132 -74zM237 141c44 0 93 56 110 166l2 11c-19 21 -39 31 -67 31
c-56 0 -90 -80 -90 -140c0 -41 19 -68 45 -68z" />
    <glyph glyph-name="uni01CE" unicode="&#x1ce;" horiz-adv-x="548" 
d="M233 544l-67 151h138l25 -69h1l41 69h135l-101 -151h-172zM176 -10c-100 0 -155 87 -155 201c0 185 107 309 226 309c52 0 86 -17 109 -42h3l4 32h171l-60 -490h-171l8 63l-3 1c-32 -45 -76 -74 -132 -74zM237 141c44 0 93 56 110 166l2 11c-19 21 -39 31 -67 31
c-56 0 -90 -80 -90 -140c0 -41 19 -68 45 -68z" />
    <glyph glyph-name="acircumflex" unicode="&#xe2;" horiz-adv-x="548" 
d="M145 554l113 155h145l82 -155h-141l-18 73h-1l-35 -73h-145zM176 -10c-100 0 -155 87 -155 201c0 185 107 309 226 309c52 0 86 -17 109 -42h3l4 32h171l-60 -490h-171l8 63l-3 1c-32 -45 -76 -74 -132 -74zM237 141c44 0 93 56 110 166l2 11c-19 21 -39 31 -67 31
c-56 0 -90 -80 -90 -140c0 -41 19 -68 45 -68z" />
    <glyph glyph-name="uni1EA5" unicode="&#x1ea5;" horiz-adv-x="548" 
d="M462 655l92 152l149 1l-133 -153h-108zM146 554l113 155h145l82 -155h-141l-18 73h-1l-35 -73h-145zM176 -10c-100 0 -155 87 -155 201c0 185 107 309 226 309c52 0 86 -17 109 -42h3l4 32h171l-60 -490h-171l8 63l-3 1c-32 -45 -76 -74 -132 -74zM237 141
c44 0 93 56 110 166l2 11c-19 21 -39 31 -67 31c-56 0 -90 -80 -90 -140c0 -41 19 -68 45 -68z" />
    <glyph glyph-name="uni1EAD" unicode="&#x1ead;" horiz-adv-x="548" 
d="M145 554l113 155h145l82 -155h-141l-18 73h-1l-35 -73h-145zM176 -10c-100 0 -155 87 -155 201c0 185 107 309 226 309c52 0 86 -17 109 -42h3l4 32h171l-60 -490h-171l8 63l-3 1c-32 -45 -76 -74 -132 -74zM237 141c44 0 93 56 110 166l2 11c-19 21 -39 31 -67 31
c-56 0 -90 -80 -90 -140c0 -41 19 -68 45 -68zM228 -50c60 0 100 -40 100 -94s-41 -95 -103 -95c-60 0 -99 39 -99 92c0 56 41 97 102 97z" />
    <glyph glyph-name="uni1EA7" unicode="&#x1ea7;" horiz-adv-x="548" 
d="M479 655l-85 153l148 -1l45 -152h-108zM147 554l113 155h145l82 -155h-141l-18 73h-1l-35 -73h-145zM176 -10c-100 0 -155 87 -155 201c0 185 107 309 226 309c52 0 86 -17 109 -42h3l4 32h171l-60 -490h-171l8 63l-3 1c-32 -45 -76 -74 -132 -74zM237 141
c44 0 93 56 110 166l2 11c-19 21 -39 31 -67 31c-56 0 -90 -80 -90 -140c0 -41 19 -68 45 -68z" />
    <glyph glyph-name="uni1EA9" unicode="&#x1ea9;" horiz-adv-x="548" 
d="M533 634l-77 1c22 17 44 40 47 64c2 13 -4 22 -21 22c-15 0 -35 -7 -49 -16l-17 60c28 25 80 49 125 49c53 0 83 -23 83 -63c0 -45 -34 -90 -91 -117zM145 554l113 155h145l82 -155h-141l-18 73h-1l-35 -73h-145zM176 -10c-100 0 -155 87 -155 201c0 185 107 309 226 309
c52 0 86 -17 109 -42h3l4 32h171l-60 -490h-171l8 63l-3 1c-32 -45 -76 -74 -132 -74zM237 141c44 0 93 56 110 166l2 11c-19 21 -39 31 -67 31c-56 0 -90 -80 -90 -140c0 -41 19 -68 45 -68z" />
    <glyph glyph-name="uni1EAB" unicode="&#x1eab;" horiz-adv-x="548" 
d="M405 723c-32 0 -49 16 -65 27c-12 9 -23 15 -38 15c-23 0 -42 -21 -55 -43l-88 39c28 57 73 108 129 108c30 0 50 -10 67 -20c17 -11 31 -23 46 -23c25 0 40 23 53 48l87 -37c-28 -59 -75 -114 -136 -114zM146 554l113 155h145l82 -155h-141l-18 73h-1l-35 -73h-145z
M176 -10c-100 0 -155 87 -155 201c0 185 107 309 226 309c52 0 86 -17 109 -42h3l4 32h171l-60 -490h-171l8 63l-3 1c-32 -45 -76 -74 -132 -74zM237 141c44 0 93 56 110 166l2 11c-19 21 -39 31 -67 31c-56 0 -90 -80 -90 -140c0 -41 19 -68 45 -68z" />
    <glyph glyph-name="adieresis" unicode="&#xe4;" horiz-adv-x="548" 
d="M210 546c-60 0 -99 40 -99 94s41 95 102 95c60 0 99 -39 99 -92c0 -56 -41 -97 -102 -97zM440 546c-59 0 -99 40 -99 94s41 95 103 95c59 0 99 -39 99 -92c0 -56 -41 -97 -103 -97zM176 -10c-100 0 -155 87 -155 201c0 185 107 309 226 309c52 0 86 -17 109 -42h3l4 32
h171l-60 -490h-171l8 63l-3 1c-32 -45 -76 -74 -132 -74zM237 141c44 0 93 56 110 166l2 11c-19 21 -39 31 -67 31c-56 0 -90 -80 -90 -140c0 -41 19 -68 45 -68z" />
    <glyph glyph-name="uni1EA1" unicode="&#x1ea1;" horiz-adv-x="548" 
d="M176 -10c-100 0 -155 87 -155 201c0 185 107 309 226 309c52 0 86 -17 109 -42h3l4 32h171l-60 -490h-171l8 63l-3 1c-32 -45 -76 -74 -132 -74zM237 141c44 0 93 56 110 166l2 11c-19 21 -39 31 -67 31c-56 0 -90 -80 -90 -140c0 -41 19 -68 45 -68zM228 -50
c60 0 100 -40 100 -94s-41 -95 -103 -95c-60 0 -99 39 -99 92c0 56 41 97 102 97z" />
    <glyph glyph-name="agrave" unicode="&#xe0;" horiz-adv-x="548" 
d="M266 558l-92 152l164 -1l79 -151h-151zM176 -10c-100 0 -155 87 -155 201c0 185 107 309 226 309c52 0 86 -17 109 -42h3l4 32h171l-60 -490h-171l8 63l-3 1c-32 -45 -76 -74 -132 -74zM237 141c44 0 93 56 110 166l2 11c-19 21 -39 31 -67 31c-56 0 -90 -80 -90 -140
c0 -41 19 -68 45 -68z" />
    <glyph glyph-name="uni1EA3" unicode="&#x1ea3;" horiz-adv-x="548" 
d="M344 541l-85 1c24 19 48 44 52 71c2 14 -5 24 -23 24c-17 0 -40 -8 -55 -18l-19 67c31 28 89 55 139 55c59 0 92 -26 92 -71c0 -50 -37 -100 -101 -129zM176 -10c-100 0 -155 87 -155 201c0 185 107 309 226 309c52 0 86 -17 109 -42h3l4 32h171l-60 -490h-171l8 63l-3 1
c-32 -45 -76 -74 -132 -74zM237 141c44 0 93 56 110 166l2 11c-19 21 -39 31 -67 31c-56 0 -90 -80 -90 -140c0 -41 19 -68 45 -68z" />
    <glyph glyph-name="amacron" unicode="&#x101;" horiz-adv-x="548" 
d="M174 579l16 127h291l-16 -127h-291zM176 -10c-100 0 -155 87 -155 201c0 185 107 309 226 309c52 0 86 -17 109 -42h3l4 32h171l-60 -490h-171l8 63l-3 1c-32 -45 -76 -74 -132 -74zM237 141c44 0 93 56 110 166l2 11c-19 21 -39 31 -67 31c-56 0 -90 -80 -90 -140
c0 -41 19 -68 45 -68z" />
    <glyph glyph-name="aogonek" unicode="&#x105;" horiz-adv-x="548" 
d="M363 490h171l-60 -490h-15c-52 -1 -99 -45 -99 -85c0 -16 8 -21 23 -21c11 0 23 3 30 6l2 -82c-21 -7 -45 -10 -77 -10c-65 0 -100 28 -100 80c0 43 27 87 65 116l8 59l-3 1c-32 -45 -76 -74 -132 -74c-100 0 -155 87 -155 201c0 185 107 309 226 309
c52 0 86 -17 109 -42h3zM237 141c44 0 93 56 110 166l2 11c-19 21 -39 31 -67 31c-56 0 -90 -80 -90 -140c0 -41 19 -68 45 -68z" />
    <glyph glyph-name="aring" unicode="&#xe5;" horiz-adv-x="548" 
d="M327 537c-60 0 -105 46 -105 105c0 61 46 107 108 107c60 0 105 -45 105 -103c0 -62 -46 -109 -108 -109zM329 608c20 0 35 15 35 36c0 19 -15 34 -34 34c-21 0 -37 -15 -37 -35s15 -35 36 -35zM176 -10c-100 0 -155 87 -155 201c0 185 107 309 226 309
c52 0 86 -17 109 -42h3l4 32h171l-60 -490h-171l8 63l-3 1c-32 -45 -76 -74 -132 -74zM237 141c44 0 93 56 110 166l2 11c-19 21 -39 31 -67 31c-56 0 -90 -80 -90 -140c0 -41 19 -68 45 -68z" />
    <glyph glyph-name="aringacute" unicode="&#x1fb;" horiz-adv-x="548" 
d="M327 537c-60 0 -105 46 -105 105c0 61 46 107 108 107c25 0 48 -8 65 -21l64 50h166l-191 -150c-8 -53 -51 -91 -107 -91zM330 678c-21 0 -37 -15 -37 -35s15 -35 36 -35c20 0 35 15 35 36c0 19 -15 34 -34 34zM359 458l4 32h171l-60 -490h-171l8 63l-3 1
c-32 -45 -76 -74 -132 -74c-100 0 -155 87 -155 201c0 185 107 309 226 309c52 0 86 -17 109 -42h3zM347 307l2 11c-19 21 -39 31 -67 31c-56 0 -90 -80 -90 -140c0 -41 19 -68 45 -68c44 0 93 56 110 166z" />
    <glyph glyph-name="atilde" unicode="&#xe3;" horiz-adv-x="548" 
d="M401 548c-38 0 -60 17 -77 29c-16 12 -29 16 -42 16c-24 0 -44 -22 -58 -49l-92 45c30 73 77 127 135 127c41 0 62 -16 76 -26c18 -12 28 -17 40 -17c25 0 46 22 60 48l91 -38c-29 -77 -75 -135 -133 -135zM176 -10c-100 0 -155 87 -155 201c0 185 107 309 226 309
c52 0 86 -17 109 -42h3l4 32h171l-60 -490h-171l8 63l-3 1c-32 -45 -76 -74 -132 -74zM237 141c44 0 93 56 110 166l2 11c-19 21 -39 31 -67 31c-56 0 -90 -80 -90 -140c0 -41 19 -68 45 -68z" />
    <glyph glyph-name="ae" unicode="&#xe6;" horiz-adv-x="684" 
d="M469 126c19 0 47 10 72 46l123 -68c-49 -77 -120 -114 -203 -114c-78 0 -129 28 -154 78c-34 -50 -80 -79 -138 -79c-90 0 -160 62 -160 185c0 183 98 319 274 319c41 0 82 -7 116 -21c32 18 71 28 116 28c81 0 172 -38 172 -139c0 -107 -136 -170 -277 -185
c10 -37 38 -50 59 -50zM501 362c-36 0 -70 -38 -86 -94c62 11 112 31 112 72c0 12 -9 22 -26 22zM209 132c36 0 61 93 71 150c5 27 12 53 23 77c-71 -5 -124 -73 -124 -171c0 -37 13 -56 30 -56z" />
    <glyph glyph-name="aeacute" unicode="&#x1fd;" horiz-adv-x="684" 
d="M613 709l-130 -152h-154l116 151zM469 126c19 0 47 10 72 46l123 -68c-49 -77 -120 -114 -203 -114c-78 0 -129 28 -154 78c-34 -50 -80 -79 -138 -79c-90 0 -160 62 -160 185c0 183 98 319 274 319c41 0 82 -7 116 -21c32 18 71 28 116 28c81 0 172 -38 172 -139
c0 -107 -136 -170 -277 -185c10 -37 38 -50 59 -50zM501 362c-36 0 -70 -38 -86 -94c62 11 112 31 112 72c0 12 -9 22 -26 22zM209 132c36 0 61 93 71 150c5 27 12 53 23 77c-71 -5 -124 -73 -124 -171c0 -37 13 -56 30 -56z" />
    <glyph glyph-name="b" unicode="b" horiz-adv-x="551" 
d="M239 -11c-89 0 -157 18 -218 49l86 698h170l-37 -310l2 -1c32 45 77 75 133 75c100 0 155 -87 155 -202c0 -194 -98 -309 -291 -309zM240 141c78 0 119 65 119 139c0 42 -20 69 -46 69c-45 0 -96 -62 -112 -182l-3 -22c15 -2 30 -4 42 -4z" />
    <glyph glyph-name="c" unicode="c" horiz-adv-x="474" 
d="M231 -10c-130 0 -209 77 -209 216c0 146 88 294 261 294c91 0 150 -34 192 -95l-129 -97c-14 31 -34 42 -56 42c-57 0 -97 -68 -97 -140c0 -37 15 -69 52 -69c26 0 47 11 72 45l132 -80c-50 -77 -121 -116 -218 -116z" />
    <glyph glyph-name="cacute" unicode="&#x107;" horiz-adv-x="474" 
d="M223 557l116 151l168 1l-130 -152h-154zM231 -10c-130 0 -209 77 -209 216c0 146 88 294 261 294c91 0 150 -34 192 -95l-129 -97c-14 31 -34 42 -56 42c-57 0 -97 -68 -97 -140c0 -37 15 -69 52 -69c26 0 47 11 72 45l132 -80c-50 -77 -121 -116 -218 -116z" />
    <glyph glyph-name="ccaron" unicode="&#x10d;" horiz-adv-x="474" 
d="M222 544l-67 151h138l25 -69h1l41 69h135l-101 -151h-172zM231 -10c-130 0 -209 77 -209 216c0 146 88 294 261 294c91 0 150 -34 192 -95l-129 -97c-14 31 -34 42 -56 42c-57 0 -97 -68 -97 -140c0 -37 15 -69 52 -69c26 0 47 11 72 45l132 -80
c-50 -77 -121 -116 -218 -116z" />
    <glyph glyph-name="ccedilla" unicode="&#xe7;" horiz-adv-x="474" 
d="M245 141c26 0 47 11 72 45l132 -80c-47 -72 -112 -111 -200 -116l-15 -19l1 -1c47 -2 75 -23 75 -67c0 -66 -51 -96 -131 -96c-29 0 -45 3 -58 6l2 65c11 -4 29 -6 41 -6c31 0 49 12 49 31c0 16 -20 23 -63 23l1 39l20 31c-94 21 -149 94 -149 210c0 146 88 294 261 294
c91 0 150 -34 192 -95l-129 -97c-14 31 -34 42 -56 42c-57 0 -97 -68 -97 -140c0 -37 15 -69 52 -69z" />
    <glyph glyph-name="ccircumflex" unicode="&#x109;" horiz-adv-x="474" 
d="M134 554l113 155h145l82 -155h-141l-18 73h-1l-35 -73h-145zM231 -10c-130 0 -209 77 -209 216c0 146 88 294 261 294c91 0 150 -34 192 -95l-129 -97c-14 31 -34 42 -56 42c-57 0 -97 -68 -97 -140c0 -37 15 -69 52 -69c26 0 47 11 72 45l132 -80
c-50 -77 -121 -116 -218 -116z" />
    <glyph glyph-name="cdotaccent" unicode="&#x10b;" horiz-adv-x="474" 
d="M311 546c-60 0 -100 40 -100 94s41 95 103 95c60 0 99 -39 99 -92c0 -56 -41 -97 -102 -97zM231 -10c-130 0 -209 77 -209 216c0 146 88 294 261 294c91 0 150 -34 192 -95l-129 -97c-14 31 -34 42 -56 42c-57 0 -97 -68 -97 -140c0 -37 15 -69 52 -69c26 0 47 11 72 45
l132 -80c-50 -77 -121 -116 -218 -116z" />
    <glyph glyph-name="d" unicode="d" horiz-adv-x="536" 
d="M176 -10c-100 0 -155 87 -155 201c0 185 107 309 226 309c49 0 85 -17 109 -42h3l34 278h171l-90 -736h-171l8 63l-3 1c-32 -45 -76 -74 -132 -74zM237 141c44 0 93 56 110 166l2 11c-19 21 -39 31 -67 31c-56 0 -90 -80 -90 -140c0 -41 19 -68 45 -68z" />
    <glyph glyph-name="eth" unicode="&#xf0;" horiz-adv-x="525" 
d="M424 584c11 -14 21 -29 30 -45c35 -61 54 -133 53 -217c-2 -184 -80 -332 -270 -332c-140 0 -215 89 -215 220c0 152 108 267 227 267c25 0 47 -5 66 -14l-3 7c-32 68 -91 108 -175 161l68 116c50 -23 95 -49 134 -80l87 107l90 -81zM245 140c53 0 90 67 92 176
c-16 12 -34 19 -54 19c-56 0 -90 -73 -90 -122c0 -58 31 -73 52 -73z" />
    <glyph glyph-name="dcaron" unicode="&#x10f;" horiz-adv-x="594" 
d="M586 574l59 223h156l-99 -223h-116zM176 -10c-100 0 -155 87 -155 201c0 185 107 309 226 309c49 0 85 -17 109 -42h3l34 278h171l-90 -736h-171l8 63l-3 1c-32 -45 -76 -74 -132 -74zM237 141c44 0 93 56 110 166l2 11c-19 21 -39 31 -67 31c-56 0 -90 -80 -90 -140
c0 -41 19 -68 45 -68z" />
    <glyph glyph-name="dcroat" unicode="&#x111;" horiz-adv-x="533" 
d="M588 637l-12 -98h-36l-66 -539h-171l8 63l-3 1c-32 -45 -76 -74 -132 -74c-100 0 -155 87 -155 201c0 185 107 309 226 309c49 0 85 -17 109 -42h3l10 81h-151l12 98h151l12 99h171l-12 -99h36zM347 307l2 11c-19 21 -39 31 -67 31c-56 0 -90 -80 -90 -140
c0 -41 19 -68 45 -68c44 0 93 56 110 166z" />
    <glyph glyph-name="uni1E0D" unicode="&#x1e0d;" horiz-adv-x="536" 
d="M176 -10c-100 0 -155 87 -155 201c0 185 107 309 226 309c49 0 85 -17 109 -42h3l34 278h171l-90 -736h-171l8 63l-3 1c-32 -45 -76 -74 -132 -74zM237 141c44 0 93 56 110 166l2 11c-19 21 -39 31 -67 31c-56 0 -90 -80 -90 -140c0 -41 19 -68 45 -68zM228 -50
c60 0 100 -40 100 -94s-41 -95 -103 -95c-60 0 -99 39 -99 92c0 56 41 97 102 97z" />
    <glyph glyph-name="uni1E0F" unicode="&#x1e0f;" horiz-adv-x="536" 
d="M176 -10c-100 0 -155 87 -155 201c0 185 107 309 226 309c49 0 85 -17 109 -42h3l34 278h171l-90 -736h-171l8 63l-3 1c-32 -45 -76 -74 -132 -74zM237 141c44 0 93 56 110 166l2 11c-19 21 -39 31 -67 31c-56 0 -90 -80 -90 -140c0 -41 19 -68 45 -68zM71 -215l16 127
h291l-16 -127h-291z" />
    <glyph glyph-name="e" unicode="e" horiz-adv-x="475" 
d="M467 363c-3 -124 -141 -171 -282 -185c9 -38 37 -52 60 -52c26 0 54 12 78 47l124 -67c-49 -78 -121 -116 -218 -116c-124 0 -209 79 -208 206c0 169 109 304 274 304c78 0 174 -42 172 -137zM307 334c1 18 -10 28 -28 28c-39 0 -74 -37 -89 -93c62 7 115 23 117 65z" />
    <glyph glyph-name="eacute" unicode="&#xe9;" horiz-adv-x="475" 
d="M500 709l-130 -152h-154l116 151zM295 500c78 0 174 -42 172 -137c-3 -124 -141 -171 -282 -185c9 -38 37 -52 60 -52c26 0 54 12 78 47l124 -67c-49 -78 -121 -116 -218 -116c-124 0 -209 79 -208 206c0 169 109 304 274 304zM307 334c1 18 -10 28 -28 28
c-39 0 -74 -37 -89 -93c62 7 115 23 117 65z" />
    <glyph glyph-name="ebreve" unicode="&#x115;" horiz-adv-x="475" 
d="M288 534c-93 0 -146 59 -140 161h119c-3 -22 9 -41 34 -41c28 0 49 20 56 41h120c-17 -92 -81 -161 -189 -161zM295 500c78 0 174 -42 172 -137c-3 -124 -141 -171 -282 -185c9 -38 37 -52 60 -52c26 0 54 12 78 47l124 -67c-49 -78 -121 -116 -218 -116
c-124 0 -209 79 -208 206c0 169 109 304 274 304zM307 334c1 18 -10 28 -28 28c-39 0 -74 -37 -89 -93c62 7 115 23 117 65z" />
    <glyph glyph-name="ecaron" unicode="&#x11b;" horiz-adv-x="475" 
d="M383 544h-172l-67 151h138l25 -69h1l41 69h135zM295 500c78 0 174 -42 172 -137c-3 -124 -141 -171 -282 -185c9 -38 37 -52 60 -52c26 0 54 12 78 47l124 -67c-49 -78 -121 -116 -218 -116c-124 0 -209 79 -208 206c0 169 109 304 274 304zM307 334c1 18 -10 28 -28 28
c-39 0 -74 -37 -89 -93c62 7 115 23 117 65z" />
    <glyph glyph-name="ecircumflex" unicode="&#xea;" horiz-adv-x="475" 
d="M303 627l-35 -73h-145l113 155h145l82 -155h-141l-18 73h-1zM467 363c-3 -124 -141 -171 -282 -185c9 -38 37 -52 60 -52c26 0 54 12 78 47l124 -67c-49 -78 -121 -116 -218 -116c-124 0 -209 79 -208 206c0 169 109 304 274 304c78 0 174 -42 172 -137zM307 334
c1 18 -10 28 -28 28c-39 0 -74 -37 -89 -93c62 7 115 23 117 65z" />
    <glyph glyph-name="uni1EBF" unicode="&#x1ebf;" horiz-adv-x="475" 
d="M532 807l149 1l-133 -153h-108zM304 627l-35 -73h-145l113 155h145l82 -155h-141l-18 73h-1zM295 500c78 0 174 -42 172 -137c-3 -124 -141 -171 -282 -185c9 -38 37 -52 60 -52c26 0 54 12 78 47l124 -67c-49 -78 -121 -116 -218 -116c-124 0 -209 79 -208 206
c0 169 109 304 274 304zM307 334c1 18 -10 28 -28 28c-39 0 -74 -37 -89 -93c62 7 115 23 117 65z" />
    <glyph glyph-name="uni1EC7" unicode="&#x1ec7;" horiz-adv-x="475" 
d="M303 627l-35 -73h-145l113 155h145l82 -155h-141l-18 73h-1zM467 363c-3 -124 -141 -171 -282 -185c9 -38 37 -52 60 -52c26 0 54 12 78 47l124 -67c-49 -78 -121 -116 -218 -116c-124 0 -209 79 -208 206c0 169 109 304 274 304c78 0 174 -42 172 -137zM307 334
c1 18 -10 28 -28 28c-39 0 -74 -37 -89 -93c62 7 115 23 117 65zM206 -50c60 0 100 -40 100 -94s-41 -95 -103 -95c-60 0 -99 39 -99 92c0 56 41 97 102 97z" />
    <glyph glyph-name="uni1EC1" unicode="&#x1ec1;" horiz-adv-x="475" 
d="M565 655h-108l-85 153l148 -1zM305 627l-35 -73h-145l113 155h145l82 -155h-141l-18 73h-1zM295 500c78 0 174 -42 172 -137c-3 -124 -141 -171 -282 -185c9 -38 37 -52 60 -52c26 0 54 12 78 47l124 -67c-49 -78 -121 -116 -218 -116c-124 0 -209 79 -208 206
c0 169 109 304 274 304zM307 334c1 18 -10 28 -28 28c-39 0 -74 -37 -89 -93c62 7 115 23 117 65z" />
    <glyph glyph-name="uni1EC3" unicode="&#x1ec3;" horiz-adv-x="475" 
d="M519 814c53 0 83 -23 83 -63c0 -45 -34 -90 -91 -117l-77 1c22 17 44 40 47 64c2 13 -4 22 -21 22c-15 0 -35 -7 -49 -16l-17 60c28 25 80 49 125 49zM303 627l-35 -73h-145l113 155h145l82 -155h-141l-18 73h-1zM295 500c78 0 174 -42 172 -137
c-3 -124 -141 -171 -282 -185c9 -38 37 -52 60 -52c26 0 54 12 78 47l124 -67c-49 -78 -121 -116 -218 -116c-124 0 -209 79 -208 206c0 169 109 304 274 304zM307 334c1 18 -10 28 -28 28c-39 0 -74 -37 -89 -93c62 7 115 23 117 65z" />
    <glyph glyph-name="uni1EC5" unicode="&#x1ec5;" horiz-adv-x="475" 
d="M432 874l87 -37c-28 -59 -75 -114 -136 -114c-32 0 -49 16 -65 27c-12 9 -23 15 -38 15c-23 0 -42 -21 -55 -43l-88 39c28 57 73 108 129 108c30 0 50 -10 67 -20c17 -11 31 -23 46 -23c25 0 40 23 53 48zM305 627h-1l-35 -73h-145l113 155h145l82 -155h-141zM295 500
c78 0 174 -42 172 -137c-3 -124 -141 -171 -282 -185c9 -38 37 -52 60 -52c26 0 54 12 78 47l124 -67c-49 -78 -121 -116 -218 -116c-124 0 -209 79 -208 206c0 169 109 304 274 304zM307 334c1 18 -10 28 -28 28c-39 0 -74 -37 -89 -93c62 7 115 23 117 65z" />
    <glyph glyph-name="edieresis" unicode="&#xeb;" horiz-adv-x="475" 
d="M188 546c-60 0 -99 40 -99 94s41 95 102 95c60 0 99 -39 99 -92c0 -56 -41 -97 -102 -97zM422 735c59 0 99 -39 99 -92c0 -56 -41 -97 -103 -97c-59 0 -99 40 -99 94s41 95 103 95zM295 500c78 0 174 -42 172 -137c-3 -124 -141 -171 -282 -185c9 -38 37 -52 60 -52
c26 0 54 12 78 47l124 -67c-49 -78 -121 -116 -218 -116c-124 0 -209 79 -208 206c0 169 109 304 274 304zM307 334c1 18 -10 28 -28 28c-39 0 -74 -37 -89 -93c62 7 115 23 117 65z" />
    <glyph glyph-name="edotaccent" unicode="&#x117;" horiz-adv-x="475" 
d="M300 546c-60 0 -100 40 -100 94s41 95 103 95c60 0 99 -39 99 -92c0 -56 -41 -97 -102 -97zM467 363c-3 -124 -141 -171 -282 -185c9 -38 37 -52 60 -52c26 0 54 12 78 47l124 -67c-49 -78 -121 -116 -218 -116c-124 0 -209 79 -208 206c0 169 109 304 274 304
c78 0 174 -42 172 -137zM307 334c1 18 -10 28 -28 28c-39 0 -74 -37 -89 -93c62 7 115 23 117 65z" />
    <glyph glyph-name="uni1EB9" unicode="&#x1eb9;" horiz-adv-x="475" 
d="M467 363c-3 -124 -141 -171 -282 -185c9 -38 37 -52 60 -52c26 0 54 12 78 47l124 -67c-49 -78 -121 -116 -218 -116c-124 0 -209 79 -208 206c0 169 109 304 274 304c78 0 174 -42 172 -137zM307 334c1 18 -10 28 -28 28c-39 0 -74 -37 -89 -93c62 7 115 23 117 65z
M206 -50c60 0 100 -40 100 -94s-41 -95 -103 -95c-60 0 -99 39 -99 92c0 56 41 97 102 97z" />
    <glyph glyph-name="egrave" unicode="&#xe8;" horiz-adv-x="475" 
d="M387 558h-151l-92 152l164 -1zM467 363c-3 -124 -141 -171 -282 -185c9 -38 37 -52 60 -52c26 0 54 12 78 47l124 -67c-49 -78 -121 -116 -218 -116c-124 0 -209 79 -208 206c0 169 109 304 274 304c78 0 174 -42 172 -137zM307 334c1 18 -10 28 -28 28
c-39 0 -74 -37 -89 -93c62 7 115 23 117 65z" />
    <glyph glyph-name="uni1EBB" unicode="&#x1ebb;" horiz-adv-x="475" 
d="M266 637c-17 0 -40 -8 -55 -18l-19 67c31 28 89 55 139 55c59 0 92 -26 92 -71c0 -50 -37 -100 -101 -129l-85 1c24 19 48 44 52 71c2 14 -5 24 -23 24zM467 363c-3 -124 -141 -171 -282 -185c9 -38 37 -52 60 -52c26 0 54 12 78 47l124 -67c-49 -78 -121 -116 -218 -116
c-124 0 -209 79 -208 206c0 169 109 304 274 304c78 0 174 -42 172 -137zM307 334c1 18 -10 28 -28 28c-39 0 -74 -37 -89 -93c62 7 115 23 117 65z" />
    <glyph glyph-name="emacron" unicode="&#x113;" horiz-adv-x="475" 
d="M459 706l-16 -127h-291l16 127h291zM467 363c-3 -124 -141 -171 -282 -185c9 -38 37 -52 60 -52c26 0 54 12 78 47l124 -67c-49 -78 -121 -116 -218 -116c-124 0 -209 79 -208 206c0 169 109 304 274 304c78 0 174 -42 172 -137zM307 334c1 18 -10 28 -28 28
c-39 0 -74 -37 -89 -93c62 7 115 23 117 65z" />
    <glyph glyph-name="eogonek" unicode="&#x119;" horiz-adv-x="475" 
d="M467 363c-3 -124 -141 -171 -282 -185c9 -38 37 -52 60 -52c26 0 54 12 78 47l124 -67c-33 -53 -76 -87 -131 -104c-46 -18 -90 -50 -90 -87c0 -13 8 -21 24 -21c10 0 22 3 29 6l2 -82c-21 -7 -45 -10 -76 -10c-65 0 -101 28 -101 80c0 39 23 79 56 108v3
c-86 25 -140 95 -139 197c0 169 109 304 274 304c78 0 174 -42 172 -137zM307 334c1 18 -10 28 -28 28c-39 0 -74 -37 -89 -93c62 7 115 23 117 65z" />
    <glyph glyph-name="uni1EBD" unicode="&#x1ebd;" horiz-adv-x="475" 
d="M260 593c-24 0 -44 -22 -58 -49l-92 45c30 73 77 127 135 127c41 0 62 -16 76 -26c18 -12 28 -17 40 -17c25 0 46 22 60 48l91 -38c-29 -77 -75 -135 -133 -135c-38 0 -60 17 -77 29c-16 12 -29 16 -42 16zM295 500c78 0 174 -42 172 -137c-3 -124 -141 -171 -282 -185
c9 -38 37 -52 60 -52c26 0 54 12 78 47l124 -67c-49 -78 -121 -116 -218 -116c-124 0 -209 79 -208 206c0 169 109 304 274 304zM307 334c1 18 -10 28 -28 28c-39 0 -74 -37 -89 -93c62 7 115 23 117 65z" />
    <glyph glyph-name="uni0259" unicode="&#x259;" horiz-adv-x="470" 
d="M241 500c131 0 211 -78 211 -210c0 -164 -101 -300 -279 -300c-85 0 -168 43 -168 138c0 116 137 172 281 192c-9 33 -33 45 -62 45c-21 0 -52 -10 -85 -39l-87 105c40 36 115 69 189 69zM192 127c43 0 77 39 91 97c-65 -11 -117 -32 -117 -73c0 -13 9 -24 26 -24z" />
    <glyph glyph-name="f" unicode="f" horiz-adv-x="336" 
d="M27 0l43 354h-39l17 136h39l9 72c14 120 73 184 179 184c45 0 88 -15 119 -40l-42 -119c-13 9 -26 15 -45 15c-26 0 -37 -13 -45 -77l-4 -35h68l-17 -136h-68l-43 -354h-171z" />
    <glyph glyph-name="g" unicode="g" horiz-adv-x="543" 
d="M359 490h170l-52 -426c-27 -218 -157 -272 -288 -272c-64 0 -125 12 -184 48l52 128c40 -24 82 -35 121 -35c66 0 111 21 130 142l-3 1c-31 -41 -74 -71 -129 -71c-100 0 -155 87 -155 186c0 185 107 309 226 309c50 0 83 -15 106 -39l3 1zM237 156c45 0 91 60 107 159
l1 7c-18 18 -36 27 -63 27c-56 0 -90 -80 -90 -135c0 -40 19 -58 45 -58z" />
    <glyph glyph-name="gbreve" unicode="&#x11f;" horiz-adv-x="543" 
d="M312 534c-93 0 -146 59 -140 161h119c-3 -22 9 -41 34 -41c28 0 49 20 56 41h120c-17 -92 -81 -161 -189 -161zM359 490h170l-52 -426c-27 -218 -157 -272 -288 -272c-64 0 -125 12 -184 48l52 128c40 -24 82 -35 121 -35c66 0 111 21 130 142l-3 1
c-31 -41 -74 -71 -129 -71c-100 0 -155 87 -155 186c0 185 107 309 226 309c50 0 83 -15 106 -39l3 1zM237 156c45 0 91 60 107 159l1 7c-18 18 -36 27 -63 27c-56 0 -90 -80 -90 -135c0 -40 19 -58 45 -58z" />
    <glyph glyph-name="gcaron" unicode="&#x1e7;" horiz-adv-x="543" 
d="M407 544h-172l-67 151h138l25 -69h1l41 69h135zM359 490h170l-52 -426c-27 -218 -157 -272 -288 -272c-64 0 -125 12 -184 48l52 128c40 -24 82 -35 121 -35c66 0 111 21 130 142l-3 1c-31 -41 -74 -71 -129 -71c-100 0 -155 87 -155 186c0 185 107 309 226 309
c50 0 83 -15 106 -39l3 1zM237 156c45 0 91 60 107 159l1 7c-18 18 -36 27 -63 27c-56 0 -90 -80 -90 -135c0 -40 19 -58 45 -58z" />
    <glyph glyph-name="gcircumflex" unicode="&#x11d;" horiz-adv-x="543" 
d="M327 627l-35 -73h-145l113 155h145l82 -155h-141l-18 73h-1zM359 490h170l-52 -426c-27 -218 -157 -272 -288 -272c-64 0 -125 12 -184 48l52 128c40 -24 82 -35 121 -35c66 0 111 21 130 142l-3 1c-31 -41 -74 -71 -129 -71c-100 0 -155 87 -155 186
c0 185 107 309 226 309c50 0 83 -15 106 -39l3 1zM237 156c45 0 91 60 107 159l1 7c-18 18 -36 27 -63 27c-56 0 -90 -80 -90 -135c0 -40 19 -58 45 -58z" />
    <glyph glyph-name="gcommaaccent" unicode="&#x123;" horiz-adv-x="543" 
d="M392 569h-132c-1 8 -2 16 -2 24c0 96 67 145 171 145l15 -95c-39 -5 -55 -18 -55 -49c0 -7 1 -15 3 -25zM359 490h170l-52 -426c-27 -218 -157 -272 -288 -272c-64 0 -125 12 -184 48l52 128c40 -24 82 -35 121 -35c66 0 111 21 130 142l-3 1c-31 -41 -74 -71 -129 -71
c-100 0 -155 87 -155 186c0 185 107 309 226 309c50 0 83 -15 106 -39l3 1zM237 156c45 0 91 60 107 159l1 7c-18 18 -36 27 -63 27c-56 0 -90 -80 -90 -135c0 -40 19 -58 45 -58z" />
    <glyph glyph-name="gdotaccent" unicode="&#x121;" horiz-adv-x="543" 
d="M324 546c-60 0 -100 40 -100 94s41 95 103 95c60 0 99 -39 99 -92c0 -56 -41 -97 -102 -97zM359 490h170l-52 -426c-27 -218 -157 -272 -288 -272c-64 0 -125 12 -184 48l52 128c40 -24 82 -35 121 -35c66 0 111 21 130 142l-3 1c-31 -41 -74 -71 -129 -71
c-100 0 -155 87 -155 186c0 185 107 309 226 309c50 0 83 -15 106 -39l3 1zM237 156c45 0 91 60 107 159l1 7c-18 18 -36 27 -63 27c-56 0 -90 -80 -90 -135c0 -40 19 -58 45 -58z" />
    <glyph glyph-name="uni1E21" unicode="&#x1e21;" horiz-adv-x="543" 
d="M483 706l-16 -127h-291l16 127h291zM359 490h170l-52 -426c-27 -218 -157 -272 -288 -272c-64 0 -125 12 -184 48l52 128c40 -24 82 -35 121 -35c66 0 111 21 130 142l-3 1c-31 -41 -74 -71 -129 -71c-100 0 -155 87 -155 186c0 185 107 309 226 309c50 0 83 -15 106 -39
l3 1zM237 156c45 0 91 60 107 159l1 7c-18 18 -36 27 -63 27c-56 0 -90 -80 -90 -135c0 -40 19 -58 45 -58z" />
    <glyph glyph-name="h" unicode="h" horiz-adv-x="542" 
d="M17 0l90 736h169l-38 -306l3 -2c41 46 92 72 156 72c88 0 127 -60 109 -198l-39 -302h-169l34 255c8 66 4 93 -20 93c-39 0 -90 -49 -105 -173l-21 -175h-169z" />
    <glyph glyph-name="hbar" unicode="&#x127;" horiz-adv-x="542" 
d="M397 500c88 0 127 -60 109 -198l-39 -302h-169l34 255c8 66 4 93 -20 93c-39 0 -90 -49 -105 -173l-21 -175h-169l66 539h-41l11 98h42l12 99h169l-12 -99h148l-11 -98h-149l-14 -109l3 -2c41 46 92 72 156 72z" />
    <glyph glyph-name="uni1E2B" unicode="&#x1e2b;" horiz-adv-x="542" 
d="M17 0l90 736h169l-38 -306l3 -2c41 46 92 72 156 72c88 0 127 -60 109 -198l-39 -302h-169l34 255c8 66 4 93 -20 93c-39 0 -90 -49 -105 -173l-21 -175h-169zM216 -237c-93 0 -146 59 -140 161h119c-3 -22 9 -41 34 -41c28 0 49 20 56 41h120
c-17 -92 -81 -161 -189 -161z" />
    <glyph glyph-name="hcircumflex" unicode="&#x125;" horiz-adv-x="542" 
d="M174 767l101 143h172l68 -143h-138l-26 61h-1l-42 -61h-134zM17 0l90 736h169l-38 -306l3 -2c41 46 92 72 156 72c88 0 127 -60 109 -198l-39 -302h-169l34 255c8 66 4 93 -20 93c-39 0 -90 -49 -105 -173l-21 -175h-169z" />
    <glyph glyph-name="uni1E25" unicode="&#x1e25;" horiz-adv-x="542" 
d="M17 0l90 736h169l-38 -306l3 -2c41 46 92 72 156 72c88 0 127 -60 109 -198l-39 -302h-169l34 255c8 66 4 93 -20 93c-39 0 -90 -49 -105 -173l-21 -175h-169zM233 -50c60 0 100 -40 100 -94s-41 -95 -103 -95c-60 0 -99 39 -99 92c0 56 41 97 102 97z" />
    <glyph glyph-name="i" unicode="i" horiz-adv-x="273" 
d="M183 546c-60 0 -100 40 -100 94s41 95 103 95c60 0 99 -39 99 -92c0 -56 -41 -97 -102 -97zM21 0l61 490h169l-60 -490h-170z" />
    <glyph glyph-name="dotlessi" unicode="&#x131;" horiz-adv-x="273" 
d="M21 0l61 490h169l-60 -490h-170z" />
    <glyph glyph-name="iacute" unicode="&#xed;" horiz-adv-x="273" 
d="M97 557l116 151l168 1l-130 -152h-154zM21 0l61 490h169l-60 -490h-170z" />
    <glyph glyph-name="ibreve" unicode="&#x12d;" horiz-adv-x="273" 
d="M184 549c-80 0 -136 59 -132 159h108c-3 -32 8 -52 29 -52c22 0 41 21 46 52h107c-15 -90 -71 -159 -158 -159zM21 0l61 490h169l-60 -490h-170z" />
    <glyph glyph-name="uni01D0" unicode="&#x1d0;" horiz-adv-x="273" 
d="M94 544l-67 151h138l25 -69h1l41 69h135l-101 -151h-172zM21 0l61 490h169l-60 -490h-170z" />
    <glyph glyph-name="icircumflex" unicode="&#xee;" horiz-adv-x="273" 
d="M6 554l113 155h145l82 -155h-141l-18 73h-1l-35 -73h-145zM21 0l61 490h169l-60 -490h-170z" />
    <glyph glyph-name="idieresis" unicode="&#xef;" horiz-adv-x="273" 
d="M90 547c-50 0 -88 41 -88 93c0 53 40 94 91 94s89 -39 89 -91c0 -54 -39 -96 -92 -96zM284 547c-50 0 -88 41 -88 93c0 53 39 94 92 94c50 0 87 -39 87 -91c0 -54 -39 -96 -91 -96zM21 0l61 490h169l-60 -490h-170z" />
    <glyph glyph-name="i.loclTRK" horiz-adv-x="273" 
d="M183 546c-60 0 -100 40 -100 94s41 95 103 95c60 0 99 -39 99 -92c0 -56 -41 -97 -102 -97zM21 0l61 490h169l-60 -490h-170z" />
    <glyph glyph-name="uni1ECB" unicode="&#x1ecb;" horiz-adv-x="273" 
d="M183 546c-60 0 -100 40 -100 94s41 95 103 95c60 0 99 -39 99 -92c0 -56 -41 -97 -102 -97zM21 0l61 490h169l-60 -490h-170zM91 -50c60 0 100 -40 100 -94s-41 -95 -103 -95c-60 0 -99 39 -99 92c0 56 41 97 102 97z" />
    <glyph glyph-name="igrave" unicode="&#xec;" horiz-adv-x="272" 
d="M91 558l-54 152l165 -1l40 -151h-151zM20 0l61 490h169l-60 -490h-170z" />
    <glyph glyph-name="uni1EC9" unicode="&#x1ec9;" horiz-adv-x="273" 
d="M205 541l-85 1c24 19 48 44 52 71c2 14 -5 24 -23 24c-17 0 -40 -8 -55 -18l-19 67c31 28 89 55 139 55c59 0 92 -26 92 -71c0 -50 -37 -100 -101 -129zM21 0l61 490h169l-60 -490h-170z" />
    <glyph glyph-name="ij" unicode="&#x133;" horiz-adv-x="529" 
d="M183 546c-60 0 -100 40 -100 94s41 95 103 95c60 0 99 -39 99 -92c0 -56 -41 -97 -102 -97zM445 546c-60 0 -100 40 -100 94s41 95 103 95c60 0 99 -39 99 -92c0 -56 -41 -97 -102 -97zM21 0l61 490h169l-60 -490h-170zM275 -207c-46 0 -78 8 -111 23l42 130
c11 -9 25 -11 35 -11c29 0 36 24 43 82l58 473h171l-61 -497c-18 -151 -85 -200 -177 -200z" />
    <glyph glyph-name="imacron" unicode="&#x12b;" horiz-adv-x="273" 
d="M35 579l16 127h291l-16 -127h-291zM21 0l61 490h169l-60 -490h-170z" />
    <glyph glyph-name="iogonek" unicode="&#x12f;" horiz-adv-x="273" 
d="M186 735c60 0 99 -39 99 -92c0 -56 -41 -97 -102 -97c-60 0 -100 40 -100 94s41 95 103 95zM21 3l61 487h169l-60 -490h-13c-52 -1 -99 -45 -99 -85c0 -16 8 -21 23 -21c11 0 23 3 30 6l2 -82c-21 -7 -45 -10 -77 -10c-65 0 -100 28 -100 80c0 42 26 86 64 115z" />
    <glyph glyph-name="itilde" unicode="&#x129;" horiz-adv-x="273" 
d="M255 535c-32 0 -49 17 -65 29c-12 9 -23 16 -38 16c-23 0 -42 -22 -55 -46l-88 42c28 59 73 113 129 113c30 0 50 -10 67 -21s31 -24 46 -24c25 0 40 24 53 50l87 -38c-28 -63 -75 -121 -136 -121zM21 0l61 490h169l-60 -490h-170z" />
    <glyph glyph-name="j" unicode="j" horiz-adv-x="256" 
d="M172 546c-60 0 -100 40 -100 94s41 95 103 95c60 0 99 -39 99 -92c0 -56 -41 -97 -102 -97zM2 -207c-46 0 -78 8 -111 23l42 130c11 -9 25 -11 35 -11c29 0 36 24 43 82l58 473h171l-61 -497c-18 -151 -85 -200 -177 -200z" />
    <glyph glyph-name="uni0237" unicode="&#x237;" horiz-adv-x="256" 
d="M2 -207c-46 0 -78 8 -111 23l42 130c11 -9 25 -11 35 -11c29 0 36 24 43 82l58 473h171l-61 -497c-18 -151 -85 -200 -177 -200z" />
    <glyph glyph-name="uni006A0301" horiz-adv-x="256" 
d="M86 558l116 151l168 1l-130 -152h-154zM2 -207c-46 0 -78 8 -111 23l42 130c11 -9 25 -11 35 -11c29 0 36 24 43 82l58 473h171l-61 -497c-18 -151 -85 -200 -177 -200z" />
    <glyph glyph-name="jcircumflex" unicode="&#x135;" horiz-adv-x="256" 
d="M-5 554l113 155h145l82 -155h-141l-18 73h-1l-35 -73h-145zM2 -207c-46 0 -78 8 -111 23l42 130c11 -9 25 -11 35 -11c29 0 36 24 43 82l58 473h171l-61 -497c-18 -151 -85 -200 -177 -200z" />
    <glyph glyph-name="k" unicode="k" horiz-adv-x="512" 
d="M441 -8c-12 -1 -23 -2 -55 -2c-76 0 -119 58 -140 136l-9 32c-13 -7 -25 -13 -38 -18l-16 -140h-166l90 736h170l-53 -429l2 -1c64 50 92 111 107 184h177c-19 -104 -69 -185 -135 -246l8 -30c19 -70 48 -80 93 -81z" />
    <glyph glyph-name="kcommaaccent" unicode="&#x137;" horiz-adv-x="512" 
d="M441 -8c-12 -1 -23 -2 -55 -2c-76 0 -119 58 -140 136l-9 32c-13 -7 -25 -13 -38 -18l-16 -140h-166l90 736h170l-53 -429l2 -1c64 50 92 111 107 184h177c-19 -104 -69 -185 -135 -246l8 -30c19 -70 48 -80 93 -81zM119 -222l-15 95c39 5 55 18 55 49c0 7 -1 15 -3 25
h132c1 -8 2 -16 2 -24c0 -96 -67 -145 -171 -145z" />
    <glyph glyph-name="kgreenlandic" unicode="&#x138;" horiz-adv-x="509" 
d="M438 -8c-12 -1 -23 -2 -55 -2c-76 0 -119 58 -140 136l-6 24c-12 -6 -23 -11 -35 -16l-15 -134h-170l60 490h170l-20 -165l4 -1c59 44 84 97 99 166h177c-19 -105 -69 -185 -135 -247l8 -29c20 -70 48 -80 93 -81z" />
    <glyph glyph-name="l" unicode="l" horiz-adv-x="274" 
d="M21 0l91 736h171l-91 -736h-171z" />
    <glyph glyph-name="lacute" unicode="&#x13a;" horiz-adv-x="274" 
d="M127 767l115 142l165 1l-131 -143h-149zM21 0l91 736h171l-91 -736h-171z" />
    <glyph glyph-name="lcaron" unicode="&#x13e;" horiz-adv-x="318" 
d="M308 574l58 223h157l-100 -223h-115zM21 0l91 736h171l-91 -736h-171z" />
    <glyph glyph-name="lcommaaccent" unicode="&#x13c;" horiz-adv-x="274" 
d="M21 0l91 736h171l-91 -736h-171zM-5 -222l-15 95c39 5 55 18 55 49c0 7 -1 15 -3 25h132c1 -8 2 -16 2 -24c0 -96 -67 -145 -171 -145z" />
    <glyph glyph-name="ldot" unicode="&#x140;" horiz-adv-x="463" 
d="M21 0l91 736h171l-91 -736h-171zM365 182c-60 0 -94 40 -94 94c0 55 36 95 97 95c60 0 94 -39 94 -92c0 -56 -36 -97 -97 -97z" />
    <glyph glyph-name="uni1E37" unicode="&#x1e37;" horiz-adv-x="274" 
d="M21 0l91 736h171l-91 -736h-171zM97 -50c60 0 100 -40 100 -94s-41 -95 -103 -95c-60 0 -99 39 -99 92c0 56 41 97 102 97z" />
    <glyph glyph-name="uni1E39" unicode="&#x1e39;" horiz-adv-x="274" 
d="M59 789l16 122h291l-16 -122h-291zM21 0l91 736h171l-91 -736h-171zM88 -50c60 0 100 -40 100 -94s-41 -95 -103 -95c-60 0 -99 39 -99 92c0 56 41 97 102 97z" />
    <glyph glyph-name="uni1E3B" unicode="&#x1e3b;" horiz-adv-x="274" 
d="M21 0l91 736h171l-91 -736h-171zM-60 -215l16 127h291l-16 -127h-291z" />
    <glyph glyph-name="lslash" unicode="&#x142;" horiz-adv-x="308" 
d="M321 459l-14 -115l-57 -27l-39 -317h-171l29 232l-59 -27l14 114l59 28l48 389h171l-38 -304z" />
    <glyph glyph-name="m" unicode="m" horiz-adv-x="804" 
d="M17 0l60 490h170l-6 -52l4 -1c37 40 85 63 143 63c53 0 87 -20 102 -67h5c39 43 91 67 160 67c96 0 131 -63 112 -207l-38 -293h-169l34 255c9 66 5 93 -22 93s-76 -49 -92 -172l-23 -176h-169l33 255c9 66 10 93 -21 93c-24 0 -76 -43 -89 -152l-24 -196h-170z" />
    <glyph glyph-name="uni1E43" unicode="&#x1e43;" horiz-adv-x="804" 
d="M17 0l60 490h170l-6 -52l4 -1c37 40 85 63 143 63c53 0 87 -20 102 -67h5c39 43 91 67 160 67c96 0 131 -63 112 -207l-38 -293h-169l34 255c9 66 5 93 -22 93s-76 -49 -92 -172l-23 -176h-169l33 255c9 66 10 93 -21 93c-24 0 -76 -43 -89 -152l-24 -196h-170zM354 -50
c60 0 100 -40 100 -94s-41 -95 -103 -95c-60 0 -99 39 -99 92c0 56 41 97 102 97z" />
    <glyph glyph-name="n" unicode="n" horiz-adv-x="542" 
d="M17 0l60 490h170l-8 -61l3 -1c40 46 92 72 155 72c88 0 127 -60 109 -198l-39 -302h-169l34 255c8 66 4 93 -20 93c-37 0 -88 -46 -103 -168l-22 -180h-170z" />
    <glyph glyph-name="nacute" unicode="&#x144;" horiz-adv-x="542" 
d="M217 557l116 151l168 1l-130 -152h-154zM17 0l60 490h170l-8 -61l3 -1c40 46 92 72 155 72c88 0 127 -60 109 -198l-39 -302h-169l34 255c8 66 4 93 -20 93c-37 0 -88 -46 -103 -168l-22 -180h-170z" />
    <glyph glyph-name="napostrophe" unicode="&#x149;" horiz-adv-x="673" 
d="M-9 478l58 232h157l-100 -232h-115zM148 0l60 490h170l-8 -61l3 -1c40 46 92 72 155 72c88 0 127 -60 109 -198l-39 -302h-169l34 255c8 66 4 93 -20 93c-37 0 -88 -46 -103 -168l-22 -180h-170z" />
    <glyph glyph-name="ncaron" unicode="&#x148;" horiz-adv-x="542" 
d="M243 544l-67 151h138l25 -69h1l41 69h135l-101 -151h-172zM17 0l60 490h170l-8 -61l3 -1c40 46 92 72 155 72c88 0 127 -60 109 -198l-39 -302h-169l34 255c8 66 4 93 -20 93c-37 0 -88 -46 -103 -168l-22 -180h-170z" />
    <glyph glyph-name="ncommaaccent" unicode="&#x146;" horiz-adv-x="542" 
d="M17 0l60 490h170l-8 -61l3 -1c40 46 92 72 155 72c88 0 127 -60 109 -198l-39 -302h-169l34 255c8 66 4 93 -20 93c-37 0 -88 -46 -103 -168l-22 -180h-170zM131 -222l-15 95c39 5 55 18 55 49c0 7 -1 15 -3 25h132c1 -8 2 -16 2 -24c0 -96 -67 -145 -171 -145z" />
    <glyph glyph-name="uni1E45" unicode="&#x1e45;" horiz-adv-x="542" 
d="M332 546c-60 0 -100 40 -100 94s41 95 103 95c60 0 99 -39 99 -92c0 -56 -41 -97 -102 -97zM17 0l60 490h170l-8 -61l3 -1c40 46 92 72 155 72c88 0 127 -60 109 -198l-39 -302h-169l34 255c8 66 4 93 -20 93c-37 0 -88 -46 -103 -168l-22 -180h-170z" />
    <glyph glyph-name="uni1E47" unicode="&#x1e47;" horiz-adv-x="542" 
d="M17 0l60 490h170l-8 -61l3 -1c40 46 92 72 155 72c88 0 127 -60 109 -198l-39 -302h-169l34 255c8 66 4 93 -20 93c-37 0 -88 -46 -103 -168l-22 -180h-170zM233 -50c60 0 100 -40 100 -94s-41 -95 -103 -95c-60 0 -99 39 -99 92c0 56 41 97 102 97z" />
    <glyph glyph-name="eng" unicode="&#x14b;" horiz-adv-x="537" 
d="M243 -205c-30 0 -53 2 -82 8l30 129c11 -3 21 -4 30 -4c50 0 67 47 75 101l31 226c9 66 4 93 -20 93c-37 0 -83 -46 -98 -168l-22 -180h-170l60 490h170l-8 -61l3 -1c35 46 87 72 150 72c88 0 127 -60 109 -198l-38 -302c-17 -132 -100 -205 -220 -205z" />
    <glyph glyph-name="uni0272" unicode="&#x272;" horiz-adv-x="542" 
d="M397 500c88 0 127 -60 109 -198l-39 -302h-169l34 255c8 66 4 93 -20 93c-36 0 -86 -44 -102 -162l-23 -186c-17 -139 -68 -205 -198 -205c-30 0 -53 2 -82 8l30 129c9 -2 17 -4 24 -4c43 0 51 43 59 101l57 461h170l-7 -61l2 -1c40 46 92 72 155 72z" />
    <glyph glyph-name="uni1E49" unicode="&#x1e49;" horiz-adv-x="542" 
d="M17 0l60 490h170l-8 -61l3 -1c40 46 92 72 155 72c88 0 127 -60 109 -198l-39 -302h-169l34 255c8 66 4 93 -20 93c-37 0 -88 -46 -103 -168l-22 -180h-170zM76 -215l16 127h291l-16 -127h-291z" />
    <glyph glyph-name="ntilde" unicode="&#xf1;" horiz-adv-x="542" 
d="M411 548c-38 0 -60 17 -77 29c-16 12 -29 16 -42 16c-24 0 -44 -22 -58 -49l-92 45c30 73 77 127 135 127c41 0 62 -16 76 -26c18 -12 28 -17 40 -17c25 0 46 22 60 48l91 -38c-29 -77 -75 -135 -133 -135zM17 0l60 490h170l-8 -61l3 -1c40 46 92 72 155 72
c88 0 127 -60 109 -198l-39 -302h-169l34 255c8 66 4 93 -20 93c-37 0 -88 -46 -103 -168l-22 -180h-170z" />
    <glyph glyph-name="o" unicode="o" horiz-adv-x="529" 
d="M229 -10c-123 0 -207 77 -207 213c0 156 97 297 275 297c127 0 210 -78 210 -213c0 -155 -81 -297 -278 -297zM245 141c55 0 90 68 90 136c0 59 -33 71 -53 71c-56 0 -88 -73 -88 -140c0 -53 33 -67 51 -67z" />
    <glyph glyph-name="oacute" unicode="&#xf3;" horiz-adv-x="529" 
d="M233 557l116 151l168 1l-130 -152h-154zM229 -10c-123 0 -207 77 -207 213c0 156 97 297 275 297c127 0 210 -78 210 -213c0 -155 -81 -297 -278 -297zM245 141c55 0 90 68 90 136c0 59 -33 71 -53 71c-56 0 -88 -73 -88 -140c0 -53 33 -67 51 -67z" />
    <glyph glyph-name="obreve" unicode="&#x14f;" horiz-adv-x="529" 
d="M305 534c-93 0 -146 59 -140 161h119c-3 -22 9 -41 34 -41c28 0 49 20 56 41h120c-17 -92 -81 -161 -189 -161zM229 -10c-123 0 -207 77 -207 213c0 156 97 297 275 297c127 0 210 -78 210 -213c0 -155 -81 -297 -278 -297zM245 141c55 0 90 68 90 136
c0 59 -33 71 -53 71c-56 0 -88 -73 -88 -140c0 -53 33 -67 51 -67z" />
    <glyph glyph-name="uni01D2" unicode="&#x1d2;" horiz-adv-x="529" 
d="M228 544l-67 151h138l25 -69h1l41 69h135l-101 -151h-172zM229 -10c-123 0 -207 77 -207 213c0 156 97 297 275 297c127 0 210 -78 210 -213c0 -155 -81 -297 -278 -297zM245 141c55 0 90 68 90 136c0 59 -33 71 -53 71c-56 0 -88 -73 -88 -140c0 -53 33 -67 51 -67z" />
    <glyph glyph-name="ocircumflex" unicode="&#xf4;" horiz-adv-x="529" 
d="M140 554l113 155h145l82 -155h-141l-18 73h-1l-35 -73h-145zM229 -10c-123 0 -207 77 -207 213c0 156 97 297 275 297c127 0 210 -78 210 -213c0 -155 -81 -297 -278 -297zM245 141c55 0 90 68 90 136c0 59 -33 71 -53 71c-56 0 -88 -73 -88 -140c0 -53 33 -67 51 -67z
" />
    <glyph glyph-name="uni1ED1" unicode="&#x1ed1;" horiz-adv-x="529" 
d="M457 655l92 152l149 1l-133 -153h-108zM141 554l113 155h145l82 -155h-141l-18 73h-1l-35 -73h-145zM229 -10c-123 0 -207 77 -207 213c0 156 97 297 275 297c127 0 210 -78 210 -213c0 -155 -81 -297 -278 -297zM245 141c55 0 90 68 90 136c0 59 -33 71 -53 71
c-56 0 -88 -73 -88 -140c0 -53 33 -67 51 -67z" />
    <glyph glyph-name="uni1ED9" unicode="&#x1ed9;" horiz-adv-x="529" 
d="M140 554l113 155h145l82 -155h-141l-18 73h-1l-35 -73h-145zM229 -10c-123 0 -207 77 -207 213c0 156 97 297 275 297c127 0 210 -78 210 -213c0 -155 -81 -297 -278 -297zM245 141c55 0 90 68 90 136c0 59 -33 71 -53 71c-56 0 -88 -73 -88 -140c0 -53 33 -67 51 -67z
M217 -50c60 0 100 -40 100 -94s-41 -95 -103 -95c-60 0 -99 39 -99 92c0 56 41 97 102 97z" />
    <glyph glyph-name="uni1ED3" unicode="&#x1ed3;" horiz-adv-x="529" 
d="M474 655l-85 153l148 -1l45 -152h-108zM142 554l113 155h145l82 -155h-141l-18 73h-1l-35 -73h-145zM229 -10c-123 0 -207 77 -207 213c0 156 97 297 275 297c127 0 210 -78 210 -213c0 -155 -81 -297 -278 -297zM245 141c55 0 90 68 90 136c0 59 -33 71 -53 71
c-56 0 -88 -73 -88 -140c0 -53 33 -67 51 -67z" />
    <glyph glyph-name="uni1ED5" unicode="&#x1ed5;" horiz-adv-x="529" 
d="M528 634l-77 1c22 17 44 40 47 64c2 13 -4 22 -21 22c-15 0 -35 -7 -49 -16l-17 60c28 25 80 49 125 49c53 0 83 -23 83 -63c0 -45 -34 -90 -91 -117zM140 554l113 155h145l82 -155h-141l-18 73h-1l-35 -73h-145zM229 -10c-123 0 -207 77 -207 213c0 156 97 297 275 297
c127 0 210 -78 210 -213c0 -155 -81 -297 -278 -297zM245 141c55 0 90 68 90 136c0 59 -33 71 -53 71c-56 0 -88 -73 -88 -140c0 -53 33 -67 51 -67z" />
    <glyph glyph-name="uni1ED7" unicode="&#x1ed7;" horiz-adv-x="529" 
d="M400 723c-32 0 -49 16 -65 27c-12 9 -23 15 -38 15c-23 0 -42 -21 -55 -43l-88 39c28 57 73 108 129 108c30 0 50 -10 67 -20c17 -11 31 -23 46 -23c25 0 40 23 53 48l87 -37c-28 -59 -75 -114 -136 -114zM141 554l113 155h145l82 -155h-141l-18 73h-1l-35 -73h-145z
M229 -10c-123 0 -207 77 -207 213c0 156 97 297 275 297c127 0 210 -78 210 -213c0 -155 -81 -297 -278 -297zM245 141c55 0 90 68 90 136c0 59 -33 71 -53 71c-56 0 -88 -73 -88 -140c0 -53 33 -67 51 -67z" />
    <glyph glyph-name="odieresis" unicode="&#xf6;" horiz-adv-x="529" 
d="M205 546c-60 0 -99 40 -99 94s41 95 102 95c60 0 99 -39 99 -92c0 -56 -41 -97 -102 -97zM435 546c-59 0 -99 40 -99 94s41 95 103 95c59 0 99 -39 99 -92c0 -56 -41 -97 -103 -97zM229 -10c-123 0 -207 77 -207 213c0 156 97 297 275 297c127 0 210 -78 210 -213
c0 -155 -81 -297 -278 -297zM245 141c55 0 90 68 90 136c0 59 -33 71 -53 71c-56 0 -88 -73 -88 -140c0 -53 33 -67 51 -67z" />
    <glyph glyph-name="uni1ECD" unicode="&#x1ecd;" horiz-adv-x="529" 
d="M229 -10c-123 0 -207 77 -207 213c0 156 97 297 275 297c127 0 210 -78 210 -213c0 -155 -81 -297 -278 -297zM245 141c55 0 90 68 90 136c0 59 -33 71 -53 71c-56 0 -88 -73 -88 -140c0 -53 33 -67 51 -67zM217 -50c60 0 100 -40 100 -94s-41 -95 -103 -95
c-60 0 -99 39 -99 92c0 56 41 97 102 97z" />
    <glyph glyph-name="ograve" unicode="&#xf2;" horiz-adv-x="529" 
d="M239 558l-92 152l164 -1l79 -151h-151zM229 -10c-123 0 -207 77 -207 213c0 156 97 297 275 297c127 0 210 -78 210 -213c0 -155 -81 -297 -278 -297zM245 141c55 0 90 68 90 136c0 59 -33 71 -53 71c-56 0 -88 -73 -88 -140c0 -53 33 -67 51 -67z" />
    <glyph glyph-name="uni1ECF" unicode="&#x1ecf;" horiz-adv-x="529" 
d="M339 541l-85 1c24 19 48 44 52 71c2 14 -5 24 -23 24c-17 0 -40 -8 -55 -18l-19 67c31 28 89 55 139 55c59 0 92 -26 92 -71c0 -50 -37 -100 -101 -129zM229 -10c-123 0 -207 77 -207 213c0 156 97 297 275 297c127 0 210 -78 210 -213c0 -155 -81 -297 -278 -297z
M245 141c55 0 90 68 90 136c0 59 -33 71 -53 71c-56 0 -88 -73 -88 -140c0 -53 33 -67 51 -67z" />
    <glyph glyph-name="ohorn" unicode="&#x1a1;" horiz-adv-x="631" 
d="M531 565h131l-10 -84c-14 -120 -73 -175 -145 -180v-14c0 -155 -81 -297 -278 -297c-123 0 -207 77 -207 213c0 156 97 297 275 297c94 0 164 -43 194 -121c17 18 23 58 29 105zM245 141c55 0 90 68 90 136c0 59 -33 71 -53 71c-56 0 -88 -73 -88 -140
c0 -53 33 -67 51 -67z" />
    <glyph glyph-name="uni1EDB" unicode="&#x1edb;" horiz-adv-x="631" 
d="M517 709l-130 -152h-154l116 151zM531 565h131l-10 -84c-14 -120 -73 -175 -145 -180v-14c0 -155 -81 -297 -278 -297c-123 0 -207 77 -207 213c0 156 97 297 275 297c94 0 164 -43 194 -121c17 18 23 58 29 105zM245 141c55 0 90 68 90 136c0 59 -33 71 -53 71
c-56 0 -88 -73 -88 -140c0 -53 33 -67 51 -67z" />
    <glyph glyph-name="uni1EE3" unicode="&#x1ee3;" horiz-adv-x="631" 
d="M531 565h131l-10 -84c-14 -120 -73 -175 -145 -180v-14c0 -155 -81 -297 -278 -297c-123 0 -207 77 -207 213c0 156 97 297 275 297c94 0 164 -43 194 -121c17 18 23 58 29 105zM245 141c55 0 90 68 90 136c0 59 -33 71 -53 71c-56 0 -88 -73 -88 -140
c0 -53 33 -67 51 -67zM217 -50c60 0 100 -40 100 -94s-41 -95 -103 -95c-60 0 -99 39 -99 92c0 56 41 97 102 97z" />
    <glyph glyph-name="uni1EDD" unicode="&#x1edd;" horiz-adv-x="631" 
d="M390 558h-151l-92 152l164 -1zM531 565h131l-10 -84c-14 -120 -73 -175 -145 -180v-14c0 -155 -81 -297 -278 -297c-123 0 -207 77 -207 213c0 156 97 297 275 297c94 0 164 -43 194 -121c17 18 23 58 29 105zM245 141c55 0 90 68 90 136c0 59 -33 71 -53 71
c-56 0 -88 -73 -88 -140c0 -53 33 -67 51 -67z" />
    <glyph glyph-name="uni1EDF" unicode="&#x1edf;" horiz-adv-x="631" 
d="M283 637c-17 0 -40 -8 -55 -18l-19 67c31 28 89 55 139 55c59 0 92 -26 92 -71c0 -50 -37 -100 -101 -129l-85 1c24 19 48 44 52 71c2 14 -5 24 -23 24zM531 565h131l-10 -84c-14 -120 -73 -175 -145 -180v-14c0 -155 -81 -297 -278 -297c-123 0 -207 77 -207 213
c0 156 97 297 275 297c94 0 164 -43 194 -121c17 18 23 58 29 105zM245 141c55 0 90 68 90 136c0 59 -33 71 -53 71c-56 0 -88 -73 -88 -140c0 -53 33 -67 51 -67z" />
    <glyph glyph-name="uni1EE1" unicode="&#x1ee1;" horiz-adv-x="631" 
d="M277 593c-24 0 -44 -22 -58 -49l-92 45c30 73 77 127 135 127c41 0 62 -16 76 -26c18 -12 28 -17 40 -17c25 0 46 22 60 48l91 -38c-29 -77 -75 -135 -133 -135c-38 0 -60 17 -77 29c-16 12 -29 16 -42 16zM531 565h131l-10 -84c-14 -120 -73 -175 -145 -180v-14
c0 -155 -81 -297 -278 -297c-123 0 -207 77 -207 213c0 156 97 297 275 297c94 0 164 -43 194 -121c17 18 23 58 29 105zM245 141c55 0 90 68 90 136c0 59 -33 71 -53 71c-56 0 -88 -73 -88 -140c0 -53 33 -67 51 -67z" />
    <glyph glyph-name="ohungarumlaut" unicode="&#x151;" horiz-adv-x="529" 
d="M130 557l116 151l164 1l-130 -152h-150zM349 557l115 151l164 1l-129 -152h-150zM229 -10c-123 0 -207 77 -207 213c0 156 97 297 275 297c127 0 210 -78 210 -213c0 -155 -81 -297 -278 -297zM245 141c55 0 90 68 90 136c0 59 -33 71 -53 71c-56 0 -88 -73 -88 -140
c0 -53 33 -67 51 -67z" />
    <glyph glyph-name="omacron" unicode="&#x14d;" horiz-adv-x="529" 
d="M169 579l16 127h291l-16 -127h-291zM229 -10c-123 0 -207 77 -207 213c0 156 97 297 275 297c127 0 210 -78 210 -213c0 -155 -81 -297 -278 -297zM245 141c55 0 90 68 90 136c0 59 -33 71 -53 71c-56 0 -88 -73 -88 -140c0 -53 33 -67 51 -67z" />
    <glyph glyph-name="uni01EB" unicode="&#x1eb;" horiz-adv-x="529" 
d="M278 -7c-37 -14 -65 -47 -65 -78c0 -16 8 -21 23 -21c11 0 23 3 30 6l2 -82c-21 -7 -45 -10 -77 -10c-65 0 -100 28 -100 80c0 41 24 83 60 112v2c-79 27 -129 96 -129 201c0 156 97 297 275 297c127 0 210 -78 210 -213c0 -142 -68 -272 -229 -294zM282 348
c-56 0 -88 -73 -88 -140c0 -53 33 -67 51 -67c55 0 90 68 90 136c0 59 -33 71 -53 71z" />
    <glyph glyph-name="oslash" unicode="&#xf8;" horiz-adv-x="528" 
d="M521 466l-48 -51c22 -33 34 -77 34 -128c0 -155 -81 -297 -278 -297c-49 0 -92 12 -125 35l-46 -48l-45 43l47 49c-24 34 -38 79 -38 134c0 156 97 297 275 297c54 0 99 -14 134 -40l46 48zM282 348c-55 0 -87 -71 -88 -138l120 127c-10 8 -23 11 -32 11zM245 141
c53 0 87 63 90 128l-115 -120c9 -6 18 -8 25 -8z" />
    <glyph glyph-name="oslashacute" unicode="&#x1ff;" horiz-adv-x="528" 
d="M517 709l-130 -152h-154l116 151zM521 466l-48 -51c22 -33 34 -77 34 -128c0 -155 -81 -297 -278 -297c-49 0 -92 12 -125 35l-46 -48l-45 43l47 49c-24 34 -38 79 -38 134c0 156 97 297 275 297c54 0 99 -14 134 -40l46 48zM282 348c-55 0 -87 -71 -88 -138l120 127
c-10 8 -23 11 -32 11zM245 141c53 0 87 63 90 128l-115 -120c9 -6 18 -8 25 -8z" />
    <glyph glyph-name="otilde" unicode="&#xf5;" horiz-adv-x="529" 
d="M396 548c-38 0 -60 17 -77 29c-16 12 -29 16 -42 16c-24 0 -44 -22 -58 -49l-92 45c30 73 77 127 135 127c41 0 62 -16 76 -26c18 -12 28 -17 40 -17c25 0 46 22 60 48l91 -38c-29 -77 -75 -135 -133 -135zM229 -10c-123 0 -207 77 -207 213c0 156 97 297 275 297
c127 0 210 -78 210 -213c0 -155 -81 -297 -278 -297zM245 141c55 0 90 68 90 136c0 59 -33 71 -53 71c-56 0 -88 -73 -88 -140c0 -53 33 -67 51 -67z" />
    <glyph glyph-name="oe" unicode="&#x153;" horiz-adv-x="731" 
d="M515 126c19 0 48 10 72 46l123 -68c-49 -77 -120 -114 -212 -114c-64 0 -112 23 -143 63h-5c-36 -38 -86 -63 -150 -63c-108 0 -187 78 -187 212c0 168 104 298 248 298c57 0 103 -22 134 -63h5c40 39 94 63 161 63c81 0 172 -38 172 -139c0 -106 -133 -163 -272 -198
c12 -27 36 -37 54 -37zM547 362c-37 0 -73 -41 -88 -102c63 19 114 40 114 80c0 12 -9 22 -26 22zM221 141c38 0 79 55 79 141c0 54 -23 67 -45 67c-41 0 -74 -64 -74 -140c0 -57 23 -68 40 -68z" />
    <glyph glyph-name="p" unicode="p" horiz-adv-x="551" 
d="M-8 -198l85 688h171l-8 -65l1 -1c32 45 77 76 134 76c100 0 155 -87 155 -202c0 -184 -108 -308 -231 -308c-43 0 -78 10 -106 29l-4 -2l-26 -215h-171zM254 141c70 0 105 67 105 139c0 42 -20 69 -46 69c-45 0 -95 -58 -112 -180l-1 -7c14 -14 34 -21 54 -21z" />
    <glyph glyph-name="thorn" unicode="&#xfe;" horiz-adv-x="551" 
d="M-8 -198l115 934h171l-38 -311l1 -1c32 45 77 76 134 76c100 0 155 -87 155 -202c0 -184 -108 -308 -231 -308c-43 0 -78 10 -106 29l-4 -2l-26 -215h-171zM254 141c70 0 105 67 105 139c0 42 -20 69 -46 69c-45 0 -95 -58 -112 -180l-1 -7c14 -14 34 -21 54 -21z" />
    <glyph glyph-name="q" unicode="q" horiz-adv-x="550" 
d="M279 -198l33 261l-3 2c-32 -44 -77 -75 -133 -75c-100 0 -155 87 -155 201c0 185 108 309 226 309c53 0 88 -17 110 -43l2 1l4 32h171l-84 -688h-171zM237 141c44 0 93 56 110 166l2 11c-19 21 -39 31 -67 31c-56 0 -90 -80 -90 -140c0 -41 19 -68 45 -68z" />
    <glyph glyph-name="r" unicode="r" horiz-adv-x="351" 
d="M17 0l60 490h170l-7 -57h1c35 43 79 67 130 67l-24 -187c-59 30 -118 -10 -137 -122l-23 -191h-170z" />
    <glyph glyph-name="racute" unicode="&#x155;" horiz-adv-x="351" 
d="M102 557l116 151l168 1l-130 -152h-154zM17 0l60 490h170l-7 -57h1c35 43 79 67 130 67l-24 -187c-59 30 -118 -10 -137 -122l-23 -191h-170z" />
    <glyph glyph-name="rcaron" unicode="&#x159;" horiz-adv-x="351" 
d="M171 544l-67 151h138l25 -69h1l41 69h135l-101 -151h-172zM17 0l60 490h170l-7 -57h1c35 43 79 67 130 67l-24 -187c-59 30 -118 -10 -137 -122l-23 -191h-170z" />
    <glyph glyph-name="rcommaaccent" unicode="&#x157;" horiz-adv-x="351" 
d="M17 0l60 490h170l-7 -57h1c35 43 79 67 130 67l-24 -187c-59 30 -118 -10 -137 -122l-23 -191h-170zM-12 -222l-15 95c39 5 55 18 55 49c0 7 -1 15 -3 25h132c1 -8 2 -16 2 -24c0 -96 -67 -145 -171 -145z" />
    <glyph glyph-name="uni1E5B" unicode="&#x1e5b;" horiz-adv-x="351" 
d="M17 0l60 490h170l-7 -57h1c35 43 79 67 130 67l-24 -187c-59 30 -118 -10 -137 -122l-23 -191h-170zM90 -50c60 0 100 -40 100 -94s-41 -95 -103 -95c-60 0 -99 39 -99 92c0 56 41 97 102 97z" />
    <glyph glyph-name="uni1E5D" unicode="&#x1e5d;" horiz-adv-x="351" 
d="M112 579l16 127h291l-16 -127h-291zM17 0l60 490h170l-7 -57h1c35 43 79 67 130 67l-24 -187c-59 30 -118 -10 -137 -122l-23 -191h-170zM90 -50c60 0 100 -40 100 -94s-41 -95 -103 -95c-60 0 -99 39 -99 92c0 56 41 97 102 97z" />
    <glyph glyph-name="uni1E5F" unicode="&#x1e5f;" horiz-adv-x="351" 
d="M17 0l60 490h170l-7 -57h1c35 43 79 67 130 67l-24 -187c-59 30 -118 -10 -137 -122l-23 -191h-170zM-67 -215l16 127h291l-16 -127h-291z" />
    <glyph glyph-name="s" unicode="s" horiz-adv-x="417" 
d="M186 -10c-69 0 -150 29 -197 84l90 96c29 -34 76 -58 113 -58c18 0 29 6 29 16c0 13 -13 19 -70 50c-77 41 -118 80 -118 151c0 103 82 171 187 171c70 0 135 -28 179 -83l-99 -92c-26 38 -58 49 -77 50c-14 0 -30 -7 -30 -22c0 -10 18 -23 63 -46
c86 -43 127 -79 127 -157c0 -92 -74 -160 -197 -160z" />
    <glyph glyph-name="sacute" unicode="&#x15b;" horiz-adv-x="417" 
d="M139 557l116 151l168 1l-130 -152h-154zM186 -10c-69 0 -150 29 -197 84l90 96c29 -34 76 -58 113 -58c18 0 29 6 29 16c0 13 -13 19 -70 50c-77 41 -118 80 -118 151c0 103 82 171 187 171c70 0 135 -28 179 -83l-99 -92c-26 38 -58 49 -77 50c-14 0 -30 -7 -30 -22
c0 -10 18 -23 63 -46c86 -43 127 -79 127 -157c0 -92 -74 -160 -197 -160z" />
    <glyph glyph-name="scaron" unicode="&#x161;" horiz-adv-x="417" 
d="M157 545l-67 151h138l25 -69h1l41 69h135l-101 -151h-172zM186 -10c-69 0 -150 29 -197 84l90 96c29 -34 76 -58 113 -58c18 0 29 6 29 16c0 13 -13 19 -70 50c-77 41 -118 80 -118 151c0 103 82 171 187 171c70 0 135 -28 179 -83l-99 -92c-26 38 -58 49 -77 50
c-14 0 -30 -7 -30 -22c0 -10 18 -23 63 -46c86 -43 127 -79 127 -157c0 -92 -74 -160 -197 -160z" />
    <glyph glyph-name="scedilla" unicode="&#x15f;" horiz-adv-x="417" 
d="M256 307c86 -43 127 -79 127 -157c0 -92 -74 -160 -197 -160h-1l-15 -19l1 -1c47 -2 75 -23 75 -67c0 -66 -51 -96 -131 -96c-29 0 -45 3 -58 6l2 65c11 -4 29 -6 41 -6c31 0 49 12 49 31c0 16 -20 23 -63 23l1 39l24 36c-47 13 -92 37 -122 73l90 96
c29 -34 76 -58 113 -58c18 0 29 6 29 16c0 13 -13 19 -70 50c-77 41 -118 80 -118 151c0 103 82 171 187 171c70 0 135 -28 179 -83l-99 -92c-26 38 -58 49 -77 50c-14 0 -30 -7 -30 -22c0 -10 18 -23 63 -46z" />
    <glyph glyph-name="scircumflex" unicode="&#x15d;" horiz-adv-x="417" 
d="M69 555l113 155h145l82 -155h-141l-18 73h-1l-35 -73h-145zM186 -10c-69 0 -150 29 -197 84l90 96c29 -34 76 -58 113 -58c18 0 29 6 29 16c0 13 -13 19 -70 50c-77 41 -118 80 -118 151c0 103 82 171 187 171c70 0 135 -28 179 -83l-99 -92c-26 38 -58 49 -77 50
c-14 0 -30 -7 -30 -22c0 -10 18 -23 63 -46c86 -43 127 -79 127 -157c0 -92 -74 -160 -197 -160z" />
    <glyph glyph-name="scommaaccent" unicode="&#x219;" horiz-adv-x="417" 
d="M186 -10c-69 0 -150 29 -197 84l90 96c29 -34 76 -58 113 -58c18 0 29 6 29 16c0 13 -13 19 -70 50c-77 41 -118 80 -118 151c0 103 82 171 187 171c70 0 135 -28 179 -83l-99 -92c-26 38 -58 49 -77 50c-14 0 -30 -7 -30 -22c0 -10 18 -23 63 -46
c86 -43 127 -79 127 -157c0 -92 -74 -160 -197 -160zM59 -222l-15 95c39 5 55 18 55 49c0 7 -1 15 -3 25h132c1 -8 2 -16 2 -24c0 -96 -67 -145 -171 -145z" />
    <glyph glyph-name="uni1E61" unicode="&#x1e61;" horiz-adv-x="417" 
d="M246 547c-60 0 -100 40 -100 94s41 95 103 95c60 0 99 -39 99 -92c0 -56 -41 -97 -102 -97zM186 -10c-69 0 -150 29 -197 84l90 96c29 -34 76 -58 113 -58c18 0 29 6 29 16c0 13 -13 19 -70 50c-77 41 -118 80 -118 151c0 103 82 171 187 171c70 0 135 -28 179 -83
l-99 -92c-26 38 -58 49 -77 50c-14 0 -30 -7 -30 -22c0 -10 18 -23 63 -46c86 -43 127 -79 127 -157c0 -92 -74 -160 -197 -160z" />
    <glyph glyph-name="uni1E63" unicode="&#x1e63;" horiz-adv-x="417" 
d="M186 -10c-69 0 -150 29 -197 84l90 96c29 -34 76 -58 113 -58c18 0 29 6 29 16c0 13 -13 19 -70 50c-77 41 -118 80 -118 151c0 103 82 171 187 171c70 0 135 -28 179 -83l-99 -92c-26 38 -58 49 -77 50c-14 0 -30 -7 -30 -22c0 -10 18 -23 63 -46
c86 -43 127 -79 127 -157c0 -92 -74 -160 -197 -160zM161 -50c60 0 100 -40 100 -94s-41 -95 -103 -95c-60 0 -99 39 -99 92c0 56 41 97 102 97z" />
    <glyph glyph-name="germandbls" unicode="&#xdf;" horiz-adv-x="642" 
d="M436 -10c-65 0 -138 29 -185 84l90 95c34 -38 67 -55 92 -55c14 0 29 5 29 20c0 12 -10 20 -63 49c-50 26 -109 71 -109 142c0 59 37 98 71 136c25 29 47 57 50 92c3 37 -31 51 -74 51c-47 0 -80 -33 -87 -93l-62 -511h-171l64 525c21 169 126 221 252 221
c140 0 250 -53 245 -183c-2 -58 -28 -96 -55 -125c-32 -34 -65 -56 -65 -82c0 -15 7 -29 39 -48c78 -46 126 -73 126 -150c0 -113 -83 -168 -187 -168z" />
    <glyph glyph-name="longs" unicode="&#x17f;" horiz-adv-x="336" 
d="M27 0l43 354h-39l17 136h39l9 72c14 120 73 184 179 184c45 0 88 -15 119 -40l-42 -119c-13 9 -26 15 -45 15c-26 0 -37 -13 -45 -77l-64 -525h-171z" />
    <glyph glyph-name="t" unicode="t" horiz-adv-x="344" 
d="M170 -10c-72 0 -137 36 -122 163l24 201h-47l17 136h47l18 138l174 34l-21 -172h92l-17 -136h-92l-21 -181c-3 -21 5 -32 17 -32c10 0 23 4 38 11l29 -127c-46 -24 -87 -35 -136 -35z" />
    <glyph glyph-name="tbar" unicode="&#x167;" horiz-adv-x="344" 
d="M335 354h-92l-6 -48h69l-12 -98h-68l-4 -35c-3 -21 5 -32 17 -32c10 0 23 4 38 11l29 -127c-46 -24 -87 -35 -136 -35c-72 0 -137 36 -122 163l7 55h-38l11 98h38l6 48h-47l17 136h47l18 138l174 34l-21 -172h92z" />
    <glyph glyph-name="tcaron" unicode="&#x165;" horiz-adv-x="368" 
d="M312 574l59 223h155l-98 -223h-116zM170 -10c-72 0 -137 36 -122 163l24 201h-47l17 136h47l18 138l174 34l-21 -172h92l-17 -136h-92l-21 -181c-3 -21 5 -32 17 -32c10 0 23 4 38 11l29 -127c-46 -24 -87 -35 -136 -35z" />
    <glyph glyph-name="uni0163" unicode="&#x163;" horiz-adv-x="344" 
d="M243 354l-21 -181c-3 -21 5 -32 17 -32c10 0 23 4 38 11l29 -127c-42 -22 -80 -33 -124 -35l-15 -19l1 -1c47 -2 75 -23 75 -67c0 -66 -51 -96 -131 -96c-29 0 -45 3 -58 6l2 65c11 -4 29 -6 41 -6c31 0 49 12 49 31c0 16 -20 23 -63 23l1 39l24 37
c-42 18 -70 63 -60 151l24 201h-47l17 136h47l18 138l174 34l-21 -172h92l-17 -136h-92z" />
    <glyph glyph-name="uni021B" unicode="&#x21b;" horiz-adv-x="344" 
d="M170 -10c-72 0 -137 36 -122 163l24 201h-47l17 136h47l18 138l174 34l-21 -172h92l-17 -136h-92l-21 -181c-3 -21 5 -32 17 -32c10 0 23 4 38 11l29 -127c-46 -24 -87 -35 -136 -35zM56 -222l-15 95c39 5 55 18 55 49c0 7 -1 15 -3 25h132c1 -8 2 -16 2 -24
c0 -96 -67 -145 -171 -145z" />
    <glyph glyph-name="uni1E97" unicode="&#x1e97;" horiz-adv-x="344" 
d="M121 693c-60 0 -99 40 -99 94s41 95 102 95c60 0 99 -39 99 -92c0 -56 -41 -97 -102 -97zM351 693c-59 0 -99 40 -99 94s41 95 103 95c59 0 99 -39 99 -92c0 -56 -41 -97 -103 -97zM170 -10c-72 0 -137 36 -122 163l24 201h-47l17 136h47l18 138l174 34l-21 -172h92
l-17 -136h-92l-21 -181c-3 -21 5 -32 17 -32c10 0 23 4 38 11l29 -127c-46 -24 -87 -35 -136 -35z" />
    <glyph glyph-name="uni1E6D" unicode="&#x1e6d;" horiz-adv-x="344" 
d="M170 -10c-72 0 -137 36 -122 163l24 201h-47l17 136h47l18 138l174 34l-21 -172h92l-17 -136h-92l-21 -181c-3 -21 5 -32 17 -32c10 0 23 4 38 11l29 -127c-46 -24 -87 -35 -136 -35zM158 -50c60 0 100 -40 100 -94s-41 -95 -103 -95c-60 0 -99 39 -99 92
c0 56 41 97 102 97z" />
    <glyph glyph-name="uni1E6F" unicode="&#x1e6f;" horiz-adv-x="344" 
d="M170 -10c-72 0 -137 36 -122 163l24 201h-47l17 136h47l18 138l174 34l-21 -172h92l-17 -136h-92l-21 -181c-3 -21 5 -32 17 -32c10 0 23 4 38 11l29 -127c-46 -24 -87 -35 -136 -35zM1 -215l16 127h291l-16 -127h-291z" />
    <glyph glyph-name="u" unicode="u" horiz-adv-x="536" 
d="M158 -10c-87 0 -145 46 -124 193l43 307h169l-36 -244c-12 -79 -8 -105 22 -105c37 0 82 63 88 116l29 233h170l-60 -490h-166l4 64h-3c-35 -45 -81 -74 -136 -74z" />
    <glyph glyph-name="uacute" unicode="&#xfa;" horiz-adv-x="536" 
d="M237 557l116 151l168 1l-130 -152h-154zM158 -10c-87 0 -145 46 -124 193l43 307h169l-36 -244c-12 -79 -8 -105 22 -105c37 0 82 63 88 116l29 233h170l-60 -490h-166l4 64h-3c-35 -45 -81 -74 -136 -74z" />
    <glyph glyph-name="ubreve" unicode="&#x16d;" horiz-adv-x="536" 
d="M303 534c-93 0 -146 59 -140 161h119c-3 -22 9 -41 34 -41c28 0 49 20 56 41h120c-17 -92 -81 -161 -189 -161zM158 -10c-87 0 -145 46 -124 193l43 307h169l-36 -244c-12 -79 -8 -105 22 -105c37 0 82 63 88 116l29 233h170l-60 -490h-166l4 64h-3
c-35 -45 -81 -74 -136 -74z" />
    <glyph glyph-name="ucircumflex" unicode="&#xfb;" horiz-adv-x="536" 
d="M138 554l113 155h145l82 -155h-141l-18 73h-1l-35 -73h-145zM158 -10c-87 0 -145 46 -124 193l43 307h169l-36 -244c-12 -79 -8 -105 22 -105c37 0 82 63 88 116l29 233h170l-60 -490h-166l4 64h-3c-35 -45 -81 -74 -136 -74z" />
    <glyph glyph-name="udieresis" unicode="&#xfc;" horiz-adv-x="536" 
d="M203 546c-60 0 -99 40 -99 94s41 95 102 95c60 0 99 -39 99 -92c0 -56 -41 -97 -102 -97zM433 546c-59 0 -99 40 -99 94s41 95 103 95c59 0 99 -39 99 -92c0 -56 -41 -97 -103 -97zM158 -10c-87 0 -145 46 -124 193l43 307h169l-36 -244c-12 -79 -8 -105 22 -105
c37 0 82 63 88 116l29 233h170l-60 -490h-166l4 64h-3c-35 -45 -81 -74 -136 -74z" />
    <glyph glyph-name="uni1EE5" unicode="&#x1ee5;" horiz-adv-x="536" 
d="M158 -10c-87 0 -145 46 -124 193l43 307h169l-36 -244c-12 -79 -8 -105 22 -105c37 0 82 63 88 116l29 233h170l-60 -490h-166l4 64h-3c-35 -45 -81 -74 -136 -74zM220 -50c60 0 100 -40 100 -94s-41 -95 -103 -95c-60 0 -99 39 -99 92c0 56 41 97 102 97z" />
    <glyph glyph-name="ugrave" unicode="&#xf9;" horiz-adv-x="536" 
d="M227 558l-92 152l164 -1l79 -151h-151zM158 -10c-87 0 -145 46 -124 193l43 307h169l-36 -244c-12 -79 -8 -105 22 -105c37 0 82 63 88 116l29 233h170l-60 -490h-166l4 64h-3c-35 -45 -81 -74 -136 -74z" />
    <glyph glyph-name="uni1EE7" unicode="&#x1ee7;" horiz-adv-x="536" 
d="M337 541l-85 1c24 19 48 44 52 71c2 14 -5 24 -23 24c-17 0 -40 -8 -55 -18l-19 67c31 28 89 55 139 55c59 0 92 -26 92 -71c0 -50 -37 -100 -101 -129zM158 -10c-87 0 -145 46 -124 193l43 307h169l-36 -244c-12 -79 -8 -105 22 -105c37 0 82 63 88 116l29 233h170
l-60 -490h-166l4 64h-3c-35 -45 -81 -74 -136 -74z" />
    <glyph glyph-name="uhorn" unicode="&#x1b0;" horiz-adv-x="668" 
d="M576 565h131l-10 -84c-15 -125 -78 -180 -155 -180c-17 0 -32 2 -45 5l-38 -306h-166l4 64h-3c-35 -45 -81 -74 -136 -74c-87 0 -145 46 -124 193l43 307h169l-36 -244c-12 -79 -8 -105 22 -105c37 0 82 63 88 116l29 233h170l-15 -119c4 0 7 -1 10 -1c35 0 43 50 51 114
z" />
    <glyph glyph-name="uni1EE9" unicode="&#x1ee9;" horiz-adv-x="668" 
d="M521 709l-130 -152h-154l116 151zM576 565h131l-10 -84c-15 -125 -78 -180 -155 -180c-17 0 -32 2 -45 5l-38 -306h-166l4 64h-3c-35 -45 -81 -74 -136 -74c-87 0 -145 46 -124 193l43 307h169l-36 -244c-12 -79 -8 -105 22 -105c37 0 82 63 88 116l29 233h170l-15 -119
c4 0 7 -1 10 -1c35 0 43 50 51 114z" />
    <glyph glyph-name="uni1EF1" unicode="&#x1ef1;" horiz-adv-x="668" 
d="M576 565h131l-10 -84c-15 -125 -78 -180 -155 -180c-17 0 -32 2 -45 5l-38 -306h-166l4 64h-3c-35 -45 -81 -74 -136 -74c-87 0 -145 46 -124 193l43 307h169l-36 -244c-12 -79 -8 -105 22 -105c37 0 82 63 88 116l29 233h170l-15 -119c4 0 7 -1 10 -1c35 0 43 50 51 114
zM220 -50c60 0 100 -40 100 -94s-41 -95 -103 -95c-60 0 -99 39 -99 92c0 56 41 97 102 97z" />
    <glyph glyph-name="uni1EEB" unicode="&#x1eeb;" horiz-adv-x="668" 
d="M378 558h-151l-92 152l164 -1zM576 565h131l-10 -84c-15 -125 -78 -180 -155 -180c-17 0 -32 2 -45 5l-38 -306h-166l4 64h-3c-35 -45 -81 -74 -136 -74c-87 0 -145 46 -124 193l43 307h169l-36 -244c-12 -79 -8 -105 22 -105c37 0 82 63 88 116l29 233h170l-15 -119
c4 0 7 -1 10 -1c35 0 43 50 51 114z" />
    <glyph glyph-name="uni1EED" unicode="&#x1eed;" horiz-adv-x="668" 
d="M281 637c-17 0 -40 -8 -55 -18l-19 67c31 28 89 55 139 55c59 0 92 -26 92 -71c0 -50 -37 -100 -101 -129l-85 1c24 19 48 44 52 71c2 14 -5 24 -23 24zM576 565h131l-10 -84c-15 -125 -78 -180 -155 -180c-17 0 -32 2 -45 5l-38 -306h-166l4 64h-3
c-35 -45 -81 -74 -136 -74c-87 0 -145 46 -124 193l43 307h169l-36 -244c-12 -79 -8 -105 22 -105c37 0 82 63 88 116l29 233h170l-15 -119c4 0 7 -1 10 -1c35 0 43 50 51 114z" />
    <glyph glyph-name="uni1EEF" unicode="&#x1eef;" horiz-adv-x="668" 
d="M275 593c-24 0 -44 -22 -58 -49l-92 45c30 73 77 127 135 127c41 0 62 -16 76 -26c18 -12 28 -17 40 -17c25 0 46 22 60 48l91 -38c-29 -77 -75 -135 -133 -135c-38 0 -60 17 -77 29c-16 12 -29 16 -42 16zM576 565h131l-10 -84c-15 -125 -78 -180 -155 -180
c-17 0 -32 2 -45 5l-38 -306h-166l4 64h-3c-35 -45 -81 -74 -136 -74c-87 0 -145 46 -124 193l43 307h169l-36 -244c-12 -79 -8 -105 22 -105c37 0 82 63 88 116l29 233h170l-15 -119c4 0 7 -1 10 -1c35 0 43 50 51 114z" />
    <glyph glyph-name="uhungarumlaut" unicode="&#x171;" horiz-adv-x="536" 
d="M128 557l116 151l164 1l-130 -152h-150zM347 557l115 151l164 1l-129 -152h-150zM158 -10c-87 0 -145 46 -124 193l43 307h169l-36 -244c-12 -79 -8 -105 22 -105c37 0 82 63 88 116l29 233h170l-60 -490h-166l4 64h-3c-35 -45 -81 -74 -136 -74z" />
    <glyph glyph-name="umacron" unicode="&#x16b;" horiz-adv-x="536" 
d="M167 579l16 127h291l-16 -127h-291zM158 -10c-87 0 -145 46 -124 193l43 307h169l-36 -244c-12 -79 -8 -105 22 -105c37 0 82 63 88 116l29 233h170l-60 -490h-166l4 64h-3c-35 -45 -81 -74 -136 -74z" />
    <glyph glyph-name="uni01D4" unicode="&#x1d4;" horiz-adv-x="536" 
d="M226 544l-67 151h138l25 -69h1l41 69h135l-101 -151h-172zM158 -10c-87 0 -145 46 -124 193l43 307h169l-36 -244c-12 -79 -8 -105 22 -105c37 0 82 63 88 116l29 233h170l-60 -490h-166l4 64h-3c-35 -45 -81 -74 -136 -74z" />
    <glyph glyph-name="uni01D6" unicode="&#x1d6;" horiz-adv-x="536" 
d="M178 736l11 89h291l-11 -89h-291zM211 538c-51 0 -88 36 -88 84c0 46 37 82 88 82c52 0 90 -35 90 -82c0 -49 -38 -84 -90 -84zM416 538c-51 0 -88 36 -88 84c0 46 37 82 88 82c52 0 90 -35 90 -82c0 -49 -38 -84 -90 -84zM158 -10c-87 0 -145 46 -124 193l43 307h169
l-36 -244c-12 -79 -8 -105 22 -105c37 0 82 63 88 116l29 233h170l-60 -490h-166l4 64h-3c-35 -45 -81 -74 -136 -74z" />
    <glyph glyph-name="uni01D8" unicode="&#x1d8;" horiz-adv-x="536" 
d="M260 724l109 133l155 1l-138 -134h-126zM211 538c-51 0 -88 36 -88 84c0 46 37 82 88 82c52 0 90 -35 90 -82c0 -49 -38 -84 -90 -84zM416 538c-51 0 -88 36 -88 84c0 46 37 82 88 82c52 0 90 -35 90 -82c0 -49 -38 -84 -90 -84zM158 -10c-87 0 -145 46 -124 193l43 307
h169l-36 -244c-12 -79 -8 -105 22 -105c37 0 82 63 88 116l29 233h170l-60 -490h-166l4 64h-3c-35 -45 -81 -74 -136 -74z" />
    <glyph glyph-name="uni01DA" unicode="&#x1da;" horiz-adv-x="536" 
d="M235 719l-67 136h138l25 -62h1l41 62h135l-101 -136h-172zM211 538c-51 0 -88 36 -88 84c0 46 37 82 88 82c52 0 90 -35 90 -82c0 -49 -38 -84 -90 -84zM416 538c-51 0 -88 36 -88 84c0 46 37 82 88 82c52 0 90 -35 90 -82c0 -49 -38 -84 -90 -84zM158 -10
c-87 0 -145 46 -124 193l43 307h169l-36 -244c-12 -79 -8 -105 22 -105c37 0 82 63 88 116l29 233h170l-60 -490h-166l4 64h-3c-35 -45 -81 -74 -136 -74z" />
    <glyph glyph-name="uni01DC" unicode="&#x1dc;" horiz-adv-x="536" 
d="M257 725l-95 133l147 -1l66 -132h-118zM211 538c-51 0 -88 36 -88 84c0 46 37 82 88 82c52 0 90 -35 90 -82c0 -49 -38 -84 -90 -84zM416 538c-51 0 -88 36 -88 84c0 46 37 82 88 82c52 0 90 -35 90 -82c0 -49 -38 -84 -90 -84zM158 -10c-87 0 -145 46 -124 193l43 307
h169l-36 -244c-12 -79 -8 -105 22 -105c37 0 82 63 88 116l29 233h170l-60 -490h-166l4 64h-3c-35 -45 -81 -74 -136 -74z" />
    <glyph glyph-name="uni0251" unicode="&#x251;" horiz-adv-x="548" 
d="M176 -10c-100 0 -155 87 -155 201c0 185 107 309 226 309c52 0 86 -17 109 -42h3l4 32h171l-60 -490h-171l8 63l-3 1c-32 -45 -76 -74 -132 -74zM237 141c44 0 93 56 110 166l2 11c-19 21 -39 31 -67 31c-56 0 -90 -80 -90 -140c0 -41 19 -68 45 -68z" />
    <glyph glyph-name="uni0261" unicode="&#x261;" horiz-adv-x="543" 
d="M359 490h170l-52 -426c-27 -218 -157 -272 -288 -272c-64 0 -125 12 -184 48l52 128c40 -24 82 -35 121 -35c66 0 111 21 130 142l-3 1c-31 -41 -74 -71 -129 -71c-100 0 -155 87 -155 186c0 185 107 309 226 309c50 0 83 -15 106 -39l3 1zM237 156c45 0 91 60 107 159
l1 7c-18 18 -36 27 -63 27c-56 0 -90 -80 -90 -135c0 -40 19 -58 45 -58z" />
    <glyph glyph-name="uni1E31" unicode="&#x1e31;" horiz-adv-x="512" 
d="M441 -8c-12 -1 -23 -2 -55 -2c-76 0 -119 58 -140 136l-9 32c-13 -7 -25 -13 -38 -18l-16 -140h-166l90 736h170l-53 -429l2 -1c64 50 92 111 107 184h177c-19 -104 -69 -185 -135 -246l8 -30c19 -70 48 -80 93 -81zM268 557l116 151l168 1l-130 -152h-154z" />
    <glyph glyph-name="uogonek" unicode="&#x173;" horiz-adv-x="536" 
d="M349 490h170l-60 -490h-13c-52 -1 -99 -45 -99 -85c0 -16 8 -21 23 -21c11 0 23 3 30 6l2 -82c-21 -7 -45 -10 -77 -10c-65 0 -100 28 -100 80c0 44 28 89 68 118l4 58h-3c-35 -45 -81 -74 -136 -74c-87 0 -145 46 -124 193l43 307h169l-36 -244c-12 -79 -8 -105 22 -105
c37 0 82 63 88 116z" />
    <glyph glyph-name="uring" unicode="&#x16f;" horiz-adv-x="536" 
d="M320 537c-60 0 -105 46 -105 105c0 61 46 107 108 107c60 0 105 -45 105 -103c0 -62 -46 -109 -108 -109zM322 608c20 0 35 15 35 36c0 19 -15 34 -34 34c-21 0 -37 -15 -37 -35s15 -35 36 -35zM158 -10c-87 0 -145 46 -124 193l43 307h169l-36 -244
c-12 -79 -8 -105 22 -105c37 0 82 63 88 116l29 233h170l-60 -490h-166l4 64h-3c-35 -45 -81 -74 -136 -74z" />
    <glyph glyph-name="utilde" unicode="&#x169;" horiz-adv-x="536" 
d="M394 548c-38 0 -60 17 -77 29c-16 12 -29 16 -42 16c-24 0 -44 -22 -58 -49l-92 45c30 73 77 127 135 127c41 0 62 -16 76 -26c18 -12 28 -17 40 -17c25 0 46 22 60 48l91 -38c-29 -77 -75 -135 -133 -135zM158 -10c-87 0 -145 46 -124 193l43 307h169l-36 -244
c-12 -79 -8 -105 22 -105c37 0 82 63 88 116l29 233h170l-60 -490h-166l4 64h-3c-35 -45 -81 -74 -136 -74z" />
    <glyph glyph-name="v" unicode="v" horiz-adv-x="501" 
d="M185 -10c-131 0 -173 93 -159 213l36 287h168l-30 -245c-8 -63 -9 -104 18 -104s82 34 101 193c7 55 7 94 -2 156h169c11 -62 11 -122 3 -187c-29 -238 -163 -313 -304 -313z" />
    <glyph glyph-name="w" unicode="w" horiz-adv-x="747" 
d="M159 -10c-110 0 -150 93 -135 199l43 301h168l-37 -252c-8 -56 -8 -97 22 -97c24 0 65 36 78 142l26 207h162l-31 -256c-8 -67 -4 -93 19 -93c26 0 72 34 89 193c6 55 6 94 -1 156h171c10 -62 10 -122 2 -187c-28 -238 -157 -313 -292 -313c-77 0 -116 33 -132 86h-2
c-36 -57 -89 -86 -150 -86z" />
    <glyph glyph-name="wacute" unicode="&#x1e83;" horiz-adv-x="747" 
d="M333 557l116 151l168 1l-130 -152h-154zM159 -10c-110 0 -150 93 -135 199l43 301h168l-37 -252c-8 -56 -8 -97 22 -97c24 0 65 36 78 142l26 207h162l-31 -256c-8 -67 -4 -93 19 -93c26 0 72 34 89 193c6 55 6 94 -1 156h171c10 -62 10 -122 2 -187
c-28 -238 -157 -313 -292 -313c-77 0 -116 33 -132 86h-2c-36 -57 -89 -86 -150 -86z" />
    <glyph glyph-name="wcircumflex" unicode="&#x175;" horiz-adv-x="747" 
d="M241 554l113 155h145l82 -155h-141l-18 73h-1l-35 -73h-145zM159 -10c-110 0 -150 93 -135 199l43 301h168l-37 -252c-8 -56 -8 -97 22 -97c24 0 65 36 78 142l26 207h162l-31 -256c-8 -67 -4 -93 19 -93c26 0 72 34 89 193c6 55 6 94 -1 156h171c10 -62 10 -122 2 -187
c-28 -238 -157 -313 -292 -313c-77 0 -116 33 -132 86h-2c-36 -57 -89 -86 -150 -86z" />
    <glyph glyph-name="wdieresis" unicode="&#x1e85;" horiz-adv-x="747" 
d="M306 546c-60 0 -99 40 -99 94s41 95 102 95c60 0 99 -39 99 -92c0 -56 -41 -97 -102 -97zM536 546c-59 0 -99 40 -99 94s41 95 103 95c59 0 99 -39 99 -92c0 -56 -41 -97 -103 -97zM159 -10c-110 0 -150 93 -135 199l43 301h168l-37 -252c-8 -56 -8 -97 22 -97
c24 0 65 36 78 142l26 207h162l-31 -256c-8 -67 -4 -93 19 -93c26 0 72 34 89 193c6 55 6 94 -1 156h171c10 -62 10 -122 2 -187c-28 -238 -157 -313 -292 -313c-77 0 -116 33 -132 86h-2c-36 -57 -89 -86 -150 -86z" />
    <glyph glyph-name="wgrave" unicode="&#x1e81;" horiz-adv-x="747" 
d="M337 558l-92 152l164 -1l79 -151h-151zM159 -10c-110 0 -150 93 -135 199l43 301h168l-37 -252c-8 -56 -8 -97 22 -97c24 0 65 36 78 142l26 207h162l-31 -256c-8 -67 -4 -93 19 -93c26 0 72 34 89 193c6 55 6 94 -1 156h171c10 -62 10 -122 2 -187
c-28 -238 -157 -313 -292 -313c-77 0 -116 33 -132 86h-2c-36 -57 -89 -86 -150 -86z" />
    <glyph glyph-name="x" unicode="x" horiz-adv-x="476" 
d="M-28 0l176 256l-111 234h185l34 -99h1l56 99h189l-173 -243l115 -247h-178l-42 104h-2l-69 -104h-181z" />
    <glyph glyph-name="y" unicode="y" horiz-adv-x="528" 
d="M344 490h170l-52 -421c-27 -223 -156 -277 -282 -277c-60 0 -120 12 -180 48l52 122c40 -27 82 -35 116 -35c60 0 104 19 123 136h-3c-35 -46 -80 -73 -136 -73c-87 0 -144 46 -123 193l43 307h169l-35 -244c-11 -79 -10 -105 22 -105c36 0 81 65 87 113z" />
    <glyph glyph-name="yacute" unicode="&#xfd;" horiz-adv-x="528" 
d="M502 709l-130 -152h-154l116 151zM344 490h170l-52 -421c-27 -223 -156 -277 -282 -277c-60 0 -120 12 -180 48l52 122c40 -27 82 -35 116 -35c60 0 104 19 123 136h-3c-35 -46 -80 -73 -136 -73c-87 0 -144 46 -123 193l43 307h169l-35 -244c-11 -79 -10 -105 22 -105
c36 0 81 65 87 113z" />
    <glyph glyph-name="ycircumflex" unicode="&#x177;" horiz-adv-x="528" 
d="M305 627l-35 -73h-145l113 155h145l82 -155h-141l-18 73h-1zM344 490h170l-52 -421c-27 -223 -156 -277 -282 -277c-60 0 -120 12 -180 48l52 122c40 -27 82 -35 116 -35c60 0 104 19 123 136h-3c-35 -46 -80 -73 -136 -73c-87 0 -144 46 -123 193l43 307h169l-35 -244
c-11 -79 -10 -105 22 -105c36 0 81 65 87 113z" />
    <glyph glyph-name="ydieresis" unicode="&#xff;" horiz-adv-x="528" 
d="M190 546c-60 0 -99 40 -99 94s41 95 102 95c60 0 99 -39 99 -92c0 -56 -41 -97 -102 -97zM420 546c-59 0 -99 40 -99 94s41 95 103 95c59 0 99 -39 99 -92c0 -56 -41 -97 -103 -97zM315 254l29 236h170l-52 -421c-27 -223 -156 -277 -282 -277c-60 0 -120 12 -180 48
l52 122c40 -27 82 -35 116 -35c60 0 104 19 123 136h-3c-35 -46 -80 -73 -136 -73c-87 0 -144 46 -123 193l43 307h169l-35 -244c-11 -79 -10 -105 22 -105c36 0 81 65 87 113z" />
    <glyph glyph-name="uni1E8F" unicode="&#x1e8f;" horiz-adv-x="528" 
d="M302 546c-60 0 -100 40 -100 94s41 95 103 95c60 0 99 -39 99 -92c0 -56 -41 -97 -102 -97zM344 490h170l-52 -421c-27 -223 -156 -277 -282 -277c-60 0 -120 12 -180 48l52 122c40 -27 82 -35 116 -35c60 0 104 19 123 136h-3c-35 -46 -80 -73 -136 -73
c-87 0 -144 46 -123 193l43 307h169l-35 -244c-11 -79 -10 -105 22 -105c36 0 81 65 87 113z" />
    <glyph glyph-name="uni1EF5" unicode="&#x1ef5;" horiz-adv-x="528" 
d="M344 490h170l-52 -421c-27 -223 -156 -277 -282 -277c-60 0 -120 12 -180 48l52 122c40 -27 82 -35 116 -35c60 0 104 19 123 136h-3c-35 -46 -80 -73 -136 -73c-87 0 -144 46 -123 193l43 307h169l-35 -244c-11 -79 -10 -105 22 -105c36 0 81 65 87 113zM204 -210
c60 0 100 -40 100 -94s-41 -95 -103 -95c-60 0 -99 39 -99 92c0 56 41 97 102 97z" />
    <glyph glyph-name="ygrave" unicode="&#x1ef3;" horiz-adv-x="528" 
d="M393 558h-151l-92 152l164 -1zM344 490h170l-52 -421c-27 -223 -156 -277 -282 -277c-60 0 -120 12 -180 48l52 122c40 -27 82 -35 116 -35c60 0 104 19 123 136h-3c-35 -46 -80 -73 -136 -73c-87 0 -144 46 -123 193l43 307h169l-35 -244c-11 -79 -10 -105 22 -105
c36 0 81 65 87 113z" />
    <glyph glyph-name="uni1EF7" unicode="&#x1ef7;" horiz-adv-x="528" 
d="M268 637c-17 0 -40 -8 -55 -18l-19 67c31 28 89 55 139 55c59 0 92 -26 92 -71c0 -50 -37 -100 -101 -129l-85 1c24 19 48 44 52 71c2 14 -5 24 -23 24zM344 490h170l-52 -421c-27 -223 -156 -277 -282 -277c-60 0 -120 12 -180 48l52 122c40 -27 82 -35 116 -35
c60 0 104 19 123 136h-3c-35 -46 -80 -73 -136 -73c-87 0 -144 46 -123 193l43 307h169l-35 -244c-11 -79 -10 -105 22 -105c36 0 81 65 87 113z" />
    <glyph glyph-name="uni0233" unicode="&#x233;" horiz-adv-x="528" 
d="M461 706l-16 -127h-291l16 127h291zM344 490h170l-52 -421c-27 -223 -156 -277 -282 -277c-60 0 -120 12 -180 48l52 122c40 -27 82 -35 116 -35c60 0 104 19 123 136h-3c-35 -46 -80 -73 -136 -73c-87 0 -144 46 -123 193l43 307h169l-35 -244c-11 -79 -10 -105 22 -105
c36 0 81 65 87 113z" />
    <glyph glyph-name="uni1EF9" unicode="&#x1ef9;" horiz-adv-x="528" 
d="M262 593c-24 0 -44 -22 -58 -49l-92 45c30 73 77 127 135 127c41 0 62 -16 76 -26c18 -12 28 -17 40 -17c25 0 46 22 60 48l91 -38c-29 -77 -75 -135 -133 -135c-38 0 -60 17 -77 29c-16 12 -29 16 -42 16zM315 254l29 236h170l-52 -421c-27 -223 -156 -277 -282 -277
c-60 0 -120 12 -180 48l52 122c40 -27 82 -35 116 -35c60 0 104 19 123 136h-3c-35 -46 -80 -73 -136 -73c-87 0 -144 46 -123 193l43 307h169l-35 -244c-11 -79 -10 -105 22 -105c36 0 81 65 87 113z" />
    <glyph glyph-name="z" unicode="z" horiz-adv-x="438" 
d="M363 -27c-120 25 -243 27 -367 27l12 112l196 242v3h-146l16 133h369l-12 -112l-202 -243v-2c57 -3 115 -12 172 -29z" />
    <glyph glyph-name="zacute" unicode="&#x17a;" horiz-adv-x="438" 
d="M151 557l116 151l168 1l-130 -152h-154zM363 -27c-120 25 -243 27 -367 27l12 112l196 242v3h-146l16 133h369l-12 -112l-202 -243v-2c57 -3 115 -12 172 -29z" />
    <glyph glyph-name="zcaron" unicode="&#x17e;" horiz-adv-x="438" 
d="M180 544l-67 151h138l25 -69h1l41 69h135l-101 -151h-172zM363 -27c-120 25 -243 27 -367 27l12 112l196 242v3h-146l16 133h369l-12 -112l-202 -243v-2c57 -3 115 -12 172 -29z" />
    <glyph glyph-name="zdotaccent" unicode="&#x17c;" horiz-adv-x="438" 
d="M269 546c-60 0 -100 40 -100 94s41 95 103 95c60 0 99 -39 99 -92c0 -56 -41 -97 -102 -97zM363 -27c-120 25 -243 27 -367 27l12 112l196 242v3h-146l16 133h369l-12 -112l-202 -243v-2c57 -3 115 -12 172 -29z" />
    <glyph glyph-name="uni1E93" unicode="&#x1e93;" horiz-adv-x="438" 
d="M363 -27c-120 25 -243 27 -367 27l12 112l196 242v3h-146l16 133h369l-12 -112l-202 -243v-2c57 -3 115 -12 172 -29zM175 -50c60 0 100 -40 100 -94s-41 -95 -103 -95c-60 0 -99 39 -99 92c0 56 41 97 102 97z" />
    <glyph glyph-name="f.calt" horiz-adv-x="327" 
d="M27 0l43 354h-39l17 136h39l9 72c14 120 73 184 179 184c25 0 50 -5 72 -13l-29 -128c-4 0 -7 1 -11 1c-26 0 -36 -13 -45 -81l-4 -35h68l-17 -136h-68l-43 -354h-171z" />
    <glyph glyph-name="germandbls.calt" horiz-adv-x="768" 
d="M567 436c104 -61 189 -96 189 -207c0 -150 -102 -239 -259 -239c-73 0 -152 23 -213 84l92 154c35 -54 85 -79 128 -79c46 0 63 24 63 52c0 25 -20 37 -84 75c-39 23 -99 55 -129 95l119 191l-1 4c-34 4 -63 6 -86 6c-62 0 -118 -35 -129 -126l-55 -446h-176l56 452
c26 206 147 269 314 269c98 0 215 -18 317 -49z" />
    <glyph glyph-name="ordfeminine" unicode="&#xaa;" horiz-adv-x="333" 
d="M139 386c-48 0 -92 40 -92 121c0 112 66 186 142 186c28 0 46 -11 57 -25h1l3 19h114l-36 -295h-115l5 39h-2c-19 -26 -44 -45 -77 -45zM188 488c19 0 42 27 51 79l2 12c-11 9 -24 10 -32 10c-22 0 -45 -31 -45 -71c0 -17 8 -30 24 -30z" />
    <glyph glyph-name="ordmasculine" unicode="&#xba;" horiz-adv-x="320" 
d="M175 387c-74 0 -125 46 -125 128c0 95 58 178 170 178c74 0 122 -46 122 -128c0 -93 -50 -178 -167 -178zM187 490c26 0 45 31 45 64c0 32 -17 36 -26 36c-28 0 -45 -34 -45 -66c0 -28 16 -34 26 -34z" />
    <glyph glyph-name="uni0410" unicode="&#x410;" horiz-adv-x="629" 
d="M-33 0l318 710h170l144 -710h-188l-18 120h-192l-43 -120h-191zM256 270h115l-33 222h-2z" />
    <glyph glyph-name="uni0411" unicode="&#x411;" horiz-adv-x="573" 
d="M26 0l87 710h434l-20 -161h-259l-12 -101h94c158 0 205 -75 205 -181c0 -190 -96 -267 -305 -267h-224zM219 156h59c73 0 88 42 88 91c0 33 -19 51 -59 51h-70z" />
    <glyph glyph-name="uni0412" unicode="&#x412;" horiz-adv-x="578" 
d="M26 0l87 710h260c130 0 187 -51 187 -145c0 -68 -37 -145 -106 -181v-3c60 -25 97 -76 97 -151c0 -139 -73 -230 -278 -230h-247zM254 428h43c49 0 80 37 80 81c0 28 -16 43 -50 43h-57zM221 156h64c64 0 84 41 84 88c0 30 -19 49 -60 49h-71z" />
    <glyph glyph-name="uni0413" unicode="&#x413;" horiz-adv-x="508" 
d="M26 0l87 710h435l-20 -161h-252l-68 -549h-182z" />
    <glyph glyph-name="uni0403" unicode="&#x403;" horiz-adv-x="508" 
d="M221 754l115 142l165 1l-131 -143h-149zM26 0l87 710h435l-20 -161h-252l-68 -549h-182z" />
    <glyph glyph-name="uni0490" unicode="&#x490;" horiz-adv-x="508" 
d="M421 849h145l-38 -300h-252l-68 -549h-182l87 710h279z" />
    <glyph glyph-name="uni0414" unicode="&#x414;" horiz-adv-x="753" 
d="M734 162l-48 -299h-145l11 137h-410l-26 -137h-146l33 299h80c49 85 82 165 106 251c25 88 41 183 57 297h451l-68 -548h105zM397 547c-12 -73 -28 -146 -50 -215c-19 -60 -41 -117 -68 -170h172l47 385h-101z" />
    <glyph glyph-name="uni0415" unicode="&#x415;" horiz-adv-x="533" 
d="M25 0l87 710h428l-20 -161h-252l-15 -118h196l-18 -155h-196l-15 -115h271l-20 -161h-446z" />
    <glyph glyph-name="uni0400" unicode="&#x400;" horiz-adv-x="533" 
d="M294 752l-93 143l164 -1l80 -142h-151zM25 0l87 710h428l-20 -161h-252l-15 -118h196l-18 -155h-196l-15 -115h271l-20 -161h-446z" />
    <glyph glyph-name="uni0401" unicode="&#x401;" horiz-adv-x="533" 
d="M232 765c-60 0 -99 40 -99 94s41 95 102 95c60 0 99 -39 99 -92c0 -56 -41 -97 -102 -97zM462 765c-59 0 -99 40 -99 94s41 95 103 95c59 0 99 -39 99 -92c0 -56 -41 -97 -103 -97zM25 0l87 710h428l-20 -161h-252l-15 -118h196l-18 -155h-196l-15 -115h271l-20 -161
h-446z" />
    <glyph glyph-name="uni0416" unicode="&#x416;" horiz-adv-x="909" 
d="M956 710l-231 -334l158 -376h-207l-102 274l-40 -47l-28 -227h-175l27 220l-33 56l-157 -276h-203l234 379l-146 331h214l111 -304l3 1l36 303h177l-37 -297l3 -1l182 298h214z" />
    <glyph glyph-name="uni0417" unicode="&#x417;" horiz-adv-x="548" 
d="M250 -10c-96 0 -197 26 -257 120l122 119c35 -53 88 -73 136 -73c64 0 85 45 85 78s-27 54 -75 54h-99l18 144h81c58 0 97 25 97 70c0 38 -31 51 -71 51c-41 0 -85 -14 -120 -40l-96 124c69 58 156 81 242 81c139 0 228 -59 228 -164c0 -68 -39 -135 -115 -170v-3
c49 -26 97 -81 97 -164c0 -126 -84 -227 -273 -227z" />
    <glyph glyph-name="uni0418" unicode="&#x418;" horiz-adv-x="665" 
d="M26 0l87 710h180l-53 -413l3 -1l245 414h178l-88 -710h-180l48 390l-3 2l-241 -392h-176z" />
    <glyph glyph-name="uni0419" unicode="&#x419;" horiz-adv-x="665" 
d="M405 749c-111 0 -152 42 -164 147l130 11c5 -41 27 -63 51 -63c26 0 52 25 74 68l119 -41c-53 -87 -128 -122 -210 -122zM26 0l87 710h180l-53 -413l3 -1l245 414h178l-88 -710h-180l48 390l-3 2l-241 -392h-176z" />
    <glyph glyph-name="uni040D" unicode="&#x40d;" horiz-adv-x="665" 
d="M357 754l-93 143l164 -1l80 -142h-151zM26 0l87 710h180l-53 -413l3 -1l245 414h178l-88 -710h-180l48 390l-3 2l-241 -392h-176z" />
    <glyph glyph-name="uni048A" unicode="&#x48a;" horiz-adv-x="725" 
d="M405 749c-111 0 -152 42 -164 147l130 11c5 -41 27 -63 51 -63c26 0 52 25 74 68l119 -41c-53 -87 -128 -122 -210 -122zM598 161h116l-6 -39l-119 -259h-125l46 137h-112l48 390l-3 2l-241 -392h-176l87 710h180l-53 -413l3 -1l245 414h178z" />
    <glyph glyph-name="uni041A" unicode="&#x41a;" horiz-adv-x="615" 
d="M668 710l-249 -320l170 -390h-206l-104 261l-49 -59l-25 -202h-179l87 710h180l-32 -265l3 -1l190 266h214z" />
    <glyph glyph-name="uni040C" unicode="&#x40c;" horiz-adv-x="615" 
d="M539 897l-131 -143h-149l115 142zM668 710l-249 -320l170 -390h-206l-104 261l-49 -59l-25 -202h-179l87 710h180l-32 -265l3 -1l190 266h214z" />
    <glyph glyph-name="uni041B" unicode="&#x41b;" horiz-adv-x="682" 
d="M227 710h456l-87 -710h-182l68 549h-107c-24 -140 -44 -259 -76 -355c-43 -128 -102 -201 -232 -201c-37 0 -72 7 -91 14l27 148c13 -4 25 -6 34 -6c47 0 84 61 112 159c30 106 56 268 78 402z" />
    <glyph glyph-name="uni041C" unicode="&#x41c;" horiz-adv-x="781" 
d="M26 0l87 710h175l121 -366h3l193 366h177l-87 -710h-177l43 349l-2 1l-125 -221h-105l-80 227l-3 -1l-43 -355h-177z" />
    <glyph glyph-name="uni041D" unicode="&#x41d;" horiz-adv-x="655" 
d="M26 0l87 710h183l-35 -287h176l35 287h184l-88 -710h-183l32 262h-176l-32 -262h-183z" />
    <glyph glyph-name="uni041E" unicode="&#x41e;" horiz-adv-x="726" 
d="M332 -10c-175 0 -290 110 -290 303c0 227 146 427 378 427c174 0 291 -110 291 -300c0 -237 -137 -430 -379 -430zM346 160c104 0 176 106 176 248c0 100 -52 143 -118 143c-99 0 -174 -117 -174 -245c0 -101 52 -146 116 -146z" />
    <glyph glyph-name="uni041F" unicode="&#x41f;" horiz-adv-x="625" 
d="M26 0l87 710h513l-87 -710h-182l68 549h-149l-68 -549h-182z" />
    <glyph glyph-name="uni0420" unicode="&#x420;" horiz-adv-x="557" 
d="M26 0l87 710h252c144 0 204 -88 204 -199c0 -170 -103 -290 -284 -290h-56l-26 -221h-177zM249 379h39c57 0 93 50 93 105c0 51 -32 67 -63 67h-48z" />
    <glyph glyph-name="uni0421" unicode="&#x421;" horiz-adv-x="644" 
d="M334 -10c-167 0 -292 102 -292 301c0 236 149 429 380 429c82 0 181 -37 247 -149l-141 -109c-27 48 -68 84 -117 84c-111 0 -178 -128 -178 -246c0 -89 45 -135 114 -135c49 0 100 23 135 66l125 -118c-67 -80 -164 -123 -273 -123z" />
    <glyph glyph-name="uni0422" unicode="&#x422;" horiz-adv-x="535" 
d="M147 0l67 549h-158l20 161h497l-20 -161h-158l-67 -549h-181z" />
    <glyph glyph-name="uni0423" unicode="&#x423;" horiz-adv-x="610" 
d="M465 710h204l-271 -528c-57 -112 -109 -192 -216 -192c-66 0 -109 14 -140 33l59 153c24 -19 45 -24 65 -24c32 0 59 22 83 63l-192 495h199l82 -289h5z" />
    <glyph glyph-name="uni040E" unicode="&#x40e;" horiz-adv-x="610" 
d="M368 749c-111 0 -152 42 -164 147l130 11c5 -41 27 -63 51 -63c26 0 52 25 74 68l119 -41c-53 -87 -128 -122 -210 -122zM465 710h204l-271 -528c-57 -112 -109 -192 -216 -192c-66 0 -109 14 -140 33l59 153c24 -19 45 -24 65 -24c32 0 59 22 83 63l-192 495h199
l82 -289h5z" />
    <glyph glyph-name="uni0424" unicode="&#x424;" horiz-adv-x="809" 
d="M798 403c0 -175 -100 -326 -324 -335l-8 -68h-179l8 67c-151 4 -256 103 -256 251c0 172 113 344 330 346l7 58h179l-7 -59c149 -8 250 -109 250 -260zM220 341c0 -80 35 -120 101 -128l38 306c-88 -7 -139 -89 -139 -178zM485 215c85 14 132 77 132 170
c0 73 -36 122 -95 132z" />
    <glyph glyph-name="uni0425" unicode="&#x425;" horiz-adv-x="633" 
d="M-33 0l245 361l-147 349h191l85 -215h5l129 215h207l-238 -353l158 -357h-196l-91 220h-4l-144 -220h-200z" />
    <glyph glyph-name="uni0427" unicode="&#x427;" horiz-adv-x="598" 
d="M415 710h184l-88 -710h-183l31 255c-46 -28 -114 -41 -161 -41c-118 0 -165 75 -146 217l38 279h180l-34 -253c-9 -70 4 -87 52 -87c25 0 57 5 88 26z" />
    <glyph glyph-name="uni0426" unicode="&#x426;" horiz-adv-x="680" 
d="M661 161l-48 -298h-145l11 137h-453l87 710h182l-68 -549h147l68 549h182l-67 -549h104z" />
    <glyph glyph-name="uni0428" unicode="&#x428;" horiz-adv-x="919" 
d="M738 710h182l-87 -710h-807l87 710h182l-68 -549h132l68 549h178l-67 -549h132z" />
    <glyph glyph-name="uni0429" unicode="&#x429;" horiz-adv-x="976" 
d="M957 161l-48 -298h-145l11 137h-749l87 710h182l-68 -549h132l68 549h178l-67 -549h132l68 549h182l-67 -549h104z" />
    <glyph glyph-name="uni040F" unicode="&#x40f;" horiz-adv-x="624" 
d="M625 710l-87 -710h-178l-22 -137h-145l11 137h-178l87 710h182l-68 -549h148l68 549h182z" />
    <glyph glyph-name="uni042C" unicode="&#x42c;" horiz-adv-x="579" 
d="M26 0l87 710h178l-30 -246h99c155 0 205 -99 205 -201c0 -185 -96 -263 -297 -263h-242zM223 159h57c79 0 97 45 97 90c0 28 -19 59 -60 59h-75z" />
    <glyph glyph-name="uni042A" unicode="&#x42a;" horiz-adv-x="686" 
d="M467 464c155 0 205 -99 205 -201c0 -185 -96 -263 -297 -263h-242l67 549h-160l20 161h338l-30 -246h99zM387 159c79 0 97 45 97 90c0 28 -19 59 -60 59h-75l-19 -149h57z" />
    <glyph glyph-name="uni042B" unicode="&#x42b;" horiz-adv-x="870" 
d="M26 0l87 710h178l-30 -246h96c155 0 205 -99 205 -201c0 -185 -96 -263 -297 -263h-239zM600 0l87 710h184l-87 -710h-184zM223 159h54c79 0 97 45 97 90c0 28 -19 59 -60 59h-72z" />
    <glyph glyph-name="uni0409" unicode="&#x409;" horiz-adv-x="964" 
d="M745 464c155 0 205 -99 205 -201c0 -185 -96 -263 -297 -263h-242l67 549h-106c-24 -140 -44 -259 -76 -355c-43 -128 -99 -201 -229 -201c-37 0 -72 7 -91 14l27 148c13 -4 25 -6 34 -6c47 0 84 61 112 159c30 106 56 268 78 402h449l-30 -246h99zM665 159
c79 0 97 45 97 90c0 28 -19 59 -60 59h-75l-19 -149h57z" />
    <glyph glyph-name="uni040A" unicode="&#x40a;" horiz-adv-x="940" 
d="M720 452c155 0 205 -99 205 -201c0 -173 -96 -251 -297 -251h-248l34 274h-171l-34 -274h-183l87 710h183l-34 -275h171l34 275h178l-32 -258h107zM640 159c79 0 97 48 97 81c0 28 -17 56 -62 56h-81l-17 -137h63z" />
    <glyph glyph-name="uni0405" unicode="&#x405;" horiz-adv-x="536" 
d="M246 -10c-86 0 -188 33 -251 131l128 110c35 -55 86 -81 127 -81c48 0 71 24 71 51c0 25 -20 38 -84 75c-83 49 -174 96 -174 216c0 140 110 228 248 228c84 0 174 -35 223 -112l-127 -106c-39 50 -71 59 -101 59c-32 0 -55 -20 -54 -48c0 -21 10 -42 63 -73
c107 -64 195 -98 195 -211c0 -150 -107 -239 -264 -239z" />
    <glyph glyph-name="uni0404" unicode="&#x404;" horiz-adv-x="650" 
d="M354 156c49 0 94 16 138 59l125 -121c-74 -75 -164 -104 -272 -104c-178 0 -303 102 -303 302c0 245 139 428 370 428c77 0 185 -24 249 -120l-136 -115c-27 46 -80 66 -124 66c-71 0 -132 -48 -159 -123h246l-18 -145h-244c1 -86 51 -127 128 -127z" />
    <glyph glyph-name="uni042D" unicode="&#x42d;" horiz-adv-x="640" 
d="M328 721c193 0 296 -125 296 -306c0 -244 -127 -425 -366 -425c-95 0 -205 27 -265 120l125 114c32 -51 85 -68 137 -68c105 0 153 59 173 127h-245l18 145h245c-7 82 -57 127 -143 127c-45 0 -93 -18 -134 -49l-98 130c69 52 162 85 257 85z" />
    <glyph glyph-name="uni0406" unicode="&#x406;" horiz-adv-x="306" 
d="M31 0l87 710h184l-87 -710h-184z" />
    <glyph glyph-name="uni0407" unicode="&#x407;" horiz-adv-x="306" 
d="M109 765c-60 0 -99 40 -99 94s41 95 102 95c60 0 99 -39 99 -92c0 -56 -41 -97 -102 -97zM339 765c-59 0 -99 40 -99 94s41 95 103 95c59 0 99 -39 99 -92c0 -56 -41 -97 -103 -97zM31 0l87 710h184l-87 -710h-184z" />
    <glyph glyph-name="uni0408" unicode="&#x408;" horiz-adv-x="454" 
d="M165 -10c-72 0 -144 33 -180 100l117 121c10 -26 32 -47 59 -47s51 14 62 105l55 441h181l-55 -449c-23 -188 -90 -271 -239 -271z" />
    <glyph glyph-name="uni040B" unicode="&#x40b;" horiz-adv-x="716" 
d="M551 461c108 0 155 -75 136 -217l-33 -244h-180l29 218c9 69 -4 87 -44 87c-31 0 -65 -7 -96 -24l-35 -281h-181l67 549h-158l20 161h497l-20 -161h-158l-16 -133c47 24 117 45 172 45z" />
    <glyph glyph-name="uni042E" unicode="&#x42e;" horiz-adv-x="994" 
d="M690 719c177 0 295 -110 295 -299c0 -234 -137 -429 -376 -429c-166 0 -270 119 -277 274h-94l-32 -265h-183l87 710h183l-35 -284h93c44 167 166 293 339 293zM627 161c93 0 168 108 168 252c0 96 -52 137 -116 137c-91 0 -168 -109 -168 -238c0 -107 52 -151 116 -151z
" />
    <glyph glyph-name="uni042F" unicode="&#x42f;" horiz-adv-x="598" 
d="M330 710h269l-87 -710h-177l27 221h-61l-132 -221h-196l171 272c-45 34 -80 90 -80 166c0 164 96 272 266 272zM380 376l22 175h-66c-55 0 -83 -48 -83 -96c0 -42 24 -79 71 -79h56z" />
    <glyph glyph-name="uni0402" unicode="&#x402;" horiz-adv-x="703" 
d="M511 459c113 0 179 -80 179 -186c0 -175 -101 -284 -253 -284c-21 0 -43 2 -66 6l24 142h11c61 0 95 46 95 102c0 42 -26 60 -65 60c-25 0 -56 -5 -84 -18l-34 -281h-181l67 549h-158l20 161h497l-20 -161h-158l-16 -130c40 25 93 40 142 40z" />
    <glyph glyph-name="uni0462" unicode="&#x462;" horiz-adv-x="653" 
d="M442 434c145 0 195 -88 195 -184c0 -173 -91 -250 -283 -250h-246l62 505h-135l18 142h134l8 63h174l-8 -63h176l-18 -142h-175l-9 -71h107zM366 156c67 0 82 38 82 80c0 33 -16 55 -53 55h-77l-17 -135h65z" />
    <glyph glyph-name="uni0472" unicode="&#x472;" horiz-adv-x="726" 
d="M420 720c174 0 291 -110 291 -300c0 -237 -136 -430 -376 -430c-178 0 -293 110 -293 303c0 227 146 427 378 427zM405 556c-80 0 -138 -49 -164 -128h287c-1 93 -55 128 -123 128zM349 155c78 0 134 45 161 128h-286c2 -89 57 -128 125 -128z" />
    <glyph glyph-name="uni0474" unicode="&#x474;" horiz-adv-x="671" 
d="M205 0l-146 710h195l57 -448h2l88 284c40 130 84 173 188 173c49 0 104 -10 155 -33l-60 -156c-22 10 -39 15 -54 15c-46 0 -63 -50 -95 -126l-174 -419h-156z" />
    <glyph glyph-name="uni0492" unicode="&#x492;" horiz-adv-x="552" 
d="M572 549h-254l-20 -158h174l-15 -122h-174l-33 -269h-180l33 269h-94l15 122h94l39 319h435z" />
    <glyph glyph-name="uni0494" unicode="&#x494;" horiz-adv-x="590" 
d="M369 399c120 0 189 -87 189 -242c0 -197 -90 -362 -288 -362c-22 0 -41 2 -60 6l23 138c5 -1 10 -1 15 -1c89 0 122 116 122 205c0 74 -28 98 -70 98c-22 0 -47 -5 -68 -15l-28 -226h-178l87 710h435l-20 -161h-256l-22 -178c34 16 77 28 119 28z" />
    <glyph glyph-name="uni0496" unicode="&#x496;" horiz-adv-x="966" 
d="M725 376l90 -215h132l-48 -298h-145l11 137h-89l-102 274l-40 -47l-28 -227h-175l27 220l-33 56l-157 -276h-203l234 379l-146 331h214l111 -304l3 1l36 303h177l-37 -297l3 -1l182 298h214z" />
    <glyph glyph-name="uni0498" unicode="&#x498;" horiz-adv-x="548" 
d="M426 381c49 -26 97 -81 97 -164c0 -120 -77 -218 -248 -226l-8 -17c35 -6 75 -25 75 -70c0 -69 -62 -97 -149 -97c-19 0 -39 2 -57 6l4 68c11 -3 22 -4 39 -4c32 0 48 10 48 29c0 21 -40 28 -55 30l28 57c-80 8 -157 39 -207 117l122 119c35 -53 88 -73 136 -73
c64 0 85 45 85 78s-27 54 -75 54h-99l18 144h81c58 0 97 25 97 70c0 38 -31 51 -71 51c-41 0 -85 -14 -120 -40l-96 124c69 58 156 81 242 81c139 0 228 -59 228 -164c0 -68 -39 -135 -115 -170v-3z" />
    <glyph glyph-name="uni049A" unicode="&#x49a;" horiz-adv-x="672" 
d="M419 390l100 -229h134l-48 -298h-145l11 137h-88l-104 261l-49 -59l-25 -202h-179l87 710h180l-32 -265l3 -1l190 266h214z" />
    <glyph glyph-name="uni049C" unicode="&#x49c;" horiz-adv-x="738" 
d="M785 710l-207 -347l134 -363h-204l-92 281h-6l-21 -166h-110l21 167h-58l-35 -282h-181l87 710h181l-38 -309l59 3l25 198h110l-24 -193l6 1l140 300h213z" />
    <glyph glyph-name="uni049E" unicode="&#x49e;" horiz-adv-x="624" 
d="M677 710l-248 -337l169 -373h-206l-102 246l-55 -81l-21 -165h-179l64 526h-69l15 122h69l8 62h180l-8 -62h39l-14 -122h-40l-14 -113h1l197 297h214z" />
    <glyph glyph-name="uni04A0" unicode="&#x4a0;" horiz-adv-x="721" 
d="M774 710l-249 -320l170 -390h-206l-104 261l-49 -59l-25 -202h-179l67 549h-159l20 161h339l-32 -265l3 -1l190 266h214z" />
    <glyph glyph-name="uni04A2" unicode="&#x4a2;" horiz-adv-x="712" 
d="M692 161l-48 -298h-145l11 137h-125l32 262h-176l-32 -262h-183l87 710h183l-35 -287h176l35 287h184l-68 -549h104z" />
    <glyph glyph-name="uni04A4" unicode="&#x4a4;" horiz-adv-x="782" 
d="M467 710h355l-20 -161h-172l-68 -549h-182l32 262h-171l-32 -262h-183l87 710h183l-35 -287h171z" />
    <glyph glyph-name="uni04A6" unicode="&#x4a6;" horiz-adv-x="918" 
d="M697 399c120 0 189 -87 189 -242c0 -197 -90 -362 -288 -362c-22 0 -41 2 -60 6l23 138c5 -1 10 -1 15 -1c89 0 122 116 122 205c0 74 -28 98 -70 98c-21 0 -44 -5 -64 -13l-28 -228h-179l68 549h-149l-68 -549h-182l87 710h510l-41 -337c33 15 75 26 115 26z" />
    <glyph glyph-name="uni0524" unicode="&#x524;" horiz-adv-x="682" 
d="M663 161l-48 -298h-145l11 137h-124l68 549h-149l-68 -549h-182l87 710h513l-67 -549h104z" />
    <glyph glyph-name="uni04A8" unicode="&#x4a8;" horiz-adv-x="812" 
d="M804 36c-32 -30 -87 -45 -143 -45c-62 0 -119 15 -150 44c-44 -29 -103 -45 -172 -45c-180 0 -305 110 -305 303c0 227 146 427 378 427c10 0 20 -1 30 -1l-37 -160h-9c-99 0 -174 -125 -174 -253c0 -104 56 -169 156 -169c4 0 9 0 14 1l1 2c-28 46 -45 105 -45 161
c0 163 90 318 232 318c134 0 192 -91 192 -211c0 -113 -52 -214 -136 -280v-1c10 -2 19 -3 27 -3c27 0 53 10 78 27zM563 464c-41 0 -67 -123 -67 -189c0 -30 5 -58 15 -86l2 -1c49 61 71 150 71 219c0 35 -9 57 -21 57z" />
    <glyph glyph-name="uni04AA" unicode="&#x4aa;" horiz-adv-x="644" 
d="M347 165c49 0 100 23 135 66l125 -118c-60 -71 -143 -113 -238 -121l-8 -18c35 -6 75 -25 75 -70c0 -69 -62 -97 -149 -97c-19 0 -39 2 -57 6l4 68c11 -3 22 -4 39 -4c32 0 48 10 48 29c0 21 -40 28 -55 30l28 56c-147 15 -252 116 -252 299c0 236 149 429 380 429
c82 0 181 -37 247 -149l-141 -109c-27 48 -68 84 -117 84c-111 0 -178 -128 -178 -246c0 -89 45 -135 114 -135z" />
    <glyph glyph-name="uni04AC" unicode="&#x4ac;" horiz-adv-x="535" 
d="M553 549h-158l-47 -388h104l-48 -298h-145l11 137h-123l67 549h-158l20 161h497z" />
    <glyph glyph-name="uni04AE" unicode="&#x4ae;" horiz-adv-x="581" 
d="M168 0l39 308l-155 402h199l66 -233h3l119 233h206l-255 -402l-38 -308h-184z" />
    <glyph glyph-name="uni04B0" unicode="&#x4b0;" horiz-adv-x="581" 
d="M645 710l-222 -350h106l-15 -122h-133l-29 -238h-184l30 238h-132l15 122h106l-135 350h199l66 -233h3l119 233h206z" />
    <glyph glyph-name="uni04B2" unicode="&#x4b2;" horiz-adv-x="688" 
d="M444 357l87 -196h138l-48 -298h-145l11 137h-81l-91 220h-4l-144 -220h-200l245 361l-147 349h191l85 -215h5l129 215h207z" />
    <glyph glyph-name="uni04B4" unicode="&#x4b4;" horiz-adv-x="796" 
d="M777 161l-48 -298h-145l11 137h-453l67 549h-153l20 161h431l-20 -161h-96l-48 -388h147l68 549h182l-67 -549h104z" />
    <glyph glyph-name="uni04B6" unicode="&#x4b6;" horiz-adv-x="655" 
d="M531 161h104l-48 -298h-145l11 137h-125l31 255c-46 -28 -114 -41 -161 -41c-118 0 -165 75 -146 217l38 279h180l-34 -253c-9 -70 4 -87 52 -87c25 0 57 5 88 26l39 314h184z" />
    <glyph glyph-name="uni04B8" unicode="&#x4b8;" horiz-adv-x="646" 
d="M466 710h181l-88 -710h-180l32 258c-12 -6 -26 -12 -41 -16l-16 -127h-110l13 103c-23 -3 -44 -4 -59 -4c-118 0 -165 75 -146 217l38 279h175l-33 -253c-9 -76 1 -96 42 -98l18 142h110l-16 -129c14 4 28 8 40 14z" />
    <glyph glyph-name="uni04BA" unicode="&#x4ba;" horiz-adv-x="607" 
d="M438 496c120 0 164 -75 144 -219l-37 -277h-180l34 253c8 64 -4 87 -52 87c-25 0 -64 -5 -98 -24l-39 -316h-184l88 710h183l-31 -254c47 24 117 40 172 40z" />
    <glyph glyph-name="uni04BC" unicode="&#x4bc;" horiz-adv-x="816" 
d="M791 300h-449c-4 -93 47 -143 148 -143c52 0 103 26 138 69l121 -113c-67 -80 -154 -123 -273 -123c-185 0 -313 110 -313 300v10c-102 2 -152 52 -152 125c0 35 13 83 37 117l116 -30c-13 -19 -22 -36 -22 -49c0 -14 10 -23 31 -23h10c45 163 167 280 341 280
c176 0 286 -110 286 -303c0 -35 -8 -84 -19 -117zM518 560c-68 0 -116 -43 -145 -109h264c-4 74 -59 109 -119 109z" />
    <glyph glyph-name="uni04BE" unicode="&#x4be;" horiz-adv-x="816" 
d="M791 300h-449c-4 -93 47 -143 148 -143c52 0 103 26 138 69l121 -113c-57 -69 -130 -110 -224 -120l-21 -130h-145l11 141c-126 34 -207 135 -207 286v10c-102 2 -152 52 -152 125c0 35 13 83 37 117l116 -30c-13 -19 -22 -36 -22 -49c0 -14 10 -23 31 -23h10
c45 163 167 280 341 280c176 0 286 -110 286 -303c0 -35 -8 -84 -19 -117zM518 560c-68 0 -116 -43 -145 -109h264c-4 74 -59 109 -119 109z" />
    <glyph glyph-name="uni04C0" unicode="&#x4c0;" horiz-adv-x="306" 
d="M31 0l87 710h184l-87 -710h-184z" />
    <glyph glyph-name="uni04C1" unicode="&#x4c1;" horiz-adv-x="909" 
d="M517 749c-111 0 -152 42 -164 147l130 11c5 -41 27 -63 51 -63c26 0 52 25 74 68l119 -41c-53 -87 -128 -122 -210 -122zM956 710l-231 -334l158 -376h-207l-102 274l-40 -47l-28 -227h-175l27 220l-33 56l-157 -276h-203l234 379l-146 331h214l111 -304l3 1l36 303h177
l-37 -297l3 -1l182 298h214z" />
    <glyph glyph-name="uni04C3" unicode="&#x4c3;" horiz-adv-x="621" 
d="M420 392c96 -31 155 -129 155 -245c0 -187 -91 -352 -289 -352c-22 0 -41 2 -60 6l23 138c5 -1 10 -1 15 -1c89 0 122 116 122 187c0 87 -45 128 -104 136c-13 2 -28 3 -43 4l-34 -265h-179l87 710h180l-32 -265l3 -1l190 266h214z" />
    <glyph glyph-name="uni04C5" unicode="&#x4c5;" horiz-adv-x="742" 
d="M616 161h116l-6 -39l-119 -259h-125l46 137h-114l68 549h-107c-24 -140 -44 -259 -76 -355c-43 -128 -102 -201 -232 -201c-37 0 -72 7 -91 14l27 148c13 -4 25 -6 34 -6c47 0 84 61 112 159c30 106 56 268 78 402h456z" />
    <glyph glyph-name="uni04C7" unicode="&#x4c7;" horiz-adv-x="655" 
d="M472 710h184l-88 -710c-19 -154 -107 -205 -245 -205c-15 0 -43 1 -67 6l23 135c10 -1 19 -2 28 -2c42 0 71 15 78 66l32 262h-176l-32 -262h-183l87 710h183l-35 -287h176z" />
    <glyph glyph-name="uni04C9" unicode="&#x4c9;" horiz-adv-x="715" 
d="M588 161h116l-6 -39l-119 -259h-125l46 137h-115l32 262h-176l-32 -262h-183l87 710h183l-35 -287h176l35 287h184z" />
    <glyph glyph-name="uni04CB" unicode="&#x4cb;" horiz-adv-x="598" 
d="M415 710h184l-88 -710h-128l-27 -137h-143l30 276h102l14 116c-46 -28 -114 -41 -161 -41c-118 0 -165 75 -146 217l38 279h180l-34 -253c-9 -70 4 -87 52 -87c25 0 57 5 88 26z" />
    <glyph glyph-name="uni04CD" unicode="&#x4cd;" horiz-adv-x="841" 
d="M715 161h116l-6 -39l-119 -259h-125l46 137h-109l43 349l-2 1l-125 -221h-105l-80 227l-3 -1l-43 -355h-177l87 710h175l121 -366h3l193 366h177z" />
    <glyph glyph-name="uni04D0" unicode="&#x4d0;" horiz-adv-x="629" 
d="M386 749c-111 0 -152 42 -164 147l130 11c5 -41 27 -63 51 -63c26 0 52 25 74 68l119 -41c-53 -87 -128 -122 -210 -122zM-33 0l318 710h170l144 -710h-188l-18 120h-192l-43 -120h-191zM256 270h115l-33 222h-2z" />
    <glyph glyph-name="uni04D2" unicode="&#x4d2;" horiz-adv-x="629" 
d="M276 767c-60 0 -99 40 -99 94s41 95 102 95c60 0 99 -39 99 -92c0 -56 -41 -97 -102 -97zM506 767c-59 0 -99 40 -99 94s41 95 103 95c59 0 99 -39 99 -92c0 -56 -41 -97 -103 -97zM-33 0l318 710h170l144 -710h-188l-18 120h-192l-43 -120h-191zM256 270h115l-33 222h-2
z" />
    <glyph glyph-name="uni04D4" unicode="&#x4d4;" horiz-adv-x="861" 
d="M-33 0l381 710h520l-20 -161h-253l-15 -119h201l-20 -155h-200l-14 -114h272l-20 -161h-447l15 120h-148l-61 -120h-191zM295 272h91l28 231h-2z" />
    <glyph glyph-name="uni04D6" unicode="&#x4d6;" horiz-adv-x="533" 
d="M342 747c-111 0 -152 42 -164 147l130 11c5 -41 27 -63 51 -63c26 0 52 25 74 68l119 -41c-53 -87 -128 -122 -210 -122zM25 0l87 710h428l-20 -161h-252l-15 -118h196l-18 -155h-196l-15 -115h271l-20 -161h-446z" />
    <glyph glyph-name="uni04D8" unicode="&#x4d8;" horiz-adv-x="697" 
d="M389 720c175 0 293 -110 293 -300c0 -237 -137 -430 -361 -430c-176 0 -286 110 -286 303c0 35 8 84 19 117h445c-1 93 -54 143 -121 143c-46 0 -90 -18 -129 -56l-107 134c63 52 165 89 247 89zM328 150c68 0 116 32 144 109h-263c4 -74 59 -109 119 -109z" />
    <glyph glyph-name="uni04DA" unicode="&#x4da;" horiz-adv-x="697" 
d="M321 767c-60 0 -99 40 -99 94s41 95 102 95c60 0 99 -39 99 -92c0 -56 -41 -97 -102 -97zM551 767c-59 0 -99 40 -99 94s41 95 103 95c59 0 99 -39 99 -92c0 -56 -41 -97 -103 -97zM389 720c175 0 293 -110 293 -300c0 -237 -137 -430 -361 -430
c-176 0 -286 110 -286 303c0 35 8 84 19 117h445c-1 93 -54 143 -121 143c-46 0 -90 -18 -129 -56l-107 134c63 52 165 89 247 89zM328 150c68 0 116 32 144 109h-263c4 -74 59 -109 119 -109z" />
    <glyph glyph-name="uni04DC" unicode="&#x4dc;" horiz-adv-x="909" 
d="M407 767c-60 0 -99 40 -99 94s41 95 102 95c60 0 99 -39 99 -92c0 -56 -41 -97 -102 -97zM637 767c-59 0 -99 40 -99 94s41 95 103 95c59 0 99 -39 99 -92c0 -56 -41 -97 -103 -97zM956 710l-231 -334l158 -376h-207l-102 274l-40 -47l-28 -227h-175l27 220l-33 56
l-157 -276h-203l234 379l-146 331h214l111 -304l3 1l36 303h177l-37 -297l3 -1l182 298h214z" />
    <glyph glyph-name="uni04DE" unicode="&#x4de;" horiz-adv-x="548" 
d="M233 767c-60 0 -99 40 -99 94s41 95 102 95c60 0 99 -39 99 -92c0 -56 -41 -97 -102 -97zM463 767c-59 0 -99 40 -99 94s41 95 103 95c59 0 99 -39 99 -92c0 -56 -41 -97 -103 -97zM250 -10c-96 0 -197 26 -257 120l122 119c35 -53 88 -73 136 -73c64 0 85 45 85 78
s-27 54 -75 54h-99l18 144h81c58 0 97 25 97 70c0 38 -31 51 -71 51c-41 0 -85 -14 -120 -40l-96 124c69 58 156 81 242 81c139 0 228 -59 228 -164c0 -68 -39 -135 -115 -170v-3c49 -26 97 -81 97 -164c0 -126 -84 -227 -273 -227z" />
    <glyph glyph-name="uni04E0" unicode="&#x4e0;" horiz-adv-x="536" 
d="M250 -10c-96 0 -197 26 -257 120l122 119c35 -53 88 -73 136 -73c64 0 85 45 85 73c0 50 -39 68 -133 68h-43l8 87l152 162l-2 3h-218l19 161h432l-14 -111l-165 -177v-2c102 -26 151 -93 151 -193c0 -136 -84 -237 -273 -237z" />
    <glyph glyph-name="uni04E2" unicode="&#x4e2;" horiz-adv-x="665" 
d="M255 776l16 122h291l-16 -122h-291zM26 0l87 710h180l-53 -413l3 -1l245 414h178l-88 -710h-180l48 390l-3 2l-241 -392h-176z" />
    <glyph glyph-name="uni04E4" unicode="&#x4e4;" horiz-adv-x="665" 
d="M295 767c-60 0 -99 40 -99 94s41 95 102 95c60 0 99 -39 99 -92c0 -56 -41 -97 -102 -97zM525 767c-59 0 -99 40 -99 94s41 95 103 95c59 0 99 -39 99 -92c0 -56 -41 -97 -103 -97zM26 0l87 710h180l-53 -413l3 -1l245 414h178l-88 -710h-180l48 390l-3 2l-241 -392h-176
z" />
    <glyph glyph-name="uni04E6" unicode="&#x4e6;" horiz-adv-x="726" 
d="M351 767c-60 0 -99 40 -99 94s41 95 102 95c60 0 99 -39 99 -92c0 -56 -41 -97 -102 -97zM581 767c-59 0 -99 40 -99 94s41 95 103 95c59 0 99 -39 99 -92c0 -56 -41 -97 -103 -97zM332 -10c-175 0 -290 110 -290 303c0 227 146 427 378 427c174 0 291 -110 291 -300
c0 -237 -137 -430 -379 -430zM346 160c104 0 176 106 176 248c0 100 -52 143 -118 143c-99 0 -174 -117 -174 -245c0 -101 52 -146 116 -146z" />
    <glyph glyph-name="uni04E8" unicode="&#x4e8;" horiz-adv-x="726" 
d="M420 720c174 0 291 -110 291 -300c0 -237 -136 -430 -376 -430c-178 0 -293 110 -293 303c0 227 146 427 378 427zM405 556c-80 0 -138 -49 -164 -128h287c-1 93 -55 128 -123 128zM349 155c78 0 134 45 161 128h-286c2 -89 57 -128 125 -128z" />
    <glyph glyph-name="uni04EA" unicode="&#x4ea;" horiz-adv-x="726" 
d="M351 767c-60 0 -99 40 -99 94s41 95 102 95c60 0 99 -39 99 -92c0 -56 -41 -97 -102 -97zM581 767c-59 0 -99 40 -99 94s41 95 103 95c59 0 99 -39 99 -92c0 -56 -41 -97 -103 -97zM420 720c174 0 291 -110 291 -300c0 -237 -136 -430 -376 -430
c-178 0 -293 110 -293 303c0 227 146 427 378 427zM405 556c-80 0 -138 -49 -164 -128h287c-1 93 -55 128 -123 128zM349 155c78 0 134 45 161 128h-286c2 -89 57 -128 125 -128z" />
    <glyph glyph-name="uni04EC" unicode="&#x4ec;" horiz-adv-x="640" 
d="M263 767c-60 0 -99 40 -99 94s41 95 102 95c60 0 99 -39 99 -92c0 -56 -41 -97 -102 -97zM493 767c-59 0 -99 40 -99 94s41 95 103 95c59 0 99 -39 99 -92c0 -56 -41 -97 -103 -97zM328 721c193 0 296 -125 296 -306c0 -244 -127 -425 -366 -425c-95 0 -205 27 -265 120
l125 114c32 -51 85 -68 137 -68c105 0 153 59 173 127h-245l18 145h245c-7 82 -57 127 -143 127c-45 0 -93 -18 -134 -49l-98 130c69 52 162 85 257 85z" />
    <glyph glyph-name="uni04EE" unicode="&#x4ee;" horiz-adv-x="610" 
d="M525 898l-16 -122h-291l16 122h291zM465 710h204l-271 -528c-57 -112 -109 -192 -216 -192c-66 0 -109 14 -140 33l59 153c24 -19 45 -24 65 -24c32 0 59 22 83 63l-192 495h199l82 -289h5z" />
    <glyph glyph-name="uni04F0" unicode="&#x4f0;" horiz-adv-x="610" 
d="M258 767c-60 0 -99 40 -99 94s41 95 102 95c60 0 99 -39 99 -92c0 -56 -41 -97 -102 -97zM488 767c-59 0 -99 40 -99 94s41 95 103 95c59 0 99 -39 99 -92c0 -56 -41 -97 -103 -97zM465 710h204l-271 -528c-57 -112 -109 -192 -216 -192c-66 0 -109 14 -140 33l59 153
c24 -19 45 -24 65 -24c32 0 59 22 83 63l-192 495h199l82 -289h5z" />
    <glyph glyph-name="uni04F2" unicode="&#x4f2;" horiz-adv-x="610" 
d="M463 930l-130 -152h-150l116 151zM552 778h-150l115 151l164 1zM343 421l122 289h204l-271 -528c-57 -112 -109 -192 -216 -192c-66 0 -109 14 -140 33l59 153c24 -19 45 -24 65 -24c32 0 59 22 83 63l-192 495h199l82 -289h5z" />
    <glyph glyph-name="uni04F4" unicode="&#x4f4;" horiz-adv-x="598" 
d="M247 767c-60 0 -99 40 -99 94s41 95 102 95c60 0 99 -39 99 -92c0 -56 -41 -97 -102 -97zM477 767c-59 0 -99 40 -99 94s41 95 103 95c59 0 99 -39 99 -92c0 -56 -41 -97 -103 -97zM415 710h184l-88 -710h-183l31 255c-46 -28 -114 -41 -161 -41c-118 0 -165 75 -146 217
l38 279h180l-34 -253c-9 -70 4 -87 52 -87c25 0 57 5 88 26z" />
    <glyph glyph-name="uni04F6" unicode="&#x4f6;" horiz-adv-x="508" 
d="M528 549h-252l-48 -388h104l-48 -298h-145l11 137h-124l87 710h435z" />
    <glyph glyph-name="uni04F8" unicode="&#x4f8;" horiz-adv-x="870" 
d="M390 767c-60 0 -99 40 -99 94s41 95 102 95c60 0 99 -39 99 -92c0 -56 -41 -97 -102 -97zM620 767c-59 0 -99 40 -99 94s41 95 103 95c59 0 99 -39 99 -92c0 -56 -41 -97 -103 -97zM26 0l87 710h178l-30 -246h96c155 0 205 -99 205 -201c0 -185 -96 -263 -297 -263h-239z
M600 0l87 710h184l-87 -710h-184zM223 159h54c79 0 97 45 97 90c0 28 -19 59 -60 59h-72z" />
    <glyph glyph-name="uni04FA" unicode="&#x4fa;" horiz-adv-x="552" 
d="M572 549h-254l-20 -158h174l-15 -122h-174l-33 -269c-22 -174 -105 -206 -211 -206c-30 0 -52 2 -71 7l26 135c8 -1 16 -2 22 -2c33 0 48 15 55 76l31 259h-93l15 122h93l39 319h436z" />
    <glyph glyph-name="uni04FC" unicode="&#x4fc;" horiz-adv-x="617" 
d="M321 -205c-22 0 -44 2 -65 6l23 138c7 -1 14 -1 20 -1c57 0 88 32 88 83c0 24 -7 51 -20 81l-52 118h-4l-144 -220h-200l245 361l-147 349h191l85 -215h5l129 215h207l-238 -353l74 -149c34 -71 54 -126 54 -184c0 -143 -105 -229 -251 -229z" />
    <glyph glyph-name="uni04FE" unicode="&#x4fe;" horiz-adv-x="633" 
d="M573 276h-103l132 -276h-196l-90 225h-4l-145 -225h-200l200 276h-100l15 122h124l-141 312h191l86 -228h5l128 228h207l-212 -312h118z" />
    <glyph glyph-name="uni0510" unicode="&#x510;" horiz-adv-x="552" 
d="M246 -10c-168 0 -234 82 -234 176c0 96 64 170 137 202v2c-40 34 -70 86 -70 146c0 138 110 205 254 205c87 0 192 -26 247 -110l-122 -119c-36 53 -87 63 -120 64c-39 1 -76 -21 -76 -68c0 -30 22 -56 60 -56h84l-17 -144h-98c-58 0 -90 -36 -90 -71
c0 -34 21 -61 82 -61c34 0 83 11 134 65l119 -118c-74 -85 -195 -113 -290 -113z" />
    <glyph glyph-name="uni0512" unicode="&#x512;" horiz-adv-x="682" 
d="M684 710l-88 -710c-19 -154 -107 -205 -245 -205c-15 0 -43 1 -67 6l23 135c10 -1 19 -2 28 -2c42 0 71 15 78 66l67 549h-105c-24 -140 -44 -259 -76 -355c-43 -128 -102 -201 -232 -201c-37 0 -72 7 -91 14l27 148c13 -4 25 -6 34 -6c47 0 84 61 112 159
c30 106 56 268 78 402h457z" />
    <glyph glyph-name="uni051A" unicode="&#x51a;" horiz-adv-x="729" 
d="M711 420c0 -103 -25 -197 -73 -271l54 -59l-101 -114l-60 67c-54 -34 -121 -53 -199 -53c-175 0 -290 110 -290 303c0 227 147 427 379 427c173 0 290 -110 290 -300zM346 160c24 0 47 6 67 16l-42 47l99 108l35 -38c12 34 18 73 18 115c0 100 -53 143 -119 143
c-98 0 -174 -117 -174 -245c0 -101 53 -146 116 -146z" />
    <glyph glyph-name="uni051C" unicode="&#x51c;" horiz-adv-x="923" 
d="M177 0l-112 710h188l42 -412h2l138 412h178l30 -402h3l135 402h193l-286 -710h-161l-41 430h-2l-153 -430h-154z" />
    <glyph glyph-name="uni048C" unicode="&#x48c;" horiz-adv-x="605" 
d="M394 434c145 0 195 -88 195 -184c0 -173 -91 -250 -283 -250h-246l64 521h-94l15 122h94l8 67h174l-8 -67h143l-15 -122h-143l-11 -87h107zM318 156c67 0 82 38 82 80c0 33 -16 55 -53 55h-77l-17 -135h65z" />
    <glyph glyph-name="uni048E" unicode="&#x48e;" horiz-adv-x="579" 
d="M591 511c0 -109 -42 -197 -120 -247l42 -105l-111 -61l-51 126c-14 -2 -29 -3 -44 -3h-78l-26 -221h-177l87 710h274c144 0 204 -88 204 -199zM243 370h70l-31 83l73 40l34 -88c15 20 24 48 24 79c0 51 -32 67 -63 67h-84z" />
    <glyph glyph-name="uni0416.alt" horiz-adv-x="909" 
d="M956 710l-212 -346l139 -364h-208l-98 266l-37 2l-33 -268h-176l33 267l-43 -2l-153 -265h-202l216 375l-129 335h212l92 -293l25 -1l36 294h176l-36 -292l34 4l150 288h214z" />
    <glyph glyph-name="uni041A.alt" horiz-adv-x="617" 
d="M664 710l-213 -346l140 -364h-204l-101 265l-46 3l-33 -268h-181l87 710h181l-36 -292l43 5l150 287h213z" />
    <glyph glyph-name="uni040C.alt" horiz-adv-x="617" 
d="M539 897l-131 -143h-149l115 142zM664 710l-213 -346l140 -364h-204l-101 265l-46 3l-33 -268h-181l87 710h181l-36 -292l43 5l150 287h213z" />
    <glyph glyph-name="uni0496.alt" horiz-adv-x="966" 
d="M744 364l77 -203h126l-48 -298h-145l11 137h-90l-98 266l-37 2l-33 -268h-176l33 267l-43 -2l-153 -265h-202l216 375l-129 335h212l92 -293l25 -1l36 294h176l-36 -292l34 4l150 288h214z" />
    <glyph glyph-name="uni049A.alt" horiz-adv-x="674" 
d="M451 364l78 -203h126l-48 -298h-145l11 137h-86l-101 265l-46 3l-33 -268h-181l87 710h181l-36 -292l43 5l150 287h213z" />
    <glyph glyph-name="uni049E.alt" horiz-adv-x="626" 
d="M673 710l-213 -346l140 -364h-204l-101 265l-46 3l-33 -268h-181l64 526h-69l15 122h69l8 62h181l-8 -62h59l-14 -122h-60l-13 -108l43 5l150 287h213z" />
    <glyph glyph-name="uni04A0.alt" horiz-adv-x="723" 
d="M770 710l-213 -346l140 -364h-204l-101 265l-46 3l-33 -268h-181l67 549h-159l20 161h340l-36 -292l43 5l150 287h213z" />
    <glyph glyph-name="uni04C1.alt" horiz-adv-x="909" 
d="M517 749c-111 0 -152 42 -164 147l130 11c5 -41 27 -63 51 -63c26 0 52 25 74 68l119 -41c-53 -87 -128 -122 -210 -122zM956 710l-212 -346l139 -364h-208l-98 266l-37 2l-33 -268h-176l33 267l-43 -2l-153 -265h-202l216 375l-129 335h212l92 -293l25 -1l36 294h176
l-36 -292l34 4l150 288h214z" />
    <glyph glyph-name="uni04C3.alt" horiz-adv-x="617" 
d="M458 375c73 -42 117 -128 117 -228c0 -187 -91 -352 -289 -352c-22 0 -41 2 -60 6l23 138c5 -1 10 -1 15 -1c89 0 122 116 122 196c0 85 -35 125 -104 137c-13 2 -26 3 -41 4l-34 -275h-181l87 710h181l-36 -292l43 5l150 287h213z" />
    <glyph glyph-name="uni04DC.alt" horiz-adv-x="909" 
d="M407 767c-60 0 -99 40 -99 94s41 95 102 95c60 0 99 -39 99 -92c0 -56 -41 -97 -102 -97zM637 767c-59 0 -99 40 -99 94s41 95 103 95c59 0 99 -39 99 -92c0 -56 -41 -97 -103 -97zM956 710l-212 -346l139 -364h-208l-98 266l-37 2l-33 -268h-176l33 267l-43 -2
l-153 -265h-202l216 375l-129 335h212l92 -293l25 -1l36 294h176l-36 -292l34 4l150 288h214z" />
    <glyph glyph-name="uni051A.alt" horiz-adv-x="727" 
d="M711 420c0 -143 -48 -270 -140 -348l103 -102l-119 -131l-153 157c-22 -4 -45 -6 -70 -6c-175 0 -290 110 -290 303c0 227 147 427 379 427c173 0 290 -110 290 -300zM230 306c0 -101 53 -146 116 -146c105 0 177 106 177 248c0 100 -53 143 -119 143
c-98 0 -174 -117 -174 -245z" />
    <glyph glyph-name="uni0528" unicode="&#x528;" horiz-adv-x="655" 
d="M472 710h184l-88 -710h-183l32 262h-176l-32 -262c-22 -174 -107 -206 -215 -206c-31 0 -53 2 -72 7l26 135c8 -1 16 -2 23 -2c33 0 49 15 56 76l86 700h184l-36 -287h176z" />
    <glyph glyph-name="uni052E" unicode="&#x52e;" horiz-adv-x="739" 
d="M616 161h104l-48 -298h-145l11 137h-124l68 549h-107c-24 -140 -44 -259 -76 -355c-43 -128 -102 -201 -232 -201c-37 0 -72 7 -91 14l27 148c13 -4 25 -6 34 -6c47 0 84 61 112 159c30 106 56 268 78 402h456z" />
    <glyph glyph-name="uni0414.loclBGR" horiz-adv-x="697" 
d="M676 162l-48 -299h-145l11 137h-354l-26 -137h-146l33 299h77l237 548h170l112 -548h79zM368 472l-113 -310h164l-49 310h-2z" />
    <glyph glyph-name="uni041B.loclBGR" horiz-adv-x="601" 
d="M-33 0l304 710h170l130 -710h-187l-62 452h-2l-164 -452h-189z" />
    <glyph glyph-name="uni0424.loclBGR" horiz-adv-x="793" 
d="M782 393c0 -192 -114 -367 -321 -380l-9 -71h-179l9 71c-137 10 -245 116 -245 290c0 204 116 381 328 392l9 71h179l-9 -75c134 -21 238 -116 238 -298zM217 316c0 -85 30 -146 90 -160l48 397c-84 -14 -138 -127 -138 -237zM471 155c81 18 132 125 132 223
c0 91 -28 154 -84 171z" />
    <glyph glyph-name="uni0430" unicode="&#x430;" horiz-adv-x="548" 
d="M176 -10c-100 0 -155 87 -155 201c0 185 107 309 226 309c52 0 86 -17 109 -42h3l4 32h171l-60 -490h-171l8 63l-3 1c-32 -45 -76 -74 -132 -74zM237 141c44 0 93 56 110 166l2 11c-19 21 -39 31 -67 31c-56 0 -90 -80 -90 -140c0 -41 19 -68 45 -68z" />
    <glyph glyph-name="uni0431" unicode="&#x431;" horiz-adv-x="535" 
d="M239 -10c-147 0 -209 119 -209 263c0 236 89 417 287 454c48 9 127 18 181 45l28 -143c-66 -38 -119 -41 -187 -53c-80 -15 -124 -56 -145 -155l1 -1c28 38 77 80 144 80c102 0 175 -78 175 -193c0 -155 -80 -297 -275 -297zM255 141c49 0 87 53 87 115
c0 64 -38 72 -57 72c-52 0 -84 -50 -84 -108c0 -64 32 -79 54 -79z" />
    <glyph glyph-name="uni0432" unicode="&#x432;" horiz-adv-x="510" 
d="M400 258c52 -19 81 -60 81 -108c0 -104 -105 -160 -233 -160c-164 0 -227 78 -227 203c0 170 97 307 283 307c94 0 189 -41 189 -132c0 -55 -40 -91 -93 -108v-2zM277 369c-39 0 -77 -37 -92 -95l56 12c32 7 72 20 72 50c0 18 -13 33 -36 33zM256 122c21 0 58 6 58 44
c0 33 -35 41 -83 33l-50 -8c9 -58 44 -69 75 -69z" />
    <glyph glyph-name="uni0433" unicode="&#x433;" horiz-adv-x="410" 
d="M172 -10c-109 0 -175 40 -176 121c-1 77 49 125 136 169l61 31c28 14 38 22 38 37c0 13 -12 16 -24 16c-23 0 -51 -17 -75 -40l-89 116c39 31 120 60 184 60c102 0 173 -45 173 -125c0 -77 -48 -122 -113 -156l-79 -42c-28 -15 -41 -21 -41 -36c0 -12 8 -17 23 -17
c28 0 61 22 80 50l124 -93c-53 -63 -125 -91 -222 -91z" />
    <glyph glyph-name="uni0453" unicode="&#x453;" horiz-adv-x="410" 
d="M149 558l116 151l168 1l-130 -152h-154zM172 -10c-109 0 -175 40 -176 121c-1 77 49 125 136 169l61 31c28 14 38 22 38 37c0 13 -12 16 -24 16c-23 0 -51 -17 -75 -40l-89 116c39 31 120 60 184 60c102 0 173 -45 173 -125c0 -77 -48 -122 -113 -156l-79 -42
c-28 -15 -41 -21 -41 -36c0 -12 8 -17 23 -17c28 0 61 22 80 50l124 -93c-53 -63 -125 -91 -222 -91z" />
    <glyph glyph-name="uni0491" unicode="&#x491;" horiz-adv-x="397" 
d="M309 606h125l-32 -254h-172l-43 -352h-170l60 490h206z" />
    <glyph glyph-name="uni0434" unicode="&#x434;" horiz-adv-x="521" 
d="M234 -10c-138 0 -213 89 -213 220c0 155 108 270 227 270c38 0 68 -10 94 -31l2 2c-7 96 -38 130 -111 145c-24 5 -53 8 -79 8l30 143c274 -3 334 -188 332 -357c-3 -233 -96 -400 -282 -400zM243 140c41 0 84 56 97 175c-16 14 -36 23 -58 23c-56 0 -90 -73 -90 -125
c0 -58 31 -73 51 -73z" />
    <glyph glyph-name="uni0435" unicode="&#x435;" horiz-adv-x="475" 
d="M467 363c-3 -124 -141 -171 -282 -185c9 -38 37 -52 60 -52c26 0 54 12 78 47l124 -67c-49 -78 -121 -116 -218 -116c-124 0 -209 79 -208 206c0 169 109 304 274 304c78 0 174 -42 172 -137zM307 334c1 18 -10 28 -28 28c-39 0 -74 -37 -89 -93c62 7 115 23 117 65z" />
    <glyph glyph-name="uni0450" unicode="&#x450;" horiz-adv-x="475" 
d="M387 558h-151l-92 152l164 -1zM467 363c-3 -124 -141 -171 -282 -185c9 -38 37 -52 60 -52c26 0 54 12 78 47l124 -67c-49 -78 -121 -116 -218 -116c-124 0 -209 79 -208 206c0 169 109 304 274 304c78 0 174 -42 172 -137zM307 334c1 18 -10 28 -28 28
c-39 0 -74 -37 -89 -93c62 7 115 23 117 65z" />
    <glyph glyph-name="uni0451" unicode="&#x451;" horiz-adv-x="475" 
d="M188 546c-60 0 -99 40 -99 94s41 95 102 95c60 0 99 -39 99 -92c0 -56 -41 -97 -102 -97zM422 735c59 0 99 -39 99 -92c0 -56 -41 -97 -103 -97c-59 0 -99 40 -99 94s41 95 103 95zM295 500c78 0 174 -42 172 -137c-3 -124 -141 -171 -282 -185c9 -38 37 -52 60 -52
c26 0 54 12 78 47l124 -67c-49 -78 -121 -116 -218 -116c-124 0 -209 79 -208 206c0 169 109 304 274 304zM307 334c1 18 -10 28 -28 28c-39 0 -74 -37 -89 -93c62 7 115 23 117 65z" />
    <glyph glyph-name="uni0436" unicode="&#x436;" horiz-adv-x="726" 
d="M611 214c18 -70 50 -80 95 -81l-35 -141c-12 -1 -23 -2 -55 -2c-73 0 -121 58 -137 136l-9 41c-13 -5 -26 -10 -40 -14l-18 -153h-161l23 185l-1 1c-64 -47 -92 -115 -107 -186h-177c18 98 67 181 136 242l-9 34c-18 70 -50 80 -95 81l35 141c12 1 23 2 55 2
c73 0 121 -58 137 -136l9 -41l35 12l19 155h160l-23 -188l1 -1c68 47 97 117 112 189h177c-18 -98 -67 -181 -136 -242z" />
    <glyph glyph-name="uni0437" unicode="&#x437;" horiz-adv-x="438" 
d="M185 -10c-89 0 -144 13 -202 47l57 133c44 -31 95 -43 129 -43c44 0 76 11 76 39c0 25 -24 30 -50 30l-78 -1l12 102l63 1c46 1 66 14 66 35s-22 27 -51 27c-35 0 -76 -11 -108 -25l-63 120c39 21 121 45 182 45c111 0 206 -41 206 -132c0 -55 -40 -91 -92 -108v-2
c51 -19 80 -60 80 -108c0 -104 -94 -160 -227 -160z" />
    <glyph glyph-name="uni0438" unicode="&#x438;" horiz-adv-x="536" 
d="M158 -10c-87 0 -145 46 -124 193l43 307h169l-36 -244c-12 -79 -8 -105 22 -105c37 0 82 63 88 116l29 233h170l-60 -490h-166l4 64h-3c-35 -45 -81 -74 -136 -74z" />
    <glyph glyph-name="uni0439" unicode="&#x439;" horiz-adv-x="536" 
d="M314 548c-111 0 -152 42 -164 147l130 16c5 -46 24 -68 48 -68c25 0 55 25 77 73l119 -46c-53 -87 -128 -122 -210 -122zM158 -10c-87 0 -145 46 -124 193l43 307h169l-36 -244c-12 -79 -8 -105 22 -105c37 0 82 63 88 116l29 233h170l-60 -490h-166l4 64h-3
c-35 -45 -81 -74 -136 -74z" />
    <glyph glyph-name="uni045D" unicode="&#x45d;" horiz-adv-x="536" 
d="M227 558l-92 152l164 -1l79 -151h-151zM158 -10c-87 0 -145 46 -124 193l43 307h169l-36 -244c-12 -79 -8 -105 22 -105c37 0 82 63 88 116l29 233h170l-60 -490h-166l4 64h-3c-35 -45 -81 -74 -136 -74z" />
    <glyph glyph-name="uni048B" unicode="&#x48b;" horiz-adv-x="577" 
d="M314 548c-111 0 -152 42 -164 147l130 16c5 -46 24 -68 48 -68c25 0 55 25 77 73l119 -46c-53 -87 -128 -122 -210 -122zM516 133h56l-3 -25l-110 -233h-120l43 123c-33 11 -54 36 -66 74l-3 14h-3c-35 -60 -93 -96 -152 -96c-87 0 -145 46 -124 193l43 307h169l-36 -244
c-12 -79 -8 -105 22 -105c37 0 82 66 88 114l29 235h170l-39 -315c-4 -29 8 -42 36 -42z" />
    <glyph glyph-name="uni043A" unicode="&#x43a;" horiz-adv-x="508" 
d="M17 0l60 490h170l-23 -184l2 -1c63 51 92 112 107 185h177c-19 -104 -68 -183 -134 -244l9 -32c19 -70 48 -80 93 -81l-35 -141c-12 -1 -23 -2 -55 -2c-76 0 -119 58 -140 136l-9 33c-13 -6 -26 -13 -40 -19l-16 -140h-166z" />
    <glyph glyph-name="uni045C" unicode="&#x45c;" horiz-adv-x="508" 
d="M216 558l116 151l168 1l-130 -152h-154zM17 0l60 490h170l-23 -184l2 -1c63 51 92 112 107 185h177c-19 -104 -68 -183 -134 -244l9 -32c19 -70 48 -80 93 -81l-35 -141c-12 -1 -23 -2 -55 -2c-76 0 -119 58 -140 136l-9 33c-13 -6 -26 -13 -40 -19l-16 -140h-166z" />
    <glyph glyph-name="uni043B" unicode="&#x43b;" horiz-adv-x="540" 
d="M293 490h230l-60 -490h-169l42 352h-6c-34 0 -45 -16 -51 -42c-10 -42 -24 -104 -39 -157c-31 -114 -100 -160 -195 -160c-21 0 -49 3 -66 10l22 138c10 -3 21 -4 26 -4c35 0 56 45 71 111c6 26 14 60 22 99c19 93 72 143 173 143z" />
    <glyph glyph-name="uni043C" unicode="&#x43c;" horiz-adv-x="644" 
d="M17 0l61 490h176l72 -255h2l122 255h177l-61 -490h-164l31 233h-2l-72 -147h-110l-38 148h-2l-29 -234h-163z" />
    <glyph glyph-name="uni043D" unicode="&#x43d;" horiz-adv-x="541" 
d="M354 490h170l-60 -490h-170l21 171l-107 -1l-21 -170h-170l60 490h170l-23 -184l108 1z" />
    <glyph glyph-name="uni043E" unicode="&#x43e;" horiz-adv-x="529" 
d="M229 -10c-123 0 -207 77 -207 213c0 156 97 297 275 297c127 0 210 -78 210 -213c0 -155 -81 -297 -278 -297zM245 141c55 0 90 68 90 136c0 59 -33 71 -53 71c-56 0 -88 -73 -88 -140c0 -53 33 -67 51 -67z" />
    <glyph glyph-name="uni043F" unicode="&#x43f;" horiz-adv-x="542" 
d="M17 0l60 490h170l-8 -61l3 -1c40 46 92 72 155 72c88 0 127 -60 109 -198l-39 -302h-169l34 255c8 66 4 93 -20 93c-37 0 -88 -46 -103 -168l-22 -180h-170z" />
    <glyph glyph-name="uni0440" unicode="&#x440;" horiz-adv-x="551" 
d="M-8 -198l85 688h171l-8 -65l1 -1c32 45 77 76 134 76c100 0 155 -87 155 -202c0 -184 -108 -308 -231 -308c-43 0 -78 10 -106 29l-4 -2l-26 -215h-171zM254 141c70 0 105 67 105 139c0 42 -20 69 -46 69c-45 0 -95 -58 -112 -180l-1 -7c14 -14 34 -21 54 -21z" />
    <glyph glyph-name="uni0441" unicode="&#x441;" horiz-adv-x="474" 
d="M231 -10c-130 0 -209 77 -209 216c0 146 88 294 261 294c91 0 150 -34 192 -95l-129 -97c-14 31 -34 42 -56 42c-57 0 -97 -68 -97 -140c0 -37 15 -69 52 -69c26 0 47 11 72 45l132 -80c-50 -77 -121 -116 -218 -116z" />
    <glyph glyph-name="uni0442" unicode="&#x442;" horiz-adv-x="804" 
d="M17 0l60 490h170l-6 -52l4 -1c37 40 85 63 143 63c53 0 87 -20 102 -67h5c39 43 91 67 160 67c96 0 131 -63 112 -207l-38 -293h-169l34 255c9 66 5 93 -22 93s-76 -49 -92 -172l-23 -176h-169l33 255c9 66 10 93 -21 93c-24 0 -76 -43 -89 -152l-24 -196h-170z" />
    <glyph glyph-name="uni0443" unicode="&#x443;" horiz-adv-x="528" 
d="M344 490h170l-52 -421c-27 -223 -156 -277 -282 -277c-60 0 -120 12 -180 48l52 122c40 -27 82 -35 116 -35c60 0 104 19 123 136h-3c-35 -46 -80 -73 -136 -73c-87 0 -144 46 -123 193l43 307h169l-35 -244c-11 -79 -10 -105 22 -105c36 0 81 65 87 113z" />
    <glyph glyph-name="uni045E" unicode="&#x45e;" horiz-adv-x="528" 
d="M301 548c-111 0 -152 42 -164 147l130 16c5 -46 24 -68 48 -68c25 0 55 25 77 73l119 -46c-53 -87 -128 -122 -210 -122zM344 490h170l-52 -421c-27 -223 -156 -277 -282 -277c-60 0 -120 12 -180 48l52 122c40 -27 82 -35 116 -35c60 0 104 19 123 136h-3
c-35 -46 -80 -73 -136 -73c-87 0 -144 46 -123 193l43 307h169l-35 -244c-11 -79 -10 -105 22 -105c36 0 81 65 87 113z" />
    <glyph glyph-name="uni0444" unicode="&#x444;" horiz-adv-x="721" 
d="M221 -198l31 251l-2 1c-26 -46 -65 -65 -96 -65c-89 0 -139 87 -139 205c0 190 94 305 192 305c37 0 68 -10 92 -29l4 2l33 264h171l-38 -300l2 -1c26 46 65 65 96 65c89 0 139 -87 139 -205c0 -190 -94 -305 -192 -305c-37 0 -68 10 -92 29l-4 -2l-26 -215h-171z
M468 141c51 0 70 83 70 141c0 41 -13 80 -39 80c-24 0 -62 -70 -70 -186l-1 -14c11 -14 25 -21 40 -21zM222 127c24 0 62 70 70 186l1 14c-11 14 -25 21 -40 21c-51 0 -70 -83 -70 -141c0 -41 13 -80 39 -80z" />
    <glyph glyph-name="uni0445" unicode="&#x445;" horiz-adv-x="476" 
d="M-28 0l176 256l-111 234h185l34 -99h1l56 99h189l-173 -243l115 -247h-178l-42 104h-2l-69 -104h-181z" />
    <glyph glyph-name="uni0447" unicode="&#x447;" horiz-adv-x="518" 
d="M272 0l23 182h-3c-33 -35 -100 -60 -144 -60c-108 0 -126 76 -111 184l26 184h169l-26 -165c-6 -37 -1 -59 32 -59c39 0 71 32 73 48l22 176h168l-60 -490h-169z" />
    <glyph glyph-name="uni0446" unicode="&#x446;" horiz-adv-x="604" 
d="M516 133h74l-54 -258h-128l14 115c-58 4 -90 31 -106 82l-3 14h-3c-35 -60 -93 -96 -152 -96c-87 0 -145 46 -124 193l43 307h169l-36 -244c-12 -79 -8 -105 22 -105c37 0 82 66 88 114l29 235h170l-39 -315c-4 -29 8 -42 36 -42z" />
    <glyph glyph-name="uni0448" unicode="&#x448;" horiz-adv-x="767" 
d="M150 -10c-87 0 -145 46 -124 193l43 307h169l-36 -244c-12 -79 -8 -105 22 -105c31 0 70 57 77 115l29 234h161l-30 -244c-10 -79 -8 -105 22 -105c26 0 69 56 77 124l28 225h170l-60 -490h-168l6 65h-3c-33 -46 -76 -75 -126 -75c-47 0 -84 30 -101 87h-3
c-38 -57 -98 -87 -153 -87z" />
    <glyph glyph-name="uni0449" unicode="&#x449;" horiz-adv-x="835" 
d="M755 133h74l-54 -258h-128l14 115c-58 3 -93 30 -106 82l-3 14h-3c-35 -60 -92 -96 -142 -96c-55 0 -84 30 -101 87h-3c-38 -57 -98 -87 -153 -87c-87 0 -145 46 -124 193l43 307h169l-36 -244c-12 -79 -8 -105 22 -105c31 0 70 57 77 115l29 234h161l-30 -244
c-10 -79 -8 -105 22 -105c26 0 68 55 77 124l28 225h170l-39 -315c-4 -29 8 -42 36 -42z" />
    <glyph glyph-name="uni045F" unicode="&#x45f;" horiz-adv-x="536" 
d="M158 -10c-87 0 -145 46 -124 193l43 307h169l-36 -244c-12 -79 -8 -105 22 -105c37 0 82 63 88 116l29 233h170l-60 -490h-166l4 64h-3c-35 -45 -81 -74 -136 -74zM125 -185l14 148h143l-24 -148h-133z" />
    <glyph glyph-name="uni044C" unicode="&#x44c;" horiz-adv-x="487" 
d="M221 -11c-158 0 -217 71 -193 234l39 267h169l-24 -153l2 -1c24 38 71 65 121 65c79 0 142 -68 139 -168c-4 -156 -103 -244 -253 -244zM232 127c41 0 71 43 71 87c0 40 -30 49 -45 49c-36 0 -67 -31 -72 -75c-4 -34 8 -61 46 -61z" />
    <glyph glyph-name="uni044A" unicode="&#x44a;" horiz-adv-x="530" 
d="M378 401c79 0 142 -68 139 -168c-4 -156 -103 -244 -253 -244c-158 0 -217 71 -193 234l19 129h-74l17 138h246l-24 -153l2 -1c24 38 71 65 121 65zM275 127c41 0 71 43 71 87c0 40 -30 49 -45 49c-36 0 -67 -31 -72 -75c-4 -34 8 -61 46 -61z" />
    <glyph glyph-name="uni044B" unicode="&#x44b;" horiz-adv-x="736" 
d="M221 -11c-158 0 -217 71 -193 234l39 267h169l-24 -153l2 -1c30 44 75 65 121 65c79 0 142 -68 139 -168c-5 -156 -103 -244 -253 -244zM489 0l61 490h169l-60 -490h-170zM232 127c41 0 71 43 71 87c0 40 -30 49 -45 49c-36 0 -67 -31 -72 -75c-4 -34 8 -61 46 -61z" />
    <glyph glyph-name="uni0459" unicode="&#x459;" horiz-adv-x="781" 
d="M629 401c79 0 142 -68 139 -168c-5 -156 -103 -244 -253 -244c-158 0 -217 71 -193 234l19 129h-11c-34 0 -45 -16 -51 -42c-10 -42 -24 -104 -39 -157c-31 -114 -100 -160 -195 -160c-21 0 -49 3 -66 10l22 138c10 -3 21 -4 26 -4c35 0 56 45 71 111c6 26 14 60 22 99
c19 93 72 143 173 143h237l-24 -153l2 -1c33 39 73 65 121 65zM526 127c41 0 71 43 71 87c0 40 -30 49 -45 49c-36 0 -67 -31 -72 -75c-4 -34 8 -61 46 -61z" />
    <glyph glyph-name="uni045A" unicode="&#x45a;" horiz-adv-x="745" 
d="M598 401c79 0 142 -68 139 -168c-5 -156 -103 -244 -253 -244c-140 0 -202 56 -198 182l-85 -1l-21 -170h-170l60 490h170l-23 -184l86 1l27 183h169l-24 -153l2 -1c33 39 73 65 121 65zM495 127c41 0 71 43 71 87c0 40 -30 49 -45 49c-36 0 -67 -31 -72 -75
c-4 -34 8 -61 46 -61z" />
    <glyph glyph-name="uni0455" unicode="&#x455;" horiz-adv-x="417" 
d="M186 -10c-69 0 -150 29 -197 84l90 96c29 -34 76 -58 113 -58c18 0 29 6 29 16c0 13 -13 19 -70 50c-77 41 -118 80 -118 151c0 103 82 171 187 171c70 0 135 -28 179 -83l-99 -92c-26 38 -58 49 -77 50c-14 0 -30 -7 -30 -22c0 -10 18 -23 63 -46
c86 -43 127 -79 127 -157c0 -92 -74 -160 -197 -160z" />
    <glyph glyph-name="uni0454" unicode="&#x454;" horiz-adv-x="484" 
d="M261 126c26 0 55 14 77 43l126 -83c-60 -77 -139 -96 -219 -96c-137 0 -226 77 -223 217c4 171 97 293 274 293c62 0 139 -14 194 -77l-106 -101c-24 29 -60 39 -86 39c-48 0 -83 -22 -99 -65l158 2l-12 -99l-158 -2c1 -53 37 -71 74 -71z" />
    <glyph glyph-name="uni044D" unicode="&#x44d;" horiz-adv-x="465" 
d="M234 500c129 0 212 -77 209 -217c-4 -171 -97 -293 -278 -293c-74 0 -143 21 -185 69l102 104c22 -27 55 -34 83 -34c52 0 90 24 106 70l-165 -2l12 99l161 2c-3 49 -30 67 -69 67c-22 0 -51 -10 -83 -39l-87 105c40 36 112 69 194 69z" />
    <glyph glyph-name="uni0456" unicode="&#x456;" horiz-adv-x="273" 
d="M183 546c-60 0 -100 40 -100 94s41 95 103 95c60 0 99 -39 99 -92c0 -56 -41 -97 -102 -97zM21 0l61 490h169l-60 -490h-170z" />
    <glyph glyph-name="uni0457" unicode="&#x457;" horiz-adv-x="273" 
d="M90 547c-50 0 -88 41 -88 93c0 53 40 94 91 94s89 -39 89 -91c0 -54 -39 -96 -92 -96zM284 547c-50 0 -88 41 -88 93c0 53 39 94 92 94c50 0 87 -39 87 -91c0 -54 -39 -96 -91 -96zM21 0l61 490h169l-60 -490h-170z" />
    <glyph glyph-name="uni0458" unicode="&#x458;" horiz-adv-x="256" 
d="M172 546c-60 0 -100 40 -100 94s41 95 103 95c60 0 99 -39 99 -92c0 -56 -41 -97 -102 -97zM2 -207c-46 0 -78 8 -111 23l42 130c11 -9 25 -11 35 -11c29 0 36 24 43 82l58 473h171l-61 -497c-18 -151 -85 -200 -177 -200z" />
    <glyph glyph-name="uni045B" unicode="&#x45b;" horiz-adv-x="538" 
d="M388 457c90 0 129 -60 111 -198l-33 -259h-168l27 212c8 66 4 93 -22 93c-40 0 -88 -49 -102 -173l-15 -132h-169l64 519h-46l14 116h47l12 101h165l-13 -101h159l-14 -116h-159l-17 -132l3 -2c37 46 91 72 156 72z" />
    <glyph glyph-name="uni044E" unicode="&#x44e;" horiz-adv-x="747" 
d="M521 500c124 0 206 -78 206 -213c0 -155 -80 -297 -273 -297c-112 0 -188 66 -199 185l-51 -1l-21 -174h-170l60 490h170l-23 -188l47 1c32 111 118 197 254 197zM464 141c55 0 90 68 90 136c0 59 -33 71 -53 71c-56 0 -88 -73 -88 -140c0 -53 33 -67 51 -67z" />
    <glyph glyph-name="uni044F" unicode="&#x44f;" horiz-adv-x="507" 
d="M268 489l222 1l-60 -490h-167l18 153h-27h-8l-14 -28c-41 -84 -81 -135 -162 -135c-21 0 -52 2 -63 3l1 140c37 1 55 11 88 66c-38 28 -55 74 -55 111c0 123 94 178 227 179zM264 254h30l12 101h-30c-36 0 -68 -14 -68 -53c0 -35 24 -48 56 -48z" />
    <glyph glyph-name="uni0452" unicode="&#x452;" horiz-adv-x="519" 
d="M377 457c125 0 148 -115 125 -245c-40 -224 -148 -349 -264 -426l-98 91c112 93 172 232 190 353c8 51 0 75 -27 75c-40 0 -88 -49 -102 -173l-15 -132h-169l64 519h-46l14 116h47l12 101h165l-13 -101h159l-14 -116h-159l-17 -132l3 -2c37 46 91 72 145 72z" />
    <glyph glyph-name="uni0463" unicode="&#x463;" horiz-adv-x="757" 
d="M491 -11c-158 0 -223 75 -194 234l6 33c12 65 3 92 -20 92c-28 0 -63 -46 -78 -168l-22 -180h-170l60 490h170l-8 -61l3 -1c34 46 80 72 130 72c80 0 125 -51 108 -167l2 -1c39 43 79 69 127 69c79 0 142 -68 139 -168c-5 -155 -103 -244 -253 -244zM502 127
c41 0 71 43 71 87c0 40 -30 49 -45 49c-36 0 -67 -31 -72 -75c-4 -34 8 -61 46 -61z" />
    <glyph glyph-name="uni0473" unicode="&#x473;" horiz-adv-x="517" 
d="M291 500c127 0 210 -74 210 -213c0 -162 -93 -297 -278 -297c-126 0 -207 77 -207 213c0 156 99 297 275 297zM278 365c-42 0 -73 -30 -90 -71l152 3c-4 57 -37 68 -62 68zM239 125c43 0 74 28 89 73l-153 -3c2 -56 38 -70 64 -70z" />
    <glyph glyph-name="uni0475" unicode="&#x475;" horiz-adv-x="514" 
d="M126 0l-93 490h175l30 -301h2l46 169c34 124 100 142 158 142c44 0 72 -9 107 -23l-40 -131c-12 4 -21 6 -27 6c-34 0 -56 -32 -88 -107l-101 -245h-169z" />
    <glyph glyph-name="uni0493" unicode="&#x493;" horiz-adv-x="411" 
d="M194 124c25 0 59 15 78 43l122 -92c-53 -63 -125 -85 -222 -85c-109 0 -175 40 -176 120c-1 58 42 98 97 122v1l-66 19l28 89l127 -36l11 6c28 14 38 22 38 38c0 12 -13 16 -26 16c-24 0 -50 -14 -74 -34l-88 109c39 31 120 60 184 60c102 0 173 -45 173 -118
c0 -59 -37 -92 -82 -114v-1l69 -20l-28 -90l-123 35l-28 -15c-28 -15 -41 -21 -41 -36c0 -12 9 -17 27 -17z" />
    <glyph glyph-name="uni0495" unicode="&#x495;" horiz-adv-x="519" 
d="M336 270c79 0 154 -66 154 -188c0 -185 -120 -289 -295 -289c-24 0 -49 2 -75 6l33 131h18c93 0 147 49 147 133c0 40 -21 58 -51 58c-31 0 -67 -21 -70 -42l-12 -79h-168l60 490h342l-17 -138h-172l-17 -140h3c25 27 59 58 120 58z" />
    <glyph glyph-name="uni0497" unicode="&#x497;" horiz-adv-x="770" 
d="M706 133h54l-54 -258h-128l14 117c-60 11 -99 65 -113 134l-9 41c-13 -5 -26 -10 -40 -14l-18 -153h-161l23 185l-1 1c-64 -47 -92 -115 -107 -186h-177c18 98 67 181 136 242l-9 34c-18 70 -50 80 -95 81l35 141c12 1 23 2 55 2c73 0 121 -58 137 -136l9 -41l35 12
l19 155h160l-23 -188l1 -1c68 47 97 117 112 189h177c-18 -98 -67 -181 -136 -242l9 -34c18 -70 50 -80 95 -81z" />
    <glyph glyph-name="uni0499" unicode="&#x499;" horiz-adv-x="438" 
d="M332 258c51 -19 80 -60 80 -108c0 -98 -84 -154 -205 -159l-8 -17c35 -6 75 -25 75 -70c0 -69 -62 -97 -149 -97c-19 0 -39 2 -57 6l4 68c11 -3 22 -4 39 -4c32 0 48 10 48 29c0 21 -40 28 -55 30l28 56c-60 5 -103 18 -149 45l57 133c44 -31 95 -43 129 -43
c44 0 76 11 76 39c0 25 -24 30 -50 30l-78 -1l12 102l63 1c46 1 66 14 66 35s-22 27 -51 27c-35 0 -76 -11 -108 -25l-63 120c39 21 121 45 182 45c111 0 206 -41 206 -132c0 -55 -40 -91 -92 -108v-2z" />
    <glyph glyph-name="uni049B" unicode="&#x49b;" horiz-adv-x="543" 
d="M479 133h54l-54 -258h-128l14 117c-62 11 -96 66 -117 134l-9 32c-13 -6 -26 -12 -40 -18l-16 -140h-166l60 490h170l-23 -184l2 -1c63 51 92 112 107 185h177c-19 -104 -65 -183 -134 -244c2 -10 5 -21 8 -32c18 -70 50 -80 95 -81z" />
    <glyph glyph-name="uni049D" unicode="&#x49d;" horiz-adv-x="580" 
d="M457 214c20 -70 48 -80 93 -81l-35 -141c-12 -1 -23 -2 -55 -2c-76 0 -111 39 -128 123l-15 76c-1 -1 -2 -1 -3 -1l-16 -133h-74l14 112c-13 -3 -24 -6 -35 -8l-20 -159h-166l60 490h165l-25 -206l2 -1c11 1 22 3 34 6l14 117h77l-10 -78c51 49 61 111 71 162h177
c-19 -104 -68 -183 -134 -244z" />
    <glyph glyph-name="uni049F" unicode="&#x49f;" horiz-adv-x="508" 
d="M385 214c19 -70 48 -80 93 -81l-35 -141c-12 -1 -23 -2 -55 -2c-76 0 -119 58 -140 136l-9 33c-13 -6 -26 -13 -40 -19l-16 -140h-166l67 549h-42l12 98h42l11 89h170l-11 -89h113l-13 -98h-112l-30 -243l2 -1c63 51 92 112 107 185h177c-19 -104 -68 -183 -134 -244z
" />
    <glyph glyph-name="uni04A1" unicode="&#x4a1;" horiz-adv-x="571" 
d="M448 214c20 -70 48 -80 93 -81l-35 -141c-12 -1 -23 -2 -55 -2c-76 0 -119 58 -140 136l-9 33c-13 -6 -26 -13 -40 -19l-16 -140h-166l43 352h-107l17 138h277l-23 -184l2 -1c63 51 92 112 107 185h177c-19 -104 -68 -183 -134 -244z" />
    <glyph glyph-name="uni04A3" unicode="&#x4a3;" horiz-adv-x="609" 
d="M521 133h74l-54 -258h-128l14 115c-74 2 -131 26 -120 117l8 64l-107 -1l-21 -170h-170l60 490h170l-23 -184l108 1l22 183h170l-41 -325c-3 -26 10 -32 38 -32z" />
    <glyph glyph-name="uni04A5" unicode="&#x4a5;" horiz-adv-x="628" 
d="M651 490l-17 -138h-137l-43 -352h-166l21 171l-101 -1l-21 -170h-170l60 490h170l-23 -184l102 1l22 183h303z" />
    <glyph glyph-name="uni04A7" unicode="&#x4a7;" horiz-adv-x="795" 
d="M471 -207c-24 0 -49 2 -75 6l33 131h18c94 0 147 48 147 133c0 40 -21 58 -51 58c-31 0 -67 -21 -70 -42l-12 -79h-168l33 255c9 66 5 93 -19 93c-32 0 -83 -46 -98 -168l-22 -180h-170l60 490h170l-8 -61l3 -1c40 46 87 72 150 72c88 0 128 -60 109 -198l-13 -90h3
c26 27 60 58 121 58c79 0 154 -66 154 -188c0 -185 -120 -289 -295 -289z" />
    <glyph glyph-name="uni0525" unicode="&#x525;" horiz-adv-x="606" 
d="M519 133h74l-54 -258h-128l14 115c-75 2 -135 26 -119 127l23 138c11 66 0 93 -24 93c-37 0 -81 -46 -96 -168l-22 -180h-170l60 490h170l-8 -61l3 -1c40 46 85 72 148 72c88 0 135 -60 113 -198l-22 -137c-4 -26 10 -32 38 -32z" />
    <glyph glyph-name="uni04A9" unicode="&#x4a9;" horiz-adv-x="645" 
d="M642 36c-38 -31 -89 -46 -156 -46c-56 0 -105 11 -139 34c-33 -22 -73 -34 -120 -34c-132 0 -209 86 -209 215c0 102 45 231 140 307l122 -73c-51 -51 -92 -155 -92 -217c0 -57 25 -96 74 -102l1 1c-10 30 -15 64 -15 98c0 133 74 276 199 276c89 0 143 -56 143 -155
c0 -96 -52 -184 -123 -229l1 -1c44 2 80 21 101 41zM412 345c-29 0 -53 -91 -53 -149c0 -17 1 -30 5 -41l1 -1c43 42 62 118 62 164c0 17 -3 27 -15 27z" />
    <glyph glyph-name="uni04AB" unicode="&#x4ab;" horiz-adv-x="474" 
d="M245 141c26 0 47 11 72 45l132 -80c-44 -68 -106 -107 -187 -115l-8 -17c35 -6 75 -25 75 -70c0 -69 -62 -97 -149 -97c-19 0 -39 2 -57 6l4 68c11 -3 22 -4 39 -4c32 0 48 10 48 29c0 21 -40 28 -55 30l29 57c-104 16 -166 90 -166 213c0 146 88 294 261 294
c91 0 150 -34 192 -95l-129 -97c-14 31 -34 42 -56 42c-57 0 -97 -68 -97 -140c0 -37 15 -69 52 -69z" />
    <glyph glyph-name="uni04AD" unicode="&#x4ad;" horiz-adv-x="865" 
d="M778 133h74l-54 -258h-128l14 115c-75 2 -136 26 -119 127l23 138c11 63 5 93 -22 93s-71 -49 -87 -172l-23 -176h-169l33 255c9 66 10 93 -21 93c-24 0 -75 -43 -88 -152l-24 -196h-170l60 490h170l-6 -52l4 -1c36 40 84 63 142 63c53 0 87 -20 102 -67h5
c34 43 86 67 155 67c96 0 133 -73 113 -198l-22 -137c-4 -26 10 -32 38 -32z" />
    <glyph glyph-name="uni04AF" unicode="&#x4af;" horiz-adv-x="494" 
d="M99 -198l26 192l-94 496h179l36 -323h2c71 138 81 238 93 323h174c-31 -202 -115 -368 -220 -493l-27 -195h-169z" />
    <glyph glyph-name="uni04B1" unicode="&#x4b1;" horiz-adv-x="494" 
d="M515 490c-23 -149 -74 -277 -155 -392h57l-13 -98h-109l-27 -198h-169l26 198h-86l12 98h61l-81 392h179l36 -323h2c71 138 81 238 93 323h174z" />
    <glyph glyph-name="uni04B3" unicode="&#x4b3;" horiz-adv-x="512" 
d="M347 208c30 -65 54 -74 101 -75h54l-54 -258h-128l14 117c-48 6 -81 36 -107 104l-3 8h-2l-69 -104h-181l176 256l-111 234h185l34 -99h1l56 99h189l-173 -243z" />
    <glyph glyph-name="uni04B5" unicode="&#x4b5;" horiz-adv-x="604" 
d="M497 706l-15 -127h-338l15 127h338zM516 133h74l-54 -258h-128l14 115c-58 4 -90 31 -106 82l-3 14h-3c-35 -60 -93 -96 -152 -96c-87 0 -145 46 -124 193l43 307h169l-36 -244c-12 -79 -8 -105 22 -105c37 0 82 66 88 114l29 235h170l-39 -315c-4 -29 8 -42 36 -42z" />
    <glyph glyph-name="uni04B7" unicode="&#x4b7;" horiz-adv-x="582" 
d="M494 133h74l-54 -258h-128l14 115c-74 2 -131 26 -120 117l10 75h-3c-28 -35 -95 -60 -139 -60c-108 0 -126 76 -111 184l26 184h169l-26 -165c-6 -37 -1 -59 32 -59c39 0 66 32 68 48l22 176h168l-40 -325c-3 -26 10 -32 38 -32z" />
    <glyph glyph-name="uni04B9" unicode="&#x4b9;" horiz-adv-x="553" 
d="M374 490h162l-60 -490h-163l24 190h-3c-9 -7 -21 -14 -34 -21l-14 -104h-77l9 71c-27 -8 -54 -14 -72 -14c-106 0 -124 76 -109 184l26 184h163l-27 -175c-8 -46 -1 -63 35 -63l17 133h77l-15 -117c24 12 37 27 38 37z" />
    <glyph glyph-name="uni04BB" unicode="&#x4bb;" horiz-adv-x="542" 
d="M17 0l90 736h169l-38 -306l3 -2c41 46 92 72 156 72c88 0 127 -60 109 -198l-39 -302h-169l34 255c8 66 4 93 -20 93c-39 0 -90 -49 -105 -173l-21 -175h-169z" />
    <glyph glyph-name="uni04BD" unicode="&#x4bd;" horiz-adv-x="568" 
d="M560 363c-3 -124 -141 -174 -282 -186c10 -37 37 -51 60 -51c26 0 54 12 78 47l124 -67c-49 -78 -121 -116 -218 -116c-117 0 -199 70 -207 185h-1c-82 0 -122 38 -120 97c1 26 9 54 25 86l83 -18c-7 -19 -12 -34 -13 -45c-2 -18 8 -22 32 -25c27 133 127 230 267 230
c78 0 174 -42 172 -137zM400 334c1 18 -10 28 -28 28c-39 0 -75 -38 -90 -95c64 6 116 24 118 67z" />
    <glyph glyph-name="uni04BF" unicode="&#x4bf;" horiz-adv-x="568" 
d="M560 363c-3 -124 -141 -174 -282 -186c10 -37 37 -51 60 -51c26 0 54 12 78 47l124 -67c-39 -62 -92 -99 -161 -111l-20 -120h-129l10 128c-72 26 -119 87 -125 172h-1c-82 0 -122 38 -120 97c1 26 9 54 25 86l83 -18c-7 -19 -12 -34 -13 -45c-2 -18 8 -22 32 -25
c27 133 127 230 267 230c78 0 174 -42 172 -137zM400 334c1 18 -10 28 -28 28c-39 0 -75 -38 -90 -95c64 6 116 24 118 67z" />
    <glyph glyph-name="uni04CF" unicode="&#x4cf;" horiz-adv-x="274" 
d="M21 0l91 736h171l-91 -736h-171z" />
    </font>
</defs>
</svg>
