<?xml version="1.0" standalone="no"?>
<!DOCTYPE svg PUBLIC "-//W3C//DTD SVG 1.1//EN" "http://www.w3.org/Graphics/SVG/1.1/DTD/svg11.dtd" >
<svg xmlns="http://www.w3.org/2000/svg" xmlns:xlink="http://www.w3.org/1999/xlink" version="1.1">
<metadata>
Created by FontForge 20201107 at Sat Jul 15 12:32:48 2017
 By Jimmy Wärting
Copyright \(c\) 2015 by Kostas Bartsokas. All rights reserved.
</metadata>
<defs>
<font id="AvertaStdCY-LightItalic" horiz-adv-x="0" >
  <font-face 
    font-family="Averta Std CY Light"
    font-weight="300"
    font-style="italic"
    font-stretch="normal"
    units-per-em="1000"
    panose-1="0 0 4 0 0 0 0 0 0 0"
    ascent="800"
    descent="-200"
    x-height="485"
    cap-height="710"
    bbox="-676 -329 1321 1035"
    underline-thickness="29"
    underline-position="-80"
    slope="-7"
    stemh="45"
    stemv="46"
    unicode-range="U+000D-2E18"
  />
<missing-glyph horiz-adv-x="398" 
 />
    <glyph glyph-name=".notdef" horiz-adv-x="398" 
 />
    <glyph glyph-name="space" unicode=" " horiz-adv-x="225" 
 />
    <glyph glyph-name="A" unicode="A" horiz-adv-x="606" 
d="M-1 0l330 710h60l159 -710h-58l-41 191h-304l-88 -191h-58zM167 242h272l-87 397h-2z" />
    <glyph glyph-name="Aacute" unicode="&#xc1;" horiz-adv-x="606" 
d="M349 788l123 127l61 1l-128 -128h-56zM-1 0l330 710h60l159 -710h-58l-41 191h-304l-88 -191h-58zM167 242h272l-87 397h-2z" />
    <glyph glyph-name="Abreve" unicode="&#x102;" horiz-adv-x="606" 
d="M371 783c-74 0 -111 48 -105 124l43 -1c-4 -41 12 -79 63 -79c53 0 87 40 96 80l43 -1c-15 -74 -72 -123 -140 -123zM-1 0l330 710h60l159 -710h-58l-41 191h-304l-88 -191h-58zM167 242h272l-87 397h-2z" />
    <glyph glyph-name="uni1EAE" unicode="&#x1eae;" horiz-adv-x="606" 
d="M364 890l121 134l60 1l-136 -135h-45zM373 780c-78 0 -118 43 -111 112l45 -1c-4 -37 13 -72 67 -72c56 0 92 37 102 73l45 -1c-15 -67 -76 -111 -148 -111zM-1 0l330 710h60l159 -710h-58l-41 191h-304l-88 -191h-58zM167 242h272l-87 397h-2z" />
    <glyph glyph-name="uni1EB6" unicode="&#x1eb6;" horiz-adv-x="606" 
d="M371 783c-74 0 -111 48 -105 124l43 -1c-4 -41 12 -79 63 -79c53 0 87 40 96 80l43 -1c-15 -74 -72 -123 -140 -123zM-1 0l330 710h60l159 -710h-58l-41 191h-304l-88 -191h-58zM167 242h272l-87 397h-2zM262 -109c24 0 40 -18 40 -42c0 -25 -18 -43 -42 -43
s-42 17 -42 41c0 25 18 44 44 44z" />
    <glyph glyph-name="uni1EB0" unicode="&#x1eb0;" horiz-adv-x="606" 
d="M368 890l-96 134h57l83 -134h-44zM373 780c-78 0 -118 43 -111 112l45 -1c-4 -37 13 -72 67 -72c56 0 92 37 102 73l45 -1c-15 -67 -76 -111 -148 -111zM-1 0l330 710h60l159 -710h-58l-41 191h-304l-88 -191h-58zM167 242h272l-87 397h-2z" />
    <glyph glyph-name="uni1EB2" unicode="&#x1eb2;" horiz-adv-x="606" 
d="M399 890l-39 1c33 23 80 51 80 83c0 20 -14 26 -36 26c-26 0 -53 -10 -76 -27l-7 30c24 16 58 32 96 32c35 0 63 -15 63 -52c0 -46 -51 -77 -81 -93zM373 780c-78 0 -118 43 -111 112l45 -1c-4 -37 13 -72 67 -72c56 0 92 37 102 73l45 -1c-15 -67 -76 -111 -148 -111z
M-1 0l330 710h60l159 -710h-58l-41 191h-304l-88 -191h-58zM167 242h272l-87 397h-2z" />
    <glyph glyph-name="uni1EB4" unicode="&#x1eb4;" horiz-adv-x="606" 
d="M466 913c-32 0 -55 22 -74 37c-17 14 -33 26 -50 26c-24 0 -46 -22 -61 -58l-36 17c23 50 53 82 93 82c32 0 50 -16 68 -32c19 -14 36 -31 56 -31c21 0 45 20 61 59l34 -15c-23 -56 -58 -85 -91 -85zM373 780c-78 0 -118 43 -111 112l45 -1c-4 -37 13 -72 67 -72
c56 0 92 37 102 73l45 -1c-15 -67 -76 -111 -148 -111zM-1 0l330 710h60l159 -710h-58l-41 191h-304l-88 -191h-58zM167 242h272l-87 397h-2z" />
    <glyph glyph-name="uni01CD" unicode="&#x1cd;" horiz-adv-x="606" 
d="M345 788l-91 118h54l66 -83h2l91 83h55l-126 -118h-51zM-1 0l330 710h60l159 -710h-58l-41 191h-304l-88 -191h-58zM167 242h272l-87 397h-2z" />
    <glyph glyph-name="Acircumflex" unicode="&#xc2;" horiz-adv-x="606" 
d="M236 788l126 118h52l90 -118h-54l-65 83h-3l-91 -83h-55zM-1 0l330 710h60l159 -710h-58l-41 191h-304l-88 -191h-58zM167 242h272l-87 397h-2z" />
    <glyph glyph-name="uni1EA4" unicode="&#x1ea4;" horiz-adv-x="606" 
d="M496 848l121 135h61l-136 -135h-46zM236 788l126 118h52l90 -118h-54l-65 83h-3l-91 -83h-55zM-1 0l330 710h60l159 -710h-58l-41 191h-304l-88 -191h-58zM167 242h272l-87 397h-2z" />
    <glyph glyph-name="uni1EAC" unicode="&#x1eac;" horiz-adv-x="606" 
d="M236 788l126 118h52l90 -118h-54l-65 83h-3l-91 -83h-55zM-1 0l330 710h60l159 -710h-58l-41 191h-304l-88 -191h-58zM167 242h272l-87 397h-2zM262 -109c24 0 40 -18 40 -42c0 -25 -18 -43 -42 -43s-42 17 -42 41c0 25 18 44 44 44z" />
    <glyph glyph-name="uni1EA6" unicode="&#x1ea6;" horiz-adv-x="606" 
d="M531 847l-96 134h57l82 -134h-43zM236 788l126 118h52l90 -118h-54l-65 83h-3l-91 -83h-55zM-1 0l330 710h60l159 -710h-58l-41 191h-304l-88 -191h-58zM167 242h272l-87 397h-2z" />
    <glyph glyph-name="uni1EA8" unicode="&#x1ea8;" horiz-adv-x="606" 
d="M539 851l-40 1c33 24 83 53 83 85c0 20 -15 27 -37 27c-28 0 -57 -10 -80 -28l-8 31c26 16 61 33 101 33c36 0 66 -16 66 -54c0 -47 -54 -78 -85 -95zM236 788l126 118h52l90 -118h-54l-65 83h-3l-91 -83h-55zM-1 0l330 710h60l159 -710h-58l-41 191h-304l-88 -191h-58z
M167 242h272l-87 397h-2z" />
    <glyph glyph-name="uni1EAA" unicode="&#x1eaa;" horiz-adv-x="606" 
d="M466 924c-32 0 -55 22 -74 37c-17 14 -33 26 -50 26c-24 0 -46 -22 -61 -58l-36 17c23 50 53 82 93 82c32 0 50 -16 68 -32c19 -14 36 -31 56 -31c21 0 45 20 61 59l34 -15c-23 -56 -58 -85 -91 -85zM236 788l126 118h52l90 -118h-54l-65 83h-3l-91 -83h-55zM-1 0
l330 710h60l159 -710h-58l-41 191h-304l-88 -191h-58zM167 242h272l-87 397h-2z" />
    <glyph glyph-name="Adieresis" unicode="&#xc4;" horiz-adv-x="606" 
d="M302 810c-24 0 -41 18 -41 42c0 25 18 43 42 43c25 0 43 -17 43 -41c0 -25 -19 -44 -44 -44zM454 810c-24 0 -41 18 -41 42c0 25 18 43 43 43c24 0 42 -17 42 -41c0 -25 -19 -44 -44 -44zM-1 0l330 710h60l159 -710h-58l-41 191h-304l-88 -191h-58zM167 242h272l-87 397
h-2z" />
    <glyph glyph-name="uni1EA0" unicode="&#x1ea0;" horiz-adv-x="606" 
d="M-1 0l330 710h60l159 -710h-58l-41 191h-304l-88 -191h-58zM167 242h272l-87 397h-2zM262 -109c24 0 40 -18 40 -42c0 -25 -18 -43 -42 -43s-42 17 -42 41c0 25 18 44 44 44z" />
    <glyph glyph-name="Agrave" unicode="&#xc0;" horiz-adv-x="606" 
d="M344 788l-98 128l62 -1l92 -127h-56zM-1 0l330 710h60l159 -710h-58l-41 191h-304l-88 -191h-58zM167 242h272l-87 397h-2z" />
    <glyph glyph-name="uni1EA2" unicode="&#x1ea2;" horiz-adv-x="606" 
d="M387 791l-43 1c36 27 93 72 93 107c0 22 -16 30 -39 30c-29 0 -61 -12 -85 -33l-8 35c26 19 65 37 106 37c40 0 70 -17 70 -59c0 -50 -60 -96 -94 -118zM-1 0l330 710h60l159 -710h-58l-41 191h-304l-88 -191h-58zM167 242h272l-87 397h-2z" />
    <glyph glyph-name="Amacron" unicode="&#x100;" horiz-adv-x="606" 
d="M253 822l6 45h251l-6 -45h-251zM-1 0l330 710h60l159 -710h-58l-41 191h-304l-88 -191h-58zM167 242h272l-87 397h-2z" />
    <glyph glyph-name="Aogonek" unicode="&#x104;" horiz-adv-x="606" 
d="M548 -133l2 -38c-17 -8 -37 -12 -61 -12c-51 0 -79 25 -77 71c2 42 35 84 77 116l-40 187h-304l-88 -191h-58l330 710h60l159 -710h-3c-53 -30 -86 -67 -87 -104c-1 -22 11 -40 41 -40c24 0 35 4 49 11zM167 242h272l-87 397h-2z" />
    <glyph glyph-name="Aring" unicode="&#xc5;" horiz-adv-x="606" 
d="M377 779c-47 0 -82 35 -82 82c0 49 36 84 85 84c48 0 83 -34 83 -81c0 -49 -37 -85 -86 -85zM378 816c28 0 48 20 48 47s-20 46 -46 46c-27 0 -47 -20 -47 -47s19 -46 45 -46zM-1 0l330 710h60l159 -710h-58l-41 191h-304l-88 -191h-58zM167 242h272l-87 397h-2z" />
    <glyph glyph-name="Aringacute" unicode="&#x1fa;" horiz-adv-x="606" 
d="M377 779c-47 0 -82 35 -82 82c0 49 36 84 85 84c28 0 51 -11 66 -30l75 52h67l-126 -88c1 -5 1 -10 1 -15c0 -49 -37 -85 -86 -85zM380 909c-27 0 -47 -20 -47 -47s19 -46 45 -46c28 0 48 20 48 47s-20 46 -46 46zM329 710h60l159 -710h-58l-41 191h-304l-88 -191h-58z
M167 242h272l-87 397h-2z" />
    <glyph glyph-name="Atilde" unicode="&#xc3;" horiz-adv-x="606" 
d="M448 788c-32 0 -56 22 -75 38c-18 14 -34 26 -51 26c-25 0 -47 -22 -63 -59l-36 17c23 52 54 84 95 84c32 0 51 -16 69 -32c19 -15 37 -32 57 -32c22 0 46 20 62 60l35 -15c-23 -57 -59 -87 -93 -87zM-1 0l330 710h60l159 -710h-58l-41 191h-304l-88 -191h-58zM167 242
h272l-87 397h-2z" />
    <glyph glyph-name="AE" unicode="&#xc6;" horiz-adv-x="842" 
d="M-24 0l441 710h415l-6 -52h-331l-33 -278h277l-6 -52h-278l-33 -276h348l-6 -52h-403l23 191h-227l-118 -191h-63zM186 241h205l49 408h-1z" />
    <glyph glyph-name="AEacute" unicode="&#x1fc;" horiz-adv-x="842" 
d="M460 788l123 127l61 1l-128 -128h-56zM-24 0l441 710h415l-6 -52h-331l-33 -278h277l-6 -52h-278l-33 -276h348l-6 -52h-403l23 191h-227l-118 -191h-63zM186 241h205l49 408h-1z" />
    <glyph glyph-name="B" unicode="B" horiz-adv-x="587" 
d="M64 0l87 710h211c96 0 172 -37 172 -142c0 -76 -43 -160 -127 -190v-2c68 -16 119 -60 119 -147c0 -149 -101 -229 -264 -229h-198zM168 395h150c94 0 159 70 159 166c0 63 -37 97 -128 97h-149zM126 52h138c122 0 204 59 204 177c0 79 -49 116 -151 116h-155z" />
    <glyph glyph-name="C" unicode="C" horiz-adv-x="672" 
d="M346 -5c-162 0 -274 110 -274 299c0 223 148 421 359 421c89 0 174 -38 244 -151l-48 -33c-54 94 -115 131 -197 131c-179 0 -300 -179 -300 -367c0 -152 83 -246 218 -246c72 0 152 35 211 100l42 -35c-63 -71 -157 -119 -255 -119z" />
    <glyph glyph-name="Cacute" unicode="&#x106;" horiz-adv-x="672" 
d="M420 788l123 127l61 1l-128 -128h-56zM346 -5c-162 0 -274 110 -274 299c0 223 148 421 359 421c89 0 174 -38 244 -151l-48 -33c-54 94 -115 131 -197 131c-179 0 -300 -179 -300 -367c0 -152 83 -246 218 -246c72 0 152 35 211 100l42 -35c-63 -71 -157 -119 -255 -119
z" />
    <glyph glyph-name="Ccaron" unicode="&#x10c;" horiz-adv-x="672" 
d="M436 788l-91 118h54l66 -83h2l91 83h55l-126 -118h-51zM346 -5c-162 0 -274 110 -274 299c0 223 148 421 359 421c89 0 174 -38 244 -151l-48 -33c-54 94 -115 131 -197 131c-179 0 -300 -179 -300 -367c0 -152 83 -246 218 -246c72 0 152 35 211 100l42 -35
c-63 -71 -157 -119 -255 -119z" />
    <glyph glyph-name="Ccedilla" unicode="&#xc7;" horiz-adv-x="672" 
d="M430 662c-179 0 -300 -179 -300 -367c0 -152 83 -246 218 -246c72 0 152 35 211 100l42 -35c-63 -71 -156 -118 -253 -119l-18 -30l1 -1c43 -3 70 -21 70 -61c0 -57 -45 -87 -104 -87c-14 0 -28 1 -42 4l3 34c12 -4 24 -5 36 -5c38 0 67 17 67 53c0 24 -22 35 -70 36
l4 27l17 32c-143 14 -240 122 -240 297c0 223 148 421 359 421c89 0 174 -38 244 -151l-48 -33c-54 94 -115 131 -197 131z" />
    <glyph glyph-name="Ccircumflex" unicode="&#x108;" horiz-adv-x="672" 
d="M327 788l126 118h52l90 -118h-54l-65 83h-3l-91 -83h-55zM346 -5c-162 0 -274 110 -274 299c0 223 148 421 359 421c89 0 174 -38 244 -151l-48 -33c-54 94 -115 131 -197 131c-179 0 -300 -179 -300 -367c0 -152 83 -246 218 -246c72 0 152 35 211 100l42 -35
c-63 -71 -157 -119 -255 -119z" />
    <glyph glyph-name="Cdotaccent" unicode="&#x10a;" horiz-adv-x="672" 
d="M469 810c-24 0 -40 18 -40 42c0 25 18 43 42 43s42 -17 42 -41c0 -25 -18 -44 -44 -44zM346 -5c-162 0 -274 110 -274 299c0 223 148 421 359 421c89 0 174 -38 244 -151l-48 -33c-54 94 -115 131 -197 131c-179 0 -300 -179 -300 -367c0 -152 83 -246 218 -246
c72 0 152 35 211 100l42 -35c-63 -71 -157 -119 -255 -119z" />
    <glyph glyph-name="D" unicode="D" horiz-adv-x="671" 
d="M64 0l87 710h189c186 0 286 -111 286 -290c0 -247 -150 -420 -378 -420h-184zM126 52h125c190 0 317 155 317 367c0 148 -81 239 -232 239h-135z" />
    <glyph glyph-name="Eth" unicode="&#xd0;" horiz-adv-x="671" 
d="M340 710c186 0 286 -111 286 -290c0 -247 -150 -420 -378 -420h-184l40 330h-74l7 51h74l40 329h189zM251 52c190 0 317 155 317 367c0 148 -81 239 -232 239h-135l-34 -277h174l-7 -51h-174l-34 -278h125z" />
    <glyph glyph-name="Dcaron" unicode="&#x10e;" horiz-adv-x="671" 
d="M375 788l-91 118h54l66 -83h2l91 83h55l-126 -118h-51zM64 0l87 710h189c186 0 286 -111 286 -290c0 -247 -150 -420 -378 -420h-184zM126 52h125c190 0 317 155 317 367c0 148 -81 239 -232 239h-135z" />
    <glyph glyph-name="Dcroat" unicode="&#x110;" horiz-adv-x="671" 
d="M340 710c186 0 286 -111 286 -290c0 -247 -150 -420 -378 -420h-184l40 330h-74l7 51h74l40 329h189zM251 52c190 0 317 155 317 367c0 148 -81 239 -232 239h-135l-34 -277h174l-7 -51h-174l-34 -278h125z" />
    <glyph glyph-name="uni1E0C" unicode="&#x1e0c;" horiz-adv-x="671" 
d="M64 0l87 710h189c186 0 286 -111 286 -290c0 -247 -150 -420 -378 -420h-184zM126 52h125c190 0 317 155 317 367c0 148 -81 239 -232 239h-135zM261 -109c24 0 40 -18 40 -42c0 -25 -18 -43 -42 -43s-42 17 -42 41c0 25 18 44 44 44z" />
    <glyph glyph-name="uni1E0E" unicode="&#x1e0e;" horiz-adv-x="671" 
d="M64 0l87 710h189c186 0 286 -111 286 -290c0 -247 -150 -420 -378 -420h-184zM126 52h125c190 0 317 155 317 367c0 148 -81 239 -232 239h-135zM132 -182l6 46h251l-6 -46h-251z" />
    <glyph glyph-name="E" unicode="E" horiz-adv-x="546" 
d="M64 0l87 710h384l-6 -52h-329l-34 -278h272l-5 -52h-273l-34 -276h347l-6 -52h-403z" />
    <glyph glyph-name="Eacute" unicode="&#xc9;" horiz-adv-x="546" 
d="M286 790l123 127l61 1l-128 -128h-56zM64 0l87 710h384l-6 -52h-329l-34 -278h272l-5 -52h-273l-34 -276h347l-6 -52h-403z" />
    <glyph glyph-name="Ebreve" unicode="&#x114;" horiz-adv-x="546" 
d="M361 785c-74 0 -111 48 -105 124l43 -1c-4 -41 12 -79 63 -79c53 0 87 40 96 80l43 -1c-15 -74 -72 -123 -140 -123zM64 0l87 710h384l-6 -52h-329l-34 -278h272l-5 -52h-273l-34 -276h347l-6 -52h-403z" />
    <glyph glyph-name="Ecaron" unicode="&#x11a;" horiz-adv-x="546" 
d="M335 790l-91 118h54l66 -83h2l91 83h55l-126 -118h-51zM64 0l87 710h384l-6 -52h-329l-34 -278h272l-5 -52h-273l-34 -276h347l-6 -52h-403z" />
    <glyph glyph-name="Ecircumflex" unicode="&#xca;" horiz-adv-x="546" 
d="M226 790l126 118h52l90 -118h-54l-65 83h-3l-91 -83h-55zM64 0l87 710h384l-6 -52h-329l-34 -278h272l-5 -52h-273l-34 -276h347l-6 -52h-403z" />
    <glyph glyph-name="uni1EBE" unicode="&#x1ebe;" horiz-adv-x="546" 
d="M486 850l121 135h61l-136 -135h-46zM226 790l126 118h52l90 -118h-54l-65 83h-3l-91 -83h-55zM64 0l87 710h384l-6 -52h-329l-34 -278h272l-5 -52h-273l-34 -276h347l-6 -52h-403z" />
    <glyph glyph-name="uni1EC6" unicode="&#x1ec6;" horiz-adv-x="546" 
d="M226 790l126 118h52l90 -118h-54l-65 83h-3l-91 -83h-55zM64 0l87 710h384l-6 -52h-329l-34 -278h272l-5 -52h-273l-34 -276h347l-6 -52h-403zM257 -109c24 0 40 -18 40 -42c0 -25 -18 -43 -42 -43s-42 17 -42 41c0 25 18 44 44 44z" />
    <glyph glyph-name="uni1EC0" unicode="&#x1ec0;" horiz-adv-x="546" 
d="M521 849l-96 134h57l82 -134h-43zM226 790l126 118h52l90 -118h-54l-65 83h-3l-91 -83h-55zM64 0l87 710h384l-6 -52h-329l-34 -278h272l-5 -52h-273l-34 -276h347l-6 -52h-403z" />
    <glyph glyph-name="uni1EC2" unicode="&#x1ec2;" horiz-adv-x="546" 
d="M529 853l-40 1c33 24 83 53 83 85c0 20 -15 27 -37 27c-28 0 -57 -10 -80 -28l-8 31c26 16 61 33 101 33c36 0 66 -16 66 -54c0 -47 -54 -78 -85 -95zM226 790l126 118h52l90 -118h-54l-65 83h-3l-91 -83h-55zM64 0l87 710h384l-6 -52h-329l-34 -278h272l-5 -52h-273
l-34 -276h347l-6 -52h-403z" />
    <glyph glyph-name="uni1EC4" unicode="&#x1ec4;" horiz-adv-x="546" 
d="M456 926c-32 0 -55 22 -74 37c-17 14 -33 26 -50 26c-24 0 -46 -22 -61 -58l-36 17c23 50 53 82 93 82c32 0 50 -16 68 -32c19 -14 36 -31 56 -31c21 0 45 20 61 59l34 -15c-23 -56 -58 -85 -91 -85zM226 790l126 118h52l90 -118h-54l-65 83h-3l-91 -83h-55zM64 0l87 710
h384l-6 -52h-329l-34 -278h272l-5 -52h-273l-34 -276h347l-6 -52h-403z" />
    <glyph glyph-name="Edieresis" unicode="&#xcb;" horiz-adv-x="546" 
d="M292 812c-24 0 -41 18 -41 42c0 25 18 43 42 43c25 0 43 -17 43 -41c0 -25 -19 -44 -44 -44zM444 812c-24 0 -41 18 -41 42c0 25 18 43 43 43c24 0 42 -17 42 -41c0 -25 -19 -44 -44 -44zM64 0l87 710h384l-6 -52h-329l-34 -278h272l-5 -52h-273l-34 -276h347l-6 -52
h-403z" />
    <glyph glyph-name="Edotaccent" unicode="&#x116;" horiz-adv-x="546" 
d="M368 812c-24 0 -40 18 -40 42c0 25 18 43 42 43s42 -17 42 -41c0 -25 -18 -44 -44 -44zM64 0l87 710h384l-6 -52h-329l-34 -278h272l-5 -52h-273l-34 -276h347l-6 -52h-403z" />
    <glyph glyph-name="uni1EB8" unicode="&#x1eb8;" horiz-adv-x="546" 
d="M64 0l87 710h384l-6 -52h-329l-34 -278h272l-5 -52h-273l-34 -276h347l-6 -52h-403zM257 -109c24 0 40 -18 40 -42c0 -25 -18 -43 -42 -43s-42 17 -42 41c0 25 18 44 44 44z" />
    <glyph glyph-name="Egrave" unicode="&#xc8;" horiz-adv-x="546" 
d="M377 790l-98 128l62 -1l92 -127h-56zM64 0l87 710h384l-6 -52h-329l-34 -278h272l-5 -52h-273l-34 -276h347l-6 -52h-403z" />
    <glyph glyph-name="uni1EBA" unicode="&#x1eba;" horiz-adv-x="546" 
d="M376 783l-43 1c36 26 89 57 89 92c0 22 -16 29 -40 29c-29 0 -60 -11 -85 -30l-8 33c27 18 65 36 107 36c39 0 70 -17 70 -58c0 -51 -57 -85 -90 -103zM64 0l87 710h384l-6 -52h-329l-34 -278h272l-5 -52h-273l-34 -276h347l-6 -52h-403z" />
    <glyph glyph-name="Emacron" unicode="&#x112;" horiz-adv-x="546" 
d="M243 824l6 45h251l-6 -45h-251zM64 0l87 710h384l-6 -52h-329l-34 -278h272l-5 -52h-273l-34 -276h347l-6 -52h-403z" />
    <glyph glyph-name="Eogonek" unicode="&#x118;" horiz-adv-x="546" 
d="M529 658h-329l-34 -278h272l-5 -52h-273l-34 -276h347l-6 -52h-2c-53 -30 -86 -67 -87 -104c-1 -22 11 -40 41 -40c24 0 35 4 49 11l2 -38c-17 -8 -37 -12 -61 -12c-51 0 -79 25 -77 71c2 41 32 81 72 112h-340l87 710h384z" />
    <glyph glyph-name="uni1EBC" unicode="&#x1ebc;" horiz-adv-x="546" 
d="M438 790c-32 0 -56 22 -75 38c-18 14 -34 26 -51 26c-25 0 -47 -22 -63 -59l-36 17c23 52 54 84 95 84c32 0 51 -16 69 -32c19 -15 37 -32 57 -32c22 0 46 20 62 60l35 -15c-23 -57 -59 -87 -93 -87zM64 0l87 710h384l-6 -52h-329l-34 -278h272l-5 -52h-273l-34 -276h347
l-6 -52h-403z" />
    <glyph glyph-name="F" unicode="F" horiz-adv-x="530" 
d="M64 0l87 710h400l-5 -52h-346l-35 -285h295l-5 -51h-296l-39 -322h-56z" />
    <glyph glyph-name="G" unicode="G" horiz-adv-x="706" 
d="M352 -5c-171 0 -280 110 -280 298c0 224 148 422 360 422c86 0 166 -30 231 -113l-45 -36c-54 69 -117 96 -189 96c-176 0 -298 -174 -298 -368c0 -152 80 -246 223 -246c72 0 145 23 202 69l23 185h-208l6 52h264l-33 -267c-67 -61 -165 -92 -256 -92z" />
    <glyph glyph-name="Gbreve" unicode="&#x11e;" horiz-adv-x="706" 
d="M446 783c-74 0 -111 48 -105 124l43 -1c-4 -41 12 -79 63 -79c53 0 87 40 96 80l43 -1c-15 -74 -72 -123 -140 -123zM352 -5c-171 0 -280 110 -280 298c0 224 148 422 360 422c86 0 166 -30 231 -113l-45 -36c-54 69 -117 96 -189 96c-176 0 -298 -174 -298 -368
c0 -152 80 -246 223 -246c72 0 145 23 202 69l23 185h-208l6 52h264l-33 -267c-67 -61 -165 -92 -256 -92z" />
    <glyph glyph-name="Gcaron" unicode="&#x1e6;" horiz-adv-x="706" 
d="M420 788l-91 118h54l66 -83h2l91 83h55l-126 -118h-51zM352 -5c-171 0 -280 110 -280 298c0 224 148 422 360 422c86 0 166 -30 231 -113l-45 -36c-54 69 -117 96 -189 96c-176 0 -298 -174 -298 -368c0 -152 80 -246 223 -246c72 0 145 23 202 69l23 185h-208l6 52h264
l-33 -267c-67 -61 -165 -92 -256 -92z" />
    <glyph glyph-name="Gcircumflex" unicode="&#x11c;" horiz-adv-x="706" 
d="M311 788l126 118h52l90 -118h-54l-65 83h-3l-91 -83h-55zM352 -5c-171 0 -280 110 -280 298c0 224 148 422 360 422c86 0 166 -30 231 -113l-45 -36c-54 69 -117 96 -189 96c-176 0 -298 -174 -298 -368c0 -152 80 -246 223 -246c72 0 145 23 202 69l23 185h-208l6 52
h264l-33 -267c-67 -61 -165 -92 -256 -92z" />
    <glyph glyph-name="Gcommaaccent" unicode="&#x122;" horiz-adv-x="706" 
d="M352 -5c-171 0 -280 110 -280 298c0 224 148 422 360 422c86 0 166 -30 231 -113l-45 -36c-54 69 -117 96 -189 96c-176 0 -298 -174 -298 -368c0 -152 80 -246 223 -246c72 0 145 23 202 69l23 185h-208l6 52h264l-33 -267c-67 -61 -165 -92 -256 -92zM256 -206l-9 34
c48 8 68 35 68 98c0 6 0 12 -1 20h47c0 -4 1 -8 1 -22c0 -74 -32 -124 -106 -130z" />
    <glyph glyph-name="Gdotaccent" unicode="&#x120;" horiz-adv-x="706" 
d="M453 810c-24 0 -40 18 -40 42c0 25 18 43 42 43s42 -17 42 -41c0 -25 -18 -44 -44 -44zM352 -5c-171 0 -280 110 -280 298c0 224 148 422 360 422c86 0 166 -30 231 -113l-45 -36c-54 69 -117 96 -189 96c-176 0 -298 -174 -298 -368c0 -152 80 -246 223 -246
c72 0 145 23 202 69l23 185h-208l6 52h264l-33 -267c-67 -61 -165 -92 -256 -92z" />
    <glyph glyph-name="uni1E20" unicode="&#x1e20;" horiz-adv-x="706" 
d="M328 822l6 45h251l-6 -45h-251zM352 -5c-171 0 -280 110 -280 298c0 224 148 422 360 422c86 0 166 -30 231 -113l-45 -36c-54 69 -117 96 -189 96c-176 0 -298 -174 -298 -368c0 -152 80 -246 223 -246c72 0 145 23 202 69l23 185h-208l6 52h264l-33 -267
c-67 -61 -165 -92 -256 -92z" />
    <glyph glyph-name="H" unicode="H" horiz-adv-x="668" 
d="M64 0l87 710h56l-43 -348h370l42 348h56l-87 -710h-56l38 310h-369l-38 -310h-56z" />
    <glyph glyph-name="Hbar" unicode="&#x126;" horiz-adv-x="666" 
d="M671 576l-5 -42h-55l-65 -534h-56l38 310h-369l-38 -310h-56l65 534h-60l5 42h61l16 134h56l-17 -134h370l16 134h56l-16 -134h54zM535 362l21 172h-370l-21 -172h370z" />
    <glyph glyph-name="uni1E2A" unicode="&#x1e2a;" horiz-adv-x="668" 
d="M64 0l87 710h56l-43 -348h370l42 348h56l-87 -710h-56l38 310h-369l-38 -310h-56zM281 -213c-73 0 -111 48 -105 134h43c-4 -52 12 -90 64 -90s87 39 95 90h43c-15 -85 -71 -134 -140 -134z" />
    <glyph glyph-name="Hcircumflex" unicode="&#x124;" horiz-adv-x="668" 
d="M269 788l126 118h52l90 -118h-54l-65 83h-3l-91 -83h-55zM64 0l87 710h56l-43 -348h370l42 348h56l-87 -710h-56l38 310h-369l-38 -310h-56z" />
    <glyph glyph-name="uni1E24" unicode="&#x1e24;" horiz-adv-x="668" 
d="M64 0l87 710h56l-43 -348h370l42 348h56l-87 -710h-56l38 310h-369l-38 -310h-56zM289 -109c24 0 40 -18 40 -42c0 -25 -18 -43 -42 -43s-42 17 -42 41c0 25 18 44 44 44z" />
    <glyph glyph-name="I" unicode="I" horiz-adv-x="255" 
d="M70 0l87 710h56l-87 -710h-56z" />
    <glyph glyph-name="IJ" unicode="&#x132;" horiz-adv-x="707" 
d="M70 0l87 710h56l-87 -710h-56zM421 -5c-56 0 -119 32 -156 94l38 40c30 -49 74 -80 118 -80c75 0 132 48 147 179l59 482h56l-59 -485c-19 -155 -84 -230 -203 -230z" />
    <glyph glyph-name="Iacute" unicode="&#xcd;" horiz-adv-x="255" 
d="M171 788l123 127l61 1l-128 -128h-56zM70 0l87 710h56l-87 -710h-56z" />
    <glyph glyph-name="Ibreve" unicode="&#x12c;" horiz-adv-x="255" 
d="M194 783c-74 0 -111 48 -105 124l43 -1c-4 -41 12 -79 63 -79c53 0 87 40 96 80l43 -1c-15 -74 -72 -123 -140 -123zM70 0l87 710h56l-87 -710h-56z" />
    <glyph glyph-name="uni01CF" unicode="&#x1cf;" horiz-adv-x="255" 
d="M168 788l-91 118h54l66 -83h2l91 83h55l-126 -118h-51zM70 0l87 710h56l-87 -710h-56z" />
    <glyph glyph-name="Icircumflex" unicode="&#xce;" horiz-adv-x="255" 
d="M59 788l126 118h52l90 -118h-54l-65 83h-3l-91 -83h-55zM70 0l87 710h56l-87 -710h-56z" />
    <glyph glyph-name="Idieresis" unicode="&#xcf;" horiz-adv-x="255" 
d="M125 810c-24 0 -41 18 -41 42c0 25 18 43 42 43c25 0 43 -17 43 -41c0 -25 -19 -44 -44 -44zM277 810c-24 0 -41 18 -41 42c0 25 18 43 43 43c24 0 42 -17 42 -41c0 -25 -19 -44 -44 -44zM70 0l87 710h56l-87 -710h-56z" />
    <glyph glyph-name="Idotaccent" unicode="&#x130;" horiz-adv-x="255" 
d="M201 810c-24 0 -40 18 -40 42c0 25 18 43 42 43s42 -17 42 -41c0 -25 -18 -44 -44 -44zM70 0l87 710h56l-87 -710h-56z" />
    <glyph glyph-name="uni1ECA" unicode="&#x1eca;" horiz-adv-x="255" 
d="M70 0l87 710h56l-87 -710h-56zM81 -109c24 0 40 -18 40 -42c0 -25 -18 -43 -42 -43s-42 17 -42 41c0 25 18 44 44 44z" />
    <glyph glyph-name="Igrave" unicode="&#xcc;" horiz-adv-x="255" 
d="M167 788l-98 128l62 -1l92 -127h-56zM70 0l87 710h56l-87 -710h-56z" />
    <glyph glyph-name="uni1EC8" unicode="&#x1ec8;" horiz-adv-x="255" 
d="M209 781l-43 1c36 26 89 57 89 92c0 22 -16 29 -40 29c-29 0 -60 -11 -85 -30l-8 33c27 18 65 36 107 36c39 0 70 -17 70 -58c0 -51 -57 -85 -90 -103zM70 0l87 710h56l-87 -710h-56z" />
    <glyph glyph-name="Imacron" unicode="&#x12a;" horiz-adv-x="255" 
d="M76 822l6 45h251l-6 -45h-251zM70 0l87 710h56l-87 -710h-56z" />
    <glyph glyph-name="Iogonek" unicode="&#x12e;" horiz-adv-x="255" 
d="M78 -144c24 0 35 4 49 11l2 -38c-17 -8 -37 -12 -61 -12c-51 0 -79 25 -77 71c2 43 36 86 80 118l86 704h56l-87 -710h-2c-53 -30 -86 -67 -87 -104c-1 -22 11 -40 41 -40z" />
    <glyph glyph-name="Itilde" unicode="&#x128;" horiz-adv-x="255" 
d="M271 788c-32 0 -56 22 -75 38c-18 14 -34 26 -51 26c-25 0 -47 -22 -63 -59l-36 17c23 52 54 84 95 84c32 0 51 -16 69 -32c19 -15 37 -32 57 -32c22 0 46 20 62 60l35 -15c-23 -57 -59 -87 -93 -87zM70 0l87 710h56l-87 -710h-56z" />
    <glyph glyph-name="J" unicode="J" horiz-adv-x="452" 
d="M166 -5c-56 0 -119 32 -156 94l38 40c30 -49 74 -80 118 -80c75 0 132 48 147 179l59 482h56l-59 -485c-19 -155 -84 -230 -203 -230z" />
    <glyph glyph-name="uni00A40301" horiz-adv-x="452" 
d="M381 788l123 127l61 1l-128 -128h-56zM166 -5c-56 0 -119 32 -156 94l38 40c30 -49 74 -80 118 -80c75 0 132 48 147 179l59 482h56l-59 -485c-19 -155 -84 -230 -203 -230z" />
    <glyph glyph-name="Jcircumflex" unicode="&#x134;" horiz-adv-x="452" 
d="M274 788l126 118h52l90 -118h-54l-65 83h-3l-91 -83h-55zM166 -5c-56 0 -119 32 -156 94l38 40c30 -49 74 -80 118 -80c75 0 132 48 147 179l59 482h56l-59 -485c-19 -155 -84 -230 -203 -230z" />
    <glyph glyph-name="K" unicode="K" horiz-adv-x="588" 
d="M607 710l-287 -324l205 -386h-65l-181 345l-136 -152l-23 -193h-56l87 710h56l-53 -430l2 -1l380 431h71z" />
    <glyph glyph-name="Kcommaaccent" unicode="&#x136;" horiz-adv-x="588" 
d="M607 710l-287 -324l205 -386h-65l-181 345l-136 -152l-23 -193h-56l87 710h56l-53 -430l2 -1l380 431h71zM238 -54h47c0 -4 1 -8 1 -22c0 -74 -32 -124 -106 -130l-9 34c48 8 68 35 68 98c0 6 0 12 -1 20z" />
    <glyph glyph-name="L" unicode="L" horiz-adv-x="509" 
d="M64 0l87 710h56l-81 -658h332l-6 -52h-388z" />
    <glyph glyph-name="Lacute" unicode="&#x139;" horiz-adv-x="509" 
d="M248 788l123 127l61 1l-128 -128h-56zM64 0l87 710h56l-81 -658h332l-6 -52h-388z" />
    <glyph glyph-name="Lcaron" unicode="&#x13d;" horiz-adv-x="509" 
d="M290 592l45 172h55l-59 -172h-41zM64 0l87 710h56l-81 -658h332l-6 -52h-388z" />
    <glyph glyph-name="Lcommaaccent" unicode="&#x13b;" horiz-adv-x="509" 
d="M64 0l87 710h56l-81 -658h332l-6 -52h-388zM164 -206l-9 34c48 8 68 35 68 98c0 6 0 12 -1 20h47c0 -4 1 -8 1 -22c0 -74 -32 -124 -106 -130z" />
    <glyph glyph-name="Ldot" unicode="&#x13f;" horiz-adv-x="509" 
d="M64 0l87 710h56l-81 -658h332l-6 -52h-388zM371 296c-25 0 -42 18 -42 42s18 43 43 43c24 0 42 -18 42 -42s-19 -43 -43 -43z" />
    <glyph glyph-name="uni1E36" unicode="&#x1e36;" horiz-adv-x="509" 
d="M64 0l87 710h56l-81 -658h332l-6 -52h-388zM243 -109c24 0 40 -18 40 -42c0 -25 -18 -43 -42 -43s-42 17 -42 41c0 25 18 44 44 44z" />
    <glyph glyph-name="uni1E38" unicode="&#x1e38;" horiz-adv-x="509" 
d="M205 822l6 45h251l-6 -45h-251zM64 0l87 710h56l-81 -658h332l-6 -52h-388zM243 -109c24 0 40 -18 40 -42c0 -25 -18 -43 -42 -43s-42 17 -42 41c0 25 18 44 44 44z" />
    <glyph glyph-name="uni1E3A" unicode="&#x1e3a;" horiz-adv-x="509" 
d="M64 0l87 710h56l-81 -658h332l-6 -52h-388zM114 -182l6 46h251l-6 -46h-251z" />
    <glyph glyph-name="Lslash" unicode="&#x141;" horiz-adv-x="519" 
d="M136 52h332l-6 -52h-388l36 294l-91 -39l8 50l89 39l45 366h56l-42 -340l107 47l-7 -51l-106 -46z" />
    <glyph glyph-name="M" unicode="M" horiz-adv-x="808" 
d="M64 0l87 710h56l194 -489h3l312 489h55l-86 -710h-56l72 591h-3l-284 -442h-41l-179 449h-2l-72 -598h-56z" />
    <glyph glyph-name="uni1E42" unicode="&#x1e42;" horiz-adv-x="808" 
d="M64 0l87 710h56l194 -489h3l312 489h55l-86 -710h-56l72 591h-3l-284 -442h-41l-179 449h-2l-72 -598h-56zM358 -109c24 0 40 -18 40 -42c0 -25 -18 -43 -42 -43s-42 17 -42 41c0 25 18 44 44 44z" />
    <glyph glyph-name="N" unicode="N" horiz-adv-x="697" 
d="M64 0l87 710h54l323 -614l2 1l75 613h55l-87 -710h-56l-320 609h-3l-74 -609h-56z" />
    <glyph glyph-name="Nacute" unicode="&#x143;" horiz-adv-x="697" 
d="M343 788l123 127l61 1l-128 -128h-56zM64 0l87 710h54l323 -614l2 1l75 613h55l-87 -710h-56l-320 609h-3l-74 -609h-56z" />
    <glyph glyph-name="Ncaron" unicode="&#x147;" horiz-adv-x="697" 
d="M392 788l-91 118h54l66 -83h2l91 83h55l-126 -118h-51zM64 0l87 710h54l323 -614l2 1l75 613h55l-87 -710h-56l-320 609h-3l-74 -609h-56z" />
    <glyph glyph-name="Ncommaaccent" unicode="&#x145;" horiz-adv-x="697" 
d="M64 0l87 710h54l323 -614l2 1l75 613h55l-87 -710h-56l-320 609h-3l-74 -609h-56zM227 -206l-9 34c48 8 68 35 68 98c0 6 0 12 -1 20h47c0 -4 1 -8 1 -22c0 -74 -32 -124 -106 -130z" />
    <glyph glyph-name="uni1E44" unicode="&#x1e44;" horiz-adv-x="697" 
d="M429 828c-24 0 -40 18 -40 42c0 25 18 43 42 43s42 -17 42 -41c0 -25 -18 -44 -44 -44zM64 0l87 710h54l323 -614l2 1l75 613h55l-87 -710h-56l-320 609h-3l-74 -609h-56z" />
    <glyph glyph-name="uni1E46" unicode="&#x1e46;" horiz-adv-x="697" 
d="M64 0l87 710h54l323 -614l2 1l75 613h55l-87 -710h-56l-320 609h-3l-74 -609h-56zM306 -109c24 0 40 -18 40 -42c0 -25 -18 -43 -42 -43s-42 17 -42 41c0 25 18 44 44 44z" />
    <glyph glyph-name="Eng" unicode="&#x14a;" horiz-adv-x="697" 
d="M605 710h55l-89 -726c-16 -133 -77 -186 -180 -186c-21 0 -42 4 -62 9l7 48c16 -5 36 -8 55 -8c67 0 111 29 124 137l2 17l-320 608h-3l-74 -609h-56l87 710h54l323 -614l2 1z" />
    <glyph glyph-name="uni019D" unicode="&#x19d;" horiz-adv-x="693" 
d="M-13 -202c-16 0 -41 2 -60 9l8 47c16 -6 35 -7 48 -7c43 0 66 29 76 110l92 753h54l317 -614l2 1l76 613h56l-89 -710h-55l-315 609h-3l-81 -662c-12 -101 -49 -149 -126 -149z" />
    <glyph glyph-name="uni1E48" unicode="&#x1e48;" horiz-adv-x="697" 
d="M64 0l87 710h54l323 -614l2 1l75 613h55l-87 -710h-56l-320 609h-3l-74 -609h-56zM177 -182l6 46h251l-6 -46h-251z" />
    <glyph glyph-name="Ntilde" unicode="&#xd1;" horiz-adv-x="697" 
d="M495 788c-32 0 -56 22 -75 38c-18 14 -34 26 -51 26c-25 0 -47 -22 -63 -59l-36 17c23 52 54 84 95 84c32 0 51 -16 69 -32c19 -15 37 -32 57 -32c22 0 46 20 62 60l35 -15c-23 -57 -59 -87 -93 -87zM64 0l87 710h54l323 -614l2 1l75 613h55l-87 -710h-56l-320 609h-3
l-74 -609h-56z" />
    <glyph glyph-name="O" unicode="O" horiz-adv-x="755" 
d="M349 -5c-167 0 -279 109 -279 297c0 222 145 423 364 423c166 0 279 -106 279 -296c0 -227 -140 -424 -364 -424zM352 48c184 0 302 174 302 370c0 159 -86 245 -225 245c-181 0 -301 -180 -301 -370c0 -157 87 -245 224 -245z" />
    <glyph glyph-name="Oacute" unicode="&#xd3;" horiz-adv-x="755" 
d="M431 788l123 127l61 1l-128 -128h-56zM349 -5c-167 0 -279 109 -279 297c0 222 145 423 364 423c166 0 279 -106 279 -296c0 -227 -140 -424 -364 -424zM352 48c184 0 302 174 302 370c0 159 -86 245 -225 245c-181 0 -301 -180 -301 -370c0 -157 87 -245 224 -245z" />
    <glyph glyph-name="Obreve" unicode="&#x14e;" horiz-adv-x="755" 
d="M463 783c-74 0 -111 48 -105 124l43 -1c-4 -41 12 -79 63 -79c53 0 87 40 96 80l43 -1c-15 -74 -72 -123 -140 -123zM349 -5c-167 0 -279 109 -279 297c0 222 145 423 364 423c166 0 279 -106 279 -296c0 -227 -140 -424 -364 -424zM352 48c184 0 302 174 302 370
c0 159 -86 245 -225 245c-181 0 -301 -180 -301 -370c0 -157 87 -245 224 -245z" />
    <glyph glyph-name="uni01D1" unicode="&#x1d1;" horiz-adv-x="755" 
d="M437 788l-91 118h54l66 -83h2l91 83h55l-126 -118h-51zM349 -5c-167 0 -279 109 -279 297c0 222 145 423 364 423c166 0 279 -106 279 -296c0 -227 -140 -424 -364 -424zM352 48c184 0 302 174 302 370c0 159 -86 245 -225 245c-181 0 -301 -180 -301 -370
c0 -157 87 -245 224 -245z" />
    <glyph glyph-name="Ocircumflex" unicode="&#xd4;" horiz-adv-x="755" 
d="M328 788l126 118h52l90 -118h-54l-65 83h-3l-91 -83h-55zM349 -5c-167 0 -279 109 -279 297c0 222 145 423 364 423c166 0 279 -106 279 -296c0 -227 -140 -424 -364 -424zM352 48c184 0 302 174 302 370c0 159 -86 245 -225 245c-181 0 -301 -180 -301 -370
c0 -157 87 -245 224 -245z" />
    <glyph glyph-name="uni1ED0" unicode="&#x1ed0;" horiz-adv-x="755" 
d="M588 848l121 135h61l-136 -135h-46zM328 788l126 118h52l90 -118h-54l-65 83h-3l-91 -83h-55zM349 -5c-167 0 -279 109 -279 297c0 222 145 423 364 423c166 0 279 -106 279 -296c0 -227 -140 -424 -364 -424zM352 48c184 0 302 174 302 370c0 159 -86 245 -225 245
c-181 0 -301 -180 -301 -370c0 -157 87 -245 224 -245z" />
    <glyph glyph-name="uni1ED8" unicode="&#x1ed8;" horiz-adv-x="755" 
d="M328 788l126 118h52l90 -118h-54l-65 83h-3l-91 -83h-55zM349 -5c-167 0 -279 109 -279 297c0 222 145 423 364 423c166 0 279 -106 279 -296c0 -227 -140 -424 -364 -424zM352 48c184 0 302 174 302 370c0 159 -86 245 -225 245c-181 0 -301 -180 -301 -370
c0 -157 87 -245 224 -245zM332 -109c24 0 40 -18 40 -42c0 -25 -18 -43 -42 -43s-42 17 -42 41c0 25 18 44 44 44z" />
    <glyph glyph-name="uni1ED2" unicode="&#x1ed2;" horiz-adv-x="755" 
d="M623 847l-96 134h57l82 -134h-43zM328 788l126 118h52l90 -118h-54l-65 83h-3l-91 -83h-55zM349 -5c-167 0 -279 109 -279 297c0 222 145 423 364 423c166 0 279 -106 279 -296c0 -227 -140 -424 -364 -424zM352 48c184 0 302 174 302 370c0 159 -86 245 -225 245
c-181 0 -301 -180 -301 -370c0 -157 87 -245 224 -245z" />
    <glyph glyph-name="uni1ED4" unicode="&#x1ed4;" horiz-adv-x="755" 
d="M631 851l-40 1c33 24 83 53 83 85c0 20 -15 27 -37 27c-28 0 -57 -10 -80 -28l-8 31c26 16 61 33 101 33c36 0 66 -16 66 -54c0 -47 -54 -78 -85 -95zM328 788l126 118h52l90 -118h-54l-65 83h-3l-91 -83h-55zM349 -5c-167 0 -279 109 -279 297c0 222 145 423 364 423
c166 0 279 -106 279 -296c0 -227 -140 -424 -364 -424zM352 48c184 0 302 174 302 370c0 159 -86 245 -225 245c-181 0 -301 -180 -301 -370c0 -157 87 -245 224 -245z" />
    <glyph glyph-name="uni1ED6" unicode="&#x1ed6;" horiz-adv-x="755" 
d="M558 924c-32 0 -55 22 -74 37c-17 14 -33 26 -50 26c-24 0 -46 -22 -61 -58l-36 17c23 50 53 82 93 82c32 0 50 -16 68 -32c19 -14 36 -31 56 -31c21 0 45 20 61 59l34 -15c-23 -56 -58 -85 -91 -85zM328 788l126 118h52l90 -118h-54l-65 83h-3l-91 -83h-55zM349 -5
c-167 0 -279 109 -279 297c0 222 145 423 364 423c166 0 279 -106 279 -296c0 -227 -140 -424 -364 -424zM352 48c184 0 302 174 302 370c0 159 -86 245 -225 245c-181 0 -301 -180 -301 -370c0 -157 87 -245 224 -245z" />
    <glyph glyph-name="Odieresis" unicode="&#xd6;" horiz-adv-x="755" 
d="M394 810c-24 0 -41 18 -41 42c0 25 18 43 42 43c25 0 43 -17 43 -41c0 -25 -19 -44 -44 -44zM546 810c-24 0 -41 18 -41 42c0 25 18 43 43 43c24 0 42 -17 42 -41c0 -25 -19 -44 -44 -44zM349 -5c-167 0 -279 109 -279 297c0 222 145 423 364 423
c166 0 279 -106 279 -296c0 -227 -140 -424 -364 -424zM352 48c184 0 302 174 302 370c0 159 -86 245 -225 245c-181 0 -301 -180 -301 -370c0 -157 87 -245 224 -245z" />
    <glyph glyph-name="uni1ECC" unicode="&#x1ecc;" horiz-adv-x="755" 
d="M349 -5c-167 0 -279 109 -279 297c0 222 145 423 364 423c166 0 279 -106 279 -296c0 -227 -140 -424 -364 -424zM352 48c184 0 302 174 302 370c0 159 -86 245 -225 245c-181 0 -301 -180 -301 -370c0 -157 87 -245 224 -245zM332 -109c24 0 40 -18 40 -42
c0 -25 -18 -43 -42 -43s-42 17 -42 41c0 25 18 44 44 44z" />
    <glyph glyph-name="Ograve" unicode="&#xd2;" horiz-adv-x="755" 
d="M443 788l-98 128l62 -1l92 -127h-56zM349 -5c-167 0 -279 109 -279 297c0 222 145 423 364 423c166 0 279 -106 279 -296c0 -227 -140 -424 -364 -424zM352 48c184 0 302 174 302 370c0 159 -86 245 -225 245c-181 0 -301 -180 -301 -370c0 -157 87 -245 224 -245z" />
    <glyph glyph-name="uni1ECE" unicode="&#x1ece;" horiz-adv-x="755" 
d="M478 781l-43 1c36 26 89 57 89 92c0 22 -16 29 -40 29c-29 0 -60 -11 -85 -30l-8 33c27 18 65 36 107 36c39 0 70 -17 70 -58c0 -51 -57 -85 -90 -103zM349 -5c-167 0 -279 109 -279 297c0 222 145 423 364 423c166 0 279 -106 279 -296c0 -227 -140 -424 -364 -424z
M352 48c184 0 302 174 302 370c0 159 -86 245 -225 245c-181 0 -301 -180 -301 -370c0 -157 87 -245 224 -245z" />
    <glyph glyph-name="Ohorn" unicode="&#x1a0;" horiz-adv-x="807" 
d="M770 774h51l-13 -99c-13 -100 -54 -141 -111 -143c11 -33 16 -71 16 -113c0 -227 -140 -424 -364 -424c-167 0 -279 109 -279 297c0 222 145 423 364 423c115 0 205 -51 249 -145c3 -1 5 -1 8 -1c38 0 58 34 68 113zM352 48c184 0 302 174 302 370
c0 159 -86 245 -225 245c-181 0 -301 -180 -301 -370c0 -157 87 -245 224 -245z" />
    <glyph glyph-name="uni1EDA" unicode="&#x1eda;" horiz-adv-x="807" 
d="M615 916l-128 -128h-56l123 127zM770 774h51l-13 -99c-13 -100 -54 -141 -111 -143c11 -33 16 -71 16 -113c0 -227 -140 -424 -364 -424c-167 0 -279 109 -279 297c0 222 145 423 364 423c115 0 205 -51 249 -145c3 -1 5 -1 8 -1c38 0 58 34 68 113zM352 48
c184 0 302 174 302 370c0 159 -86 245 -225 245c-181 0 -301 -180 -301 -370c0 -157 87 -245 224 -245z" />
    <glyph glyph-name="uni1EE2" unicode="&#x1ee2;" horiz-adv-x="807" 
d="M770 774h51l-13 -99c-13 -100 -54 -141 -111 -143c11 -33 16 -71 16 -113c0 -227 -140 -424 -364 -424c-167 0 -279 109 -279 297c0 222 145 423 364 423c115 0 205 -51 249 -145c3 -1 5 -1 8 -1c38 0 58 34 68 113zM352 48c184 0 302 174 302 370
c0 159 -86 245 -225 245c-181 0 -301 -180 -301 -370c0 -157 87 -245 224 -245zM332 -109c24 0 40 -18 40 -42c0 -25 -18 -43 -42 -43s-42 17 -42 41c0 25 18 44 44 44z" />
    <glyph glyph-name="uni1EDC" unicode="&#x1edc;" horiz-adv-x="807" 
d="M499 788h-56l-98 128l62 -1zM770 774h51l-13 -99c-13 -100 -54 -141 -111 -143c11 -33 16 -71 16 -113c0 -227 -140 -424 -364 -424c-167 0 -279 109 -279 297c0 222 145 423 364 423c115 0 205 -51 249 -145c3 -1 5 -1 8 -1c38 0 58 34 68 113zM352 48
c184 0 302 174 302 370c0 159 -86 245 -225 245c-181 0 -301 -180 -301 -370c0 -157 87 -245 224 -245z" />
    <glyph glyph-name="uni1EDE" unicode="&#x1ede;" horiz-adv-x="807" 
d="M484 903c-29 0 -60 -11 -85 -30l-8 33c27 18 65 36 107 36c39 0 70 -17 70 -58c0 -51 -57 -85 -90 -103l-43 1c36 26 89 57 89 92c0 22 -16 29 -40 29zM770 774h51l-13 -99c-13 -100 -54 -141 -111 -143c11 -33 16 -71 16 -113c0 -227 -140 -424 -364 -424
c-167 0 -279 109 -279 297c0 222 145 423 364 423c115 0 205 -51 249 -145c3 -1 5 -1 8 -1c38 0 58 34 68 113zM352 48c184 0 302 174 302 370c0 159 -86 245 -225 245c-181 0 -301 -180 -301 -370c0 -157 87 -245 224 -245z" />
    <glyph glyph-name="uni1EE0" unicode="&#x1ee0;" horiz-adv-x="807" 
d="M414 852c-25 0 -47 -22 -63 -59l-36 17c23 52 54 84 95 84c32 0 51 -16 69 -32c19 -15 37 -32 57 -32c22 0 46 20 62 60l35 -15c-23 -57 -59 -87 -93 -87c-32 0 -56 22 -75 38c-18 14 -34 26 -51 26zM770 774h51l-13 -99c-13 -100 -54 -141 -111 -143
c11 -33 16 -71 16 -113c0 -227 -140 -424 -364 -424c-167 0 -279 109 -279 297c0 222 145 423 364 423c115 0 205 -51 249 -145c3 -1 5 -1 8 -1c38 0 58 34 68 113zM352 48c184 0 302 174 302 370c0 159 -86 245 -225 245c-181 0 -301 -180 -301 -370
c0 -157 87 -245 224 -245z" />
    <glyph glyph-name="Ohungarumlaut" unicode="&#x150;" horiz-adv-x="755" 
d="M367 783l124 138h59l-129 -138h-54zM504 783l123 138h59l-129 -138h-53zM349 -5c-167 0 -279 109 -279 297c0 222 145 423 364 423c166 0 279 -106 279 -296c0 -227 -140 -424 -364 -424zM352 48c184 0 302 174 302 370c0 159 -86 245 -225 245
c-181 0 -301 -180 -301 -370c0 -157 87 -245 224 -245z" />
    <glyph glyph-name="Omacron" unicode="&#x14c;" horiz-adv-x="755" 
d="M345 822l6 45h251l-6 -45h-251zM349 -5c-167 0 -279 109 -279 297c0 222 145 423 364 423c166 0 279 -106 279 -296c0 -227 -140 -424 -364 -424zM352 48c184 0 302 174 302 370c0 159 -86 245 -225 245c-181 0 -301 -180 -301 -370c0 -157 87 -245 224 -245z" />
    <glyph glyph-name="uni01EA" unicode="&#x1ea;" horiz-adv-x="755" 
d="M385 -3c-49 -30 -80 -65 -81 -101c-1 -22 11 -40 41 -40c24 0 35 4 49 11l2 -38c-17 -8 -37 -12 -61 -12c-51 0 -79 25 -77 71c2 39 30 77 67 108c-154 10 -255 117 -255 296c0 222 145 423 364 423c166 0 279 -106 279 -296c0 -214 -125 -402 -328 -422zM128 293
c0 -157 87 -245 224 -245c184 0 302 174 302 370c0 159 -86 245 -225 245c-181 0 -301 -180 -301 -370z" />
    <glyph glyph-name="Oslash" unicode="&#xd8;" horiz-adv-x="761" 
d="M735 692l-75 -82c35 -48 54 -112 54 -191c0 -227 -140 -424 -364 -424c-76 0 -141 23 -189 66l-70 -77l-30 31l70 77c-38 50 -60 117 -60 200c0 222 145 423 364 423c81 0 149 -25 198 -73l71 79zM129 293c0 -65 15 -118 42 -158l423 466c-39 41 -95 62 -164 62
c-181 0 -301 -180 -301 -370zM655 418c0 60 -12 109 -35 148l-421 -464c38 -35 91 -54 154 -54c184 0 302 174 302 370z" />
    <glyph glyph-name="Oslashacute" unicode="&#x1fe;" horiz-adv-x="761" 
d="M606 916l-128 -128h-56l123 127zM735 692l-75 -82c35 -48 54 -112 54 -191c0 -227 -140 -424 -364 -424c-76 0 -141 23 -189 66l-70 -77l-30 31l70 77c-38 50 -60 117 -60 200c0 222 145 423 364 423c81 0 149 -25 198 -73l71 79zM129 293c0 -65 15 -118 42 -158l423 466
c-39 41 -95 62 -164 62c-181 0 -301 -180 -301 -370zM655 418c0 60 -12 109 -35 148l-421 -464c38 -35 91 -54 154 -54c184 0 302 174 302 370z" />
    <glyph glyph-name="Otilde" unicode="&#xd5;" horiz-adv-x="755" 
d="M540 788c-32 0 -56 22 -75 38c-18 14 -34 26 -51 26c-25 0 -47 -22 -63 -59l-36 17c23 52 54 84 95 84c32 0 51 -16 69 -32c19 -15 37 -32 57 -32c22 0 46 20 62 60l35 -15c-23 -57 -59 -87 -93 -87zM349 -5c-167 0 -279 109 -279 297c0 222 145 423 364 423
c166 0 279 -106 279 -296c0 -227 -140 -424 -364 -424zM352 48c184 0 302 174 302 370c0 159 -86 245 -225 245c-181 0 -301 -180 -301 -370c0 -157 87 -245 224 -245z" />
    <glyph glyph-name="OE" unicode="&#x152;" horiz-adv-x="866" 
d="M850 658h-328l-35 -278h272l-6 -52h-271l-35 -276h346l-5 -52h-442c-168 0 -275 112 -275 296c0 221 144 414 360 414h424zM392 53l75 604h-42c-176 1 -296 -169 -296 -360c0 -153 83 -244 221 -244h42z" />
    <glyph glyph-name="P" unicode="P" horiz-adv-x="563" 
d="M64 0l87 710h220c123 0 181 -66 181 -174c0 -149 -91 -248 -251 -248h-146l-35 -288h-56zM161 339h146c118 0 187 78 187 197c0 85 -57 122 -134 122h-160z" />
    <glyph glyph-name="Thorn" unicode="&#xde;" horiz-adv-x="578" 
d="M64 0l87 710h55l-17 -148h178c123 0 182 -65 182 -174c0 -147 -91 -249 -251 -249h-161l-17 -139h-56zM143 191h162c117 0 186 79 186 197c0 86 -56 123 -133 123h-176z" />
    <glyph glyph-name="Q" unicode="Q" horiz-adv-x="772" 
d="M715 419c0 -117 -37 -227 -104 -305l74 -83l-37 -39l-75 84c-59 -51 -134 -81 -222 -81c-167 0 -279 109 -279 297c0 222 145 423 364 423c166 0 279 -106 279 -296zM354 48c72 0 133 26 182 70l-75 84l36 39l75 -84c54 68 84 162 84 261c0 159 -86 244 -226 244
c-180 0 -300 -179 -300 -369c0 -157 87 -245 224 -245z" />
    <glyph glyph-name="R" unicode="R" horiz-adv-x="593" 
d="M64 0l87 710h222c123 0 181 -66 181 -174c0 -128 -70 -222 -194 -242l145 -294h-63l-140 288h-147l-35 -288h-56zM161 339h148c117 0 186 79 186 197c0 85 -56 122 -133 122h-162z" />
    <glyph glyph-name="Racute" unicode="&#x154;" horiz-adv-x="593" 
d="M283 788l123 127l61 1l-128 -128h-56zM64 0l87 710h222c123 0 181 -66 181 -174c0 -128 -70 -222 -194 -242l145 -294h-63l-140 288h-147l-35 -288h-56zM161 339h148c117 0 186 79 186 197c0 85 -56 122 -133 122h-162z" />
    <glyph glyph-name="Rcaron" unicode="&#x158;" horiz-adv-x="593" 
d="M332 788l-91 118h54l66 -83h2l91 83h55l-126 -118h-51zM64 0l87 710h222c123 0 181 -66 181 -174c0 -128 -70 -222 -194 -242l145 -294h-63l-140 288h-147l-35 -288h-56zM161 339h148c117 0 186 79 186 197c0 85 -56 122 -133 122h-162z" />
    <glyph glyph-name="Rcommaaccent" unicode="&#x156;" horiz-adv-x="593" 
d="M64 0l87 710h222c123 0 181 -66 181 -174c0 -128 -70 -222 -194 -242l145 -294h-63l-140 288h-147l-35 -288h-56zM161 339h148c117 0 186 79 186 197c0 85 -56 122 -133 122h-162zM170 -206l-9 34c48 8 68 35 68 98c0 6 0 12 -1 20h47c0 -4 1 -8 1 -22
c0 -74 -32 -124 -106 -130z" />
    <glyph glyph-name="uni1E5A" unicode="&#x1e5a;" horiz-adv-x="593" 
d="M64 0l87 710h222c123 0 181 -66 181 -174c0 -128 -70 -222 -194 -242l145 -294h-63l-140 288h-147l-35 -288h-56zM161 339h148c117 0 186 79 186 197c0 85 -56 122 -133 122h-162zM249 -109c24 0 40 -18 40 -42c0 -25 -18 -43 -42 -43s-42 17 -42 41c0 25 18 44 44 44z
" />
    <glyph glyph-name="uni1E5C" unicode="&#x1e5c;" horiz-adv-x="593" 
d="M240 822l6 45h251l-6 -45h-251zM64 0l87 710h222c123 0 181 -66 181 -174c0 -128 -70 -222 -194 -242l145 -294h-63l-140 288h-147l-35 -288h-56zM161 339h148c117 0 186 79 186 197c0 85 -56 122 -133 122h-162zM249 -109c24 0 40 -18 40 -42c0 -25 -18 -43 -42 -43
s-42 17 -42 41c0 25 18 44 44 44z" />
    <glyph glyph-name="uni1E5E" unicode="&#x1e5e;" horiz-adv-x="593" 
d="M64 0l87 710h222c123 0 181 -66 181 -174c0 -128 -70 -222 -194 -242l145 -294h-63l-140 288h-147l-35 -288h-56zM161 339h148c117 0 186 79 186 197c0 85 -56 122 -133 122h-162zM120 -182l6 46h251l-6 -46h-251z" />
    <glyph glyph-name="S" unicode="S" horiz-adv-x="538" 
d="M255 -5c-86 0 -175 39 -226 116l42 37c44 -69 113 -100 181 -100c98 0 167 57 167 143c0 69 -70 102 -151 148c-82 45 -171 92 -171 191c0 111 89 185 212 185c73 0 145 -32 192 -87l-40 -37c-43 52 -103 72 -156 72c-86 0 -150 -51 -150 -127c1 -70 64 -103 138 -145
c93 -53 185 -96 185 -194c0 -127 -95 -202 -223 -202z" />
    <glyph glyph-name="Sacute" unicode="&#x15a;" horiz-adv-x="538" 
d="M313 788l123 127l61 1l-128 -128h-56zM255 -5c-86 0 -175 39 -226 116l42 37c44 -69 113 -100 181 -100c98 0 167 57 167 143c0 69 -70 102 -151 148c-82 45 -171 92 -171 191c0 111 89 185 212 185c73 0 145 -32 192 -87l-40 -37c-43 52 -103 72 -156 72
c-86 0 -150 -51 -150 -127c1 -70 64 -103 138 -145c93 -53 185 -96 185 -194c0 -127 -95 -202 -223 -202z" />
    <glyph glyph-name="Scaron" unicode="&#x160;" horiz-adv-x="538" 
d="M299 788l-91 118h54l66 -83h2l91 83h55l-126 -118h-51zM255 -5c-86 0 -175 39 -226 116l42 37c44 -69 113 -100 181 -100c98 0 167 57 167 143c0 69 -70 102 -151 148c-82 45 -171 92 -171 191c0 111 89 185 212 185c73 0 145 -32 192 -87l-40 -37
c-43 52 -103 72 -156 72c-86 0 -150 -51 -150 -127c1 -70 64 -103 138 -145c93 -53 185 -96 185 -194c0 -127 -95 -202 -223 -202z" />
    <glyph glyph-name="Scedilla" unicode="&#x15e;" horiz-adv-x="538" 
d="M293 391c93 -53 185 -96 185 -194c0 -127 -95 -202 -223 -202h-1l-18 -30l1 -1c43 -3 70 -21 70 -61c0 -57 -45 -87 -104 -87c-14 0 -28 1 -42 4l3 34c12 -4 24 -5 36 -5c38 0 67 17 67 53c0 24 -22 35 -70 36l4 27l17 32c-73 10 -145 48 -189 114l42 37
c44 -69 113 -100 181 -100c98 0 167 57 167 143c0 69 -70 102 -151 148c-82 45 -171 92 -171 191c0 111 89 185 212 185c73 0 145 -32 192 -87l-40 -37c-43 52 -103 72 -156 72c-86 0 -150 -51 -150 -127c1 -70 64 -103 138 -145z" />
    <glyph glyph-name="Scircumflex" unicode="&#x15c;" horiz-adv-x="538" 
d="M190 788l126 118h52l90 -118h-54l-65 83h-3l-91 -83h-55zM255 -5c-86 0 -175 39 -226 116l42 37c44 -69 113 -100 181 -100c98 0 167 57 167 143c0 69 -70 102 -151 148c-82 45 -171 92 -171 191c0 111 89 185 212 185c73 0 145 -32 192 -87l-40 -37
c-43 52 -103 72 -156 72c-86 0 -150 -51 -150 -127c1 -70 64 -103 138 -145c93 -53 185 -96 185 -194c0 -127 -95 -202 -223 -202z" />
    <glyph glyph-name="Scommaaccent" unicode="&#x218;" horiz-adv-x="538" 
d="M255 -5c-86 0 -175 39 -226 116l42 37c44 -69 113 -100 181 -100c98 0 167 57 167 143c0 69 -70 102 -151 148c-82 45 -171 92 -171 191c0 111 89 185 212 185c73 0 145 -32 192 -87l-40 -37c-43 52 -103 72 -156 72c-86 0 -150 -51 -150 -127c1 -70 64 -103 138 -145
c93 -53 185 -96 185 -194c0 -127 -95 -202 -223 -202zM156 -206l-9 34c48 8 68 35 68 98c0 6 0 12 -1 20h47c0 -4 1 -8 1 -22c0 -74 -32 -124 -106 -130z" />
    <glyph glyph-name="uni1E60" unicode="&#x1e60;" horiz-adv-x="538" 
d="M336 828c-24 0 -40 18 -40 42c0 25 18 43 42 43s42 -17 42 -41c0 -25 -18 -44 -44 -44zM255 -5c-86 0 -175 39 -226 116l42 37c44 -69 113 -100 181 -100c98 0 167 57 167 143c0 69 -70 102 -151 148c-82 45 -171 92 -171 191c0 111 89 185 212 185c73 0 145 -32 192 -87
l-40 -37c-43 52 -103 72 -156 72c-86 0 -150 -51 -150 -127c1 -70 64 -103 138 -145c93 -53 185 -96 185 -194c0 -127 -95 -202 -223 -202z" />
    <glyph glyph-name="uni1E62" unicode="&#x1e62;" horiz-adv-x="538" 
d="M255 -5c-86 0 -175 39 -226 116l42 37c44 -69 113 -100 181 -100c98 0 167 57 167 143c0 69 -70 102 -151 148c-82 45 -171 92 -171 191c0 111 89 185 212 185c73 0 145 -32 192 -87l-40 -37c-43 52 -103 72 -156 72c-86 0 -150 -51 -150 -127c1 -70 64 -103 138 -145
c93 -53 185 -96 185 -194c0 -127 -95 -202 -223 -202zM235 -109c24 0 40 -18 40 -42c0 -25 -18 -43 -42 -43s-42 17 -42 41c0 25 18 44 44 44z" />
    <glyph glyph-name="uni1E9E" unicode="&#x1e9e;" horiz-adv-x="701" 
d="M496 387c90 -51 182 -95 182 -191c0 -126 -95 -201 -214 -201c-72 0 -152 32 -204 92l32 50c43 -63 109 -90 170 -90c90 0 158 57 158 144c0 70 -71 107 -144 146c-35 18 -51 27 -84 49l167 254l-1 4c-58 11 -124 19 -182 19c-126 0 -190 -49 -204 -163l-61 -500h-55
l60 504c18 146 107 211 261 211c71 0 177 -14 267 -37l-181 -273c9 -5 19 -10 33 -18z" />
    <glyph glyph-name="uni018F" unicode="&#x18f;" horiz-adv-x="716" 
d="M395 715c166 0 277 -106 277 -296c0 -227 -135 -424 -353 -424c-158 0 -268 109 -268 294c0 23 2 44 6 63h554c2 22 4 44 4 66c0 159 -89 244 -225 244c-75 0 -151 -29 -202 -73l-34 41c56 47 139 85 241 85zM323 48c140 0 242 110 278 254h-495v-12
c0 -154 88 -242 217 -242z" />
    <glyph glyph-name="T" unicode="T" horiz-adv-x="513" 
d="M198 0l81 658h-198l6 52h455l-7 -52h-200l-81 -658h-56z" />
    <glyph glyph-name="Tbar" unicode="&#x166;" horiz-adv-x="513" 
d="M535 658h-200l-33 -272h107l-4 -45h-109l-42 -341h-56l42 341h-103l4 45h105l33 272h-198l6 52h455z" />
    <glyph glyph-name="Tcaron" unicode="&#x164;" horiz-adv-x="513" 
d="M296 788l-91 118h54l66 -83h2l91 83h55l-126 -118h-51zM198 0l81 658h-198l6 52h455l-7 -52h-200l-81 -658h-56z" />
    <glyph glyph-name="uni0162" unicode="&#x162;" horiz-adv-x="513" 
d="M87 710h455l-7 -52h-200l-81 -658h-15l-20 -35l1 -1c43 -3 70 -21 70 -61c0 -57 -45 -87 -104 -87c-14 0 -28 1 -42 4l3 34c12 -4 24 -5 36 -5c38 0 67 17 67 53c0 24 -22 35 -70 36l4 27l19 35h-5l81 658h-198z" />
    <glyph glyph-name="uni021A" unicode="&#x21a;" horiz-adv-x="513" 
d="M198 0l81 658h-198l6 52h455l-7 -52h-200l-81 -658h-56zM139 -206l-9 34c48 8 68 35 68 98c0 6 0 12 -1 20h47c0 -4 1 -8 1 -22c0 -74 -32 -124 -106 -130z" />
    <glyph glyph-name="Tdieresis" horiz-adv-x="513" 
d="M256 828c-24 0 -41 18 -41 42c0 25 18 43 42 43c25 0 43 -17 43 -41c0 -25 -19 -44 -44 -44zM408 828c-24 0 -41 18 -41 42c0 25 18 43 43 43c24 0 42 -17 42 -41c0 -25 -19 -44 -44 -44zM198 0l81 658h-198l6 52h455l-7 -52h-200l-81 -658h-56z" />
    <glyph glyph-name="uni1E6C" unicode="&#x1e6c;" horiz-adv-x="513" 
d="M198 0l81 658h-198l6 52h455l-7 -52h-200l-81 -658h-56zM210 -109c24 0 40 -18 40 -42c0 -25 -18 -43 -42 -43s-42 17 -42 41c0 25 18 44 44 44z" />
    <glyph glyph-name="uni1E6E" unicode="&#x1e6e;" horiz-adv-x="513" 
d="M198 0l81 658h-198l6 52h455l-7 -52h-200l-81 -658h-56zM80 -182l6 46h251l-6 -46h-251z" />
    <glyph glyph-name="U" unicode="U" horiz-adv-x="653" 
d="M295 -5c-166 0 -227 119 -206 296l52 419h56l-52 -420c-18 -143 26 -241 152 -241c121 0 202 73 223 235l51 426h56l-52 -426c-24 -197 -121 -289 -280 -289z" />
    <glyph glyph-name="Uacute" unicode="&#xda;" horiz-adv-x="653" 
d="M353 788l123 127l61 1l-128 -128h-56zM295 -5c-166 0 -227 119 -206 296l52 419h56l-52 -420c-18 -143 26 -241 152 -241c121 0 202 73 223 235l51 426h56l-52 -426c-24 -197 -121 -289 -280 -289z" />
    <glyph glyph-name="Ubreve" unicode="&#x16c;" horiz-adv-x="653" 
d="M395 783c-74 0 -111 48 -105 124l43 -1c-4 -41 12 -79 63 -79c53 0 87 40 96 80l43 -1c-15 -74 -72 -123 -140 -123zM295 -5c-166 0 -227 119 -206 296l52 419h56l-52 -420c-18 -143 26 -241 152 -241c121 0 202 73 223 235l51 426h56l-52 -426
c-24 -197 -121 -289 -280 -289z" />
    <glyph glyph-name="Ucircumflex" unicode="&#xdb;" horiz-adv-x="653" 
d="M260 788l126 118h52l90 -118h-54l-65 83h-3l-91 -83h-55zM295 -5c-166 0 -227 119 -206 296l52 419h56l-52 -420c-18 -143 26 -241 152 -241c121 0 202 73 223 235l51 426h56l-52 -426c-24 -197 -121 -289 -280 -289z" />
    <glyph glyph-name="Udieresis" unicode="&#xdc;" horiz-adv-x="653" 
d="M326 810c-24 0 -41 18 -41 42c0 25 18 43 42 43c25 0 43 -17 43 -41c0 -25 -19 -44 -44 -44zM478 810c-24 0 -41 18 -41 42c0 25 18 43 43 43c24 0 42 -17 42 -41c0 -25 -19 -44 -44 -44zM295 -5c-166 0 -227 119 -206 296l52 419h56l-52 -420c-18 -143 26 -241 152 -241
c121 0 202 73 223 235l51 426h56l-52 -426c-24 -197 -121 -289 -280 -289z" />
    <glyph glyph-name="uni1EE4" unicode="&#x1ee4;" horiz-adv-x="653" 
d="M295 -5c-166 0 -227 119 -206 296l52 419h56l-52 -420c-18 -143 26 -241 152 -241c121 0 202 73 223 235l51 426h56l-52 -426c-24 -197 -121 -289 -280 -289zM278 -109c24 0 40 -18 40 -42c0 -25 -18 -43 -42 -43s-42 17 -42 41c0 25 18 44 44 44z" />
    <glyph glyph-name="Ugrave" unicode="&#xd9;" horiz-adv-x="653" 
d="M375 785l-98 128l62 -1l92 -127h-56zM295 -5c-166 0 -227 119 -206 296l52 419h56l-52 -420c-18 -143 26 -241 152 -241c121 0 202 73 223 235l51 426h56l-52 -426c-24 -197 -121 -289 -280 -289z" />
    <glyph glyph-name="uni1EE6" unicode="&#x1ee6;" horiz-adv-x="653" 
d="M410 781l-43 1c36 26 89 57 89 92c0 22 -16 29 -40 29c-29 0 -60 -11 -85 -30l-8 33c27 18 65 36 107 36c39 0 70 -17 70 -58c0 -51 -57 -85 -90 -103zM295 -5c-166 0 -227 119 -206 296l52 419h56l-52 -420c-18 -143 26 -241 152 -241c121 0 202 73 223 235l51 426h56
l-52 -426c-24 -197 -121 -289 -280 -289z" />
    <glyph glyph-name="Uhorn" unicode="&#x1af;" horiz-adv-x="716" 
d="M710 774h51l-13 -99c-13 -103 -56 -143 -116 -143c-8 0 -18 1 -26 3l-31 -251c-24 -197 -121 -289 -280 -289c-166 0 -227 119 -206 296l52 419h56l-52 -420c-18 -143 26 -241 152 -241c121 0 202 73 223 235l51 426h56l-17 -138c8 -2 14 -3 21 -3c38 0 58 34 68 113z
" />
    <glyph glyph-name="uni1EE8" unicode="&#x1ee8;" horiz-adv-x="716" 
d="M537 916l-128 -128h-56l123 127zM710 774h51l-13 -99c-13 -103 -56 -143 -116 -143c-8 0 -18 1 -26 3l-31 -251c-24 -197 -121 -289 -280 -289c-166 0 -227 119 -206 296l52 419h56l-52 -420c-18 -143 26 -241 152 -241c121 0 202 73 223 235l51 426h56l-17 -138
c8 -2 14 -3 21 -3c38 0 58 34 68 113z" />
    <glyph glyph-name="uni1EF0" unicode="&#x1ef0;" horiz-adv-x="716" 
d="M710 774h51l-13 -99c-13 -103 -56 -143 -116 -143c-8 0 -18 1 -26 3l-31 -251c-24 -197 -121 -289 -280 -289c-166 0 -227 119 -206 296l52 419h56l-52 -420c-18 -143 26 -241 152 -241c121 0 202 73 223 235l51 426h56l-17 -138c8 -2 14 -3 21 -3c38 0 58 34 68 113z
M278 -109c24 0 40 -18 40 -42c0 -25 -18 -43 -42 -43s-42 17 -42 41c0 25 18 44 44 44z" />
    <glyph glyph-name="uni1EEA" unicode="&#x1eea;" horiz-adv-x="716" 
d="M431 785h-56l-98 128l62 -1zM710 774h51l-13 -99c-13 -103 -56 -143 -116 -143c-8 0 -18 1 -26 3l-31 -251c-24 -197 -121 -289 -280 -289c-166 0 -227 119 -206 296l52 419h56l-52 -420c-18 -143 26 -241 152 -241c121 0 202 73 223 235l51 426h56l-17 -138
c8 -2 14 -3 21 -3c38 0 58 34 68 113z" />
    <glyph glyph-name="uni1EEC" unicode="&#x1eec;" horiz-adv-x="716" 
d="M416 903c-29 0 -60 -11 -85 -30l-8 33c27 18 65 36 107 36c39 0 70 -17 70 -58c0 -51 -57 -85 -90 -103l-43 1c36 26 89 57 89 92c0 22 -16 29 -40 29zM710 774h51l-13 -99c-13 -103 -56 -143 -116 -143c-8 0 -18 1 -26 3l-31 -251c-24 -197 -121 -289 -280 -289
c-166 0 -227 119 -206 296l52 419h56l-52 -420c-18 -143 26 -241 152 -241c121 0 202 73 223 235l51 426h56l-17 -138c8 -2 14 -3 21 -3c38 0 58 34 68 113z" />
    <glyph glyph-name="uni1EEE" unicode="&#x1eee;" horiz-adv-x="716" 
d="M346 852c-25 0 -47 -22 -63 -59l-36 17c23 52 54 84 95 84c32 0 51 -16 69 -32c19 -15 37 -32 57 -32c22 0 46 20 62 60l35 -15c-23 -57 -59 -87 -93 -87c-32 0 -56 22 -75 38c-18 14 -34 26 -51 26zM710 774h51l-13 -99c-13 -103 -56 -143 -116 -143c-8 0 -18 1 -26 3
l-31 -251c-24 -197 -121 -289 -280 -289c-166 0 -227 119 -206 296l52 419h56l-52 -420c-18 -143 26 -241 152 -241c121 0 202 73 223 235l51 426h56l-17 -138c8 -2 14 -3 21 -3c38 0 58 34 68 113z" />
    <glyph glyph-name="Uhungarumlaut" unicode="&#x170;" horiz-adv-x="653" 
d="M299 783l124 138h59l-129 -138h-54zM436 783l123 138h59l-129 -138h-53zM295 -5c-166 0 -227 119 -206 296l52 419h56l-52 -420c-18 -143 26 -241 152 -241c121 0 202 73 223 235l51 426h56l-52 -426c-24 -197 -121 -289 -280 -289z" />
    <glyph glyph-name="Umacron" unicode="&#x16a;" horiz-adv-x="653" 
d="M277 822l6 45h251l-6 -45h-251zM295 -5c-166 0 -227 119 -206 296l52 419h56l-52 -420c-18 -143 26 -241 152 -241c121 0 202 73 223 235l51 426h56l-52 -426c-24 -197 -121 -289 -280 -289z" />
    <glyph glyph-name="Uogonek" unicode="&#x172;" horiz-adv-x="653" 
d="M571 710h56l-52 -426c-20 -166 -93 -258 -211 -282c-57 -26 -102 -69 -104 -106c-1 -23 14 -40 41 -40c23 0 34 3 50 11l1 -38c-16 -8 -36 -12 -60 -12c-56 0 -79 32 -77 71c2 36 31 75 72 106v1c-160 4 -219 122 -198 296l52 419h56l-52 -420c-18 -143 26 -241 152 -241
c121 0 202 73 223 235z" />
    <glyph glyph-name="Uring" unicode="&#x16e;" horiz-adv-x="653" 
d="M401 779c-47 0 -82 35 -82 82c0 49 36 84 85 84c48 0 83 -34 83 -81c0 -49 -37 -85 -86 -85zM402 816c28 0 48 20 48 47s-20 46 -46 46c-27 0 -47 -20 -47 -47s19 -46 45 -46zM295 -5c-166 0 -227 119 -206 296l52 419h56l-52 -420c-18 -143 26 -241 152 -241
c121 0 202 73 223 235l51 426h56l-52 -426c-24 -197 -121 -289 -280 -289z" />
    <glyph glyph-name="Utilde" unicode="&#x168;" horiz-adv-x="653" 
d="M472 788c-32 0 -56 22 -75 38c-18 14 -34 26 -51 26c-25 0 -47 -22 -63 -59l-36 17c23 52 54 84 95 84c32 0 51 -16 69 -32c19 -15 37 -32 57 -32c22 0 46 20 62 60l35 -15c-23 -57 -59 -87 -93 -87zM295 -5c-166 0 -227 119 -206 296l52 419h56l-52 -420
c-18 -143 26 -241 152 -241c121 0 202 73 223 235l51 426h56l-52 -426c-24 -197 -121 -289 -280 -289z" />
    <glyph glyph-name="V" unicode="V" horiz-adv-x="600" 
d="M246 0l-157 710h58l134 -629h1l285 629h61l-329 -710h-53z" />
    <glyph glyph-name="W" unicode="W" horiz-adv-x="919" 
d="M211 0l-119 710h58l100 -617h2l232 617h64l84 -612h3l246 612h61l-292 -710h-58l-87 618h-2l-234 -618h-58z" />
    <glyph glyph-name="Wacute" unicode="&#x1e82;" horiz-adv-x="919" 
d="M502 788l123 127l61 1l-128 -128h-56zM211 0l-119 710h58l100 -617h2l232 617h64l84 -612h3l246 612h61l-292 -710h-58l-87 618h-2l-234 -618h-58z" />
    <glyph glyph-name="Wcircumflex" unicode="&#x174;" horiz-adv-x="919" 
d="M391 788l126 118h52l90 -118h-54l-65 83h-3l-91 -83h-55zM211 0l-119 710h58l100 -617h2l232 617h64l84 -612h3l246 612h61l-292 -710h-58l-87 618h-2l-234 -618h-58z" />
    <glyph glyph-name="Wdieresis" unicode="&#x1e84;" horiz-adv-x="919" 
d="M457 810c-24 0 -41 18 -41 42c0 25 18 43 42 43c25 0 43 -17 43 -41c0 -25 -19 -44 -44 -44zM609 810c-24 0 -41 18 -41 42c0 25 18 43 43 43c24 0 42 -17 42 -41c0 -25 -19 -44 -44 -44zM211 0l-119 710h58l100 -617h2l232 617h64l84 -612h3l246 612h61l-292 -710h-58
l-87 618h-2l-234 -618h-58z" />
    <glyph glyph-name="Wgrave" unicode="&#x1e80;" horiz-adv-x="919" 
d="M491 785l-98 128l62 -1l92 -127h-56zM211 0l-119 710h58l100 -617h2l232 617h64l84 -612h3l246 612h61l-292 -710h-58l-87 618h-2l-234 -618h-58z" />
    <glyph glyph-name="X" unicode="X" horiz-adv-x="578" 
d="M0 0l266 355l-177 355h63l154 -311h3l228 311h69l-266 -356l179 -354h-66l-154 308h-3l-230 -308h-66z" />
    <glyph glyph-name="Y" unicode="Y" horiz-adv-x="532" 
d="M208 0l39 320l-171 390h61l143 -333h2l226 333h65l-270 -390l-39 -320h-56z" />
    <glyph glyph-name="Yacute" unicode="&#xdd;" horiz-adv-x="532" 
d="M296 788l123 127l61 1l-128 -128h-56zM208 0l39 320l-171 390h61l143 -333h2l226 333h65l-270 -390l-39 -320h-56z" />
    <glyph glyph-name="Ycircumflex" unicode="&#x176;" horiz-adv-x="532" 
d="M195 788l126 118h52l90 -118h-54l-65 83h-3l-91 -83h-55zM208 0l39 320l-171 390h61l143 -333h2l226 333h65l-270 -390l-39 -320h-56z" />
    <glyph glyph-name="Ydieresis" unicode="&#x178;" horiz-adv-x="532" 
d="M261 810c-24 0 -41 18 -41 42c0 25 18 43 42 43c25 0 43 -17 43 -41c0 -25 -19 -44 -44 -44zM413 810c-24 0 -41 18 -41 42c0 25 18 43 43 43c24 0 42 -17 42 -41c0 -25 -19 -44 -44 -44zM208 0l39 320l-171 390h61l143 -333h2l226 333h65l-270 -390l-39 -320h-56z" />
    <glyph glyph-name="uni1E8E" unicode="&#x1e8e;" horiz-adv-x="532" 
d="M341 828c-24 0 -40 18 -40 42c0 25 18 43 42 43s42 -17 42 -41c0 -25 -18 -44 -44 -44zM208 0l39 320l-171 390h61l143 -333h2l226 333h65l-270 -390l-39 -320h-56z" />
    <glyph glyph-name="uni1EF4" unicode="&#x1ef4;" horiz-adv-x="532" 
d="M208 0l39 320l-171 390h61l143 -333h2l226 333h65l-270 -390l-39 -320h-56zM220 -109c24 0 40 -18 40 -42c0 -25 -18 -43 -42 -43s-42 17 -42 41c0 25 18 44 44 44z" />
    <glyph glyph-name="Ygrave" unicode="&#x1ef2;" horiz-adv-x="532" 
d="M320 785l-98 128l62 -1l92 -127h-56zM208 0l39 320l-171 390h61l143 -333h2l226 333h65l-270 -390l-39 -320h-56z" />
    <glyph glyph-name="uni1EF6" unicode="&#x1ef6;" horiz-adv-x="532" 
d="M345 781l-43 1c36 26 89 57 89 92c0 22 -16 29 -40 29c-29 0 -60 -11 -85 -30l-8 33c27 18 65 36 107 36c39 0 70 -17 70 -58c0 -51 -57 -85 -90 -103zM208 0l39 320l-171 390h61l143 -333h2l226 333h65l-270 -390l-39 -320h-56z" />
    <glyph glyph-name="uni0232" unicode="&#x232;" horiz-adv-x="532" 
d="M212 822l6 45h251l-6 -45h-251zM208 0l39 320l-171 390h61l143 -333h2l226 333h65l-270 -390l-39 -320h-56z" />
    <glyph glyph-name="uni1EF8" unicode="&#x1ef8;" horiz-adv-x="532" 
d="M407 788c-32 0 -56 22 -75 38c-18 14 -34 26 -51 26c-25 0 -47 -22 -63 -59l-36 17c23 52 54 84 95 84c32 0 51 -16 69 -32c19 -15 37 -32 57 -32c22 0 46 20 62 60l35 -15c-23 -57 -59 -87 -93 -87zM208 0l39 320l-171 390h61l143 -333h2l226 333h65l-270 -390l-39 -320
h-56z" />
    <glyph glyph-name="Z" unicode="Z" horiz-adv-x="562" 
d="M29 0l6 46l437 610v2h-342l7 52h414l-6 -46l-439 -609l1 -3h366l-6 -52h-438z" />
    <glyph glyph-name="Zacute" unicode="&#x179;" horiz-adv-x="562" 
d="M273 788l123 127l61 1l-128 -128h-56zM29 0l6 46l437 610v2h-342l7 52h414l-6 -46l-439 -609l1 -3h366l-6 -52h-438z" />
    <glyph glyph-name="Zcaron" unicode="&#x17d;" horiz-adv-x="562" 
d="M322 788l-91 118h54l66 -83h2l91 83h55l-126 -118h-51zM29 0l6 46l437 610v2h-342l7 52h414l-6 -46l-439 -609l1 -3h366l-6 -52h-438z" />
    <glyph glyph-name="Zdotaccent" unicode="&#x17b;" horiz-adv-x="562" 
d="M355 810c-24 0 -40 18 -40 42c0 25 18 43 42 43s42 -17 42 -41c0 -25 -18 -44 -44 -44zM29 0l6 46l437 610v2h-342l7 52h414l-6 -46l-439 -609l1 -3h366l-6 -52h-438z" />
    <glyph glyph-name="uni1E92" unicode="&#x1e92;" horiz-adv-x="562" 
d="M29 0l6 46l437 610v2h-342l7 52h414l-6 -46l-439 -609l1 -3h366l-6 -52h-438zM252 -109c24 0 40 -18 40 -42c0 -25 -18 -43 -42 -43s-42 17 -42 41c0 25 18 44 44 44z" />
    <glyph glyph-name="uni01D3" unicode="&#x1d3;" horiz-adv-x="653" 
d="M369 788l-91 118h54l66 -83h2l91 83h55l-126 -118h-51zM295 -5c-166 0 -227 119 -206 296l52 419h56l-52 -420c-18 -143 26 -241 152 -241c121 0 202 73 223 235l51 426h56l-52 -426c-24 -197 -121 -289 -280 -289z" />
    <glyph glyph-name="uni01D5" unicode="&#x1d5;" horiz-adv-x="653" 
d="M284 949l5 42h251l-5 -42h-251zM314 800c-23 0 -38 17 -38 40c0 24 17 41 40 41c24 0 41 -16 41 -39c0 -24 -17 -42 -43 -42zM473 800c-23 0 -38 17 -38 40c0 24 17 41 40 41c24 0 41 -16 41 -39c0 -24 -17 -42 -43 -42zM295 -5c-166 0 -227 119 -206 296l52 419h56
l-52 -420c-18 -143 26 -241 152 -241c121 0 202 73 223 235l51 426h56l-52 -426c-24 -197 -121 -289 -280 -289z" />
    <glyph glyph-name="uni01D7" unicode="&#x1d7;" horiz-adv-x="653" 
d="M379 901l121 127h60l-136 -127h-45zM314 800c-23 0 -38 17 -38 40c0 24 17 41 40 41c24 0 41 -16 41 -39c0 -24 -17 -42 -43 -42zM473 800c-23 0 -38 17 -38 40c0 24 17 41 40 41c24 0 41 -16 41 -39c0 -24 -17 -42 -43 -42zM295 -5c-166 0 -227 119 -206 296l52 419h56
l-52 -420c-18 -143 26 -241 152 -241c121 0 202 73 223 235l51 426h56l-52 -426c-24 -197 -121 -289 -280 -289z" />
    <glyph glyph-name="uni01D9" unicode="&#x1d9;" horiz-adv-x="653" 
d="M377 917l-91 107h54l66 -75h2l91 75h55l-126 -107h-51zM314 800c-23 0 -38 17 -38 40c0 24 17 41 40 41c24 0 41 -16 41 -39c0 -24 -17 -42 -43 -42zM473 800c-23 0 -38 17 -38 40c0 24 17 41 40 41c24 0 41 -16 41 -39c0 -24 -17 -42 -43 -42zM295 -5
c-166 0 -227 119 -206 296l52 419h56l-52 -420c-18 -143 26 -241 152 -241c121 0 202 73 223 235l51 426h56l-52 -426c-24 -197 -121 -289 -280 -289z" />
    <glyph glyph-name="uni01DB" unicode="&#x1db;" horiz-adv-x="653" 
d="M389 901l-98 126h56l86 -126h-44zM314 800c-23 0 -38 17 -38 40c0 24 17 41 40 41c24 0 41 -16 41 -39c0 -24 -17 -42 -43 -42zM473 800c-23 0 -38 17 -38 40c0 24 17 41 40 41c24 0 41 -16 41 -39c0 -24 -17 -42 -43 -42zM295 -5c-166 0 -227 119 -206 296l52 419h56
l-52 -420c-18 -143 26 -241 152 -241c121 0 202 73 223 235l51 426h56l-52 -426c-24 -197 -121 -289 -280 -289z" />
    <glyph glyph-name="uni1E30" unicode="&#x1e30;" horiz-adv-x="588" 
d="M480 916l-128 -128h-56l123 127zM607 710l-287 -324l205 -386h-65l-181 345l-136 -152l-23 -193h-56l87 710h56l-53 -430l2 -1l380 431h71z" />
    <glyph glyph-name="Q.alt" horiz-adv-x="759" 
d="M715 419c0 -167 -76 -318 -206 -386l121 -125l-40 -43l-137 145c-32 -10 -66 -15 -102 -15c-167 0 -279 109 -279 297c0 222 145 423 364 423c166 0 279 -106 279 -296zM130 293c0 -157 87 -245 224 -245c184 0 302 174 302 370c0 159 -86 244 -225 244
c-181 0 -301 -179 -301 -369z" />
    <glyph glyph-name="a" unicode="a" horiz-adv-x="542" 
d="M212 -5c-109 0 -167 86 -167 194c0 160 97 301 248 301c56 0 113 -19 145 -56l3 1l6 50h52l-59 -485h-52l16 132h-2c-44 -80 -110 -137 -190 -137zM219 43c104 0 188 122 206 260l10 77c-36 48 -102 62 -141 62c-120 0 -196 -122 -196 -254c0 -84 42 -145 121 -145z" />
    <glyph glyph-name="aacute" unicode="&#xe1;" horiz-adv-x="542" 
d="M280 560l125 138h62l-129 -138h-58zM212 -5c-109 0 -167 86 -167 194c0 160 97 301 248 301c56 0 113 -19 145 -56l3 1l6 50h52l-59 -485h-52l16 132h-2c-44 -80 -110 -137 -190 -137zM219 43c104 0 188 122 206 260l10 77c-36 48 -102 62 -141 62
c-120 0 -196 -122 -196 -254c0 -84 42 -145 121 -145z" />
    <glyph glyph-name="abreve" unicode="&#x103;" horiz-adv-x="542" 
d="M334 557c-73 0 -111 48 -105 134h43c-4 -52 12 -90 64 -90s87 39 95 90h43c-15 -85 -71 -134 -140 -134zM212 -5c-109 0 -167 86 -167 194c0 160 97 301 248 301c56 0 113 -19 145 -56l3 1l6 50h52l-59 -485h-52l16 132h-2c-44 -80 -110 -137 -190 -137zM219 43
c104 0 188 122 206 260l10 77c-36 48 -102 62 -141 62c-120 0 -196 -122 -196 -254c0 -84 42 -145 121 -145z" />
    <glyph glyph-name="uni1EAF" unicode="&#x1eaf;" horiz-adv-x="542" 
d="M326 698l120 138h61l-135 -138h-46zM333 557c-73 0 -111 48 -105 134h43c-4 -52 12 -90 64 -90s87 39 95 90h43c-15 -85 -71 -134 -140 -134zM212 -5c-109 0 -167 86 -167 194c0 160 97 301 248 301c56 0 113 -19 145 -56l3 1l6 50h52l-59 -485h-52l16 132h-2
c-44 -80 -110 -137 -190 -137zM219 43c104 0 188 122 206 260l10 77c-36 48 -102 62 -141 62c-120 0 -196 -122 -196 -254c0 -84 42 -145 121 -145z" />
    <glyph glyph-name="uni1EB7" unicode="&#x1eb7;" horiz-adv-x="542" 
d="M334 557c-73 0 -111 48 -105 134h43c-4 -52 12 -90 64 -90s87 39 95 90h43c-15 -85 -71 -134 -140 -134zM212 -5c-109 0 -167 86 -167 194c0 160 97 301 248 301c56 0 113 -19 145 -56l3 1l6 50h52l-59 -485h-52l16 132h-2c-44 -80 -110 -137 -190 -137zM219 43
c104 0 188 122 206 260l10 77c-36 48 -102 62 -141 62c-120 0 -196 -122 -196 -254c0 -84 42 -145 121 -145zM231 -109c24 0 40 -18 40 -42c0 -25 -18 -43 -42 -43s-42 17 -42 41c0 25 18 44 44 44z" />
    <glyph glyph-name="uni1EB1" unicode="&#x1eb1;" horiz-adv-x="542" 
d="M335 698l-96 138h57l83 -138h-44zM334 557c-73 0 -111 48 -105 134h43c-4 -52 12 -90 64 -90s87 39 95 90h43c-15 -85 -71 -134 -140 -134zM212 -5c-109 0 -167 86 -167 194c0 160 97 301 248 301c56 0 113 -19 145 -56l3 1l6 50h52l-59 -485h-52l16 132h-2
c-44 -80 -110 -137 -190 -137zM219 43c104 0 188 122 206 260l10 77c-36 48 -102 62 -141 62c-120 0 -196 -122 -196 -254c0 -84 42 -145 121 -145z" />
    <glyph glyph-name="uni1EB3" unicode="&#x1eb3;" horiz-adv-x="542" 
d="M361 682l-41 1c34 25 89 68 89 102c0 21 -16 29 -38 29c-27 0 -58 -12 -81 -32l-8 33c25 19 63 36 102 36c38 0 67 -16 67 -57c0 -47 -58 -91 -90 -112zM334 546c-74 0 -112 47 -106 131h44c-4 -51 12 -88 64 -88c53 0 89 38 97 88h43c-15 -83 -72 -131 -142 -131z
M212 -5c-109 0 -167 86 -167 194c0 160 97 301 248 301c56 0 113 -19 145 -56l3 1l6 50h52l-59 -485h-52l16 132h-2c-44 -80 -110 -137 -190 -137zM219 43c104 0 188 122 206 260l10 77c-36 48 -102 62 -141 62c-120 0 -196 -122 -196 -254c0 -84 42 -145 121 -145z" />
    <glyph glyph-name="uni1EB5" unicode="&#x1eb5;" horiz-adv-x="542" 
d="M432 746c-31 0 -52 21 -71 38c-16 14 -33 25 -50 25c-24 0 -46 -21 -62 -58l-34 17c22 52 53 84 93 84c31 0 49 -16 68 -31c18 -15 35 -33 55 -33c21 0 44 21 60 60l33 -15c-23 -57 -59 -87 -92 -87zM334 557c-73 0 -111 48 -105 134h43c-4 -52 12 -90 64 -90
s87 39 95 90h43c-15 -85 -71 -134 -140 -134zM212 -5c-109 0 -167 86 -167 194c0 160 97 301 248 301c56 0 113 -19 145 -56l3 1l6 50h52l-59 -485h-52l16 132h-2c-44 -80 -110 -137 -190 -137zM219 43c104 0 188 122 206 260l10 77c-36 48 -102 62 -141 62
c-120 0 -196 -122 -196 -254c0 -84 42 -145 121 -145z" />
    <glyph glyph-name="uni01CE" unicode="&#x1ce;" horiz-adv-x="542" 
d="M308 559l-88 134h52l65 -98h2l92 98h54l-126 -134h-51zM212 -5c-109 0 -167 86 -167 194c0 160 97 301 248 301c56 0 113 -19 145 -56l3 1l6 50h52l-59 -485h-52l16 132h-2c-44 -80 -110 -137 -190 -137zM219 43c104 0 188 122 206 260l10 77c-36 48 -102 62 -141 62
c-120 0 -196 -122 -196 -254c0 -84 42 -145 121 -145z" />
    <glyph glyph-name="acircumflex" unicode="&#xe2;" horiz-adv-x="542" 
d="M203 558l123 140h51l93 -140h-55l-64 104h-1l-91 -104h-56zM212 -5c-109 0 -167 86 -167 194c0 160 97 301 248 301c56 0 113 -19 145 -56l3 1l6 50h52l-59 -485h-52l16 132h-2c-44 -80 -110 -137 -190 -137zM219 43c104 0 188 122 206 260l10 77c-36 48 -102 62 -141 62
c-120 0 -196 -122 -196 -254c0 -84 42 -145 121 -145z" />
    <glyph glyph-name="uni1EA5" unicode="&#x1ea5;" horiz-adv-x="542" 
d="M440 642l120 138h61l-135 -138h-46zM204 558l123 140h51l93 -140h-55l-64 104h-1l-91 -104h-56zM212 -5c-109 0 -167 86 -167 194c0 160 97 301 248 301c56 0 113 -19 145 -56l3 1l6 50h52l-59 -485h-52l16 132h-2c-44 -80 -110 -137 -190 -137zM219 43
c104 0 188 122 206 260l10 77c-36 48 -102 62 -141 62c-120 0 -196 -122 -196 -254c0 -84 42 -145 121 -145z" />
    <glyph glyph-name="uni1EAD" unicode="&#x1ead;" horiz-adv-x="542" 
d="M203 558l123 140h51l93 -140h-55l-64 104h-1l-91 -104h-56zM212 -5c-109 0 -167 86 -167 194c0 160 97 301 248 301c56 0 113 -19 145 -56l3 1l6 50h52l-59 -485h-52l16 132h-2c-44 -80 -110 -137 -190 -137zM219 43c104 0 188 122 206 260l10 77c-36 48 -102 62 -141 62
c-120 0 -196 -122 -196 -254c0 -84 42 -145 121 -145zM231 -109c24 0 40 -18 40 -42c0 -25 -18 -43 -42 -43s-42 17 -42 41c0 25 18 44 44 44z" />
    <glyph glyph-name="uni1EA7" unicode="&#x1ea7;" horiz-adv-x="542" 
d="M481 643l-96 138h57l83 -138h-44zM202 558l123 140h51l93 -140h-55l-64 104h-1l-91 -104h-56zM212 -5c-109 0 -167 86 -167 194c0 160 97 301 248 301c56 0 113 -19 145 -56l3 1l6 50h52l-59 -485h-52l16 132h-2c-44 -80 -110 -137 -190 -137zM219 43
c104 0 188 122 206 260l10 77c-36 48 -102 62 -141 62c-120 0 -196 -122 -196 -254c0 -84 42 -145 121 -145z" />
    <glyph glyph-name="uni1EA9" unicode="&#x1ea9;" horiz-adv-x="542" 
d="M502 641l-41 1c34 25 89 68 89 102c0 21 -16 29 -38 29c-27 0 -58 -12 -81 -32l-8 33c25 19 63 36 102 36c38 0 67 -16 67 -57c0 -47 -58 -91 -90 -112zM203 558l123 140h51l93 -140h-55l-64 104h-1l-91 -104h-56zM212 -5c-109 0 -167 86 -167 194c0 160 97 301 248 301
c56 0 113 -19 145 -56l3 1l6 50h52l-59 -485h-52l16 132h-2c-44 -80 -110 -137 -190 -137zM219 43c104 0 188 122 206 260l10 77c-36 48 -102 62 -141 62c-120 0 -196 -122 -196 -254c0 -84 42 -145 121 -145z" />
    <glyph glyph-name="uni1EAB" unicode="&#x1eab;" horiz-adv-x="542" 
d="M432 742c-31 0 -52 21 -71 38c-16 14 -33 25 -50 25c-24 0 -46 -21 -62 -58l-34 17c22 52 53 84 93 84c31 0 49 -16 68 -31c18 -15 35 -33 55 -33c21 0 44 21 60 60l33 -15c-23 -57 -59 -87 -92 -87zM205 558l123 140h51l93 -140h-55l-64 104h-1l-91 -104h-56zM212 -5
c-109 0 -167 86 -167 194c0 160 97 301 248 301c56 0 113 -19 145 -56l3 1l6 50h52l-59 -485h-52l16 132h-2c-44 -80 -110 -137 -190 -137zM219 43c104 0 188 122 206 260l10 77c-36 48 -102 62 -141 62c-120 0 -196 -122 -196 -254c0 -84 42 -145 121 -145z" />
    <glyph glyph-name="adieresis" unicode="&#xe4;" horiz-adv-x="542" 
d="M268 591c-24 0 -41 18 -41 42c0 25 18 43 42 43c25 0 43 -17 43 -41c0 -25 -19 -44 -44 -44zM420 591c-24 0 -41 18 -41 42c0 25 18 43 43 43c24 0 42 -17 42 -41c0 -25 -19 -44 -44 -44zM212 -5c-109 0 -167 86 -167 194c0 160 97 301 248 301c56 0 113 -19 145 -56l3 1
l6 50h52l-59 -485h-52l16 132h-2c-44 -80 -110 -137 -190 -137zM219 43c104 0 188 122 206 260l10 77c-36 48 -102 62 -141 62c-120 0 -196 -122 -196 -254c0 -84 42 -145 121 -145z" />
    <glyph glyph-name="uni1EA1" unicode="&#x1ea1;" horiz-adv-x="542" 
d="M212 -5c-109 0 -167 86 -167 194c0 160 97 301 248 301c56 0 113 -19 145 -56l3 1l6 50h52l-59 -485h-52l16 132h-2c-44 -80 -110 -137 -190 -137zM219 43c104 0 188 122 206 260l10 77c-36 48 -102 62 -141 62c-120 0 -196 -122 -196 -254c0 -84 42 -145 121 -145z
M231 -109c24 0 40 -18 40 -42c0 -25 -18 -43 -42 -43s-42 17 -42 41c0 25 18 44 44 44z" />
    <glyph glyph-name="agrave" unicode="&#xe0;" horiz-adv-x="542" 
d="M313 560l-96 138h61l91 -138h-56zM212 -5c-109 0 -167 86 -167 194c0 160 97 301 248 301c56 0 113 -19 145 -56l3 1l6 50h52l-59 -485h-52l16 132h-2c-44 -80 -110 -137 -190 -137zM219 43c104 0 188 122 206 260l10 77c-36 48 -102 62 -141 62
c-120 0 -196 -122 -196 -254c0 -84 42 -145 121 -145z" />
    <glyph glyph-name="uni1EA3" unicode="&#x1ea3;" horiz-adv-x="542" 
d="M350 554l-43 1c36 27 93 72 93 107c0 22 -16 30 -39 30c-29 0 -61 -12 -85 -33l-8 35c26 19 65 37 106 37c40 0 70 -17 70 -59c0 -50 -60 -96 -94 -118zM212 -5c-109 0 -167 86 -167 194c0 160 97 301 248 301c56 0 113 -19 145 -56l3 1l6 50h52l-59 -485h-52l16 132h-2
c-44 -80 -110 -137 -190 -137zM219 43c104 0 188 122 206 260l10 77c-36 48 -102 62 -141 62c-120 0 -196 -122 -196 -254c0 -84 42 -145 121 -145z" />
    <glyph glyph-name="amacron" unicode="&#x101;" horiz-adv-x="542" 
d="M217 608l6 46h251l-6 -46h-251zM212 -5c-109 0 -167 86 -167 194c0 160 97 301 248 301c56 0 113 -19 145 -56l3 1l6 50h52l-59 -485h-52l16 132h-2c-44 -80 -110 -137 -190 -137zM219 43c104 0 188 122 206 260l10 77c-36 48 -102 62 -141 62
c-120 0 -196 -122 -196 -254c0 -84 42 -145 121 -145z" />
    <glyph glyph-name="aogonek" unicode="&#x105;" horiz-adv-x="542" 
d="M392 -144c24 0 35 4 49 11l2 -38c-17 -8 -37 -12 -61 -12c-51 0 -79 25 -77 71c2 44 39 89 84 121l15 123h-2c-44 -80 -110 -137 -190 -137c-109 0 -167 86 -167 194c0 160 97 301 248 301c56 0 113 -19 145 -56l3 1l6 50h52l-59 -485h-2c-53 -30 -86 -67 -87 -104
c-1 -22 11 -40 41 -40zM219 43c104 0 188 122 206 260l10 77c-36 48 -102 62 -141 62c-120 0 -196 -122 -196 -254c0 -84 42 -145 121 -145z" />
    <glyph glyph-name="aring" unicode="&#xe5;" horiz-adv-x="542" 
d="M342 553c-47 0 -82 35 -82 82c0 49 36 84 85 84c48 0 83 -34 83 -81c0 -49 -37 -85 -86 -85zM343 590c28 0 48 20 48 47s-20 46 -46 46c-27 0 -47 -20 -47 -47s19 -46 45 -46zM212 -5c-109 0 -167 86 -167 194c0 160 97 301 248 301c56 0 113 -19 145 -56l3 1l6 50h52
l-59 -485h-52l16 132h-2c-44 -80 -110 -137 -190 -137zM219 43c104 0 188 122 206 260l10 77c-36 48 -102 62 -141 62c-120 0 -196 -122 -196 -254c0 -84 42 -145 121 -145z" />
    <glyph glyph-name="aringacute" unicode="&#x1fb;" horiz-adv-x="542" 
d="M342 553c-47 0 -82 35 -82 82c0 49 36 84 85 84c28 0 51 -11 66 -30l73 49h67l-124 -85c1 -5 1 -10 1 -15c0 -49 -37 -85 -86 -85zM345 683c-27 0 -47 -20 -47 -47s19 -46 45 -46c28 0 48 20 48 47s-20 46 -46 46zM441 435l6 50h52l-59 -485h-52l16 132h-2
c-44 -80 -110 -137 -190 -137c-109 0 -167 86 -167 194c0 160 97 301 248 301c56 0 113 -19 145 -56zM425 303l10 77c-36 48 -102 62 -141 62c-120 0 -196 -122 -196 -254c0 -84 42 -145 121 -145c104 0 188 122 206 260z" />
    <glyph glyph-name="atilde" unicode="&#xe3;" horiz-adv-x="542" 
d="M411 572c-32 0 -56 22 -75 39c-17 13 -33 25 -50 25c-26 0 -48 -22 -64 -59l-36 17c23 55 55 87 96 87c31 0 49 -16 68 -32c18 -15 37 -32 57 -32c22 0 46 20 62 60l35 -15c-23 -60 -59 -90 -93 -90zM212 -5c-109 0 -167 86 -167 194c0 160 97 301 248 301
c56 0 113 -19 145 -56l3 1l6 50h52l-59 -485h-52l16 132h-2c-44 -80 -110 -137 -190 -137zM219 43c104 0 188 122 206 260l10 77c-36 48 -102 62 -141 62c-120 0 -196 -122 -196 -254c0 -84 42 -145 121 -145z" />
    <glyph glyph-name="ae" unicode="&#xe6;" horiz-adv-x="689" 
d="M486 45c39 0 89 21 126 68l41 -30c-43 -54 -106 -87 -168 -87c-96 0 -157 50 -174 137c-31 -84 -88 -138 -154 -138c-78 0 -132 71 -131 179c1 155 98 312 262 312c38 0 87 -8 126 -37c36 26 81 41 134 41c79 0 130 -44 130 -111c0 -114 -153 -177 -330 -190
c2 -92 55 -144 138 -144zM626 378c0 48 -44 63 -82 63c-106 0 -181 -88 -194 -209c149 12 276 63 276 146zM162 42c65 0 113 91 136 176c7 79 34 150 79 199c-28 16 -61 20 -86 20c-140 0 -212 -144 -212 -269c0 -80 37 -126 83 -126z" />
    <glyph glyph-name="aeacute" unicode="&#x1fd;" horiz-adv-x="689" 
d="M575 698l-129 -138h-58l125 138h62zM486 45c39 0 89 21 126 68l41 -30c-43 -54 -106 -87 -168 -87c-96 0 -157 50 -174 137c-31 -84 -88 -138 -154 -138c-78 0 -132 71 -131 179c1 155 98 312 262 312c38 0 87 -8 126 -37c36 26 81 41 134 41c79 0 130 -44 130 -111
c0 -114 -153 -177 -330 -190c2 -92 55 -144 138 -144zM626 378c0 48 -44 63 -82 63c-106 0 -181 -88 -194 -209c149 12 276 63 276 146zM162 42c65 0 113 91 136 176c7 79 34 150 79 199c-28 16 -61 20 -86 20c-140 0 -212 -144 -212 -269c0 -80 37 -126 83 -126z" />
    <glyph glyph-name="b" unicode="b" horiz-adv-x="555" 
d="M243 -5c-69 0 -133 15 -186 50l85 691h51l-45 -378l2 -1c42 78 108 133 192 133c112 0 168 -87 168 -203c0 -151 -96 -292 -267 -292zM241 44c135 0 215 117 215 247c0 87 -39 150 -123 150c-108 0 -189 -120 -207 -259l-14 -111c37 -19 84 -27 129 -27z" />
    <glyph glyph-name="c" unicode="c" horiz-adv-x="481" 
d="M231 -4c-102 0 -186 69 -186 199c0 159 97 295 255 295c64 0 127 -25 163 -78l-42 -32c-28 43 -74 62 -122 62c-124 0 -201 -112 -201 -243c0 -96 60 -154 136 -154c59 0 110 20 150 68l41 -30c-49 -59 -110 -87 -194 -87z" />
    <glyph glyph-name="cacute" unicode="&#x107;" horiz-adv-x="481" 
d="M283 560l125 138h62l-129 -138h-58zM231 -4c-102 0 -186 69 -186 199c0 159 97 295 255 295c64 0 127 -25 163 -78l-42 -32c-28 43 -74 62 -122 62c-124 0 -201 -112 -201 -243c0 -96 60 -154 136 -154c59 0 110 20 150 68l41 -30c-49 -59 -110 -87 -194 -87z" />
    <glyph glyph-name="ccaron" unicode="&#x10d;" horiz-adv-x="481" 
d="M289 559l-88 134h52l65 -98h2l92 98h54l-126 -134h-51zM231 -4c-102 0 -186 69 -186 199c0 159 97 295 255 295c64 0 127 -25 163 -78l-42 -32c-28 43 -74 62 -122 62c-124 0 -201 -112 -201 -243c0 -96 60 -154 136 -154c59 0 110 20 150 68l41 -30
c-49 -59 -110 -87 -194 -87z" />
    <glyph glyph-name="ccedilla" unicode="&#xe7;" horiz-adv-x="481" 
d="M234 45c59 0 110 20 150 68l41 -30c-46 -56 -103 -84 -180 -87l-18 -31l1 -1c43 -3 70 -21 70 -61c0 -57 -45 -87 -104 -87c-14 0 -28 1 -42 4l3 34c12 -4 24 -5 36 -5c38 0 67 17 67 53c0 24 -22 35 -70 36l4 27l17 32c-92 9 -164 77 -164 198c0 159 97 295 255 295
c64 0 127 -25 163 -78l-42 -32c-28 43 -74 62 -122 62c-124 0 -201 -112 -201 -243c0 -96 60 -154 136 -154z" />
    <glyph glyph-name="ccircumflex" unicode="&#x109;" horiz-adv-x="481" 
d="M184 558l123 140h51l93 -140h-55l-64 104h-1l-91 -104h-56zM231 -4c-102 0 -186 69 -186 199c0 159 97 295 255 295c64 0 127 -25 163 -78l-42 -32c-28 43 -74 62 -122 62c-124 0 -201 -112 -201 -243c0 -96 60 -154 136 -154c59 0 110 20 150 68l41 -30
c-49 -59 -110 -87 -194 -87z" />
    <glyph glyph-name="cdotaccent" unicode="&#x10b;" horiz-adv-x="481" 
d="M326 591c-24 0 -40 18 -40 42c0 25 18 43 42 43s42 -17 42 -41c0 -25 -18 -44 -44 -44zM231 -4c-102 0 -186 69 -186 199c0 159 97 295 255 295c64 0 127 -25 163 -78l-42 -32c-28 43 -74 62 -122 62c-124 0 -201 -112 -201 -243c0 -96 60 -154 136 -154
c59 0 110 20 150 68l41 -30c-49 -59 -110 -87 -194 -87z" />
    <glyph glyph-name="d" unicode="d" horiz-adv-x="553" 
d="M213 -5c-110 0 -168 86 -168 194c0 160 98 301 248 301c56 0 114 -18 149 -57l2 1l37 302h52l-90 -736h-53l17 133l-2 1c-43 -82 -110 -139 -192 -139zM220 43c106 0 190 122 208 259l9 78c-34 49 -101 62 -142 62c-120 0 -196 -122 -196 -254c0 -84 42 -145 121 -145z
" />
    <glyph glyph-name="eth" unicode="&#xf0;" horiz-adv-x="540" 
d="M443 545c36 -65 56 -144 56 -230c-1 -172 -91 -319 -257 -319c-119 0 -198 76 -198 200c0 156 104 287 250 287c49 0 102 -17 141 -54c-8 34 -20 66 -35 94c-17 31 -37 58 -60 82l-65 -71l-29 26l65 72c-34 29 -71 52 -109 68l22 39c44 -17 84 -41 120 -71l75 83l31 -27
l-77 -83c27 -28 51 -60 70 -96zM242 45c137 0 205 134 204 278c0 16 -1 32 -2 47c-42 52 -104 64 -141 64c-122 0 -206 -105 -206 -234c0 -98 59 -155 145 -155z" />
    <glyph glyph-name="dcaron" unicode="&#x10f;" horiz-adv-x="592" 
d="M583 592l45 172h56l-60 -172h-41zM213 -5c-110 0 -168 86 -168 194c0 160 98 301 248 301c56 0 114 -18 149 -57l2 1l37 302h52l-90 -736h-53l17 133l-2 1c-43 -82 -110 -139 -192 -139zM220 43c106 0 190 122 208 259l9 78c-34 49 -101 62 -142 62
c-120 0 -196 -122 -196 -254c0 -84 42 -145 121 -145z" />
    <glyph glyph-name="dcroat" unicode="&#x111;" horiz-adv-x="542" 
d="M575 619l-5 -40h-56l-71 -579h-53l17 133l-2 1c-43 -82 -110 -139 -192 -139c-110 0 -168 86 -168 194c0 160 98 301 248 301c56 0 114 -18 149 -57l2 1l18 145h-202l5 40h202l14 117h52l-14 -117h56zM428 302l9 78c-34 49 -101 62 -142 62c-120 0 -196 -122 -196 -254
c0 -84 42 -145 121 -145c106 0 190 122 208 259z" />
    <glyph glyph-name="uni1E0D" unicode="&#x1e0d;" horiz-adv-x="553" 
d="M213 -5c-110 0 -168 86 -168 194c0 160 98 301 248 301c56 0 114 -18 149 -57l2 1l37 302h52l-90 -736h-53l17 133l-2 1c-43 -82 -110 -139 -192 -139zM220 43c106 0 190 122 208 259l9 78c-34 49 -101 62 -142 62c-120 0 -196 -122 -196 -254c0 -84 42 -145 121 -145z
M231 -109c24 0 40 -18 40 -42c0 -25 -18 -43 -42 -43s-42 17 -42 41c0 25 18 44 44 44z" />
    <glyph glyph-name="uni1E0F" unicode="&#x1e0f;" horiz-adv-x="553" 
d="M213 -5c-110 0 -168 86 -168 194c0 160 98 301 248 301c56 0 114 -18 149 -57l2 1l37 302h52l-90 -736h-53l17 133l-2 1c-43 -82 -110 -139 -192 -139zM220 43c106 0 190 122 208 259l9 78c-34 49 -101 62 -142 62c-120 0 -196 -122 -196 -254c0 -84 42 -145 121 -145z
M102 -182l6 46h251l-6 -46h-251z" />
    <glyph glyph-name="e" unicode="e" horiz-adv-x="466" 
d="M236 45c55 0 100 23 140 68l40 -30c-48 -56 -103 -87 -181 -87c-113 0 -190 76 -190 201c0 159 100 293 251 293c57 0 145 -29 145 -121c0 -129 -195 -167 -344 -179c3 -93 61 -145 139 -145zM295 442c-98 0 -182 -84 -196 -208c123 10 289 39 289 132
c0 61 -56 76 -93 76z" />
    <glyph glyph-name="eacute" unicode="&#xe9;" horiz-adv-x="466" 
d="M460 698l-129 -138h-58l125 138h62zM441 369c0 -129 -195 -167 -344 -179c3 -93 61 -145 139 -145c55 0 100 23 140 68l40 -30c-48 -56 -103 -87 -181 -87c-113 0 -190 76 -190 201c0 159 100 293 251 293c57 0 145 -29 145 -121zM99 234c123 10 289 39 289 132
c0 61 -56 76 -93 76c-98 0 -182 -84 -196 -208z" />
    <glyph glyph-name="ebreve" unicode="&#x115;" horiz-adv-x="466" 
d="M291 557c-73 0 -111 48 -105 134h43c-4 -52 12 -90 64 -90s87 39 95 90h43c-15 -85 -71 -134 -140 -134zM236 45c55 0 100 23 140 68l40 -30c-48 -56 -103 -87 -181 -87c-113 0 -190 76 -190 201c0 159 100 293 251 293c57 0 145 -29 145 -121
c0 -129 -195 -167 -344 -179c3 -93 61 -145 139 -145zM295 442c-98 0 -182 -84 -196 -208c123 10 289 39 289 132c0 61 -56 76 -93 76z" />
    <glyph glyph-name="ecaron" unicode="&#x11b;" horiz-adv-x="466" 
d="M316 559h-51l-88 134h52l65 -98h2l92 98h54zM441 369c0 -129 -195 -167 -344 -179c3 -93 61 -145 139 -145c55 0 100 23 140 68l40 -30c-48 -56 -103 -87 -181 -87c-113 0 -190 76 -190 201c0 159 100 293 251 293c57 0 145 -29 145 -121zM99 234c123 10 289 39 289 132
c0 61 -56 76 -93 76c-98 0 -182 -84 -196 -208z" />
    <glyph glyph-name="ecircumflex" unicode="&#xea;" horiz-adv-x="466" 
d="M307 662l-91 -104h-56l123 140h51l93 -140h-55l-64 104h-1zM236 45c55 0 100 23 140 68l40 -30c-48 -56 -103 -87 -181 -87c-113 0 -190 76 -190 201c0 159 100 293 251 293c57 0 145 -29 145 -121c0 -129 -195 -167 -344 -179c3 -93 61 -145 139 -145zM295 442
c-98 0 -182 -84 -196 -208c123 10 289 39 289 132c0 61 -56 76 -93 76z" />
    <glyph glyph-name="uni1EBF" unicode="&#x1ebf;" horiz-adv-x="466" 
d="M517 780h61l-135 -138h-46zM308 662l-91 -104h-56l123 140h51l93 -140h-55l-64 104h-1zM441 369c0 -129 -195 -167 -344 -179c3 -93 61 -145 139 -145c55 0 100 23 140 68l40 -30c-48 -56 -103 -87 -181 -87c-113 0 -190 76 -190 201c0 159 100 293 251 293
c57 0 145 -29 145 -121zM99 234c123 10 289 39 289 132c0 61 -56 76 -93 76c-98 0 -182 -84 -196 -208z" />
    <glyph glyph-name="uni1EC7" unicode="&#x1ec7;" horiz-adv-x="466" 
d="M307 662l-91 -104h-56l123 140h51l93 -140h-55l-64 104h-1zM236 45c55 0 100 23 140 68l40 -30c-48 -56 -103 -87 -181 -87c-113 0 -190 76 -190 201c0 159 100 293 251 293c57 0 145 -29 145 -121c0 -129 -195 -167 -344 -179c3 -93 61 -145 139 -145zM295 442
c-98 0 -182 -84 -196 -208c123 10 289 39 289 132c0 61 -56 76 -93 76zM219 -109c24 0 40 -18 40 -42c0 -25 -18 -43 -42 -43s-42 17 -42 41c0 25 18 44 44 44z" />
    <glyph glyph-name="uni1EC1" unicode="&#x1ec1;" horiz-adv-x="466" 
d="M482 643h-44l-96 138h57zM306 662l-91 -104h-56l123 140h51l93 -140h-55l-64 104h-1zM441 369c0 -129 -195 -167 -344 -179c3 -93 61 -145 139 -145c55 0 100 23 140 68l40 -30c-48 -56 -103 -87 -181 -87c-113 0 -190 76 -190 201c0 159 100 293 251 293
c57 0 145 -29 145 -121zM99 234c123 10 289 39 289 132c0 61 -56 76 -93 76c-98 0 -182 -84 -196 -208z" />
    <glyph glyph-name="uni1EC3" unicode="&#x1ec3;" horiz-adv-x="466" 
d="M482 810c38 0 67 -16 67 -57c0 -47 -58 -91 -90 -112l-41 1c34 25 89 68 89 102c0 21 -16 29 -38 29c-27 0 -58 -12 -81 -32l-8 33c25 19 63 36 102 36zM307 662l-91 -104h-56l123 140h51l93 -140h-55l-64 104h-1zM441 369c0 -129 -195 -167 -344 -179
c3 -93 61 -145 139 -145c55 0 100 23 140 68l40 -30c-48 -56 -103 -87 -181 -87c-113 0 -190 76 -190 201c0 159 100 293 251 293c57 0 145 -29 145 -121zM99 234c123 10 289 39 289 132c0 61 -56 76 -93 76c-98 0 -182 -84 -196 -208z" />
    <glyph glyph-name="uni1EC5" unicode="&#x1ec5;" horiz-adv-x="466" 
d="M448 844l33 -15c-23 -57 -59 -87 -92 -87c-31 0 -52 21 -71 38c-16 14 -33 25 -50 25c-24 0 -46 -21 -62 -58l-34 17c22 52 53 84 93 84c31 0 49 -16 68 -31c18 -15 35 -33 55 -33c21 0 44 21 60 60zM310 662h-1l-91 -104h-56l123 140h51l93 -140h-55zM441 369
c0 -129 -195 -167 -344 -179c3 -93 61 -145 139 -145c55 0 100 23 140 68l40 -30c-48 -56 -103 -87 -181 -87c-113 0 -190 76 -190 201c0 159 100 293 251 293c57 0 145 -29 145 -121zM99 234c123 10 289 39 289 132c0 61 -56 76 -93 76c-98 0 -182 -84 -196 -208z" />
    <glyph glyph-name="edieresis" unicode="&#xeb;" horiz-adv-x="466" 
d="M225 591c-24 0 -41 18 -41 42c0 25 18 43 42 43c25 0 43 -17 43 -41c0 -25 -19 -44 -44 -44zM377 591c-24 0 -41 18 -41 42c0 25 18 43 43 43c24 0 42 -17 42 -41c0 -25 -19 -44 -44 -44zM236 45c55 0 100 23 140 68l40 -30c-48 -56 -103 -87 -181 -87
c-113 0 -190 76 -190 201c0 159 100 293 251 293c57 0 145 -29 145 -121c0 -129 -195 -167 -344 -179c3 -93 61 -145 139 -145zM295 442c-98 0 -182 -84 -196 -208c123 10 289 39 289 132c0 61 -56 76 -93 76z" />
    <glyph glyph-name="edotaccent" unicode="&#x117;" horiz-adv-x="466" 
d="M302 591c-24 0 -40 18 -40 42c0 25 18 43 42 43s42 -17 42 -41c0 -25 -18 -44 -44 -44zM236 45c55 0 100 23 140 68l40 -30c-48 -56 -103 -87 -181 -87c-113 0 -190 76 -190 201c0 159 100 293 251 293c57 0 145 -29 145 -121c0 -129 -195 -167 -344 -179
c3 -93 61 -145 139 -145zM295 442c-98 0 -182 -84 -196 -208c123 10 289 39 289 132c0 61 -56 76 -93 76z" />
    <glyph glyph-name="uni1EB9" unicode="&#x1eb9;" horiz-adv-x="466" 
d="M236 45c55 0 100 23 140 68l40 -30c-48 -56 -103 -87 -181 -87c-113 0 -190 76 -190 201c0 159 100 293 251 293c57 0 145 -29 145 -121c0 -129 -195 -167 -344 -179c3 -93 61 -145 139 -145zM295 442c-98 0 -182 -84 -196 -208c123 10 289 39 289 132
c0 61 -56 76 -93 76zM219 -109c24 0 40 -18 40 -42c0 -25 -18 -43 -42 -43s-42 17 -42 41c0 25 18 44 44 44z" />
    <glyph glyph-name="egrave" unicode="&#xe8;" horiz-adv-x="466" 
d="M353 560h-56l-96 138h61zM236 45c55 0 100 23 140 68l40 -30c-48 -56 -103 -87 -181 -87c-113 0 -190 76 -190 201c0 159 100 293 251 293c57 0 145 -29 145 -121c0 -129 -195 -167 -344 -179c3 -93 61 -145 139 -145zM295 442c-98 0 -182 -84 -196 -208
c123 10 289 39 289 132c0 61 -56 76 -93 76z" />
    <glyph glyph-name="uni1EBB" unicode="&#x1ebb;" horiz-adv-x="466" 
d="M318 692c-29 0 -61 -12 -85 -33l-8 35c26 19 65 37 106 37c40 0 70 -17 70 -59c0 -50 -60 -96 -94 -118l-43 1c36 27 93 72 93 107c0 22 -16 30 -39 30zM236 45c55 0 100 23 140 68l40 -30c-48 -56 -103 -87 -181 -87c-113 0 -190 76 -190 201c0 159 100 293 251 293
c57 0 145 -29 145 -121c0 -129 -195 -167 -344 -179c3 -93 61 -145 139 -145zM295 442c-98 0 -182 -84 -196 -208c123 10 289 39 289 132c0 61 -56 76 -93 76z" />
    <glyph glyph-name="emacron" unicode="&#x113;" horiz-adv-x="466" 
d="M431 654l-6 -46h-251l6 46h251zM236 45c55 0 100 23 140 68l40 -30c-48 -56 -103 -87 -181 -87c-113 0 -190 76 -190 201c0 159 100 293 251 293c57 0 145 -29 145 -121c0 -129 -195 -167 -344 -179c3 -93 61 -145 139 -145zM295 442c-98 0 -182 -84 -196 -208
c123 10 289 39 289 132c0 61 -56 76 -93 76z" />
    <glyph glyph-name="eogonek" unicode="&#x119;" horiz-adv-x="466" 
d="M236 45c55 0 100 23 140 68l40 -30c-33 -39 -70 -66 -115 -78c-55 -23 -102 -70 -102 -111c0 -21 12 -38 42 -38c20 0 34 4 48 11l2 -38c-17 -8 -37 -12 -61 -12c-49 0 -77 23 -77 66s30 85 69 112l-1 1c-105 6 -176 81 -176 201c0 159 100 293 251 293
c57 0 145 -29 145 -121c0 -129 -195 -167 -344 -179c3 -93 61 -145 139 -145zM295 442c-98 0 -182 -84 -196 -208c123 10 289 39 289 132c0 61 -56 76 -93 76z" />
    <glyph glyph-name="uni1EBD" unicode="&#x1ebd;" horiz-adv-x="466" 
d="M243 636c-26 0 -48 -22 -64 -59l-36 17c23 55 55 87 96 87c31 0 49 -16 68 -32c18 -15 37 -32 57 -32c22 0 46 20 62 60l35 -15c-23 -60 -59 -90 -93 -90c-32 0 -56 22 -75 39c-17 13 -33 25 -50 25zM441 369c0 -129 -195 -167 -344 -179c3 -93 61 -145 139 -145
c55 0 100 23 140 68l40 -30c-48 -56 -103 -87 -181 -87c-113 0 -190 76 -190 201c0 159 100 293 251 293c57 0 145 -29 145 -121zM99 234c123 10 289 39 289 132c0 61 -56 76 -93 76c-98 0 -182 -84 -196 -208z" />
    <glyph glyph-name="uni0259" unicode="&#x259;" horiz-adv-x="455" 
d="M230 490c110 0 188 -78 188 -205c0 -163 -96 -289 -259 -289c-83 0 -139 50 -139 119c0 139 194 185 345 195c-7 82 -59 132 -136 132c-49 0 -99 -23 -128 -49l-31 37c37 33 98 60 160 60zM163 45c120 0 193 93 202 218c-151 -11 -292 -51 -292 -145c0 -43 35 -73 90 -73
z" />
    <glyph glyph-name="f" unicode="f" horiz-adv-x="290" 
d="M60 0l53 439h-56l5 46h57l13 109c13 103 59 147 130 147c36 0 67 -8 94 -27l-14 -46c-21 16 -47 24 -74 24c-42 0 -75 -24 -85 -109l-12 -98h134l-5 -46h-135l-53 -439h-52z" />
    <glyph glyph-name="g" unicode="g" horiz-adv-x="544" 
d="M184 -202c-57 0 -110 12 -160 40l17 49c52 -30 101 -40 146 -40c106 0 186 37 209 222l10 79h-2c-43 -78 -111 -138 -193 -138c-109 0 -166 86 -166 195c0 144 97 285 247 285c56 0 115 -19 147 -55l2 1l6 49h52l-51 -420c-27 -219 -133 -267 -264 -267zM219 58
c100 0 188 115 204 236l11 86c-35 48 -102 61 -140 61c-120 0 -196 -121 -196 -238c0 -84 42 -145 121 -145z" />
    <glyph glyph-name="gbreve" unicode="&#x11f;" horiz-adv-x="544" 
d="M322 557c-73 0 -111 48 -105 134h43c-4 -52 12 -90 64 -90s87 39 95 90h43c-15 -85 -71 -134 -140 -134zM184 -202c-57 0 -110 12 -160 40l17 49c52 -30 101 -40 146 -40c106 0 186 37 209 222l10 79h-2c-43 -78 -111 -138 -193 -138c-109 0 -166 86 -166 195
c0 144 97 285 247 285c56 0 115 -19 147 -55l2 1l6 49h52l-51 -420c-27 -219 -133 -267 -264 -267zM219 58c100 0 188 115 204 236l11 86c-35 48 -102 61 -140 61c-120 0 -196 -121 -196 -238c0 -84 42 -145 121 -145z" />
    <glyph glyph-name="gcaron" unicode="&#x1e7;" horiz-adv-x="544" 
d="M296 559l-88 134h52l65 -98h2l92 98h54l-126 -134h-51zM184 -202c-57 0 -110 12 -160 40l17 49c52 -30 101 -40 146 -40c106 0 186 37 209 222l10 79h-2c-43 -78 -111 -138 -193 -138c-109 0 -166 86 -166 195c0 144 97 285 247 285c56 0 115 -19 147 -55l2 1l6 49h52
l-51 -420c-27 -219 -133 -267 -264 -267zM219 58c100 0 188 115 204 236l11 86c-35 48 -102 61 -140 61c-120 0 -196 -121 -196 -238c0 -84 42 -145 121 -145z" />
    <glyph glyph-name="gcircumflex" unicode="&#x11d;" horiz-adv-x="544" 
d="M191 558l123 140h51l93 -140h-55l-64 104h-1l-91 -104h-56zM184 -202c-57 0 -110 12 -160 40l17 49c52 -30 101 -40 146 -40c106 0 186 37 209 222l10 79h-2c-43 -78 -111 -138 -193 -138c-109 0 -166 86 -166 195c0 144 97 285 247 285c56 0 115 -19 147 -55l2 1l6 49
h52l-51 -420c-27 -219 -133 -267 -264 -267zM219 58c100 0 188 115 204 236l11 86c-35 48 -102 61 -140 61c-120 0 -196 -121 -196 -238c0 -84 42 -145 121 -145z" />
    <glyph glyph-name="gcommaaccent" unicode="&#x123;" horiz-adv-x="544" 
d="M413 706l9 -34c-48 -8 -68 -35 -68 -98c0 -6 0 -12 1 -20h-47c0 4 -1 8 -1 22c0 74 32 124 106 130zM184 -202c-57 0 -110 12 -160 40l17 49c52 -30 101 -40 146 -40c106 0 186 37 209 222l10 79h-2c-43 -78 -111 -138 -193 -138c-109 0 -166 86 -166 195
c0 144 97 285 247 285c56 0 115 -19 147 -55l2 1l6 49h52l-51 -420c-27 -219 -133 -267 -264 -267zM219 58c100 0 188 115 204 236l11 86c-35 48 -102 61 -140 61c-120 0 -196 -121 -196 -238c0 -84 42 -145 121 -145z" />
    <glyph glyph-name="gdotaccent" unicode="&#x121;" horiz-adv-x="544" 
d="M333 591c-24 0 -40 18 -40 42c0 25 18 43 42 43s42 -17 42 -41c0 -25 -18 -44 -44 -44zM184 -202c-57 0 -110 12 -160 40l17 49c52 -30 101 -40 146 -40c106 0 186 37 209 222l10 79h-2c-43 -78 -111 -138 -193 -138c-109 0 -166 86 -166 195c0 144 97 285 247 285
c56 0 115 -19 147 -55l2 1l6 49h52l-51 -420c-27 -219 -133 -267 -264 -267zM219 58c100 0 188 115 204 236l11 86c-35 48 -102 61 -140 61c-120 0 -196 -121 -196 -238c0 -84 42 -145 121 -145z" />
    <glyph glyph-name="uni1E21" unicode="&#x1e21;" horiz-adv-x="544" 
d="M205 608l6 46h251l-6 -46h-251zM184 -202c-57 0 -110 12 -160 40l17 49c52 -30 101 -40 146 -40c106 0 186 37 209 222l10 79h-2c-43 -78 -111 -138 -193 -138c-109 0 -166 86 -166 195c0 144 97 285 247 285c56 0 115 -19 147 -55l2 1l6 49h52l-51 -420
c-27 -219 -133 -267 -264 -267zM219 58c100 0 188 115 204 236l11 86c-35 48 -102 61 -140 61c-120 0 -196 -121 -196 -238c0 -84 42 -145 121 -145z" />
    <glyph glyph-name="h" unicode="h" horiz-adv-x="540" 
d="M51 0l91 736h52l-48 -386l2 -1c48 88 129 141 207 141c95 0 139 -59 121 -198l-39 -292h-52l38 289c15 116 -21 153 -81 153c-89 0 -198 -108 -214 -241l-24 -201h-53z" />
    <glyph glyph-name="hbar" unicode="&#x127;" horiz-adv-x="540" 
d="M355 490c95 0 139 -59 121 -198l-39 -292h-52l38 289c15 116 -21 153 -81 153c-89 0 -198 -108 -214 -241l-24 -201h-53l72 579h-76l5 40h76l14 117h52l-15 -117h191l-5 -40h-191l-28 -229l2 -1c48 88 129 141 207 141z" />
    <glyph glyph-name="uni1E2B" unicode="&#x1e2b;" horiz-adv-x="540" 
d="M51 0l91 736h52l-48 -386l2 -1c48 88 129 141 207 141c95 0 139 -59 121 -198l-39 -292h-52l38 289c15 116 -21 153 -81 153c-89 0 -198 -108 -214 -241l-24 -201h-53zM223 -213c-73 0 -111 48 -105 134h43c-4 -52 12 -90 64 -90s87 39 95 90h43
c-15 -85 -71 -134 -140 -134z" />
    <glyph glyph-name="hcircumflex" unicode="&#x125;" horiz-adv-x="540" 
d="M162 800l126 118h52l90 -118h-54l-65 83h-3l-91 -83h-55zM51 0l91 736h52l-48 -386l2 -1c48 88 129 141 207 141c95 0 139 -59 121 -198l-39 -292h-52l38 289c15 116 -21 153 -81 153c-89 0 -198 -108 -214 -241l-24 -201h-53z" />
    <glyph glyph-name="uni1E25" unicode="&#x1e25;" horiz-adv-x="540" 
d="M51 0l91 736h52l-48 -386l2 -1c48 88 129 141 207 141c95 0 139 -59 121 -198l-39 -292h-52l38 289c15 116 -21 153 -81 153c-89 0 -198 -108 -214 -241l-24 -201h-53zM231 -109c24 0 40 -18 40 -42c0 -25 -18 -43 -42 -43s-42 17 -42 41c0 25 18 44 44 44z" />
    <glyph glyph-name="i" unicode="i" horiz-adv-x="223" 
d="M160 591c-24 0 -40 18 -40 42c0 25 18 43 42 43s42 -17 42 -41c0 -25 -18 -44 -44 -44zM56 0l59 485h52l-60 -485h-51z" />
    <glyph glyph-name="dotlessi" unicode="&#x131;" horiz-adv-x="223" 
d="M56 0l59 485h52l-60 -485h-51z" />
    <glyph glyph-name="iacute" unicode="&#xed;" horiz-adv-x="223" 
d="M130 560l125 138h62l-129 -138h-58zM56 0l59 485h52l-60 -485h-51z" />
    <glyph glyph-name="ibreve" unicode="&#x12d;" horiz-adv-x="223" 
d="M154 558c-61 0 -104 48 -98 133h42c-5 -54 12 -92 57 -92c48 0 75 40 81 92h43c-13 -84 -63 -133 -125 -133zM56 0l59 485h52l-60 -485h-51z" />
    <glyph glyph-name="uni01D0" unicode="&#x1d0;" horiz-adv-x="223" 
d="M123 559l-88 134h52l65 -98h2l92 98h54l-126 -134h-51zM56 0l59 485h52l-60 -485h-51z" />
    <glyph glyph-name="icircumflex" unicode="&#xee;" horiz-adv-x="223" 
d="M18 558l123 140h51l93 -140h-55l-64 104h-1l-91 -104h-56zM56 0l59 485h52l-60 -485h-51z" />
    <glyph glyph-name="idieresis" unicode="&#xef;" horiz-adv-x="223" 
d="M84 591c-23 0 -40 18 -40 42c0 25 18 43 42 43c23 0 41 -17 41 -41c0 -25 -19 -44 -43 -44zM233 591c-23 0 -41 18 -41 42c0 25 19 43 43 43c22 0 40 -17 40 -41c0 -25 -19 -44 -42 -44zM56 0l59 485h52l-60 -485h-51z" />
    <glyph glyph-name="i.loclTRK" horiz-adv-x="223" 
d="M160 591c-24 0 -40 18 -40 42c0 25 18 43 42 43s42 -17 42 -41c0 -25 -18 -44 -44 -44zM56 0l59 485h52l-60 -485h-51z" />
    <glyph glyph-name="uni1ECB" unicode="&#x1ecb;" horiz-adv-x="223" 
d="M160 591c-24 0 -40 18 -40 42c0 25 18 43 42 43s42 -17 42 -41c0 -25 -18 -44 -44 -44zM56 0l59 485h52l-60 -485h-51zM65 -109c24 0 40 -18 40 -42c0 -25 -18 -43 -42 -43s-42 17 -42 41c0 25 18 44 44 44z" />
    <glyph glyph-name="igrave" unicode="&#xec;" horiz-adv-x="224" 
d="M119 563l-64 138h60l60 -138h-56zM56 0l59 485h52l-60 -485h-51z" />
    <glyph glyph-name="uni1EC9" unicode="&#x1ec9;" horiz-adv-x="223" 
d="M165 554l-43 1c36 27 93 72 93 107c0 22 -16 30 -39 30c-29 0 -61 -12 -85 -33l-8 35c26 19 65 37 106 37c40 0 70 -17 70 -59c0 -50 -60 -96 -94 -118zM56 0l59 485h52l-60 -485h-51z" />
    <glyph glyph-name="ij" unicode="&#x133;" horiz-adv-x="411" 
d="M160 591c-24 0 -40 18 -40 42c0 25 18 43 42 43s42 -17 42 -41c0 -25 -18 -44 -44 -44zM360 591c-24 0 -40 18 -40 42c0 25 18 43 42 43s42 -17 42 -41c0 -25 -18 -44 -44 -44zM56 0l59 485h52l-60 -485h-51zM178 -202c-26 0 -46 5 -66 17l13 45c19 -14 32 -16 49 -16
c36 0 66 20 76 106l66 535h52l-67 -541c-11 -98 -49 -146 -123 -146z" />
    <glyph glyph-name="imacron" unicode="&#x12b;" horiz-adv-x="223" 
d="M32 608l6 46h251l-6 -46h-251zM56 0l59 485h52l-60 -485h-51z" />
    <glyph glyph-name="iogonek" unicode="&#x12f;" horiz-adv-x="223" 
d="M162 676c24 0 42 -17 42 -41c0 -25 -18 -44 -44 -44c-24 0 -40 18 -40 42c0 25 18 43 42 43zM105 0c-53 -30 -86 -67 -87 -104c-1 -22 11 -40 41 -40c24 0 35 4 49 11l2 -38c-17 -8 -37 -12 -61 -12c-51 0 -79 25 -77 71c2 45 39 90 85 121l58 476h52l-60 -485h-2z" />
    <glyph glyph-name="itilde" unicode="&#x129;" horiz-adv-x="223" 
d="M224 573c-31 0 -52 21 -71 38c-16 14 -33 25 -50 25c-24 0 -46 -21 -62 -58l-34 17c22 52 53 84 93 84c31 0 49 -16 68 -31c18 -15 35 -33 55 -33c21 0 44 21 60 60l33 -15c-23 -57 -59 -87 -92 -87zM56 0l59 485h52l-60 -485h-51z" />
    <glyph glyph-name="j" unicode="j" horiz-adv-x="188" 
d="M137 591c-24 0 -40 18 -40 42c0 25 18 43 42 43s42 -17 42 -41c0 -25 -18 -44 -44 -44zM-45 -202c-26 0 -46 5 -66 17l13 45c19 -14 32 -16 49 -16c36 0 66 20 76 106l66 535h52l-67 -541c-11 -98 -49 -146 -123 -146z" />
    <glyph glyph-name="uni0237" unicode="&#x237;" horiz-adv-x="188" 
d="M-45 -202c-26 0 -46 5 -66 17l13 45c19 -14 32 -16 49 -16c36 0 66 20 76 106l66 535h52l-67 -541c-11 -98 -49 -146 -123 -146z" />
    <glyph glyph-name="uni006A0301" horiz-adv-x="188" 
d="M103 560l125 138h62l-129 -138h-58zM-45 -202c-26 0 -46 5 -66 17l13 45c19 -14 32 -16 49 -16c36 0 66 20 76 106l66 535h52l-67 -541c-11 -98 -49 -146 -123 -146z" />
    <glyph glyph-name="jcircumflex" unicode="&#x135;" horiz-adv-x="188" 
d="M-5 558l123 140h51l93 -140h-55l-64 104h-1l-91 -104h-56zM-45 -202c-26 0 -46 5 -66 17l13 45c19 -14 32 -16 49 -16c36 0 66 20 76 106l66 535h52l-67 -541c-11 -98 -49 -146 -123 -146z" />
    <glyph glyph-name="k" unicode="k" horiz-adv-x="481" 
d="M408 -4c-7 -1 -16 0 -22 2c-45 9 -64 57 -92 123l-35 81c-46 -38 -97 -71 -143 -93l-13 -109h-52l91 736h52l-70 -567l2 -1c136 76 244 203 281 317h53c-24 -89 -85 -176 -160 -248l43 -99c34 -80 49 -94 80 -99z" />
    <glyph glyph-name="kcommaaccent" unicode="&#x137;" horiz-adv-x="481" 
d="M408 -4c-7 -1 -16 0 -22 2c-45 9 -64 57 -92 123l-35 81c-46 -38 -97 -71 -143 -93l-13 -109h-52l91 736h52l-70 -567l2 -1c136 76 244 203 281 317h53c-24 -89 -85 -176 -160 -248l43 -99c34 -80 49 -94 80 -99zM124 -206l-9 34c48 8 68 35 68 98c0 6 0 12 -1 20h47
c0 -4 1 -8 1 -22c0 -74 -32 -124 -106 -130z" />
    <glyph glyph-name="kgreenlandic" unicode="&#x138;" horiz-adv-x="481" 
d="M408 -4c-7 0 -16 0 -22 2c-45 9 -64 57 -92 123l-35 81c-46 -38 -97 -71 -143 -93l-13 -109h-52l60 485h52l-39 -315l3 -2c135 76 243 203 280 317h53c-24 -89 -85 -176 -160 -248l43 -99c34 -80 49 -94 80 -99z" />
    <glyph glyph-name="l" unicode="l" horiz-adv-x="218" 
d="M56 0l90 736h53l-91 -736h-52z" />
    <glyph glyph-name="lacute" unicode="&#x13a;" horiz-adv-x="218" 
d="M157 801l123 127l61 1l-128 -128h-56zM56 0l90 736h53l-91 -736h-52z" />
    <glyph glyph-name="lcaron" unicode="&#x13e;" horiz-adv-x="261" 
d="M253 592l46 172h55l-59 -172h-42zM56 0l90 736h53l-91 -736h-52z" />
    <glyph glyph-name="lcommaaccent" unicode="&#x13c;" horiz-adv-x="218" 
d="M56 0l90 736h53l-91 -736h-52zM-6 -206l-9 34c48 8 68 35 68 98c0 6 0 12 -1 20h47c0 -4 1 -8 1 -22c0 -74 -32 -124 -106 -130z" />
    <glyph glyph-name="ldot" unicode="&#x140;" horiz-adv-x="290" 
d="M56 0l90 736h53l-91 -736h-52zM257 223c-25 0 -42 18 -42 42s18 43 43 43c24 0 42 -18 42 -42s-19 -43 -43 -43z" />
    <glyph glyph-name="uni1E37" unicode="&#x1e37;" horiz-adv-x="218" 
d="M56 0l90 736h53l-91 -736h-52zM68 -109c24 0 40 -18 40 -42c0 -25 -18 -43 -42 -43s-42 17 -42 41c0 25 18 44 44 44z" />
    <glyph glyph-name="uni1E39" unicode="&#x1e39;" horiz-adv-x="218" 
d="M61 835l6 45h251l-6 -45h-251zM56 0l90 736h53l-91 -736h-52zM64 -109c24 0 40 -18 40 -42c0 -25 -18 -43 -42 -43s-42 17 -42 41c0 25 18 44 44 44z" />
    <glyph glyph-name="uni1E3B" unicode="&#x1e3b;" horiz-adv-x="218" 
d="M56 0l90 736h53l-91 -736h-52zM-59 -182l6 46h251l-6 -46h-251z" />
    <glyph glyph-name="lslash" unicode="&#x142;" horiz-adv-x="242" 
d="M244 391l-6 -47l-80 -33l-38 -311h-52l35 288l-77 -32l6 47l77 32l49 401h53l-47 -378z" />
    <glyph glyph-name="m" unicode="m" horiz-adv-x="820" 
d="M52 0l59 485h52l-16 -126l3 -1c46 82 117 132 185 132c72 0 115 -38 118 -130l2 -1c45 81 115 131 186 131c92 0 136 -59 118 -198l-40 -292h-52l39 289c15 116 -21 153 -76 153c-75 0 -173 -97 -192 -241l-26 -201h-52l38 289c14 116 -20 153 -75 153
c-78 0 -179 -108 -195 -240l-24 -202h-52z" />
    <glyph glyph-name="uni1E43" unicode="&#x1e43;" horiz-adv-x="820" 
d="M52 0l59 485h52l-16 -126l3 -1c46 82 117 132 185 132c72 0 115 -38 118 -130l2 -1c45 81 115 131 186 131c92 0 136 -59 118 -198l-40 -292h-52l39 289c15 116 -21 153 -76 153c-75 0 -173 -97 -192 -241l-26 -201h-52l38 289c14 116 -20 153 -75 153
c-78 0 -179 -108 -195 -240l-24 -202h-52zM369 -109c24 0 40 -18 40 -42c0 -25 -18 -43 -42 -43s-42 17 -42 41c0 25 18 44 44 44z" />
    <glyph glyph-name="n" unicode="n" horiz-adv-x="540" 
d="M51 0l61 485h52l-17 -132h2c49 84 128 137 206 137c95 0 139 -59 121 -198l-39 -292h-52l38 289c15 116 -21 152 -81 152c-88 0 -197 -104 -214 -240l-24 -201h-53z" />
    <glyph glyph-name="nacute" unicode="&#x144;" horiz-adv-x="540" 
d="M273 560l125 138h62l-129 -138h-58zM51 0l61 485h52l-17 -132h2c49 84 128 137 206 137c95 0 139 -59 121 -198l-39 -292h-52l38 289c15 116 -21 152 -81 152c-88 0 -197 -104 -214 -240l-24 -201h-53z" />
    <glyph glyph-name="napostrophe" unicode="&#x149;" horiz-adv-x="640" 
d="M51 529l45 181h55l-59 -181h-41zM151 0l61 485h52l-17 -132h2c49 84 128 137 206 137c95 0 139 -59 121 -198l-39 -292h-52l38 289c15 116 -21 152 -81 152c-88 0 -197 -104 -214 -240l-24 -201h-53z" />
    <glyph glyph-name="ncaron" unicode="&#x148;" horiz-adv-x="540" 
d="M298 559l-88 134h52l65 -98h2l92 98h54l-126 -134h-51zM51 0l61 485h52l-17 -132h2c49 84 128 137 206 137c95 0 139 -59 121 -198l-39 -292h-52l38 289c15 116 -21 152 -81 152c-88 0 -197 -104 -214 -240l-24 -201h-53z" />
    <glyph glyph-name="ncommaaccent" unicode="&#x146;" horiz-adv-x="540" 
d="M51 0l61 485h52l-17 -132h2c49 84 128 137 206 137c95 0 139 -59 121 -198l-39 -292h-52l38 289c15 116 -21 152 -81 152c-88 0 -197 -104 -214 -240l-24 -201h-53zM152 -206l-9 34c48 8 68 35 68 98c0 6 0 12 -1 20h47c0 -4 1 -8 1 -22c0 -74 -32 -124 -106 -130z" />
    <glyph glyph-name="uni1E45" unicode="&#x1e45;" horiz-adv-x="540" 
d="M335 591c-24 0 -40 18 -40 42c0 25 18 43 42 43s42 -17 42 -41c0 -25 -18 -44 -44 -44zM51 0l61 485h52l-17 -132h2c49 84 128 137 206 137c95 0 139 -59 121 -198l-39 -292h-52l38 289c15 116 -21 152 -81 152c-88 0 -197 -104 -214 -240l-24 -201h-53z" />
    <glyph glyph-name="uni1E47" unicode="&#x1e47;" horiz-adv-x="540" 
d="M51 0l61 485h52l-17 -132h2c49 84 128 137 206 137c95 0 139 -59 121 -198l-39 -292h-52l38 289c15 116 -21 152 -81 152c-88 0 -197 -104 -214 -240l-24 -201h-53zM231 -109c24 0 40 -18 40 -42c0 -25 -18 -43 -42 -43s-42 17 -42 41c0 25 18 44 44 44z" />
    <glyph glyph-name="eng" unicode="&#x14b;" horiz-adv-x="537" 
d="M261 -202c-12 0 -32 2 -49 8l9 43c14 -5 29 -6 37 -6c62 0 107 30 124 164l37 282c16 116 -20 152 -81 152c-88 0 -193 -104 -209 -239l-25 -202h-52l60 485h52l-16 -131l2 -1c47 84 124 137 202 137c95 0 138 -59 120 -198l-38 -292c-19 -146 -75 -202 -173 -202z" />
    <glyph glyph-name="uni0272" unicode="&#x272;" horiz-adv-x="540" 
d="M355 490c95 0 139 -59 121 -198l-39 -292h-52l38 289c15 116 -21 152 -81 152c-88 0 -197 -104 -214 -240l-24 -201h-1c-16 -136 -49 -202 -147 -202c-12 0 -32 2 -49 8l9 43c14 -5 29 -6 37 -6c61 0 83 38 98 157l7 58l53 427h53l-17 -132h2c49 84 128 137 206 137z" />
    <glyph glyph-name="uni1E49" unicode="&#x1e49;" horiz-adv-x="540" 
d="M51 0l61 485h52l-17 -132h2c49 84 128 137 206 137c95 0 139 -59 121 -198l-39 -292h-52l38 289c15 116 -21 152 -81 152c-88 0 -197 -104 -214 -240l-24 -201h-53zM102 -182l6 46h251l-6 -46h-251z" />
    <glyph glyph-name="ntilde" unicode="&#xf1;" horiz-adv-x="540" 
d="M401 572c-32 0 -56 22 -75 39c-17 13 -33 25 -50 25c-26 0 -48 -22 -64 -59l-36 17c23 55 55 87 96 87c31 0 49 -16 68 -32c18 -15 37 -32 57 -32c22 0 46 20 62 60l35 -15c-23 -60 -59 -90 -93 -90zM51 0l61 485h52l-17 -132h2c49 84 128 137 206 137
c95 0 139 -59 121 -198l-39 -292h-52l38 289c15 116 -21 152 -81 152c-88 0 -197 -104 -214 -240l-24 -201h-53z" />
    <glyph glyph-name="o" unicode="o" horiz-adv-x="539" 
d="M242 -5c-118 0 -198 74 -198 203c0 155 98 292 255 292c117 0 196 -70 196 -198c0 -165 -94 -297 -253 -297zM243 44c117 0 199 101 199 245c0 104 -62 153 -146 153c-117 0 -199 -108 -199 -240c0 -97 57 -158 146 -158z" />
    <glyph glyph-name="oacute" unicode="&#xf3;" horiz-adv-x="539" 
d="M289 560l125 138h62l-129 -138h-58zM242 -5c-118 0 -198 74 -198 203c0 155 98 292 255 292c117 0 196 -70 196 -198c0 -165 -94 -297 -253 -297zM243 44c117 0 199 101 199 245c0 104 -62 153 -146 153c-117 0 -199 -108 -199 -240c0 -97 57 -158 146 -158z" />
    <glyph glyph-name="obreve" unicode="&#x14f;" horiz-adv-x="539" 
d="M314 557c-73 0 -111 48 -105 134h43c-4 -52 12 -90 64 -90s87 39 95 90h43c-15 -85 -71 -134 -140 -134zM242 -5c-118 0 -198 74 -198 203c0 155 98 292 255 292c117 0 196 -70 196 -198c0 -165 -94 -297 -253 -297zM243 44c117 0 199 101 199 245
c0 104 -62 153 -146 153c-117 0 -199 -108 -199 -240c0 -97 57 -158 146 -158z" />
    <glyph glyph-name="uni01D2" unicode="&#x1d2;" horiz-adv-x="539" 
d="M288 559l-88 134h52l65 -98h2l92 98h54l-126 -134h-51zM242 -5c-118 0 -198 74 -198 203c0 155 98 292 255 292c117 0 196 -70 196 -198c0 -165 -94 -297 -253 -297zM243 44c117 0 199 101 199 245c0 104 -62 153 -146 153c-117 0 -199 -108 -199 -240
c0 -97 57 -158 146 -158z" />
    <glyph glyph-name="ocircumflex" unicode="&#xf4;" horiz-adv-x="539" 
d="M183 558l123 140h51l93 -140h-55l-64 104h-1l-91 -104h-56zM242 -5c-118 0 -198 74 -198 203c0 155 98 292 255 292c117 0 196 -70 196 -198c0 -165 -94 -297 -253 -297zM243 44c117 0 199 101 199 245c0 104 -62 153 -146 153c-117 0 -199 -108 -199 -240
c0 -97 57 -158 146 -158z" />
    <glyph glyph-name="uni1ED1" unicode="&#x1ed1;" horiz-adv-x="539" 
d="M420 642l120 138h61l-135 -138h-46zM184 558l123 140h51l93 -140h-55l-64 104h-1l-91 -104h-56zM242 -5c-118 0 -198 74 -198 203c0 155 98 292 255 292c117 0 196 -70 196 -198c0 -165 -94 -297 -253 -297zM243 44c117 0 199 101 199 245c0 104 -62 153 -146 153
c-117 0 -199 -108 -199 -240c0 -97 57 -158 146 -158z" />
    <glyph glyph-name="uni1ED9" unicode="&#x1ed9;" horiz-adv-x="539" 
d="M183 558l123 140h51l93 -140h-55l-64 104h-1l-91 -104h-56zM242 -5c-118 0 -198 74 -198 203c0 155 98 292 255 292c117 0 196 -70 196 -198c0 -165 -94 -297 -253 -297zM243 44c117 0 199 101 199 245c0 104 -62 153 -146 153c-117 0 -199 -108 -199 -240
c0 -97 57 -158 146 -158zM224 -109c24 0 40 -18 40 -42c0 -25 -18 -43 -42 -43s-42 17 -42 41c0 25 18 44 44 44z" />
    <glyph glyph-name="uni1ED3" unicode="&#x1ed3;" horiz-adv-x="539" 
d="M461 643l-96 138h57l83 -138h-44zM182 558l123 140h51l93 -140h-55l-64 104h-1l-91 -104h-56zM242 -5c-118 0 -198 74 -198 203c0 155 98 292 255 292c117 0 196 -70 196 -198c0 -165 -94 -297 -253 -297zM243 44c117 0 199 101 199 245c0 104 -62 153 -146 153
c-117 0 -199 -108 -199 -240c0 -97 57 -158 146 -158z" />
    <glyph glyph-name="uni1ED5" unicode="&#x1ed5;" horiz-adv-x="539" 
d="M482 641l-41 1c34 25 89 68 89 102c0 21 -16 29 -38 29c-27 0 -58 -12 -81 -32l-8 33c25 19 63 36 102 36c38 0 67 -16 67 -57c0 -47 -58 -91 -90 -112zM183 558l123 140h51l93 -140h-55l-64 104h-1l-91 -104h-56zM242 -5c-118 0 -198 74 -198 203c0 155 98 292 255 292
c117 0 196 -70 196 -198c0 -165 -94 -297 -253 -297zM243 44c117 0 199 101 199 245c0 104 -62 153 -146 153c-117 0 -199 -108 -199 -240c0 -97 57 -158 146 -158z" />
    <glyph glyph-name="uni1ED7" unicode="&#x1ed7;" horiz-adv-x="539" 
d="M412 742c-31 0 -52 21 -71 38c-16 14 -33 25 -50 25c-24 0 -46 -21 -62 -58l-34 17c22 52 53 84 93 84c31 0 49 -16 68 -31c18 -15 35 -33 55 -33c21 0 44 21 60 60l33 -15c-23 -57 -59 -87 -92 -87zM185 558l123 140h51l93 -140h-55l-64 104h-1l-91 -104h-56zM242 -5
c-118 0 -198 74 -198 203c0 155 98 292 255 292c117 0 196 -70 196 -198c0 -165 -94 -297 -253 -297zM243 44c117 0 199 101 199 245c0 104 -62 153 -146 153c-117 0 -199 -108 -199 -240c0 -97 57 -158 146 -158z" />
    <glyph glyph-name="odieresis" unicode="&#xf6;" horiz-adv-x="539" 
d="M248 591c-24 0 -41 18 -41 42c0 25 18 43 42 43c25 0 43 -17 43 -41c0 -25 -19 -44 -44 -44zM400 591c-24 0 -41 18 -41 42c0 25 18 43 43 43c24 0 42 -17 42 -41c0 -25 -19 -44 -44 -44zM242 -5c-118 0 -198 74 -198 203c0 155 98 292 255 292c117 0 196 -70 196 -198
c0 -165 -94 -297 -253 -297zM243 44c117 0 199 101 199 245c0 104 -62 153 -146 153c-117 0 -199 -108 -199 -240c0 -97 57 -158 146 -158z" />
    <glyph glyph-name="uni1ECD" unicode="&#x1ecd;" horiz-adv-x="539" 
d="M242 -5c-118 0 -198 74 -198 203c0 155 98 292 255 292c117 0 196 -70 196 -198c0 -165 -94 -297 -253 -297zM243 44c117 0 199 101 199 245c0 104 -62 153 -146 153c-117 0 -199 -108 -199 -240c0 -97 57 -158 146 -158zM224 -109c24 0 40 -18 40 -42
c0 -25 -18 -43 -42 -43s-42 17 -42 41c0 25 18 44 44 44z" />
    <glyph glyph-name="ograve" unicode="&#xf2;" horiz-adv-x="539" 
d="M304 560l-96 138h61l91 -138h-56zM242 -5c-118 0 -198 74 -198 203c0 155 98 292 255 292c117 0 196 -70 196 -198c0 -165 -94 -297 -253 -297zM243 44c117 0 199 101 199 245c0 104 -62 153 -146 153c-117 0 -199 -108 -199 -240c0 -97 57 -158 146 -158z" />
    <glyph glyph-name="uni1ECF" unicode="&#x1ecf;" horiz-adv-x="539" 
d="M330 554l-43 1c36 27 93 72 93 107c0 22 -16 30 -39 30c-29 0 -61 -12 -85 -33l-8 35c26 19 65 37 106 37c40 0 70 -17 70 -59c0 -50 -60 -96 -94 -118zM242 -5c-118 0 -198 74 -198 203c0 155 98 292 255 292c117 0 196 -70 196 -198c0 -165 -94 -297 -253 -297zM243 44
c117 0 199 101 199 245c0 104 -62 153 -146 153c-117 0 -199 -108 -199 -240c0 -97 57 -158 146 -158z" />
    <glyph glyph-name="ohorn" unicode="&#x1a1;" horiz-adv-x="614" 
d="M576 565h51l-13 -99c-13 -103 -56 -143 -116 -143h-5c1 -10 2 -20 2 -31c0 -165 -94 -297 -253 -297c-118 0 -198 74 -198 203c0 155 98 292 255 292c94 0 163 -45 187 -129c4 -1 7 -1 11 -1c38 0 58 34 68 113zM243 44c117 0 199 101 199 245c0 104 -62 153 -146 153
c-117 0 -199 -108 -199 -240c0 -97 57 -158 146 -158z" />
    <glyph glyph-name="uni1EDB" unicode="&#x1edb;" horiz-adv-x="614" 
d="M476 698l-129 -138h-58l125 138h62zM576 565h51l-13 -99c-13 -103 -56 -143 -116 -143h-5c1 -10 2 -20 2 -31c0 -165 -94 -297 -253 -297c-118 0 -198 74 -198 203c0 155 98 292 255 292c94 0 163 -45 187 -129c4 -1 7 -1 11 -1c38 0 58 34 68 113zM243 44
c117 0 199 101 199 245c0 104 -62 153 -146 153c-117 0 -199 -108 -199 -240c0 -97 57 -158 146 -158z" />
    <glyph glyph-name="uni1EE3" unicode="&#x1ee3;" horiz-adv-x="614" 
d="M576 565h51l-13 -99c-13 -103 -56 -143 -116 -143h-5c1 -10 2 -20 2 -31c0 -165 -94 -297 -253 -297c-118 0 -198 74 -198 203c0 155 98 292 255 292c94 0 163 -45 187 -129c4 -1 7 -1 11 -1c38 0 58 34 68 113zM243 44c117 0 199 101 199 245c0 104 -62 153 -146 153
c-117 0 -199 -108 -199 -240c0 -97 57 -158 146 -158zM224 -109c24 0 40 -18 40 -42c0 -25 -18 -43 -42 -43s-42 17 -42 41c0 25 18 44 44 44z" />
    <glyph glyph-name="uni1EDD" unicode="&#x1edd;" horiz-adv-x="614" 
d="M360 560h-56l-96 138h61zM576 565h51l-13 -99c-13 -103 -56 -143 -116 -143h-5c1 -10 2 -20 2 -31c0 -165 -94 -297 -253 -297c-118 0 -198 74 -198 203c0 155 98 292 255 292c94 0 163 -45 187 -129c4 -1 7 -1 11 -1c38 0 58 34 68 113zM243 44c117 0 199 101 199 245
c0 104 -62 153 -146 153c-117 0 -199 -108 -199 -240c0 -97 57 -158 146 -158z" />
    <glyph glyph-name="uni1EDF" unicode="&#x1edf;" horiz-adv-x="614" 
d="M341 692c-29 0 -61 -12 -85 -33l-8 35c26 19 65 37 106 37c40 0 70 -17 70 -59c0 -50 -60 -96 -94 -118l-43 1c36 27 93 72 93 107c0 22 -16 30 -39 30zM576 565h51l-13 -99c-13 -103 -56 -143 -116 -143h-5c1 -10 2 -20 2 -31c0 -165 -94 -297 -253 -297
c-118 0 -198 74 -198 203c0 155 98 292 255 292c94 0 163 -45 187 -129c4 -1 7 -1 11 -1c38 0 58 34 68 113zM243 44c117 0 199 101 199 245c0 104 -62 153 -146 153c-117 0 -199 -108 -199 -240c0 -97 57 -158 146 -158z" />
    <glyph glyph-name="uni1EE1" unicode="&#x1ee1;" horiz-adv-x="614" 
d="M266 636c-26 0 -48 -22 -64 -59l-36 17c23 55 55 87 96 87c31 0 49 -16 68 -32c18 -15 37 -32 57 -32c22 0 46 20 62 60l35 -15c-23 -60 -59 -90 -93 -90c-32 0 -56 22 -75 39c-17 13 -33 25 -50 25zM576 565h51l-13 -99c-13 -103 -56 -143 -116 -143h-5
c1 -10 2 -20 2 -31c0 -165 -94 -297 -253 -297c-118 0 -198 74 -198 203c0 155 98 292 255 292c94 0 163 -45 187 -129c4 -1 7 -1 11 -1c38 0 58 34 68 113zM243 44c117 0 199 101 199 245c0 104 -62 153 -146 153c-117 0 -199 -108 -199 -240c0 -97 57 -158 146 -158z" />
    <glyph glyph-name="ohungarumlaut" unicode="&#x151;" horiz-adv-x="539" 
d="M222 560l124 138h59l-129 -138h-54zM359 560l123 138h59l-129 -138h-53zM242 -5c-118 0 -198 74 -198 203c0 155 98 292 255 292c117 0 196 -70 196 -198c0 -165 -94 -297 -253 -297zM243 44c117 0 199 101 199 245c0 104 -62 153 -146 153c-117 0 -199 -108 -199 -240
c0 -97 57 -158 146 -158z" />
    <glyph glyph-name="omacron" unicode="&#x14d;" horiz-adv-x="539" 
d="M197 608l6 46h251l-6 -46h-251zM242 -5c-118 0 -198 74 -198 203c0 155 98 292 255 292c117 0 196 -70 196 -198c0 -165 -94 -297 -253 -297zM243 44c117 0 199 101 199 245c0 104 -62 153 -146 153c-117 0 -199 -108 -199 -240c0 -97 57 -158 146 -158z" />
    <glyph glyph-name="uni01EB" unicode="&#x1eb;" horiz-adv-x="539" 
d="M266 -4c-49 -29 -79 -65 -80 -100c-1 -22 11 -40 41 -40c24 0 35 4 49 11l2 -38c-17 -8 -37 -12 -61 -12c-51 0 -79 25 -77 71c2 39 30 78 68 109c-99 13 -164 85 -164 201c0 155 98 292 255 292c117 0 196 -70 196 -198c0 -156 -85 -283 -229 -296zM97 202
c0 -97 57 -158 146 -158c117 0 199 101 199 245c0 104 -62 153 -146 153c-117 0 -199 -108 -199 -240z" />
    <glyph glyph-name="oslash" unicode="&#xf8;" horiz-adv-x="542" 
d="M520 471l-56 -58c20 -31 32 -72 32 -121c0 -165 -94 -297 -253 -297c-56 0 -104 17 -138 48l-57 -58l-28 25l60 62c-22 33 -35 75 -35 126c0 155 98 292 255 292c56 0 104 -16 138 -48l54 56zM98 202c0 -35 7 -65 21 -90l283 292c-26 26 -63 38 -105 38
c-117 0 -199 -108 -199 -240zM443 289c0 34 -7 62 -18 84l-283 -291c25 -24 60 -38 102 -38c117 0 199 101 199 245z" />
    <glyph glyph-name="oslashacute" unicode="&#x1ff;" horiz-adv-x="542" 
d="M476 698l-129 -138h-58l125 138h62zM520 471l-56 -58c20 -31 32 -72 32 -121c0 -165 -94 -297 -253 -297c-56 0 -104 17 -138 48l-57 -58l-28 25l60 62c-22 33 -35 75 -35 126c0 155 98 292 255 292c56 0 104 -16 138 -48l54 56zM98 202c0 -35 7 -65 21 -90l283 292
c-26 26 -63 38 -105 38c-117 0 -199 -108 -199 -240zM443 289c0 34 -7 62 -18 84l-283 -291c25 -24 60 -38 102 -38c117 0 199 101 199 245z" />
    <glyph glyph-name="otilde" unicode="&#xf5;" horiz-adv-x="539" 
d="M391 572c-32 0 -56 22 -75 39c-17 13 -33 25 -50 25c-26 0 -48 -22 -64 -59l-36 17c23 55 55 87 96 87c31 0 49 -16 68 -32c18 -15 37 -32 57 -32c22 0 46 20 62 60l35 -15c-23 -60 -59 -90 -93 -90zM242 -5c-118 0 -198 74 -198 203c0 155 98 292 255 292
c117 0 196 -70 196 -198c0 -165 -94 -297 -253 -297zM243 44c117 0 199 101 199 245c0 104 -62 153 -146 153c-117 0 -199 -108 -199 -240c0 -97 57 -158 146 -158z" />
    <glyph glyph-name="oe" unicode="&#x153;" horiz-adv-x="736" 
d="M538 45c35 0 86 20 123 68l41 -30c-43 -55 -106 -87 -165 -87c-82 0 -140 47 -162 126h-1c-36 -74 -99 -126 -179 -126c-97 0 -162 74 -162 196c0 166 96 298 229 298c71 0 124 -44 142 -126h2c40 79 110 126 195 126c74 0 126 -41 126 -108c0 -116 -151 -176 -313 -203
c6 -86 55 -134 124 -134zM367 273c6 104 -35 168 -107 168c-98 0 -174 -111 -174 -247c0 -99 49 -149 113 -149c87 0 161 96 168 228zM597 441c-96 0 -171 -87 -182 -217c132 25 259 71 259 154c0 48 -44 63 -77 63z" />
    <glyph glyph-name="p" unicode="p" horiz-adv-x="553" 
d="M27 -198l84 683h52l-16 -132l2 -1c42 81 107 138 196 138c107 0 164 -87 164 -194c0 -160 -97 -301 -250 -301c-56 0 -114 19 -147 55l-2 -1l-31 -247h-52zM251 44c126 0 205 117 205 249c0 84 -40 149 -121 149c-107 0 -192 -120 -209 -255l-10 -81
c31 -49 96 -62 135 -62z" />
    <glyph glyph-name="thorn" unicode="&#xfe;" horiz-adv-x="553" 
d="M27 -198l115 934h52l-48 -383l3 -1c42 81 107 138 196 138c107 0 164 -87 164 -194c0 -160 -97 -301 -250 -301c-56 0 -114 19 -147 55l-2 -1l-31 -247h-52zM251 44c126 0 205 117 205 249c0 84 -40 149 -121 149c-107 0 -192 -120 -209 -255l-10 -81
c31 -49 96 -62 135 -62z" />
    <glyph glyph-name="q" unicode="q" horiz-adv-x="544" 
d="M364 -198l40 331h-2c-42 -80 -109 -138 -190 -138c-109 0 -167 86 -167 194c0 160 97 301 248 301c55 0 112 -19 146 -54l2 1l6 48h52l-83 -683h-52zM219 43c104 0 189 123 206 260l10 77c-35 48 -101 61 -140 61c-120 0 -197 -121 -197 -253c0 -84 42 -145 121 -145z
" />
    <glyph glyph-name="r" unicode="r" horiz-adv-x="301" 
d="M52 0l59 485h52l-15 -126h2c39 73 97 118 168 131l-7 -62c-99 -9 -167 -101 -183 -226l-24 -202h-52z" />
    <glyph glyph-name="racute" unicode="&#x155;" horiz-adv-x="302" 
d="M159 560l125 138h62l-129 -138h-58zM52 0l59 485h52l-15 -126h2c39 73 97 118 168 131l-7 -62c-99 -9 -167 -101 -183 -226l-24 -202h-52z" />
    <glyph glyph-name="rcaron" unicode="&#x159;" horiz-adv-x="301" 
d="M203 559l-88 134h52l65 -98h2l92 98h54l-126 -134h-51zM52 0l59 485h52l-15 -126h2c39 73 97 118 168 131l-7 -62c-99 -9 -167 -101 -183 -226l-24 -202h-52z" />
    <glyph glyph-name="rcommaaccent" unicode="&#x157;" horiz-adv-x="301" 
d="M52 0l59 485h52l-15 -126h2c39 73 97 118 168 131l-7 -62c-99 -9 -167 -101 -183 -226l-24 -202h-52zM-11 -206l-9 34c48 8 68 35 68 98c0 6 0 12 -1 20h47c0 -4 1 -8 1 -22c0 -74 -32 -124 -106 -130z" />
    <glyph glyph-name="uni1E5B" unicode="&#x1e5b;" horiz-adv-x="301" 
d="M52 0l59 485h52l-15 -126h2c39 73 97 118 168 131l-7 -62c-99 -9 -167 -101 -183 -226l-24 -202h-52zM68 -109c24 0 40 -18 40 -42c0 -25 -18 -43 -42 -43s-42 17 -42 41c0 25 18 44 44 44z" />
    <glyph glyph-name="uni1E5D" unicode="&#x1e5d;" horiz-adv-x="301" 
d="M112 608l6 46h251l-6 -46h-251zM52 0l59 485h52l-15 -126h2c39 73 97 118 168 131l-7 -62c-99 -9 -167 -101 -183 -226l-24 -202h-52zM68 -109c24 0 40 -18 40 -42c0 -25 -18 -43 -42 -43s-42 17 -42 41c0 25 18 44 44 44z" />
    <glyph glyph-name="uni1E5F" unicode="&#x1e5f;" horiz-adv-x="301" 
d="M52 0l59 485h52l-15 -126h2c39 73 97 118 168 131l-7 -62c-99 -9 -167 -101 -183 -226l-24 -202h-52zM-61 -182l6 46h251l-6 -46h-251z" />
    <glyph glyph-name="s" unicode="s" horiz-adv-x="403" 
d="M179 -5c-68 0 -125 25 -165 73l34 36c36 -41 79 -61 131 -61c67 0 117 32 117 86s-55 73 -115 100c-62 26 -117 59 -117 129c0 82 72 132 154 132c52 0 103 -15 145 -61l-35 -36c-35 39 -72 51 -113 51c-54 0 -98 -32 -98 -84c0 -43 44 -67 94 -89
c63 -29 138 -57 138 -136c1 -92 -77 -140 -170 -140z" />
    <glyph glyph-name="sacute" unicode="&#x15b;" horiz-adv-x="403" 
d="M209 560l125 138h62l-129 -138h-58zM179 -5c-68 0 -125 25 -165 73l34 36c36 -41 79 -61 131 -61c67 0 117 32 117 86s-55 73 -115 100c-62 26 -117 59 -117 129c0 82 72 132 154 132c52 0 103 -15 145 -61l-35 -36c-35 39 -72 51 -113 51c-54 0 -98 -32 -98 -84
c0 -43 44 -67 94 -89c63 -29 138 -57 138 -136c1 -92 -77 -140 -170 -140z" />
    <glyph glyph-name="scaron" unicode="&#x161;" horiz-adv-x="403" 
d="M213 559l-88 134h52l65 -98h2l92 98h54l-126 -134h-51zM179 -5c-68 0 -125 25 -165 73l34 36c36 -41 79 -61 131 -61c67 0 117 32 117 86s-55 73 -115 100c-62 26 -117 59 -117 129c0 82 72 132 154 132c52 0 103 -15 145 -61l-35 -36c-35 39 -72 51 -113 51
c-54 0 -98 -32 -98 -84c0 -43 44 -67 94 -89c63 -29 138 -57 138 -136c1 -92 -77 -140 -170 -140z" />
    <glyph glyph-name="scedilla" unicode="&#x15f;" horiz-adv-x="403" 
d="M211 271c63 -29 138 -57 138 -136c1 -92 -77 -140 -170 -140h-2l-18 -30l1 -1c43 -3 70 -21 70 -61c0 -57 -45 -87 -104 -87c-14 0 -28 1 -42 4l3 34c12 -4 24 -5 36 -5c38 0 67 17 67 53c0 24 -22 35 -70 36l4 27l18 33c-52 7 -96 31 -128 70l34 36
c36 -41 79 -61 131 -61c67 0 117 32 117 86s-55 73 -115 100c-62 26 -117 59 -117 129c0 82 72 132 154 132c52 0 103 -15 145 -61l-35 -36c-35 39 -72 51 -113 51c-54 0 -98 -32 -98 -84c0 -43 44 -67 94 -89z" />
    <glyph glyph-name="scircumflex" unicode="&#x15d;" horiz-adv-x="403" 
d="M108 558l123 140h51l93 -140h-55l-64 104h-1l-91 -104h-56zM179 -5c-68 0 -125 25 -165 73l34 36c36 -41 79 -61 131 -61c67 0 117 32 117 86s-55 73 -115 100c-62 26 -117 59 -117 129c0 82 72 132 154 132c52 0 103 -15 145 -61l-35 -36c-35 39 -72 51 -113 51
c-54 0 -98 -32 -98 -84c0 -43 44 -67 94 -89c63 -29 138 -57 138 -136c1 -92 -77 -140 -170 -140z" />
    <glyph glyph-name="scommaaccent" unicode="&#x219;" horiz-adv-x="403" 
d="M179 -5c-68 0 -125 25 -165 73l34 36c36 -41 79 -61 131 -61c67 0 117 32 117 86s-55 73 -115 100c-62 26 -117 59 -117 129c0 82 72 132 154 132c52 0 103 -15 145 -61l-35 -36c-35 39 -72 51 -113 51c-54 0 -98 -32 -98 -84c0 -43 44 -67 94 -89
c63 -29 138 -57 138 -136c1 -92 -77 -140 -170 -140zM79 -206l-9 34c48 8 68 35 68 98c0 6 0 12 -1 20h47c0 -4 1 -8 1 -22c0 -74 -32 -124 -106 -130z" />
    <glyph glyph-name="uni1E61" unicode="&#x1e61;" horiz-adv-x="403" 
d="M250 591c-24 0 -40 18 -40 42c0 25 18 43 42 43s42 -17 42 -41c0 -25 -18 -44 -44 -44zM179 -5c-68 0 -125 25 -165 73l34 36c36 -41 79 -61 131 -61c67 0 117 32 117 86s-55 73 -115 100c-62 26 -117 59 -117 129c0 82 72 132 154 132c52 0 103 -15 145 -61l-35 -36
c-35 39 -72 51 -113 51c-54 0 -98 -32 -98 -84c0 -43 44 -67 94 -89c63 -29 138 -57 138 -136c1 -92 -77 -140 -170 -140z" />
    <glyph glyph-name="uni1E63" unicode="&#x1e63;" horiz-adv-x="403" 
d="M179 -5c-68 0 -125 25 -165 73l34 36c36 -41 79 -61 131 -61c67 0 117 32 117 86s-55 73 -115 100c-62 26 -117 59 -117 129c0 82 72 132 154 132c52 0 103 -15 145 -61l-35 -36c-35 39 -72 51 -113 51c-54 0 -98 -32 -98 -84c0 -43 44 -67 94 -89
c63 -29 138 -57 138 -136c1 -92 -77 -140 -170 -140zM158 -109c24 0 40 -18 40 -42c0 -25 -18 -43 -42 -43s-42 17 -42 41c0 25 18 44 44 44z" />
    <glyph glyph-name="germandbls" unicode="&#xdf;" horiz-adv-x="580" 
d="M383 -5c-82 0 -136 32 -170 73l36 37c29 -35 63 -62 133 -62c68 0 113 36 113 89c0 49 -39 72 -102 105c-67 37 -120 68 -117 136c4 65 69 96 121 133c39 27 69 57 69 102c0 50 -47 84 -129 84c-70 0 -153 -35 -167 -148l-66 -544h-52l67 552c16 132 116 189 216 189
c116 0 184 -52 184 -131c0 -64 -41 -102 -93 -137c-46 -31 -94 -55 -96 -96c-4 -43 33 -65 87 -95c73 -40 131 -71 131 -147c0 -92 -72 -140 -165 -140z" />
    <glyph glyph-name="longs" unicode="&#x17f;" horiz-adv-x="271" 
d="M60 0l53 439h-56l5 46h57l13 109c13 103 59 147 130 147c36 0 67 -8 94 -27l-14 -46c-21 16 -47 24 -74 24c-42 0 -75 -24 -85 -109l-71 -583h-52z" />
    <glyph glyph-name="t" unicode="t" horiz-adv-x="332" 
d="M159 -5c-76 0 -97 55 -87 135l38 309h-58l6 46h57l21 167l53 10l-22 -177h155l-6 -46h-154l-37 -302c-7 -55 1 -91 48 -91c28 0 59 12 88 33l7 -50c-32 -22 -71 -34 -109 -34z" />
    <glyph glyph-name="tbar" unicode="&#x167;" horiz-adv-x="332" 
d="M316 439h-154l-17 -139h133l-6 -41h-132l-15 -122c-7 -55 1 -91 48 -91c28 0 59 12 88 33l7 -50c-32 -22 -71 -34 -109 -34c-76 0 -97 55 -87 135l16 129h-51l6 41h50l17 139h-58l6 46h57l21 167l53 10l-22 -177h155z" />
    <glyph glyph-name="tcaron" unicode="&#x165;" horiz-adv-x="337" 
d="M261 592l45 172h55l-59 -172h-41zM159 -5c-76 0 -97 55 -87 135l38 309h-58l6 46h57l21 167l53 10l-22 -177h155l-6 -46h-154l-37 -302c-7 -55 1 -91 48 -91c28 0 59 12 88 33l7 -50c-32 -22 -71 -34 -109 -34z" />
    <glyph glyph-name="uni0163" unicode="&#x163;" horiz-adv-x="332" 
d="M162 439l-37 -302c-7 -55 1 -91 48 -91c28 0 59 12 88 33l7 -50c-32 -22 -71 -34 -109 -34h-3l-18 -30l1 -1c43 -3 70 -21 70 -61c0 -57 -45 -87 -104 -87c-14 0 -28 1 -42 4l3 34c12 -4 24 -5 36 -5c38 0 67 17 67 53c0 24 -22 35 -70 36l4 27l19 36
c-46 15 -58 64 -50 129l38 309h-58l6 46h57l21 167l53 10l-22 -177h155l-6 -46h-154z" />
    <glyph glyph-name="uni021B" unicode="&#x21b;" horiz-adv-x="332" 
d="M159 -5c-76 0 -97 55 -87 135l38 309h-58l6 46h57l21 167l53 10l-22 -177h155l-6 -46h-154l-37 -302c-7 -55 1 -91 48 -91c28 0 59 12 88 33l7 -50c-32 -22 -71 -34 -109 -34zM58 -206l-9 34c48 8 68 35 68 98c0 6 0 12 -1 20h47c0 -4 1 -8 1 -22
c0 -74 -32 -124 -106 -130z" />
    <glyph glyph-name="uni1E97" unicode="&#x1e97;" horiz-adv-x="332" 
d="M130 735c-24 0 -41 18 -41 42c0 25 18 43 42 43c25 0 43 -17 43 -41c0 -25 -19 -44 -44 -44zM282 735c-24 0 -41 18 -41 42c0 25 18 43 43 43c24 0 42 -17 42 -41c0 -25 -19 -44 -44 -44zM159 -5c-76 0 -97 55 -87 135l38 309h-58l6 46h57l21 167l53 10l-22 -177h155
l-6 -46h-154l-37 -302c-7 -55 1 -91 48 -91c28 0 59 12 88 33l7 -50c-32 -22 -71 -34 -109 -34z" />
    <glyph glyph-name="uni1E6D" unicode="&#x1e6d;" horiz-adv-x="332" 
d="M159 -5c-76 0 -97 55 -87 135l38 309h-58l6 46h57l21 167l53 10l-22 -177h155l-6 -46h-154l-37 -302c-7 -55 1 -91 48 -91c28 0 59 12 88 33l7 -50c-32 -22 -71 -34 -109 -34zM137 -109c24 0 40 -18 40 -42c0 -25 -18 -43 -42 -43s-42 17 -42 41c0 25 18 44 44 44z" />
    <glyph glyph-name="uni1E6F" unicode="&#x1e6f;" horiz-adv-x="332" 
d="M159 -5c-76 0 -97 55 -87 135l38 309h-58l6 46h57l21 167l53 10l-22 -177h155l-6 -46h-154l-37 -302c-7 -55 1 -91 48 -91c28 0 59 12 88 33l7 -50c-32 -22 -71 -34 -109 -34zM8 -182l6 46h251l-6 -46h-251z" />
    <glyph glyph-name="u" unicode="u" horiz-adv-x="524" 
d="M193 -5c-99 0 -148 57 -129 196l40 294h52l-39 -290c-17 -120 24 -151 88 -151c80 0 178 100 196 224l26 217h52l-59 -485h-53l17 130h-2c-43 -80 -113 -135 -189 -135z" />
    <glyph glyph-name="uacute" unicode="&#xfa;" horiz-adv-x="524" 
d="M263 560l125 138h62l-129 -138h-58zM193 -5c-99 0 -148 57 -129 196l40 294h52l-39 -290c-17 -120 24 -151 88 -151c80 0 178 100 196 224l26 217h52l-59 -485h-53l17 130h-2c-43 -80 -113 -135 -189 -135z" />
    <glyph glyph-name="ubreve" unicode="&#x16d;" horiz-adv-x="524" 
d="M295 557c-73 0 -111 48 -105 134h43c-4 -52 12 -90 64 -90s87 39 95 90h43c-15 -85 -71 -134 -140 -134zM193 -5c-99 0 -148 57 -129 196l40 294h52l-39 -290c-17 -120 24 -151 88 -151c80 0 178 100 196 224l26 217h52l-59 -485h-53l17 130h-2
c-43 -80 -113 -135 -189 -135z" />
    <glyph glyph-name="ucircumflex" unicode="&#xfb;" horiz-adv-x="524" 
d="M164 558l123 140h51l93 -140h-55l-64 104h-1l-91 -104h-56zM193 -5c-99 0 -148 57 -129 196l40 294h52l-39 -290c-17 -120 24 -151 88 -151c80 0 178 100 196 224l26 217h52l-59 -485h-53l17 130h-2c-43 -80 -113 -135 -189 -135z" />
    <glyph glyph-name="udieresis" unicode="&#xfc;" horiz-adv-x="524" 
d="M229 591c-24 0 -41 18 -41 42c0 25 18 43 42 43c25 0 43 -17 43 -41c0 -25 -19 -44 -44 -44zM381 591c-24 0 -41 18 -41 42c0 25 18 43 43 43c24 0 42 -17 42 -41c0 -25 -19 -44 -44 -44zM193 -5c-99 0 -148 57 -129 196l40 294h52l-39 -290c-17 -120 24 -151 88 -151
c80 0 178 100 196 224l26 217h52l-59 -485h-53l17 130h-2c-43 -80 -113 -135 -189 -135z" />
    <glyph glyph-name="uni1EE5" unicode="&#x1ee5;" horiz-adv-x="524" 
d="M193 -5c-99 0 -148 57 -129 196l40 294h52l-39 -290c-17 -120 24 -151 88 -151c80 0 178 100 196 224l26 217h52l-59 -485h-53l17 130h-2c-43 -80 -113 -135 -189 -135zM223 -109c24 0 40 -18 40 -42c0 -25 -18 -43 -42 -43s-42 17 -42 41c0 25 18 44 44 44z" />
    <glyph glyph-name="ugrave" unicode="&#xf9;" horiz-adv-x="524" 
d="M283 560l-96 138h61l91 -138h-56zM193 -5c-99 0 -148 57 -129 196l40 294h52l-39 -290c-17 -120 24 -151 88 -151c80 0 178 100 196 224l26 217h52l-59 -485h-53l17 130h-2c-43 -80 -113 -135 -189 -135z" />
    <glyph glyph-name="uni1EE7" unicode="&#x1ee7;" horiz-adv-x="524" 
d="M311 554l-43 1c36 27 93 72 93 107c0 22 -16 30 -39 30c-29 0 -61 -12 -85 -33l-8 35c26 19 65 37 106 37c40 0 70 -17 70 -59c0 -50 -60 -96 -94 -118zM193 -5c-99 0 -148 57 -129 196l40 294h52l-39 -290c-17 -120 24 -151 88 -151c80 0 178 100 196 224l26 217h52
l-59 -485h-53l17 130h-2c-43 -80 -113 -135 -189 -135z" />
    <glyph glyph-name="uhorn" unicode="&#x1b0;" horiz-adv-x="592" 
d="M562 565h51l-13 -99c-13 -103 -56 -143 -116 -143c-8 0 -16 1 -24 3l-40 -326h-53l17 130h-2c-43 -80 -113 -135 -189 -135c-99 0 -148 57 -129 196l40 294h52l-39 -290c-17 -120 24 -151 88 -151c80 0 178 100 196 224l26 217h52l-15 -123c7 -1 13 -2 19 -2
c38 0 58 34 68 113z" />
    <glyph glyph-name="uni1EE9" unicode="&#x1ee9;" horiz-adv-x="592" 
d="M450 698l-129 -138h-58l125 138h62zM562 565h51l-13 -99c-13 -103 -56 -143 -116 -143c-8 0 -16 1 -24 3l-40 -326h-53l17 130h-2c-43 -80 -113 -135 -189 -135c-99 0 -148 57 -129 196l40 294h52l-39 -290c-17 -120 24 -151 88 -151c80 0 178 100 196 224l26 217h52
l-15 -123c7 -1 13 -2 19 -2c38 0 58 34 68 113z" />
    <glyph glyph-name="uni1EF1" unicode="&#x1ef1;" horiz-adv-x="592" 
d="M562 565h51l-13 -99c-13 -103 -56 -143 -116 -143c-8 0 -16 1 -24 3l-40 -326h-53l17 130h-2c-43 -80 -113 -135 -189 -135c-99 0 -148 57 -129 196l40 294h52l-39 -290c-17 -120 24 -151 88 -151c80 0 178 100 196 224l26 217h52l-15 -123c7 -1 13 -2 19 -2
c38 0 58 34 68 113zM223 -109c24 0 40 -18 40 -42c0 -25 -18 -43 -42 -43s-42 17 -42 41c0 25 18 44 44 44z" />
    <glyph glyph-name="uni1EEB" unicode="&#x1eeb;" horiz-adv-x="592" 
d="M339 560h-56l-96 138h61zM562 565h51l-13 -99c-13 -103 -56 -143 -116 -143c-8 0 -16 1 -24 3l-40 -326h-53l17 130h-2c-43 -80 -113 -135 -189 -135c-99 0 -148 57 -129 196l40 294h52l-39 -290c-17 -120 24 -151 88 -151c80 0 178 100 196 224l26 217h52l-15 -123
c7 -1 13 -2 19 -2c38 0 58 34 68 113z" />
    <glyph glyph-name="uni1EED" unicode="&#x1eed;" horiz-adv-x="592" 
d="M322 692c-29 0 -61 -12 -85 -33l-8 35c26 19 65 37 106 37c40 0 70 -17 70 -59c0 -50 -60 -96 -94 -118l-43 1c36 27 93 72 93 107c0 22 -16 30 -39 30zM562 565h51l-13 -99c-13 -103 -56 -143 -116 -143c-8 0 -16 1 -24 3l-40 -326h-53l17 130h-2
c-43 -80 -113 -135 -189 -135c-99 0 -148 57 -129 196l40 294h52l-39 -290c-17 -120 24 -151 88 -151c80 0 178 100 196 224l26 217h52l-15 -123c7 -1 13 -2 19 -2c38 0 58 34 68 113z" />
    <glyph glyph-name="uni1EEF" unicode="&#x1eef;" horiz-adv-x="592" 
d="M247 636c-26 0 -48 -22 -64 -59l-36 17c23 55 55 87 96 87c31 0 49 -16 68 -32c18 -15 37 -32 57 -32c22 0 46 20 62 60l35 -15c-23 -60 -59 -90 -93 -90c-32 0 -56 22 -75 39c-17 13 -33 25 -50 25zM562 565h51l-13 -99c-13 -103 -56 -143 -116 -143c-8 0 -16 1 -24 3
l-40 -326h-53l17 130h-2c-43 -80 -113 -135 -189 -135c-99 0 -148 57 -129 196l40 294h52l-39 -290c-17 -120 24 -151 88 -151c80 0 178 100 196 224l26 217h52l-15 -123c7 -1 13 -2 19 -2c38 0 58 34 68 113z" />
    <glyph glyph-name="uhungarumlaut" unicode="&#x171;" horiz-adv-x="524" 
d="M203 560l124 138h59l-129 -138h-54zM340 560l123 138h59l-129 -138h-53zM193 -5c-99 0 -148 57 -129 196l40 294h52l-39 -290c-17 -120 24 -151 88 -151c80 0 178 100 196 224l26 217h52l-59 -485h-53l17 130h-2c-43 -80 -113 -135 -189 -135z" />
    <glyph glyph-name="umacron" unicode="&#x16b;" horiz-adv-x="524" 
d="M178 608l6 46h251l-6 -46h-251zM193 -5c-99 0 -148 57 -129 196l40 294h52l-39 -290c-17 -120 24 -151 88 -151c80 0 178 100 196 224l26 217h52l-59 -485h-53l17 130h-2c-43 -80 -113 -135 -189 -135z" />
    <glyph glyph-name="uni01D4" unicode="&#x1d4;" horiz-adv-x="524" 
d="M269 559l-88 134h52l65 -98h2l92 98h54l-126 -134h-51zM193 -5c-99 0 -148 57 -129 196l40 294h52l-39 -290c-17 -120 24 -151 88 -151c80 0 178 100 196 224l26 217h52l-59 -485h-53l17 130h-2c-43 -80 -113 -135 -189 -135z" />
    <glyph glyph-name="uni01D6" unicode="&#x1d6;" horiz-adv-x="524" 
d="M198 758l5 44h251l-5 -44h-251zM229 592c-23 0 -40 17 -40 41s18 43 42 43s42 -18 42 -41c0 -25 -19 -43 -44 -43zM381 592c-24 0 -41 17 -41 41s18 43 42 43s41 -18 41 -41c0 -25 -18 -43 -42 -43zM193 -5c-99 0 -148 57 -129 196l40 294h52l-39 -290
c-17 -120 24 -151 88 -151c80 0 178 100 196 224l26 217h52l-59 -485h-53l17 130h-2c-43 -80 -113 -135 -189 -135z" />
    <glyph glyph-name="uni01D8" unicode="&#x1d8;" horiz-adv-x="524" 
d="M290 703l120 138h61l-135 -138h-46zM229 592c-23 0 -40 17 -40 41s18 43 42 43s42 -18 42 -41c0 -25 -19 -43 -44 -43zM381 592c-24 0 -41 17 -41 41s18 43 42 43s41 -18 41 -41c0 -25 -18 -43 -42 -43zM193 -5c-99 0 -148 57 -129 196l40 294h52l-39 -290
c-17 -120 24 -151 88 -151c80 0 178 100 196 224l26 217h52l-59 -485h-53l17 130h-2c-43 -80 -113 -135 -189 -135z" />
    <glyph glyph-name="uni01DA" unicode="&#x1da;" horiz-adv-x="524" 
d="M292 712l-88 134h52l65 -98h2l92 98h54l-126 -134h-51zM229 592c-23 0 -40 17 -40 41s18 43 42 43s42 -18 42 -41c0 -25 -19 -43 -44 -43zM381 592c-24 0 -41 17 -41 41s18 43 42 43s41 -18 41 -41c0 -25 -18 -43 -42 -43zM193 -5c-99 0 -148 57 -129 196l40 294h52
l-39 -290c-17 -120 24 -151 88 -151c80 0 178 100 196 224l26 217h52l-59 -485h-53l17 130h-2c-43 -80 -113 -135 -189 -135z" />
    <glyph glyph-name="uni01DC" unicode="&#x1dc;" horiz-adv-x="524" 
d="M289 703l-107 138h60l93 -138h-46zM229 592c-23 0 -40 17 -40 41s18 43 42 43s42 -18 42 -41c0 -25 -19 -43 -44 -43zM381 592c-24 0 -41 17 -41 41s18 43 42 43s41 -18 41 -41c0 -25 -18 -43 -42 -43zM193 -5c-99 0 -148 57 -129 196l40 294h52l-39 -290
c-17 -120 24 -151 88 -151c80 0 178 100 196 224l26 217h52l-59 -485h-53l17 130h-2c-43 -80 -113 -135 -189 -135z" />
    <glyph glyph-name="uni0251" unicode="&#x251;" horiz-adv-x="542" 
d="M212 -5c-109 0 -167 86 -167 194c0 160 97 301 248 301c56 0 113 -19 145 -56l3 1l6 50h52l-59 -485h-52l16 132h-2c-44 -80 -110 -137 -190 -137zM219 43c104 0 188 122 206 260l10 77c-36 48 -102 62 -141 62c-120 0 -196 -122 -196 -254c0 -84 42 -145 121 -145z" />
    <glyph glyph-name="uni0261" unicode="&#x261;" horiz-adv-x="544" 
d="M184 -202c-57 0 -110 12 -160 40l17 49c52 -30 101 -40 146 -40c106 0 186 37 209 222l10 79h-2c-43 -78 -111 -138 -193 -138c-109 0 -166 86 -166 195c0 144 97 285 247 285c56 0 115 -19 147 -55l2 1l6 49h52l-51 -420c-27 -219 -133 -267 -264 -267zM219 58
c100 0 188 115 204 236l11 86c-35 48 -102 61 -140 61c-120 0 -196 -121 -196 -238c0 -84 42 -145 121 -145z" />
    <glyph glyph-name="uni1E31" unicode="&#x1e31;" horiz-adv-x="481" 
d="M408 -4c-7 -1 -16 0 -22 2c-45 9 -64 57 -92 123l-35 81c-46 -38 -97 -71 -143 -93l-13 -109h-52l91 736h52l-70 -567l2 -1c136 76 244 203 281 317h53c-24 -89 -85 -176 -160 -248l43 -99c34 -80 49 -94 80 -99zM241 560l125 138h62l-129 -138h-58z" />
    <glyph glyph-name="uogonek" unicode="&#x173;" horiz-adv-x="524" 
d="M372 -144c24 0 35 4 49 11l2 -38c-17 -8 -37 -12 -61 -12c-51 0 -79 25 -77 71c2 44 38 88 83 120l16 122h-2c-43 -80 -113 -135 -189 -135c-99 0 -148 57 -129 196l40 294h52l-39 -290c-17 -120 24 -151 88 -151c80 0 178 100 196 224l26 217h52l-59 -485h-2
c-53 -30 -86 -67 -87 -104c-1 -22 11 -40 41 -40z" />
    <glyph glyph-name="uring" unicode="&#x16f;" horiz-adv-x="524" 
d="M303 553c-47 0 -82 35 -82 82c0 49 36 84 85 84c48 0 83 -34 83 -81c0 -49 -37 -85 -86 -85zM304 590c28 0 48 20 48 47s-20 46 -46 46c-27 0 -47 -20 -47 -47s19 -46 45 -46zM193 -5c-99 0 -148 57 -129 196l40 294h52l-39 -290c-17 -120 24 -151 88 -151
c80 0 178 100 196 224l26 217h52l-59 -485h-53l17 130h-2c-43 -80 -113 -135 -189 -135z" />
    <glyph glyph-name="utilde" unicode="&#x169;" horiz-adv-x="524" 
d="M372 572c-32 0 -56 22 -75 39c-17 13 -33 25 -50 25c-26 0 -48 -22 -64 -59l-36 17c23 55 55 87 96 87c31 0 49 -16 68 -32c18 -15 37 -32 57 -32c22 0 46 20 62 60l35 -15c-23 -60 -59 -90 -93 -90zM193 -5c-99 0 -148 57 -129 196l40 294h52l-39 -290
c-17 -120 24 -151 88 -151c80 0 178 100 196 224l26 217h52l-59 -485h-53l17 130h-2c-43 -80 -113 -135 -189 -135z" />
    <glyph glyph-name="v" unicode="v" horiz-adv-x="483" 
d="M190 -5c-99 0 -143 63 -125 210l35 280h52l-35 -277c-15 -128 19 -164 77 -164c72 0 159 80 192 218c16 71 17 149 4 223h55c12 -77 10 -161 -8 -238c-43 -178 -157 -252 -247 -252z" />
    <glyph glyph-name="w" unicode="w" horiz-adv-x="772" 
d="M185 -5c-91 0 -140 59 -121 200l38 290h52l-37 -286c-16 -123 26 -155 81 -155c60 0 155 86 172 228l26 213h52l-34 -283c-16 -127 21 -158 73 -158c68 0 157 80 188 218c16 71 17 149 4 223h55c12 -77 11 -161 -8 -238c-43 -178 -157 -252 -243 -252
c-76 0 -120 46 -122 136h-2c-41 -82 -118 -136 -174 -136z" />
    <glyph glyph-name="wacute" unicode="&#x1e83;" horiz-adv-x="772" 
d="M402 560l125 138h62l-129 -138h-58zM185 -5c-91 0 -140 59 -121 200l38 290h52l-37 -286c-16 -123 26 -155 81 -155c60 0 155 86 172 228l26 213h52l-34 -283c-16 -127 21 -158 73 -158c68 0 157 80 188 218c16 71 17 149 4 223h55c12 -77 11 -161 -8 -238
c-43 -178 -157 -252 -243 -252c-76 0 -120 46 -122 136h-2c-41 -82 -118 -136 -174 -136z" />
    <glyph glyph-name="wcircumflex" unicode="&#x175;" horiz-adv-x="772" 
d="M299 558l123 140h51l93 -140h-55l-64 104h-1l-91 -104h-56zM185 -5c-91 0 -140 59 -121 200l38 290h52l-37 -286c-16 -123 26 -155 81 -155c60 0 155 86 172 228l26 213h52l-34 -283c-16 -127 21 -158 73 -158c68 0 157 80 188 218c16 71 17 149 4 223h55
c12 -77 11 -161 -8 -238c-43 -178 -157 -252 -243 -252c-76 0 -120 46 -122 136h-2c-41 -82 -118 -136 -174 -136z" />
    <glyph glyph-name="wdieresis" unicode="&#x1e85;" horiz-adv-x="772" 
d="M364 591c-24 0 -41 18 -41 42c0 25 18 43 42 43c25 0 43 -17 43 -41c0 -25 -19 -44 -44 -44zM516 591c-24 0 -41 18 -41 42c0 25 18 43 43 43c24 0 42 -17 42 -41c0 -25 -19 -44 -44 -44zM185 -5c-91 0 -140 59 -121 200l38 290h52l-37 -286c-16 -123 26 -155 81 -155
c60 0 155 86 172 228l26 213h52l-34 -283c-16 -127 21 -158 73 -158c68 0 157 80 188 218c16 71 17 149 4 223h55c12 -77 11 -161 -8 -238c-43 -178 -157 -252 -243 -252c-76 0 -120 46 -122 136h-2c-41 -82 -118 -136 -174 -136z" />
    <glyph glyph-name="wgrave" unicode="&#x1e81;" horiz-adv-x="772" 
d="M402 560l-96 138h61l91 -138h-56zM185 -5c-91 0 -140 59 -121 200l38 290h52l-37 -286c-16 -123 26 -155 81 -155c60 0 155 86 172 228l26 213h52l-34 -283c-16 -127 21 -158 73 -158c68 0 157 80 188 218c16 71 17 149 4 223h55c12 -77 11 -161 -8 -238
c-43 -178 -157 -252 -243 -252c-76 0 -120 46 -122 136h-2c-41 -82 -118 -136 -174 -136z" />
    <glyph glyph-name="x" unicode="x" horiz-adv-x="448" 
d="M1 0l192 244l-132 241h61l105 -199h4l154 199h64l-193 -243l133 -242h-61l-107 200h-2l-157 -200h-61z" />
    <glyph glyph-name="y" unicode="y" horiz-adv-x="521" 
d="M426 485h52l-52 -421c-26 -218 -133 -266 -247 -266c-51 0 -105 12 -155 40l17 48c51 -30 101 -40 139 -40c91 0 173 38 195 222l7 62l-2 1c-42 -81 -113 -136 -190 -136c-98 0 -148 57 -129 196l40 294h52l-39 -290c-16 -120 25 -150 88 -151c85 0 183 105 198 233z" />
    <glyph glyph-name="yacute" unicode="&#xfd;" horiz-adv-x="521" 
d="M453 698l-129 -138h-58l125 138h62zM426 485h52l-52 -421c-26 -218 -133 -266 -247 -266c-51 0 -105 12 -155 40l17 48c51 -30 101 -40 139 -40c91 0 173 38 195 222l7 62l-2 1c-42 -81 -113 -136 -190 -136c-98 0 -148 57 -129 196l40 294h52l-39 -290
c-16 -120 25 -150 88 -151c85 0 183 105 198 233z" />
    <glyph glyph-name="ycircumflex" unicode="&#x177;" horiz-adv-x="521" 
d="M310 662l-91 -104h-56l123 140h51l93 -140h-55l-64 104h-1zM426 485h52l-52 -421c-26 -218 -133 -266 -247 -266c-51 0 -105 12 -155 40l17 48c51 -30 101 -40 139 -40c91 0 173 38 195 222l7 62l-2 1c-42 -81 -113 -136 -190 -136c-98 0 -148 57 -129 196l40 294h52
l-39 -290c-16 -120 25 -150 88 -151c85 0 183 105 198 233z" />
    <glyph glyph-name="ydieresis" unicode="&#xff;" horiz-adv-x="521" 
d="M228 591c-24 0 -41 18 -41 42c0 25 18 43 42 43c25 0 43 -17 43 -41c0 -25 -19 -44 -44 -44zM380 591c-24 0 -41 18 -41 42c0 25 18 43 43 43c24 0 42 -17 42 -41c0 -25 -19 -44 -44 -44zM426 485h52l-52 -421c-26 -218 -133 -266 -247 -266c-51 0 -105 12 -155 40l17 48
c51 -30 101 -40 139 -40c91 0 173 38 195 222l7 62l-2 1c-42 -81 -113 -136 -190 -136c-98 0 -148 57 -129 196l40 294h52l-39 -290c-16 -120 25 -150 88 -151c85 0 183 105 198 233z" />
    <glyph glyph-name="uni1E8F" unicode="&#x1e8f;" horiz-adv-x="521" 
d="M305 591c-24 0 -40 18 -40 42c0 25 18 43 42 43s42 -17 42 -41c0 -25 -18 -44 -44 -44zM426 485h52l-52 -421c-26 -218 -133 -266 -247 -266c-51 0 -105 12 -155 40l17 48c51 -30 101 -40 139 -40c91 0 173 38 195 222l7 62l-2 1c-42 -81 -113 -136 -190 -136
c-98 0 -148 57 -129 196l40 294h52l-39 -290c-16 -120 25 -150 88 -151c85 0 183 105 198 233z" />
    <glyph glyph-name="uni1EF5" unicode="&#x1ef5;" horiz-adv-x="521" 
d="M426 485h52l-52 -421c-26 -218 -133 -266 -247 -266c-51 0 -105 12 -155 40l17 48c51 -30 101 -40 139 -40c91 0 173 38 195 222l7 62l-2 1c-42 -81 -113 -136 -190 -136c-98 0 -148 57 -129 196l40 294h52l-39 -290c-16 -120 25 -150 88 -151c85 0 183 105 198 233z
M197 -244c24 0 40 -18 40 -42c0 -25 -18 -43 -42 -43s-42 17 -42 41c0 25 18 44 44 44z" />
    <glyph glyph-name="ygrave" unicode="&#x1ef3;" horiz-adv-x="521" 
d="M335 560h-56l-96 138h61zM426 485h52l-52 -421c-26 -218 -133 -266 -247 -266c-51 0 -105 12 -155 40l17 48c51 -30 101 -40 139 -40c91 0 173 38 195 222l7 62l-2 1c-42 -81 -113 -136 -190 -136c-98 0 -148 57 -129 196l40 294h52l-39 -290c-16 -120 25 -150 88 -151
c85 0 183 105 198 233z" />
    <glyph glyph-name="uni1EF7" unicode="&#x1ef7;" horiz-adv-x="521" 
d="M321 692c-29 0 -61 -12 -85 -33l-8 35c26 19 65 37 106 37c40 0 70 -17 70 -59c0 -50 -60 -96 -94 -118l-43 1c36 27 93 72 93 107c0 22 -16 30 -39 30zM426 485h52l-52 -421c-26 -218 -133 -266 -247 -266c-51 0 -105 12 -155 40l17 48c51 -30 101 -40 139 -40
c91 0 173 38 195 222l7 62l-2 1c-42 -81 -113 -136 -190 -136c-98 0 -148 57 -129 196l40 294h52l-39 -290c-16 -120 25 -150 88 -151c85 0 183 105 198 233z" />
    <glyph glyph-name="uni0233" unicode="&#x233;" horiz-adv-x="521" 
d="M434 654l-6 -46h-251l6 46h251zM426 485h52l-52 -421c-26 -218 -133 -266 -247 -266c-51 0 -105 12 -155 40l17 48c51 -30 101 -40 139 -40c91 0 173 38 195 222l7 62l-2 1c-42 -81 -113 -136 -190 -136c-98 0 -148 57 -129 196l40 294h52l-39 -290
c-16 -120 25 -150 88 -151c85 0 183 105 198 233z" />
    <glyph glyph-name="uni1EF9" unicode="&#x1ef9;" horiz-adv-x="521" 
d="M246 636c-26 0 -48 -22 -64 -59l-36 17c23 55 55 87 96 87c31 0 49 -16 68 -32c18 -15 37 -32 57 -32c22 0 46 20 62 60l35 -15c-23 -60 -59 -90 -93 -90c-32 0 -56 22 -75 39c-17 13 -33 25 -50 25zM426 485h52l-52 -421c-26 -218 -133 -266 -247 -266
c-51 0 -105 12 -155 40l17 48c51 -30 101 -40 139 -40c91 0 173 38 195 222l7 62l-2 1c-42 -81 -113 -136 -190 -136c-98 0 -148 57 -129 196l40 294h52l-39 -290c-16 -120 25 -150 88 -151c85 0 183 105 198 233z" />
    <glyph glyph-name="z" unicode="z" horiz-adv-x="427" 
d="M353 -24c-79 24 -178 24 -348 24l5 41l326 397v1h-265l6 46h335l-4 -39l-327 -398v-2c129 0 220 -3 287 -24z" />
    <glyph glyph-name="zacute" unicode="&#x17a;" horiz-adv-x="427" 
d="M198 560l125 138h62l-129 -138h-58zM353 -24c-79 24 -178 24 -348 24l5 41l326 397v1h-265l6 46h335l-4 -39l-327 -398v-2c129 0 220 -3 287 -24z" />
    <glyph glyph-name="zcaron" unicode="&#x17e;" horiz-adv-x="427" 
d="M223 559l-88 134h52l65 -98h2l92 98h54l-126 -134h-51zM353 -24c-79 24 -178 24 -348 24l5 41l326 397v1h-265l6 46h335l-4 -39l-327 -398v-2c129 0 220 -3 287 -24z" />
    <glyph glyph-name="zdotaccent" unicode="&#x17c;" horiz-adv-x="427" 
d="M260 591c-24 0 -40 18 -40 42c0 25 18 43 42 43s42 -17 42 -41c0 -25 -18 -44 -44 -44zM353 -24c-79 24 -178 24 -348 24l5 41l326 397v1h-265l6 46h335l-4 -39l-327 -398v-2c129 0 220 -3 287 -24z" />
    <glyph glyph-name="uni1E93" unicode="&#x1e93;" horiz-adv-x="427" 
d="M353 -24c-79 24 -178 24 -348 24l5 41l326 397v1h-265l6 46h335l-4 -39l-327 -398v-2c129 0 220 -3 287 -24zM170 -109c24 0 40 -18 40 -42c0 -25 -18 -43 -42 -43s-42 17 -42 41c0 25 18 44 44 44z" />
    <glyph glyph-name="f.calt" horiz-adv-x="297" 
d="M65 0l54 439h-56l5 46h57l13 109c12 103 59 147 130 147c22 0 43 -3 61 -10l-15 -46c-12 5 -26 7 -41 7c-41 0 -74 -24 -84 -109l-12 -98h134l-5 -46h-135l-54 -439h-52z" />
    <glyph glyph-name="germandbls.calt" horiz-adv-x="701" 
d="M496 387c90 -51 182 -95 182 -191c0 -126 -95 -201 -214 -201c-72 0 -152 32 -204 92l32 50c43 -63 109 -90 170 -90c90 0 158 57 158 144c0 70 -71 107 -144 146c-35 18 -51 27 -84 49l167 254l-1 4c-58 11 -124 19 -182 19c-126 0 -190 -49 -204 -163l-61 -500h-55
l60 504c18 146 107 211 261 211c71 0 177 -14 267 -37l-181 -273c9 -5 19 -10 33 -18z" />
    <glyph glyph-name="ordfeminine" unicode="&#xaa;" horiz-adv-x="367" 
d="M179 394c-58 0 -102 41 -102 119c0 94 61 177 154 177c33 0 67 -11 87 -30h2l3 27h41l-36 -290h-40l8 68h-2c-27 -44 -67 -71 -115 -71zM186 434c54 0 112 52 122 135l7 47c-11 21 -46 34 -79 34c-71 0 -117 -61 -117 -136c0 -50 24 -80 67 -80z" />
    <glyph glyph-name="ordmasculine" unicode="&#xba;" horiz-adv-x="351" 
d="M195 394c-71 0 -118 44 -118 122c0 91 59 174 153 174c68 0 117 -40 117 -119c0 -95 -57 -177 -152 -177zM197 434c61 0 107 57 107 134c0 56 -32 83 -76 83c-61 0 -108 -59 -108 -132c0 -52 29 -85 77 -85z" />
    <glyph glyph-name="uni0410" unicode="&#x410;" horiz-adv-x="606" 
d="M-1 0l330 710h60l159 -710h-58l-41 191h-304l-88 -191h-58zM167 242h272l-87 397h-2z" />
    <glyph glyph-name="uni0411" unicode="&#x411;" horiz-adv-x="572" 
d="M64 0l88 710h375l-7 -52h-319l-30 -244h147c162 0 203 -82 201 -181c-3 -153 -104 -233 -264 -233h-191zM126 52h131c122 0 203 60 204 178c1 98 -48 134 -152 134h-144z" />
    <glyph glyph-name="uni0412" unicode="&#x412;" horiz-adv-x="587" 
d="M64 0l87 710h211c96 0 172 -37 172 -142c0 -76 -43 -160 -127 -190v-2c68 -16 119 -60 119 -147c0 -149 -101 -229 -264 -229h-198zM168 395h150c94 0 159 70 159 166c0 63 -37 97 -128 97h-149zM126 52h138c122 0 204 59 204 177c0 79 -49 116 -151 116h-155z" />
    <glyph glyph-name="uni0413" unicode="&#x413;" horiz-adv-x="503" 
d="M64 0l88 710h385l-6 -52h-330l-81 -658h-56z" />
    <glyph glyph-name="uni0403" unicode="&#x403;" horiz-adv-x="503" 
d="M276 788l123 127l61 1l-128 -128h-56zM64 0l88 710h385l-6 -52h-330l-81 -658h-56z" />
    <glyph glyph-name="uni0490" unicode="&#x490;" horiz-adv-x="503" 
d="M509 853h47l-25 -195h-330l-81 -658h-56l88 710h334z" />
    <glyph glyph-name="uni0414" unicode="&#x414;" horiz-adv-x="708" 
d="M659 52l-27 -196h-48l15 144h-556l-23 -144h-48l26 196h79c58 82 99 179 131 291c30 105 50 218 70 367h372l-82 -658h91zM260 323c-30 -107 -70 -201 -119 -271h371l75 606h-261c-16 -128 -38 -239 -66 -335z" />
    <glyph glyph-name="uni0415" unicode="&#x415;" horiz-adv-x="546" 
d="M64 0l87 710h384l-6 -52h-329l-34 -278h272l-5 -52h-273l-34 -276h347l-6 -52h-403z" />
    <glyph glyph-name="uni0400" unicode="&#x400;" horiz-adv-x="546" 
d="M377 790l-98 128l62 -1l92 -127h-56zM64 0l87 710h384l-6 -52h-329l-34 -278h272l-5 -52h-273l-34 -276h347l-6 -52h-403z" />
    <glyph glyph-name="uni0401" unicode="&#x401;" horiz-adv-x="546" 
d="M295 830c-24 0 -41 18 -41 42c0 25 18 43 42 43c25 0 43 -17 43 -41c0 -25 -19 -44 -44 -44zM447 830c-24 0 -41 18 -41 42c0 25 18 43 43 43c24 0 42 -17 42 -41c0 -25 -19 -44 -44 -44zM64 0l87 710h384l-6 -52h-329l-34 -278h272l-5 -52h-273l-34 -276h347l-6 -52
h-403z" />
    <glyph glyph-name="uni0416" unicode="&#x416;" horiz-adv-x="840" 
d="M870 710l-275 -339l193 -371h-64l-173 332l-112 -133l-23 -199h-54l24 201l-76 132l-254 -333h-65l284 372l-192 338h64l246 -435l3 1l53 434h54l-53 -434l1 -1l351 435h68z" />
    <glyph glyph-name="uni0417" unicode="&#x417;" horiz-adv-x="563" 
d="M266 -5c-98 0 -183 39 -232 111l42 37c43 -63 111 -95 191 -95c112 0 181 63 181 167c0 95 -62 131 -159 131h-108l7 50h96c108 0 175 67 175 154c0 70 -47 113 -136 113c-62 0 -116 -20 -165 -54l-35 41c60 44 133 65 204 65c106 0 189 -49 189 -154
c0 -80 -45 -150 -130 -182v-2c66 -18 120 -68 120 -164c0 -134 -91 -218 -240 -218z" />
    <glyph glyph-name="uni0418" unicode="&#x418;" horiz-adv-x="682" 
d="M64 0l87 710h56l-75 -609h1l461 609h52l-86 -710h-57l74 604h-1l-459 -604h-53z" />
    <glyph glyph-name="uni0419" unicode="&#x419;" horiz-adv-x="682" 
d="M407 784c-70 0 -119 42 -118 124l47 4c-2 -48 23 -88 77 -88s93 43 110 91l41 -11c-30 -81 -92 -120 -157 -120zM64 0l87 710h56l-75 -609h1l461 609h52l-86 -710h-57l74 604h-1l-459 -604h-53z" />
    <glyph glyph-name="uni040D" unicode="&#x40d;" horiz-adv-x="682" 
d="M423 788l-98 128l62 -1l92 -127h-56zM64 0l87 710h56l-75 -609h1l461 609h52l-86 -710h-57l74 604h-1l-459 -604h-53z" />
    <glyph glyph-name="uni048A" unicode="&#x48a;" horiz-adv-x="695" 
d="M407 784c-70 0 -119 42 -118 124l47 4c-2 -48 23 -88 77 -88s93 43 110 91l41 -11c-30 -81 -92 -120 -157 -120zM646 710l-80 -658h61l-1 -19l-87 -177h-41l59 144h-54l74 604h-1l-459 -604h-53l87 710h56l-75 -609h1l461 609h52z" />
    <glyph glyph-name="uni041A" unicode="&#x41a;" horiz-adv-x="588" 
d="M607 710l-287 -324l205 -386h-65l-181 345l-136 -152l-23 -193h-56l87 710h56l-53 -430l2 -1l380 431h71z" />
    <glyph glyph-name="uni040C" unicode="&#x40c;" horiz-adv-x="588" 
d="M480 916l-128 -128h-56l123 127zM607 710l-287 -324l205 -386h-65l-181 345l-136 -152l-23 -193h-56l87 710h56l-53 -430l2 -1l380 431h71z" />
    <glyph glyph-name="uni041B" unicode="&#x41b;" horiz-adv-x="670" 
d="M275 710h359l-88 -710h-55l81 658h-250c-23 -146 -46 -262 -70 -361c-56 -232 -120 -301 -221 -301c-21 0 -33 4 -42 7l8 48c8 -2 20 -3 28 -3c74 0 127 69 175 269c27 111 52 237 75 393z" />
    <glyph glyph-name="uni041C" unicode="&#x41c;" horiz-adv-x="808" 
d="M64 0l87 710h56l194 -489h3l312 489h55l-86 -710h-56l72 591h-3l-284 -442h-41l-179 449h-2l-72 -598h-56z" />
    <glyph glyph-name="uni041D" unicode="&#x41d;" horiz-adv-x="668" 
d="M64 0l87 710h56l-43 -348h370l42 348h56l-87 -710h-56l38 310h-369l-38 -310h-56z" />
    <glyph glyph-name="uni041E" unicode="&#x41e;" horiz-adv-x="755" 
d="M349 -5c-167 0 -279 109 -279 297c0 222 145 423 364 423c166 0 279 -106 279 -296c0 -227 -140 -424 -364 -424zM352 48c184 0 302 174 302 370c0 159 -86 245 -225 245c-181 0 -301 -180 -301 -370c0 -157 87 -245 224 -245z" />
    <glyph glyph-name="uni041F" unicode="&#x41f;" horiz-adv-x="647" 
d="M64 0l88 710h459l-88 -710h-55l81 658h-348l-81 -658h-56z" />
    <glyph glyph-name="uni0420" unicode="&#x420;" horiz-adv-x="563" 
d="M64 0l87 710h220c123 0 181 -66 181 -174c0 -149 -91 -248 -251 -248h-146l-35 -288h-56zM161 339h146c118 0 187 78 187 197c0 85 -57 122 -134 122h-160z" />
    <glyph glyph-name="uni0421" unicode="&#x421;" horiz-adv-x="672" 
d="M346 -5c-162 0 -274 110 -274 299c0 223 148 421 359 421c89 0 174 -38 244 -151l-48 -33c-54 94 -115 131 -197 131c-179 0 -300 -179 -300 -367c0 -152 83 -246 218 -246c72 0 152 35 211 100l42 -35c-63 -71 -157 -119 -255 -119z" />
    <glyph glyph-name="uni0422" unicode="&#x422;" horiz-adv-x="513" 
d="M198 0l81 658h-198l6 52h455l-7 -52h-200l-81 -658h-56z" />
    <glyph glyph-name="uni0423" unicode="&#x423;" horiz-adv-x="588" 
d="M559 710h61l-282 -536c-52 -98 -89 -179 -184 -179c-35 0 -78 13 -99 38l20 47c22 -24 51 -34 77 -34c56 0 87 48 131 134l-199 530h61l170 -469h2z" />
    <glyph glyph-name="uni040E" unicode="&#x40e;" horiz-adv-x="588" 
d="M362 784c-70 0 -119 42 -118 124l47 4c-2 -48 23 -88 77 -88s93 43 110 91l41 -11c-30 -81 -92 -120 -157 -120zM559 710h61l-282 -536c-52 -98 -89 -179 -184 -179c-35 0 -78 13 -99 38l20 47c22 -24 51 -34 77 -34c56 0 87 48 131 134l-199 530h61l170 -469h2z" />
    <glyph glyph-name="uni0424" unicode="&#x424;" horiz-adv-x="781" 
d="M741 402c0 -177 -122 -328 -345 -333l-9 -69h-55l9 69c-163 7 -272 100 -272 256c0 178 128 334 345 340l7 57h55l-7 -57c161 -8 272 -101 272 -263zM127 327c0 -126 82 -201 220 -207l62 495c-172 -7 -282 -131 -282 -288zM401 120c177 6 282 127 282 279
c0 133 -79 210 -221 216z" />
    <glyph glyph-name="uni0425" unicode="&#x425;" horiz-adv-x="578" 
d="M0 0l266 355l-177 355h63l154 -311h3l228 311h69l-266 -356l179 -354h-66l-154 308h-3l-230 -308h-66z" />
    <glyph glyph-name="uni0427" unicode="&#x427;" horiz-adv-x="589" 
d="M496 710h57l-88 -710h-56l37 304c-62 -33 -146 -52 -201 -52c-137 0 -178 69 -159 221l30 237h56l-30 -238c-15 -124 13 -168 116 -168c45 0 123 13 195 51z" />
    <glyph glyph-name="uni0426" unicode="&#x426;" horiz-adv-x="660" 
d="M611 52l-27 -196h-47l15 144h-488l88 710h55l-81 -658h339l81 658h56l-82 -658h91z" />
    <glyph glyph-name="uni0428" unicode="&#x428;" horiz-adv-x="900" 
d="M808 710h56l-88 -710h-712l88 710h55l-81 -658h273l81 658h56l-82 -658h273z" />
    <glyph glyph-name="uni0429" unicode="&#x429;" horiz-adv-x="922" 
d="M872 52l-26 -196h-48l15 144h-749l88 710h55l-81 -658h273l81 658h56l-82 -658h273l81 658h56l-82 -658h90z" />
    <glyph glyph-name="uni040F" unicode="&#x40f;" horiz-adv-x="646" 
d="M610 710l-87 -710h-204l-21 -144h-47l15 144h-202l88 710h55l-81 -658h347l81 658h56z" />
    <glyph glyph-name="uni042C" unicode="&#x42c;" horiz-adv-x="568" 
d="M64 0l88 710h55l-36 -293h156c162 0 202 -85 200 -184c-3 -153 -103 -233 -266 -233h-197zM126 52h140c121 0 202 60 203 178c1 98 -47 136 -152 136h-152z" />
    <glyph glyph-name="uni042A" unicode="&#x42a;" horiz-adv-x="662" 
d="M421 417c162 0 202 -85 200 -184c-3 -153 -103 -233 -266 -233h-197l82 658h-183l6 52h239l-36 -293h155zM563 230c2 98 -47 136 -151 136h-153l-39 -314h140c122 0 202 60 203 178z" />
    <glyph glyph-name="uni042B" unicode="&#x42b;" horiz-adv-x="784" 
d="M64 0l88 710h55l-36 -293h141c162 0 202 -85 200 -184c-3 -153 -103 -233 -266 -233h-182zM605 0l87 710h56l-87 -710h-56zM126 52h125c122 0 202 60 204 178c1 98 -48 136 -152 136h-138z" />
    <glyph glyph-name="uni0409" unicode="&#x409;" horiz-adv-x="995" 
d="M754 417c162 0 202 -85 200 -184c-3 -153 -103 -233 -266 -233h-197l81 658h-250c-23 -146 -46 -262 -70 -361c-56 -232 -120 -301 -221 -301c-21 0 -33 4 -42 7l8 48c8 -2 20 -3 28 -3c74 0 127 69 175 269c27 111 52 237 75 393h359l-36 -293h156zM896 230
c1 98 -47 136 -152 136h-152l-39 -314h140c121 0 202 60 203 178z" />
    <glyph glyph-name="uni040A" unicode="&#x40a;" horiz-adv-x="989" 
d="M747 397c162 0 202 -86 200 -169c-3 -148 -103 -228 -266 -228h-203l42 340h-358l-42 -340h-56l87 710h56l-39 -318h358l39 318h56l-39 -313h165zM890 226c1 81 -48 119 -152 119h-162l-36 -293h146c122 0 202 60 204 174z" />
    <glyph glyph-name="uni0405" unicode="&#x405;" horiz-adv-x="538" 
d="M255 -5c-86 0 -175 39 -226 116l42 37c44 -69 113 -100 181 -100c98 0 167 57 167 143c0 69 -70 102 -151 148c-82 45 -171 92 -171 191c0 111 89 185 212 185c73 0 145 -32 192 -87l-40 -37c-43 52 -103 72 -156 72c-86 0 -150 -51 -150 -127c1 -70 64 -103 138 -145
c93 -53 185 -96 185 -194c0 -127 -95 -202 -223 -202z" />
    <glyph glyph-name="uni0404" unicode="&#x404;" horiz-adv-x="656" 
d="M428 662c-152 0 -259 -126 -290 -280h365l-7 -51h-365c-1 -12 -1 -25 -1 -36c0 -153 82 -246 217 -246c74 0 155 29 213 94l42 -35c-63 -71 -157 -113 -257 -113c-162 0 -273 108 -273 299c0 223 145 421 357 421c85 0 165 -30 229 -118l-44 -36
c-50 72 -109 101 -186 101z" />
    <glyph glyph-name="uni042D" unicode="&#x42d;" horiz-adv-x="665" 
d="M348 715c170 0 272 -116 272 -298c0 -227 -134 -422 -357 -422c-119 0 -192 51 -237 119l44 37c33 -57 96 -103 194 -103c154 0 263 122 292 283h-369l7 51h368c0 11 1 21 1 32c0 154 -83 249 -220 249c-69 0 -132 -26 -190 -75l-35 40c70 60 149 87 230 87z" />
    <glyph glyph-name="uni0406" unicode="&#x406;" horiz-adv-x="255" 
d="M70 0l87 710h56l-87 -710h-56z" />
    <glyph glyph-name="uni0407" unicode="&#x407;" horiz-adv-x="255" 
d="M128 828c-24 0 -41 18 -41 42c0 25 18 43 42 43c25 0 43 -17 43 -41c0 -25 -19 -44 -44 -44zM280 828c-24 0 -41 18 -41 42c0 25 18 43 43 43c24 0 42 -17 42 -41c0 -25 -19 -44 -44 -44zM70 0l87 710h56l-87 -710h-56z" />
    <glyph glyph-name="uni0408" unicode="&#x408;" horiz-adv-x="452" 
d="M166 -5c-56 0 -119 32 -156 94l38 40c30 -49 74 -80 118 -80c75 0 132 48 147 179l59 482h56l-59 -485c-19 -155 -84 -230 -203 -230z" />
    <glyph glyph-name="uni040B" unicode="&#x40b;" horiz-adv-x="713" 
d="M498 435c134 0 172 -68 153 -220l-27 -215h-56l27 216c15 124 -13 167 -113 167c-48 0 -118 -14 -187 -54l-41 -329h-56l81 658h-198l5 52h456l-7 -52h-200l-34 -277c62 33 146 54 197 54z" />
    <glyph glyph-name="uni042E" unicode="&#x42e;" horiz-adv-x="956" 
d="M647 715c159 0 271 -107 271 -295c0 -227 -140 -425 -356 -425c-157 0 -267 107 -267 292c0 8 0 17 1 25h-142l-38 -312h-56l87 710h56l-42 -346h140c28 191 159 351 346 351zM564 48c179 0 296 175 296 372c0 155 -86 242 -216 242c-173 0 -292 -180 -292 -372
c0 -155 86 -242 212 -242z" />
    <glyph glyph-name="uni042F" unicode="&#x42f;" horiz-adv-x="591" 
d="M325 710h230l-88 -710h-55l34 284h-161h-7l-200 -284h-65l209 295c-92 23 -132 94 -132 171c0 141 83 244 235 244zM453 336l39 322h-167c-110 0 -177 -72 -177 -188c0 -87 54 -134 144 -134h161z" />
    <glyph glyph-name="uni0402" unicode="&#x402;" horiz-adv-x="718" 
d="M471 437c113 0 206 -60 206 -192c0 -168 -118 -249 -267 -249c-19 0 -39 1 -58 4l8 48c13 -2 28 -3 46 -3c130 0 213 74 213 197c0 94 -64 142 -162 142c-55 0 -117 -15 -172 -48l-41 -336h-56l81 658h-198l5 52h456l-7 -52h-200l-33 -270c50 28 117 49 179 49z" />
    <glyph glyph-name="uni0462" unicode="&#x462;" horiz-adv-x="651" 
d="M414 415c148 0 206 -79 195 -199c-12 -151 -108 -216 -247 -216h-220l70 561h-168l6 50h169l12 99h56l-12 -99h232l-6 -50h-233l-18 -146h164zM551 215c7 91 -33 148 -143 148h-164l-39 -311h161c118 0 177 65 185 163z" />
    <glyph glyph-name="uni0472" unicode="&#x472;" horiz-adv-x="754" 
d="M433 715c166 0 279 -106 279 -296c0 -227 -139 -424 -364 -424c-166 0 -278 109 -278 297c0 222 145 423 363 423zM428 664c-153 0 -263 -127 -293 -284h519c1 13 1 26 1 39c0 154 -83 245 -227 245zM351 47c157 0 268 123 297 284h-520c-1 -13 -1 -25 -1 -38
c0 -152 83 -246 224 -246z" />
    <glyph glyph-name="uni0474" unicode="&#x474;" horiz-adv-x="643" 
d="M241 0l-153 710h59l129 -630h1l209 507c39 96 74 128 140 128c33 0 69 -15 82 -27l-17 -44c-13 10 -35 21 -58 21c-46 0 -69 -35 -95 -94l-244 -571h-53z" />
    <glyph glyph-name="uni0492" unicode="&#x492;" horiz-adv-x="515" 
d="M542 658h-330l-36 -292h185l-6 -45h-184l-40 -321h-56l40 321h-93l6 45h92l43 344h385z" />
    <glyph glyph-name="uni0494" unicode="&#x494;" horiz-adv-x="596" 
d="M322 389c121 0 210 -77 210 -235c0 -193 -99 -356 -286 -356c-30 0 -52 3 -75 9l7 49c25 -5 43 -8 67 -8c149 0 229 143 229 301c0 128 -66 188 -167 188c-52 0 -100 -11 -149 -31l-38 -306h-56l88 710h385l-6 -52h-330l-37 -302c40 18 95 33 158 33z" />
    <glyph glyph-name="uni0496" unicode="&#x496;" horiz-adv-x="864" 
d="M761 52h50l-27 -196h-47l15 144h-28l-173 332l-112 -133l-23 -199h-54l24 201l-76 132l-254 -333h-65l284 372l-192 338h64l246 -435l3 1l53 434h54l-53 -434l1 -1l351 435h68l-275 -339z" />
    <glyph glyph-name="uni0498" unicode="&#x498;" horiz-adv-x="563" 
d="M386 377c66 -18 120 -68 120 -164c0 -133 -90 -217 -236 -218l-15 -33c39 -7 69 -25 69 -59c0 -56 -42 -86 -103 -86c-18 0 -35 1 -52 5l3 34c14 -3 29 -5 42 -5c38 0 67 16 67 50c0 23 -21 34 -70 38l22 58c-84 7 -156 45 -199 109l42 37c43 -63 111 -95 191 -95
c112 0 181 63 181 167c0 95 -62 131 -159 131h-108l7 50h96c108 0 175 67 175 154c0 70 -47 113 -136 113c-62 0 -116 -20 -165 -54l-35 41c60 44 133 65 204 65c106 0 189 -49 189 -154c0 -80 -45 -150 -130 -182v-2z" />
    <glyph glyph-name="uni049A" unicode="&#x49a;" horiz-adv-x="604" 
d="M497 52h50l-27 -196h-47l15 144h-28l-181 345l-136 -152l-23 -193h-56l87 710h56l-53 -430l2 -1l380 431h71l-287 -324z" />
    <glyph glyph-name="uni049C" unicode="&#x49c;" horiz-adv-x="632" 
d="M652 710l-276 -358l193 -352h-64l-178 323h-30l-25 -204h-45l26 204l-93 1l-40 -324h-56l87 710h56l-42 -339l94 2l26 207h44l-26 -207l26 1l255 336h68z" />
    <glyph glyph-name="uni049E" unicode="&#x49e;" horiz-adv-x="598" 
d="M617 710l-286 -324l204 -386h-65l-180 345l-136 -152l-24 -193h-55l70 569h-103l5 45h103l12 96h55l-12 -96h140l-6 -45h-139l-36 -289l3 -1l380 431h70z" />
    <glyph glyph-name="uni04A0" unicode="&#x4a0;" horiz-adv-x="683" 
d="M702 710l-287 -324l205 -386h-65l-181 345l-136 -152l-23 -193h-56l81 658h-183l6 52h239l-53 -430l2 -1l380 431h71z" />
    <glyph glyph-name="uni04A2" unicode="&#x4a2;" horiz-adv-x="690" 
d="M641 52l-26 -196h-48l15 144h-93l38 310h-369l-38 -310h-56l87 710h56l-43 -348h370l42 348h56l-81 -658h90z" />
    <glyph glyph-name="uni04A4" unicode="&#x4a4;" horiz-adv-x="798" 
d="M571 710h261l-7 -52h-204l-81 -658h-56l38 310h-364l-38 -310h-56l87 710h56l-43 -348h364z" />
    <glyph glyph-name="uni04A6" unicode="&#x4a6;" horiz-adv-x="1001" 
d="M726 389c121 0 210 -77 210 -235c0 -193 -99 -356 -286 -356c-30 0 -52 3 -75 9l7 49c25 -5 43 -8 67 -8c149 0 229 143 229 301c0 128 -66 188 -167 188c-52 0 -101 -11 -150 -32l-38 -305h-55l81 658h-348l-81 -658h-56l88 710h459l-44 -354c41 17 96 33 159 33z" />
    <glyph glyph-name="uni0524" unicode="&#x524;" horiz-adv-x="669" 
d="M619 52l-26 -196h-48l15 144h-92l81 658h-348l-81 -658h-56l88 710h459l-82 -658h90z" />
    <glyph glyph-name="uni04A8" unicode="&#x4a8;" horiz-adv-x="795" 
d="M750 84l24 -43c-36 -38 -90 -46 -127 -46c-55 0 -100 17 -131 40c-45 -26 -99 -40 -163 -40c-169 0 -290 113 -290 300c0 222 145 420 361 420c23 0 45 -2 66 -6l-15 -48c-17 2 -36 4 -55 4c-177 0 -299 -178 -299 -369c0 -157 95 -252 242 -252c46 0 79 8 109 21v1
c-56 50 -89 133 -89 235c0 155 82 319 213 319c92 0 146 -81 146 -202c0 -143 -69 -283 -182 -356v-2c24 -11 50 -18 79 -18c34 0 76 9 111 42zM437 300c0 -90 28 -164 78 -211h4l1 -1c104 69 164 201 164 331c0 92 -34 151 -90 151c-98 0 -157 -149 -157 -270z" />
    <glyph glyph-name="uni04AA" unicode="&#x4aa;" horiz-adv-x="672" 
d="M430 662c-179 0 -300 -179 -300 -367c0 -152 83 -246 218 -246c72 0 152 35 211 100l42 -35c-63 -71 -157 -119 -255 -119h-2l-15 -33c39 -7 69 -25 69 -59c0 -56 -42 -86 -103 -86c-18 0 -35 1 -52 5l3 34c14 -3 29 -5 42 -5c38 0 67 16 67 50c0 23 -21 34 -70 38l22 58
c-141 16 -235 123 -235 297c0 223 148 421 359 421c89 0 174 -38 244 -151l-48 -33c-54 94 -115 131 -197 131z" />
    <glyph glyph-name="uni04AC" unicode="&#x4ac;" horiz-adv-x="513" 
d="M535 658h-200l-75 -606h91l-27 -196h-47l15 144h-94l81 658h-198l6 52h455z" />
    <glyph glyph-name="uni04AE" unicode="&#x4ae;" horiz-adv-x="532" 
d="M208 0l39 320l-171 390h61l143 -333h2l226 333h65l-270 -390l-39 -320h-56z" />
    <glyph glyph-name="uni04B0" unicode="&#x4b0;" horiz-adv-x="532" 
d="M573 710l-258 -373h140l-6 -45h-149l-36 -292h-56l36 292h-153l6 45h143l-164 373h61l143 -333h2l226 333h65z" />
    <glyph glyph-name="uni04B2" unicode="&#x4b2;" horiz-adv-x="595" 
d="M493 52h48l-27 -196h-47l15 144h-29l-154 308h-3l-230 -308h-66l266 355l-177 355h63l154 -311h3l228 311h69l-266 -356z" />
    <glyph glyph-name="uni04B4" unicode="&#x4b4;" horiz-adv-x="792" 
d="M743 52l-27 -196h-47l15 144h-488l82 658h-198l7 52h440l-7 -52h-187l-75 -606h339l81 658h56l-82 -658h91z" />
    <glyph glyph-name="uni04B6" unicode="&#x4b6;" horiz-adv-x="611" 
d="M561 52l-26 -196h-48l15 144h-93l37 304c-62 -33 -146 -52 -201 -52c-137 0 -178 69 -159 221l30 237h56l-30 -238c-15 -124 13 -168 116 -168c45 0 123 13 195 51l43 355h57l-82 -658h90z" />
    <glyph glyph-name="uni04B8" unicode="&#x4b8;" horiz-adv-x="592" 
d="M500 710h56l-87 -710h-57l38 305c-39 -22 -89 -37 -134 -46l-19 -152h-44l18 146c-9 -1 -18 -1 -26 -1c-137 0 -178 69 -159 221l30 237h56l-30 -238c-15 -124 13 -168 116 -168c6 0 12 0 19 1l21 168h44l-20 -163c41 7 90 21 135 45z" />
    <glyph glyph-name="uni04BA" unicode="&#x4ba;" horiz-adv-x="597" 
d="M380 465c140 0 177 -73 158 -227l-30 -238h-55l28 232c16 135 -11 181 -114 181c-45 0 -129 -14 -203 -51l-44 -362h-56l88 710h56l-37 -298c63 33 154 53 209 53z" />
    <glyph glyph-name="uni04BC" unicode="&#x4bc;" horiz-adv-x="812" 
d="M778 356h-554c-3 -21 -4 -42 -4 -63c0 -160 88 -245 224 -245c75 0 153 36 211 101l42 -35c-63 -71 -157 -119 -255 -119c-169 0 -278 106 -278 296c0 22 1 44 4 65h-8c-90 0 -129 38 -129 95c0 36 14 74 32 97l44 -15c-15 -24 -24 -50 -24 -74c0 -27 18 -53 83 -53h10
c37 175 160 309 339 309c159 0 269 -108 269 -294c0 -24 -3 -45 -6 -65zM512 662c-142 0 -244 -111 -279 -256h495v14c0 155 -87 242 -216 242z" />
    <glyph glyph-name="uni04BE" unicode="&#x4be;" horiz-adv-x="812" 
d="M778 356h-554c-3 -21 -4 -42 -4 -63c0 -160 88 -245 224 -245c75 0 153 36 211 101l42 -35c-59 -67 -145 -113 -237 -118l-19 -140h-47l14 140c-149 14 -244 118 -244 295c0 22 1 44 4 65h-8c-90 0 -129 38 -129 95c0 36 14 74 32 97l44 -15c-15 -24 -24 -50 -24 -74
c0 -27 18 -53 83 -53h10c37 175 160 309 339 309c159 0 269 -108 269 -294c0 -24 -3 -45 -6 -65zM512 662c-142 0 -244 -111 -279 -256h495v14c0 155 -87 242 -216 242z" />
    <glyph glyph-name="uni04C0" unicode="&#x4c0;" horiz-adv-x="255" 
d="M70 0l87 710h56l-87 -710h-56z" />
    <glyph glyph-name="uni04C1" unicode="&#x4c1;" horiz-adv-x="840" 
d="M483 784c-70 0 -119 42 -118 124l47 4c-2 -48 23 -88 77 -88s93 43 110 91l41 -11c-30 -81 -92 -120 -157 -120zM870 710l-275 -339l193 -371h-64l-173 332l-112 -133l-23 -199h-54l24 201l-76 132l-254 -333h-65l284 372l-192 338h64l246 -435l3 1l53 434h54l-53 -434
l1 -1l351 435h68z" />
    <glyph glyph-name="uni04C3" unicode="&#x4c3;" horiz-adv-x="599" 
d="M303 367c137 -2 234 -86 234 -232c0 -177 -99 -337 -286 -337c-30 0 -52 3 -75 9l7 49c25 -5 43 -8 67 -8c149 0 229 140 229 284c0 132 -90 188 -216 188h-9l-110 -122l-24 -198h-56l87 710h56l-53 -430l2 -1l380 431h71z" />
    <glyph glyph-name="uni04C5" unicode="&#x4c5;" horiz-adv-x="683" 
d="M634 710l-82 -658h61l-1 -19l-87 -177h-41l59 144h-52l81 658h-250c-23 -146 -46 -262 -70 -361c-56 -232 -120 -301 -221 -301c-21 0 -33 4 -42 7l8 48c8 -2 20 -3 28 -3c74 0 127 69 175 269c27 111 52 237 75 393h359z" />
    <glyph glyph-name="uni04C7" unicode="&#x4c7;" horiz-adv-x="668" 
d="M632 710l-87 -710l-2 -16c-16 -133 -77 -186 -179 -186c-22 0 -43 4 -63 9l7 48c16 -5 36 -8 55 -8c67 0 111 29 124 137l40 326h-369l-38 -310h-56l87 710h56l-43 -348h369l43 348h56z" />
    <glyph glyph-name="uni04C9" unicode="&#x4c9;" horiz-adv-x="681" 
d="M632 710l-81 -658h61l-1 -19l-87 -177h-41l59 144h-53l38 310h-369l-38 -310h-56l87 710h56l-43 -348h370l42 348h56z" />
    <glyph glyph-name="uni04CB" unicode="&#x4cb;" horiz-adv-x="589" 
d="M496 710h57l-88 -710h-95l-24 -144h-47l26 196h90l31 252c-62 -33 -146 -52 -201 -52c-137 0 -178 69 -159 221l30 237h56l-30 -238c-15 -124 13 -168 116 -168c45 0 123 13 195 51z" />
    <glyph glyph-name="uni04CD" unicode="&#x4cd;" horiz-adv-x="821" 
d="M771 710l-80 -658h61l-1 -19l-87 -177h-41l59 144h-53l72 591h-3l-284 -442h-41l-179 449h-2l-72 -598h-56l87 710h56l194 -489h3l312 489h55z" />
    <glyph glyph-name="uni04D0" unicode="&#x4d0;" horiz-adv-x="606" 
d="M371 784c-70 0 -119 42 -118 124l47 4c-2 -48 23 -88 77 -88s93 43 110 91l41 -11c-30 -81 -92 -120 -157 -120zM-1 0l330 710h60l159 -710h-58l-41 191h-304l-88 -191h-58zM167 242h272l-87 397h-2z" />
    <glyph glyph-name="uni04D2" unicode="&#x4d2;" horiz-adv-x="606" 
d="M305 828c-24 0 -41 18 -41 42c0 25 18 43 42 43c25 0 43 -17 43 -41c0 -25 -19 -44 -44 -44zM457 828c-24 0 -41 18 -41 42c0 25 18 43 43 43c24 0 42 -17 42 -41c0 -25 -19 -44 -44 -44zM-1 0l330 710h60l159 -710h-58l-41 191h-304l-88 -191h-58zM167 242h272l-87 397
h-2z" />
    <glyph glyph-name="uni04D4" unicode="&#x4d4;" horiz-adv-x="842" 
d="M-24 0l441 710h415l-6 -52h-331l-33 -278h277l-6 -52h-278l-33 -276h348l-6 -52h-403l23 191h-227l-118 -191h-63zM186 241h205l49 408h-1z" />
    <glyph glyph-name="uni04D6" unicode="&#x4d6;" horiz-adv-x="546" 
d="M361 786c-70 0 -119 42 -118 124l47 4c-2 -48 23 -88 77 -88s93 43 110 91l41 -11c-30 -81 -92 -120 -157 -120zM64 0l87 710h384l-6 -52h-329l-34 -278h272l-5 -52h-273l-34 -276h347l-6 -52h-403z" />
    <glyph glyph-name="uni04D8" unicode="&#x4d8;" horiz-adv-x="719" 
d="M400 715c166 0 277 -106 277 -296c0 -227 -135 -424 -353 -424c-158 0 -268 109 -268 294c0 23 2 44 6 63h554c2 22 4 44 4 66c0 159 -89 244 -225 244c-75 0 -151 -29 -202 -73l-34 41c56 47 139 85 241 85zM328 48c140 0 242 110 278 254h-495v-12
c0 -154 88 -242 217 -242z" />
    <glyph glyph-name="uni04DA" unicode="&#x4da;" horiz-adv-x="719" 
d="M358 830c-24 0 -41 18 -41 42c0 25 18 43 42 43c25 0 43 -17 43 -41c0 -25 -19 -44 -44 -44zM510 830c-24 0 -41 18 -41 42c0 25 18 43 43 43c24 0 42 -17 42 -41c0 -25 -19 -44 -44 -44zM400 715c166 0 277 -106 277 -296c0 -227 -135 -424 -353 -424
c-158 0 -268 109 -268 294c0 23 2 44 6 63h554c2 22 4 44 4 66c0 159 -89 244 -225 244c-75 0 -151 -29 -202 -73l-34 41c56 47 139 85 241 85zM328 48c140 0 242 110 278 254h-495v-12c0 -154 88 -242 217 -242z" />
    <glyph glyph-name="uni04DC" unicode="&#x4dc;" horiz-adv-x="840" 
d="M417 828c-24 0 -41 18 -41 42c0 25 18 43 42 43c25 0 43 -17 43 -41c0 -25 -19 -44 -44 -44zM569 828c-24 0 -41 18 -41 42c0 25 18 43 43 43c24 0 42 -17 42 -41c0 -25 -19 -44 -44 -44zM870 710l-275 -339l193 -371h-64l-173 332l-112 -133l-23 -199h-54l24 201
l-76 132l-254 -333h-65l284 372l-192 338h64l246 -435l3 1l53 434h54l-53 -434l1 -1l351 435h68z" />
    <glyph glyph-name="uni04DE" unicode="&#x4de;" horiz-adv-x="563" 
d="M282 828c-24 0 -41 18 -41 42c0 25 18 43 42 43c25 0 43 -17 43 -41c0 -25 -19 -44 -44 -44zM434 828c-24 0 -41 18 -41 42c0 25 18 43 43 43c24 0 42 -17 42 -41c0 -25 -19 -44 -44 -44zM266 -5c-98 0 -183 39 -232 111l42 37c43 -63 111 -95 191 -95
c112 0 181 63 181 167c0 95 -62 131 -159 131h-108l7 50h96c108 0 175 67 175 154c0 70 -47 113 -136 113c-62 0 -116 -20 -165 -54l-35 41c60 44 133 65 204 65c106 0 189 -49 189 -154c0 -80 -45 -150 -130 -182v-2c66 -18 120 -68 120 -164c0 -134 -91 -218 -240 -218z
" />
    <glyph glyph-name="uni04E0" unicode="&#x4e0;" horiz-adv-x="555" 
d="M268 -5c-100 0 -185 39 -234 111l42 37c43 -63 111 -95 193 -95c110 0 179 62 179 159c0 111 -89 153 -234 153h-25l3 31l271 265v2h-335l6 52h409l-6 -43l-266 -262v-1c141 -7 235 -68 235 -195c0 -130 -91 -214 -238 -214z" />
    <glyph glyph-name="uni04E2" unicode="&#x4e2;" horiz-adv-x="682" 
d="M289 822l6 45h251l-6 -45h-251zM64 0l87 710h56l-75 -609h1l461 609h52l-86 -710h-57l74 604h-1l-459 -604h-53z" />
    <glyph glyph-name="uni04E4" unicode="&#x4e4;" horiz-adv-x="682" 
d="M341 828c-24 0 -41 18 -41 42c0 25 18 43 42 43c25 0 43 -17 43 -41c0 -25 -19 -44 -44 -44zM493 828c-24 0 -41 18 -41 42c0 25 18 43 43 43c24 0 42 -17 42 -41c0 -25 -19 -44 -44 -44zM64 0l87 710h56l-75 -609h1l461 609h52l-86 -710h-57l74 604h-1l-459 -604h-53z
" />
    <glyph glyph-name="uni04E6" unicode="&#x4e6;" horiz-adv-x="755" 
d="M397 828c-24 0 -41 18 -41 42c0 25 18 43 42 43c25 0 43 -17 43 -41c0 -25 -19 -44 -44 -44zM549 828c-24 0 -41 18 -41 42c0 25 18 43 43 43c24 0 42 -17 42 -41c0 -25 -19 -44 -44 -44zM349 -5c-167 0 -279 109 -279 297c0 222 145 423 364 423
c166 0 279 -106 279 -296c0 -227 -140 -424 -364 -424zM352 48c184 0 302 174 302 370c0 159 -86 245 -225 245c-181 0 -301 -180 -301 -370c0 -157 87 -245 224 -245z" />
    <glyph glyph-name="uni04E8" unicode="&#x4e8;" horiz-adv-x="754" 
d="M433 715c166 0 279 -106 279 -296c0 -227 -139 -424 -364 -424c-166 0 -278 109 -278 297c0 222 145 423 363 423zM428 664c-153 0 -263 -127 -293 -284h519c1 13 1 26 1 39c0 154 -83 245 -227 245zM351 47c157 0 268 123 297 284h-520c-1 -13 -1 -25 -1 -38
c0 -152 83 -246 224 -246z" />
    <glyph glyph-name="uni04EA" unicode="&#x4ea;" horiz-adv-x="754" 
d="M396 828c-24 0 -41 18 -41 42c0 25 18 43 42 43c25 0 43 -17 43 -41c0 -25 -19 -44 -44 -44zM548 828c-24 0 -41 18 -41 42c0 25 18 43 43 43c24 0 42 -17 42 -41c0 -25 -19 -44 -44 -44zM433 715c166 0 279 -106 279 -296c0 -227 -139 -424 -364 -424
c-166 0 -278 109 -278 297c0 222 145 423 363 423zM428 664c-153 0 -263 -127 -293 -284h519c1 13 1 26 1 39c0 154 -83 245 -227 245zM351 47c157 0 268 123 297 284h-520c-1 -13 -1 -25 -1 -38c0 -152 83 -246 224 -246z" />
    <glyph glyph-name="uni04EC" unicode="&#x4ec;" horiz-adv-x="665" 
d="M305 828c-24 0 -41 18 -41 42c0 25 18 43 42 43c25 0 43 -17 43 -41c0 -25 -19 -44 -44 -44zM457 828c-24 0 -41 18 -41 42c0 25 18 43 43 43c24 0 42 -17 42 -41c0 -25 -19 -44 -44 -44zM348 715c170 0 272 -116 272 -298c0 -227 -134 -422 -357 -422
c-119 0 -192 51 -237 119l44 37c33 -57 96 -103 194 -103c154 0 263 122 292 283h-369l7 51h368c0 11 1 21 1 32c0 154 -83 249 -220 249c-69 0 -132 -26 -190 -75l-35 40c70 60 149 87 230 87z" />
    <glyph glyph-name="uni04EE" unicode="&#x4ee;" horiz-adv-x="588" 
d="M501 867l-6 -45h-251l6 45h251zM559 710h61l-282 -536c-52 -98 -89 -179 -184 -179c-35 0 -78 13 -99 38l20 47c22 -24 51 -34 77 -34c56 0 87 48 131 134l-199 530h61l170 -469h2z" />
    <glyph glyph-name="uni04F0" unicode="&#x4f0;" horiz-adv-x="588" 
d="M296 828c-24 0 -41 18 -41 42c0 25 18 43 42 43c25 0 43 -17 43 -41c0 -25 -19 -44 -44 -44zM448 828c-24 0 -41 18 -41 42c0 25 18 43 43 43c24 0 42 -17 42 -41c0 -25 -19 -44 -44 -44zM559 710h61l-282 -536c-52 -98 -89 -179 -184 -179c-35 0 -78 13 -99 38l20 47
c22 -24 51 -34 77 -34c56 0 87 48 131 134l-199 530h61l170 -469h2z" />
    <glyph glyph-name="uni04F2" unicode="&#x4f2;" horiz-adv-x="588" 
d="M453 935l-129 -138h-54l124 138h59zM460 797h-53l123 138h59zM559 710h61l-282 -536c-52 -98 -89 -179 -184 -179c-35 0 -78 13 -99 38l20 47c22 -24 51 -34 77 -34c56 0 87 48 131 134l-199 530h61l170 -469h2z" />
    <glyph glyph-name="uni04F4" unicode="&#x4f4;" horiz-adv-x="589" 
d="M287 828c-24 0 -41 18 -41 42c0 25 18 43 42 43c25 0 43 -17 43 -41c0 -25 -19 -44 -44 -44zM439 828c-24 0 -41 18 -41 42c0 25 18 43 43 43c24 0 42 -17 42 -41c0 -25 -19 -44 -44 -44zM496 710h57l-88 -710h-56l37 304c-62 -33 -146 -52 -201 -52
c-137 0 -178 69 -159 221l30 237h56l-30 -238c-15 -124 13 -168 116 -168c45 0 123 13 195 51z" />
    <glyph glyph-name="uni04F6" unicode="&#x4f6;" horiz-adv-x="503" 
d="M531 658h-330l-75 -606h91l-27 -196h-47l15 144h-94l88 710h385z" />
    <glyph glyph-name="uni04F8" unicode="&#x4f8;" horiz-adv-x="784" 
d="M388 828c-24 0 -41 18 -41 42c0 25 18 43 42 43c25 0 43 -17 43 -41c0 -25 -19 -44 -44 -44zM540 828c-24 0 -41 18 -41 42c0 25 18 43 43 43c24 0 42 -17 42 -41c0 -25 -19 -44 -44 -44zM64 0l88 710h55l-36 -293h141c162 0 202 -85 200 -184
c-3 -153 -103 -233 -266 -233h-182zM605 0l87 710h56l-87 -710h-56zM126 52h125c122 0 202 60 204 178c1 98 -48 136 -152 136h-138z" />
    <glyph glyph-name="uni04FA" unicode="&#x4fa;" horiz-adv-x="515" 
d="M542 658h-330l-36 -292h185l-6 -45h-184l-40 -321h-1l-6 -53c-12 -101 -50 -149 -127 -149c-16 0 -41 2 -61 9l8 47c17 -6 35 -7 48 -7c44 0 67 29 77 110l44 364h-91l6 45h91l42 344h387z" />
    <glyph glyph-name="uni04FC" unicode="&#x4fc;" horiz-adv-x="567" 
d="M316 -202c-25 0 -45 3 -71 9l8 49c26 -5 42 -8 61 -8c88 0 138 74 138 141c0 53 -24 103 -66 175l-87 144h-3l-230 -308h-66l266 355l-177 355h63l154 -311h3l228 311h69l-266 -356l95 -162c36 -61 75 -130 75 -200c0 -103 -76 -194 -194 -194z" />
    <glyph glyph-name="uni04FE" unicode="&#x4fe;" horiz-adv-x="578" 
d="M501 328h-150l168 -328h-66l-154 310h-3l-230 -310h-66l247 328h-151l6 45h156l-169 337h63l155 -312h2l228 312h69l-254 -337h155z" />
    <glyph glyph-name="uni0510" unicode="&#x510;" horiz-adv-x="545" 
d="M255 -5c-145 0 -210 82 -210 172c0 122 91 187 156 206v1c-56 28 -85 84 -85 145c0 121 92 196 224 196c88 0 156 -32 201 -96l-43 -38c-40 54 -93 82 -161 81c-100 0 -165 -59 -165 -148c0 -80 60 -118 121 -118h116l-6 -50h-112c-108 0 -189 -72 -189 -173
c0 -71 56 -125 156 -125c77 0 151 36 202 105l40 -39c-62 -82 -151 -119 -245 -119z" />
    <glyph glyph-name="uni0512" unicode="&#x512;" horiz-adv-x="670" 
d="M634 710l-88 -710l-2 -16c-16 -133 -77 -186 -179 -186c-22 0 -43 4 -63 9l7 48c16 -5 36 -8 55 -8c67 0 111 29 124 137l83 674h-249c-23 -146 -46 -262 -70 -361c-56 -232 -120 -301 -221 -301c-21 0 -33 4 -42 7l8 48c8 -2 20 -3 28 -3c74 0 127 69 175 269
c27 111 52 237 75 393h359z" />
    <glyph glyph-name="uni051A" unicode="&#x51a;" horiz-adv-x="772" 
d="M715 419c0 -117 -37 -227 -104 -305l74 -83l-37 -39l-75 84c-59 -51 -134 -81 -222 -81c-167 0 -279 109 -279 297c0 222 145 423 364 423c166 0 279 -106 279 -296zM354 48c72 0 133 26 182 70l-75 84l36 39l75 -84c54 68 84 162 84 261c0 159 -86 244 -226 244
c-180 0 -300 -179 -300 -369c0 -157 87 -245 224 -245z" />
    <glyph glyph-name="uni051C" unicode="&#x51c;" horiz-adv-x="919" 
d="M211 0l-119 710h58l100 -617h2l232 617h64l84 -612h3l246 612h61l-292 -710h-58l-87 618h-2l-234 -618h-58z" />
    <glyph glyph-name="uni048C" unicode="&#x48c;" horiz-adv-x="579" 
d="M342 415c148 0 205 -79 195 -199c-12 -151 -108 -216 -247 -216h-220l70 562h-93l6 45h93l13 103h56l-13 -103h156l-6 -45h-155l-19 -147h164zM479 215c7 91 -33 148 -143 148h-164l-39 -311h161c118 0 177 65 185 163z" />
    <glyph glyph-name="uni048E" unicode="&#x48e;" horiz-adv-x="565" 
d="M554 536c0 -113 -52 -197 -147 -231l53 -144l-41 -20l-57 152c-18 -3 -38 -5 -59 -5h-148l-35 -288h-56l87 710h222c123 0 181 -66 181 -174zM387 352c70 28 109 94 109 184c0 85 -57 122 -133 122h-163l-39 -319h149c12 0 24 1 36 3l-50 135l39 19z" />
    <glyph glyph-name="uni0416.alt" horiz-adv-x="840" 
d="M869 710l-273 -358l192 -352h-64l-176 323h-92l-40 -323h-54l40 323l-105 -3l-241 -320h-64l269 359l-178 351h63l169 -338l92 -1l42 339h54l-41 -339l86 4l254 335h67z" />
    <glyph glyph-name="uni041A.alt" horiz-adv-x="588" 
d="M608 710l-283 -358l201 -352h-64l-185 323h-117l-40 -323h-56l87 710h56l-42 -339l113 4l263 335h67z" />
    <glyph glyph-name="uni040C.alt" horiz-adv-x="588" 
d="M480 916l-128 -128h-56l123 127zM608 710l-283 -358l201 -352h-64l-185 323h-117l-40 -323h-56l87 710h56l-42 -339l113 4l263 335h67z" />
    <glyph glyph-name="uni0496.alt" horiz-adv-x="864" 
d="M760 52h51l-27 -196h-47l15 144h-28l-176 323h-92l-40 -323h-54l40 323l-105 -3l-241 -320h-64l269 359l-178 351h63l169 -338l92 -1l42 339h54l-41 -339l86 4l254 335h67l-273 -358z" />
    <glyph glyph-name="uni049A.alt" horiz-adv-x="612" 
d="M496 52h52l-27 -196h-47l15 144h-27l-185 323h-117l-40 -323h-56l87 710h56l-42 -339l113 4l263 335h67l-283 -358z" />
    <glyph glyph-name="uni049E.alt" horiz-adv-x="598" 
d="M619 710l-283 -358l201 -352h-64l-185 323h-117l-40 -323h-56l70 569h-103l5 45h103l12 96h56l-12 -96h144l-5 -45h-144l-25 -198l113 4l263 335h67z" />
    <glyph glyph-name="uni04A0.alt" horiz-adv-x="683" 
d="M703 710l-283 -358l201 -352h-64l-185 323h-117l-40 -323h-56l81 658h-183l6 52h239l-42 -339l113 4l263 335h67z" />
    <glyph glyph-name="uni04C1.alt" horiz-adv-x="840" 
d="M483 784c-70 0 -119 42 -118 124l47 4c-2 -48 23 -88 77 -88s93 43 110 91l41 -11c-30 -81 -92 -120 -157 -120zM869 710l-273 -358l192 -352h-64l-176 323h-92l-40 -323h-54l40 323l-105 -3l-241 -320h-64l269 359l-178 351h63l169 -338l92 -1l42 339h54l-41 -339l86 4
l254 335h67z" />
    <glyph glyph-name="uni04C3.alt" horiz-adv-x="599" 
d="M338 368c117 -14 199 -96 199 -230c0 -180 -99 -340 -286 -340c-30 0 -52 3 -75 9l7 49c25 -5 43 -8 67 -8c149 0 229 140 229 288c0 132 -90 188 -216 188c-33 0 -62 0 -103 -1l-40 -323h-56l87 710h56l-42 -339l113 4l263 335h67z" />
    <glyph glyph-name="uni04DC.alt" horiz-adv-x="840" 
d="M417 828c-24 0 -41 18 -41 42c0 25 18 43 42 43c25 0 43 -17 43 -41c0 -25 -19 -44 -44 -44zM569 828c-24 0 -41 18 -41 42c0 25 18 43 43 43c24 0 42 -17 42 -41c0 -25 -19 -44 -44 -44zM869 710l-273 -358l192 -352h-64l-176 323h-92l-40 -323h-54l40 323l-105 -3
l-241 -320h-64l269 359l-178 351h63l169 -338l92 -1l42 339h54l-41 -339l86 4l254 335h67z" />
    <glyph glyph-name="uni051A.alt" horiz-adv-x="759" 
d="M715 419c0 -167 -76 -318 -206 -386l121 -125l-40 -43l-137 145c-32 -10 -66 -15 -102 -15c-167 0 -279 109 -279 297c0 222 145 423 364 423c166 0 279 -106 279 -296zM130 293c0 -157 87 -245 224 -245c184 0 302 174 302 370c0 159 -86 244 -225 244
c-181 0 -301 -179 -301 -369z" />
    <glyph glyph-name="uni0528" unicode="&#x528;" horiz-adv-x="668" 
d="M576 710h56l-87 -710h-56l38 310h-369l-44 -363c-12 -101 -50 -149 -127 -149c-16 0 -41 2 -61 9l8 47c17 -6 35 -7 48 -7c44 0 67 29 77 110l5 43l87 710h56l-42 -348h369z" />
    <glyph glyph-name="uni052E" unicode="&#x52e;" horiz-adv-x="692" 
d="M642 52l-26 -196h-48l15 144h-92l81 658h-250c-23 -146 -46 -262 -70 -361c-56 -232 -120 -301 -221 -301c-21 0 -33 4 -42 7l8 48c8 -2 20 -3 28 -3c74 0 127 69 175 269c27 111 52 237 75 393h359l-82 -658h90z" />
    <glyph glyph-name="uni0414.loclBGR" horiz-adv-x="687" 
d="M648 52l-27 -196h-47l15 144h-547l-24 -144h-47l25 196h69l305 658h60l145 -658h73zM392 639l-268 -587h392l-123 587h-1z" />
    <glyph glyph-name="uni041B.loclBGR" horiz-adv-x="605" 
d="M0 0l328 710h61l156 -710h-59l-134 638h-3l-290 -638h-59z" />
    <glyph glyph-name="uni0424.loclBGR" horiz-adv-x="771" 
d="M739 402c0 -206 -128 -377 -352 -388l-9 -74h-55l9 73c-159 12 -273 117 -273 295c0 204 133 384 357 393l7 61h56l-8 -62c162 -13 268 -119 268 -298zM392 63c177 9 290 151 290 338c0 142 -77 240 -218 250zM117 313c0 -141 77 -240 222 -250l72 588
c-175 -6 -294 -158 -294 -338z" />
    <glyph glyph-name="uni0430" unicode="&#x430;" horiz-adv-x="542" 
d="M212 -5c-109 0 -167 86 -167 194c0 160 97 301 248 301c56 0 113 -19 145 -56l3 1l6 50h52l-59 -485h-52l16 132h-2c-44 -80 -110 -137 -190 -137zM219 43c104 0 188 122 206 260l10 77c-36 48 -102 62 -141 62c-120 0 -196 -122 -196 -254c0 -84 42 -145 121 -145z" />
    <glyph glyph-name="uni0431" unicode="&#x431;" horiz-adv-x="551" 
d="M259 -5c-114 0 -198 85 -198 246c0 224 81 436 270 466c73 11 134 13 184 41l11 -44c-50 -34 -121 -35 -188 -46c-126 -20 -189 -137 -215 -284l2 -1c41 71 113 117 195 117c106 0 190 -70 190 -198c0 -165 -94 -297 -251 -297zM260 44c115 0 197 101 197 245
c0 104 -68 153 -146 153c-114 0 -198 -103 -198 -207c0 -123 64 -191 147 -191z" />
    <glyph glyph-name="uni0432" unicode="&#x432;" horiz-adv-x="493" 
d="M347 260c59 -11 93 -54 93 -108c0 -99 -89 -157 -195 -157c-126 0 -203 69 -203 197c0 155 100 298 264 298c66 0 145 -27 145 -109c0 -65 -49 -101 -104 -119v-2zM307 444c-106 0 -190 -86 -210 -199l160 28c65 12 141 38 141 101c0 57 -52 70 -91 70zM247 43
c77 0 140 41 140 108c0 58 -52 91 -149 75l-146 -24v-9c0 -96 53 -150 155 -150z" />
    <glyph glyph-name="uni0433" unicode="&#x433;" horiz-adv-x="419" 
d="M178 -5c-100 0 -149 44 -149 107c0 62 41 105 123 147l88 45c70 35 90 57 90 93c0 33 -30 56 -87 56c-53 0 -98 -23 -127 -49l-30 37c35 32 98 59 162 59c74 0 136 -32 136 -100c0 -66 -43 -98 -114 -135l-94 -47c-70 -36 -93 -66 -93 -102c0 -40 37 -64 97 -64
c55 0 104 24 144 68l39 -28c-48 -56 -107 -87 -185 -87z" />
    <glyph glyph-name="uni0453" unicode="&#x453;" horiz-adv-x="419" 
d="M210 560l125 138h62l-129 -138h-58zM178 -5c-100 0 -149 44 -149 107c0 62 41 105 123 147l88 45c70 35 90 57 90 93c0 33 -30 56 -87 56c-53 0 -98 -23 -127 -49l-30 37c35 32 98 59 162 59c74 0 136 -32 136 -100c0 -66 -43 -98 -114 -135l-94 -47
c-70 -36 -93 -66 -93 -102c0 -40 37 -64 97 -64c55 0 104 24 144 68l39 -28c-48 -56 -107 -87 -185 -87z" />
    <glyph glyph-name="uni0491" unicode="&#x491;" horiz-adv-x="408" 
d="M388 623h42l-22 -185h-250l-54 -438h-53l60 485h255z" />
    <glyph glyph-name="uni0434" unicode="&#x434;" horiz-adv-x="539" 
d="M240 -4c-119 0 -197 76 -197 203c0 159 104 291 249 291c55 0 114 -23 152 -66l1 1c-7 151 -63 232 -182 259c-28 9 -54 11 -83 12l12 45c262 -3 307 -187 307 -351c-1 -218 -76 -394 -259 -394zM240 45c133 0 204 140 206 326c-41 57 -107 71 -144 71
c-122 0 -206 -107 -206 -239c0 -101 59 -158 144 -158z" />
    <glyph glyph-name="uni0435" unicode="&#x435;" horiz-adv-x="466" 
d="M236 45c55 0 100 23 140 68l40 -30c-48 -56 -103 -87 -181 -87c-113 0 -190 76 -190 201c0 159 100 293 251 293c57 0 145 -29 145 -121c0 -129 -195 -167 -344 -179c3 -93 61 -145 139 -145zM295 442c-98 0 -182 -84 -196 -208c123 10 289 39 289 132
c0 61 -56 76 -93 76z" />
    <glyph glyph-name="uni0450" unicode="&#x450;" horiz-adv-x="466" 
d="M353 560h-56l-96 138h61zM236 45c55 0 100 23 140 68l40 -30c-48 -56 -103 -87 -181 -87c-113 0 -190 76 -190 201c0 159 100 293 251 293c57 0 145 -29 145 -121c0 -129 -195 -167 -344 -179c3 -93 61 -145 139 -145zM295 442c-98 0 -182 -84 -196 -208
c123 10 289 39 289 132c0 61 -56 76 -93 76z" />
    <glyph glyph-name="uni0451" unicode="&#x451;" horiz-adv-x="466" 
d="M225 591c-24 0 -41 18 -41 42c0 25 18 43 42 43c25 0 43 -17 43 -41c0 -25 -19 -44 -44 -44zM377 591c-24 0 -41 18 -41 42c0 25 18 43 43 43c24 0 42 -17 42 -41c0 -25 -19 -44 -44 -44zM236 45c55 0 100 23 140 68l40 -30c-48 -56 -103 -87 -181 -87
c-113 0 -190 76 -190 201c0 159 100 293 251 293c57 0 145 -29 145 -121c0 -129 -195 -167 -344 -179c3 -93 61 -145 139 -145zM295 442c-98 0 -182 -84 -196 -208c123 10 289 39 289 132c0 61 -56 76 -93 76z" />
    <glyph glyph-name="uni0436" unicode="&#x436;" horiz-adv-x="700" 
d="M569 138c33 -80 49 -94 80 -99l-15 -43c-8 0 -16 0 -23 2c-44 9 -65 55 -90 123l-35 82c-40 -31 -83 -56 -128 -73l-16 -130h-52l36 287l-2 1c-133 -58 -218 -173 -255 -288h-52c24 87 81 173 153 239l-38 109c-28 81 -49 93 -80 99l14 42c8 0 16 0 23 -2
c44 -9 70 -53 91 -123l32 -90c38 29 78 51 120 65l18 146h51l-37 -304l1 -1c140 70 230 190 266 305h52c-25 -90 -82 -178 -156 -247z" />
    <glyph glyph-name="uni0437" unicode="&#x437;" horiz-adv-x="433" 
d="M190 -4c-98 0 -150 29 -184 53l21 47c33 -28 85 -52 165 -52c82 0 138 44 138 109c0 47 -41 75 -105 75h-98l6 42l72 1c67 0 136 38 136 101c0 56 -57 71 -98 71c-62 0 -112 -18 -150 -41l-19 44c37 22 97 44 171 44c63 0 150 -27 150 -110c0 -64 -46 -102 -100 -122v-2
c56 -12 88 -53 88 -104c0 -100 -83 -156 -193 -156z" />
    <glyph glyph-name="uni0438" unicode="&#x438;" horiz-adv-x="522" 
d="M190 -5c-99 0 -148 57 -129 196l40 294h52l-39 -290c-17 -120 24 -151 88 -151c80 0 178 100 196 224l26 217h52l-59 -485h-53l17 130h-2c-43 -80 -113 -135 -189 -135z" />
    <glyph glyph-name="uni0439" unicode="&#x439;" horiz-adv-x="522" 
d="M293 558c-70 0 -119 41 -118 130l47 6c-2 -57 23 -96 76 -96c55 0 94 42 111 99l41 -13c-30 -88 -92 -126 -157 -126zM190 -5c-99 0 -148 57 -129 196l40 294h52l-39 -290c-17 -120 24 -151 88 -151c80 0 178 100 196 224l26 217h52l-59 -485h-53l17 130h-2
c-43 -80 -113 -135 -189 -135z" />
    <glyph glyph-name="uni045D" unicode="&#x45d;" horiz-adv-x="522" 
d="M283 560l-96 138h61l91 -138h-56zM190 -5c-99 0 -148 57 -129 196l40 294h52l-39 -290c-17 -120 24 -151 88 -151c80 0 178 100 196 224l26 217h52l-59 -485h-53l17 130h-2c-43 -80 -113 -135 -189 -135z" />
    <glyph glyph-name="uni048B" unicode="&#x48b;" horiz-adv-x="533" 
d="M293 558c-70 0 -119 41 -118 130l47 6c-2 -57 23 -96 76 -96c55 0 94 42 111 99l41 -13c-30 -88 -92 -126 -157 -126zM465 46h25l-1 -10l-83 -175h-40l58 139c-37 7 -51 39 -47 81c1 14 6 46 6 53h-2c-42 -80 -116 -139 -192 -139c-98 0 -148 57 -129 196l40 294h52
l-39 -290c-16 -120 25 -151 89 -151c80 0 178 99 195 223l27 218h52l-46 -374c-6 -50 4 -64 35 -65z" />
    <glyph glyph-name="uni043A" unicode="&#x43a;" horiz-adv-x="488" 
d="M52 0l59 485h52l-39 -317l2 -1c141 76 250 204 286 318h54c-24 -87 -84 -173 -157 -243l45 -104c35 -80 49 -94 80 -99l-15 -43c-7 0 -16 0 -22 2c-45 9 -63 57 -92 123l-37 85c-46 -40 -99 -73 -152 -98l-12 -108h-52z" />
    <glyph glyph-name="uni045C" unicode="&#x45c;" horiz-adv-x="488" 
d="M225 560l125 138h62l-129 -138h-58zM52 0l59 485h52l-39 -317l2 -1c141 76 250 204 286 318h54c-24 -87 -84 -173 -157 -243l45 -104c35 -80 49 -94 80 -99l-15 -43c-7 0 -16 0 -22 2c-45 9 -63 57 -92 123l-37 85c-46 -40 -99 -73 -152 -98l-12 -108h-52z" />
    <glyph glyph-name="uni043B" unicode="&#x43b;" horiz-adv-x="506" 
d="M304 485h157l-60 -485h-52l54 438h-95c-59 0 -94 -34 -107 -92c-12 -53 -20 -102 -32 -155c-33 -149 -88 -195 -150 -195c-15 0 -25 1 -36 6l13 46c6 -3 12 -4 20 -4c42 0 82 47 106 162c9 43 18 93 27 146c14 80 73 133 155 133z" />
    <glyph glyph-name="uni043C" unicode="&#x43c;" horiz-adv-x="619" 
d="M49 0l60 485h52l138 -337h2l222 337h52l-60 -485h-51l49 392h-1l-201 -303h-37l-124 306h-1l-48 -395h-52z" />
    <glyph glyph-name="uni043D" unicode="&#x43d;" horiz-adv-x="536" 
d="M438 485h52l-60 -485h-52l26 213l-274 -1l-26 -212h-53l60 485h53l-28 -227l274 2z" />
    <glyph glyph-name="uni043E" unicode="&#x43e;" horiz-adv-x="539" 
d="M242 -5c-118 0 -198 74 -198 203c0 155 98 292 255 292c117 0 196 -70 196 -198c0 -165 -94 -297 -253 -297zM243 44c117 0 199 101 199 245c0 104 -62 153 -146 153c-117 0 -199 -108 -199 -240c0 -97 57 -158 146 -158z" />
    <glyph glyph-name="uni043F" unicode="&#x43f;" horiz-adv-x="540" 
d="M51 0l61 485h52l-17 -132h2c49 84 128 137 206 137c95 0 139 -59 121 -198l-39 -292h-52l38 289c15 116 -21 152 -81 152c-88 0 -197 -104 -214 -240l-24 -201h-53z" />
    <glyph glyph-name="uni0440" unicode="&#x440;" horiz-adv-x="553" 
d="M27 -198l84 683h52l-16 -132l2 -1c42 81 107 138 196 138c107 0 164 -87 164 -194c0 -160 -97 -301 -250 -301c-56 0 -114 19 -147 55l-2 -1l-31 -247h-52zM251 44c126 0 205 117 205 249c0 84 -40 149 -121 149c-107 0 -192 -120 -209 -255l-10 -81
c31 -49 96 -62 135 -62z" />
    <glyph glyph-name="uni0441" unicode="&#x441;" horiz-adv-x="481" 
d="M231 -4c-102 0 -186 69 -186 199c0 159 97 295 255 295c64 0 127 -25 163 -78l-42 -32c-28 43 -74 62 -122 62c-124 0 -201 -112 -201 -243c0 -96 60 -154 136 -154c59 0 110 20 150 68l41 -30c-49 -59 -110 -87 -194 -87z" />
    <glyph glyph-name="uni0442" unicode="&#x442;" horiz-adv-x="820" 
d="M52 0l59 485h52l-16 -126l3 -1c46 82 117 132 185 132c72 0 115 -38 118 -130l2 -1c45 81 115 131 186 131c92 0 136 -59 118 -198l-40 -292h-52l39 289c15 116 -21 153 -76 153c-75 0 -173 -97 -192 -241l-26 -201h-52l38 289c14 116 -20 153 -75 153
c-78 0 -179 -108 -195 -240l-24 -202h-52z" />
    <glyph glyph-name="uni0443" unicode="&#x443;" horiz-adv-x="521" 
d="M426 485h52l-52 -421c-26 -218 -133 -266 -247 -266c-51 0 -105 12 -155 40l17 48c51 -30 101 -40 139 -40c91 0 173 38 195 222l7 62l-2 1c-42 -81 -113 -136 -190 -136c-98 0 -148 57 -129 196l40 294h52l-39 -290c-16 -120 25 -150 88 -151c85 0 183 105 198 233z" />
    <glyph glyph-name="uni045E" unicode="&#x45e;" horiz-adv-x="521" 
d="M295 558c-70 0 -119 41 -118 130l47 6c-2 -57 23 -96 76 -96c55 0 94 42 111 99l41 -13c-30 -88 -92 -126 -157 -126zM426 485h52l-52 -421c-26 -218 -133 -266 -247 -266c-51 0 -105 12 -155 40l17 48c51 -30 101 -40 139 -40c91 0 173 38 195 222l7 62l-2 1
c-42 -81 -113 -136 -190 -136c-98 0 -148 57 -129 196l40 294h52l-39 -290c-16 -120 25 -150 88 -151c85 0 183 105 198 233z" />
    <glyph glyph-name="uni0444" unicode="&#x444;" horiz-adv-x="711" 
d="M275 -198l36 284h-2c-26 -51 -79 -91 -131 -91c-92 0 -139 80 -138 198c1 157 73 297 199 297c44 0 90 -21 112 -58l2 1l37 303h52l-42 -337l2 -1c25 53 79 92 131 92c93 0 139 -80 138 -198c-1 -156 -73 -297 -198 -297c-44 0 -91 22 -113 59l-2 -1l-31 -251h-52z
M464 44c97 0 153 117 154 247c1 89 -30 152 -97 152c-68 0 -128 -92 -143 -212l-15 -123c27 -50 73 -64 101 -64zM191 43c67 0 128 90 143 212l14 123c-26 50 -72 64 -101 64c-97 0 -153 -117 -154 -247c0 -90 30 -152 98 -152z" />
    <glyph glyph-name="uni0445" unicode="&#x445;" horiz-adv-x="448" 
d="M1 0l192 244l-132 241h61l105 -199h4l154 199h64l-193 -243l133 -242h-61l-107 200h-2l-157 -200h-61z" />
    <glyph glyph-name="uni0447" unicode="&#x447;" horiz-adv-x="489" 
d="M331 0l34 279h-2c-43 -74 -120 -120 -188 -120c-93 0 -134 53 -119 163l23 163h52l-22 -160c-13 -89 19 -119 80 -118c81 0 177 91 190 186l12 92h53l-60 -485h-53z" />
    <glyph glyph-name="uni0446" unicode="&#x446;" horiz-adv-x="556" 
d="M491 46h25l-28 -186h-45l18 139c-71 2 -84 52 -80 108c1 14 2 20 2 27h-2c-42 -80 -116 -139 -192 -139c-98 0 -148 57 -129 196l40 294h52l-39 -290c-16 -120 25 -151 89 -151c80 0 178 99 195 223l27 218h52l-42 -340c-9 -71 -1 -98 57 -99z" />
    <glyph glyph-name="uni0448" unicode="&#x448;" horiz-adv-x="790" 
d="M178 -5c-87 0 -136 59 -117 200l40 290h52l-39 -286c-17 -123 26 -155 77 -155c63 0 159 86 176 228l26 213h53l-36 -290c-14 -120 25 -151 79 -151c64 0 161 100 177 230l25 211h53l-60 -485h-52l16 131h-2c-39 -82 -109 -136 -173 -136c-69 0 -115 44 -115 136h-2
c-41 -82 -118 -136 -178 -136z" />
    <glyph glyph-name="uni0449" unicode="&#x449;" horiz-adv-x="824" 
d="M759 46h24l-28 -186h-45l18 139c-71 2 -83 52 -79 108c1 14 1 20 2 27h-2c-40 -82 -110 -139 -176 -139c-69 0 -115 44 -115 136h-2c-41 -82 -118 -136 -178 -136c-87 0 -136 59 -117 200l40 290h52l-39 -286c-17 -123 26 -155 77 -155c63 0 159 86 176 228l26 213h53
l-36 -290c-14 -120 25 -151 79 -151c64 0 161 100 177 230l25 211h53l-42 -340c-8 -71 -1 -98 57 -99z" />
    <glyph glyph-name="uni045F" unicode="&#x45f;" horiz-adv-x="522" 
d="M424 485h52l-59 -485h-53l17 130h-2c-31 -57 -75 -101 -126 -122l-27 -181h-43l21 169c-5 -1 -9 -1 -14 -1c-99 0 -148 57 -129 196l40 294h52l-39 -290c-17 -120 24 -151 88 -151c80 0 178 100 196 224z" />
    <glyph glyph-name="uni044C" unicode="&#x44c;" horiz-adv-x="444" 
d="M201 -5c-123 0 -169 80 -154 190l41 300h52l-29 -201h2c26 45 87 88 158 88c73 0 138 -51 138 -142c0 -126 -73 -235 -208 -235zM204 42c92 0 152 79 152 181c0 64 -44 101 -104 101c-68 0 -143 -57 -153 -143c-12 -86 25 -139 105 -139z" />
    <glyph glyph-name="uni044A" unicode="&#x44a;" horiz-adv-x="516" 
d="M343 372c73 0 138 -51 138 -142c0 -126 -73 -235 -208 -235c-123 0 -169 80 -154 190l35 253h-120l6 47h172l-29 -201h2c26 45 87 88 158 88zM276 42c92 0 152 79 152 181c0 64 -44 101 -104 101c-68 0 -143 -57 -153 -143c-12 -86 25 -139 105 -139z" />
    <glyph glyph-name="uni044B" unicode="&#x44b;" horiz-adv-x="625" 
d="M201 -5c-123 0 -169 80 -154 190l41 300h52l-29 -201h2c25 43 86 88 155 88c68 0 133 -51 133 -142c0 -126 -73 -235 -200 -235zM468 0l60 485h52l-60 -485h-52zM204 42c84 0 144 79 144 181c0 64 -44 101 -96 101c-68 0 -143 -57 -153 -143c-12 -86 25 -139 105 -139z
" />
    <glyph glyph-name="uni0459" unicode="&#x459;" horiz-adv-x="758" 
d="M586 372c72 0 137 -51 137 -142c0 -126 -73 -235 -208 -235c-123 0 -169 80 -153 190l34 253h-89c-59 0 -94 -34 -107 -92c-11 -53 -19 -102 -31 -155c-32 -149 -88 -195 -150 -195c-15 0 -25 1 -36 6l13 46c6 -3 12 -4 20 -4c42 0 82 47 106 162c9 43 18 93 27 146
c14 80 73 133 155 133h150l-29 -205h2c24 46 89 92 159 92zM518 42c92 0 152 79 152 181c0 64 -44 101 -104 101c-68 0 -142 -57 -153 -143s25 -139 105 -139z" />
    <glyph glyph-name="uni045A" unicode="&#x45a;" horiz-adv-x="751" 
d="M587 372c72 0 137 -51 137 -142c0 -126 -73 -235 -208 -235c-123 0 -169 80 -153 190l4 28l-246 -1l-26 -212h-53l60 485h53l-28 -227l246 2l30 225h52l-29 -205h2c24 46 89 92 159 92zM519 42c92 0 152 79 152 181c0 64 -44 101 -104 101c-68 0 -142 -57 -153 -143
s25 -139 105 -139z" />
    <glyph glyph-name="uni0455" unicode="&#x455;" horiz-adv-x="403" 
d="M179 -5c-68 0 -125 25 -165 73l34 36c36 -41 79 -61 131 -61c67 0 117 32 117 86s-55 73 -115 100c-62 26 -117 59 -117 129c0 82 72 132 154 132c52 0 103 -15 145 -61l-35 -36c-35 39 -72 51 -113 51c-54 0 -98 -32 -98 -84c0 -43 44 -67 94 -89
c63 -29 138 -57 138 -136c1 -92 -77 -140 -170 -140z" />
    <glyph glyph-name="uni0454" unicode="&#x454;" horiz-adv-x="487" 
d="M246 45c53 0 105 18 145 65l41 -29c-50 -59 -110 -85 -190 -85c-109 0 -197 69 -197 200c0 161 98 294 261 294c56 0 119 -20 156 -67l-40 -33c-30 36 -75 52 -118 52c-105 0 -176 -74 -199 -175l261 3l-6 -44l-261 -3c-1 -8 -1 -17 -1 -25c0 -97 61 -153 148 -153z" />
    <glyph glyph-name="uni044D" unicode="&#x44d;" horiz-adv-x="475" 
d="M232 490c118 0 198 -69 198 -201c0 -164 -97 -293 -255 -293c-63 0 -124 20 -164 67l35 38c31 -40 80 -56 131 -56c99 0 175 69 195 180l-264 -3l5 44l265 4v17c0 99 -55 155 -148 155c-51 0 -104 -23 -134 -48l-30 37c38 33 101 59 166 59z" />
    <glyph glyph-name="uni0456" unicode="&#x456;" horiz-adv-x="223" 
d="M160 591c-24 0 -40 18 -40 42c0 25 18 43 42 43s42 -17 42 -41c0 -25 -18 -44 -44 -44zM56 0l59 485h52l-60 -485h-51z" />
    <glyph glyph-name="uni0457" unicode="&#x457;" horiz-adv-x="223" 
d="M83 591c-24 0 -41 18 -41 42c0 25 18 43 42 43c25 0 43 -17 43 -41c0 -25 -19 -44 -44 -44zM235 591c-24 0 -41 18 -41 42c0 25 18 43 43 43c24 0 42 -17 42 -41c0 -25 -19 -44 -44 -44zM56 0l59 485h52l-60 -485h-51z" />
    <glyph glyph-name="uni0458" unicode="&#x458;" horiz-adv-x="188" 
d="M137 591c-24 0 -40 18 -40 42c0 25 18 43 42 43s42 -17 42 -41c0 -25 -18 -44 -44 -44zM-45 -202c-26 0 -46 5 -66 17l13 45c19 -14 32 -16 49 -16c36 0 66 20 76 106l66 535h52l-67 -541c-11 -98 -49 -146 -123 -146z" />
    <glyph glyph-name="uni045B" unicode="&#x45b;" horiz-adv-x="529" 
d="M350 461c93 0 136 -60 118 -199l-34 -262h-52l34 259c15 116 -21 152 -79 152c-92 0 -196 -106 -212 -240l-21 -171h-52l69 565h-74l6 44h73l16 127h52l-16 -127h197l-6 -44h-196l-30 -245h2c48 87 124 141 205 141z" />
    <glyph glyph-name="uni044E" unicode="&#x44e;" horiz-adv-x="723" 
d="M489 490c112 0 193 -70 193 -198c0 -166 -94 -297 -247 -297c-114 0 -193 76 -193 204v14l-114 -1l-26 -212h-52l60 485h52l-28 -227l113 1c21 128 111 231 242 231zM437 44c109 0 192 98 192 241c0 99 -55 157 -142 157c-109 -1 -193 -103 -193 -239
c0 -97 56 -159 143 -159z" />
    <glyph glyph-name="uni044F" unicode="&#x44f;" horiz-adv-x="484" 
d="M259 486h179l-60 -486h-52l24 189l-114 -1c-10 0 -20 0 -29 1l-55 -81c-46 -70 -70 -112 -131 -112h-12l-4 43c34 3 52 15 97 84l52 77c-64 20 -88 67 -88 118c0 110 83 168 193 168zM355 237l26 201h-123c-83 0 -139 -45 -139 -118c0 -55 40 -84 116 -84z" />
    <glyph glyph-name="uni0452" unicode="&#x452;" horiz-adv-x="526" 
d="M351 461c123 0 143 -113 128 -237c-22 -179 -125 -354 -282 -426l-19 38c141 72 227 233 247 397c11 95 1 178 -87 178c-93 0 -197 -106 -213 -240l-21 -171h-52l69 565h-74l6 44h73l16 127h52l-16 -127h197l-6 -44h-196l-30 -245h2c48 87 124 141 206 141z" />
    <glyph glyph-name="uni0463" unicode="&#x463;" horiz-adv-x="727" 
d="M491 -5c-124 0 -173 80 -152 200l12 78c20 123 8 168 -49 168c-64 0 -165 -104 -181 -239l-25 -202h-53l60 485h52l-16 -131l2 -1c45 84 117 137 177 137c88 0 111 -70 85 -208h1c25 45 88 90 157 90c72 0 138 -51 138 -142c0 -126 -74 -235 -208 -235zM493 42
c93 0 152 79 152 181c0 64 -43 101 -104 101c-68 0 -141 -59 -152 -139c-13 -90 24 -143 104 -143z" />
    <glyph glyph-name="uni0473" unicode="&#x473;" horiz-adv-x="536" 
d="M297 490c118 0 196 -70 196 -198c0 -165 -93 -297 -253 -297c-119 0 -198 74 -198 203c0 155 97 292 255 292zM295 443c-100 0 -174 -77 -195 -181l341 6v18c0 109 -62 157 -146 157zM242 42c100 0 173 74 193 182l-341 -6v-17c0 -98 56 -159 148 -159z" />
    <glyph glyph-name="uni0475" unicode="&#x475;" horiz-adv-x="479" 
d="M162 0l-109 485h55l89 -424h1l138 327c29 70 55 101 110 101c21 0 48 -7 64 -26l-17 -44c-15 14 -30 21 -45 21c-30 0 -44 -24 -66 -74l-160 -366h-60z" />
    <glyph glyph-name="uni0493" unicode="&#x493;" horiz-adv-x="419" 
d="M180 42c55 0 104 24 144 68l39 -28c-48 -56 -107 -87 -185 -87c-100 0 -149 44 -149 106c0 63 44 104 125 142l4 2l1 2l-85 32l17 37l111 -42l38 19c70 35 90 58 90 94c0 33 -30 56 -87 56c-53 0 -98 -23 -127 -49l-30 37c35 32 98 59 162 59c74 0 136 -32 136 -99
c0 -64 -43 -93 -111 -127l-17 -9v-1l101 -38l-16 -37l-128 48l-37 -19c-71 -35 -93 -66 -93 -102c0 -40 37 -64 97 -64z" />
    <glyph glyph-name="uni0495" unicode="&#x495;" horiz-adv-x="488" 
d="M282 252c93 0 168 -59 168 -181c0 -165 -106 -273 -263 -273c-34 0 -57 3 -85 11l12 46c26 -9 45 -11 69 -11c126 0 214 89 214 222c0 105 -64 137 -128 137c-91 0 -148 -71 -153 -113l-12 -90h-53l60 485h302l-5 -47h-250l-32 -261h2c30 41 88 75 154 75z" />
    <glyph glyph-name="uni0497" unicode="&#x497;" horiz-adv-x="718" 
d="M663 46h24l-28 -186h-45l18 139c-45 1 -70 27 -87 72c-9 17 -21 48 -59 132c-40 -31 -83 -56 -128 -73l-16 -130h-52l36 287l-2 1c-133 -58 -218 -173 -255 -288h-52c24 87 81 173 153 239l-38 109c-28 82 -49 94 -80 99l14 42c8 1 16 0 23 -2c44 -9 70 -53 91 -122
l32 -91c38 29 78 51 120 65l18 146h51l-37 -304l1 -1c140 70 230 190 266 305h52c-25 -90 -82 -178 -156 -247c40 -92 54 -126 65 -147c14 -34 34 -45 71 -45z" />
    <glyph glyph-name="uni0499" unicode="&#x499;" horiz-adv-x="433" 
d="M295 256c56 -12 88 -53 88 -104c0 -97 -78 -153 -183 -156l-15 -34c39 -7 69 -25 69 -59c0 -56 -42 -86 -103 -86c-18 0 -35 1 -52 5l3 34c14 -3 29 -5 42 -5c38 0 67 16 67 50c0 23 -21 34 -70 38l22 58c-81 4 -126 30 -157 52l21 47c33 -28 85 -52 165 -52
c82 0 138 44 138 109c0 47 -41 75 -105 75h-98l6 42l72 1c67 0 136 38 136 101c0 56 -57 71 -98 71c-62 0 -112 -18 -150 -41l-19 44c37 22 97 44 171 44c63 0 150 -27 150 -110c0 -64 -46 -102 -100 -122v-2z" />
    <glyph glyph-name="uni049B" unicode="&#x49b;" horiz-adv-x="507" 
d="M448 46h24l-28 -186h-45l18 139c-46 1 -69 28 -88 72c-10 18 -22 48 -60 135c-48 -40 -101 -74 -153 -98l-12 -108h-52l59 485h52l-39 -317l2 -1c141 76 250 204 286 318h54c-23 -86 -82 -172 -157 -243c41 -96 56 -129 67 -151c17 -34 35 -45 72 -45z" />
    <glyph glyph-name="uni049D" unicode="&#x49d;" horiz-adv-x="504" 
d="M370 138c34 -80 49 -94 80 -99l-15 -43c-7 0 -16 0 -22 2c-45 9 -65 56 -91 123l-40 93c-7 -5 -14 -11 -22 -16l-16 -132h-38l13 105c-34 -21 -70 -39 -101 -52l-14 -119h-52l59 485h52l-39 -319l2 -1c34 15 68 36 99 58l20 157h38l-16 -125c82 68 137 154 161 230h54
c-24 -87 -84 -173 -157 -243z" />
    <glyph glyph-name="uni049F" unicode="&#x49f;" horiz-adv-x="488" 
d="M353 138c35 -80 50 -94 81 -99l-15 -43c-8 0 -16 0 -23 2c-45 9 -63 57 -91 123l-38 85c-46 -40 -98 -73 -151 -98l-13 -108h-52l73 588h-75l4 40h76l13 108h52l-13 -108h158l-5 -40h-158l-52 -420l2 -1c140 76 249 204 286 318h53c-23 -87 -83 -173 -157 -243z" />
    <glyph glyph-name="uni04A1" unicode="&#x4a1;" horiz-adv-x="543" 
d="M409 138c35 -80 49 -94 80 -99l-15 -43c-7 0 -16 0 -22 2c-45 9 -64 57 -92 123l-37 85c-46 -40 -99 -73 -152 -98l-12 -108h-52l53 438h-126l6 47h178l-39 -317l2 -1c141 76 250 204 287 318h53c-24 -87 -84 -173 -157 -243z" />
    <glyph glyph-name="uni04A3" unicode="&#x4a3;" horiz-adv-x="568" 
d="M503 46h24l-28 -186h-45l18 139c-71 2 -90 46 -82 113l12 101l-272 -1l-26 -212h-53l60 485h53l-28 -227l272 2l27 225h53l-42 -340c-8 -71 -1 -98 57 -99z" />
    <glyph glyph-name="uni04A5" unicode="&#x4a5;" horiz-adv-x="619" 
d="M624 485l-5 -47h-145l-54 -438h-53l26 213l-263 -1l-26 -212h-53l60 485h53l-28 -227l263 2l28 225h197z" />
    <glyph glyph-name="uni04A7" unicode="&#x4a7;" horiz-adv-x="814" 
d="M513 -202c-35 0 -57 3 -85 11l11 46c27 -9 45 -11 70 -11c126 0 214 89 214 222c0 105 -64 137 -128 137c-92 0 -148 -71 -154 -113l-12 -90h-52l38 288c15 117 -21 153 -75 153c-86 0 -195 -104 -211 -239l-25 -202h-52l60 485h52l-16 -131l2 -1c49 84 128 137 203 137
c89 0 132 -59 114 -199l-14 -114h2c29 41 86 75 153 75c93 0 168 -59 168 -181c0 -165 -107 -273 -263 -273z" />
    <glyph glyph-name="uni0525" unicode="&#x525;" horiz-adv-x="569" 
d="M506 46h24l-28 -186h-45l18 139c-71 2 -93 46 -82 117l24 170c18 119 -22 155 -82 155c-84 0 -190 -104 -206 -239l-25 -202h-52l60 485h52l-16 -131l2 -1c49 84 125 137 198 137c95 0 144 -59 123 -198l-22 -149c-11 -69 -1 -96 57 -97z" />
    <glyph glyph-name="uni04A9" unicode="&#x4a9;" horiz-adv-x="622" 
d="M586 109l27 -39c-42 -52 -112 -74 -166 -74c-39 0 -74 7 -104 22c-32 -15 -68 -22 -109 -22c-116 0 -198 78 -198 207c0 118 55 227 132 296l36 -29c-79 -81 -115 -167 -115 -266c0 -95 54 -162 152 -162c22 0 43 3 62 8c-40 35 -60 99 -60 168c0 138 71 270 180 270
c84 0 117 -67 117 -151c0 -115 -57 -229 -147 -289l1 -2h-1c16 -4 33 -6 51 -6c51 0 108 25 142 69zM292 211c0 -61 18 -111 53 -141l2 1h3c84 50 138 160 138 266c0 60 -20 103 -66 103c-73 0 -130 -118 -130 -229z" />
    <glyph glyph-name="uni04AB" unicode="&#x4ab;" horiz-adv-x="481" 
d="M234 45c59 0 110 20 150 68l41 -30c-47 -57 -105 -85 -184 -87l-15 -34c39 -7 69 -25 69 -59c0 -56 -42 -86 -103 -86c-18 0 -35 1 -52 5l3 34c14 -3 29 -5 42 -5c38 0 67 16 67 50c0 23 -21 34 -70 38l23 59c-90 11 -160 78 -160 197c0 159 97 295 255 295
c64 0 127 -25 163 -78l-42 -32c-28 43 -74 62 -122 62c-124 0 -201 -112 -201 -243c0 -96 60 -154 136 -154z" />
    <glyph glyph-name="uni04AD" unicode="&#x4ad;" horiz-adv-x="845" 
d="M783 46h24l-28 -186h-45l18 139c-71 2 -93 46 -82 118l24 169c17 117 -19 156 -74 156c-70 0 -165 -97 -184 -241l-26 -201h-52l38 289c14 116 -20 153 -75 153c-77 0 -177 -108 -193 -240l-24 -202h-52l59 485h52l-16 -126l3 -1c45 82 116 132 183 132
c72 0 115 -38 118 -130l2 -1c41 81 112 131 178 131c92 0 138 -60 117 -198l-22 -149c-11 -69 -1 -96 57 -97z" />
    <glyph glyph-name="uni04AF" unicode="&#x4af;" horiz-adv-x="471" 
d="M148 -198l20 190l-113 493h55l96 -431h2c79 103 171 253 208 431h54c-43 -207 -148 -368 -248 -493l-22 -190h-52z" />
    <glyph glyph-name="uni04B1" unicode="&#x4b1;" horiz-adv-x="471" 
d="M470 485c-38 -184 -127 -332 -217 -445h102l-5 -40h-128l-22 -198h-52l21 198h-117l4 40h104l-105 445h55l96 -431h2c79 103 171 253 208 431h54z" />
    <glyph glyph-name="uni04B3" unicode="&#x4b3;" horiz-adv-x="476" 
d="M334 104c26 -47 43 -58 80 -58h25l-28 -186h-45l18 139c-47 1 -70 29 -96 79l-68 120h-2l-156 -198h-61l192 244l-132 241h61l105 -198h3l154 198h65l-192 -242z" />
    <glyph glyph-name="uni04B5" unicode="&#x4b5;" horiz-adv-x="556" 
d="M458 654l-7 -46h-292l6 46h293zM491 46h25l-28 -186h-45l18 139c-71 2 -84 52 -80 108c1 14 2 20 2 27h-2c-42 -80 -116 -139 -192 -139c-98 0 -148 57 -129 196l40 294h52l-39 -290c-16 -120 25 -151 89 -151c80 0 178 99 195 223l27 218h52l-42 -340
c-9 -71 -1 -98 57 -99z" />
    </font>
</defs>
</svg>
