<?xml version="1.0" standalone="no"?>
<!DOCTYPE svg PUBLIC "-//W3C//DTD SVG 1.1//EN" "http://www.w3.org/Graphics/SVG/1.1/DTD/svg11.dtd" >
<svg xmlns="http://www.w3.org/2000/svg" xmlns:xlink="http://www.w3.org/1999/xlink" version="1.1">
<metadata>
Created by FontForge 20201107 at Sat Jul 15 12:17:13 2017
 By Jimmy Wärting
Copyright \(c\) 2015 by Kostas Bartsokas. All rights reserved.
</metadata>
<defs>
<font id="AvertaStdCY-Thin" horiz-adv-x="0" >
  <font-face 
    font-family="Averta Std CY Thin"
    font-weight="200"
    font-stretch="normal"
    units-per-em="1000"
    panose-1="0 0 3 0 0 0 0 0 0 0"
    ascent="800"
    descent="-200"
    x-height="485"
    cap-height="710"
    bbox="-663 -257 1349 1034"
    underline-thickness="22"
    underline-position="-79"
    stemh="31"
    stemv="31"
    unicode-range="U+000D-2E18"
  />
<missing-glyph horiz-adv-x="440" 
 />
    <glyph glyph-name=".notdef" horiz-adv-x="440" 
 />
    <glyph glyph-name="space" unicode=" " horiz-adv-x="278" 
 />
    <glyph glyph-name="A" unicode="A" horiz-adv-x="647" 
d="M28 0l274 710h40l277 -710h-38l-79 204h-357l-79 -204h-38zM157 237h332l-165 430h-2z" />
    <glyph glyph-name="Aacute" unicode="&#xc1;" horiz-adv-x="647" 
d="M300 792l113 125h42l-116 -125h-39zM28 0l274 710h40l277 -710h-38l-79 204h-357l-79 -204h-38zM157 237h332l-165 430h-2z" />
    <glyph glyph-name="Abreve" unicode="&#x102;" horiz-adv-x="647" 
d="M323 788c-66 0 -121 45 -126 116h29c4 -43 38 -86 97 -86s93 43 96 86h30c-6 -71 -60 -116 -126 -116zM28 0l274 710h40l277 -710h-38l-79 204h-357l-79 -204h-38zM157 237h332l-165 430h-2z" />
    <glyph glyph-name="uni1EAE" unicode="&#x1eae;" horiz-adv-x="647" 
d="M303 887l118 134h43l-125 -134h-36zM324 785c-70 0 -128 40 -134 104h31c4 -38 40 -77 103 -77s99 39 102 77h32c-7 -64 -64 -104 -134 -104zM28 0l274 710h40l277 -710h-38l-79 204h-357l-79 -204h-38zM157 237h332l-165 430h-2z" />
    <glyph glyph-name="uni1EB6" unicode="&#x1eb6;" horiz-adv-x="647" 
d="M323 788c-66 0 -121 45 -126 116h29c4 -43 38 -86 97 -86s93 43 96 86h30c-6 -71 -60 -116 -126 -116zM28 0l274 710h40l277 -710h-38l-79 204h-357l-79 -204h-38zM157 237h332l-165 430h-2zM323 -118c19 0 34 -15 34 -34c0 -20 -15 -33 -34 -33c-20 0 -34 13 -34 33
c0 19 14 34 34 34z" />
    <glyph glyph-name="uni1EB0" unicode="&#x1eb0;" horiz-adv-x="647" 
d="M311 887l-125 134h43l118 -134h-36zM323 785c-70 0 -128 40 -134 104h31c4 -38 40 -77 103 -77s99 39 102 77h32c-7 -64 -64 -104 -134 -104zM28 0l274 710h40l277 -710h-38l-79 204h-357l-79 -204h-38zM157 237h332l-165 430h-2z" />
    <glyph glyph-name="uni1EB2" unicode="&#x1eb2;" horiz-adv-x="647" 
d="M294 890c36 26 82 51 82 82c0 29 -22 37 -51 37s-64 -13 -81 -28l-8 25c26 16 58 28 92 28c41 0 76 -18 76 -62c0 -37 -47 -63 -73 -82h-37zM323 785c-70 0 -128 40 -134 104h31c4 -38 40 -77 103 -77s99 39 102 77h32c-7 -64 -64 -104 -134 -104zM28 0l274 710h40
l277 -710h-38l-79 204h-357l-79 -204h-38zM157 237h332l-165 430h-2z" />
    <glyph glyph-name="uni1EB4" unicode="&#x1eb4;" horiz-adv-x="647" 
d="M403 910c-31 0 -60 21 -86 39c-22 16 -43 28 -62 28c-28 0 -49 -22 -63 -60l-27 9c17 51 45 80 88 80c30 0 53 -16 78 -31c23 -15 46 -35 70 -35s47 18 59 59l27 -9c-17 -55 -50 -80 -84 -80zM323 785c-70 0 -128 40 -134 104h31c4 -38 40 -77 103 -77s99 39 102 77h32
c-7 -64 -64 -104 -134 -104zM28 0l274 710h40l277 -710h-38l-79 204h-357l-79 -204h-38zM157 237h332l-165 430h-2z" />
    <glyph glyph-name="uni01CD" unicode="&#x1cd;" horiz-adv-x="647" 
d="M303 792l-120 112h40l98 -89h2l100 89h40l-123 -112h-37zM28 0l274 710h40l277 -710h-38l-79 204h-357l-79 -204h-38zM157 237h332l-165 430h-2z" />
    <glyph glyph-name="Acircumflex" unicode="&#xc2;" horiz-adv-x="647" 
d="M183 792l123 112h37l120 -112h-40l-98 89h-2l-101 -89h-39zM28 0l274 710h40l277 -710h-38l-79 204h-357l-79 -204h-38zM157 237h332l-165 430h-2z" />
    <glyph glyph-name="uni1EA4" unicode="&#x1ea4;" horiz-adv-x="647" 
d="M453 852l118 135h43l-125 -135h-36zM183 792l123 112h37l120 -112h-40l-98 89h-2l-101 -89h-39zM28 0l274 710h40l277 -710h-38l-79 204h-357l-79 -204h-38zM157 237h332l-165 430h-2z" />
    <glyph glyph-name="uni1EAC" unicode="&#x1eac;" horiz-adv-x="647" 
d="M183 792l123 112h37l120 -112h-40l-98 89h-2l-101 -89h-39zM28 0l274 710h40l277 -710h-38l-79 204h-357l-79 -204h-38zM157 237h332l-165 430h-2zM323 -118c19 0 34 -15 34 -34c0 -20 -15 -33 -34 -33c-20 0 -34 13 -34 33c0 19 14 34 34 34z" />
    <glyph glyph-name="uni1EA6" unicode="&#x1ea6;" horiz-adv-x="647" 
d="M487 851l-125 134h43l118 -134h-36zM183 792l123 112h37l120 -112h-40l-98 89h-2l-101 -89h-39zM28 0l274 710h40l277 -710h-38l-79 204h-357l-79 -204h-38zM157 237h332l-165 430h-2z" />
    <glyph glyph-name="uni1EA8" unicode="&#x1ea8;" horiz-adv-x="647" 
d="M448 853c38 28 87 54 87 86c0 29 -23 38 -54 38s-68 -13 -85 -29l-9 26c27 17 61 29 97 29c44 0 80 -19 80 -64c0 -39 -49 -66 -77 -86h-39zM183 792l123 112h37l120 -112h-40l-98 89h-2l-101 -89h-39zM28 0l274 710h40l277 -710h-38l-79 204h-357l-79 -204h-38zM157 237
h332l-165 430h-2z" />
    <glyph glyph-name="uni1EAA" unicode="&#x1eaa;" horiz-adv-x="647" 
d="M406 923c-31 0 -60 21 -86 39c-22 16 -43 28 -62 28c-28 0 -49 -22 -63 -60l-27 9c17 51 45 80 88 80c30 0 53 -16 78 -31c23 -15 46 -35 70 -35s47 18 59 59l27 -9c-17 -55 -50 -80 -84 -80zM183 792l123 112h37l120 -112h-40l-98 89h-2l-101 -89h-39zM28 0l274 710h40
l277 -710h-38l-79 204h-357l-79 -204h-38zM157 237h332l-165 430h-2z" />
    <glyph glyph-name="Adieresis" unicode="&#xc4;" horiz-adv-x="647" 
d="M247 821c-19 0 -34 15 -34 33c0 20 15 33 34 33s33 -14 33 -33s-14 -33 -33 -33zM401 821c-20 0 -34 15 -34 33c0 20 14 33 34 33c19 0 33 -14 33 -33s-14 -33 -33 -33zM28 0l274 710h40l277 -710h-38l-79 204h-357l-79 -204h-38zM157 237h332l-165 430h-2z" />
    <glyph glyph-name="uni1EA0" unicode="&#x1ea0;" horiz-adv-x="647" 
d="M28 0l274 710h40l277 -710h-38l-79 204h-357l-79 -204h-38zM157 237h332l-165 430h-2zM323 -118c19 0 34 -15 34 -34c0 -20 -15 -33 -34 -33c-20 0 -34 13 -34 33c0 19 14 34 34 34z" />
    <glyph glyph-name="Agrave" unicode="&#xc0;" horiz-adv-x="647" 
d="M306 792l-115 125h42l113 -125h-40zM28 0l274 710h40l277 -710h-38l-79 204h-357l-79 -204h-38zM157 237h332l-165 430h-2z" />
    <glyph glyph-name="uni1EA2" unicode="&#x1ea2;" horiz-adv-x="647" 
d="M304 782c40 29 91 57 91 91c0 32 -24 41 -56 41c-33 0 -72 -14 -90 -31l-9 28c28 18 64 31 102 31c46 0 84 -20 84 -69c0 -41 -52 -70 -81 -91h-41zM28 0l274 710h40l277 -710h-38l-79 204h-357l-79 -204h-38zM157 237h332l-165 430h-2z" />
    <glyph glyph-name="Amacron" unicode="&#x100;" horiz-adv-x="647" 
d="M188 829v32h271v-32h-271zM28 0l274 710h40l277 -710h-38l-79 204h-357l-79 -204h-38zM157 237h332l-165 430h-2z" />
    <glyph glyph-name="Aogonek" unicode="&#x104;" horiz-adv-x="647" 
d="M652 -140l4 -29c-16 -8 -34 -13 -64 -13c-53 0 -87 27 -87 78c0 35 25 78 74 110l-77 198h-357l-79 -204h-38l274 710h40l277 -710h-3c-48 -23 -79 -63 -79 -100c0 -30 17 -53 58 -53c29 0 40 4 57 13zM157 237h332l-165 430h-2z" />
    <glyph glyph-name="Aring" unicode="&#xc5;" horiz-adv-x="647" 
d="M322 780c-41 0 -77 36 -77 77c0 42 35 77 77 77c43 0 79 -34 79 -77c0 -41 -35 -77 -79 -77zM322 809c28 0 51 22 51 48c0 27 -23 50 -51 50c-27 0 -49 -23 -49 -50c0 -26 22 -48 49 -48zM28 0l274 710h40l277 -710h-38l-79 204h-357l-79 -204h-38zM157 237h332l-165 430
h-2z" />
    <glyph glyph-name="Aringacute" unicode="&#x1fa;" horiz-adv-x="647" 
d="M322 780c-41 0 -77 36 -77 77c0 42 35 77 77 77c28 0 53 -15 67 -37l88 58h50l-127 -85c1 -4 1 -9 1 -13c0 -41 -35 -77 -79 -77zM322 907c-27 0 -49 -23 -49 -50c0 -26 22 -48 49 -48c28 0 51 22 51 48c0 27 -23 50 -51 50zM342 710l277 -710h-38l-79 204h-357l-79 -204
h-38l274 710h40zM157 237h332l-165 430h-2z" />
    <glyph glyph-name="Atilde" unicode="&#xc3;" horiz-adv-x="647" 
d="M401 792c-32 0 -61 21 -87 39c-22 16 -43 28 -63 28c-28 0 -49 -22 -63 -60l-27 9c17 51 45 81 88 81c31 0 54 -16 79 -32c23 -15 46 -35 71 -35c24 0 47 18 59 60l27 -9c-17 -56 -50 -81 -84 -81zM28 0l274 710h40l277 -710h-38l-79 204h-357l-79 -204h-38zM157 237h332
l-165 430h-2z" />
    <glyph glyph-name="AE" unicode="&#xc6;" horiz-adv-x="906" 
d="M6 0l404 710h440v-34h-381v-305h322v-34h-322v-303h401v-34h-437v204h-270l-117 -204h-40zM181 237h252v439h-1z" />
    <glyph glyph-name="AEacute" unicode="&#x1fc;" horiz-adv-x="906" 
d="M429 792l113 125h42l-116 -125h-39zM6 0l404 710h440v-34h-381v-305h322v-34h-322v-303h401v-34h-437v204h-270l-117 -204h-40zM181 237h252v439h-1z" />
    <glyph glyph-name="B" unicode="B" horiz-adv-x="615" 
d="M89 0v710h209c127 0 226 -45 226 -172c0 -75 -41 -142 -126 -165v-2c83 -13 160 -70 160 -182s-77 -189 -243 -189h-226zM124 386h190c81 0 173 35 173 148c0 87 -55 142 -191 142h-172v-290zM124 34h192c122 0 205 50 205 154c0 105 -74 165 -207 165h-190v-319z" />
    <glyph glyph-name="C" unicode="C" horiz-adv-x="716" 
d="M409 -3c-191 0 -348 125 -348 355c0 201 122 363 347 363c99 0 197 -41 273 -135l-28 -23c-69 86 -156 123 -245 123c-200 0 -310 -143 -310 -328c0 -207 137 -321 311 -321c110 0 187 50 244 122l28 -23c-63 -78 -147 -133 -272 -133z" />
    <glyph glyph-name="Cacute" unicode="&#x106;" horiz-adv-x="716" 
d="M372 792l113 125h42l-116 -125h-39zM409 -3c-191 0 -348 125 -348 355c0 201 122 363 347 363c99 0 197 -41 273 -135l-28 -23c-69 86 -156 123 -245 123c-200 0 -310 -143 -310 -328c0 -207 137 -321 311 -321c110 0 187 50 244 122l28 -23c-63 -78 -147 -133 -272 -133
z" />
    <glyph glyph-name="Ccaron" unicode="&#x10c;" horiz-adv-x="716" 
d="M388 792l-120 112h40l98 -89h2l100 89h40l-123 -112h-37zM409 -3c-191 0 -348 125 -348 355c0 201 122 363 347 363c99 0 197 -41 273 -135l-28 -23c-69 86 -156 123 -245 123c-200 0 -310 -143 -310 -328c0 -207 137 -321 311 -321c110 0 187 50 244 122l28 -23
c-63 -78 -147 -133 -272 -133z" />
    <glyph glyph-name="Ccedilla" unicode="&#xc7;" horiz-adv-x="716" 
d="M409 31c110 0 187 50 244 122l28 -23c-63 -78 -147 -133 -272 -133h-4l-13 -30v-2c41 -2 82 -29 82 -77c0 -39 -31 -73 -90 -73c-17 0 -35 2 -50 6v27c13 -4 27 -7 46 -7c33 0 64 15 64 49c0 26 -27 54 -83 54l1 21l15 33c-176 13 -316 137 -316 354
c0 201 122 363 347 363c99 0 197 -41 273 -135l-28 -23c-69 86 -156 123 -245 123c-200 0 -310 -143 -310 -328c0 -207 137 -321 311 -321z" />
    <glyph glyph-name="Ccircumflex" unicode="&#x108;" horiz-adv-x="716" 
d="M268 792l123 112h37l120 -112h-40l-98 89h-2l-101 -89h-39zM409 -3c-191 0 -348 125 -348 355c0 201 122 363 347 363c99 0 197 -41 273 -135l-28 -23c-69 86 -156 123 -245 123c-200 0 -310 -143 -310 -328c0 -207 137 -321 311 -321c110 0 187 50 244 122l28 -23
c-63 -78 -147 -133 -272 -133z" />
    <glyph glyph-name="Cdotaccent" unicode="&#x10a;" horiz-adv-x="716" 
d="M408 820c-19 0 -34 15 -34 34c0 20 15 33 34 33c20 0 34 -13 34 -33c0 -19 -14 -34 -34 -34zM409 -3c-191 0 -348 125 -348 355c0 201 122 363 347 363c99 0 197 -41 273 -135l-28 -23c-69 86 -156 123 -245 123c-200 0 -310 -143 -310 -328c0 -207 137 -321 311 -321
c110 0 187 50 244 122l28 -23c-63 -78 -147 -133 -272 -133z" />
    <glyph glyph-name="D" unicode="D" horiz-adv-x="710" 
d="M89 0v710h192c224 0 369 -146 369 -356s-143 -354 -366 -354h-195zM124 34h158c207 0 331 132 331 320c0 190 -131 322 -333 322h-156v-642z" />
    <glyph glyph-name="Eth" unicode="&#xd0;" horiz-adv-x="710" 
d="M281 710c224 0 369 -146 369 -356s-143 -354 -366 -354h-195v341h-84v34h84v335h192zM282 34c207 0 331 132 331 320c0 190 -131 322 -333 322h-156v-301h224v-34h-224v-307h158z" />
    <glyph glyph-name="Dcaron" unicode="&#x10e;" horiz-adv-x="710" 
d="M307 792l-120 112h40l98 -89h2l100 89h40l-123 -112h-37zM89 0v710h192c224 0 369 -146 369 -356s-143 -354 -366 -354h-195zM124 34h158c207 0 331 132 331 320c0 190 -131 322 -333 322h-156v-642z" />
    <glyph glyph-name="Dcroat" unicode="&#x110;" horiz-adv-x="710" 
d="M281 710c224 0 369 -146 369 -356s-143 -354 -366 -354h-195v341h-84v34h84v335h192zM282 34c207 0 331 132 331 320c0 190 -131 322 -333 322h-156v-301h224v-34h-224v-307h158z" />
    <glyph glyph-name="uni1E0C" unicode="&#x1e0c;" horiz-adv-x="710" 
d="M89 0v710h192c224 0 369 -146 369 -356s-143 -354 -366 -354h-195zM124 34h158c207 0 331 132 331 320c0 190 -131 322 -333 322h-156v-642zM326 -118c19 0 34 -15 34 -34c0 -20 -15 -33 -34 -33c-20 0 -34 13 -34 33c0 19 14 34 34 34z" />
    <glyph glyph-name="uni1E0E" unicode="&#x1e0e;" horiz-adv-x="710" 
d="M89 0v710h192c224 0 369 -146 369 -356s-143 -354 -366 -354h-195zM124 34h158c207 0 331 132 331 320c0 190 -131 322 -333 322h-156v-642zM462 -175h-271v32h271v-32z" />
    <glyph glyph-name="E" unicode="E" horiz-adv-x="570" 
d="M89 0v710h416v-34h-381v-304h319v-34h-319v-304h402v-34h-437z" />
    <glyph glyph-name="Eacute" unicode="&#xc9;" horiz-adv-x="570" 
d="M216 792l113 125h42l-116 -125h-39zM89 0v710h416v-34h-381v-304h319v-34h-319v-304h402v-34h-437z" />
    <glyph glyph-name="Ebreve" unicode="&#x114;" horiz-adv-x="570" 
d="M290 788c-66 0 -121 45 -126 116h29c4 -43 38 -86 97 -86s93 43 96 86h30c-6 -71 -60 -116 -126 -116zM89 0v710h416v-34h-381v-304h319v-34h-319v-304h402v-34h-437z" />
    <glyph glyph-name="Ecaron" unicode="&#x11a;" horiz-adv-x="570" 
d="M270 792l-120 112h40l98 -89h2l100 89h40l-123 -112h-37zM89 0v710h416v-34h-381v-304h319v-34h-319v-304h402v-34h-437z" />
    <glyph glyph-name="Ecircumflex" unicode="&#xca;" horiz-adv-x="570" 
d="M150 792l123 112h37l120 -112h-40l-98 89h-2l-101 -89h-39zM89 0v710h416v-34h-381v-304h319v-34h-319v-304h402v-34h-437z" />
    <glyph glyph-name="uni1EBE" unicode="&#x1ebe;" horiz-adv-x="570" 
d="M420 852l118 135h43l-125 -135h-36zM150 792l123 112h37l120 -112h-40l-98 89h-2l-101 -89h-39zM89 0v710h416v-34h-381v-304h319v-34h-319v-304h402v-34h-437z" />
    <glyph glyph-name="uni1EC6" unicode="&#x1ec6;" horiz-adv-x="570" 
d="M150 792l123 112h37l120 -112h-40l-98 89h-2l-101 -89h-39zM89 0v710h416v-34h-381v-304h319v-34h-319v-304h402v-34h-437zM303 -118c19 0 34 -15 34 -34c0 -20 -15 -33 -34 -33c-20 0 -34 13 -34 33c0 19 14 34 34 34z" />
    <glyph glyph-name="uni1EC0" unicode="&#x1ec0;" horiz-adv-x="570" 
d="M454 851l-125 134h43l118 -134h-36zM150 792l123 112h37l120 -112h-40l-98 89h-2l-101 -89h-39zM89 0v710h416v-34h-381v-304h319v-34h-319v-304h402v-34h-437z" />
    <glyph glyph-name="uni1EC2" unicode="&#x1ec2;" horiz-adv-x="570" 
d="M415 853c38 28 87 54 87 86c0 29 -23 38 -54 38s-68 -13 -85 -29l-9 26c27 17 61 29 97 29c44 0 80 -19 80 -64c0 -39 -49 -66 -77 -86h-39zM150 792l123 112h37l120 -112h-40l-98 89h-2l-101 -89h-39zM89 0v710h416v-34h-381v-304h319v-34h-319v-304h402v-34h-437z" />
    <glyph glyph-name="uni1EC4" unicode="&#x1ec4;" horiz-adv-x="570" 
d="M373 923c-31 0 -60 21 -86 39c-22 16 -43 28 -62 28c-28 0 -49 -22 -63 -60l-27 9c17 51 45 80 88 80c30 0 53 -16 78 -31c23 -15 46 -35 70 -35s47 18 59 59l27 -9c-17 -55 -50 -80 -84 -80zM150 792l123 112h37l120 -112h-40l-98 89h-2l-101 -89h-39zM89 0v710h416v-34
h-381v-304h319v-34h-319v-304h402v-34h-437z" />
    <glyph glyph-name="Edieresis" unicode="&#xcb;" horiz-adv-x="570" 
d="M214 821c-19 0 -34 15 -34 33c0 20 15 33 34 33s33 -14 33 -33s-14 -33 -33 -33zM368 821c-20 0 -34 15 -34 33c0 20 14 33 34 33c19 0 33 -14 33 -33s-14 -33 -33 -33zM89 0v710h416v-34h-381v-304h319v-34h-319v-304h402v-34h-437z" />
    <glyph glyph-name="Edotaccent" unicode="&#x116;" horiz-adv-x="570" 
d="M290 820c-19 0 -34 15 -34 34c0 20 15 33 34 33c20 0 34 -13 34 -33c0 -19 -14 -34 -34 -34zM89 0v710h416v-34h-381v-304h319v-34h-319v-304h402v-34h-437z" />
    <glyph glyph-name="uni1EB8" unicode="&#x1eb8;" horiz-adv-x="570" 
d="M89 0v710h416v-34h-381v-304h319v-34h-319v-304h402v-34h-437zM303 -118c19 0 34 -15 34 -34c0 -20 -15 -33 -34 -33c-20 0 -34 13 -34 33c0 19 14 34 34 34z" />
    <glyph glyph-name="Egrave" unicode="&#xc8;" horiz-adv-x="570" 
d="M322 792l-115 125h42l113 -125h-40zM89 0v710h416v-34h-381v-304h319v-34h-319v-304h402v-34h-437z" />
    <glyph glyph-name="uni1EBA" unicode="&#x1eba;" horiz-adv-x="570" 
d="M271 782c40 29 91 57 91 91c0 32 -24 41 -56 41c-33 0 -72 -14 -90 -31l-9 28c28 18 64 31 102 31c46 0 84 -20 84 -69c0 -41 -52 -70 -81 -91h-41zM89 0v710h416v-34h-381v-304h319v-34h-319v-304h402v-34h-437z" />
    <glyph glyph-name="Emacron" unicode="&#x112;" horiz-adv-x="570" 
d="M155 829v32h271v-32h-271zM89 0v710h416v-34h-381v-304h319v-34h-319v-304h402v-34h-437z" />
    <glyph glyph-name="Eogonek" unicode="&#x118;" horiz-adv-x="570" 
d="M561 -140l4 -29c-16 -8 -34 -13 -64 -13c-53 0 -87 27 -87 78c0 33 22 73 65 104h-390v710h416v-34h-381v-304h319v-34h-319v-304h402v-34h-1c-48 -23 -79 -63 -79 -100c0 -30 17 -53 58 -53c29 0 40 4 57 13z" />
    <glyph glyph-name="uni1EBC" unicode="&#x1ebc;" horiz-adv-x="570" 
d="M368 792c-32 0 -61 21 -87 39c-22 16 -43 28 -63 28c-28 0 -49 -22 -63 -60l-27 9c17 51 45 81 88 81c31 0 54 -16 79 -32c23 -15 46 -35 71 -35c24 0 47 18 59 60l27 -9c-17 -56 -50 -81 -84 -81zM89 0v710h416v-34h-381v-304h319v-34h-319v-304h402v-34h-437z" />
    <glyph glyph-name="F" unicode="F" horiz-adv-x="554" 
d="M89 0v710h436v-34h-401v-308h345v-34h-345v-334h-35z" />
    <glyph glyph-name="G" unicode="G" horiz-adv-x="760" 
d="M410 -3c-204 0 -349 144 -349 357s142 361 348 361c93 0 184 -26 260 -102l-24 -23c-69 66 -148 90 -236 90c-183 0 -311 -131 -311 -326c0 -191 127 -323 312 -323c94 0 177 25 238 76v205h-257v34h292v-257c-68 -61 -164 -92 -273 -92z" />
    <glyph glyph-name="Gbreve" unicode="&#x11e;" horiz-adv-x="760" 
d="M404 788c-66 0 -121 45 -126 116h29c4 -43 38 -86 97 -86s93 43 96 86h30c-6 -71 -60 -116 -126 -116zM410 -3c-204 0 -349 144 -349 357s142 361 348 361c93 0 184 -26 260 -102l-24 -23c-69 66 -148 90 -236 90c-183 0 -311 -131 -311 -326c0 -191 127 -323 312 -323
c94 0 177 25 238 76v205h-257v34h292v-257c-68 -61 -164 -92 -273 -92z" />
    <glyph glyph-name="Gcaron" unicode="&#x1e6;" horiz-adv-x="760" 
d="M384 792l-120 112h40l98 -89h2l100 89h40l-123 -112h-37zM410 -3c-204 0 -349 144 -349 357s142 361 348 361c93 0 184 -26 260 -102l-24 -23c-69 66 -148 90 -236 90c-183 0 -311 -131 -311 -326c0 -191 127 -323 312 -323c94 0 177 25 238 76v205h-257v34h292v-257
c-68 -61 -164 -92 -273 -92z" />
    <glyph glyph-name="Gcircumflex" unicode="&#x11c;" horiz-adv-x="760" 
d="M264 792l123 112h37l120 -112h-40l-98 89h-2l-101 -89h-39zM410 -3c-204 0 -349 144 -349 357s142 361 348 361c93 0 184 -26 260 -102l-24 -23c-69 66 -148 90 -236 90c-183 0 -311 -131 -311 -326c0 -191 127 -323 312 -323c94 0 177 25 238 76v205h-257v34h292v-257
c-68 -61 -164 -92 -273 -92z" />
    <glyph glyph-name="Gcommaaccent" unicode="&#x122;" horiz-adv-x="760" 
d="M410 -3c-204 0 -349 144 -349 357s142 361 348 361c93 0 184 -26 260 -102l-24 -23c-69 66 -148 90 -236 90c-183 0 -311 -131 -311 -326c0 -191 127 -323 312 -323c94 0 177 25 238 76v205h-257v34h292v-257c-68 -61 -164 -92 -273 -92zM329 -202l-10 24
c56 5 66 35 66 69c0 18 -2 36 -5 54h32c3 -16 5 -36 5 -54c0 -49 -23 -88 -88 -93z" />
    <glyph glyph-name="Gdotaccent" unicode="&#x120;" horiz-adv-x="760" 
d="M404 820c-19 0 -34 15 -34 34c0 20 15 33 34 33c20 0 34 -13 34 -33c0 -19 -14 -34 -34 -34zM410 -3c-204 0 -349 144 -349 357s142 361 348 361c93 0 184 -26 260 -102l-24 -23c-69 66 -148 90 -236 90c-183 0 -311 -131 -311 -326c0 -191 127 -323 312 -323
c94 0 177 25 238 76v205h-257v34h292v-257c-68 -61 -164 -92 -273 -92z" />
    <glyph glyph-name="uni1E20" unicode="&#x1e20;" horiz-adv-x="760" 
d="M269 829v32h271v-32h-271zM410 -3c-204 0 -349 144 -349 357s142 361 348 361c93 0 184 -26 260 -102l-24 -23c-69 66 -148 90 -236 90c-183 0 -311 -131 -311 -326c0 -191 127 -323 312 -323c94 0 177 25 238 76v205h-257v34h292v-257c-68 -61 -164 -92 -273 -92z" />
    <glyph glyph-name="H" unicode="H" horiz-adv-x="698" 
d="M89 0v710h35v-358h449v358h36v-710h-36v318h-449v-318h-35z" />
    <glyph glyph-name="Hbar" unicode="&#x126;" horiz-adv-x="698" 
d="M677 570v-29h-68v-541h-36v318h-449v-318h-35v541h-74v29h74v140h35v-140h449v140h36v-140h68zM573 352v189h-449v-189h449z" />
    <glyph glyph-name="uni1E2A" unicode="&#x1e2a;" horiz-adv-x="698" 
d="M89 0v710h35v-358h449v358h36v-710h-36v318h-449v-318h-35zM348 -209c-66 0 -120 45 -126 130h30c3 -56 38 -100 96 -100c59 0 93 44 97 100h30c-6 -85 -60 -130 -127 -130z" />
    <glyph glyph-name="Hcircumflex" unicode="&#x124;" horiz-adv-x="698" 
d="M208 792l123 112h37l120 -112h-40l-98 89h-2l-101 -89h-39zM89 0v710h35v-358h449v358h36v-710h-36v318h-449v-318h-35z" />
    <glyph glyph-name="uni1E24" unicode="&#x1e24;" horiz-adv-x="698" 
d="M89 0v710h35v-358h449v358h36v-710h-36v318h-449v-318h-35zM348 -118c19 0 34 -15 34 -34c0 -20 -15 -33 -34 -33c-20 0 -34 13 -34 33c0 19 14 34 34 34z" />
    <glyph glyph-name="I" unicode="I" horiz-adv-x="227" 
d="M95 0v710h36v-710h-36z" />
    <glyph glyph-name="IJ" unicode="&#x132;" horiz-adv-x="699" 
d="M95 0v710h36v-710h-36zM440 -3c-58 0 -133 31 -186 93l21 27c48 -53 105 -86 164 -86c88 0 147 48 147 186v493h35v-497c0 -148 -63 -216 -181 -216z" />
    <glyph glyph-name="Iacute" unicode="&#xcd;" horiz-adv-x="227" 
d="M96 792l113 125h42l-116 -125h-39zM95 0v710h36v-710h-36z" />
    <glyph glyph-name="Ibreve" unicode="&#x12c;" horiz-adv-x="227" 
d="M113 788c-66 0 -121 45 -126 116h29c4 -43 38 -86 97 -86s93 43 96 86h30c-6 -71 -60 -116 -126 -116zM95 0v710h36v-710h-36z" />
    <glyph glyph-name="uni01CF" unicode="&#x1cf;" horiz-adv-x="227" 
d="M93 792l-120 112h40l98 -89h2l100 89h40l-123 -112h-37zM95 0v710h36v-710h-36z" />
    <glyph glyph-name="Icircumflex" unicode="&#xce;" horiz-adv-x="227" 
d="M-27 792l123 112h37l120 -112h-40l-98 89h-2l-101 -89h-39zM95 0v710h36v-710h-36z" />
    <glyph glyph-name="Idieresis" unicode="&#xcf;" horiz-adv-x="227" 
d="M37 821c-19 0 -34 15 -34 33c0 20 15 33 34 33s33 -14 33 -33s-14 -33 -33 -33zM191 821c-20 0 -34 15 -34 33c0 20 14 33 34 33c19 0 33 -14 33 -33s-14 -33 -33 -33zM95 0v710h36v-710h-36z" />
    <glyph glyph-name="Idotaccent" unicode="&#x130;" horiz-adv-x="227" 
d="M113 820c-19 0 -34 15 -34 34c0 20 15 33 34 33c20 0 34 -13 34 -33c0 -19 -14 -34 -34 -34zM95 0v710h36v-710h-36z" />
    <glyph glyph-name="uni1ECA" unicode="&#x1eca;" horiz-adv-x="227" 
d="M95 0v710h36v-710h-36zM114 -118c19 0 34 -15 34 -34c0 -20 -15 -33 -34 -33c-20 0 -34 13 -34 33c0 19 14 34 34 34z" />
    <glyph glyph-name="Igrave" unicode="&#xcc;" horiz-adv-x="227" 
d="M91 792l-115 125h42l113 -125h-40zM95 0v710h36v-710h-36z" />
    <glyph glyph-name="uni1EC8" unicode="&#x1ec8;" horiz-adv-x="227" 
d="M94 782c40 29 91 57 91 91c0 32 -24 41 -56 41c-33 0 -72 -14 -90 -31l-9 28c28 18 64 31 102 31c46 0 84 -20 84 -69c0 -41 -52 -70 -81 -91h-41zM95 0v710h36v-710h-36z" />
    <glyph glyph-name="Imacron" unicode="&#x12a;" horiz-adv-x="227" 
d="M-22 829v32h271v-32h-271zM95 0v710h36v-710h-36z" />
    <glyph glyph-name="Iogonek" unicode="&#x12e;" horiz-adv-x="227" 
d="M165 -140l4 -29c-16 -8 -34 -13 -64 -13c-53 0 -87 27 -87 78c0 36 26 80 77 112v702h36v-710h-2c-48 -23 -79 -63 -79 -100c0 -30 17 -53 58 -53c29 0 40 4 57 13z" />
    <glyph glyph-name="Itilde" unicode="&#x128;" horiz-adv-x="227" 
d="M191 792c-32 0 -61 21 -87 39c-22 16 -43 28 -63 28c-28 0 -49 -22 -63 -60l-27 9c17 51 45 81 88 81c31 0 54 -16 79 -32c23 -15 46 -35 71 -35c24 0 47 18 59 60l27 -9c-17 -56 -50 -81 -84 -81zM95 0v710h36v-710h-36z" />
    <glyph glyph-name="J" unicode="J" horiz-adv-x="472" 
d="M213 -3c-58 0 -133 31 -186 93l21 27c48 -53 105 -86 164 -86c88 0 147 48 147 186v493h35v-497c0 -148 -63 -216 -181 -216z" />
    <glyph glyph-name="uni00A40301" horiz-adv-x="472" 
d="M355 792l113 125h42l-116 -125h-39zM213 -3c-58 0 -133 31 -186 93l21 27c48 -53 105 -86 164 -86c88 0 147 48 147 186v493h35v-497c0 -148 -63 -216 -181 -216z" />
    <glyph glyph-name="Jcircumflex" unicode="&#x134;" horiz-adv-x="472" 
d="M238 792l123 112h37l120 -112h-40l-98 89h-2l-101 -89h-39zM213 -3c-58 0 -133 31 -186 93l21 27c48 -53 105 -86 164 -86c88 0 147 48 147 186v493h35v-497c0 -148 -63 -216 -181 -216z" />
    <glyph glyph-name="K" unicode="K" horiz-adv-x="619" 
d="M89 0v710h35v-465h2l400 465h46l-287 -334l293 -376h-46l-271 349l-137 -158v-191h-35z" />
    <glyph glyph-name="Kcommaaccent" unicode="&#x136;" horiz-adv-x="619" 
d="M89 0v710h35v-465h2l400 465h46l-287 -334l293 -376h-46l-271 349l-137 -158v-191h-35zM246 -202l-10 24c56 5 66 35 66 69c0 18 -2 36 -5 54h32c3 -16 5 -36 5 -54c0 -49 -23 -88 -88 -93z" />
    <glyph glyph-name="L" unicode="L" horiz-adv-x="534" 
d="M89 0v710h35v-676h386v-34h-421z" />
    <glyph glyph-name="Lacute" unicode="&#x139;" horiz-adv-x="534" 
d="M186 792l113 125h42l-116 -125h-39zM89 0v710h35v-676h386v-34h-421z" />
    <glyph glyph-name="Lcaron" unicode="&#x13d;" horiz-adv-x="534" 
d="M280 594l25 163h38l-36 -163h-27zM89 0v710h35v-676h386v-34h-421z" />
    <glyph glyph-name="Lcommaaccent" unicode="&#x13b;" horiz-adv-x="534" 
d="M89 0v710h35v-676h386v-34h-421zM221 -202l-10 24c56 5 66 35 66 69c0 18 -2 36 -5 54h32c3 -16 5 -36 5 -54c0 -49 -23 -88 -88 -93z" />
    <glyph glyph-name="Ldot" unicode="&#x13f;" horiz-adv-x="534" 
d="M89 0v710h35v-676h386v-34h-421zM380 302c-20 0 -35 15 -35 35s15 34 35 34s35 -14 35 -34s-15 -35 -35 -35z" />
    <glyph glyph-name="uni1E36" unicode="&#x1e36;" horiz-adv-x="534" 
d="M89 0v710h35v-676h386v-34h-421zM299 -118c19 0 34 -15 34 -34c0 -20 -15 -33 -34 -33c-20 0 -34 13 -34 33c0 19 14 34 34 34z" />
    <glyph glyph-name="uni1E38" unicode="&#x1e38;" horiz-adv-x="534" 
d="M125 829v32h271v-32h-271zM89 0v710h35v-676h386v-34h-421zM299 -118c19 0 34 -15 34 -34c0 -20 -15 -33 -34 -33c-20 0 -34 13 -34 33c0 19 14 34 34 34z" />
    <glyph glyph-name="uni1E3A" unicode="&#x1e3a;" horiz-adv-x="534" 
d="M89 0v710h35v-676h386v-34h-421zM435 -175h-271v32h271v-32z" />
    <glyph glyph-name="Lslash" unicode="&#x141;" horiz-adv-x="561" 
d="M151 34h386v-34h-421v300l-93 -40v35l93 40v375h35v-360l119 51v-35l-119 -51v-281z" />
    <glyph glyph-name="M" unicode="M" horiz-adv-x="857" 
d="M89 0v710h36l303 -512h2l302 512h36v-710h-36v640h-1l-288 -487h-29l-288 487h-1v-640h-36z" />
    <glyph glyph-name="uni1E42" unicode="&#x1e42;" horiz-adv-x="857" 
d="M89 0v710h36l303 -512h2l302 512h36v-710h-36v640h-1l-288 -487h-29l-288 487h-1v-640h-36zM427 -118c19 0 34 -15 34 -34c0 -20 -15 -33 -34 -33c-20 0 -34 13 -34 33c0 19 14 34 34 34z" />
    <glyph glyph-name="N" unicode="N" horiz-adv-x="733" 
d="M89 0v710h34l483 -649h1v649h36v-710h-36l-481 647h-2v-647h-35z" />
    <glyph glyph-name="Nacute" unicode="&#x143;" horiz-adv-x="733" 
d="M292 792l113 125h42l-116 -125h-39zM89 0v710h34l483 -649h1v649h36v-710h-36l-481 647h-2v-647h-35z" />
    <glyph glyph-name="Ncaron" unicode="&#x147;" horiz-adv-x="733" 
d="M346 792l-120 112h40l98 -89h2l100 89h40l-123 -112h-37zM89 0v710h34l483 -649h1v649h36v-710h-36l-481 647h-2v-647h-35z" />
    <glyph glyph-name="Ncommaaccent" unicode="&#x145;" horiz-adv-x="733" 
d="M89 0v710h34l483 -649h1v649h36v-710h-36l-481 647h-2v-647h-35zM300 -202l-10 24c56 5 66 35 66 69c0 18 -2 36 -5 54h32c3 -16 5 -36 5 -54c0 -49 -23 -88 -88 -93z" />
    <glyph glyph-name="uni1E44" unicode="&#x1e44;" horiz-adv-x="733" 
d="M366 820c-19 0 -34 15 -34 34c0 20 15 33 34 33c20 0 34 -13 34 -33c0 -19 -14 -34 -34 -34zM89 0v710h34l483 -649h1v649h36v-710h-36l-481 647h-2v-647h-35z" />
    <glyph glyph-name="uni1E46" unicode="&#x1e46;" horiz-adv-x="733" 
d="M89 0v710h34l483 -649h1v649h36v-710h-36l-481 647h-2v-647h-35zM378 -118c19 0 34 -15 34 -34c0 -20 -15 -33 -34 -33c-20 0 -34 13 -34 33c0 19 14 34 34 34z" />
    <glyph glyph-name="Eng" unicode="&#x14a;" horiz-adv-x="732" 
d="M607 710h35v-732c0 -126 -48 -180 -157 -180c-28 0 -54 5 -74 14l2 33c19 -10 45 -14 70 -14c72 0 124 27 124 146v23l-481 647h-2v-647h-35v710h34l482 -649h2v649z" />
    <glyph glyph-name="uni019D" unicode="&#x19d;" horiz-adv-x="733" 
d="M607 710h36v-710h-36l-481 647h-1v-722c0 -73 -28 -127 -108 -127c-17 0 -43 4 -65 14l3 33c20 -11 43 -14 60 -14c44 0 74 25 74 90v789h36v-3l481 -646h1v649z" />
    <glyph glyph-name="uni1E48" unicode="&#x1e48;" horiz-adv-x="733" 
d="M89 0v710h34l483 -649h1v649h36v-710h-36l-481 647h-2v-647h-35zM514 -175h-271v32h271v-32z" />
    <glyph glyph-name="Ntilde" unicode="&#xd1;" horiz-adv-x="733" 
d="M444 792c-32 0 -61 21 -87 39c-22 16 -43 28 -63 28c-28 0 -49 -22 -63 -60l-27 9c17 51 45 81 88 81c31 0 54 -16 79 -32c23 -15 46 -35 71 -35c24 0 47 18 59 60l27 -9c-17 -56 -50 -81 -84 -81zM89 0v710h34l483 -649h1v649h36v-710h-36l-481 647h-2v-647h-35z" />
    <glyph glyph-name="O" unicode="O" horiz-adv-x="823" 
d="M413 -4c-196 0 -352 145 -352 360c0 214 156 359 352 359c192 0 349 -144 349 -359c0 -216 -157 -360 -349 -360zM413 31c171 0 311 130 311 325c0 194 -140 324 -311 324c-175 0 -315 -131 -315 -324c0 -194 140 -325 315 -325z" />
    <glyph glyph-name="Oacute" unicode="&#xd3;" horiz-adv-x="823" 
d="M375 792l113 125h42l-116 -125h-39zM413 -4c-196 0 -352 145 -352 360c0 214 156 359 352 359c192 0 349 -144 349 -359c0 -216 -157 -360 -349 -360zM413 31c171 0 311 130 311 325c0 194 -140 324 -311 324c-175 0 -315 -131 -315 -324c0 -194 140 -325 315 -325z" />
    <glyph glyph-name="Obreve" unicode="&#x14e;" horiz-adv-x="823" 
d="M412 788c-66 0 -121 45 -126 116h29c4 -43 38 -86 97 -86s93 43 96 86h30c-6 -71 -60 -116 -126 -116zM413 -4c-196 0 -352 145 -352 360c0 214 156 359 352 359c192 0 349 -144 349 -359c0 -216 -157 -360 -349 -360zM413 31c171 0 311 130 311 325
c0 194 -140 324 -311 324c-175 0 -315 -131 -315 -324c0 -194 140 -325 315 -325z" />
    <glyph glyph-name="uni01D1" unicode="&#x1d1;" horiz-adv-x="823" 
d="M392 792l-120 112h40l98 -89h2l100 89h40l-123 -112h-37zM413 -4c-196 0 -352 145 -352 360c0 214 156 359 352 359c192 0 349 -144 349 -359c0 -216 -157 -360 -349 -360zM413 31c171 0 311 130 311 325c0 194 -140 324 -311 324c-175 0 -315 -131 -315 -324
c0 -194 140 -325 315 -325z" />
    <glyph glyph-name="Ocircumflex" unicode="&#xd4;" horiz-adv-x="823" 
d="M272 792l123 112h37l120 -112h-40l-98 89h-2l-101 -89h-39zM413 -4c-196 0 -352 145 -352 360c0 214 156 359 352 359c192 0 349 -144 349 -359c0 -216 -157 -360 -349 -360zM413 31c171 0 311 130 311 325c0 194 -140 324 -311 324c-175 0 -315 -131 -315 -324
c0 -194 140 -325 315 -325z" />
    <glyph glyph-name="uni1ED0" unicode="&#x1ed0;" horiz-adv-x="823" 
d="M542 852l118 135h43l-125 -135h-36zM272 792l123 112h37l120 -112h-40l-98 89h-2l-101 -89h-39zM413 -4c-196 0 -352 145 -352 360c0 214 156 359 352 359c192 0 349 -144 349 -359c0 -216 -157 -360 -349 -360zM413 31c171 0 311 130 311 325c0 194 -140 324 -311 324
c-175 0 -315 -131 -315 -324c0 -194 140 -325 315 -325z" />
    <glyph glyph-name="uni1ED8" unicode="&#x1ed8;" horiz-adv-x="823" 
d="M272 792l123 112h37l120 -112h-40l-98 89h-2l-101 -89h-39zM413 -4c-196 0 -352 145 -352 360c0 214 156 359 352 359c192 0 349 -144 349 -359c0 -216 -157 -360 -349 -360zM413 31c171 0 311 130 311 325c0 194 -140 324 -311 324c-175 0 -315 -131 -315 -324
c0 -194 140 -325 315 -325zM412 -118c19 0 34 -15 34 -34c0 -20 -15 -33 -34 -33c-20 0 -34 13 -34 33c0 19 14 34 34 34z" />
    <glyph glyph-name="uni1ED2" unicode="&#x1ed2;" horiz-adv-x="823" 
d="M576 851l-125 134h43l118 -134h-36zM272 792l123 112h37l120 -112h-40l-98 89h-2l-101 -89h-39zM413 -4c-196 0 -352 145 -352 360c0 214 156 359 352 359c192 0 349 -144 349 -359c0 -216 -157 -360 -349 -360zM413 31c171 0 311 130 311 325c0 194 -140 324 -311 324
c-175 0 -315 -131 -315 -324c0 -194 140 -325 315 -325z" />
    <glyph glyph-name="uni1ED4" unicode="&#x1ed4;" horiz-adv-x="823" 
d="M537 853c38 28 87 54 87 86c0 29 -23 38 -54 38s-68 -13 -85 -29l-9 26c27 17 61 29 97 29c44 0 80 -19 80 -64c0 -39 -49 -66 -77 -86h-39zM272 792l123 112h37l120 -112h-40l-98 89h-2l-101 -89h-39zM413 -4c-196 0 -352 145 -352 360c0 214 156 359 352 359
c192 0 349 -144 349 -359c0 -216 -157 -360 -349 -360zM413 31c171 0 311 130 311 325c0 194 -140 324 -311 324c-175 0 -315 -131 -315 -324c0 -194 140 -325 315 -325z" />
    <glyph glyph-name="uni1ED6" unicode="&#x1ed6;" horiz-adv-x="823" 
d="M495 923c-31 0 -60 21 -86 39c-22 16 -43 28 -62 28c-28 0 -49 -22 -63 -60l-27 9c17 51 45 80 88 80c30 0 53 -16 78 -31c23 -15 46 -35 70 -35s47 18 59 59l27 -9c-17 -55 -50 -80 -84 -80zM272 792l123 112h37l120 -112h-40l-98 89h-2l-101 -89h-39zM413 -4
c-196 0 -352 145 -352 360c0 214 156 359 352 359c192 0 349 -144 349 -359c0 -216 -157 -360 -349 -360zM413 31c171 0 311 130 311 325c0 194 -140 324 -311 324c-175 0 -315 -131 -315 -324c0 -194 140 -325 315 -325z" />
    <glyph glyph-name="Odieresis" unicode="&#xd6;" horiz-adv-x="823" 
d="M336 821c-19 0 -34 15 -34 33c0 20 15 33 34 33s33 -14 33 -33s-14 -33 -33 -33zM490 821c-20 0 -34 15 -34 33c0 20 14 33 34 33c19 0 33 -14 33 -33s-14 -33 -33 -33zM413 -4c-196 0 -352 145 -352 360c0 214 156 359 352 359c192 0 349 -144 349 -359
c0 -216 -157 -360 -349 -360zM413 31c171 0 311 130 311 325c0 194 -140 324 -311 324c-175 0 -315 -131 -315 -324c0 -194 140 -325 315 -325z" />
    <glyph glyph-name="uni1ECC" unicode="&#x1ecc;" horiz-adv-x="823" 
d="M413 -4c-196 0 -352 145 -352 360c0 214 156 359 352 359c192 0 349 -144 349 -359c0 -216 -157 -360 -349 -360zM413 31c171 0 311 130 311 325c0 194 -140 324 -311 324c-175 0 -315 -131 -315 -324c0 -194 140 -325 315 -325zM412 -118c19 0 34 -15 34 -34
c0 -20 -15 -33 -34 -33c-20 0 -34 13 -34 33c0 19 14 34 34 34z" />
    <glyph glyph-name="Ograve" unicode="&#xd2;" horiz-adv-x="823" 
d="M399 792l-115 125h42l113 -125h-40zM413 -4c-196 0 -352 145 -352 360c0 214 156 359 352 359c192 0 349 -144 349 -359c0 -216 -157 -360 -349 -360zM413 31c171 0 311 130 311 325c0 194 -140 324 -311 324c-175 0 -315 -131 -315 -324c0 -194 140 -325 315 -325z" />
    <glyph glyph-name="uni1ECE" unicode="&#x1ece;" horiz-adv-x="823" 
d="M393 782c40 29 91 57 91 91c0 32 -24 41 -56 41c-33 0 -72 -14 -90 -31l-9 28c28 18 64 31 102 31c46 0 84 -20 84 -69c0 -41 -52 -70 -81 -91h-41zM413 -4c-196 0 -352 145 -352 360c0 214 156 359 352 359c192 0 349 -144 349 -359c0 -216 -157 -360 -349 -360zM413 31
c171 0 311 130 311 325c0 194 -140 324 -311 324c-175 0 -315 -131 -315 -324c0 -194 140 -325 315 -325z" />
    <glyph glyph-name="Ohorn" unicode="&#x1a0;" horiz-adv-x="862" 
d="M781 774h33v-76c0 -103 -35 -145 -99 -154c30 -53 47 -117 47 -188c0 -216 -157 -360 -349 -360c-196 0 -352 145 -352 360c0 214 156 359 352 359c117 0 221 -53 284 -144c56 5 84 34 84 127v76zM413 31c171 0 311 130 311 325c0 194 -140 324 -311 324
c-175 0 -315 -131 -315 -324c0 -194 140 -325 315 -325z" />
    <glyph glyph-name="uni1EDA" unicode="&#x1eda;" horiz-adv-x="862" 
d="M530 917l-116 -125h-39l113 125h42zM781 774h33v-76c0 -103 -35 -145 -99 -154c30 -53 47 -117 47 -188c0 -216 -157 -360 -349 -360c-196 0 -352 145 -352 360c0 214 156 359 352 359c117 0 221 -53 284 -144c56 5 84 34 84 127v76zM413 31c171 0 311 130 311 325
c0 194 -140 324 -311 324c-175 0 -315 -131 -315 -324c0 -194 140 -325 315 -325z" />
    <glyph glyph-name="uni1EE2" unicode="&#x1ee2;" horiz-adv-x="862" 
d="M781 774h33v-76c0 -103 -35 -145 -99 -154c30 -53 47 -117 47 -188c0 -216 -157 -360 -349 -360c-196 0 -352 145 -352 360c0 214 156 359 352 359c117 0 221 -53 284 -144c56 5 84 34 84 127v76zM413 31c171 0 311 130 311 325c0 194 -140 324 -311 324
c-175 0 -315 -131 -315 -324c0 -194 140 -325 315 -325zM412 -118c19 0 34 -15 34 -34c0 -20 -15 -33 -34 -33c-20 0 -34 13 -34 33c0 19 14 34 34 34z" />
    <glyph glyph-name="uni1EDC" unicode="&#x1edc;" horiz-adv-x="862" 
d="M439 792h-40l-115 125h42zM781 774h33v-76c0 -103 -35 -145 -99 -154c30 -53 47 -117 47 -188c0 -216 -157 -360 -349 -360c-196 0 -352 145 -352 360c0 214 156 359 352 359c117 0 221 -53 284 -144c56 5 84 34 84 127v76zM413 31c171 0 311 130 311 325
c0 194 -140 324 -311 324c-175 0 -315 -131 -315 -324c0 -194 140 -325 315 -325z" />
    <glyph glyph-name="uni1EDE" unicode="&#x1ede;" horiz-adv-x="862" 
d="M428 914c-33 0 -72 -14 -90 -31l-9 28c28 18 64 31 102 31c46 0 84 -20 84 -69c0 -41 -52 -70 -81 -91h-41c40 29 91 57 91 91c0 32 -24 41 -56 41zM781 774h33v-76c0 -103 -35 -145 -99 -154c30 -53 47 -117 47 -188c0 -216 -157 -360 -349 -360
c-196 0 -352 145 -352 360c0 214 156 359 352 359c117 0 221 -53 284 -144c56 5 84 34 84 127v76zM413 31c171 0 311 130 311 325c0 194 -140 324 -311 324c-175 0 -315 -131 -315 -324c0 -194 140 -325 315 -325z" />
    <glyph glyph-name="uni1EE0" unicode="&#x1ee0;" horiz-adv-x="862" 
d="M340 859c-28 0 -49 -22 -63 -60l-27 9c17 51 45 81 88 81c31 0 54 -16 79 -32c23 -15 46 -35 71 -35c24 0 47 18 59 60l27 -9c-17 -56 -50 -81 -84 -81c-32 0 -61 21 -87 39c-22 16 -43 28 -63 28zM781 774h33v-76c0 -103 -35 -145 -99 -154c30 -53 47 -117 47 -188
c0 -216 -157 -360 -349 -360c-196 0 -352 145 -352 360c0 214 156 359 352 359c117 0 221 -53 284 -144c56 5 84 34 84 127v76zM413 31c171 0 311 130 311 325c0 194 -140 324 -311 324c-175 0 -315 -131 -315 -324c0 -194 140 -325 315 -325z" />
    <glyph glyph-name="Ohungarumlaut" unicode="&#x150;" horiz-adv-x="823" 
d="M326 792l121 136h42l-124 -136h-39zM459 792l121 136h42l-125 -136h-38zM413 -4c-196 0 -352 145 -352 360c0 214 156 359 352 359c192 0 349 -144 349 -359c0 -216 -157 -360 -349 -360zM413 31c171 0 311 130 311 325c0 194 -140 324 -311 324
c-175 0 -315 -131 -315 -324c0 -194 140 -325 315 -325z" />
    <glyph glyph-name="Omacron" unicode="&#x14c;" horiz-adv-x="823" 
d="M277 829v32h271v-32h-271zM413 -4c-196 0 -352 145 -352 360c0 214 156 359 352 359c192 0 349 -144 349 -359c0 -216 -157 -360 -349 -360zM413 31c171 0 311 130 311 325c0 194 -140 324 -311 324c-175 0 -315 -131 -315 -324c0 -194 140 -325 315 -325z" />
    <glyph glyph-name="uni01EA" unicode="&#x1ea;" horiz-adv-x="823" 
d="M446 -3c-45 -23 -74 -61 -74 -97c0 -30 17 -53 58 -53c29 0 40 4 57 13l4 -29c-16 -8 -34 -13 -64 -13c-53 0 -87 27 -87 78c0 31 20 70 59 100c-189 7 -338 150 -338 360c0 214 156 359 352 359c192 0 349 -144 349 -359c0 -204 -139 -343 -316 -359zM98 356
c0 -194 140 -325 315 -325c171 0 311 130 311 325c0 194 -140 324 -311 324c-175 0 -315 -131 -315 -324z" />
    <glyph glyph-name="Oslash" unicode="&#xd8;" horiz-adv-x="823" 
d="M669 606c58 -62 93 -148 93 -250c0 -216 -157 -360 -349 -360c-90 0 -172 31 -234 85l-87 -94l-26 22l89 95c-58 63 -94 149 -94 252c0 214 156 359 352 359c89 0 171 -31 233 -86l81 86l24 -21zM98 356c0 -91 31 -169 82 -225l441 471c-55 50 -128 78 -208 78
c-175 0 -315 -131 -315 -324zM413 31c171 0 311 130 311 325c0 90 -30 167 -80 223l-440 -472c56 -48 129 -76 209 -76z" />
    <glyph glyph-name="Oslashacute" unicode="&#x1fe;" horiz-adv-x="823" 
d="M530 917l-116 -125h-39l113 125h42zM669 606c58 -62 93 -148 93 -250c0 -216 -157 -360 -349 -360c-90 0 -172 31 -234 85l-87 -94l-26 22l89 95c-58 63 -94 149 -94 252c0 214 156 359 352 359c89 0 171 -31 233 -86l81 86l24 -21zM98 356c0 -91 31 -169 82 -225
l441 471c-55 50 -128 78 -208 78c-175 0 -315 -131 -315 -324zM413 31c171 0 311 130 311 325c0 90 -30 167 -80 223l-440 -472c56 -48 129 -76 209 -76z" />
    <glyph glyph-name="Otilde" unicode="&#xd5;" horiz-adv-x="823" 
d="M490 792c-32 0 -61 21 -87 39c-22 16 -43 28 -63 28c-28 0 -49 -22 -63 -60l-27 9c17 51 45 81 88 81c31 0 54 -16 79 -32c23 -15 46 -35 71 -35c24 0 47 18 59 60l27 -9c-17 -56 -50 -81 -84 -81zM413 -4c-196 0 -352 145 -352 360c0 214 156 359 352 359
c192 0 349 -144 349 -359c0 -216 -157 -360 -349 -360zM413 31c171 0 311 130 311 325c0 194 -140 324 -311 324c-175 0 -315 -131 -315 -324c0 -194 140 -325 315 -325z" />
    <glyph glyph-name="OE" unicode="&#x152;" horiz-adv-x="936" 
d="M490 34h402v-34h-476c-212 0 -355 162 -355 357s143 355 355 353h456v-34h-382v-304h324v-34h-324v-304zM416 35h40v640h-40c-176 2 -318 -129 -318 -318c0 -190 142 -323 318 -322z" />
    <glyph glyph-name="P" unicode="P" horiz-adv-x="588" 
d="M89 0v710h236c159 0 222 -88 222 -204c0 -145 -99 -208 -240 -208h-183v-298h-35zM124 332h181c149 0 205 76 205 174c0 115 -75 170 -182 170h-204v-344z" />
    <glyph glyph-name="Thorn" unicode="&#xde;" horiz-adv-x="605" 
d="M89 0v710h35v-155h218c161 0 223 -86 223 -203c0 -145 -99 -208 -240 -208h-201v-144h-35zM124 178h204c143 0 200 76 200 175c0 116 -74 169 -183 169h-221v-344z" />
    <glyph glyph-name="Q" unicode="Q" horiz-adv-x="832" 
d="M774 21l-22 -26l-102 91c-62 -57 -146 -90 -238 -90c-210 0 -351 160 -351 360c0 198 141 359 351 359c193 0 350 -144 350 -359c0 -99 -33 -184 -88 -246zM98 356c0 -181 127 -325 314 -325c81 0 155 29 211 80l-99 89l21 26l101 -91c49 56 78 132 78 221
c0 193 -139 324 -312 324c-187 0 -314 -144 -314 -324z" />
    <glyph glyph-name="R" unicode="R" horiz-adv-x="617" 
d="M89 0v710h236c156 0 223 -88 223 -204c0 -132 -81 -194 -205 -205l215 -301h-43l-214 298h-177v-298h-35zM124 332h182c150 0 205 76 205 174c0 115 -73 170 -187 170h-200v-344z" />
    <glyph glyph-name="Racute" unicode="&#x154;" horiz-adv-x="617" 
d="M228 792l113 125h42l-116 -125h-39zM89 0v710h236c156 0 223 -88 223 -204c0 -132 -81 -194 -205 -205l215 -301h-43l-214 298h-177v-298h-35zM124 332h182c150 0 205 76 205 174c0 115 -73 170 -187 170h-200v-344z" />
    <glyph glyph-name="Rcaron" unicode="&#x158;" horiz-adv-x="617" 
d="M282 792l-120 112h40l98 -89h2l100 89h40l-123 -112h-37zM89 0v710h236c156 0 223 -88 223 -204c0 -132 -81 -194 -205 -205l215 -301h-43l-214 298h-177v-298h-35zM124 332h182c150 0 205 76 205 174c0 115 -73 170 -187 170h-200v-344z" />
    <glyph glyph-name="Rcommaaccent" unicode="&#x156;" horiz-adv-x="617" 
d="M89 0v710h236c156 0 223 -88 223 -204c0 -132 -81 -194 -205 -205l215 -301h-43l-214 298h-177v-298h-35zM124 332h182c150 0 205 76 205 174c0 115 -73 170 -187 170h-200v-344zM232 -202l-10 24c56 5 66 35 66 69c0 18 -2 36 -5 54h32c3 -16 5 -36 5 -54
c0 -49 -23 -88 -88 -93z" />
    <glyph glyph-name="uni1E5A" unicode="&#x1e5a;" horiz-adv-x="617" 
d="M89 0v710h236c156 0 223 -88 223 -204c0 -132 -81 -194 -205 -205l215 -301h-43l-214 298h-177v-298h-35zM124 332h182c150 0 205 76 205 174c0 115 -73 170 -187 170h-200v-344zM310 -118c19 0 34 -15 34 -34c0 -20 -15 -33 -34 -33c-20 0 -34 13 -34 33
c0 19 14 34 34 34z" />
    <glyph glyph-name="uni1E5C" unicode="&#x1e5c;" horiz-adv-x="617" 
d="M167 829v32h271v-32h-271zM89 0v710h236c156 0 223 -88 223 -204c0 -132 -81 -194 -205 -205l215 -301h-43l-214 298h-177v-298h-35zM124 332h182c150 0 205 76 205 174c0 115 -73 170 -187 170h-200v-344zM310 -118c19 0 34 -15 34 -34c0 -20 -15 -33 -34 -33
c-20 0 -34 13 -34 33c0 19 14 34 34 34z" />
    <glyph glyph-name="uni1E5E" unicode="&#x1e5e;" horiz-adv-x="617" 
d="M89 0v710h236c156 0 223 -88 223 -204c0 -132 -81 -194 -205 -205l215 -301h-43l-214 298h-177v-298h-35zM124 332h182c150 0 205 76 205 174c0 115 -73 170 -187 170h-200v-344zM446 -175h-271v32h271v-32z" />
    <glyph glyph-name="S" unicode="S" horiz-adv-x="562" 
d="M284 -4c-86 0 -177 33 -241 108l25 28c51 -68 136 -101 218 -101c101 0 187 50 187 145c0 103 -90 127 -193 169c-100 40 -207 82 -207 199c0 97 85 171 205 171c71 0 148 -28 207 -76l-23 -29c-56 45 -124 70 -183 70c-85 0 -169 -46 -169 -136c0 -94 89 -128 182 -165
c114 -45 218 -75 218 -201c0 -106 -87 -182 -226 -182z" />
    <glyph glyph-name="Sacute" unicode="&#x15a;" horiz-adv-x="562" 
d="M237 792l113 125h42l-116 -125h-39zM284 -4c-86 0 -177 33 -241 108l25 28c51 -68 136 -101 218 -101c101 0 187 50 187 145c0 103 -90 127 -193 169c-100 40 -207 82 -207 199c0 97 85 171 205 171c71 0 148 -28 207 -76l-23 -29c-56 45 -124 70 -183 70
c-85 0 -169 -46 -169 -136c0 -94 89 -128 182 -165c114 -45 218 -75 218 -201c0 -106 -87 -182 -226 -182z" />
    <glyph glyph-name="Scaron" unicode="&#x160;" horiz-adv-x="562" 
d="M261 792l-120 112h40l98 -89h2l100 89h40l-123 -112h-37zM284 -4c-86 0 -177 33 -241 108l25 28c51 -68 136 -101 218 -101c101 0 187 50 187 145c0 103 -90 127 -193 169c-100 40 -207 82 -207 199c0 97 85 171 205 171c71 0 148 -28 207 -76l-23 -29
c-56 45 -124 70 -183 70c-85 0 -169 -46 -169 -136c0 -94 89 -128 182 -165c114 -45 218 -75 218 -201c0 -106 -87 -182 -226 -182z" />
    <glyph glyph-name="Scedilla" unicode="&#x15e;" horiz-adv-x="562" 
d="M290 -4l-13 -29v-2c41 -2 82 -29 82 -77c0 -39 -31 -73 -90 -73c-17 0 -35 2 -50 6v27c13 -4 27 -7 46 -7c33 0 64 15 64 49c0 26 -27 54 -83 54l1 21l15 32c-79 5 -161 38 -219 107l25 28c51 -68 136 -101 218 -101c101 0 187 50 187 145c0 103 -90 127 -193 169
c-100 40 -207 82 -207 199c0 97 85 171 205 171c71 0 148 -28 207 -76l-23 -29c-56 45 -124 70 -183 70c-85 0 -169 -46 -169 -136c0 -94 89 -128 182 -165c114 -45 218 -75 218 -201c0 -105 -85 -180 -220 -182z" />
    <glyph glyph-name="Scircumflex" unicode="&#x15c;" horiz-adv-x="562" 
d="M141 792l123 112h37l120 -112h-40l-98 89h-2l-101 -89h-39zM284 -4c-86 0 -177 33 -241 108l25 28c51 -68 136 -101 218 -101c101 0 187 50 187 145c0 103 -90 127 -193 169c-100 40 -207 82 -207 199c0 97 85 171 205 171c71 0 148 -28 207 -76l-23 -29
c-56 45 -124 70 -183 70c-85 0 -169 -46 -169 -136c0 -94 89 -128 182 -165c114 -45 218 -75 218 -201c0 -106 -87 -182 -226 -182z" />
    <glyph glyph-name="Scommaaccent" unicode="&#x218;" horiz-adv-x="562" 
d="M284 -4c-86 0 -177 33 -241 108l25 28c51 -68 136 -101 218 -101c101 0 187 50 187 145c0 103 -90 127 -193 169c-100 40 -207 82 -207 199c0 97 85 171 205 171c71 0 148 -28 207 -76l-23 -29c-56 45 -124 70 -183 70c-85 0 -169 -46 -169 -136c0 -94 89 -128 182 -165
c114 -45 218 -75 218 -201c0 -106 -87 -182 -226 -182zM216 -202l-10 24c56 5 66 35 66 69c0 18 -2 36 -5 54h32c3 -16 5 -36 5 -54c0 -49 -23 -88 -88 -93z" />
    <glyph glyph-name="uni1E60" unicode="&#x1e60;" horiz-adv-x="562" 
d="M281 820c-19 0 -34 15 -34 34c0 20 15 33 34 33c20 0 34 -13 34 -33c0 -19 -14 -34 -34 -34zM284 -4c-86 0 -177 33 -241 108l25 28c51 -68 136 -101 218 -101c101 0 187 50 187 145c0 103 -90 127 -193 169c-100 40 -207 82 -207 199c0 97 85 171 205 171
c71 0 148 -28 207 -76l-23 -29c-56 45 -124 70 -183 70c-85 0 -169 -46 -169 -136c0 -94 89 -128 182 -165c114 -45 218 -75 218 -201c0 -106 -87 -182 -226 -182z" />
    <glyph glyph-name="uni1E62" unicode="&#x1e62;" horiz-adv-x="562" 
d="M284 -4c-86 0 -177 33 -241 108l25 28c51 -68 136 -101 218 -101c101 0 187 50 187 145c0 103 -90 127 -193 169c-100 40 -207 82 -207 199c0 97 85 171 205 171c71 0 148 -28 207 -76l-23 -29c-56 45 -124 70 -183 70c-85 0 -169 -46 -169 -136c0 -94 89 -128 182 -165
c114 -45 218 -75 218 -201c0 -106 -87 -182 -226 -182zM294 -118c19 0 34 -15 34 -34c0 -20 -15 -33 -34 -33c-20 0 -34 13 -34 33c0 19 14 34 34 34z" />
    <glyph glyph-name="uni1E9E" unicode="&#x1e9e;" horiz-adv-x="704" 
d="M446 379c115 -44 219 -75 219 -201c0 -106 -88 -182 -225 -182c-81 0 -167 30 -230 98l18 34c52 -66 134 -97 214 -97c99 0 186 50 186 145c0 103 -91 128 -193 169c-28 11 -61 24 -88 38l149 273l-1 2c-62 14 -135 22 -203 22c-136 0 -195 -53 -195 -171v-509h-36v512
c0 138 74 203 227 203c74 0 173 -14 260 -34l-153 -281z" />
    <glyph glyph-name="uni018F" unicode="&#x18f;" horiz-adv-x="767" 
d="M360 715c218 0 347 -160 347 -360c0 -208 -139 -359 -333 -359c-175 0 -328 110 -328 329v19h623v11c-1 187 -118 325 -311 325c-93 0 -167 -29 -240 -87l-24 26c76 63 163 96 266 96zM373 31c160 0 277 113 294 279h-585c3 -170 126 -279 291 -279z" />
    <glyph glyph-name="T" unicode="T" horiz-adv-x="548" 
d="M255 0v676h-229v34h496v-34h-232v-676h-35z" />
    <glyph glyph-name="Tbar" unicode="&#x166;" horiz-adv-x="548" 
d="M522 676h-232v-287h122v-31h-122v-358h-35v358h-121v31h121v287h-229v34h496v-34z" />
    <glyph glyph-name="Tcaron" unicode="&#x164;" horiz-adv-x="548" 
d="M253 792l-120 112h40l98 -89h2l100 89h40l-123 -112h-37zM255 0v676h-229v34h496v-34h-232v-676h-35z" />
    <glyph glyph-name="Tdieresis" horiz-adv-x="548" 
d="M195 839c-19 0 -34 15 -34 33c0 20 15 33 34 33s33 -14 33 -33s-14 -33 -33 -33zM349 839c-20 0 -34 15 -34 33c0 20 14 33 34 33c19 0 33 -14 33 -33s-14 -33 -33 -33zM255 0v676h-229v34h496v-34h-232v-676h-35z" />
    <glyph glyph-name="uni1E6C" unicode="&#x1e6c;" horiz-adv-x="548" 
d="M255 0v676h-229v34h496v-34h-232v-676h-35zM284 -118c19 0 34 -15 34 -34c0 -20 -15 -33 -34 -33c-20 0 -34 13 -34 33c0 19 14 34 34 34z" />
    <glyph glyph-name="uni1E6E" unicode="&#x1e6e;" horiz-adv-x="548" 
d="M255 0v676h-229v34h496v-34h-232v-676h-35zM420 -175h-271v32h271v-32z" />
    <glyph glyph-name="U" unicode="U" horiz-adv-x="687" 
d="M343 -4c-155 0 -263 108 -263 288v426h36v-425c0 -159 92 -254 227 -254s229 94 229 254v425h35v-426c0 -179 -108 -288 -264 -288z" />
    <glyph glyph-name="Uacute" unicode="&#xda;" horiz-adv-x="687" 
d="M290 792l113 125h42l-116 -125h-39zM343 -4c-155 0 -263 108 -263 288v426h36v-425c0 -159 92 -254 227 -254s229 94 229 254v425h35v-426c0 -179 -108 -288 -264 -288z" />
    <glyph glyph-name="Ubreve" unicode="&#x16c;" horiz-adv-x="687" 
d="M344 788c-66 0 -121 45 -126 116h29c4 -43 38 -86 97 -86s93 43 96 86h30c-6 -71 -60 -116 -126 -116zM343 -4c-155 0 -263 108 -263 288v426h36v-425c0 -159 92 -254 227 -254s229 94 229 254v425h35v-426c0 -179 -108 -288 -264 -288z" />
    <glyph glyph-name="Ucircumflex" unicode="&#xdb;" horiz-adv-x="687" 
d="M204 792l123 112h37l120 -112h-40l-98 89h-2l-101 -89h-39zM343 -4c-155 0 -263 108 -263 288v426h36v-425c0 -159 92 -254 227 -254s229 94 229 254v425h35v-426c0 -179 -108 -288 -264 -288z" />
    <glyph glyph-name="Udieresis" unicode="&#xdc;" horiz-adv-x="687" 
d="M268 821c-19 0 -34 15 -34 33c0 20 15 33 34 33s33 -14 33 -33s-14 -33 -33 -33zM422 821c-20 0 -34 15 -34 33c0 20 14 33 34 33c19 0 33 -14 33 -33s-14 -33 -33 -33zM343 -4c-155 0 -263 108 -263 288v426h36v-425c0 -159 92 -254 227 -254s229 94 229 254v425h35
v-426c0 -179 -108 -288 -264 -288z" />
    <glyph glyph-name="uni1EE4" unicode="&#x1ee4;" horiz-adv-x="687" 
d="M343 -4c-155 0 -263 108 -263 288v426h36v-425c0 -159 92 -254 227 -254s229 94 229 254v425h35v-426c0 -179 -108 -288 -264 -288zM343 -118c19 0 34 -15 34 -34c0 -20 -15 -33 -34 -33c-20 0 -34 13 -34 33c0 19 14 34 34 34z" />
    <glyph glyph-name="Ugrave" unicode="&#xd9;" horiz-adv-x="687" 
d="M344 792l-115 125h42l113 -125h-40zM343 -4c-155 0 -263 108 -263 288v426h36v-425c0 -159 92 -254 227 -254s229 94 229 254v425h35v-426c0 -179 -108 -288 -264 -288z" />
    <glyph glyph-name="uni1EE6" unicode="&#x1ee6;" horiz-adv-x="687" 
d="M325 782c40 29 91 57 91 91c0 32 -24 41 -56 41c-33 0 -72 -14 -90 -31l-9 28c28 18 64 31 102 31c46 0 84 -20 84 -69c0 -41 -52 -70 -81 -91h-41zM343 -4c-155 0 -263 108 -263 288v426h36v-425c0 -159 92 -254 227 -254s229 94 229 254v425h35v-426
c0 -179 -108 -288 -264 -288z" />
    <glyph glyph-name="Uhorn" unicode="&#x1af;" horiz-adv-x="748" 
d="M693 774h33v-76c0 -114 -43 -153 -119 -156v-258c0 -179 -108 -288 -264 -288c-155 0 -263 108 -263 288v426h36v-425c0 -159 92 -254 227 -254s229 94 229 254v425h35v-139c57 4 86 33 86 127v76z" />
    <glyph glyph-name="uni1EE8" unicode="&#x1ee8;" horiz-adv-x="748" 
d="M445 917l-116 -125h-39l113 125h42zM693 774h33v-76c0 -114 -43 -153 -119 -156v-258c0 -179 -108 -288 -264 -288c-155 0 -263 108 -263 288v426h36v-425c0 -159 92 -254 227 -254s229 94 229 254v425h35v-139c57 4 86 33 86 127v76z" />
    <glyph glyph-name="uni1EF0" unicode="&#x1ef0;" horiz-adv-x="748" 
d="M693 774h33v-76c0 -114 -43 -153 -119 -156v-258c0 -179 -108 -288 -264 -288c-155 0 -263 108 -263 288v426h36v-425c0 -159 92 -254 227 -254s229 94 229 254v425h35v-139c57 4 86 33 86 127v76zM343 -118c19 0 34 -15 34 -34c0 -20 -15 -33 -34 -33
c-20 0 -34 13 -34 33c0 19 14 34 34 34z" />
    <glyph glyph-name="uni1EEA" unicode="&#x1eea;" horiz-adv-x="748" 
d="M384 792h-40l-115 125h42zM693 774h33v-76c0 -114 -43 -153 -119 -156v-258c0 -179 -108 -288 -264 -288c-155 0 -263 108 -263 288v426h36v-425c0 -159 92 -254 227 -254s229 94 229 254v425h35v-139c57 4 86 33 86 127v76z" />
    <glyph glyph-name="uni1EEC" unicode="&#x1eec;" horiz-adv-x="748" 
d="M360 914c-33 0 -72 -14 -90 -31l-9 28c28 18 64 31 102 31c46 0 84 -20 84 -69c0 -41 -52 -70 -81 -91h-41c40 29 91 57 91 91c0 32 -24 41 -56 41zM693 774h33v-76c0 -114 -43 -153 -119 -156v-258c0 -179 -108 -288 -264 -288c-155 0 -263 108 -263 288v426h36v-425
c0 -159 92 -254 227 -254s229 94 229 254v425h35v-139c57 4 86 33 86 127v76z" />
    <glyph glyph-name="uni1EEE" unicode="&#x1eee;" horiz-adv-x="748" 
d="M272 859c-28 0 -49 -22 -63 -60l-27 9c17 51 45 81 88 81c31 0 54 -16 79 -32c23 -15 46 -35 71 -35c24 0 47 18 59 60l27 -9c-17 -56 -50 -81 -84 -81c-32 0 -61 21 -87 39c-22 16 -43 28 -63 28zM693 774h33v-76c0 -114 -43 -153 -119 -156v-258
c0 -179 -108 -288 -264 -288c-155 0 -263 108 -263 288v426h36v-425c0 -159 92 -254 227 -254s229 94 229 254v425h35v-139c57 4 86 33 86 127v76z" />
    <glyph glyph-name="Uhungarumlaut" unicode="&#x170;" horiz-adv-x="687" 
d="M258 792l121 136h42l-124 -136h-39zM391 792l121 136h42l-125 -136h-38zM343 -4c-155 0 -263 108 -263 288v426h36v-425c0 -159 92 -254 227 -254s229 94 229 254v425h35v-426c0 -179 -108 -288 -264 -288z" />
    <glyph glyph-name="Umacron" unicode="&#x16a;" horiz-adv-x="687" 
d="M209 829v32h271v-32h-271zM343 -4c-155 0 -263 108 -263 288v426h36v-425c0 -159 92 -254 227 -254s229 94 229 254v425h35v-426c0 -179 -108 -288 -264 -288z" />
    <glyph glyph-name="Uogonek" unicode="&#x172;" horiz-adv-x="687" 
d="M572 710h35v-426c0 -160 -86 -264 -216 -284c-46 -24 -75 -63 -75 -99c0 -30 18 -52 59 -52c28 0 39 4 56 12l5 -29c-17 -8 -35 -13 -64 -13c-53 0 -88 28 -88 78c0 31 19 68 57 98v1c-154 1 -261 109 -261 288v426h36v-425c0 -159 92 -254 227 -254s229 94 229 254v425z
" />
    <glyph glyph-name="Uring" unicode="&#x16e;" horiz-adv-x="687" 
d="M343 780c-41 0 -77 36 -77 77c0 42 35 77 77 77c43 0 79 -34 79 -77c0 -41 -35 -77 -79 -77zM343 809c28 0 51 22 51 48c0 27 -23 50 -51 50c-27 0 -49 -23 -49 -50c0 -26 22 -48 49 -48zM343 -4c-155 0 -263 108 -263 288v426h36v-425c0 -159 92 -254 227 -254
s229 94 229 254v425h35v-426c0 -179 -108 -288 -264 -288z" />
    <glyph glyph-name="Utilde" unicode="&#x168;" horiz-adv-x="687" 
d="M422 792c-32 0 -61 21 -87 39c-22 16 -43 28 -63 28c-28 0 -49 -22 -63 -60l-27 9c17 51 45 81 88 81c31 0 54 -16 79 -32c23 -15 46 -35 71 -35c24 0 47 18 59 60l27 -9c-17 -56 -50 -81 -84 -81zM343 -4c-155 0 -263 108 -263 288v426h36v-425c0 -159 92 -254 227 -254
s229 94 229 254v425h35v-426c0 -179 -108 -288 -264 -288z" />
    <glyph glyph-name="V" unicode="V" horiz-adv-x="638" 
d="M302 0l-272 710h39l250 -656h1l250 656h39l-272 -710h-35z" />
    <glyph glyph-name="W" unicode="W" horiz-adv-x="997" 
d="M263 0l-229 710h38l211 -655h1l193 655h43l192 -655h1l212 655h38l-229 -710h-41l-194 659h-1l-195 -659h-40z" />
    <glyph glyph-name="Wacute" unicode="&#x1e82;" horiz-adv-x="997" 
d="M476 792l113 125h42l-116 -125h-39zM263 0l-229 710h38l211 -655h1l193 655h43l192 -655h1l212 655h38l-229 -710h-41l-194 659h-1l-195 -659h-40z" />
    <glyph glyph-name="Wcircumflex" unicode="&#x174;" horiz-adv-x="997" 
d="M358 792l123 112h37l120 -112h-40l-98 89h-2l-101 -89h-39zM263 0l-229 710h38l211 -655h1l193 655h43l192 -655h1l212 655h38l-229 -710h-41l-194 659h-1l-195 -659h-40z" />
    <glyph glyph-name="Wdieresis" unicode="&#x1e84;" horiz-adv-x="997" 
d="M422 821c-19 0 -34 15 -34 33c0 20 15 33 34 33s33 -14 33 -33s-14 -33 -33 -33zM576 821c-20 0 -34 15 -34 33c0 20 14 33 34 33c19 0 33 -14 33 -33s-14 -33 -33 -33zM263 0l-229 710h38l211 -655h1l193 655h43l192 -655h1l212 655h38l-229 -710h-41l-194 659h-1
l-195 -659h-40z" />
    <glyph glyph-name="Wgrave" unicode="&#x1e80;" horiz-adv-x="997" 
d="M481 792l-115 125h42l113 -125h-40zM263 0l-229 710h38l211 -655h1l193 655h43l192 -655h1l212 655h38l-229 -710h-41l-194 659h-1l-195 -659h-40z" />
    <glyph glyph-name="X" unicode="X" horiz-adv-x="616" 
d="M34 0l251 354l-251 356h41l233 -326h1l231 326h43l-252 -356l252 -354h-44l-229 322h-2l-232 -322h-42z" />
    <glyph glyph-name="Y" unicode="Y" horiz-adv-x="565" 
d="M264 0v322l-247 388h43l221 -350h2l222 350h42l-247 -388v-322h-36z" />
    <glyph glyph-name="Yacute" unicode="&#xdd;" horiz-adv-x="565" 
d="M255 792l113 125h42l-116 -125h-39zM264 0v322l-247 388h43l221 -350h2l222 350h42l-247 -388v-322h-36z" />
    <glyph glyph-name="Ycircumflex" unicode="&#x176;" horiz-adv-x="565" 
d="M143 792l123 112h37l120 -112h-40l-98 89h-2l-101 -89h-39zM264 0v322l-247 388h43l221 -350h2l222 350h42l-247 -388v-322h-36z" />
    <glyph glyph-name="Ydieresis" unicode="&#x178;" horiz-adv-x="565" 
d="M207 821c-19 0 -34 15 -34 33c0 20 15 33 34 33s33 -14 33 -33s-14 -33 -33 -33zM361 821c-20 0 -34 15 -34 33c0 20 14 33 34 33c19 0 33 -14 33 -33s-14 -33 -33 -33zM264 0v322l-247 388h43l221 -350h2l222 350h42l-247 -388v-322h-36z" />
    <glyph glyph-name="uni1E8E" unicode="&#x1e8e;" horiz-adv-x="565" 
d="M283 820c-19 0 -34 15 -34 34c0 20 15 33 34 33c20 0 34 -13 34 -33c0 -19 -14 -34 -34 -34zM264 0v322l-247 388h43l221 -350h2l222 350h42l-247 -388v-322h-36z" />
    <glyph glyph-name="uni1EF4" unicode="&#x1ef4;" horiz-adv-x="565" 
d="M264 0v322l-247 388h43l221 -350h2l222 350h42l-247 -388v-322h-36zM282 -118c19 0 34 -15 34 -34c0 -20 -15 -33 -34 -33c-20 0 -34 13 -34 33c0 19 14 34 34 34z" />
    <glyph glyph-name="Ygrave" unicode="&#x1ef2;" horiz-adv-x="565" 
d="M294 792l-115 125h42l113 -125h-40zM264 0v322l-247 388h43l221 -350h2l222 350h42l-247 -388v-322h-36z" />
    <glyph glyph-name="uni1EF6" unicode="&#x1ef6;" horiz-adv-x="565" 
d="M264 782c40 29 91 57 91 91c0 32 -24 41 -56 41c-33 0 -72 -14 -90 -31l-9 28c28 18 64 31 102 31c46 0 84 -20 84 -69c0 -41 -52 -70 -81 -91h-41zM264 0v322l-247 388h43l221 -350h2l222 350h42l-247 -388v-322h-36z" />
    <glyph glyph-name="uni0232" unicode="&#x232;" horiz-adv-x="565" 
d="M148 829v32h271v-32h-271zM264 0v322l-247 388h43l221 -350h2l222 350h42l-247 -388v-322h-36z" />
    <glyph glyph-name="uni1EF8" unicode="&#x1ef8;" horiz-adv-x="565" 
d="M361 792c-32 0 -61 21 -87 39c-22 16 -43 28 -63 28c-28 0 -49 -22 -63 -60l-27 9c17 51 45 81 88 81c31 0 54 -16 79 -32c23 -15 46 -35 71 -35c24 0 47 18 59 60l27 -9c-17 -56 -50 -81 -84 -81zM264 0v322l-247 388h43l221 -350h2l222 350h42l-247 -388v-322h-36z" />
    <glyph glyph-name="Z" unicode="Z" horiz-adv-x="593" 
d="M56 0v31l423 644l-1 1h-396v34h444v-32l-423 -643l1 -1h426v-34h-474z" />
    <glyph glyph-name="Zacute" unicode="&#x179;" horiz-adv-x="593" 
d="M217 792l113 125h42l-116 -125h-39zM56 0v31l423 644l-1 1h-396v34h444v-32l-423 -643l1 -1h426v-34h-474z" />
    <glyph glyph-name="Zcaron" unicode="&#x17d;" horiz-adv-x="593" 
d="M271 792l-120 112h40l98 -89h2l100 89h40l-123 -112h-37zM56 0v31l423 644l-1 1h-396v34h444v-32l-423 -643l1 -1h426v-34h-474z" />
    <glyph glyph-name="Zdotaccent" unicode="&#x17b;" horiz-adv-x="593" 
d="M291 820c-19 0 -34 15 -34 34c0 20 15 33 34 33c20 0 34 -13 34 -33c0 -19 -14 -34 -34 -34zM56 0v31l423 644l-1 1h-396v34h444v-32l-423 -643l1 -1h426v-34h-474z" />
    <glyph glyph-name="uni1E92" unicode="&#x1e92;" horiz-adv-x="593" 
d="M56 0v31l423 644l-1 1h-396v34h444v-32l-423 -643l1 -1h426v-34h-474zM291 -118c19 0 34 -15 34 -34c0 -20 -15 -33 -34 -33c-20 0 -34 13 -34 33c0 19 14 34 34 34z" />
    <glyph glyph-name="uni01D3" unicode="&#x1d3;" horiz-adv-x="687" 
d="M324 792l-120 112h40l98 -89h2l100 89h40l-123 -112h-37zM343 -4c-155 0 -263 108 -263 288v426h36v-425c0 -159 92 -254 227 -254s229 94 229 254v425h35v-426c0 -179 -108 -288 -264 -288z" />
    <glyph glyph-name="uni01D5" unicode="&#x1d5;" horiz-adv-x="687" 
d="M209 951v29h271v-29h-271zM268 808c-19 0 -34 15 -34 34s15 32 34 32c20 0 34 -13 34 -32s-14 -34 -34 -34zM419 808c-19 0 -34 15 -34 34s15 32 34 32c20 0 34 -13 34 -32s-14 -34 -34 -34zM343 -4c-155 0 -263 108 -263 288v426h36v-425c0 -159 92 -254 227 -254
s229 94 229 254v425h35v-426c0 -179 -108 -288 -264 -288z" />
    <glyph glyph-name="uni01D7" unicode="&#x1d7;" horiz-adv-x="687" 
d="M330 893l118 134h43l-125 -134h-36zM268 808c-19 0 -34 15 -34 34s15 32 34 32c20 0 34 -13 34 -32s-14 -34 -34 -34zM419 808c-19 0 -34 15 -34 34s15 32 34 32c20 0 34 -13 34 -32s-14 -34 -34 -34zM343 -4c-155 0 -263 108 -263 288v426h36v-425
c0 -159 92 -254 227 -254s229 94 229 254v425h35v-426c0 -179 -108 -288 -264 -288z" />
    <glyph glyph-name="uni01D9" unicode="&#x1d9;" horiz-adv-x="687" 
d="M331 914l-120 112h40l98 -89h2l100 89h40l-123 -112h-37zM268 808c-19 0 -34 15 -34 34s15 32 34 32c20 0 34 -13 34 -32s-14 -34 -34 -34zM419 808c-19 0 -34 15 -34 34s15 32 34 32c20 0 34 -13 34 -32s-14 -34 -34 -34zM343 -4c-155 0 -263 108 -263 288v426h36v-425
c0 -159 92 -254 227 -254s229 94 229 254v425h35v-426c0 -179 -108 -288 -264 -288z" />
    <glyph glyph-name="uni01DB" unicode="&#x1db;" horiz-adv-x="687" 
d="M327 893l-124 134h42l118 -134h-36zM268 808c-19 0 -34 15 -34 34s15 32 34 32c20 0 34 -13 34 -32s-14 -34 -34 -34zM419 808c-19 0 -34 15 -34 34s15 32 34 32c20 0 34 -13 34 -32s-14 -34 -34 -34zM343 -4c-155 0 -263 108 -263 288v426h36v-425
c0 -159 92 -254 227 -254s229 94 229 254v425h35v-426c0 -179 -108 -288 -264 -288z" />
    <glyph glyph-name="uni1E30" unicode="&#x1e30;" horiz-adv-x="619" 
d="M250 792l113 125h42l-116 -125h-39zM89 0v710h35v-465h2l400 465h46l-287 -334l293 -376h-46l-271 349l-137 -158v-191h-35z" />
    <glyph glyph-name="Q.alt" horiz-adv-x="822" 
d="M762 356c0 -155 -81 -273 -198 -327l157 -132l-21 -28l-171 146c-37 -13 -76 -19 -117 -19c-210 0 -351 160 -351 360c0 198 141 359 351 359c193 0 350 -144 350 -359zM98 356c0 -180 127 -325 314 -325c172 0 312 130 312 325c0 194 -140 324 -312 324
c-187 0 -314 -145 -314 -324z" />
    <glyph glyph-name="a" unicode="a" horiz-adv-x="594" 
d="M284 -4c-132 0 -239 97 -239 242c0 139 97 251 240 251c88 0 165 -50 201 -132l1 1v127h33v-485h-33v124h-1c-35 -76 -107 -128 -202 -128zM287 29c110 0 200 83 200 209c0 120 -80 219 -200 219c-114 0 -207 -88 -207 -219c0 -116 82 -209 207 -209z" />
    <glyph glyph-name="aacute" unicode="&#xe1;" horiz-adv-x="594" 
d="M283 561l122 136h43l-124 -136h-41zM284 -4c-132 0 -239 97 -239 242c0 139 97 251 240 251c88 0 165 -50 201 -132l1 1v127h33v-485h-33v124h-1c-35 -76 -107 -128 -202 -128zM287 29c110 0 200 83 200 209c0 120 -80 219 -200 219c-114 0 -207 -88 -207 -219
c0 -116 82 -209 207 -209z" />
    <glyph glyph-name="abreve" unicode="&#x103;" horiz-adv-x="594" 
d="M289 559c-67 0 -121 45 -127 130h30c4 -56 38 -100 97 -100c58 0 93 44 96 100h30c-6 -85 -60 -130 -126 -130zM284 -4c-132 0 -239 97 -239 242c0 139 97 251 240 251c88 0 165 -50 201 -132l1 1v127h33v-485h-33v124h-1c-35 -76 -107 -128 -202 -128zM287 29
c110 0 200 83 200 209c0 120 -80 219 -200 219c-114 0 -207 -88 -207 -219c0 -116 82 -209 207 -209z" />
    <glyph glyph-name="uni1EAF" unicode="&#x1eaf;" horiz-adv-x="594" 
d="M263 693l118 136h43l-125 -136h-36zM289 559c-67 0 -121 45 -127 130h30c4 -56 38 -100 97 -100c58 0 93 44 96 100h30c-6 -85 -60 -130 -126 -130zM284 -4c-132 0 -239 97 -239 242c0 139 97 251 240 251c88 0 165 -50 201 -132l1 1v127h33v-485h-33v124h-1
c-35 -76 -107 -128 -202 -128zM287 29c110 0 200 83 200 209c0 120 -80 219 -200 219c-114 0 -207 -88 -207 -219c0 -116 82 -209 207 -209z" />
    <glyph glyph-name="uni1EB7" unicode="&#x1eb7;" horiz-adv-x="594" 
d="M289 559c-67 0 -121 45 -127 130h30c4 -56 38 -100 97 -100c58 0 93 44 96 100h30c-6 -85 -60 -130 -126 -130zM284 -4c-132 0 -239 97 -239 242c0 139 97 251 240 251c88 0 165 -50 201 -132l1 1v127h33v-485h-33v124h-1c-35 -76 -107 -128 -202 -128zM287 29
c110 0 200 83 200 209c0 120 -80 219 -200 219c-114 0 -207 -88 -207 -219c0 -116 82 -209 207 -209zM290 -118c19 0 34 -15 34 -34c0 -20 -15 -33 -34 -33c-20 0 -34 13 -34 33c0 19 14 34 34 34z" />
    <glyph glyph-name="uni1EB1" unicode="&#x1eb1;" horiz-adv-x="594" 
d="M289 693l-125 136h43l118 -136h-36zM289 559c-67 0 -121 45 -127 130h30c4 -56 38 -100 97 -100c58 0 93 44 96 100h30c-6 -85 -60 -130 -126 -130zM284 -4c-132 0 -239 97 -239 242c0 139 97 251 240 251c88 0 165 -50 201 -132l1 1v127h33v-485h-33v124h-1
c-35 -76 -107 -128 -202 -128zM287 29c110 0 200 83 200 209c0 120 -80 219 -200 219c-114 0 -207 -88 -207 -219c0 -116 82 -209 207 -209z" />
    <glyph glyph-name="uni1EB3" unicode="&#x1eb3;" horiz-adv-x="594" 
d="M260 677c40 28 94 63 94 100c0 31 -23 40 -54 40c-32 0 -67 -13 -86 -31l-9 28c27 17 62 30 98 30c44 0 81 -19 81 -67c0 -45 -56 -80 -85 -100h-39zM288 559c-67 0 -122 44 -128 129h30c5 -56 39 -99 98 -99c58 0 93 43 96 99h31c-6 -85 -61 -129 -127 -129zM284 -4
c-132 0 -239 97 -239 242c0 139 97 251 240 251c88 0 165 -50 201 -132l1 1v127h33v-485h-33v124h-1c-35 -76 -107 -128 -202 -128zM287 29c110 0 200 83 200 209c0 120 -80 219 -200 219c-114 0 -207 -88 -207 -219c0 -116 82 -209 207 -209z" />
    <glyph glyph-name="uni1EB5" unicode="&#x1eb5;" horiz-adv-x="594" 
d="M154 745l-27 10c17 51 44 80 87 80c29 0 51 -13 75 -29c26 -17 49 -36 73 -36c32 0 49 21 60 61l27 -9c-15 -54 -43 -82 -85 -82c-31 0 -61 21 -87 40c-21 14 -40 25 -61 25c-26 0 -48 -22 -62 -60zM289 559c-67 0 -121 45 -127 130h30c4 -56 38 -100 97 -100
c58 0 93 44 96 100h30c-6 -85 -60 -130 -126 -130zM284 -4c-132 0 -239 97 -239 242c0 139 97 251 240 251c88 0 165 -50 201 -132l1 1v127h33v-485h-33v124h-1c-35 -76 -107 -128 -202 -128zM287 29c110 0 200 83 200 209c0 120 -80 219 -200 219
c-114 0 -207 -88 -207 -219c0 -116 82 -209 207 -209z" />
    <glyph glyph-name="uni01CE" unicode="&#x1ce;" horiz-adv-x="594" 
d="M269 560l-120 130h39l99 -105h2l100 105h39l-123 -130h-36zM284 -4c-132 0 -239 97 -239 242c0 139 97 251 240 251c88 0 165 -50 201 -132l1 1v127h33v-485h-33v124h-1c-35 -76 -107 -128 -202 -128zM287 29c110 0 200 83 200 209c0 120 -80 219 -200 219
c-114 0 -207 -88 -207 -219c0 -116 82 -209 207 -209z" />
    <glyph glyph-name="acircumflex" unicode="&#xe2;" horiz-adv-x="594" 
d="M149 560l123 131h37l119 -131h-39l-97 106h-2l-102 -106h-39zM284 -4c-132 0 -239 97 -239 242c0 139 97 251 240 251c88 0 165 -50 201 -132l1 1v127h33v-485h-33v124h-1c-35 -76 -107 -128 -202 -128zM287 29c110 0 200 83 200 209c0 120 -80 219 -200 219
c-114 0 -207 -88 -207 -219c0 -116 82 -209 207 -209z" />
    <glyph glyph-name="uni1EA5" unicode="&#x1ea5;" horiz-adv-x="594" 
d="M391 641l118 136h43l-125 -136h-36zM151 561l123 131h37l119 -131h-39l-97 106h-2l-102 -106h-39zM284 -4c-132 0 -239 97 -239 242c0 139 97 251 240 251c88 0 165 -50 201 -132l1 1v127h33v-485h-33v124h-1c-35 -76 -107 -128 -202 -128zM287 29c110 0 200 83 200 209
c0 120 -80 219 -200 219c-114 0 -207 -88 -207 -219c0 -116 82 -209 207 -209z" />
    <glyph glyph-name="uni1EAD" unicode="&#x1ead;" horiz-adv-x="594" 
d="M149 560l123 131h37l119 -131h-39l-97 106h-2l-102 -106h-39zM284 -4c-132 0 -239 97 -239 242c0 139 97 251 240 251c88 0 165 -50 201 -132l1 1v127h33v-485h-33v124h-1c-35 -76 -107 -128 -202 -128zM287 29c110 0 200 83 200 209c0 120 -80 219 -200 219
c-114 0 -207 -88 -207 -219c0 -116 82 -209 207 -209zM290 -118c19 0 34 -15 34 -34c0 -20 -15 -33 -34 -33c-20 0 -34 13 -34 33c0 19 14 34 34 34z" />
    <glyph glyph-name="uni1EA7" unicode="&#x1ea7;" horiz-adv-x="594" 
d="M454 641l-125 136h43l118 -136h-36zM147 562l123 131h37l119 -131h-39l-97 106h-2l-102 -106h-39zM284 -4c-132 0 -239 97 -239 242c0 139 97 251 240 251c88 0 165 -50 201 -132l1 1v127h33v-485h-33v124h-1c-35 -76 -107 -128 -202 -128zM287 29c110 0 200 83 200 209
c0 120 -80 219 -200 219c-114 0 -207 -88 -207 -219c0 -116 82 -209 207 -209z" />
    <glyph glyph-name="uni1EA9" unicode="&#x1ea9;" horiz-adv-x="594" 
d="M408 636c40 28 94 63 94 100c0 31 -23 40 -54 40c-32 0 -67 -13 -86 -31l-9 28c27 17 62 30 98 30c44 0 81 -19 81 -67c0 -45 -56 -80 -85 -100h-39zM148 560l123 131h37l119 -131h-39l-97 106h-2l-102 -106h-39zM284 -4c-132 0 -239 97 -239 242c0 139 97 251 240 251
c88 0 165 -50 201 -132l1 1v127h33v-485h-33v124h-1c-35 -76 -107 -128 -202 -128zM287 29c110 0 200 83 200 209c0 120 -80 219 -200 219c-114 0 -207 -88 -207 -219c0 -116 82 -209 207 -209z" />
    <glyph glyph-name="uni1EAB" unicode="&#x1eab;" horiz-adv-x="594" 
d="M153 760l-27 10c17 51 44 80 87 80c29 0 51 -13 75 -29c26 -17 49 -36 73 -36c32 0 49 21 60 61l27 -9c-15 -54 -43 -82 -85 -82c-31 0 -61 21 -87 40c-21 14 -40 25 -61 25c-26 0 -48 -22 -62 -60zM150 560l123 131h37l119 -131h-39l-97 106h-2l-102 -106h-39zM284 -4
c-132 0 -239 97 -239 242c0 139 97 251 240 251c88 0 165 -50 201 -132l1 1v127h33v-485h-33v124h-1c-35 -76 -107 -128 -202 -128zM287 29c110 0 200 83 200 209c0 120 -80 219 -200 219c-114 0 -207 -88 -207 -219c0 -116 82 -209 207 -209z" />
    <glyph glyph-name="adieresis" unicode="&#xe4;" horiz-adv-x="594" 
d="M211 600c-19 0 -34 15 -34 33c0 20 15 33 34 33s33 -14 33 -33s-14 -33 -33 -33zM365 600c-20 0 -34 15 -34 33c0 20 14 33 34 33c19 0 33 -14 33 -33s-14 -33 -33 -33zM284 -4c-132 0 -239 97 -239 242c0 139 97 251 240 251c88 0 165 -50 201 -132l1 1v127h33v-485h-33
v124h-1c-35 -76 -107 -128 -202 -128zM287 29c110 0 200 83 200 209c0 120 -80 219 -200 219c-114 0 -207 -88 -207 -219c0 -116 82 -209 207 -209z" />
    <glyph glyph-name="uni1EA1" unicode="&#x1ea1;" horiz-adv-x="594" 
d="M284 -4c-132 0 -239 97 -239 242c0 139 97 251 240 251c88 0 165 -50 201 -132l1 1v127h33v-485h-33v124h-1c-35 -76 -107 -128 -202 -128zM287 29c110 0 200 83 200 209c0 120 -80 219 -200 219c-114 0 -207 -88 -207 -219c0 -116 82 -209 207 -209zM290 -118
c19 0 34 -15 34 -34c0 -20 -15 -33 -34 -33c-20 0 -34 13 -34 33c0 19 14 34 34 34z" />
    <glyph glyph-name="agrave" unicode="&#xe0;" horiz-adv-x="594" 
d="M291 564l-115 129h42l113 -129h-40zM284 -4c-132 0 -239 97 -239 242c0 139 97 251 240 251c88 0 165 -50 201 -132l1 1v127h33v-485h-33v124h-1c-35 -76 -107 -128 -202 -128zM287 29c110 0 200 83 200 209c0 120 -80 219 -200 219c-114 0 -207 -88 -207 -219
c0 -116 82 -209 207 -209z" />
    <glyph glyph-name="uni1EA3" unicode="&#x1ea3;" horiz-adv-x="594" 
d="M264 554c42 30 98 66 98 105c0 32 -24 41 -56 41c-34 0 -70 -13 -90 -32l-9 29c28 18 64 32 102 32c46 0 84 -20 84 -70c0 -47 -58 -84 -88 -105h-41zM284 -4c-132 0 -239 97 -239 242c0 139 97 251 240 251c88 0 165 -50 201 -132l1 1v127h33v-485h-33v124h-1
c-35 -76 -107 -128 -202 -128zM287 29c110 0 200 83 200 209c0 120 -80 219 -200 219c-114 0 -207 -88 -207 -219c0 -116 82 -209 207 -209z" />
    <glyph glyph-name="amacron" unicode="&#x101;" horiz-adv-x="594" 
d="M154 614v32h271v-32h-271zM284 -4c-132 0 -239 97 -239 242c0 139 97 251 240 251c88 0 165 -50 201 -132l1 1v127h33v-485h-33v124h-1c-35 -76 -107 -128 -202 -128zM287 29c110 0 200 83 200 209c0 120 -80 219 -200 219c-114 0 -207 -88 -207 -219
c0 -116 82 -209 207 -209z" />
    <glyph glyph-name="aogonek" unicode="&#x105;" horiz-adv-x="594" 
d="M555 -140l4 -29c-16 -8 -34 -13 -64 -13c-53 0 -87 27 -87 78c0 36 26 82 79 113v115h-1c-35 -76 -107 -128 -202 -128c-132 0 -239 97 -239 242c0 139 97 251 240 251c88 0 165 -50 201 -132l1 1v127h33v-485h-1c-48 -23 -79 -63 -79 -100c0 -30 17 -53 58 -53
c29 0 40 4 57 13zM287 29c110 0 200 83 200 209c0 120 -80 219 -200 219c-114 0 -207 -88 -207 -219c0 -116 82 -209 207 -209z" />
    <glyph glyph-name="aring" unicode="&#xe5;" horiz-adv-x="594" 
d="M288 552c-41 0 -77 36 -77 77c0 42 35 77 77 77c43 0 79 -34 79 -77c0 -41 -35 -77 -79 -77zM288 581c28 0 51 22 51 48c0 27 -23 50 -51 50c-27 0 -49 -23 -49 -50c0 -26 22 -48 49 -48zM284 -4c-132 0 -239 97 -239 242c0 139 97 251 240 251c88 0 165 -50 201 -132
l1 1v127h33v-485h-33v124h-1c-35 -76 -107 -128 -202 -128zM287 29c110 0 200 83 200 209c0 120 -80 219 -200 219c-114 0 -207 -88 -207 -219c0 -116 82 -209 207 -209z" />
    <glyph glyph-name="aringacute" unicode="&#x1fb;" horiz-adv-x="594" 
d="M288 553c-41 0 -77 36 -77 77c0 42 35 77 77 77c26 0 49 -12 63 -31l87 56h50l-124 -81c2 -7 3 -14 3 -21c0 -41 -35 -77 -79 -77zM288 680c-27 0 -49 -23 -49 -50c0 -26 22 -48 49 -48c28 0 51 22 51 48c0 27 -23 50 -51 50zM487 485h33v-485h-33v124h-1
c-35 -76 -107 -128 -202 -128c-132 0 -239 97 -239 242c0 139 97 251 240 251c88 0 165 -50 201 -132l1 1v127zM287 29c110 0 200 83 200 209c0 120 -80 219 -200 219c-114 0 -207 -88 -207 -219c0 -116 82 -209 207 -209z" />
    <glyph glyph-name="atilde" unicode="&#xe3;" horiz-adv-x="594" 
d="M367 577c-32 0 -61 22 -88 40c-21 15 -41 27 -62 27c-28 0 -49 -22 -63 -60l-27 9c17 52 45 81 88 81c31 0 55 -14 77 -30c24 -16 47 -36 72 -36c24 0 48 19 60 60l27 -9c-16 -56 -50 -82 -84 -82zM284 -4c-132 0 -239 97 -239 242c0 139 97 251 240 251
c88 0 165 -50 201 -132l1 1v127h33v-485h-33v124h-1c-35 -76 -107 -128 -202 -128zM287 29c110 0 200 83 200 209c0 120 -80 219 -200 219c-114 0 -207 -88 -207 -219c0 -116 82 -209 207 -209z" />
    <glyph glyph-name="ae" unicode="&#xe6;" horiz-adv-x="792" 
d="M746 254v-16h-359c6 -132 73 -209 175 -209c73 0 107 29 142 78l25 -20c-40 -57 -85 -91 -167 -91c-104 0 -160 64 -184 135h-1c-22 -84 -97 -135 -189 -135c-102 0 -152 66 -152 140s54 133 175 133h144v22c0 121 -29 165 -113 165c-63 0 -112 -19 -150 -41l-15 28
c40 24 96 46 166 46c88 0 126 -43 138 -128h1c29 77 91 128 174 128c110 0 190 -100 190 -235zM389 269h322c-6 111 -64 188 -155 188c-98 0 -158 -79 -167 -188zM190 28c87 0 165 55 165 164v47l-143 -1c-79 0 -142 -33 -142 -102c0 -56 38 -108 120 -108z" />
    <glyph glyph-name="aeacute" unicode="&#x1fd;" horiz-adv-x="792" 
d="M520 697l-124 -136h-41l122 136h43zM746 254v-16h-359c6 -132 73 -209 175 -209c73 0 107 29 142 78l25 -20c-40 -57 -85 -91 -167 -91c-104 0 -160 64 -184 135h-1c-22 -84 -97 -135 -189 -135c-102 0 -152 66 -152 140s54 133 175 133h144v22c0 121 -29 165 -113 165
c-63 0 -112 -19 -150 -41l-15 28c40 24 96 46 166 46c88 0 126 -43 138 -128h1c29 77 91 128 174 128c110 0 190 -100 190 -235zM389 269h322c-6 111 -64 188 -155 188c-98 0 -158 -79 -167 -188zM190 28c87 0 165 55 165 164v47l-143 -1c-79 0 -142 -33 -142 -102
c0 -56 38 -108 120 -108z" />
    <glyph glyph-name="b" unicode="b" horiz-adv-x="603" 
d="M316 -4c-95 0 -167 52 -202 127h-1v-123h-33v736h34v-377h1c37 81 112 130 201 130c143 0 239 -112 239 -251c0 -145 -106 -242 -239 -242zM314 29c124 0 206 93 206 209c0 131 -92 219 -207 219c-120 0 -200 -99 -200 -219c0 -126 90 -209 201 -209z" />
    <glyph glyph-name="c" unicode="c" horiz-adv-x="503" 
d="M280 -4c-139 0 -233 101 -233 246c0 144 95 247 234 247c68 0 137 -27 184 -79l-25 -23c-34 41 -91 70 -158 70c-120 0 -201 -90 -201 -215c0 -126 81 -213 200 -213c63 0 125 25 162 68l23 -24c-41 -44 -108 -77 -186 -77z" />
    <glyph glyph-name="cacute" unicode="&#x107;" horiz-adv-x="503" 
d="M256 561l122 136h43l-124 -136h-41zM280 -4c-139 0 -233 101 -233 246c0 144 95 247 234 247c68 0 137 -27 184 -79l-25 -23c-34 41 -91 70 -158 70c-120 0 -201 -90 -201 -215c0 -126 81 -213 200 -213c63 0 125 25 162 68l23 -24c-41 -44 -108 -77 -186 -77z" />
    <glyph glyph-name="ccaron" unicode="&#x10d;" horiz-adv-x="503" 
d="M256 560l-120 130h39l99 -105h2l100 105h39l-123 -130h-36zM280 -4c-139 0 -233 101 -233 246c0 144 95 247 234 247c68 0 137 -27 184 -79l-25 -23c-34 41 -91 70 -158 70c-120 0 -201 -90 -201 -215c0 -126 81 -213 200 -213c63 0 125 25 162 68l23 -24
c-41 -44 -108 -77 -186 -77z" />
    <glyph glyph-name="ccedilla" unicode="&#xe7;" horiz-adv-x="503" 
d="M280 -4l-13 -29v-2c41 -2 82 -29 82 -77c0 -39 -31 -73 -90 -73c-17 0 -35 2 -50 6v27c13 -4 27 -7 46 -7c33 0 64 15 64 49c0 26 -27 54 -83 54l1 21l15 32c-123 13 -205 110 -205 245c0 144 95 247 234 247c68 0 137 -27 184 -79l-25 -23c-34 41 -91 70 -158 70
c-120 0 -201 -90 -201 -215c0 -126 81 -213 200 -213c63 0 125 25 162 68l23 -24c-41 -44 -108 -77 -186 -77z" />
    <glyph glyph-name="ccircumflex" unicode="&#x109;" horiz-adv-x="503" 
d="M136 560l123 131h37l119 -131h-39l-97 106h-2l-102 -106h-39zM280 -4c-139 0 -233 101 -233 246c0 144 95 247 234 247c68 0 137 -27 184 -79l-25 -23c-34 41 -91 70 -158 70c-120 0 -201 -90 -201 -215c0 -126 81 -213 200 -213c63 0 125 25 162 68l23 -24
c-41 -44 -108 -77 -186 -77z" />
    <glyph glyph-name="cdotaccent" unicode="&#x10b;" horiz-adv-x="503" 
d="M277 599c-19 0 -34 15 -34 34c0 20 15 33 34 33c20 0 34 -13 34 -33c0 -19 -14 -34 -34 -34zM280 -4c-139 0 -233 101 -233 246c0 144 95 247 234 247c68 0 137 -27 184 -79l-25 -23c-34 41 -91 70 -158 70c-120 0 -201 -90 -201 -215c0 -126 81 -213 200 -213
c63 0 125 25 162 68l23 -24c-41 -44 -108 -77 -186 -77z" />
    <glyph glyph-name="d" unicode="d" horiz-adv-x="603" 
d="M287 -4c-133 0 -241 97 -241 242c0 139 98 251 241 251c88 0 165 -50 201 -132h2v379h33v-736h-32v126h-2c-33 -77 -108 -130 -202 -130zM289 29c111 0 202 83 202 209c0 120 -82 219 -202 219c-115 0 -208 -88 -208 -219c0 -116 83 -209 208 -209z" />
    <glyph glyph-name="eth" unicode="&#xf0;" horiz-adv-x="582" 
d="M436 547c61 -82 98 -184 98 -293c0 -151 -98 -258 -244 -258c-134 0 -243 99 -243 245c0 135 98 246 239 246c78 0 147 -35 189 -91c1 -1 2 -3 3 -5l3 2c-17 49 -41 96 -71 137c-25 33 -54 63 -87 90l-70 -79l-24 19l70 79c-42 30 -89 55 -138 72l11 28
c53 -18 103 -44 148 -77l74 84l25 -19l-75 -84c35 -28 66 -60 92 -96zM290 29c125 0 209 94 209 221c0 118 -93 204 -208 204c-126 0 -210 -96 -210 -212c0 -128 93 -213 209 -213z" />
    <glyph glyph-name="dcaron" unicode="&#x10f;" horiz-adv-x="659" 
d="M612 595l25 163h38l-36 -163h-27zM287 -4c-133 0 -241 97 -241 242c0 139 98 251 241 251c88 0 165 -50 201 -132h2v379h33v-736h-32v126h-2c-33 -77 -108 -130 -202 -130zM289 29c111 0 202 83 202 209c0 120 -82 219 -202 219c-115 0 -208 -88 -208 -219
c0 -116 83 -209 208 -209z" />
    <glyph glyph-name="dcroat" unicode="&#x111;" horiz-adv-x="599" 
d="M586 614v-29h-63v-585h-32v126h-2c-33 -77 -108 -130 -202 -130c-133 0 -241 97 -241 242c0 139 98 251 241 251c88 0 165 -50 201 -132h2v228h-236v29h236v122h33v-122h63zM289 29c111 0 202 83 202 209c0 120 -82 219 -202 219c-115 0 -208 -88 -208 -219
c0 -116 83 -209 208 -209z" />
    <glyph glyph-name="uni1E0D" unicode="&#x1e0d;" horiz-adv-x="603" 
d="M287 -4c-133 0 -241 97 -241 242c0 139 98 251 241 251c88 0 165 -50 201 -132h2v379h33v-736h-32v126h-2c-33 -77 -108 -130 -202 -130zM289 29c111 0 202 83 202 209c0 120 -82 219 -202 219c-115 0 -208 -88 -208 -219c0 -116 83 -209 208 -209zM301 -118
c19 0 34 -15 34 -34c0 -20 -15 -33 -34 -33c-20 0 -34 13 -34 33c0 19 14 34 34 34z" />
    <glyph glyph-name="uni1E0F" unicode="&#x1e0f;" horiz-adv-x="603" 
d="M287 -4c-133 0 -241 97 -241 242c0 139 98 251 241 251c88 0 165 -50 201 -132h2v379h33v-736h-32v126h-2c-33 -77 -108 -130 -202 -130zM289 29c111 0 202 83 202 209c0 120 -82 219 -202 219c-115 0 -208 -88 -208 -219c0 -116 83 -209 208 -209zM437 -175h-271v32h271
v-32z" />
    <glyph glyph-name="e" unicode="e" horiz-adv-x="536" 
d="M493 256c0 -7 0 -16 -1 -18h-411c2 -122 85 -209 199 -209c75 0 131 30 168 78l25 -20c-42 -56 -105 -91 -192 -91c-137 0 -234 104 -234 246s100 247 232 247c127 0 214 -100 214 -233zM278 457c-103 0 -185 -78 -196 -188h377c-9 112 -77 188 -181 188z" />
    <glyph glyph-name="eacute" unicode="&#xe9;" horiz-adv-x="536" 
d="M415 697l-124 -136h-41l122 136h43zM493 256c0 -7 0 -16 -1 -18h-411c2 -122 85 -209 199 -209c75 0 131 30 168 78l25 -20c-42 -56 -105 -91 -192 -91c-137 0 -234 104 -234 246s100 247 232 247c127 0 214 -100 214 -233zM278 457c-103 0 -185 -78 -196 -188h377
c-9 112 -77 188 -181 188z" />
    <glyph glyph-name="ebreve" unicode="&#x115;" horiz-adv-x="536" 
d="M280 559c-67 0 -121 45 -127 130h30c4 -56 38 -100 97 -100c58 0 93 44 96 100h30c-6 -85 -60 -130 -126 -130zM493 256c0 -7 0 -16 -1 -18h-411c2 -122 85 -209 199 -209c75 0 131 30 168 78l25 -20c-42 -56 -105 -91 -192 -91c-137 0 -234 104 -234 246
s100 247 232 247c127 0 214 -100 214 -233zM278 457c-103 0 -185 -78 -196 -188h377c-9 112 -77 188 -181 188z" />
    <glyph glyph-name="ecaron" unicode="&#x11b;" horiz-adv-x="536" 
d="M296 560h-36l-120 130h39l99 -105h2l100 105h39zM493 256c0 -7 0 -16 -1 -18h-411c2 -122 85 -209 199 -209c75 0 131 30 168 78l25 -20c-42 -56 -105 -91 -192 -91c-137 0 -234 104 -234 246s100 247 232 247c127 0 214 -100 214 -233zM278 457
c-103 0 -185 -78 -196 -188h377c-9 112 -77 188 -181 188z" />
    <glyph glyph-name="ecircumflex" unicode="&#xea;" horiz-adv-x="536" 
d="M281 666l-102 -106h-39l123 131h37l119 -131h-39l-97 106h-2zM493 256c0 -7 0 -16 -1 -18h-411c2 -122 85 -209 199 -209c75 0 131 30 168 78l25 -20c-42 -56 -105 -91 -192 -91c-137 0 -234 104 -234 246s100 247 232 247c127 0 214 -100 214 -233zM278 457
c-103 0 -185 -78 -196 -188h377c-9 112 -77 188 -181 188z" />
    <glyph glyph-name="uni1EBF" unicode="&#x1ebf;" horiz-adv-x="536" 
d="M543 777l-125 -136h-36l118 136h43zM283 667l-102 -106h-39l123 131h37l119 -131h-39l-97 106h-2zM279 489c127 0 214 -100 214 -233c0 -7 0 -16 -1 -18h-411c2 -122 85 -209 199 -209c75 0 131 30 168 78l25 -20c-42 -56 -105 -91 -192 -91c-137 0 -234 104 -234 246
s100 247 232 247zM278 457c-103 0 -185 -78 -196 -188h377c-9 112 -77 188 -181 188z" />
    <glyph glyph-name="uni1EC7" unicode="&#x1ec7;" horiz-adv-x="536" 
d="M281 666l-102 -106h-39l123 131h37l119 -131h-39l-97 106h-2zM493 256c0 -7 0 -16 -1 -18h-411c2 -122 85 -209 199 -209c75 0 131 30 168 78l25 -20c-42 -56 -105 -91 -192 -91c-137 0 -234 104 -234 246s100 247 232 247c127 0 214 -100 214 -233zM278 457
c-103 0 -185 -78 -196 -188h377c-9 112 -77 188 -181 188zM285 -118c19 0 34 -15 34 -34c0 -20 -15 -33 -34 -33c-20 0 -34 13 -34 33c0 19 14 34 34 34z" />
    <glyph glyph-name="uni1EC1" unicode="&#x1ec1;" horiz-adv-x="536" 
d="M481 641h-36l-125 136h43zM279 668l-102 -106h-39l123 131h37l119 -131h-39l-97 106h-2zM493 256c0 -7 0 -16 -1 -18h-411c2 -122 85 -209 199 -209c75 0 131 30 168 78l25 -20c-42 -56 -105 -91 -192 -91c-137 0 -234 104 -234 246s100 247 232 247
c127 0 214 -100 214 -233zM278 457c-103 0 -185 -78 -196 -188h377c-9 112 -77 188 -181 188z" />
    <glyph glyph-name="uni1EC3" unicode="&#x1ec3;" horiz-adv-x="536" 
d="M442 803c44 0 81 -19 81 -67c0 -45 -56 -80 -85 -100h-39c40 28 94 63 94 100c0 31 -23 40 -54 40c-32 0 -67 -13 -86 -31l-9 28c27 17 62 30 98 30zM280 666l-102 -106h-39l123 131h37l119 -131h-39l-97 106h-2zM279 489c127 0 214 -100 214 -233c0 -7 0 -16 -1 -18
h-411c2 -122 85 -209 199 -209c75 0 131 30 168 78l25 -20c-42 -56 -105 -91 -192 -91c-137 0 -234 104 -234 246s100 247 232 247zM278 457c-103 0 -185 -78 -196 -188h377c-9 112 -77 188 -181 188z" />
    <glyph glyph-name="uni1EC5" unicode="&#x1ec5;" horiz-adv-x="536" 
d="M206 820c-26 0 -48 -22 -62 -60l-27 10c17 51 44 80 87 80c29 0 51 -13 75 -29c26 -17 49 -36 73 -36c32 0 49 21 60 61l27 -9c-15 -54 -43 -82 -85 -82c-31 0 -61 21 -87 40c-21 14 -40 25 -61 25zM264 691h37l119 -131h-39l-97 106h-2l-102 -106h-39zM493 256
c0 -7 0 -16 -1 -18h-411c2 -122 85 -209 199 -209c75 0 131 30 168 78l25 -20c-42 -56 -105 -91 -192 -91c-137 0 -234 104 -234 246s100 247 232 247c127 0 214 -100 214 -233zM278 457c-103 0 -185 -78 -196 -188h377c-9 112 -77 188 -181 188z" />
    <glyph glyph-name="edieresis" unicode="&#xeb;" horiz-adv-x="536" 
d="M202 600c-19 0 -34 15 -34 33c0 20 15 33 34 33s33 -14 33 -33s-14 -33 -33 -33zM356 600c-20 0 -34 15 -34 33c0 20 14 33 34 33c19 0 33 -14 33 -33s-14 -33 -33 -33zM493 256c0 -7 0 -16 -1 -18h-411c2 -122 85 -209 199 -209c75 0 131 30 168 78l25 -20
c-42 -56 -105 -91 -192 -91c-137 0 -234 104 -234 246s100 247 232 247c127 0 214 -100 214 -233zM278 457c-103 0 -185 -78 -196 -188h377c-9 112 -77 188 -181 188z" />
    <glyph glyph-name="edotaccent" unicode="&#x117;" horiz-adv-x="536" 
d="M281 599c-19 0 -34 15 -34 34c0 20 15 33 34 33c20 0 34 -13 34 -33c0 -19 -14 -34 -34 -34zM493 256c0 -7 0 -16 -1 -18h-411c2 -122 85 -209 199 -209c75 0 131 30 168 78l25 -20c-42 -56 -105 -91 -192 -91c-137 0 -234 104 -234 246s100 247 232 247
c127 0 214 -100 214 -233zM278 457c-103 0 -185 -78 -196 -188h377c-9 112 -77 188 -181 188z" />
    <glyph glyph-name="uni1EB9" unicode="&#x1eb9;" horiz-adv-x="536" 
d="M493 256c0 -7 0 -16 -1 -18h-411c2 -122 85 -209 199 -209c75 0 131 30 168 78l25 -20c-42 -56 -105 -91 -192 -91c-137 0 -234 104 -234 246s100 247 232 247c127 0 214 -100 214 -233zM278 457c-103 0 -185 -78 -196 -188h377c-9 112 -77 188 -181 188zM285 -118
c19 0 34 -15 34 -34c0 -20 -15 -33 -34 -33c-20 0 -34 13 -34 33c0 19 14 34 34 34z" />
    <glyph glyph-name="egrave" unicode="&#xe8;" horiz-adv-x="536" 
d="M325 564h-40l-115 129h42zM493 256c0 -7 0 -16 -1 -18h-411c2 -122 85 -209 199 -209c75 0 131 30 168 78l25 -20c-42 -56 -105 -91 -192 -91c-137 0 -234 104 -234 246s100 247 232 247c127 0 214 -100 214 -233zM278 457c-103 0 -185 -78 -196 -188h377
c-9 112 -77 188 -181 188z" />
    <glyph glyph-name="uni1EBB" unicode="&#x1ebb;" horiz-adv-x="536" 
d="M297 700c-34 0 -70 -13 -90 -32l-9 29c28 18 64 32 102 32c46 0 84 -20 84 -70c0 -47 -58 -84 -88 -105h-41c42 30 98 66 98 105c0 32 -24 41 -56 41zM493 256c0 -7 0 -16 -1 -18h-411c2 -122 85 -209 199 -209c75 0 131 30 168 78l25 -20c-42 -56 -105 -91 -192 -91
c-137 0 -234 104 -234 246s100 247 232 247c127 0 214 -100 214 -233zM278 457c-103 0 -185 -78 -196 -188h377c-9 112 -77 188 -181 188z" />
    <glyph glyph-name="emacron" unicode="&#x113;" horiz-adv-x="536" 
d="M416 646v-32h-271v32h271zM493 256c0 -7 0 -16 -1 -18h-411c2 -122 85 -209 199 -209c75 0 131 30 168 78l25 -20c-42 -56 -105 -91 -192 -91c-137 0 -234 104 -234 246s100 247 232 247c127 0 214 -100 214 -233zM278 457c-103 0 -185 -78 -196 -188h377
c-9 112 -77 188 -181 188z" />
    <glyph glyph-name="eogonek" unicode="&#x119;" horiz-adv-x="536" 
d="M493 256c0 -7 0 -16 -1 -18h-411c2 -122 85 -209 199 -209c75 0 131 30 168 78l25 -20c-34 -46 -83 -78 -147 -88c-46 -25 -76 -62 -76 -98c0 -29 17 -52 59 -52c29 0 40 4 56 13l4 -30c-15 -8 -33 -13 -63 -13c-54 0 -88 28 -88 78c0 32 19 69 57 99
c-134 3 -228 106 -228 246c0 142 100 247 232 247c127 0 214 -100 214 -233zM278 457c-103 0 -185 -78 -196 -188h377c-9 112 -77 188 -181 188z" />
    <glyph glyph-name="uni1EBD" unicode="&#x1ebd;" horiz-adv-x="536" 
d="M208 644c-28 0 -49 -22 -63 -60l-27 9c17 52 45 81 88 81c31 0 55 -14 77 -30c24 -16 47 -36 72 -36c24 0 48 19 60 60l27 -9c-16 -56 -50 -82 -84 -82c-32 0 -61 22 -88 40c-21 15 -41 27 -62 27zM493 256c0 -7 0 -16 -1 -18h-411c2 -122 85 -209 199 -209
c75 0 131 30 168 78l25 -20c-42 -56 -105 -91 -192 -91c-137 0 -234 104 -234 246s100 247 232 247c127 0 214 -100 214 -233zM278 457c-103 0 -185 -78 -196 -188h377c-9 112 -77 188 -181 188z" />
    <glyph glyph-name="uni0259" unicode="&#x259;" horiz-adv-x="540" 
d="M256 489c138 0 237 -103 237 -246s-81 -247 -227 -247c-136 0 -221 99 -222 230c0 7 1 17 2 21h413c-2 125 -87 210 -204 210c-58 0 -108 -15 -157 -43l-15 27c54 32 110 48 173 48zM266 29c115 0 183 75 192 187h-379c4 -113 79 -187 187 -187z" />
    <glyph glyph-name="f" unicode="f" horiz-adv-x="315" 
d="M103 0v453h-66v32h66v114c0 97 49 142 121 142c40 0 70 -11 99 -28l-7 -31c-29 16 -56 26 -91 26c-49 0 -88 -30 -88 -111v-112h166v-32h-166v-453h-34z" />
    <glyph glyph-name="g" unicode="g" horiz-adv-x="589" 
d="M292 -202c-73 0 -135 18 -198 56l9 33c62 -39 119 -56 189 -56c131 0 191 77 191 184v121h-1c-34 -75 -105 -125 -201 -125c-130 0 -235 95 -235 241c0 131 95 237 235 237c89 0 164 -46 201 -121h1v117h33v-470c0 -128 -73 -217 -224 -217zM283 44c123 0 201 90 201 209
c0 121 -87 204 -200 204c-122 0 -203 -92 -203 -204c0 -127 90 -209 202 -209z" />
    <glyph glyph-name="gbreve" unicode="&#x11f;" horiz-adv-x="589" 
d="M283 559c-67 0 -121 45 -127 130h30c4 -56 38 -100 97 -100c58 0 93 44 96 100h30c-6 -85 -60 -130 -126 -130zM292 -202c-73 0 -135 18 -198 56l9 33c62 -39 119 -56 189 -56c131 0 191 77 191 184v121h-1c-34 -75 -105 -125 -201 -125c-130 0 -235 95 -235 241
c0 131 95 237 235 237c89 0 164 -46 201 -121h1v117h33v-470c0 -128 -73 -217 -224 -217zM283 44c123 0 201 90 201 209c0 121 -87 204 -200 204c-122 0 -203 -92 -203 -204c0 -127 90 -209 202 -209z" />
    <glyph glyph-name="gcaron" unicode="&#x1e7;" horiz-adv-x="589" 
d="M263 560l-120 130h39l99 -105h2l100 105h39l-123 -130h-36zM292 -202c-73 0 -135 18 -198 56l9 33c62 -39 119 -56 189 -56c131 0 191 77 191 184v121h-1c-34 -75 -105 -125 -201 -125c-130 0 -235 95 -235 241c0 131 95 237 235 237c89 0 164 -46 201 -121h1v117h33
v-470c0 -128 -73 -217 -224 -217zM283 44c123 0 201 90 201 209c0 121 -87 204 -200 204c-122 0 -203 -92 -203 -204c0 -127 90 -209 202 -209z" />
    <glyph glyph-name="gcircumflex" unicode="&#x11d;" horiz-adv-x="589" 
d="M143 560l123 131h37l119 -131h-39l-97 106h-2l-102 -106h-39zM292 -202c-73 0 -135 18 -198 56l9 33c62 -39 119 -56 189 -56c131 0 191 77 191 184v121h-1c-34 -75 -105 -125 -201 -125c-130 0 -235 95 -235 241c0 131 95 237 235 237c89 0 164 -46 201 -121h1v117h33
v-470c0 -128 -73 -217 -224 -217zM283 44c123 0 201 90 201 209c0 121 -87 204 -200 204c-122 0 -203 -92 -203 -204c0 -127 90 -209 202 -209z" />
    <glyph glyph-name="gcommaaccent" unicode="&#x123;" horiz-adv-x="589" 
d="M361 700l10 -24c-56 -5 -66 -35 -66 -69c0 -18 2 -36 5 -54h-32c-3 16 -5 36 -5 54c0 49 23 88 88 93zM292 -202c-73 0 -135 18 -198 56l9 33c62 -39 119 -56 189 -56c131 0 191 77 191 184v121h-1c-34 -75 -105 -125 -201 -125c-130 0 -235 95 -235 241
c0 131 95 237 235 237c89 0 164 -46 201 -121h1v117h33v-470c0 -128 -73 -217 -224 -217zM283 44c123 0 201 90 201 209c0 121 -87 204 -200 204c-122 0 -203 -92 -203 -204c0 -127 90 -209 202 -209z" />
    <glyph glyph-name="gdotaccent" unicode="&#x121;" horiz-adv-x="589" 
d="M284 599c-19 0 -34 15 -34 34c0 20 15 33 34 33c20 0 34 -13 34 -33c0 -19 -14 -34 -34 -34zM292 -202c-73 0 -135 18 -198 56l9 33c62 -39 119 -56 189 -56c131 0 191 77 191 184v121h-1c-34 -75 -105 -125 -201 -125c-130 0 -235 95 -235 241c0 131 95 237 235 237
c89 0 164 -46 201 -121h1v117h33v-470c0 -128 -73 -217 -224 -217zM283 44c123 0 201 90 201 209c0 121 -87 204 -200 204c-122 0 -203 -92 -203 -204c0 -127 90 -209 202 -209z" />
    <glyph glyph-name="uni1E21" unicode="&#x1e21;" horiz-adv-x="589" 
d="M148 614v32h271v-32h-271zM292 -202c-73 0 -135 18 -198 56l9 33c62 -39 119 -56 189 -56c131 0 191 77 191 184v121h-1c-34 -75 -105 -125 -201 -125c-130 0 -235 95 -235 241c0 131 95 237 235 237c89 0 164 -46 201 -121h1v117h33v-470c0 -128 -73 -217 -224 -217z
M283 44c123 0 201 90 201 209c0 121 -87 204 -200 204c-122 0 -203 -92 -203 -204c0 -127 90 -209 202 -209z" />
    <glyph glyph-name="h" unicode="h" horiz-adv-x="554" 
d="M80 0v736h34v-372h1c34 78 107 125 201 125c103 0 169 -69 169 -197v-292h-33v279c0 130 -63 178 -140 178c-121 0 -198 -86 -198 -217v-240h-34z" />
    <glyph glyph-name="hbar" unicode="&#x127;" horiz-adv-x="554" 
d="M316 489c103 0 169 -69 169 -197v-292h-33v279c0 130 -63 178 -140 178c-121 0 -198 -86 -198 -217v-240h-34v585h-75v29h75v122h34v-122h213v-29h-213v-221h1c34 78 107 125 201 125z" />
    <glyph glyph-name="uni1E2B" unicode="&#x1e2b;" horiz-adv-x="554" 
d="M80 0v736h34v-372h1c34 78 107 125 201 125c103 0 169 -69 169 -197v-292h-33v279c0 130 -63 178 -140 178c-121 0 -198 -86 -198 -217v-240h-34zM282 -209c-66 0 -120 45 -126 130h30c3 -56 38 -100 96 -100c59 0 93 44 97 100h30c-6 -85 -60 -130 -127 -130z" />
    <glyph glyph-name="hcircumflex" unicode="&#x125;" horiz-adv-x="554" 
d="M80 805l123 112h37l120 -112h-40l-98 89h-2l-101 -89h-39zM80 0v736h34v-372h1c34 78 107 125 201 125c103 0 169 -69 169 -197v-292h-33v279c0 130 -63 178 -140 178c-121 0 -198 -86 -198 -217v-240h-34z" />
    <glyph glyph-name="uni1E25" unicode="&#x1e25;" horiz-adv-x="554" 
d="M80 0v736h34v-372h1c34 78 107 125 201 125c103 0 169 -69 169 -197v-292h-33v279c0 130 -63 178 -140 178c-121 0 -198 -86 -198 -217v-240h-34zM282 -118c19 0 34 -15 34 -34c0 -20 -15 -33 -34 -33c-20 0 -34 13 -34 33c0 19 14 34 34 34z" />
    <glyph glyph-name="i" unicode="i" horiz-adv-x="205" 
d="M104 599c-19 0 -34 15 -34 34c0 20 15 33 34 33c20 0 34 -13 34 -33c0 -19 -14 -34 -34 -34zM85 0v485h34v-485h-34z" />
    <glyph glyph-name="dotlessi" unicode="&#x131;" horiz-adv-x="205" 
d="M85 0v485h34v-485h-34z" />
    <glyph glyph-name="iacute" unicode="&#xed;" horiz-adv-x="205" 
d="M88 561l122 136h43l-124 -136h-41zM85 0v485h34v-485h-34z" />
    <glyph glyph-name="ibreve" unicode="&#x12d;" horiz-adv-x="205" 
d="M103 559c-64 0 -113 45 -117 130h31c2 -58 28 -101 86 -101c57 0 84 43 85 101h31c-5 -84 -51 -130 -116 -130zM85 0v485h34v-485h-34z" />
    <glyph glyph-name="uni01D0" unicode="&#x1d0;" horiz-adv-x="205" 
d="M83 560l-120 130h39l99 -105h2l100 105h39l-123 -130h-36zM85 0v485h34v-485h-34z" />
    <glyph glyph-name="icircumflex" unicode="&#xee;" horiz-adv-x="205" 
d="M-37 560l123 131h37l119 -131h-39l-97 106h-2l-102 -106h-39zM85 0v485h34v-485h-34z" />
    <glyph glyph-name="idieresis" unicode="&#xef;" horiz-adv-x="205" 
d="M25 600c-19 0 -34 15 -34 33c0 20 15 33 34 33s33 -14 33 -33s-14 -33 -33 -33zM179 600c-20 0 -34 15 -34 33c0 20 14 33 34 33c19 0 33 -14 33 -33s-14 -33 -33 -33zM85 0v485h34v-485h-34z" />
    <glyph glyph-name="i.loclTRK" horiz-adv-x="205" 
d="M104 599c-19 0 -34 15 -34 34c0 20 15 33 34 33c20 0 34 -13 34 -33c0 -19 -14 -34 -34 -34zM85 0v485h34v-485h-34z" />
    <glyph glyph-name="uni1ECB" unicode="&#x1ecb;" horiz-adv-x="205" 
d="M104 599c-19 0 -34 15 -34 34c0 20 15 33 34 33c20 0 34 -13 34 -33c0 -19 -14 -34 -34 -34zM85 0v485h34v-485h-34zM103 -118c19 0 34 -15 34 -34c0 -20 -15 -33 -34 -33c-20 0 -34 13 -34 33c0 19 14 34 34 34z" />
    <glyph glyph-name="igrave" unicode="&#xec;" horiz-adv-x="205" 
d="M81 561l-90 136h41l87 -136h-38zM85 0v485h34v-485h-34z" />
    <glyph glyph-name="uni1EC9" unicode="&#x1ec9;" horiz-adv-x="205" 
d="M78 554c42 30 98 66 98 105c0 32 -24 41 -56 41c-34 0 -70 -13 -90 -32l-9 29c28 18 64 32 102 32c46 0 84 -20 84 -70c0 -47 -58 -84 -88 -105h-41zM85 0v485h34v-485h-34z" />
    <glyph glyph-name="ij" unicode="&#x133;" horiz-adv-x="390" 
d="M104 599c-19 0 -34 15 -34 34c0 20 15 33 34 33c20 0 34 -13 34 -33c0 -19 -14 -34 -34 -34zM304 599c-19 0 -34 15 -34 34c0 20 15 33 34 33c20 0 34 -13 34 -33c0 -19 -14 -34 -34 -34zM85 0v485h34v-485h-34zM214 -202c-18 0 -45 4 -67 15l5 33c20 -11 44 -15 61 -15
c43 0 73 24 73 91v563h34v-563c0 -67 -26 -124 -106 -124z" />
    <glyph glyph-name="imacron" unicode="&#x12b;" horiz-adv-x="205" 
d="M-32 614v32h271v-32h-271zM85 0v485h34v-485h-34z" />
    <glyph glyph-name="iogonek" unicode="&#x12f;" horiz-adv-x="205" 
d="M104 599c-19 0 -34 15 -34 34c0 20 15 33 34 33c20 0 34 -13 34 -33c0 -19 -14 -34 -34 -34zM154 -140l4 -29c-16 -8 -34 -13 -64 -13c-53 0 -87 27 -87 78c0 36 26 81 78 113v476h34v-485h-1c-48 -23 -79 -63 -79 -100c0 -30 17 -53 58 -53c29 0 40 4 57 13z" />
    <glyph glyph-name="itilde" unicode="&#x129;" horiz-adv-x="205" 
d="M181 577c-32 0 -61 22 -88 40c-21 15 -41 27 -62 27c-28 0 -49 -22 -63 -60l-27 9c17 52 45 81 88 81c31 0 55 -14 77 -30c24 -16 47 -36 72 -36c24 0 48 19 60 60l27 -9c-16 -56 -50 -82 -84 -82zM85 0v485h34v-485h-34z" />
    <glyph glyph-name="j" unicode="j" horiz-adv-x="185" 
d="M99 599c-19 0 -34 15 -34 34c0 20 15 33 34 33c20 0 34 -13 34 -33c0 -19 -14 -34 -34 -34zM9 -202c-18 0 -45 4 -67 15l5 33c20 -11 44 -15 61 -15c43 0 73 24 73 91v563h34v-563c0 -67 -26 -124 -106 -124z" />
    <glyph glyph-name="uni0237" unicode="&#x237;" horiz-adv-x="185" 
d="M9 -202c-18 0 -45 4 -67 15l5 33c20 -11 44 -15 61 -15c43 0 73 24 73 91v563h34v-563c0 -67 -26 -124 -106 -124z" />
    <glyph glyph-name="uni006A0301" horiz-adv-x="185" 
d="M82 574l122 136h43l-124 -136h-41zM9 -202c-18 0 -45 4 -67 15l5 33c20 -11 44 -15 61 -15c43 0 73 24 73 91v563h34v-563c0 -67 -26 -124 -106 -124z" />
    <glyph glyph-name="jcircumflex" unicode="&#x135;" horiz-adv-x="185" 
d="M-42 560l123 131h37l119 -131h-39l-97 106h-2l-102 -106h-39zM9 -202c-18 0 -45 4 -67 15l5 33c20 -11 44 -15 61 -15c43 0 73 24 73 91v563h34v-563c0 -67 -26 -124 -106 -124z" />
    <glyph glyph-name="k" unicode="k" horiz-adv-x="490" 
d="M80 0v736h34v-580l1 -1l301 330h45l-191 -209l189 -276h-40l-173 251l-132 -143v-108h-34z" />
    <glyph glyph-name="kcommaaccent" unicode="&#x137;" horiz-adv-x="490" 
d="M80 0v736h34v-580l1 -1l301 330h45l-191 -209l189 -276h-40l-173 251l-132 -143v-108h-34zM186 -202l-10 24c56 5 66 35 66 69c0 18 -2 36 -5 54h32c3 -16 5 -36 5 -54c0 -49 -23 -88 -88 -93z" />
    <glyph glyph-name="kgreenlandic" unicode="&#x138;" horiz-adv-x="516" 
d="M80 0v485h34v-331h1l316 331h46l-204 -213l214 -272h-44l-194 247l-135 -141v-106h-34z" />
    <glyph glyph-name="l" unicode="l" horiz-adv-x="204" 
d="M85 0v736h34v-736h-34z" />
    <glyph glyph-name="lacute" unicode="&#x13a;" horiz-adv-x="204" 
d="M82 805l113 125h42l-116 -125h-39zM85 0v736h34v-736h-34z" />
    <glyph glyph-name="lcaron" unicode="&#x13e;" horiz-adv-x="255" 
d="M208 595l25 163h38l-36 -163h-27zM85 0v736h34v-736h-34z" />
    <glyph glyph-name="lcommaaccent" unicode="&#x13c;" horiz-adv-x="204" 
d="M85 0v736h34v-736h-34zM36 -202l-10 24c56 5 66 35 66 69c0 18 -2 36 -5 54h32c3 -16 5 -36 5 -54c0 -49 -23 -88 -88 -93z" />
    <glyph glyph-name="ldot" unicode="&#x140;" horiz-adv-x="242" 
d="M85 0v736h34v-736h-34zM224 235c-20 0 -35 15 -35 35s15 34 35 34s35 -14 35 -34s-15 -35 -35 -35z" />
    <glyph glyph-name="uni1E37" unicode="&#x1e37;" horiz-adv-x="204" 
d="M85 0v736h34v-736h-34zM114 -118c19 0 34 -15 34 -34c0 -20 -15 -33 -34 -33c-20 0 -34 13 -34 33c0 19 14 34 34 34z" />
    <glyph glyph-name="uni1E39" unicode="&#x1e39;" horiz-adv-x="204" 
d="M-32 842v32h271v-32h-271zM85 0v736h34v-736h-34zM114 -118c19 0 34 -15 34 -34c0 -20 -15 -33 -34 -33c-20 0 -34 13 -34 33c0 19 14 34 34 34z" />
    <glyph glyph-name="uni1E3B" unicode="&#x1e3b;" horiz-adv-x="204" 
d="M85 0v736h34v-736h-34zM250 -175h-271v32h271v-32z" />
    <glyph glyph-name="lslash" unicode="&#x142;" horiz-adv-x="223" 
d="M212 381v-32l-81 -32v-317h-34v304l-89 -35v32l89 35v400h34v-387z" />
    <glyph glyph-name="m" unicode="m" horiz-adv-x="867" 
d="M80 0v485h34v-120h1c34 77 102 124 179 124c86 0 140 -53 159 -139h1c31 87 102 139 183 139c111 0 164 -83 164 -211v-278h-34v264c0 129 -49 193 -134 193c-95 0 -172 -87 -172 -217v-240h-34v264c0 129 -53 193 -137 193c-99 0 -176 -87 -176 -217v-240h-34z" />
    <glyph glyph-name="uni1E43" unicode="&#x1e43;" horiz-adv-x="867" 
d="M80 0v485h34v-120h1c34 77 102 124 179 124c86 0 140 -53 159 -139h1c31 87 102 139 183 139c111 0 164 -83 164 -211v-278h-34v264c0 129 -49 193 -134 193c-95 0 -172 -87 -172 -217v-240h-34v264c0 129 -53 193 -137 193c-99 0 -176 -87 -176 -217v-240h-34zM445 -118
c19 0 34 -15 34 -34c0 -20 -15 -33 -34 -33c-20 0 -34 13 -34 33c0 19 14 34 34 34z" />
    <glyph glyph-name="n" unicode="n" horiz-adv-x="549" 
d="M80 0v485h34v-121h1c35 78 107 125 197 125c102 0 168 -70 168 -198v-291h-33v278c0 131 -63 179 -140 179c-116 0 -193 -86 -193 -217v-240h-34z" />
    <glyph glyph-name="nacute" unicode="&#x144;" horiz-adv-x="549" 
d="M240 561l122 136h43l-124 -136h-41zM80 0v485h34v-121h1c35 78 107 125 197 125c102 0 168 -70 168 -198v-291h-33v278c0 131 -63 179 -140 179c-116 0 -193 -86 -193 -217v-240h-34z" />
    <glyph glyph-name="napostrophe" unicode="&#x149;" horiz-adv-x="603" 
d="M22 537l26 173h37l-35 -173h-28zM133 0v485h34v-121h1c35 78 107 125 197 125c102 0 168 -70 168 -198v-291h-33v278c0 131 -63 179 -140 179c-116 0 -193 -86 -193 -217v-240h-34z" />
    <glyph glyph-name="ncaron" unicode="&#x148;" horiz-adv-x="549" 
d="M264 560l-120 130h39l99 -105h2l100 105h39l-123 -130h-36zM80 0v485h34v-121h1c35 78 107 125 197 125c102 0 168 -70 168 -198v-291h-33v278c0 131 -63 179 -140 179c-116 0 -193 -86 -193 -217v-240h-34z" />
    <glyph glyph-name="ncommaaccent" unicode="&#x146;" horiz-adv-x="549" 
d="M80 0v485h34v-121h1c35 78 107 125 197 125c102 0 168 -70 168 -198v-291h-33v278c0 131 -63 179 -140 179c-116 0 -193 -86 -193 -217v-240h-34zM212 -202l-10 24c56 5 66 35 66 69c0 18 -2 36 -5 54h32c3 -16 5 -36 5 -54c0 -49 -23 -88 -88 -93z" />
    <glyph glyph-name="uni1E45" unicode="&#x1e45;" horiz-adv-x="549" 
d="M285 599c-19 0 -34 15 -34 34c0 20 15 33 34 33c20 0 34 -13 34 -33c0 -19 -14 -34 -34 -34zM80 0v485h34v-121h1c35 78 107 125 197 125c102 0 168 -70 168 -198v-291h-33v278c0 131 -63 179 -140 179c-116 0 -193 -86 -193 -217v-240h-34z" />
    <glyph glyph-name="uni1E47" unicode="&#x1e47;" horiz-adv-x="549" 
d="M80 0v485h34v-121h1c35 78 107 125 197 125c102 0 168 -70 168 -198v-291h-33v278c0 131 -63 179 -140 179c-116 0 -193 -86 -193 -217v-240h-34zM290 -118c19 0 34 -15 34 -34c0 -20 -15 -33 -34 -33c-20 0 -34 13 -34 33c0 19 14 34 34 34z" />
    <glyph glyph-name="eng" unicode="&#x14b;" horiz-adv-x="549" 
d="M338 -202c-22 0 -45 5 -66 14l4 31c20 -10 41 -13 60 -13c74 0 110 24 110 130v318c0 131 -62 179 -140 179c-115 0 -192 -86 -192 -217v-240h-34v485h34v-121h1c35 78 106 125 196 125c103 0 169 -70 169 -198v-330c0 -108 -34 -163 -142 -163z" />
    <glyph glyph-name="uni0272" unicode="&#x272;" horiz-adv-x="549" 
d="M312 489c102 0 168 -70 168 -198v-291h-33v278c0 131 -63 179 -140 179c-116 0 -193 -86 -193 -217v-316c0 -69 -25 -126 -107 -126c-18 0 -44 4 -65 14l4 31c19 -10 43 -13 60 -13c44 0 74 25 74 92v563h34v-121h1c35 78 107 125 197 125z" />
    <glyph glyph-name="uni1E49" unicode="&#x1e49;" horiz-adv-x="549" 
d="M80 0v485h34v-121h1c35 78 107 125 197 125c102 0 168 -70 168 -198v-291h-33v278c0 131 -63 179 -140 179c-116 0 -193 -86 -193 -217v-240h-34zM426 -175h-271v32h271v-32z" />
    <glyph glyph-name="ntilde" unicode="&#xf1;" horiz-adv-x="549" 
d="M362 577c-32 0 -61 22 -88 40c-21 15 -41 27 -62 27c-28 0 -49 -22 -63 -60l-27 9c17 52 45 81 88 81c31 0 55 -14 77 -30c24 -16 47 -36 72 -36c24 0 48 19 60 60l27 -9c-16 -56 -50 -82 -84 -82zM80 0v485h34v-121h1c35 78 107 125 197 125c102 0 168 -70 168 -198
v-291h-33v278c0 131 -63 179 -140 179c-116 0 -193 -86 -193 -217v-240h-34z" />
    <glyph glyph-name="o" unicode="o" horiz-adv-x="582" 
d="M291 -4c-146 0 -244 111 -244 246s98 247 244 247c135 0 244 -100 244 -247c0 -146 -109 -246 -244 -246zM291 29c117 0 209 86 209 213c0 128 -93 215 -209 215c-126 0 -210 -98 -210 -215s84 -213 210 -213z" />
    <glyph glyph-name="oacute" unicode="&#xf3;" horiz-adv-x="582" 
d="M270 561l122 136h43l-124 -136h-41zM291 -4c-146 0 -244 111 -244 246s98 247 244 247c135 0 244 -100 244 -247c0 -146 -109 -246 -244 -246zM291 29c117 0 209 86 209 213c0 128 -93 215 -209 215c-126 0 -210 -98 -210 -215s84 -213 210 -213z" />
    <glyph glyph-name="obreve" unicode="&#x14f;" horiz-adv-x="582" 
d="M292 559c-67 0 -121 45 -127 130h30c4 -56 38 -100 97 -100c58 0 93 44 96 100h30c-6 -85 -60 -130 -126 -130zM291 -4c-146 0 -244 111 -244 246s98 247 244 247c135 0 244 -100 244 -247c0 -146 -109 -246 -244 -246zM291 29c117 0 209 86 209 213
c0 128 -93 215 -209 215c-126 0 -210 -98 -210 -215s84 -213 210 -213z" />
    <glyph glyph-name="uni01D2" unicode="&#x1d2;" horiz-adv-x="582" 
d="M272 560l-120 130h39l99 -105h2l100 105h39l-123 -130h-36zM291 -4c-146 0 -244 111 -244 246s98 247 244 247c135 0 244 -100 244 -247c0 -146 -109 -246 -244 -246zM291 29c117 0 209 86 209 213c0 128 -93 215 -209 215c-126 0 -210 -98 -210 -215s84 -213 210 -213z
" />
    <glyph glyph-name="ocircumflex" unicode="&#xf4;" horiz-adv-x="582" 
d="M152 560l123 131h37l119 -131h-39l-97 106h-2l-102 -106h-39zM291 -4c-146 0 -244 111 -244 246s98 247 244 247c135 0 244 -100 244 -247c0 -146 -109 -246 -244 -246zM291 29c117 0 209 86 209 213c0 128 -93 215 -209 215c-126 0 -210 -98 -210 -215s84 -213 210 -213
z" />
    <glyph glyph-name="uni1ED1" unicode="&#x1ed1;" horiz-adv-x="582" 
d="M394 641l118 136h43l-125 -136h-36zM154 561l123 131h37l119 -131h-39l-97 106h-2l-102 -106h-39zM291 -4c-146 0 -244 111 -244 246s98 247 244 247c135 0 244 -100 244 -247c0 -146 -109 -246 -244 -246zM291 29c117 0 209 86 209 213c0 128 -93 215 -209 215
c-126 0 -210 -98 -210 -215s84 -213 210 -213z" />
    <glyph glyph-name="uni1ED9" unicode="&#x1ed9;" horiz-adv-x="582" 
d="M152 560l123 131h37l119 -131h-39l-97 106h-2l-102 -106h-39zM291 -4c-146 0 -244 111 -244 246s98 247 244 247c135 0 244 -100 244 -247c0 -146 -109 -246 -244 -246zM291 29c117 0 209 86 209 213c0 128 -93 215 -209 215c-126 0 -210 -98 -210 -215s84 -213 210 -213
zM291 -118c19 0 34 -15 34 -34c0 -20 -15 -33 -34 -33c-20 0 -34 13 -34 33c0 19 14 34 34 34z" />
    <glyph glyph-name="uni1ED3" unicode="&#x1ed3;" horiz-adv-x="582" 
d="M457 641l-125 136h43l118 -136h-36zM150 562l123 131h37l119 -131h-39l-97 106h-2l-102 -106h-39zM291 -4c-146 0 -244 111 -244 246s98 247 244 247c135 0 244 -100 244 -247c0 -146 -109 -246 -244 -246zM291 29c117 0 209 86 209 213c0 128 -93 215 -209 215
c-126 0 -210 -98 -210 -215s84 -213 210 -213z" />
    <glyph glyph-name="uni1ED5" unicode="&#x1ed5;" horiz-adv-x="582" 
d="M411 636c40 28 94 63 94 100c0 31 -23 40 -54 40c-32 0 -67 -13 -86 -31l-9 28c27 17 62 30 98 30c44 0 81 -19 81 -67c0 -45 -56 -80 -85 -100h-39zM151 560l123 131h37l119 -131h-39l-97 106h-2l-102 -106h-39zM291 -4c-146 0 -244 111 -244 246s98 247 244 247
c135 0 244 -100 244 -247c0 -146 -109 -246 -244 -246zM291 29c117 0 209 86 209 213c0 128 -93 215 -209 215c-126 0 -210 -98 -210 -215s84 -213 210 -213z" />
    <glyph glyph-name="uni1ED7" unicode="&#x1ed7;" horiz-adv-x="582" 
d="M156 760l-27 10c17 51 44 80 87 80c29 0 51 -13 75 -29c26 -17 49 -36 73 -36c32 0 49 21 60 61l27 -9c-15 -54 -43 -82 -85 -82c-31 0 -61 21 -87 40c-21 14 -40 25 -61 25c-26 0 -48 -22 -62 -60zM153 560l123 131h37l119 -131h-39l-97 106h-2l-102 -106h-39zM291 -4
c-146 0 -244 111 -244 246s98 247 244 247c135 0 244 -100 244 -247c0 -146 -109 -246 -244 -246zM291 29c117 0 209 86 209 213c0 128 -93 215 -209 215c-126 0 -210 -98 -210 -215s84 -213 210 -213z" />
    <glyph glyph-name="odieresis" unicode="&#xf6;" horiz-adv-x="582" 
d="M214 600c-19 0 -34 15 -34 33c0 20 15 33 34 33s33 -14 33 -33s-14 -33 -33 -33zM368 600c-20 0 -34 15 -34 33c0 20 14 33 34 33c19 0 33 -14 33 -33s-14 -33 -33 -33zM291 -4c-146 0 -244 111 -244 246s98 247 244 247c135 0 244 -100 244 -247
c0 -146 -109 -246 -244 -246zM291 29c117 0 209 86 209 213c0 128 -93 215 -209 215c-126 0 -210 -98 -210 -215s84 -213 210 -213z" />
    <glyph glyph-name="uni1ECD" unicode="&#x1ecd;" horiz-adv-x="582" 
d="M291 -4c-146 0 -244 111 -244 246s98 247 244 247c135 0 244 -100 244 -247c0 -146 -109 -246 -244 -246zM291 29c117 0 209 86 209 213c0 128 -93 215 -209 215c-126 0 -210 -98 -210 -215s84 -213 210 -213zM291 -118c19 0 34 -15 34 -34c0 -20 -15 -33 -34 -33
c-20 0 -34 13 -34 33c0 19 14 34 34 34z" />
    <glyph glyph-name="ograve" unicode="&#xf2;" horiz-adv-x="582" 
d="M290 564l-115 129h42l113 -129h-40zM291 -4c-146 0 -244 111 -244 246s98 247 244 247c135 0 244 -100 244 -247c0 -146 -109 -246 -244 -246zM291 29c117 0 209 86 209 213c0 128 -93 215 -209 215c-126 0 -210 -98 -210 -215s84 -213 210 -213z" />
    <glyph glyph-name="uni1ECF" unicode="&#x1ecf;" horiz-adv-x="582" 
d="M267 554c42 30 98 66 98 105c0 32 -24 41 -56 41c-34 0 -70 -13 -90 -32l-9 29c28 18 64 32 102 32c46 0 84 -20 84 -70c0 -47 -58 -84 -88 -105h-41zM291 -4c-146 0 -244 111 -244 246s98 247 244 247c135 0 244 -100 244 -247c0 -146 -109 -246 -244 -246zM291 29
c117 0 209 86 209 213c0 128 -93 215 -209 215c-126 0 -210 -98 -210 -215s84 -213 210 -213z" />
    <glyph glyph-name="ohorn" unicode="&#x1a1;" horiz-adv-x="651" 
d="M589 565h33v-76c0 -105 -37 -147 -103 -155c10 -28 16 -59 16 -92c0 -146 -109 -246 -244 -246c-146 0 -244 111 -244 246s98 247 244 247c94 0 175 -48 216 -126c54 4 82 34 82 126v76zM291 29c117 0 209 86 209 213c0 128 -93 215 -209 215c-126 0 -210 -98 -210 -215
s84 -213 210 -213z" />
    <glyph glyph-name="uni1EDB" unicode="&#x1edb;" horiz-adv-x="651" 
d="M435 697l-124 -136h-41l122 136h43zM589 565h33v-76c0 -105 -37 -147 -103 -155c10 -28 16 -59 16 -92c0 -146 -109 -246 -244 -246c-146 0 -244 111 -244 246s98 247 244 247c94 0 175 -48 216 -126c54 4 82 34 82 126v76zM291 29c117 0 209 86 209 213
c0 128 -93 215 -209 215c-126 0 -210 -98 -210 -215s84 -213 210 -213z" />
    <glyph glyph-name="uni1EE3" unicode="&#x1ee3;" horiz-adv-x="651" 
d="M589 565h33v-76c0 -105 -37 -147 -103 -155c10 -28 16 -59 16 -92c0 -146 -109 -246 -244 -246c-146 0 -244 111 -244 246s98 247 244 247c94 0 175 -48 216 -126c54 4 82 34 82 126v76zM291 29c117 0 209 86 209 213c0 128 -93 215 -209 215c-126 0 -210 -98 -210 -215
s84 -213 210 -213zM291 -118c19 0 34 -15 34 -34c0 -20 -15 -33 -34 -33c-20 0 -34 13 -34 33c0 19 14 34 34 34z" />
    <glyph glyph-name="uni1EDD" unicode="&#x1edd;" horiz-adv-x="651" 
d="M330 564h-40l-115 129h42zM589 565h33v-76c0 -105 -37 -147 -103 -155c10 -28 16 -59 16 -92c0 -146 -109 -246 -244 -246c-146 0 -244 111 -244 246s98 247 244 247c94 0 175 -48 216 -126c54 4 82 34 82 126v76zM291 29c117 0 209 86 209 213c0 128 -93 215 -209 215
c-126 0 -210 -98 -210 -215s84 -213 210 -213z" />
    <glyph glyph-name="uni1EDF" unicode="&#x1edf;" horiz-adv-x="651" 
d="M309 700c-34 0 -70 -13 -90 -32l-9 29c28 18 64 32 102 32c46 0 84 -20 84 -70c0 -47 -58 -84 -88 -105h-41c42 30 98 66 98 105c0 32 -24 41 -56 41zM589 565h33v-76c0 -105 -37 -147 -103 -155c10 -28 16 -59 16 -92c0 -146 -109 -246 -244 -246
c-146 0 -244 111 -244 246s98 247 244 247c94 0 175 -48 216 -126c54 4 82 34 82 126v76zM291 29c117 0 209 86 209 213c0 128 -93 215 -209 215c-126 0 -210 -98 -210 -215s84 -213 210 -213z" />
    <glyph glyph-name="uni1EE1" unicode="&#x1ee1;" horiz-adv-x="651" 
d="M220 644c-28 0 -49 -22 -63 -60l-27 9c17 52 45 81 88 81c31 0 55 -14 77 -30c24 -16 47 -36 72 -36c24 0 48 19 60 60l27 -9c-16 -56 -50 -82 -84 -82c-32 0 -61 22 -88 40c-21 15 -41 27 -62 27zM589 565h33v-76c0 -105 -37 -147 -103 -155c10 -28 16 -59 16 -92
c0 -146 -109 -246 -244 -246c-146 0 -244 111 -244 246s98 247 244 247c94 0 175 -48 216 -126c54 4 82 34 82 126v76zM291 29c117 0 209 86 209 213c0 128 -93 215 -209 215c-126 0 -210 -98 -210 -215s84 -213 210 -213z" />
    <glyph glyph-name="ohungarumlaut" unicode="&#x151;" horiz-adv-x="582" 
d="M206 560l121 136h42l-124 -136h-39zM339 560l121 136h42l-125 -136h-38zM291 -4c-146 0 -244 111 -244 246s98 247 244 247c135 0 244 -100 244 -247c0 -146 -109 -246 -244 -246zM291 29c117 0 209 86 209 213c0 128 -93 215 -209 215c-126 0 -210 -98 -210 -215
s84 -213 210 -213z" />
    <glyph glyph-name="omacron" unicode="&#x14d;" horiz-adv-x="582" 
d="M157 614v32h271v-32h-271zM291 -4c-146 0 -244 111 -244 246s98 247 244 247c135 0 244 -100 244 -247c0 -146 -109 -246 -244 -246zM291 29c117 0 209 86 209 213c0 128 -93 215 -209 215c-126 0 -210 -98 -210 -215s84 -213 210 -213z" />
    <glyph glyph-name="uni01EB" unicode="&#x1eb;" horiz-adv-x="582" 
d="M319 -3c-45 -23 -74 -61 -74 -97c0 -30 17 -53 58 -53c29 0 40 4 57 13l4 -29c-16 -8 -34 -13 -64 -13c-53 0 -87 27 -87 78c0 31 20 70 60 100v1c-136 9 -226 116 -226 245c0 135 98 247 244 247c135 0 244 -100 244 -247c0 -136 -94 -232 -216 -245zM81 242
c0 -117 84 -213 210 -213c117 0 209 86 209 213c0 128 -93 215 -209 215c-126 0 -210 -98 -210 -215z" />
    <glyph glyph-name="oslash" unicode="&#xf8;" horiz-adv-x="582" 
d="M537 475l-62 -66c37 -42 60 -100 60 -167c0 -146 -109 -246 -244 -246c-62 0 -116 20 -157 54l-59 -62l-24 21l60 63c-41 44 -64 104 -64 170c0 135 98 247 244 247c62 0 118 -21 161 -58l61 64zM81 242c0 -56 19 -107 53 -145l295 310c-37 32 -85 50 -138 50
c-126 0 -210 -98 -210 -215zM500 242c0 57 -18 106 -49 142l-294 -309c35 -29 81 -46 134 -46c117 0 209 86 209 213z" />
    <glyph glyph-name="oslashacute" unicode="&#x1ff;" horiz-adv-x="582" 
d="M435 697l-124 -136h-41l122 136h43zM537 475l-62 -66c37 -42 60 -100 60 -167c0 -146 -109 -246 -244 -246c-62 0 -116 20 -157 54l-59 -62l-24 21l60 63c-41 44 -64 104 -64 170c0 135 98 247 244 247c62 0 118 -21 161 -58l61 64zM81 242c0 -56 19 -107 53 -145
l295 310c-37 32 -85 50 -138 50c-126 0 -210 -98 -210 -215zM500 242c0 57 -18 106 -49 142l-294 -309c35 -29 81 -46 134 -46c117 0 209 86 209 213z" />
    <glyph glyph-name="otilde" unicode="&#xf5;" horiz-adv-x="582" 
d="M370 577c-32 0 -61 22 -88 40c-21 15 -41 27 -62 27c-28 0 -49 -22 -63 -60l-27 9c17 52 45 81 88 81c31 0 55 -14 77 -30c24 -16 47 -36 72 -36c24 0 48 19 60 60l27 -9c-16 -56 -50 -82 -84 -82zM291 -4c-146 0 -244 111 -244 246s98 247 244 247
c135 0 244 -100 244 -247c0 -146 -109 -246 -244 -246zM291 29c117 0 209 86 209 213c0 128 -93 215 -209 215c-126 0 -210 -98 -210 -215s84 -213 210 -213z" />
    <glyph glyph-name="oe" unicode="&#x153;" horiz-adv-x="822" 
d="M790 253c0 -5 0 -11 -1 -15h-355c4 -131 69 -209 172 -209c73 0 108 29 142 78l25 -20c-39 -57 -86 -91 -166 -91c-112 0 -167 71 -189 147h-2c-26 -90 -96 -147 -179 -147c-125 0 -201 106 -201 246c0 139 81 247 201 247c83 0 152 -58 178 -147h2c26 88 89 147 183 147
c110 0 190 -100 190 -236zM237 29c93 0 163 86 163 213c0 128 -73 215 -162 215c-100 0 -167 -93 -167 -215s65 -213 166 -213zM435 269h320c-7 112 -65 188 -155 188c-99 0 -157 -79 -165 -188z" />
    <glyph glyph-name="p" unicode="p" horiz-adv-x="603" 
d="M80 -198v683h34v-127h1c37 81 112 131 202 131c142 0 238 -112 238 -251c0 -145 -106 -242 -238 -242c-94 0 -167 51 -202 126h-1v-320h-34zM315 29c123 0 205 93 205 209c0 131 -92 219 -206 219c-121 0 -201 -99 -201 -219c0 -126 90 -209 202 -209z" />
    <glyph glyph-name="thorn" unicode="&#xfe;" horiz-adv-x="603" 
d="M80 -198v934h34v-377h1c36 80 112 130 201 130c143 0 239 -112 239 -251c0 -145 -106 -242 -239 -242c-93 0 -166 51 -201 126h-1v-320h-34zM314 29c124 0 206 93 206 209c0 131 -92 219 -207 219c-120 0 -200 -99 -200 -219c0 -126 90 -209 201 -209z" />
    <glyph glyph-name="q" unicode="q" horiz-adv-x="603" 
d="M491 -198v320h-1c-36 -75 -109 -126 -202 -126c-133 0 -240 97 -240 242c0 139 97 251 241 251c87 0 164 -50 201 -132h1v128h33v-683h-33zM290 29c111 0 201 83 201 209c0 120 -80 219 -200 219c-115 0 -208 -88 -208 -219c0 -116 82 -209 207 -209z" />
    <glyph glyph-name="r" unicode="r" horiz-adv-x="324" 
d="M80 0v485h34v-114h2c30 72 89 118 169 118c10 0 20 0 30 -1v-37c-11 1 -21 2 -30 2c-104 0 -171 -86 -171 -212v-241h-34z" />
    <glyph glyph-name="racute" unicode="&#x155;" horiz-adv-x="324" 
d="M124 560l122 136h43l-124 -136h-41zM80 0v485h34v-114h2c30 72 89 118 169 118c10 0 20 0 30 -1v-37c-11 1 -21 2 -30 2c-104 0 -171 -86 -171 -212v-241h-34z" />
    <glyph glyph-name="rcaron" unicode="&#x159;" horiz-adv-x="324" 
d="M178 560l-120 130h39l99 -105h2l100 105h39l-123 -130h-36zM80 0v485h34v-114h2c30 72 89 118 169 118c10 0 20 0 30 -1v-37c-11 1 -21 2 -30 2c-104 0 -171 -86 -171 -212v-241h-34z" />
    <glyph glyph-name="rcommaaccent" unicode="&#x157;" horiz-adv-x="324" 
d="M80 0v485h34v-114h2c30 72 89 118 169 118c10 0 20 0 30 -1v-37c-11 1 -21 2 -30 2c-104 0 -171 -86 -171 -212v-241h-34zM32 -202l-10 24c56 5 66 35 66 69c0 18 -2 36 -5 54h32c3 -16 5 -36 5 -54c0 -49 -23 -88 -88 -93z" />
    <glyph glyph-name="uni1E5B" unicode="&#x1e5b;" horiz-adv-x="324" 
d="M80 0v485h34v-114h2c30 72 89 118 169 118c10 0 20 0 30 -1v-37c-11 1 -21 2 -30 2c-104 0 -171 -86 -171 -212v-241h-34zM110 -118c19 0 34 -15 34 -34c0 -20 -15 -33 -34 -33c-20 0 -34 13 -34 33c0 19 14 34 34 34z" />
    <glyph glyph-name="uni1E5D" unicode="&#x1e5d;" horiz-adv-x="324" 
d="M63 614v32h271v-32h-271zM80 0v485h34v-114h2c30 72 89 118 169 118c10 0 20 0 30 -1v-37c-11 1 -21 2 -30 2c-104 0 -171 -86 -171 -212v-241h-34zM110 -118c19 0 34 -15 34 -34c0 -20 -15 -33 -34 -33c-20 0 -34 13 -34 33c0 19 14 34 34 34z" />
    <glyph glyph-name="uni1E5F" unicode="&#x1e5f;" horiz-adv-x="324" 
d="M80 0v485h34v-114h2c30 72 89 118 169 118c10 0 20 0 30 -1v-37c-11 1 -21 2 -30 2c-104 0 -171 -86 -171 -212v-241h-34zM246 -175h-271v32h271v-32z" />
    <glyph glyph-name="s" unicode="s" horiz-adv-x="419" 
d="M213 -4c-82 0 -139 32 -179 68l18 26c38 -33 82 -62 161 -62c83 0 131 45 131 96c0 69 -63 82 -146 112c-78 28 -142 55 -142 134c0 68 63 119 144 119c54 0 107 -14 159 -58l-20 -26c-47 41 -92 51 -139 51c-61 0 -109 -38 -109 -84c0 -60 54 -81 115 -104
c102 -36 174 -54 173 -145c-1 -68 -58 -127 -166 -127z" />
    <glyph glyph-name="sacute" unicode="&#x15b;" horiz-adv-x="419" 
d="M192 561l122 136h43l-124 -136h-41zM213 -4c-82 0 -139 32 -179 68l18 26c38 -33 82 -62 161 -62c83 0 131 45 131 96c0 69 -63 82 -146 112c-78 28 -142 55 -142 134c0 68 63 119 144 119c54 0 107 -14 159 -58l-20 -26c-47 41 -92 51 -139 51c-61 0 -109 -38 -109 -84
c0 -60 54 -81 115 -104c102 -36 174 -54 173 -145c-1 -68 -58 -127 -166 -127z" />
    <glyph glyph-name="scaron" unicode="&#x161;" horiz-adv-x="419" 
d="M194 560l-120 130h39l99 -105h2l100 105h39l-123 -130h-36zM213 -4c-82 0 -139 32 -179 68l18 26c38 -33 82 -62 161 -62c83 0 131 45 131 96c0 69 -63 82 -146 112c-78 28 -142 55 -142 134c0 68 63 119 144 119c54 0 107 -14 159 -58l-20 -26c-47 41 -92 51 -139 51
c-61 0 -109 -38 -109 -84c0 -60 54 -81 115 -104c102 -36 174 -54 173 -145c-1 -68 -58 -127 -166 -127z" />
    <glyph glyph-name="scedilla" unicode="&#x15f;" horiz-adv-x="419" 
d="M206 268c102 -36 174 -54 173 -145c-1 -68 -58 -127 -166 -127h-7l-13 -29v-2c41 -2 82 -29 82 -77c0 -39 -31 -73 -90 -73c-17 0 -35 2 -50 6v27c13 -4 27 -7 46 -7c33 0 64 15 64 49c0 26 -27 54 -83 54l1 21l15 33c-63 8 -110 35 -144 66l18 26c38 -33 82 -62 161 -62
c83 0 131 45 131 96c0 69 -63 82 -146 112c-78 28 -142 55 -142 134c0 68 63 119 144 119c54 0 107 -14 159 -58l-20 -26c-47 41 -92 51 -139 51c-61 0 -109 -38 -109 -84c0 -60 54 -81 115 -104z" />
    <glyph glyph-name="scircumflex" unicode="&#x15d;" horiz-adv-x="419" 
d="M74 560l123 131h37l119 -131h-39l-97 106h-2l-102 -106h-39zM213 -4c-82 0 -139 32 -179 68l18 26c38 -33 82 -62 161 -62c83 0 131 45 131 96c0 69 -63 82 -146 112c-78 28 -142 55 -142 134c0 68 63 119 144 119c54 0 107 -14 159 -58l-20 -26c-47 41 -92 51 -139 51
c-61 0 -109 -38 -109 -84c0 -60 54 -81 115 -104c102 -36 174 -54 173 -145c-1 -68 -58 -127 -166 -127z" />
    <glyph glyph-name="scommaaccent" unicode="&#x219;" horiz-adv-x="419" 
d="M213 -4c-82 0 -139 32 -179 68l18 26c38 -33 82 -62 161 -62c83 0 131 45 131 96c0 69 -63 82 -146 112c-78 28 -142 55 -142 134c0 68 63 119 144 119c54 0 107 -14 159 -58l-20 -26c-47 41 -92 51 -139 51c-61 0 -109 -38 -109 -84c0 -60 54 -81 115 -104
c102 -36 174 -54 173 -145c-1 -68 -58 -127 -166 -127zM132 -202l-10 24c56 5 66 35 66 69c0 18 -2 36 -5 54h32c3 -16 5 -36 5 -54c0 -49 -23 -88 -88 -93z" />
    <glyph glyph-name="uni1E61" unicode="&#x1e61;" horiz-adv-x="419" 
d="M215 599c-19 0 -34 15 -34 34c0 20 15 33 34 33c20 0 34 -13 34 -33c0 -19 -14 -34 -34 -34zM213 -4c-82 0 -139 32 -179 68l18 26c38 -33 82 -62 161 -62c83 0 131 45 131 96c0 69 -63 82 -146 112c-78 28 -142 55 -142 134c0 68 63 119 144 119c54 0 107 -14 159 -58
l-20 -26c-47 41 -92 51 -139 51c-61 0 -109 -38 -109 -84c0 -60 54 -81 115 -104c102 -36 174 -54 173 -145c-1 -68 -58 -127 -166 -127z" />
    <glyph glyph-name="uni1E63" unicode="&#x1e63;" horiz-adv-x="419" 
d="M213 -4c-82 0 -139 32 -179 68l18 26c38 -33 82 -62 161 -62c83 0 131 45 131 96c0 69 -63 82 -146 112c-78 28 -142 55 -142 134c0 68 63 119 144 119c54 0 107 -14 159 -58l-20 -26c-47 41 -92 51 -139 51c-61 0 -109 -38 -109 -84c0 -60 54 -81 115 -104
c102 -36 174 -54 173 -145c-1 -68 -58 -127 -166 -127zM210 -118c19 0 34 -15 34 -34c0 -20 -15 -33 -34 -33c-20 0 -34 13 -34 33c0 19 14 34 34 34z" />
    <glyph glyph-name="germandbls" unicode="&#xdf;" horiz-adv-x="593" 
d="M214 -4v33h111c111 0 195 73 195 191c0 100 -76 196 -205 196h-66v31h63c138 1 161 83 161 127c0 84 -62 134 -173 134c-113 0 -186 -62 -186 -207v-501h-34v501c0 164 88 240 220 240c128 0 207 -62 207 -166c0 -41 -18 -114 -106 -140v-2c96 -32 153 -121 153 -214
c0 -136 -98 -223 -225 -223h-115z" />
    <glyph glyph-name="longs" unicode="&#x17f;" horiz-adv-x="292" 
d="M103 0v453h-66v32h66v114c0 97 49 142 121 142c40 0 70 -11 99 -28l-7 -31c-29 16 -56 26 -91 26c-49 0 -88 -30 -88 -111v-597h-34z" />
    <glyph glyph-name="t" unicode="t" horiz-adv-x="355" 
d="M206 -4c-90 0 -112 53 -112 135v322h-66v32h66v173l34 4v-177h188v-32h-188v-307c0 -73 10 -117 78 -117c44 0 79 18 98 31l9 -32c-22 -14 -60 -32 -107 -32z" />
    <glyph glyph-name="tbar" unicode="&#x167;" horiz-adv-x="355" 
d="M316 453h-188v-154h167v-29h-167v-124c0 -73 10 -117 78 -117c44 0 79 18 98 31l9 -32c-22 -14 -60 -32 -107 -32c-90 0 -112 53 -112 135v139h-51v29h51v154h-66v32h66v173l34 4v-177h188v-32z" />
    <glyph glyph-name="tcaron" unicode="&#x165;" horiz-adv-x="355" 
d="M215 595l25 163h38l-36 -163h-27zM206 -4c-90 0 -112 53 -112 135v322h-66v32h66v173l34 4v-177h188v-32h-188v-307c0 -73 10 -117 78 -117c44 0 79 18 98 31l9 -32c-22 -14 -60 -32 -107 -32z" />
    <glyph glyph-name="uni0163" unicode="&#x163;" horiz-adv-x="355" 
d="M316 453h-188v-307c0 -73 10 -117 78 -117c44 0 79 18 98 31l9 -32c-22 -14 -60 -32 -107 -32h-7l-13 -29v-2c41 -2 82 -29 82 -77c0 -39 -31 -73 -90 -73c-17 0 -35 2 -50 6v27c13 -4 27 -7 46 -7c33 0 64 15 64 49c0 26 -27 54 -83 54l1 21l16 34
c-62 13 -78 62 -78 132v322h-66v32h66v173l34 4v-177h188v-32z" />
    <glyph glyph-name="uni021B" unicode="&#x21b;" horiz-adv-x="355" 
d="M206 -4c-90 0 -112 53 -112 135v322h-66v32h66v173l34 4v-177h188v-32h-188v-307c0 -73 10 -117 78 -117c44 0 79 18 98 31l9 -32c-22 -14 -60 -32 -107 -32zM125 -202l-10 24c56 5 66 35 66 69c0 18 -2 36 -5 54h32c3 -16 5 -36 5 -54c0 -49 -23 -88 -88 -93z" />
    <glyph glyph-name="uni1E97" unicode="&#x1e97;" horiz-adv-x="355" 
d="M69 744c-19 0 -34 15 -34 33c0 20 15 33 34 33s33 -14 33 -33s-14 -33 -33 -33zM223 744c-20 0 -34 15 -34 33c0 20 14 33 34 33c19 0 33 -14 33 -33s-14 -33 -33 -33zM206 -4c-90 0 -112 53 -112 135v322h-66v32h66v173l34 4v-177h188v-32h-188v-307
c0 -73 10 -117 78 -117c44 0 79 18 98 31l9 -32c-22 -14 -60 -32 -107 -32z" />
    <glyph glyph-name="uni1E6D" unicode="&#x1e6d;" horiz-adv-x="355" 
d="M206 -4c-90 0 -112 53 -112 135v322h-66v32h66v173l34 4v-177h188v-32h-188v-307c0 -73 10 -117 78 -117c44 0 79 18 98 31l9 -32c-22 -14 -60 -32 -107 -32zM203 -118c19 0 34 -15 34 -34c0 -20 -15 -33 -34 -33c-20 0 -34 13 -34 33c0 19 14 34 34 34z" />
    <glyph glyph-name="uni1E6F" unicode="&#x1e6f;" horiz-adv-x="355" 
d="M206 -4c-90 0 -112 53 -112 135v322h-66v32h66v173l34 4v-177h188v-32h-188v-307c0 -73 10 -117 78 -117c44 0 79 18 98 31l9 -32c-22 -14 -60 -32 -107 -32zM339 -175h-271v32h271v-32z" />
    <glyph glyph-name="u" unicode="u" horiz-adv-x="538" 
d="M251 -4c-118 0 -183 81 -183 210v279h34v-266c0 -131 59 -190 153 -190c98 0 176 85 176 217v239h34v-485h-34v118l-1 1c-34 -77 -102 -123 -179 -123z" />
    <glyph glyph-name="uacute" unicode="&#xfa;" horiz-adv-x="538" 
d="M238 561l122 136h43l-124 -136h-41zM251 -4c-118 0 -183 81 -183 210v279h34v-266c0 -131 59 -190 153 -190c98 0 176 85 176 217v239h34v-485h-34v118l-1 1c-34 -77 -102 -123 -179 -123z" />
    <glyph glyph-name="ubreve" unicode="&#x16d;" horiz-adv-x="538" 
d="M266 559c-67 0 -121 45 -127 130h30c4 -56 38 -100 97 -100c58 0 93 44 96 100h30c-6 -85 -60 -130 -126 -130zM251 -4c-118 0 -183 81 -183 210v279h34v-266c0 -131 59 -190 153 -190c98 0 176 85 176 217v239h34v-485h-34v118l-1 1c-34 -77 -102 -123 -179 -123z" />
    <glyph glyph-name="ucircumflex" unicode="&#xfb;" horiz-adv-x="538" 
d="M126 560l123 131h37l119 -131h-39l-97 106h-2l-102 -106h-39zM251 -4c-118 0 -183 81 -183 210v279h34v-266c0 -131 59 -190 153 -190c98 0 176 85 176 217v239h34v-485h-34v118l-1 1c-34 -77 -102 -123 -179 -123z" />
    <glyph glyph-name="udieresis" unicode="&#xfc;" horiz-adv-x="538" 
d="M188 600c-19 0 -34 15 -34 33c0 20 15 33 34 33s33 -14 33 -33s-14 -33 -33 -33zM342 600c-20 0 -34 15 -34 33c0 20 14 33 34 33c19 0 33 -14 33 -33s-14 -33 -33 -33zM251 -4c-118 0 -183 81 -183 210v279h34v-266c0 -131 59 -190 153 -190c98 0 176 85 176 217v239h34
v-485h-34v118l-1 1c-34 -77 -102 -123 -179 -123z" />
    <glyph glyph-name="uni1EE5" unicode="&#x1ee5;" horiz-adv-x="538" 
d="M251 -4c-118 0 -183 81 -183 210v279h34v-266c0 -131 59 -190 153 -190c98 0 176 85 176 217v239h34v-485h-34v118l-1 1c-34 -77 -102 -123 -179 -123zM268 -118c19 0 34 -15 34 -34c0 -20 -15 -33 -34 -33c-20 0 -34 13 -34 33c0 19 14 34 34 34z" />
    <glyph glyph-name="ugrave" unicode="&#xf9;" horiz-adv-x="538" 
d="M281 564l-115 129h42l113 -129h-40zM251 -4c-118 0 -183 81 -183 210v279h34v-266c0 -131 59 -190 153 -190c98 0 176 85 176 217v239h34v-485h-34v118l-1 1c-34 -77 -102 -123 -179 -123z" />
    <glyph glyph-name="uni1EE7" unicode="&#x1ee7;" horiz-adv-x="538" 
d="M241 554c42 30 98 66 98 105c0 32 -24 41 -56 41c-34 0 -70 -13 -90 -32l-9 29c28 18 64 32 102 32c46 0 84 -20 84 -70c0 -47 -58 -84 -88 -105h-41zM251 -4c-118 0 -183 81 -183 210v279h34v-266c0 -131 59 -190 153 -190c98 0 176 85 176 217v239h34v-485h-34v118
l-1 1c-34 -77 -102 -123 -179 -123z" />
    <glyph glyph-name="uhorn" unicode="&#x1b0;" horiz-adv-x="610" 
d="M549 565h33v-76c0 -113 -42 -152 -117 -156v-333h-34v118l-1 1c-34 -77 -102 -123 -179 -123c-118 0 -183 81 -183 210v279h34v-266c0 -131 59 -190 153 -190c98 0 176 85 176 217v239h34v-123c56 4 84 34 84 127v76z" />
    <glyph glyph-name="uni1EE9" unicode="&#x1ee9;" horiz-adv-x="610" 
d="M403 697l-124 -136h-41l122 136h43zM549 565h33v-76c0 -113 -42 -152 -117 -156v-333h-34v118l-1 1c-34 -77 -102 -123 -179 -123c-118 0 -183 81 -183 210v279h34v-266c0 -131 59 -190 153 -190c98 0 176 85 176 217v239h34v-123c56 4 84 34 84 127v76z" />
    <glyph glyph-name="uni1EF1" unicode="&#x1ef1;" horiz-adv-x="610" 
d="M549 565h33v-76c0 -113 -42 -152 -117 -156v-333h-34v118l-1 1c-34 -77 -102 -123 -179 -123c-118 0 -183 81 -183 210v279h34v-266c0 -131 59 -190 153 -190c98 0 176 85 176 217v239h34v-123c56 4 84 34 84 127v76zM268 -118c19 0 34 -15 34 -34c0 -20 -15 -33 -34 -33
c-20 0 -34 13 -34 33c0 19 14 34 34 34z" />
    <glyph glyph-name="uni1EEB" unicode="&#x1eeb;" horiz-adv-x="610" 
d="M303 564h-40l-115 129h42zM549 565h33v-76c0 -113 -42 -152 -117 -156v-333h-34v118l-1 1c-34 -77 -102 -123 -179 -123c-118 0 -183 81 -183 210v279h34v-266c0 -131 59 -190 153 -190c98 0 176 85 176 217v239h34v-123c56 4 84 34 84 127v76z" />
    <glyph glyph-name="uni1EED" unicode="&#x1eed;" horiz-adv-x="610" 
d="M283 700c-34 0 -70 -13 -90 -32l-9 29c28 18 64 32 102 32c46 0 84 -20 84 -70c0 -47 -58 -84 -88 -105h-41c42 30 98 66 98 105c0 32 -24 41 -56 41zM549 565h33v-76c0 -113 -42 -152 -117 -156v-333h-34v118l-1 1c-34 -77 -102 -123 -179 -123c-118 0 -183 81 -183 210
v279h34v-266c0 -131 59 -190 153 -190c98 0 176 85 176 217v239h34v-123c56 4 84 34 84 127v76z" />
    <glyph glyph-name="uni1EEF" unicode="&#x1eef;" horiz-adv-x="610" 
d="M194 644c-28 0 -49 -22 -63 -60l-27 9c17 52 45 81 88 81c31 0 55 -14 77 -30c24 -16 47 -36 72 -36c24 0 48 19 60 60l27 -9c-16 -56 -50 -82 -84 -82c-32 0 -61 22 -88 40c-21 15 -41 27 -62 27zM549 565h33v-76c0 -113 -42 -152 -117 -156v-333h-34v118l-1 1
c-34 -77 -102 -123 -179 -123c-118 0 -183 81 -183 210v279h34v-266c0 -131 59 -190 153 -190c98 0 176 85 176 217v239h34v-123c56 4 84 34 84 127v76z" />
    <glyph glyph-name="uhungarumlaut" unicode="&#x171;" horiz-adv-x="538" 
d="M180 560l121 136h42l-124 -136h-39zM313 560l121 136h42l-125 -136h-38zM251 -4c-118 0 -183 81 -183 210v279h34v-266c0 -131 59 -190 153 -190c98 0 176 85 176 217v239h34v-485h-34v118l-1 1c-34 -77 -102 -123 -179 -123z" />
    <glyph glyph-name="umacron" unicode="&#x16b;" horiz-adv-x="538" 
d="M131 614v32h271v-32h-271zM251 -4c-118 0 -183 81 -183 210v279h34v-266c0 -131 59 -190 153 -190c98 0 176 85 176 217v239h34v-485h-34v118l-1 1c-34 -77 -102 -123 -179 -123z" />
    <glyph glyph-name="uni01D4" unicode="&#x1d4;" horiz-adv-x="538" 
d="M246 560l-120 130h39l99 -105h2l100 105h39l-123 -130h-36zM251 -4c-118 0 -183 81 -183 210v279h34v-266c0 -131 59 -190 153 -190c98 0 176 85 176 217v239h34v-485h-34v118l-1 1c-34 -77 -102 -123 -179 -123z" />
    <glyph glyph-name="uni01D6" unicode="&#x1d6;" horiz-adv-x="538" 
d="M131 757v32h271v-32h-271zM189 601c-19 0 -34 14 -34 33c0 20 15 32 34 32s33 -12 33 -32c0 -19 -14 -33 -33 -33zM343 601c-20 0 -35 14 -35 33c0 20 15 32 35 32c19 0 33 -12 33 -32c0 -19 -14 -33 -33 -33zM251 -4c-118 0 -183 81 -183 210v279h34v-266
c0 -131 59 -190 153 -190c98 0 176 85 176 217v239h34v-485h-34v118l-1 1c-34 -77 -102 -123 -179 -123z" />
    <glyph glyph-name="uni01D8" unicode="&#x1d8;" horiz-adv-x="538" 
d="M244 698l122 136h43l-127 -136h-38zM189 601c-19 0 -34 14 -34 33c0 20 15 32 34 32s33 -12 33 -32c0 -19 -14 -33 -33 -33zM343 601c-20 0 -35 14 -35 33c0 20 15 32 35 32c19 0 33 -12 33 -32c0 -19 -14 -33 -33 -33zM251 -4c-118 0 -183 81 -183 210v279h34v-266
c0 -131 59 -190 153 -190c98 0 176 85 176 217v239h34v-485h-34v118l-1 1c-34 -77 -102 -123 -179 -123z" />
    <glyph glyph-name="uni01DA" unicode="&#x1da;" horiz-adv-x="538" 
d="M246 710l-120 130h39l99 -105h2l100 105h39l-123 -130h-36zM189 601c-19 0 -34 14 -34 33c0 20 15 32 34 32s33 -12 33 -32c0 -19 -14 -33 -33 -33zM343 601c-20 0 -35 14 -35 33c0 20 15 32 35 32c19 0 33 -12 33 -32c0 -19 -14 -33 -33 -33zM251 -4
c-118 0 -183 81 -183 210v279h34v-266c0 -131 59 -190 153 -190c98 0 176 85 176 217v239h34v-485h-34v118l-1 1c-34 -77 -102 -123 -179 -123z" />
    <glyph glyph-name="uni01DC" unicode="&#x1dc;" horiz-adv-x="538" 
d="M293 698h-37l-128 136h43zM189 601c-19 0 -34 14 -34 33c0 20 15 32 34 32s33 -12 33 -32c0 -19 -14 -33 -33 -33zM343 601c-20 0 -35 14 -35 33c0 20 15 32 35 32c19 0 33 -12 33 -32c0 -19 -14 -33 -33 -33zM251 -4c-118 0 -183 81 -183 210v279h34v-266
c0 -131 59 -190 153 -190c98 0 176 85 176 217v239h34v-485h-34v118l-1 1c-34 -77 -102 -123 -179 -123z" />
    <glyph glyph-name="uni0251" unicode="&#x251;" horiz-adv-x="594" 
d="M284 -4c-132 0 -239 97 -239 242c0 139 97 251 240 251c88 0 165 -50 201 -132l1 1v127h33v-485h-33v124h-1c-35 -76 -107 -128 -202 -128zM287 29c110 0 200 83 200 209c0 120 -80 219 -200 219c-114 0 -207 -88 -207 -219c0 -116 82 -209 207 -209z" />
    <glyph glyph-name="uni0261" unicode="&#x261;" horiz-adv-x="589" 
d="M292 -202c-73 0 -135 18 -198 56l9 33c62 -39 119 -56 189 -56c131 0 191 77 191 184v121h-1c-34 -75 -105 -125 -201 -125c-130 0 -235 95 -235 241c0 131 95 237 235 237c89 0 164 -46 201 -121h1v117h33v-470c0 -128 -73 -217 -224 -217zM283 44c123 0 201 90 201 209
c0 121 -87 204 -200 204c-122 0 -203 -92 -203 -204c0 -127 90 -209 202 -209z" />
    <glyph glyph-name="uni1E31" unicode="&#x1e31;" horiz-adv-x="490" 
d="M80 0v736h34v-580l1 -1l301 330h45l-191 -209l189 -276h-40l-173 251l-132 -143v-108h-34zM207 560l122 136h43l-124 -136h-41z" />
    <glyph glyph-name="uogonek" unicode="&#x173;" horiz-adv-x="538" 
d="M500 -140l4 -29c-16 -8 -34 -13 -64 -13c-53 0 -87 27 -87 78c0 36 26 81 78 113v109l-1 1c-34 -77 -102 -123 -179 -123c-118 0 -183 81 -183 210v279h34v-266c0 -131 59 -190 153 -190c98 0 176 85 176 217v239h34v-485h-1c-48 -23 -79 -63 -79 -100
c0 -30 17 -53 58 -53c29 0 40 4 57 13z" />
    <glyph glyph-name="uring" unicode="&#x16f;" horiz-adv-x="538" 
d="M265 552c-41 0 -77 36 -77 77c0 42 35 77 77 77c43 0 79 -34 79 -77c0 -41 -35 -77 -79 -77zM265 581c28 0 51 22 51 48c0 27 -23 50 -51 50c-27 0 -49 -23 -49 -50c0 -26 22 -48 49 -48zM251 -4c-118 0 -183 81 -183 210v279h34v-266c0 -131 59 -190 153 -190
c98 0 176 85 176 217v239h34v-485h-34v118l-1 1c-34 -77 -102 -123 -179 -123z" />
    <glyph glyph-name="utilde" unicode="&#x169;" horiz-adv-x="538" 
d="M344 577c-32 0 -61 22 -88 40c-21 15 -41 27 -62 27c-28 0 -49 -22 -63 -60l-27 9c17 52 45 81 88 81c31 0 55 -14 77 -30c24 -16 47 -36 72 -36c24 0 48 19 60 60l27 -9c-16 -56 -50 -82 -84 -82zM251 -4c-118 0 -183 81 -183 210v279h34v-266c0 -131 59 -190 153 -190
c98 0 176 85 176 217v239h34v-485h-34v118l-1 1c-34 -77 -102 -123 -179 -123z" />
    <glyph glyph-name="v" unicode="v" horiz-adv-x="499" 
d="M234 0l-206 485h38l184 -437h1l182 437h37l-203 -485h-33z" />
    <glyph glyph-name="w" unicode="w" horiz-adv-x="754" 
d="M204 0l-171 485h35l152 -430h2l137 430h35l139 -430h2l151 430h36l-171 -485h-35l-138 432h-1l-140 -432h-33z" />
    <glyph glyph-name="wacute" unicode="&#x1e83;" horiz-adv-x="754" 
d="M355 561l122 136h43l-124 -136h-41zM204 0l-171 485h35l152 -430h2l137 430h35l139 -430h2l151 430h36l-171 -485h-35l-138 432h-1l-140 -432h-33z" />
    <glyph glyph-name="wcircumflex" unicode="&#x175;" horiz-adv-x="754" 
d="M237 560l123 131h37l119 -131h-39l-97 106h-2l-102 -106h-39zM204 0l-171 485h35l152 -430h2l137 430h35l139 -430h2l151 430h36l-171 -485h-35l-138 432h-1l-140 -432h-33z" />
    <glyph glyph-name="wdieresis" unicode="&#x1e85;" horiz-adv-x="754" 
d="M299 600c-19 0 -34 15 -34 33c0 20 15 33 34 33s33 -14 33 -33s-14 -33 -33 -33zM453 600c-20 0 -34 15 -34 33c0 20 14 33 34 33c19 0 33 -14 33 -33s-14 -33 -33 -33zM204 0l-171 485h35l152 -430h2l137 430h35l139 -430h2l151 430h36l-171 -485h-35l-138 432h-1
l-140 -432h-33z" />
    <glyph glyph-name="wgrave" unicode="&#x1e81;" horiz-adv-x="754" 
d="M355 564l-115 129h42l113 -129h-40zM204 0l-171 485h35l152 -430h2l137 430h35l139 -430h2l151 430h36l-171 -485h-35l-138 432h-1l-140 -432h-33z" />
    <glyph glyph-name="x" unicode="x" horiz-adv-x="474" 
d="M32 0l184 243l-185 242h43l162 -215h2l163 215h43l-185 -241l185 -244h-42l-164 213h-1l-163 -213h-42z" />
    <glyph glyph-name="y" unicode="y" horiz-adv-x="510" 
d="M158 -198l86 206l-218 477h39l196 -435h1l182 435h38l-287 -683h-37z" />
    <glyph glyph-name="yacute" unicode="&#xfd;" horiz-adv-x="510" 
d="M224 561l122 136h43l-124 -136h-41zM158 -198l86 206l-218 477h39l196 -435h1l182 435h38l-287 -683h-37z" />
    <glyph glyph-name="ycircumflex" unicode="&#x177;" horiz-adv-x="510" 
d="M117 560l123 131h37l119 -131h-39l-97 106h-2l-102 -106h-39zM158 -198l86 206l-218 477h39l196 -435h1l182 435h38l-287 -683h-37z" />
    <glyph glyph-name="ydieresis" unicode="&#xff;" horiz-adv-x="510" 
d="M179 600c-19 0 -34 15 -34 33c0 20 15 33 34 33s33 -14 33 -33s-14 -33 -33 -33zM333 600c-20 0 -34 15 -34 33c0 20 14 33 34 33c19 0 33 -14 33 -33s-14 -33 -33 -33zM158 -198l86 206l-218 477h39l196 -435h1l182 435h38l-287 -683h-37z" />
    <glyph glyph-name="uni1E8F" unicode="&#x1e8f;" horiz-adv-x="510" 
d="M258 599c-19 0 -34 15 -34 34c0 20 15 33 34 33c20 0 34 -13 34 -33c0 -19 -14 -34 -34 -34zM158 -198l86 206l-218 477h39l196 -435h1l182 435h38l-287 -683h-37z" />
    <glyph glyph-name="uni1EF5" unicode="&#x1ef5;" horiz-adv-x="510" 
d="M158 -198l86 206l-218 477h39l196 -435h1l182 435h38l-287 -683h-37zM373 -118c19 0 34 -15 34 -34c0 -20 -15 -33 -34 -33c-20 0 -34 13 -34 33c0 19 14 34 34 34z" />
    <glyph glyph-name="ygrave" unicode="&#x1ef3;" horiz-adv-x="510" 
d="M262 564l-115 129h42l113 -129h-40zM158 -198l86 206l-218 477h39l196 -435h1l182 435h38l-287 -683h-37z" />
    <glyph glyph-name="uni1EF7" unicode="&#x1ef7;" horiz-adv-x="510" 
d="M232 554c42 30 98 66 98 105c0 32 -24 41 -56 41c-34 0 -70 -13 -90 -32l-9 29c28 18 64 32 102 32c46 0 84 -20 84 -70c0 -47 -58 -84 -88 -105h-41zM158 -198l86 206l-218 477h39l196 -435h1l182 435h38l-287 -683h-37z" />
    <glyph glyph-name="uni0233" unicode="&#x233;" horiz-adv-x="510" 
d="M122 614v32h271v-32h-271zM158 -198l86 206l-218 477h39l196 -435h1l182 435h38l-287 -683h-37z" />
    <glyph glyph-name="uni1EF9" unicode="&#x1ef9;" horiz-adv-x="510" 
d="M335 577c-32 0 -61 22 -88 40c-21 15 -41 27 -62 27c-28 0 -49 -22 -63 -60l-27 9c17 52 45 81 88 81c31 0 55 -14 77 -30c24 -16 47 -36 72 -36c24 0 48 19 60 60l27 -9c-16 -56 -50 -82 -84 -82zM158 -198l86 206l-218 477h39l196 -435h1l182 435h38l-287 -683h-37z
" />
    <glyph glyph-name="z" unicode="z" horiz-adv-x="444" 
d="M30 0v29l331 423v1h-318v32h365v-28l-332 -424v-2h336v-31h-382z" />
    <glyph glyph-name="zacute" unicode="&#x17a;" horiz-adv-x="444" 
d="M204 561l122 136h43l-124 -136h-41zM30 0v29l331 423v1h-318v32h365v-28l-332 -424v-2h336v-31h-382z" />
    <glyph glyph-name="zcaron" unicode="&#x17e;" horiz-adv-x="444" 
d="M199 560l-120 130h39l99 -105h2l100 105h39l-123 -130h-36zM30 0v29l331 423v1h-318v32h365v-28l-332 -424v-2h336v-31h-382z" />
    <glyph glyph-name="zdotaccent" unicode="&#x17c;" horiz-adv-x="444" 
d="M220 599c-19 0 -34 15 -34 34c0 20 15 33 34 33c20 0 34 -13 34 -33c0 -19 -14 -34 -34 -34zM30 0v29l331 423v1h-318v32h365v-28l-332 -424v-2h336v-31h-382z" />
    <glyph glyph-name="uni1E93" unicode="&#x1e93;" horiz-adv-x="444" 
d="M30 0v29l331 423v1h-318v32h365v-28l-332 -424v-2h336v-31h-382zM219 -118c19 0 34 -15 34 -34c0 -20 -15 -33 -34 -33c-20 0 -34 13 -34 33c0 19 14 34 34 34z" />
    <glyph glyph-name="a.alt" horiz-adv-x="484" 
d="M243 489c120 0 169 -82 169 -213v-276h-32l-1 88h-1c-33 -51 -99 -92 -178 -92c-112 0 -163 65 -163 141c0 78 54 138 179 138h163v3c0 121 -46 179 -137 179c-59 0 -115 -21 -153 -43l-14 29c42 25 107 46 168 46zM202 28c100 0 177 68 177 137v79h-163
c-83 0 -145 -35 -145 -107c0 -57 38 -109 131 -109z" />
    <glyph glyph-name="aacute.alt" horiz-adv-x="484" 
d="M378 696l-124 -136h-41l122 136h43zM243 489c120 0 169 -82 169 -213v-276h-32l-1 88h-1c-33 -51 -99 -92 -178 -92c-112 0 -163 65 -163 141c0 78 54 138 179 138h163v3c0 121 -46 179 -137 179c-59 0 -115 -21 -153 -43l-14 29c42 25 107 46 168 46zM202 28
c100 0 177 68 177 137v79h-163c-83 0 -145 -35 -145 -107c0 -57 38 -109 131 -109z" />
    <glyph glyph-name="abreve.alt" horiz-adv-x="484" 
d="M256 559c-67 0 -121 45 -127 130h30c4 -56 38 -100 97 -100c58 0 93 44 96 100h30c-6 -85 -60 -130 -126 -130zM243 489c120 0 169 -82 169 -213v-276h-32l-1 88h-1c-33 -51 -99 -92 -178 -92c-112 0 -163 65 -163 141c0 78 54 138 179 138h163v3c0 121 -46 179 -137 179
c-59 0 -115 -21 -153 -43l-14 29c42 25 107 46 168 46zM202 28c100 0 177 68 177 137v79h-163c-83 0 -145 -35 -145 -107c0 -57 38 -109 131 -109z" />
    <glyph glyph-name="uni1EAF.alt" horiz-adv-x="484" 
d="M391 829l-125 -136h-36l118 136h43zM256 559c-67 0 -121 45 -127 130h30c4 -56 38 -100 97 -100c58 0 93 44 96 100h30c-6 -85 -60 -130 -126 -130zM243 489c120 0 169 -82 169 -213v-276h-32l-1 88h-1c-33 -51 -99 -92 -178 -92c-112 0 -163 65 -163 141
c0 78 54 138 179 138h163v3c0 121 -46 179 -137 179c-59 0 -115 -21 -153 -43l-14 29c42 25 107 46 168 46zM202 28c100 0 177 68 177 137v79h-163c-83 0 -145 -35 -145 -107c0 -57 38 -109 131 -109z" />
    <glyph glyph-name="uni1EB7.alt" horiz-adv-x="484" 
d="M256 559c-67 0 -121 45 -127 130h30c4 -56 38 -100 97 -100c58 0 93 44 96 100h30c-6 -85 -60 -130 -126 -130zM243 489c120 0 169 -82 169 -213v-276h-32l-1 88h-1c-33 -51 -99 -92 -178 -92c-112 0 -163 65 -163 141c0 78 54 138 179 138h163v3c0 121 -46 179 -137 179
c-59 0 -115 -21 -153 -43l-14 29c42 25 107 46 168 46zM202 28c100 0 177 68 177 137v79h-163c-83 0 -145 -35 -145 -107c0 -57 38 -109 131 -109zM253 -118c19 0 34 -15 34 -34c0 -20 -15 -33 -34 -33c-20 0 -34 13 -34 33c0 19 14 34 34 34z" />
    <glyph glyph-name="uni1EB1.alt" horiz-adv-x="484" 
d="M292 693h-36l-125 136h43zM256 559c-67 0 -121 45 -127 130h30c4 -56 38 -100 97 -100c58 0 93 44 96 100h30c-6 -85 -60 -130 -126 -130zM243 489c120 0 169 -82 169 -213v-276h-32l-1 88h-1c-33 -51 -99 -92 -178 -92c-112 0 -163 65 -163 141c0 78 54 138 179 138h163
v3c0 121 -46 179 -137 179c-59 0 -115 -21 -153 -43l-14 29c42 25 107 46 168 46zM202 28c100 0 177 68 177 137v79h-163c-83 0 -145 -35 -145 -107c0 -57 38 -109 131 -109z" />
    <glyph glyph-name="uni1EB3.alt" horiz-adv-x="484" 
d="M267 817c-32 0 -67 -13 -86 -31l-9 28c27 17 62 30 98 30c44 0 81 -19 81 -67c0 -45 -56 -80 -85 -100h-39c40 28 94 63 94 100c0 31 -23 40 -54 40zM255 559c-67 0 -122 44 -128 129h30c5 -56 39 -99 98 -99c58 0 93 43 96 99h31c-6 -85 -61 -129 -127 -129zM243 489
c120 0 169 -82 169 -213v-276h-32l-1 88h-1c-33 -51 -99 -92 -178 -92c-112 0 -163 65 -163 141c0 78 54 138 179 138h163v3c0 121 -46 179 -137 179c-59 0 -115 -21 -153 -43l-14 29c42 25 107 46 168 46zM202 28c100 0 177 68 177 137v79h-163c-83 0 -145 -35 -145 -107
c0 -57 38 -109 131 -109z" />
    <glyph glyph-name="uni1EB5.alt" horiz-adv-x="484" 
d="M183 805c-26 0 -48 -22 -62 -60l-27 10c17 51 44 80 87 80c29 0 51 -13 75 -29c26 -17 49 -36 73 -36c32 0 49 21 60 61l27 -9c-15 -54 -43 -82 -85 -82c-31 0 -61 21 -87 40c-21 14 -40 25 -61 25zM256 589c58 0 93 44 96 100h30c-6 -85 -60 -130 -126 -130
c-67 0 -121 45 -127 130h30c4 -56 38 -100 97 -100zM243 489c120 0 169 -82 169 -213v-276h-32l-1 88h-1c-33 -51 -99 -92 -178 -92c-112 0 -163 65 -163 141c0 78 54 138 179 138h163v3c0 121 -46 179 -137 179c-59 0 -115 -21 -153 -43l-14 29c42 25 107 46 168 46z
M202 28c100 0 177 68 177 137v79h-163c-83 0 -145 -35 -145 -107c0 -57 38 -109 131 -109z" />
    <glyph glyph-name="uni01CE.alt" horiz-adv-x="484" 
d="M272 560h-36l-120 130h39l99 -105h2l100 105h39zM243 489c120 0 169 -82 169 -213v-276h-32l-1 88h-1c-33 -51 -99 -92 -178 -92c-112 0 -163 65 -163 141c0 78 54 138 179 138h163v3c0 121 -46 179 -137 179c-59 0 -115 -21 -153 -43l-14 29c42 25 107 46 168 46z
M202 28c100 0 177 68 177 137v79h-163c-83 0 -145 -35 -145 -107c0 -57 38 -109 131 -109z" />
    <glyph glyph-name="acircumflex.alt" horiz-adv-x="484" 
d="M257 666l-102 -106h-39l123 131h37l119 -131h-39l-97 106h-2zM243 489c120 0 169 -82 169 -213v-276h-32l-1 88h-1c-33 -51 -99 -92 -178 -92c-112 0 -163 65 -163 141c0 78 54 138 179 138h163v3c0 121 -46 179 -137 179c-59 0 -115 -21 -153 -43l-14 29
c42 25 107 46 168 46zM202 28c100 0 177 68 177 137v79h-163c-83 0 -145 -35 -145 -107c0 -57 38 -109 131 -109z" />
    <glyph glyph-name="uni1EA5.alt" horiz-adv-x="484" 
d="M519 777l-125 -136h-36l118 136h43zM259 667l-102 -106h-39l123 131h37l119 -131h-39l-97 106h-2zM243 489c120 0 169 -82 169 -213v-276h-32l-1 88h-1c-33 -51 -99 -92 -178 -92c-112 0 -163 65 -163 141c0 78 54 138 179 138h163v3c0 121 -46 179 -137 179
c-59 0 -115 -21 -153 -43l-14 29c42 25 107 46 168 46zM202 28c100 0 177 68 177 137v79h-163c-83 0 -145 -35 -145 -107c0 -57 38 -109 131 -109z" />
    <glyph glyph-name="uni1EAD.alt" horiz-adv-x="484" 
d="M257 666l-102 -106h-39l123 131h37l119 -131h-39l-97 106h-2zM243 489c120 0 169 -82 169 -213v-276h-32l-1 88h-1c-33 -51 -99 -92 -178 -92c-112 0 -163 65 -163 141c0 78 54 138 179 138h163v3c0 121 -46 179 -137 179c-59 0 -115 -21 -153 -43l-14 29
c42 25 107 46 168 46zM202 28c100 0 177 68 177 137v79h-163c-83 0 -145 -35 -145 -107c0 -57 38 -109 131 -109zM253 -118c19 0 34 -15 34 -34c0 -20 -15 -33 -34 -33c-20 0 -34 13 -34 33c0 19 14 34 34 34z" />
    <glyph glyph-name="uni1EA7.alt" horiz-adv-x="484" 
d="M339 777l118 -136h-36l-125 136h43zM255 668l-102 -106h-39l123 131h37l119 -131h-39l-97 106h-2zM243 489c120 0 169 -82 169 -213v-276h-32l-1 88h-1c-33 -51 -99 -92 -178 -92c-112 0 -163 65 -163 141c0 78 54 138 179 138h163v3c0 121 -46 179 -137 179
c-59 0 -115 -21 -153 -43l-14 29c42 25 107 46 168 46zM202 28c100 0 177 68 177 137v79h-163c-83 0 -145 -35 -145 -107c0 -57 38 -109 131 -109z" />
    <glyph glyph-name="uni1EA9.alt" horiz-adv-x="484" 
d="M418 803c44 0 81 -19 81 -67c0 -45 -56 -80 -85 -100h-39c40 28 94 63 94 100c0 31 -23 40 -54 40c-32 0 -67 -13 -86 -31l-9 28c27 17 62 30 98 30zM256 666l-102 -106h-39l123 131h37l119 -131h-39l-97 106h-2zM243 489c120 0 169 -82 169 -213v-276h-32l-1 88h-1
c-33 -51 -99 -92 -178 -92c-112 0 -163 65 -163 141c0 78 54 138 179 138h163v3c0 121 -46 179 -137 179c-59 0 -115 -21 -153 -43l-14 29c42 25 107 46 168 46zM202 28c100 0 177 68 177 137v79h-163c-83 0 -145 -35 -145 -107c0 -57 38 -109 131 -109z" />
    <glyph glyph-name="uni1EAB.alt" horiz-adv-x="484" 
d="M182 820c-26 0 -48 -22 -62 -60l-27 10c17 51 44 80 87 80c29 0 51 -13 75 -29c26 -17 49 -36 73 -36c32 0 49 21 60 61l27 -9c-15 -54 -43 -82 -85 -82c-31 0 -61 21 -87 40c-21 14 -40 25 -61 25zM240 691h37l119 -131h-39l-97 106h-2l-102 -106h-39zM243 489
c120 0 169 -82 169 -213v-276h-32l-1 88h-1c-33 -51 -99 -92 -178 -92c-112 0 -163 65 -163 141c0 78 54 138 179 138h163v3c0 121 -46 179 -137 179c-59 0 -115 -21 -153 -43l-14 29c42 25 107 46 168 46zM202 28c100 0 177 68 177 137v79h-163c-83 0 -145 -35 -145 -107
c0 -57 38 -109 131 -109z" />
    <glyph glyph-name="adieresis.alt" horiz-adv-x="484" 
d="M178 600c-19 0 -34 15 -34 33c0 20 15 33 34 33s33 -14 33 -33s-14 -33 -33 -33zM332 600c-20 0 -34 15 -34 33c0 20 14 33 34 33c19 0 33 -14 33 -33s-14 -33 -33 -33zM243 489c120 0 169 -82 169 -213v-276h-32l-1 88h-1c-33 -51 -99 -92 -178 -92
c-112 0 -163 65 -163 141c0 78 54 138 179 138h163v3c0 121 -46 179 -137 179c-59 0 -115 -21 -153 -43l-14 29c42 25 107 46 168 46zM202 28c100 0 177 68 177 137v79h-163c-83 0 -145 -35 -145 -107c0 -57 38 -109 131 -109z" />
    <glyph glyph-name="uni1EA1.alt" horiz-adv-x="484" 
d="M243 489c120 0 169 -82 169 -213v-276h-32l-1 88h-1c-33 -51 -99 -92 -178 -92c-112 0 -163 65 -163 141c0 78 54 138 179 138h163v3c0 121 -46 179 -137 179c-59 0 -115 -21 -153 -43l-14 29c42 25 107 46 168 46zM202 28c100 0 177 68 177 137v79h-163
c-83 0 -145 -35 -145 -107c0 -57 38 -109 131 -109zM253 -118c19 0 34 -15 34 -34c0 -20 -15 -33 -34 -33c-20 0 -34 13 -34 33c0 19 14 34 34 34z" />
    <glyph glyph-name="agrave.alt" horiz-adv-x="484" 
d="M295 564h-40l-115 129h42zM243 489c120 0 169 -82 169 -213v-276h-32l-1 88h-1c-33 -51 -99 -92 -178 -92c-112 0 -163 65 -163 141c0 78 54 138 179 138h163v3c0 121 -46 179 -137 179c-59 0 -115 -21 -153 -43l-14 29c42 25 107 46 168 46zM202 28
c100 0 177 68 177 137v79h-163c-83 0 -145 -35 -145 -107c0 -57 38 -109 131 -109z" />
    <glyph glyph-name="uni1EA3.alt" horiz-adv-x="484" 
d="M273 700c-34 0 -70 -13 -90 -32l-9 29c28 18 64 32 102 32c46 0 84 -20 84 -70c0 -47 -58 -84 -88 -105h-41c42 30 98 66 98 105c0 32 -24 41 -56 41zM243 489c120 0 169 -82 169 -213v-276h-32l-1 88h-1c-33 -51 -99 -92 -178 -92c-112 0 -163 65 -163 141
c0 78 54 138 179 138h163v3c0 121 -46 179 -137 179c-59 0 -115 -21 -153 -43l-14 29c42 25 107 46 168 46zM202 28c100 0 177 68 177 137v79h-163c-83 0 -145 -35 -145 -107c0 -57 38 -109 131 -109z" />
    <glyph glyph-name="amacron.alt" horiz-adv-x="484" 
d="M392 646v-32h-271v32h271zM243 489c120 0 169 -82 169 -213v-276h-32l-1 88h-1c-33 -51 -99 -92 -178 -92c-112 0 -163 65 -163 141c0 78 54 138 179 138h163v3c0 121 -46 179 -137 179c-59 0 -115 -21 -153 -43l-14 29c42 25 107 46 168 46zM202 28
c100 0 177 68 177 137v79h-163c-83 0 -145 -35 -145 -107c0 -57 38 -109 131 -109z" />
    <glyph glyph-name="aogonek.alt" horiz-adv-x="484" 
d="M448 -140l4 -29c-16 -8 -34 -13 -64 -13c-53 0 -87 27 -87 78c0 36 26 81 79 113l-1 79h-1c-33 -51 -99 -92 -178 -92c-112 0 -163 65 -163 141c0 78 54 138 179 138h163v3c0 121 -46 179 -137 179c-59 0 -115 -21 -153 -43l-14 29c42 25 107 46 168 46
c120 0 169 -82 169 -213v-276c-48 -23 -79 -63 -79 -100c0 -30 17 -53 58 -53c29 0 40 4 57 13zM202 28c100 0 177 68 177 137v79h-163c-83 0 -145 -35 -145 -107c0 -57 38 -109 131 -109z" />
    <glyph glyph-name="aring.alt" horiz-adv-x="484" 
d="M255 552c-41 0 -77 36 -77 77c0 42 35 77 77 77c43 0 79 -34 79 -77c0 -41 -35 -77 -79 -77zM255 679c-27 0 -49 -23 -49 -50c0 -26 22 -48 49 -48c28 0 51 22 51 48c0 27 -23 50 -51 50zM243 489c120 0 169 -82 169 -213v-276h-32l-1 88h-1c-33 -51 -99 -92 -178 -92
c-112 0 -163 65 -163 141c0 78 54 138 179 138h163v3c0 121 -46 179 -137 179c-59 0 -115 -21 -153 -43l-14 29c42 25 107 46 168 46zM202 28c100 0 177 68 177 137v79h-163c-83 0 -145 -35 -145 -107c0 -57 38 -109 131 -109z" />
    <glyph glyph-name="aringacute.alt" horiz-adv-x="486" 
d="M255 553c-41 0 -77 36 -77 77c0 42 35 77 77 77c26 0 50 -13 64 -32l89 57h50l-126 -83c1 -6 2 -12 2 -19c0 -41 -35 -77 -79 -77zM255 680c-27 0 -49 -23 -49 -50c0 -26 22 -48 49 -48c28 0 51 22 51 48c0 27 -23 50 -51 50zM243 489c120 0 169 -82 169 -213v-276h-32
l-1 88h-1c-33 -51 -99 -92 -178 -92c-112 0 -163 65 -163 141c0 78 54 138 179 138h163v3c0 121 -46 179 -137 179c-59 0 -115 -21 -153 -43l-14 29c42 25 107 46 168 46zM202 28c100 0 177 68 177 137v79h-163c-83 0 -145 -35 -145 -107c0 -57 38 -109 131 -109z" />
    <glyph glyph-name="atilde.alt" horiz-adv-x="484" 
d="M184 644c-28 0 -49 -22 -63 -60l-27 9c17 52 45 81 88 81c31 0 55 -14 77 -30c24 -16 47 -36 72 -36c24 0 48 19 60 60l27 -9c-16 -56 -50 -82 -84 -82c-32 0 -61 22 -88 40c-21 15 -41 27 -62 27zM243 489c120 0 169 -82 169 -213v-276h-32l-1 88h-1
c-33 -51 -99 -92 -178 -92c-112 0 -163 65 -163 141c0 78 54 138 179 138h163v3c0 121 -46 179 -137 179c-59 0 -115 -21 -153 -43l-14 29c42 25 107 46 168 46zM202 28c100 0 177 68 177 137v79h-163c-83 0 -145 -35 -145 -107c0 -57 38 -109 131 -109z" />
    <glyph glyph-name="g.alt" horiz-adv-x="547" 
d="M266 -216c-139 0 -225 49 -225 140c0 51 36 91 65 114v2c-24 12 -39 34 -39 60c1 33 21 59 66 101c-26 30 -42 68 -42 113c0 96 73 175 181 175c47 0 89 -15 120 -42l104 99l23 -23l-105 -97c25 -29 39 -68 39 -112c0 -94 -72 -173 -181 -173c-45 0 -86 14 -118 40
c-35 -33 -55 -51 -55 -78c-1 -28 21 -50 91 -50h93c116 0 221 -18 221 -120c0 -76 -68 -149 -238 -149zM272 171c83 0 147 62 147 143c0 82 -61 144 -147 144c-85 0 -147 -62 -147 -144c0 -81 63 -143 147 -143zM268 -184c115 0 202 40 202 117c0 75 -79 89 -191 89h-85
c-25 0 -43 2 -58 5c-24 -17 -62 -55 -62 -101c0 -54 45 -110 194 -110z" />
    <glyph glyph-name="gbreve.alt" horiz-adv-x="547" 
d="M272 559c-67 0 -121 45 -127 130h30c4 -56 38 -100 97 -100c58 0 93 44 96 100h30c-6 -85 -60 -130 -126 -130zM266 -216c-139 0 -225 49 -225 140c0 51 36 91 65 114v2c-24 12 -39 34 -39 60c1 33 21 59 66 101c-26 30 -42 68 -42 113c0 96 73 175 181 175
c47 0 89 -15 120 -42l104 99l23 -23l-105 -97c25 -29 39 -68 39 -112c0 -94 -72 -173 -181 -173c-45 0 -86 14 -118 40c-35 -33 -55 -51 -55 -78c-1 -28 21 -50 91 -50h93c116 0 221 -18 221 -120c0 -76 -68 -149 -238 -149zM272 171c83 0 147 62 147 143
c0 82 -61 144 -147 144c-85 0 -147 -62 -147 -144c0 -81 63 -143 147 -143zM268 -184c115 0 202 40 202 117c0 75 -79 89 -191 89h-85c-25 0 -43 2 -58 5c-24 -17 -62 -55 -62 -101c0 -54 45 -110 194 -110z" />
    <glyph glyph-name="gcaron.alt" horiz-adv-x="547" 
d="M252 560l-120 130h39l99 -105h2l100 105h39l-123 -130h-36zM266 -216c-139 0 -225 49 -225 140c0 51 36 91 65 114v2c-24 12 -39 34 -39 60c1 33 21 59 66 101c-26 30 -42 68 -42 113c0 96 73 175 181 175c47 0 89 -15 120 -42l104 99l23 -23l-105 -97
c25 -29 39 -68 39 -112c0 -94 -72 -173 -181 -173c-45 0 -86 14 -118 40c-35 -33 -55 -51 -55 -78c-1 -28 21 -50 91 -50h93c116 0 221 -18 221 -120c0 -76 -68 -149 -238 -149zM272 171c83 0 147 62 147 143c0 82 -61 144 -147 144c-85 0 -147 -62 -147 -144
c0 -81 63 -143 147 -143zM268 -184c115 0 202 40 202 117c0 75 -79 89 -191 89h-85c-25 0 -43 2 -58 5c-24 -17 -62 -55 -62 -101c0 -54 45 -110 194 -110z" />
    <glyph glyph-name="gcircumflex.alt" horiz-adv-x="547" 
d="M132 559l121 138h35l124 -138h-40l-101 115l-99 -115h-40zM266 -216c-139 0 -225 49 -225 140c0 51 36 91 65 114v2c-24 12 -39 34 -39 60c1 33 21 59 66 101c-26 30 -42 68 -42 113c0 96 73 175 181 175c47 0 89 -15 120 -42l104 99l23 -23l-105 -97
c25 -29 39 -68 39 -112c0 -94 -72 -173 -181 -173c-45 0 -86 14 -118 40c-35 -33 -55 -51 -55 -78c-1 -28 21 -50 91 -50h93c116 0 221 -18 221 -120c0 -76 -68 -149 -238 -149zM272 171c83 0 147 62 147 143c0 82 -61 144 -147 144c-85 0 -147 -62 -147 -144
c0 -81 63 -143 147 -143zM268 -184c115 0 202 40 202 117c0 75 -79 89 -191 89h-85c-25 0 -43 2 -58 5c-24 -17 -62 -55 -62 -101c0 -54 45 -110 194 -110z" />
    <glyph glyph-name="gcommaaccent.alt" horiz-adv-x="547" 
d="M350 700l10 -24c-56 -5 -66 -35 -66 -69c0 -18 2 -36 5 -54h-32c-3 16 -5 36 -5 54c0 49 23 88 88 93zM266 -216c-139 0 -225 49 -225 140c0 51 36 91 65 114v2c-24 12 -39 34 -39 60c1 33 21 59 66 101c-26 30 -42 68 -42 113c0 96 73 175 181 175c47 0 89 -15 120 -42
l104 99l23 -23l-105 -97c25 -29 39 -68 39 -112c0 -94 -72 -173 -181 -173c-45 0 -86 14 -118 40c-35 -33 -55 -51 -55 -78c-1 -28 21 -50 91 -50h93c116 0 221 -18 221 -120c0 -76 -68 -149 -238 -149zM272 171c83 0 147 62 147 143c0 82 -61 144 -147 144
c-85 0 -147 -62 -147 -144c0 -81 63 -143 147 -143zM268 -184c115 0 202 40 202 117c0 75 -79 89 -191 89h-85c-25 0 -43 2 -58 5c-24 -17 -62 -55 -62 -101c0 -54 45 -110 194 -110z" />
    <glyph glyph-name="gdotaccent.alt" horiz-adv-x="547" 
d="M273 599c-19 0 -34 15 -34 34c0 20 15 33 34 33c20 0 34 -13 34 -33c0 -19 -14 -34 -34 -34zM266 -216c-139 0 -225 49 -225 140c0 51 36 91 65 114v2c-24 12 -39 34 -39 60c1 33 21 59 66 101c-26 30 -42 68 -42 113c0 96 73 175 181 175c47 0 89 -15 120 -42l104 99
l23 -23l-105 -97c25 -29 39 -68 39 -112c0 -94 -72 -173 -181 -173c-45 0 -86 14 -118 40c-35 -33 -55 -51 -55 -78c-1 -28 21 -50 91 -50h93c116 0 221 -18 221 -120c0 -76 -68 -149 -238 -149zM272 171c83 0 147 62 147 143c0 82 -61 144 -147 144
c-85 0 -147 -62 -147 -144c0 -81 63 -143 147 -143zM268 -184c115 0 202 40 202 117c0 75 -79 89 -191 89h-85c-25 0 -43 2 -58 5c-24 -17 -62 -55 -62 -101c0 -54 45 -110 194 -110z" />
    <glyph glyph-name="uni1E21.alt" horiz-adv-x="547" 
d="M137 614v32h271v-32h-271zM266 -216c-139 0 -225 49 -225 140c0 51 36 91 65 114v2c-24 12 -39 34 -39 60c1 33 21 59 66 101c-26 30 -42 68 -42 113c0 96 73 175 181 175c47 0 89 -15 120 -42l104 99l23 -23l-105 -97c25 -29 39 -68 39 -112c0 -94 -72 -173 -181 -173
c-45 0 -86 14 -118 40c-35 -33 -55 -51 -55 -78c-1 -28 21 -50 91 -50h93c116 0 221 -18 221 -120c0 -76 -68 -149 -238 -149zM272 171c83 0 147 62 147 143c0 82 -61 144 -147 144c-85 0 -147 -62 -147 -144c0 -81 63 -143 147 -143zM268 -184c115 0 202 40 202 117
c0 75 -79 89 -191 89h-85c-25 0 -43 2 -58 5c-24 -17 -62 -55 -62 -101c0 -54 45 -110 194 -110z" />
    <glyph glyph-name="f.calt" horiz-adv-x="315" 
d="M103 0v453h-66v32h66v114c0 98 49 142 121 142c26 0 48 -5 67 -12l-7 -31c-17 6 -37 10 -58 10c-49 0 -89 -28 -89 -111v-112h166v-32h-166v-453h-34z" />
    <glyph glyph-name="j.calt" horiz-adv-x="185" 
d="M99 599c-19 0 -34 15 -34 34c0 20 15 33 34 33c20 0 34 -13 34 -33c0 -19 -14 -34 -34 -34zM31 -202c-12 0 -26 2 -38 5l4 33c9 -4 22 -5 32 -5c28 0 52 20 52 86v568h34v-568c0 -66 -21 -119 -84 -119z" />
    <glyph glyph-name="uni0237.calt" horiz-adv-x="185" 
d="M31 -202c-12 0 -26 2 -38 5l4 33c9 -4 22 -5 32 -5c28 0 52 20 52 86v568h34v-568c0 -66 -21 -119 -84 -119z" />
    <glyph glyph-name="jcircumflex.calt" horiz-adv-x="185" 
d="M-42 560l123 131h37l119 -131h-39l-97 106h-2l-102 -106h-39zM31 -202c-12 0 -26 2 -38 5l4 33c9 -4 22 -5 32 -5c28 0 52 20 52 86v568h34v-568c0 -66 -21 -119 -84 -119z" />
    <glyph glyph-name="germandbls.calt" horiz-adv-x="704" 
d="M446 379c115 -44 219 -75 219 -201c0 -106 -88 -182 -225 -182c-81 0 -167 30 -230 98l18 34c52 -66 134 -97 214 -97c99 0 186 50 186 145c0 103 -91 128 -193 169c-28 11 -61 24 -88 38l149 273l-1 2c-62 14 -135 22 -203 22c-136 0 -195 -53 -195 -171v-509h-36v512
c0 138 74 203 227 203c74 0 173 -14 260 -34l-153 -281z" />
    <glyph glyph-name="uni0162" unicode="&#x162;" horiz-adv-x="548" 
d="M281 0l-14 -33v-2c41 -2 82 -29 82 -77c0 -39 -31 -73 -90 -73c-17 0 -35 2 -50 6v27c13 -4 27 -7 46 -7c33 0 64 15 64 49c0 26 -27 54 -83 54l1 21l18 39v672h-229v34h496v-34h-232v-676h-9z" />
    <glyph glyph-name="uni021A" unicode="&#x21a;" horiz-adv-x="548" 
d="M255 0v676h-229v34h496v-34h-232v-676h-35zM206 -202l-10 24c56 5 66 35 66 69c0 18 -2 36 -5 54h32c3 -16 5 -36 5 -54c0 -49 -23 -88 -88 -93z" />
    <glyph glyph-name="ordfeminine" unicode="&#xaa;" horiz-adv-x="411" 
d="M199 393c-82 0 -146 59 -146 146c0 84 59 150 146 150c49 0 95 -24 121 -67h1v65h30v-291h-30v61h-1c-25 -39 -69 -64 -121 -64zM204 422c65 0 118 47 118 117c0 68 -48 122 -117 122c-68 0 -122 -49 -122 -122c0 -65 48 -117 121 -117z" />
    <glyph glyph-name="ordmasculine" unicode="&#xba;" horiz-adv-x="408" 
d="M204 392c-91 0 -151 66 -151 149s60 148 151 148c84 0 150 -60 150 -148s-66 -149 -150 -149zM204 422c66 0 120 48 120 119s-54 120 -120 120c-73 0 -120 -54 -120 -120c0 -65 47 -119 120 -119z" />
    <glyph glyph-name="uni0410" unicode="&#x410;" horiz-adv-x="647" 
d="M28 0l274 710h40l277 -710h-38l-79 204h-357l-79 -204h-38zM157 237h332l-165 430h-2z" />
    <glyph glyph-name="uni0411" unicode="&#x411;" horiz-adv-x="602" 
d="M89 0v710h401v-34h-366v-269h188c143 0 236 -62 236 -202c0 -145 -94 -205 -236 -205h-223zM124 34h188c143 0 199 71 199 170s-57 169 -199 169h-188v-339z" />
    <glyph glyph-name="uni0412" unicode="&#x412;" horiz-adv-x="615" 
d="M89 0v710h209c127 0 226 -45 226 -172c0 -75 -41 -142 -126 -165v-2c83 -13 160 -70 160 -182s-77 -189 -243 -189h-226zM124 386h190c81 0 173 35 173 148c0 87 -55 142 -191 142h-172v-290zM124 34h192c122 0 205 50 205 154c0 105 -74 165 -207 165h-190v-319z" />
    <glyph glyph-name="uni0413" unicode="&#x413;" horiz-adv-x="527" 
d="M89 0v710h417v-34h-382v-676h-35z" />
    <glyph glyph-name="uni0403" unicode="&#x403;" horiz-adv-x="527" 
d="M216 792l113 125h42l-116 -125h-39zM89 0v710h417v-34h-382v-676h-35z" />
    <glyph glyph-name="uni0490" unicode="&#x490;" horiz-adv-x="527" 
d="M475 856h31v-180h-382v-676h-35v710h384z" />
    <glyph glyph-name="uni0414" unicode="&#x414;" horiz-adv-x="785" 
d="M743 34v-180h-31l-2 146h-656l-2 -146h-30v180h87c58 82 91 184 112 306c18 100 26 214 28 370h396v-676h98zM255 331c-21 -120 -53 -222 -107 -297h461v642h-326c-2 -143 -11 -250 -28 -345z" />
    <glyph glyph-name="uni0415" unicode="&#x415;" horiz-adv-x="570" 
d="M89 0v710h416v-34h-381v-304h319v-34h-319v-304h402v-34h-437z" />
    <glyph glyph-name="uni0400" unicode="&#x400;" horiz-adv-x="570" 
d="M322 792l-115 125h42l113 -125h-40zM89 0v710h416v-34h-381v-304h319v-34h-319v-304h402v-34h-437z" />
    <glyph glyph-name="uni0401" unicode="&#x401;" horiz-adv-x="570" 
d="M212 839c-19 0 -34 15 -34 33c0 20 15 33 34 33s33 -14 33 -33s-14 -33 -33 -33zM366 839c-20 0 -34 15 -34 33c0 20 14 33 34 33c19 0 33 -14 33 -33s-14 -33 -33 -33zM89 0v710h416v-34h-381v-304h319v-34h-319v-304h402v-34h-437z" />
    <glyph glyph-name="uni0416" unicode="&#x416;" horiz-adv-x="923" 
d="M34 0l262 376l-263 334h45l363 -464h1v464h35v-466l1 -1l358 467h44l-256 -334l266 -376h-43l-248 350l-122 -157v-193h-35v195l-122 155l-243 -350h-43z" />
    <glyph glyph-name="uni0417" unicode="&#x417;" horiz-adv-x="596" 
d="M300 -4c-107 0 -196 39 -253 106l24 28c47 -61 132 -99 230 -99c118 0 203 60 203 163c0 98 -74 159 -209 159h-129v34h128c84 0 176 44 176 150c0 90 -68 143 -178 143c-74 0 -142 -23 -194 -64l-22 27c48 42 135 72 219 72c128 0 212 -71 212 -175
c0 -73 -41 -142 -129 -167v-1c85 -13 163 -66 163 -176c0 -109 -82 -200 -241 -200z" />
    <glyph glyph-name="uni0418" unicode="&#x418;" horiz-adv-x="714" 
d="M89 0v710h35v-649h2l466 649h33v-710h-35v647h-2l-465 -647h-34z" />
    <glyph glyph-name="uni0419" unicode="&#x419;" horiz-adv-x="714" 
d="M358 787c-75 0 -133 42 -142 118l32 4c6 -47 40 -95 110 -95s104 48 109 95l32 -4c-9 -76 -67 -118 -141 -118zM89 0v710h35v-649h2l466 649h33v-710h-35v647h-2l-465 -647h-34z" />
    <glyph glyph-name="uni040D" unicode="&#x40d;" horiz-adv-x="714" 
d="M390 792l-115 125h42l113 -125h-40zM89 0v710h35v-649h2l466 649h33v-710h-35v647h-2l-465 -647h-34z" />
    <glyph glyph-name="uni048A" unicode="&#x48a;" horiz-adv-x="725" 
d="M358 787c-75 0 -133 42 -142 118l32 4c6 -47 40 -95 110 -95s104 48 109 95l32 -4c-9 -76 -67 -118 -141 -118zM625 34h47v-10l-62 -170h-29l47 146h-38v647h-2l-465 -647h-34v710h35v-649h2l466 649h33v-676z" />
    <glyph glyph-name="uni041A" unicode="&#x41a;" horiz-adv-x="619" 
d="M89 0v710h35v-465h2l400 465h46l-287 -334l293 -376h-46l-271 349l-137 -158v-191h-35z" />
    <glyph glyph-name="uni040C" unicode="&#x40c;" horiz-adv-x="619" 
d="M250 792l113 125h42l-116 -125h-39zM89 0v710h35v-465h2l400 465h46l-287 -334l293 -376h-46l-271 349l-137 -158v-191h-35z" />
    <glyph glyph-name="uni041B" unicode="&#x41b;" horiz-adv-x="702" 
d="M220 710h393v-710h-35v676h-324c-8 -125 -18 -282 -30 -382c-27 -218 -83 -296 -172 -296c-18 0 -29 2 -36 5l3 32c7 -2 20 -3 29 -3c69 0 114 65 140 263c12 92 23 242 32 415z" />
    <glyph glyph-name="uni041C" unicode="&#x41c;" horiz-adv-x="857" 
d="M89 0v710h36l303 -512h2l302 512h36v-710h-36v640h-1l-288 -487h-29l-288 487h-1v-640h-36z" />
    <glyph glyph-name="uni041D" unicode="&#x41d;" horiz-adv-x="698" 
d="M89 0v710h35v-358h449v358h36v-710h-36v318h-449v-318h-35z" />
    <glyph glyph-name="uni041E" unicode="&#x41e;" horiz-adv-x="823" 
d="M413 -4c-196 0 -352 145 -352 360c0 214 156 359 352 359c192 0 349 -144 349 -359c0 -216 -157 -360 -349 -360zM413 31c171 0 311 130 311 325c0 194 -140 324 -311 324c-175 0 -315 -131 -315 -324c0 -194 140 -325 315 -325z" />
    <glyph glyph-name="uni041F" unicode="&#x41f;" horiz-adv-x="677" 
d="M89 0v710h499v-710h-36v676h-428v-676h-35z" />
    <glyph glyph-name="uni0420" unicode="&#x420;" horiz-adv-x="588" 
d="M89 0v710h236c159 0 222 -88 222 -204c0 -145 -99 -208 -240 -208h-183v-298h-35zM124 332h181c149 0 205 76 205 174c0 115 -75 170 -182 170h-204v-344z" />
    <glyph glyph-name="uni0421" unicode="&#x421;" horiz-adv-x="716" 
d="M409 -3c-191 0 -348 125 -348 355c0 201 122 363 347 363c99 0 197 -41 273 -135l-28 -23c-69 86 -156 123 -245 123c-200 0 -310 -143 -310 -328c0 -207 137 -321 311 -321c110 0 187 50 244 122l28 -23c-63 -78 -147 -133 -272 -133z" />
    <glyph glyph-name="uni0422" unicode="&#x422;" horiz-adv-x="548" 
d="M255 0v676h-229v34h496v-34h-232v-676h-35z" />
    <glyph glyph-name="uni0423" unicode="&#x423;" horiz-adv-x="639" 
d="M573 710h38l-242 -539c-43 -95 -72 -176 -174 -176c-36 0 -83 13 -110 42l13 33c28 -29 67 -39 97 -39c65 0 95 45 134 137l-301 542h39l279 -500h2v1z" />
    <glyph glyph-name="uni040E" unicode="&#x40e;" horiz-adv-x="639" 
d="M321 787c-75 0 -133 42 -142 118l32 4c6 -47 40 -95 110 -95s104 48 109 95l32 -4c-9 -76 -67 -118 -141 -118zM573 710h38l-242 -539c-43 -95 -72 -176 -174 -176c-36 0 -83 13 -110 42l13 33c28 -29 67 -39 97 -39c65 0 95 45 134 137l-301 542h39l279 -500h2v1z" />
    <glyph glyph-name="uni0424" unicode="&#x424;" horiz-adv-x="840" 
d="M439 664c208 0 346 -118 346 -304c0 -172 -138 -288 -345 -288h-2v-72h-36v72h-2c-209 1 -345 116 -345 288c0 186 136 304 345 304h2v64h36v-64h1zM92 360c0 -149 117 -253 309 -254h1v524h-2c-195 0 -308 -109 -308 -270zM439 106c191 0 309 105 309 254
c0 161 -114 269 -309 270h-2v-524h2z" />
    <glyph glyph-name="uni0425" unicode="&#x425;" horiz-adv-x="616" 
d="M34 0l251 354l-251 356h41l233 -326h1l231 326h43l-252 -356l252 -354h-44l-229 322h-2l-232 -322h-42z" />
    <glyph glyph-name="uni0427" unicode="&#x427;" horiz-adv-x="623" 
d="M499 710h35v-710h-35v311c-74 -42 -174 -56 -226 -56c-149 0 -205 75 -205 228v227h35v-223c0 -144 50 -197 175 -197c50 0 149 12 221 57v363z" />
    <glyph glyph-name="uni0426" unicode="&#x426;" horiz-adv-x="716" 
d="M673 34v-180h-31l-2 146h-551v710h35v-676h415v676h36v-676h98z" />
    <glyph glyph-name="uni0428" unicode="&#x428;" horiz-adv-x="955" 
d="M831 710h35v-710h-777v710h35v-676h336v676h36v-676h335v676z" />
    <glyph glyph-name="uni0429" unicode="&#x429;" horiz-adv-x="1007" 
d="M964 34v-180h-30l-3 146h-842v710h35v-676h336v676h36v-676h335v676h35v-676h98z" />
    <glyph glyph-name="uni040F" unicode="&#x40f;" horiz-adv-x="677" 
d="M588 710v-710h-233l-1 -146h-31l-1 146h-233v710h35v-676h428v676h36z" />
    <glyph glyph-name="uni042C" unicode="&#x42c;" horiz-adv-x="607" 
d="M89 0v710h35v-301h197c144 0 237 -62 237 -204c0 -145 -95 -205 -237 -205h-232zM124 34h197c144 0 200 71 200 170c0 101 -57 171 -200 171h-197v-341z" />
    <glyph glyph-name="uni042A" unicode="&#x42a;" horiz-adv-x="726" 
d="M440 409c143 0 236 -62 236 -204c0 -145 -94 -205 -236 -205h-233v676h-202v34h238v-301h197zM440 34c143 0 199 71 199 170c0 101 -57 171 -199 171h-197v-341h197z" />
    <glyph glyph-name="uni042B" unicode="&#x42b;" horiz-adv-x="794" 
d="M89 0v710h35v-301h177c144 0 237 -62 237 -204c0 -145 -95 -205 -237 -205h-212zM670 0v710h35v-710h-35zM124 34h177c144 0 200 71 200 170c0 101 -57 171 -200 171h-177v-341z" />
    <glyph glyph-name="uni0409" unicode="&#x409;" horiz-adv-x="1096" 
d="M810 409c144 0 237 -62 237 -204c0 -145 -95 -205 -237 -205h-232v676h-324c-8 -125 -18 -282 -30 -382c-27 -218 -83 -296 -172 -296c-18 0 -29 2 -36 5l3 32c7 -2 20 -3 29 -3c69 0 114 65 140 263c12 92 23 242 32 415h393v-301h197zM810 34c144 0 200 71 200 170
c0 101 -57 171 -200 171h-197v-341h197z" />
    <glyph glyph-name="uni040A" unicode="&#x40a;" horiz-adv-x="1083" 
d="M803 387c144 0 231 -62 231 -189c0 -138 -91 -198 -233 -198h-243v350h-434v-350h-35v710h35v-326h434v326h36v-323h209zM801 34c143 0 196 71 196 163c0 86 -51 156 -194 156h-209v-319h207z" />
    <glyph glyph-name="uni0405" unicode="&#x405;" horiz-adv-x="562" 
d="M284 -4c-86 0 -177 33 -241 108l25 28c51 -68 136 -101 218 -101c101 0 187 50 187 145c0 103 -90 127 -193 169c-100 40 -207 82 -207 199c0 97 85 171 205 171c71 0 148 -28 207 -76l-23 -29c-56 45 -124 70 -183 70c-85 0 -169 -46 -169 -136c0 -94 89 -128 182 -165
c114 -45 218 -75 218 -201c0 -106 -87 -182 -226 -182z" />
    <glyph glyph-name="uni0404" unicode="&#x404;" horiz-adv-x="716" 
d="M653 144l28 -23c-64 -75 -147 -124 -273 -124c-190 0 -347 123 -347 355c0 203 122 363 348 363c98 0 183 -31 261 -114l-27 -25c-70 77 -146 104 -235 104c-194 0 -302 -131 -310 -307h430l1 -34h-431c5 -199 139 -308 310 -308c110 0 186 43 245 113z" />
    <glyph glyph-name="uni042D" unicode="&#x42d;" horiz-adv-x="725" 
d="M318 715c217 0 347 -159 347 -363c0 -217 -145 -355 -347 -355c-125 0 -214 53 -271 118l24 26c48 -59 133 -110 248 -110c179 0 304 123 309 308h-441v34h441c-8 177 -125 307 -310 307c-89 0 -162 -29 -234 -92l-24 27c76 66 161 100 258 100z" />
    <glyph glyph-name="uni0406" unicode="&#x406;" horiz-adv-x="227" 
d="M95 0v710h36v-710h-36z" />
    <glyph glyph-name="uni0407" unicode="&#x407;" horiz-adv-x="227" 
d="M35 839c-19 0 -34 15 -34 33c0 20 15 33 34 33s33 -14 33 -33s-14 -33 -33 -33zM189 839c-20 0 -34 15 -34 33c0 20 14 33 34 33c19 0 33 -14 33 -33s-14 -33 -33 -33zM95 0v710h36v-710h-36z" />
    <glyph glyph-name="uni0408" unicode="&#x408;" horiz-adv-x="472" 
d="M213 -3c-58 0 -133 31 -186 93l21 27c48 -53 105 -86 164 -86c88 0 147 48 147 186v493h35v-497c0 -148 -63 -216 -181 -216z" />
    <glyph glyph-name="uni040B" unicode="&#x40b;" horiz-adv-x="770" 
d="M500 429c147 0 202 -75 202 -228v-201h-36v198c0 144 -50 196 -171 196c-55 0 -135 -12 -215 -57v-337h-36v676h-229v34h497v-34h-232v-304c80 41 163 57 220 57z" />
    <glyph glyph-name="uni042E" unicode="&#x42e;" horiz-adv-x="1020" 
d="M624 715c202 0 340 -150 340 -359s-138 -360 -340 -360c-186 0 -320 134 -335 322h-165v-318h-36v710h36v-358h163v3c0 209 139 360 337 360zM624 31c180 0 303 136 303 325c0 188 -123 324 -303 324c-177 0 -300 -136 -300 -325c0 -186 123 -324 300 -324z" />
    <glyph glyph-name="uni042F" unicode="&#x42f;" horiz-adv-x="629" 
d="M55 0l196 298c-109 17 -183 81 -183 207c0 119 72 205 227 205h245v-710h-36v293h-214l-192 -293h-43zM314 327h190v349h-208c-115 0 -191 -54 -191 -171c0 -102 58 -178 209 -178z" />
    <glyph glyph-name="uni0402" unicode="&#x402;" horiz-adv-x="792" 
d="M494 428c160 0 249 -80 249 -218s-91 -215 -231 -215c-38 0 -59 2 -100 8l2 33c33 -5 56 -7 97 -7c121 0 195 65 195 180c0 118 -76 185 -216 185c-72 0 -152 -17 -210 -47v-347h-36v676h-229v34h497v-34h-232v-294c60 28 141 46 214 46z" />
    <glyph glyph-name="uni0462" unicode="&#x462;" horiz-adv-x="716" 
d="M430 407c144 0 237 -61 237 -203c0 -144 -95 -204 -237 -204h-233v572h-187v32h187v106h36v-106h267v-32h-267v-165h197zM430 34c144 0 200 71 200 169c0 101 -57 170 -200 170h-197v-339h197z" />
    <glyph glyph-name="uni0472" unicode="&#x472;" horiz-adv-x="823" 
d="M412 715c193 0 350 -144 350 -359c0 -216 -157 -360 -350 -360c-210 0 -351 160 -351 360c0 198 141 359 351 359zM412 681c-182 0 -306 -137 -314 -309h627c-8 185 -145 309 -313 309zM412 30c168 0 305 123 313 309h-627c8 -173 131 -309 314 -309z" />
    <glyph glyph-name="uni0474" unicode="&#x474;" horiz-adv-x="700" 
d="M302 0l-272 710h38l251 -657h2l183 538c30 88 58 123 127 123c35 0 67 -14 78 -25l-9 -33c-10 11 -39 25 -68 25c-54 0 -74 -37 -95 -99l-200 -582h-35z" />
    <glyph glyph-name="uni0492" unicode="&#x492;" horiz-adv-x="553" 
d="M532 676h-381v-316h208v-32h-208v-328h-36v328h-105v32h105v350h417v-34z" />
    <glyph glyph-name="uni0494" unicode="&#x494;" horiz-adv-x="633" 
d="M310 385c157 0 269 -88 269 -286c0 -207 -122 -300 -271 -300c-36 0 -61 3 -92 10l3 33c33 -7 56 -10 88 -10c135 0 235 88 235 265c0 181 -101 254 -235 254c-61 0 -124 -12 -183 -34v-317h-35v710h417v-34h-382v-324c46 16 111 33 186 33z" />
    <glyph glyph-name="uni0496" unicode="&#x496;" horiz-adv-x="950" 
d="M905 34v-180h-31l-2 146h-25l-248 350l-122 -157v-193h-35v195l-122 155l-243 -350h-43l262 376l-263 334h45l363 -464h1v464h35v-466l1 -1l358 467h44l-256 -334l242 -342h39z" />
    <glyph glyph-name="uni0498" unicode="&#x498;" horiz-adv-x="596" 
d="M541 196c0 -107 -80 -197 -234 -200l-9 -38c41 -5 85 -22 85 -70c0 -46 -37 -69 -83 -71c-25 -1 -48 1 -72 10v30c17 -8 36 -12 61 -12c42 0 64 16 63 47s-39 45 -89 46l15 59c-97 5 -178 43 -231 105l24 28c47 -61 132 -99 230 -99c118 0 203 60 203 163
c0 98 -74 159 -209 159h-129v34h128c84 0 176 44 176 150c0 90 -68 143 -178 143c-74 0 -142 -23 -194 -64l-22 27c48 42 135 72 219 72c128 0 212 -71 212 -175c0 -73 -41 -142 -129 -167v-1c85 -13 163 -66 163 -176z" />
    <glyph glyph-name="uni049A" unicode="&#x49a;" horiz-adv-x="646" 
d="M591 34v-180h-31l-2 146h-26l-271 349l-137 -158v-191h-35v710h35v-465h2l400 465h46l-287 -334l267 -342h39z" />
    <glyph glyph-name="uni049C" unicode="&#x49c;" horiz-adv-x="655" 
d="M570 0l-259 330h-38v-212h-33v212l-116 1v-331h-35v710h35v-346l116 1v213h33v-213h39l253 345h44l-267 -361l272 -349h-44z" />
    <glyph glyph-name="uni049E" unicode="&#x49e;" horiz-adv-x="629" 
d="M295 376l293 -376h-46l-270 349l-138 -160v-189h-35v574h-97v32h97v104h35v-104h167v-32h-167v-330h2l400 466h46z" />
    <glyph glyph-name="uni04A0" unicode="&#x4a0;" horiz-adv-x="737" 
d="M403 376l293 -376h-45l-272 349l-136 -158v-191h-36v676h-202v34h238v-465h2l399 465h47z" />
    <glyph glyph-name="uni04A2" unicode="&#x4a2;" horiz-adv-x="750" 
d="M707 34v-180h-30l-3 146h-101v318h-449v-318h-35v710h35v-358h449v358h36v-676h98z" />
    <glyph glyph-name="uni04A4" unicode="&#x4a4;" horiz-adv-x="836" 
d="M815 710v-34h-211v-676h-36v318h-444v-318h-35v710h35v-358h444v358h247z" />
    <glyph glyph-name="uni04A6" unicode="&#x4a6;" horiz-adv-x="1089" 
d="M766 385c157 0 269 -88 269 -286c0 -207 -122 -300 -271 -300c-36 0 -61 3 -92 10l3 33c33 -7 56 -10 88 -10c135 0 235 88 235 265c0 181 -101 254 -235 254c-61 0 -123 -12 -182 -34v-317h-36v676h-421v-676h-35v710h492v-357c46 15 111 32 185 32z" />
    <glyph glyph-name="uni0524" unicode="&#x524;" horiz-adv-x="729" 
d="M686 34v-180h-30l-3 146h-101v676h-428v-676h-35v710h499v-676h98z" />
    <glyph glyph-name="uni04A8" unicode="&#x4a8;" horiz-adv-x="855" 
d="M853 21c-27 -19 -67 -26 -105 -26c-54 0 -112 15 -156 38c-46 -24 -102 -38 -174 -38c-234 0 -367 161 -367 363c0 207 144 357 357 357c42 0 83 -7 120 -20l-17 -32c-32 12 -66 17 -103 17c-182 0 -319 -126 -320 -324c0 -189 126 -327 331 -327c58 0 101 9 137 24v2
c-91 64 -146 174 -147 304c-1 155 84 261 194 261c108 0 184 -107 184 -260c0 -138 -67 -248 -162 -307l1 -1c36 -15 78 -24 118 -24s72 8 102 27zM446 358c1 -124 54 -230 145 -287h2c93 53 157 157 157 287c0 132 -60 227 -148 227c-91 0 -157 -96 -156 -227z" />
    <glyph glyph-name="uni04AA" unicode="&#x4aa;" horiz-adv-x="716" 
d="M409 31c110 0 187 50 244 122l28 -23c-63 -78 -147 -133 -272 -133h-7l-9 -39c41 -5 85 -22 85 -70c0 -46 -37 -69 -83 -71c-25 -1 -48 1 -72 10v30c17 -8 36 -12 61 -12c42 0 64 16 63 47s-39 45 -89 46l16 60c-175 15 -313 138 -313 354c0 201 122 363 347 363
c99 0 197 -41 273 -135l-28 -23c-69 86 -156 123 -245 123c-200 0 -310 -143 -310 -328c0 -207 137 -321 311 -321z" />
    <glyph glyph-name="uni04AC" unicode="&#x4ac;" horiz-adv-x="548" 
d="M522 676h-232v-642h98v-180h-30l-3 146h-100v676h-229v34h496v-34z" />
    <glyph glyph-name="uni04AE" unicode="&#x4ae;" horiz-adv-x="565" 
d="M264 0v322l-247 388h43l221 -350h2l222 350h42l-247 -388v-322h-36z" />
    <glyph glyph-name="uni04B0" unicode="&#x4b0;" horiz-adv-x="565" 
d="M547 710l-236 -370h150v-31h-161v-309h-36v309h-164v31h153l-236 370h43l221 -350h2l222 350h42z" />
    <glyph glyph-name="uni04B2" unicode="&#x4b2;" horiz-adv-x="643" 
d="M597 34v-180h-31l-2 146h-25l-229 322h-2l-232 -322h-42l251 354l-251 356h41l233 -326h1l231 326h43l-252 -356l228 -320h38z" />
    <glyph glyph-name="uni04B4" unicode="&#x4b4;" horiz-adv-x="871" 
d="M828 34v-180h-31l-2 146h-551v678h-229v32h492v-32h-228v-644h415v676h36v-676h98z" />
    <glyph glyph-name="uni04B6" unicode="&#x4b6;" horiz-adv-x="675" 
d="M632 34v-180h-30l-3 146h-100v311c-74 -42 -174 -56 -226 -56c-149 0 -205 75 -205 228v227h35v-223c0 -144 50 -197 175 -197c50 0 149 12 221 57v363h35v-676h98z" />
    <glyph glyph-name="uni04B8" unicode="&#x4b8;" horiz-adv-x="625" 
d="M500 710h36v-710h-36v310c-53 -29 -119 -45 -172 -51v-153h-31v150c-9 -1 -17 -1 -24 -1c-149 0 -205 75 -205 228v227h35v-223c0 -144 50 -197 175 -197h19v176h31v-173c52 6 119 21 172 54v363z" />
    <glyph glyph-name="uni04BA" unicode="&#x4ba;" horiz-adv-x="626" 
d="M352 458c150 0 206 -75 206 -228v-230h-35v228c0 143 -51 195 -176 195c-52 0 -151 -16 -223 -57v-366h-35v710h35v-308c75 39 174 56 228 56z" />
    <glyph glyph-name="uni04BC" unicode="&#x4bc;" horiz-adv-x="869" 
d="M818 367h-623v-15c2 -189 113 -321 306 -321c102 0 211 38 263 117l28 -22c-58 -85 -175 -129 -291 -129c-219 0 -344 151 -344 354v15h-12c-101 0 -146 39 -146 109c0 20 4 43 14 68l33 -6c-9 -23 -13 -43 -13 -60c0 -52 31 -78 112 -78h15c19 181 152 316 344 316
c159 0 314 -111 314 -330v-18zM505 680c-173 0 -289 -119 -307 -280h584c-5 169 -126 280 -277 280z" />
    <glyph glyph-name="uni04BE" unicode="&#x4be;" horiz-adv-x="869" 
d="M818 367h-623v-15c2 -189 113 -321 306 -321c102 0 211 38 263 117l28 -22c-56 -83 -168 -126 -281 -129l-1 -143h-30l-2 144c-205 10 -321 157 -321 353v15h-12c-101 0 -146 39 -146 109c0 20 4 43 14 68l33 -6c-9 -23 -13 -43 -13 -60c0 -52 31 -78 112 -78h15
c19 181 152 316 344 316c159 0 314 -111 314 -330v-18zM505 680c-173 0 -289 -119 -307 -280h584c-5 169 -126 280 -277 280z" />
    <glyph glyph-name="uni04C0" unicode="&#x4c0;" horiz-adv-x="227" 
d="M95 0v710h36v-710h-36z" />
    <glyph glyph-name="uni04C1" unicode="&#x4c1;" horiz-adv-x="923" 
d="M460 787c-75 0 -133 42 -142 118l32 4c6 -47 40 -95 110 -95s104 48 109 95l32 -4c-9 -76 -67 -118 -141 -118zM34 0l262 376l-263 334h45l363 -464h1v464h35v-466l1 -1l358 467h44l-256 -334l266 -376h-43l-248 350l-122 -157v-193h-35v195l-122 155l-243 -350h-43z" />
    <glyph glyph-name="uni04C3" unicode="&#x4c3;" horiz-adv-x="646" 
d="M310 381c147 0 270 -88 270 -282c0 -207 -122 -300 -271 -300c-36 0 -62 3 -92 10l2 33c34 -7 57 -10 89 -10c134 0 235 88 235 265c0 178 -112 251 -237 251c-16 0 -32 -1 -48 -3l-134 -154v-191h-35v710h35v-465h2l400 465h46l-285 -330c8 1 15 1 23 1z" />
    <glyph glyph-name="uni04C5" unicode="&#x4c5;" horiz-adv-x="713" 
d="M613 34h47v-10l-62 -170h-29l47 146h-38v676h-324c-8 -125 -18 -282 -30 -382c-27 -218 -83 -296 -172 -296c-18 0 -29 2 -36 5l3 32c7 -2 20 -3 29 -3c69 0 114 65 140 263c12 92 23 242 32 415h393v-676z" />
    <glyph glyph-name="uni04C7" unicode="&#x4c7;" horiz-adv-x="698" 
d="M573 710h36v-732c0 -126 -49 -180 -158 -180c-27 0 -53 5 -74 14l3 33c19 -10 45 -14 69 -14c72 0 124 27 124 146v341h-449v-318h-35v710h35v-358h449v358z" />
    <glyph glyph-name="uni04C9" unicode="&#x4c9;" horiz-adv-x="709" 
d="M609 34h47v-10l-62 -170h-29l47 146h-39v318h-449v-318h-35v710h35v-358h449v358h36v-676z" />
    <glyph glyph-name="uni04CB" unicode="&#x4cb;" horiz-adv-x="623" 
d="M499 710h35v-710h-101l-2 -146h-30v180h98v277c-74 -42 -174 -56 -226 -56c-149 0 -205 75 -205 228v227h35v-223c0 -144 50 -197 175 -197c50 0 149 12 221 57v363z" />
    <glyph glyph-name="uni04CD" unicode="&#x4cd;" horiz-adv-x="868" 
d="M768 34h47v-10l-62 -170h-29l47 146h-39v640h-1l-288 -487h-29l-288 487h-1v-640h-36v710h36l303 -512h2l302 512h36v-676z" />
    <glyph glyph-name="uni04D0" unicode="&#x4d0;" horiz-adv-x="647" 
d="M323 787c-75 0 -133 42 -142 118l32 4c6 -47 40 -95 110 -95s104 48 109 95l32 -4c-9 -76 -67 -118 -141 -118zM28 0l274 710h40l277 -710h-38l-79 204h-357l-79 -204h-38zM157 237h332l-165 430h-2z" />
    <glyph glyph-name="uni04D2" unicode="&#x4d2;" horiz-adv-x="647" 
d="M245 839c-19 0 -34 15 -34 33c0 20 15 33 34 33s33 -14 33 -33s-14 -33 -33 -33zM399 839c-20 0 -34 15 -34 33c0 20 14 33 34 33c19 0 33 -14 33 -33s-14 -33 -33 -33zM28 0l274 710h40l277 -710h-38l-79 204h-357l-79 -204h-38zM157 237h332l-165 430h-2z" />
    <glyph glyph-name="uni04D4" unicode="&#x4d4;" horiz-adv-x="906" 
d="M6 0l404 710h440v-34h-381v-305h322v-34h-322v-303h401v-34h-437v204h-270l-117 -204h-40zM181 237h252v439h-1z" />
    <glyph glyph-name="uni04D6" unicode="&#x4d6;" horiz-adv-x="570" 
d="M290 787c-75 0 -133 42 -142 118l32 4c6 -47 40 -95 110 -95s104 48 109 95l32 -4c-9 -76 -67 -118 -141 -118zM89 0v710h416v-34h-381v-304h319v-34h-319v-304h402v-34h-437z" />
    <glyph glyph-name="uni04D8" unicode="&#x4d8;" horiz-adv-x="767" 
d="M360 715c218 0 347 -160 347 -360c0 -208 -139 -359 -333 -359c-175 0 -328 110 -328 329v19h623v11c-1 187 -118 325 -311 325c-93 0 -167 -29 -240 -87l-24 26c76 63 163 96 266 96zM373 31c160 0 277 113 294 279h-585c3 -170 126 -279 291 -279z" />
    <glyph glyph-name="uni04DA" unicode="&#x4da;" horiz-adv-x="767" 
d="M302 839c-19 0 -34 15 -34 33c0 20 15 33 34 33s33 -14 33 -33s-14 -33 -33 -33zM456 839c-20 0 -34 15 -34 33c0 20 14 33 34 33c19 0 33 -14 33 -33s-14 -33 -33 -33zM360 715c218 0 347 -160 347 -360c0 -208 -139 -359 -333 -359c-175 0 -328 110 -328 329v19h623v11
c-1 187 -118 325 -311 325c-93 0 -167 -29 -240 -87l-24 26c76 63 163 96 266 96zM373 31c160 0 277 113 294 279h-585c3 -170 126 -279 291 -279z" />
    <glyph glyph-name="uni04DC" unicode="&#x4dc;" horiz-adv-x="923" 
d="M382 839c-19 0 -34 15 -34 33c0 20 15 33 34 33s33 -14 33 -33s-14 -33 -33 -33zM536 839c-20 0 -34 15 -34 33c0 20 14 33 34 33c19 0 33 -14 33 -33s-14 -33 -33 -33zM34 0l262 376l-263 334h45l363 -464h1v464h35v-466l1 -1l358 467h44l-256 -334l266 -376h-43
l-248 350l-122 -157v-193h-35v195l-122 155l-243 -350h-43z" />
    <glyph glyph-name="uni04DE" unicode="&#x4de;" horiz-adv-x="596" 
d="M213 839c-19 0 -34 15 -34 33c0 20 15 33 34 33s33 -14 33 -33s-14 -33 -33 -33zM367 839c-20 0 -34 15 -34 33c0 20 14 33 34 33c19 0 33 -14 33 -33s-14 -33 -33 -33zM300 -4c-107 0 -196 39 -253 106l24 28c47 -61 132 -99 230 -99c118 0 203 60 203 163
c0 98 -74 159 -209 159h-129v34h128c84 0 176 44 176 150c0 90 -68 143 -178 143c-74 0 -142 -23 -194 -64l-22 27c48 42 135 72 219 72c128 0 212 -71 212 -175c0 -73 -41 -142 -129 -167v-1c85 -13 163 -66 163 -176c0 -109 -82 -200 -241 -200z" />
    <glyph glyph-name="uni04E0" unicode="&#x4e0;" horiz-adv-x="586" 
d="M233 405c210 0 307 -70 307 -211c0 -112 -84 -198 -237 -198c-112 0 -200 39 -257 106l24 28c47 -60 133 -99 234 -99c112 0 199 57 199 163c0 124 -83 178 -283 178h-41v25l286 278l-1 1h-398v34h448v-31z" />
    <glyph glyph-name="uni04E2" unicode="&#x4e2;" horiz-adv-x="714" 
d="M223 829v32h271v-32h-271zM89 0v710h35v-649h2l466 649h33v-710h-35v647h-2l-465 -647h-34z" />
    <glyph glyph-name="uni04E4" unicode="&#x4e4;" horiz-adv-x="714" 
d="M280 839c-19 0 -34 15 -34 33c0 20 15 33 34 33s33 -14 33 -33s-14 -33 -33 -33zM434 839c-20 0 -34 15 -34 33c0 20 14 33 34 33c19 0 33 -14 33 -33s-14 -33 -33 -33zM89 0v710h35v-649h2l466 649h33v-710h-35v647h-2l-465 -647h-34z" />
    <glyph glyph-name="uni04E6" unicode="&#x4e6;" horiz-adv-x="823" 
d="M334 839c-19 0 -34 15 -34 33c0 20 15 33 34 33s33 -14 33 -33s-14 -33 -33 -33zM488 839c-20 0 -34 15 -34 33c0 20 14 33 34 33c19 0 33 -14 33 -33s-14 -33 -33 -33zM413 -4c-196 0 -352 145 -352 360c0 214 156 359 352 359c192 0 349 -144 349 -359
c0 -216 -157 -360 -349 -360zM413 31c171 0 311 130 311 325c0 194 -140 324 -311 324c-175 0 -315 -131 -315 -324c0 -194 140 -325 315 -325z" />
    <glyph glyph-name="uni04E8" unicode="&#x4e8;" horiz-adv-x="823" 
d="M412 715c193 0 350 -144 350 -359c0 -216 -157 -360 -350 -360c-210 0 -351 160 -351 360c0 198 141 359 351 359zM412 681c-182 0 -306 -137 -314 -309h627c-8 185 -145 309 -313 309zM412 30c168 0 305 123 313 309h-627c8 -173 131 -309 314 -309z" />
    <glyph glyph-name="uni04EA" unicode="&#x4ea;" horiz-adv-x="823" 
d="M336 839c-19 0 -34 15 -34 33c0 20 15 33 34 33s33 -14 33 -33s-14 -33 -33 -33zM490 839c-20 0 -34 15 -34 33c0 20 14 33 34 33c19 0 33 -14 33 -33s-14 -33 -33 -33zM412 715c193 0 350 -144 350 -359c0 -216 -157 -360 -350 -360c-210 0 -351 160 -351 360
c0 198 141 359 351 359zM412 681c-182 0 -306 -137 -314 -309h627c-8 185 -145 309 -313 309zM412 30c168 0 305 123 313 309h-627c8 -173 131 -309 314 -309z" />
    <glyph glyph-name="uni04EC" unicode="&#x4ec;" horiz-adv-x="725" 
d="M262 839c-19 0 -34 15 -34 33c0 20 15 33 34 33s33 -14 33 -33s-14 -33 -33 -33zM416 839c-20 0 -34 15 -34 33c0 20 14 33 34 33c19 0 33 -14 33 -33s-14 -33 -33 -33zM318 715c217 0 347 -159 347 -363c0 -217 -145 -355 -347 -355c-125 0 -214 53 -271 118l24 26
c48 -59 133 -110 248 -110c179 0 304 123 309 308h-441v34h441c-8 177 -125 307 -310 307c-89 0 -162 -29 -234 -92l-24 27c76 66 161 100 258 100z" />
    <glyph glyph-name="uni04EE" unicode="&#x4ee;" horiz-adv-x="639" 
d="M457 861v-32h-271v32h271zM573 710h38l-242 -539c-43 -95 -72 -176 -174 -176c-36 0 -83 13 -110 42l13 33c28 -29 67 -39 97 -39c65 0 95 45 134 137l-301 542h39l279 -500h2v1z" />
    <glyph glyph-name="uni04F0" unicode="&#x4f0;" horiz-adv-x="639" 
d="M243 839c-19 0 -34 15 -34 33c0 20 15 33 34 33s33 -14 33 -33s-14 -33 -33 -33zM397 839c-20 0 -34 15 -34 33c0 20 14 33 34 33c19 0 33 -14 33 -33s-14 -33 -33 -33zM573 710h38l-242 -539c-43 -95 -72 -176 -174 -176c-36 0 -83 13 -110 42l13 33
c28 -29 67 -39 97 -39c65 0 95 45 134 137l-301 542h39l279 -500h2v1z" />
    <glyph glyph-name="uni04F2" unicode="&#x4f2;" horiz-adv-x="639" 
d="M398 935l-124 -136h-39l121 136h42zM406 799h-38l121 136h42zM573 710h38l-242 -539c-43 -95 -72 -176 -174 -176c-36 0 -83 13 -110 42l13 33c28 -29 67 -39 97 -39c65 0 95 45 134 137l-301 542h39l279 -500h2v1z" />
    <glyph glyph-name="uni04F4" unicode="&#x4f4;" horiz-adv-x="623" 
d="M234 839c-19 0 -34 15 -34 33c0 20 15 33 34 33s33 -14 33 -33s-14 -33 -33 -33zM388 839c-20 0 -34 15 -34 33c0 20 14 33 34 33c19 0 33 -14 33 -33s-14 -33 -33 -33zM499 710h35v-710h-35v311c-74 -42 -174 -56 -226 -56c-149 0 -205 75 -205 228v227h35v-223
c0 -144 50 -197 175 -197c50 0 149 12 221 57v363z" />
    <glyph glyph-name="uni04F6" unicode="&#x4f6;" horiz-adv-x="527" 
d="M506 676h-382v-642h98v-180h-30l-3 146h-100v710h417v-34z" />
    <glyph glyph-name="uni04F8" unicode="&#x4f8;" horiz-adv-x="794" 
d="M320 839c-19 0 -34 15 -34 33c0 20 15 33 34 33s33 -14 33 -33s-14 -33 -33 -33zM474 839c-20 0 -34 15 -34 33c0 20 14 33 34 33c19 0 33 -14 33 -33s-14 -33 -33 -33zM89 0v710h35v-301h177c144 0 237 -62 237 -204c0 -145 -95 -205 -237 -205h-212zM670 0v710h35v-710
h-35zM124 34h177c144 0 200 71 200 170c0 101 -57 171 -200 171h-177v-341z" />
    <glyph glyph-name="uni04FA" unicode="&#x4fa;" horiz-adv-x="553" 
d="M532 676h-381v-316h208v-32h-208v-403c0 -73 -28 -127 -108 -127c-17 0 -43 4 -65 14l3 33c20 -11 43 -14 60 -14c44 0 74 25 74 90v407h-105v32h105v350h417v-34z" />
    <glyph glyph-name="uni04FC" unicode="&#x4fc;" horiz-adv-x="615" 
d="M418 -202c-28 0 -55 5 -75 14l3 33c19 -10 45 -14 69 -14c82 0 123 39 123 119c0 63 -44 125 -87 183l-141 189h-2l-232 -322h-42l251 354l-251 356h41l233 -326h1l231 326h43l-252 -356l148 -200c46 -62 95 -131 95 -204c0 -90 -48 -152 -156 -152z" />
    <glyph glyph-name="uni04FE" unicode="&#x4fe;" horiz-adv-x="616" 
d="M524 336h-181l240 -336h-44l-229 322h-2l-232 -322h-42l240 336h-180v33h182l-242 341h41l233 -327h1l231 327h43l-242 -341h183v-33z" />
    <glyph glyph-name="uni0510" unicode="&#x510;" horiz-adv-x="594" 
d="M297 -4c-165 0 -242 84 -242 191c0 112 87 170 160 183v1c-90 26 -127 97 -127 169c0 107 84 175 210 175c83 0 167 -31 215 -80l-23 -26c-50 48 -118 71 -190 71c-108 0 -175 -54 -175 -144c0 -105 91 -149 173 -149h129v-34h-129c-124 0 -205 -64 -205 -164
c0 -101 80 -158 204 -158c99 0 183 38 228 109l28 -25c-56 -79 -146 -119 -256 -119z" />
    <glyph glyph-name="uni0512" unicode="&#x512;" horiz-adv-x="702" 
d="M613 710v-732c0 -126 -49 -180 -158 -180c-27 0 -53 5 -74 14l3 33c19 -10 45 -14 69 -14c72 0 124 27 124 146v699h-323c-8 -125 -18 -282 -30 -382c-27 -218 -83 -296 -172 -296c-18 0 -29 2 -36 5l3 32c7 -2 20 -3 29 -3c69 0 114 65 140 263c12 92 23 242 32 415h393
z" />
    <glyph glyph-name="uni051A" unicode="&#x51a;" horiz-adv-x="832" 
d="M774 21l-22 -26l-102 91c-62 -57 -146 -90 -238 -90c-210 0 -351 160 -351 360c0 198 141 359 351 359c193 0 350 -144 350 -359c0 -99 -33 -184 -88 -246zM98 356c0 -181 127 -325 314 -325c81 0 155 29 211 80l-99 89l21 26l101 -91c49 56 78 132 78 221
c0 193 -139 324 -312 324c-187 0 -314 -144 -314 -324z" />
    <glyph glyph-name="uni051C" unicode="&#x51c;" horiz-adv-x="997" 
d="M263 0l-229 710h38l211 -655h1l193 655h43l192 -655h1l212 655h38l-229 -710h-41l-194 659h-1l-195 -659h-40z" />
    <glyph glyph-name="uni048C" unicode="&#x48c;" horiz-adv-x="629" 
d="M343 407c144 0 237 -61 237 -203c0 -144 -95 -204 -237 -204h-233v569h-104v33h104v108h36v-108h179v-33h-179v-162h197zM343 34c144 0 200 71 200 169c0 101 -57 170 -200 170h-197v-339h197z" />
    <glyph glyph-name="uni048E" unicode="&#x48e;" horiz-adv-x="589" 
d="M547 506c0 -107 -53 -169 -138 -195l80 -150l-29 -14l-86 156c-20 -3 -43 -5 -66 -5h-184v-298h-35v710h236c159 0 222 -88 222 -204zM391 342c86 24 119 86 119 164c0 115 -75 170 -182 170h-204v-344h181c19 0 37 1 53 3l-78 144l29 13z" />
    <glyph glyph-name="uni0416.alt" horiz-adv-x="925" 
d="M892 0h-45l-253 330l-115 1v-331h-35v331h-115l-253 -331h-45l269 351l-264 359h44l252 -346h112v346h35v-347l112 1l251 346h44l-263 -359z" />
    <glyph glyph-name="uni041A.alt" horiz-adv-x="618" 
d="M578 0h-45l-265 330l-144 1v-331h-35v710h35v-347l143 1l261 346h44l-273 -361z" />
    <glyph glyph-name="uni040C.alt" horiz-adv-x="618" 
d="M405 917l-116 -125h-39l113 125h42zM578 0h-45l-265 330l-144 1v-331h-35v710h35v-347l143 1l261 346h44l-273 -361z" />
    <glyph glyph-name="uni0496.alt" horiz-adv-x="952" 
d="M907 34v-180h-31l-2 146h-27l-253 330l-115 1v-331h-35v331h-115l-253 -331h-45l269 351l-264 359h44l252 -346h112v346h35v-347l112 1l251 346h44l-263 -359l243 -317h41z" />
    <glyph glyph-name="uni049A.alt" horiz-adv-x="645" 
d="M591 34v-180h-31l-2 146h-25l-265 330l-144 1v-331h-35v710h35v-347l143 1l261 346h44l-273 -361l252 -315h40z" />
    <glyph glyph-name="uni049E.alt" horiz-adv-x="629" 
d="M589 0h-45l-265 330l-144 1v-331h-35v576h-97v30h97v104h35v-104h167v-30h-167v-213l143 1l261 346h44l-273 -361z" />
    <glyph glyph-name="uni04A0.alt" horiz-adv-x="737" 
d="M696 0h-45l-265 330l-144 1v-331h-35v678h-202v32h237v-347l143 1l261 346h44l-273 -361z" />
    <glyph glyph-name="uni04C1.alt" horiz-adv-x="925" 
d="M462 787c-75 0 -133 42 -142 118l32 4c6 -47 40 -95 110 -95s104 48 109 95l32 -4c-9 -76 -67 -118 -141 -118zM892 0h-45l-253 330l-115 1v-331h-35v331h-115l-253 -331h-45l269 351l-264 359h44l252 -346h112v346h35v-347l112 1l251 346h44l-263 -359z" />
    <glyph glyph-name="uni04C3.alt" horiz-adv-x="652" 
d="M309 362c146 -4 278 -89 278 -263c0 -207 -122 -300 -271 -300c-37 0 -62 3 -92 10l2 33c34 -7 57 -10 89 -10c134 0 235 88 235 265c0 163 -124 234 -271 234c-43 0 -98 -3 -155 -8v-323h-35v710h35v-354c45 4 97 7 143 8l261 346h44z" />
    <glyph glyph-name="uni04DC.alt" horiz-adv-x="925" 
d="M384 839c-19 0 -34 15 -34 33c0 20 15 33 34 33s33 -14 33 -33s-14 -33 -33 -33zM538 839c-20 0 -34 15 -34 33c0 20 14 33 34 33c19 0 33 -14 33 -33s-14 -33 -33 -33zM892 0h-45l-253 330l-115 1v-331h-35v331h-115l-253 -331h-45l269 351l-264 359h44l252 -346h112
v346h35v-347l112 1l251 346h44l-263 -359z" />
    <glyph glyph-name="uni051A.alt" horiz-adv-x="822" 
d="M762 356c0 -155 -81 -273 -198 -327l157 -132l-21 -28l-171 146c-37 -13 -76 -19 -117 -19c-210 0 -351 160 -351 360c0 198 141 359 351 359c193 0 350 -144 350 -359zM98 356c0 -180 127 -325 314 -325c172 0 312 130 312 325c0 194 -140 324 -312 324
c-187 0 -314 -145 -314 -324z" />
    <glyph glyph-name="uni0528" unicode="&#x528;" horiz-adv-x="698" 
d="M573 710h36v-710h-36v318h-448v-393c0 -73 -28 -127 -108 -127c-17 0 -43 4 -65 14l3 33c20 -11 43 -14 60 -14c44 0 74 25 74 90v789h36v-358h448v358z" />
    <glyph glyph-name="uni052E" unicode="&#x52e;" horiz-adv-x="754" 
d="M711 34v-180h-30l-3 146h-100v676h-324c-8 -125 -18 -282 -30 -382c-27 -218 -83 -296 -172 -296c-18 0 -29 2 -36 5l3 32c7 -2 20 -3 29 -3c69 0 114 65 140 263c12 92 23 242 32 415h393v-676h98z" />
    <glyph glyph-name="uni0414.loclBGR" horiz-adv-x="757" 
d="M738 34v-180h-30l-2 146h-654l-3 -146h-30v180h75l260 676h41l264 -676h79zM132 34h488l-244 632h-1z" />
    <glyph glyph-name="uni041B.loclBGR" horiz-adv-x="648" 
d="M29 0l273 710h41l276 -710h-40l-255 664h-2l-254 -664h-39z" />
    <glyph glyph-name="uni0424.loclBGR" horiz-adv-x="838" 
d="M789 358c0 -203 -141 -349 -350 -350v-69h-35v69h-3c-216 1 -352 143 -352 342c0 203 136 354 355 355v54h35v-54h2c208 0 348 -145 348 -347zM400 42h4v629c-205 0 -318 -140 -318 -321c0 -177 115 -308 314 -308zM439 42c194 1 313 135 313 316
c0 176 -115 312 -310 313h-3v-629z" />
    <glyph glyph-name="uni0430" unicode="&#x430;" horiz-adv-x="594" 
d="M284 -4c-132 0 -239 97 -239 242c0 139 97 251 240 251c88 0 165 -50 201 -132l1 1v127h33v-485h-33v124h-1c-35 -76 -107 -128 -202 -128zM287 29c110 0 200 83 200 209c0 120 -80 219 -200 219c-114 0 -207 -88 -207 -219c0 -116 82 -209 207 -209z" />
    <glyph glyph-name="uni0431" unicode="&#x431;" horiz-adv-x="594" 
d="M312 -4c-161 0 -251 116 -250 308c0 201 17 364 246 403l187 33l9 -32l-189 -33c-190 -33 -215 -154 -221 -332h1c30 81 106 145 215 145c131 0 239 -100 239 -245c0 -147 -115 -247 -237 -247zM313 29c108 0 201 93 201 214c0 123 -89 213 -208 213
c-115 0 -206 -88 -206 -205c0 -78 47 -222 213 -222z" />
    <glyph glyph-name="uni0432" unicode="&#x432;" horiz-adv-x="527" 
d="M80 0v485h217c100 0 157 -40 157 -118c0 -58 -31 -99 -81 -113v-1c55 -9 105 -48 105 -123c0 -81 -55 -130 -177 -130h-221zM113 266h190c72 0 117 34 117 97c0 62 -44 90 -126 90h-181v-187zM113 31h185c99 0 146 35 146 100c0 68 -49 104 -139 104h-192v-204z" />
    <glyph glyph-name="uni0433" unicode="&#x433;" horiz-adv-x="441" 
d="M80 0v485h333v-32h-299v-453h-34z" />
    <glyph glyph-name="uni0453" unicode="&#x453;" horiz-adv-x="441" 
d="M173 560l122 136h43l-124 -136h-41zM80 0v485h333v-32h-299v-453h-34z" />
    <glyph glyph-name="uni0491" unicode="&#x491;" horiz-adv-x="441" 
d="M384 626h29v-173h-299v-453h-34v485h302z" />
    <glyph glyph-name="uni0434" unicode="&#x434;" horiz-adv-x="591" 
d="M561 32v-173h-28l-2 141h-480l-2 -141h-29v173h70c44 61 69 135 83 213c14 77 18 158 19 240h291v-453h78zM127 32h322v421h-225c-1 -63 -3 -141 -17 -216c-15 -80 -42 -149 -80 -205z" />
    <glyph glyph-name="uni0435" unicode="&#x435;" horiz-adv-x="536" 
d="M493 256c0 -7 0 -16 -1 -18h-411c2 -122 85 -209 199 -209c75 0 131 30 168 78l25 -20c-42 -56 -105 -91 -192 -91c-137 0 -234 104 -234 246s100 247 232 247c127 0 214 -100 214 -233zM278 457c-103 0 -185 -78 -196 -188h377c-9 112 -77 188 -181 188z" />
    <glyph glyph-name="uni0450" unicode="&#x450;" horiz-adv-x="536" 
d="M325 564h-40l-115 129h42zM493 256c0 -7 0 -16 -1 -18h-411c2 -122 85 -209 199 -209c75 0 131 30 168 78l25 -20c-42 -56 -105 -91 -192 -91c-137 0 -234 104 -234 246s100 247 232 247c127 0 214 -100 214 -233zM278 457c-103 0 -185 -78 -196 -188h377
c-9 112 -77 188 -181 188z" />
    <glyph glyph-name="uni0451" unicode="&#x451;" horiz-adv-x="536" 
d="M202 600c-19 0 -34 15 -34 33c0 20 15 33 34 33s33 -14 33 -33s-14 -33 -33 -33zM356 600c-20 0 -34 15 -34 33c0 20 14 33 34 33c19 0 33 -14 33 -33s-14 -33 -33 -33zM493 256c0 -7 0 -16 -1 -18h-411c2 -122 85 -209 199 -209c75 0 131 30 168 78l25 -20
c-42 -56 -105 -91 -192 -91c-137 0 -234 104 -234 246s100 247 232 247c127 0 214 -100 214 -233zM278 457c-103 0 -185 -78 -196 -188h377c-9 112 -77 188 -181 188z" />
    <glyph glyph-name="uni0436" unicode="&#x436;" horiz-adv-x="763" 
d="M29 0l196 276l-194 209h44l286 -306h1v306h34v-307h1l279 307h43l-189 -208l204 -277h-42l-186 255l-110 -120v-135h-34v136l-113 118l-181 -254h-39z" />
    <glyph glyph-name="uni0437" unicode="&#x437;" horiz-adv-x="488" 
d="M240 -4c-101 0 -159 30 -198 55l10 32c39 -26 98 -55 188 -55c106 0 165 44 165 108c0 62 -50 99 -140 99h-116v31h113c73 0 119 34 119 94c0 62 -55 97 -140 97c-77 0 -127 -20 -165 -43l-14 29c39 24 95 46 180 46c105 0 174 -48 174 -124c0 -56 -33 -96 -82 -111v-1
c53 -10 106 -47 106 -118c0 -80 -65 -139 -200 -139z" />
    <glyph glyph-name="uni0438" unicode="&#x438;" horiz-adv-x="577" 
d="M80 0v485h34v-433h2l349 433h32v-485h-33v430h-2l-349 -430h-33z" />
    <glyph glyph-name="uni0439" unicode="&#x439;" horiz-adv-x="577" 
d="M291 559c-75 0 -133 43 -142 127l32 5c6 -57 40 -105 110 -105s104 48 109 105l32 -5c-9 -84 -67 -127 -141 -127zM80 0v485h34v-433h2l349 433h32v-485h-33v430h-2l-349 -430h-33z" />
    <glyph glyph-name="uni045D" unicode="&#x45d;" horiz-adv-x="577" 
d="M303 564l-115 129h42l113 -129h-40zM80 0v485h34v-433h2l349 433h32v-485h-33v430h-2l-349 -430h-33z" />
    <glyph glyph-name="uni048B" unicode="&#x48b;" horiz-adv-x="583" 
d="M291 559c-75 0 -133 43 -142 127l32 5c6 -57 40 -105 110 -105s104 48 109 105l32 -5c-9 -84 -67 -127 -141 -127zM497 32h43v-7l-58 -166h-26l46 141h-38v430h-2l-349 -430h-33v485h34v-433h2l349 433h32v-453z" />
    <glyph glyph-name="uni043A" unicode="&#x43a;" horiz-adv-x="516" 
d="M80 0v485h34v-319l2 -1l314 320h46l-205 -210l215 -275h-43l-198 252l-131 -133v-119h-34z" />
    <glyph glyph-name="uni045C" unicode="&#x45c;" horiz-adv-x="516" 
d="M189 560l122 136h43l-124 -136h-41zM80 0v485h34v-319l2 -1l314 320h46l-205 -210l215 -275h-43l-198 252l-131 -133v-119h-34z" />
    <glyph glyph-name="uni043B" unicode="&#x43b;" horiz-adv-x="545" 
d="M165 485h300v-485h-33v453h-234c-4 -91 -9 -187 -18 -261c-18 -157 -73 -194 -135 -194c-13 0 -21 2 -26 4l3 32c6 -2 13 -3 21 -3c49 0 91 44 105 168c8 79 13 186 17 286z" />
    <glyph glyph-name="uni043C" unicode="&#x43c;" horiz-adv-x="659" 
d="M80 0v485h33l215 -356h2l216 356h33v-485h-33v421h-1l-202 -330h-28l-201 330h-1v-421h-33z" />
    <glyph glyph-name="uni043D" unicode="&#x43d;" horiz-adv-x="567" 
d="M80 0v485h34v-234h339v234h34v-485h-34v220h-339v-220h-34z" />
    <glyph glyph-name="uni043E" unicode="&#x43e;" horiz-adv-x="582" 
d="M291 -4c-146 0 -244 111 -244 246s98 247 244 247c135 0 244 -100 244 -247c0 -146 -109 -246 -244 -246zM291 29c117 0 209 86 209 213c0 128 -93 215 -209 215c-126 0 -210 -98 -210 -215s84 -213 210 -213z" />
    <glyph glyph-name="uni043F" unicode="&#x43f;" horiz-adv-x="559" 
d="M80 0v485h399v-485h-34v453h-331v-453h-34z" />
    <glyph glyph-name="uni0440" unicode="&#x440;" horiz-adv-x="603" 
d="M80 -198v683h34v-127h1c37 81 112 131 202 131c142 0 238 -112 238 -251c0 -145 -106 -242 -238 -242c-94 0 -167 51 -202 126h-1v-320h-34zM315 29c123 0 205 93 205 209c0 131 -92 219 -206 219c-121 0 -201 -99 -201 -219c0 -126 90 -209 202 -209z" />
    <glyph glyph-name="uni0441" unicode="&#x441;" horiz-adv-x="503" 
d="M280 -4c-139 0 -233 101 -233 246c0 144 95 247 234 247c68 0 137 -27 184 -79l-25 -23c-34 41 -91 70 -158 70c-120 0 -201 -90 -201 -215c0 -126 81 -213 200 -213c63 0 125 25 162 68l23 -24c-41 -44 -108 -77 -186 -77z" />
    <glyph glyph-name="uni0442" unicode="&#x442;" horiz-adv-x="434" 
d="M200 0v453h-180v32h394v-32h-180v-453h-34z" />
    <glyph glyph-name="uni0443" unicode="&#x443;" horiz-adv-x="510" 
d="M158 -198l86 206l-218 477h39l196 -435h1l182 435h38l-287 -683h-37z" />
    <glyph glyph-name="uni045E" unicode="&#x45e;" horiz-adv-x="510" 
d="M257 559c-75 0 -133 43 -142 127l32 5c6 -57 40 -105 110 -105s104 48 109 105l32 -5c-9 -84 -67 -127 -141 -127zM158 -198l86 206l-218 477h39l196 -435h1l182 435h38l-287 -683h-37z" />
    <glyph glyph-name="uni0444" unicode="&#x444;" horiz-adv-x="671" 
d="M632 242c0 -144 -109 -246 -280 -246v-194h-33v194c-172 0 -280 101 -280 246c0 143 104 247 280 247v247h33v-247c176 0 280 -103 280 -247zM74 242c0 -127 93 -213 245 -214v430c-157 -2 -245 -92 -245 -216zM352 28c152 1 245 88 245 214c0 125 -89 215 -245 216v-430
z" />
    <glyph glyph-name="uni0445" unicode="&#x445;" horiz-adv-x="474" 
d="M32 0l184 243l-185 242h43l162 -215h2l163 215h43l-185 -241l185 -244h-42l-164 213h-1l-163 -213h-42z" />
    <glyph glyph-name="uni0447" unicode="&#x447;" horiz-adv-x="518" 
d="M405 485h33v-485h-33v202c-62 -26 -126 -37 -175 -37c-128 0 -180 54 -180 193v127h34v-121c0 -132 45 -167 150 -167c48 0 110 9 171 36v252z" />
    <glyph glyph-name="uni0446" unicode="&#x446;" horiz-adv-x="575" 
d="M545 32v-173h-29l-2 141h-434v485h34v-453h318v453h34v-453h79z" />
    <glyph glyph-name="uni0448" unicode="&#x448;" horiz-adv-x="809" 
d="M80 0v485h33v-453h275v453h33v-453h275v453h34v-485h-650z" />
    <glyph glyph-name="uni0449" unicode="&#x449;" horiz-adv-x="838" 
d="M809 32v-173h-28l-2 141h-699v485h33v-453h275v453h33v-453h275v453h34v-453h79z" />
    <glyph glyph-name="uni045F" unicode="&#x45f;" horiz-adv-x="547" 
d="M467 485v-485h-176l-2 -141h-29l-1 141h-179v485h34v-453h319v453h34z" />
    <glyph glyph-name="uni044C" unicode="&#x44c;" horiz-adv-x="477" 
d="M80 0v485h34v-182h164c115 0 166 -56 166 -151s-55 -152 -176 -152h-188zM114 31h154c98 0 142 44 142 120c0 79 -43 121 -133 121h-163v-241z" />
    <glyph glyph-name="uni044A" unicode="&#x44a;" horiz-adv-x="571" 
d="M372 303c115 0 166 -56 166 -151s-55 -152 -176 -152h-188v453h-159v32h193v-182h164zM362 31c98 0 142 44 142 120c0 79 -43 121 -133 121h-163v-241h154z" />
    <glyph glyph-name="uni044B" unicode="&#x44b;" horiz-adv-x="657" 
d="M80 0v485h34v-181h156c114 0 166 -56 166 -152c0 -95 -56 -152 -176 -152h-180zM543 0v485h34v-485h-34zM114 31h146c98 0 141 44 141 120c0 80 -42 122 -132 122h-155v-242z" />
    <glyph glyph-name="uni0459" unicode="&#x459;" horiz-adv-x="822" 
d="M624 303c115 0 166 -56 166 -151s-55 -152 -176 -152h-188v453h-229c-4 -91 -9 -187 -18 -261c-17 -157 -73 -194 -135 -194c-13 0 -20 2 -25 4l3 32c6 -2 13 -3 21 -3c48 0 92 44 104 168c8 79 14 186 18 286h295v-182h164zM614 31c98 0 142 44 142 120
c0 79 -43 121 -133 121h-163v-241h154z" />
    <glyph glyph-name="uni045A" unicode="&#x45a;" horiz-adv-x="854" 
d="M668 284c107 0 154 -53 154 -142s-52 -142 -165 -142h-214v246h-330v-246h-33v485h33v-207h330v207h33v-201h192zM657 31c91 0 131 41 131 110c0 72 -40 112 -123 112h-189v-222h181z" />
    <glyph glyph-name="uni0455" unicode="&#x455;" horiz-adv-x="419" 
d="M213 -4c-82 0 -139 32 -179 68l18 26c38 -33 82 -62 161 -62c83 0 131 45 131 96c0 69 -63 82 -146 112c-78 28 -142 55 -142 134c0 68 63 119 144 119c54 0 107 -14 159 -58l-20 -26c-47 41 -92 51 -139 51c-61 0 -109 -38 -109 -84c0 -60 54 -81 115 -104
c102 -36 174 -54 173 -145c-1 -68 -58 -127 -166 -127z" />
    <glyph glyph-name="uni0454" unicode="&#x454;" horiz-adv-x="515" 
d="M457 90l21 -23c-40 -44 -103 -71 -190 -71c-154 0 -241 109 -241 246c0 146 101 247 241 247c67 0 131 -21 174 -57l-22 -24c-38 31 -91 49 -150 49c-116 0 -201 -78 -208 -197h307v-31h-308c6 -114 81 -200 208 -200c77 0 130 21 168 61z" />
    <glyph glyph-name="uni044D" unicode="&#x44d;" horiz-adv-x="518" 
d="M230 489c140 0 242 -100 242 -247c0 -138 -88 -246 -242 -246c-86 0 -150 27 -189 61l18 26c38 -31 92 -55 173 -55c125 1 200 86 206 201h-308v31h307c-7 119 -92 197 -208 197c-62 0 -118 -20 -157 -43l-14 29c39 24 103 46 172 46z" />
    <glyph glyph-name="uni0456" unicode="&#x456;" horiz-adv-x="205" 
d="M104 599c-19 0 -34 15 -34 34c0 20 15 33 34 33c20 0 34 -13 34 -33c0 -19 -14 -34 -34 -34zM85 0v485h34v-485h-34z" />
    <glyph glyph-name="uni0457" unicode="&#x457;" horiz-adv-x="205" 
d="M25 600c-19 0 -34 15 -34 33c0 20 15 33 34 33s33 -14 33 -33s-14 -33 -33 -33zM179 600c-20 0 -34 15 -34 33c0 20 14 33 34 33c19 0 33 -14 33 -33s-14 -33 -33 -33zM85 0v485h34v-485h-34z" />
    <glyph glyph-name="uni0458" unicode="&#x458;" horiz-adv-x="185" 
d="M99 599c-19 0 -34 15 -34 34c0 20 15 33 34 33c20 0 34 -13 34 -33c0 -19 -14 -34 -34 -34zM9 -202c-18 0 -45 4 -67 15l5 33c20 -11 44 -15 61 -15c43 0 73 24 73 91v563h34v-563c0 -67 -26 -124 -106 -124z" />
    <glyph glyph-name="uni045B" unicode="&#x45b;" horiz-adv-x="546" 
d="M317 456c100 0 166 -69 166 -197v-259h-34v246c0 130 -62 178 -137 178c-122 0 -199 -86 -199 -217v-207h-34v570h-76v31h76v135h34v-135h220v-31h-220v-239h1c34 78 107 125 203 125z" />
    <glyph glyph-name="uni044E" unicode="&#x44e;" horiz-adv-x="770" 
d="M486 489c128 0 238 -100 238 -247c0 -146 -110 -246 -238 -246c-140 0 -229 99 -238 224h-135v-220h-33v485h33v-234h134c4 131 94 238 239 238zM486 29c110 0 203 86 203 213c0 128 -94 215 -203 215c-129 0 -205 -97 -205 -215c0 -117 76 -213 205 -213z" />
    <glyph glyph-name="uni044F" unicode="&#x44f;" horiz-adv-x="524" 
d="M232 485h212v-485h-33v189h-189h-2l-137 -189h-39l140 191c-85 12 -127 65 -127 142c0 95 57 152 175 152zM411 221v232h-179c-98 0 -141 -44 -141 -120c0 -69 42 -112 132 -112h188z" />
    <glyph glyph-name="uni0452" unicode="&#x452;" horiz-adv-x="546" 
d="M317 456c100 0 166 -69 166 -197v-298c0 -108 -34 -163 -141 -163c-23 0 -46 5 -67 14l4 31c20 -10 41 -13 61 -13c73 0 109 24 109 130v286c0 130 -62 178 -137 178c-122 0 -199 -86 -199 -217v-207h-34v570h-76v31h76v135h34v-135h220v-31h-220v-239h1
c34 78 107 125 203 125z" />
    <glyph glyph-name="uni0463" unicode="&#x463;" horiz-adv-x="560" 
d="M363 301c113 0 164 -56 164 -151c0 -93 -55 -150 -175 -150h-191v453h-159v32h159v251h33v-251h192v-32h-192v-152h169zM352 31c98 0 140 44 140 119c0 78 -42 119 -131 119h-167v-238h158z" />
    <glyph glyph-name="uni0473" unicode="&#x473;" horiz-adv-x="582" 
d="M291 489c136 0 244 -100 244 -247c0 -146 -108 -246 -244 -246c-146 0 -244 111 -244 246s98 247 244 247zM291 457c-122 0 -203 -89 -210 -201h420c-7 120 -97 201 -210 201zM291 28c112 0 202 80 209 198h-418c7 -111 88 -198 209 -198z" />
    <glyph glyph-name="uni0475" unicode="&#x475;" horiz-adv-x="538" 
d="M234 0l-206 485h38l184 -437h1l133 345c24 63 42 94 90 94c22 0 47 -6 66 -18l-8 -31c-15 8 -33 16 -50 16c-33 0 -45 -21 -66 -74l-149 -380h-33z" />
    <glyph glyph-name="uni0493" unicode="&#x493;" horiz-adv-x="441" 
d="M413 453h-299v-201h220v-29h-220v-223h-34v223h-76v29h76v233h333v-32z" />
    <glyph glyph-name="uni0495" unicode="&#x495;" horiz-adv-x="510" 
d="M268 250c131 0 225 -73 225 -221c0 -149 -102 -231 -234 -231c-30 0 -52 3 -77 9l3 31c28 -6 46 -8 73 -8c120 0 200 77 200 198c0 123 -72 191 -192 191c-70 0 -112 -13 -152 -26v-193h-34v485h333v-32h-299v-229c40 13 84 26 154 26z" />
    <glyph glyph-name="uni0497" unicode="&#x497;" horiz-adv-x="776" 
d="M745 32v-173h-28l-2 141h-23l-186 255l-110 -120v-135h-34v136l-113 118l-181 -254h-39l196 276l-194 209h44l286 -306h1v306h34v-307h1l279 307h43l-189 -208l180 -245h35z" />
    <glyph glyph-name="uni0499" unicode="&#x499;" horiz-adv-x="488" 
d="M440 135c0 -76 -59 -134 -182 -139l-9 -38c41 -5 85 -22 85 -70c0 -46 -37 -69 -83 -71c-25 -1 -48 1 -72 10v30c17 -8 36 -12 61 -12c42 0 64 16 63 47s-39 45 -89 46l15 58c-94 2 -149 31 -187 55l10 32c39 -26 98 -55 188 -55c106 0 165 44 165 108
c0 62 -50 99 -140 99h-116v31h113c73 0 119 34 119 94c0 62 -55 97 -140 97c-77 0 -127 -20 -165 -43l-14 29c39 24 95 46 180 46c105 0 174 -48 174 -124c0 -56 -33 -96 -82 -111v-1c53 -10 106 -47 106 -118z" />
    <glyph glyph-name="uni049B" unicode="&#x49b;" horiz-adv-x="529" 
d="M497 32v-173h-28l-2 141h-24l-198 252l-131 -133v-119h-34v485h34v-319l2 -1l314 320h46l-205 -210l190 -243h36z" />
    <glyph glyph-name="uni049D" unicode="&#x49d;" horiz-adv-x="531" 
d="M460 0l-167 227h-44v-141h-29v141l-106 1v-228h-34v485h34v-228h106v138h29v-138h43l155 228h40l-165 -240l179 -245h-41z" />
    <glyph glyph-name="uni049F" unicode="&#x49f;" horiz-adv-x="516" 
d="M271 275l215 -275h-43l-198 252l-131 -133v-119h-34v596h-76v29h76v111h34v-111h209v-29h-209v-430l2 -1l314 320h46z" />
    <glyph glyph-name="uni04A1" unicode="&#x4a1;" horiz-adv-x="608" 
d="M363 275l215 -275h-43l-198 252l-131 -133v-119h-34v453h-162v32h196v-319l2 -1l314 320h46z" />
    <glyph glyph-name="uni04A3" unicode="&#x4a3;" horiz-adv-x="596" 
d="M566 32v-173h-28l-2 141h-83v220h-339v-220h-34v485h34v-234h339v234h34v-453h79z" />
    <glyph glyph-name="uni04A5" unicode="&#x4a5;" horiz-adv-x="666" 
d="M642 485v-32h-163v-453h-34v220h-331v-220h-34v485h34v-234h331v234h197z" />
    <glyph glyph-name="uni04A7" unicode="&#x4a7;" horiz-adv-x="870" 
d="M853 29c1 -149 -102 -231 -233 -231c-30 0 -52 3 -77 9l3 31c27 -6 46 -8 72 -8c120 0 201 77 201 198c0 123 -72 191 -193 191c-71 0 -112 -13 -152 -26v-193h-33v453h-327v-453h-34v485h394v-261c40 13 83 26 155 26c130 0 224 -73 224 -221z" />
    <glyph glyph-name="uni0525" unicode="&#x525;" horiz-adv-x="588" 
d="M558 32v-173h-28l-2 141h-83v453h-331v-453h-34v485h399v-453h79z" />
    <glyph glyph-name="uni04A9" unicode="&#x4a9;" horiz-adv-x="596" 
d="M583 3c-11 -4 -40 -8 -62 -8c-40 0 -75 12 -105 31c-35 -19 -79 -31 -126 -31c-153 0 -255 110 -256 249s94 245 225 245c7 0 28 -1 42 -3l-11 -31c-8 1 -20 2 -31 2c-112 -1 -191 -94 -190 -213c1 -126 94 -218 224 -218c32 0 62 6 90 17v3c-67 47 -111 126 -111 214
c0 100 57 187 144 187c83 0 139 -83 139 -190c0 -87 -45 -167 -108 -212l1 -4c22 -10 43 -15 70 -15c19 0 45 3 57 8zM307 261c0 -85 46 -162 110 -202c59 41 102 113 102 200s-45 156 -103 156c-62 0 -109 -69 -109 -154z" />
    <glyph glyph-name="uni04AB" unicode="&#x4ab;" horiz-adv-x="503" 
d="M466 73c-40 -43 -105 -75 -180 -77l-9 -38c41 -5 85 -22 85 -70c0 -46 -37 -69 -83 -71c-25 -1 -48 1 -72 10v30c17 -8 36 -12 61 -12c42 0 64 16 63 47s-39 45 -89 46l15 59c-126 10 -210 108 -210 245c0 144 95 247 234 247c68 0 137 -27 184 -79l-25 -23
c-34 41 -91 70 -158 70c-120 0 -201 -90 -201 -215c0 -126 81 -213 200 -213c63 0 125 25 162 68z" />
    <glyph glyph-name="uni04AD" unicode="&#x4ad;" horiz-adv-x="434" 
d="M414 453h-180v-421h79v-173h-29l-2 141h-82v453h-180v32h394v-32z" />
    <glyph glyph-name="uni04AF" unicode="&#x4af;" horiz-adv-x="499" 
d="M433 485h37l-203 -496v-187h-33v187l-206 496h38l184 -449h1z" />
    <glyph glyph-name="uni04B1" unicode="&#x4b1;" horiz-adv-x="499" 
d="M470 485l-188 -456h126v-29h-137l-4 -9v-189h-33v189l-4 9h-139v29h127l-190 456h38l184 -449h1l182 449h37z" />
    <glyph glyph-name="uni04B3" unicode="&#x4b3;" horiz-adv-x="487" 
d="M456 32v-173h-28l-2 141h-24l-164 213h-1l-163 -213h-42l184 243l-185 242h43l162 -215h2l163 215h43l-185 -241l161 -212h36z" />
    <glyph glyph-name="uni04B5" unicode="&#x4b5;" horiz-adv-x="686" 
d="M657 32v-173h-29l-2 141h-434v453h-180v32h390v-32h-177v-421h319v453h33v-453h80z" />
    </font>
</defs>
</svg>
