<svg xmlns="http://www.w3.org/2000/svg" width="13" height="18.904" viewBox="0 0 13 18.904">
  <g id="Group_9836" data-name="Group 9836" transform="translate(-1387.5 -126.297)">
    <ellipse id="Ellipse_1" data-name="Ellipse 1" cx="1" cy="1.053" rx="1" ry="1.053" transform="translate(1388 126.797)" fill="none" stroke="#000" stroke-linecap="round" stroke-width="1"/>
    <ellipse id="Ellipse_2" data-name="Ellipse 2" cx="1" cy="1.053" rx="1" ry="1.053" transform="translate(1393 126.797)" fill="none" stroke="#000" stroke-linecap="round" stroke-width="1"/>
    <ellipse id="Ellipse_3" data-name="Ellipse 3" cx="1" cy="1.053" rx="1" ry="1.053" transform="translate(1398 126.797)" fill="none" stroke="#000" stroke-linecap="round" stroke-width="1"/>
    <ellipse id="Ellipse_4" data-name="Ellipse 4" cx="1" cy="1.053" rx="1" ry="1.053" transform="translate(1388 132.063)" fill="none" stroke="#000" stroke-linecap="round" stroke-width="1"/>
    <ellipse id="Ellipse_5" data-name="Ellipse 5" cx="1" cy="1.053" rx="1" ry="1.053" transform="translate(1393 132.063)" fill="none" stroke="#000" stroke-linecap="round" stroke-width="1"/>
    <ellipse id="Ellipse_6" data-name="Ellipse 6" cx="1" cy="1.053" rx="1" ry="1.053" transform="translate(1398 132.063)" fill="none" stroke="#000" stroke-linecap="round" stroke-width="1"/>
    <ellipse id="Ellipse_7" data-name="Ellipse 7" cx="1" cy="1.053" rx="1" ry="1.053" transform="translate(1388 137.328)" fill="none" stroke="#000" stroke-linecap="round" stroke-width="1"/>
    <ellipse id="Ellipse_8" data-name="Ellipse 8" cx="1" cy="1.053" rx="1" ry="1.053" transform="translate(1393 137.328)" fill="none" stroke="#000" stroke-linecap="round" stroke-width="1"/>
    <ellipse id="Ellipse_9" data-name="Ellipse 9" cx="1" cy="1.053" rx="1" ry="1.053" transform="translate(1393 142.594)" fill="none" stroke="#000" stroke-linecap="round" stroke-width="1"/>
    <ellipse id="Ellipse_10" data-name="Ellipse 10" cx="1" cy="1.053" rx="1" ry="1.053" transform="translate(1398 137.328)" fill="none" stroke="#000" stroke-linecap="round" stroke-width="1"/>
  </g>
</svg>
