<svg xmlns="http://www.w3.org/2000/svg" width="27.198" height="25.802" viewBox="0 0 27.198 25.802">
  <g id="Group_9848" data-name="Group 9848" transform="translate(-1051.072 -524.25)">
    <path id="Path_31082" data-name="Path 31082" d="M168.936,208.238c0,4.7-3.953,11.787-9.566,11.787s-8.37-1.847-8.37-6.548S153.757,203,159.37,203,168.936,203.537,168.936,208.238Z" transform="translate(909.333 330.027)" fill="#d8d8d8"/>
    <g id="Group_9847" data-name="Group 9847" transform="translate(1048.822 520.5)">
      <path id="Path_31086" data-name="Path 31086" d="M25.1,4.5H3.961A.981.981,0,0,0,3,5.5v18a.981.981,0,0,0,.961,1H25.1a.981.981,0,0,0,.961-1V5.5A.981.981,0,0,0,25.1,4.5Z" transform="translate(0)" fill="none" stroke="#000" stroke-linecap="round" stroke-linejoin="round" stroke-width="1.5"/>
      <path id="Path_31087" data-name="Path 31087" d="M3,7.5H26.057" transform="translate(0)" fill="none" stroke="#000" stroke-linecap="round" stroke-linejoin="round" stroke-width="1.5"/>
      <path id="Path_31088" data-name="Path 31088" d="M15.75,10.5a3.75,3.75,0,1,1-7.5,0" transform="translate(2.529 2.667)" fill="none" stroke="#000" stroke-linecap="round" stroke-linejoin="round" stroke-width="1.5"/>
    </g>
  </g>
</svg>
