<svg xmlns="http://www.w3.org/2000/svg" width="22.77" height="21" viewBox="0 0 22.77 21">
  <g id="Group_9845" data-name="Group 9845" transform="translate(-385.5 -524.5)">
    <path id="Path_31083" data-name="Path 31083" d="M168.936,208.238c0,4.7-3.953,11.787-9.566,11.787s-8.37-1.847-8.37-6.548S153.757,203,159.37,203,168.936,203.537,168.936,208.238Z" transform="translate(239.333 324.975)" fill="#d8d8d8"/>
    <g id="Group_5598" data-name="Group 5598" transform="translate(-1117.324 666.948)">
      <path id="Path_13186" data-name="Path 13186" d="M478.5,428.5A21.923,21.923,0,0,0,483,426c1-1-2-1-2-6s4-5,4-5,4,0,4,5-3,5-2,6a21.923,21.923,0,0,0,4.5,2.5" transform="translate(1028.324 -552.948)" fill="none" stroke="#000" stroke-linecap="round" stroke-width="1"/>
      <path id="Path_13187" data-name="Path 13187" d="M485,431a10,10,0,1,0-10-10A10,10,0,0,0,485,431Z" transform="translate(1028.324 -552.948)" fill="none" stroke="#000" stroke-width="1" fill-rule="evenodd"/>
    </g>
  </g>
</svg>
