<svg xmlns="http://www.w3.org/2000/svg" width="21.27" height="17.9" viewBox="0 0 21.27 17.9">
  <g id="Group_9846" data-name="Group 9846" transform="translate(-726 -525)">
    <path id="Path_31084" data-name="Path 31084" d="M168.936,208.238c0,4.7-3.953,11.787-9.566,11.787s-8.37-1.847-8.37-6.548S153.757,203,159.37,203,168.936,203.537,168.936,208.238Z" transform="translate(578.333 322.875)" fill="#d8d8d8"/>
    <g id="Group_9841" data-name="Group 9841">
      <g id="Group_5602" data-name="Group 5602" transform="translate(48.676 622.9)">
        <path id="Path_13188" data-name="Path 13188" d="M827.807,428.631l-7.034-7.438a5.465,5.465,0,0,0-1.159-5.64,4.9,4.9,0,0,0-5.72-1.062l3.324,3.514-2.319,2.452-3.4-3.514a5.493,5.493,0,0,0,1.005,6.048,4.768,4.768,0,0,0,5.333,1.226l7.034,7.438a.719.719,0,0,0,1.082,0l1.778-1.88A.763.763,0,0,0,827.807,428.631Z" transform="translate(-133.676 -511.9)"/>
      </g>
    </g>
  </g>
</svg>
