<svg xmlns="http://www.w3.org/2000/svg" width="20.27" height="22.473" viewBox="0 0 20.27 22.473">
  <g id="Group_9843" data-name="Group 9843" transform="translate(-724 -314.027)">
    <path id="Path_31081" data-name="Path 31081" d="M168.936,208.238c0,4.7-3.953,11.787-9.566,11.787s-8.37-1.847-8.37-6.548S153.757,203,159.37,203,168.936,203.537,168.936,208.238Z" transform="translate(575.333 111.027)" fill="#d8d8d8"/>
    <g id="Group_9838" data-name="Group 9838">
      <g id="Group_5591" data-name="Group 5591" transform="translate(721.75 314.75)">
        <path id="Path_13192" data-name="Path 13192" d="M5,3.75A1.25,1.25,0,0,0,3.75,5V19A1.25,1.25,0,0,0,5,20.25H19A1.25,1.25,0,0,0,20.25,19V5A1.25,1.25,0,0,0,19,3.75ZM2.25,5A2.75,2.75,0,0,1,5,2.25H19A2.75,2.75,0,0,1,21.75,5V19A2.75,2.75,0,0,1,19,21.75H5A2.75,2.75,0,0,1,2.25,19Z" fill="#272b2e" fill-rule="evenodd"/>
        <path id="Path_13193" data-name="Path 13193" d="M9,2.25A.75.75,0,0,1,9.75,3V21a.75.75,0,0,1-1.5,0V3A.75.75,0,0,1,9,2.25Z" fill="#272b2e" fill-rule="evenodd"/>
      </g>
    </g>
  </g>
</svg>
