<svg xmlns="http://www.w3.org/2000/svg" width="24.261" height="22.228" viewBox="0 0 24.261 22.228">
  <g id="filter" transform="translate(-4.066 -5.082)">
    <path id="Path_34576" data-name="Path 34576" d="M87.579,82.367H73.125a2.981,2.981,0,0,0-5.653,0H65.216a.949.949,0,1,0,0,1.9h2.256a2.981,2.981,0,0,0,5.653,0H87.579a.949.949,0,1,0,0-1.9ZM70.3,84.4a1.084,1.084,0,1,1,1.084-1.084A1.085,1.085,0,0,1,70.3,84.4Z" transform="translate(-60.201 -75.252)" fill="#222f6e"/>
    <path id="Path_34577" data-name="Path 34577" d="M87.579,210.9H85.322a2.981,2.981,0,0,0-5.652,0H65.216a.949.949,0,1,0,0,1.9H79.67a2.981,2.981,0,0,0,5.652,0h2.256a.949.949,0,1,0,0-1.9ZM82.5,212.933a1.084,1.084,0,1,1,1.084-1.084A1.085,1.085,0,0,1,82.5,212.933Z" transform="translate(-60.201 -195.653)" fill="#222f6e"/>
    <path id="Path_34578" data-name="Path 34578" d="M87.579,339.433H77.191a2.981,2.981,0,0,0-5.653,0H65.216a.949.949,0,1,0,0,1.9h6.322a2.981,2.981,0,0,0,5.653,0H87.579a.949.949,0,1,0,0-1.9Zm-13.214,2.033a1.084,1.084,0,1,1,1.084-1.084A1.085,1.085,0,0,1,74.364,341.466Z" transform="translate(-60.201 -316.054)" fill="#222f6e"/>
  </g>
</svg>
