<svg xmlns="http://www.w3.org/2000/svg" width="1375" height="261" viewBox="0 0 1375 261">
  <g id="Group_11120" data-name="Group 11120" transform="translate(-3381 -3079)">
    <g id="Group_11119" data-name="Group 11119" transform="translate(90.39 -10.337)">
      <path id="Path_56427" data-name="Path 56427" d="M5401.718,913.137c-11.7-5.13-15.825,5.071-9.716,14.48s24.512,8.3,24.512,8.3,8.494-16.361,2.384-25.769S5401.793,900.357,5401.718,913.137Z" transform="translate(-2042.581 2413.994)" fill="#ee5476"/>
      <path id="Path_56428" data-name="Path 56428" d="M6631.016,825.934c-4.4-19.438-21.014-15.167-27.166,1.21s12.267,38.448,12.267,38.448,28.4-4.484,34.549-20.86S6647.124,814.2,6631.016,825.934Z" transform="translate(-2042.581 2413.994)" fill="#ee5476"/>
      <path id="Path_56429" data-name="Path 56429" d="M5461.1,778.361c-8.368-5.455-12.852,1.883-9.346,9.92s17.836,9.543,17.836,9.543,8.645-11.527,5.14-19.564S5462.8,768.517,5461.1,778.361Z" transform="translate(-2042.581 2413.994)" fill="#ee5476"/>
      <path id="Path_56430" data-name="Path 56430" d="M5999.488,680.638c-6.777-7.338-12.922-1.322-11.492,7.329s14.955,13.621,14.955,13.621,11.206-9.059,9.776-17.71S6003.542,671.509,5999.488,680.638Z" transform="translate(-2042.581 2413.994)" fill="#fbcc83"/>
    </g>
    <rect id="Rectangle_4339" data-name="Rectangle 4339" width="1375" height="261" transform="translate(3381 3079)" fill="none"/>
  </g>
</svg>
