<svg xmlns="http://www.w3.org/2000/svg" width="769" height="440" viewBox="0 0 769 440">
  <g id="Group_11150" data-name="Group 11150" transform="translate(3951 -12554)">
    <g id="Group_11148" data-name="Group 11148" transform="translate(-4289.528 11709.001)">
      <path id="Path_56449" data-name="Path 56449" d="M415.056,1167.259c-11.706-5.13-15.826,5.071-9.716,14.479s24.511,8.3,24.511,8.3,8.495-16.361,2.385-25.769S415.131,1154.479,415.056,1167.259Z" fill="#ee5476"/>
      <path id="Path_56450" data-name="Path 56450" d="M1024.742,1179.211c1.515-19.872-15.622-20.677-26.32-6.835s.415,40.355.415,40.355,28.459,4.068,39.156-9.774S1043.589,1172.733,1024.742,1179.211Z" fill="#ee5476"/>
      <path id="Path_56451" data-name="Path 56451" d="M416.528,961.108c-8.368-5.455-12.852,1.883-9.346,9.92s17.835,9.543,17.835,9.543,8.646-11.527,5.14-19.565S418.223,951.264,416.528,961.108Z" fill="#ee5476"/>
      <path id="Path_56452" data-name="Path 56452" d="M1007.834,922.439c-2.249-9.732-10.567-7.553-13.613.67s6.238,19.242,6.238,19.242,14.222-2.313,17.268-10.536S1015.881,916.52,1007.834,922.439Z" fill="#fbcc83"/>
    </g>
    <rect id="Rectangle_4349" data-name="Rectangle 4349" width="769" height="440" transform="translate(-3951 12554)" fill="none"/>
  </g>
</svg>
