<svg xmlns="http://www.w3.org/2000/svg" width="766" height="738" viewBox="0 0 766 738">
  <g id="Group_11149" data-name="Group 11149" transform="translate(4791 -12827)">
    <path id="Path_56453" data-name="Path 56453" d="M0,0H766V738H0Z" transform="translate(-4791 12827)" fill="none"/>
    <g id="Group_11137" data-name="Group 11137" transform="translate(-5127.261 11981.001)">
      <path id="Path_56444" data-name="Path 56444" d="M446.974,1233.356c-11.706-5.13-15.826,5.071-9.716,14.479s24.511,8.3,24.511,8.3,8.495-16.361,2.385-25.769S447.048,1220.576,446.974,1233.356Z" fill="#ee5476"/>
      <path id="Path_56445" data-name="Path 56445" d="M1030.4,1480.019c1.516-19.872-15.622-20.677-26.319-6.835s.415,40.355.415,40.355,28.458,4.068,39.156-9.774S1049.25,1473.541,1030.4,1480.019Z" fill="#ee5476"/>
      <path id="Path_56446" data-name="Path 56446" d="M399.808,968.5c-8.368-5.455-12.852,1.883-9.346,9.92s17.836,9.543,17.836,9.543,8.646-11.527,5.14-19.564S401.5,958.656,399.808,968.5Z" fill="#ee5476"/>
      <path id="Path_56447" data-name="Path 56447" d="M1007.834,922.439c-2.249-9.732-10.567-7.553-13.613.67s6.238,19.242,6.238,19.242,14.222-2.313,17.268-10.536S1015.881,916.52,1007.834,922.439Z" fill="#fbcc83"/>
    </g>
  </g>
</svg>
