<svg xmlns="http://www.w3.org/2000/svg" xmlns:xlink="http://www.w3.org/1999/xlink" width="967.9" height="374.23" viewBox="0 0 967.9 374.23">
  <defs>
    <filter id="Chia_sẻ_yêu_thương" x="284.782" y="293.475" width="359.5" height="43.5" filterUnits="userSpaceOnUse">
      <feOffset dx="1.5" dy="1.5" input="SourceAlpha"/>
      <feGaussianBlur result="blur"/>
      <feFlood flood-color="#000816"/>
      <feComposite operator="in" in2="blur"/>
      <feComposite in="SourceGraphic"/>
    </filter>
  </defs>
  <g id="Group_11117" data-name="Group 11117" transform="translate(-68.218 -5238.525)">
    <path id="Path_55648" data-name="Path 55648" d="M422.372,405.995" transform="translate(-187.581 4995.994)"/>
    <g id="Group_10873" data-name="Group 10873" transform="translate(-187.581 4995.994)">
      <path id="Path_55649" data-name="Path 55649" d="M726.131,279.721,615.383,379.083l110.748,99.384,110.755-99.384Z" fill="#d1b514"/>
      <g id="Group_10872" data-name="Group 10872">
        <path id="Path_55650" data-name="Path 55650" d="M785.144,291.667a46.724,46.724,0,0,0-53.1,39.33,46.725,46.725,0,0,0-92.43-13.769c-9.017,60.53,74.32,135.33,74.32,135.33S815.456,405.3,824.474,344.767A46.725,46.725,0,0,0,785.144,291.667Z" fill="#c0a826" opacity="0.65" style="mix-blend-mode: multiply;isolation: isolate"/>
        <path id="Path_55651" data-name="Path 55651" d="M788.006,288.491A46.724,46.724,0,0,0,733,325.106a46.724,46.724,0,1,0-91.621-18.392c-12.044,60,67.432,138.891,67.432,138.891S812.576,403.5,824.621,343.5A46.724,46.724,0,0,0,788.006,288.491Z" fill="#ff4436"/>
      </g>
      <path id="Path_55652" data-name="Path 55652" d="M615.383,379.083l110.752,93.1,110.752-93.1v149.84h-221.5Z" fill="#eac907"/>
      <path id="Path_55653" data-name="Path 55653" d="M696.827,447.546l-81.444,81.377h221.5l-81.242-81.548Z" fill="#fed802"/>
    </g>
    <g id="Group_10875" data-name="Group 10875" transform="translate(-187.581 4995.994)">
      <g id="Group_10874" data-name="Group 10874">
        <path id="Path_55654" data-name="Path 55654" d="M834.211,555.769h-1.788L820.1,467h1.614Z" fill="#05ccfc"/>
        <path id="Path_55655" data-name="Path 55655" d="M861.335,555.769h-1.789L844.58,467h1.614Z" fill="#05ccfc"/>
        <path id="Path_55656" data-name="Path 55656" d="M846.9,475.946H822.429l-.25-1.781H846.6Z" fill="#05ccfc"/>
        <path id="Path_55657" data-name="Path 55657" d="M849.1,488.878H824.241l-.257-1.837h24.8Z" fill="#05ccfc"/>
        <path id="Path_55658" data-name="Path 55658" d="M851.36,502.218H826.11l-.266-1.9h25.193Z" fill="#05ccfc"/>
        <path id="Path_55659" data-name="Path 55659" d="M853.695,515.986H828.04l-.274-1.957h25.6Z" fill="#05ccfc"/>
        <path id="Path_55660" data-name="Path 55660" d="M856.106,530.2H830.032l-.283-2.021h26.013Z" fill="#05ccfc"/>
        <path id="Path_55661" data-name="Path 55661" d="M858.6,544.893H832.091L831.8,542.8h26.444Z" fill="#05ccfc"/>
        <path id="Path_55662" data-name="Path 55662" d="M848.32,468.4H818.676l-.478-3.491h29.518Z" fill="#05ccfc"/>
      </g>
      <path id="Path_55663" data-name="Path 55663" d="M820.7,555.769h1.789L834.814,467H833.2Z" fill="#32d5fd"/>
      <path id="Path_55664" data-name="Path 55664" d="M793.578,555.769h1.788L810.332,467h-1.614Z" fill="#32d5fd"/>
      <path id="Path_55665" data-name="Path 55665" d="M808.008,475.946h24.476l.25-1.781H808.31Z" fill="#32d5fd"/>
      <path id="Path_55666" data-name="Path 55666" d="M805.815,488.878h24.857l.258-1.837h-24.8Z" fill="#32d5fd"/>
      <path id="Path_55667" data-name="Path 55667" d="M803.553,502.218H828.8l.266-1.9H803.874Z" fill="#32d5fd"/>
      <path id="Path_55668" data-name="Path 55668" d="M801.218,515.986h25.655l.274-1.957h-25.6Z" fill="#32d5fd"/>
      <path id="Path_55669" data-name="Path 55669" d="M798.807,530.2H824.88l.283-2.021H799.15Z" fill="#32d5fd"/>
      <path id="Path_55670" data-name="Path 55670" d="M796.316,544.893h26.505l.293-2.089H796.67Z" fill="#32d5fd"/>
      <path id="Path_55671" data-name="Path 55671" d="M806.593,468.4h29.644l.478-3.491H807.2Z" fill="#32d5fd"/>
    </g>
    <circle id="Ellipse_3264" data-name="Ellipse 3264" cx="5.474" cy="5.474" r="5.474" transform="translate(688.768 5488.771)" fill="#66d2b8"/>
    <g id="Group_10876" data-name="Group 10876" transform="translate(-187.581 4995.994)">
      <path id="Path_55672" data-name="Path 55672" d="M645.133,317.876a6.229,6.229,0,0,0-.388-3.335,3.141,3.141,0,0,0-3.085-1.681,176.057,176.057,0,0,1-10.9,18.83,20.172,20.172,0,0,0-2.515,4.541,5.233,5.233,0,0,0,.415,4.718c1.328,1.877,4.822,2.555,7.226,1.35,2.345-1.175,3.422-4.589,4.382-6.6A50.685,50.685,0,0,0,645.133,317.876Z" fill="#651ded"/>
      <path id="Path_55673" data-name="Path 55673" d="M609.725,412.134c1,.942.885-1.181,1.5-1.56a.927.927,0,0,1,1.131.107c.325.348.263.9.463,1.337.333.725,1.26.908,2.053,1a4.31,4.31,0,0,0,2.691-.269c-.232-.706-1.1-.925-1.677-1.4-1.029-.851-.694-2.176-1.254-3.207-.614-1.132-1.782-2.244-3.116-1.5-1.86,1.031-1.724,3.012-1.929,4.93a.87.87,0,0,0,.014.377A.462.462,0,0,0,609.725,412.134Z" fill="#4962f0"/>
      <path id="Path_55674" data-name="Path 55674" d="M613.749,408.443a9.445,9.445,0,0,0,1.773-3.408q3.225-8.611,6.112-17.345a15.858,15.858,0,0,0,1.057-4.951,14.973,14.973,0,0,0-1.344-5.394q-1.044-2.631-2.231-5.2c-.51-1.105-1.393-2.393-2.588-2.163-1.016.2-1.471,1.386-1.621,2.41a13.153,13.153,0,0,0-.027,3.6c.321,2.471,1.027,4.937.4,7.429a38.018,38.018,0,0,1-1.456,3.77c-2.007,5.464-.208,11.743-2.093,17.249a6.646,6.646,0,0,0-.623,2.781c.1.954.989,1.906,1.914,1.649A1.778,1.778,0,0,0,613.749,408.443Z" fill="#fdad71"/>
      <path id="Path_55675" data-name="Path 55675" d="M625.836,412.449c1.112.8.725-1.286,1.288-1.742a.928.928,0,0,1,1.135-.04c.368.3.378.862.632,1.266.425.675,1.368.738,2.165.726a4.315,4.315,0,0,0,2.634-.616c-.322-.67-1.215-.775-1.844-1.17-1.131-.711-.97-2.068-1.658-3.018-.756-1.043-2.058-1.994-3.285-1.089-1.711,1.264-1.319,3.211-1.275,5.139a.885.885,0,0,0,.063.372A.461.461,0,0,0,625.836,412.449Z" fill="#4962f0"/>
      <path id="Path_55676" data-name="Path 55676" d="M629.349,408.268a9.449,9.449,0,0,0,1.317-3.608q2.083-8.957,3.817-17.991a15.846,15.846,0,0,0,.406-5.046,14.944,14.944,0,0,0-2.03-5.175q-1.375-2.473-2.885-4.868c-.649-1.03-1.691-2.193-2.846-1.81-.983.326-1.279,1.565-1.3,2.6a13.175,13.175,0,0,0,.439,3.573c.638,2.409,1.657,4.762,1.362,7.314a37.94,37.94,0,0,1-.956,3.927c-1.283,5.677,1.314,11.671.157,17.374a6.658,6.658,0,0,0-.258,2.839c.224.932,1.228,1.761,2.111,1.388A1.781,1.781,0,0,0,629.349,408.268Z" fill="#fd994e"/>
      <path id="Path_55677" data-name="Path 55677" d="M612.513,360.76a17.81,17.81,0,0,0,.385,2.385c.5,2.383,1.525,5.149,1.539,7.584a29.123,29.123,0,0,1-2.4,10.436c-.113.28,5.867,1.764,6.411,1.852a28.578,28.578,0,0,0,6.94.258,32.246,32.246,0,0,0,7.173-1.526c1.261-.407,5.8-1.41,6.311-2.734.211-.547-.2-2.5-.207-3.177-.017-1.33-.068-2.659-.166-3.984a46.881,46.881,0,0,0-1.206-7.834c-1.2-4.835-3.6-11.806-8.435-13.609a12.19,12.19,0,0,0-5.012-.571c-4.792.294-8.75,2.043-10.675,7.059a9.368,9.368,0,0,0-.679,3.189Q612.488,360.425,612.513,360.76Z" fill="#4962f0"/>
      <path id="Path_55678" data-name="Path 55678" d="M621.546,333a10.332,10.332,0,0,0-4.307,2.827,9.858,9.858,0,0,0-1.948,2.793c-1.81,4.328,2.94,7.952,1.287,11.995a2.736,2.736,0,0,0-.339,1.177,1.719,1.719,0,0,0,.721,1.134c1.54,1.268,3.579,1.617,5.525,1.925a23.451,23.451,0,0,0,6.022.424c1.4-.143,4.05-.648,4.853-2.073,1.41-2.5.345-6.051,1.619-8.789a16.762,16.762,0,0,0,1.081-2.407,4.9,4.9,0,0,0-.866-4.327,9.686,9.686,0,0,0-2.388-1.946,34.058,34.058,0,0,0-3.823-2.318A10.085,10.085,0,0,0,621.546,333Z" fill="#7c3ff0"/>
      <path id="Path_55679" data-name="Path 55679" d="M623.392,332.777c-.772,2.714,2.12,5.172,4.648,6.242a1.72,1.72,0,0,0,1.493.1c.658-.377.621-1.334.418-2.064a18.263,18.263,0,0,1-.862-6.282,5.038,5.038,0,0,0-.585-2.989,2.976,2.976,0,0,0-2.321-1.328C622.52,326.287,625.109,326.736,623.392,332.777Z" fill="#fd994e"/>
      <path id="Path_55680" data-name="Path 55680" d="M631.168,328.311a3.479,3.479,0,0,1-.8,2.126,3.22,3.22,0,0,1-2.438.719,3.74,3.74,0,0,1-1.484-.306c-2.048-.985-3.2-4.345-3.4-6.437a3.8,3.8,0,0,1,.15-1.625,3.234,3.234,0,0,1,1.8-1.8,6.3,6.3,0,0,1,2.566-.426,4.033,4.033,0,0,1,1.886.381C631.415,322.01,631.374,326.451,631.168,328.311Z" fill="#fdad71"/>
      <path id="Path_55681" data-name="Path 55681" d="M626.318,324.522l.069-.286c.294-1.226,2.623-.592,3.621-1.2a2.873,2.873,0,0,0,.546-4.056,3.94,3.94,0,0,0-5.511-.829,6.316,6.316,0,0,0-5.721-5.026c-2.137-.107-4.36.891-6.358.126-1.057-.4-1.908-1.268-3-1.58a3.817,3.817,0,0,0-4.044,1.63,5.563,5.563,0,0,0-.614,4.479,7.206,7.206,0,0,0,10.959,4.193c1.451-.962,2.725-2.514,4.467-2.515a1.409,1.409,0,0,1,.829.221,1.485,1.485,0,0,1,.5,1.2,11,11,0,0,1-.375,2.25c-.158.826-.215,2.287.5,2.922a.717.717,0,0,0,1,.005,1.048,1.048,0,0,0,.157-.583c.044-.639.367-1.5.992-1.357.511.114.6.79.635,1.312s.366,1.195.87,1.052Z" fill="#094ab5"/>
      <path id="Path_55682" data-name="Path 55682" d="M643.439,304.464c-.008-.083-.019-.166-.032-.248a14.839,14.839,0,0,1-.676-2.673.254.254,0,0,1,.039-.154c.075-.093.224-.047.325.017a2.76,2.76,0,0,1,1.108,1.615c.077.3.059.659.308.874a1.733,1.733,0,0,0,.284-.817q.16-.972.4-1.932c.108-.441.182-1.389.521-1.713a.234.234,0,0,1,.307-.029.3.3,0,0,1,.077.178,3.04,3.04,0,0,1-.045.955c-.107.715-.18,1.433-.251,2.153a3.022,3.022,0,0,0-.1.772c.136.248.31-.025.367-.241a14.763,14.763,0,0,1,1.4-3.442c.093-.165.276-.354.437-.255.2.122-.285,1.925-.345,2.161-.169.662-.325,1.336-.448,2.011-.031.168.008.414.179.4.09,0,.154-.088.2-.165.6-1.007.915-2.156,1.6-3.155.069-.1.17-.212.289-.184a1.357,1.357,0,0,1-.1,1.05c-.4,1.023-.919,1.993-1.3,3.018-.043.115-.072.267.026.341.157.114,1.494-1.311,1.734-1.415.288-.124.646-.14.43.343-.114.256-.614.514-.815.711-.654.644-1.277,1.359-1.865,2.061a5.418,5.418,0,0,0-.925,2.1q-1.119,4.071-1.925,8.22a4.073,4.073,0,0,1-1.336,2.637,1.752,1.752,0,0,1-1.924-.062c-2.021-1.475-.645-4.755-.046-6.552.511-1.533,1.031-3.072,1.406-4.644A12.737,12.737,0,0,0,643.439,304.464Z" fill="#fd994e"/>
      <path id="Path_55683" data-name="Path 55683" d="M613.2,314.262a6.223,6.223,0,0,1,1.414-3.045,3.141,3.141,0,0,1,3.457-.629,175.9,175.9,0,0,0,4.44,21.3,20.2,20.2,0,0,1,.963,5.1,5.233,5.233,0,0,1-1.874,4.349c-1.851,1.366-5.38.913-7.285-.986-1.858-1.851-1.809-5.431-2.089-7.643A50.653,50.653,0,0,1,613.2,314.262Z" fill="#7c3ff0"/>
      <path id="Path_55684" data-name="Path 55684" d="M619.015,302.058c.034-.077.07-.151.109-.225a14.9,14.9,0,0,0,1.48-2.326.24.24,0,0,0,.011-.16c-.041-.111-.2-.113-.313-.085a2.766,2.766,0,0,0-1.559,1.186c-.168.264-.262.607-.566.734a1.735,1.735,0,0,1-.014-.865q.153-.975.23-1.959c.036-.453.264-1.376.043-1.79a.233.233,0,0,0-.282-.124.307.307,0,0,0-.13.145,3.027,3.027,0,0,0-.256.921c-.123.713-.278,1.417-.437,2.123-.03.134-.054.683-.143.766-.207.192-.286-.121-.273-.344a14.762,14.762,0,0,0-.245-3.706c-.037-.186-.151-.423-.335-.38-.226.054-.334,1.918-.351,2.16-.047.682-.11,1.371-.205,2.05-.024.17-.138.391-.3.329a.283.283,0,0,1-.139-.22c-.258-1.145-.193-2.334-.531-3.5-.034-.117-.1-.255-.217-.265a1.36,1.36,0,0,0-.23,1.029c.054,1.1.247,2.181.288,3.274,0,.122-.016.277-.132.315-.185.06-1.007-1.713-1.2-1.887-.234-.208-.569-.335-.516.19.029.279.423.681.552.932.418.816.785,1.691,1.123,2.541a5.4,5.4,0,0,1,.219,2.288q-.216,4.217-.751,8.408a4.076,4.076,0,0,0,.441,2.924,1.752,1.752,0,0,0,1.846.544c2.382-.766,2.1-4.312,2.1-6.207,0-1.615-.015-3.239.122-4.851A12.75,12.75,0,0,1,619.015,302.058Z" fill="#fdad71"/>
    </g>
    <g id="Group_10881" data-name="Group 10881" transform="translate(-187.581 4995.994)">
      <g id="Group_10877" data-name="Group 10877">
        <path id="Path_55685" data-name="Path 55685" d="M646.885,417.184H596.8V360.867h50.089Zm-46.6-3.494h43.1V364.362h-43.1Z" fill="#32d5fd"/>
      </g>
      <path id="Rectangle_4252" data-name="Rectangle 4252" d="M0,0H59.409a0,0,0,0,1,0,0V8.6a3.9,3.9,0,0,1-3.9,3.9H3.9A3.9,3.9,0,0,1,0,8.6V0A0,0,0,0,1,0,0Z" transform="translate(645.138 547.291) rotate(180)" fill="#32d5fd"/>
      <rect id="Rectangle_4253" data-name="Rectangle 4253" width="74.521" height="4.436" transform="translate(648.99 547.291) rotate(180)" fill="#32d5fd"/>
      <g id="Group_10878" data-name="Group 10878">
        <path id="Path_55686" data-name="Path 55686" d="M636.79,417.184h-29.9V360.867h29.9Zm-26.4-3.494h22.91V364.362h-22.91Z" fill="#32d5fd"/>
      </g>
      <g id="Group_10879" data-name="Group 10879">
        <path id="Path_55687" data-name="Path 55687" d="M602.735,537.369l-2.173-2.737,35.8-28.42L599.9,477.268v-2.7l36.461-28.943-35.8-28.42,2.173-2.738,37.549,29.808v2.7l-36.461,28.943,36.461,28.945v2.7Z" fill="#32d5fd"/>
      </g>
      <g id="Group_10880" data-name="Group 10880">
        <path id="Path_55688" data-name="Path 55688" d="M637.451,537.369,599.9,507.561v-2.7l36.461-28.945L599.9,446.976v-2.7l37.549-29.808,2.173,2.738-35.8,28.42,36.461,28.943v2.7l-36.461,28.943,35.8,28.42Z" fill="#32d5fd"/>
      </g>
      <rect id="Rectangle_4254" data-name="Rectangle 4254" width="59.409" height="6.048" transform="translate(651.739 366.243) rotate(180)" fill="#fc8021"/>
    </g>
    <g id="Group_10883" data-name="Group 10883" transform="translate(-187.581 4995.994)">
      <g id="Group_10882" data-name="Group 10882">
        <path id="Path_55689" data-name="Path 55689" d="M589.758,436.769a2.723,2.723,0,0,0,2.349-2.947,2.649,2.649,0,0,0-3.022-2.309Z" fill="#fed802"/>
        <rect id="Rectangle_4255" data-name="Rectangle 4255" width="7.673" height="2.31" transform="translate(580.397 445.294) rotate(-109.729)" fill="#fc8021"/>
        <path id="Path_55690" data-name="Path 55690" d="M589.111,427.461l1.966,13.159-1.949.291h0a1.787,1.787,0,0,0-2.031-1.5l-6.54.866a5,5,0,0,1-5.709-3.916,4.866,4.866,0,0,1,4.069-5.679l6.742-.9a1.787,1.787,0,0,0,1.5-2.031h0Z" fill="#fed802"/>
        <path id="Path_55691" data-name="Path 55691" d="M580.355,440.3a4.866,4.866,0,0,1-1.438-9.625Z" fill="#fc8021"/>
        <path id="Path_55692" data-name="Path 55692" d="M587.162,427.752l1.95-.291,1.966,13.159-1.95.291h0Z" fill="#fc8021"/>
      </g>
      <path id="Path_55693" data-name="Path 55693" d="M582.561,454.015a62.882,62.882,0,0,0-8.631-8.542c-1.694-1.38-3.076-2.243-5.129-1.52a8.746,8.746,0,0,0-4.51,3.276c-1.4,2.124-1.166,3.7.4,5.661,5.47,6.873,11.866,14.553,21.2,15.306,1.764.142,4.761.2,6.052-1.276,1.13-1.291,1.58-4.039,1.643-5.675.174-4.524-2.413-8.6-4.857-12.191-1.171-1.723-3.152-4.442-5.512-3.547-4.268,1.618.1,8.1,1.187,10.835Q583.511,455.157,582.561,454.015Z" fill="#eac303"/>
      <path id="Path_55694" data-name="Path 55694" d="M578.394,444.5a1.745,1.745,0,0,1-.813-1.068,1.28,1.28,0,0,1,.379-.957,4.426,4.426,0,0,1,2.25-1.136,3.642,3.642,0,0,1,3.161.211,3.865,3.865,0,0,1,1.111,2.092,5.966,5.966,0,0,1,.345,2.342c-.173,1.435-1.633,1.683-2.846,1.219C580.734,446.73,579.457,445.316,578.394,444.5Z" fill="#fd994e"/>
      <path id="Path_55695" data-name="Path 55695" d="M575.069,528.173a16.716,16.716,0,0,1-1.3,3.845c1.92-.15,9.4.562,10.893.024-2.125-.556-4.7-2.375-6.826-2.931Z" fill="#fc819d"/>
      <path id="Path_55696" data-name="Path 55696" d="M565.948,488.556c.471,5.234.893,10.465,1.893,15.721a179.848,179.848,0,0,0,6.775,25.363l4.724.17c-3.115-19.491,3.146-39.853-.224-59.071q-.684-3.9-1.369-7.808c.337,1.92-13.433,4.759-14.155,6.988-.675,2.084.945,6.661,1.268,8.851C565.342,482.038,565.654,485.3,565.948,488.556Z" fill="#245ebd"/>
      <path id="Path_55697" data-name="Path 55697" d="M550.266,528.109a16.61,16.61,0,0,0,1.764,3.657l-5.773.26a17.838,17.838,0,0,1-4.744-.21l6.124-2.437Z" fill="#fc819d"/>
      <path id="Path_55698" data-name="Path 55698" d="M548.656,502.941c-.666,8.733-1.788,17.055-1.175,25.792l4.515,1.4c6.4-18.378,13.444-37.648,15.209-57.079l.717-7.895c-.176,1.941-14.209,1.086-15.489,3.05-1.2,1.834-.827,6.676-1.087,8.874C550.958,480.362,549.063,497.606,548.656,502.941Z" fill="#2962bf"/>
      <path id="Path_55699" data-name="Path 55699" d="M544.275,409.239a1.415,1.415,0,0,1,.675-1.018.9.9,0,0,1,.924.2,1.381,1.381,0,0,1,.4.891,3.059,3.059,0,0,1,1.413-1.076.378.378,0,0,1,.269-.025c.125.052.162.208.182.343l.126.851c.362-.415.914-.87,1.4-.6.859.472-.405,3.041-.563,3.751a5.154,5.154,0,0,1-.5,1.505,1.752,1.752,0,0,1-1.241.908,3.029,3.029,0,0,1-.77-.055c-.822-.12-1.678,0-2.473-.111C544.1,412.9,543.76,411.144,544.275,409.239Z" fill="#fdad71"/>
      <path id="Path_55700" data-name="Path 55700" d="M553.567,432.885c1.812,3.942,4.4,8.039,8.575,9.234,3.291.942,6.286-1.751,9.086-.256,2.743,1.464,4.506,4.515,5.738,7.25,3.582,7.951,2.969,17.706,3.248,26.239-9.583,2.372-19.628,1.582-29.467.776q.787-11.35,1.039-22.731c.113-5.086-4.181-7.506-6.515-11.655a26.8,26.8,0,0,1-3.452-14.377c.2-4.074.456-8.514,2.263-12.249a1.063,1.063,0,0,1,.325-.445,1.126,1.126,0,0,1,.84-.063c1.228.228,2.839-.23,3.226,1.434.3,1.3.369,2.652.68,3.978A67.829,67.829,0,0,0,553.567,432.885Z" fill="#fed802"/>
      <path id="Path_55701" data-name="Path 55701" d="M547.938,415.47c.234-1.966,3.574-2.5,1.55-4.588-1.3-1.339-3.009-.608-3.669.844a.692.692,0,0,0-.076.527.63.63,0,0,0,.408.315,2.022,2.022,0,0,0,2.009-.453" fill="#fdad71"/>
      <path id="Path_55702" data-name="Path 55702" d="M563.509,444.779c1.462.891,3.325,1.184,4.482-.033a3.389,3.389,0,0,0,.7-1.586,15.561,15.561,0,0,0,.579-3.986A6,6,0,0,0,568,435.421a3.755,3.755,0,0,0-3.6-1.337,3.326,3.326,0,0,0-2.546,3.078c-.253,1.8-1.113,3.792-.311,5.562A5.028,5.028,0,0,0,563.509,444.779Z" fill="#fd994e"/>
      <path id="Path_55703" data-name="Path 55703" d="M570.316,438.811a3.963,3.963,0,0,1-1.033,2.375,3.674,3.674,0,0,1-2.816.68,4.266,4.266,0,0,1-1.673-.434c-2.276-1.238-3.4-5.129-3.5-7.522a4.335,4.335,0,0,1,.262-1.841,3.694,3.694,0,0,1,2.158-1.944,7.207,7.207,0,0,1,2.946-.338,4.587,4.587,0,0,1,2.126.542C570.956,431.65,570.656,436.7,570.316,438.811Z" fill="#fdad71"/>
      <path id="Path_55704" data-name="Path 55704" d="M563.206,433.059a2.293,2.293,0,0,1,.922-.245c2.672-.323,5.913-.206,6.467-3.641.239-1.483-.916-3.206-2.412-3.073-1.671.149-4.727,1.661-6.325,2.352a3.891,3.891,0,0,0-2.106,1.741c-.523,1.125-.08,2.44.366,3.6q.507,1.316,1.013,2.63a9.645,9.645,0,0,1,.3-1.251c.458-.233.727.573.992.816C562.887,435.072,562.088,433.729,563.206,433.059Z" fill="#094ab5"/>
    </g>
    <g id="Group_10890" data-name="Group 10890" transform="translate(-187.581 4995.994)">
      <g id="Group_10884" data-name="Group 10884">
        <path id="Path_55705" data-name="Path 55705" d="M800.852,274.971,799.7,264.057,787.98,265.3l-1.127-10.652-10.559,1.117-.244-2.317,12.876-1.363,1.127,10.652,11.717-1.24,1.4,13.231Z" fill="#05ccfc"/>
      </g>
      <g id="Group_10885" data-name="Group 10885">
        <path id="Path_55706" data-name="Path 55706" d="M1004.749,339.288l-2.1-1.01,4.061-8.446,6.724,3.234,3.557-7.4,8.67,4.171-1.011,2.1-6.569-3.16-3.557,7.4-6.724-3.234Z" fill="#415bef"/>
      </g>
      <g id="Group_10886" data-name="Group 10886">
        <path id="Path_55707" data-name="Path 55707" d="M528.366,372.213l-2.253-.59,2.376-9.066,7.217,1.891,2.08-7.938,9.306,2.439-.59,2.253-7.053-1.848-2.08,7.938-7.217-1.891Z" fill="#fff"/>
      </g>
      <g id="Group_10887" data-name="Group 10887">
        <path id="Path_55708" data-name="Path 55708" d="M969.683,275.684a23.676,23.676,0,0,1-9.32-1.693l.977-2.116-.489,1.058.486-1.059c.593.271,14.727,6.445,31.948-8.556l1.531,1.757C984.981,273.64,976.007,275.684,969.683,275.684Z" fill="#fed802"/>
      </g>
      <g id="Group_10888" data-name="Group 10888">
        <path id="Path_55709" data-name="Path 55709" d="M994.2,419.971c-10.747,0-16.8-5.057-17.168-5.372l1.518-1.767c.494.423,12.391,10.237,33.069.546l.989,2.109A43.229,43.229,0,0,1,994.2,419.971Z" fill="#fc7005"/>
      </g>
      <g id="Group_10889" data-name="Group 10889">
        <path id="Path_55710" data-name="Path 55710" d="M439.357,529.409a23.678,23.678,0,0,1-9.32-1.694l.977-2.116-.488,1.058.485-1.06c.594.273,14.728,6.445,31.948-8.555l1.531,1.756C454.655,527.364,445.682,529.409,439.357,529.409Z" fill="#fff"/>
      </g>
      <path id="Path_55711" data-name="Path 55711" d="M412.91,449.6a4.758,4.758,0,1,0-4.758,4.759A4.758,4.758,0,0,0,412.91,449.6Z" fill="#415bef"/>
      <path id="Path_55712" data-name="Path 55712" d="M867.066,264.962a4.758,4.758,0,1,0-4.758,4.758A4.759,4.759,0,0,0,867.066,264.962Z" fill="#fff"/>
      <circle id="Ellipse_3265" data-name="Ellipse 3265" cx="4.758" cy="4.758" r="4.758" transform="translate(887.586 356.109)" fill="#fed802"/>
      <rect id="Rectangle_4256" data-name="Rectangle 4256" width="12.853" height="12.853" transform="translate(469.58 399.098) rotate(106.34)" fill="#fed802"/>
      <path id="Path_55713" data-name="Path 55713" d="M1058.418,362.183l-9.25,12.907,16.855,1.032Z" fill="#fff"/>
      <path id="Path_55714" data-name="Path 55714" d="M550.528,242.531l-6.4,8.926,11.656.714Z" fill="#fed802"/>
      <path id="Path_55715" data-name="Path 55715" d="M447.787,255.988l-5.61,7.772,10.172.658Z" fill="#05ccfc"/>
      <path id="Path_55716" data-name="Path 55716" d="M974.721,453.687l-6.99,6.558,9.859,2.588Z" fill="#fff"/>
      <path id="Path_55717" data-name="Path 55717" d="M474.251,319.657a4.759,4.759,0,1,0-3.763,5.579A4.759,4.759,0,0,0,474.251,319.657Z" fill="#fc7005"/>
      <path id="Path_55718" data-name="Path 55718" d="M1014.156,512.124a4.758,4.758,0,1,0-4.758,4.759A4.758,4.758,0,0,0,1014.156,512.124Z" fill="#fed802"/>
      <rect id="Rectangle_4257" data-name="Rectangle 4257" width="10.658" height="10.658" transform="translate(955.07 373.667) rotate(-155.095)" fill="#05ccfc"/>
      <path id="Path_55719" data-name="Path 55719" d="M949.547,309.641a4.758,4.758,0,1,0-4.758,4.758A4.758,4.758,0,0,0,949.547,309.641Z" fill="#fc7005"/>
      <rect id="Rectangle_4258" data-name="Rectangle 4258" width="7.774" height="7.774" transform="translate(520.829 310.045) rotate(-155.096)" fill="#fc819d"/>
      <rect id="Rectangle_4259" data-name="Rectangle 4259" width="7.774" height="7.774" transform="matrix(0.148, -0.989, 0.989, 0.148, 644.569, 260.258)" fill="#fff"/>
      <path id="Path_55720" data-name="Path 55720" d="M472.192,482.823l8.738-19.717-22.7,3.28Z" fill="#fc7005"/>
    </g>
    <g id="Group_10891" data-name="Group 10891" transform="translate(-187.581 4995.994)">
      <path id="Path_55721" data-name="Path 55721" d="M748.506,467.112a7.013,7.013,0,0,1,1.571,2.139,15.2,15.2,0,0,1,1.835,4.309l-2.557,1.2a.387.387,0,0,1-.213.054.392.392,0,0,1-.221-.163c-.951-1.129-2.125-2.047-3.153-3.106-1.065-1.1-3.183-3.841-1.925-5.461C744.842,464.8,747.549,466.335,748.506,467.112Z" fill="#fd994e"/>
      <path id="Path_55722" data-name="Path 55722" d="M734.7,466.8l4.25,7.125a2.04,2.04,0,0,0,2.561.795l3.906-1.707a2.037,2.037,0,0,0,1.043-2.676l-3.366-7.657a2.039,2.039,0,0,0-2.745-1.027l-4.79,2.238A2.038,2.038,0,0,0,734.7,466.8Z" fill="#fc7005"/>
      <path id="Path_55723" data-name="Path 55723" d="M735.735,466.79l3.8,6.163a2.038,2.038,0,0,0,2.56.794l3.317-1.469a2.038,2.038,0,0,0,1.043-2.677l-2.913-6.693a2.038,2.038,0,0,0-2.745-1.027l-4.2,2A2.038,2.038,0,0,0,735.735,466.79Z" fill="#dbe0fc"/>
      <path id="Path_55724" data-name="Path 55724" d="M749.821,471.454a11.823,11.823,0,0,0-1.35-3.06,1.436,1.436,0,0,0-.385-.451,1.538,1.538,0,0,0-.879-.174l-1.836.007c-.391,0-.871.06-1.017.423-.185.459.347.871.8,1.065a14.548,14.548,0,0,0,2.5.8" fill="#fd994e"/>
      <path id="Path_55725" data-name="Path 55725" d="M750.856,481.3a37.947,37.947,0,0,0,3.247,6.483,9.876,9.876,0,0,0,2.383,2.817,4.028,4.028,0,0,0,3.5.751c1.629-.511,2.409-2.153,3.032-3.6.726-1.686-.03-2.923-1.156-4.339q-4.065-5.115-8.328-10.068c-1.139-1.322-5.657,1.22-5.54,1.445A62.551,62.551,0,0,1,750.856,481.3Z" fill="#fc7005"/>
      <path id="Path_55726" data-name="Path 55726" d="M768.46,471.814c0,.031,0,.062.005.093.03.524.136,1.044.12,1.569a6.857,6.857,0,0,1-1.166,3.11l-1.264,2.191c-.971,1.682-2.16,3.46-4.338,3.246a3.5,3.5,0,0,1-2.3-1.221c-1.436-1.713-.55-3.486.317-5.179l1.756-3.432a7.735,7.735,0,0,0,.81-1.6,12.8,12.8,0,0,0,.028-1.677,5.616,5.616,0,0,1,.995-3.2,3.206,3.206,0,0,1,2.667-1.169C770.093,464.814,768.358,469.24,768.46,471.814Z" fill="#fd994e"/>
      <path id="Path_55727" data-name="Path 55727" d="M759.657,467.226a3.876,3.876,0,0,0,1.115,2.241,3.472,3.472,0,0,0,2.719.516,4,4,0,0,0,1.568-.5c2.1-1.311,2.951-5.125,2.913-7.441a4.222,4.222,0,0,0-.352-1.765,3.564,3.564,0,0,0-2.162-1.769,6.768,6.768,0,0,0-2.823-.179,4.307,4.307,0,0,0-1.993.63C758.649,460.342,759.216,465.208,759.657,467.226Z" fill="#fdad71"/>
      <path id="Path_55728" data-name="Path 55728" d="M772.041,558.7c-1.228.854-.752-1.439-1.353-1.959a.994.994,0,0,0-1.231-.077c-.407.323-.433.94-.72,1.377-.479.733-1.5.774-2.37.737a4.646,4.646,0,0,1-2.844-.755c.367-.73,1.34-.82,2.034-1.238,1.246-.75,1.107-2.251,1.88-3.279.848-1.128,2.288-2.139,3.6-1.1,1.825,1.443,1.348,3.579,1.249,5.7a.99.99,0,0,1-.079.409A.507.507,0,0,1,772.041,558.7Z" fill="#fc7005"/>
      <path id="Path_55729" data-name="Path 55729" d="M768.025,554.544a10.449,10.449,0,0,1-1.3-4.015q-1.947-9.931-3.508-19.938c-.869-5.571-3.362-10.173-2.24-16.089a5.045,5.045,0,0,1,1.8-3.422,3.764,3.764,0,0,1,2.113-.549,5.665,5.665,0,0,1,4.474,2.322c1.83,2.55,1.218,6.017,1.129,9.154-.14,4.866,1.725,9.411,1.407,14.3-.309,4.735-1.8,9.458-1.009,14.222a7.407,7.407,0,0,1,.18,3.136c-.276,1.021-1.4,1.906-2.342,1.468A1.9,1.9,0,0,1,768.025,554.544Z" fill="#fd994e"/>
      <path id="Path_55730" data-name="Path 55730" d="M756.567,558.925c-1.3.732-.62-1.5-1.171-2.079a1,1,0,0,0-1.22-.2c-.435.283-.517.893-.841,1.3-.544.683-1.569.625-2.429.506a4.685,4.685,0,0,1-2.766-1.025c.432-.691,1.409-.686,2.138-1.036,1.31-.627,1.307-2.134,2.169-3.082.947-1.041,2.472-1.908,3.682-.753,1.689,1.612,1.022,3.69.731,5.795a.989.989,0,0,1-.114.4A.5.5,0,0,1,756.567,558.925Z" fill="#fc7005"/>
      <path id="Path_55731" data-name="Path 55731" d="M753.036,554.367a10.573,10.573,0,0,1-1.1-4.092q-1.452-10.041-2.515-20.133a17.719,17.719,0,0,1,.013-5.583,16.5,16.5,0,0,1,2.665-5.487q1.713-2.583,3.562-5.067c.795-1.068,2.029-2.245,3.245-1.711,1.035.454,1.245,1.843,1.17,2.981a14.65,14.65,0,0,1-.8,3.883c-.908,2.584-2.223,5.07-2.133,7.9a42.715,42.715,0,0,0,.681,4.407c.88,6.361-2.472,12.693-1.732,19.071a7.424,7.424,0,0,1,.024,3.143c-.326,1-1.488,1.815-2.411,1.319A1.945,1.945,0,0,1,753.036,554.367Z" fill="#fdad71"/>
      <path id="Path_55732" data-name="Path 55732" d="M774.732,503.16a12.838,12.838,0,0,1-.181,2.083c-.516,3.006-2.175,5.722-2.69,8.728-.608,3.539.415,7.129.7,10.708a1.083,1.083,0,0,1-.9,1.369,26.925,26.925,0,0,1-16.876.771c-1.382-.418-6.343-1.411-6.934-2.858-.245-.6.144-2.761.133-3.508-.021-1.467,0-2.935.064-4.4a52.309,52.309,0,0,1,1.083-8.669c1.163-5.361,3.566-13.107,8.768-15.215,1.582-.641,3.2-.476,4.794-.885,1.548-.4,2.847-1.271,4.511-1.415a5.206,5.206,0,0,1,4.322,1.449,7.719,7.719,0,0,1,1.412,2.947A29.488,29.488,0,0,1,774.732,503.16Z" fill="#fc8021"/>
      <path id="Path_55733" data-name="Path 55733" d="M774.674,479.427a9.688,9.688,0,0,0-.2-1.085c-.779-3.229-3.617-6.631-7.107-6.105-1.813.273-3.339.032-5.092.653-2.412.851-4.366.992-6.121,3.092a8.627,8.627,0,0,0-1.858,3.265,10.987,10.987,0,0,0,.233,4.893,23.787,23.787,0,0,1,.72,4.825c-.125,1.364-.775,2.561-.168,4.015.693,1.662,3.5,2.544,4.986,2.872a25.022,25.022,0,0,0,6.551.28c2.149-.1,3.191.942,5.216,1.547a.968.968,0,0,0,.866-.033c.263-.206.252-.6.224-.931a32.665,32.665,0,0,1,.978-10.144A21.185,21.185,0,0,0,774.674,479.427Z" fill="#fc8021"/>
      <path id="Path_55734" data-name="Path 55734" d="M769.374,459.91a4.459,4.459,0,0,0,.241.411,5.519,5.519,0,0,0,3.751,2.083c1.443.251,2.925.223,4.354.544a11.99,11.99,0,0,1,4.375,2.1c5.076,3.7,4.6,13.187-1.39,15.9a9.251,9.251,0,0,1-10.887-3.121c-1.94-2.651-3.226-5.918-4.609-8.883a14.875,14.875,0,0,0-1.759-3.1,39.082,39.082,0,0,0-3.121-2.965c-1.539-1.531-2.326-3.53-1.345-5.591a4.55,4.55,0,0,1,4.346-2.61,5.93,5.93,0,0,1,5.117,3.026C768.812,458.412,769.011,459.2,769.374,459.91Z" fill="#094ab5"/>
      <path id="Path_55735" data-name="Path 55735" d="M741.365,481.188c-.566-.634-1.149-1.252-1.759-1.85a2.87,2.87,0,0,1-1.076-1.71c-.111-1.741,1.851-2.756,1.525-4.72-.15-.9-.51-1.76-.586-2.668-.022-.27.025-.608.28-.7a.545.545,0,0,1,.471.108,2.665,2.665,0,0,1,.828,1.261,7.405,7.405,0,0,0,1.6,2.507,6.35,6.35,0,0,1,1.018,1.947,52.378,52.378,0,0,0,5.367,9.169,2.371,2.371,0,0,1,.577,2.077,1.562,1.562,0,0,1-1.778.773c-.692-.146-1.353.323-1.874-.155-1.19-1.1-1.8-2.714-2.764-3.89C742.594,482.607,741.99,481.888,741.365,481.188Z" fill="#fdad71"/>
      <path id="Path_55736" data-name="Path 55736" d="M742.822,482.039c.889-.676,1.7-1.312,2.525-2.029.7-.6,1.769-.045,2.436.587,2.235,2.122,4.162,4.393,6.793,6.071a.822.822,0,0,0,.642.185c.284-.082.39-.423.442-.714.623-3.475-.37-9.173,3.648-10.76a5.432,5.432,0,0,1,7.68,4.828,20.942,20.942,0,0,1-1.656,8.349,17.474,17.474,0,0,1-3.568,6.383,7.016,7.016,0,0,1-6.676,2.164,10.593,10.593,0,0,1-3.458-2.044c-4.163-3.242-7.04-7.812-9.723-12.326Z" fill="#fd8830"/>
      <path id="Path_55737" data-name="Path 55737" d="M741.315,467.62s-1.876-2.135-2.587-.841,3.816,3.234,3.816,3.234,1.423-4.463.065-4.722S741.315,467.62,741.315,467.62Z" fill="#e0242b"/>
    </g>
    <g id="Group_10893" data-name="Group 10893" transform="translate(-187.581 4995.994)">
      <g id="Group_10892" data-name="Group 10892">
        <path id="Path_55738" data-name="Path 55738" d="M665.829,548.255a16.44,16.44,0,0,1-1.983,3.375l5.349.771a16.051,16.051,0,0,0,4.436.224l-5.473-2.906Z" fill="#fc819d"/>
        <path id="Path_55739" data-name="Path 55739" d="M667.446,506.459c-.853,5.025-1.749,10.033-2.13,15.212a215.856,215.856,0,0,0-.077,27.815l4.223,1.357c4.25-29.591,12.573-38.879,14.224-57.742q.336-3.833.671-7.664c-.165,1.884-13.289,1.054-14.486,2.96-1.118,1.781-.774,6.482-1.017,8.616C668.491,500.2,667.977,503.331,667.446,506.459Z" fill="#245ebd"/>
        <path id="Path_55740" data-name="Path 55740" d="M677.98,449.525a3.858,3.858,0,0,1,1.494-2.584,7.055,7.055,0,0,1,2.717-1.23,4.431,4.431,0,0,1,2.19-.108c2.463.652,3.654,5.758,3.945,7.952a4.242,4.242,0,0,1-.293,2.67,2.556,2.556,0,0,1-.717.785,9.678,9.678,0,0,1-.872,3.142,2.112,2.112,0,0,1-.6.832,1.936,1.936,0,0,1-1.155.277,7.19,7.19,0,0,1-3.415-.89,2,2,0,0,1-.675-.535,2.4,2.4,0,0,1-.343-.983,49.2,49.2,0,0,1-1.093-5.426,13.1,13.1,0,0,1-.893-1.995A4.643,4.643,0,0,1,677.98,449.525Z" fill="#fd994e"/>
        <path id="Path_55741" data-name="Path 55741" d="M676.965,451.959c.819,1.6,1.8,3.144,2.474,4.3.818,1.408,2.644,1.12,3.852.378a8.387,8.387,0,0,0,1.876-1.784,9,9,0,0,0,2.09-3.266c.374-1.375-.181-2.6.154-3.975.134-.552.371-1.075.473-1.635a3.513,3.513,0,0,0-.962-3.081,4.551,4.551,0,0,0-3.446-.954c-.213,0-4.05.607-3.239,1.516a1.014,1.014,0,0,0-1.215-.215,1.1,1.1,0,0,0-.514,1.163,2.487,2.487,0,0,0-1.827.137l-.087,1.37c-.009.142-.032.307-.152.376-.15.086-.33-.045-.5-.045-.326,0-.464.432-.477.771A11,11,0,0,0,676.965,451.959Z" fill="#094ab5"/>
        <path id="Path_55742" data-name="Path 55742" d="M700.549,424.008a5.794,5.794,0,0,0,.47-2.417c-.025-.14-.085-.3-.223-.335-.18-.047-.324.149-.4.32a15.978,15.978,0,0,1-.877,2.115c-.071.112-.183.233-.311.2-.157-.038-.173-.253-.151-.414q.129-.961.348-1.909a1.208,1.208,0,0,0,.04-.583.4.4,0,0,0-.432-.316c-.155.035-.251.187-.326.327a9.111,9.111,0,0,0-.73,1.8c-.086.3-.136.611-.215.914-.046.18-.281.579-.237.749a18.4,18.4,0,0,0-.778-2.359c-.133-.329-.428-.718-.738-.565-.643,1.66.807,3.836-.9,5.192a.668.668,0,0,1-.731.151c-.229-.141-.247-.459-.28-.727a2.653,2.653,0,0,0-.181-.689,1.068,1.068,0,0,0-.282-.427.5.5,0,0,0-.482-.107c-.3.114-.337.521-.32.844a5.064,5.064,0,0,0,1.5,3.181,12.164,12.164,0,0,1,2.1,2.85,1.785,1.785,0,0,0,.855.936,1.486,1.486,0,0,0,.729.01,6.457,6.457,0,0,0,1.154-.313,1.115,1.115,0,0,0,.51-.318,1.317,1.317,0,0,0,.182-.833,12.091,12.091,0,0,1,1.869-6.979,2.035,2.035,0,0,0,.485-1.45.219.219,0,0,0-.052-.113c-.109-.107-.275.047-.349.181a11.331,11.331,0,0,1-1.133,1.673c-.036.044-.083.092-.139.082-.081-.014-.092-.125-.08-.206A4.214,4.214,0,0,1,700.549,424.008Z" fill="#fdad71"/>
        <path id="Path_55743" data-name="Path 55743" d="M672.17,421.007q.036.459.049.92c.8-1.205.246-2.858.678-4.24.05-.162.19-.355.345-.287a.308.308,0,0,1,.132.152c.53,1.049.332,2.527.395,3.673.007.121.07.287.187.254l.825-2.715a.562.562,0,0,1,.249-.381.368.368,0,0,1,.423.142.885.885,0,0,1,.141.456,7.674,7.674,0,0,1-.372,2.53,10.638,10.638,0,0,0-.591,3.289c.2-.034.171-.19.32-.32a2.5,2.5,0,0,1,.874-.393,4.935,4.935,0,0,1,1.785-.175.733.733,0,0,1,.561.224c.392.542-.328,1.016-.736,1.132a6.87,6.87,0,0,0-1.866.785,7.068,7.068,0,0,0-1.927,2.471c-.6.987-1.072,2.052-1.724,3.005a.422.422,0,0,1-.2.184c-.173.059-.334-.107-.443-.253a4.735,4.735,0,0,0-.9-1.107q-.422-.3-.821-.634a1.148,1.148,0,0,1-.411-.523,1.247,1.247,0,0,1,.071-.7,33.186,33.186,0,0,0,1.134-5.86c.041-.36.082-.722.089-1.084a9.792,9.792,0,0,1,.079-2.676c.087-.009.134.1.155.181q.148.616.3,1.233c.078-.505.189-1,.295-1.5.031-.144.083-.313.225-.354.217-.063.358.221.4.443A19.384,19.384,0,0,1,672.17,421.007Z" fill="#fdad71"/>
        <path id="Path_55744" data-name="Path 55744" d="M691.649,549.559a16.756,16.756,0,0,1-2.369,3.144l5.258,1.287a16.188,16.188,0,0,0,4.409.656l-5.138-3.411Z" fill="#fc819d"/>
        <path id="Path_55745" data-name="Path 55745" d="M681.3,509.108c.56,5.12,1.072,10.239,2.141,15.35,1.751,8.366,4.153,18.938,7.087,26.907l4.555-.107c-3.573-22.578,2.179-41.733-1.455-60.435l-1.476-7.6c.363,1.869-12.846,5.46-13.5,7.694-.608,2.088,1.045,6.5,1.4,8.63C680.586,502.734,680.952,505.921,681.3,509.108Z" fill="#2962bf"/>
        <path id="Path_55746" data-name="Path 55746" d="M672.471,447.829l.019.07c1.229,4.262,3.711,8.47,7.94,10.018,4.9,1.8,10.458-1.562,13.045-6.242a26.544,26.544,0,0,0,2.889-10.48,50.273,50.273,0,0,0,.162-5.757c-.025-1.022-.554-2.552-.08-3.514.419-.848,2.645-1.6,3.377-1.194.806.448,1.71,3.445,2.062,4.335a31.447,31.447,0,0,1-2.282,27.494c-2.15,3.459-2.28,5.721-2.593,9.654a59.567,59.567,0,0,0,2.116,22.535c.247.827-9.477,1.85-10.217,1.866a65.206,65.206,0,0,1-10.575-.652.575.575,0,0,1-.3-.1.659.659,0,0,1-.169-.447q-.319-2.822-.638-5.643a3.257,3.257,0,0,1-.28,1.06l-1.6,4.121a.4.4,0,0,1-.145.214.355.355,0,0,1-.243.01,32.119,32.119,0,0,1-3.232-.915c-2.159-.7-4.278-1.585-6.407-2.375.354.132,2.331-6.1,2.5-6.706a52.467,52.467,0,0,0,1.369-7.171c.3-2.387.484-4.789.647-7.19.083-1.207.166-2.416.271-3.618a3.6,3.6,0,0,0-1-2.832c-4.036-5.27-7.107-13.312-6.889-20.093a26.028,26.028,0,0,1,4.936-13.811c1.153-1.657,1.8-1.554,3.483-1.14,1.187.293,2.177.552,2.022,2.093a9.076,9.076,0,0,1-.52,1.895C670.673,437.746,671.2,443.387,672.471,447.829Z" fill="#356bc2"/>
      </g>
    </g>
    <g id="Group_10894" data-name="Group 10894" transform="translate(-187.581 4995.994)">
      <path id="Path_55747" data-name="Path 55747" d="M890.746,422.806a8.954,8.954,0,0,0-7.34,10.318,8.954,8.954,0,0,0-17.659,2.978c1.95,11.565,21.576,20.247,21.576,20.247s15.692-14.638,13.742-26.2A8.954,8.954,0,0,0,890.746,422.806Z" fill="#e0242b"/>
      <path id="Path_55748" data-name="Path 55748" d="M896.4,560.671c-1.207.724-.614-1.4-1.144-1.924a.936.936,0,0,0-1.15-.152c-.4.278-.467.854-.764,1.247-.5.656-1.461.629-2.271.539a4.366,4.366,0,0,1-2.62-.891c.391-.661,1.309-.683,1.987-1.031,1.218-.624,1.184-2.042,1.975-2.956.868-1,2.284-1.861,3.445-.806,1.619,1.472,1.035,3.445.806,5.432a.923.923,0,0,1-.1.379A.473.473,0,0,1,896.4,560.671Z" fill="#2b63bf"/>
      <path id="Path_55749" data-name="Path 55749" d="M893,556.961a9.819,9.819,0,0,1-2-3.427q-3.786-8.733-7.232-17.612a16.634,16.634,0,0,1-1.361-5.068,15.749,15.749,0,0,1,1.06-5.668q.913-2.785,1.977-5.518c.456-1.174,1.283-2.56,2.515-2.391,1.048.144,1.58,1.35,1.792,2.4a13.836,13.836,0,0,1,.234,3.728c-.185,2.579-.764,5.174.016,7.72a39.373,39.373,0,0,0,1.7,3.821c2.362,5.543.887,12.153,3.126,17.748a6.969,6.969,0,0,1,.8,2.845c-.048.993-.9,2.031-1.857,1.82A1.8,1.8,0,0,1,893,556.961Z" fill="#fd994e"/>
      <path id="Path_55750" data-name="Path 55750" d="M891.364,531.7c-.439-2.651.493-5.451,1.193-8.025.795-2.928,1.274-5.957,1.775-8.951a20.24,20.24,0,0,0-3.466-14.948,3.239,3.239,0,0,0-1.378-1.253,2.453,2.453,0,0,0-2.029.272c-2.175,1.23-2.652,4.1-2.894,6.585-.254,2.607-.28,5.713-1.477,8.108-.473,1.093-1.329,1.973-1.809,3.1a19.871,19.871,0,0,0-1.231,9.55,55.753,55.753,0,0,0,2.977,12.083c-.018-.054,4.942-2,5.394-2.179.893-.361,4.258-1.043,3.675-2.151A7.2,7.2,0,0,1,891.364,531.7Z" fill="#415bef"/>
      <path id="Path_55751" data-name="Path 55751" d="M887.7,478.838c0,.03,0,.059,0,.088.029.493.127.982.113,1.475a6.447,6.447,0,0,1-1.1,2.926l-1.189,2.06c-.913,1.582-2.031,3.254-4.079,3.053a3.282,3.282,0,0,1-2.166-1.148c-1.351-1.612-.517-3.279.3-4.871l1.651-3.228a7.236,7.236,0,0,0,.762-1.5,11.808,11.808,0,0,0,.026-1.578,5.294,5.294,0,0,1,.936-3.014,3.022,3.022,0,0,1,2.508-1.1C889.236,472.255,887.6,476.418,887.7,478.838Z" fill="#fd994e"/>
      <path id="Path_55752" data-name="Path 55752" d="M880.2,473.334a3.647,3.647,0,0,0,.57,2.285,3.264,3.264,0,0,0,2.392,1.025,3.748,3.748,0,0,0,1.542-.143c2.192-.778,3.749-4.108,4.185-6.242a4,4,0,0,0,.035-1.693,3.347,3.347,0,0,0-1.627-2.062,6.344,6.344,0,0,0-2.556-.737,4.038,4.038,0,0,0-1.958.174C880.666,466.808,880.2,471.392,880.2,473.334Z" fill="#fdad71"/>
      <path id="Path_55753" data-name="Path 55753" d="M867.464,559.228c-1.325.462-.325-1.5-.74-2.118a.939.939,0,0,0-1.1-.384c-.45.19-.626.742-.994,1.066a2.416,2.416,0,0,1-2.332.065,4.39,4.39,0,0,1-2.391-1.407c.514-.568,1.418-.4,2.151-.6,1.316-.364,1.563-1.759,2.519-2.494,1.048-.807,2.6-1.357,3.533-.087,1.3,1.771.334,3.586-.284,5.485a.908.908,0,0,1-.172.351A.465.465,0,0,1,867.464,559.228Z" fill="#2962bf"/>
      <path id="Path_55754" data-name="Path 55754" d="M864.95,554.423a9.942,9.942,0,0,1-.342-3.971q.32-9.536,1.008-19.055a16.668,16.668,0,0,1,.938-5.166,15.491,15.491,0,0,1,3.376-4.639q2.013-2.107,4.138-4.1c.913-.857,2.25-1.742,3.287-1.047.883.592.847,1.913.589,2.954a13.765,13.765,0,0,1-1.381,3.462c-1.269,2.242-2.9,4.326-3.284,6.962a40.117,40.117,0,0,0-.1,4.193c-.24,6.034-4.392,11.341-4.764,17.368a6.993,6.993,0,0,1-.5,2.914,1.758,1.758,0,0,1-2.451.821A1.834,1.834,0,0,1,864.95,554.423Z" fill="#fdad71"/>
      <path id="Path_55755" data-name="Path 55755" d="M890.787,508.185a8.582,8.582,0,0,1-.294,1.994c-1.273,4.442-6.008,5.13-9.218,7.576-2.591,1.975-2.849,6.227-3.809,9.145-1.4,4.248-3.416,8.615-4.563,12.842-.8-.051-9.181-.831-9.181-1.261a114.077,114.077,0,0,1,6.167-29.04c1.515-4.144,3.544-8.936,7.225-11.625a8.392,8.392,0,0,1,12.165,2.534,13.574,13.574,0,0,1,1.525,6.942C890.8,507.59,890.8,507.888,890.787,508.185Z" fill="#4962f0"/>
      <path id="Path_55756" data-name="Path 55756" d="M895.837,451.822a1.458,1.458,0,0,1-.568-.947,1.668,1.668,0,0,1,.4-.873,4.451,4.451,0,0,0-1.36-6.015q.366,1.344.733,2.69a4.5,4.5,0,0,0-1.785-2.477,12.638,12.638,0,0,0,.961,2.9,7.453,7.453,0,0,0-1.869-1.826c.61.414.893,3.182.685,3.859a9.824,9.824,0,0,0-.559,1.818c-.279,2.705,2.96,6.111,4.3,8.229.379.6.867,1.264,1.567,1.287a1.47,1.47,0,0,0,1.341-1.236c.138-.651.793-1.041.579-1.671C899.53,455.419,897.42,453.379,895.837,451.822Z" fill="#fd994e"/>
      <path id="Path_55757" data-name="Path 55757" d="M895.6,458.142c-.22.412-.095.761.139,1.645a24.7,24.7,0,0,1,1.14,6.3,15.814,15.814,0,0,1-2.6,8.6c-1.465,2.239-4.568,3.7-4.411,6.634a12.161,12.161,0,0,0,.709,3.495,4.44,4.44,0,0,0,.655,1.275,4.153,4.153,0,0,0,1.217.977,4.8,4.8,0,0,0,2.284.724c1.995.024,4.06-2.563,5.3-3.941a22.325,22.325,0,0,0,3.663-5.472,18.773,18.773,0,0,0,.922-13.184,33.217,33.217,0,0,0-4.686-10.155c-.527-.7-3.284,1.929-3.714,2.368A3.48,3.48,0,0,0,895.6,458.142Z" fill="#fed802"/>
      <path id="Path_55758" data-name="Path 55758" d="M875.642,452.119a1.461,1.461,0,0,0,.574-.943,1.665,1.665,0,0,0-.39-.875,4.451,4.451,0,0,1,1.4-6.007q-.376,1.344-.751,2.686a4.493,4.493,0,0,1,1.8-2.465,12.64,12.64,0,0,1-.98,2.891,7.474,7.474,0,0,1,1.881-1.815c-.612.411-.914,3.176-.71,3.855a9.912,9.912,0,0,1,.548,1.821c.261,2.708-3,6.091-4.353,8.2-.382.6-.875,1.258-1.575,1.276a1.47,1.47,0,0,1-1.333-1.245c-.134-.651-.786-1.046-.568-1.674C871.926,455.691,874.049,453.665,875.642,452.119Z" fill="#fdad71"/>
      <path id="Path_55759" data-name="Path 55759" d="M895.677,485.8a15.45,15.45,0,0,0-.645-4.808,4.582,4.582,0,0,0-3.707-3.412c-1.834-.16-3.006,1.274-4.671,1.662a9.453,9.453,0,0,1-4.825-.391,3.772,3.772,0,0,0-2.545.174,13.339,13.339,0,0,1-4.7-8.793,21.011,21.011,0,0,1,.426-7.195c.33-1.5,1.287-3.156.728-4.553a2.409,2.409,0,0,0-.52-.789c-.432-.447-3.166-3.089-3.7-2.391a33.208,33.208,0,0,0-4.751,10.123c-2.551,8.6.977,15.954,7.027,21.215a10.711,10.711,0,0,0,.633,3.061,11.121,11.121,0,0,1,.945,4.82c-.286,2.005-1.6,4.249-2.324,6.145a.9.9,0,0,0-.086.437.86.86,0,0,0,.437.528c2.539,1.7,5.735,2.032,8.789,2.108a66.909,66.909,0,0,0,11.234-.672c-.291.042-1.1-7.03-1.042-7.717.187-2.393,1.692-4.086,2.6-6.228A9.382,9.382,0,0,0,895.677,485.8Z" fill="#fed802"/>
      <path id="Path_55760" data-name="Path 55760" d="M892.409,467.46a14.88,14.88,0,0,0,1.344,2.3,8.785,8.785,0,0,1,2.083,3.354A5.586,5.586,0,0,1,895,477.9a7.539,7.539,0,0,1-3.515,2.322,27.783,27.783,0,0,1-5.448,1.294c-.767.113-1.329.125-1.806.835-.149.221-.663,1.483-.262,1.677a3.107,3.107,0,0,1-1.372-3.312c.356-2.291,1.793-3.713.948-6.144-.541-1.555-2.041-2.473-2.689-3.965a6.8,6.8,0,0,1-.374-4.017c.553-2.712,2.768-4.73,5.629-4.032a10.294,10.294,0,0,1,5.913,4.293C892.166,467.046,892.291,467.251,892.409,467.46Z" fill="#094ab5"/>
    </g>
    <g id="Group_10895" data-name="Group 10895" transform="translate(-187.581 4995.994)">
      <path id="Path_55761" data-name="Path 55761" d="M816.834,461.978a14.793,14.793,0,0,0,1.3,3.364c-1.709-.063-8.319.841-9.664.417,1.866-.57,4.084-2.278,5.95-2.848Z" fill="#fc819d"/>
      <path id="Path_55762" data-name="Path 55762" d="M817.153,425.591a126.89,126.89,0,0,1,.437,13.251c-.073,7.776.774,16.21-.43,23.893l-4.1.894c-3.283-17.216-6-33.136-9.127-51.651-.39-2.313-.024-4.692-.036-7.038.009,1.73,12.489,2.038,13.472,3.872.918,1.714.225,5.97.289,7.934C817.751,419.677,816.9,422.7,817.153,425.591Z" fill="#245ebd"/>
      <path id="Path_55763" data-name="Path 55763" d="M839.532,460.13a14.786,14.786,0,0,0,3.07,1.89l-4.192,2.958a15.808,15.808,0,0,1-3.649,2.115l3.413-4.755Z" fill="#fc819d"/>
      <path id="Path_55764" data-name="Path 55764" d="M834.044,435.929c4.077,7.378,6.284,16.89,7.128,24.621l-3.725,1.934c-8.489-15.049-13.728-26.359-22.43-42.475-1.114-2.064-1.116-9.524-1.74-11.785.461,1.668,12.587-1.294,14.015.22,1.334,1.415,1.777,5.7,2.35,7.583C830.5,418.832,831.746,431.771,834.044,435.929Z" fill="#2962bf"/>
      <path id="Path_55765" data-name="Path 55765" d="M839.086,355.236a.666.666,0,0,1-.135.215c-.274.205-.372,0-.3-.374a3.392,3.392,0,0,0,.051-.911c-.016-.2-.086-.438-.281-.482-.239-.054-.4.225-.489.455l-.423,1.17a.424.424,0,0,1-.144.228.3.3,0,0,1-.4-.177,1.05,1.05,0,0,1-.022-.493,3.3,3.3,0,0,0-.059-.987.208.208,0,0,0-.087-.155.169.169,0,0,0-.1-.014.887.887,0,0,0-.693.664c-.108.322-.127.671-.262.983a3.525,3.525,0,0,1-1.127,1.184,1.849,1.849,0,0,0-.823,1.366,1.752,1.752,0,0,0,1.385,1.581,2.627,2.627,0,0,0,.686-.007c.735-.063,1.487.087,2.2.032a5.4,5.4,0,0,1,1.292-3.146,3.44,3.44,0,0,0,.584-1.621.683.683,0,0,0-.047-.386.272.272,0,0,0-.329-.142.443.443,0,0,0-.185.271C839.338,354.6,839.2,354.986,839.086,355.236Z" fill="#fdad71"/>
      <path id="Path_55766" data-name="Path 55766" d="M828.727,375.046c-1.816,3.4-4.331,6.892-8.091,7.729-4.507,1.005-9.062-2.438-10.865-6.689a22.073,22.073,0,0,1-1.474-9.21,41.407,41.407,0,0,1,.445-4.908c.128-.866.751-2.11.431-2.977a3.229,3.229,0,0,0-2.856-1.373c-.757.295-1.861,2.745-2.262,3.463a26.032,26.032,0,0,0-.8,23.6c1.543,3.168,1.426,5.1,1.3,8.479-.224,6-1.3,11.665-1.144,17.679a29.624,29.624,0,0,0,12.657,2.661,88.525,88.525,0,0,0,12.979-1.136c-.864-6.935-.571-13.608-.223-20.581a3.385,3.385,0,0,1,.306-1.495,3.648,3.648,0,0,1,1.055-1.041,23.9,23.9,0,0,0,9.25-18.472c.035-3.621.047-7.57-1.356-10.976a.953.953,0,0,0-.265-.412,1,1,0,0,0-.742-.1c-1.1.137-2.5-.354-2.935,1.1-.337,1.135-.467,2.331-.813,3.49A60.344,60.344,0,0,1,828.727,375.046Z" fill="#7c3ff0"/>
      <path id="Path_55767" data-name="Path 55767" d="M805.912,353.35c.072.111.132.209.175.277s.075.113.138.121c.14.02.17-.192.138-.33l-.261-1.132a1.376,1.376,0,0,1-.045-.629.471.471,0,0,1,.443-.383c.436.029.422,1.3.484,1.626a.631.631,0,0,0,.126.321.217.217,0,0,0,.308.025.3.3,0,0,0,.055-.13,2.8,2.8,0,0,0,.056-.935,1.7,1.7,0,0,1-.015-.622.412.412,0,0,1,.456-.328c.237.065.288.371.3.616a3.045,3.045,0,0,0,.8,2.091c.259.238.584.4.829.65,1.275,1.309.218,3.171-.674,4.307.259-.33-1.053-.845-1.224-.877-.641-.117-1.3-.063-1.943-.192a5.013,5.013,0,0,0-.377-2.618c-.2-.371-.486-.694-.692-1.063-.156-.279-.664-1.373-.233-1.587S805.64,352.933,805.912,353.35Z" fill="#fd994e"/>
      <path id="Path_55768" data-name="Path 55768" d="M819.284,385.061c-1.343.712-3.009.873-3.97-.268a3,3,0,0,1-.537-1.442,13.845,13.845,0,0,1-.3-3.563,5.323,5.323,0,0,1,1.321-3.26,3.333,3.333,0,0,1,3.26-.994,2.953,2.953,0,0,1,2.093,2.863c.129,1.606.785,3.42-.019,4.947A4.463,4.463,0,0,1,819.284,385.061Z" fill="#fd994e"/>
      <path id="Path_55769" data-name="Path 55769" d="M813.567,379.41a3.515,3.515,0,0,0,.79,2.16,3.264,3.264,0,0,0,2.46.752,3.763,3.763,0,0,0,1.505-.3c1.93-.9,2.06-2.955,3.283-4.376.629-.731.448-1.1.3-1.934a11.019,11.019,0,0,0-.218-1.817,3.276,3.276,0,0,0-1.81-1.837,6.37,6.37,0,0,0-2.593-.456,4.087,4.087,0,0,0-1.912.367C813.379,373.03,813.377,377.525,813.567,379.41Z" fill="#fdad71"/>
      <path id="Path_55770" data-name="Path 55770" d="M820.747,374.663a3.147,3.147,0,0,0-.045-.56c-.1-.53-.118-1.074-.183-1.612-1.311.764-2.933.618-4.45.584a3.5,3.5,0,0,0-1.323.152,1.312,1.312,0,0,0-.867.942c.007-2.014.23-4.256,2.5-4.878,1.922-.526,3.6.559,5.234,1.386a3.456,3.456,0,0,1,1.774,1.655,4.191,4.191,0,0,1-.515,3.17,6.854,6.854,0,0,1-1.691,2.753,2.935,2.935,0,0,0,.472-.893,1.46,1.46,0,0,0,.063-.81.741.741,0,0,0-.545-.557.5.5,0,0,0-.589.426C820.619,375.858,820.745,375.247,820.747,374.663Z" fill="#094ab5"/>
    </g>
    <path id="Path_55771" data-name="Path 55771" d="M643.435,282.778a9.394,9.394,0,0,0-10.749,7.8,9.392,9.392,0,1,0-18.551-2.945c-1.929,12.149,14.678,27.344,14.678,27.344s20.5-9.3,22.425-21.453A9.393,9.393,0,0,0,643.435,282.778Z" transform="translate(-187.581 4995.994)" fill="#fc819d"/>
    <path id="Path_55772" data-name="Path 55772" d="M401.778,317.954a8.778,8.778,0,0,0-4.47,11.581,8.778,8.778,0,1,0-16.051,7.112c4.657,10.512,25.4,14,25.4,14s11.355-17.711,6.7-28.222A8.778,8.778,0,0,0,401.778,317.954Z" transform="translate(-187.581 4995.994)" fill="#fed802"/>
    <path id="Path_55773" data-name="Path 55773" d="M1210.995,310.458a8.779,8.779,0,0,0-4.47,11.582,8.778,8.778,0,1,0-16.051,7.111c4.657,10.513,25.405,14,25.405,14s11.355-17.71,6.7-28.222A8.778,8.778,0,0,0,1210.995,310.458Z" transform="translate(-187.581 4995.994)" fill="#415bef"/>
    <path id="Path_55774" data-name="Path 55774" d="M351.743,457.892a8.778,8.778,0,0,0-11.167,5.423,8.778,8.778,0,1,0-16.59-5.743c-3.762,10.864,9.036,27.563,9.036,27.563s20.383-5.211,24.144-16.076A8.778,8.778,0,0,0,351.743,457.892Z" transform="translate(-187.581 4995.994)" fill="#651ded"/>
    <path id="Path_55775" data-name="Path 55775" d="M1089.633,291.421a6.8,6.8,0,0,0-9.374,2.162,6.8,6.8,0,0,0-11.536-7.213c-4.723,7.555,2.05,22.385,2.05,22.385s16.3-.4,21.022-7.959A6.8,6.8,0,0,0,1089.633,291.421Z" transform="translate(-187.581 4995.994)" fill="#05ccfc"/>
    <path id="Path_55776" data-name="Path 55776" d="M1072.467,448.756a5.1,5.1,0,0,1-9.738-3.053,5.1,5.1,0,0,0-6.4,3.342c-2,6.377,5.723,15.86,5.723,15.86s11.753-3.377,13.752-9.754A5.1,5.1,0,0,0,1072.467,448.756Z" transform="translate(-187.581 4995.994)" fill="#fc819d"/>
    <path id="Path_55777" data-name="Path 55777" d="M269.863,350.3a5.1,5.1,0,0,0-3.964,6.03A5.1,5.1,0,0,0,255.9,358.4c1.353,6.544,12.711,11.077,12.711,11.077s8.63-8.665,7.276-15.21A5.1,5.1,0,0,0,269.863,350.3Z" transform="translate(-187.581 4995.994)" fill="#fc819d"/>
    <path id="Path_55778" data-name="Path 55778" d="M1134.995,393.924A5.1,5.1,0,1,1,1125,395.99a5.1,5.1,0,0,0-3.964,6.03c1.353,6.545,12.711,11.077,12.711,11.077s8.63-8.665,7.277-15.209A5.1,5.1,0,0,0,1134.995,393.924Z" transform="translate(-187.581 4995.994)" fill="#fed802"/>
    <path id="Path_55779" data-name="Path 55779" d="M834.16,338.859a8.954,8.954,0,0,0-11.176,5.954,8.954,8.954,0,1,0-17.13-5.22c-3.419,11.218,10.264,27.75,10.264,27.75s20.578-6.09,24-17.309A8.954,8.954,0,0,0,834.16,338.859Z" transform="translate(-187.581 4995.994)" fill="#fc819d"/>
    <g id="Group_10907" data-name="Group 10907" transform="translate(-187.581 4995.994)">
      <g id="Group_10901" data-name="Group 10901">
        <g id="Group_10898" data-name="Group 10898">
          <path id="Path_55780" data-name="Path 55780" d="M434.959,610.033c10.569-4.6,22.563-4.888,33.982-3.323S491.456,611.6,502.729,614s22.982,3.876,34.3,1.7c2.39-.459,4.893-1.161,6.533-2.961s1.925-5.014-.012-6.489l7.831-47.935c1.936,1.474,1.65,4.689.011,6.489s-4.142,2.5-6.532,2.96c-11.32,2.173-23.029.7-34.3-1.7s-22.369-5.723-33.788-7.289-23.414-1.275-33.983,3.324a89.352,89.352,0,0,1,24.923,22.217C454.042,589.51,444.17,598.676,434.959,610.033Z" fill="#004ca6"/>
          <g id="Group_10897" data-name="Group 10897">
            <path id="Path_55781" data-name="Path 55781" d="M544.633,607.749a3.335,3.335,0,0,0-.674-1.086,37.1,37.1,0,0,1-19.476,3.612c-7.135-.458-14.209-2.352-21.05-4.184-2.369-.634-4.817-1.29-7.236-1.877a160.266,160.266,0,0,0-52.688-3.751c-.471.47-.939.942-1.4,1.424a159.024,159.024,0,0,1,53.788,3.568c2.406.585,4.847,1.238,7.208,1.871,6.9,1.847,14.038,3.758,21.3,4.224q1.54.1,3.044.1A37,37,0,0,0,544.633,607.749Z" fill="#fff"/>
            <path id="Path_55782" data-name="Path 55782" d="M447.263,564.989q.762.522,1.517,1.062c21.458-3.443,43.424,2.125,62.37,8.237l2.934.952c9.764,3.184,19.85,6.421,30.254,6.43,1.1-.005,2.182-.056,3.254-.145l.214-1.309c-1.143.1-2.3.171-3.473.176h-.208c-10.117,0-20.044-3.237-29.646-6.367l-2.937-.955C492.063,566.788,469.4,561.053,447.263,564.989Z" fill="#fff"/>
          </g>
          <path id="Path_55783" data-name="Path 55783" d="M543.552,606.253l1.59-9.731a36.193,36.193,0,0,0-11.4-1.755c-4.253.118-8.736,2.955-12.1,5.557,1.909.507,2.869,2.912,2.249,4.787a6.173,6.173,0,0,1-4.325,3.7,18.241,18.241,0,0,1-5.889.329l-44.1-2.328c11.194,1.6,22.087,4.833,33.149,7.189,11.274,2.4,22.982,3.876,34.3,1.7,2.39-.459,4.893-1.161,6.533-2.961S545.489,607.728,543.552,606.253Z" opacity="0.1"/>
          <path id="Path_55784" data-name="Path 55784" d="M495.89,592.035c3.587,4.859,9.769,7.1,15.751,7.931s12.093.515,18.044,1.544,12.035,3.722,15.123,8.914a94.043,94.043,0,0,0,6.836-30.5c-13.007-5.984-28.43-6.394-42.031-1.925C503.186,580.107,496.7,585.319,495.89,592.035Z" fill="#003578"/>
          <path id="Path_55785" data-name="Path 55785" d="M519.427,591.419c6.64-.077,13.2,1.3,19.825,1.8a43.9,43.9,0,0,0,10.794-.4,87.286,87.286,0,0,0,1.468-11.049c-.452-.234-.91-.459-1.369-.678a75.84,75.84,0,0,0-18-5.976A60.432,60.432,0,0,0,509.613,578c-6.4,2.1-12.862,7.288-13.711,13.97.013.046.03.089.044.134a17.482,17.482,0,0,0,6.249,5.057C506.771,593.066,513.237,591.491,519.427,591.419Z" opacity="0.2"/>
        </g>
        <g id="Group_10900" data-name="Group 10900">
          <path id="Path_55786" data-name="Path 55786" d="M1004.64,610.033c-10.569-4.6-22.563-4.888-33.982-3.323S948.143,611.6,936.869,614s-22.982,3.876-34.3,1.7c-2.391-.459-4.894-1.161-6.533-2.961s-1.925-5.014.011-6.489l-7.83-47.935c-1.937,1.474-1.65,4.689-.011,6.489s4.142,2.5,6.532,2.96c11.32,2.173,23.028.7,34.3-1.7s22.369-5.723,33.788-7.289,23.413-1.275,33.982,3.324a89.348,89.348,0,0,0-24.922,22.217C985.557,589.51,995.428,598.676,1004.64,610.033Z" fill="#004ca6"/>
          <g id="Group_10899" data-name="Group 10899">
            <path id="Path_55787" data-name="Path 55787" d="M894.966,607.749a3.35,3.35,0,0,1,.673-1.086,37.1,37.1,0,0,0,19.476,3.612c7.136-.458,14.21-2.352,21.051-4.184,2.368-.634,4.817-1.29,7.236-1.877a160.266,160.266,0,0,1,52.688-3.751c.47.47.939.942,1.4,1.424a159.027,159.027,0,0,0-53.788,3.568c-2.406.585-4.847,1.238-7.208,1.871-6.9,1.847-14.037,3.758-21.3,4.224q-1.54.1-3.044.1A37,37,0,0,1,894.966,607.749Z" fill="#fff"/>
            <path id="Path_55788" data-name="Path 55788" d="M992.335,564.989q-.762.522-1.517,1.062c-21.457-3.443-43.424,2.125-62.369,8.237l-2.934.952c-9.764,3.184-19.85,6.421-30.255,6.43-1.1-.005-2.181-.056-3.253-.145l-.214-1.309c1.143.1,2.3.171,3.472.176h.209c10.116,0,20.043-3.237,29.646-6.367l2.937-.955C947.536,566.788,970.2,561.053,992.335,564.989Z" fill="#fff"/>
          </g>
          <path id="Path_55789" data-name="Path 55789" d="M896.046,606.253l-1.589-9.731a36.189,36.189,0,0,1,11.4-1.755c4.253.118,8.735,2.955,12.1,5.557-1.909.507-2.868,2.912-2.248,4.787a6.169,6.169,0,0,0,4.325,3.7,18.236,18.236,0,0,0,5.888.329l44.1-2.328c-11.194,1.6-22.087,4.833-33.15,7.189-11.273,2.4-22.982,3.876-34.3,1.7-2.391-.459-4.894-1.161-6.533-2.961S894.11,607.728,896.046,606.253Z" opacity="0.2"/>
          <path id="Path_55790" data-name="Path 55790" d="M943.709,592.035c-3.588,4.859-9.769,7.1-15.752,7.931s-12.092.515-18.044,1.544-12.035,3.722-15.122,8.914a94.018,94.018,0,0,1-6.836-30.5c13.007-5.984,28.429-6.394,42.031-1.925C936.413,580.107,942.9,585.319,943.709,592.035Z" fill="#003578"/>
          <path id="Path_55791" data-name="Path 55791" d="M920.171,591.419c-6.639-.077-13.2,1.3-19.825,1.8a43.9,43.9,0,0,1-10.794-.4,87.463,87.463,0,0,1-1.467-11.049c.452-.234.91-.459,1.368-.678a75.846,75.846,0,0,1,18-5.976A60.435,60.435,0,0,1,929.986,578c6.4,2.1,12.862,7.288,13.711,13.97-.014.046-.031.089-.044.134a17.482,17.482,0,0,1-6.249,5.057C932.828,593.066,926.362,591.491,920.171,591.419Z" opacity="0.2"/>
        </g>
        <path id="Path_55792" data-name="Path 55792" d="M945.71,528.218c-6.317-7.3-16.523-10.184-26.177-10.091s-19.066,2.755-28.5,4.8c-24.683,5.346-50.481,3.681-75.582,3.867-38.462,0-228.84,3.256-266.832-3.867-9.435-2.044-18.848-4.706-28.5-4.8s-19.86,2.791-26.177,10.091c-2.466,2.851-1.431,7.424.072,10.881a66.073,66.073,0,0,1,1.317,48.841c-1.152,3.093.555,6.426,3.408,8.085a16.3,16.3,0,0,0,4.39,1.685,5.481,5.481,0,0,1-1.663-4.121c.119-3.7,3.329-6.715,6.858-7.831s7.333-.749,11.017-.393c39.032,3.773,78.289,4.114,117.471,4.025,38.137-.087,227.741.433,265.795-2.489q8.861-.681,17.706-1.536c3.684-.356,7.488-.723,11.017.393s6.739,4.131,6.858,7.831a5.482,5.482,0,0,1-1.663,4.121,16.3,16.3,0,0,0,4.39-1.685c2.853-1.659,4.56-4.992,3.408-8.085a66.073,66.073,0,0,1,1.317-48.841C947.141,535.642,948.176,531.069,945.71,528.218Z" fill="#005fcb"/>
        <path id="Path_55793" data-name="Path 55793" d="M493.457,533.54a6.262,6.262,0,0,0-.8,1.194A17.18,17.18,0,0,0,493.22,537a5.4,5.4,0,0,1,1.2-2.627c5.44-6.288,14.616-9.873,25.232-9.873l.456,0c7.729.074,15.456,1.845,22.928,3.559,1.815.416,3.629.832,5.462,1.228,28.995,5.436,58.995,4.833,88,4.25,9.053-.183,169.784-.371,178.957-.371,5.231-.039,10.59,0,15.773.044,19.827.159,40.335.32,59.938-3.926,1.815-.393,3.63-.809,5.444-1.225,7.473-1.714,15.2-3.485,22.929-3.559,10.849-.107,20.17,3.493,25.687,9.87a5.4,5.4,0,0,1,1.2,2.627,16.994,16.994,0,0,0,.566-2.27,6.192,6.192,0,0,0-.8-1.193c-5.763-6.661-15.442-10.371-26.666-10.312-7.868.076-15.663,1.863-23.2,3.591-1.811.415-3.62.83-5.43,1.222-19.467,4.216-39.9,4.054-59.658,3.9-5.188-.04-10.553-.082-15.788-.045-9.181,0-169.919.189-178.977.371-28.94.582-58.871,1.185-87.721-4.224-1.809-.392-3.619-.807-5.429-1.222-7.537-1.728-15.333-3.515-23.2-3.591C508.928,523.112,499.221,526.878,493.457,533.54Z" fill="#fff"/>
        <path id="Path_55794" data-name="Path 55794" d="M943.44,585.379c-.243-.75-.463-1.506-.678-2.264-5.822-4.6-14-7.1-23.235-7.054-7.868.076-15.663,1.863-23.2,3.591-1.811.415-3.62.83-5.43,1.222-19.467,4.216-39.9,4.054-59.658,3.9-5.188-.04-10.553-.082-15.788-.044-9.181,0-169.919.188-178.977.37-28.94.582-58.871,1.185-87.721-4.224-1.809-.392-3.619-.807-5.429-1.222-7.537-1.728-15.333-3.515-23.2-3.591-9.209-.095-17.406,2.442-23.234,7.051-.215.759-.436,1.517-.679,2.267,5.548-5.143,13.911-8.043,23.445-8.043l.456,0c7.729.074,15.456,1.845,22.928,3.559,1.815.416,3.629.832,5.462,1.228,28.995,5.437,58.995,4.833,88,4.25,9.053-.182,169.784-.371,178.957-.371,5.231-.038,10.59,0,15.773.045,19.827.159,40.335.319,59.938-3.927,1.815-.393,3.63-.809,5.444-1.225,7.473-1.714,15.2-3.485,22.929-3.559C929.3,577.244,937.811,580.154,943.44,585.379Z" fill="#fff"/>
        <path id="Path_55795" data-name="Path 55795" d="M500.841,533.656c-1.615,1.042-3.338,2.648-2.96,4.532.322,1.6,2.122,2.535,3.754,2.487a12.4,12.4,0,0,0,4.626-1.491,47.018,47.018,0,0,1,14.852-3.987c2.122-.208,4.747-.627,5.393-2.66s-1.407-4.008-3.481-4.523C515.736,526.205,506.895,529.752,500.841,533.656Z" fill="#272727" style="mix-blend-mode: screen;isolation: isolate"/>
        <path id="Path_55796" data-name="Path 55796" d="M542.422,533.506c-.381,1.968-3.295,3.06-6.51,2.439s-5.511-2.722-5.13-4.691,3.3-3.06,6.509-2.439S542.8,531.537,542.422,533.506Z" fill="#272727" style="mix-blend-mode: screen;isolation: isolate"/>
        <path id="Path_55797" data-name="Path 55797" d="M936.13,532.353c1.484.84,3.09,2.282,2.643,3.928a2.823,2.823,0,0,1-2.125,1.835,8.34,8.34,0,0,1-2.931.007l-23.484-2.735c-1.009-.118-2.163-.326-2.672-1.2a2.267,2.267,0,0,1,.865-2.812c3.355-2.389,9.891-2.884,13.876-2.787A29.644,29.644,0,0,1,936.13,532.353Z" fill="#272727" style="mix-blend-mode: screen;isolation: isolate"/>
      </g>
      <g transform="matrix(1, 0, 0, 1, 255.8, 242.53)" filter="url(#Chia_sẻ_yêu_thương)">
        <text id="Chia_sẻ_yêu_thương-2" data-name="Chia sẻ yêu thương" transform="translate(284.78 327.47)" fill="#fff" font-size="29" font-family="PottaOne-Regular, Potta One" letter-spacing="0.019em"><tspan x="0" y="0">CHIA SẺ YÊU THƯƠNG</tspan></text>
      </g>
    </g>
  </g>
</svg>
