<svg xmlns="http://www.w3.org/2000/svg" xmlns:xlink="http://www.w3.org/1999/xlink" width="790.962" height="566.331" viewBox="0 0 790.962 566.331">
  <defs>
    <filter id="Chia_sẻ_yêu_thương" x="149.464" y="456.703" width="508" height="62" filterUnits="userSpaceOnUse">
      <feOffset dx="2" dy="2" input="SourceAlpha"/>
      <feGaussianBlur result="blur"/>
      <feFlood flood-color="#000816"/>
      <feComposite operator="in" in2="blur"/>
      <feComposite in="SourceGraphic"/>
    </filter>
  </defs>
  <g id="Group_11124" data-name="Group 11124" transform="translate(1463.464 -2982.297)">
    <g id="Group_10783" data-name="Group 10783" transform="translate(-1785.881 4574.812)">
      <path id="Path_55288" data-name="Path 55288" d="M717.8-1541.27l-175.323,157.3L717.8-1226.64l175.334-157.333Z" fill="#d1b514"/>
      <g id="Group_10782" data-name="Group 10782">
        <path id="Path_55289" data-name="Path 55289" d="M811.218-1522.357a73.967,73.967,0,0,0-84.06,62.261,73.968,73.968,0,0,0-62.262-84.06,73.968,73.968,0,0,0-84.06,62.262c-14.275,95.824,117.653,214.239,117.653,214.239S859.205-1342.473,873.48-1438.3A73.967,73.967,0,0,0,811.218-1522.357Z" fill="#c0a826" opacity="0.65" style="mix-blend-mode: multiply;isolation: isolate"/>
        <path id="Path_55290" data-name="Path 55290" d="M815.749-1527.386a73.968,73.968,0,0,0-87.079,57.964,73.969,73.969,0,0,0-57.964-87.08,73.969,73.969,0,0,0-87.08,57.964c-19.067,94.987,106.751,219.875,106.751,219.875s164.269-66.656,183.336-161.643A73.968,73.968,0,0,0,815.749-1527.386Z" fill="#ff4436"/>
      </g>
      <path id="Path_55291" data-name="Path 55291" d="M542.474-1383.972,717.8-1236.589l175.329-147.384v237.208H542.474Z" fill="#eac907"/>
      <path id="Path_55292" data-name="Path 55292" d="M671.406-1275.59,542.474-1146.764H893.131l-128.612-129.1Z" fill="#fed802"/>
    </g>
    <g id="Group_10785" data-name="Group 10785" transform="translate(-1785.881 4574.812)">
      <g id="Group_10784" data-name="Group 10784">
        <path id="Path_55293" data-name="Path 55293" d="M888.9-1104.265h-2.831l-19.51-140.529h2.555Z" fill="#05ccfc"/>
        <path id="Path_55294" data-name="Path 55294" d="M931.834-1104.265H929l-23.692-140.529h2.555Z" fill="#05ccfc"/>
        <path id="Path_55295" data-name="Path 55295" d="M908.99-1230.631H870.243l-.4-2.82h38.664Z" fill="#05ccfc"/>
        <path id="Path_55296" data-name="Path 55296" d="M912.462-1210.159h-39.35l-.407-2.908h39.264Z" fill="#05ccfc"/>
        <path id="Path_55297" data-name="Path 55297" d="M916.043-1189.04H876.071l-.421-3h39.883Z" fill="#05ccfc"/>
        <path id="Path_55298" data-name="Path 55298" d="M919.739-1167.244H879.126l-.434-3.1h40.522Z" fill="#05ccfc"/>
        <path id="Path_55299" data-name="Path 55299" d="M923.556-1144.736H882.28l-.448-3.2h41.181Z" fill="#05ccfc"/>
        <path id="Path_55300" data-name="Path 55300" d="M927.5-1121.482h-41.96l-.463-3.306h41.863Z" fill="#05ccfc"/>
        <path id="Path_55301" data-name="Path 55301" d="M911.231-1242.578H864.3l-.756-5.526h46.729Z" fill="#05ccfc"/>
      </g>
      <path id="Path_55302" data-name="Path 55302" d="M867.508-1104.265h2.831l19.51-140.529h-2.555Z" fill="#32d5fd"/>
      <path id="Path_55303" data-name="Path 55303" d="M824.57-1104.265H827.4l23.693-140.529h-2.555Z" fill="#32d5fd"/>
      <path id="Path_55304" data-name="Path 55304" d="M847.414-1230.631h38.747l.4-2.82H847.892Z" fill="#32d5fd"/>
      <path id="Path_55305" data-name="Path 55305" d="M843.942-1210.159h39.35l.408-2.908H844.435Z" fill="#32d5fd"/>
      <path id="Path_55306" data-name="Path 55306" d="M840.361-1189.04h39.972l.42-3H840.87Z" fill="#32d5fd"/>
      <path id="Path_55307" data-name="Path 55307" d="M836.665-1167.244h40.613l.434-3.1H837.19Z" fill="#32d5fd"/>
      <path id="Path_55308" data-name="Path 55308" d="M832.848-1144.736h41.276l.448-3.2H833.391Z" fill="#32d5fd"/>
      <path id="Path_55309" data-name="Path 55309" d="M828.9-1121.482h41.96l.463-3.306H829.465Z" fill="#32d5fd"/>
      <path id="Path_55310" data-name="Path 55310" d="M845.174-1242.578H892.1l.756-5.526H846.129Z" fill="#32d5fd"/>
    </g>
    <path id="Path_55311" data-name="Path 55311" d="M970.4-1201.449a8.667,8.667,0,0,0-12.256,0,8.667,8.667,0,0,0,0,12.256,8.667,8.667,0,0,0,12.256,0A8.667,8.667,0,0,0,970.4-1201.449Z" transform="translate(-1785.881 4574.812)" fill="#66d2b8"/>
    <g id="Group_10786" data-name="Group 10786" transform="translate(-1785.881 4574.812)">
      <path id="Path_55312" data-name="Path 55312" d="M589.57-1480.867a9.858,9.858,0,0,0-.614-5.28,4.974,4.974,0,0,0-4.884-2.661A278.453,278.453,0,0,1,566.82-1459a31.913,31.913,0,0,0-3.981,7.189,8.28,8.28,0,0,0,.657,7.469c2.1,2.972,7.633,4.044,11.44,2.136,3.711-1.86,5.416-7.264,6.936-10.451A80.212,80.212,0,0,0,589.57-1480.867Z" fill="#651ded"/>
      <path id="Path_55313" data-name="Path 55313" d="M533.517-1331.65c1.579,1.491,1.4-1.869,2.378-2.469a1.467,1.467,0,0,1,1.79.169c.515.551.417,1.431.733,2.116.528,1.148,2,1.438,3.25,1.583a6.84,6.84,0,0,0,4.261-.426c-.368-1.118-1.749-1.466-2.656-2.216-1.629-1.347-1.1-3.444-1.984-5.077-.973-1.792-2.822-3.551-4.933-2.381-2.945,1.633-2.73,4.769-3.054,7.8a1.4,1.4,0,0,0,.022.6A.73.73,0,0,0,533.517-1331.65Z" fill="#4962f0"/>
      <path id="Path_55314" data-name="Path 55314" d="M539.887-1337.493c1.409-1.3,2.274-3.972,2.807-5.395q5.106-13.632,9.677-27.458a25.07,25.07,0,0,0,1.671-7.838,23.687,23.687,0,0,0-2.126-8.54q-1.655-4.164-3.532-8.233c-.808-1.749-2.206-3.789-4.1-3.423-1.609.31-2.329,2.193-2.567,3.815a20.8,20.8,0,0,0-.042,5.7c.508,3.912,1.626,7.815.639,11.759a60.2,60.2,0,0,1-2.3,5.97c-3.177,8.648-.329,18.589-3.313,27.306a10.509,10.509,0,0,0-.987,4.4c.16,1.509,1.566,3.016,3.029,2.61A2.8,2.8,0,0,0,539.887-1337.493Z" fill="#fdad71"/>
      <path id="Path_55315" data-name="Path 55315" d="M559.022-1331.151c1.76,1.273,1.147-2.035,2.039-2.757a1.466,1.466,0,0,1,1.8-.064c.583.48.6,1.365,1,2,.673,1.069,2.165,1.168,3.428,1.149a6.839,6.839,0,0,0,4.17-.974c-.51-1.061-1.924-1.227-2.92-1.854-1.789-1.125-1.535-3.273-2.625-4.777-1.2-1.651-3.257-3.157-5.2-1.723-2.709,2-2.09,5.082-2.019,8.134a1.394,1.394,0,0,0,.1.589A.734.734,0,0,0,559.022-1331.151Z" fill="#4962f0"/>
      <path id="Path_55316" data-name="Path 55316" d="M564.583-1337.77c1.229-1.474,1.741-4.233,2.085-5.713q3.3-14.178,6.042-28.479a25.056,25.056,0,0,0,.644-7.989,23.7,23.7,0,0,0-3.214-8.193q-2.178-3.914-4.568-7.706c-1.026-1.63-2.677-3.472-4.505-2.865-1.555.517-2.025,2.477-2.051,4.115a20.81,20.81,0,0,0,.7,5.657c1.01,3.813,2.623,7.539,2.155,11.578a59.944,59.944,0,0,1-1.512,6.217c-2.031,8.987,2.079,18.476.248,27.505a10.529,10.529,0,0,0-.409,4.494c.355,1.476,1.944,2.788,3.342,2.2A2.814,2.814,0,0,0,564.583-1337.77Z" fill="#fd994e"/>
      <path id="Path_55317" data-name="Path 55317" d="M537.93-1412.978a28.221,28.221,0,0,0,.61,3.775c.786,3.772,2.414,8.152,2.436,12.006.03,5.414-1.78,11.557-3.8,16.52-.18.445,9.287,2.793,10.149,2.932a45.225,45.225,0,0,0,10.986.409,51.064,51.064,0,0,0,11.355-2.415c2-.646,9.186-2.232,9.992-4.328.333-.867-.315-3.956-.329-5.03-.026-2.1-.106-4.21-.261-6.307a74.267,74.267,0,0,0-1.91-12.4c-1.9-7.654-5.7-18.689-13.354-21.544a19.29,19.29,0,0,0-7.933-.9c-7.587.466-13.853,3.234-16.9,11.175a14.834,14.834,0,0,0-1.075,5.049C537.894-1413.686,537.906-1413.332,537.93-1412.978Z" fill="#4962f0"/>
      <path id="Path_55318" data-name="Path 55318" d="M552.23-1456.925a16.356,16.356,0,0,0-6.818,4.475,15.624,15.624,0,0,0-3.083,4.421c-2.865,6.853,4.654,12.589,2.036,18.99a4.322,4.322,0,0,0-.535,1.863,2.711,2.711,0,0,0,1.141,1.8c2.437,2.008,5.665,2.561,8.746,3.048a37.132,37.132,0,0,0,9.533.671c2.21-.226,6.411-1.025,7.683-3.282,2.232-3.962.546-9.579,2.564-13.913a26.653,26.653,0,0,0,1.711-3.811,7.763,7.763,0,0,0-1.371-6.849,15.32,15.32,0,0,0-3.781-3.081,54.017,54.017,0,0,0-6.052-3.67A15.969,15.969,0,0,0,552.23-1456.925Z" fill="#7c3ff0"/>
      <path id="Path_55319" data-name="Path 55319" d="M555.152-1457.277c-1.221,4.3,3.357,8.187,7.358,9.881a2.726,2.726,0,0,0,2.364.153c1.042-.6.984-2.111.662-3.268a28.9,28.9,0,0,1-1.364-9.944,7.98,7.98,0,0,0-.926-4.731,4.712,4.712,0,0,0-3.674-2.1C553.773-1467.552,557.872-1466.841,555.152-1457.277Z" fill="#fd994e"/>
      <path id="Path_55320" data-name="Path 55320" d="M567.463-1464.348a5.5,5.5,0,0,1-1.268,3.366,5.1,5.1,0,0,1-3.859,1.139,5.92,5.92,0,0,1-2.349-.486c-3.243-1.559-5.072-6.878-5.378-10.189a6.01,6.01,0,0,1,.236-2.573,5.123,5.123,0,0,1,2.858-2.844,9.974,9.974,0,0,1,4.062-.674,6.378,6.378,0,0,1,2.986.6C567.854-1474.323,567.789-1467.292,567.463-1464.348Z" fill="#fdad71"/>
      <path id="Path_55321" data-name="Path 55321" d="M559.786-1470.347l.108-.452c.466-1.941,4.153-.938,5.732-1.893,2.084-1.259,2.336-4.48.865-6.42-1.994-2.629-6.115-3.517-8.724-1.313a10,10,0,0,0-9.057-7.955c-3.383-.17-6.9,1.41-10.065.2-1.674-.642-3.021-2.007-4.744-2.5a6.046,6.046,0,0,0-6.4,2.58,8.815,8.815,0,0,0-.972,7.091,11.6,11.6,0,0,0,6.965,7.786,11.6,11.6,0,0,0,10.384-1.148c2.3-1.524,4.314-3.98,7.071-3.981a2.228,2.228,0,0,1,1.314.349,2.35,2.35,0,0,1,.8,1.9,17.353,17.353,0,0,1-.593,3.562c-.25,1.308-.34,3.621.784,4.626a1.133,1.133,0,0,0,1.588.008,1.65,1.65,0,0,0,.25-.923c.07-1.012.58-2.371,1.569-2.149.81.182.944,1.251,1.006,2.078s.58,1.891,1.378,1.666Q559.412-1468.792,559.786-1470.347Z" fill="#094ab5"/>
      <path id="Path_55322" data-name="Path 55322" d="M586.889-1502.1c-.012-.132-.029-.263-.051-.392-.245-1.441-1.1-2.771-1.07-4.232a.4.4,0,0,1,.062-.245c.119-.147.355-.073.514.027a4.372,4.372,0,0,1,1.754,2.557c.122.481.093,1.043.487,1.384a2.735,2.735,0,0,0,.451-1.293q.254-1.54.627-3.059c.171-.7.287-2.2.824-2.712a.37.37,0,0,1,.486-.046.484.484,0,0,1,.123.282,4.8,4.8,0,0,1-.072,1.511c-.17,1.133-.286,2.269-.4,3.409a4.821,4.821,0,0,0-.166,1.222c.216.393.491-.039.581-.381a23.426,23.426,0,0,1,2.21-5.449c.147-.261.437-.561.692-.4.313.192-.451,3.047-.546,3.42-.267,1.049-.515,2.114-.71,3.183-.048.267.014.657.284.643.143-.008.244-.14.318-.263.956-1.593,1.449-3.412,2.535-4.993.11-.16.271-.337.458-.292a2.149,2.149,0,0,1-.165,1.662c-.626,1.62-1.455,3.155-2.059,4.777-.068.182-.114.424.042.54.247.181,2.365-2.075,2.745-2.239.455-.2,1.022-.221.681.542-.181.4-.973.813-1.291,1.127-1.035,1.018-2.021,2.151-2.952,3.262a8.593,8.593,0,0,0-1.465,3.329q-1.77,6.445-3.047,13.013c-.274,1.406-.825,3.355-2.115,4.175a2.777,2.777,0,0,1-3.046-.1c-3.2-2.335-1.021-7.527-.073-10.373.81-2.426,1.632-4.862,2.226-7.352C586.227-1497.8,587.088-1500.059,586.889-1502.1Z" fill="#fd994e"/>
      <path id="Path_55323" data-name="Path 55323" d="M539.018-1486.589a9.86,9.86,0,0,1,2.239-4.821,4.974,4.974,0,0,1,5.473-.994,278.5,278.5,0,0,0,7.027,33.716,31.877,31.877,0,0,1,1.525,8.076,8.283,8.283,0,0,1-2.967,6.886c-2.928,2.161-8.516,1.444-11.532-1.562-2.941-2.93-2.864-8.6-3.307-12.1A80.213,80.213,0,0,1,539.018-1486.589Z" fill="#7c3ff0"/>
      <path id="Path_55324" data-name="Path 55324" d="M548.224-1505.908c.054-.122.111-.24.173-.356.684-1.292,1.911-2.287,2.343-3.683a.4.4,0,0,0,.018-.252c-.066-.177-.314-.181-.5-.135a4.375,4.375,0,0,0-2.468,1.877c-.265.418-.415.961-.9,1.162a2.739,2.739,0,0,1-.022-1.37q.242-1.542.364-3.1c.057-.716.417-2.178.069-2.833a.37.37,0,0,0-.448-.2.48.48,0,0,0-.2.23,4.812,4.812,0,0,0-.405,1.457c-.194,1.129-.441,2.244-.692,3.361a4.823,4.823,0,0,1-.226,1.213c-.328.305-.453-.192-.432-.544a23.415,23.415,0,0,0-.389-5.867c-.057-.295-.238-.67-.531-.6-.357.084-.527,3.035-.554,3.419-.075,1.08-.174,2.17-.325,3.246-.037.268-.218.618-.471.52a.452.452,0,0,1-.219-.349c-.408-1.812-.306-3.694-.841-5.537-.054-.185-.151-.4-.343-.42a2.152,2.152,0,0,0-.365,1.63c.086,1.734.392,3.452.456,5.182.007.194-.024.438-.209.5-.292.094-1.6-2.712-1.9-2.987-.37-.33-.9-.531-.816.3.045.441.668,1.078.872,1.475.663,1.291,1.244,2.677,1.779,4.023a8.585,8.585,0,0,1,.347,3.621q-.342,6.675-1.19,13.312c-.181,1.421-.269,3.445.7,4.627a2.775,2.775,0,0,0,2.922.863c3.771-1.214,3.332-6.827,3.324-9.827-.007-2.557-.024-5.128.193-7.679C547.505-1501.619,547.4-1504.033,548.224-1505.908Z" fill="#fdad71"/>
    </g>
    <g id="Group_10791" data-name="Group 10791" transform="translate(-1785.881 4574.812)">
      <g id="Group_10787" data-name="Group 10787">
        <path id="Path_55325" data-name="Path 55325" d="M592.344-1323.656H513.049v-89.153h79.295Zm-73.763-5.531h68.231v-78.09H518.581Z" fill="#32d5fd"/>
      </g>
      <path id="Rectangle_4236" data-name="Rectangle 4236" d="M0,0H94.049a0,0,0,0,1,0,0V13.607a6.181,6.181,0,0,1-6.181,6.181H6.181A6.181,6.181,0,0,1,0,13.607V0A0,0,0,0,1,0,0Z" transform="translate(589.578 -1117.687) rotate(180)" fill="#32d5fd"/>
      <rect id="Rectangle_4237" data-name="Rectangle 4237" width="117.973" height="7.022" transform="translate(595.676 -1117.687) rotate(180)" fill="#32d5fd"/>
      <g id="Group_10788" data-name="Group 10788">
        <path id="Path_55326" data-name="Path 55326" d="M576.362-1323.656H529.031v-89.153h47.331Zm-41.8-5.531H570.83v-78.09H534.562Z" fill="#32d5fd"/>
      </g>
      <g id="Group_10789" data-name="Group 10789">
        <path id="Path_55327" data-name="Path 55327" d="M522.452-1133.393l-3.44-4.333,56.674-44.991-57.72-45.82v-4.27l57.72-45.819-56.674-44.991,3.44-4.334,59.443,47.188v4.27l-57.72,45.82,57.72,45.821v4.27Z" fill="#32d5fd"/>
      </g>
      <g id="Group_10790" data-name="Group 10790">
        <path id="Path_55328" data-name="Path 55328" d="M577.409-1133.393l-59.443-47.188v-4.27l57.72-45.821-57.72-45.82v-4.27l59.443-47.188,3.439,4.334-56.674,44.991,57.72,45.819v4.27l-57.72,45.82,56.674,44.991Z" fill="#32d5fd"/>
      </g>
      <rect id="Rectangle_4238" data-name="Rectangle 4238" width="94.049" height="9.575" transform="translate(600.028 -1404.298) rotate(180)" fill="#fc8021"/>
    </g>
    <g id="Group_10793" data-name="Group 10793" transform="translate(-1785.881 4574.812)">
      <g id="Group_10792" data-name="Group 10792">
        <path id="Path_55329" data-name="Path 55329" d="M501.908-1292.651a4.31,4.31,0,0,0,3.719-4.665,4.193,4.193,0,0,0-4.784-3.655Z" fill="#fed802"/>
        <rect id="Rectangle_4239" data-name="Rectangle 4239" width="12.148" height="3.657" transform="matrix(-0.338, -0.941, 0.941, -0.338, 487.089, -1279.155)" fill="#fc8021"/>
        <path id="Path_55330" data-name="Path 55330" d="M500.884-1307.386,504-1286.555l-3.086.462h0a2.829,2.829,0,0,0-3.215-2.379l-10.354,1.371a7.918,7.918,0,0,1-9.038-6.2,7.7,7.7,0,0,1,6.442-8.991l10.674-1.418a2.829,2.829,0,0,0,2.379-3.215h0Z" fill="#fed802"/>
        <path id="Path_55331" data-name="Path 55331" d="M487.022-1287.054a7.629,7.629,0,0,1-8.719-6.247,7.7,7.7,0,0,1,6.442-8.991Z" fill="#fc8021"/>
        <path id="Path_55332" data-name="Path 55332" d="M497.8-1306.925l3.086-.461L504-1286.554l-3.086.461h0Z" fill="#fc8021"/>
      </g>
      <path id="Path_55333" data-name="Path 55333" d="M490.514-1265.35a99.546,99.546,0,0,0-13.663-13.522c-2.682-2.184-4.87-3.55-8.12-2.407a13.861,13.861,0,0,0-7.14,5.187c-2.214,3.362-1.845,5.854.629,8.963,8.659,10.879,18.785,23.038,33.568,24.229,2.793.226,7.536.317,9.581-2.02,1.789-2.043,2.5-6.394,2.6-8.983.275-7.162-3.821-13.609-7.689-19.3-1.854-2.728-4.99-7.031-8.727-5.615-6.757,2.562.16,12.818,1.879,17.153Q492.018-1263.542,490.514-1265.35Z" fill="#eac303"/>
      <path id="Path_55334" data-name="Path 55334" d="M483.918-1280.406a2.76,2.76,0,0,1-1.287-1.69,2.025,2.025,0,0,1,.6-1.516,7.015,7.015,0,0,1,3.561-1.8c1.678-.444,3.636-.733,5.005.334a6.126,6.126,0,0,1,1.759,3.311,9.474,9.474,0,0,1,.546,3.709c-.275,2.271-2.585,2.665-4.506,1.929C487.622-1276.882,485.6-1279.12,483.918-1280.406Z" fill="#fd994e"/>
      <path id="Path_55335" data-name="Path 55335" d="M478.654-1147.952a26.361,26.361,0,0,1-2.062,6.087c3.04-.237,14.88.891,17.245.038-3.365-.88-7.441-3.76-10.806-4.64Z" fill="#fc819d"/>
      <path id="Path_55336" data-name="Path 55336" d="M464.214-1210.668c.746,8.286,1.414,16.567,3,24.887a284.86,284.86,0,0,0,10.725,40.151l7.479.27c-4.931-30.856,4.98-63.09-.354-93.513q-1.084-6.181-2.168-12.361c.533,3.039-21.264,7.533-22.408,11.063-1.069,3.3,1.5,10.544,2.007,14.011C463.256-1220.986,463.75-1215.826,464.214-1210.668Z" fill="#245ebd"/>
      <path id="Path_55337" data-name="Path 55337" d="M439.388-1148.052a26.394,26.394,0,0,0,2.793,5.788l-9.138.412a28.163,28.163,0,0,1-7.511-.333l9.695-3.857Z" fill="#fc819d"/>
      <path id="Path_55338" data-name="Path 55338" d="M436.84-1187.9c-1.055,13.825-2.83,27-1.861,40.831l7.149,2.212c10.124-29.093,21.282-59.6,24.076-90.361q.568-6.249,1.136-12.5c-.28,3.072-22.495,1.719-24.52,4.827-1.892,2.905-1.31,10.57-1.721,14.049C440.485-1223.64,437.485-1196.341,436.84-1187.9Z" fill="#2962bf"/>
      <path id="Path_55339" data-name="Path 55339" d="M429.9-1336.233a2.239,2.239,0,0,1,1.07-1.611,1.42,1.42,0,0,1,1.463.314,2.184,2.184,0,0,1,.635,1.409,4.852,4.852,0,0,1,2.238-1.7.594.594,0,0,1,.426-.039c.2.082.256.33.287.542q.1.674.2,1.348c.574-.657,1.446-1.377,2.211-.957,1.36.748-.64,4.816-.89,5.938a8.228,8.228,0,0,1-.8,2.384,2.774,2.774,0,0,1-1.965,1.436,4.719,4.719,0,0,1-1.219-.087c-1.3-.189-2.657,0-3.916-.176C429.622-1330.443,429.09-1333.217,429.9-1336.233Z" fill="#fdad71"/>
      <path id="Path_55340" data-name="Path 55340" d="M444.614-1298.8c2.869,6.24,6.974,12.726,13.576,14.617,5.209,1.492,9.95-2.771,14.383-.405,4.343,2.318,7.133,7.147,9.084,11.477,5.671,12.588,4.7,28.03,5.142,41.54-15.17,3.755-31.073,2.5-46.649,1.228q1.248-17.97,1.646-35.985c.177-8.052-6.62-11.882-10.315-18.452a42.444,42.444,0,0,1-5.465-22.759c.323-6.449.723-13.478,3.582-19.391a1.717,1.717,0,0,1,.515-.705,1.788,1.788,0,0,1,1.331-.1c1.944.361,4.494-.363,5.107,2.27.479,2.057.583,4.2,1.075,6.3A107.6,107.6,0,0,0,444.614-1298.8Z" fill="#fed802"/>
      <path id="Path_55341" data-name="Path 55341" d="M435.7-1326.369c.37-3.112,5.658-3.961,2.454-7.262-2.058-2.121-4.765-.963-5.81,1.335a1.1,1.1,0,0,0-.119.834.989.989,0,0,0,.645.5,3.2,3.2,0,0,0,3.181-.717" fill="#fdad71"/>
      <path id="Path_55342" data-name="Path 55342" d="M460.354-1279.97c2.313,1.41,5.263,1.874,7.094-.053a5.368,5.368,0,0,0,1.109-2.511,24.643,24.643,0,0,0,.917-6.309,9.493,9.493,0,0,0-2-5.942,5.944,5.944,0,0,0-5.7-2.116c-2.467.578-3.69,2.449-4.031,4.872-.4,2.845-1.761,6-.492,8.806A7.947,7.947,0,0,0,460.354-1279.97Z" fill="#fd994e"/>
      <path id="Path_55343" data-name="Path 55343" d="M471.13-1289.418a6.265,6.265,0,0,1-1.636,3.759,5.811,5.811,0,0,1-4.458,1.077,6.727,6.727,0,0,1-2.648-.687c-3.6-1.96-5.382-8.12-5.542-11.907a6.831,6.831,0,0,1,.415-2.916,5.84,5.84,0,0,1,3.416-3.076,11.34,11.34,0,0,1,4.664-.535,7.252,7.252,0,0,1,3.364.857C472.143-1300.754,471.669-1292.753,471.13-1289.418Z" fill="#fdad71"/>
      <path id="Path_55344" data-name="Path 55344" d="M459.874-1298.524a3.645,3.645,0,0,1,1.46-.388c4.229-.511,9.361-.325,10.238-5.764.378-2.347-1.451-5.076-3.819-4.864-2.645.235-7.483,2.628-10.013,3.722a6.158,6.158,0,0,0-3.334,2.757c-.828,1.781-.126,3.863.58,5.7l1.6,4.164a15.073,15.073,0,0,1,.477-1.981c.724-.369,1.151.908,1.57,1.292C459.368-1295.338,458.1-1297.463,459.874-1298.524Z" fill="#094ab5"/>
    </g>
    <g id="Group_10800" data-name="Group 10800" transform="translate(-1785.881 4574.812)">
      <g id="Group_10794" data-name="Group 10794">
        <path id="Path_55345" data-name="Path 55345" d="M772.114-1548.789l-1.828-17.277-18.549,1.963-1.784-16.863-16.716,1.769-.386-3.667,20.383-2.157,1.784,16.863,18.549-1.963,2.215,20.945Z" fill="#05ccfc"/>
      </g>
      <g id="Group_10795" data-name="Group 10795">
        <path id="Path_55346" data-name="Path 55346" d="M974.52-1469.158l-3.323-1.6,6.43-13.371,10.644,5.12,5.631-11.708,13.726,6.6-1.6,3.323-10.4-5L990-1474.084l-10.644-5.12Z" fill="#415bef"/>
      </g>
      <g id="Group_10796" data-name="Group 10796">
        <path id="Path_55347" data-name="Path 55347" d="M434.324-1420.779l-3.567-.934,3.761-14.352,11.425,2.993,3.293-12.567,14.732,3.861-.934,3.567-11.165-2.925-3.293,12.567-11.425-2.993Z" fill="#fff"/>
      </g>
      <g id="Group_10797" data-name="Group 10797">
        <path id="Path_55348" data-name="Path 55348" d="M934.841-1557.118a37.5,37.5,0,0,1-14.754-2.68l1.546-3.35-.773,1.675.77-1.677c.938.43,23.313,10.2,50.576-13.545l2.423,2.781C959.06-1560.353,944.853-1557.118,934.841-1557.118Z" fill="#fed802"/>
      </g>
      <g id="Group_10798" data-name="Group 10798">
        <path id="Path_55349" data-name="Path 55349" d="M1022.764-1332.282c-17.015,0-26.6-8.007-27.179-8.5l2.4-2.8c.782.669,19.615,16.206,52.35.865l1.566,3.338C1040.624-1334.092,1030.854-1332.282,1022.764-1332.282Z" fill="#fc7005"/>
      </g>
      <g id="Group_10799" data-name="Group 10799">
        <path id="Path_55350" data-name="Path 55350" d="M350.012-1153.78a37.47,37.47,0,0,1-14.754-2.682l1.546-3.35-.773,1.675.769-1.677c.939.431,23.315,10.2,50.576-13.544l2.423,2.78C374.229-1157.017,360.024-1153.78,350.012-1153.78Z" fill="#fff"/>
      </g>
      <circle id="Ellipse_3256" data-name="Ellipse 3256" cx="7.533" cy="7.533" r="7.533" transform="translate(362.528 -1311.271)" fill="#415bef"/>
      <path id="Path_55351" data-name="Path 55351" d="M855.672-1566.906a7.533,7.533,0,0,0-7.533-7.533,7.533,7.533,0,0,0-7.533,7.533,7.533,7.533,0,0,0,7.533,7.532A7.533,7.533,0,0,0,855.672-1566.906Z" fill="#fff"/>
      <circle id="Ellipse_3257" data-name="Ellipse 3257" cx="7.533" cy="7.533" r="7.533" transform="translate(939.825 -1440.742)" fill="#fed802"/>
      <rect id="Rectangle_4240" data-name="Rectangle 4240" width="20.348" height="20.348" transform="translate(411.569 -1392.183) rotate(106.34)" fill="#fed802"/>
      <path id="Path_55352" data-name="Path 55352" d="M1022.271-1424.906l-14.643,20.433,26.683,1.633Z" fill="#fff"/>
      <path id="Path_55353" data-name="Path 55353" d="M523.9-1592.514l-10.126,14.13,18.453,1.13Z" fill="#fed802"/>
      <path id="Path_55354" data-name="Path 55354" d="M407.824-1564.635l-8.881,12.3,16.1,1.042Z" fill="#05ccfc"/>
      <path id="Path_55355" data-name="Path 55355" d="M1034.811-1275.4l-11.066,10.382,15.608,4.1Z" fill="#fff"/>
      <circle id="Ellipse_3258" data-name="Ellipse 3258" cx="7.533" cy="7.533" r="7.533" transform="translate(410.709 -1484.284) rotate(-8.75)" fill="#fc7005"/>
      <path id="Path_55356" data-name="Path 55356" d="M1059.366-1179.646a7.533,7.533,0,0,0-7.533-7.533,7.533,7.533,0,0,0-7.532,7.533,7.533,7.533,0,0,0,7.532,7.533A7.533,7.533,0,0,0,1059.366-1179.646Z" fill="#fed802"/>
      <rect id="Rectangle_4241" data-name="Rectangle 4241" width="16.873" height="16.873" transform="translate(956.728 -1356.382) rotate(-155.095)" fill="#05ccfc"/>
      <circle id="Ellipse_3259" data-name="Ellipse 3259" cx="7.533" cy="7.533" r="7.533" transform="translate(903.698 -1523.088)" fill="#fc7005"/>
      <rect id="Rectangle_4242" data-name="Rectangle 4242" width="12.307" height="12.306" transform="translate(480.693 -1502.01) rotate(-155.096)" fill="#fc819d"/>
      <rect id="Rectangle_4243" data-name="Rectangle 4243" width="12.306" height="12.307" transform="matrix(0.148, -0.989, 0.989, 0.148, 588.678, -1572.082)" fill="#fff"/>
      <path id="Path_55357" data-name="Path 55357" d="M392.163-1220.982,406-1252.2,370.061-1247Z" fill="#fc7005"/>
    </g>
    <g id="Group_10801" data-name="Group 10801" transform="translate(-1785.881 4574.812)">
      <path id="Path_55358" data-name="Path 55358" d="M753.218-1244.615a11.078,11.078,0,0,1,2.486,3.385,24.106,24.106,0,0,1,2.907,6.822l-4.049,1.906a.6.6,0,0,1-.337.085.626.626,0,0,1-.35-.257c-1.505-1.787-3.364-3.24-4.991-4.917-1.687-1.737-5.039-6.081-3.048-8.646C747.418-1248.275,751.7-1245.845,753.218-1244.615Z" fill="#fd994e"/>
      <path id="Path_55359" data-name="Path 55359" d="M731.361-1245.112l6.728,11.279a3.226,3.226,0,0,0,4.053,1.258l6.184-2.7a3.227,3.227,0,0,0,1.652-4.238l-5.329-12.121a3.226,3.226,0,0,0-4.346-1.625l-7.583,3.543A3.225,3.225,0,0,0,731.361-1245.112Z" fill="#fc7005"/>
      <path id="Path_55360" data-name="Path 55360" d="M733-1245.125l6.011,9.756a3.225,3.225,0,0,0,4.053,1.257l5.251-2.325a3.226,3.226,0,0,0,1.651-4.237l-4.611-10.6a3.227,3.227,0,0,0-4.346-1.626l-6.649,3.167A3.226,3.226,0,0,0,733-1245.125Z" fill="#dbe0fc"/>
      <path id="Path_55361" data-name="Path 55361" d="M755.3-1237.742a18.7,18.7,0,0,0-2.137-4.843,2.262,2.262,0,0,0-.608-.715,2.428,2.428,0,0,0-1.393-.275l-2.906.011c-.619,0-1.38.095-1.61.669-.292.727.549,1.38,1.27,1.686a22.948,22.948,0,0,0,3.963,1.269" fill="#fd994e"/>
      <path id="Path_55362" data-name="Path 55362" d="M756.938-1222.154a59.994,59.994,0,0,0,5.141,10.264,15.6,15.6,0,0,0,3.772,4.459,6.376,6.376,0,0,0,5.536,1.19c2.579-.809,3.813-3.409,4.8-5.7,1.149-2.67-.049-4.627-1.831-6.87q-6.435-8.1-13.183-15.938c-1.8-2.093-8.955,1.932-8.77,2.287A99.044,99.044,0,0,1,756.938-1222.154Z" fill="#fc7005"/>
      <path id="Path_55363" data-name="Path 55363" d="M784.807-1237.172c0,.05,0,.1.007.147.049.83.215,1.653.19,2.484a10.838,10.838,0,0,1-1.846,4.924l-2,3.468c-1.536,2.663-3.419,5.478-6.867,5.138a5.524,5.524,0,0,1-3.645-1.932c-2.274-2.712-.871-5.519.5-8.2q1.391-2.715,2.78-5.432a12.288,12.288,0,0,0,1.283-2.533,20.19,20.19,0,0,0,.043-2.655,8.9,8.9,0,0,1,1.576-5.072,5.083,5.083,0,0,1,4.221-1.851C787.391-1248.254,784.645-1241.246,784.807-1237.172Z" fill="#fd994e"/>
      <path id="Path_55364" data-name="Path 55364" d="M770.87-1244.436a6.14,6.14,0,0,0,1.766,3.549,5.5,5.5,0,0,0,4.3.817,6.315,6.315,0,0,0,2.482-.8c3.321-2.074,4.672-8.112,4.613-11.778a6.7,6.7,0,0,0-.558-2.795,5.636,5.636,0,0,0-3.423-2.8,10.691,10.691,0,0,0-4.469-.283,6.818,6.818,0,0,0-3.155,1C769.275-1255.333,770.172-1247.629,770.87-1244.436Z" fill="#fdad71"/>
      <path id="Path_55365" data-name="Path 55365" d="M790.475-1099.632c-1.944,1.353-1.191-2.277-2.141-3.1a1.575,1.575,0,0,0-1.949-.123c-.645.513-.686,1.488-1.139,2.181-.759,1.16-2.382,1.225-3.753,1.167-1.579-.067-3.279-.179-4.5-1.2.582-1.155,2.122-1.3,3.22-1.959,1.973-1.189,1.754-3.565,2.977-5.192,1.343-1.786,3.621-3.386,5.692-1.748,2.889,2.286,2.135,5.666,1.977,9.03a1.557,1.557,0,0,1-.123.647A.79.79,0,0,1,790.475-1099.632Z" fill="#fc7005"/>
      <path id="Path_55366" data-name="Path 55366" d="M784.117-1106.2c-1.282-1.659-1.74-4.715-2.062-6.356q-3.081-15.723-5.553-31.563c-1.376-8.82-5.323-16.1-3.546-25.471.391-2.061,1.1-4.262,2.849-5.417a5.961,5.961,0,0,1,3.345-.869,8.967,8.967,0,0,1,7.083,3.677c2.9,4.036,1.929,9.524,1.787,14.49-.221,7.7,2.731,14.9,2.227,22.637-.488,7.495-2.854,14.972-1.6,22.514.275,1.649.722,3.348.285,4.965s-2.211,3.017-3.709,2.325A3.045,3.045,0,0,1,784.117-1106.2Z" fill="#fd994e"/>
      <path id="Path_55367" data-name="Path 55367" d="M765.979-1099.269c-2.058,1.159-.982-2.381-1.854-3.29a1.58,1.58,0,0,0-1.931-.31c-.689.448-.818,1.415-1.332,2.061-.86,1.081-2.484.989-3.845.8-1.566-.218-3.25-.493-4.378-1.623.683-1.093,2.23-1.086,3.384-1.639,2.074-.993,2.069-3.378,3.434-4.88,1.5-1.647,3.913-3.021,5.829-1.192,2.673,2.552,1.617,5.842,1.158,9.174a1.562,1.562,0,0,1-.182.631A.786.786,0,0,1,765.979-1099.269Z" fill="#fc7005"/>
      <path id="Path_55368" data-name="Path 55368" d="M760.389-1106.484c-1.2-1.738-1.5-4.819-1.744-6.478q-2.3-15.9-3.982-31.872a28.045,28.045,0,0,1,.021-8.838c.686-3.176,2.432-5.994,4.218-8.687q2.712-4.089,5.64-8.022c1.259-1.69,3.212-3.553,5.137-2.709,1.638.719,1.971,2.918,1.852,4.721a23.169,23.169,0,0,1-1.262,6.145c-1.438,4.091-3.52,8.027-3.376,12.51a67.5,67.5,0,0,0,1.078,6.976c1.392,10.07-3.913,20.093-2.743,30.19.193,1.664.556,3.39.039,4.976s-2.356,2.874-3.817,2.088A3.094,3.094,0,0,1,760.389-1106.484Z" fill="#fdad71"/>
      <path id="Path_55369" data-name="Path 55369" d="M794.736-1187.548a20.475,20.475,0,0,1-.287,3.3c-.817,4.758-3.443,9.059-4.259,13.817-.961,5.6.657,11.285,1.1,16.952a2.251,2.251,0,0,1-.181,1.35,2.268,2.268,0,0,1-1.247.816c-8.55,3.1-18.013,3.856-26.716,1.222-2.187-.662-10.042-2.234-10.977-4.525-.387-.948.227-4.37.21-5.554-.032-2.323-.006-4.645.1-6.962a82.854,82.854,0,0,1,1.715-13.724c1.84-8.487,5.645-20.749,13.88-24.087,2.5-1.015,5.066-.752,7.589-1.4,2.451-.63,4.507-2.012,7.142-2.24a8.234,8.234,0,0,1,6.841,2.294,12.228,12.228,0,0,1,2.236,4.664C793.325-1197.047,794.776-1192.293,794.736-1187.548Z" fill="#fc8021"/>
      <path id="Path_55370" data-name="Path 55370" d="M794.643-1225.119a15.428,15.428,0,0,0-.31-1.719c-1.233-5.111-5.725-10.5-11.251-9.665-2.87.432-5.285.051-8.06,1.035-3.818,1.347-6.913,1.569-9.69,4.9a13.648,13.648,0,0,0-2.942,5.169c-.657,2.524-.145,5.188.369,7.745a37.682,37.682,0,0,1,1.139,7.639c-.2,2.16-1.226,4.054-.265,6.356,1.1,2.63,5.535,4.026,7.893,4.547a39.724,39.724,0,0,0,10.37.443c3.4-.154,5.052,1.491,8.257,2.448a1.532,1.532,0,0,0,1.372-.052c.416-.325.4-.948.354-1.474a51.759,51.759,0,0,1,1.549-16.058C794.266-1217.525,795.1-1221.378,794.643-1225.119Z" fill="#fc8021"/>
      <path id="Path_55371" data-name="Path 55371" d="M786.254-1256.017a6.616,6.616,0,0,0,.381.65c1.3,1.95,3.655,2.9,5.938,3.3s4.63.353,6.893.861a18.979,18.979,0,0,1,6.926,3.319c8.035,5.862,7.275,20.876-2.2,25.166-5.868,2.658-13.385.323-17.235-4.941-3.071-4.2-5.106-9.369-7.3-14.063a23.478,23.478,0,0,0-2.784-4.9c-1.425-1.773-3.329-3.09-4.941-4.694-2.435-2.424-3.683-5.588-2.128-8.851a7.2,7.2,0,0,1,6.88-4.132,9.39,9.39,0,0,1,8.1,4.791C785.364-1258.389,785.679-1257.133,786.254-1256.017Z" fill="#094ab5"/>
      <path id="Path_55372" data-name="Path 55372" d="M741.913-1222.332c-.9-1-1.819-1.983-2.784-2.928a4.547,4.547,0,0,1-1.7-2.707c-.177-2.758,2.929-4.364,2.413-7.472-.237-1.424-.808-2.787-.927-4.225-.035-.427.039-.963.442-1.106a.858.858,0,0,1,.746.171,4.22,4.22,0,0,1,1.311,2,11.715,11.715,0,0,0,2.526,3.967,10.116,10.116,0,0,1,1.611,3.083c2.088,5.151,5.412,9.92,8.5,14.516.664.989,1.356,2.194.914,3.287a2.475,2.475,0,0,1-2.816,1.224c-1.1-.231-2.142.511-2.965-.246-1.885-1.735-2.857-4.3-4.376-6.158C743.859-1220.085,742.9-1221.223,741.913-1222.332Z" fill="#fdad71"/>
      <path id="Path_55373" data-name="Path 55373" d="M744.219-1220.985c1.408-1.07,2.69-2.077,4-3.212,1.1-.952,2.8-.072,3.855.93,3.538,3.359,6.59,6.954,10.754,9.611a1.305,1.305,0,0,0,1.016.293c.45-.131.618-.671.7-1.132.986-5.5-.585-14.521,5.775-17.033,5.976-2.36,11.785,1.345,12.159,7.643.267,4.517-1.063,8.97-2.623,13.217-1.341,3.65-2.924,7.329-5.648,10.1s-6.83,4.495-10.569,3.427a16.777,16.777,0,0,1-5.473-3.236c-6.592-5.133-11.145-12.368-15.392-19.513Z" fill="#fd8830"/>
      <path id="Path_55374" data-name="Path 55374" d="M741.834-1243.812s-2.969-3.379-4.1-1.331,6.041,5.12,6.041,5.12,2.253-7.065.1-7.475S741.834-1243.812,741.834-1243.812Z" fill="#e0242b"/>
    </g>
    <g id="Group_10803" data-name="Group 10803" transform="translate(-1785.881 4574.812)">
      <g id="Group_10802" data-name="Group 10802">
        <path id="Path_55375" data-name="Path 55375" d="M622.335-1116.159a26.006,26.006,0,0,1-3.141,5.341l8.468,1.221a25.391,25.391,0,0,0,7.024.355l-8.665-4.6Z" fill="#fc819d"/>
        <path id="Path_55376" data-name="Path 55376" d="M624.894-1182.326c-1.35,7.954-2.769,15.883-3.372,24.082a341.943,341.943,0,0,0-.123,44.032l6.686,2.148c6.728-46.844,19.9-61.547,22.518-91.409q.531-6.067,1.062-12.133c-.261,2.983-21.038,1.669-22.932,4.687-1.77,2.819-1.226,10.261-1.61,13.639C626.549-1192.239,625.734-1187.278,624.894-1182.326Z" fill="#245ebd"/>
        <path id="Path_55377" data-name="Path 55377" d="M641.569-1272.458a6.1,6.1,0,0,1,2.366-4.089,11.144,11.144,0,0,1,4.3-1.947,7,7,0,0,1,3.467-.171c3.9,1.032,5.785,9.115,6.246,12.587a6.734,6.734,0,0,1-.464,4.227,4.06,4.06,0,0,1-1.135,1.243,15.347,15.347,0,0,1-1.381,4.974,3.326,3.326,0,0,1-.955,1.317,3.048,3.048,0,0,1-1.829.438,11.352,11.352,0,0,1-5.406-1.409,3.141,3.141,0,0,1-1.067-.845,3.787,3.787,0,0,1-.544-1.557,78.057,78.057,0,0,1-1.731-8.59,20.581,20.581,0,0,1-1.412-3.159A7.352,7.352,0,0,1,641.569-1272.458Z" fill="#fd994e"/>
        <path id="Path_55378" data-name="Path 55378" d="M639.963-1268.6c1.3,2.537,2.847,4.976,3.916,6.814,1.3,2.229,4.187,1.773,6.1.6a13.239,13.239,0,0,0,2.969-2.824c1.292-1.512,2.767-3.176,3.309-5.169.592-2.178-.287-4.115.243-6.294.213-.874.588-1.7.75-2.587a5.566,5.566,0,0,0-1.523-4.878c-1.474-1.444-3.544-1.548-5.456-1.511-.337.007-6.411.961-5.127,2.4a1.6,1.6,0,0,0-1.924-.34,1.735,1.735,0,0,0-.814,1.841,3.949,3.949,0,0,0-2.892.217l-.138,2.169c-.014.224-.05.486-.24.594-.238.137-.523-.07-.795-.07-.516,0-.734.684-.754,1.22C637.5-1274.109,638.586-1271.3,639.963-1268.6Z" fill="#094ab5"/>
        <path id="Path_55379" data-name="Path 55379" d="M677.3-1312.853c.343-1.283.966-2.531.743-3.826-.039-.221-.135-.473-.352-.529-.286-.075-.513.236-.633.505a24.8,24.8,0,0,1-1.389,3.348c-.111.178-.288.37-.491.32-.249-.061-.274-.4-.239-.656q.2-1.524.551-3.022a1.916,1.916,0,0,0,.063-.924.633.633,0,0,0-.683-.5c-.246.056-.4.3-.517.518a14.4,14.4,0,0,0-1.155,2.846c-.137.478-.215.968-.34,1.448-.074.285-.445.915-.376,1.185a29.135,29.135,0,0,0-1.231-3.734c-.212-.521-.678-1.138-1.17-.894-1.016,2.627,1.279,6.071-1.416,8.219a1.061,1.061,0,0,1-1.157.239c-.363-.224-.391-.728-.443-1.151a4.231,4.231,0,0,0-.286-1.091,1.7,1.7,0,0,0-.447-.677.79.79,0,0,0-.763-.168c-.478.18-.534.824-.507,1.335a8.01,8.01,0,0,0,2.375,5.037,19.188,19.188,0,0,1,3.323,4.511,2.831,2.831,0,0,0,1.354,1.481,2.323,2.323,0,0,0,1.154.017,10.1,10.1,0,0,0,1.827-.495,1.778,1.778,0,0,0,.808-.5,2.094,2.094,0,0,0,.289-1.318,19.138,19.138,0,0,1,2.958-11.05,3.226,3.226,0,0,0,.768-2.295.344.344,0,0,0-.082-.178c-.173-.17-.436.074-.553.286a17.984,17.984,0,0,1-1.794,2.648c-.057.069-.132.146-.22.131-.128-.023-.146-.2-.126-.326A6.74,6.74,0,0,1,677.3-1312.853Z" fill="#fdad71"/>
        <path id="Path_55380" data-name="Path 55380" d="M632.373-1317.6q.055.727.076,1.457c1.273-1.907.391-4.524,1.074-6.712.08-.257.3-.562.547-.454a.477.477,0,0,1,.207.241c.841,1.66.527,4,.626,5.813.011.193.111.456.3.4q.652-2.149,1.306-4.3a.889.889,0,0,1,.393-.6.582.582,0,0,1,.671.225,1.414,1.414,0,0,1,.223.721,12.17,12.17,0,0,1-.589,4.006c-.38,1.531-1.117,3.642-.937,5.207.312-.055.272-.3.508-.507a3.948,3.948,0,0,1,1.384-.622,7.792,7.792,0,0,1,2.825-.277,1.162,1.162,0,0,1,.888.353c.62.859-.52,1.609-1.165,1.793a10.873,10.873,0,0,0-2.954,1.243c-1.421.922-2.192,2.505-3.051,3.912-.952,1.562-1.7,3.248-2.728,4.757a.678.678,0,0,1-.313.292c-.274.092-.529-.169-.7-.4a7.475,7.475,0,0,0-1.426-1.751q-.668-.477-1.3-1.005a1.807,1.807,0,0,1-.652-.828,1.96,1.96,0,0,1,.113-1.1,52.552,52.552,0,0,0,1.8-9.276c.065-.57.13-1.142.14-1.717.025-1.419-.284-2.877.126-4.236.137-.013.212.154.245.288q.235.975.473,1.951c.123-.8.3-1.579.466-2.371.049-.228.132-.5.356-.561.343-.1.567.351.633.7A30.858,30.858,0,0,1,632.373-1317.6Z" fill="#fdad71"/>
        <path id="Path_55381" data-name="Path 55381" d="M663.208-1114.1a26.483,26.483,0,0,1-3.749,4.977l8.324,2.038a25.658,25.658,0,0,0,6.98,1.039l-8.135-5.4Z" fill="#fc819d"/>
        <path id="Path_55382" data-name="Path 55382" d="M646.826-1178.132c.886,8.1,1.7,16.209,3.39,24.3,2.771,13.244,6.573,29.981,11.218,42.6l7.211-.17c-5.656-35.742,3.45-66.066-2.3-95.673l-2.337-12.03c.574,2.958-20.335,8.643-21.366,12.181-.963,3.3,1.654,10.283,2.216,13.661C645.7-1188.223,646.275-1183.177,646.826-1178.132Z" fill="#2962bf"/>
        <path id="Path_55383" data-name="Path 55383" d="M632.848-1275.141l.031.109c1.945,6.748,5.875,13.41,12.569,15.861,7.762,2.842,16.556-2.473,20.652-9.883a42,42,0,0,0,4.572-16.59,79.642,79.642,0,0,0,.258-9.114c-.04-1.617-.878-4.04-.127-5.563.663-1.342,4.187-2.535,5.346-1.89,1.276.71,2.707,5.454,3.265,6.862a49.094,49.094,0,0,1,3.289,14.869,48.74,48.74,0,0,1-6.9,28.657c-3.4,5.476-3.61,9.057-4.106,15.284-.985,12.366-.226,23.71,3.351,35.673.391,1.31-15,2.929-16.174,2.954a103.143,103.143,0,0,1-16.742-1.032.9.9,0,0,1-.47-.165,1.049,1.049,0,0,1-.268-.708q-.5-4.465-1.009-8.932a5.174,5.174,0,0,1-.443,1.678q-1.27,3.261-2.54,6.523a.622.622,0,0,1-.23.339.555.555,0,0,1-.384.017,51.2,51.2,0,0,1-5.117-1.45c-3.417-1.1-6.772-2.509-10.143-3.758.561.208,3.691-9.66,3.95-10.618a82.98,82.98,0,0,0,2.168-11.351c.477-3.78.766-7.582,1.024-11.383.13-1.911.263-3.824.428-5.728s-.4-2.936-1.589-4.483c-6.388-8.343-11.25-21.073-10.905-31.809.253-7.884,3.366-15.467,7.814-21.863,1.825-2.624,2.856-2.46,5.513-1.8,1.88.464,3.446.874,3.2,3.314a14.428,14.428,0,0,1-.824,3C630-1291.1,630.839-1282.174,632.848-1275.141Z" fill="#356bc2"/>
      </g>
    </g>
    <g id="Group_10804" data-name="Group 10804" transform="translate(-1785.881 4574.812)">
      <path id="Path_55384" data-name="Path 55384" d="M978.4-1314.756a14.174,14.174,0,0,0-11.62,16.335,14.175,14.175,0,0,0-16.335-11.62,14.175,14.175,0,0,0-11.621,16.335c3.088,18.307,34.156,32.052,34.156,32.052s24.843-23.174,21.755-41.481A14.175,14.175,0,0,0,978.4-1314.756Z" fill="#e0242b"/>
      <path id="Path_55385" data-name="Path 55385" d="M987.34-1096.5c-1.911,1.145-.971-2.214-1.81-3.046a1.482,1.482,0,0,0-1.821-.24c-.638.439-.74,1.351-1.209,1.973-.786,1.039-2.314,1-3.6.854a6.914,6.914,0,0,1-4.148-1.411c.62-1.047,2.073-1.081,3.147-1.632,1.927-.988,1.874-3.232,3.126-4.68,1.374-1.59,3.615-2.945,5.453-1.275,2.564,2.329,1.639,5.453,1.276,8.6a1.46,1.46,0,0,1-.158.6A.75.75,0,0,1,987.34-1096.5Z" fill="#2b63bf"/>
      <path id="Path_55386" data-name="Path 55386" d="M981.958-1102.377c-1.512-1.267-2.547-3.983-3.173-5.426q-5.992-13.824-11.448-27.882a26.36,26.36,0,0,1-2.156-8.023,24.931,24.931,0,0,1,1.679-8.971q1.448-4.41,3.129-8.736c.723-1.859,2.032-4.054,3.982-3.786,1.659.228,2.5,2.137,2.837,3.8a21.965,21.965,0,0,1,.371,5.9c-.294,4.082-1.209,8.191.024,12.22a62.83,62.83,0,0,0,2.693,6.05c3.738,8.774,1.4,19.239,4.949,28.1a11.066,11.066,0,0,1,1.26,4.5c-.078,1.573-1.425,3.216-2.94,2.881A2.856,2.856,0,0,1,981.958-1102.377Z" fill="#fd994e"/>
      <path id="Path_55387" data-name="Path 55387" d="M979.374-1142.375c-.7-4.2.779-8.63,1.887-12.7,1.259-4.636,2.017-9.43,2.81-14.17a32.042,32.042,0,0,0-5.487-23.664,5.126,5.126,0,0,0-2.181-1.983,3.88,3.88,0,0,0-3.212.431c-3.443,1.947-4.2,6.488-4.582,10.424-.4,4.126-.442,9.045-2.338,12.836-.748,1.73-2.1,3.123-2.863,4.9a31.459,31.459,0,0,0-1.949,15.119c.606,6.554,2.666,12.874,4.713,19.129-.028-.087,7.822-3.161,8.539-3.451,1.414-.571,6.74-1.651,5.817-3.405A11.364,11.364,0,0,1,979.374-1142.375Z" fill="#415bef"/>
      <path id="Path_55388" data-name="Path 55388" d="M973.573-1226.051c0,.046,0,.092.007.138.046.78.2,1.554.179,2.336a10.2,10.2,0,0,1-1.736,4.631q-.942,1.631-1.882,3.262c-1.445,2.5-3.216,5.151-6.459,4.832a5.193,5.193,0,0,1-3.428-1.818c-2.139-2.55-.819-5.19.471-7.711l2.615-5.11a11.546,11.546,0,0,0,1.206-2.381,19,19,0,0,0,.041-2.5,8.377,8.377,0,0,1,1.482-4.771,4.779,4.779,0,0,1,3.97-1.74C976-1236.474,973.421-1229.883,973.573-1226.051Z" fill="#fd994e"/>
      <path id="Path_55389" data-name="Path 55389" d="M961.692-1234.765a5.779,5.779,0,0,0,.9,3.617,5.171,5.171,0,0,0,3.787,1.623,5.947,5.947,0,0,0,2.441-.227c3.47-1.231,5.935-6.5,6.625-9.881a6.328,6.328,0,0,0,.055-2.68,5.3,5.3,0,0,0-2.576-3.266,10.054,10.054,0,0,0-4.046-1.166,6.408,6.408,0,0,0-3.1.275C962.437-1245.1,961.7-1237.84,961.692-1234.765Z" fill="#fdad71"/>
      <path id="Path_55390" data-name="Path 55390" d="M941.537-1098.79c-2.1.733-.514-2.366-1.171-3.353a1.487,1.487,0,0,0-1.736-.606c-.713.3-.992,1.174-1.575,1.687-.975.858-2.463.5-3.692.1a6.964,6.964,0,0,1-3.784-2.227c.813-.9,2.245-.637,3.405-.957,2.083-.576,2.474-2.785,3.987-3.949,1.661-1.277,4.123-2.148,5.594-.137,2.052,2.805.528,5.676-.449,8.684a1.451,1.451,0,0,1-.273.555A.73.73,0,0,1,941.537-1098.79Z" fill="#2962bf"/>
      <path id="Path_55391" data-name="Path 55391" d="M937.557-1106.4c-.821-1.808-.594-4.711-.541-6.286q.507-15.1,1.6-30.166a26.386,26.386,0,0,1,1.484-8.179,24.563,24.563,0,0,1,5.345-7.343q3.188-3.336,6.55-6.492c1.446-1.356,3.563-2.757,5.2-1.656,1.4.936,1.341,3.027.932,4.676a21.781,21.781,0,0,1-2.187,5.481c-2.008,3.549-4.588,6.848-5.2,11.021a63.247,63.247,0,0,0-.158,6.638c-.38,9.552-6.953,17.953-7.542,27.494a11.076,11.076,0,0,1-.789,4.613c-.741,1.384-2.657,2.27-3.88,1.3A2.927,2.927,0,0,1,937.557-1106.4Z" fill="#fdad71"/>
      <path id="Path_55392" data-name="Path 55392" d="M978.46-1179.593a13.645,13.645,0,0,1-.465,3.156c-2.017,7.032-9.513,8.12-14.593,11.993-4.1,3.127-4.511,9.858-6.031,14.478-2.213,6.724-5.407,13.638-7.223,20.329-1.274-.081-14.534-1.315-14.534-2a180.579,180.579,0,0,1,9.762-45.972c2.4-6.561,5.61-14.148,11.437-18.4A13.284,13.284,0,0,1,976.071-1192c1.936,3.266,2.41,7.193,2.415,10.99C978.487-1180.536,978.481-1180.064,978.46-1179.593Z" fill="#4962f0"/>
      <path id="Path_55393" data-name="Path 55393" d="M986.454-1268.821a2.308,2.308,0,0,1-.9-1.5,2.652,2.652,0,0,1,.627-1.382,7.046,7.046,0,0,0-2.153-9.523q.58,2.13,1.162,4.26a7.123,7.123,0,0,0-2.827-3.921,20.033,20.033,0,0,0,1.521,4.586,11.784,11.784,0,0,0-2.959-2.892c.966.656,1.415,5.038,1.086,6.11a15.509,15.509,0,0,0-.886,2.877c-.442,4.283,4.686,9.674,6.807,13.029.6.947,1.372,2,2.48,2.036a2.327,2.327,0,0,0,2.123-1.957c.218-1.03,1.255-1.648.916-2.644C992.3-1263.127,988.96-1266.356,986.454-1268.821Z" fill="#fd994e"/>
      <path id="Path_55394" data-name="Path 55394" d="M986.086-1258.816c-.347.653-.15,1.205.22,2.6a39.047,39.047,0,0,1,1.806,9.968A25.046,25.046,0,0,1,984-1232.635c-2.32,3.545-7.232,5.85-6.984,10.5a19.328,19.328,0,0,0,1.123,5.533,7.06,7.06,0,0,0,1.036,2.017,6.563,6.563,0,0,0,1.928,1.547,7.592,7.592,0,0,0,3.616,1.146c3.157.038,6.427-4.057,8.384-6.239a35.378,35.378,0,0,0,5.8-8.662,29.718,29.718,0,0,0,1.459-20.871c-1.551-5.354-4.073-11.612-7.418-16.076-.834-1.113-5.2,3.054-5.879,3.748A5.569,5.569,0,0,0,986.086-1258.816Z" fill="#fed802"/>
      <path id="Path_55395" data-name="Path 55395" d="M954.483-1268.35a2.309,2.309,0,0,0,.91-1.493,2.654,2.654,0,0,0-.618-1.386,7.046,7.046,0,0,1,2.214-9.509l-1.189,4.252a7.123,7.123,0,0,1,2.852-3.9,19.982,19.982,0,0,1-1.551,4.576,11.779,11.779,0,0,1,2.978-2.872c-.97.65-1.447,5.028-1.125,6.1a15.616,15.616,0,0,1,.867,2.883c.414,4.286-4.749,9.643-6.891,12.983-.6.943-1.384,1.992-2.493,2.019a2.326,2.326,0,0,1-2.11-1.97c-.212-1.032-1.244-1.656-.9-2.65C948.6-1262.7,951.961-1265.9,954.483-1268.35Z" fill="#fdad71"/>
      <path id="Path_55396" data-name="Path 55396" d="M986.2-1215.033a24.462,24.462,0,0,0-1.022-7.612c-.792-2.712-3.053-5.155-5.869-5.4-2.9-.252-4.758,2.017-7.393,2.631a14.954,14.954,0,0,1-7.638-.618,5.961,5.961,0,0,0-4.03.276,21.121,21.121,0,0,1-7.437-13.921,33.27,33.27,0,0,1,.674-11.39c.522-2.37,2.038-5,1.153-7.209a3.83,3.83,0,0,0-.823-1.248c-.684-.707-5.012-4.891-5.853-3.785-3.374,4.442-5.936,10.683-7.521,16.026-4.039,13.61,1.546,25.256,11.124,33.585a16.991,16.991,0,0,0,1,4.845c.8,2.234,1.841,5.218,1.5,7.631-.453,3.174-2.534,6.726-3.68,9.728a1.408,1.408,0,0,0-.136.691,1.357,1.357,0,0,0,.692.837c4.02,2.687,9.079,3.217,13.913,3.336a105.918,105.918,0,0,0,17.785-1.063c-.461.067-1.734-11.13-1.649-12.217.295-3.788,2.677-6.468,4.12-9.86A14.86,14.86,0,0,0,986.2-1215.033Z" fill="#fed802"/>
      <path id="Path_55397" data-name="Path 55397" d="M981.026-1244.065a23.657,23.657,0,0,0,2.129,3.642c1.4,1.692,2.7,3.116,3.3,5.31a8.843,8.843,0,0,1-1.318,7.569,11.93,11.93,0,0,1-5.564,3.676,43.952,43.952,0,0,1-8.625,2.049c-1.214.179-2.1.2-2.859,1.322-.235.349-1.049,2.347-.415,2.655-1.824-.885-2.483-3.24-2.172-5.243.564-3.628,2.839-5.878,1.5-9.727-.856-2.462-3.23-3.915-4.257-6.277a10.748,10.748,0,0,1-.592-6.359c.875-4.293,4.382-7.489,8.911-6.383a16.292,16.292,0,0,1,9.36,6.8A11.393,11.393,0,0,1,981.026-1244.065Z" fill="#094ab5"/>
    </g>
    <g id="Group_10805" data-name="Group 10805" transform="translate(-1785.881 4574.812)">
      <path id="Path_55398" data-name="Path 55398" d="M861.387-1252.743a23.426,23.426,0,0,0,2.05,5.325c-2.705-.1-13.168,1.331-15.3.661,2.953-.9,6.466-3.606,9.419-4.509Z" fill="#fc819d"/>
      <path id="Path_55399" data-name="Path 55399" d="M861.891-1310.346a201,201,0,0,1,.692,20.976c-.115,12.311,1.226,25.662-.681,37.825l-6.492,1.415c-5.2-27.253-9.5-52.456-14.448-81.766-.618-3.662-.038-7.428-.057-11.143.014,2.74,19.77,3.227,21.326,6.131,1.454,2.712.357,9.45.457,12.559C862.838-1319.708,861.483-1314.927,861.891-1310.346Z" fill="#245ebd"/>
      <path id="Path_55400" data-name="Path 55400" d="M897.319-1255.668a23.438,23.438,0,0,0,4.86,2.991l-6.636,4.683a25.025,25.025,0,0,1-5.776,3.348q2.7-3.764,5.4-7.526Z" fill="#fc819d"/>
      <path id="Path_55401" data-name="Path 55401" d="M888.631-1293.98c6.454,11.679,9.948,26.737,11.284,38.976l-5.9,3.062c-13.437-23.824-21.731-41.729-35.506-67.241-1.765-3.268-1.767-15.077-2.756-18.657.729,2.641,19.927-2.048,22.187.349,2.112,2.239,2.813,9.029,3.721,12C883.019-1321.046,884.993-1300.562,888.631-1293.98Z" fill="#2962bf"/>
      <path id="Path_55402" data-name="Path 55402" d="M896.612-1421.723a1.076,1.076,0,0,1-.212.34c-.435.324-.59,0-.475-.592a5.371,5.371,0,0,0,.082-1.443c-.026-.315-.137-.694-.445-.763-.378-.086-.642.357-.774.721q-.335.927-.67,1.853a.671.671,0,0,1-.229.36.474.474,0,0,1-.633-.281,1.653,1.653,0,0,1-.034-.78,5.22,5.22,0,0,0-.093-1.562.335.335,0,0,0-.138-.246.3.3,0,0,0-.153-.023,1.4,1.4,0,0,0-1.1,1.052c-.171.51-.2,1.063-.415,1.556a5.586,5.586,0,0,1-1.786,1.876,2.929,2.929,0,0,0-1.3,2.161,2.779,2.779,0,0,0,2.193,2.5,4.244,4.244,0,0,0,1.085-.012c1.164-.1,2.355.137,3.48.051.153-2.23.824-3.2,2.045-4.98a5.432,5.432,0,0,0,.925-2.566,1.087,1.087,0,0,0-.074-.612.428.428,0,0,0-.52-.224.7.7,0,0,0-.293.429C897.011-1422.726,896.8-1422.119,896.612-1421.723Z" fill="#fdad71"/>
      <path id="Path_55403" data-name="Path 55403" d="M880.213-1390.363c-2.873,5.379-6.855,10.91-12.808,12.236-7.135,1.59-14.346-3.86-17.2-10.59a34.949,34.949,0,0,1-2.334-14.579,65.468,65.468,0,0,1,.706-7.771c.2-1.37,1.188-3.34.681-4.713-.447-1.211-3.433-2.6-4.521-2.174-1.2.468-2.946,4.346-3.581,5.484a40.708,40.708,0,0,0-4.423,12.282,40.5,40.5,0,0,0,3.154,25.079c2.442,5.014,2.256,8.079,2.056,13.422-.355,9.5-2.06,18.466-1.811,27.987,6.188,3.011,13.156,4.138,20.037,4.213a140.171,140.171,0,0,0,20.546-1.8c-1.368-10.979-.9-21.543-.353-32.582a5.364,5.364,0,0,1,.485-2.366,5.767,5.767,0,0,1,1.67-1.648,37.83,37.83,0,0,0,14.643-29.242c.056-5.733.075-11.984-2.147-17.377a1.506,1.506,0,0,0-.419-.652,1.589,1.589,0,0,0-1.174-.159c-1.742.217-3.964-.56-4.647,1.741-.533,1.8-.739,3.692-1.287,5.526A95.483,95.483,0,0,1,880.213-1390.363Z" fill="#7c3ff0"/>
      <path id="Path_55404" data-name="Path 55404" d="M844.1-1424.709c.114.175.208.33.277.438.053.085.119.178.218.192.222.032.27-.3.219-.522q-.207-.9-.413-1.793a2.162,2.162,0,0,1-.072-.995.746.746,0,0,1,.7-.607c.691.047.669,2.054.767,2.575a1,1,0,0,0,.2.507.343.343,0,0,0,.488.039.473.473,0,0,0,.087-.2,4.4,4.4,0,0,0,.088-1.482,2.669,2.669,0,0,1-.023-.983.655.655,0,0,1,.722-.521c.375.1.455.588.481.976a4.83,4.83,0,0,0,1.262,3.311c.41.376.924.629,1.312,1.028,2.019,2.073.345,5.02-1.067,6.818.41-.522-1.667-1.337-1.938-1.387-1.014-.186-2.061-.1-3.075-.305a7.939,7.939,0,0,0-.6-4.144c-.322-.587-.769-1.1-1.1-1.683-.247-.442-1.051-2.174-.369-2.511S843.665-1425.369,844.1-1424.709Z" fill="#fd994e"/>
      <path id="Path_55405" data-name="Path 55405" d="M865.265-1374.508c-2.126,1.127-4.764,1.381-6.286-.424a4.765,4.765,0,0,1-.85-2.283,21.929,21.929,0,0,1-.478-5.641,8.422,8.422,0,0,1,2.092-5.16,5.274,5.274,0,0,1,5.16-1.574c2.156.643,3.141,2.366,3.315,4.532.2,2.543,1.243,5.415-.031,7.831A7.062,7.062,0,0,1,865.265-1374.508Z" fill="#fd994e"/>
      <path id="Path_55406" data-name="Path 55406" d="M856.214-1383.454a5.574,5.574,0,0,0,1.25,3.419,5.171,5.171,0,0,0,3.9,1.191,5.988,5.988,0,0,0,2.383-.469c3.056-1.433,3.262-4.678,5.2-6.927.995-1.158.709-1.741.478-3.062a17.435,17.435,0,0,0-.345-2.877,5.189,5.189,0,0,0-2.865-2.908,10.105,10.105,0,0,0-4.1-.722,6.451,6.451,0,0,0-3.027.582C855.917-1393.555,855.913-1386.438,856.214-1383.454Z" fill="#fdad71"/>
      <path id="Path_55407" data-name="Path 55407" d="M867.58-1390.969a4.9,4.9,0,0,0-.071-.886c-.152-.839-.186-1.7-.29-2.552-2.075,1.209-4.643.977-7.044.924a5.573,5.573,0,0,0-2.095.241,2.074,2.074,0,0,0-1.372,1.491c.011-3.189.364-6.738,3.958-7.723,3.043-.833,5.7.886,8.285,2.194a5.474,5.474,0,0,1,2.809,2.62c.64,1.623-.093,3.431-.815,5.018-.7,1.538-1.3,3.284-2.678,4.36a4.648,4.648,0,0,0,.748-1.415,2.306,2.306,0,0,0,.1-1.282,1.171,1.171,0,0,0-.863-.881.794.794,0,0,0-.931.674C867.378-1389.078,867.578-1390.044,867.58-1390.969Z" fill="#094ab5"/>
    </g>
    <path id="Path_55408" data-name="Path 55408" d="M586.882-1536.43a14.868,14.868,0,0,0-17.015,12.353,14.868,14.868,0,0,0-12.353-17.015,14.868,14.868,0,0,0-17.016,12.353c-3.053,19.233,23.237,43.287,23.237,43.287s32.447-14.729,35.5-33.962A14.869,14.869,0,0,0,586.882-1536.43Z" transform="translate(-1785.881 4574.812)" fill="#fc819d"/>
    <path id="Path_55409" data-name="Path 55409" d="M348.519-1385.492a10.769,10.769,0,0,0-5.484,14.208,10.769,10.769,0,0,0-14.208-5.484,10.768,10.768,0,0,0-5.483,14.208c5.713,12.9,31.166,17.174,31.166,17.174s13.931-21.727,8.217-34.623A10.767,10.767,0,0,0,348.519-1385.492Z" transform="translate(-1785.881 4574.812)" fill="#fc7005"/>
    <path id="Path_55410" data-name="Path 55410" d="M1027.081-1564.079a10.769,10.769,0,0,0-13.5,7.054,10.769,10.769,0,0,0-7.054-13.5,10.769,10.769,0,0,0-13.5,7.054C988.813-1550.01,1005.11-1530,1005.11-1530s24.806-7.127,29.026-20.585A10.769,10.769,0,0,0,1027.081-1564.079Z" transform="translate(-1785.881 4574.812)" fill="#05ccfc"/>
    <path id="Path_55411" data-name="Path 55411" d="M1090.012-1265.291a8.08,8.08,0,0,0-10.125,5.291,8.077,8.077,0,0,0-5.291-10.124,8.078,8.078,0,0,0-10.124,5.291c-3.165,10.1,9.059,25.108,9.059,25.108s18.607-5.346,21.772-15.441A8.079,8.079,0,0,0,1090.012-1265.291Z" transform="translate(-1785.881 4574.812)" fill="#fc819d"/>
    <path id="Path_55412" data-name="Path 55412" d="M888.814-1447.65a14.174,14.174,0,0,0-17.691,9.427,14.176,14.176,0,0,0-9.427-17.692A14.174,14.174,0,0,0,844-1446.488c-5.413,17.759,16.249,43.931,16.249,43.931s32.576-9.642,37.988-27.4A14.174,14.174,0,0,0,888.814-1447.65Z" transform="translate(-1785.881 4574.812)" fill="#fc819d"/>
    <g id="Group_10819" data-name="Group 10819" transform="translate(-1786.251 4574.812)">
      <g id="Group_10813" data-name="Group 10813">
        <g id="Group_10810" data-name="Group 10810">
          <path id="Path_55421" data-name="Path 55421" d="M326.251-1035.483c14.61-6.357,31.19-6.757,46.975-4.594s31.124,6.757,46.708,10.076,31.769,5.359,47.416,2.356c3.3-.634,6.765-1.606,9.031-4.093s2.661-6.932-.016-8.97l10.825-66.264c2.676,2.038,2.281,6.483.015,8.97s-5.726,3.459-9.03,4.093c-15.648,3-31.833.963-47.417-2.356s-30.921-7.912-46.707-10.076-32.366-1.763-46.976,4.595a123.519,123.519,0,0,1,34.452,30.711C352.631-1063.853,338.985-1051.183,326.251-1035.483Z" fill="#004ca6"/>
          <g id="Group_10809" data-name="Group 10809">
            <path id="Path_55422" data-name="Path 55422" d="M477.859-1038.641a4.637,4.637,0,0,0-.931-1.5c-7.415,3.862-16.732,5.647-26.923,4.992-9.863-.633-19.642-3.251-29.1-5.783-3.274-.877-6.658-1.783-10-2.6a221.613,221.613,0,0,0-72.833-5.185c-.65.65-1.3,1.3-1.939,1.969a219.814,219.814,0,0,1,74.354,4.933c3.326.808,6.7,1.711,9.964,2.585,9.541,2.554,19.4,5.2,29.442,5.84q2.13.135,4.208.136A51.174,51.174,0,0,0,477.859-1038.641Z" fill="#fff"/>
            <path id="Path_55423" data-name="Path 55423" d="M343.26-1097.75q1.053.721,2.1,1.468c29.661-4.759,60.027,2.938,86.216,11.386l4.056,1.317c13.5,4.4,27.44,8.875,41.823,8.888,1.516-.006,3.016-.077,4.5-.2l.3-1.809c-1.58.144-3.178.237-4.8.244h-.288c-13.985,0-27.707-4.475-40.981-8.8l-4.061-1.32C405.188-1095.262,373.862-1103.191,343.26-1097.75Z" fill="#fff"/>
          </g>
          <path id="Path_55424" data-name="Path 55424" d="M476.365-1040.708l2.2-13.452a50.048,50.048,0,0,0-15.755-2.426c-5.878.163-12.075,4.085-16.728,7.682,2.639.7,3.965,4.025,3.109,6.617s-3.351,4.374-5.98,5.111a25.193,25.193,0,0,1-8.139.455l-60.96-3.218c15.475,2.211,30.533,6.681,45.825,9.938,15.583,3.319,31.769,5.359,47.416,2.356,3.3-.634,6.765-1.606,9.031-4.093S479.042-1038.67,476.365-1040.708Z" opacity="0.1"/>
          <path id="Path_55425" data-name="Path 55425" d="M410.479-1060.363c4.959,6.717,13.5,9.816,21.774,10.964s16.716.712,24.943,2.133,16.636,5.147,20.9,12.323a129.968,129.968,0,0,0,9.45-42.165c-17.979-8.272-39.3-8.839-58.1-2.662C420.564-1076.851,411.6-1069.647,410.479-1060.363Z" fill="#003578"/>
          <path id="Path_55426" data-name="Path 55426" d="M443.016-1061.214c9.178-.107,18.252,1.8,27.4,2.488a60.714,60.714,0,0,0,14.921-.546,120.876,120.876,0,0,0,2.029-15.273c-.625-.324-1.258-.635-1.892-.937a104.816,104.816,0,0,0-24.882-8.262,83.56,83.56,0,0,0-31.149,3.974c-8.853,2.909-17.779,10.075-18.952,19.312.018.063.042.123.061.185a24.143,24.143,0,0,0,8.638,6.99C425.52-1058.938,434.459-1061.115,443.016-1061.214Z" opacity="0.2"/>
        </g>
        <g id="Group_10812" data-name="Group 10812">
          <path id="Path_55427" data-name="Path 55427" d="M1113.749-1035.483c-14.61-6.357-31.19-6.757-46.975-4.594s-31.124,6.757-46.708,10.076-31.769,5.359-47.416,2.356c-3.305-.634-6.765-1.606-9.031-4.093s-2.661-6.932.016-8.97l-10.825-66.264c-2.677,2.038-2.281,6.483-.015,8.97s5.726,3.459,9.03,4.093c15.648,3,31.833.963,47.417-2.356s30.921-7.912,46.707-10.076,32.366-1.763,46.976,4.595a123.5,123.5,0,0,0-34.452,30.711C1087.369-1063.853,1101.015-1051.183,1113.749-1035.483Z" fill="#004ca6"/>
          <g id="Group_10811" data-name="Group 10811">
            <path id="Path_55428" data-name="Path 55428" d="M962.141-1038.641a4.637,4.637,0,0,1,.931-1.5c7.415,3.862,16.732,5.647,26.923,4.992,9.863-.633,19.642-3.251,29.1-5.783,3.274-.877,6.658-1.783,10-2.6a221.613,221.613,0,0,1,72.833-5.185c.65.65,1.3,1.3,1.939,1.969a219.814,219.814,0,0,0-74.354,4.933c-3.326.808-6.7,1.711-9.964,2.585-9.541,2.554-19.4,5.2-29.442,5.84q-2.13.135-4.208.136A51.174,51.174,0,0,1,962.141-1038.641Z" fill="#fff"/>
            <path id="Path_55429" data-name="Path 55429" d="M1096.74-1097.75q-1.053.721-2.1,1.468c-29.662-4.759-60.027,2.938-86.216,11.386l-4.056,1.317c-13.5,4.4-27.44,8.875-41.823,8.888-1.516-.006-3.016-.077-4.5-.2l-.3-1.809c1.58.144,3.178.237,4.8.244h.288c13.985,0,27.707-4.475,40.981-8.8l4.061-1.32C1034.812-1095.262,1066.138-1103.191,1096.74-1097.75Z" fill="#fff"/>
          </g>
          <path id="Path_55430" data-name="Path 55430" d="M963.635-1040.708l-2.2-13.452a50.048,50.048,0,0,1,15.755-2.426c5.878.163,12.075,4.085,16.728,7.682-2.639.7-3.965,4.025-3.109,6.617s3.351,4.374,5.98,5.111a25.192,25.192,0,0,0,8.139.455l60.96-3.218c-15.475,2.211-30.533,6.681-45.825,9.938-15.583,3.319-31.769,5.359-47.416,2.356-3.305-.634-6.765-1.606-9.031-4.093S960.958-1038.67,963.635-1040.708Z" opacity="0.2"/>
          <path id="Path_55431" data-name="Path 55431" d="M1029.521-1060.363c-4.959,6.717-13.5,9.816-21.774,10.964s-16.716.712-24.943,2.133-16.637,5.147-20.9,12.323a129.968,129.968,0,0,1-9.45-42.165c17.979-8.272,39.3-8.839,58.1-2.662C1019.436-1076.851,1028.4-1069.647,1029.521-1060.363Z" fill="#003578"/>
          <path id="Path_55432" data-name="Path 55432" d="M996.984-1061.214c-9.178-.107-18.252,1.8-27.405,2.488a60.713,60.713,0,0,1-14.921-.546,120.854,120.854,0,0,1-2.029-15.273c.625-.324,1.258-.635,1.892-.937a104.815,104.815,0,0,1,24.882-8.262,83.56,83.56,0,0,1,31.149,3.974c8.853,2.909,17.779,10.075,18.952,19.312-.018.063-.042.123-.061.185a24.143,24.143,0,0,1-8.638,6.99C1014.48-1058.938,1005.541-1061.115,996.984-1061.214Z" opacity="0.2"/>
        </g>
        <path id="Path_55433" data-name="Path 55433" d="M1032.287-1148.58c-8.732-10.092-22.841-14.078-36.185-13.949s-26.356,3.809-39.4,6.633c-34.122,7.39-69.783,5.089-104.481,5.347-53.168,0-316.337,4.5-368.856-5.347-13.042-2.824-26.054-6.5-39.4-6.633s-27.453,3.857-36.185,13.949c-3.41,3.941-1.979,10.262.1,15.041a91.33,91.33,0,0,1,1.819,67.515c-1.592,4.277.768,8.883,4.712,11.178a22.528,22.528,0,0,0,6.069,2.327,7.567,7.567,0,0,1-2.3-5.7c.164-5.114,4.6-9.282,9.48-10.825s10.136-1.035,15.229-.543c53.956,5.216,108.222,5.687,162.386,5.564,52.718-.121,314.817.6,367.421-3.441q12.249-.941,24.476-2.123c5.093-.492,10.351-1,15.229.543s9.316,5.711,9.481,10.825a7.575,7.575,0,0,1-2.3,5.7,22.534,22.534,0,0,0,6.068-2.327c3.944-2.3,6.3-6.9,4.712-11.178a91.335,91.335,0,0,1,1.819-67.515C1034.266-1138.318,1035.7-1144.639,1032.287-1148.58Z" fill="#005fcb"/>
        <path id="Path_55434" data-name="Path 55434" d="M407.116-1141.224a8.7,8.7,0,0,0-1.111,1.651,24,24,0,0,0,.783,3.136,7.464,7.464,0,0,1,1.664-3.631c7.519-8.692,20.2-13.648,34.879-13.648.209,0,.419,0,.63,0,10.684.1,21.366,2.551,31.7,4.92,2.508.575,5.016,1.15,7.55,1.7,40.081,7.515,81.551,6.681,121.644,5.874,12.515-.252,234.7-.512,247.38-.512,7.232-.054,14.641.005,21.8.061,27.409.22,55.758.442,82.856-5.428,2.51-.543,5.018-1.118,7.526-1.693,10.329-2.369,21.01-4.817,31.7-4.92,15-.147,27.883,4.83,35.509,13.644a7.466,7.466,0,0,1,1.663,3.632,23.876,23.876,0,0,0,.783-3.138,8.652,8.652,0,0,0-1.111-1.65c-7.966-9.207-21.347-14.335-36.861-14.254-10.876.1-21.652,2.575-32.071,4.964-2.5.574-5.005,1.147-7.506,1.689-26.91,5.828-55.155,5.6-82.469,5.388-7.171-.055-14.588-.113-21.824-.061-12.691,0-234.887.26-247.409.512-40,.8-81.38,1.638-121.26-5.839-2.5-.542-5-1.115-7.506-1.689-10.419-2.389-21.2-4.859-32.071-4.964C428.5-1155.639,415.084-1150.432,407.116-1141.224Z" fill="#fff"/>
        <path id="Path_55435" data-name="Path 55435" d="M1029.15-1069.564c-.336-1.036-.64-2.082-.937-3.13-8.048-6.353-19.358-9.817-32.119-9.75-10.876.1-21.652,2.575-32.071,4.964-2.5.574-5.005,1.147-7.506,1.689-26.91,5.828-55.155,5.6-82.469,5.388-7.171-.055-14.588-.113-21.824-.061-12.691,0-234.887.26-247.409.512-40,.805-81.38,1.638-121.26-5.839-2.5-.542-5-1.115-7.506-1.689-10.419-2.389-21.2-4.859-32.071-4.964-12.73-.132-24.061,3.375-32.118,9.746-.3,1.05-.6,2.1-.939,3.135,7.669-7.111,19.231-11.118,32.41-11.118q.314,0,.63,0c10.684.1,21.366,2.551,31.7,4.92,2.508.575,5.016,1.15,7.55,1.7,40.081,7.515,81.551,6.681,121.644,5.874,12.515-.252,234.7-.512,247.38-.512,7.232-.053,14.641.005,21.8.061,27.409.22,55.758.442,82.856-5.427,2.51-.544,5.018-1.119,7.526-1.694,10.329-2.369,21.01-4.817,31.7-4.92C1009.6-1080.81,1021.368-1076.786,1029.15-1069.564Z" fill="#fff"/>
        <path id="Path_55436" data-name="Path 55436" d="M417.324-1141.063c-2.233,1.441-4.615,3.66-4.092,6.265.444,2.212,2.933,3.5,5.188,3.438s4.341-1.128,6.395-2.062a64.979,64.979,0,0,1,20.531-5.51c2.933-.288,6.562-.868,7.455-3.677s-1.945-5.541-4.811-6.253C437.913-1151.363,425.692-1146.46,417.324-1141.063Z" fill="#272727" style="mix-blend-mode: screen;isolation: isolate"/>
        <path id="Path_55437" data-name="Path 55437" d="M474.8-1141.271c-.526,2.722-4.555,4.231-9,3.372s-7.618-3.763-7.092-6.484,4.555-4.231,9-3.371S475.329-1143.992,474.8-1141.271Z" fill="#272727" style="mix-blend-mode: screen;isolation: isolate"/>
        <path id="Path_55438" data-name="Path 55438" d="M1019.045-1142.864c2.051,1.161,4.271,3.155,3.653,5.429a3.9,3.9,0,0,1-2.938,2.537,11.505,11.505,0,0,1-4.05.01l-32.465-3.781c-1.394-.163-2.989-.45-3.693-1.664-.747-1.287-.017-3.024,1.2-3.887,4.639-3.3,13.674-3.986,19.183-3.852A40.953,40.953,0,0,1,1019.045-1142.864Z" fill="#272727" style="mix-blend-mode: screen;isolation: isolate"/>
      </g>
    </g>
    <g transform="matrix(1, 0, 0, 1, -1463.46, 2982.3)" filter="url(#Chia_sẻ_yêu_thương)">
      <text id="Chia_sẻ_yêu_thương-2" data-name="Chia sẻ yêu thương" transform="translate(149.46 504.7)" fill="#fff" font-size="41.016" font-family="PottaOne-Regular, Potta One" letter-spacing="0.019em"><tspan x="0" y="0">CHIA SẺ YÊU THƯƠNG</tspan></text>
    </g>
  </g>
</svg>
