<svg xmlns="http://www.w3.org/2000/svg" width="81.693" height="86.247" viewBox="0 0 81.693 86.247">
  <g id="Group_5793" data-name="Group 5793" transform="translate(0 0)">
    <path id="Path_31056" data-name="Path 31056" d="M286.76,814.858a11.6,11.6,0,0,1-5.947.981H280.8c-1.489-1.336-1.062-3.718,1.305-6.143,1.246,0,5.4-1.212,5.87-4.71.367-2.679-1.084-5.785-5.691-5.3-1.729-1.361-1.871-3.1.009-5.666,8.78-.922,12.372,6.254,11.6,11.348A11.536,11.536,0,0,1,286.76,814.858Z" transform="translate(-246.613 -769.567)" fill="#24a0d1"/>
    <path id="Path_31057" data-name="Path 31057" d="M219.638,809.7c2.51,2.282,2.866,4.345,1.305,6.143h-.009a12.138,12.138,0,0,1-13.089-10.469c-.768-5.094,2.824-12.27,11.6-11.348,1.623,1.665,2.076,3.878.009,5.666-4.608-.486-6.058,2.619-5.691,5.3C214.236,808.485,218.392,809.7,219.638,809.7Z" transform="translate(-174.42 -769.567)" fill="#24a0d1"/>
    <path id="Path_31058" data-name="Path 31058" d="M273.715,788.095h-52.25s.028,12.517,0,16.69c-.1,14.38,7.236,21.867,18.881,25.034a4.248,4.248,0,0,1,3.422,3.833c.061,3.757.515,9.728-3.931,12.57-1.193.762-4.331,2-5.956,2.974-1.191.712-.836,2.389.364,3.089,2.036,1.185,7.515,2.672,13.345,2.672s11.31-1.486,13.346-2.672c1.2-.7,1.555-2.377.363-3.089-1.625-.97-4.764-2.212-5.956-2.974-4.447-2.842-3.992-8.813-3.932-12.57a4.25,4.25,0,0,1,3.423-3.833c11.644-3.167,18.978-10.654,18.881-25.034C273.687,800.612,273.715,788.095,273.715,788.095Z" transform="translate(-207.764 -768.709)" fill="#3cb7dd"/>
    <ellipse id="Ellipse_3127" data-name="Ellipse 3127" cx="26.125" cy="2.868" rx="26.125" ry="2.868" transform="translate(13.7 16.518)" fill="#584360"/>
    <path id="Path_31059" data-name="Path 31059" d="M249.043,804.552l-1.026,2.079a1.89,1.89,0,0,1-1.424,1.034L244.3,808a1.892,1.892,0,0,0-1.049,3.226l1.66,1.619a1.891,1.891,0,0,1,.544,1.674l-.393,2.285a1.891,1.891,0,0,0,2.744,1.994l2.053-1.079a1.894,1.894,0,0,1,1.76,0l2.052,1.079a1.891,1.891,0,0,0,2.744-1.994l-.392-2.285a1.893,1.893,0,0,1,.543-1.674l1.66-1.619A1.891,1.891,0,0,0,257.18,808l-2.294-.334a1.89,1.89,0,0,1-1.424-1.034l-1.026-2.079A1.891,1.891,0,0,0,249.043,804.552Z" transform="translate(-210.205 -770.97)" fill="#ff736c"/>
    <path id="Path_31060" data-name="Path 31060" d="M216.847,774.417l-.991,1.812a.343.343,0,0,1-.139.14l-1.812.991a.351.351,0,0,0,0,.617l1.812.991a.348.348,0,0,1,.139.14l.991,1.811a.351.351,0,0,0,.617,0l.991-1.811a.356.356,0,0,1,.14-.14l1.811-.991a.351.351,0,0,0,0-.617l-1.811-.991a.351.351,0,0,1-.14-.14l-.991-1.812A.351.351,0,0,0,216.847,774.417Z" transform="translate(-176.983 -766.675)" fill="#ffc639"/>
    <path id="Path_31061" data-name="Path 31061" d="M231.243,765.624l-1.349,2.467a.486.486,0,0,1-.19.19l-2.467,1.349a.478.478,0,0,0,0,.84l2.467,1.35a.475.475,0,0,1,.19.19l1.349,2.467a.478.478,0,0,0,.84,0l1.35-2.467a.465.465,0,0,1,.19-.19l2.467-1.35a.478.478,0,0,0,0-.84l-2.467-1.349a.475.475,0,0,1-.19-.19l-1.35-2.467A.478.478,0,0,0,231.243,765.624Z" transform="translate(-191.104 -765.375)" fill="#ffc639"/>
    <path id="Path_31062" data-name="Path 31062" d="M769.391,1022.664l.829,1.519a.262.262,0,0,0,.116.116l1.51.83a.291.291,0,0,1,0,.515l-1.51.829a.263.263,0,0,0-.116.116l-.829,1.51a.291.291,0,0,1-.515,0l-.83-1.51a.263.263,0,0,0-.116-.116l-1.51-.829a.291.291,0,0,1,0-.515l1.51-.83a.262.262,0,0,0,.116-.116l.83-1.519A.3.3,0,0,1,769.391,1022.664Z" transform="translate(-764.26 -963.363)" fill="#ffc639"/>
    <path id="Path_31063" data-name="Path 31063" d="M858.519,1032.785l.83,1.519a.262.262,0,0,0,.116.116l1.51.83a.291.291,0,0,1,0,.515l-1.51.829a.262.262,0,0,0-.116.116l-.83,1.51a.291.291,0,0,1-.515,0l-.829-1.51a.263.263,0,0,0-.116-.116l-1.51-.829a.291.291,0,0,1,0-.515l1.51-.83a.263.263,0,0,0,.116-.116l.829-1.519A.3.3,0,0,1,858.519,1032.785Z" transform="translate(-787.563 -959.729)" fill="#ffc639"/>
    <path id="Path_31064" data-name="Path 31064" d="M780.115,963.814l1.119,2.048a.35.35,0,0,0,.157.157l2.037,1.119a.391.391,0,0,1,0,.694l-2.037,1.12a.353.353,0,0,0-.157.157l-1.119,2.038a.392.392,0,0,1-.694,0l-1.119-2.038a.358.358,0,0,0-.157-.157l-2.038-1.12a.391.391,0,0,1,0-.694l2.038-1.119a.354.354,0,0,0,.157-.157l1.119-2.048A.4.4,0,0,1,780.115,963.814Z" transform="translate(-775.896 -949.6)" fill="#ffc639"/>
    <path id="Path_31065" data-name="Path 31065" d="M867.211,988.713l1.021,1.869a.323.323,0,0,0,.143.143l1.859,1.021a.358.358,0,0,1,0,.634l-1.859,1.021a.323.323,0,0,0-.143.143l-1.021,1.859a.358.358,0,0,1-.634,0l-1.021-1.859a.323.323,0,0,0-.143-.143l-1.859-1.021a.358.358,0,0,1,0-.634l1.859-1.021a.323.323,0,0,0,.143-.143l1.021-1.869A.365.365,0,0,1,867.211,988.713Z" transform="translate(-788.732 -953.256)" fill="#ffc639"/>
  </g>
</svg>
