<svg xmlns="http://www.w3.org/2000/svg" width="87.153" height="74.739" viewBox="0 0 87.153 74.739">
  <g id="Group_10779" data-name="Group 10779" transform="translate(16202.577 19820.969)">
    <path id="Path_29974" data-name="Path 29974" d="M94.585,598.168c5.1-3.293,10.576,2.291,6.224,9.361-2.964,4.812.657,15.133-3.884,20.749l-2.761.3c-.279-9.41-5.464-16.057-13.018-20.639a8.962,8.962,0,0,1,3.249-5.363C87.162,600.138,88.846,601.863,94.585,598.168Z" transform="translate(-16226.624 -20405.906)" fill="#61d6a0"/>
    <path id="Path_29975" data-name="Path 29975" d="M79.3,599.854a7.136,7.136,0,0,1,.2,3.457,22.774,22.774,0,0,1-1.479,3.009c-4.064-2.48-9.639-3.592-14.746-3.592-4.409,0-10.161,1.9-10.592-.328,1.831-7.267,8.589-6.733,8.063-16.036-.279-4.853,8.564-6.938,11.725.452C75.1,592.949,78.392,595.544,79.3,599.854Z" transform="translate(-16221.109 -20402.947)" fill="#1cb7a4"/>
    <path id="Path_29976" data-name="Path 29976" d="M71.624,602.64a.823.823,0,0,1-.769-1.109c.013-.034,1.287-3.588-.516-6.412a.821.821,0,0,1,1.384-.884c2.25,3.525.736,7.695.67,7.87A.819.819,0,0,1,71.624,602.64Z" transform="translate(-16224.253 -20405.072)" fill="#4e3b56"/>
    <path id="Path_29977" data-name="Path 29977" d="M90.876,612.878a.822.822,0,0,1-.681-1.28c.094-.138,2.3-3.4,4.4-4.537a.821.821,0,0,1,.784,1.443,15.193,15.193,0,0,0-3.82,4.011A.819.819,0,0,1,90.876,612.878Z" transform="translate(-16228.017 -20407.664)" fill="#4e3b56"/>
    <path id="Path_29978" data-name="Path 29978" d="M103.269,668.514l-4.437-5.4-3.3,2.676,4.526,5.556a2.14,2.14,0,1,0,3.207-2.833Z" transform="translate(-16229.198 -20418.301)" fill="#f2635f"/>
    <path id="Path_29979" data-name="Path 29979" d="M21.628,594.425a11.076,11.076,0,0,0-8.233,18.61,11.254,11.254,0,0,1,3.036,7.588s.416,3.368,5.083,3.368c4.567,0,4.887-2.771,4.887-2.771l.189-.6a10.949,10.949,0,0,1,2.949-7.491,11.075,11.075,0,0,0-7.91-18.707Z" transform="translate(-16212.998 -20405.174)" fill="#ffc639"/>
    <circle id="Ellipse_2956" data-name="Ellipse 2956" cx="26.908" cy="26.908" r="26.908" transform="translate(-16183.11 -19804.326)" fill="#5981d1"/>
    <path id="Path_29980" data-name="Path 29980" d="M88.355,654.279a26.812,26.812,0,0,1-16.685,9.788c-2.217-.673-4.8-2.693-5.452-4.828-1.043-3.408,3.186-2.48,5.165-3.358,1.88-.821,1.026-7.9,2.545-9.279,2.406-2.2,6.552-3.982,7.768.205C83.994,654.739,86.17,651.578,88.355,654.279Z" transform="translate(-16223.626 -20414.93)" fill="#4e3b56"/>
    <path id="Path_29981" data-name="Path 29981" d="M50.695,642.894c-2.743,4.524-2.981,12.842-.049,14.919A26.911,26.911,0,0,1,37.951,620.7c.271,8.219,2.874,9.311,8.5,9.18S53.437,638.377,50.695,642.894Z" transform="translate(-16217.637 -20410.711)" fill="#4e3b56"/>
    <path id="Path_29982" data-name="Path 29982" d="M87.285,616.842c-1.913-1.831-4.13-.911-6.52,1.15s-1.585,10.551-8.7,9.862-7-5.756-8.154-8.195-2.816-2.217-6.651,0-6.306-.164-5.592-3.728,2.718-6.429-4.672-6.676a26.908,26.908,0,0,1,40.292,7.587Z" transform="translate(-16220.151 -20407.043)" fill="#4e3b56"/>
    <path id="Path_29983" data-name="Path 29983" d="M116.485,626.622a3.932,3.932,0,0,0,.2-3.055.46.46,0,0,0-.507-.338,3.062,3.062,0,0,0-2.944,4.411.462.462,0,0,0,.507.338A3.931,3.931,0,0,0,116.485,626.622Z" transform="translate(-16232.325 -20410.727)" fill="#78ef9d"/>
    <path id="Path_29984" data-name="Path 29984" d="M114.29,641.22a3.929,3.929,0,0,0-2.463-1.819.46.46,0,0,0-.558.243,3.062,3.062,0,0,0,2.118,4.862.46.46,0,0,0,.558-.243A3.934,3.934,0,0,0,114.29,641.22Z" transform="translate(-16231.917 -20413.777)" fill="#61d6a0"/>
    <path id="Path_29985" data-name="Path 29985" d="M44.858,598.538a3.929,3.929,0,0,0,2.035-2.288.461.461,0,0,0-.192-.579,3.931,3.931,0,0,0-3-.618,3.932,3.932,0,0,0-2.035,2.288.461.461,0,0,0,.192.578A3.928,3.928,0,0,0,44.858,598.538Z" transform="translate(-16218.881 -20405.266)" fill="#59d393"/>
    <path id="Path_29986" data-name="Path 29986" d="M28.946,657.211a3.929,3.929,0,0,0,.2-3.055.462.462,0,0,0-.507-.338,3.927,3.927,0,0,0-2.745,1.356,3.929,3.929,0,0,0-.2,3.055.462.462,0,0,0,.507.338A3.93,3.93,0,0,0,28.946,657.211Z" transform="translate(-16215.688 -20416.496)" fill="#61d6a0"/>
    <path id="Path_29987" data-name="Path 29987" d="M89.55,589.176a3.931,3.931,0,0,0,3.059.122.462.462,0,0,0,.326-.516,3.063,3.063,0,0,0-4.484-2.832.463.463,0,0,0-.326.516A3.934,3.934,0,0,0,89.55,589.176Z" transform="translate(-16227.644 -20403.613)" fill="#78ef9d"/>
    <path id="Path_29989" data-name="Path 29989" d="M23.745,626.872a.821.821,0,0,1-.821-.821v-5.189a.821.821,0,0,1,1.642,0v5.189A.821.821,0,0,1,23.745,626.872Z" transform="translate(-16215.232 -20410.137)" fill="#fff"/>
    <circle id="Ellipse_2957" data-name="Ellipse 2957" cx="0.625" cy="0.625" r="0.625" transform="translate(-16192.114 -19792.689)" fill="#fff"/>
    <path id="Path_29990" data-name="Path 29990" d="M23.065,614.1h-.071a1.528,1.528,0,0,1-1.416-.981c-.585-1.5-1.066-1.831-1.924-2.02a.821.821,0,1,1,.352-1.6c1.487.326,2.323,1.111,3.041,2.873.718-1.762,1.554-2.547,3.041-2.873a.821.821,0,1,1,.351,1.6c-.857.189-1.338.525-1.924,2.02A1.538,1.538,0,0,1,23.065,614.1Z" transform="translate(-16214.531 -20408.133)" fill="#fff"/>
    <path id="Path_29991" data-name="Path 29991" d="M30.108,626.331v0h0Z" transform="translate(-16216.518 -20411.285)" fill="#4e3b56"/>
    <path id="Path_29992" data-name="Path 29992" d="M22.815,627.176a16.053,16.053,0,0,1-5.079-.845,5.082,5.082,0,1,0,10.159,0A16.048,16.048,0,0,1,22.815,627.176Z" transform="translate(-16214.305 -20411.316)" fill="#4e3b56"/>
    <path id="Path_29993" data-name="Path 29993" d="M94.56,643.189A12.077,12.077,0,1,0,93.5,660.235,12.074,12.074,0,0,0,94.56,643.189Zm-3.58,14.189A8.266,8.266,0,1,1,91.7,645.71,8.272,8.272,0,0,1,90.98,657.378Z" transform="translate(-16225.244 -20414.004)" fill="#ff736c"/>
    <path id="Path_30781" data-name="Path 30781" d="M28.946,657.211a3.929,3.929,0,0,0,.2-3.055.462.462,0,0,0-.507-.338,3.927,3.927,0,0,0-2.745,1.356,3.929,3.929,0,0,0-.2,3.055.462.462,0,0,0,.507.338A3.93,3.93,0,0,0,28.946,657.211Z" transform="translate(-16222.944 -20424.512)" fill="#61d6a0"/>
    <path id="Path_28495" data-name="Path 28495" d="M94.585,598.168c5.1-3.293,10.576,2.291,6.224,9.361-2.964,4.812.657,15.133-3.884,20.749l-2.761.3c-.279-9.41-5.464-16.057-13.018-20.639a8.962,8.962,0,0,1,3.249-5.363C87.162,600.138,88.846,601.863,94.585,598.168Z" transform="translate(-16226.624 -20405.906)" fill="#61d6a0"/>
    <path id="Path_28496" data-name="Path 28496" d="M79.3,599.854a7.136,7.136,0,0,1,.2,3.457,22.774,22.774,0,0,1-1.479,3.009c-4.064-2.48-9.639-3.592-14.746-3.592-4.409,0-10.161,1.9-10.592-.328,1.831-7.267,8.589-6.733,8.063-16.036-.279-4.853,8.564-6.938,11.725.452C75.1,592.949,78.392,595.544,79.3,599.854Z" transform="translate(-16221.109 -20402.947)" fill="#1cb7a4"/>
    <path id="Path_28497" data-name="Path 28497" d="M71.624,602.64a.823.823,0,0,1-.769-1.109c.013-.034,1.287-3.588-.516-6.412a.821.821,0,0,1,1.384-.884c2.25,3.525.736,7.695.67,7.87A.819.819,0,0,1,71.624,602.64Z" transform="translate(-16224.253 -20405.072)" fill="#4e3b56"/>
    <path id="Path_28498" data-name="Path 28498" d="M90.876,612.878a.822.822,0,0,1-.681-1.28c.094-.138,2.3-3.4,4.4-4.537a.821.821,0,0,1,.784,1.443,15.193,15.193,0,0,0-3.82,4.011A.819.819,0,0,1,90.876,612.878Z" transform="translate(-16228.017 -20407.664)" fill="#4e3b56"/>
    <path id="Path_28499" data-name="Path 28499" d="M103.269,668.514l-4.437-5.4-3.3,2.676,4.526,5.556a2.14,2.14,0,1,0,3.207-2.833Z" transform="translate(-16229.198 -20418.301)" fill="#f2635f"/>
    <path id="Path_28500" data-name="Path 28500" d="M21.628,594.425a11.076,11.076,0,0,0-8.233,18.61,11.254,11.254,0,0,1,3.036,7.588s.416,3.368,5.083,3.368c4.567,0,4.887-2.771,4.887-2.771l.189-.6a10.949,10.949,0,0,1,2.949-7.491,11.075,11.075,0,0,0-7.91-18.707Z" transform="translate(-16212.998 -20405.174)" fill="#ffc639"/>
    <circle id="Ellipse_2728" data-name="Ellipse 2728" cx="26.908" cy="26.908" r="26.908" transform="translate(-16183.11 -19804.326)" fill="#5981d1"/>
    <path id="Path_28501" data-name="Path 28501" d="M88.355,654.279a26.812,26.812,0,0,1-16.685,9.788c-2.217-.673-4.8-2.693-5.452-4.828-1.043-3.408,3.186-2.48,5.165-3.358,1.88-.821,1.026-7.9,2.545-9.279,2.406-2.2,6.552-3.982,7.768.205C83.994,654.739,86.17,651.578,88.355,654.279Z" transform="translate(-16223.626 -20414.93)" fill="#4e3b56"/>
    <path id="Path_28502" data-name="Path 28502" d="M50.695,642.894c-2.743,4.524-2.981,12.842-.049,14.919A26.911,26.911,0,0,1,37.951,620.7c.271,8.219,2.874,9.311,8.5,9.18S53.437,638.377,50.695,642.894Z" transform="translate(-16217.637 -20410.711)" fill="#4e3b56"/>
    <path id="Path_28503" data-name="Path 28503" d="M87.285,616.842c-1.913-1.831-4.13-.911-6.52,1.15s-1.585,10.551-8.7,9.862-7-5.756-8.154-8.195-2.816-2.217-6.651,0-6.306-.164-5.592-3.728,2.718-6.429-4.672-6.676a26.908,26.908,0,0,1,40.292,7.587Z" transform="translate(-16220.151 -20407.043)" fill="#4e3b56"/>
    <path id="Path_28504" data-name="Path 28504" d="M116.485,626.622a3.932,3.932,0,0,0,.2-3.055.46.46,0,0,0-.507-.338,3.062,3.062,0,0,0-2.944,4.411.462.462,0,0,0,.507.338A3.931,3.931,0,0,0,116.485,626.622Z" transform="translate(-16232.325 -20410.727)" fill="#78ef9d"/>
    <path id="Path_28505" data-name="Path 28505" d="M114.29,641.22a3.929,3.929,0,0,0-2.463-1.819.46.46,0,0,0-.558.243,3.062,3.062,0,0,0,2.118,4.862.46.46,0,0,0,.558-.243A3.934,3.934,0,0,0,114.29,641.22Z" transform="translate(-16231.917 -20413.777)" fill="#61d6a0"/>
    <path id="Path_28506" data-name="Path 28506" d="M44.858,598.538a3.929,3.929,0,0,0,2.035-2.288.461.461,0,0,0-.192-.579,3.931,3.931,0,0,0-3-.618,3.932,3.932,0,0,0-2.035,2.288.461.461,0,0,0,.192.578A3.928,3.928,0,0,0,44.858,598.538Z" transform="translate(-16218.881 -20405.266)" fill="#59d393"/>
    <path id="Path_28507" data-name="Path 28507" d="M28.946,657.211a3.929,3.929,0,0,0,.2-3.055.462.462,0,0,0-.507-.338,3.927,3.927,0,0,0-2.745,1.356,3.929,3.929,0,0,0-.2,3.055.462.462,0,0,0,.507.338A3.93,3.93,0,0,0,28.946,657.211Z" transform="translate(-16215.688 -20416.496)" fill="#61d6a0"/>
    <path id="Path_28508" data-name="Path 28508" d="M89.55,589.176a3.931,3.931,0,0,0,3.059.122.462.462,0,0,0,.326-.516,3.063,3.063,0,0,0-4.484-2.832.463.463,0,0,0-.326.516A3.934,3.934,0,0,0,89.55,589.176Z" transform="translate(-16227.644 -20403.613)" fill="#78ef9d"/>
    <path id="Path_28509" data-name="Path 28509" d="M11.848,640.51a3.932,3.932,0,0,0,3.059.122.462.462,0,0,0,.325-.516,3.928,3.928,0,0,0-1.425-2.71,3.931,3.931,0,0,0-3.059-.122.461.461,0,0,0-.325.515A3.931,3.931,0,0,0,11.848,640.51Z" transform="translate(-16212.995 -20413.324)" fill="#78ef9d"/>
    <path id="Path_28510" data-name="Path 28510" d="M23.745,626.872a.821.821,0,0,1-.821-.821v-5.189a.821.821,0,0,1,1.642,0v5.189A.821.821,0,0,1,23.745,626.872Z" transform="translate(-16215.232 -20410.137)" fill="#fff"/>
    <circle id="Ellipse_2729" data-name="Ellipse 2729" cx="0.625" cy="0.625" r="0.625" transform="translate(-16192.114 -19792.689)" fill="#fff"/>
    <path id="Path_28511" data-name="Path 28511" d="M23.065,614.1h-.071a1.528,1.528,0,0,1-1.416-.981c-.585-1.5-1.066-1.831-1.924-2.02a.821.821,0,1,1,.352-1.6c1.487.326,2.323,1.111,3.041,2.873.718-1.762,1.554-2.547,3.041-2.873a.821.821,0,1,1,.351,1.6c-.857.189-1.338.525-1.924,2.02A1.538,1.538,0,0,1,23.065,614.1Z" transform="translate(-16214.531 -20408.133)" fill="#fff"/>
    <path id="Path_28512" data-name="Path 28512" d="M30.108,626.331v0h0Z" transform="translate(-16216.518 -20411.285)" fill="#4e3b56"/>
    <path id="Path_28513" data-name="Path 28513" d="M22.815,627.176a16.053,16.053,0,0,1-5.079-.845,5.082,5.082,0,1,0,10.159,0A16.048,16.048,0,0,1,22.815,627.176Z" transform="translate(-16214.305 -20411.316)" fill="#4e3b56"/>
    <path id="Path_28514" data-name="Path 28514" d="M94.56,643.189A12.077,12.077,0,1,0,93.5,660.235,12.074,12.074,0,0,0,94.56,643.189Zm-3.58,14.189A8.266,8.266,0,1,1,91.7,645.71,8.272,8.272,0,0,1,90.98,657.378Z" transform="translate(-16225.244 -20414.004)" fill="#ff736c"/>
    <path id="Path_28002" data-name="Path 28002" d="M94.585,598.168c5.1-3.293,10.576,2.291,6.224,9.361-2.964,4.812.657,15.133-3.884,20.749l-2.761.3c-.279-9.41-5.464-16.057-13.018-20.639a8.962,8.962,0,0,1,3.249-5.363C87.162,600.138,88.846,601.863,94.585,598.168Z" transform="translate(-16226.624 -20405.906)" fill="#61d6a0"/>
    <path id="Path_28003" data-name="Path 28003" d="M79.3,599.854a7.136,7.136,0,0,1,.2,3.457,22.774,22.774,0,0,1-1.479,3.009c-4.064-2.48-9.639-3.592-14.746-3.592-4.409,0-10.161,1.9-10.592-.328,1.831-7.267,8.589-6.733,8.063-16.036-.279-4.853,8.564-6.938,11.725.452C75.1,592.949,78.392,595.544,79.3,599.854Z" transform="translate(-16221.109 -20402.947)" fill="#1cb7a4"/>
    <path id="Path_28004" data-name="Path 28004" d="M71.624,602.64a.823.823,0,0,1-.769-1.109c.013-.034,1.287-3.588-.516-6.412a.821.821,0,0,1,1.384-.884c2.25,3.525.736,7.695.67,7.87A.819.819,0,0,1,71.624,602.64Z" transform="translate(-16224.253 -20405.072)" fill="#4e3b56"/>
    <path id="Path_28005" data-name="Path 28005" d="M90.876,612.878a.822.822,0,0,1-.681-1.28c.094-.138,2.3-3.4,4.4-4.537a.821.821,0,0,1,.784,1.443,15.193,15.193,0,0,0-3.82,4.011A.819.819,0,0,1,90.876,612.878Z" transform="translate(-16228.017 -20407.664)" fill="#4e3b56"/>
    <path id="Path_28006" data-name="Path 28006" d="M103.269,668.514l-4.437-5.4-3.3,2.676,4.526,5.556a2.14,2.14,0,1,0,3.207-2.833Z" transform="translate(-16229.198 -20418.301)" fill="#f2635f"/>
    <path id="Path_28007" data-name="Path 28007" d="M21.628,594.425a11.076,11.076,0,0,0-8.233,18.61,11.254,11.254,0,0,1,3.036,7.588s.416,3.368,5.083,3.368c4.567,0,4.887-2.771,4.887-2.771l.189-.6a10.949,10.949,0,0,1,2.949-7.491,11.075,11.075,0,0,0-7.91-18.707Z" transform="translate(-16212.998 -20405.174)" fill="#ffc639"/>
    <circle id="Ellipse_2652" data-name="Ellipse 2652" cx="26.908" cy="26.908" r="26.908" transform="translate(-16183.11 -19804.326)" fill="#5981d1"/>
    <path id="Path_28008" data-name="Path 28008" d="M88.355,654.279a26.812,26.812,0,0,1-16.685,9.788c-2.217-.673-4.8-2.693-5.452-4.828-1.043-3.408,3.186-2.48,5.165-3.358,1.88-.821,1.026-7.9,2.545-9.279,2.406-2.2,6.552-3.982,7.768.205C83.994,654.739,86.17,651.578,88.355,654.279Z" transform="translate(-16223.626 -20414.93)" fill="#4e3b56"/>
    <path id="Path_28009" data-name="Path 28009" d="M50.695,642.894c-2.743,4.524-2.981,12.842-.049,14.919A26.911,26.911,0,0,1,37.951,620.7c.271,8.219,2.874,9.311,8.5,9.18S53.437,638.377,50.695,642.894Z" transform="translate(-16217.637 -20410.711)" fill="#4e3b56"/>
    <path id="Path_28010" data-name="Path 28010" d="M87.285,616.842c-1.913-1.831-4.13-.911-6.52,1.15s-1.585,10.551-8.7,9.862-7-5.756-8.154-8.195-2.816-2.217-6.651,0-6.306-.164-5.592-3.728,2.718-6.429-4.672-6.676a26.908,26.908,0,0,1,40.292,7.587Z" transform="translate(-16220.151 -20407.043)" fill="#4e3b56"/>
    <path id="Path_28011" data-name="Path 28011" d="M116.485,626.622a3.932,3.932,0,0,0,.2-3.055.46.46,0,0,0-.507-.338,3.062,3.062,0,0,0-2.944,4.411.462.462,0,0,0,.507.338A3.931,3.931,0,0,0,116.485,626.622Z" transform="translate(-16232.325 -20410.727)" fill="#78ef9d"/>
    <path id="Path_28012" data-name="Path 28012" d="M114.29,641.22a3.929,3.929,0,0,0-2.463-1.819.46.46,0,0,0-.558.243,3.062,3.062,0,0,0,2.118,4.862.46.46,0,0,0,.558-.243A3.934,3.934,0,0,0,114.29,641.22Z" transform="translate(-16231.917 -20413.777)" fill="#61d6a0"/>
    <path id="Path_28013" data-name="Path 28013" d="M44.858,598.538a3.929,3.929,0,0,0,2.035-2.288.461.461,0,0,0-.192-.579,3.931,3.931,0,0,0-3-.618,3.932,3.932,0,0,0-2.035,2.288.461.461,0,0,0,.192.578A3.928,3.928,0,0,0,44.858,598.538Z" transform="translate(-16218.881 -20405.266)" fill="#59d393"/>
    <path id="Path_28014" data-name="Path 28014" d="M28.946,657.211a3.929,3.929,0,0,0,.2-3.055.462.462,0,0,0-.507-.338,3.927,3.927,0,0,0-2.745,1.356,3.929,3.929,0,0,0-.2,3.055.462.462,0,0,0,.507.338A3.93,3.93,0,0,0,28.946,657.211Z" transform="translate(-16215.688 -20416.496)" fill="#61d6a0"/>
    <path id="Path_28015" data-name="Path 28015" d="M89.55,589.176a3.931,3.931,0,0,0,3.059.122.462.462,0,0,0,.326-.516,3.063,3.063,0,0,0-4.484-2.832.463.463,0,0,0-.326.516A3.934,3.934,0,0,0,89.55,589.176Z" transform="translate(-16227.644 -20403.613)" fill="#78ef9d"/>
    <path id="Path_28016" data-name="Path 28016" d="M11.848,640.51a3.932,3.932,0,0,0,3.059.122.462.462,0,0,0,.325-.516,3.928,3.928,0,0,0-1.425-2.71,3.931,3.931,0,0,0-3.059-.122.461.461,0,0,0-.325.515A3.931,3.931,0,0,0,11.848,640.51Z" transform="translate(-16212.995 -20413.324)" fill="#78ef9d"/>
    <path id="Path_28017" data-name="Path 28017" d="M23.745,626.872a.821.821,0,0,1-.821-.821v-5.189a.821.821,0,0,1,1.642,0v5.189A.821.821,0,0,1,23.745,626.872Z" transform="translate(-16215.232 -20410.137)" fill="#fff"/>
    <circle id="Ellipse_2653" data-name="Ellipse 2653" cx="0.625" cy="0.625" r="0.625" transform="translate(-16192.114 -19792.689)" fill="#fff"/>
    <path id="Path_28018" data-name="Path 28018" d="M23.065,614.1h-.071a1.528,1.528,0,0,1-1.416-.981c-.585-1.5-1.066-1.831-1.924-2.02a.821.821,0,1,1,.352-1.6c1.487.326,2.323,1.111,3.041,2.873.718-1.762,1.554-2.547,3.041-2.873a.821.821,0,1,1,.351,1.6c-.857.189-1.338.525-1.924,2.02A1.538,1.538,0,0,1,23.065,614.1Z" transform="translate(-16214.531 -20408.133)" fill="#fff"/>
    <path id="Path_28019" data-name="Path 28019" d="M30.108,626.331v0h0Z" transform="translate(-16216.518 -20411.285)" fill="#4e3b56"/>
    <path id="Path_28020" data-name="Path 28020" d="M22.815,627.176a16.053,16.053,0,0,1-5.079-.845,5.082,5.082,0,1,0,10.159,0A16.048,16.048,0,0,1,22.815,627.176Z" transform="translate(-16214.305 -20411.316)" fill="#4e3b56"/>
    <path id="Path_28021" data-name="Path 28021" d="M94.56,643.189A12.077,12.077,0,1,0,93.5,660.235,12.074,12.074,0,0,0,94.56,643.189Zm-3.58,14.189A8.266,8.266,0,1,1,91.7,645.71,8.272,8.272,0,0,1,90.98,657.378Z" transform="translate(-16225.244 -20414.004)" fill="#ff736c"/>
  </g>
</svg>
