<svg xmlns="http://www.w3.org/2000/svg" width="89.108" height="86.69" viewBox="0 0 89.108 86.69">
  <g id="Group_5797" data-name="Group 5797" transform="translate(16481.735 -13332.152)">
    <path id="Path_30876" data-name="Path 30876" d="M836.745,1020.31c.727,1.15,5.573,29.055-25.41,29.055s-26.146-27.905-25.41-29.055Z" transform="translate(-17250.926 12368.631)" fill="#584360"/>
    <ellipse id="Ellipse_3122" data-name="Ellipse 3122" cx="25.49" cy="3.953" rx="25.49" ry="3.953" transform="translate(-16465.086 13385.297)" fill="#473049"/>
    <path id="Path_30877" data-name="Path 30877" d="M769.363,1022.663l.822,1.505a.261.261,0,0,0,.115.115l1.5.823a.288.288,0,0,1,0,.51l-1.5.822a.26.26,0,0,0-.115.115l-.822,1.5a.288.288,0,0,1-.51,0l-.823-1.5a.26.26,0,0,0-.115-.115l-1.5-.822a.288.288,0,0,1,0-.51l1.5-.823a.261.261,0,0,0,.115-.115l.823-1.505A.294.294,0,0,1,769.363,1022.663Z" transform="translate(-17248 12368.291)" fill="#ffc639"/>
    <path id="Path_30878" data-name="Path 30878" d="M858.491,1032.784l.823,1.505a.261.261,0,0,0,.115.115l1.5.823a.288.288,0,0,1,0,.51l-1.5.822a.26.26,0,0,0-.115.115l-.823,1.5a.288.288,0,0,1-.51,0l-.822-1.5a.26.26,0,0,0-.115-.115l-1.5-.822a.288.288,0,0,1,0-.51l1.5-.823a.261.261,0,0,0,.115-.115l.822-1.505A.294.294,0,0,1,858.491,1032.784Z" transform="translate(-17261.762 12366.729)" fill="#ffc639"/>
    <path id="Path_30879" data-name="Path 30879" d="M811.289,1015c-1.076,0-26.336.054-26.336,4.8s25.261,4.8,26.336,4.8,26.335-.055,26.335-4.8S812.364,1015,811.289,1015Zm0,7.906c-13.4,0-22.151-1.525-24.208-2.725a.418.418,0,0,1,0-.718c2.077-1.251,10.82-2.772,24.21-2.772s22.135,1.521,24.2,2.722a.421.421,0,0,1,0,.724C833.406,1021.388,824.667,1022.906,811.289,1022.906Z" transform="translate(-17250.885 12369.451)" fill="#584360"/>
    <path id="Path_30880" data-name="Path 30880" d="M785.189,988.5c-.431-2.283-.651-4.33-3.146-4.71a6.08,6.08,0,0,0-1.277-.059c-4.042.178-4.473,10.063-2.74,14.375a7.443,7.443,0,0,0,.321.685,10.425,10.425,0,0,0,5.091,4.465,22.9,22.9,0,0,0,7.044,1.725v-13S785.824,991.9,785.189,988.5Z" transform="translate(-17249.668 12374.281)" fill="#1cb7a4"/>
    <path id="Path_30881" data-name="Path 30881" d="M782.044,983.787s-4.262,14.316,8.439,14.316v6.875a22.9,22.9,0,0,1-7.044-1.725,10.425,10.425,0,0,1-5.091-4.465,7.443,7.443,0,0,1-.321-.685c-1.733-4.313-1.3-14.2,2.74-14.375A6.08,6.08,0,0,1,782.044,983.787Z" transform="translate(-17249.668 12374.281)" fill="#1ea592"/>
    <path id="Path_30882" data-name="Path 30882" d="M791.267,991.994v6.122c-12.7,0-8.439-14.316-8.439-14.316,2.495.38,2.714,2.427,3.146,4.71C786.607,991.909,791.267,991.994,791.267,991.994Z" transform="translate(-17250.451 12374.269)" fill="#56cc91"/>
    <path id="Path_30883" data-name="Path 30883" d="M775.25,1003.036a.846.846,0,0,1-.478-1.545l2.368-1.614a.846.846,0,0,1,.953,1.4l-2.368,1.614A.845.845,0,0,1,775.25,1003.036Z" transform="translate(-17249.256 12371.809)" fill="#473049"/>
    <path id="Path_30884" data-name="Path 30884" d="M783.339,1010.385a.835.835,0,0,1-.262-.042.845.845,0,0,1-.541-1.066l.931-2.852a.845.845,0,0,1,1.657.232v.008a.843.843,0,0,1-.042.263l-.938,2.874A.847.847,0,0,1,783.339,1010.385Z" transform="translate(-17250.506 12370.869)" fill="#473049"/>
    <path id="Path_30885" data-name="Path 30885" d="M791.111,998.807c-3.678,0-6.4-1.144-8.079-3.4-3.352-4.494-1.261-11.7-1.17-12a.845.845,0,0,1,1.621.481c-.019.067-1.938,6.7.908,10.513,1.346,1.8,3.607,2.717,6.72,2.717a.846.846,0,1,1,0,1.691Z" transform="translate(-17250.295 12374.423)" fill="#218782"/>
    <path id="Path_30886" data-name="Path 30886" d="M848.989,983.728a6.133,6.133,0,0,0-1.285.059c-2.486.38-2.714,2.427-3.137,4.71-.643,3.4-5.293,3.484-5.293,3.484v13a23.028,23.028,0,0,0,7.044-1.725,10.4,10.4,0,0,0,5.082-4.465,5.73,5.73,0,0,0,.321-.685C853.454,993.791,853.023,983.906,848.989,983.728Z" transform="translate(-17259.271 12374.281)" fill="#1cb7a4"/>
    <path id="Path_30887" data-name="Path 30887" d="M846.317,1003.253a23.028,23.028,0,0,1-7.044,1.725V998.1c12.693,0,8.431-14.316,8.431-14.316a6.133,6.133,0,0,1,1.285-.059c4.034.178,4.465,10.063,2.731,14.375a5.73,5.73,0,0,1-.321.685A10.4,10.4,0,0,1,846.317,1003.253Z" transform="translate(-17259.271 12374.281)" fill="#1ea592"/>
    <path id="Path_30888" data-name="Path 30888" d="M847.7,983.8s4.262,14.316-8.431,14.316v-6.122s4.651-.085,5.293-3.484C844.989,986.227,845.218,984.18,847.7,983.8Z" transform="translate(-17259.271 12374.269)" fill="#56cc91"/>
    <path id="Path_30889" data-name="Path 30889" d="M856.206,1003.036a.846.846,0,0,1-.475-.147l-2.368-1.614a.846.846,0,1,1,.953-1.4l2.368,1.614a.846.846,0,0,1-.478,1.545Z" transform="translate(-17261.391 12371.809)" fill="#473049"/>
    <path id="Path_30890" data-name="Path 30890" d="M848.387,1010.385a.846.846,0,0,1-.8-.583l-.939-2.874a.819.819,0,0,1-.042-.263.846.846,0,0,1,1.668-.2l.919,2.816a.846.846,0,0,1-.8,1.109Z" transform="translate(-17260.404 12370.869)" fill="#473049"/>
    <path id="Path_30891" data-name="Path 30891" d="M839.12,998.807a.846.846,0,0,1,0-1.691c3.11,0,5.37-.915,6.716-2.719,2.849-3.821.924-10.444.9-10.511a.845.845,0,1,1,1.62-.482c.091.3,2.182,7.51-1.168,12C845.509,997.664,842.793,998.807,839.12,998.807Z" transform="translate(-17259.117 12374.423)" fill="#218782"/>
    <path id="Path_30892" data-name="Path 30892" d="M832.1,1014.987V986.862a16.2,16.2,0,0,0-.9-5.327,17.884,17.884,0,0,0-7.128-8.98v-.008a20.326,20.326,0,0,0-5.835-2.647,21.712,21.712,0,0,0-11.458,0,.008.008,0,0,0-.008.008,20.324,20.324,0,0,0-5.835,2.647,17.993,17.993,0,0,0-7.12,8.98,16.418,16.418,0,0,0-.9,5.327V1014.7l-.127.5a62.723,62.723,0,0,0,8.143,1.471,95.744,95.744,0,0,0,23.144,0,62.4,62.4,0,0,0,8.084-1.454Z" transform="translate(-17252.094 12376.533)" fill="#1cb7a4"/>
    <path id="Path_30893" data-name="Path 30893" d="M835.836,981.676a16.2,16.2,0,0,1,.9,5.327v28.125l.059.228a62.4,62.4,0,0,1-8.084,1.454v-.008c.245-9.691,2.731-40.868-5.843-46.762a20.326,20.326,0,0,1,5.835,2.647v.008A17.884,17.884,0,0,1,835.836,981.676Z" transform="translate(-17256.74 12376.393)" fill="#1cb7a4"/>
    <path id="Path_30894" data-name="Path 30894" d="M800.926,972.7a20.324,20.324,0,0,1,5.835-2.647c-8.557,5.9-6.071,37.063-5.835,46.753v.008a62.723,62.723,0,0,1-8.143-1.471l.127-.5V987a16.418,16.418,0,0,1,.9-5.327A17.993,17.993,0,0,1,800.926,972.7Z" transform="translate(-17252.094 12376.391)" fill="#1cb7a4"/>
    <path id="Path_30895" data-name="Path 30895" d="M819.62,969.9c8.574,5.894,6.088,36.837,5.843,46.528v.243a101.166,101.166,0,0,1-23.151-.282l.007.273c-.237-9.691-2.723-40.851,5.835-46.753a.008.008,0,0,1,.008-.008,21.712,21.712,0,0,1,11.458,0Z" transform="translate(-17253.486 12376.533)" fill="#61d6a0"/>
    <path id="Path_30896" data-name="Path 30896" d="M814.249,954.535a.41.41,0,0,0,.647,0c1.686-2.168,5.619-1.606,7.043.435,2.389,3.453.738,8.72-6.628,11.559a1.967,1.967,0,0,1-.739.135,2.006,2.006,0,0,1-.747-.135c-7.358-2.839-9.007-8.105-6.619-11.559C808.63,952.929,812.563,952.366,814.249,954.535Z" transform="translate(-17254.164 12379)" fill="#ff736c"/>
    <path id="Path_30897" data-name="Path 30897" d="M780.077,963.813l1.109,2.03a.346.346,0,0,0,.156.156l2.019,1.109a.388.388,0,0,1,0,.688l-2.019,1.109a.35.35,0,0,0-.156.156l-1.109,2.019a.389.389,0,0,1-.687,0l-1.109-2.019a.354.354,0,0,0-.156-.156l-2.019-1.109a.388.388,0,0,1,0-.687L778.124,966a.35.35,0,0,0,.156-.156l1.109-2.03A.4.4,0,0,1,780.077,963.813Z" transform="translate(-17249.486 12377.385)" fill="#ffc639"/>
    <path id="Path_30898" data-name="Path 30898" d="M793.306,984.331a.856.856,0,0,1-.244-.036l-2.917-.879a.845.845,0,0,1,.489-1.619l2.918.88a.845.845,0,0,1-.245,1.655Z" transform="translate(-17251.594 12374.583)" fill="#473049"/>
    <path id="Path_30899" data-name="Path 30899" d="M801.965,973.419a.844.844,0,0,1-.709-.384l-1.616-2.478a.846.846,0,1,1,1.417-.923l1.615,2.478a.846.846,0,0,1-.708,1.307Z" transform="translate(-17253.131 12376.515)" fill="#473049"/>
    <path id="Path_30900" data-name="Path 30900" d="M838.048,984.331a.847.847,0,0,1-.188-1.673l2.87-.863a.846.846,0,1,1,.487,1.62l-2.925.879A.885.885,0,0,1,838.048,984.331Z" transform="translate(-17258.951 12374.583)" fill="#473049"/>
    <path id="Path_30901" data-name="Path 30901" d="M829.62,973.415a.842.842,0,0,1-.846-.841v-.008a.849.849,0,0,1,.139-.465l1.624-2.469a.846.846,0,0,1,1.414.93L830.344,973A.845.845,0,0,1,829.62,973.415Z" transform="translate(-17257.65 12376.515)" fill="#473049"/>
    <path id="Path_30902" data-name="Path 30902" d="M822.44,998.97a2.942,2.942,0,0,1-2.509-1.326.846.846,0,0,1,1.434-.9,1.281,1.281,0,0,0,1.139.532,1.052,1.052,0,0,0,.9-.471.845.845,0,1,1,1.5.778,2.68,2.68,0,0,1-2.335,1.383C822.53,998.969,822.485,998.97,822.44,998.97Z" transform="translate(-17256.266 12372.331)" fill="#473049"/>
    <path id="Path_30903" data-name="Path 30903" d="M808.815,998.97l-.115,0a2.706,2.706,0,0,1-2.357-1.377.845.845,0,1,1,1.492-.792,1.079,1.079,0,0,0,.926.479,1.251,1.251,0,0,0,1.129-.532.846.846,0,0,1,1.433.9A2.941,2.941,0,0,1,808.815,998.97Z" transform="translate(-17254.172 12372.331)" fill="#473049"/>
    <path id="Path_30904" data-name="Path 30904" d="M805.9,991a.846.846,0,0,1-.529-1.506c1.233-.985,4.534-1.472,6.093-1.12a.846.846,0,1,1-.373,1.65,8.256,8.256,0,0,0-4.664.791A.841.841,0,0,1,805.9,991Z" transform="translate(-17253.988 12373.58)" fill="#473049"/>
    <path id="Path_30905" data-name="Path 30905" d="M825.009,991a.835.835,0,0,1-.528-.186,8.18,8.18,0,0,0-4.643-.791.846.846,0,1,1-.379-1.648c1.554-.36,4.844.131,6.079,1.12a.846.846,0,0,1-.529,1.505Z" transform="translate(-17256.111 12373.58)" fill="#473049"/>
    <path id="Path_30906" data-name="Path 30906" d="M816.189,1006.623a3.152,3.152,0,0,1-2.889-1.794.846.846,0,1,1,1.536-.709,1.435,1.435,0,0,0,1.4.81,1.22,1.22,0,0,0,1.145-.763.846.846,0,0,1,1.569.631,2.9,2.9,0,0,1-2.673,1.823Z" transform="translate(-17255.25 12371.207)" fill="#473049"/>
    <path id="Path_30907" data-name="Path 30907" d="M802.227,1016.492c-.458,0-.911.214-.922-.246-.028-1.16-.089-2.623-.159-4.309-.538-13.01-1.541-37.208,6.335-42.714a.845.845,0,0,1,1.119,1.264.8.8,0,0,1-.123.1c-7.145,4.928-6.129,29.478-5.641,41.277.07,1.7.132,3.171.161,4.338.011.467-.3.276-.77.287Z" transform="translate(-17253.33 12376.547)" fill="#368e87"/>
    <path id="Path_30908" data-name="Path 30908" d="M828.612,1016.721c-.419.02-.906-.128-.895-.594.03-1.151.09-2.6.16-4.282.5-11.954,1.536-36.83-5.637-41.762a.846.846,0,1,1,.958-1.394c7.944,5.462,6.919,30.028,6.368,43.227-.069,1.667-.129,3.111-.158,4.254C829.4,1016.629,829.069,1016.7,828.612,1016.721Z" transform="translate(-17256.586 12376.624)" fill="#368e87"/>
    <path id="Path_30909" data-name="Path 30909" d="M837.938,955.683l.795,1.455a.257.257,0,0,0,.112.111l1.448.8a.278.278,0,0,1,0,.493l-1.448.795a.254.254,0,0,0-.112.112l-.795,1.447a.278.278,0,0,1-.493,0l-.8-1.447a.248.248,0,0,0-.111-.112l-1.448-.795a.278.278,0,0,1,0-.493l1.448-.8a.25.25,0,0,0,.111-.111l.8-1.455A.284.284,0,0,1,837.938,955.683Z" transform="translate(-17258.604 12378.632)" fill="#ffc639"/>
    <path id="Path_30910" data-name="Path 30910" d="M867.176,988.712l1.012,1.853a.32.32,0,0,0,.142.142l1.843,1.012a.355.355,0,0,1,0,.628l-1.843,1.012a.32.32,0,0,0-.142.142l-1.012,1.843a.355.355,0,0,1-.628,0l-1.012-1.843a.32.32,0,0,0-.142-.142l-1.843-1.012a.355.355,0,0,1,0-.628l1.843-1.012a.32.32,0,0,0,.142-.142l1.012-1.853A.362.362,0,0,1,867.176,988.712Z" transform="translate(-17262.99 12373.538)" fill="#ffc639"/>
    <path id="Path_30911" data-name="Path 30911" d="M837.307,1019.3a.838.838,0,0,0-.14-.148c-.844-1.075-3.17-1.852-6.11-2.415-.008.556-.038,1.112-.077,1.669a16.256,16.256,0,0,1,4.4,1.269.421.421,0,0,1,0,.724c-2.087,1.251-10.826,2.769-24.2,2.769-13.4,0-22.151-1.525-24.208-2.725a.418.418,0,0,1,0-.718,15.838,15.838,0,0,1,4.461-1.315c0-.567.007-1.133.008-1.7-3.076.578-5.512,1.386-6.313,2.518-.02.025-.048.041-.066.068a1.882,1.882,0,0,0-.159.4c-.008.03-.02.059-.027.089-.649,2.226-1.77,10.876,2.317,18.342,4.187,7.648,12.259,11.526,23.992,11.526,11.7,0,19.762-3.861,23.958-11.473C839.687,1029.928,837.837,1020.143,837.307,1019.3Zm-4.348,19.232c-4.058,6.257-11.385,9.43-21.778,9.43-10.409,0-17.743-3.181-21.8-9.455-3.993-6.175-3.691-13.557-3.226-16.746,5.184,3.055,24.092,3.1,25.02,3.1s19.827-.044,25.016-3.1C836.665,1025,836.948,1032.382,832.959,1038.534Z" transform="translate(-17250.773 12369.187)" fill="#584360"/>
    <path id="Path_30912" data-name="Path 30912" d="M836.745,1020.31c.727,1.15,5.573,29.055-25.41,29.055s-26.146-27.905-25.41-29.055Z" transform="translate(-17250.926 12368.631)" fill="#584360"/>
    <ellipse id="Ellipse_3123" data-name="Ellipse 3123" cx="25.49" cy="3.953" rx="25.49" ry="3.953" transform="translate(-16465.086 13385.297)" fill="#473049"/>
    <path id="Path_30913" data-name="Path 30913" d="M769.363,1022.663l.822,1.505a.261.261,0,0,0,.115.115l1.5.823a.288.288,0,0,1,0,.51l-1.5.822a.26.26,0,0,0-.115.115l-.822,1.5a.288.288,0,0,1-.51,0l-.823-1.5a.26.26,0,0,0-.115-.115l-1.5-.822a.288.288,0,0,1,0-.51l1.5-.823a.261.261,0,0,0,.115-.115l.823-1.505A.294.294,0,0,1,769.363,1022.663Z" transform="translate(-17248 12368.291)" fill="#ffc639"/>
    <path id="Path_30914" data-name="Path 30914" d="M858.491,1032.784l.823,1.505a.261.261,0,0,0,.115.115l1.5.823a.288.288,0,0,1,0,.51l-1.5.822a.26.26,0,0,0-.115.115l-.823,1.5a.288.288,0,0,1-.51,0l-.822-1.5a.26.26,0,0,0-.115-.115l-1.5-.822a.288.288,0,0,1,0-.51l1.5-.823a.261.261,0,0,0,.115-.115l.822-1.505A.294.294,0,0,1,858.491,1032.784Z" transform="translate(-17261.762 12366.729)" fill="#ffc639"/>
    <path id="Path_30915" data-name="Path 30915" d="M811.289,1015c-1.076,0-26.336.054-26.336,4.8s25.261,4.8,26.336,4.8,26.335-.055,26.335-4.8S812.364,1015,811.289,1015Zm0,7.906c-13.4,0-22.151-1.525-24.208-2.725a.418.418,0,0,1,0-.718c2.077-1.251,10.82-2.772,24.21-2.772s22.135,1.521,24.2,2.722a.421.421,0,0,1,0,.724C833.406,1021.388,824.667,1022.906,811.289,1022.906Z" transform="translate(-17250.885 12369.451)" fill="#584360"/>
    <path id="Path_30916" data-name="Path 30916" d="M785.189,988.5c-.431-2.283-.651-4.33-3.146-4.71a6.08,6.08,0,0,0-1.277-.059c-4.042.178-4.473,10.063-2.74,14.375a7.443,7.443,0,0,0,.321.685,10.425,10.425,0,0,0,5.091,4.465,22.9,22.9,0,0,0,7.044,1.725v-13S785.824,991.9,785.189,988.5Z" transform="translate(-17249.668 12374.281)" fill="#1cb7a4"/>
    <path id="Path_30917" data-name="Path 30917" d="M782.044,983.787s-4.262,14.316,8.439,14.316v6.875a22.9,22.9,0,0,1-7.044-1.725,10.425,10.425,0,0,1-5.091-4.465,7.443,7.443,0,0,1-.321-.685c-1.733-4.313-1.3-14.2,2.74-14.375A6.08,6.08,0,0,1,782.044,983.787Z" transform="translate(-17249.668 12374.281)" fill="#1ea592"/>
    <path id="Path_30918" data-name="Path 30918" d="M791.267,991.994v6.122c-12.7,0-8.439-14.316-8.439-14.316,2.495.38,2.714,2.427,3.146,4.71C786.607,991.909,791.267,991.994,791.267,991.994Z" transform="translate(-17250.451 12374.269)" fill="#56cc91"/>
    <path id="Path_30919" data-name="Path 30919" d="M775.25,1003.036a.846.846,0,0,1-.478-1.545l2.368-1.614a.846.846,0,0,1,.953,1.4l-2.368,1.614A.845.845,0,0,1,775.25,1003.036Z" transform="translate(-17249.256 12371.809)" fill="#473049"/>
    <path id="Path_30920" data-name="Path 30920" d="M783.339,1010.385a.835.835,0,0,1-.262-.042.845.845,0,0,1-.541-1.066l.931-2.852a.845.845,0,0,1,1.657.232v.008a.843.843,0,0,1-.042.263l-.938,2.874A.847.847,0,0,1,783.339,1010.385Z" transform="translate(-17250.506 12370.869)" fill="#473049"/>
    <path id="Path_30921" data-name="Path 30921" d="M791.111,998.807c-3.678,0-6.4-1.144-8.079-3.4-3.352-4.494-1.261-11.7-1.17-12a.845.845,0,0,1,1.621.481c-.019.067-1.938,6.7.908,10.513,1.346,1.8,3.607,2.717,6.72,2.717a.846.846,0,1,1,0,1.691Z" transform="translate(-17250.295 12374.423)" fill="#218782"/>
    <path id="Path_30922" data-name="Path 30922" d="M848.989,983.728a6.133,6.133,0,0,0-1.285.059c-2.486.38-2.714,2.427-3.137,4.71-.643,3.4-5.293,3.484-5.293,3.484v13a23.028,23.028,0,0,0,7.044-1.725,10.4,10.4,0,0,0,5.082-4.465,5.73,5.73,0,0,0,.321-.685C853.454,993.791,853.023,983.906,848.989,983.728Z" transform="translate(-17259.271 12374.281)" fill="#1cb7a4"/>
    <path id="Path_30923" data-name="Path 30923" d="M846.317,1003.253a23.028,23.028,0,0,1-7.044,1.725V998.1c12.693,0,8.431-14.316,8.431-14.316a6.133,6.133,0,0,1,1.285-.059c4.034.178,4.465,10.063,2.731,14.375a5.73,5.73,0,0,1-.321.685A10.4,10.4,0,0,1,846.317,1003.253Z" transform="translate(-17259.271 12374.281)" fill="#1ea592"/>
    <path id="Path_30924" data-name="Path 30924" d="M847.7,983.8s4.262,14.316-8.431,14.316v-6.122s4.651-.085,5.293-3.484C844.989,986.227,845.218,984.18,847.7,983.8Z" transform="translate(-17259.271 12374.269)" fill="#56cc91"/>
    <path id="Path_30925" data-name="Path 30925" d="M856.206,1003.036a.846.846,0,0,1-.475-.147l-2.368-1.614a.846.846,0,1,1,.953-1.4l2.368,1.614a.846.846,0,0,1-.478,1.545Z" transform="translate(-17261.391 12371.809)" fill="#473049"/>
    <path id="Path_30926" data-name="Path 30926" d="M848.387,1010.385a.846.846,0,0,1-.8-.583l-.939-2.874a.819.819,0,0,1-.042-.263.846.846,0,0,1,1.668-.2l.919,2.816a.846.846,0,0,1-.8,1.109Z" transform="translate(-17260.404 12370.869)" fill="#473049"/>
    <path id="Path_30927" data-name="Path 30927" d="M839.12,998.807a.846.846,0,0,1,0-1.691c3.11,0,5.37-.915,6.716-2.719,2.849-3.821.924-10.444.9-10.511a.845.845,0,1,1,1.62-.482c.091.3,2.182,7.51-1.168,12C845.509,997.664,842.793,998.807,839.12,998.807Z" transform="translate(-17259.117 12374.423)" fill="#218782"/>
    <path id="Path_30928" data-name="Path 30928" d="M832.1,1014.987V986.862a16.2,16.2,0,0,0-.9-5.327,17.884,17.884,0,0,0-7.128-8.98v-.008a20.326,20.326,0,0,0-5.835-2.647,21.712,21.712,0,0,0-11.458,0,.008.008,0,0,0-.008.008,20.324,20.324,0,0,0-5.835,2.647,17.993,17.993,0,0,0-7.12,8.98,16.418,16.418,0,0,0-.9,5.327V1014.7l-.127.5a62.723,62.723,0,0,0,8.143,1.471,95.744,95.744,0,0,0,23.144,0,62.4,62.4,0,0,0,8.084-1.454Z" transform="translate(-17252.094 12376.533)" fill="#1cb7a4"/>
    <path id="Path_30929" data-name="Path 30929" d="M835.836,981.676a16.2,16.2,0,0,1,.9,5.327v28.125l.059.228a62.4,62.4,0,0,1-8.084,1.454v-.008c.245-9.691,2.731-40.868-5.843-46.762a20.326,20.326,0,0,1,5.835,2.647v.008A17.884,17.884,0,0,1,835.836,981.676Z" transform="translate(-17256.74 12376.393)" fill="#1cb7a4"/>
    <path id="Path_30930" data-name="Path 30930" d="M800.926,972.7a20.324,20.324,0,0,1,5.835-2.647c-8.557,5.9-6.071,37.063-5.835,46.753v.008a62.723,62.723,0,0,1-8.143-1.471l.127-.5V987a16.418,16.418,0,0,1,.9-5.327A17.993,17.993,0,0,1,800.926,972.7Z" transform="translate(-17252.094 12376.391)" fill="#1cb7a4"/>
    <path id="Path_30931" data-name="Path 30931" d="M819.62,969.9c8.574,5.894,6.088,36.837,5.843,46.528v.243a101.166,101.166,0,0,1-23.151-.282l.007.273c-.237-9.691-2.723-40.851,5.835-46.753a.008.008,0,0,1,.008-.008,21.712,21.712,0,0,1,11.458,0Z" transform="translate(-17253.486 12376.533)" fill="#61d6a0"/>
    <path id="Path_30932" data-name="Path 30932" d="M814.249,954.535a.41.41,0,0,0,.647,0c1.686-2.168,5.619-1.606,7.043.435,2.389,3.453.738,8.72-6.628,11.559a1.967,1.967,0,0,1-.739.135,2.006,2.006,0,0,1-.747-.135c-7.358-2.839-9.007-8.105-6.619-11.559C808.63,952.929,812.563,952.366,814.249,954.535Z" transform="translate(-17254.164 12379)" fill="#ff736c"/>
    <path id="Path_30933" data-name="Path 30933" d="M780.077,963.813l1.109,2.03a.346.346,0,0,0,.156.156l2.019,1.109a.388.388,0,0,1,0,.688l-2.019,1.109a.35.35,0,0,0-.156.156l-1.109,2.019a.389.389,0,0,1-.687,0l-1.109-2.019a.354.354,0,0,0-.156-.156l-2.019-1.109a.388.388,0,0,1,0-.687L778.124,966a.35.35,0,0,0,.156-.156l1.109-2.03A.4.4,0,0,1,780.077,963.813Z" transform="translate(-17249.486 12377.385)" fill="#ffc639"/>
    <path id="Path_30934" data-name="Path 30934" d="M793.306,984.331a.856.856,0,0,1-.244-.036l-2.917-.879a.845.845,0,0,1,.489-1.619l2.918.88a.845.845,0,0,1-.245,1.655Z" transform="translate(-17251.594 12374.583)" fill="#473049"/>
    <path id="Path_30935" data-name="Path 30935" d="M801.965,973.419a.844.844,0,0,1-.709-.384l-1.616-2.478a.846.846,0,1,1,1.417-.923l1.615,2.478a.846.846,0,0,1-.708,1.307Z" transform="translate(-17253.131 12376.515)" fill="#473049"/>
    <path id="Path_30936" data-name="Path 30936" d="M838.048,984.331a.847.847,0,0,1-.188-1.673l2.87-.863a.846.846,0,1,1,.487,1.62l-2.925.879A.885.885,0,0,1,838.048,984.331Z" transform="translate(-17258.951 12374.583)" fill="#473049"/>
    <path id="Path_30937" data-name="Path 30937" d="M829.62,973.415a.842.842,0,0,1-.846-.841v-.008a.849.849,0,0,1,.139-.465l1.624-2.469a.846.846,0,0,1,1.414.93L830.344,973A.845.845,0,0,1,829.62,973.415Z" transform="translate(-17257.65 12376.515)" fill="#473049"/>
    <path id="Path_30938" data-name="Path 30938" d="M822.44,998.97a2.942,2.942,0,0,1-2.509-1.326.846.846,0,0,1,1.434-.9,1.281,1.281,0,0,0,1.139.532,1.052,1.052,0,0,0,.9-.471.845.845,0,1,1,1.5.778,2.68,2.68,0,0,1-2.335,1.383C822.53,998.969,822.485,998.97,822.44,998.97Z" transform="translate(-17256.266 12372.331)" fill="#473049"/>
    <path id="Path_30939" data-name="Path 30939" d="M808.815,998.97l-.115,0a2.706,2.706,0,0,1-2.357-1.377.845.845,0,1,1,1.492-.792,1.079,1.079,0,0,0,.926.479,1.251,1.251,0,0,0,1.129-.532.846.846,0,0,1,1.433.9A2.941,2.941,0,0,1,808.815,998.97Z" transform="translate(-17254.172 12372.331)" fill="#473049"/>
    <path id="Path_30940" data-name="Path 30940" d="M805.9,991a.846.846,0,0,1-.529-1.506c1.233-.985,4.534-1.472,6.093-1.12a.846.846,0,1,1-.373,1.65,8.256,8.256,0,0,0-4.664.791A.841.841,0,0,1,805.9,991Z" transform="translate(-17253.988 12373.58)" fill="#473049"/>
    <path id="Path_30941" data-name="Path 30941" d="M825.009,991a.835.835,0,0,1-.528-.186,8.18,8.18,0,0,0-4.643-.791.846.846,0,1,1-.379-1.648c1.554-.36,4.844.131,6.079,1.12a.846.846,0,0,1-.529,1.505Z" transform="translate(-17256.111 12373.58)" fill="#473049"/>
    <path id="Path_30942" data-name="Path 30942" d="M816.189,1006.623a3.152,3.152,0,0,1-2.889-1.794.846.846,0,1,1,1.536-.709,1.435,1.435,0,0,0,1.4.81,1.22,1.22,0,0,0,1.145-.763.846.846,0,0,1,1.569.631,2.9,2.9,0,0,1-2.673,1.823Z" transform="translate(-17255.25 12371.207)" fill="#473049"/>
    <path id="Path_30943" data-name="Path 30943" d="M802.227,1016.492c-.458,0-.911.214-.922-.246-.028-1.16-.089-2.623-.159-4.309-.538-13.01-1.541-37.208,6.335-42.714a.845.845,0,0,1,1.119,1.264.8.8,0,0,1-.123.1c-7.145,4.928-6.129,29.478-5.641,41.277.07,1.7.132,3.171.161,4.338.011.467-.3.276-.77.287Z" transform="translate(-17253.33 12376.547)" fill="#368e87"/>
    <path id="Path_30944" data-name="Path 30944" d="M828.612,1016.721c-.419.02-.906-.128-.895-.594.03-1.151.09-2.6.16-4.282.5-11.954,1.536-36.83-5.637-41.762a.846.846,0,1,1,.958-1.394c7.944,5.462,6.919,30.028,6.368,43.227-.069,1.667-.129,3.111-.158,4.254C829.4,1016.629,829.069,1016.7,828.612,1016.721Z" transform="translate(-17256.586 12376.624)" fill="#368e87"/>
    <path id="Path_30945" data-name="Path 30945" d="M837.938,955.683l.795,1.455a.257.257,0,0,0,.112.111l1.448.8a.278.278,0,0,1,0,.493l-1.448.795a.254.254,0,0,0-.112.112l-.795,1.447a.278.278,0,0,1-.493,0l-.8-1.447a.248.248,0,0,0-.111-.112l-1.448-.795a.278.278,0,0,1,0-.493l1.448-.8a.25.25,0,0,0,.111-.111l.8-1.455A.284.284,0,0,1,837.938,955.683Z" transform="translate(-17258.604 12378.632)" fill="#ffc639"/>
    <path id="Path_30946" data-name="Path 30946" d="M867.176,988.712l1.012,1.853a.32.32,0,0,0,.142.142l1.843,1.012a.355.355,0,0,1,0,.628l-1.843,1.012a.32.32,0,0,0-.142.142l-1.012,1.843a.355.355,0,0,1-.628,0l-1.012-1.843a.32.32,0,0,0-.142-.142l-1.843-1.012a.355.355,0,0,1,0-.628l1.843-1.012a.32.32,0,0,0,.142-.142l1.012-1.853A.362.362,0,0,1,867.176,988.712Z" transform="translate(-17262.99 12373.538)" fill="#ffc639"/>
    <path id="Path_30947" data-name="Path 30947" d="M837.307,1019.3a.838.838,0,0,0-.14-.148c-.844-1.075-3.17-1.852-6.11-2.415-.008.556-.038,1.112-.077,1.669a16.256,16.256,0,0,1,4.4,1.269.421.421,0,0,1,0,.724c-2.087,1.251-10.826,2.769-24.2,2.769-13.4,0-22.151-1.525-24.208-2.725a.418.418,0,0,1,0-.718,15.838,15.838,0,0,1,4.461-1.315c0-.567.007-1.133.008-1.7-3.076.578-5.512,1.386-6.313,2.518-.02.025-.048.041-.066.068a1.882,1.882,0,0,0-.159.4c-.008.03-.02.059-.027.089-.649,2.226-1.77,10.876,2.317,18.342,4.187,7.648,12.259,11.526,23.992,11.526,11.7,0,19.762-3.861,23.958-11.473C839.687,1029.928,837.837,1020.143,837.307,1019.3Zm-4.348,19.232c-4.058,6.257-11.385,9.43-21.778,9.43-10.409,0-17.743-3.181-21.8-9.455-3.993-6.175-3.691-13.557-3.226-16.746,5.184,3.055,24.092,3.1,25.02,3.1s19.827-.044,25.016-3.1C836.665,1025,836.948,1032.382,832.959,1038.534Z" transform="translate(-17250.773 12369.187)" fill="#584360"/>
    <path id="Path_30948" data-name="Path 30948" d="M836.745,1020.31c.727,1.15,5.573,29.055-25.41,29.055s-26.146-27.905-25.41-29.055Z" transform="translate(-17250.926 12368.631)" fill="#584360"/>
    <ellipse id="Ellipse_3124" data-name="Ellipse 3124" cx="25.49" cy="3.953" rx="25.49" ry="3.953" transform="translate(-16465.086 13385.297)" fill="#473049"/>
    <path id="Path_30949" data-name="Path 30949" d="M769.363,1022.663l.822,1.505a.261.261,0,0,0,.115.115l1.5.823a.288.288,0,0,1,0,.51l-1.5.822a.26.26,0,0,0-.115.115l-.822,1.5a.288.288,0,0,1-.51,0l-.823-1.5a.26.26,0,0,0-.115-.115l-1.5-.822a.288.288,0,0,1,0-.51l1.5-.823a.261.261,0,0,0,.115-.115l.823-1.505A.294.294,0,0,1,769.363,1022.663Z" transform="translate(-17248 12368.291)" fill="#ffc639"/>
    <path id="Path_30950" data-name="Path 30950" d="M858.491,1032.784l.823,1.505a.261.261,0,0,0,.115.115l1.5.823a.288.288,0,0,1,0,.51l-1.5.822a.26.26,0,0,0-.115.115l-.823,1.5a.288.288,0,0,1-.51,0l-.822-1.5a.26.26,0,0,0-.115-.115l-1.5-.822a.288.288,0,0,1,0-.51l1.5-.823a.261.261,0,0,0,.115-.115l.822-1.505A.294.294,0,0,1,858.491,1032.784Z" transform="translate(-17261.762 12366.729)" fill="#ffc639"/>
    <path id="Path_30951" data-name="Path 30951" d="M811.289,1015c-1.076,0-26.336.054-26.336,4.8s25.261,4.8,26.336,4.8,26.335-.055,26.335-4.8S812.364,1015,811.289,1015Zm0,7.906c-13.4,0-22.151-1.525-24.208-2.725a.418.418,0,0,1,0-.718c2.077-1.251,10.82-2.772,24.21-2.772s22.135,1.521,24.2,2.722a.421.421,0,0,1,0,.724C833.406,1021.388,824.667,1022.906,811.289,1022.906Z" transform="translate(-17250.885 12369.451)" fill="#584360"/>
    <path id="Path_30952" data-name="Path 30952" d="M785.189,988.5c-.431-2.283-.651-4.33-3.146-4.71a6.08,6.08,0,0,0-1.277-.059c-4.042.178-4.473,10.063-2.74,14.375a7.443,7.443,0,0,0,.321.685,10.425,10.425,0,0,0,5.091,4.465,22.9,22.9,0,0,0,7.044,1.725v-13S785.824,991.9,785.189,988.5Z" transform="translate(-17249.668 12374.281)" fill="#1cb7a4"/>
    <path id="Path_30953" data-name="Path 30953" d="M782.044,983.787s-4.262,14.316,8.439,14.316v6.875a22.9,22.9,0,0,1-7.044-1.725,10.425,10.425,0,0,1-5.091-4.465,7.443,7.443,0,0,1-.321-.685c-1.733-4.313-1.3-14.2,2.74-14.375A6.08,6.08,0,0,1,782.044,983.787Z" transform="translate(-17249.668 12374.281)" fill="#1ea592"/>
    <path id="Path_30954" data-name="Path 30954" d="M791.267,991.994v6.122c-12.7,0-8.439-14.316-8.439-14.316,2.495.38,2.714,2.427,3.146,4.71C786.607,991.909,791.267,991.994,791.267,991.994Z" transform="translate(-17250.451 12374.269)" fill="#56cc91"/>
    <path id="Path_30955" data-name="Path 30955" d="M775.25,1003.036a.846.846,0,0,1-.478-1.545l2.368-1.614a.846.846,0,0,1,.953,1.4l-2.368,1.614A.845.845,0,0,1,775.25,1003.036Z" transform="translate(-17249.256 12371.809)" fill="#473049"/>
    <path id="Path_30956" data-name="Path 30956" d="M783.339,1010.385a.835.835,0,0,1-.262-.042.845.845,0,0,1-.541-1.066l.931-2.852a.845.845,0,0,1,1.657.232v.008a.843.843,0,0,1-.042.263l-.938,2.874A.847.847,0,0,1,783.339,1010.385Z" transform="translate(-17250.506 12370.869)" fill="#473049"/>
    <path id="Path_30957" data-name="Path 30957" d="M791.111,998.807c-3.678,0-6.4-1.144-8.079-3.4-3.352-4.494-1.261-11.7-1.17-12a.845.845,0,0,1,1.621.481c-.019.067-1.938,6.7.908,10.513,1.346,1.8,3.607,2.717,6.72,2.717a.846.846,0,1,1,0,1.691Z" transform="translate(-17250.295 12374.423)" fill="#218782"/>
    <path id="Path_30958" data-name="Path 30958" d="M848.989,983.728a6.133,6.133,0,0,0-1.285.059c-2.486.38-2.714,2.427-3.137,4.71-.643,3.4-5.293,3.484-5.293,3.484v13a23.028,23.028,0,0,0,7.044-1.725,10.4,10.4,0,0,0,5.082-4.465,5.73,5.73,0,0,0,.321-.685C853.454,993.791,853.023,983.906,848.989,983.728Z" transform="translate(-17259.271 12374.281)" fill="#1cb7a4"/>
    <path id="Path_30959" data-name="Path 30959" d="M846.317,1003.253a23.028,23.028,0,0,1-7.044,1.725V998.1c12.693,0,8.431-14.316,8.431-14.316a6.133,6.133,0,0,1,1.285-.059c4.034.178,4.465,10.063,2.731,14.375a5.73,5.73,0,0,1-.321.685A10.4,10.4,0,0,1,846.317,1003.253Z" transform="translate(-17259.271 12374.281)" fill="#1ea592"/>
    <path id="Path_30960" data-name="Path 30960" d="M847.7,983.8s4.262,14.316-8.431,14.316v-6.122s4.651-.085,5.293-3.484C844.989,986.227,845.218,984.18,847.7,983.8Z" transform="translate(-17259.271 12374.269)" fill="#56cc91"/>
    <path id="Path_30961" data-name="Path 30961" d="M856.206,1003.036a.846.846,0,0,1-.475-.147l-2.368-1.614a.846.846,0,1,1,.953-1.4l2.368,1.614a.846.846,0,0,1-.478,1.545Z" transform="translate(-17261.391 12371.809)" fill="#473049"/>
    <path id="Path_30962" data-name="Path 30962" d="M848.387,1010.385a.846.846,0,0,1-.8-.583l-.939-2.874a.819.819,0,0,1-.042-.263.846.846,0,0,1,1.668-.2l.919,2.816a.846.846,0,0,1-.8,1.109Z" transform="translate(-17260.404 12370.869)" fill="#473049"/>
    <path id="Path_30963" data-name="Path 30963" d="M839.12,998.807a.846.846,0,0,1,0-1.691c3.11,0,5.37-.915,6.716-2.719,2.849-3.821.924-10.444.9-10.511a.845.845,0,1,1,1.62-.482c.091.3,2.182,7.51-1.168,12C845.509,997.664,842.793,998.807,839.12,998.807Z" transform="translate(-17259.117 12374.423)" fill="#218782"/>
    <path id="Path_30964" data-name="Path 30964" d="M832.1,1014.987V986.862a16.2,16.2,0,0,0-.9-5.327,17.884,17.884,0,0,0-7.128-8.98v-.008a20.326,20.326,0,0,0-5.835-2.647,21.712,21.712,0,0,0-11.458,0,.008.008,0,0,0-.008.008,20.324,20.324,0,0,0-5.835,2.647,17.993,17.993,0,0,0-7.12,8.98,16.418,16.418,0,0,0-.9,5.327V1014.7l-.127.5a62.723,62.723,0,0,0,8.143,1.471,95.744,95.744,0,0,0,23.144,0,62.4,62.4,0,0,0,8.084-1.454Z" transform="translate(-17252.094 12376.533)" fill="#1cb7a4"/>
    <path id="Path_30965" data-name="Path 30965" d="M835.836,981.676a16.2,16.2,0,0,1,.9,5.327v28.125l.059.228a62.4,62.4,0,0,1-8.084,1.454v-.008c.245-9.691,2.731-40.868-5.843-46.762a20.326,20.326,0,0,1,5.835,2.647v.008A17.884,17.884,0,0,1,835.836,981.676Z" transform="translate(-17256.74 12376.393)" fill="#1cb7a4"/>
    <path id="Path_30966" data-name="Path 30966" d="M800.926,972.7a20.324,20.324,0,0,1,5.835-2.647c-8.557,5.9-6.071,37.063-5.835,46.753v.008a62.723,62.723,0,0,1-8.143-1.471l.127-.5V987a16.418,16.418,0,0,1,.9-5.327A17.993,17.993,0,0,1,800.926,972.7Z" transform="translate(-17252.094 12376.391)" fill="#1cb7a4"/>
    <path id="Path_30967" data-name="Path 30967" d="M819.62,969.9c8.574,5.894,6.088,36.837,5.843,46.528v.243a101.166,101.166,0,0,1-23.151-.282l.007.273c-.237-9.691-2.723-40.851,5.835-46.753a.008.008,0,0,1,.008-.008,21.712,21.712,0,0,1,11.458,0Z" transform="translate(-17253.486 12376.533)" fill="#61d6a0"/>
    <path id="Path_30968" data-name="Path 30968" d="M814.249,954.535a.41.41,0,0,0,.647,0c1.686-2.168,5.619-1.606,7.043.435,2.389,3.453.738,8.72-6.628,11.559a1.967,1.967,0,0,1-.739.135,2.006,2.006,0,0,1-.747-.135c-7.358-2.839-9.007-8.105-6.619-11.559C808.63,952.929,812.563,952.366,814.249,954.535Z" transform="translate(-17254.164 12379)" fill="#ff736c"/>
    <path id="Path_30969" data-name="Path 30969" d="M780.077,963.813l1.109,2.03a.346.346,0,0,0,.156.156l2.019,1.109a.388.388,0,0,1,0,.688l-2.019,1.109a.35.35,0,0,0-.156.156l-1.109,2.019a.389.389,0,0,1-.687,0l-1.109-2.019a.354.354,0,0,0-.156-.156l-2.019-1.109a.388.388,0,0,1,0-.687L778.124,966a.35.35,0,0,0,.156-.156l1.109-2.03A.4.4,0,0,1,780.077,963.813Z" transform="translate(-17249.486 12377.385)" fill="#ffc639"/>
    <path id="Path_30970" data-name="Path 30970" d="M793.306,984.331a.856.856,0,0,1-.244-.036l-2.917-.879a.845.845,0,0,1,.489-1.619l2.918.88a.845.845,0,0,1-.245,1.655Z" transform="translate(-17251.594 12374.583)" fill="#473049"/>
    <path id="Path_30971" data-name="Path 30971" d="M801.965,973.419a.844.844,0,0,1-.709-.384l-1.616-2.478a.846.846,0,1,1,1.417-.923l1.615,2.478a.846.846,0,0,1-.708,1.307Z" transform="translate(-17253.131 12376.515)" fill="#473049"/>
    <path id="Path_30972" data-name="Path 30972" d="M838.048,984.331a.847.847,0,0,1-.188-1.673l2.87-.863a.846.846,0,1,1,.487,1.62l-2.925.879A.885.885,0,0,1,838.048,984.331Z" transform="translate(-17258.951 12374.583)" fill="#473049"/>
    <path id="Path_30973" data-name="Path 30973" d="M829.62,973.415a.842.842,0,0,1-.846-.841v-.008a.849.849,0,0,1,.139-.465l1.624-2.469a.846.846,0,0,1,1.414.93L830.344,973A.845.845,0,0,1,829.62,973.415Z" transform="translate(-17257.65 12376.515)" fill="#473049"/>
    <path id="Path_30974" data-name="Path 30974" d="M822.44,998.97a2.942,2.942,0,0,1-2.509-1.326.846.846,0,0,1,1.434-.9,1.281,1.281,0,0,0,1.139.532,1.052,1.052,0,0,0,.9-.471.845.845,0,1,1,1.5.778,2.68,2.68,0,0,1-2.335,1.383C822.53,998.969,822.485,998.97,822.44,998.97Z" transform="translate(-17256.266 12372.331)" fill="#473049"/>
    <path id="Path_30975" data-name="Path 30975" d="M808.815,998.97l-.115,0a2.706,2.706,0,0,1-2.357-1.377.845.845,0,1,1,1.492-.792,1.079,1.079,0,0,0,.926.479,1.251,1.251,0,0,0,1.129-.532.846.846,0,0,1,1.433.9A2.941,2.941,0,0,1,808.815,998.97Z" transform="translate(-17254.172 12372.331)" fill="#473049"/>
    <path id="Path_30976" data-name="Path 30976" d="M805.9,991a.846.846,0,0,1-.529-1.506c1.233-.985,4.534-1.472,6.093-1.12a.846.846,0,1,1-.373,1.65,8.256,8.256,0,0,0-4.664.791A.841.841,0,0,1,805.9,991Z" transform="translate(-17253.988 12373.58)" fill="#473049"/>
    <path id="Path_30977" data-name="Path 30977" d="M825.009,991a.835.835,0,0,1-.528-.186,8.18,8.18,0,0,0-4.643-.791.846.846,0,1,1-.379-1.648c1.554-.36,4.844.131,6.079,1.12a.846.846,0,0,1-.529,1.505Z" transform="translate(-17256.111 12373.58)" fill="#473049"/>
    <path id="Path_30978" data-name="Path 30978" d="M816.189,1006.623a3.152,3.152,0,0,1-2.889-1.794.846.846,0,1,1,1.536-.709,1.435,1.435,0,0,0,1.4.81,1.22,1.22,0,0,0,1.145-.763.846.846,0,0,1,1.569.631,2.9,2.9,0,0,1-2.673,1.823Z" transform="translate(-17255.25 12371.207)" fill="#473049"/>
    <path id="Path_30979" data-name="Path 30979" d="M802.227,1016.492c-.458,0-.911.214-.922-.246-.028-1.16-.089-2.623-.159-4.309-.538-13.01-1.541-37.208,6.335-42.714a.845.845,0,0,1,1.119,1.264.8.8,0,0,1-.123.1c-7.145,4.928-6.129,29.478-5.641,41.277.07,1.7.132,3.171.161,4.338.011.467-.3.276-.77.287Z" transform="translate(-17253.33 12376.547)" fill="#368e87"/>
    <path id="Path_30980" data-name="Path 30980" d="M828.612,1016.721c-.419.02-.906-.128-.895-.594.03-1.151.09-2.6.16-4.282.5-11.954,1.536-36.83-5.637-41.762a.846.846,0,1,1,.958-1.394c7.944,5.462,6.919,30.028,6.368,43.227-.069,1.667-.129,3.111-.158,4.254C829.4,1016.629,829.069,1016.7,828.612,1016.721Z" transform="translate(-17256.586 12376.624)" fill="#368e87"/>
    <path id="Path_30981" data-name="Path 30981" d="M837.938,955.683l.795,1.455a.257.257,0,0,0,.112.111l1.448.8a.278.278,0,0,1,0,.493l-1.448.795a.254.254,0,0,0-.112.112l-.795,1.447a.278.278,0,0,1-.493,0l-.8-1.447a.248.248,0,0,0-.111-.112l-1.448-.795a.278.278,0,0,1,0-.493l1.448-.8a.25.25,0,0,0,.111-.111l.8-1.455A.284.284,0,0,1,837.938,955.683Z" transform="translate(-17258.604 12378.632)" fill="#ffc639"/>
    <path id="Path_30982" data-name="Path 30982" d="M867.176,988.712l1.012,1.853a.32.32,0,0,0,.142.142l1.843,1.012a.355.355,0,0,1,0,.628l-1.843,1.012a.32.32,0,0,0-.142.142l-1.012,1.843a.355.355,0,0,1-.628,0l-1.012-1.843a.32.32,0,0,0-.142-.142l-1.843-1.012a.355.355,0,0,1,0-.628l1.843-1.012a.32.32,0,0,0,.142-.142l1.012-1.853A.362.362,0,0,1,867.176,988.712Z" transform="translate(-17262.99 12373.538)" fill="#ffc639"/>
    <path id="Path_30983" data-name="Path 30983" d="M837.307,1019.3a.838.838,0,0,0-.14-.148c-.844-1.075-3.17-1.852-6.11-2.415-.008.556-.038,1.112-.077,1.669a16.256,16.256,0,0,1,4.4,1.269.421.421,0,0,1,0,.724c-2.087,1.251-10.826,2.769-24.2,2.769-13.4,0-22.151-1.525-24.208-2.725a.418.418,0,0,1,0-.718,15.838,15.838,0,0,1,4.461-1.315c0-.567.007-1.133.008-1.7-3.076.578-5.512,1.386-6.313,2.518-.02.025-.048.041-.066.068a1.882,1.882,0,0,0-.159.4c-.008.03-.02.059-.027.089-.649,2.226-1.77,10.876,2.317,18.342,4.187,7.648,12.259,11.526,23.992,11.526,11.7,0,19.762-3.861,23.958-11.473C839.687,1029.928,837.837,1020.143,837.307,1019.3Zm-4.348,19.232c-4.058,6.257-11.385,9.43-21.778,9.43-10.409,0-17.743-3.181-21.8-9.455-3.993-6.175-3.691-13.557-3.226-16.746,5.184,3.055,24.092,3.1,25.02,3.1s19.827-.044,25.016-3.1C836.665,1025,836.948,1032.382,832.959,1038.534Z" transform="translate(-17250.773 12369.187)" fill="#584360"/>
    <path id="Path_30984" data-name="Path 30984" d="M836.745,1020.31c.727,1.15,5.573,29.055-25.41,29.055s-26.146-27.905-25.41-29.055Z" transform="translate(-17250.926 12368.631)" fill="#584360"/>
    <ellipse id="Ellipse_3125" data-name="Ellipse 3125" cx="25.49" cy="3.953" rx="25.49" ry="3.953" transform="translate(-16465.086 13385.297)" fill="#473049"/>
    <path id="Path_30985" data-name="Path 30985" d="M769.363,1022.663l.822,1.505a.261.261,0,0,0,.115.115l1.5.823a.288.288,0,0,1,0,.51l-1.5.822a.26.26,0,0,0-.115.115l-.822,1.5a.288.288,0,0,1-.51,0l-.823-1.5a.26.26,0,0,0-.115-.115l-1.5-.822a.288.288,0,0,1,0-.51l1.5-.823a.261.261,0,0,0,.115-.115l.823-1.505A.294.294,0,0,1,769.363,1022.663Z" transform="translate(-17248 12368.291)" fill="#ffc639"/>
    <path id="Path_30986" data-name="Path 30986" d="M858.491,1032.784l.823,1.505a.261.261,0,0,0,.115.115l1.5.823a.288.288,0,0,1,0,.51l-1.5.822a.26.26,0,0,0-.115.115l-.823,1.5a.288.288,0,0,1-.51,0l-.822-1.5a.26.26,0,0,0-.115-.115l-1.5-.822a.288.288,0,0,1,0-.51l1.5-.823a.261.261,0,0,0,.115-.115l.822-1.505A.294.294,0,0,1,858.491,1032.784Z" transform="translate(-17261.762 12366.729)" fill="#ffc639"/>
    <path id="Path_30987" data-name="Path 30987" d="M811.289,1015c-1.076,0-26.336.054-26.336,4.8s25.261,4.8,26.336,4.8,26.335-.055,26.335-4.8S812.364,1015,811.289,1015Zm0,7.906c-13.4,0-22.151-1.525-24.208-2.725a.418.418,0,0,1,0-.718c2.077-1.251,10.82-2.772,24.21-2.772s22.135,1.521,24.2,2.722a.421.421,0,0,1,0,.724C833.406,1021.388,824.667,1022.906,811.289,1022.906Z" transform="translate(-17250.885 12369.451)" fill="#584360"/>
    <path id="Path_30988" data-name="Path 30988" d="M785.189,988.5c-.431-2.283-.651-4.33-3.146-4.71a6.08,6.08,0,0,0-1.277-.059c-4.042.178-4.473,10.063-2.74,14.375a7.443,7.443,0,0,0,.321.685,10.425,10.425,0,0,0,5.091,4.465,22.9,22.9,0,0,0,7.044,1.725v-13S785.824,991.9,785.189,988.5Z" transform="translate(-17249.668 12374.281)" fill="#1cb7a4"/>
    <path id="Path_30989" data-name="Path 30989" d="M782.044,983.787s-4.262,14.316,8.439,14.316v6.875a22.9,22.9,0,0,1-7.044-1.725,10.425,10.425,0,0,1-5.091-4.465,7.443,7.443,0,0,1-.321-.685c-1.733-4.313-1.3-14.2,2.74-14.375A6.08,6.08,0,0,1,782.044,983.787Z" transform="translate(-17249.668 12374.281)" fill="#1ea592"/>
    <path id="Path_30990" data-name="Path 30990" d="M791.267,991.994v6.122c-12.7,0-8.439-14.316-8.439-14.316,2.495.38,2.714,2.427,3.146,4.71C786.607,991.909,791.267,991.994,791.267,991.994Z" transform="translate(-17250.451 12374.269)" fill="#56cc91"/>
    <path id="Path_30991" data-name="Path 30991" d="M775.25,1003.036a.846.846,0,0,1-.478-1.545l2.368-1.614a.846.846,0,0,1,.953,1.4l-2.368,1.614A.845.845,0,0,1,775.25,1003.036Z" transform="translate(-17249.256 12371.809)" fill="#473049"/>
    <path id="Path_30992" data-name="Path 30992" d="M783.339,1010.385a.835.835,0,0,1-.262-.042.845.845,0,0,1-.541-1.066l.931-2.852a.845.845,0,0,1,1.657.232v.008a.843.843,0,0,1-.042.263l-.938,2.874A.847.847,0,0,1,783.339,1010.385Z" transform="translate(-17250.506 12370.869)" fill="#473049"/>
    <path id="Path_30993" data-name="Path 30993" d="M791.111,998.807c-3.678,0-6.4-1.144-8.079-3.4-3.352-4.494-1.261-11.7-1.17-12a.845.845,0,0,1,1.621.481c-.019.067-1.938,6.7.908,10.513,1.346,1.8,3.607,2.717,6.72,2.717a.846.846,0,1,1,0,1.691Z" transform="translate(-17250.295 12374.423)" fill="#218782"/>
    <path id="Path_30994" data-name="Path 30994" d="M848.989,983.728a6.133,6.133,0,0,0-1.285.059c-2.486.38-2.714,2.427-3.137,4.71-.643,3.4-5.293,3.484-5.293,3.484v13a23.028,23.028,0,0,0,7.044-1.725,10.4,10.4,0,0,0,5.082-4.465,5.73,5.73,0,0,0,.321-.685C853.454,993.791,853.023,983.906,848.989,983.728Z" transform="translate(-17259.271 12374.281)" fill="#1cb7a4"/>
    <path id="Path_30995" data-name="Path 30995" d="M846.317,1003.253a23.028,23.028,0,0,1-7.044,1.725V998.1c12.693,0,8.431-14.316,8.431-14.316a6.133,6.133,0,0,1,1.285-.059c4.034.178,4.465,10.063,2.731,14.375a5.73,5.73,0,0,1-.321.685A10.4,10.4,0,0,1,846.317,1003.253Z" transform="translate(-17259.271 12374.281)" fill="#1ea592"/>
    <path id="Path_30996" data-name="Path 30996" d="M847.7,983.8s4.262,14.316-8.431,14.316v-6.122s4.651-.085,5.293-3.484C844.989,986.227,845.218,984.18,847.7,983.8Z" transform="translate(-17259.271 12374.269)" fill="#56cc91"/>
    <path id="Path_30997" data-name="Path 30997" d="M856.206,1003.036a.846.846,0,0,1-.475-.147l-2.368-1.614a.846.846,0,1,1,.953-1.4l2.368,1.614a.846.846,0,0,1-.478,1.545Z" transform="translate(-17261.391 12371.809)" fill="#473049"/>
    <path id="Path_30998" data-name="Path 30998" d="M848.387,1010.385a.846.846,0,0,1-.8-.583l-.939-2.874a.819.819,0,0,1-.042-.263.846.846,0,0,1,1.668-.2l.919,2.816a.846.846,0,0,1-.8,1.109Z" transform="translate(-17260.404 12370.869)" fill="#473049"/>
    <path id="Path_30999" data-name="Path 30999" d="M839.12,998.807a.846.846,0,0,1,0-1.691c3.11,0,5.37-.915,6.716-2.719,2.849-3.821.924-10.444.9-10.511a.845.845,0,1,1,1.62-.482c.091.3,2.182,7.51-1.168,12C845.509,997.664,842.793,998.807,839.12,998.807Z" transform="translate(-17259.117 12374.423)" fill="#218782"/>
    <path id="Path_31000" data-name="Path 31000" d="M832.1,1014.987V986.862a16.2,16.2,0,0,0-.9-5.327,17.884,17.884,0,0,0-7.128-8.98v-.008a20.326,20.326,0,0,0-5.835-2.647,21.712,21.712,0,0,0-11.458,0,.008.008,0,0,0-.008.008,20.324,20.324,0,0,0-5.835,2.647,17.993,17.993,0,0,0-7.12,8.98,16.418,16.418,0,0,0-.9,5.327V1014.7l-.127.5a62.723,62.723,0,0,0,8.143,1.471,95.744,95.744,0,0,0,23.144,0,62.4,62.4,0,0,0,8.084-1.454Z" transform="translate(-17252.094 12376.533)" fill="#1cb7a4"/>
    <path id="Path_31001" data-name="Path 31001" d="M835.836,981.676a16.2,16.2,0,0,1,.9,5.327v28.125l.059.228a62.4,62.4,0,0,1-8.084,1.454v-.008c.245-9.691,2.731-40.868-5.843-46.762a20.326,20.326,0,0,1,5.835,2.647v.008A17.884,17.884,0,0,1,835.836,981.676Z" transform="translate(-17256.74 12376.393)" fill="#1cb7a4"/>
    <path id="Path_31002" data-name="Path 31002" d="M800.926,972.7a20.324,20.324,0,0,1,5.835-2.647c-8.557,5.9-6.071,37.063-5.835,46.753v.008a62.723,62.723,0,0,1-8.143-1.471l.127-.5V987a16.418,16.418,0,0,1,.9-5.327A17.993,17.993,0,0,1,800.926,972.7Z" transform="translate(-17252.094 12376.391)" fill="#1cb7a4"/>
    <path id="Path_31003" data-name="Path 31003" d="M819.62,969.9c8.574,5.894,6.088,36.837,5.843,46.528v.243a101.166,101.166,0,0,1-23.151-.282l.007.273c-.237-9.691-2.723-40.851,5.835-46.753a.008.008,0,0,1,.008-.008,21.712,21.712,0,0,1,11.458,0Z" transform="translate(-17253.486 12376.533)" fill="#61d6a0"/>
    <path id="Path_31004" data-name="Path 31004" d="M814.249,954.535a.41.41,0,0,0,.647,0c1.686-2.168,5.619-1.606,7.043.435,2.389,3.453.738,8.72-6.628,11.559a1.967,1.967,0,0,1-.739.135,2.006,2.006,0,0,1-.747-.135c-7.358-2.839-9.007-8.105-6.619-11.559C808.63,952.929,812.563,952.366,814.249,954.535Z" transform="translate(-17254.164 12379)" fill="#ff736c"/>
    <path id="Path_31005" data-name="Path 31005" d="M780.077,963.813l1.109,2.03a.346.346,0,0,0,.156.156l2.019,1.109a.388.388,0,0,1,0,.688l-2.019,1.109a.35.35,0,0,0-.156.156l-1.109,2.019a.389.389,0,0,1-.687,0l-1.109-2.019a.354.354,0,0,0-.156-.156l-2.019-1.109a.388.388,0,0,1,0-.687L778.124,966a.35.35,0,0,0,.156-.156l1.109-2.03A.4.4,0,0,1,780.077,963.813Z" transform="translate(-17249.486 12377.385)" fill="#ffc639"/>
    <path id="Path_31006" data-name="Path 31006" d="M793.306,984.331a.856.856,0,0,1-.244-.036l-2.917-.879a.845.845,0,0,1,.489-1.619l2.918.88a.845.845,0,0,1-.245,1.655Z" transform="translate(-17251.594 12374.583)" fill="#473049"/>
    <path id="Path_31007" data-name="Path 31007" d="M801.965,973.419a.844.844,0,0,1-.709-.384l-1.616-2.478a.846.846,0,1,1,1.417-.923l1.615,2.478a.846.846,0,0,1-.708,1.307Z" transform="translate(-17253.131 12376.515)" fill="#473049"/>
    <path id="Path_31008" data-name="Path 31008" d="M838.048,984.331a.847.847,0,0,1-.188-1.673l2.87-.863a.846.846,0,1,1,.487,1.62l-2.925.879A.885.885,0,0,1,838.048,984.331Z" transform="translate(-17258.951 12374.583)" fill="#473049"/>
    <path id="Path_31009" data-name="Path 31009" d="M829.62,973.415a.842.842,0,0,1-.846-.841v-.008a.849.849,0,0,1,.139-.465l1.624-2.469a.846.846,0,0,1,1.414.93L830.344,973A.845.845,0,0,1,829.62,973.415Z" transform="translate(-17257.65 12376.515)" fill="#473049"/>
    <path id="Path_31010" data-name="Path 31010" d="M822.44,998.97a2.942,2.942,0,0,1-2.509-1.326.846.846,0,0,1,1.434-.9,1.281,1.281,0,0,0,1.139.532,1.052,1.052,0,0,0,.9-.471.845.845,0,1,1,1.5.778,2.68,2.68,0,0,1-2.335,1.383C822.53,998.969,822.485,998.97,822.44,998.97Z" transform="translate(-17256.266 12372.331)" fill="#473049"/>
    <path id="Path_31011" data-name="Path 31011" d="M808.815,998.97l-.115,0a2.706,2.706,0,0,1-2.357-1.377.845.845,0,1,1,1.492-.792,1.079,1.079,0,0,0,.926.479,1.251,1.251,0,0,0,1.129-.532.846.846,0,0,1,1.433.9A2.941,2.941,0,0,1,808.815,998.97Z" transform="translate(-17254.172 12372.331)" fill="#473049"/>
    <path id="Path_31012" data-name="Path 31012" d="M805.9,991a.846.846,0,0,1-.529-1.506c1.233-.985,4.534-1.472,6.093-1.12a.846.846,0,1,1-.373,1.65,8.256,8.256,0,0,0-4.664.791A.841.841,0,0,1,805.9,991Z" transform="translate(-17253.988 12373.58)" fill="#473049"/>
    <path id="Path_31013" data-name="Path 31013" d="M825.009,991a.835.835,0,0,1-.528-.186,8.18,8.18,0,0,0-4.643-.791.846.846,0,1,1-.379-1.648c1.554-.36,4.844.131,6.079,1.12a.846.846,0,0,1-.529,1.505Z" transform="translate(-17256.111 12373.58)" fill="#473049"/>
    <path id="Path_31014" data-name="Path 31014" d="M816.189,1006.623a3.152,3.152,0,0,1-2.889-1.794.846.846,0,1,1,1.536-.709,1.435,1.435,0,0,0,1.4.81,1.22,1.22,0,0,0,1.145-.763.846.846,0,0,1,1.569.631,2.9,2.9,0,0,1-2.673,1.823Z" transform="translate(-17255.25 12371.207)" fill="#473049"/>
    <path id="Path_31015" data-name="Path 31015" d="M802.227,1016.492c-.458,0-.911.214-.922-.246-.028-1.16-.089-2.623-.159-4.309-.538-13.01-1.541-37.208,6.335-42.714a.845.845,0,0,1,1.119,1.264.8.8,0,0,1-.123.1c-7.145,4.928-6.129,29.478-5.641,41.277.07,1.7.132,3.171.161,4.338.011.467-.3.276-.77.287Z" transform="translate(-17253.33 12376.547)" fill="#368e87"/>
    <path id="Path_31016" data-name="Path 31016" d="M828.612,1016.721c-.419.02-.906-.128-.895-.594.03-1.151.09-2.6.16-4.282.5-11.954,1.536-36.83-5.637-41.762a.846.846,0,1,1,.958-1.394c7.944,5.462,6.919,30.028,6.368,43.227-.069,1.667-.129,3.111-.158,4.254C829.4,1016.629,829.069,1016.7,828.612,1016.721Z" transform="translate(-17256.586 12376.624)" fill="#368e87"/>
    <path id="Path_31017" data-name="Path 31017" d="M837.938,955.683l.795,1.455a.257.257,0,0,0,.112.111l1.448.8a.278.278,0,0,1,0,.493l-1.448.795a.254.254,0,0,0-.112.112l-.795,1.447a.278.278,0,0,1-.493,0l-.8-1.447a.248.248,0,0,0-.111-.112l-1.448-.795a.278.278,0,0,1,0-.493l1.448-.8a.25.25,0,0,0,.111-.111l.8-1.455A.284.284,0,0,1,837.938,955.683Z" transform="translate(-17258.604 12378.632)" fill="#ffc639"/>
    <path id="Path_31018" data-name="Path 31018" d="M867.176,988.712l1.012,1.853a.32.32,0,0,0,.142.142l1.843,1.012a.355.355,0,0,1,0,.628l-1.843,1.012a.32.32,0,0,0-.142.142l-1.012,1.843a.355.355,0,0,1-.628,0l-1.012-1.843a.32.32,0,0,0-.142-.142l-1.843-1.012a.355.355,0,0,1,0-.628l1.843-1.012a.32.32,0,0,0,.142-.142l1.012-1.853A.362.362,0,0,1,867.176,988.712Z" transform="translate(-17262.99 12373.538)" fill="#ffc639"/>
    <path id="Path_31019" data-name="Path 31019" d="M837.307,1019.3a.838.838,0,0,0-.14-.148c-.844-1.075-3.17-1.852-6.11-2.415-.008.556-.038,1.112-.077,1.669a16.256,16.256,0,0,1,4.4,1.269.421.421,0,0,1,0,.724c-2.087,1.251-10.826,2.769-24.2,2.769-13.4,0-22.151-1.525-24.208-2.725a.418.418,0,0,1,0-.718,15.838,15.838,0,0,1,4.461-1.315c0-.567.007-1.133.008-1.7-3.076.578-5.512,1.386-6.313,2.518-.02.025-.048.041-.066.068a1.882,1.882,0,0,0-.159.4c-.008.03-.02.059-.027.089-.649,2.226-1.77,10.876,2.317,18.342,4.187,7.648,12.259,11.526,23.992,11.526,11.7,0,19.762-3.861,23.958-11.473C839.687,1029.928,837.837,1020.143,837.307,1019.3Zm-4.348,19.232c-4.058,6.257-11.385,9.43-21.778,9.43-10.409,0-17.743-3.181-21.8-9.455-3.993-6.175-3.691-13.557-3.226-16.746,5.184,3.055,24.092,3.1,25.02,3.1s19.827-.044,25.016-3.1C836.665,1025,836.948,1032.382,832.959,1038.534Z" transform="translate(-17250.773 12369.187)" fill="#584360"/>
    <path id="Path_31020" data-name="Path 31020" d="M836.745,1020.31c.727,1.15,5.573,29.055-25.41,29.055s-26.146-27.905-25.41-29.055Z" transform="translate(-17250.926 12368.631)" fill="#584360"/>
    <ellipse id="Ellipse_3126" data-name="Ellipse 3126" cx="25.49" cy="3.953" rx="25.49" ry="3.953" transform="translate(-16465.086 13385.297)" fill="#473049"/>
    <path id="Path_31021" data-name="Path 31021" d="M769.363,1022.663l.822,1.505a.261.261,0,0,0,.115.115l1.5.823a.288.288,0,0,1,0,.51l-1.5.822a.26.26,0,0,0-.115.115l-.822,1.5a.288.288,0,0,1-.51,0l-.823-1.5a.26.26,0,0,0-.115-.115l-1.5-.822a.288.288,0,0,1,0-.51l1.5-.823a.261.261,0,0,0,.115-.115l.823-1.505A.294.294,0,0,1,769.363,1022.663Z" transform="translate(-17248 12368.291)" fill="#ffc639"/>
    <path id="Path_31022" data-name="Path 31022" d="M858.491,1032.784l.823,1.505a.261.261,0,0,0,.115.115l1.5.823a.288.288,0,0,1,0,.51l-1.5.822a.26.26,0,0,0-.115.115l-.823,1.5a.288.288,0,0,1-.51,0l-.822-1.5a.26.26,0,0,0-.115-.115l-1.5-.822a.288.288,0,0,1,0-.51l1.5-.823a.261.261,0,0,0,.115-.115l.822-1.505A.294.294,0,0,1,858.491,1032.784Z" transform="translate(-17261.762 12366.729)" fill="#ffc639"/>
    <path id="Path_31023" data-name="Path 31023" d="M811.289,1015c-1.076,0-26.336.054-26.336,4.8s25.261,4.8,26.336,4.8,26.335-.055,26.335-4.8S812.364,1015,811.289,1015Zm0,7.906c-13.4,0-22.151-1.525-24.208-2.725a.418.418,0,0,1,0-.718c2.077-1.251,10.82-2.772,24.21-2.772s22.135,1.521,24.2,2.722a.421.421,0,0,1,0,.724C833.406,1021.388,824.667,1022.906,811.289,1022.906Z" transform="translate(-17250.885 12369.451)" fill="#584360"/>
    <path id="Path_31024" data-name="Path 31024" d="M785.189,988.5c-.431-2.283-.651-4.33-3.146-4.71a6.08,6.08,0,0,0-1.277-.059c-4.042.178-4.473,10.063-2.74,14.375a7.443,7.443,0,0,0,.321.685,10.425,10.425,0,0,0,5.091,4.465,22.9,22.9,0,0,0,7.044,1.725v-13S785.824,991.9,785.189,988.5Z" transform="translate(-17249.668 12374.281)" fill="#1cb7a4"/>
    <path id="Path_31025" data-name="Path 31025" d="M782.044,983.787s-4.262,14.316,8.439,14.316v6.875a22.9,22.9,0,0,1-7.044-1.725,10.425,10.425,0,0,1-5.091-4.465,7.443,7.443,0,0,1-.321-.685c-1.733-4.313-1.3-14.2,2.74-14.375A6.08,6.08,0,0,1,782.044,983.787Z" transform="translate(-17249.668 12374.281)" fill="#1ea592"/>
    <path id="Path_31026" data-name="Path 31026" d="M791.267,991.994v6.122c-12.7,0-8.439-14.316-8.439-14.316,2.495.38,2.714,2.427,3.146,4.71C786.607,991.909,791.267,991.994,791.267,991.994Z" transform="translate(-17250.451 12374.269)" fill="#56cc91"/>
    <path id="Path_31027" data-name="Path 31027" d="M775.25,1003.036a.846.846,0,0,1-.478-1.545l2.368-1.614a.846.846,0,0,1,.953,1.4l-2.368,1.614A.845.845,0,0,1,775.25,1003.036Z" transform="translate(-17249.256 12371.809)" fill="#473049"/>
    <path id="Path_31028" data-name="Path 31028" d="M783.339,1010.385a.835.835,0,0,1-.262-.042.845.845,0,0,1-.541-1.066l.931-2.852a.845.845,0,0,1,1.657.232v.008a.843.843,0,0,1-.042.263l-.938,2.874A.847.847,0,0,1,783.339,1010.385Z" transform="translate(-17250.506 12370.869)" fill="#473049"/>
    <path id="Path_31029" data-name="Path 31029" d="M791.111,998.807c-3.678,0-6.4-1.144-8.079-3.4-3.352-4.494-1.261-11.7-1.17-12a.845.845,0,0,1,1.621.481c-.019.067-1.938,6.7.908,10.513,1.346,1.8,3.607,2.717,6.72,2.717a.846.846,0,1,1,0,1.691Z" transform="translate(-17250.295 12374.423)" fill="#218782"/>
    <path id="Path_31030" data-name="Path 31030" d="M848.989,983.728a6.133,6.133,0,0,0-1.285.059c-2.486.38-2.714,2.427-3.137,4.71-.643,3.4-5.293,3.484-5.293,3.484v13a23.028,23.028,0,0,0,7.044-1.725,10.4,10.4,0,0,0,5.082-4.465,5.73,5.73,0,0,0,.321-.685C853.454,993.791,853.023,983.906,848.989,983.728Z" transform="translate(-17259.271 12374.281)" fill="#1cb7a4"/>
    <path id="Path_31031" data-name="Path 31031" d="M846.317,1003.253a23.028,23.028,0,0,1-7.044,1.725V998.1c12.693,0,8.431-14.316,8.431-14.316a6.133,6.133,0,0,1,1.285-.059c4.034.178,4.465,10.063,2.731,14.375a5.73,5.73,0,0,1-.321.685A10.4,10.4,0,0,1,846.317,1003.253Z" transform="translate(-17259.271 12374.281)" fill="#1ea592"/>
    <path id="Path_31032" data-name="Path 31032" d="M847.7,983.8s4.262,14.316-8.431,14.316v-6.122s4.651-.085,5.293-3.484C844.989,986.227,845.218,984.18,847.7,983.8Z" transform="translate(-17259.271 12374.269)" fill="#56cc91"/>
    <path id="Path_31033" data-name="Path 31033" d="M856.206,1003.036a.846.846,0,0,1-.475-.147l-2.368-1.614a.846.846,0,1,1,.953-1.4l2.368,1.614a.846.846,0,0,1-.478,1.545Z" transform="translate(-17261.391 12371.809)" fill="#473049"/>
    <path id="Path_31034" data-name="Path 31034" d="M848.387,1010.385a.846.846,0,0,1-.8-.583l-.939-2.874a.819.819,0,0,1-.042-.263.846.846,0,0,1,1.668-.2l.919,2.816a.846.846,0,0,1-.8,1.109Z" transform="translate(-17260.404 12370.869)" fill="#473049"/>
    <path id="Path_31035" data-name="Path 31035" d="M839.12,998.807a.846.846,0,0,1,0-1.691c3.11,0,5.37-.915,6.716-2.719,2.849-3.821.924-10.444.9-10.511a.845.845,0,1,1,1.62-.482c.091.3,2.182,7.51-1.168,12C845.509,997.664,842.793,998.807,839.12,998.807Z" transform="translate(-17259.117 12374.423)" fill="#218782"/>
    <path id="Path_31036" data-name="Path 31036" d="M832.1,1014.987V986.862a16.2,16.2,0,0,0-.9-5.327,17.884,17.884,0,0,0-7.128-8.98v-.008a20.326,20.326,0,0,0-5.835-2.647,21.712,21.712,0,0,0-11.458,0,.008.008,0,0,0-.008.008,20.324,20.324,0,0,0-5.835,2.647,17.993,17.993,0,0,0-7.12,8.98,16.418,16.418,0,0,0-.9,5.327V1014.7l-.127.5a62.723,62.723,0,0,0,8.143,1.471,95.744,95.744,0,0,0,23.144,0,62.4,62.4,0,0,0,8.084-1.454Z" transform="translate(-17252.094 12376.533)" fill="#1cb7a4"/>
    <path id="Path_31037" data-name="Path 31037" d="M835.836,981.676a16.2,16.2,0,0,1,.9,5.327v28.125l.059.228a62.4,62.4,0,0,1-8.084,1.454v-.008c.245-9.691,2.731-40.868-5.843-46.762a20.326,20.326,0,0,1,5.835,2.647v.008A17.884,17.884,0,0,1,835.836,981.676Z" transform="translate(-17256.74 12376.393)" fill="#1cb7a4"/>
    <path id="Path_31038" data-name="Path 31038" d="M800.926,972.7a20.324,20.324,0,0,1,5.835-2.647c-8.557,5.9-6.071,37.063-5.835,46.753v.008a62.723,62.723,0,0,1-8.143-1.471l.127-.5V987a16.418,16.418,0,0,1,.9-5.327A17.993,17.993,0,0,1,800.926,972.7Z" transform="translate(-17252.094 12376.391)" fill="#1cb7a4"/>
    <path id="Path_31039" data-name="Path 31039" d="M819.62,969.9c8.574,5.894,6.088,36.837,5.843,46.528v.243a101.166,101.166,0,0,1-23.151-.282l.007.273c-.237-9.691-2.723-40.851,5.835-46.753a.008.008,0,0,1,.008-.008,21.712,21.712,0,0,1,11.458,0Z" transform="translate(-17253.486 12376.533)" fill="#61d6a0"/>
    <path id="Path_31040" data-name="Path 31040" d="M814.249,954.535a.41.41,0,0,0,.647,0c1.686-2.168,5.619-1.606,7.043.435,2.389,3.453.738,8.72-6.628,11.559a1.967,1.967,0,0,1-.739.135,2.006,2.006,0,0,1-.747-.135c-7.358-2.839-9.007-8.105-6.619-11.559C808.63,952.929,812.563,952.366,814.249,954.535Z" transform="translate(-17254.164 12379)" fill="#ff736c"/>
    <path id="Path_31041" data-name="Path 31041" d="M780.077,963.813l1.109,2.03a.346.346,0,0,0,.156.156l2.019,1.109a.388.388,0,0,1,0,.688l-2.019,1.109a.35.35,0,0,0-.156.156l-1.109,2.019a.389.389,0,0,1-.687,0l-1.109-2.019a.354.354,0,0,0-.156-.156l-2.019-1.109a.388.388,0,0,1,0-.687L778.124,966a.35.35,0,0,0,.156-.156l1.109-2.03A.4.4,0,0,1,780.077,963.813Z" transform="translate(-17249.486 12377.385)" fill="#ffc639"/>
    <path id="Path_31042" data-name="Path 31042" d="M793.306,984.331a.856.856,0,0,1-.244-.036l-2.917-.879a.845.845,0,0,1,.489-1.619l2.918.88a.845.845,0,0,1-.245,1.655Z" transform="translate(-17251.594 12374.583)" fill="#473049"/>
    <path id="Path_31043" data-name="Path 31043" d="M801.965,973.419a.844.844,0,0,1-.709-.384l-1.616-2.478a.846.846,0,1,1,1.417-.923l1.615,2.478a.846.846,0,0,1-.708,1.307Z" transform="translate(-17253.131 12376.515)" fill="#473049"/>
    <path id="Path_31044" data-name="Path 31044" d="M838.048,984.331a.847.847,0,0,1-.188-1.673l2.87-.863a.846.846,0,1,1,.487,1.62l-2.925.879A.885.885,0,0,1,838.048,984.331Z" transform="translate(-17258.951 12374.583)" fill="#473049"/>
    <path id="Path_31045" data-name="Path 31045" d="M829.62,973.415a.842.842,0,0,1-.846-.841v-.008a.849.849,0,0,1,.139-.465l1.624-2.469a.846.846,0,0,1,1.414.93L830.344,973A.845.845,0,0,1,829.62,973.415Z" transform="translate(-17257.65 12376.515)" fill="#473049"/>
    <path id="Path_31046" data-name="Path 31046" d="M822.44,998.97a2.942,2.942,0,0,1-2.509-1.326.846.846,0,0,1,1.434-.9,1.281,1.281,0,0,0,1.139.532,1.052,1.052,0,0,0,.9-.471.845.845,0,1,1,1.5.778,2.68,2.68,0,0,1-2.335,1.383C822.53,998.969,822.485,998.97,822.44,998.97Z" transform="translate(-17256.266 12372.331)" fill="#473049"/>
    <path id="Path_31047" data-name="Path 31047" d="M808.815,998.97l-.115,0a2.706,2.706,0,0,1-2.357-1.377.845.845,0,1,1,1.492-.792,1.079,1.079,0,0,0,.926.479,1.251,1.251,0,0,0,1.129-.532.846.846,0,0,1,1.433.9A2.941,2.941,0,0,1,808.815,998.97Z" transform="translate(-17254.172 12372.331)" fill="#473049"/>
    <path id="Path_31048" data-name="Path 31048" d="M805.9,991a.846.846,0,0,1-.529-1.506c1.233-.985,4.534-1.472,6.093-1.12a.846.846,0,1,1-.373,1.65,8.256,8.256,0,0,0-4.664.791A.841.841,0,0,1,805.9,991Z" transform="translate(-17253.988 12373.58)" fill="#473049"/>
    <path id="Path_31049" data-name="Path 31049" d="M825.009,991a.835.835,0,0,1-.528-.186,8.18,8.18,0,0,0-4.643-.791.846.846,0,1,1-.379-1.648c1.554-.36,4.844.131,6.079,1.12a.846.846,0,0,1-.529,1.505Z" transform="translate(-17256.111 12373.58)" fill="#473049"/>
    <path id="Path_31050" data-name="Path 31050" d="M816.189,1006.623a3.152,3.152,0,0,1-2.889-1.794.846.846,0,1,1,1.536-.709,1.435,1.435,0,0,0,1.4.81,1.22,1.22,0,0,0,1.145-.763.846.846,0,0,1,1.569.631,2.9,2.9,0,0,1-2.673,1.823Z" transform="translate(-17255.25 12371.207)" fill="#473049"/>
    <path id="Path_31051" data-name="Path 31051" d="M802.227,1016.492c-.458,0-.911.214-.922-.246-.028-1.16-.089-2.623-.159-4.309-.538-13.01-1.541-37.208,6.335-42.714a.845.845,0,0,1,1.119,1.264.8.8,0,0,1-.123.1c-7.145,4.928-6.129,29.478-5.641,41.277.07,1.7.132,3.171.161,4.338.011.467-.3.276-.77.287Z" transform="translate(-17253.33 12376.547)" fill="#368e87"/>
    <path id="Path_31052" data-name="Path 31052" d="M828.612,1016.721c-.419.02-.906-.128-.895-.594.03-1.151.09-2.6.16-4.282.5-11.954,1.536-36.83-5.637-41.762a.846.846,0,1,1,.958-1.394c7.944,5.462,6.919,30.028,6.368,43.227-.069,1.667-.129,3.111-.158,4.254C829.4,1016.629,829.069,1016.7,828.612,1016.721Z" transform="translate(-17256.586 12376.624)" fill="#368e87"/>
    <path id="Path_31053" data-name="Path 31053" d="M837.938,955.683l.795,1.455a.257.257,0,0,0,.112.111l1.448.8a.278.278,0,0,1,0,.493l-1.448.795a.254.254,0,0,0-.112.112l-.795,1.447a.278.278,0,0,1-.493,0l-.8-1.447a.248.248,0,0,0-.111-.112l-1.448-.795a.278.278,0,0,1,0-.493l1.448-.8a.25.25,0,0,0,.111-.111l.8-1.455A.284.284,0,0,1,837.938,955.683Z" transform="translate(-17258.604 12378.632)" fill="#ffc639"/>
    <path id="Path_31054" data-name="Path 31054" d="M867.176,988.712l1.012,1.853a.32.32,0,0,0,.142.142l1.843,1.012a.355.355,0,0,1,0,.628l-1.843,1.012a.32.32,0,0,0-.142.142l-1.012,1.843a.355.355,0,0,1-.628,0l-1.012-1.843a.32.32,0,0,0-.142-.142l-1.843-1.012a.355.355,0,0,1,0-.628l1.843-1.012a.32.32,0,0,0,.142-.142l1.012-1.853A.362.362,0,0,1,867.176,988.712Z" transform="translate(-17262.99 12373.538)" fill="#ffc639"/>
    <path id="Path_31055" data-name="Path 31055" d="M837.307,1019.3a.838.838,0,0,0-.14-.148c-.844-1.075-3.17-1.852-6.11-2.415-.008.556-.038,1.112-.077,1.669a16.256,16.256,0,0,1,4.4,1.269.421.421,0,0,1,0,.724c-2.087,1.251-10.826,2.769-24.2,2.769-13.4,0-22.151-1.525-24.208-2.725a.418.418,0,0,1,0-.718,15.838,15.838,0,0,1,4.461-1.315c0-.567.007-1.133.008-1.7-3.076.578-5.512,1.386-6.313,2.518-.02.025-.048.041-.066.068a1.882,1.882,0,0,0-.159.4c-.008.03-.02.059-.027.089-.649,2.226-1.77,10.876,2.317,18.342,4.187,7.648,12.259,11.526,23.992,11.526,11.7,0,19.762-3.861,23.958-11.473C839.687,1029.928,837.837,1020.143,837.307,1019.3Zm-4.348,19.232c-4.058,6.257-11.385,9.43-21.778,9.43-10.409,0-17.743-3.181-21.8-9.455-3.993-6.175-3.691-13.557-3.226-16.746,5.184,3.055,24.092,3.1,25.02,3.1s19.827-.044,25.016-3.1C836.665,1025,836.948,1032.382,832.959,1038.534Z" transform="translate(-17250.773 12369.187)" fill="#584360"/>
  </g>
</svg>
