<svg xmlns="http://www.w3.org/2000/svg" width="83.649" height="93.772" viewBox="0 0 83.649 93.772">
  <g id="Group_5791" data-name="Group 5791" transform="translate(18814.602 -15229.67)">
    <circle id="Ellipse_1013" data-name="Ellipse 1013" cx="3.112" cy="3.112" r="3.112" transform="translate(-18785.035 15229.67)" fill="#ffe888"/>
    <circle id="Ellipse_1014" data-name="Ellipse 1014" cx="3.112" cy="3.112" r="3.112" transform="translate(-18753.521 15232.782)" fill="#ffe888"/>
    <circle id="Ellipse_1015" data-name="Ellipse 1015" cx="3.112" cy="3.112" r="3.112" transform="translate(-18747.297 15287.25)" fill="#ffe888"/>
    <circle id="Ellipse_1016" data-name="Ellipse 1016" cx="3.112" cy="3.112" r="3.112" transform="translate(-18807.814 15286.311)" fill="#ffe888"/>
    <circle id="Ellipse_1017" data-name="Ellipse 1017" cx="5.059" cy="5.059" r="5.059" transform="translate(-18741.07 15259.707)" fill="#ffe888"/>
    <circle id="Ellipse_1018" data-name="Ellipse 1018" cx="5.059" cy="5.059" r="5.059" transform="translate(-18814.602 15251.345)" fill="#ffe888"/>
    <path id="Path_17447" data-name="Path 17447" d="M625.362,968.119A19.568,19.568,0,0,0,610.817,1001a19.884,19.884,0,0,1,5.363,13.406l.412,1.5c6.015,2.386,11.205,2.54,17.155.237l.381-1.734a19.339,19.339,0,0,1,5.209-13.235,19.567,19.567,0,0,0-13.974-33.051Z" transform="translate(-19398.082 14277.332)" fill="#ffc639"/>
    <path id="Path_17448" data-name="Path 17448" d="M638.509,1021.512v.005h0Z" transform="translate(-19402.463 14270.224)" fill="#584360"/>
    <path id="Path_17449" data-name="Path 17449" d="M644.257,1043.933c-2.409-1.619-7.2.588-10.122.933a2.151,2.151,0,0,0,.517-4.115,49.7,49.7,0,0,0-8.381-2.393,20.388,20.388,0,0,0-13.27,1.82c-2.254,1.067-8.7,5.458-10.3,7.952a1.564,1.564,0,0,0-.273,1.095c.162,1.453,4.528,5.645,5.866,6.079a1.585,1.585,0,0,0,1.482-.2c.807-.519,2.582-2.261,4.369-2.889,3.311-1.164,8.8-.158,11.474-.222,3.933-.094,17.066-3.46,19.095-5.292A1.812,1.812,0,0,0,644.257,1043.933Z" transform="translate(-19397.658 14268.038)" fill="#ff977b"/>
    <path id="Path_17450" data-name="Path 17450" d="M628.027,1022.558a.867.867,0,0,1-.867-.867v-9.167a.867.867,0,1,1,1.734,0v9.167A.866.866,0,0,1,628.027,1022.558Z" transform="translate(-19400.953 14271.536)" fill="#fff"/>
    <circle id="Ellipse_1019" data-name="Ellipse 1019" cx="1.105" cy="1.105" r="1.105" transform="translate(-18774.031 15277.55)" fill="#fff"/>
    <path id="Path_17451" data-name="Path 17451" d="M627.19,1000.983h-.1a2.13,2.13,0,0,1-1.985-1.365c-1.117-2.855-2.161-3.562-3.816-3.925a.867.867,0,1,1,.371-1.693c2.479.544,3.851,1.9,5.06,4.987a.4.4,0,0,0,.418.262.433.433,0,0,0,.454-.262c1.211-3.093,2.582-4.444,5.062-4.987a.867.867,0,1,1,.371,1.693c-1.655.363-2.7,1.07-3.817,3.925A2.143,2.143,0,0,1,627.19,1000.983Z" transform="translate(-19400.08 14273.89)" fill="#fff"/>
    <path id="Path_17452" data-name="Path 17452" d="M626.778,1023a28.369,28.369,0,0,1-8.972-1.493,8.977,8.977,0,1,0,17.946.005A28.367,28.367,0,0,1,626.778,1023Z" transform="translate(-19399.707 14270.224)" fill="#4e3b56"/>
    <path id="Path_17453" data-name="Path 17453" d="M628.253,1046.754a.867.867,0,0,1-.423-1.624c1.948-1.086,4.259-.753,6.3-.46a11.684,11.684,0,0,0,3.2.2.867.867,0,0,1,.266,1.714,12.942,12.942,0,0,1-3.713-.194c-1.851-.266-3.767-.542-5.2.258A.861.861,0,0,1,628.253,1046.754Z" transform="translate(-19400.982 14267.181)" fill="#ed4850"/>
  </g>
</svg>
