<svg xmlns="http://www.w3.org/2000/svg" viewBox="0 0 312.99 62.73"><defs><style>.cls-1,.cls-2{fill:#fff}.cls-2{fill-rule:evenodd}</style></defs><title>Asset 4</title><g id="Layer_2" data-name="Layer 2"><g id="CONTENT"><path d="M186 48h-1.95a.56.56 0 00-.57.57v1.92a.55.55 0 00.57.55H186a.55.55 0 00.57-.55v-1.92A.56.56 0 00186 48zm10.3-1.6h4.38V32.23h-4.38zm-4.87-14.17a60.59 60.59 0 00-6.08-.15 60.71 60.71 0 00-6.09.15 3.3 3.3 0 00-2.92 2.41 19.53 19.53 0 00-.34 4.56 21.09 21.09 0 00.33 4.8 3.05 3.05 0 002.92 2.32 51.21 51.21 0 006.09.24c2.92 0 4.94-.08 6.08-.16a3.39 3.39 0 002.92-2.4 21.8 21.8 0 00.33-4.72 21 21 0 00-.33-4.64 3.28 3.28 0 00-2.9-2.41zm-1 9.3c-.17.4-.25.71-.57.87a2.15 2.15 0 01-1.22.4 28.54 28.54 0 01-3.32.09 33.69 33.69 0 01-3.57-.09 1.48 1.48 0 01-1.46-1.27 5.34 5.34 0 01-.16-1.85 10.94 10.94 0 01.24-2.88 1.23 1.23 0 011-.89 18.54 18.54 0 014-.23c1.95 0 3.16.07 3.65.07a1.71 1.71 0 011.05.64 1.81 1.81 0 01.41 1 16.36 16.36 0 01.08 2.25 10.51 10.51 0 01-.09 1.89zM302 30.23c.89 0 2 .4 3 .4a4.62 4.62 0 002.44-.72l-1.31-1.28a3.48 3.48 0 01-1.69.48c-.9 0-2-.48-2.85-.48a6.1 6.1 0 00-2.51.56l1.29 1.36a3.5 3.5 0 011.63-.32zm-132 7.04h-9.41v-5h-4.3V46.4h4.3v-5.12H170v5.12h4.31V32.23H170zm11.61-6.88l3.65-.8 3.65.8.4-.88-4.05-1.84-4.14 1.84zm58 17.61h-2a.56.56 0 00-.56.57v1.92a.54.54 0 00.56.55h2a.55.55 0 00.57-.55v-1.92a.56.56 0 00-.54-.57zm-3.82-7.28h11V37.6h-11v-2h11v-3.37h-15V46.4h15.09V43h-11zM248 35.84h6.09V46.4h4.3V35.84h6.08v-3.61H248zm59.64-3.61l-4.3 5.69-4.34-5.69h-5.44l7.79 9.13v5h4.22v-5l7.43-9.13zm-72.87-2.72l.5.88 3.65-.8 3.65.8.4-.88-4.05-1.84zm46.67 11.93l-4.06-9.21h-7.55V46.4H274l-.16-10.65h.81l5.12 10.65h3.4l5.12-10.65h.71l-.08 10.65H293V32.23h-7.48zm-56 5h4.38V32.23h-4.38zm-10.07-3.6h-.81l-4.95-10.57h-4.54l6.74 14.17h6.32l6.66-14.17h-4.55zm-54.78-19.76h6.15l.87 1.71h3.2L165.87 15h-4.42l-4.93 9.75h3.3zm2.77-5.81h.64l1.82 3.67h-4.16zm52.14 7.52l.78-1.71h6.24l.77 1.71h3.29L221.65 15h-4.42l-5 9.75zm3.64-7.52h.61l1.73 3.67h-4.16zm-9.27 7.52l4.59-9.79h-3.12L208 22.31h-.53L204 15h-3.11l4.67 9.75zm-25.55 0V15h-2.94l.08 7.27h-.35L176.27 15h-5v9.75h2.86v-7.23h.27l4.93 7.27zM218 13.59a3.65 3.65 0 001.46.34 2.08 2.08 0 001.65-.59 2 2 0 00.44-.86h-.88a.94.94 0 01-.43.43 1.84 1.84 0 01-.78.09 2.47 2.47 0 01-.95-.17c-.17 0-.25-.18-.34-.35h-.87a1.64 1.64 0 00.7 1.11zm17 11.2h5V15h-2.86v7.27h-.26L232 15h-5v9.75h2.85l-.08-7.27h.35zm-37.06 0V15h-2.95v3.42h-6.49V15h-2.95v9.75h2.95V21.2h6.49v3.59zM32.77 42.05L52.7 1.15H38.19l-12 27.73H26L14.11 1.15H0l22.14 46.12a62 62 0 0110.63-5.22zm33.66-6.79C77.43 35.65 91 40 101 41.92a33.84 33.84 0 006.61.89c4.13.12 21.48-.89 21.48-15.84 0-12-20.58-10.36-28.09-13.16-1.69-.65-2.73-1.54-2.73-2.82A4 4 0 01101 7.15a15.74 15.74 0 015-.77c5.06 0 7.78 1.93 8.16 5.89h13.47C127 3.31 117.19 0 107.46 0a49.83 49.83 0 00-6.46.38c-8.29.89-12.7 3.7-14.77 6.77v-6H72.77v22.62c0 6.9-2.2 9.21-9.07 9.21s-9.06-2.31-9.06-9.21V7.15L42.21 32.2c0 2.55 1.29 4.47 4.54 5.88a55.41 55.41 0 0119.68-2.82zm19.8-17.62C89 21.85 95 23.25 101 24c7.37 1.15 14.62 1.4 14.62 5.5 0 2.8-2.59 4.47-8.67 4.47a18.58 18.58 0 01-6-.78 5.27 5.27 0 01-3.88-5.49H86.23z" class="cls-1"/><path d="M116.67 45.49C97.76 53.16 57.1 18.27 14 62.73h16c27.35-31.55 57.4-12.26 78.9-13.16a19.38 19.38 0 0 0 15-8.3 22.9 22.9 0 0 1-7.23 4.22zm-76.4 17.24h14.49C56.45 59.41 63.7 49.57 93 51c8.41.39 9.32 0 9.32 0s-4.14-.38-7.63-1c-36.29-6.56-51.05 8.52-54.42 12.73zm23.56 0h13.6c1.94-7.78 20.33-9.84 20.33-9.84s-24.22-1.14-33.93 9.84z" class="cls-2"/></g></g></svg>