<svg xmlns="http://www.w3.org/2000/svg" width="202.833" height="138.816" viewBox="0 0 202.833 138.816"><defs><linearGradient id="a" x2="1" y1=".5" y2=".5" gradientUnits="objectBoundingBox"><stop offset="0" stop-color="#902472"/><stop offset=".727" stop-color="#54326b"/><stop offset="1" stop-color="#3c3e69"/></linearGradient></defs><g data-name="Group 10783"><g data-name="Group 1549" opacity=".76"><g fill="#fff" data-name="Group 1542"><path d="M61.486 47.664c.356.014 1.141-.968.662-2.668 0 0-.929 1.26-1.41 1.348s-.179-.218.209-.492a1.713 1.713 0 0 0 .1-2.544s.128 1.854-.951 1.812.457-1-.075-1.9a2.935 2.935 0 0 0-1.426-1.207s.626 1.109.182 1.4-.445-.506-.391-.936-.421-.622-.9-.575a1.922 1.922 0 0 1-1.241-.135 3.035 3.035 0 0 1-.6 1.217 1.108 1.108 0 0 0-.085 1.479c.291.216 1.246.617.97.843s-1.214-.194-1.393-.769c0 0-.148 1.652.343 1.819s1.659.274 1.412.526-1.026-.044-1.448-.311c0 0 .008 1.291.811 1.445s1.3-.209 1.363 0-.564.832-1.672.435c0 0 1.021 2.133 1.947 1.471s1.153-1.335 1.474-1.292c0 0 .266.205.347.14 0 0 .084-.216.452.1s1.648.731 2.188-1.109c0 0-1.383.6-1.7.166s.477-.279.832-.263zm-2.848 1.245c-.127.2-.314.317-.411.256s-.075-.276.055-.479.313-.317.412-.255.074.273-.056.476zm-.851-2.6c-.011.117-.215.189-.454.163s-.423-.142-.411-.258.215-.186.453-.162.422.146.412.26zm-1.005-2.314c-.123.113-.413 0-.648-.253s-.327-.551-.2-.664.412 0 .648.251.322.555.2.669zm1.178.531c.022-.239.138-.423.253-.413s.19.214.167.453-.137.424-.255.413-.19-.21-.165-.45zm2.263 3.674c-.038.072-.187.066-.334-.012s-.234-.2-.2-.269.187-.066.334.011.236.203.199.273zm-.516-1.584c-.022.24-.138.426-.252.416s-.192-.214-.168-.453.138-.426.253-.414.19.216.166.454z" data-name="Path 3949"/><g data-name="Group 1541"><path d="M59.186 47.573s2.642-.763 2.962-2.58c0 0 .108 1.526-2.9 2.77z" data-name="Path 3950"/><path d="M59.064 47.25s-2.454.741-3.629-.683c0 0 .563 1.568 3.708.871z" data-name="Path 3951"/><path d="M58.654 46.353a2.171 2.171 0 0 1 .326-1.331c.382-.4 1.592-1.422-.388-3.011 0 0 1.143.933.871 2-.148.577-1.2.993-1.01 2.284z" data-name="Path 3952"/><path d="M55.127 44.533a1.28 1.28 0 0 0 1.032 1.079 6.9 6.9 0 0 0 1.749-.166l.074.126s-.761.2-1.191.251a1.305 1.305 0 0 1-1.664-1.29z" data-name="Path 3953"/></g><path d="M55.636 42.98a1.108 1.108 0 0 0-.085 1.479c.24.177.92.477 1.01.7a2.513 2.513 0 0 0 1.11.08 11.386 11.386 0 0 0 .893 1.349c-.471.9-1.651.231-1.651.231a.094.094 0 0 1-.03.054c-.246.252-1.026-.044-1.448-.311 0 0 .008 1.291.811 1.445s1.3-.209 1.363 0-.564.832-1.672.435c0 0 1.021 2.133 1.947 1.471s1.152-1.335 1.473-1.292c0 0 .266.205.348.14 0 0 .084-.216.452.1s1.648.731 2.188-1.109c0 0-1.383.6-1.7.166-.016-.02-.029-.043-.041-.061a.966.966 0 0 1-.385.259.106.106 0 0 1 0 .084c-.038.072-.187.066-.334-.012a.471.471 0 0 1-.132-.1 1.062 1.062 0 0 1-.406-.334 3.739 3.739 0 0 1 1.26-1.635 2.814 2.814 0 0 1 .338-.274s.123-.134.285-.316a1.646 1.646 0 0 0-.187-2.228s.128 1.854-.951 1.812.457-1-.075-1.9a2.935 2.935 0 0 0-1.426-1.207c1.756 1.511.663 2.6.25 3.029a1.93 1.93 0 0 0-.32 1.319s-.1-.155-.424-.605a3.957 3.957 0 0 1-.843-1.95 5.415 5.415 0 0 0-1.015-2.041 3.034 3.034 0 0 1-.603 1.222zm3 5.927c-.127.2-.314.317-.411.256s-.075-.276.055-.479.313-.317.412-.255.077.275-.053.478zm.648-2.326c.024-.24.138-.426.253-.414s.191.214.167.452-.138.426-.252.416-.19-.214-.166-.454zm-2.5-2.583c-.123.113-.413 0-.648-.253s-.327-.551-.2-.664.412 0 .648.251.32.552.195.666z" data-name="Path 3954" opacity=".2" style="mix-blend-mode:multiply;isolation:isolate"/><path d="M59.657 51.328s.238.26.415.04c0 0-.172-3.246-1.166-4.655a7.807 7.807 0 0 1-1.561-2.849 4.45 4.45 0 0 0-1.106-2.1 8.167 8.167 0 0 1 1 2.289 5.517 5.517 0 0 0 1.109 2.229c.377.552 1.185 1.53 1.309 5.046z" data-name="Path 3955"/></g><g fill="#fff" data-name="Group 1544"><path d="M60.4 48.893c-.306.3-1.338-.353-1.338-.353.194 1.544 1.272 1.374 1.608 1.172s.376-.019.376-.019c.056.063.294-.068.294-.068.264.007.358.577 1.015 1.226s1.75-.928 1.75-.928c-.941.174-1.363-.4-1.284-.563s.431.192 1.091.173.836-1.054.836-1.054c-.373.16-1.036.3-1.2.064s.788-.17 1.2-.24.509-1.413.509-1.413c-.218.438-1.024.651-1.217.436s.625-.414.887-.55a.9.9 0 0 0 .123-1.2 2.467 2.467 0 0 1-.328-1.055 1.547 1.547 0 0 1-1.01-.05c-.38-.1-.787-.008-.8.343s-.115.987-.433.7.327-1.1.327-1.1a2.385 2.385 0 0 0-1.3.783c-.542.655.567 1.618-.305 1.513s-.528-1.575-.528-1.575a1.392 1.392 0 0 0-.25 2.052c.276.266.476.555.1.42s-.956-1.262-.956-1.262c-.6 1.3-.1 2.188.186 2.223s.957.023.647.325zm1.5.657c.086-.038.219.078.3.258s.068.354-.019.39-.22-.078-.3-.257-.071-.354.018-.391zm1.362-1.731c.194.01.348.094.342.187s-.169.164-.363.153-.349-.094-.343-.188.167-.162.363-.151zm.988-2.078c.222-.173.468-.227.553-.119s-.029.334-.25.506-.467.225-.552.118.028-.332.248-.505zm-1.45 1.122c-.1-.007-.163-.171-.152-.366s.1-.346.194-.34.161.169.149.364-.1.348-.193.342zm-1.9 2.118c.126-.042.247-.028.268.034s-.066.148-.194.19-.248.029-.268-.032.064-.149.191-.192zm.613-1.353c.1.007.162.17.151.364s-.1.349-.193.341-.16-.169-.149-.365.095-.346.188-.34z" data-name="Path 3956"/><g data-name="Group 1543"><path d="M61.614 48.803s-2.017-.952-2.04-2.45c0 0-.283 1.208 1.964 2.593z" data-name="Path 3957"/><path d="M61.753 48.557s1.871.909 3-.079c0 0-.653 1.185-3.083.221z" data-name="Path 3958"/><path d="M62.197 47.893a1.77 1.77 0 0 0-.091-1.109c-.253-.369-1.092-1.345.7-2.363 0 0-1.036.6-.955 1.49.042.482.837.952.514 1.962z" data-name="Path 3959"/><path d="M65.253 46.889a1.04 1.04 0 0 1-.966.731 5.644 5.644 0 0 1-1.379-.359l-.075.091s.583.256.92.355a1.059 1.059 0 0 0 1.5-.818z" data-name="Path 3960"/></g><path d="M64.723 44.526a4.407 4.407 0 0 0-1.076 1.5 3.224 3.224 0 0 1-.927 1.455c-.319.318-.418.43-.418.43a1.575 1.575 0 0 0-.085-1.1c-.276-.395-1.011-1.41.591-2.4a2.385 2.385 0 0 0-1.3.783c-.542.655.567 1.618-.305 1.513s-.528-1.575-.528-1.575a1.336 1.336 0 0 0-.438 1.76l.188.292a2.022 2.022 0 0 1 .234.262 3.021 3.021 0 0 1 .8 1.472.875.875 0 0 1-.368.215.366.366 0 0 1-.119.061c-.127.044-.248.029-.268-.032a.087.087 0 0 1 .013-.068.775.775 0 0 1-.275-.256l-.041.044c-.306.3-1.338-.353-1.338-.353.194 1.544 1.272 1.374 1.608 1.172s.376-.019.376-.019c.056.063.294-.068.294-.068.264.007.358.577 1.015 1.226s1.75-.928 1.75-.928c-.941.174-1.363-.4-1.284-.563s.431.192 1.091.173.836-1.054.836-1.054c-.373.16-1.036.3-1.2.064a.115.115 0 0 1-.017-.048s-1.03.385-1.291-.4a9.221 9.221 0 0 0 .889-.965 2.035 2.035 0 0 0 .9.078c.1-.168.685-.323.9-.434a.9.9 0 0 0 .123-1.2 2.467 2.467 0 0 1-.33-1.037zm-2.824 5.024c.086-.038.219.078.3.258s.068.354-.019.39-.22-.078-.3-.257-.07-.354.019-.391zm-.431-1.216c-.093-.006-.16-.169-.149-.365s.1-.347.191-.341.162.17.151.364-.098.349-.193.342zm2.781-2.592c.222-.173.468-.227.553-.119s-.029.334-.25.506-.467.225-.552.118.029-.333.249-.506z" data-name="Path 3961" opacity=".2" style="mix-blend-mode:multiply;isolation:isolate"/><path d="M60.751 51.751s-.223.177-.336-.022a9.471 9.471 0 0 1 1.533-3.577 6.345 6.345 0 0 0 1.618-2.083 3.623 3.623 0 0 1 1.157-1.54 6.584 6.584 0 0 0-1.094 1.706 4.518 4.518 0 0 1-1.178 1.642c-.374.391-1.146 1.074-1.7 3.874z" data-name="Path 3962"/></g><g data-name="Group 1548"><g data-name="Group 1547"><g data-name="Group 1545"><path fill="#fff" d="M63.67 56.815h-6.878l-.733-5.57h8.342z" data-name="Path 3963"/></g><g data-name="Group 1546"><path fill="#fff" d="M55.543 50.089h9.375v1.158h-9.375z" data-name="Rectangle 194"/></g></g></g></g><g data-name="Group 1567" transform="translate(0 -.001)"><ellipse cx="97.96" cy=".657" fill="#a12545" data-name="Ellipse 94" opacity=".44" rx="97.96" ry=".657" transform="translate(6.913 109.226)"/><g data-name="Group 1551" transform="translate(50.399)"><circle cx="13.801" cy="13.801" r="13.801" fill="#fff" data-name="Ellipse 95" opacity=".76" transform="translate(3.051 3.051)"/><circle cx="11.916" cy="11.916" r="11.916" fill="#e76027" data-name="Ellipse 96" opacity=".17" transform="rotate(-45 20.342 8.426)"/><g fill="#f9a643" data-name="Group 1550"><path d="M16.852 6.339a4.284 4.284 0 0 1 .092.614 7.775 7.775 0 0 1 .001 1.228.314.314 0 1 1-.185 0q-.026-.307-.025-.614c0-.2.008-.409.025-.614a4.335 4.335 0 0 1 .092-.614z" data-name="Path 3964"/><path d="M22.112 7.747a4.352 4.352 0 0 1-.227.578q-.131.279-.285.545t-.329.519a.314.314 0 1 1-.161-.093q.131-.279.285-.544t.329-.519a4.261 4.261 0 0 1 .388-.486z" data-name="Path 3965"/><path d="M25.956 11.595a4.287 4.287 0 0 1-.486.387q-.253.176-.519.329t-.545.285a4.236 4.236 0 0 1-.578.227 4.254 4.254 0 0 1 .486-.387q.253-.176.519-.329t.545-.285a4.3 4.3 0 0 1 .578-.227z" data-name="Path 3966"/><path d="M27.365 16.852a4.335 4.335 0 0 1-.614.092 7.343 7.343 0 0 1-1.228 0 4.266 4.266 0 0 1-.614-.093 4.233 4.233 0 0 1 .614-.093q.307-.026.614-.025c.2 0 .409.008.614.025a4.283 4.283 0 0 1 .614.094z" data-name="Path 3967"/><path d="M25.956 22.108a4.282 4.282 0 0 1-.578-.227q-.279-.131-.545-.285t-.519-.329a.314.314 0 1 1 .093-.16q.279.131.545.285t.519.329a4.3 4.3 0 0 1 .485.387z" data-name="Path 3968"/><path d="M22.112 25.957a4.257 4.257 0 0 1-.387-.486q-.176-.253-.329-.519t-.286-.544a.314.314 0 1 1 .161-.093q.176.253.329.519t.285.545a4.335 4.335 0 0 1 .227.578z" data-name="Path 3969"/><path d="M16.852 27.36a4.333 4.333 0 0 1-.092-.614 7.343 7.343 0 0 1 0-1.228.314.314 0 1 1 .185 0q.026.307.025.614c0 .2-.008.409-.026.614a4.281 4.281 0 0 1-.092.614z" data-name="Path 3970"/><path d="M11.595 25.957a4.286 4.286 0 0 1 .227-.578q.131-.279.285-.545t.329-.519a.314.314 0 1 1 .161.093q-.131.279-.285.544t-.329.519a4.3 4.3 0 0 1-.388.486z" data-name="Path 3971"/><path d="M7.747 22.108a4.322 4.322 0 0 1 .486-.387q.253-.176.519-.329t.545-.285a.314.314 0 1 1 .093.16q-.253.176-.519.329t-.545.285a4.274 4.274 0 0 1-.579.227z" data-name="Path 3972"/><path d="M6.339 16.852a4.285 4.285 0 0 1 .614-.092 7.326 7.326 0 0 1 1.228 0 4.235 4.235 0 0 1 .614.093 4.268 4.268 0 0 1-.614.093q-.307.026-.614.025c-.2 0-.409-.008-.614-.025a4.336 4.336 0 0 1-.614-.094z" data-name="Path 3973"/><path d="M7.747 11.595a4.29 4.29 0 0 1 .578.227q.279.131.545.285t.519.329a4.252 4.252 0 0 1 .485.387 4.244 4.244 0 0 1-.578-.227q-.279-.131-.545-.285t-.519-.329a4.307 4.307 0 0 1-.485-.387z" data-name="Path 3974"/><path d="M11.595 7.747a4.3 4.3 0 0 1 .387.486q.176.253.329.519t.285.544a.314.314 0 1 1-.161.093q-.176-.253-.329-.519t-.285-.545a4.3 4.3 0 0 1-.226-.578z" data-name="Path 3975"/></g><path fill="#f9a643" d="M16.852 18.386c-.049-.9-.074-1.8-.092-2.7-.011-.451-.013-.9-.02-1.352l-.006-1.352.006-1.352c.007-.451.009-.9.02-1.352.017-.9.043-1.8.092-2.7.049.9.075 1.8.092 2.7.011.451.013.9.02 1.352l.006 1.352-.007 1.352c-.006.451-.009.9-.02 1.352a78.87 78.87 0 0 1-.091 2.7z" data-name="Path 3976"/><path fill="#f9a643" d="M18.384 16.852c-.69.049-1.38.074-2.07.091-.345.011-.69.013-1.035.02l-1.035.006-1.035-.006c-.345-.007-.69-.009-1.035-.02-.69-.017-1.38-.043-2.07-.092.69-.049 1.38-.075 2.07-.092.345-.011.69-.013 1.035-.02l1.035-.006 1.035.007c.345.006.69.009 1.035.02.693.018 1.383.043 2.07.092z" data-name="Path 3977"/></g><g data-name="Group 1552"><path fill="#fff" d="M45.225 56.536H25.804v-3.855h19.421z" data-name="Rectangle 195" opacity=".76"/><path fill="#fff" d="M45.225 52.405H25.804v-4.012h19.421z" data-name="Rectangle 196" opacity=".76"/><path fill="#fff" d="M45.225 48.133H25.804v-4.272h19.421z" data-name="Rectangle 197" opacity=".76"/><path fill="#e5af6f" d="M30.08 56.121h-1.803v-3.132h1.803z" data-name="Rectangle 198"/><path fill="#e5af6f" d="M30.08 51.835h-1.803v-3.132h1.803z" data-name="Rectangle 199"/><path fill="#e5af6f" d="M30.08 47.55h-1.803v-3.132h1.803z" data-name="Rectangle 200"/></g><g data-name="Group 1557"><g data-name="Group 1553" opacity=".76"><path fill="#fff" d="M23.872 56.678h-4.256V40.011h4.256z" data-name="Rectangle 201"/><path fill="#ffd994" d="M20.857 54.556a.887.887 0 1 0 .887-.887.887.887 0 0 0-.887.887z" data-name="Path 3978"/></g><g data-name="Group 1554" opacity=".76" transform="translate(15.225 40.011)"><path fill="#fff" d="M4.256 16.667H0V0h4.256z" data-name="Rectangle 202"/><circle cx=".887" cy=".887" r=".887" fill="#ffd994" data-name="Ellipse 97" transform="translate(1.241 13.658)"/></g><g data-name="Group 1555" opacity=".76"><path fill="#fff" d="M15.09 56.678h-4.256V40.011h4.256z" data-name="Rectangle 203"/><path fill="#ffd994" d="M12.075 54.556a.887.887 0 1 0 .887-.887.887.887 0 0 0-.887.887z" data-name="Path 3979"/></g><g data-name="Group 1556" opacity=".76"><path fill="#fff" d="M10.699 56.678H6.443V40.011h4.256z" data-name="Rectangle 204"/><path fill="#ffd994" d="M7.684 54.556a.887.887 0 1 0 .887-.887.887.887 0 0 0-.887.887z" data-name="Path 3980"/></g></g><g data-name="Group 1558"><path fill="#f9a643" d="M84.374 57.733H0v-.941h84.374z" data-name="Rectangle 205"/><path fill="#fff" d="M1.916 57.987h84.125v50.542H1.916z" data-name="Rectangle 206" opacity=".76"/><path fill="none" stroke="#e99623" stroke-miterlimit="10" stroke-width="2" d="M4.01 60.774h79.162V74.66H4.01z" data-name="Rectangle 207" opacity=".54"/><path fill="none" stroke="#e99623" stroke-miterlimit="10" stroke-width="2" d="M3.719 75.707h79.162v13.886H3.719z" data-name="Rectangle 208" opacity=".54"/><path fill="none" stroke="#e99623" stroke-miterlimit="10" stroke-width="2" d="M3.719 90.64h79.162v13.886H3.719z" data-name="Rectangle 209" opacity=".54"/></g><g data-name="Group 1566"><g data-name="Group 1564"><g data-name="Group 1562"><path fill="#fff" d="M101.882 13.46h90.689v65.377h-90.689z" data-name="Rectangle 210"/><g fill="#f9a643" data-name="Group 1561"><g data-name="Group 1559" opacity=".72"><path d="M104.262 15.615h27.627v40.787h-27.627z" data-name="Rectangle 211"/><path d="M133.414 15.615h27.626v40.787h-27.626z" data-name="Rectangle 212"/><path d="M162.566 15.615h27.627v40.787h-27.627z" data-name="Rectangle 213"/></g><g data-name="Group 1560" opacity=".72"><path d="M104.262 57.802h27.627v18.88h-27.627z" data-name="Rectangle 214"/><path d="M133.414 57.802h27.626v18.88h-27.626z" data-name="Rectangle 215"/><path d="M162.566 57.802h27.627v18.88h-27.627z" data-name="Rectangle 216"/></g></g></g><g fill="#fff" data-name="Group 1563"><path d="M131.884 13.46h1.531v65.377h-1.531z" data-name="Rectangle 217"/><path d="M104.353 56.167h85.824v1.531h-85.824z" data-name="Rectangle 218"/><path d="M161.15 13.46h1.531v65.377h-1.531z" data-name="Rectangle 219"/></g></g><g data-name="Group 1565" opacity=".53" transform="translate(96.434 7.618)"><path fill="#fff" d="M3.917 73.703h93.139v.772H3.917z" data-name="Rectangle 220"/><rect width="100.934" height="3.145" fill="#fff" data-name="Rectangle 221" rx="1.573"/><path fill="#fff" d="M4.44 3.276h92.054v3.439H4.44z" data-name="Rectangle 222"/><path fill="#fff" d="M4.44 7.716h92.054v3.439H4.44z" data-name="Rectangle 223"/><path fill="#fff" d="M4.44 12.155h92.054v3.439H4.44z" data-name="Rectangle 224"/><path fill="#fff" d="M4.44 16.595h92.054v3.439H4.44z" data-name="Rectangle 225"/><path fill="#fff" d="M4.44 21.034h92.054v3.439H4.44z" data-name="Rectangle 226"/><path fill="#fff" d="M4.44 25.474h92.054v3.439H4.44z" data-name="Rectangle 227"/><path fill="#fff" d="M4.44 29.913h92.054v3.439H4.44z" data-name="Rectangle 228"/><path fill="#fff" d="M4.44 34.353h92.054v3.439H4.44z" data-name="Rectangle 229"/><path fill="#fff" d="M4.44 38.792h92.054v3.439H4.44z" data-name="Rectangle 230"/><path fill="#fff" d="M4.44 43.232h92.054v3.439H4.44z" data-name="Rectangle 231"/><path fill="#fff" d="M4.44 47.671h92.054v3.439H4.44z" data-name="Rectangle 232"/><path fill="#fff" d="M4.44 52.111h92.054v3.439H4.44z" data-name="Rectangle 233"/><path fill="#fff" d="M4.44 56.55h92.054v3.439H4.44z" data-name="Rectangle 234"/><path fill="#fff" d="M4.44 60.99h92.054v3.439H4.44z" data-name="Rectangle 235"/><path fill="#fff" d="M4.44 65.429h92.054v3.439H4.44z" data-name="Rectangle 236"/><path fill="#fff" d="M4.44 69.869h92.054v3.439H4.44z" data-name="Rectangle 237"/><path fill="none" stroke="#fff" stroke-miterlimit="10" d="M1.966 3.145s-2.358 50.367-.171 51.836c1.021 1.889 1.458-4.827 1.458-4.827L2.67 3.078" data-name="Path 3981"/><path fill="none" stroke="#fff" stroke-miterlimit="10" d="M98.378 2.515s2.565 50.367.186 51.835c-1.11 1.889-1.586-4.827-1.586-4.827l.634-47.076" data-name="Path 3982"/></g></g></g><g data-name="Group 1633"><path fill="#a12545" d="M141.778 124.475c-4.795 0-9.4.045-13.706.126-11.509-1.153-30.673-1.908-52.371-1.908-35.2 0-63.727 1.986-63.727 4.437s28.532 4.437 63.727 4.437c24.464 0 45.708-.96 56.389-2.368 3.112.041 6.355.062 9.688.062 23.54 0 42.622-1.071 42.622-2.393s-19.082-2.393-42.622-2.393z" data-name="Path 3983" opacity=".44"/><g data-name="Group 1600"><g data-name="Group 1572"><g data-name="Group 1568" transform="translate(39.352 60.193)"><rect width="35.278" height="8.522" fill="#faac47" data-name="Rectangle 238" rx="4.261" transform="translate(0 34.783)"/><path fill="#262d65" d="M2.255 35.732c-.892.6-2.6 2.862.966 2.5 3.27-.119 29.8 0 29.8 0 .353 0 .923-.064.991-.437.086-.479-.693-1.267-1.016-1.55s-.476-.319-1.257-.9a21.283 21.283 0 0 1-.427-.328l-27.9-.159z" data-name="Path 3984" opacity=".44"/><path fill="#faac47" d="M17.937 0A17.144 17.144 0 0 1 35.08 17.144V30.92a3.862 3.862 0 0 1-3.862 3.862H4.655A3.862 3.862 0 0 1 .793 30.92V17.144A17.144 17.144 0 0 1 17.937 0z" data-name="Rectangle 239"/></g><g data-name="Group 1571" transform="translate(35.766 100.451)"><path fill="#fff" stroke="#000" stroke-miterlimit="10" stroke-width="2" d="M21.772 16.789h-1.64V.986h1.64z" data-name="Rectangle 240"/><path fill="#2b337c" d="M18.926 17.434a4.38 4.38 0 0 0 .359-2.645l3.338.023a4.463 4.463 0 0 0 .467 2.646 4.524 4.524 0 0 0 2.245 1.92 121.414 121.414 0 0 0 14.409 4.476v3.154h-1.132v-2.4l-17.354-3.7-17.5 3.7v2.4H2.652v-3.154c5.33-1.628 9.667-3.021 12.856-4.012a5.394 5.394 0 0 0 3.418-2.408z" data-name="Path 3985"/><g data-name="Group 1569" transform="translate(38.917 25.508)"><circle cx="1.766" cy="1.766" r="1.766" fill="#791214" data-name="Ellipse 98"/><path fill="#4c1a1d" d="M1.009 1.766a.757.757 0 1 1 .757.757.757.757 0 0 1-.757-.757z" data-name="Path 3986"/></g><g data-name="Group 1570" transform="translate(0 25.09)"><circle cx="1.766" cy="1.766" r="1.766" fill="#791214" data-name="Ellipse 99"/><circle cx=".757" cy=".757" r=".757" fill="#4c1a1d" data-name="Ellipse 100" transform="translate(1.009 1.009)"/></g><path fill="#36479c" d="M20.442 27.387h1.388l.694-9.463a2.05 2.05 0 0 0-2.776 0z" data-name="Path 3987"/><path fill="#791214" d="M21.83 29.28h-1.388v-3.911h1.388z" data-name="Rectangle 241"/><rect width="7.649" height="2.921" fill="#fff" stroke="#000" stroke-miterlimit="10" stroke-width="2" data-name="Rectangle 242" rx="1.46" transform="translate(17.127)"/></g></g><g data-name="Group 1599"><g data-name="Group 1575"><path fill="#f49092" d="M61.139 43.878c3.236.572 4.844 3.833 5.248 4.653a11.1 11.1 0 0 1 .954 5.83c-.1 2.19-.217 4.556-1.915 5.821a6.525 6.525 0 0 1-3.6 1.109l-1.135-.066-.132 1.707s-1.219 2.291-2.387 1.7a4.02 4.02 0 0 1-2.029-2.743l.229-2.974a11.581 11.581 0 0 1-1.623-3.535c-1.038-3.917-.243-9.549 3.195-11.16a5.313 5.313 0 0 1 3.195-.342z" data-name="Path 3988"/><g data-name="Group 1573" transform="translate(54.852 45.038)"><path fill="#fff" d="M5.799 16.188a6.42 6.42 0 0 0 4.323-.741 4.362 4.362 0 0 0 .831-.62c1.231-1.186 1.354-2.794 1.537-5.164a13.07 13.07 0 0 0-.034-2.977 11.241 11.241 0 0 0-.581-2.378 10.528 10.528 0 0 0-.514-1.164 16.25 16.25 0 0 1 .816 4.353c.111 2.305.231 4.818-1.421 6.666a6.956 6.956 0 0 1-4.957 2.025z" data-name="Path 3989" opacity=".33"/><path fill="#fff7d0" d="M6.486 12.438c-.111.329.852 1.244 1.831 1.133.748-.085 1.416-.76 1.315-1.029-.044-.118-.232-.148-.75-.18-1.548-.092-2.321-.144-2.396.076z" data-name="Path 3990"/><path fill="#d75341" d="M8.766 7.723l-.1 1.887s.733-.021.742.5-.25.647-.25.647.8-.052.735-.765a.968.968 0 0 0-.782-.837z" data-name="Path 3991"/><path fill="#d75341" d="M1.255 9.996a.873.873 0 0 0-.2.687.655.655 0 0 0 .435.472s-.615.262-.812-.324.577-.835.577-.835z" data-name="Path 3992"/><path fill="#2b337c" d="M4.37 5.86c.207.224.734.181 1.146-.351s.334-.925 0-.956S4.163 5.637 4.37 5.86z" data-name="Path 3993"/><path fill="#2b337c" d="M10.054 3.983c-.2.229-.1.749.469 1.1s.955.236.95-.1-1.218-1.229-1.419-1z" data-name="Path 3994"/><ellipse cx=".434" cy=".768" fill="#2b337c" data-name="Ellipse 101" rx=".434" ry=".768" transform="rotate(-7.237 59.855 -75.334)"/><ellipse cx=".768" cy=".434" fill="#2b337c" data-name="Ellipse 102" rx=".768" ry=".434" transform="rotate(-86.33 7.073 1.431)"/><path fill="#022f43" d="M1.517 13.707l-.235 3.044 3.127 1.75 1.532-2.257-.006-.176a2.524 2.524 0 0 1-1.4.741 2.6 2.6 0 0 1-1.27-.136 2.343 2.343 0 0 1-1.421-1.375 3.783 3.783 0 0 1-.327-1.591z" data-name="Path 3995" opacity=".18"/><path fill="#022f43" d="M12.031 4.625a2.224 2.224 0 0 1-.427-.049c-.8-.172-2.611-1.335-3.583-1.321-1.932.028-2.733.842-4.212.433a3.625 3.625 0 0 1-.635-.242 11.373 11.373 0 0 0-.423 1.239 11.953 11.953 0 0 0-.363 1.935c-.208 1.841-.078 3.078-.151 3.083a16.966 16.966 0 0 1-.393-2.479c-.286-2.294-.307-2.969-.776-3.846A5.221 5.221 0 0 0 .005 2.011L7.86 0a8.844 8.844 0 0 1 4.171 4.625z" data-name="Path 3996" opacity=".18"/></g><g data-name="Group 1574"><path fill="#242662" d="M55.012 56.095c-.827-2.03.638-2.432 1.473-2.1a1.354 1.354 0 0 1 .633.86c-.191-1.479-.407-5.372.776-6.785l-3.043-1.022s-3.452 4.73 1.524 11.87c0 0-.328-.8-.584-1.69a3.094 3.094 0 0 1-.779-1.133z" data-name="Path 3997"/><path fill="#2b337c" d="M53.779 46.82c-.124-.08-.347.023-.5.114a30.1 30.1 0 0 1 6.56-4.617c1.513-.773 2.829-1.256 4.036-.74a3.082 3.082 0 0 1 1.239 1.009 5.515 5.515 0 0 0-.6-.787 5.606 5.606 0 0 0-.377-.378 2.992 2.992 0 0 1 .947.692 2.78 2.78 0 0 1 .453.673 6.53 6.53 0 0 1 1.2 2.529c.143.634.5 2.215-.316 2.835a.701.701 0 0 1-.1.066 7.314 7.314 0 0 0-2.877-.921c-1.328-.126-2 .181-4.7.767-4.226.92-4.91.656-5.1.351-.278-.479.428-1.4.135-1.593z" data-name="Path 3998"/><path fill="#4f5998" d="M63.621 46.761a3.4 3.4 0 0 0-.25-1.98 3.49 3.49 0 0 0-1.882-1.754 3.187 3.187 0 0 1 .748.439 4.288 4.288 0 0 1 1.384 3.295z" data-name="Path 3999"/><path fill="#4f5998" d="M62.519 46.647s-1.656-3.019-4.876-2.108c.386-.067 2.578-.52 4.876 2.108z" data-name="Path 4000"/><path fill="#4f5998" d="M61.227 46.724s-2.344-2.779-6.4-.416a6.225 6.225 0 0 1 6.4.416z" data-name="Path 4001"/><path fill="#4f5998" d="M64.656 46.935a4.183 4.183 0 0 0-.566-3.765 3.613 3.613 0 0 0-1.726-1.132 2.945 2.945 0 0 1 1.533.646 3.846 3.846 0 0 1 .759 4.251z" data-name="Path 4002"/></g></g><g data-name="Group 1578"><path fill="#cecfd8" d="M63.63 62.389a20.76 20.76 0 0 1-5.377.788 50.908 50.908 0 0 1-5.245-.32l1.964 26.422a8.409 8.409 0 0 0 3.466.646 10.071 10.071 0 0 0 4.311-1.134z" data-name="Path 4003"/><g data-name="Group 1577"><g fill="#ec308d" data-name="Group 1576"><path d="M58.934 67.947a2.082 2.082 0 0 1-1.565.107c-.832 3.169-1.962 10.945-1.962 10.945a13.675 13.675 0 0 0 2.381 4.053 18.5 18.5 0 0 0 2.688-4.4c.116-1.753-1.542-10.705-1.542-10.705z" data-name="Path 4004"/><path d="M59.291 67.955l.712-1.623-1.8-2.6-2.188 2.418a4.347 4.347 0 0 0 .713 1.457 4.233 4.233 0 0 0 .431.489 3.809 3.809 0 0 0 2.132-.141z" data-name="Path 4005"/></g><path fill="#022f43" d="M56.543 66.304l1.465-2.272 1.889 2.661-.636 1.246a1.651 1.651 0 0 0 .159-1.146 1.836 1.836 0 0 0-1.687-1.274z" data-name="Path 4006" opacity=".18"/><path fill="#022f43" d="M57.328 68.108a1.432 1.432 0 0 0 .441.162 1.627 1.627 0 0 0 1.172-.269q.448 2.513.839 5.18.428 2.943.732 5.732l-2.675 4.076 1.932-6.326-1.274-7.515z" data-name="Path 4007" opacity=".18"/></g><path fill="#fff" d="M58 64.053l1.863 2.555 3.5-4.1a3.811 3.811 0 0 1-2.308-1.5l-2.933 2.177-1.786-1.843a7.7 7.7 0 0 1-2.545 1.461l2.307 4.15z" data-name="Path 4008"/></g><g data-name="Group 1579"><path fill="#2b337c" d="M68.672 82.768c-.809 5.093.816 7.535 1.223 10.72-3.128-.131-9.17 1.589-12.3 1.458l-.172-10.245a75.828 75.828 0 0 0 4.719-19.16q.191-1.73.3-3.4c.443-.411 7.818 2.432 9.461 3.094a7.288 7.288 0 0 1 .352 2.736c-1.774 3.192-2.55 8.289-3.583 14.797z" data-name="Path 4009"/></g><g data-name="Group 1580"><path fill="#2b337c" d="M47.447 68.524c1.808 2.582 1.781 5.942 1.727 12.663a67.7 67.7 0 0 1-.935 10.648c3.415.23 5.377 3.08 8.792 3.31l.493-10.935a49.545 49.545 0 0 1-2.961-20.069l1.064-2.079a60.255 60.255 0 0 0-8.255 1.161c-.9.193-1.831.42-2.136 1.128-.508 1.175 1.155 2.664 2.211 4.173z" data-name="Path 4010"/></g><path fill="#022f43" d="M55.162 86.933l1.4 3.062s1.125 1.04 1.571.976.637-.531.743-.318a2.311 2.311 0 0 0 1.21.594 3.733 3.733 0 0 0 2.271-.488l.764-.064c.8-.611 1.3-.57 1.551-.5.759.211 1.124 1.308 1.825 3.495.214.667.371 1.235.48 1.652a45.82 45.82 0 0 1 .507-14.612 5.693 5.693 0 0 1-1.369 2.9 8.3 8.3 0 0 1-1.783 1.337c-1.177.756-1.766 1.134-2.452 1.115a13.671 13.671 0 0 1-1.847-.51 3.5 3.5 0 0 0-4.871 1.361z" data-name="Path 4011" opacity=".12"/><g fill="#3e4d99" data-name="Group 1581"><path d="M62.438 62.143s2.636 7.994 2.4 9.383a6.954 6.954 0 0 1-2.611 2.038l.064 1.783-4.734 9.065a80.915 80.915 0 0 0 2.063-6.324 81.674 81.674 0 0 0 2.818-15.945z" data-name="Path 4012"/><path d="M55.61 62.079a18.707 18.707 0 0 0-4.613 9.2 6.953 6.953 0 0 0 2.352 2.332l-.274 1.763 4.477 8.956a47.915 47.915 0 0 1-1.847-6.146 48.487 48.487 0 0 1-1.093-14.107z" data-name="Path 4013"/></g><path fill="#022f43" d="M71.901 65.238l-1.665 4.569s2.028-3.089 2.378-2.771a43.13 43.13 0 0 1 1.72 5.223l-1.385-5.366s-.437-1.625-.951-1.537a.751.751 0 0 1-.097-.118z" data-name="Path 4014" opacity=".07"/><g fill="#262d65" data-name="Group 1582"><path d="M68.997 73.468l-5.008.177-.024 1.311 2.62.94 2.044-1.314z" data-name="Path 4015"/><path d="M48.275 73.826l4.437-.284.208 1.292-2.174 1.168-1.988-1.109z" data-name="Path 4016"/></g><g data-name="Group 1584"><g data-name="Group 1583"><path fill="#212330" d="M33.997 115.669s-.058 1.37 2.4 1.555c-1.922 4.274-2.571 4.793-2.571 4.793l-1.078.529-2.807.14-1.373-3.072z" data-name="Path 4017"/><path fill="#aaa9a5" d="M33.997 115.669a1.546 1.546 0 0 0 .278.708 1.653 1.653 0 0 0 1.1.634l-1.96 4.291-1.555.561-1.922.823-1.373-3.072z" data-name="Path 4018" opacity=".16"/></g><path fill="#36479c" d="M69.789 93.409a20.925 20.925 0 0 0-10.737-5.042 20.642 20.642 0 0 0-8.85.637 107.332 107.332 0 0 0-5.351 6.838 108.156 108.156 0 0 0-11 19.175 1.775 1.775 0 0 0-.223 1.932 1.835 1.835 0 0 0 2.453.595 29.541 29.541 0 0 0 11.593-10.107 28.893 28.893 0 0 0 3.865-8.671 57.006 57.006 0 0 1 6.639 1.288 9.769 9.769 0 0 0 7.444-.739 9.471 9.471 0 0 0 4.167-5.906z" data-name="Path 4019"/><path fill="#262d65" d="M69.789 93.409c-1.485-1.316-5.125 3.6-10.686 2.777-3.864-.571-7.249-1.832-9.065-1.3-1.779 2.093-3.08 6.381-4.857 8.85-4.844 6.734-6.883 6.758-9.5 12.627-.458.586-2.378.007-2.056.581a1.835 1.835 0 0 0 2.453.595 29.544 29.544 0 0 0 11.594-10.108 28.892 28.892 0 0 0 3.865-8.671 57.011 57.011 0 0 1 6.639 1.288 9.77 9.77 0 0 0 7.444-.739 9.471 9.471 0 0 0 4.169-5.9z" data-name="Path 4020"/></g><g data-name="Group 1586"><g data-name="Group 1585"><path fill="#742051" d="M58.796 135.703l2.032 3.055 1.049.058 2.215-1.457.384-2.941z" data-name="Path 4021" opacity=".35"/><path fill="#212330" d="M60.738 129.228s.79 1.133 2.873-.22c1.069 4.6.866 5.41.866 5.41l-.541 1.082-2.164 1.826-2.976-1.623z" data-name="Path 4022"/><path fill="#aaa9a5" d="M60.742 129.228a1.557 1.557 0 0 0 .655.4 1.667 1.667 0 0 0 1.271-.165l1.049 4.635-.9 1.4-1.038 1.833-2.976-1.623z" data-name="Path 4023" opacity=".16"/></g><path fill="#1a224c" d="M53.026 95.595c1.779-.6 3.669.937 4.534 1.585 3.863 2.9 3.939 7.768 3.939 8.473l2.329 22.247a2.272 2.272 0 0 1-1.66 2.948 2.241 2.241 0 0 1-2.3-1.858l-9.439-26.756c-.444-3.328.773-6.019 2.597-6.639z" data-name="Path 4024"/></g><g data-name="Group 1589"><g data-name="Group 1587"><path fill="#36479c" d="M47.989 82.674c3.506 3.067 5.334 3.531 5.6 5.534a2.287 2.287 0 0 1-.372 1.862c-1.748 1.808-6.351-1.283-6.843-1.578-1.01-.606-5.93-3.56-5.246-6.295a3.339 3.339 0 0 1 3.017-2.279c1.191-.019 1.629.817 3.844 2.756z" data-name="Path 4025"/></g><g data-name="Group 1588"><path fill="#f49092" d="M57.75 91.732a18.048 18.048 0 0 0-3.152-2.313c-3-1.733-1.907 1.285-.373 1.974a5.409 5.409 0 0 0 .395.961 5.814 5.814 0 0 0 2.518 2.372c.271.157.428.226.485.172 0 0 .111-.107-.946-1.764a7.706 7.706 0 0 0 1.614 1.443 3.686 3.686 0 0 0 1.525.394c.391.026.586.04.647-.045.139-.196-.236-.89-2.713-3.194z" data-name="Path 4026"/></g><path fill="#36479c" d="M55.444 88.952l-2.283-1.578-1.78 2.9 2.443 1.474a3.874 3.874 0 0 0 1.62-2.796z" data-name="Path 4027"/></g><g data-name="Group 1597"><g data-name="Group 1592"><g data-name="Group 1590"><path fill="#f49092" d="M62.238 88.094a4.882 4.882 0 0 1-1.167-.535 25.021 25.021 0 0 0-3.144-2.281 12.169 12.169 0 0 0-2.764 1.656 3.952 3.952 0 0 0 .742 1.206c.187.184.906 1.254 1.09 1.471a4.655 4.655 0 0 0 1.151.735c.229.086.58-.086.532-.326s-.1-.446-.1-.446a4.014 4.014 0 0 0 1.9.629 17 17 0 0 0 2.321-.784z" data-name="Path 4028"/></g><g data-name="Group 1591"><path fill="#022f43" d="M58.46 89.63c-2.345-2.306-3.108-2.806-3.264-2.675-.265.223 1.348 2.172 1.879 2.77a1.756 1.756 0 0 0 1.1.642c.1 0 .363 0 .462-.17a.305.305 0 0 0 .037-.177l-.049-.223-.049-.223a4.014 4.014 0 0 0 1.9.629 17.022 17.022 0 0 0 2.321-.784 3.013 3.013 0 0 1-2.24.114 3.026 3.026 0 0 0-1.385-.366.817.817 0 0 0-.637.271.518.518 0 0 0-.075.192z" data-name="Path 4029" opacity=".22"/></g></g><g data-name="Group 1596"><g data-name="Group 1593"><path fill="#36479c" d="M71.998 65.356a.364.364 0 0 1 .156.032c.557.228 1.014 1.885 3.487 12.4.861 3.663 1.361 5.805.164 6.894a2.759 2.759 0 0 1-2.028.583c-2.384-.239-4.457-3.71-5.319-8.57.781-4.833 2.079-11.384 3.54-11.339z" data-name="Path 4030"/></g><g data-name="Group 1594"><path fill="#36479c" d="M67.276 83.788c-3.242 1.746-3.946 2.389-4.137 3.325a2.345 2.345 0 0 0 .312 1.806c1.432 1.874 6.537-.145 6.973-.322 2.771-1.123 6.48-3.63 6.013-5.325-.331-1.2-2.673-1.664-4.137-1.625-1.076.03-2.402.735-5.024 2.141z" data-name="Path 4031"/></g><path fill="#36479c" d="M63.61 86.689l-2.687.626.839 3.153 2.717-.812a3.428 3.428 0 0 0-.869-2.967z" data-name="Path 4032"/><path fill="#faac47" d="M62.849 62.122c.406.1 1 .247 1.719.456 1.213.354 2.059.67 3.662 1.274 1.685.634 2.962 1.117 3.671 1.386l.032.119a.449.449 0 0 1 .171.012.475.475 0 0 1 .165.1 1.018 1.018 0 0 1 .3.469c1.435 4.759 2.118 8.041 2.118 8.041.438 2.105.849 3.083 1.221 4.708a23.148 23.148 0 0 1 .435 2.425 6.557 6.557 0 0 1 .011 2.919 4.16 4.16 0 0 1-1.783 2.166l1.231-2.378-4.543-17.323q-.958-.653-2.027-1.3a40.116 40.116 0 0 0-6.383-3.074z" data-name="Path 4033" opacity=".13"/><g fill="#022f43" data-name="Group 1595"><path d="M73.718 81.865a9.634 9.634 0 0 1-3.351-4.47 11.716 11.716 0 0 1-.553-7.595 47.174 47.174 0 0 0-1.322 6.921 17.914 17.914 0 0 0 1.781 5.5c-.206.1-.687.4-1.266.69-.663.257-3.832 2.157-4.534 2.548-1.57.873-1.025 1.43-1.2 1.308a5.087 5.087 0 0 1 .819 1.526v.012a.718.718 0 0 1 .123-.649c.266-.24.726.1 1.263.106 1.334.021 2.085-2.006 3.312-3.4a7.682 7.682 0 0 1 3.39-2.156z" data-name="Path 4034" opacity=".21"/><path d="M64.095 88.309a4.2 4.2 0 0 0 .251.848 8.709 8.709 0 0 0-.251-.848z" data-name="Path 4035" opacity=".07"/></g></g></g><g data-name="Group 1598"><path fill="#36479c" d="M45.582 64.313c-.608.029-1.043 1.342-3.691 12.5-.817 3.442-1.4 6.011-.179 6.935a2.884 2.884 0 0 0 2.469.1c4.451-1.471 5.136-10.359 5.2-11.361-1.753-6.859-2.991-8.212-3.799-8.174z" data-name="Path 4036"/></g><path fill="#022f43" d="M57.749 91.733a18.127 18.127 0 0 0-2.469-1.9 3.022 3.022 0 0 0 .163-.885l-2.012-1.39c-.56-1.5-2.346-2.18-5.442-4.888-.45-.394-.827-.742-1.151-1.047 2.095-3.164 2.536-8.249 2.587-9-.827-4.029-2.365-7.536-3.2-8.022-.526-.306 1.007 2.338.648 12.915-.086 2.52-3.1 4.253-2.878 5.54-.2 2.627 2.947 3.539 3.912 4.119.4.239 3.134 2.321 5.225 2.14l1.439.5a5.029 5.029 0 0 0 2.1 2.051 17.945 17.945 0 0 0 3.1 2.388c.628.328-.285.691.038.713.391.026.586.039.647-.046.146-.191-.229-.885-2.707-3.188z" data-name="Path 4037" opacity=".21"/></g></g><g data-name="Group 1620"><g data-name="Group 1603" transform="translate(116.014 100.302)"><path fill="#2b337c" d="M21.772 16.789h-1.64V.986h1.64z" data-name="Rectangle 243"/><path fill="#2b337c" d="M18.926 17.434a4.379 4.379 0 0 0 .359-2.645l3.338.023a4.462 4.462 0 0 0 .467 2.646 4.524 4.524 0 0 0 2.245 1.92 121.412 121.412 0 0 0 14.409 4.476v3.154h-1.135v-2.4l-17.354-3.7-17.5 3.7v2.4H2.65v-3.154c5.33-1.628 9.667-3.021 12.856-4.012a5.4 5.4 0 0 0 3.42-2.408z" data-name="Path 4038"/><g data-name="Group 1601" transform="translate(38.917 25.508)"><circle cx="1.766" cy="1.766" r="1.766" fill="#791214" data-name="Ellipse 103"/><path fill="#4c1a1d" d="M1.01 1.766a.757.757 0 1 1 .757.757.757.757 0 0 1-.757-.757z" data-name="Path 4039"/></g><g data-name="Group 1602" transform="translate(0 25.09)"><circle cx="1.766" cy="1.766" r="1.766" fill="#791214" data-name="Ellipse 104"/><circle cx=".757" cy=".757" r=".757" fill="#4c1a1d" data-name="Ellipse 105" transform="translate(1.009 1.009)"/></g><path fill="#36479c" d="M20.441 27.387h1.388l.694-9.463a2.05 2.05 0 0 0-2.776 0l.694 9.463z" data-name="Path 4040"/><path fill="#791214" d="M21.83 29.28h-1.388v-3.911h1.388z" data-name="Rectangle 244"/><rect width="7.649" height="2.921" fill="#6678b9" data-name="Rectangle 245" rx="1.46" transform="translate(17.127)"/></g><g data-name="Group 1605"><path fill="#2b337c" d="M138.847 92.979l-14.79 3.17 1.2-14.839 15.053-2.19-1.463 13.859z" data-name="Path 4041"/><path fill="#ee4223" d="M121.24 94.723c.249.1.679-.163 1.367.068 1 .337 1.249 1.279 1.508 1.27.442-.015.956-2.8 1.286-14.781l-1.743-.492c-2.909 10.596-3.095 13.672-2.418 13.935z" data-name="Path 4042"/><g data-name="Group 1604"><path fill="#fff" d="M138.883 79.012c-9.036.949-15.25 1.668-15.234 1.853a5.45 5.45 0 0 0 .8.19s.448.1.865.166c1.24.21 15.163-1.209 15.031-2-.02-.114-.313-.218-1.462-.209z" data-name="Path 4043"/><path fill="none" stroke="#000" stroke-miterlimit="10" stroke-width="2" d="M138.883 79.012c-9.036.949-15.25 1.668-15.234 1.853a5.45 5.45 0 0 0 .8.19s.448.1.865.166c1.24.21 15.163-1.209 15.031-2-.02-.114-.313-.218-1.462-.209z" data-name="Path 4044"/></g><path fill="#2b337c" d="M123.649 80.865s-1.205.3-.75 2.313c-.714-.907-.409-3.462.617-3.593s12.349-1.248 12.349-1.248l3.267.7s-13.842 1.186-15.483 1.828z" data-name="Path 4045"/></g><g data-name="Group 1606" transform="translate(119.599 61.655)"><rect width="35.278" height="8.522" fill="#ec308d" data-name="Rectangle 246" rx="4.261" transform="translate(0 33.172)"/><path fill="#2b337c" d="M2.255 34.122c-.892.6-2.6 2.862.966 2.5 3.27-.119 29.8 0 29.8 0 .354 0 .924-.064.991-.437.087-.479-.693-1.267-1.016-1.55s-.476-.319-1.257-.9a21.283 21.283 0 0 1-.427-.328l-27.9-.159z" data-name="Path 4046" opacity=".35"/><path fill="#ec308d" d="M35.093 34.832a10.263 10.263 0 0 0-2.17-1.421c-.872-.42-1.36-.489-1.831-1.023a3.538 3.538 0 0 1-.755-2.07V2.478A2.351 2.351 0 0 1 32.52 0h2.563q0 17.416.01 34.832z" data-name="Path 4047"/></g><g data-name="Group 1619"><g data-name="Group 1607"><path fill="#cb404a" d="M120.649 78.979a14.815 14.815 0 0 0 3.017 1.946 15.505 15.505 0 0 0 7.176 1.473c1.9-.082 2.267-.487 2.361-.755.133-.378-.157-.811-.408-1.194a2.819 2.819 0 0 0-1.8-1.288c-.531-.077-.667.12-1.586.264a9.632 9.632 0 0 1-2 .049 24.988 24.988 0 0 1-3.508-.38 5 5 0 0 0-.415-.859 7.1 7.1 0 0 0-2.894-2.166s-.1.1.965 1.565a7.077 7.077 0 0 0-1.559-1.234 3.392 3.392 0 0 0-1.42-.277c-.36 0-.539 0-.591.078-.118.19.264.804 2.662 2.778z" data-name="Path 4048"/></g><path fill="#36479c" d="M139.732 48.136a7.1 7.1 0 0 0-7.257 5.628c-1.08 3.634.419 4.881-.11 7.984-.763 4.471-4.611 5.113-3.981 7.773.624 2.633 5.029 5.061 7.764 5.146 4.2.131 7.646.2 9.44-.67a12.823 12.823 0 0 0 2.436-1.574 11.881 11.881 0 0 0 1.777-1.925c1.147-1.662.876-4.053.148-7.4-1.256-5.78-1.884-8.671-3.628-10.811-1.139-1.403-3.269-4.02-6.589-4.151z" data-name="Path 4049"/><g data-name="Group 1608"><path fill="#ea5158" d="M124.069 80.361a24.853 24.853 0 0 0 6.864.339c1.9-.082 2.114.133 1.864-.25a2.821 2.821 0 0 0-1.8-1.288c-.531-.077-.667.12-1.585.264a9.631 9.631 0 0 1-2 .049 24.98 24.98 0 0 1-3.508-.38 5 5 0 0 0-.415-.859 7.1 7.1 0 0 0-2.893-2.166s-.1.1.965 1.565a7.081 7.081 0 0 0-1.559-1.234 3.393 3.393 0 0 0-1.42-.277c-.364-.001 4.137 3.573 5.487 4.237z" data-name="Path 4050"/></g><path fill="#33296d" d="M143.117 60.071a11.7 11.7 0 0 1 3.139 2.184c.442.456 2.562 2.641 2.457 4.709-.206 4.061-9.013 8.1-14.808 5.8-.54-.214-3.471-1.441-3.618-3.345-.074-.949.6-1.319 1.56-3.448a16.542 16.542 0 0 0 1.238-3.923c.417-2.511-.345-3.007-.068-5.391.081-.7.508-4.377 1.979-4.709 1.849-.416 2.735 5.042 8.121 8.123z" data-name="Path 4051"/><path fill="#fff" d="M130.118 79.923c.076-.2.2-.512.345-.9 2.662-7.074 2.5-9.671 4.747-11.125.8-.516 2.245-1.115 2.941-.533a1.854 1.854 0 0 1 .382 1.6 7.728 7.728 0 0 1-.14 1.643 91.7 91.7 0 0 1-4 10.2 2.387 2.387 0 0 1-1.514 1.048 2.688 2.688 0 0 1-2.761-1.933z" data-name="Path 4052"/><path fill="#dcdfec" d="M130.933 80.423c.076-.2 1.116-.258 1.262-.646 2.661-7.074 1.39-10.581 3.632-12.035.8-.516 1.632-.959 2.327-.377a1.855 1.855 0 0 1 .382 1.6 7.736 7.736 0 0 1-.14 1.643 91.716 91.716 0 0 1-4 10.2 2.5 2.5 0 0 1-1.557.917c-1.071.163-1.321-.317-1.906-1.302z" data-name="Path 4053"/><path fill="#faac47" d="M134.188 77.041c.228.43 1.411 2.747 1.509 3.141a21.306 21.306 0 0 1 1.08 2.919 19.246 19.246 0 0 1 .456 4.747q.473-.1.958-.191a35.86 35.86 0 0 1 10.383-.371 31.139 31.139 0 0 1-.335-3.464c.245-6.208.4-10.8.51-12.657a4.066 4.066 0 0 0-.5-2.559 1.878 1.878 0 0 0-.213-.248 2.153 2.153 0 0 0-.6-.407c-.359-.168-1.633-.658-3.377-1.253a3.394 3.394 0 0 1-2.11 1.886 2.458 2.458 0 0 1-2.213-.4 2.5 2.5 0 0 1-.773-1.308 7.115 7.115 0 0 0-1.128.034 2.328 2.328 0 0 0-1.393.414 1.917 1.917 0 0 0-.489.908c-.332.946-2.324 7.422-2.055 8.125a7.048 7.048 0 0 0 .29.684z" data-name="Path 4054"/><g data-name="Group 1609" transform="translate(133.339 51.814)"><path fill="#ea5158" fill-rule="evenodd" d="M11.058 9.021a17.666 17.666 0 0 1-.822 3.016 1.689 1.689 0 0 0-.568 1.046 1.806 1.806 0 0 0 .632 1.511 2.893 2.893 0 0 1-.475 1.19 3.151 3.151 0 0 1-2.341 1.258 2.8 2.8 0 0 1-.678-.064 3.339 3.339 0 0 1-1.973-1.4 2.073 2.073 0 0 0 .344-1.7 1.66 1.66 0 0 0-.294-.521 1.839 1.839 0 0 0-.866-.526 5.9 5.9 0 0 1-2.361-1.384A7.18 7.18 0 0 1 .114 7.283L.037 2.761c.765-4.416 4.3-2.2 4.3-2.2 4.662 9.142 6.5 6.688 6.5 6.688-.03-2.368 2.283-2.461 2.092.01s-1.871 1.762-1.871 1.762z" data-name="Path 4055"/><path fill="#ae1f24" fill-rule="evenodd" d="M-.004 2.738s3-2.542 3.944-1.512c.738.891 4.366 9 6.865 6a.914.914 0 0 1-.485.374c-1.344.4-3.595-3-4.383-4.184A23.841 23.841 0 0 1 4.301.538C4.032.359.372-1.267-.004 2.738z" data-name="Path 4056"/><path fill="#ee9da1" d="M2.429 7.011l.421 1.45s-.626.113-.542.518.327.459.327.459-.69.1-.759-.465a.794.794 0 0 1 .515-.789z" data-name="Path 4057"/><path fill="#ee9da1" d="M11.082 6.488a.737.737 0 0 1 .293.562.6.6 0 0 1-.337.475s.619.131.714-.406-.67-.631-.67-.631z" data-name="Path 4058"/><path fill="#fff7d0" d="M5.198 10.663c-.521.14-1.105.027-1.3.227s.318.316 1.214.2 1.444-.4 1.291-.528-.46-.098-1.205.101z" data-name="Path 4059"/><path fill="#2b337c" d="M5.874 3.536c-.012.276-.41.588-1.018.512s-.789-.378-.569-.615 1.599-.173 1.587.103z" data-name="Path 4060"/><path fill="#2b337c" d="M1.696 3.825c.074.267-.225.624-.854.643s-.9-.244-.758-.5 1.538-.409 1.612-.143z" data-name="Path 4061"/><ellipse cx=".502" cy=".899" fill="#2b337c" data-name="Ellipse 106" rx=".502" ry=".899" transform="rotate(-4.898 65.673 -53.198)"/><ellipse cx=".502" cy=".899" fill="#2b337c" data-name="Ellipse 107" rx=".502" ry=".899" transform="rotate(-4.898 68.302 -1.857)"/></g><path fill="#2b337c" d="M138.469 69.199c-.208.434-1.23 2.772-1.5 3.641 0 0 .3-3.606.491-4.9a1.139 1.139 0 0 1 .385-.775.819.819 0 0 1 .317-.157.787.787 0 0 1 .521.074c.243.617.341.808.584 1.425-.086-.142-.165-.053-.38-.018-.096.019-.123.093-.418.71z" data-name="Path 4062" opacity=".17"/><path fill="#2b337c" d="M143.457 66.777a1.1 1.1 0 0 0 .356.356c.166.1.466-.462.561-.448-.934 1.936-2.144 4.548-3.078 6.484.134-2.7.027-3.739-.355-3.833-.235-.058-.372-.408-.4-.455-.05-.074.54-.042 1.073-.476.456-.376 1.098-.92 1.843-1.628z" data-name="Path 4063" opacity=".17"/><path fill="#fff" d="M143.614 66.163a1.094 1.094 0 0 0 .773.508l-2.8 5.808c.134-2.7-.1-3.662-.488-3.757-.235-.058-.536.208-.568.16a7.119 7.119 0 0 1 1.238-1.092c.458-.374 1.1-.918 1.845-1.627z" data-name="Path 4064"/><g data-name="Group 1610"><path fill="#33296d" d="M138.959 49.891a1.777 1.777 0 0 0-.149 1.126 2.558 2.558 0 0 0 .474 1.063 5.88 5.88 0 0 0 1.758 1.476 12.987 12.987 0 0 1 1.808 1.31 3.6 3.6 0 0 1 .7.843 1.837 1.837 0 0 1 .26 1.062 1.767 1.767 0 0 0-.118-1.133 3.356 3.356 0 0 0-.666-.95 9.618 9.618 0 0 0-1.818-1.391c-.322-.2-.642-.392-.937-.611a4.635 4.635 0 0 1-.8-.747 2.627 2.627 0 0 1-.52-.952 1.838 1.838 0 0 1 .008-1.096z" data-name="Path 4065"/></g><g data-name="Group 1611"><path fill="#33296d" d="M141.497 51.008c.9.954 1.9 1.768 2.745 2.71a7.135 7.135 0 0 1 1.094 1.512 3.15 3.15 0 0 1 .362 1.819 2.6 2.6 0 0 0-.023-1.967 5.493 5.493 0 0 0-1.082-1.682 13.14 13.14 0 0 0-3.096-2.392z" data-name="Path 4066"/></g><g data-name="Group 1617"><path fill="#b9772a" d="M130.995 97.142c.025.616.133 3.209-1.144 4.1-1.567 1.091-4.479-.9-5.784-3.4-1.258-2.411-1.469-6.146.068-7.521a2.278 2.278 0 0 1 1.463-.559c2.531-.115 5.241 3.625 5.397 7.38z" data-name="Path 4067"/><g data-name="Group 1616"><g data-name="Group 1612"><path fill="#2b337c" d="M132.813 121.56a6.1 6.1 0 0 1 .765 2.378c.053 1.133-.3 2.949-1.316 3.231s-2.21-1.135-2.708-2.146a5.8 5.8 0 0 1-.442-2.921c.008-.366.112-4.122 1.127-4.3.748-.126 1.635 1.761 2.574 3.758z" data-name="Path 4068"/><path fill="#cb404a" d="M125.637 91.668c1.269-.354 2.767 1.2 3.452 2.222.736 1.1.953 2.2 1.382 4.37.214 1.084.336 2.2.346 2.292.062.574.1 1.063.115 1.433q.091 1.116.157 2.267c.154 2.652.192 5.2.142 7.619-.085 4.159.08 6.24.351 6.965.678 1.818 1.777 3.111 1.285 4.735-.047.156-.356 1.173-1.06 1.337s-1.507-.577-1.912-1.266c-.5-.846-.245-1.378-.6-4.865-.02-.191-.028-.306-.046-.434a52.412 52.412 0 0 0-1.5-5.526c-2.889-9.931-5.135-15.267-3.632-19.285.57-1.531 1.286-1.798 1.52-1.864z" data-name="Path 4069"/><path fill="#8c2530" d="M125.637 91.668c1.269-.354 2.767 1.2 3.452 2.222.736 1.1.954 2.2 1.382 4.37.214 1.084.336 2.2.346 2.292.062.574.1 1.063.115 1.433q.091 1.116.158 2.267c.153 2.652.191 5.2.142 7.619-.085 4.159.08 6.24.351 6.965.678 1.818 1.777 3.111 1.285 4.735-.047.156-.356 1.173-1.06 1.337s-1.506-.577-1.912-1.266c-.5-.846 2.2 1.448 1.839-2.039-.02-.191-.9-2.92-.917-3.049a38.858 38.858 0 0 0-.558-5.063c-1.583-9.641-2.519-12.231-1.943-17.484.177-1.625-2.914-4.273-2.68-4.339z" data-name="Path 4070" opacity=".51"/></g><g data-name="Group 1615"><g data-name="Group 1613"><path fill="#ea5158" d="M128.103 91.02c.359.22 1.874 1.335.6 8.275a55.4 55.4 0 0 1-6.806 17.719l-.2 1.665a6.421 6.421 0 0 1-2.964 2.321c-1.777.641-3.856.364-3.961-.173-.042-.219.649-.709 2.034-1.682a11.153 11.153 0 0 0 2.619-3.019 56.875 56.875 0 0 0 .818-5.785c.328-3.74 1.776-18.357 6.043-19.471a2.386 2.386 0 0 1 1.817.15z" data-name="Path 4071"/></g><g data-name="Group 1614"><path fill="#faac47" d="M128.103 91.02c.359.22-2.687-.226-3.96 6.714-.72 3.923.238 11.406-4.173 19.066-.066.555-.366 1.675-.432 2.23-.466.646.74 1.413-.8 1.97-1.777.641-3.856.364-3.961-.173-.042-.219.649-.709 2.034-1.682a11.153 11.153 0 0 0 2.619-3.019 56.875 56.875 0 0 0 .818-5.785c.328-3.74 1.776-18.357 6.043-19.471a2.386 2.386 0 0 1 1.812.15z" data-name="Path 4072" opacity=".13"/></g><path fill="#2b337c" d="M113.483 121.213c.268-.281.558-.564.871-.846a16.928 16.928 0 0 1 3.264-2.308 2.7 2.7 0 0 0 1.354.827 2.993 2.993 0 0 0 2.876-1.022 2.513 2.513 0 0 1 .247.7 4.327 4.327 0 0 1-.392 2.243c-.283.855-.5 1.51-.621 1.855l-.783-.143.25-2.123a6.983 6.983 0 0 1-3.467 1.988l-3.247-.19a.609.609 0 0 1-.395-.237.645.645 0 0 1 .043-.744z" data-name="Path 4073"/></g></g><path fill="#faac47" d="M148.132 83.229a26.307 26.307 0 0 1 2.1 8.649c.18 2.8-.222 4-.694 4.856a7.375 7.375 0 0 1-3.567 3.072c-3.932 1.706-6.367-.858-10.108.4a9.347 9.347 0 0 0-4.856 4.162 16.456 16.456 0 0 0-3.1-10.752 15.126 15.126 0 0 0-3.64-3.429c3.931-2.566 6.921-2.839 8.986-2.559a11.717 11.717 0 0 0 2.228.039 1.407 1.407 0 0 0 .807-.5 36.06 36.06 0 0 0 .41-3.685z" data-name="Path 4074"/><path fill="#2b337c" d="M148.131 83.23a26.31 26.31 0 0 1 2.1 8.649c.18 2.8-.222 4-.694 4.856a7.373 7.373 0 0 1-3.567 3.072c-3.932 1.707-6.367-.858-10.108.4a9.346 9.346 0 0 0-4.856 4.162 16.454 16.454 0 0 0-3.1-10.752c-1.2-1.588 6.28 4.758 5.176 4.016a15.1 15.1 0 0 0 5.848-1.293 7.345 7.345 0 0 0 1.97-1.108c1.552-1.313 1.358-2.556 3.263-4.74.468-.537.626-.63.615-.862-.035-.757-5.386-.981-7.6-2.247-1.281-.731.45-2.234-.215-3.294-.173-.275 5.573 2.151 7.048-1.016 1.379-2.959-.814-9.161-.246-11.142 1.136-3.963 3.134-3.459 3.2-4.063 3.814-.087-2.644 15.445 1.166 15.362z" data-name="Path 4075" opacity=".17"/></g><path fill="#fff" d="M148.296 84.737a3.528 3.528 0 0 0 .393-.9 39.608 39.608 0 0 0 1.382-7.2c.367-6.135-2.238-9.235-3.26-8.37a5.733 5.733 0 0 0-1.894 3.064 34.433 34.433 0 0 0-.015 11.7c-1.115 1.474 3.08 2.361 3.394 1.706z" data-name="Path 4076"/><path fill="#dcdfec" d="M148.816 83.224a39.872 39.872 0 0 0 1.224-7.025c.328-5.488-2-8.262-2.917-7.488-.7.593.527 2.715.215 3.986-.551 2.247-2.328 4.809-1.693 8.034-.427.569 1.18 1.02 1.693 1.6.709.8 1.414 1.102 1.478.893z" data-name="Path 4077"/><g data-name="Group 1618"><path fill="#ea5158" d="M130.271 88.335a12.777 12.777 0 0 0 1.414-2.2 2.08 2.08 0 0 1 .644-.835 3.307 3.307 0 0 1 1.771-.432 9.815 9.815 0 0 1 1.076-.026 62.948 62.948 0 0 1 8.767-2.931 2.355 2.355 0 0 1 .974-.216c1.754.006 3.454 2.157 3.04 3.248a1.315 1.315 0 0 1-.728.663c-1.857.86-3.731.852-6.15.886q-.511-.025-1.028-.045-2.036-.079-4-.086a4 4 0 0 1-1.225.783 4.105 4.105 0 0 1-2.33.207 2.9 2.9 0 0 1-1.523 1.243c-.056.018-.7.22-.8.044-.051-.087.05-.235.098-.303z" data-name="Path 4078"/><path fill="#cb404a" d="M130.271 88.335c.387-.556 1.327-.641 1.831-1.7.186-.391 2.021-.716 2.832-.78.45-.035.937-.336 1.19-.328a27.705 27.705 0 0 1 4.971-.625c2.789-.1 4.737.261 5.043-.483.336-.815-.9-2.028-.692-2.206a3.849 3.849 0 0 1 .292-.354c1.477.646 2.632 2 2.218 3.088a1.315 1.315 0 0 1-.728.663c-1.857.86-3.731.852-6.15.886q-.511-.025-1.028-.045-2.036-.079-4-.086a3.993 3.993 0 0 1-1.225.783 4.1 4.1 0 0 1-2.33.207 2.906 2.906 0 0 1-1.523 1.243c-.056.018-.7.22-.8.044-.05-.092.051-.239.099-.307z" data-name="Path 4079"/></g><path fill="#fff" d="M138.325 68.789c-.206.43-1.054 2.736-1.336 3.623h-.006c.012-.316.145-3.648.33-4.877a1.141 1.141 0 0 1 .385-.775.827.827 0 0 1 .317-.157.79.79 0 0 1 .52.074l.714 1.814s0 .007-.006 0c-.1-.155-.3-.445-.5-.412-.092.019-.122.092-.418.71z" data-name="Path 4080"/></g></g><g data-name="Group 1632"><g data-name="Group 1623"><g data-name="Group 1621"><path fill="#831939" d="M77.673 90.171l2.952.168-9.752 46.927s-.437 1.192-1.333 1.132c0 0-.931.171-.455-1.395z" data-name="Path 4081"/><path fill="#022f43" d="M80.625 90.34l-9.752 46.927s-.437 1.192-1.333 1.132c0 0-.762.136-.55-1a.9.9 0 0 0 .222.381c.384.332.851.039 1.156-.521l8.965-46.989z" data-name="Path 4082" opacity=".18"/></g><g data-name="Group 1622"><path fill="#831939" d="M138.59 90.171l-2.952.168 9.752 46.927s.438 1.192 1.333 1.132c0 0 .931.171.455-1.395z" data-name="Path 4083"/><path fill="#022f43" d="M135.638 90.34l9.752 46.927s.438 1.192 1.333 1.132c0 0 .762.136.55-1a.9.9 0 0 1-.222.381c-.384.332-.851.039-1.156-.521l-8.964-46.989z" data-name="Path 4084" opacity=".18"/></g><path fill="#831939" d="M71.942 87.667h71.12v2.88h-71.12z" data-name="Rectangle 247"/></g><g data-name="Group 1630"><g data-name="Group 1629"><g data-name="Group 1628"><path fill="#9682bc" d="M107.102 85.794a49.649 49.649 0 0 1-.424-7.227c.009-1.207.068-2.413.155-3.615s.215-2.4.365-3.594c.308-2.386.743-4.75 1.283-7.083q.406-1.749.9-3.471c.329-1.148.68-2.286 1.085-3.406l.127.058c-.389 1.116-.728 2.259-1.042 3.406s-.6 2.307-.856 3.472a73.445 73.445 0 0 0-1.2 7.069c-.136 1.189-.254 2.381-.323 3.577s-.118 2.392-.113 3.589a49.112 49.112 0 0 0 .5 7.144z" data-name="Path 4085"/><path fill="#9682bc" d="M111.097 52.6a3.332 3.332 0 0 0-1.24 2.347 3.521 3.521 0 0 0 .6 2.638 3.333 3.333 0 0 0 1.24-2.347 3.523 3.523 0 0 0-.6-2.638z" data-name="Path 4086"/><path fill="#9682bc" d="M107.478 56.266a2.712 2.712 0 0 0 .68 1.987 2.2 2.2 0 0 0 1.742.883 2.712 2.712 0 0 0-.681-1.987 2.2 2.2 0 0 0-1.741-.883z" data-name="Path 4087"/><path fill="#9682bc" d="M110.003 59.149a2.092 2.092 0 0 0 1.909.162 2.381 2.381 0 0 0 1.461-1.374 2.091 2.091 0 0 0-1.909-.162 2.382 2.382 0 0 0-1.461 1.374z" data-name="Path 4088"/><path fill="#9682bc" d="M109.301 61.754a2.09 2.09 0 0 0 1.909.162 2.382 2.382 0 0 0 1.461-1.374 2.092 2.092 0 0 0-1.909-.162 2.381 2.381 0 0 0-1.461 1.374z" data-name="Path 4089"/><path fill="#9682bc" d="M108.566 64.461a2.092 2.092 0 0 0 1.909.162 2.382 2.382 0 0 0 1.461-1.374 2.091 2.091 0 0 0-1.909-.162 2.381 2.381 0 0 0-1.461 1.374z" data-name="Path 4090"/><path fill="#9682bc" d="M108.072 66.987a2.091 2.091 0 0 0 1.909.162 2.382 2.382 0 0 0 1.461-1.374 2.092 2.092 0 0 0-1.909-.162 2.381 2.381 0 0 0-1.461 1.374z" data-name="Path 4091"/><path fill="#9682bc" d="M108.277 66.469a2.091 2.091 0 0 1-1.909.162 2.382 2.382 0 0 1-1.461-1.374 2.092 2.092 0 0 1 1.909-.162 2.382 2.382 0 0 1 1.461 1.374z" data-name="Path 4092"/><path fill="#9682bc" d="M106.818 58.671a2.714 2.714 0 0 0 .681 1.987 2.2 2.2 0 0 0 1.742.883 2.712 2.712 0 0 0-.681-1.987 2.2 2.2 0 0 0-1.742-.883z" data-name="Path 4093"/><path fill="#9682bc" d="M106.063 61.396a2.714 2.714 0 0 0 .681 1.987 2.2 2.2 0 0 0 1.742.883 2.712 2.712 0 0 0-.681-1.987 2.2 2.2 0 0 0-1.742-.883z" data-name="Path 4094"/><g fill="#9682bc" data-name="Group 1624"><path d="M120.969 63.715a22.6 22.6 0 0 0-2.681 1.974 31.232 31.232 0 0 0-2.453 2.314q-1.171 1.228-2.227 2.584c-.7.906-1.356 1.854-1.969 2.834a34.676 34.676 0 0 0-3.075 6.292 37.788 37.788 0 0 0-1.78 6.893l.456.084a37.377 37.377 0 0 1 1.661-6.828 34.474 34.474 0 0 1 2.957-6.277 32.933 32.933 0 0 1 4.092-5.451 31.205 31.205 0 0 1 2.409-2.345 22.626 22.626 0 0 1 2.642-2.011z" data-name="Path 4095"/><path d="M124.444 61.021a3.319 3.319 0 0 1-1.319 2.294 2.709 2.709 0 0 1-2.39.6 3.319 3.319 0 0 1 1.319-2.294 2.709 2.709 0 0 1 2.39-.6z" data-name="Path 4096"/><path d="M119.107 60.348a3.475 3.475 0 0 1 .8 2.573 3.4 3.4 0 0 1-1.059 2.454 3.476 3.476 0 0 1-.8-2.573 3.4 3.4 0 0 1 1.059-2.454z" data-name="Path 4097"/><path d="M115.958 62.104a3.272 3.272 0 0 1 1.387 2.244 3.553 3.553 0 0 1-.432 2.678 3.271 3.271 0 0 1-1.387-2.244 3.552 3.552 0 0 1 .432-2.678z" data-name="Path 4098"/><path d="M113.833 64.275a3.272 3.272 0 0 1 1.387 2.243 3.553 3.553 0 0 1-.433 2.679 3.271 3.271 0 0 1-1.387-2.244 3.551 3.551 0 0 1 .433-2.678z" data-name="Path 4099"/><path d="M111.386 66.506a3.035 3.035 0 0 1 1.858 1.775 3.583 3.583 0 0 1 .2 2.712 3.037 3.037 0 0 1-1.858-1.775 3.583 3.583 0 0 1-.2-2.712z" data-name="Path 4100"/><path d="M109.663 69.3a2.528 2.528 0 0 1 1.966 1.069 3.116 3.116 0 0 1 .723 2.294 2.528 2.528 0 0 1-1.966-1.069 3.115 3.115 0 0 1-.723-2.294z" data-name="Path 4101"/><path d="M108.413 71.056a2.528 2.528 0 0 1 1.965 1.069 3.115 3.115 0 0 1 .723 2.294 2.529 2.529 0 0 1-1.966-1.069 3.116 3.116 0 0 1-.722-2.294z" data-name="Path 4102"/><path d="M107.7 73.643a2.168 2.168 0 0 1 1.685.917 2.67 2.67 0 0 1 .619 1.967 2.167 2.167 0 0 1-1.685-.917 2.67 2.67 0 0 1-.619-1.967z" data-name="Path 4103"/><path d="M107.006 76.347a1.728 1.728 0 0 1 1.574-.031 2 2 0 0 1 1.148 1.2 1.728 1.728 0 0 1-1.574.031 2 2 0 0 1-1.148-1.2z" data-name="Path 4104"/><path d="M106.727 78.573a1.437 1.437 0 0 1 1.188-.471 1.465 1.465 0 0 1 1.147.583 1.437 1.437 0 0 1-1.188.471 1.467 1.467 0 0 1-1.147-.583z" data-name="Path 4105"/><path d="M123.127 66.936a2.674 2.674 0 0 1-2.447.154 3.068 3.068 0 0 1-1.839-1.8 2.674 2.674 0 0 1 2.447-.153 3.065 3.065 0 0 1 1.839 1.799z" data-name="Path 4106"/><path d="M121.192 68.703a2.675 2.675 0 0 1-2.447.154 3.068 3.068 0 0 1-1.839-1.8 2.675 2.675 0 0 1 2.447-.153 3.067 3.067 0 0 1 1.839 1.799z" data-name="Path 4107"/><path d="M119.13 70.883a2.674 2.674 0 0 1-2.447.154 3.068 3.068 0 0 1-1.838-1.8 2.674 2.674 0 0 1 2.447-.154 3.066 3.066 0 0 1 1.838 1.8z" data-name="Path 4108"/><path d="M116.803 72.333a2.174 2.174 0 0 1-1.99.125 2.494 2.494 0 0 1-1.5-1.464 2.176 2.176 0 0 1 1.99-.125 2.493 2.493 0 0 1 1.5 1.464z" data-name="Path 4109"/><path d="M115.061 73.718a1.726 1.726 0 0 1-1.615.127 1.987 1.987 0 0 1-1.2-1.208 1.727 1.727 0 0 1 1.616-.127 1.985 1.985 0 0 1 1.199 1.208z" data-name="Path 4110"/><path d="M114.02 75.498a1.727 1.727 0 0 1-1.616.127 1.987 1.987 0 0 1-1.2-1.208 1.727 1.727 0 0 1 1.616-.127 1.987 1.987 0 0 1 1.2 1.208z" data-name="Path 4111"/><path d="M112.879 77.109a1.711 1.711 0 0 1-1.47.354 1.833 1.833 0 0 1-1.294-.852 1.711 1.711 0 0 1 1.47-.354 1.834 1.834 0 0 1 1.294.852z" data-name="Path 4112"/><path d="M111.776 79.139a1.489 1.489 0 0 1-1.3-.318 1.816 1.816 0 0 1-.739-1.226 1.489 1.489 0 0 1 1.3.319 1.815 1.815 0 0 1 .739 1.225z" data-name="Path 4113"/><path d="M110.547 80.349a1.178 1.178 0 0 1-.934-.444 1.452 1.452 0 0 1-.4-1.038 1.177 1.177 0 0 1 .935.444 1.452 1.452 0 0 1 .399 1.038z" data-name="Path 4114"/><path d="M109.733 80.667a.674.674 0 0 1-.594-.247.845.845 0 0 1-.222-.659.674.674 0 0 1 .594.247.843.843 0 0 1 .222.659z" data-name="Path 4115"/><path d="M109.47 81.266a.675.675 0 0 1-.594-.247.842.842 0 0 1-.221-.659.674.674 0 0 1 .594.247.844.844 0 0 1 .221.659z" data-name="Path 4116"/></g><g fill="#2b337c" data-name="Group 1625"><path d="M100.023 61.706a23.167 23.167 0 0 1 1.825 2.621 31.929 31.929 0 0 1 1.533 2.844q.7 1.466 1.262 3.007c.372 1.027.693 2.077.969 3.141a34.061 34.061 0 0 1 1.012 6.544 35.787 35.787 0 0 1-.287 6.644l-.423-.077a35.312 35.312 0 0 0 .375-6.548 33.789 33.789 0 0 0-.911-6.492c-.259-1.06-.563-2.107-.918-3.133s-.763-2.03-1.213-3.01a31.979 31.979 0 0 0-1.486-2.857 23.233 23.233 0 0 0-1.781-2.641z" data-name="Path 4117"/><path d="M97.694 58.19a3.28 3.28 0 0 0 .542 2.451 2.693 2.693 0 0 0 1.937 1.322 3.279 3.279 0 0 0-.542-2.451 2.691 2.691 0 0 0-1.937-1.322z" data-name="Path 4118"/><path d="M102.563 59.365a2.986 2.986 0 0 0-1.393 2 3.311 3.311 0 0 0 .271 2.506 2.985 2.985 0 0 0 1.393-2 3.31 3.31 0 0 0-.271-2.506z" data-name="Path 4119"/><path d="M104.857 61.95a2.76 2.76 0 0 0-1.821 1.511 3.307 3.307 0 0 0-.339 2.5 2.76 2.76 0 0 0 1.82-1.511 3.308 3.308 0 0 0 .34-2.5z" data-name="Path 4120"/><path d="M106.141 64.561a2.761 2.761 0 0 0-1.821 1.511 3.309 3.309 0 0 0-.339 2.5 2.762 2.762 0 0 0 1.821-1.511 3.309 3.309 0 0 0 .339-2.5z" data-name="Path 4121"/><path d="M107.691 67.33a2.584 2.584 0 0 0-2.108.944 3.194 3.194 0 0 0-.9 2.316 2.584 2.584 0 0 0 2.108-.944 3.193 3.193 0 0 0 .9-2.316z" data-name="Path 4122"/><path d="M108.454 70.354a2.223 2.223 0 0 0-2.014.288 2.68 2.68 0 0 0-1.251 1.776 2.223 2.223 0 0 0 2.014-.288 2.681 2.681 0 0 0 1.251-1.776z" data-name="Path 4123"/><path d="M109.081 72.314a2.222 2.222 0 0 0-2.014.288 2.681 2.681 0 0 0-1.25 1.776 2.222 2.222 0 0 0 2.014-.288 2.681 2.681 0 0 0 1.25-1.776z" data-name="Path 4124"/><path d="M109.012 74.822a1.9 1.9 0 0 0-1.726.247 2.3 2.3 0 0 0-1.072 1.522 1.905 1.905 0 0 0 1.726-.247 2.3 2.3 0 0 0 1.072-1.522z" data-name="Path 4125"/><path d="M108.896 77.423a1.664 1.664 0 0 0-1.374-.548 1.7 1.7 0 0 0-1.329.671 1.665 1.665 0 0 0 1.375.548 1.7 1.7 0 0 0 1.328-.671z" data-name="Path 4126"/><path d="M108.544 79.472a1.452 1.452 0 0 0-.917-.807 1.289 1.289 0 0 0-1.164.132 1.453 1.453 0 0 0 .917.807 1.289 1.289 0 0 0 1.164-.132z" data-name="Path 4127"/><path d="M97.263 63.822a2.787 2.787 0 1 0 2.1-.972 2.6 2.6 0 0 0-2.1.972z" data-name="Path 4128"/><path d="M98.487 66.014a2.787 2.787 0 1 0 2.1-.972 2.6 2.6 0 0 0-2.1.972z" data-name="Path 4129"/><path d="M99.713 68.611a2.786 2.786 0 1 0 2.1-.972 2.6 2.6 0 0 0-2.1.972z" data-name="Path 4130"/><path d="M101.368 70.655a2.266 2.266 0 1 0 1.707-.791 2.112 2.112 0 0 0-1.707.791z" data-name="Path 4131"/><path d="M102.527 72.448a1.784 1.784 0 1 0 1.378-.664 1.68 1.68 0 0 0-1.378.664z" data-name="Path 4132"/><path d="M102.964 74.357a1.785 1.785 0 1 0 1.378-.664 1.681 1.681 0 0 0-1.378.664z" data-name="Path 4133"/><path d="M103.533 76.15a1.7 1.7 0 0 0 1.2.8 1.586 1.586 0 0 0 1.365-.32 1.7 1.7 0 0 0-1.2-.8 1.587 1.587 0 0 0-1.365.32z" data-name="Path 4134"/><path d="M103.957 78.297a1.369 1.369 0 0 0 1.225.15 1.533 1.533 0 0 0 .979-.832 1.369 1.369 0 0 0-1.225-.15 1.534 1.534 0 0 0-.979.832z" data-name="Path 4135"/><path d="M104.711 79.768a1.043 1.043 0 0 0 .94-.081 1.24 1.24 0 0 0 .629-.78 1.044 1.044 0 0 0-.94.081 1.239 1.239 0 0 0-.629.78z" data-name="Path 4136"/><path d="M105.341 80.316a.6.6 0 0 0 .588-.02.725.725 0 0 0 .372-.506.6.6 0 0 0-.588.02.723.723 0 0 0-.372.506z" data-name="Path 4137"/><path d="M105.411 80.93a.6.6 0 0 0 .588-.02.725.725 0 0 0 .372-.506.6.6 0 0 0-.588.02.725.725 0 0 0-.372.506z" data-name="Path 4138"/></g><g fill="#9682bc" data-name="Group 1626"><path d="M101.996 74.839a1.415 1.415 0 0 1-1.123.418 1.437 1.437 0 0 1-1.093-.507 1.415 1.415 0 0 1 1.123-.418 1.436 1.436 0 0 1 1.093.507z" data-name="Path 4139"/><path d="M104.315 78.452a68.504 68.504 0 0 0-3.218-4.8l.019-.017a69.218 69.218 0 0 1 3.309 4.734 58.311 58.311 0 0 1 2.91 5.055q.319.635.621 1.283l-.235.148q-.29-.656-.6-1.3a59.191 59.191 0 0 0-2.806-5.103z" data-name="Path 4140"/><path d="M99.968 71.553a1.376 1.376 0 0 1 1 .766 1.669 1.669 0 0 1 .137 1.345 1.375 1.375 0 0 1-1.005-.766 1.667 1.667 0 0 1-.132-1.345z" data-name="Path 4141"/><path d="M102.756 72.515a1.836 1.836 0 0 1-.011 1.315 1.615 1.615 0 0 1-.788.982 1.836 1.836 0 0 1 .011-1.315 1.615 1.615 0 0 1 .788-.982z" data-name="Path 4142"/><path d="M102.85 76.14a1.389 1.389 0 0 1-1.155.29 1.471 1.471 0 0 1-1.042-.627 1.389 1.389 0 0 1 1.155-.29 1.472 1.472 0 0 1 1.042.627z" data-name="Path 4143"/><path d="M103.971 77.745a1.389 1.389 0 0 1-1.155.29 1.471 1.471 0 0 1-1.042-.626 1.389 1.389 0 0 1 1.155-.291 1.472 1.472 0 0 1 1.042.627z" data-name="Path 4144"/><path d="M104.731 79.025a1.389 1.389 0 0 1-1.155.29 1.472 1.472 0 0 1-1.042-.627 1.39 1.39 0 0 1 1.156-.29 1.471 1.471 0 0 1 1.041.627z" data-name="Path 4145"/><path d="M105.576 80.437a1.39 1.39 0 0 1-1.156.29 1.472 1.472 0 0 1-1.041-.627 1.39 1.39 0 0 1 1.155-.29 1.474 1.474 0 0 1 1.042.627z" data-name="Path 4146"/><path d="M103.732 73.893a1.84 1.84 0 0 1-.011 1.315 1.616 1.616 0 0 1-.789.982 1.838 1.838 0 0 1 .011-1.315 1.614 1.614 0 0 1 .789-.982z" data-name="Path 4147"/><path d="M104.663 75.311a1.836 1.836 0 0 1-.011 1.315 1.613 1.613 0 0 1-.788.982 1.84 1.84 0 0 1 .011-1.315 1.616 1.616 0 0 1 .788-.982z" data-name="Path 4148"/><path d="M105.551 76.741a1.836 1.836 0 0 1-.011 1.315 1.616 1.616 0 0 1-.788.982 1.839 1.839 0 0 1 .01-1.315 1.617 1.617 0 0 1 .789-.982z" data-name="Path 4149"/><path d="M106.41 78.142a1.837 1.837 0 0 1-.011 1.315 1.616 1.616 0 0 1-.789.982 1.838 1.838 0 0 1 .011-1.315 1.615 1.615 0 0 1 .789-.982z" data-name="Path 4150"/></g><g fill="#2b337c" data-name="Group 1627"><path d="M116.156 73.919a1.439 1.439 0 0 0 1.091.513 1.412 1.412 0 0 0 1.125-.412 1.438 1.438 0 0 0-1.091-.513 1.411 1.411 0 0 0-1.125.412z" data-name="Path 4151"/><path d="M113.593 77.326a67.795 67.795 0 0 1 3.542-4.511l-.017-.019a66.07 66.07 0 0 0-3.628 4.436 57.007 57.007 0 0 0-3.253 4.79q-.363.606-.709 1.225c.075.055.15.111.224.168q.334-.63.689-1.246a57.137 57.137 0 0 1 3.152-4.843z" data-name="Path 4152"/><path d="M118.404 70.817a1.345 1.345 0 0 0-1.055.677 1.658 1.658 0 0 0-.23 1.329 1.346 1.346 0 0 0 1.055-.677 1.657 1.657 0 0 0 .23-1.329z" data-name="Path 4153"/><path d="M115.56 71.537a1.834 1.834 0 0 0-.081 1.312 1.652 1.652 0 0 0 .718 1.047 1.834 1.834 0 0 0 .081-1.312 1.652 1.652 0 0 0-.718-1.047z" data-name="Path 4154"/><path d="M115.214 75.142a1.407 1.407 0 0 0 1.132.389 1.443 1.443 0 0 0 1.082-.535 1.407 1.407 0 0 0-1.131-.389 1.443 1.443 0 0 0-1.083.535z" data-name="Path 4155"/><path d="M113.985 76.647a1.407 1.407 0 0 0 1.132.389 1.442 1.442 0 0 0 1.082-.535 1.406 1.406 0 0 0-1.131-.389 1.445 1.445 0 0 0-1.083.535z" data-name="Path 4156"/><path d="M113.138 77.857a1.407 1.407 0 0 0 1.132.389 1.444 1.444 0 0 0 1.082-.535 1.407 1.407 0 0 0-1.132-.389 1.444 1.444 0 0 0-1.082.535z" data-name="Path 4157"/><path d="M112.198 79.193a1.407 1.407 0 0 0 1.132.389 1.444 1.444 0 0 0 1.082-.535 1.406 1.406 0 0 0-1.132-.389 1.444 1.444 0 0 0-1.082.535z" data-name="Path 4158"/><path d="M114.491 72.827a1.835 1.835 0 0 0-.081 1.312 1.652 1.652 0 0 0 .718 1.046 1.834 1.834 0 0 0 .081-1.312 1.65 1.65 0 0 0-.718-1.046z" data-name="Path 4159"/><path d="M113.463 74.161a1.835 1.835 0 0 0-.081 1.312 1.651 1.651 0 0 0 .718 1.046 1.836 1.836 0 0 0 .081-1.312 1.653 1.653 0 0 0-.718-1.046z" data-name="Path 4160"/><path d="M112.48 75.51a1.834 1.834 0 0 0-.081 1.312 1.651 1.651 0 0 0 .718 1.046 1.835 1.835 0 0 0 .081-1.312 1.653 1.653 0 0 0-.718-1.046z" data-name="Path 4161"/><path d="M111.525 76.832a1.835 1.835 0 0 0-.081 1.312 1.652 1.652 0 0 0 .718 1.046 1.836 1.836 0 0 0 .081-1.312 1.653 1.653 0 0 0-.718-1.046z" data-name="Path 4162"/></g></g></g><path fill="#ee4223" d="M103.646 82.228h6.721a3.157 3.157 0 0 1 1.825 2.628 3.264 3.264 0 0 1-2.057 2.753h-6.258a3.265 3.265 0 0 1-2.057-2.753 3.156 3.156 0 0 1 1.826-2.628z" data-name="Path 4163"/><path fill="#f6eb84" d="M104.278 82.818a1.792 1.792 0 0 0-1.78 1.584 1.971 1.971 0 0 0 2.755 2.288c-.944-.263-1.976-.744-2.006-1.827a2.272 2.272 0 0 1 .256-1.13 3.066 3.066 0 0 1 .285-.423 3.008 3.008 0 0 1 .49-.492z" data-name="Path 4164"/><path fill="#ea2e26" d="M110.757 82.423h-7.425v-.518h7.425z" data-name="Rectangle 248"/></g><g data-name="Group 1631" transform="translate(76.376 72.755)"><path fill="url(#a)" d="M2107.452 1572.209l-21.764 1.232a97.728 97.728 0 0 1 2.516-12.227 3.46 3.46 0 0 1 1.217-1.81 3.53 3.53 0 0 1 2.389-.538l15.532.016a1.761 1.761 0 0 1 1.866 1.922z" data-name="Path 4165" transform="translate(-2081.476 -1558.841)"/><rect width="26.091" height="1.452" fill="#ec308d" data-name="Rectangle 249" rx=".669" transform="rotate(-.16 4776.316 6.669)"/><path fill="#fff" d="M4.84 11.038l-.472 2.233 21.624-.005 1.493-9.689a51.331 51.331 0 0 1-19.789 7.161q-1.455.196-2.856.3z" data-name="Path 4166" opacity=".4"/></g></g></g></g></svg>