<svg xmlns="http://www.w3.org/2000/svg" width="170.249" height="129.467" viewBox="0 0 170.249 129.467"><defs><clipPath id="a"><circle cx="5.212" cy="5.212" r="5.212" fill="#fff" stroke="#000" stroke-miterlimit="10" stroke-width="2" data-name="Ellipse 113"/></clipPath><clipPath id="b"><circle cx="5.212" cy="5.212" r="5.212" fill="none" stroke="#000" stroke-miterlimit="10" stroke-width="2" data-name="Ellipse 119"/></clipPath><clipPath id="c"><circle cx="5.212" cy="5.212" r="5.212" fill="#9fa1cf" stroke="#273b8e" stroke-miterlimit="10" data-name="Ellipse 125"/></clipPath><clipPath id="d"><circle cx="5.212" cy="5.212" r="5.212" fill="none" stroke="#000" stroke-miterlimit="10" data-name="Ellipse 131"/></clipPath><clipPath id="e"><ellipse cx="39.74" cy="39.607" fill="none" data-name="Ellipse 133" rx="39.74" ry="39.607" transform="rotate(-8.198 79.071 5.667)"/></clipPath><clipPath id="f"><circle cx="18.387" cy="18.387" r="18.387" fill="none" data-name="Ellipse 146" transform="rotate(-45 31.388 13.002)"/></clipPath><clipPath id="g"><circle cx="5.852" cy="5.852" r="5.852" fill="none" stroke="#000" stroke-miterlimit="10" stroke-width="2" data-name="Ellipse 138"/></clipPath><clipPath id="h"><circle cx="5.852" cy="5.852" r="5.852" fill="none" stroke="#000" stroke-miterlimit="10" data-name="Ellipse 144"/></clipPath><linearGradient id="i" x2="1" y1=".5" y2=".5" gradientUnits="objectBoundingBox"><stop offset="0" stop-color="#902472"/><stop offset=".727" stop-color="#54326b"/><stop offset="1" stop-color="#3c3e69"/></linearGradient><linearGradient id="j" x2="1" y1=".5" y2=".5" gradientUnits="objectBoundingBox"><stop offset="0" stop-color="#f8ac8f"/><stop offset="1" stop-color="#d99ec6"/></linearGradient><clipPath id="k"><path fill="none" d="M0 0h18.662v29.79H0z" data-name="Rectangle 288" transform="rotate(132.641 12.853 17.667)"/></clipPath><clipPath id="l"><path fill="#d89828" d="M2378.072 753.992s9.386 2.332 10.385.427c.54-1.029-2.1-2.452-3.736-2.855s-6.214-2.136-6.214-2.136" data-name="Path 4316" transform="translate(-2378.072 -749.428)"/></clipPath><clipPath id="m"><path fill="#ffdba5" d="M2266.918 718.309a3.127 3.127 0 0 1 .424 1.238 20.95 20.95 0 0 0 .413 2.955c.2.687.69 1.456.612 1.517a.023.023 0 0 1-.017 0c-.351-.026-.817-.755-.817-.755-.435-.68-.46-.977-.687-1.009-.146-.021-.235.094-.524.3-.166.121-.495.332-.99.64a19.2 19.2 0 0 1 1.587-4.894z" data-name="Path 4324" transform="translate(-2265.331 -718.309)"/></clipPath><clipPath id="n"><path fill="#ffca57" d="M2077.835 734.932c.429 1.167.532 1.207 1.079 2.543a32.928 32.928 0 0 1 1.966 5.506c.163.787.216 1.316.681 1.681.273.215.678.358 2.637.257.788-.04 1.44-.1 1.894-.149a29.4 29.4 0 0 0-3.184-14.353l-.35-1.422c-.271.012-4.963.269-5.565 2.4-.199.705.148 1.647.842 3.537z" data-name="Path 4328" transform="translate(-2076.937 -728.996)"/></clipPath><clipPath id="o"><path fill="#ffdba5" d="M2160.548 732.547a3.128 3.128 0 0 0-.307 1.272 20.955 20.955 0 0 1-.137 2.98c-.13.7-.552 1.514-.468 1.567a.025.025 0 0 0 .018 0c.347-.058.743-.828.743-.828.371-.718.367-1.015.591-1.068.144-.034.243.072.55.254.177.105.523.285 1.046.545a19.219 19.219 0 0 0-2.035-4.725z" data-name="Path 4338" transform="translate(-2159.625 -732.547)"/></clipPath><clipPath id="p"><path fill="#211e1c" d="M2129.027 518.611c-2.359-1.089-2.683-2.275-4.064-2.336a3.3 3.3 0 0 0-2.268.909 2.935 2.935 0 0 0-3.014.36 7.379 7.379 0 0 1 1.626-.4 4.119 4.119 0 0 1 1.125.049 2.1 2.1 0 0 0-.227-.006 2.54 2.54 0 0 0-.3.028 3.494 3.494 0 0 0-.816.228 4.686 4.686 0 0 0-2.476 3.511c-.061.958.328 1.259 1.274 3.708.448 1.158.759 2.12.948 2.737a17.854 17.854 0 0 0-.455-3.026 1.074 1.074 0 0 1 .052-.912c.222-.274.646-.221.888-.249.537-.063 1.24-.651 1.951-2.992a14.98 14.98 0 0 0 1.412 2.294 12.947 12.947 0 0 1-1.321-2.4l.1-.117a5.682 5.682 0 0 0 1.462 1.928 4.5 4.5 0 0 0 1.664.734 3.826 3.826 0 0 0 1.954 0c1.465-.45 2.651-2.152 2.272-3.092-.189-.467-.629-.421-1.787-.956z" data-name="Path 4362" transform="translate(-2118.607 -516.273)"/></clipPath></defs><g data-name="Group 10781"><g data-name="Group 1638"><path fill="#242662" d="M68.296 19.644a1.438 1.438 0 0 1-2.009-.32l-.943-1.338-45.638 33.437 36.639 51.123 45.828-32.29-20.048-28.454a1.439 1.439 0 0 1 .375-2 1.438 1.438 0 0 0 .375-2L70.306 19.964a1.438 1.438 0 0 0-2.01-.32z" data-name="Path 4168" opacity=".49"/><g data-name="Group 1636"><path fill="#242662" d="M57.108 103.49L20.279 51.219 0 60.744 8.345 73.27l-.517-.693-1.226.569a.939.939 0 0 0-.386 1.372l4.115 6.177a2.239 2.239 0 0 0 2.477.912l.917-.261 20.043 30.086z" data-name="Path 4169" opacity=".73"/></g><path fill="#ffd075" stroke="#ffd075" stroke-miterlimit="10" d="M67.799 21.476h0a1.418 1.418 0 0 1-1.977-.343l-.943-1.338-44.6 31.424 36.829 52.27 44.6-31.424L81.66 43.611a1.418 1.418 0 0 1 .343-1.977h0a1.419 1.419 0 0 0 .343-1.977l-12.57-17.84a1.419 1.419 0 0 0-1.977-.341z" data-name="Path 4170"/><g fill="#df9627" data-name="Group 1637"><path d="M20.279 51.22L.456 39.172l13.147 19.119c.318.463-.359.632-1.1.276-.747-.359-1.425-.184-1.1.283l6.782 9.588a1.267 1.267 0 0 0 .388.332l2.98 1.76a1.247 1.247 0 0 1 .395.343l13.828 20.33 21.327 12.289z" data-name="Path 4171"/><path d="M20.28 51.22L.457 39.172l13.147 19.119c.318.463-.359.632-1.1.276s-1.425-.184-1.1.283l6.782 9.588a1.267 1.267 0 0 0 .388.332l2.98 1.76a1.247 1.247 0 0 1 .395.343l13.828 20.33 21.327 12.289z" data-name="Path 4172" opacity=".25"/></g></g><g data-name="Group 1724"><path fill="#242662" d="M25.533 66.578l8.48-11.181-3.123-7.09 30.278-21.655 1.325 2.914 37.09.795-.662 5.7 22.254 11.127L97.993 89.71 78.256 79.643 60.409 98.188z" data-name="Path 4173" opacity=".5"/><g data-name="Group 1722"><g data-name="Group 1660" transform="translate(25.515 40.459)"><path fill="#fbf2d5" stroke="#2b3593" stroke-miterlimit="10" stroke-width="2" d="M0 26.039L23.628.001l34.876 31.648-23.628 26.038z" data-name="Rectangle 250"/><path fill="#fff" stroke="#273b8e" stroke-miterlimit="10" stroke-width="2" d="M.018 26.12L23.718.002l12.76 11.579-23.7 26.118z" data-name="Rectangle 251"/><circle cx="5.304" cy="5.304" r="5.304" fill="#fff" stroke="#000" stroke-miterlimit="10" stroke-width="2" data-name="Ellipse 108" transform="translate(19.37 8.089)"/><path fill="#5a2c84" stroke="#2e2e84" stroke-miterlimit="10" stroke-width="2" d="M58.509 31.663L34.895 57.725l-1.743-1.6L56.86 30.167z" data-name="Path 4174"/><g data-name="Group 1650"><g fill="none" stroke="#1e489e" stroke-miterlimit="10" stroke-width="2" data-name="Group 1640"><path stroke-width="1.99932" d="M48.45 26.773l-19.46 21.49-4.752-4.303 19.46-21.49z" data-name="Rectangle 252"/><g data-name="Group 1639"><path d="M43.907 24.745L26.315 44.17" data-name="Line 88"/><path d="M45.163 25.882L27.571 45.307" data-name="Line 89"/><path d="M46.419 27.02L28.827 46.445" data-name="Line 90"/></g></g><g data-name="Group 1649"><g data-name="Group 1643"><g fill="#fff" stroke="#1e489e" stroke-miterlimit="10" stroke-width="2" data-name="Group 1642"><path d="M29.399 25.483l7.422-8.2a.777.777 0 0 0-.054-1.1h0a.777.777 0 0 0-1.1.054l-7.422 8.2a.777.777 0 0 0 .054 1.1h0a.777.777 0 0 0 1.1-.054z" data-name="Path 4175"/><g data-name="Group 1641"><path d="M37.664 18.078l-7.183 7.932" data-name="Line 91"/><path d="M38.725 19.039l-7.183 7.932" data-name="Line 92"/><path d="M39.785 19.999l-7.183 7.932" data-name="Line 93"/></g></g></g><g fill="none" stroke="#1e489e" stroke-miterlimit="10" stroke-width=".2" data-name="Group 1648"><g data-name="Group 1647"><path d="M7.985 28.548l6.129-6.767a.642.642 0 0 0-.045-.906h0a.642.642 0 0 0-.906.045l-6.129 6.767a.642.642 0 0 0 .045.906h0a.642.642 0 0 0 .906-.045z" data-name="Path 4176"/><g data-name="Group 1646"><g data-name="Group 1644"><path d="M14.809 22.432l-5.932 6.55" data-name="Line 94"/><path d="M15.685 23.225l-5.932 6.55" data-name="Line 95"/><path d="M16.561 24.019l-5.932 6.55" data-name="Line 96"/></g><g data-name="Group 1645"><path d="M17.468 24.84l-5.932 6.55" data-name="Line 97"/><path d="M18.344 25.633l-5.932 6.55" data-name="Line 98"/><path d="M19.22 26.427l-5.932 6.55" data-name="Line 99"/></g></g></g><path d="M20.829 17.862l-4.126.617-1.92 2.12" data-name="Path 4177"/></g></g></g><g data-name="Group 1659" transform="translate(19.462 8.181)"><circle cx="5.212" cy="5.212" r="5.212" fill="#fff" data-name="Ellipse 109"/><g clip-path="url(#a)" data-name="Group 1658"><g data-name="Group 1657" transform="translate(1.267 .331)"><path fill="#fff" stroke="#000" stroke-miterlimit="10" stroke-width="2" d="M2.591 5.418l-.7-1.62C2.1 3.649 4.128 2.173 3.838.873 3.807.735 3.679.161 3.266.027a.92.92 0 0 0-.747.177 2.09 2.09 0 0 0-.651 1.063h0s-.1-.52-.349-.555a.273.273 0 0 0-.186.056C.958 1.019.887 2.027.877 2.191A3.335 3.335 0 0 0 .054 4.93 2.719 2.719 0 0 0 .63 6.114a3.867 3.867 0 0 0 4.129.65l-1.983-.92z" data-name="Path 4178"/><path fill="#fff" stroke="#000" stroke-miterlimit="10" stroke-width="2" d="M5.502 4.11A7.3 7.3 0 0 0 3.88 2.394c-.243-.2-.41-.314-.41-.314a5.633 5.633 0 0 1-.94 1.224 2.636 2.636 0 0 1-.678.462 3.115 3.115 0 0 1 .247 1.783s-.795.271-.615.886a.8.8 0 0 0 1.244.406.985.985 0 0 0 .2-.745s1.01 1.055 1.8.639l.057.041a1.32 1.32 0 0 1 .843.835c.221.688-.393 1.4-.3 1.473a4.106 4.106 0 0 0 1.78-1.994 3.832 3.832 0 0 0 .6-2.309c-.045-.019-.216.158-.556.511a1.515 1.515 0 0 1-.469.4 1.078 1.078 0 0 1-.489.085 1.463 1.463 0 0 1-.549-.121 1.762 1.762 0 0 0-.143-1.546z" data-name="Path 4179"/><path fill="#fff" stroke="#000" stroke-miterlimit="10" stroke-width="2" d="M6.481 5.602s.6.646.23 1.17a1.434 1.434 0 0 1-1.544.653 7.791 7.791 0 0 0-.622 1.523 76.628 76.628 0 0 0 3.366 3.335q.972.906 1.928 1.736a14.952 14.952 0 0 0 3.949-3.506l-1.589-1.909-1.454-1.744q-.714-.431-1.442-.892-.9-.572-1.757-1.143a6.4 6.4 0 0 0-.609.4 7.164 7.164 0 0 0-.456.377z" data-name="Path 4180"/><path fill="#fff" stroke="#000" stroke-miterlimit="10" stroke-width="2" d="M8.516 12.903a1.188 1.188 0 0 1-.313-.107 13.3 13.3 0 0 1-2.1-1.283c-1.606-1.3-1.787-2.643-1.341-2.7a1.924 1.924 0 0 1 1.189.222 11.555 11.555 0 0 1 2.907 2.64c.62.057-.108 1.298-.342 1.228z" data-name="Path 4181"/><path fill="#fff" stroke="#000" stroke-miterlimit="10" stroke-width="2" d="M6.12 6.595l.375.892-1.373.34a2.395 2.395 0 0 0-.142-.936l.893-.4-.194-.813a2.539 2.539 0 0 0 .973-.15l.528 1.028z" data-name="Path 4182"/><rect width=".09" height="3.018" fill="#fff" stroke="#000" stroke-miterlimit="10" stroke-width="2" data-name="Rectangle 253" rx=".045" transform="scale(-1) rotate(-46.99 -19.763 8.73)"/><g fill="#fff" stroke="#000" stroke-miterlimit="10" stroke-width="2" data-name="Group 1651"><path d="M6.942 7.678a1.166 1.166 0 0 0 .45-.477c.991.334 3.175 1.444 3.175 1.444a3.961 3.961 0 0 1 .334 1.521 6 6 0 0 1-1.79.022 23.787 23.787 0 0 1-2.169-2.51z" data-name="Path 4183"/><path d="M6.943 7.68l-.522-.147-.263-.931 1-.047a1.326 1.326 0 0 1 .206.452 1.3 1.3 0 0 1 .032.2 1.165 1.165 0 0 1-.453.473z" data-name="Path 4184"/></g><g data-name="Group 1652"><path fill="#fff" stroke="#000" stroke-miterlimit="10" stroke-width="2" d="M7.564 4.786a2.568 2.568 0 0 1 1.3-.085c.778.163 1.112.663 2.479 1.355.21.106.383.186.489.234a1.973 1.973 0 0 1 .161 1.289c-.062.2-.093.595-.331.681a.569.569 0 0 1-.454-.118c-.288-.164-.7-.386-1.252-.656a5.219 5.219 0 0 1-1.869-1.678 5.045 5.045 0 0 1-.523-1.022z" data-name="Path 4185"/></g><g data-name="Group 1656" transform="translate(2.061 2.637)"><path fill="#fff" stroke="#000" stroke-miterlimit="10" stroke-width="2" d="M1.532 1.507l.513.461s.162-.213.312-.1.127.22.127.22.169-.24-.049-.384a.353.353 0 0 0-.417.031z" data-name="Path 4186"/><path fill="#fff" stroke="#000" stroke-miterlimit="10" stroke-width="2" d="M.034 3.444a.284.284 0 0 0 .12.2.214.214 0 0 0 .209 0s-.074.2-.257.122-.072-.322-.072-.322z" data-name="Path 4187"/><path fill="#fff" stroke="#000" stroke-miterlimit="10" stroke-width="2" d="M.151 1.982c.1 0 .205-.135.17-.351s-.146-.284-.229-.21-.04.561.059.561z" data-name="Path 4188"/><path fill="#fff" stroke="#000" stroke-miterlimit="10" stroke-width="2" d="M1.246.197c.022.1.177.17.38.088s.245-.206.155-.27-.557.085-.535.182z" data-name="Path 4189"/><ellipse cx=".141" cy=".25" fill="#fff" stroke="#000" stroke-miterlimit="10" stroke-width="2" data-name="Ellipse 110" rx=".141" ry=".25" transform="rotate(-51.9 1.863 -1.182)"/><ellipse cx=".141" cy=".25" fill="#fff" stroke="#000" stroke-miterlimit="10" stroke-width="2" data-name="Ellipse 111" rx=".141" ry=".25" transform="rotate(-43.45 2.927 -.017)"/><g data-name="Group 1654"><path fill="#fff" d="M2.859 2.373s.134.252.014.407a.384.384 0 0 1-.514.012z" data-name="Path 4190"/><g data-name="Group 1653"><path d="M2.605 2.521c0 .008.007.017.012.025-.015-.022-.022-.063-.008-.014l.013.042c0 .006.013.057.007.021s0 .017 0 .024c0 .027.018-.023 0 0l.019-.026c-.014.025-.024.013 0 0s.031 0 0 0-.019 0 0 0h-.051c.027 0 .033.009 0 0 0 0-.073-.022-.036-.008s-.013-.007-.02-.011-.032-.02-.047-.032l.059.461.5-.419a.3.3 0 0 0 0-.415.3.3 0 0 0-.415 0l-.5.419a.3.3 0 0 0 .059.461.613.613 0 0 0 .9-.821.295.295 0 1 0-.507.3z" data-name="Path 4191"/></g></g><g fill="#fff" stroke="#000" stroke-miterlimit="10" stroke-width="2" data-name="Group 1655" transform="translate(.349 .218)"><path d="M.246 2.527a.646.646 0 1 0-.087-.96.683.683 0 0 0 .087.96z" data-name="Path 4192"/><ellipse cx=".529" cy=".642" data-name="Ellipse 112" rx=".529" ry=".642" transform="rotate(-46.99 1.33 -.625)"/><path d="M1.502 1.33a.472.472 0 0 0-.271.358" data-name="Path 4193"/></g></g></g></g><circle cx="5.212" cy="5.212" r="5.212" fill="none" stroke="#000" stroke-miterlimit="10" stroke-width="2" data-name="Ellipse 114"/></g></g><g data-name="Group 1681"><g data-name="Group 1680" transform="translate(30.89 29.019)"><path fill="#ed0973" stroke="#273b8e" stroke-miterlimit="10" stroke-width="2.0003" d="M0 19.288L29.395-.015 55.25 39.356 25.855 58.659z" data-name="Rectangle 254"/><path fill="#fff" stroke="#273b8e" stroke-miterlimit="10" stroke-width="2.0003" d="M0 19.288L29.395-.015 38.92 14.49 9.526 33.793z" data-name="Rectangle 255"/><circle cx="5.304" cy="5.304" r="5.304" fill="#ed0973" stroke="#273b8e" stroke-miterlimit="10" stroke-width="2" data-name="Ellipse 115" transform="rotate(-45 25.745 -16.99)"/><path fill="#5a2c84" stroke="#2e2e84" stroke-miterlimit="10" stroke-width="2" d="M55.233 39.392L25.842 58.706l-1.286-1.99 29.456-19.19z" data-name="Path 4194"/><g data-name="Group 1672"><g fill="none" stroke="#fff" stroke-miterlimit="10" data-name="Group 1662"><path stroke-width="2" d="M46.721 32.138L22.488 48.071l-3.524-5.359L43.198 26.78z" data-name="Rectangle 256"/><g stroke-width=".2" data-name="Group 1661"><path d="M42.831 29.038L20.933 43.436" data-name="Line 100"/><path d="M43.762 30.454L21.864 44.852" data-name="Line 101"/><path d="M44.693 31.87L22.795 46.268" data-name="Line 102"/></g></g><g data-name="Group 1671"><g data-name="Group 1665"><g fill="#fff" data-name="Group 1664"><path d="M28.6 26.116l9.239-6.074a.777.777 0 0 0 .222-1.076.777.777 0 0 0-1.076-.222l-9.239 6.074a.777.777 0 0 0-.222 1.076.777.777 0 0 0 1.076.222z" data-name="Path 4195" opacity=".7"/><g stroke="#000" stroke-miterlimit="10" stroke-width="2" data-name="Group 1663"><path d="M38.457 21.017l-8.942 5.879" data-name="Line 103"/><path d="M39.243 22.213l-8.942 5.879" data-name="Line 104"/><path d="M40.029 23.409l-8.942 5.879" data-name="Line 105"/></g></g></g><g fill="none" stroke="#ed0973" stroke-miterlimit="10" data-name="Group 1670"><g stroke-width=".1" data-name="Group 1669"><path d="M7.102 23.717l7.629-5.016a.641.641 0 0 0 .184-.889h0a.641.641 0 0 0-.889-.184l-7.629 5.016a.642.642 0 0 0-.184.889h0a.642.642 0 0 0 .889.184z" data-name="Path 4196"/><g data-name="Group 1668"><g data-name="Group 1666"><path d="M15.241 19.506l-7.384 4.855" data-name="Line 106"/><path d="M15.89 20.493l-7.384 4.855" data-name="Line 107"/><path d="M16.539 21.481l-7.384 4.855" data-name="Line 108"/></g><g data-name="Group 1667"><path d="M17.212 22.504l-7.384 4.855" data-name="Line 109"/><path d="M17.861 23.491l-7.384 4.855" data-name="Line 110"/><path d="M18.51 24.479l-7.384 4.855" data-name="Line 111"/></g></g></g><path stroke-width="2" d="M22.213 16.59l-4.148-.437-2.39 1.571" data-name="Path 4197"/></g></g></g><g data-name="Group 1679" transform="translate(21.844 8.016)"><g clip-path="url(#b)" data-name="Group 1678"><g data-name="Group 1677" transform="translate(1.433 .249)"><path fill="#242662" d="M2.333 5.145l-.269-1.742c.24-.092 2.573-1.013 2.617-2.344 0-.142.024-.729-.342-.962a.919.919 0 0 0-.767-.016 2.088 2.088 0 0 0-.9.866s.035-.528-.2-.625a.272.272 0 0 0-.194.008c-.426.149-.747 1.107-.8 1.263A3.335 3.335 0 0 0-.005 4.038a2.716 2.716 0 0 0 .261 1.291A3.867 3.867 0 0 0 4.09 6.993L2.409 5.604z" data-name="Path 4198"/><path fill="#f49092" d="M5.479 4.61a7.293 7.293 0 0 0-1.141-2.068c-.186-.25-.318-.407-.318-.407a5.633 5.633 0 0 1-1.217.95 2.632 2.632 0 0 1-.772.277 3.115 3.115 0 0 1-.207 1.788s-.838.063-.818.7a.8.8 0 0 0 1.1.7.985.985 0 0 0 .379-.672s.714 1.275 1.579 1.069l.045.054a1.322 1.322 0 0 1 .607 1.02c.042.721-.732 1.258-.66 1.351a4.105 4.105 0 0 0 2.223-1.484c.828-.923 1.286-1.988 1.156-2.086-.039-.03-.249.1-.667.356a1.52 1.52 0 0 1-.555.272 1.078 1.078 0 0 1-.5-.04 1.463 1.463 0 0 1-.5-.254 1.762 1.762 0 0 0 .266-1.526z" data-name="Path 4199"/><path fill="#f3ece9" d="M6.053 6.296s.423.777-.07 1.19a1.434 1.434 0 0 1-1.658.246 7.8 7.8 0 0 0-.983 1.318 76.142 76.142 0 0 0 2.423 4.072q.714 1.121 1.432 2.164a14.967 14.967 0 0 0 4.7-2.4l-1.06-2.246-.971-2.052q-.583-.6-1.173-1.225-.732-.78-1.415-1.547a6.414 6.414 0 0 0-.69.236c-.194.076-.374.16-.535.244z" data-name="Path 4200"/><path fill="#fff" d="M6.194 13.875a1.181 1.181 0 0 1-.276-.182 13.29 13.29 0 0 1-1.71-1.769c-1.231-1.656-1.068-3.006-.622-2.951a1.925 1.925 0 0 1 1.1.513 11.559 11.559 0 0 1 2.153 3.284c.58.213-.437 1.235-.645 1.105z" data-name="Path 4201"/><path fill="#fff" d="M5.455 7.169l.14.957-1.415-.014a2.394 2.394 0 0 0 .1-.942l.965-.166.016-.836a2.545 2.545 0 0 0 .979.1l.253 1.128z" data-name="Path 4202"/><rect width=".09" height="3.018" fill="#242662" data-name="Rectangle 257" rx=".045" transform="scale(-1) rotate(-32.47 -28.813 11.192)"/><g fill="#242662" data-name="Group 1673"><path d="M5.979 8.426a1.165 1.165 0 0 0 .555-.349c.876.572 2.712 2.193 2.712 2.193a3.959 3.959 0 0 1-.058 1.556 6 6 0 0 1-1.739-.427 23.814 23.814 0 0 1-1.47-2.973z" data-name="Path 4203"/><path d="M5.98 8.421l-.468-.273-.021-.967.977.2a1.326 1.326 0 0 1 .086.489 1.3 1.3 0 0 1-.018.2 1.166 1.166 0 0 1-.556.351z" data-name="Path 4204"/></g><g data-name="Group 1674"><path fill="#fff" d="M7.306 5.778a2.567 2.567 0 0 1 1.282.244c.713.353.91.92 2.061 1.933.176.155.324.276.415.349a1.973 1.973 0 0 1-.167 1.288c-.111.183-.239.553-.491.576-.163.015-.3-.116-.41-.228a20.403 20.403 0 0 0-1.047-.948 5.219 5.219 0 0 1-1.388-2.093 5.03 5.03 0 0 1-.255-1.121z" data-name="Path 4205"/></g><g data-name="Group 1676" transform="translate(1.609 2.73)"><path fill="#cd3327" d="M2.014 1.432l.381.575s.21-.166.326-.016.068.244.068.244.224-.19.049-.384a.354.354 0 0 0-.412-.075z" data-name="Path 4206"/><path fill="#cd3327" d="M.077 2.932a.283.283 0 0 0 .066.223.213.213 0 0 0 .2.053.19.19 0 0 1-.279.053c-.154-.125.013-.329.013-.329z" data-name="Path 4207"/><path fill="#3d4c9d" d="M.558 1.546c.1.025.233-.079.252-.3S.739.934.641.985s-.179.536-.083.561z" data-name="Path 4208"/><path fill="#3d4c9d" d="M2.065.091c0 .1.129.209.346.18s.288-.138.217-.222-.556-.058-.563.042z" data-name="Path 4209"/><ellipse cx=".141" cy=".25" fill="#3d4c9d" data-name="Ellipse 116" rx=".141" ry=".25" transform="rotate(-37.34 2.574 -2.83)"/><ellipse cx=".141" cy=".25" fill="#3d4c9d" data-name="Ellipse 117" rx=".141" ry=".25" transform="rotate(-28.95 3.963 -1.441)"/><path fill="#fff7d0" d="M3.081 2.603s.067.277-.088.4a.384.384 0 0 1-.5-.117z" data-name="Path 4210"/><g fill="none" stroke="#000" stroke-miterlimit="10" stroke-width="2" data-name="Group 1675" transform="translate(.674 .289)"><path d="M.123 2.107a.646.646 0 1 0 .156-.951.683.683 0 0 0-.156.951z" data-name="Path 4211"/><ellipse cx=".529" cy=".642" data-name="Ellipse 118" rx=".529" ry=".642" transform="rotate(-32.47 1.563 -1.737)"/><path d="M1.643 1.263a.473.473 0 0 0-.352.279" data-name="Path 4212"/></g></g></g></g><circle cx="5.212" cy="5.212" r="5.212" fill="none" stroke="#000" stroke-miterlimit="10" stroke-width="2" data-name="Ellipse 120"/></g></g></g><g data-name="Group 1701"><path fill="#9fa1cf" stroke="#273b8e" stroke-miterlimit="10" stroke-width="2" d="M87.933 30.818l31.195 16.222L97.4 88.823 66.205 72.601z" data-name="Rectangle 258"/><path fill="#fff" stroke="#273b8e" stroke-miterlimit="10" d="M87.933 30.818l31.195 16.222-8.005 15.394-31.195-16.222z" data-name="Rectangle 259"/><path fill="#5a2c84" stroke="#2e2e84" stroke-miterlimit="10" stroke-width="2" d="M97.388 88.831l-31.215-16.2 1.108-2.094 31.138 16.319z" data-name="Path 4213"/><g data-name="Group 1693"><g fill="none" stroke="#fff" stroke-miterlimit="10" stroke-width="2" data-name="Group 1683"><path d="M99.557 77.86L73.813 64.505l2.953-5.692 25.744 13.354z" data-name="Rectangle 260"/><g data-name="Group 1682"><path d="M100.361 72.951L77.098 60.883" data-name="Line 112"/><path d="M99.58 74.455L76.317 62.387" data-name="Line 113"/><path d="M98.8 75.959L75.537 63.891" data-name="Line 114"/></g></g><g data-name="Group 1692"><g data-name="Group 1686"><g fill="none" stroke="#fff" stroke-miterlimit="10" stroke-width="2" data-name="Group 1685"><path d="M95.959 59.107l9.814 5.091a.777.777 0 0 0 1.048-.332h0a.777.777 0 0 0-.332-1.047l-9.814-5.091a.777.777 0 0 0-1.047.332h0a.777.777 0 0 0 .331 1.047z" data-name="Path 4214"/><g data-name="Group 1684"><path d="M105.22 65.216l-9.499-4.928" data-name="Line 115"/><path d="M104.561 66.486l-9.499-4.928" data-name="Line 116"/><path d="M103.902 67.757l-9.499-4.928" data-name="Line 117"/></g></g></g><g fill="none" stroke="#9fa1cf" stroke-miterlimit="10" stroke-width="2" data-name="Group 1691"><g data-name="Group 1690"><path d="M87.54 39.178l8.1 4.2a.642.642 0 0 0 .865-.274h0a.641.641 0 0 0-.274-.865l-8.1-4.2a.641.641 0 0 0-.865.274h0a.642.642 0 0 0 .274.865z" data-name="Path 4215"/><g data-name="Group 1689"><g data-name="Group 1687"><path d="M95.191 44.222l-7.844-4.069" data-name="Line 118"/><path d="M94.647 45.271l-7.844-4.069" data-name="Line 119"/><path d="M94.103 46.32l-7.844-4.069" data-name="Line 120"/></g><g data-name="Group 1688"><path d="M93.539 47.407l-7.844-4.069" data-name="Line 121"/><path d="M92.995 48.456l-7.844-4.069" data-name="Line 122"/><path d="M92.451 49.505l-7.844-4.069" data-name="Line 123"/></g></g></g><path d="M101.145 48.88l-1.647-3.833-2.539-1.317" data-name="Path 4216"/></g></g></g><g data-name="Group 1700" transform="translate(101.231 46.249)"><circle cx="5.212" cy="5.212" r="5.212" fill="#9fa1cf" data-name="Ellipse 121"/><g clip-path="url(#c)" data-name="Group 1699"><g data-name="Group 1698" transform="translate(-2.125 1.177)"><path fill="#242662" d="M6.473 2.863l1.389-1.086c.2.165 2.141 1.75 3.324 1.138.126-.065.647-.335.672-.769a.92.92 0 0 0-.361-.677 2.088 2.088 0 0 0-1.194-.358s.478-.227.448-.479a.272.272 0 0 0-.1-.166c-.338-.3-1.331-.11-1.492-.079a3.333 3.333 0 0 0-2.858-.1 2.716 2.716 0 0 0-1 .859 3.868 3.868 0 0 0 .422 4.158l.385-2.152z" data-name="Path 4217"/><path fill="#f49092" d="M8.476 5.345a7.3 7.3 0 0 0 1.247-2.006c.127-.285.2-.476.2-.476a5.628 5.628 0 0 1-1.423-.6 2.629 2.629 0 0 1-.62-.539 3.115 3.115 0 0 1-1.662.693s-.464-.7-1.013-.37a.8.8 0 0 0-.076 1.306.984.984 0 0 0 .771 0s-.763 1.245-.16 1.9l-.024.066a1.323 1.323 0 0 1-.593 1.028c-.609.389-1.455-.024-1.5.085a4.1 4.1 0 0 0 2.381 1.214 3.832 3.832 0 0 0 2.384-.011c.007-.049-.208-.168-.636-.407a1.516 1.516 0 0 1-.509-.351 1.082 1.082 0 0 1-.207-.452 1.465 1.465 0 0 1-.023-.562 1.762 1.762 0 0 0 1.463-.518z" data-name="Path 4218"/><path fill="#f3ece9" d="M7.286 6.671s-.471.748-1.073.521a1.434 1.434 0 0 1-1.025-1.326 7.8 7.8 0 0 0-1.631-.214 78.514 78.514 0 0 0-2.369 4.1Q.56 10.923 0 12.059a14.952 14.952 0 0 0 4.4 2.927l1.442-2.022 1.316-1.85q.236-.8.5-1.622.323-1.02.658-1.99a6.344 6.344 0 0 0-.543-.487 9.368 9.368 0 0 0-.487-.344z" data-name="Path 4219"/><path fill="#fff" d="M.731 10.451a1.173 1.173 0 0 1 .024-.33 13.284 13.284 0 0 1 .707-2.357c.844-1.883 2.1-2.4 2.271-1.985a1.923 1.923 0 0 1 .088 1.206 11.556 11.556 0 0 1-1.813 3.484c.1.617-1.285.226-1.277-.018z" data-name="Path 4220"/><rect width=".09" height="3.018" fill="#fff" stroke="#000" stroke-miterlimit="10" stroke-width="2" data-name="Rectangle 261" rx=".045" transform="rotate(-151.737 3.28 6.72)"/><g fill="#242662" data-name="Group 1694"><path d="M5.393 7.647a1.164 1.164 0 0 0 .575.314c-.071 1.043-.588 3.438-.588 3.438a3.966 3.966 0 0 1-1.386.71 6 6 0 0 1-.478-1.726 23.8 23.8 0 0 1 1.877-2.736z" data-name="Path 4221"/><path d="M5.393 7.647l.01-.542.833-.491.3.952a1.336 1.336 0 0 1-.385.314 1.278 1.278 0 0 1-.183.081 1.165 1.165 0 0 1-.575-.314z" data-name="Path 4222"/></g><g data-name="Group 1695"><path fill="#fff" d="M8.304 7.475a2.565 2.565 0 0 1 .414 1.238c.041.794-.358 1.244-.679 2.743-.049.23-.083.418-.1.533a1.973 1.973 0 0 1-1.206.483c-.214-.008-.6.062-.743-.147a.57.57 0 0 1 0-.469c.086-.32.2-.772.316-1.377a5.218 5.218 0 0 1 1.148-2.234 5.026 5.026 0 0 1 .85-.77z" data-name="Path 4223"/></g><g data-name="Group 1697" transform="translate(5.409 2.079)"><path fill="#cd3327" d="M2.551 1.428l-.315.614s.248.1.173.277-.18.178-.18.178.275.1.359-.145a.354.354 0 0 0-.136-.4z" data-name="Path 4224"/><path fill="#cd3327" d="M.298.472a.284.284 0 0 0-.162.167.213.213 0 0 0 .052.2S-.029.82.005.622s.293-.15.293-.15z" data-name="Path 4225"/><path fill="#242662" d="M1.74.213c.025.1.183.164.383.075s.237-.214.145-.275-.553.104-.528.2z" data-name="Path 4226"/><path fill="#242662" d="M3.745.818c-.088.046-.119.215.011.39s.261.184.3.081-.223-.521-.311-.471z" data-name="Path 4227"/><ellipse cx=".25" cy=".141" fill="#242662" data-name="Ellipse 122" rx=".25" ry=".141" transform="rotate(-66.635 2.851 -1.24)"/><ellipse cx=".25" cy=".141" fill="#242662" data-name="Ellipse 123" rx=".25" ry=".141" transform="rotate(-58.2 1.965 -.812)"/><path fill="#fff" d="M2.051 2.93s-.209.194-.39.117a.384.384 0 0 1-.143-.494z" data-name="Path 4228"/><g fill="none" stroke="#000" stroke-miterlimit="10" stroke-width=".2" data-name="Group 1696" transform="translate(1.021 .439)"><path d="M.094.397A.646.646 0 1 0 1 .069a.683.683 0 0 0-.906.328z" data-name="Path 4229"/><ellipse cx=".642" cy=".529" data-name="Ellipse 124" rx=".642" ry=".529" transform="rotate(-61.72 2.09 -.276)"/><path d="M1.571 1.308a.472.472 0 0 0-.415-.17" data-name="Path 4230"/></g></g><path fill="#fff" d="M6.232 6.575l-.767.59-.679-1.241a2.4 2.4 0 0 0 .869-.375l.617.761.737-.394a2.494 2.494 0 0 0 .087.3 2.558 2.558 0 0 0 .306.6l-.86.772z" data-name="Path 4231"/></g></g><circle cx="5.212" cy="5.212" r="5.212" fill="none" stroke="#273b8e" stroke-miterlimit="10" data-name="Ellipse 126"/></g></g><g data-name="Group 1721" transform="translate(61.654 30.178)"><path fill="#cc6eaa" stroke="#273b8e" stroke-miterlimit="10" stroke-width="2" d="M1.609 0l35.14 1.188-1.59 47.068L.018 47.068z" data-name="Rectangle 262"/><path fill="#fff" stroke="#273b8e" stroke-miterlimit="10" stroke-width="2" d="M1.609 0l35.14 1.188-.585 17.34-35.141-1.187z" data-name="Rectangle 263"/><circle cx="5.304" cy="5.304" r="5.304" fill="#cc6eaa" data-name="Ellipse 127" transform="rotate(-45 22.705 -18.468)"/><path fill="#5a2c84" stroke="#2e2e84" stroke-miterlimit="10" stroke-width="2" d="M35.15 48.268L0 47.106l.1-2.367 35.131 1.3z" data-name="Path 4232"/><g data-name="Group 1713"><g fill="none" stroke="#fff" stroke-miterlimit="10" stroke-width="2" data-name="Group 1703"><path stroke-width="1.99908" d="M32.377 37.435l-28.973-.957.212-6.407 28.973.957z" data-name="Rectangle 264"/><g data-name="Group 1702"><path d="M30.986 32.659l-26.193-.86" data-name="Line 124"/><path d="M30.931 34.353l-26.193-.86" data-name="Line 125"/><path d="M30.875 36.046l-26.193-.86" data-name="Line 126"/></g></g><g data-name="Group 1712"><g data-name="Group 1706"><g fill="#fff" data-name="Group 1705"><path d="M21.043 22.068l11.05.363a.777.777 0 0 0 .8-.751.777.777 0 0 0-.751-.8l-11.05-.363a.777.777 0 0 0-.8.751.777.777 0 0 0 .751.8z" data-name="Path 4233" opacity=".55"/><g stroke="#000" stroke-miterlimit="10" stroke-width="2" data-name="Group 1704"><path d="M32.036 23.584l-10.695-.351" data-name="Line 127"/><path d="M31.989 25.014l-10.695-.351" data-name="Line 128"/><path d="M31.942 26.445l-10.695-.351" data-name="Line 129"/></g></g></g><g fill="#fff" stroke="#000" stroke-miterlimit="10" stroke-width="2" data-name="Group 1711"><g data-name="Group 1710"><path d="M4.858 7.713l9.125.3a.642.642 0 0 0 .662-.62h0a.642.642 0 0 0-.62-.662l-9.125-.3a.642.642 0 0 0-.662.62h0a.642.642 0 0 0 .62.662z" data-name="Path 4234"/><g data-name="Group 1709"><g data-name="Group 1707"><path d="M13.938 8.965l-8.832-.29" data-name="Line 130"/><path d="M13.899 10.146l-8.832-.29" data-name="Line 131"/><path d="M13.86 11.327l-8.832-.29" data-name="Line 132"/></g><g data-name="Group 1708"><path d="M13.82 12.551l-8.832-.29" data-name="Line 133"/><path d="M13.781 13.732l-8.832-.29" data-name="Line 134"/><path d="M13.742 14.913l-8.832-.29" data-name="Line 135"/></g></g></g><path d="M21.316 10.602l-3.138-2.748-2.859-.094" data-name="Path 4235"/></g></g></g><g data-name="Group 1720" transform="translate(21.998 5.434)"><g clip-path="url(#d)" data-name="Group 1719"><g data-name="Group 1718" transform="translate(1.546 .547)"><path fill="#5a2c84" d="M2.38 3.98l.785-1.579c.249.063 2.687.656 3.49-.406.085-.113.44-.582.275-.983a.92.92 0 0 0-.617-.455 2.089 2.089 0 0 0-1.232.191s.333-.411.2-.626a.273.273 0 0 0-.163-.106c-.434-.124-1.249.474-1.38.572a3.335 3.335 0 0 0-2.622 1.143 2.72 2.72 0 0 0-.531 1.205 3.867 3.867 0 0 0 2.173 3.57l-.58-2.108z" data-name="Path 4236"/><path fill="#f49092" d="M5.258 5.356a7.3 7.3 0 0 0 .26-2.347c-.008-.312-.025-.516-.025-.516a5.635 5.635 0 0 1-1.542.074 2.636 2.636 0 0 1-.791-.219 3.115 3.115 0 0 1-1.2 1.342s-.72-.431-1.074.1a.8.8 0 0 0 .495 1.211.985.985 0 0 0 .7-.33s-.152 1.453.674 1.783l.006.07a1.321 1.321 0 0 1-.092 1.183c-.381.614-1.323.606-1.318.724a4.1 4.1 0 0 0 2.672.068c1.209-.277 2.2-.883 2.147-1.038-.015-.047-.26-.062-.75-.093a1.517 1.517 0 0 1-.611-.1 1.077 1.077 0 0 1-.381-.318 1.464 1.464 0 0 1-.263-.5 1.762 1.762 0 0 0 1.093-1.094z" data-name="Path 4237"/><path fill="#f3ece9" d="M4.755 7.066s-.1.878-.743.932a1.434 1.434 0 0 1-1.5-.755 7.827 7.827 0 0 0-1.564.51 77.01 77.01 0 0 0-.368 4.724q-.063 1.328-.078 2.594a14.955 14.955 0 0 0 5.228.746l.429-2.447.39-2.236q-.133-.823-.252-1.677-.148-1.059-.264-2.079a6.357 6.357 0 0 0-.7-.2 5.038 5.038 0 0 0-.578-.112z" data-name="Path 4238"/><path fill="#fff" d="M.501 13.34a1.175 1.175 0 0 1-.121-.308 13.308 13.308 0 0 1-.378-2.431c-.051-2.063.861-3.072 1.193-2.77a1.925 1.925 0 0 1 .6 1.051 11.564 11.564 0 0 1-.134 3.924c.356.511-1.062.757-1.16.534z" data-name="Path 4239"/><path fill="#fff" d="M3.764 7.434l-.437.863-1.148-.827a2.391 2.391 0 0 0 .623-.714l.885.42.495-.673a2.557 2.557 0 0 0 .744.645l-.443 1.068z" data-name="Path 4240"/><rect width=".09" height="3.018" fill="#fff" stroke="#000" stroke-miterlimit="10" stroke-width="2" data-name="Rectangle 265" rx=".045" transform="rotate(-177.44 2.248 7.803)"/><g fill="#5a2c84" data-name="Group 1714"><path d="M3.469 8.763a1.165 1.165 0 0 0 .654.035c.385.972.951 3.355.951 3.355a3.961 3.961 0 0 1-.944 1.239 6 6 0 0 1-1.175-1.351 23.794 23.794 0 0 1 .514-3.278z" data-name="Path 4241"/><path d="M3.468 8.763l-.225-.493.541-.8.681.73a1.326 1.326 0 0 1-.212.449 1.258 1.258 0 0 1-.129.152 1.166 1.166 0 0 1-.656-.038z" data-name="Path 4242"/></g><g data-name="Group 1715"><path fill="#fff" d="M6.078 7.365a2.566 2.566 0 0 1 .907.939c.379.7.213 1.276.57 2.768.054.229.105.413.138.524a1.972 1.972 0 0 1-.879.956c-.2.085-.514.314-.733.188-.142-.082-.174-.265-.2-.422a21.624 21.624 0 0 0-.309-1.379 5.213 5.213 0 0 1 .072-2.511 5.026 5.026 0 0 1 .434-1.063z" data-name="Path 4243"/></g><g data-name="Group 1717" transform="translate(1.346 2.766)"><path fill="#cd3327" d="M2.654 1.154l-.02.69s.267-.014.276.175-.086.239-.086.239.292-.026.261-.286a.353.353 0 0 0-.293-.3z" data-name="Path 4244"/><path fill="#cd3327" d="M.207 1.264a.286.286 0 0 0-.075.22.214.214 0 0 0 .135.16s-.2.076-.259-.117.199-.263.199-.263z" data-name="Path 4245"/><path fill="#5a2c84" d="M1.394.412c.064.076.236.069.377-.1s.122-.3.012-.31-.45.331-.389.41z" data-name="Path 4246"/><path fill="#5a2c84" d="M3.468.089c-.06.079-.015.245.178.346s.315.054.305-.056-.423-.369-.483-.29z" data-name="Path 4247"/><ellipse cx=".141" cy=".25" fill="#5a2c84" data-name="Ellipse 128" rx=".141" ry=".25" transform="matrix(.999 -.038 .038 .999 3.103 .92)"/><ellipse cx=".25" cy=".141" fill="#5a2c84" data-name="Ellipse 129" rx=".25" ry=".141" transform="rotate(-83.758 1.672 -.263)"/><path fill="#fff" d="M2.851 2.726s-.105.265-.3.274-.339-.215-.342-.384z" data-name="Path 4248"/><g fill="none" stroke="#000" stroke-miterlimit="10" stroke-width=".2" data-name="Group 1716" transform="translate(1.103 .552)"><path d="M.001.687A.646.646 0 1 0 .677 0a.683.683 0 0 0-.676.687z" data-name="Path 4249"/><ellipse cx=".642" cy=".529" data-name="Ellipse 130" rx=".642" ry=".529" transform="rotate(-87.275 1.536 -.224)"/><path d="M1.725.871a.473.473 0 0 0-.448.025" data-name="Path 4250"/></g></g></g></g><circle cx="5.212" cy="5.212" r="5.212" fill="none" stroke="#000" stroke-miterlimit="10" data-name="Ellipse 132"/></g></g></g><g data-name="Group 1723"><path fill="#ea2e26" d="M69.583 66.38l3.426 5.937a.148.148 0 0 0 .273-.074 5.681 5.681 0 0 1 4.443-5.05c.185-.038.107-.321-.078-.283a5.976 5.976 0 0 0-4.658 5.333l.273-.074-3.426-5.937a.147.147 0 0 0-.253.148z" data-name="Path 4251"/></g></g><g data-name="Group 1729"><path fill="#242662" d="M66.123 95.032q-3.854 10.627-7.755 21.238a1.737 1.737 0 0 0 .718.6c.115.055.246.111.4.167 1.061.385 1.35.13 1.35.13l13.979-38.638a45.278 45.278 0 0 0-.728-5.616q-3.956 11.068-7.964 22.119z" data-name="Path 4252" opacity=".66"/><g data-name="Group 1728"><path fill="#ea2e26" d="M71.722 75.649l2.472.888-13.283 36.98-2.472-.889z" data-name="Rectangle 266"/><path fill="#fbf2d5" d="M58.418 112.628l-1.125 3.128s.059.381 1.122.763 1.35.126 1.35.126l1.125-3.128z" data-name="Path 4253"/><g data-name="Group 1725"><path fill="#fff" stroke="#000" stroke-miterlimit="10" stroke-width="1.99972" d="M58.966 112.824l13.283-36.98.14.051-13.282 36.98z" data-name="Rectangle 267"/></g><g data-name="Group 1726"><path fill="#fff" stroke="#000" stroke-miterlimit="10" stroke-width="2" d="M59.591 113.049l13.291-36.982.141.05-13.29 36.983z" data-name="Rectangle 268"/></g><g data-name="Group 1727"><path fill="#fff" stroke="#000" stroke-miterlimit="10" stroke-width="2" d="M60.224 113.277l13.287-36.984.14.05-13.286 36.985z" data-name="Rectangle 269"/></g><path fill="#242662" d="M58.421 112.628l2.472.89-.118.327-2.472-.89z" data-name="Rectangle 270"/><path fill="#ba2025" d="M73.366 76.24l-14.534 40.406c.724.184.936 0 .936 0l1.007-2.8.118-.328 13.3-36.979z" data-name="Path 4254" opacity=".45"/><path fill="#fbf2d5" d="M71.722 75.649l2.377-2.727.095 3.616z" data-name="Path 4255"/><path fill="#ea2e26" d="M74.099 72.922l-.6.687.623.224z" data-name="Path 4256"/></g></g><g data-name="Group 1778"><g data-name="Group 1732"><g clip-path="url(#e)" data-name="Group 1731" transform="translate(65.894 36.592)"><g data-name="Group 1730"><path fill="#a12545" d="M49.374 41.472c-4.492-3.4-11.546-11.316-13.919-14.182a10.687 10.687 0 0 0-4.127-3.106 9.2 9.2 0 0 0-4.4-.536c-8.16.57-12.24.854-13.1 2.216-2.713 4.281 4.083 13.443 4.876 13.168a.249.249 0 0 0 .12-.083c.992-1.149 1.032-2.216.226-4.441s3.448 2.977 3.662 5.18 8.7 10 16.146 10.868 37.2 22.691 37.2 22.691c4.849.952 9.779-.177 12.364-3.361 3.892-4.792 2.567-14.354-5.39-19.828a154 154 0 0 1-15.38-2.686c-9.985-2.267-14.976-3.401-18.278-5.9z" data-name="Path 4257" opacity=".52"/><path fill="#ee765e" d="M50.427 45.326c-4.492-3.4-11.546-11.316-13.919-14.182a10.689 10.689 0 0 0-4.127-3.106 9.191 9.191 0 0 0-4.4-.535c-8.16.569-12.241.854-13.1 2.216-2.713 4.281 4.083 13.443 4.876 13.168a.249.249 0 0 0 .12-.083 3.17 3.17 0 0 0 .68-1.171 7.876 7.876 0 0 0-.454-3.271c-.373-1.21-1.026-3.726-.692-3.9.495-.257 3.073 4.693 5.8 8.105 2.639 3.3 7.288 7.5 15.977 10.4l35.92 24.137c4.849.953 9.779-.177 12.364-3.361 3.892-4.792 2.567-14.354-5.39-19.828a154.068 154.068 0 0 1-15.38-2.685c-9.982-2.271-14.972-3.405-18.275-5.904z" data-name="Path 4258"/><path fill="#a12545" d="M20.021 29.437c2.8-1.087 7.869-.877 12.425 2.607 4.4 3.364 4.068 7.314 4.965 10.373 1 3.4-8.255 1.359-12.547-2.892s-7.933-8.889-4.843-10.088z" data-name="Path 4259" opacity=".52"/></g></g></g><g data-name="Group 1776" transform="translate(42.644 17.54)"><path fill="#242662" d="M61.186 68.925a3.429 3.429 0 0 1-4.811-.482l-20.526-25.1c-1.191-1.456.78-1.382 2.235-2.573l.518-.287c1.456-1.191 1.35-2.925 2.54-1.47l20.526 25.1a3.429 3.429 0 0 1-.482 4.812z" data-name="Path 4260"/><g data-name="Group 1775"><g clip-path="url(#f)" data-name="Group 1774"><g data-name="Group 1753"><g data-name="Group 1752" transform="translate(-11.613 3.718)"><path fill="#ed0973" stroke="#273b8e" stroke-miterlimit="10" stroke-width="2.0003" d="M0 21.656L33.004-.018l29.03 44.205-33.005 21.674z" data-name="Rectangle 271"/><path fill="#fff" stroke="#273b8e" stroke-miterlimit="10" stroke-width="2.0003" d="M0 21.656L33.004-.018 43.7 16.269 10.696 37.943z" data-name="Rectangle 272"/><circle cx="5.956" cy="5.956" r="5.956" fill="#ed0973" stroke="#273b8e" stroke-miterlimit="10" stroke-width="2" data-name="Ellipse 134" transform="rotate(-45 28.905 -19.076)"/><path fill="#5a2c84" stroke="#2e2e84" stroke-miterlimit="10" stroke-width="2" d="M62.014 44.229l-33 21.685-1.444-2.234 33.073-21.546z" data-name="Path 4261"/><g data-name="Group 1744"><g fill="none" stroke="#fff" stroke-miterlimit="10" stroke-width="2" data-name="Group 1734"><path d="M52.458 36.084l-27.209 17.89-3.955-6.017 27.209-17.89z" data-name="Rectangle 273"/><g data-name="Group 1733"><path d="M48.09 32.603L23.504 48.768" data-name="Line 136"/><path d="M49.135 34.193L24.549 50.358" data-name="Line 137"/><path d="M50.18 35.783L25.594 51.948" data-name="Line 138"/></g></g><g data-name="Group 1743"><g data-name="Group 1737"><g fill="#fff" data-name="Group 1736"><path d="M32.111 29.323l10.373-6.82a.873.873 0 0 0 .25-1.208.873.873 0 0 0-1.208-.25l-10.373 6.82a.872.872 0 0 0-.25 1.208.872.872 0 0 0 1.208.25z" data-name="Path 4262" opacity=".7"/><g stroke="#000" stroke-miterlimit="10" stroke-width="2" data-name="Group 1735"><path d="M43.179 23.598L33.14 30.199" data-name="Line 139"/><path d="M44.062 24.941l-10.039 6.601" data-name="Line 140"/><path d="M44.944 26.283l-10.039 6.601" data-name="Line 141"/></g></g></g><g fill="none" stroke="#ed0973" stroke-miterlimit="10" stroke-width="2" data-name="Group 1742"><g data-name="Group 1741"><path d="M7.973 26.629l8.565-5.632a.72.72 0 0 0 .206-1h0a.721.721 0 0 0-1-.206l-8.565 5.632a.721.721 0 0 0-.206 1h0a.72.72 0 0 0 1 .206z" data-name="Path 4263"/><g data-name="Group 1740"><g data-name="Group 1738"><path d="M17.112 21.901l-8.29 5.451" data-name="Line 142"/><path d="M17.841 23.01l-8.29 5.451" data-name="Line 143"/><path d="M18.57 24.118l-8.29 5.451" data-name="Line 144"/></g><g data-name="Group 1739"><path d="M19.325 25.267l-8.29 5.451" data-name="Line 145"/><path d="M20.054 26.376l-8.29 5.451" data-name="Line 146"/><path d="M20.783 27.484l-8.29 5.451" data-name="Line 147"/></g></g></g><path d="M24.94 18.63l-4.658-.49-2.683 1.764" data-name="Path 4264"/></g></g></g><g data-name="Group 1751" transform="translate(24.526 9)"><g clip-path="url(#g)" data-name="Group 1750"><g data-name="Group 1749" transform="translate(1.609 .28)"><path fill="#242662" d="M2.62 5.776l-.3-1.956c.27-.1 2.889-1.137 2.939-2.631.005-.159.027-.818-.384-1.08a1.033 1.033 0 0 0-.861-.018 2.344 2.344 0 0 0-1.006.973s.04-.593-.224-.7a.306.306 0 0 0-.218.009c-.478.167-.839 1.243-.9 1.418A3.744 3.744 0 0 0 .001 4.536a3.05 3.05 0 0 0 .293 1.449c.637 1.281 2.351 2 4.3 1.868l-1.9-1.558z" data-name="Path 4265"/><path fill="#f49092" d="M6.151 5.176A8.193 8.193 0 0 0 4.87 2.854c-.209-.281-.357-.457-.357-.457a6.33 6.33 0 0 1-1.366 1.066 2.956 2.956 0 0 1-.867.311 3.5 3.5 0 0 1-.233 2.008s-.94.071-.918.79a.9.9 0 0 0 1.238.791 1.106 1.106 0 0 0 .426-.754s.8 1.431 1.773 1.2l.051.06a1.485 1.485 0 0 1 .682 1.145c.047.81-.822 1.412-.741 1.517a4.61 4.61 0 0 0 2.5-1.667c.93-1.037 1.443-2.232 1.3-2.342-.044-.033-.279.111-.748.4a1.7 1.7 0 0 1-.623.306 1.211 1.211 0 0 1-.556-.045 1.646 1.646 0 0 1-.563-.286 1.978 1.978 0 0 0 .283-1.721z" data-name="Path 4266"/><path fill="#f3ece9" d="M6.797 7.07s.474.872-.079 1.336a1.611 1.611 0 0 1-1.862.276 8.752 8.752 0 0 0-1.1 1.48 86.412 86.412 0 0 0 2.72 4.572q.8 1.258 1.607 2.43a16.794 16.794 0 0 0 5.279-2.7l-1.19-2.522c-.344-.729-.744-1.575-1.09-2.3q-.654-.67-1.317-1.375-.821-.876-1.588-1.737a7.206 7.206 0 0 0-.775.265c-.223.086-.424.18-.605.275z" data-name="Path 4267"/><path fill="#fff" d="M6.954 15.578a1.326 1.326 0 0 1-.311-.2 14.91 14.91 0 0 1-1.92-1.986c-1.382-1.86-1.2-3.375-.7-3.313a2.161 2.161 0 0 1 1.23.576 12.976 12.976 0 0 1 2.418 3.687c.659.236-.482 1.379-.717 1.236z" data-name="Path 4268"/><path fill="#fff" d="M6.124 8.048l.157 1.075-1.588-.016a2.692 2.692 0 0 0 .109-1.058l1.083-.187.018-.938a2.835 2.835 0 0 0 .347.082 2.882 2.882 0 0 0 .753.028L7.288 8.3z" data-name="Path 4269"/><rect width=".101" height="3.388" fill="#242662" data-name="Rectangle 274" rx=".051" transform="scale(-1) rotate(-32.47 -32.35 12.566)"/><g fill="#242662" data-name="Group 1745"><path d="M6.714 9.456a1.307 1.307 0 0 0 .623-.392c.983.642 3.045 2.463 3.045 2.463a4.442 4.442 0 0 1-.065 1.747 6.733 6.733 0 0 1-1.952-.479 26.736 26.736 0 0 1-1.651-3.339z" data-name="Path 4270"/><path d="M6.714 9.46l-.526-.307-.024-1.086 1.1.229a1.5 1.5 0 0 1 .1.549 1.471 1.471 0 0 1-.021.223 1.309 1.309 0 0 1-.629.392z" data-name="Path 4271"/></g><g data-name="Group 1746"><path fill="#fff" d="M8.203 6.488a2.882 2.882 0 0 1 1.44.274c.8.4 1.022 1.033 2.314 2.171.2.175.364.31.466.392a2.216 2.216 0 0 1-.188 1.446c-.125.205-.268.621-.551.647-.184.017-.332-.13-.46-.256a23.86 23.86 0 0 0-1.176-1.065 5.859 5.859 0 0 1-1.559-2.35 5.645 5.645 0 0 1-.286-1.259z" data-name="Path 4272"/></g><g data-name="Group 1748" transform="translate(1.806 3.065)"><path fill="#cd3327" d="M2.261 1.608l.428.646s.236-.186.366-.018.076.274.076.274.251-.213.055-.431a.4.4 0 0 0-.462-.084z" data-name="Path 4273"/><path fill="#cd3327" d="M.088 3.291a.319.319 0 0 0 .074.25.239.239 0 0 0 .226.059.213.213 0 0 1-.313.06c-.176-.14.013-.369.013-.369z" data-name="Path 4274"/><path fill="#3d4c9d" d="M.625 1.736c.108.028.261-.089.283-.333s-.079-.35-.189-.293-.201.598-.094.626z" data-name="Path 4275"/><path fill="#3d4c9d" d="M2.319.099c0 .111.145.235.388.2s.324-.155.244-.25-.632-.057-.632.05z" data-name="Path 4276"/><ellipse cx=".158" cy=".28" fill="#3d4c9d" data-name="Ellipse 135" rx=".158" ry=".28" transform="rotate(-37.34 2.89 -3.179)"/><ellipse cx=".158" cy=".28" fill="#3d4c9d" data-name="Ellipse 136" rx=".158" ry=".28" transform="rotate(-28.95 4.45 -1.62)"/><path fill="#fff7d0" d="M3.459 2.922s.075.311-.1.447a.431.431 0 0 1-.562-.131z" data-name="Path 4277"/><g fill="none" stroke="#000" stroke-miterlimit="10" stroke-width="2" data-name="Group 1747" transform="translate(.756 .324)"><path d="M.138 2.365a.726.726 0 1 0 .176-1.068.767.767 0 0 0-.176 1.068z" data-name="Path 4278"/><ellipse cx=".594" cy=".721" data-name="Ellipse 137" rx=".594" ry=".721" transform="rotate(-32.47 1.756 -1.949)"/><path d="M1.84 1.418a.531.531 0 0 0-.395.313" data-name="Path 4279"/></g></g></g></g><circle cx="5.852" cy="5.852" r="5.852" fill="none" stroke="#000" stroke-miterlimit="10" stroke-width="2" data-name="Ellipse 139"/></g></g></g><g data-name="Group 1773" transform="translate(21.875 -6.798)"><path fill="#cc6eaa" stroke="#273b8e" stroke-miterlimit="10" stroke-width="2.00052" d="M0 9.95L38.216.001 51.54 51.186l-38.216 9.949z" data-name="Rectangle 275"/><path fill="#fff" stroke="#273b8e" stroke-miterlimit="10" stroke-width="2.00052" d="M0 9.95L38.216.001l4.91 18.859-38.217 9.949z" data-name="Rectangle 276"/><circle cx="5.956" cy="5.956" r="5.956" fill="#cc6eaa" data-name="Ellipse 140" transform="rotate(-45 27.235 -20.588)"/><path fill="#5a2c84" stroke="#2e2e84" stroke-miterlimit="10" stroke-width="2" d="M51.525 51.187l-38.2 9.98-.653-2.579 38.229-9.826z" data-name="Path 4280"/><g data-name="Group 1765"><g fill="none" stroke="#fff" stroke-miterlimit="10" stroke-width="2" data-name="Group 1755"><path stroke-width="1.9991" d="M45.079 40.412L13.591 48.65l-1.822-6.962 31.488-8.238z" data-name="Rectangle 277"/><g data-name="Group 1754"><path d="M42.055 35.715l-28.467 7.444" data-name="Line 148"/><path d="M42.536 37.556L14.069 45" data-name="Line 149"/><path d="M43.018 39.396L14.551 46.84" data-name="Line 150"/></g></g><g data-name="Group 1764"><g data-name="Group 1758"><g fill="#fff" data-name="Group 1757"><path d="M27.969 27.493l12.01-3.141a.872.872 0 0 0 .624-1.065.873.873 0 0 0-1.065-.623l-12.01 3.141a.873.873 0 0 0-.624 1.065.873.873 0 0 0 1.065.623z" data-name="Path 4281" opacity=".55"/><g stroke="#000" stroke-miterlimit="10" stroke-width="2" data-name="Group 1756"><path d="M40.286 25.612l-11.624 3.04" data-name="Line 151"/><path d="M40.692 27.167l-11.624 3.04" data-name="Line 152"/><path d="M41.099 28.721l-11.624 3.04" data-name="Line 153"/></g></g></g><g fill="#fff" stroke="#000" stroke-miterlimit="10" stroke-width="2" data-name="Group 1763"><g data-name="Group 1762"><path d="M5.962 17.211l9.917-2.593a.72.72 0 0 0 .514-.879h0a.72.72 0 0 0-.879-.515l-9.917 2.593a.721.721 0 0 0-.515.879h0a.721.721 0 0 0 .88.515z" data-name="Path 4282"/><g data-name="Group 1761"><g data-name="Group 1759"><path d="M16.133 15.661l-9.599 2.51" data-name="Line 154"/><path d="M16.469 16.945l-9.599 2.51" data-name="Line 155"/><path d="M16.804 18.228l-9.599 2.51" data-name="Line 156"/></g><g data-name="Group 1760"><path d="M17.152 19.558l-9.599 2.51" data-name="Line 157"/><path d="M17.488 20.842l-9.599 2.51" data-name="Line 158"/><path d="M17.823 22.125l-9.599 2.51" data-name="Line 159"/></g></g></g><path d="M24.598 15.065l-4.256-1.955-3.106.812" data-name="Path 4283"/></g></g></g><g data-name="Group 1772" transform="translate(25.105 7.376)"><g clip-path="url(#h)" data-name="Group 1771"><g data-name="Group 1770" transform="translate(1.958 .385)"><path fill="#5a2c84" d="M2.291 5.14l.341-1.95c.288-.012 3.1-.153 3.626-1.552.056-.149.288-.767-.018-1.146a1.031 1.031 0 0 0-.81-.293 2.345 2.345 0 0 0-1.265.6s.228-.549.013-.737a.305.305 0 0 0-.209-.061c-.507.005-1.192.909-1.3 1.057A3.744 3.744 0 0 0 .213 3.126a3.053 3.053 0 0 0-.186 1.467c.194 1.418 1.588 2.645 3.48 3.148l-1.3-2.083z" data-name="Path 4284"/><path fill="#f49092" d="M5.828 5.702a8.19 8.19 0 0 0-.47-2.61c-.108-.333-.192-.547-.192-.547a6.321 6.321 0 0 1-1.636.573 2.954 2.954 0 0 1-.921.017 3.5 3.5 0 0 1-.863 1.828s-.914-.234-1.123.454a.9.9 0 0 0 .919 1.145 1.106 1.106 0 0 0 .645-.578s.3 1.612 1.3 1.7l.029.073a1.484 1.484 0 0 1 .279 1.3c-.214.782-1.23 1.075-1.187 1.2a4.611 4.611 0 0 0 2.9-.78c1.212-.684 2.082-1.653 1.979-1.8-.031-.046-.3.016-.837.139a1.7 1.7 0 0 1-.688.09 1.21 1.21 0 0 1-.512-.221 1.658 1.658 0 0 1-.442-.451 1.979 1.979 0 0 0 .82-1.532z" data-name="Path 4285"/><path fill="#f3ece9" d="M5.833 7.703s.17.978-.5 1.241a1.61 1.61 0 0 1-1.852-.335 8.771 8.771 0 0 0-1.52 1.049c.3 1.667.67 3.4 1.114 5.2q.357 1.449.745 2.817a16.8 16.8 0 0 0 5.865-.868l-.32-2.77c-.093-.8-.2-1.73-.295-2.532q-.406-.844-.807-1.725-.5-1.093-.948-2.154a7.153 7.153 0 0 0-.819 0c-.24.02-.46.046-.663.077z" data-name="Path 4286"/><path fill="#fff" d="M3.26 15.815a1.326 1.326 0 0 1-.229-.293 14.936 14.936 0 0 1-1.184-2.5c-.714-2.2-.055-3.582.4-3.363a2.16 2.16 0 0 1 .981.939 12.977 12.977 0 0 1 1.11 4.267c.546.441-.902 1.159-1.078.95z" data-name="Path 4287"/><path fill="#fff" d="M4.884 8.415l-.2 1.069-1.5-.523a2.69 2.69 0 0 0 .442-.967l1.086.17.318-.883a2.867 2.867 0 0 0 1.007.456l-.136 1.291z" data-name="Path 4288"/><rect width=".101" height="3.388" fill="#fff" stroke="#000" stroke-miterlimit="10" stroke-width="2" data-name="Rectangle 278" rx=".051" transform="rotate(166.17 2.912 9.082)"/><g fill="#5a2c84" data-name="Group 1766"><path d="M4.99 9.941a1.308 1.308 0 0 0 .715-.172c.726.923 2.1 3.308 2.1 3.308a4.448 4.448 0 0 1-.621 1.635 6.734 6.734 0 0 1-1.7-1.079 26.709 26.709 0 0 1-.494-3.692z" data-name="Path 4289"/><path d="M4.99 9.94l-.4-.459.325-1.036.966.568a1.5 1.5 0 0 1-.084.551 1.445 1.445 0 0 1-.091.2 1.309 1.309 0 0 1-.716.176z" data-name="Path 4290"/></g><g data-name="Group 1767"><path fill="#fff" d="M7.353 7.601a2.883 2.883 0 0 1 1.276.72c.632.631.637 1.306 1.5 2.8.132.229.246.41.316.52a2.214 2.214 0 0 1-.641 1.31c-.184.154-.453.5-.729.437-.18-.042-.273-.23-.354-.39a23.339 23.339 0 0 0-.773-1.385 5.858 5.858 0 0 1-.725-2.725 5.666 5.666 0 0 1 .13-1.287z" data-name="Path 4291"/></g><g data-name="Group 1769" transform="translate(1.254 3.116)"><path fill="#cd3327" d="M2.762 1.444l.2.749s.283-.1.352.1-.016.284-.016.284.306-.122.19-.391a.4.4 0 0 0-.411-.228z" data-name="Path 4292"/><path fill="#cd3327" d="M.164 2.342a.318.318 0 0 0-.01.261.24.24 0 0 0 .2.129.214.214 0 0 1-.316-.043c-.126-.191.126-.347.126-.347z" data-name="Path 4293"/><path fill="#5a2c84" d="M1.172 1.036c.093.061.276 0 .375-.225s.037-.357-.085-.338-.384.506-.29.563z" data-name="Path 4294"/><path fill="#5a2c84" d="M3.298.036c-.039.1.062.269.3.316s.356-.043.311-.158-.573-.262-.611-.158z" data-name="Path 4295"/><ellipse cx=".158" cy=".28" fill="#5a2c84" data-name="Ellipse 141" rx=".158" ry=".28" transform="rotate(-18.707 4.763 -9.1)"/><ellipse cx=".158" cy=".28" fill="#5a2c84" data-name="Ellipse 142" rx=".158" ry=".28" transform="rotate(-10.292 9.068 -9.14)"/><path fill="#fff" d="M3.476 3.071s-.029.319-.237.391a.431.431 0 0 1-.49-.3z" data-name="Path 4296"/><g fill="none" stroke="#000" stroke-miterlimit="10" data-name="Group 1768" transform="translate(1.095 .488)"><path d="M.026 1.542A.726.726 0 1 0 .534.587a.767.767 0 0 0-.508.955z" data-name="Path 4297"/><ellipse cx=".594" cy=".721" data-name="Ellipse 143" rx=".594" ry=".721" transform="rotate(-13.81 2.022 -6.873)"/><path d="M1.941 1.189a.531.531 0 0 0-.474.17" data-name="Path 4298"/></g></g></g></g><circle cx="5.852" cy="5.852" r="5.852" fill="none" stroke="#000" stroke-miterlimit="10" data-name="Ellipse 145"/></g></g></g></g><circle cx="18.387" cy="18.387" r="18.387" fill="#fff" stroke="#000" stroke-miterlimit="10" stroke-width="2" data-name="Ellipse 147" opacity=".65" transform="rotate(-45 31.388 13.002)"/><path fill="#2b337c" d="M14.039 37.871a18.382 18.382 0 0 1 14.927-30.01 18.383 18.383 0 1 0-3.658 36.511 18.313 18.313 0 0 1-11.269-6.501z" data-name="Path 4299" opacity=".42"/><path fill="url(#i)" d="M1780.213 779.539a21.2 21.2 0 1 0 29.838 2.989 21.2 21.2 0 0 0-29.838-2.989zm25.065 30.646a18.387 18.387 0 1 1 2.592-25.873 18.387 18.387 0 0 1-2.592 25.873z" data-name="Path 4300" transform="translate(-1767.635 -769.95)"/><path fill="#faac47" d="M43.764 42.224l-1.812-2.215a18.293 18.293 0 0 1-5.28 4.346l1.812 2.215a21.153 21.153 0 0 0 5.279-4.346z" data-name="Path 4301"/></g><g data-name="Group 1777"><path fill="#ee765e" d="M101.11 86.516c-1.826-1.8-2.457-3.481-5.709-5.622-6.567-4.323-8.861-5.862-8.6-6.873.1-.387.544-.548 1.339-.836a7.791 7.791 0 0 1 5.189.221c3.016 1 3.124 1.939 5.819 3.085 3.584 1.524 4.293.756 6.79 1.685 2.047.761 5.025 5.6 3.919 7.888s-7.39 1.786-8.747.452z" data-name="Path 4302"/></g></g><g data-name="Group 1782" transform="translate(101.438 15.66)"><ellipse cx="22.392" cy="22.802" fill="#a12545" data-name="Ellipse 148" opacity=".52" rx="22.392" ry="22.802" transform="rotate(-45 38.225 15.834)"/><circle cx="20.81" cy="20.81" r="20.81" fill="#faac47" data-name="Ellipse 149" transform="rotate(-45 42.02 14.16)"/><circle cx="15.711" cy="15.711" r="15.711" fill="#faac47" data-name="Ellipse 150" transform="rotate(-45 45.626 5.455)" style="mix-blend-mode:multiply;isolation:isolate"/><g data-name="Group 1781" transform="translate(13.489 15.624)"><path fill="#fff" d="M29.713 16.246h5.54a2.109 2.109 0 0 1 2.114 2.109 2.109 2.109 0 0 1-2.11 2.11h-5.544a.3.3 0 0 1-.3-.3v-3.619a.3.3 0 0 1 .3-.3z" data-name="Rectangle 279"/><path fill="#3d4c9d" d="M30.249 16.246h2.017v4.219h-2.017z" data-name="Rectangle 280" opacity=".24"/><circle cx="12.895" cy="12.895" r="12.895" fill="#fff" data-name="Ellipse 151" transform="rotate(-45 22.013 9.118)"/><circle cx="11.176" cy="11.176" r="11.176" fill="#242662" data-name="Ellipse 152" transform="translate(7.06 7.06)"/><circle cx="10.304" cy="10.304" r="10.304" fill="url(#j)" data-name="Ellipse 153" transform="translate(7.932 7.932)"/><g fill="#fff" data-name="Group 1779" opacity=".71" transform="translate(10.513 10.643)"><circle cx=".726" cy=".726" r=".726" data-name="Ellipse 154" transform="translate(1.441 1.626)"/><path d="M.703 1.223a.4.4 0 1 1 .4.4.4.4 0 0 1-.4-.4z" data-name="Path 4303"/><circle cx=".346" cy=".346" r=".346" data-name="Ellipse 155" transform="translate(2.651)"/><path d="M2.894 1.565a.2.2 0 1 1 .2.2.2.2 0 0 1-.2-.2z" data-name="Path 4304"/><path d="M1.043 3.15a.2.2 0 1 1 .2.2.2.2 0 0 1-.2-.2z" data-name="Path 4305"/><circle cx=".346" cy=".346" r=".346" data-name="Ellipse 156" transform="translate(0 2.259)"/></g><g fill="#fff" data-name="Group 1780" opacity=".71" transform="translate(10.084 14.47)"><circle cx=".726" cy=".726" r=".726" data-name="Ellipse 157" transform="translate(1.441 1.626)"/><circle cx=".403" cy=".403" r=".403" data-name="Ellipse 158" transform="translate(.703 .819)"/><path d="M2.651.346a.346.346 0 1 1 .346.346.346.346 0 0 1-.346-.346z" data-name="Path 4306"/><path d="M2.894 1.565a.2.2 0 1 1 .2.2.2.2 0 0 1-.2-.2z" data-name="Path 4307"/><path d="M1.043 3.15a.2.2 0 1 1 .2.2.2.2 0 0 1-.2-.2z" data-name="Path 4308"/><path d="M0 2.605a.346.346 0 1 1 .346.346A.346.346 0 0 1 0 2.605z" data-name="Path 4309"/></g></g></g><g data-name="Group 1789" transform="translate(71.317 84.432)"><rect width="21.872" height="41.394" fill="#242662" data-name="Rectangle 281" opacity=".64" rx="1" transform="rotate(132.641 16.71 24.045)"/><rect width="21.092" height="39.919" fill="#faac47" data-name="Rectangle 282" rx="1" transform="rotate(132.641 15.354 24.332)"/><g fill="#242662" data-name="Group 1784" transform="translate(7.356 9.676)"><g data-name="Group 1783"><path d="M0 3.796l2.55-2.768.216.2L.217 3.996z" data-name="Rectangle 283"/><path d="M3.276.453a.261.261 0 1 1 .368-.015.261.261 0 0 1-.368.015z" data-name="Path 4310"/></g><circle cx="1.072" cy="1.072" r="1.072" data-name="Ellipse 159" transform="rotate(-47.359 42.44 -16.398)"/></g><g data-name="Group 1786"><g data-name="Group 1785"><path d="M39.204 26.963L26.562 40.691 4.648 20.511 17.29 6.783z" data-name="Rectangle 284"/></g></g><g data-name="Group 1788"><g fill="#fff" clip-path="url(#k)" data-name="Group 1787" transform="translate(4.614 6.82)"><path d="M1.87-2.954l4.828-.199L7.959 27.46l-4.828.199z" data-name="Rectangle 285" opacity=".2"/><path d="M7.408-33.558l12.295-.506 4.28 103.907-12.294.507z" data-name="Rectangle 286" opacity=".2"/><path d="M25.554 5.066l1.925-.079 1.1 26.81-1.925.078z" data-name="Rectangle 287" opacity=".2"/></g></g><path fill="none" stroke="#4658a6" stroke-miterlimit="10" d="M39.204 26.963L26.562 40.691 4.648 20.511 17.29 6.783z" data-name="Rectangle 289"/></g><g data-name="Group 1813"><path fill="#a12545" d="M105.337 27.429c.048-.544-.085-1.035-1.1-2.759a24.534 24.534 0 0 0-1.546-2.432c-1.5-1.989-2.626-3.461-4.135-3.482l-1.129-1.619-.381.351-.1-.259c.216-1.409-1.306-2.775-2.034-3.46a.967.967 0 0 0-.368-.257 4.144 4.144 0 0 0 .883-1.235 18.029 18.029 0 0 1 .66-1.7 4.951 4.951 0 0 1 .438-.668 4.446 4.446 0 0 0 2.181-1.11.9.9 0 0 0 .444-.071l-.291-.084a1.962 1.962 0 0 0 .57-1.131c.042-.568-.352-.739-1.117-1.67.373.041.479-.057.479-.057l-1.058-.713c-1.382-2.018-1.252-3.333-2.492-3.985a3.342 3.342 0 0 0-2.715-.023c-.052-.086-.87-1.38-3.184-.99a7.292 7.292 0 0 1 1.822.3 4.045 4.045 0 0 1 1.1.576 2.087 2.087 0 0 0-.223-.112 2.472 2.472 0 0 0-.313-.108 3.452 3.452 0 0 0-.927-.12 5.618 5.618 0 0 0-4.222 2.822c-.478.934-.347 1.449-.5 3.782a2.376 2.376 0 0 0-.055.283l.038-.031a52.876 52.876 0 0 1-.483 4.28l.122-.344c-.028.144-.052.284-.073.417q-.037.243-.063.483c-1.483-.451-4.221-1.036-5.549.254-.543.177-1.946 1.463-7.2 6.464a14.158 14.158 0 0 0-2.975 3.372q-.042.072-.079.147c-.952 1.984 1.88 4.9 2.461 5.5.117.12 1.95 1.981 3.367 2.294l-.012.037 1.352 1.515.245-.279c-.489 2.045-1.149 4.909-1.454 6.686-.515 3-2.452 11.82-2.452 11.82l-.817.982c0 .009 0 .047.013.1a5.049 5.049 0 0 0-.7.64c-.895.985-1.3 2.133-.9 2.563s1.441-.019 2.336-1a4.947 4.947 0 0 0 .809-1.185.932.932 0 0 0 .257-.3l6.815-16.773c.028-.108.128-.159.186-.133a.161.161 0 0 1 .042.216l-5.37 16.773a4.247 4.247 0 0 0-.065.2l-.064.2.008.026a4.743 4.743 0 0 0-.1 1.11c.031 1.231.49 2.179 1.025 2.119s.944-1.107.913-2.338c0-.061 0-.121-.008-.18.046-.038.091-.077.136-.119v-1.277s4.126-8.027 5.645-10.671 4.237-8.335 4.237-8.335c.7-.358.948-1 1.531-1.993.824-1.4.658-.69 4.286-5.278.328-.414.654-.837 1.038-1.318a52 52 0 0 0 4.541 3.373c.29.188.581.37.871.543l.217.128c.144.084.288.166.431.245a12.079 12.079 0 0 0 1.731.807 4.173 4.173 0 0 0 1.2.267 1.14 1.14 0 0 0 .736-.063 2.589 2.589 0 0 0 1.088-2.013zM94.5 13.965a2.976 2.976 0 0 1 .772 1.457 4.424 4.424 0 0 1 0 1.266 6.358 6.358 0 0 0-1.837-1.4c.244-.447.467-.928.664-1.389q.177-.139.327-.278a1.138 1.138 0 0 0 .074.344zm-7.734-6.378l-.063.186c.018-.06.038-.123.063-.186zM74.344 23.844l-.041-.063a19.467 19.467 0 0 0 4.434-4.182c-.012.257-.029.56-.055.942a44.9 44.9 0 0 1-.791 7.133 10.258 10.258 0 0 0-.287 1.364l-.407-.4c.061-1.428-1.078-2.092-2.852-4.793z" data-name="Path 4311" opacity=".52"/><g data-name="Group 1812" transform="translate(59.113 8.423)"><path fill="#ffca57" d="M12.745 44.488l-.432 1.5a2.884 2.884 0 0 0 .083.757 4.308 4.308 0 0 1 .215.443l.552-.127s.611-.2.779-.486a19.291 19.291 0 0 0 .612-2.107l.082-.968s-1.264-.765-1.573-.012a3.663 3.663 0 0 0-.318 1z" data-name="Path 4312"/><path fill="#ffca57" d="M17.889 44.221l.748 1.371a2.885 2.885 0 0 1 .083.757 4.326 4.326 0 0 0-.114.479h-.567a1.765 1.765 0 0 1-.866-.3 19.306 19.306 0 0 1-1.056-1.924l-.291-.927s1.067-1.021 1.534-.354a3.677 3.677 0 0 1 .529.898z" data-name="Path 4313"/><g data-name="Group 1791"><path fill="#d89828" d="M20.933 17.115s9.386 2.332 10.385.427c.54-1.029-2.1-2.452-3.736-2.855s-6.214-2.136-6.214-2.136" data-name="Path 4314"/><g clip-path="url(#l)" data-name="Group 1790" transform="translate(20.933 12.551)"><path fill="#d89828" d="M7.728 4.525a66.018 66.018 0 0 1-7.637-.862l-.086.9s9.386 2.332 10.385.427a.613.613 0 0 0 .062-.185 8.586 8.586 0 0 0-2.724-.28z" data-name="Path 4315" opacity=".43"/></g></g><ellipse cx="1.495" cy=".709" fill="#fbead3" data-name="Ellipse 160" opacity=".3" rx="1.495" ry=".709" transform="rotate(-69.61 39.454 14.286)"/><ellipse cx=".704" cy="1.485" fill="#fbead3" data-name="Ellipse 161" opacity=".3" rx=".704" ry="1.485" transform="rotate(-28.19 94.38 -9.414)"/><path fill="#474745" d="M18.057 5.062a3.9 3.9 0 0 0-.539 1.618 12.992 12.992 0 0 0 .076 1.472 3.618 3.618 0 0 1-.888 2.2l-.32-4.015z" data-name="Path 4317"/><g data-name="Group 1792"><path fill="#831939" d="M13.895 26.412l-4.79.17s.975 5.014 1.652 7.395 2.307 9.512 2.307 9.512l-.319 1a1.3 1.3 0 0 0 1.024.627.856.856 0 0 0 .671-.317.7.7 0 0 0 .116-.33l-.5-14.636a.116.116 0 1 1 .22-.018l1.742 14.483a2.216 2.216 0 0 0 .381.308 1.349 1.349 0 0 0 .58.253c.339.019.691-.312.912-.781l-.473-.936s.481-7.3.772-9.757.46-7.563.46-7.563z" data-name="Path 4318"/></g><path fill="#fff" d="M16.338 11.218a24.26 24.26 0 0 0-3.419-.126 13.8 13.8 0 0 0-3.288.97l2.555 14.85a5.893 5.893 0 0 0 2.228.177 6.97 6.97 0 0 0 2.675-.877z" data-name="Path 4319"/><ellipse cx="2.772" cy="2.733" fill="#f49092" data-name="Ellipse 162" rx="2.772" ry="2.733" transform="rotate(-4.556 151.748 -126.238)"/><ellipse cx="2.094" cy="2.064" fill="#f17383" data-name="Ellipse 163" rx="2.094" ry="2.064" transform="rotate(-4.557 159.784 -135.063)"/><ellipse cx="2.577" cy="2.064" fill="#dc636a" data-name="Ellipse 164" rx="2.577" ry="2.064" transform="rotate(-4.554 144.026 -128.444)"/><g data-name="Group 1793"><path fill="#ffca57" d="M21.657 15.697c-.4 1.214-.614 2.018-.841 2.8-1.332 4.605-1.456 4.024-1.625 5.336-.121.942-.09 1.5-.561 2.007-.174.187-.538.5-2.334.867a21.571 21.571 0 0 1-2.256.34 45.162 45.162 0 0 1 .073-7.135c.43-4.774 1.12-3.771 1.346-7.237a1.8 1.8 0 0 1 .422-1.235c1.152-1.135 4.364.388 5.856 1.171a5.032 5.032 0 0 1 .373 1.714z" data-name="Path 4320"/></g><g data-name="Group 1796"><path fill="#496ab1" d="M14.456 17.667a5.241 5.241 0 0 1 .66-1.872c.581-.164 1.368-.284 1.565-.006a3.006 3.006 0 0 0 1.2.8l-1.127-1.942-.606-.666-.97.873c-.11.268-.216.557-.312.867a10.6 10.6 0 0 0-.41 1.946z" data-name="Path 4321" opacity=".43"/><g data-name="Group 1795"><path fill="#ffdba5" d="M16.451 10.876a3.127 3.127 0 0 1 .424 1.238 20.95 20.95 0 0 0 .413 2.955c.2.687.69 1.456.612 1.517a.023.023 0 0 1-.017 0c-.351-.026-.817-.755-.817-.755-.435-.68-.46-.977-.687-1.009-.146-.021-.235.094-.524.3-.166.121-.495.332-.99.64a19.2 19.2 0 0 1 1.587-4.894z" data-name="Path 4322"/><g clip-path="url(#m)" data-name="Group 1794" transform="translate(14.864 10.876)"><path fill="#ffdba5" d="M1.588 0a3.131 3.131 0 0 1 .424 1.238 20.948 20.948 0 0 0 .413 2.955c.2.687.69 1.456.612 1.517a.023.023 0 0 1-.017 0c-.317-.025-.7-.578-.7-.578-.466-.679-.617-1.214-.809-1.186h-.023a4.449 4.449 0 0 0-.717.429 5.762 5.762 0 0 1-.787.51c.319-1.269.514-2.32.636-3.081.146-.908.264-1.882.645-1.945A.412.412 0 0 1 1.588 0z" data-name="Path 4323" opacity=".3"/></g></g><path fill="#ffca57" d="M16.416 10.958a20.184 20.184 0 0 0-.707 1.7 19.637 19.637 0 0 0-.806 2.915 2.576 2.576 0 0 1 .661-.45 2.739 2.739 0 0 0 .582-.314 2.1 2.1 0 0 0 .228-.2v-.261c0-.3-.005-.518-.006-.56-.002-.203.003-.856.048-2.83z" data-name="Path 4325"/></g><g data-name="Group 1798"><path fill="#ffca57" d="M5.62 17.388c.429 1.167.532 1.207 1.079 2.543a32.928 32.928 0 0 1 1.966 5.506c.163.787.216 1.316.681 1.681.273.215.678.358 2.637.257.788-.04 1.44-.1 1.894-.149a29.4 29.4 0 0 0-3.184-14.353l-.35-1.422c-.271.012-4.963.269-5.565 2.4-.199.705.148 1.647.842 3.537z" data-name="Path 4326"/><g clip-path="url(#n)" data-name="Group 1797" transform="translate(4.722 11.452)"><path fill="#ffca57" d="M5.14 4.381s-.6 1.473-.21 1.5.6-1.494 1.12-1.076l.518.418-.642-2.656a3.855 3.855 0 0 0-.786 1.814z" data-name="Path 4327" opacity=".3"/></g></g><path fill="#496ab1" d="M8.051 23.137s.663 1.987 1.274 2.286c.605.254 9.41.336 9.7-2.3.135-.793.559-.977.559-.977l-.383 1.753s.179 2.148-1.133 2.482c-1.307.384-3.88.771-3.88.771s-4.1.623-4.773.371a25.8 25.8 0 0 1-1.364-4.386z" data-name="Path 4329" opacity=".43"/><path fill="#ffca57" d="M19.984 17.724l-3.067.865.183.814 1.76.185 1.064-1.12z" data-name="Path 4330"/><g data-name="Group 1799"><path fill="#f49092" d="M12.917 27.491a2.1 2.1 0 0 0 .766-.061c.312-.11.347.058.22.346a.827.827 0 0 1-.714.442c-.236.001-.636-.463-.272-.727z" data-name="Path 4331"/><path fill="#f49092" d="M9.676 27.519a3.115 3.115 0 0 0 .744-.338 15.968 15.968 0 0 1 2-1.444 7.731 7.731 0 0 1 1.754 1.059 2.5 2.5 0 0 1-.474.766c-.119.117-.579.8-.7.933a2.951 2.951 0 0 1-.733.465c-.146.055-.368-.056-.338-.208s.063-.283.063-.283a2.553 2.553 0 0 1-1.21.4 10.816 10.816 0 0 1-1.474-.5z" data-name="Path 4332"/><path fill="#f8babd" d="M9.676 27.518l-.361.842s1.714.161 2.259-.34c.579-.563 1.12-1.1 1.12-1.1l.363-.032.079-.8-.507-.294-.2-.06z" data-name="Path 4333"/></g><path fill="#ffca57" d="M8.442 26.381c-.471-1.072-1.667-1.169-4.137-2.547l-.057-.032a15.345 15.345 0 0 0 2.189-4.717c-.222-4.469-.818-5.464-1.323-5.542-.407-.063-.712.476-3.866 7.277a10.683 10.683 0 0 0-1.235 3.494c-.005.043-.01.087-.011.13-.062 1.781 3.369 2.958 4.073 3.2a9.316 9.316 0 0 0 3.646.535v.032l1.682.651.689-1.957z" data-name="Path 4334"/><g data-name="Group 1802"><path fill="#496ab1" d="M12.714 18.219a5.245 5.245 0 0 0-.831-1.8c-.594-.109-1.388-.156-1.559.14a3.006 3.006 0 0 1-1.122.909l.942-2.038.542-.72 1.047.779c.134.256.267.534.392.835a10.581 10.581 0 0 1 .589 1.895z" data-name="Path 4335" opacity=".43"/><g data-name="Group 1801"><path fill="#ffdba5" d="M10.097 11.643a3.128 3.128 0 0 0-.307 1.272 20.955 20.955 0 0 1-.137 2.98c-.13.7-.552 1.514-.468 1.567a.025.025 0 0 0 .018 0c.347-.058.743-.828.743-.828.371-.718.367-1.015.591-1.068.144-.034.243.072.55.254.177.105.523.285 1.046.545a19.219 19.219 0 0 0-2.035-4.725z" data-name="Path 4336"/><g clip-path="url(#o)" data-name="Group 1800" transform="translate(9.174 11.643)"><path fill="#ffdba5" d="M.923 0a3.128 3.128 0 0 0-.307 1.272 20.955 20.955 0 0 1-.137 2.98c-.13.7-.552 1.514-.468 1.567a.024.024 0 0 0 .018 0c.313-.054.64-.64.64-.64.4-.719.5-1.266.695-1.256h.019a4.428 4.428 0 0 1 .754.361 5.816 5.816 0 0 0 .831.435 35.64 35.64 0 0 1-.919-3.009C1.82.819 1.612-.14 1.226-.166A.412.412 0 0 0 .923 0z" data-name="Path 4337" opacity=".3"/></g></g><path fill="#ffca57" d="M10.14 11.721c.291.491.582 1.034.862 1.628a19.681 19.681 0 0 1 1.073 2.828 2.569 2.569 0 0 0-.7-.387 2.736 2.736 0 0 1-.608-.259 2.11 2.11 0 0 1-.246-.175 10.82 10.82 0 0 1-.029-.26c-.03-.3-.043-.517-.046-.558-.013-.206-.077-.853-.306-2.817z" data-name="Path 4339"/></g><ellipse cx=".297" cy=".283" fill="#f7f9fc" data-name="Ellipse 165" rx=".297" ry=".283" transform="rotate(-44.162 28.393 -5.654)"/><ellipse cx=".297" cy=".057" fill="#f7f9fc" data-name="Ellipse 166" rx=".297" ry=".057" transform="rotate(-74.569 19.26 -.391)"/><ellipse cx=".297" cy=".057" fill="#f7f9fc" data-name="Ellipse 167" rx=".297" ry=".057" transform="rotate(-86.56 17.933 2.57)"/><ellipse cx=".297" cy=".057" fill="#f7f9fc" data-name="Ellipse 168" rx=".297" ry=".057" transform="rotate(-87.02 18.946 3.874)"/><ellipse cx=".248" cy=".237" fill="#f7f9fc" data-name="Ellipse 169" rx=".248" ry=".237" transform="rotate(-44.162 31.39 -5.433)"/><ellipse cx=".229" cy=".219" fill="#f7f9fc" data-name="Ellipse 170" rx=".229" ry=".219" transform="rotate(-44.162 34.195 -4.977)"/><ellipse cx=".202" cy=".184" fill="#f7f9fc" data-name="Ellipse 171" rx=".202" ry=".184" transform="rotate(-44.162 36.575 -4.686)"/><ellipse cx=".202" cy=".184" fill="#f7f9fc" data-name="Ellipse 172" rx=".202" ry=".184" transform="rotate(-44.162 38.391 -4.011)"/><path fill="#d89828" d="M6.436 19.085a9.281 9.281 0 0 0-1.526-5.508 7.748 7.748 0 0 1 .771 4.979c-.342.926-3.52 4.341-3.564 5.146.488-.009.619.376.828.664a20.886 20.886 0 0 0 4.669 2.462c.488-.009.887-.009.887-.009s.946.118.985.469a12.563 12.563 0 0 1-.081 1.574l.689-1.957-1.652-.525s.665-.492-4.195-2.579c.298-.433 2.218-3.729 2.189-4.716z" data-name="Path 4340" opacity=".43"/><path fill="#fbead3" d="M22.11 14.33s-4.642-2.569-5.235-2.216c-7.509.782-11.236 1.426-11.369 2.34-.436.581-3.192 6.715-4.07 7.811S.155 23.339.155 23.339 3.979 14.5 4.91 13.575a5.46 5.46 0 0 1 4.512-1.985c2.673-.228 8.215-1.038 9.647-.13s3.145 1.465 3.041 2.87z" data-name="Path 4341" opacity=".3"/><g data-name="Group 1803"><path fill="#f49092" fill-rule="evenodd" d="M21.075 11.459l-.2-.018-.194-.172c-.339-1.108-2.107-1.591-2.966-1.846s-.27.285-.27.285a2.627 2.627 0 0 1 1.179.806 6.5 6.5 0 0 1 .587 1.16 2.909 2.909 0 0 0 1.71 1.24l.056.037z" data-name="Path 4342"/><path fill="#ffca57" d="M31.415 15.894c-.16-.416-.451-.73-1.934-1.648a22.162 22.162 0 0 0-2.181-1.258c-1.981-.948-3.458-1.645-4.722-1.145l-1.535-.8-.9 1.867 1.646.736.039-.032a10.469 10.469 0 0 0 2.933 2.224c1.13.669 5.3 3.133 6.486 1.916a1.9 1.9 0 0 0 .168-1.86z" data-name="Path 4343"/><path fill="#f8babd" fill-rule="evenodd" d="M17.243 9.397s1.967.766 2.147 1.346a2.069 2.069 0 0 0 .738.952c.038.046.454-.117.543-.36-.032-.147-.362-1.476-3.428-1.938z" data-name="Path 4344"/><path fill="#fbead3" d="M21.043 11.039l1.535.8s1.576-.806 4.722 1.145c.881.435 4.079 2.306 4.115 2.906a3.382 3.382 0 0 1-.035 1.464 1.707 1.707 0 0 0-1.248-1.651c-1.609-.389-6.979-2.563-7.582-3.5-.6-.3-1.173-.67-1.407-.378a5.647 5.647 0 0 1-1 1.073z" data-name="Path 4345" opacity=".3"/></g><g data-name="Group 1810"><g data-name="Group 1804"><path fill="#f49092" d="M8.619 7.207a24.048 24.048 0 0 0 .643 3.957 4.288 4.288 0 0 0 2.91 3.163 4.207 4.207 0 0 0 4.41-1.619c.769-1.125.452-4.085.4-4.735s-.176-2.726-.176-2.726a4.256 4.256 0 0 0-1.9-1.771c-1.5-.821-2.955-1.155-4.656.085a4.735 4.735 0 0 0-1.631 3.646z" data-name="Path 4346"/></g><g data-name="Group 1806" transform="translate(9.964 6.172)"><path fill="#e34050" d="M3.395 2.458l.14 1.476s-.525-.035-.514.37.2.511.2.511a.6.6 0 0 1-.553-.615.651.651 0 0 1 .53-.634z" data-name="Path 4347"/><path fill="#211e1c" d="M.409 1.301c.159.145.527.084.786-.313s.182-.67-.058-.672-.887.839-.728.985z" data-name="Path 4348"/><path fill="#211e1c" d="M4.778.045c-.106.187.034.532.479.7s.693.029.642-.206S4.884-.142 4.778.045z" data-name="Path 4349"/><ellipse cx=".306" cy=".542" fill="#211e1c" data-name="Ellipse 173" rx=".306" ry=".542" transform="rotate(-9.451 13.808 -24.558)"/><ellipse cx=".306" cy=".542" fill="#211e1c" data-name="Ellipse 174" rx=".306" ry=".542" transform="translate(1.433 2.314)"/><path fill="#fff7d0" d="M4.138 5.815s-.086.612-.495.732-.825-.278-.917-.634z" data-name="Path 4350"/><g fill="none" stroke="#000" stroke-miterlimit="10" stroke-width=".5" data-name="Group 1805" transform="translate(0 1.11)"><path d="M.006 2.062A1.4 1.4 0 1 0 1.272.398 1.483 1.483 0 0 0 .006 2.062z" data-name="Path 4351"/><ellipse cx="1.148" cy="1.394" data-name="Ellipse 175" rx="1.148" ry="1.394" transform="rotate(-4.554 4.083 -45.027)"/><path d="M3.767 1.984a1.025 1.025 0 0 0-.958.178" data-name="Path 4352"/></g></g><path fill="#496ab1" d="M8.941 7.024a2.936 2.936 0 0 1 .615.043c.283.047 1.314.583 2.45-2.408.254.339 3.205 4.295 5.6 1.4-1.132-2.257-6.376-3.745-6.376-3.745z" data-name="Path 4353" opacity=".43"/><g data-name="Group 1809"><path fill="#211e1c" d="M17.385 2.338C15.026 1.249 14.702.063 13.321.002a3.3 3.3 0 0 0-2.268.909 2.935 2.935 0 0 0-3.014.36 7.379 7.379 0 0 1 1.626-.4A4.119 4.119 0 0 1 10.79.92a2.1 2.1 0 0 0-.227-.006 2.54 2.54 0 0 0-.3.028 3.494 3.494 0 0 0-.816.228 4.686 4.686 0 0 0-2.476 3.511c-.061.958.328 1.259 1.274 3.708.448 1.158.759 2.12.948 2.737A17.854 17.854 0 0 0 8.738 8.1a1.074 1.074 0 0 1 .052-.912c.222-.274.646-.221.888-.249.537-.063 1.24-.651 1.951-2.992a14.98 14.98 0 0 0 1.412 2.294 12.947 12.947 0 0 1-1.321-2.4l.1-.117a5.682 5.682 0 0 0 1.462 1.928 4.5 4.5 0 0 0 1.664.734 3.826 3.826 0 0 0 1.954 0c1.465-.45 2.651-2.152 2.272-3.092-.189-.467-.629-.421-1.787-.956z" data-name="Path 4354"/><g clip-path="url(#p)" data-name="Group 1808" transform="translate(6.965)"><path fill="#474745" d="M.189 4.912a2.511 2.511 0 0 0 .085.624 2.205 2.205 0 0 0 .477.847c.687.99 1.224.221 1.224.221a.748.748 0 0 1 .219-.224.875.875 0 0 1 .5-.121c.451-.012 1.034-.88 1.323-1.851.367-1.234.064-1.971.353-2.088s.686.614 1.5 1.367c.356.329 2.207 2.041 4.073 1.658a3.363 3.363 0 0 0 2-1.395 1.287 1.287 0 0 0-.092-1.034A10.628 10.628 0 0 1 8.092.854c-.365-.293-1.758-1.805-4 .058a3.882 3.882 0 0 0-1.729.413A4.329 4.329 0 0 0 .189 4.912z" data-name="Path 4355"/><g fill="#7b77b7" data-name="Group 1807"><path d="M8.738 4.523c.254 0 .506.006.759 0 .126 0 .253-.006.379-.009s.252-.015.378-.022a6.092 6.092 0 0 0 .749-.1 2.73 2.73 0 0 0 .363-.1.964.964 0 0 0 .331-.176.579.579 0 0 1-.149.118 1.363 1.363 0 0 1-.171.085 2.7 2.7 0 0 1-.364.117 5.351 5.351 0 0 1-.754.114 8.794 8.794 0 0 1-.761.017c-.127-.005-.254-.006-.38-.015s-.254-.017-.38-.029z" data-name="Path 4356"/><path d="M4.821 2.076a4.6 4.6 0 0 0 .271.384c.048.062.1.122.146.183l.154.177a5.559 5.559 0 0 0 .681.642c.119.1.249.188.375.28s.262.17.4.24c.069.036.136.076.207.11l.214.1c.036.016.071.034.107.047l.11.04.221.081a4.237 4.237 0 0 1-.881-.334l-.106-.053c-.035-.018-.068-.04-.1-.06l-.2-.123c-.128-.091-.261-.177-.382-.279a5.137 5.137 0 0 1-.678-.658 4.4 4.4 0 0 1-.539-.777z" data-name="Path 4357"/><path d="M4.718 1.45c.235.079.469.159.706.234s.471.152.708.225c.473.145.948.286 1.428.4l.361.086c.121.025.242.052.363.074l.183.031.091.015.092.01.184.02c.062 0 .123 0 .184.007a5.1 5.1 0 0 0 .738-.049 2.4 2.4 0 0 0 .362-.074 1.2 1.2 0 0 0 .173-.064.378.378 0 0 0 .148-.107.381.381 0 0 1-.144.115 1.213 1.213 0 0 1-.173.071 2.4 2.4 0 0 1-.362.088c-.061.011-.123.02-.185.027s-.124.014-.186.019l-.186.014a1.8 1.8 0 0 1-.187.006h-.187l-.186-.019-.093-.01-.092-.015-.184-.03c-.123-.021-.244-.048-.365-.072l-.363-.084c-.481-.123-.957-.264-1.428-.418s-.939-.318-1.4-.5z" data-name="Path 4358"/><path d="M4.199 2.231q-.324.225-.633.471t-.6.508a6.978 6.978 0 0 0-1.057 1.161 3.073 3.073 0 0 0-.371.687 5.591 5.591 0 0 0-.214.755 3.92 3.92 0 0 0-.082.781 2.8 2.8 0 0 0 .093.78 2.7 2.7 0 0 1-.122-.78 3.947 3.947 0 0 1 .067-.789 4.973 4.973 0 0 1 .208-.765 3.113 3.113 0 0 1 .373-.7 6.729 6.729 0 0 1 1.075-1.161 10.373 10.373 0 0 1 1.263-.948z" data-name="Path 4359"/><path d="M1.336 2.817a1.926 1.926 0 0 1-.181.218 1.948 1.948 0 0 1-.206.2.982.982 0 0 1 .387-.413z" data-name="Path 4360"/><path d="M3.951 1.828a5.092 5.092 0 0 0-.592.082 5.528 5.528 0 0 0-.574.143c-.1.026-.187.062-.281.093s-.185.07-.275.111c-.045.02-.091.039-.135.06l-.132.067c-.09.041-.173.1-.262.142a3.2 3.2 0 0 1 .51-.31c.088-.048.182-.082.274-.122s.187-.07.283-.1a3.9 3.9 0 0 1 .584-.132 3.227 3.227 0 0 1 .6-.034z" data-name="Path 4361"/></g></g></g></g><g data-name="Group 1811"><path fill="#590d26" d="M10.756 33.977l2.307 9.512-.319 1a1.3 1.3 0 0 0 1.024.627.856.856 0 0 0 .67-.317.7.7 0 0 0 .116-.33l-.5-14.636a.117.117 0 1 1 .221-.017l1.742 14.483a2.239 2.239 0 0 0 .381.308 1.35 1.35 0 0 0 .58.253c.339.019.69-.312.912-.781l-.473-.936.9-11.108-.5.9q-.718 5.228-1.407 5.225-.621 0-1.22-4.269c-.637-3.643-.943-4.409-1.1-4.393s-.3.832-.2 4.553q-.4 4.195-1.066 4.238-.578.037-1.358-3.049z" data-name="Path 4363"/></g></g></g></g></svg>