<svg xmlns="http://www.w3.org/2000/svg" xmlns:xlink="http://www.w3.org/1999/xlink" width="182.053" height="143.699" viewBox="0 0 182.053 143.699"><defs><linearGradient id="b" x2="1" y1=".5" y2=".5" gradientUnits="objectBoundingBox"><stop offset="0" stop-color="#902472"/><stop offset=".727" stop-color="#54326b"/><stop offset="1" stop-color="#3c3e69"/></linearGradient><linearGradient id="a" x2="1" y1=".5" y2=".5" gradientUnits="objectBoundingBox"><stop offset="0" stop-color="#f8ac8f"/><stop offset="1" stop-color="#d99ec6"/></linearGradient><linearGradient id="c" x1="-.001" x2="1.001" y1=".5" y2=".5" xlink:href="#a"/><linearGradient id="d" x1="-1.974" x2="-.96" y1="-2.754" y2="-2.754" xlink:href="#a"/></defs><g data-name="Group 10779"><g data-name="Group 1324"><g data-name="Group 1321" transform="translate(28.508 5.621)"><path fill="#fff" d="M80.529 9.533l33.579.1c-.423-.583-4.229-5.685-8.844-4.638a6.472 6.472 0 0 0-2.44 1.154c-.354-.563-3.1-4.794-7.183-4.7a9.956 9.956 0 0 0-5.76 2.721 13.861 13.861 0 0 0-1.83 1.979c-.21.3-.369.562-.474.742a5.8 5.8 0 0 0-2.914-.165 7.163 7.163 0 0 0-4.134 2.807z" data-name="Path 3558" opacity=".71"/><path fill="#fff" d="M117.183 47.153l-21.273.065c.268-.37 2.679-3.6 5.6-2.938a4.1 4.1 0 0 1 1.545.731 8.249 8.249 0 0 1 9.071-3.16 8.429 8.429 0 0 1 5.057 5.302z" data-name="Path 3559" opacity=".71"/><path fill="#fff" d="M67.357 32.352l-53.842.165a61.634 61.634 0 0 1 26.715-3.545c.431-.563 3.772-4.794 8.74-4.7a13.594 13.594 0 0 1 7.009 2.721 15.255 15.255 0 0 1 2.226 1.979c.255.3.449.562.577.742a8.525 8.525 0 0 1 3.545-.165 8.862 8.862 0 0 1 5.03 2.803z" data-name="Path 3560" opacity=".71"/><circle cx="16.107" cy="16.107" r="16.107" fill="#ea2e26" data-name="Ellipse 67" opacity=".43"/></g><g data-name="Group 1323"><path fill="#fff" d="M0 79.063h155.322v39.118H0z" data-name="Rectangle 141" opacity=".43"/><g fill="#831939" data-name="Group 1322"><path d="M.176 76.846h154.8v1.41H.176z" data-name="Rectangle 142"/><path stroke="#000" stroke-miterlimit="10" stroke-width="2" d="M118.912 77.679V10.266" data-name="Line 33"/><path stroke="#000" stroke-miterlimit="10" stroke-width="2" d="M49.002 77.679V.001" data-name="Line 34"/><path stroke="#000" stroke-miterlimit="10" stroke-width="2" d="M4.372 39.308h145.016" data-name="Line 35"/></g></g></g><g fill="#a12545" data-name="Group 1325"><path d="M108.604 118.468c-30.784.207-55.926 2.814-63.236 8.432a138.33 138.33 0 0 0-8.715.03c-14.988.515-27.073 3.225-26.992 6.051s12.3 4.7 27.284 4.185a124.614 124.614 0 0 0 14.582-1.306c.432 4.376 33.557 8.363 58.386 4.516 32.828-5.087 52.66-13.261 47.175-17.455-4.206-3.218-11.627-4.7-48.484-4.453z" data-name="Path 3562" opacity=".44"/><path d="M167.571 135.41c-9.351-1.781-15.886-2.782-15.87-2.949.026-.28 18.31 2.513 18.468 1.529.107-.664-8.52-3-15.947-4.682-8.624-1.95-18.813-4.513-26.076-5.4-2.095-1.435-24.321-1.17-23.069-.4a133.041 133.041 0 0 0-19.326-.719c-19.251.682-35.128 3.786-37.887 7.2a69.455 69.455 0 0 0-13.988-.153c-10.536.813-19.406 1.074-19.269 3.221s9.129 3.411 19.665 2.6c7.682-.593 14.344-.074 17.282-1.641 6.376 2.052 24.554 4.464 39.661 3.929 21.271-.754 45.75-.382 45.638-4.205-.022-.736 10.337.844 24.354 2.779 8.248 1.139 14.07 1.032 14.11.589.03-.322-1.233-.458-7.746-1.698z" data-name="Path 3563" opacity=".44"/></g><g data-name="Group 1344"><g data-name="Group 1331"><g data-name="Group 1330"><path fill="#37215e" d="M72.139 55.84a11.225 11.225 0 0 0-7.249 5.953c-2.51 5.482-2.624 13.175-1.844 19.253.608 4.733 1.947 11.218 4.536 15.009 2.879 4.217 9.141 2.578 12.748 1.933 4.164-.745 7.351-1.082 9.564-5.987 2.223-4.925 2.644-12.323 2.912-18.1a29.1 29.1 0 0 0-1.445-11.6c-3.741-9.632-12.349-8.307-19.222-6.461z" data-name="Path 3564"/><g fill="#37215e" data-name="Group 1326"><path d="M75.846 105.148l2.977-.779-1.269 25.7a1.562 1.562 0 0 1-1.127.94s-.9.355-.706-.547z" data-name="Path 3565"/><path d="M78.823 104.37l-1.269 25.7a1.561 1.561 0 0 1-1.127.94s-.736.288-.73-.328a.618.618 0 0 0 .29.121 1.121 1.121 0 0 0 1.06-.591l.471-25.5z" data-name="Path 3566" style="mix-blend-mode:multiply;isolation:isolate"/></g><g fill="#37215e" data-name="Group 1327"><path d="M66.729 98.74l3.062-.31-5.224 25.2a1.561 1.561 0 0 1-1.258.755s-.942.212-.613-.649z" data-name="Path 3567"/><path d="M69.791 98.43l-5.224 25.2a1.561 1.561 0 0 1-1.258.755s-.771.171-.671-.437a.608.608 0 0 0 .268.164 1.12 1.12 0 0 0 1.138-.42l4.405-25.124z" data-name="Path 3568" style="mix-blend-mode:multiply;isolation:isolate"/></g><g fill="#37215e" data-name="Group 1328"><path d="M100.269 101.479l2.866-1.121 1.739 25.675a1.561 1.561 0 0 1-1.009 1.065s-.852.458-.765-.46z" data-name="Path 3569"/><path d="M103.134 100.358l1.739 25.675a1.561 1.561 0 0 1-1.009 1.065s-.7.372-.763-.241a.621.621 0 0 0 .3.086 1.122 1.122 0 0 0 .983-.711l-2.508-25.384z" data-name="Path 3570" style="mix-blend-mode:multiply;isolation:isolate"/></g><g fill="#37215e" data-name="Group 1329"><path d="M88.594 96.623l3.012-.631-2.536 25.609a1.56 1.56 0 0 1-1.172.883s-.915.31-.678-.581z" data-name="Path 3571"/><path d="M91.607 95.988l-2.536 25.609a1.56 1.56 0 0 1-1.172.883s-.749.252-.713-.364a.609.609 0 0 0 .284.135 1.12 1.12 0 0 0 1.088-.538l1.729-25.449z" data-name="Path 3572" style="mix-blend-mode:multiply;isolation:isolate"/></g><path fill="#37215e" d="M70.896 91.638c3.582-.4 7.13-1.083 10.719-1.524 4.674-.573 11.414-1.909 16.056-.723a26.6 26.6 0 0 1 7.962 4.026c2.705 1.784 5.207 3.641 5.441 6.663.222 2.857-1.314 4.858-4.207 6.233-6.738 3.2-16.469 4.219-24.268 4.151-6.067-.053-13.209-1.895-17.312-5.926a9.106 9.106 0 0 1-2-8.806c.974-3.405 3.657-3.659 7.609-4.094z" data-name="Path 3573"/><path fill="url(#b)" d="M1989.638 1971.636c3.574-.26 5.347-1.3 8.928-1.592 4.664-.384 11.381-1.333 16.035-.356 3.021.635 5.345 2.666 7.771 3.927 2.726 1.416 4.675 2.6 4.947 4.947.258 2.216-.439 3.323-3.313 4.351-6.692 2.4-16.4 3.059-24.2 2.907-6.063-.118-13.223-1.636-17.375-4.811-2.4-1.834-2.709-3.674-1.947-5.828.929-2.625 5.211-3.258 9.154-3.545z" data-name="Path 3574" transform="translate(-1916.927 -1880.357)"/><path fill="#37215e" d="M72.793 91.458c3.061-.166 6.089-.5 9.155-.691 3.994-.249 9.744-.9 13.739-.147a29.746 29.746 0 0 1 6.883 2.424c2.345 1.061 4.518 2.16 4.766 3.885.236 1.631-1.047 2.745-3.5 3.48-5.719 1.713-14.037 2.131-20.717 1.964-5.2-.13-11.342-1.3-14.921-3.661a4.148 4.148 0 0 1-1.853-5.048c.774-1.923 3.067-2.023 6.448-2.206z" data-name="Path 3575"/></g></g><g data-name="Group 1343"><g data-name="Group 1342"><g data-name="Group 1332"><path fill="#742051" d="M102.949 133.558a4.182 4.182 0 0 0 1.917-1.416c1.354-1.856.941-4.983-1.147-7.7-2.809 2.846-3.7 6.121-2.5 7.885a3.285 3.285 0 0 0 1.73 1.231z" data-name="Path 3576" opacity=".35"/><path fill="#f49092" d="M100.944 98.368c2.059-.041 4.26 1.573 3.861 7.274s-.972 13.266-.972 13.266a24.652 24.652 0 0 0 0 6.533c.1.7.808 5.69-.047 6.418a1.763 1.763 0 0 1-.684.351 1.716 1.716 0 0 1-.816-.046c-.944-.317-.812-4.515-.942-7.123a24.352 24.352 0 0 0-.9-5.976c-1.363-5.315-7.27-20.542.5-20.697z" data-name="Path 3577"/><path fill="#d75341" d="M100.944 98.368c.629-.012 1.578.094 1.615.361.064.463-2.752.4-4.144 1.844-1.647 1.713-.366 4.573 1.532 13.032 1.546 6.887 2.318 10.33 1.945 11.958-.386 1.684-1.458 4.772-.008 6.239.534.54 1.459.911 1.4 1.054a1.785 1.785 0 0 1-1.534-.354c-1.382-1.1-.46-4.491-.409-7.461a23.343 23.343 0 0 0-.9-5.976c-1.36-5.315-7.267-20.542.503-20.697z" data-name="Path 3578" opacity=".32"/><path fill="#ed0973" d="M101.21 126.158s-.09 4.875 1.609 4.733c1.483-.124 1.14-4.634 1.14-4.634a8.528 8.528 0 0 1 .659 3.525 4.484 4.484 0 0 1-.54 2.3 3.951 3.951 0 0 1-1.1 1.2 4.035 4.035 0 0 1-1.165-.871c-2.018-2.201-.716-5.94-.603-6.253z" data-name="Path 3579"/></g><g data-name="Group 1335"><g data-name="Group 1333"><path fill="#ed0973" fill-rule="evenodd" d="M85.065 42.683s-5.929-1.135-8.894 1.242-2.1 8.945-3.279 13.023c-.514 1.771-2.1.944-3.244 4.9 0 0 .048.887 1.452 1.715a2.153 2.153 0 0 1 .962-2.072c1.166-.7 2.1-.014 2.816-1.264a1.8 1.8 0 0 1-1.9 1.321c-1.7.08-1.628 1.8-1.394 2.426 0 0 .012-1.751 1.1-1.877a3.394 3.394 0 0 0 2.526-.925 2.309 2.309 0 0 1-1.911 1.145c-1.247-.038-1.625 1.542-1.36 1.8a2.492 2.492 0 0 0 1.555.78 1.428 1.428 0 0 1 .441-1.383s-.557 1.186.35 1.612a4.613 4.613 0 0 1 2.934.44 2.352 2.352 0 0 1 .22-2.522 2.455 2.455 0 0 0 .456 2.793 4.663 4.663 0 0 0 4.6.625c1.461-.521 4.248-1.5 6.7-1.189l-.381-1.795.823 1.527s3.261-1.3 4.107-3.071a1.592 1.592 0 0 1-1.765-1.556 2.393 2.393 0 0 0-.623-2.588s1.73.539 1.439 2.113.94 1.683 1.887 1.214c0 0-1.388.282-1.128-1.135s-2.477-3.862-2.6-5.546c-.14-2.103-.781-11.667-5.889-11.753z" data-name="Path 3580"/></g><g data-name="Group 1334"><path fill="#2b337c" fill-rule="evenodd" d="M77.622 52.271c-.777.44-.853 1.886-.866 2.133a13.085 13.085 0 0 0 .2 1.546c.02.4.12 2.424-.907 3.092a2.47 2.47 0 0 0-.845.639 1.915 1.915 0 0 0-.314.644 2.142 2.142 0 0 1-1.229 1.136c-.472.138-.856 0-1.43.317a1.174 1.174 0 0 0-.526.495 1.149 1.149 0 0 0 .005.9 1.35 1.35 0 0 1 .389-.794c.564-.527 1.357-.146 2.334-.626a2.713 2.713 0 0 0 .75-.549 2.363 2.363 0 0 1-.928.881c-.763.386-1.448.129-1.948.634a1.307 1.307 0 0 0-.325.587c.112.127.236.257.371.387a6.58 6.58 0 0 0 1.1.85 1.08 1.08 0 0 1 .139-.665 1.062 1.062 0 0 1 .371-.371 1.347 1.347 0 0 0-.17.9 1.234 1.234 0 0 0 .139.387 1.838 1.838 0 0 1 1.141-1.252 1.745 1.745 0 0 1 1.874.587 3.126 3.126 0 0 1 .294-.819 3.2 3.2 0 0 1 1-1.129c-.569.567-1.3 1.433-1.052 2.01.318.749 2.211 1.107 3.85.522a13.1 13.1 0 0 1 5.606-.994l-.319-1.5.688 1.276s2.727-1.084 3.434-2.567a1.331 1.331 0 0 1-1.476-1.3 2 2 0 0 0-.52-2.164s1.447.451 1.2 1.767.785 1.407 1.577 1.015a.957.957 0 0 1-.817-.2.929.929 0 0 1-.125-.749 16.424 16.424 0 0 0 .041-3.14 21.994 21.994 0 0 0-.083-6.514 8.848 8.848 0 0 0-1.443-4.082c-.535-.723-1.775-2.4-2.968-2.226-2.617.379-2.585 9.3-5.37 9.647-1.076.135-1.955-1.218-2.842-.711z" data-name="Path 3581" opacity=".45"/></g></g><g data-name="Group 1337"><path fill="#f49092" d="M99.885 97.362c1.917-.752 4.541 0 6.144 5.485s3.687 12.78 3.687 12.78a32.4 32.4 0 0 0 2.261 6.129c.91 1.765 3.6 5.308 2.561 6.743a.948.948 0 0 1-.5.4c-.168.045-.864.163-2.218-1.668a16.53 16.53 0 0 1-2.313-4.988 22.474 22.474 0 0 0-2.913-5.294c-3.124-4.514-13.943-16.749-6.709-19.587z" data-name="Path 3582"/><g data-name="Group 1336"><path fill="#d75341" d="M106.59 116.95a29.271 29.271 0 0 1 2.266 3.764 28.845 28.845 0 0 0-2.132-3.975c-2.743-4.4-11.382-16.2-6.175-19.566-.005 0-1.072.335-1.077.338-6.369 3.421 3.998 14.924 7.118 19.439z" data-name="Path 3583" opacity=".33"/></g><path fill="#742051" d="M114.324 126.17a2.024 2.024 0 0 1 .649 2.257 1.355 1.355 0 0 1-.556.556c-.414.147-2.535.867-3.68-.185-.223-.205-.233-.366-.773-1.762a12.544 12.544 0 0 1-.876-2.4c.081-.042.368.608 1.113 1.36a3.453 3.453 0 0 0 1.711 1.165 2.994 2.994 0 0 0 2.412-.991z" data-name="Path 3584" opacity=".35"/><path fill="#ed0973" d="M109.401 121.912c.215.6 1.9 5.239 3.452 5.037.26-.034.608-.215.97-.877 0 0 .293-.764-1.563-3.835a10.617 10.617 0 0 1 1.825 2.959c.4.98 1.091 2.684.356 3.486a1.213 1.213 0 0 1-.49.316 4.369 4.369 0 0 1-2.794-1.562 7.688 7.688 0 0 1-.837-1.957 6.967 6.967 0 0 0 .247 1.863l-.188-.007a11.89 11.89 0 0 0-.769-2.53 3.591 3.591 0 0 1-.313-.989 3.537 3.537 0 0 1-.027-.906l.131-.998z" data-name="Path 3585"/></g><path fill="#f28086" d="M104.941 60.123a.886.886 0 0 0-.1-.254l-2.706.885s.393-.478.8-.89-.007-.816-.182-.649c-.332.316-1.474.483-1.929 1.43a2.973 2.973 0 0 0-.1 2.13 53.034 53.034 0 0 1-2.594 4.638c-.8 1.269-1.6 2.436-2.4 3.5a31.419 31.419 0 0 1-.564-.922c-2.074-3.523-2.1-5.125-3.616-6.611a6.846 6.846 0 0 0-3.046-1.683 13.424 13.424 0 0 0-.289 3.052 13.914 13.914 0 0 0 1.78 6.457c.859 1.4 4.722 5.253 6.114 4.846.6-.176 1.775-.761 3.649-5.207a67.57 67.57 0 0 0 2.192-7.676l.549-.369a15.061 15.061 0 0 0 1.43-1.134 4.789 4.789 0 0 0 .91-1.05.7.7 0 0 0 .102-.493z" data-name="Path 3586"/><g data-name="Group 1338"><path fill="#ea2e26" d="M77.616 84.628a.172.172 0 0 1-.044-.079c.419-.526.525-2.921.444-5.18-.8-6.235-1.355-10.848-1.638-12.711a3.893 3.893 0 0 1 .3-2.612 3.008 3.008 0 0 1 .808-.718c.367-.194 1.679-.778 3.48-1.5a3.635 3.635 0 0 0 2.405 1.75 2.717 2.717 0 0 0 2.318-.556 2.436 2.436 0 0 0 .708-1.372 8.419 8.419 0 0 1 2.718.273 1.961 1.961 0 0 1 .6.88c.434.929 3.113 7.311 2.887 8.038a6.844 6.844 0 0 1-.242.7c-.206.45-1.261 2.866-1.331 3.271a20.609 20.609 0 0 0-.9 3.016 21.824 21.824 0 0 0-.484 4.9c11.2.887 15.716 8.8 15.859 9.023.807 1.244 5.357 13.186 6.509 16.908-2.569.788-19.074 5.753-21.2 1.757-.326-.614-.3-1.415-.25-3.013a19.819 19.819 0 0 1 1.788-7.582l-.7.075s-7.154.289-7.57.287c-2.34-.021-4.555-.184-6.39-1.671a7.6 7.6 0 0 1-2.724-5.218c-.109-1.628 2.377-7.593 2.649-8.666z" data-name="Path 3587"/><path fill="#37215e" d="M77.619 84.455l.033-.157c.012-.058-1.2-17-1.05-20.226a2.42 2.42 0 0 1 1.361-.7c2.848-.339 7.725 5.58 7.215 10.925-.442 4.627-5.139 11.119-4.761 13.054.062.313 4.107 1.137 4.256.975 2.132-2.331 13.914-2.089 15.306 2.014.91 2.685-3.415 4.7-5.717 12.852-.518 1.835-.888 3.819.1 5.637a7.444 7.444 0 0 0 3.673 2.972c-.513.1-5.761.972-7.22-1.376-.375-.6-.3-1.458-.246-3.182a18.54 18.54 0 0 1 1.7-7.326s-7.747.27-8.163.268c-2.34-.021-4.7-.124-6.514-1.752a7.846 7.846 0 0 1-2.626-5.3c-.006-3.019 2.607-8.459 2.653-8.678z" data-name="Path 3588" opacity=".41"/></g><g data-name="Group 1339"><path fill="#f49092" d="M80.192 79.316a3.352 3.352 0 0 1-.568-.744 37.617 37.617 0 0 1-2.913-6.324c-1.736-5.576-.038-9.028 1.1-8.463a5.447 5.447 0 0 1 2.445 2.4 32.717 32.717 0 0 1 2.676 10.785c1.365 1.114 3.151 3.5 6.329 6.032l-.281 1.2a19.818 19.818 0 0 1-6.225-2.632 13.012 13.012 0 0 1-2.563-2.254z" data-name="Path 3589"/><path fill="#fff" d="M82.086 77.415a12.133 12.133 0 0 1-1.816-5.388 23.26 23.26 0 0 0-.238-4.149c-.351-1.732-.964-3.021-.8-3.1s.974 1.285 1.032 1.4a32.716 32.716 0 0 1 2.677 10.785c1.365 1.114 3.15 3.5 6.329 6.032l-.19.743a40.32 40.32 0 0 1-.706-.3c-.463-.2-.692-.2-.9-.409a1.08 1.08 0 0 1-.263-.484c-.131-.433-1.38-1.797-5.125-5.13z" data-name="Path 3590" opacity=".25"/></g><g data-name="Group 1341"><path fill="#f49092" fill-rule="evenodd" d="M79.044 56.137a7.2 7.2 0 0 0 .789 1.685 5.585 5.585 0 0 0 .634.881 2.24 2.24 0 0 1 .531.659 1.01 1.01 0 0 1 .139.485 12.586 12.586 0 0 1-.149 1.774 2.942 2.942 0 0 0 .642 1.132 3.2 3.2 0 0 0 2.529.943 3.289 3.289 0 0 0 2.465-1.842 2.105 2.105 0 0 1-.581-1.665 1.693 1.693 0 0 1 .224-.565 1.87 1.87 0 0 1 .8-.648 5.99 5.99 0 0 0 2.185-1.718 7.291 7.291 0 0 0 .977-4.4l-.546-4.561c-1.379-4.338-4.635-1.619-4.635-1.619-3.43 9.843-5.623 7.628-5.623 7.628-.3-2.387-2.637-2.162-2.1.3.015.07.208 1.447 1.06 1.629a1.077 1.077 0 0 0 .659-.098z" data-name="Path 3591"/><g data-name="Group 1340" transform="translate(78.264 45.669)"><path fill="#d75341" fill-rule="evenodd" d="M11.449 2.882c-.966-1.166-1.728-1.35-2.206-1.34-2.989.063-4.88 7.918-7.022 7.56a3.525 3.525 0 0 1-1.086-.511 2.715 2.715 0 0 0 .559.223c1.125.2 2.917-2.192 3.839-4.8.673-1.9.426-2.622 1.278-3.319a2.958 2.958 0 0 1 3.26-.353 3.108 3.108 0 0 1 1.378 2.54z" data-name="Path 3592" opacity=".33"/><path fill="#d75341" d="M9.599 7.236l-.224 1.518s.645.027.616.446-.266.507-.266.507.708.007.7-.573a.806.806 0 0 0-.627-.723z" data-name="Path 3593"/><path fill="#d75341" d="M.613 8.275a.749.749 0 0 0-.217.606.6.6 0 0 0 .4.432s-.605.217-.775-.31.592-.728.592-.728z" data-name="Path 3594"/><path fill="#fff7d0" d="M7.313 11.293c.44-.048 1.043-.2 1.337.049a.125.125 0 0 1 .052.084c.008.187-.662.436-1.274.443a1.884 1.884 0 0 1-1.364-.469 1.459 1.459 0 0 1-.2-.252 3.677 3.677 0 0 0 1.449.145z" data-name="Path 3595"/><path fill="#742051" d="M5.652 4.215c.051.277.493.535 1.1.375s.742-.49.488-.7-1.639.048-1.588.325z" data-name="Path 3596"/><path fill="#742051" d="M9.896 3.928c-.038.279.313.6.948.529s.876-.37.693-.612-1.604-.195-1.641.083z" data-name="Path 3597"/><ellipse cx=".509" cy=".913" fill="#742051" data-name="Ellipse 68" rx=".509" ry=".913" transform="matrix(.999 -.051 .051 .999 5.992 6.004)"/><ellipse cx=".509" cy=".913" fill="#742051" data-name="Ellipse 69" rx=".509" ry=".913" transform="rotate(-2.92 119.17 -201.882)"/><path fill="#d75341" d="M8.802 13.306s-1.881.784-.442 2.879a3.052 3.052 0 0 1-4.683 1.209l-.433-.412s3.36.866 3.566-1.072c.409-1.196.067-1.807 1.992-2.604z" data-name="Path 3598" opacity=".33"/></g></g></g></g></g><g data-name="Group 1365"><g data-name="Group 1349"><g data-name="Group 1345"><path fill="#f3a61d" d="M136.303 89.79l14.126-.543-.032 38.414a122.694 122.694 0 0 1-14.122 2.885c.007-13.477.016-27.279.028-40.756z" data-name="Path 3599"/><path fill="#37215e" d="M115.434 90.46l20.869-.311-.028 40.483-20.778-5.84z" data-name="Path 3600"/></g><g data-name="Group 1346"><path fill="#2b337c" d="M72.004 90.726l4.282-.335-5.958 51.839a2.113 2.113 0 0 1-1.726 1.442s-1.313.345-.9-1.411z" data-name="Path 3601"/><path fill="#845ba5" d="M76.287 90.391l-5.958 51.839a2.113 2.113 0 0 1-1.726 1.442s-1.074.277-.966-.976a1.04 1.04 0 0 0 .385.369c.61.286 1.232-.108 1.575-.759l4.813-51.768z" data-name="Path 3602"/></g><g data-name="Group 1347"><path fill="#2b337c" d="M44.092 90.525l3.934.2-12.183 42.357a1.96 1.96 0 0 1-1.756 1s-1.237.14-.63-1.271z" data-name="Path 3603"/><path fill="#845ba5" d="M48.027 90.726l-12.183 42.357a1.96 1.96 0 0 1-1.757 1 .664.664 0 0 1-.75-.918.857.857 0 0 0 .3.348 1.2 1.2 0 0 0 1.531-.453l11.133-42.426z" data-name="Path 3604"/></g><g data-name="Group 1348"><path fill="url(#b)" d="M1669.254 1938.882c-41.123 1.451-84.928 3.01-84.891 3.071h.007c.892.056 36.881 2.108 41.547 2.374a4504.6 4504.6 0 0 1 19.5-.838c39.241-1.6 62.825-1.759 62.832-2.513-.001-.419-7.298-1.071-38.995-2.094z" data-name="Path 3605" transform="translate(-1557.402 -1852.76)"/><path fill="#f3a61d" d="M68.769 93.014c27.4-1.193 54.553-2.381 81.953-3.574l.3-1.278c-27.457.938-54.8 2.154-82.259 3.091-.045.681.048 1.079.006 1.761z" data-name="Path 3606"/><path fill="#bb802b" d="M27.017 90.749l41.754 2.277v-1.79l-41.754-2.277z" data-name="Path 3607"/></g></g><g data-name="Group 1364"><g data-name="Group 1350"><path fill="#c4217f" d="M106.576 75.171v-.9h2v.9a2.047 2.047 0 0 1 1.409 1.846v9.351a.974.974 0 0 1-1.045.882h-2.731a.974.974 0 0 1-1.045-.882v-9.351a2.047 2.047 0 0 1 1.412-1.846z" data-name="Path 3608" opacity=".47"/><path fill="#fff" d="M108.945 86.836a.513.513 0 0 0 .55-.464v-9.351a1.631 1.631 0 0 0-1.122-1.467l-.288-.112v-.752h-1.016v.752l-.288.112a1.631 1.631 0 0 0-1.121 1.467v9.351a.513.513 0 0 0 .55.464z" data-name="Path 3609" opacity=".47"/><path fill="#831939" d="M108.751 74.48h-2.35v-.964h2.35z" data-name="Rectangle 143"/></g><g data-name="Group 1357"><g data-name="Group 1356"><g data-name="Group 1355"><path fill="#9682bc" d="M122.693 84.816a57.061 57.061 0 0 0 .488-8.318c-.01-1.39-.079-2.777-.178-4.161s-.248-2.763-.421-4.136a83.975 83.975 0 0 0-1.477-8.152q-.467-2.013-1.033-4a60.322 60.322 0 0 0-1.249-3.92l-.147.067c.448 1.285.838 2.6 1.2 3.921s.689 2.655.985 4a83.47 83.47 0 0 1 1.379 8.136c.157 1.368.293 2.74.372 4.117s.136 2.753.13 4.131a56.48 56.48 0 0 1-.575 8.223z" data-name="Path 3610"/><path fill="#9682bc" d="M118.095 46.61a3.833 3.833 0 0 1 1.427 2.7 4.054 4.054 0 0 1-.694 3.036 3.835 3.835 0 0 1-1.427-2.7 4.055 4.055 0 0 1 .694-3.036z" data-name="Path 3611"/><path fill="#9682bc" d="M122.26 50.836a3.122 3.122 0 0 1-.783 2.287 2.529 2.529 0 0 1-2 1.016 3.121 3.121 0 0 1 .784-2.287 2.529 2.529 0 0 1 1.999-1.016z" data-name="Path 3612"/><path fill="#9682bc" d="M119.355 54.142a2.408 2.408 0 0 1-2.2.186 2.741 2.741 0 0 1-1.682-1.581 2.408 2.408 0 0 1 2.2-.187 2.742 2.742 0 0 1 1.682 1.582z" data-name="Path 3613"/><path fill="#9682bc" d="M120.162 57.146a2.408 2.408 0 0 1-2.2.186 2.741 2.741 0 0 1-1.682-1.581 2.406 2.406 0 0 1 2.2-.187 2.742 2.742 0 0 1 1.682 1.582z" data-name="Path 3614"/><path fill="#9682bc" d="M121.009 60.262a2.408 2.408 0 0 1-2.2.187 2.742 2.742 0 0 1-1.682-1.581 2.406 2.406 0 0 1 2.2-.187 2.741 2.741 0 0 1 1.682 1.581z" data-name="Path 3615"/><path fill="#9682bc" d="M121.577 63.165a2.408 2.408 0 0 1-2.2.187 2.743 2.743 0 0 1-1.682-1.581 2.408 2.408 0 0 1 2.2-.187 2.741 2.741 0 0 1 1.682 1.581z" data-name="Path 3616"/><path fill="#9682bc" d="M121.341 62.578a2.408 2.408 0 0 0 2.2.186 2.741 2.741 0 0 0 1.682-1.581 2.408 2.408 0 0 0-2.2-.187 2.743 2.743 0 0 0-1.682 1.582z" data-name="Path 3617"/><path fill="#9682bc" d="M123.02 53.597a3.121 3.121 0 0 1-.783 2.287 2.53 2.53 0 0 1-2 1.017 3.121 3.121 0 0 1 .783-2.287 2.53 2.53 0 0 1 2-1.017z" data-name="Path 3618"/><path fill="#9682bc" d="M123.891 56.735a3.122 3.122 0 0 1-.783 2.287 2.531 2.531 0 0 1-2 1.017 3.122 3.122 0 0 1 .783-2.287 2.529 2.529 0 0 1 2-1.017z" data-name="Path 3619"/><g fill="#9682bc" data-name="Group 1351"><path d="M106.733 59.403a26 26 0 0 1 3.086 2.272 35.938 35.938 0 0 1 2.823 2.663q1.348 1.413 2.563 2.975a40.193 40.193 0 0 1 2.267 3.262 39.933 39.933 0 0 1 3.54 7.242 43.5 43.5 0 0 1 2.049 7.934l-.525.1a43.045 43.045 0 0 0-1.912-7.859 39.664 39.664 0 0 0-3.4-7.224c-.685-1.131-1.418-2.226-2.2-3.275s-1.625-2.047-2.506-3a35.984 35.984 0 0 0-2.773-2.7 26.051 26.051 0 0 0-3.041-2.315z" data-name="Path 3620"/><path d="M102.733 56.303a3.82 3.82 0 0 0 1.518 2.64 3.118 3.118 0 0 0 2.75.695 3.819 3.819 0 0 0-1.518-2.64 3.118 3.118 0 0 0-2.75-.695z" data-name="Path 3621"/><path d="M108.875 55.528a4 4 0 0 0-.919 2.961 3.911 3.911 0 0 0 1.219 2.825 4 4 0 0 0 .919-2.961 3.911 3.911 0 0 0-1.219-2.825z" data-name="Path 3622"/><path d="M112.499 57.549a3.765 3.765 0 0 0-1.6 2.582 4.089 4.089 0 0 0 .5 3.083 3.765 3.765 0 0 0 1.6-2.582 4.088 4.088 0 0 0-.5-3.083z" data-name="Path 3623"/><path d="M114.947 60.048a3.766 3.766 0 0 0-1.6 2.582 4.091 4.091 0 0 0 .5 3.083 3.763 3.763 0 0 0 1.6-2.582 4.089 4.089 0 0 0-.5-3.083z" data-name="Path 3624"/><path d="M117.762 62.614a3.5 3.5 0 0 0-2.138 2.043 4.124 4.124 0 0 0-.229 3.122 3.5 3.5 0 0 0 2.138-2.043 4.122 4.122 0 0 0 .229-3.122z" data-name="Path 3625"/><path d="M119.745 65.826a2.912 2.912 0 0 0-2.263 1.231 3.585 3.585 0 0 0-.831 2.641 2.91 2.91 0 0 0 2.262-1.231 3.585 3.585 0 0 0 .832-2.641z" data-name="Path 3626"/><path d="M121.185 67.852a2.91 2.91 0 0 0-2.262 1.23 3.585 3.585 0 0 0-.832 2.641 2.911 2.911 0 0 0 2.262-1.23 3.584 3.584 0 0 0 .832-2.641z" data-name="Path 3627"/><path d="M122.006 70.834a2.5 2.5 0 0 0-1.939 1.055 3.074 3.074 0 0 0-.713 2.264 2.5 2.5 0 0 0 1.939-1.055 3.073 3.073 0 0 0 .713-2.264z" data-name="Path 3628"/><path d="M122.803 73.942a1.988 1.988 0 0 0-1.812-.036 2.3 2.3 0 0 0-1.321 1.377 1.988 1.988 0 0 0 1.812.036 2.3 2.3 0 0 0 1.321-1.377z" data-name="Path 3629"/><path d="M123.125 76.505a1.654 1.654 0 0 0-1.368-.542 1.688 1.688 0 0 0-1.32.671 1.654 1.654 0 0 0 1.368.542 1.687 1.687 0 0 0 1.32-.671z" data-name="Path 3630"/><path d="M104.249 63.112a3.078 3.078 0 0 0 2.816.177 3.529 3.529 0 0 0 2.116-2.071 3.079 3.079 0 0 0-2.816-.177 3.53 3.53 0 0 0-2.116 2.071z" data-name="Path 3631"/><path d="M106.476 65.145a3.078 3.078 0 0 0 2.816.177 3.531 3.531 0 0 0 2.116-2.071 3.078 3.078 0 0 0-2.817-.177 3.53 3.53 0 0 0-2.115 2.071z" data-name="Path 3632"/><path d="M108.849 67.654a3.078 3.078 0 0 0 2.816.177 3.532 3.532 0 0 0 2.116-2.071 3.079 3.079 0 0 0-2.816-.177 3.529 3.529 0 0 0-2.116 2.071z" data-name="Path 3633"/><path d="M111.527 69.322a2.5 2.5 0 0 0 2.291.144 2.871 2.871 0 0 0 1.721-1.684 2.5 2.5 0 0 0-2.291-.144 2.871 2.871 0 0 0-1.721 1.684z" data-name="Path 3634"/><path d="M113.533 70.916a1.988 1.988 0 0 0 1.86.146 2.285 2.285 0 0 0 1.381-1.391 1.987 1.987 0 0 0-1.859-.146 2.285 2.285 0 0 0-1.382 1.391z" data-name="Path 3635"/><path d="M114.731 72.965a1.987 1.987 0 0 0 1.859.146 2.287 2.287 0 0 0 1.381-1.391 1.988 1.988 0 0 0-1.86-.146 2.286 2.286 0 0 0-1.38 1.391z" data-name="Path 3636"/><path d="M116.045 74.82a1.971 1.971 0 0 0 1.692.408 2.111 2.111 0 0 0 1.489-.98 1.971 1.971 0 0 0-1.692-.408 2.111 2.111 0 0 0-1.489.98z" data-name="Path 3637"/><path d="M117.314 77.155a1.713 1.713 0 0 0 1.493-.366 2.09 2.09 0 0 0 .851-1.411 1.713 1.713 0 0 0-1.493.367 2.089 2.089 0 0 0-.851 1.41z" data-name="Path 3638"/><path d="M118.728 78.552a1.355 1.355 0 0 0 1.075-.511 1.67 1.67 0 0 0 .459-1.195 1.355 1.355 0 0 0-1.075.511 1.67 1.67 0 0 0-.459 1.195z" data-name="Path 3639"/><path d="M119.666 78.915a.776.776 0 0 0 .683-.284.971.971 0 0 0 .255-.759.777.777 0 0 0-.684.284.972.972 0 0 0-.254.759z" data-name="Path 3640"/><path d="M119.968 79.604a.775.775 0 0 0 .683-.284.97.97 0 0 0 .255-.759.775.775 0 0 0-.683.284.969.969 0 0 0-.255.759z" data-name="Path 3641"/></g><g fill="#2b337c" data-name="Group 1352"><path d="M130.84 57.091a26.674 26.674 0 0 0-2.1 3.017 36.758 36.758 0 0 0-1.765 3.274q-.8 1.688-1.453 3.461c-.428 1.182-.8 2.39-1.115 3.616a39.246 39.246 0 0 0-1.165 7.532 41.192 41.192 0 0 0 .331 7.647l.487-.088a40.642 40.642 0 0 1-.431-7.536 38.9 38.9 0 0 1 1.049-7.472c.3-1.22.648-2.425 1.057-3.606s.878-2.337 1.4-3.465a36.647 36.647 0 0 1 1.711-3.289 26.7 26.7 0 0 1 2.049-3.04z" data-name="Path 3642"/><path d="M133.521 53.044a3.774 3.774 0 0 1-.625 2.821 3.1 3.1 0 0 1-2.229 1.521 3.775 3.775 0 0 1 .624-2.821 3.1 3.1 0 0 1 2.23-1.521z" data-name="Path 3643"/><path d="M127.918 54.397a3.436 3.436 0 0 1 1.6 2.3 3.811 3.811 0 0 1-.312 2.885 3.437 3.437 0 0 1-1.6-2.3 3.811 3.811 0 0 1 .312-2.885z" data-name="Path 3644"/><path d="M125.277 57.372a3.177 3.177 0 0 1 2.1 1.74 3.81 3.81 0 0 1 .391 2.873 3.177 3.177 0 0 1-2.1-1.74 3.81 3.81 0 0 1-.391-2.873z" data-name="Path 3645"/><path d="M123.799 60.377a3.178 3.178 0 0 1 2.1 1.74 3.809 3.809 0 0 1 .391 2.873 3.177 3.177 0 0 1-2.1-1.74 3.808 3.808 0 0 1-.391-2.873z" data-name="Path 3646"/><path d="M122.015 63.564a2.974 2.974 0 0 1 2.427 1.086 3.676 3.676 0 0 1 1.04 2.666 2.973 2.973 0 0 1-2.427-1.087 3.674 3.674 0 0 1-1.04-2.665z" data-name="Path 3647"/><path d="M121.137 67.042a2.558 2.558 0 0 1 2.318.332 3.086 3.086 0 0 1 1.439 2.044 2.558 2.558 0 0 1-2.317-.332 3.087 3.087 0 0 1-1.44-2.044z" data-name="Path 3648"/><path d="M120.416 69.295a2.557 2.557 0 0 1 2.317.332 3.084 3.084 0 0 1 1.439 2.044 2.558 2.558 0 0 1-2.318-.332 3.085 3.085 0 0 1-1.438-2.044z" data-name="Path 3649"/><path d="M120.495 72.187a2.191 2.191 0 0 1 1.986.285 2.644 2.644 0 0 1 1.234 1.752 2.193 2.193 0 0 1-1.987-.284 2.645 2.645 0 0 1-1.233-1.753z" data-name="Path 3650"/><path d="M120.629 75.182a1.917 1.917 0 0 1 1.582-.631 1.951 1.951 0 0 1 1.53.772 1.916 1.916 0 0 1-1.582.631 1.952 1.952 0 0 1-1.53-.772z" data-name="Path 3651"/><path d="M121.035 77.54a1.672 1.672 0 0 1 1.056-.928 1.484 1.484 0 0 1 1.34.152 1.671 1.671 0 0 1-1.056.928 1.484 1.484 0 0 1-1.34-.152z" data-name="Path 3652"/><path d="M134.017 59.526a3.207 3.207 0 1 1-2.415-1.119 2.988 2.988 0 0 1 2.415 1.119z" data-name="Path 3653"/><path d="M132.609 62.05a3.207 3.207 0 1 1-2.415-1.119 2.988 2.988 0 0 1 2.415 1.119z" data-name="Path 3654"/><path d="M131.198 65.039a3.207 3.207 0 1 1-2.415-1.119 2.989 2.989 0 0 1 2.415 1.119z" data-name="Path 3655"/><path d="M129.293 67.391a2.609 2.609 0 1 1-1.964-.91 2.43 2.43 0 0 1 1.964.91z" data-name="Path 3656"/><path d="M127.959 69.455a2.054 2.054 0 1 1-1.586-.764 1.933 1.933 0 0 1 1.586.764z" data-name="Path 3657"/><path d="M127.457 71.651a2.054 2.054 0 1 1-1.586-.764 1.934 1.934 0 0 1 1.586.764z" data-name="Path 3658"/><path d="M126.801 73.716a1.961 1.961 0 0 1-1.376.918 1.826 1.826 0 0 1-1.571-.368 1.961 1.961 0 0 1 1.376-.918 1.825 1.825 0 0 1 1.571.368z" data-name="Path 3659"/><path d="M126.314 76.187a1.576 1.576 0 0 1-1.41.172 1.764 1.764 0 0 1-1.126-.957 1.574 1.574 0 0 1 1.41-.172 1.765 1.765 0 0 1 1.126.957z" data-name="Path 3660"/><path d="M125.446 77.88a1.2 1.2 0 0 1-1.082-.093 1.428 1.428 0 0 1-.724-.9 1.2 1.2 0 0 1 1.082.093 1.425 1.425 0 0 1 .724.9z" data-name="Path 3661"/><path d="M124.72 78.511a.694.694 0 0 1-.677-.023.834.834 0 0 1-.428-.582.694.694 0 0 1 .677.023.834.834 0 0 1 .428.582z" data-name="Path 3662"/><path d="M124.639 79.216a.693.693 0 0 1-.676-.023.833.833 0 0 1-.428-.582.694.694 0 0 1 .677.023.834.834 0 0 1 .427.582z" data-name="Path 3663"/></g><g fill="#9682bc" data-name="Group 1353"><path d="M128.57 72.206a1.628 1.628 0 0 0 1.293.481 1.653 1.653 0 0 0 1.258-.583 1.627 1.627 0 0 0-1.292-.481 1.652 1.652 0 0 0-1.259.583z" data-name="Path 3664"/><path d="M125.902 76.371a79.726 79.726 0 0 1 3.7-5.527l-.021-.02a79.57 79.57 0 0 0-3.808 5.449 67.074 67.074 0 0 0-3.349 5.818q-.368.731-.716 1.477l.271.17q.333-.755.691-1.5a68.19 68.19 0 0 1 3.232-5.867z" data-name="Path 3665"/><path d="M130.906 68.424a1.583 1.583 0 0 0-1.157.881 1.921 1.921 0 0 0-.158 1.548 1.584 1.584 0 0 0 1.157-.881 1.92 1.92 0 0 0 .158-1.548z" data-name="Path 3666"/><path d="M127.696 69.531a2.114 2.114 0 0 0 .013 1.514 1.86 1.86 0 0 0 .907 1.13 2.113 2.113 0 0 0-.012-1.514 1.858 1.858 0 0 0-.908-1.13z" data-name="Path 3667"/><path d="M127.587 73.703a1.6 1.6 0 0 0 1.33.334 1.693 1.693 0 0 0 1.2-.721 1.6 1.6 0 0 0-1.33-.334 1.694 1.694 0 0 0-1.2.721z" data-name="Path 3668"/><path d="M126.297 75.551a1.6 1.6 0 0 0 1.33.334 1.7 1.7 0 0 0 1.2-.721 1.6 1.6 0 0 0-1.33-.334 1.694 1.694 0 0 0-1.2.721z" data-name="Path 3669"/><path d="M125.422 77.023a1.6 1.6 0 0 0 1.33.334 1.694 1.694 0 0 0 1.2-.721 1.6 1.6 0 0 0-1.33-.334 1.7 1.7 0 0 0-1.2.721z" data-name="Path 3670"/><path d="M124.451 78.649a1.6 1.6 0 0 0 1.33.334 1.694 1.694 0 0 0 1.2-.721 1.6 1.6 0 0 0-1.33-.334 1.7 1.7 0 0 0-1.2.721z" data-name="Path 3671"/><path d="M126.572 71.117a2.114 2.114 0 0 0 .013 1.514 1.859 1.859 0 0 0 .908 1.13 2.117 2.117 0 0 0-.013-1.514 1.858 1.858 0 0 0-.908-1.13z" data-name="Path 3672"/><path d="M125.5 72.75a2.116 2.116 0 0 0 .012 1.514 1.858 1.858 0 0 0 .907 1.13 2.117 2.117 0 0 0-.012-1.514 1.859 1.859 0 0 0-.907-1.13z" data-name="Path 3673"/><path d="M124.479 74.395a2.116 2.116 0 0 0 .012 1.514 1.859 1.859 0 0 0 .908 1.13 2.117 2.117 0 0 0-.012-1.514 1.86 1.86 0 0 0-.908-1.13z" data-name="Path 3674"/><path d="M123.49 76.007a2.115 2.115 0 0 0 .012 1.514 1.86 1.86 0 0 0 .908 1.13 2.116 2.116 0 0 0-.012-1.514 1.861 1.861 0 0 0-.908-1.13z" data-name="Path 3675"/></g><g fill="#2b337c" data-name="Group 1354"><path d="M112.272 71.147a1.655 1.655 0 0 1-1.255.591 1.626 1.626 0 0 1-1.295-.474 1.654 1.654 0 0 1 1.255-.591 1.626 1.626 0 0 1 1.295.474z" data-name="Path 3676"/><path d="M115.222 75.073a77.611 77.611 0 0 0-4.077-5.192l.02-.022a77.398 77.398 0 0 1 4.177 5.106 65.649 65.649 0 0 1 3.744 5.513q.418.7.816 1.411c-.086.064-.173.128-.258.193q-.385-.725-.793-1.434a65.846 65.846 0 0 0-3.629-5.575z" data-name="Path 3677"/><path d="M109.682 67.573a1.55 1.55 0 0 1 1.215.779 1.907 1.907 0 0 1 .265 1.53 1.55 1.55 0 0 1-1.215-.779 1.908 1.908 0 0 1-.265-1.53z" data-name="Path 3678"/><path d="M112.958 68.406a2.111 2.111 0 0 1 .093 1.51 1.9 1.9 0 0 1-.826 1.2 2.112 2.112 0 0 1-.093-1.51 1.9 1.9 0 0 1 .826-1.2z" data-name="Path 3679"/><path d="M113.356 72.555a1.62 1.62 0 0 1-1.3.447 1.661 1.661 0 0 1-1.245-.616 1.62 1.62 0 0 1 1.3-.448 1.662 1.662 0 0 1 1.245.617z" data-name="Path 3680"/><path d="M114.771 74.287a1.619 1.619 0 0 1-1.3.448 1.661 1.661 0 0 1-1.245-.616 1.618 1.618 0 0 1 1.3-.448 1.66 1.66 0 0 1 1.245.616z" data-name="Path 3681"/><path d="M115.747 75.68a1.619 1.619 0 0 1-1.3.448 1.662 1.662 0 0 1-1.245-.616 1.62 1.62 0 0 1 1.3-.448 1.662 1.662 0 0 1 1.245.616z" data-name="Path 3682"/><path d="M116.828 77.217a1.619 1.619 0 0 1-1.3.448 1.662 1.662 0 0 1-1.246-.616 1.619 1.619 0 0 1 1.3-.447 1.663 1.663 0 0 1 1.246.615z" data-name="Path 3683"/><path d="M114.188 69.89a2.111 2.111 0 0 1 .093 1.51 1.9 1.9 0 0 1-.826 1.2 2.112 2.112 0 0 1-.093-1.51 1.9 1.9 0 0 1 .826-1.2z" data-name="Path 3684"/><path d="M115.371 71.426a2.109 2.109 0 0 1 .093 1.51 1.9 1.9 0 0 1-.826 1.2 2.112 2.112 0 0 1-.093-1.51 1.9 1.9 0 0 1 .826-1.2z" data-name="Path 3685"/><path d="M116.503 72.979a2.109 2.109 0 0 1 .093 1.51 1.9 1.9 0 0 1-.826 1.2 2.111 2.111 0 0 1-.093-1.51 1.9 1.9 0 0 1 .826-1.2z" data-name="Path 3686"/><path d="M117.602 74.501a2.111 2.111 0 0 1 .093 1.51 1.9 1.9 0 0 1-.826 1.2 2.111 2.111 0 0 1-.093-1.51 1.9 1.9 0 0 1 .826-1.2z" data-name="Path 3687"/></g></g></g><path fill="#f15f5c" d="M126.671 80.712h-7.736a3.633 3.633 0 0 0-2.1 3.025 3.757 3.757 0 0 0 2.367 3.168h7.2a3.757 3.757 0 0 0 2.367-3.168 3.633 3.633 0 0 0-2.098-3.025z" data-name="Path 3688"/><path fill="#f6eb84" d="M125.944 81.391a2.062 2.062 0 0 1 2.048 1.823 2.269 2.269 0 0 1-3.171 2.634c1.086-.3 2.274-.856 2.309-2.1a2.614 2.614 0 0 0-.295-1.3 3.525 3.525 0 0 0-.327-.487 3.459 3.459 0 0 0-.564-.57z" data-name="Path 3689"/><path fill="#ea2e26" d="M118.486 80.34h8.546v.596h-8.546z" data-name="Rectangle 144"/></g><g data-name="Group 1362"><g data-name="Group 1359"><g data-name="Group 1358"><path fill="#ed0973" d="M129.967 88.298l6.512-.271 6.486-.19-2.718-4.993c-4.219-.028-8.427.08-12.646.052l-3.007 4.8q1.288.2 2.687.362t2.686.24z" data-name="Path 3690"/></g></g><path fill="#111730" d="M127.619 83.055l-2.807 4.511 5.144.6z" data-name="Path 3691"/><g data-name="Group 1361"><g fill="url(#a)" data-name="Group 1360" transform="translate(130.857 83.357)"><path d="M2.804 3.429c-.617.007-.978.016-1.491.022-.1-.266-.16-.409-.277-.711l.185-.008c-.26-.66-.406-1.031-.7-1.811L.346.926C.211.565.146.379.002-.001.424.005.88.016 1.544.022c.129.351.194.526.323.869h-.2l.206.543a56.5 56.5 0 0 0 .678-.027l-.2-.535-.178.006c-.127-.34-.191-.513-.317-.859.608 0 .72-.013 1.3-.005.149.374.219.552.355.9L3.302.901c.3.747.431 1.091.68 1.759h.2c.111.3.164.451.267.746-.533.021-.749.015-1.342.019-.1-.293-.155-.445-.269-.757l.178-.007-.2-.546-.672.03c.084.221.125.329.2.541l.192-.007c.114.312.168.462.268.75z" data-name="Path 3692"/><path d="M6.194 3.386c-.679.006-.867-.013-1.417.007-.1-.291-.149-.435-.254-.732h.213a50.2 50.2 0 0 0-.63-1.712L3.88.934a98.118 98.118 0 0 0-.359-.915c.6.009.738.006 1.329.007.133 0 .267 0 .393.011s.238.017.333.029a2.661 2.661 0 0 1 .265.047 1.5 1.5 0 0 1 .635.33 1.791 1.791 0 0 1 .458.6 1.091 1.091 0 0 1 .128.483.4.4 0 0 1-.148.329c.295.292.44.437.718.736h.176c.146.321.217.48.355.79-.35-.018-.6-.013-1.09-.005-.5-.5-.744-.744-1.209-1.243l-.35.026c.08.211.118.313.193.516l.217-.01c.111.291.163.433.27.721zM5.018.9c.116.282.169.415.27.67l.114-.011a2.117 2.117 0 0 0 .32-.046.184.184 0 0 0 .123-.111.281.281 0 0 0-.022-.215.519.519 0 0 0-.16-.211.425.425 0 0 0-.211-.09 2.142 2.142 0 0 0-.343.007z" data-name="Path 3693"/></g></g></g><g data-name="Group 1363" transform="translate(79.003 72.392)"><path fill="url(#a)" d="M2224.879 1802.984l-22.962 1.985a103.287 103.287 0 0 1 2.275-13 3.659 3.659 0 0 1 1.229-1.951 3.733 3.733 0 0 1 2.508-.643l16.416-.471a1.863 1.863 0 0 1 2.033 1.973z" data-name="Path 3694" transform="translate(-2197.426 -1788.901)"/><rect width="27.586" height="1.536" fill="url(#c)" data-name="Rectangle 145" rx=".669" transform="rotate(-1.861 457.68 7.434)"/><path fill="#ed0973" d="M5.043 12.284l-.429 2.375 22.853-.684 1.274-10.287a54.274 54.274 0 0 1-20.689 8.188q-1.532.254-3.009.408z" data-name="Path 3695" opacity=".5"/></g></g></g><g data-name="Group 1383"><g fill="#570b1f" data-name="Group 1367"><path d="M160.794 81.806a1.129 1.129 0 0 0-1.171 1.026c-.373 3.263-1.85 12.792-1.708 14.39.213 2.405 19.466 2.639 20.819 2.325 1.146-.265.356-11.98.088-15.559a1.155 1.155 0 0 0-1.057-1.09z" data-name="Path 3696"/><g data-name="Group 1366"><path d="M169.622 72.814a3.452 3.452 0 0 0-1.608.3c.357.182.737.387 1.135.614a2.1 2.1 0 0 1 .492.009c3.486.484 6.866 9.084 6.866 9.084l1.25.08s-3.81-9.768-8.135-10.087z" data-name="Path 3697"/><path d="M163.479 77.568a33.086 33.086 0 0 0-2.4 4.257l1.5.1a32.282 32.282 0 0 1 1.812-3.6 2.617 2.617 0 0 1-.912-.757z" data-name="Path 3698"/></g></g><g data-name="Group 1372"><path fill="#2b337c" d="M168.808 57.893s-2.427 4.125-2.757 6.488c-.441 3.16.706 4.776.107 12.473-.125 1.608-2.119 7.075-2.437 10.427-.8 8.4 1.555 12.329 1.707 18.964.261 11.434.38 22.635.452 25.348.034 1.272.546 2.565 1 1.749 1.623-2.915 4.375-14.66 4.49-19.249 0 0 1.382 11.9 2.882 16.42 0 0 .322 2.6.957 2.806s1.252-1.644 1.453-3.958 2.91-14.169 2.432-16.71a39.021 39.021 0 0 0-1.992-7.117s10.333-18.823.113-30.609c0 0-1.879-3.486-1.712-6.308 0 0 .729-4.757.727-4.792-.213-3.333-1.786-4.772-2.215-6.183-.224-.736-5.118-.363-5.207.251z" data-name="Path 3699"/><path fill="#ea2e26" d="M166.032 77.617a12.255 12.255 0 0 0 12.362-1.171 17.7 17.7 0 0 0-1.179-1.523s-1.879-3.486-1.712-6.308c0 0 .729-4.757.727-4.792-.213-3.333-1.786-4.772-2.215-6.183-.223-.732-5.116-.36-5.206.253 0 0-2.427 4.125-2.757 6.488-.442 3.16.705 4.776.106 12.473a6.086 6.086 0 0 1-.126.763z" data-name="Path 3700"/><path fill="#0d1333" d="M176.161 95.829l-2.375 12.368 2.221 21.508.652-.222s2.722-15.2 2.512-16.287c-.094-.927-1.552-7.415-2.069-7.663.3-.546 3.519-7.808 3.26-8.579s-4.201-1.125-4.201-1.125z" data-name="Path 3701" opacity=".46"/><g data-name="Group 1371"><g stroke="#000" stroke-miterlimit="10" stroke-width="2" data-name="Group 1368" transform="translate(165.599 75.751)"><path fill="none" d="M5.788 38.471c-.513-4.127-2.183-26.162-2.183-26.162a21.09 21.09 0 0 1-1.526-4.932C1.85 5.336 2.845.001 2.845.001A22.837 22.837 0 0 0-.001.459" data-name="Path 3702"/><path fill="#fff" fill-rule="evenodd" d="M11.055 5.731l.046.183.046.183.045.184.044.184.044.184.036.157.006.027.038.186.036.186.036.186.034.187.033.187.016.093.016.094.015.093.016.094.015.094.015.094.015.094.014.094.014.094.013.094.013.094.013.094.013.094.012.094.012.094.011.094.011.094.011.094.01.094.01.094.01.095.01.094.009.095.009.095.008.095.008.095.007.095.007.095.006.095.006.1.006.1.005.1V13.147l-.009.17-.01.17-.011.17-.012.17-.013.17-.014.169-.015.169-.016.169-.017.169-.018.169-.019.169-.02.169-.02.169-.021.168-.022.169-.023.168-.023.168-.024.168-.025.168-.026.168-.026.168-.027.167-.028.168-.028.167-.029.167-.029.167-.03.167-.031.167-.031.167-.032.167-.032.167-.032.167-.033.166-.033.167-.033.166-.034.166-.034.166v.005l-.034.161-.035.166-.035.166-.071.331-.072.33-.073.33-.073.33-.147.657-.147.656-.051.228-.052.228-.052.228-.052.228-.1.455-.106.455-.106.455-.1.455-.052.228-.052.228-.052.228-.051.228-.051.228-.042.192-.008.036-.05.228-.049.228-.048.228-.048.228-.047.229-.046.228-.045.229-.044.229-.021.115-.021.115-.021.115-.021.115-.021.115-.02.115-.02.115-.02.115-.019.115-.019.115-.019.115-.018.115-.014.088-.014.088-.029.175-.03.175-.029.174-.029.174-.029.174-.014.087-.014.087-.013.087-.013.087-.012.086-.011.087-.011.087-.01.086-.006.052-.007.034-.015.086-.014.086-.013.086-.012.086-.011.086-.01.087-.009.087V32.584l-.075.091-.078-.088v-1.029l.006-.053.011-.089.011-.089.012-.089.013-.089.013-.089.014-.088.013-.088.014-.088.029-.175.03-.175.03-.175.03-.174.029-.174.014-.087.014-.087.019-.116.019-.116.019-.116.019-.116.02-.116.02-.115.02-.116.021-.115.021-.116.021-.115.021-.115.022-.115.044-.23.045-.23.046-.23.047-.229.048-.229.049-.229.05-.229.051-.229.008-.036.043-.193.052-.228.052-.228.052-.228.053-.228.053-.228.107-.455.107-.455.107-.455.107-.454.053-.227.052-.227.052-.227.052-.227.149-.655.149-.656.074-.329.074-.329.073-.329.072-.33.036-.165.036-.165.034-.16h0l.035-.166.034-.165.034-.165.034-.166.033-.165.033-.166.032-.166.032-.166.032-.166.031-.166.031-.166.03-.166.03-.166.029-.166.028-.166.028-.166.027-.167.026-.167.026-.167.025-.167.024-.167.023-.167.023-.167.022-.167.021-.167.02-.167.019-.168.019-.167.017-.167.017-.168.015-.168.015-.168.013-.168.013-.168.012-.168.01-.168.01-.168V10.762l-.005-.094-.006-.094-.006-.094-.007-.094-.007-.094-.007-.094-.008-.094-.008-.094-.009-.094-.009-.094-.009-.094-.01-.094-.01-.094-.01-.093-.01-.094-.011-.093-.011-.093-.012-.093-.012-.093-.012-.093-.013-.093-.013-.093-.013-.093-.014-.093-.014-.093-.014-.093-.015-.093-.015-.093-.015-.093-.016-.093-.016-.093-.032-.185-.033-.185-.034-.185-.036-.185-.037-.185-.005-.027-.028-.158-.034-.186-.035-.186-.036-.185-.036-.185-.038-.186.047-.091z" data-name="Path 3703"/><path fill="#fff" fill-rule="evenodd" d="M8.305 32.81l.043.212.043.212.042.212.042.212.042.212.021.108.017.1.033.213.033.213.033.213.032.213.032.213.031.213.031.213.03.213.03.213.029.213.029.213.012.094.016.119.027.213.027.213.027.213.026.214.026.213.026.213.025.213.025.214.025.213.024.214.048.427.027.247.019.18.044.427.043.427.042.427.042.427.041.428.041.428.04.428.04.428.08.857.08.858.041.429.041.43.041.43.042.43.1 1.032.161 1.675.065.676.064.677.064.676.064.676.063.677.063.676.062.677.061.677.051.566.007.111.045.679.022.34v.035l.019.3.022.34.022.34-.058.09-.073-.076-.037-.338-.037-.337-.034-.3v-.035l-.038-.338-.077-.675-.013-.111-.053-.565-.064-.676-.065-.676-.066-.676-.066-.676-.067-.676-.068-.676-.068-.676-.068-.676-.169-1.673-.1-1.032-.043-.431-.042-.43-.042-.43-.041-.43-.082-.858-.082-.857-.041-.428-.041-.427-.042-.428-.042-.427-.042-.427-.043-.427-.044-.427-.044-.426-.019-.18-.025-.247-.044-.426-.023-.213-.022-.213-.023-.213-.023-.213-.024-.213-.024-.213-.024-.213-.025-.213-.025-.213-.025-.213-.015-.119-.011-.094-.026-.213-.026-.213-.026-.213-.027-.213-.028-.213-.028-.213-.029-.213-.029-.213-.029-.213-.03-.213-.031-.213-.015-.1-.012-.11-.024-.215-.025-.214-.026-.215-.027-.215-.028-.215.052-.087z" data-name="Path 3704"/><ellipse cx=".034" cy="1.32" fill="#fff" data-name="Ellipse 70" rx=".034" ry="1.32" transform="rotate(-89.738 19.402 10.443)"/></g><g data-name="Group 1369"><path fill="#fff" fill-rule="evenodd" stroke="#000" stroke-miterlimit="10" stroke-width="2" d="M167.049 80.876l.062.073v2.421l.005.072.005.072.006.072.006.072.007.071.007.072.007.071.008.071.008.071.009.071.009.07.01.07.01.07.01.069.011.069.011.069.012.069.012.068.013.068.013.068.014.068.014.067.014.067.015.066.015.066.016.066.017.066.017.065.018.064.018.065.019.064.02.063.02.064.021.063.021.063.022.062.022.062.023.062.023.061.024.061.025.06.025.06.026.059.027.059.027.058.028.057.029.057.03.056.03.056.031.056.031.055.032.054.033.054.033.053.035.052.035.052.036.052.036.051.038.051.038.05.04.049.04.049.041.048.041.048.042.047.043.046.044.046.044.045.046.044.046.044.047.043.048.042.049.041.05.042.051.04.052.04.053.039.054.038.054.037.032.022.023.016.056.037.057.036.058.036.059.034.06.034.061.033.063.032.063.031.064.031.059.027h.006l.065.035.065.033.067.033.069.032.035.07-.064.033-.073-.02-.072-.021-.071-.022-.071-.023h-.006l-.062-.026-.066-.03-.066-.031-.065-.031-.064-.033-.063-.033-.062-.034-.061-.035-.06-.036-.059-.036-.024-.015-.034-.022-.057-.039-.056-.039-.055-.041-.054-.041-.053-.042-.052-.043-.051-.043-.05-.044-.049-.045-.048-.046-.048-.046-.046-.047-.046-.047-.045-.048-.045-.049-.043-.05-.042-.05-.042-.051-.041-.051-.04-.052-.039-.052-.038-.053-.038-.054-.036-.054-.036-.055-.035-.056-.034-.056-.033-.057-.033-.057-.032-.058-.031-.058-.031-.059-.03-.059-.029-.06-.028-.06-.028-.061-.027-.061-.026-.062-.026-.062-.025-.062-.024-.063-.023-.063-.023-.063-.023-.064-.022-.064-.021-.065-.021-.065-.02-.065-.02-.066-.019-.066-.018-.067-.018-.067-.017-.067-.017-.068-.015-.068-.016-.068-.014-.066h0l-.014-.069-.014-.069-.013-.069-.012-.07-.012-.07-.012-.07-.011-.071-.011-.071-.01-.071-.01-.071-.009-.071-.009-.072-.009-.072-.008-.072-.008-.072-.007-.072-.007-.073-.006-.073-.006-.073-.006-.073-.005-.073V80.954l.067-.067z" data-name="Path 3705"/></g><g data-name="Group 1370"><path fill="#fff" fill-rule="evenodd" stroke="#000" stroke-miterlimit="10" stroke-width="2" d="M165.845 87.537l.083.014.142.023.122.024.251.049h.013l.264.052.215.042.05.01.215.042.05.011.214.044.051.011.2.044.063.015.166.04.1.026.15.039.112.031.151.041.111.032.262.073.166.045.1.026.261.069.139.035.123.03.25.059h.011l.008.012-.011.009h-.01l-.254-.039-.124-.019-.141-.02-.267-.037-.1-.013-.168-.024-.268-.037-.114-.015-.154-.023-.115-.017-.153-.025-.1-.017-.167-.033-.064-.013-.2-.044-.051-.011-.213-.051-.05-.012-.214-.053-.05-.012-.213-.055-.261-.068h-.013l-.248-.065-.121-.032-.139-.042-.081-.025-.177-.054-.053-.074.074-.045z" data-name="Path 3706"/></g></g><path fill="#ea2e26" d="M167.772 134.641c.233.035.729-1.066.788-2.275a5.043 5.043 0 0 0-.526-1.955 1.744 1.744 0 0 1-.6 1.175 1.111 1.111 0 0 1-1.268-.039.913.913 0 0 1-.3-.441c.049-.211-.057-.438-.008-.649a11.448 11.448 0 0 0-4.338 1.034c-.36.194-.7.415-.721.727-.051.653 1.3 1.226 1.69 1.39a4.527 4.527 0 0 0 3.579.292c.56-.263.876-.644 1.2-.5.457.207.286 1.209.504 1.241z" data-name="Path 3707"/><path fill="#ea2e26" d="M178.046 133.507c.1-.041.164-.193-.007-1.821-.114-1.085-.181-1.378-.415-1.688a2.663 2.663 0 0 0-1.089-.615 1.639 1.639 0 0 1-.769 1.867 1.821 1.821 0 0 1-1.263.042l-.346-1.066c-.936.374-3.6 1.509-3.516 2.546.118 1.38 5.088 2.188 5.848 1.08.267-.389.014-1.014.279-1.124.356-.147.963.913 1.278.779z" data-name="Path 3708"/></g><g data-name="Group 1373"><path fill="#fff" d="M174.009 70.995a19.98 19.98 0 0 1-10.366 8.142" data-name="Path 3709"/><path d="M174.009 70.995a16.431 16.431 0 0 1-1.982 2.717 19.444 19.444 0 0 1-2.442 2.324c-.437.354-.9.679-1.366.992s-.954.6-1.453.858a16.036 16.036 0 0 1-3.123 1.251c.524-.2 1.049-.393 1.554-.633s1.006-.486 1.494-.755.96-.568 1.423-.878.911-.643 1.346-.991a23.033 23.033 0 0 0 2.452-2.272c.38-.409.749-.828 1.1-1.264s.687-.882.997-1.349z" data-name="Path 3710"/></g><g data-name="Group 1375"><path fill="#f15f5c" d="M159.984 72.114s-3.237-1.735-4.1-2.116-1.542-.762-1.765-.092a1.633 1.633 0 0 0 .108 1.239 1.689 1.689 0 0 0 .032 1.119c.235.548.125.8.636 1.21a4.707 4.707 0 0 0 3.062 1.09 3.564 3.564 0 0 1 2.355.78z" data-name="Path 3711"/><g data-name="Group 1374"><path fill="#f3ece9" d="M156.175 73.211c5.328-2.167 6.286-3.727 5.975-4.8-.345-1.2-2.21-1.657-5.453-4.114a33.873 33.873 0 0 1-4.728-4.359c-.6.137-7.143 1.675-6.674 4.418.1.6.557 1.322 4.968 4.636a153.524 153.524 0 0 0 5.912 4.219z" data-name="Path 3712"/><path fill="url(#d)" d="M2887.815 1709.355a10.461 10.461 0 0 0 5.435-3.438c.713-.908.647-1.224.541-1.366-.458-.615-2.7.61-5.8.284a12.4 12.4 0 0 1-4.464-1.435c-3.054-1.631-6.375-3.3-6.59-2.9-.036.066.038.168.057.221.207.587 1.016 1.489 4.912 4.416 2.359 1.77 4.394 3.19 5.909 4.218z" data-name="Path 3713" transform="translate(-2731.64 -1636.143)"/></g><path fill="#f15f5c" d="M159.768 71.99a4.477 4.477 0 0 1-.881-1.24c-.237-.5-.276-.844-.628-1.057a1.534 1.534 0 0 0-.829-.157 4.506 4.506 0 0 0-.943.165c-.732.166-.8.214-.8.254 0 0 0 .056.7.286z" data-name="Path 3714"/></g><g data-name="Group 1378" transform="translate(158.885 34.423)"><ellipse cx="5.808" cy="2.19" fill="#2b337c" data-name="Ellipse 71" rx="5.808" ry="2.19" transform="rotate(-84.012 8.32 7.492)"/><path fill="#f15f5c" d="M8.04 19.119a6.237 6.237 0 0 1-4.538-1.478 6.371 6.371 0 0 1-1.812-3.025c-.259-.877-.377-1.9.032-4.7.486-3.323.729-4.985 1.325-5.827 1.775-2.5 5.84-3.414 9.022-2.178 4.15 1.611 5.022 6.179 5.054 6.4.383 2.68-.594 5.95-4.016 9.478l.757 4.3a2.935 2.935 0 0 0-1.935-.184 3.008 3.008 0 0 0-1.858 1.5 11.915 11.915 0 0 0-.752-2.793c-.155-.34-.299-.547-1.279-1.493z" data-name="Path 3715"/><g data-name="Group 1376" transform="translate(1.018 9.414)"><path fill="#cd3327" d="M1.521 2.291a7.88 7.88 0 0 0-.028 2.1 1.108 1.108 0 0 0 .6.741s-.712.238-.994-.27.422-2.571.422-2.571z" data-name="Path 3716"/><path fill="#fff7d0" d="M2.571 6.453c.485.034.879.041 1.15.041 0 0 .318 0 1.217-.026a1.263 1.263 0 0 1-1.236.971 1.074 1.074 0 0 1-.7-.171 1.116 1.116 0 0 1-.431-.815z" data-name="Path 3717"/><path fill="#2b337c" d="M.003.21c-.047.3.306.657.966.62s.917-.348.736-.617S.051-.086.003.21z" data-name="Path 3718"/><path fill="#2b337c" d="M3.961.409c-.109.286.143.74.77.872s.937-.113.826-.43S4.07.123 3.961.409z" data-name="Path 3719"/><path fill="#cd3327" d="M11.14 4.267a1.669 1.669 0 0 0 .565-1 1.184 1.184 0 0 0-.2-.906s.577.119.645 1.019-1.01.887-1.01.887z" data-name="Path 3720"/><ellipse cx=".479" cy=".671" fill="#2b337c" data-name="Ellipse 72" rx=".479" ry=".671" transform="rotate(-3.75 30.167 -64.927)"/><ellipse cx=".671" cy=".479" fill="#2b337c" data-name="Ellipse 73" rx=".671" ry=".479" transform="rotate(-86.091 1.513 1.313)"/></g><path fill="#cd3327" d="M9.558 21.19a3.64 3.64 0 0 0 2.128-.945 4.02 4.02 0 0 0 .826-4.241c.65 2.125 1.352 6.08 1.352 6.08l-3.748 1.211z" data-name="Path 3721"/><g data-name="Group 1377"><path fill="#2b337c" d="M13.324 19.253l-.835-3.621s2.643-2.336 1.989-4.553-3.38-.66-3.492 1.372a11.226 11.226 0 0 1-4.071-2.016 11.89 11.89 0 0 1-4.178-7A10.241 10.241 0 0 1 6.393.812c3.878-1.616 8.914-.745 11.31 2.058 3.233 3.777 2.282 11.796-4.379 16.383z" data-name="Path 3722"/><path fill="#f03a8f" d="M13.333 6.305c-1.624 1.441-3.374 1.187-3.712 2.324-.2.664.3 1.077.094 1.291-.656.67-6.643-2.362-6.235-5.245.17-1.2 1.4-1.993 2.313-2.584a8.251 8.251 0 0 1 4.8-1.256 3.719 3.719 0 0 0 1.595 2.07c1.143.632 2.2.154 2.519.706.347.6-.467 1.886-1.374 2.694z" data-name="Path 3723" opacity=".19"/></g></g><g data-name="Group 1379"><path fill="#fff" fill-rule="evenodd" stroke="#000" stroke-miterlimit="10" stroke-width="2" d="M167.521 75.42l-.013.059-.013.059-.013.059-.012.06-.012.06-.012.06-.011.06-.011.06-.011.06-.006.037v.023l-.02.121-.02.121-.019.121-.011.074-.007.048-.018.122-.018.123-.007.047-.012.075-.038.245-.039.245-.02.123-.02.122v.022l-.018.1-.022.123-.023.122-.024.121-.013.061-.012.06-.013.061-.013.06-.014.06-.014.06-.015.06-.015.06-.015.06-.011.041v.019l-.016.06-.017.059-.017.059-.017.059-.018.059-.019.059-.019.059-.019.058-.02.059-.021.057-.034.094-.022.062-.026.07-.029.076-.015.04-.016.04h0l-.016.04-.018.041-.018.041-.019.041-.019.041-.019.04-.02.039-.021.038-.021.037-.021.036-.011.017-.011.017-.011.016-.011.016-.011.015-.011.015-.012.014-.011.013-.012.013-.012.012-.012.011-.012.011-.012.01-.013.01-.013.008-.013.008-.013.006-.014.005h-.064l-.007-.006-.007-.007-.005-.008v-.019h0v-.073l.009-.057.012-.073.031-.185.037-.214.02-.112.021-.107.039-.2.031-.15.01-.05.007-.03.04-.153.04-.152.024-.089.057-.215.163-.607.032-.121.05-.182.082-.3.016-.06.025-.092.041-.152.02-.075.021-.077.022-.081.062-.057.009-.006.005.01.026.087-.019.081-.018.078-.019.076-.038.153-.023.093-.015.06-.077.305-.047.183-.032.121-.16.608-.056.215-.023.089-.04.152-.039.151-.006.026-.01.048-.03.149-.039.2-.021.107-.023.11-.044.212-.038.183-.009.043.007-.008.009-.011.009-.012.01-.012.01-.013.009-.014.01-.015.009-.015.01-.016.019-.033.019-.035.019-.036.019-.037.018-.038.018-.039.018-.039.017-.04.017-.04.016-.039h0l.015-.04.015-.039.028-.075.025-.069.021-.062.033-.094.02-.057.019-.057.019-.057.018-.057.018-.057.018-.058.016-.058.016-.058.016-.058.016-.058v-.018l.01-.041.015-.059.014-.059.014-.059.013-.059.013-.06.013-.06.013-.06.012-.06.012-.06.022-.12.022-.121.021-.121.017-.1v-.021l.02-.122.02-.122.039-.245.039-.245.011-.075.008-.048.021-.122.022-.122.009-.048.014-.073.023-.122.024-.121.025-.121v-.024l.008-.037.013-.06.014-.06.014-.06.014-.06.014-.059.015-.06.015-.059.016-.059.016-.059.048-.031z" data-name="Path 3724"/></g><g data-name="Group 1382"><g data-name="Group 1380"><path fill="#f3a61d" d="M168.7 58.861a4.93 4.93 0 0 1 1.551-2.257 5.074 5.074 0 0 1 2.122-.962 2.683 2.683 0 0 1 1.149-.031 3.27 3.27 0 0 1 1.919 1.4c5.471 7.554 6.062 19.074 6.062 19.074.714 13.914 1.072 20.874-1.085 21.5-2.96.857-8.045-7.275-9.487-9.58-2.252-3.6-4.962-7.935-5.1-14.683a25.942 25.942 0 0 1 .818-6.24 52.336 52.336 0 0 1 2.051-8.221z" data-name="Path 3725"/><path fill="#ce7b34" d="M180.726 87.398c.477-3.895.579-10.95.579-10.95.886 13.868 1.329 20.8-1.085 21.5-2.961.857-8.045-7.275-9.487-9.58-2.252-3.6-4.962-7.935-5.106-13.758 0-.065-.187-.853 0-.925.755-.285 4.381 11.668 8.375 11.582 2.777-.062 6.212 6.309 6.724 2.131z" data-name="Path 3726" opacity=".43"/></g><g data-name="Group 1381"><path fill="#ffca57" d="M178.332 67.536a13.112 13.112 0 0 1-1.241 4.39 24.106 24.106 0 0 1-6.288 8.645c-2.1 1.5-9.146-1.9-10.013-3.442s-1.063-6.279-.48-6.435c1.989-.532 4.957 3.813 7.191 2.868 3.539-1.5-.356-15.5 3.494-17a2.577 2.577 0 0 1 1.6.046c3.702.817 6.1 6.343 5.737 10.928z" data-name="Path 3727"/><path fill="#f3a61d" d="M177.852 63.515a9.523 9.523 0 0 1 .649 2.619c.327 3.292-1.208 5.882-2.8 8.488a27.954 27.954 0 0 1-4.9 5.949c-1.048.75-3.335.274-5.467-.581-2.172-.871-4.745-2.2-4.545-2.861.124-.414 1.244-.339 2.567-.389a20.7 20.7 0 0 0 8.1-1.75 11.484 11.484 0 0 0 4.4-4.243 13.132 13.132 0 0 0 1.996-7.232z" data-name="Path 3728" opacity=".49"/></g></g></g></g></svg>