<svg xmlns="http://www.w3.org/2000/svg" xmlns:xlink="http://www.w3.org/1999/xlink" width="194.056" height="106.281" viewBox="0 0 194.056 106.281"><defs><linearGradient id="a" x2="1" y1=".5" y2=".5" gradientUnits="objectBoundingBox"><stop offset="0" stop-color="#902472"/><stop offset=".727" stop-color="#54326b"/><stop offset="1" stop-color="#3c3e69"/></linearGradient><linearGradient id="b" x2="1" y1=".5" y2=".5" gradientUnits="objectBoundingBox"><stop offset="0" stop-color="#f8ac8f"/><stop offset="1" stop-color="#d99ec6"/></linearGradient><linearGradient id="c" x1="-1.987" x2="2.987" y1=".5" y2=".5" xlink:href="#a"/></defs><g data-name="Group 10784"><g data-name="Group 1835"><g data-name="Group 1820"><path fill="#fff" d="M60.552.237v67.191h94.067V.237zm8.281 39.262h-3.35V22.75h3.35zm4.373 0h-3.35v-20.75h3.35zm4.373 0h-3.35V14.748h3.35zm4.373 0h-3.35V23.774h3.35zm4.373 0h-3.35V23.774h3.35zm4.373 0h-3.35V11.397h3.35zm4.373 0h-3.35v-20.75h3.35zm4.373 0h-3.35V23.774h3.35z" data-name="Path 4365" opacity=".71"/><path fill="#ea2e26" d="M63.433 40.757h87.53v.545h-87.53z" data-name="Rectangle 290" opacity=".25"/><g fill="none" stroke="#fcc480" stroke-miterlimit="10" stroke-width="2" data-name="Group 1818"><path d="M148.42 39.16h-46.853v-8.905h46.853z" data-name="Rectangle 291"/><g data-name="Group 1817"><path d="M145.921 32.594h-42.338" data-name="Line 160"/><path d="M145.921 34.947h-42.338" data-name="Line 161"/><path d="M145.921 37.3h-42.338" data-name="Line 162"/></g></g><g fill="#ea2e26" data-name="Group 1819" opacity=".25"><path d="M102.405 27.865l-.8-3.319h1.038l.361 2.143.419-2.143h.883l.4 2.143.349-2.143h1.012l-.789 3.319h-1.056l-.379-1.99-.365 1.99z" data-name="Path 4366"/><path d="M106.422 27.865v-3.319h2.652v.8h-1.586v.442h1.341v.762h-1.341v.514h1.651v.807z" data-name="Path 4367"/><path d="M109.637 27.865v-3.319h1.066v2.438h1.449v.881z" data-name="Path 4368"/><path d="M114.737 26.578h1.01a1.411 1.411 0 0 1-.462 1.017 1.929 1.929 0 0 1-2.383-.106 2.029 2.029 0 0 1 0-2.561 1.636 1.636 0 0 1 1.235-.469 1.706 1.706 0 0 1 1.134.348 1.374 1.374 0 0 1 .463.995h-1.02a.506.506 0 0 0-.563-.513.532.532 0 0 0-.47.229 1.231 1.231 0 0 0-.156.691 1.173 1.173 0 0 0 .167.685.564.564 0 0 0 .489.232.539.539 0 0 0 .394-.142.629.629 0 0 0 .162-.406z" data-name="Path 4369"/><path d="M116.054 26.208a1.741 1.741 0 0 1 .463-1.28 1.931 1.931 0 0 1 2.522 0 2 2 0 0 1 0 2.558 1.928 1.928 0 0 1-2.522 0 1.742 1.742 0 0 1-.463-1.278zm1.075 0a1.2 1.2 0 0 0 .158.692.658.658 0 0 0 .982 0 1.626 1.626 0 0 0 0-1.388.558.558 0 0 0-.489-.22.564.564 0 0 0-.493.221 1.208 1.208 0 0 0-.158.695z" data-name="Path 4370"/><path d="M120.953 27.865h-.965v-3.319h1.3l.46 1.656.036.154c.018.08.043.191.077.332q.032-.167.059-.292c.018-.083.033-.146.047-.188l.471-1.663h1.3v3.319h-.965l.01-1.634v-.289-.292c-.036.171-.079.358-.131.561l-.007.029-.41 1.625h-.743l-.414-1.588q-.029-.108-.058-.248t-.077-.379l.01.367v.245z" data-name="Path 4371"/><path d="M124.356 27.865v-3.319h2.652v.8h-1.586v.442h1.341v.762h-1.341v.514h1.651v.807z" data-name="Path 4372"/><path d="M129.788 27.865V25.42h-.955v-.874h2.976v.874h-.955v2.445z" data-name="Path 4373"/><path d="M132.011 26.208a1.742 1.742 0 0 1 .463-1.28 1.931 1.931 0 0 1 2.522 0 2 2 0 0 1 0 2.558 1.928 1.928 0 0 1-2.522 0 1.743 1.743 0 0 1-.463-1.278zm1.074 0a1.206 1.206 0 0 0 .158.692.565.565 0 0 0 .494.221.559.559 0 0 0 .489-.22 1.626 1.626 0 0 0 0-1.388.559.559 0 0 0-.489-.22.566.566 0 0 0-.494.221 1.212 1.212 0 0 0-.157.694z" data-name="Path 4374"/></g><g data-name="Group 1974"><path fill="#222f6e" d="M139.625 26.804l1.106-2.28h-.805l-.668 1.546h-.007l-.661-1.546h-.783l1.228 2.571a3.41 3.41 0 0 1 .589-.291zm1.867-.378a13.435 13.435 0 0 1 1.918.371 1.855 1.855 0 0 0 .367.05c.229.007 1.192-.05 1.192-.883 0-.67-1.142-.577-1.558-.734-.093-.036-.151-.086-.151-.157a.224.224 0 0 1 .151-.214.865.865 0 0 1 .28-.043c.28 0 .431.107.453.328h.747c-.036-.5-.581-.684-1.121-.684a2.726 2.726 0 0 0-.359.021 1.066 1.066 0 0 0-.819.377v-.335h-.747v1.261c0 .385-.122.513-.5.513s-.5-.129-.5-.513v-.921l-.689 1.4a.345.345 0 0 0 .251.328 3.062 3.062 0 0 1 1.092-.157zm1.1-.982a1.116 1.116 0 0 0 .819.355c.409.064.811.078.811.307 0 .156-.144.249-.481.249a1.023 1.023 0 0 1-.33-.044.294.294 0 0 1-.215-.306h-.6z" data-name="Path 2694"/><path fill="#bb141a" fill-rule="evenodd" d="M144.28 26.996c-1.049.427-3.3-1.517-5.7.961h.891c1.515-1.759 3.182-.683 4.375-.733a1.074 1.074 0 0 0 .833-.463 1.258 1.258 0 0 1-.399.235zm-4.239.961h.8c.094-.185.5-.733 2.12-.655a2.225 2.225 0 0 0 .517 0s-.229-.021-.423-.057c-2.008-.363-2.826.477-3.014.712zm1.307 0h.754c.108-.434 1.128-.548 1.128-.548s-1.344-.064-1.882.548z" data-name="Path 2695"/></g></g><g data-name="Group 1822"><g fill="#fff7f1" data-name="Group 1821"><path d="M177.514 7.906a10.042 10.042 0 1 0 10.038 10.042 10.04 10.04 0 0 0-10.038-10.042zm0 19.443a9.4 9.4 0 1 1 9.4-9.4 9.4 9.4 0 0 1-9.4 9.403z" data-name="Path 4379"/><path d="M177.325 9.635h.377v1.391h-.377z" data-name="Rectangle 292"/><path d="M173.195 10.844l.326-.189.697 1.205-.327.188z" data-name="Rectangle 293"/><path d="M170.223 13.956l.188-.327 1.204.695-.188.326z" data-name="Rectangle 294"/><path d="M169.205 18.137v-.377h1.39v.377z" data-name="Rectangle 295"/><path d="M170.412 22.268l-.188-.327 1.204-.694.188.326z" data-name="Rectangle 296"/><path d="M173.522 25.241l-.326-.189.696-1.204.326.189z" data-name="Rectangle 297"/><path d="M177.702 26.261h-.377V24.87h.377z" data-name="Rectangle 298"/><path d="M181.832 25.052l-.326.189-.697-1.205.327-.188z" data-name="Rectangle 299"/><path d="M184.804 21.941l-.188.327-1.205-.696.188-.326z" data-name="Rectangle 300"/><path d="M185.823 17.759v.377h-1.39v-.377z" data-name="Rectangle 301"/><path d="M184.615 13.629l.188.327-1.205.695-.188-.327z" data-name="Rectangle 302"/><path d="M181.505 10.655l.326.189-.696 1.204-.326-.189z" data-name="Rectangle 303"/><path d="M177.875 17.948a.361.361 0 1 0-.361.362.361.361 0 0 0 .361-.362z" data-name="Path 4380"/><path d="M180.146 12.55l-3.352 6.514.222.118z" data-name="Path 4381"/><path d="M180.146 12.55l-3.352 6.514.222.118z" data-name="Path 4382"/><path d="M182.871 20.539l-6.526-3.324-.117.223z" data-name="Path 4383"/></g></g><g data-name="Group 1823"><path fill="#ea2e26" d="M20.107 20.061h29.396v74.362H20.107z" data-name="Rectangle 304" opacity=".25"/><path fill="#fff" d="M18.211 18.144v79.967h32.386V18.144zM49.102 94.42H19.815V20.191h29.286z" data-name="Path 4384" opacity=".75"/><path fill="#ea2e26" d="M19.332.996h29.396v13.498H19.332z" data-name="Rectangle 305" opacity=".25"/><path fill="#fff" d="M17.962 0v15.2h32.385V0zm30.891 13.509h-29.4v-11.8h29.4z" data-name="Path 4385" opacity=".75"/></g><g data-name="Group 1834"><g fill="#cc6eaa" data-name="Group 1828" opacity=".96"><g data-name="Group 1826"><path d="M156.659 77.112a2.775 2.775 0 1 1-1.8-.752 2.475 2.475 0 0 1 1.8.752z" data-name="Path 4386"/><g data-name="Group 1825"><path d="M188.326 60.57a37.323 37.323 0 0 0-4.42 2.931 49.77 49.77 0 0 0-4.044 3.436 52.7 52.7 0 0 0-3.671 3.837 52.122 52.122 0 0 0-3.247 4.208 49.589 49.589 0 0 0-5.071 9.342 51.659 51.659 0 0 0-2.934 10.234l.751.126a50.975 50.975 0 0 1 2.738-10.138 49.078 49.078 0 0 1 4.874-9.32 51.58 51.58 0 0 1 3.157-4.224 52.219 52.219 0 0 1 3.59-3.87 49.417 49.417 0 0 1 3.972-3.482 37.172 37.172 0 0 1 4.355-2.986z" data-name="Path 4387"/><path d="M194.056 56.57a5.321 5.321 0 1 1-3.939.9 4.837 4.837 0 0 1 3.939-.9z" data-name="Path 4388"/><path d="M185.257 55.57a5.322 5.322 0 1 1-1.746 3.644 4.839 4.839 0 0 1 1.746-3.644z" data-name="Path 4389"/><path d="M172.053 44.066a5.321 5.321 0 1 0 .994 3.916 4.839 4.839 0 0 0-.994-3.916z" data-name="Path 4390"/><path d="M166.084 49.517a4.156 4.156 0 1 0 2.871 1.311 3.78 3.78 0 0 0-2.871-1.311z" data-name="Path 4391"/><path d="M170.158 53.913a4.156 4.156 0 1 0 2.408-2.04 3.778 3.778 0 0 0-2.408 2.04z" data-name="Path 4392"/><path d="M169.09 57.555a4.157 4.157 0 1 0 2.409-2.04 3.78 3.78 0 0 0-2.409 2.04z" data-name="Path 4393"/><path d="M167.877 61.678a4.157 4.157 0 1 0 2.409-2.04 3.777 3.777 0 0 0-2.409 2.04z" data-name="Path 4394"/><path d="M167.064 65.426a4.157 4.157 0 1 0 2.409-2.04 3.778 3.778 0 0 0-2.409 2.04z" data-name="Path 4395"/><path d="M166.856 65.452a4.157 4.157 0 1 1-1.807-2.588 3.778 3.778 0 0 1 1.807 2.588z" data-name="Path 4396"/><path d="M165.001 53.08a4.157 4.157 0 1 0 2.871 1.312 3.779 3.779 0 0 0-2.871-1.312z" data-name="Path 4397"/><path d="M163.808 57.282a4.156 4.156 0 1 0 2.872 1.311 3.78 3.78 0 0 0-2.872-1.311z" data-name="Path 4398"/><path d="M180.064 58.177a5.32 5.32 0 1 1-.713 3.977 4.838 4.838 0 0 1 .713-3.977z" data-name="Path 4399"/><path d="M176.561 61.401a5.321 5.321 0 1 1-.712 3.977 4.835 4.835 0 0 1 .712-3.977z" data-name="Path 4400"/><path d="M172.528 64.716a5.321 5.321 0 1 1 .329 4.027 4.839 4.839 0 0 1-.329-4.027z" data-name="Path 4401"/><path d="M169.687 68.862a4.752 4.752 0 1 1 1.191 3.406 4.319 4.319 0 0 1-1.191-3.406z" data-name="Path 4402"/><path d="M167.626 71.469a4.75 4.75 0 1 1 1.19 3.406 4.319 4.319 0 0 1-1.19-3.406z" data-name="Path 4403"/><path d="M166.45 75.316a4.073 4.073 0 1 1 1.021 2.92 3.7 3.7 0 0 1-1.021-2.92z" data-name="Path 4404"/><path d="M165.307 79.326a3.448 3.448 0 1 1 1.892 1.777 3.128 3.128 0 0 1-1.892-1.777z" data-name="Path 4405"/><path d="M164.845 82.632a2.763 2.763 0 1 1 1.891.865 2.505 2.505 0 0 1-1.891-.865z" data-name="Path 4406"/><path d="M191.884 65.353a5.32 5.32 0 1 1-3.031-2.672 4.837 4.837 0 0 1 3.031 2.672z" data-name="Path 4407"/><path d="M188.695 67.978a5.321 5.321 0 1 1-3.031-2.672 4.837 4.837 0 0 1 3.031 2.672z" data-name="Path 4408"/><path d="M185.296 71.213a5.322 5.322 0 1 1-3.031-2.672 4.837 4.837 0 0 1 3.031 2.672z" data-name="Path 4409"/><path d="M181.459 73.366a4.326 4.326 0 1 1-2.465-2.174 3.936 3.936 0 0 1 2.465 2.174z" data-name="Path 4410"/><path d="M178.586 75.422a3.4 3.4 0 1 1-1.978-1.795 3.122 3.122 0 0 1 1.978 1.795z" data-name="Path 4411"/><path d="M176.87 78.065a3.4 3.4 0 1 1-1.978-1.794 3.122 3.122 0 0 1 1.978 1.794z" data-name="Path 4412"/><path d="M174.988 80.457a3.39 3.39 0 1 1-2.133-1.264 3.048 3.048 0 0 1 2.133 1.264z" data-name="Path 4413"/><path d="M173.169 83.471a2.943 2.943 0 1 1-1.219-1.82 2.66 2.66 0 0 1 1.219 1.82z" data-name="Path 4414"/><path d="M171.144 85.269a2.251 2.251 0 1 1-.658-1.541 2.033 2.033 0 0 1 .658 1.541z" data-name="Path 4415"/><path d="M169.802 85.74a1.259 1.259 0 1 1-.365-.979 1.177 1.177 0 0 1 .365.979z" data-name="Path 4416"/><path d="M169.368 86.63a1.259 1.259 0 1 1-.365-.979 1.175 1.175 0 0 1 .365.979z" data-name="Path 4417"/><path d="M165.464 93.352a66.538 66.538 0 0 1-.7-10.731c.015-1.792.113-3.582.255-5.367s.354-3.564.6-5.336a98.332 98.332 0 0 1 2.115-10.517q.669-2.6 1.48-5.154c.542-1.7 1.121-3.394 1.789-5.057l.211.086c-.642 1.657-1.2 3.354-1.719 5.058s-.987 3.425-1.411 5.156a98.2 98.2 0 0 0-1.975 10.5c-.225 1.765-.42 3.535-.533 5.311s-.195 3.552-.187 5.329a65.772 65.772 0 0 0 .823 10.608z" data-name="Path 4418"/><g data-name="Group 1824"><path d="M160.869 82.456a103.444 103.444 0 0 0-5.3-7.129l.031-.026a103.034 103.034 0 0 1 5.455 7.03 84.853 84.853 0 0 1 4.8 7.506q.527.943 1.025 1.905c-.13.072-.259.145-.387.219q-.478-.974-.989-1.932a84.557 84.557 0 0 0-4.635-7.573z" data-name="Path 4419"/><path d="M153.762 72.207a2.418 2.418 0 1 1 .226 2 2.26 2.26 0 0 1-.226-2z" data-name="Path 4420"/><path d="M158.3 73.636a2.775 2.775 0 1 1-1.3 1.458 2.476 2.476 0 0 1 1.3-1.458z" data-name="Path 4421"/><path d="M158.45 79.017a2.775 2.775 0 1 1-1.717-.93 2.476 2.476 0 0 1 1.717.93z" data-name="Path 4422"/><path d="M160.302 81.402a2.775 2.775 0 1 1-1.717-.93 2.477 2.477 0 0 1 1.717.93z" data-name="Path 4423"/><path d="M161.557 83.302a2.775 2.775 0 1 1-1.717-.93 2.479 2.479 0 0 1 1.717.93z" data-name="Path 4424"/><path d="M162.951 85.398a2.775 2.775 0 1 1-1.717-.93 2.476 2.476 0 0 1 1.717.93z" data-name="Path 4425"/><path d="M159.908 75.681a2.775 2.775 0 1 1-1.3 1.458 2.475 2.475 0 0 1 1.3-1.458z" data-name="Path 4426"/><path d="M161.446 77.787a2.775 2.775 0 1 1-1.3 1.458 2.478 2.478 0 0 1 1.3-1.458z" data-name="Path 4427"/><path d="M162.908 79.91a2.775 2.775 0 1 1-1.3 1.458 2.476 2.476 0 0 1 1.3-1.458z" data-name="Path 4428"/><path d="M164.324 81.99a2.776 2.776 0 1 1-1.3 1.458 2.474 2.474 0 0 1 1.3-1.458z" data-name="Path 4429"/></g></g></g><g data-name="Group 1827"><path d="M168.601 96.965h-7.928V89.57h7.928z" data-name="Rectangle 306"/><path d="M170.432 88.717h-11.59v-.604h11.59z" data-name="Rectangle 307"/><path d="M169.721 90.033h-10.168v-1.316h10.168z" data-name="Rectangle 308"/></g></g><g fill="#e663a4" data-name="Group 1833"><g data-name="Group 1831"><path d="M27.437 80.601a2.037 2.037 0 1 0 1.322-.552 1.816 1.816 0 0 0-1.322.552z" data-name="Path 4430"/><g data-name="Group 1830"><path d="M4.204 68.462a27.322 27.322 0 0 1 3.243 2.15 36.39 36.39 0 0 1 2.967 2.521 36.757 36.757 0 0 1 5.076 5.9 36.366 36.366 0 0 1 3.72 6.854 37.9 37.9 0 0 1 2.153 7.509l-.551.092a37.409 37.409 0 0 0-2.009-7.438 36 36 0 0 0-3.576-6.838 36.508 36.508 0 0 0-4.95-5.939 36.266 36.266 0 0 0-2.914-2.554 27.277 27.277 0 0 0-3.2-2.191z" data-name="Path 4431"/><path d="M0 65.523a3.9 3.9 0 1 0 2.89.658A3.549 3.549 0 0 0 0 65.523z" data-name="Path 4432"/><path d="M6.455 64.794a3.9 3.9 0 1 0 1.281 2.673 3.55 3.55 0 0 0-1.281-2.673z" data-name="Path 4433"/><path d="M16.144 56.354a3.9 3.9 0 1 1-.729 2.873 3.549 3.549 0 0 1 .729-2.873z" data-name="Path 4434"/><path d="M20.522 60.353a3.05 3.05 0 1 1-2.107.962 2.774 2.774 0 0 1 2.107-.962z" data-name="Path 4435"/><path d="M17.532 63.579a3.049 3.049 0 1 1-1.767-1.5 2.771 2.771 0 0 1 1.767 1.5z" data-name="Path 4436"/><path d="M18.316 66.25a3.05 3.05 0 1 1-1.767-1.5 2.772 2.772 0 0 1 1.767 1.5z" data-name="Path 4437"/><path d="M19.206 69.275a3.05 3.05 0 1 1-1.767-1.5 2.773 2.773 0 0 1 1.767 1.5z" data-name="Path 4438"/><path d="M19.803 72.023a3.05 3.05 0 1 1-1.767-1.5 2.773 2.773 0 0 1 1.767 1.5z" data-name="Path 4439"/><path d="M19.953 72.044a3.049 3.049 0 1 0 1.326-1.9 2.773 2.773 0 0 0-1.326 1.9z" data-name="Path 4440"/><path d="M21.321 62.968a3.05 3.05 0 1 1-2.106.962 2.774 2.774 0 0 1 2.106-.962z" data-name="Path 4441"/><path d="M22.192 66.05a3.05 3.05 0 1 1-2.107.962 2.773 2.773 0 0 1 2.107-.962z" data-name="Path 4442"/><path d="M10.265 66.708a3.9 3.9 0 1 0 .523 2.918 3.55 3.55 0 0 0-.523-2.918z" data-name="Path 4443"/><path d="M12.836 69.072a3.9 3.9 0 1 0 .523 2.918 3.551 3.551 0 0 0-.523-2.918z" data-name="Path 4444"/><path d="M15.794 71.503a3.9 3.9 0 1 0-.241 2.955 3.549 3.549 0 0 0 .241-2.955z" data-name="Path 4445"/><path d="M17.878 74.546a3.487 3.487 0 1 0-.874 2.5 3.17 3.17 0 0 0 .874-2.5z" data-name="Path 4446"/><path d="M19.39 76.459a3.487 3.487 0 1 0-.874 2.5 3.17 3.17 0 0 0 .874-2.5z" data-name="Path 4447"/><path d="M20.255 79.28a2.989 2.989 0 1 0-.749 2.142 2.719 2.719 0 0 0 .749-2.142z" data-name="Path 4448"/><path d="M21.092 82.224a2.53 2.53 0 1 0-1.388 1.3 2.3 2.3 0 0 0 1.388-1.3z" data-name="Path 4449"/><path d="M21.431 84.649a2.027 2.027 0 1 0-1.388.635 1.838 1.838 0 0 0 1.388-.635z" data-name="Path 4450"/><path d="M1.594 71.971a3.9 3.9 0 1 0 2.224-1.96 3.549 3.549 0 0 0-2.224 1.96z" data-name="Path 4451"/><path d="M3.933 73.897a3.9 3.9 0 1 0 2.224-1.96 3.549 3.549 0 0 0-2.224 1.96z" data-name="Path 4452"/><path d="M6.427 76.271a3.9 3.9 0 1 0 2.224-1.96 3.548 3.548 0 0 0-2.224 1.96z" data-name="Path 4453"/><path d="M9.242 77.848a3.174 3.174 0 1 0 1.809-1.594 2.888 2.888 0 0 0-1.809 1.594z" data-name="Path 4454"/><path d="M11.35 79.359a2.494 2.494 0 1 0 1.451-1.316 2.292 2.292 0 0 0-1.451 1.316z" data-name="Path 4455"/><path d="M12.609 81.298a2.494 2.494 0 1 0 1.451-1.316 2.289 2.289 0 0 0-1.451 1.316z" data-name="Path 4456"/><path d="M13.99 83.053a2.487 2.487 0 1 0 1.565-.928 2.238 2.238 0 0 0-1.565.928z" data-name="Path 4457"/><path d="M15.324 85.263a2.159 2.159 0 1 0 .895-1.335 1.949 1.949 0 0 0-.895 1.335z" data-name="Path 4458"/><path d="M16.809 86.584a1.651 1.651 0 1 0 .482-1.13 1.493 1.493 0 0 0-.482 1.13z" data-name="Path 4459"/><path d="M17.795 86.929a.924.924 0 1 0 .268-.718.861.861 0 0 0-.268.718z" data-name="Path 4460"/><path d="M18.113 87.582a.924.924 0 1 0 .268-.719.862.862 0 0 0-.268.719z" data-name="Path 4461"/><path d="M20.977 92.514a48.8 48.8 0 0 0 .513-7.873c-.011-1.315-.083-2.629-.187-3.938s-.26-2.615-.442-3.914a72.243 72.243 0 0 0-1.552-7.716q-.491-1.905-1.086-3.781c-.4-1.25-.823-2.49-1.313-3.71l-.155.063c.471 1.216.881 2.461 1.261 3.711s.724 2.513 1.035 3.782a72 72 0 0 1 1.449 7.7c.165 1.3.308 2.594.391 3.9s.143 2.606.137 3.91a48.276 48.276 0 0 1-.6 7.782z" data-name="Path 4462"/><g data-name="Group 1829"><path d="M24.348 84.519a75.326 75.326 0 0 1 3.892-5.231l-.022-.019a74.69 74.69 0 0 0-4 5.158 62.208 62.208 0 0 0-3.519 5.507q-.387.692-.752 1.4.142.079.284.161.35-.715.726-1.417a62.114 62.114 0 0 1 3.391-5.559z" data-name="Path 4463"/><path d="M29.563 77a1.774 1.774 0 1 0-.166 1.465A1.659 1.659 0 0 0 29.563 77z" data-name="Path 4464"/><path d="M26.233 78.048a2.036 2.036 0 1 0 .953 1.069 1.815 1.815 0 0 0-.953-1.069z" data-name="Path 4465"/><path d="M26.119 81.996a2.036 2.036 0 1 0 1.26-.683 1.817 1.817 0 0 0-1.26.683z" data-name="Path 4466"/><path d="M24.764 83.746a2.036 2.036 0 1 0 1.26-.683 1.817 1.817 0 0 0-1.26.683z" data-name="Path 4467"/><path d="M23.844 85.139a2.037 2.037 0 1 0 1.26-.682 1.818 1.818 0 0 0-1.26.682z" data-name="Path 4468"/><path d="M22.823 86.677a2.037 2.037 0 1 0 1.26-.682 1.815 1.815 0 0 0-1.26.682z" data-name="Path 4469"/><path d="M25.053 79.549a2.036 2.036 0 1 0 .954 1.07 1.818 1.818 0 0 0-.954-1.07z" data-name="Path 4470"/><path d="M23.927 81.094a2.036 2.036 0 1 0 .954 1.069 1.817 1.817 0 0 0-.954-1.069z" data-name="Path 4471"/><path d="M22.853 82.652a2.036 2.036 0 1 0 .954 1.069 1.817 1.817 0 0 0-.954-1.069z" data-name="Path 4472"/><path d="M21.813 84.18a2.035 2.035 0 1 0 .954 1.069 1.817 1.817 0 0 0-.954-1.069z" data-name="Path 4473"/></g></g></g><g data-name="Group 1832"><path d="M18.675 89.739h5.816v5.425h-5.816z" data-name="Rectangle 309"/><path d="M17.332 88.67h8.503v.443h-8.503z" data-name="Rectangle 310"/><path d="M17.854 89.113h7.46v.965h-7.46z" data-name="Rectangle 311"/></g></g></g></g><g data-name="Group 1836"><path fill="#a12545" d="M133.027 100.477c-4.89 0-9.583.059-13.939.168-4.9-.98-17.274-1.677-31.77-1.677-10.585 0-20.04.372-26.278.953-4.608-.451-10.448-.721-16.8-.721-14.886 0-26.954 1.48-26.954 3.306s12.068 3.306 26.954 3.306c11.2 0 20.8-.837 24.87-2.029 5.265.256 11.511.406 18.21.406 1.959 0 3.88-.013 5.748-.037 4.846 1.225 20.9 2.125 39.961 2.125 22.9 0 41.458-1.3 41.458-2.9s-18.56-2.9-41.46-2.9z" data-name="Path 4475" opacity=".44"/></g><g data-name="Group 1851"><g data-name="Group 1839"><path fill="#cc6eaa" d="M48.102 67.037h17.49v16.828h-17.49z" data-name="Rectangle 312"/><path fill="url(#a)" d="M0 0h18.069v1.816H0z" data-name="Rectangle 313" transform="translate(48.117 83.865)"/><g fill="url(#a)" data-name="Group 1837" transform="translate(45.917 85.736)"><path d="M2.999 0l1.015.058L.662 16.189s-.15.41-.458.389c0 0-.32.059-.156-.479z" data-name="Path 4476"/><path d="M4.013.059L.66 16.19s-.15.41-.458.39c0 0-.262.046-.189-.345a.308.308 0 0 0 .076.131c.132.114.293.013.4-.179L3.571.034z" data-name="Path 4477" style="mix-blend-mode:multiply;isolation:isolate"/></g><g fill="url(#a)" data-name="Group 1838" transform="translate(64.339 85.615)"><path d="M1.015 0L0 .058l3.353 16.131s.15.41.458.389c0 0 .32.059.156-.479z" data-name="Path 4478"/><path d="M0 .057l3.353 16.131s.15.41.458.389c0 0 .262.047.189-.345a.306.306 0 0 1-.076.131c-.132.114-.292.013-.4-.179L.442.032z" data-name="Path 4479" style="mix-blend-mode:multiply;isolation:isolate"/></g></g><g data-name="Group 1850"><g data-name="Group 1840"><path fill="#742051" d="M65.356 105.234a2.647 2.647 0 0 0 1.213-.9c.857-1.175.6-3.154-.726-4.875-1.778 1.8-2.339 3.874-1.585 4.99a2.079 2.079 0 0 0 1.098.785z" data-name="Path 4480" opacity=".35"/><path fill="#f49092" d="M64.086 82.964c1.3-.026 2.7 1 2.444 4.6s-.615 8.4-.615 8.4a15.6 15.6 0 0 0 0 4.134c.061.446.511 3.6-.03 4.062a1.121 1.121 0 0 1-.433.223 1.091 1.091 0 0 1-.517-.029c-.6-.2-.514-2.858-.6-4.508a15.392 15.392 0 0 0-.568-3.781c-.86-3.367-4.598-13.003.319-13.101z" data-name="Path 4481"/><path fill="#d75341" d="M64.086 82.963c.4-.008 1 .059 1.022.229.04.293-1.741.251-2.622 1.167-1.043 1.084-.232 2.894.969 8.247.978 4.359 1.467 6.538 1.231 7.568-.244 1.066-.923 3.02-.005 3.948.338.342.923.577.885.667a1.127 1.127 0 0 1-.971-.223c-.874-.7-.291-2.842-.259-4.722a14.762 14.762 0 0 0-.568-3.781c-.861-3.365-4.599-13.001.318-13.1z" data-name="Path 4482" opacity=".32"/><path fill="#252258" d="M64.256 100.55s-.057 3.085 1.018 3c.939-.078.721-2.932.721-2.932a5.4 5.4 0 0 1 .417 2.231 2.838 2.838 0 0 1-.341 1.455 2.505 2.505 0 0 1-.695.758 2.554 2.554 0 0 1-.737-.552c-1.279-1.396-.455-3.762-.383-3.96z" data-name="Path 4483"/></g><g data-name="Group 1843"><g data-name="Group 1841"><path fill="#f03a8f" fill-rule="evenodd" d="M54.038 47.724s-3.752-.719-5.628.786-1.327 5.66-2.075 8.241c-.325 1.121-1.327.6-2.053 3.1 0 0 .03.562.919 1.085a1.363 1.363 0 0 1 .609-1.312c.738-.441 1.326-.009 1.782-.8a1.141 1.141 0 0 1-1.2.836c-1.073.05-1.031 1.138-.882 1.535 0 0 .007-1.108.7-1.188a2.149 2.149 0 0 0 1.6-.586 1.462 1.462 0 0 1-1.209.724c-.789-.024-1.028.976-.86 1.136a1.576 1.576 0 0 0 .984.493.9.9 0 0 1 .28-.875s-.353.751.221 1.02a2.919 2.919 0 0 1 1.857.278 1.489 1.489 0 0 1 .139-1.6 1.554 1.554 0 0 0 .289 1.767 2.951 2.951 0 0 0 2.914.4 9.913 9.913 0 0 1 4.243-.752l-.241-1.136.521.966s2.064-.82 2.6-1.943a1.007 1.007 0 0 1-1.117-.984 1.515 1.515 0 0 0-.394-1.638s1.095.341.911 1.337.595 1.065 1.194.769c0 0-.878.179-.714-.719s-1.568-2.444-1.645-3.509c-.107-1.324-.513-7.376-3.745-7.431z" data-name="Path 4484"/></g><g data-name="Group 1842"><path fill="#ed0973" fill-rule="evenodd" d="M49.33 53.792c-.492.279-.54 1.194-.548 1.35a8.322 8.322 0 0 0 .124.978c.013.253.076 1.534-.574 1.957a1.563 1.563 0 0 0-.535.4 1.208 1.208 0 0 0-.2.408 1.356 1.356 0 0 1-.778.719c-.3.088-.542 0-.9.2a.744.744 0 0 0-.333.313.729.729 0 0 0 0 .571.857.857 0 0 1 .246-.5c.357-.334.859-.093 1.477-.4a1.717 1.717 0 0 0 .474-.347 1.494 1.494 0 0 1-.587.558c-.483.245-.916.082-1.233.4a.83.83 0 0 0-.206.372c.071.08.149.162.235.245a4.18 4.18 0 0 0 .695.538.684.684 0 0 1 .088-.421.674.674 0 0 1 .235-.235.853.853 0 0 0-.108.567.791.791 0 0 0 .088.245 1.164 1.164 0 0 1 .722-.792 1.1 1.1 0 0 1 1.186.372 1.982 1.982 0 0 1 .186-.519 2.021 2.021 0 0 1 .636-.714c-.36.359-.821.907-.665 1.272.2.474 1.4.7 2.437.331a8.289 8.289 0 0 1 3.547-.629l-.2-.949.436.808s1.726-.686 2.173-1.625a.842.842 0 0 1-.934-.823 1.266 1.266 0 0 0-.329-1.37s.916.285.762 1.118.5.891 1 .642a.605.605 0 0 1-.517-.127.587.587 0 0 1-.079-.474 10.389 10.389 0 0 0 .026-1.987 13.919 13.919 0 0 0-.052-4.122 5.6 5.6 0 0 0-.913-2.583c-.339-.458-1.123-1.518-1.879-1.409-1.656.24-1.636 5.885-3.4 6.105-.688.092-1.244-.761-1.803-.443z" data-name="Path 4485"/></g></g><g data-name="Group 1845"><path fill="#f49092" d="M63.416 82.327c1.213-.476 2.874 0 3.888 3.471s2.333 8.088 2.333 8.088a20.532 20.532 0 0 0 1.431 3.879c.576 1.117 2.276 3.359 1.62 4.267a.6.6 0 0 1-.319.254c-.106.029-.547.1-1.4-1.055a10.468 10.468 0 0 1-1.464-3.157 14.215 14.215 0 0 0-1.843-3.35c-1.977-2.858-8.824-10.601-4.246-12.397z" data-name="Path 4486"/><g data-name="Group 1844"><path fill="#d75341" d="M67.659 94.723a18.5 18.5 0 0 1 1.434 2.382 18.27 18.27 0 0 0-1.349-2.516c-1.736-2.786-7.2-10.253-3.908-12.383 0 0-.678.212-.681.214-4.031 2.166 2.53 9.447 4.504 12.303z" data-name="Path 4487" opacity=".33"/></g><path fill="#742051" d="M72.554 100.558a1.281 1.281 0 0 1 .411 1.428.86.86 0 0 1-.352.353c-.262.093-1.6.548-2.328-.118-.141-.13-.148-.232-.489-1.116a7.947 7.947 0 0 1-.554-1.52c.051-.026.233.385.7.861a2.187 2.187 0 0 0 1.083.738 1.9 1.9 0 0 0 1.529-.626z" data-name="Path 4488" opacity=".35"/><path fill="#252258" d="M69.438 97.863c.136.382 1.2 3.315 2.185 3.188.165-.022.385-.136.614-.555 0 0 .185-.484-.989-2.427a6.72 6.72 0 0 1 1.155 1.873c.252.62.69 1.7.225 2.206a.764.764 0 0 1-.31.2 2.765 2.765 0 0 1-1.768-.988 4.893 4.893 0 0 1-.53-1.239 4.428 4.428 0 0 0 .156 1.179h-.119a7.514 7.514 0 0 0-.486-1.6 2.242 2.242 0 0 1-.216-1.2c.028-.215.056-.422.083-.637z" data-name="Path 4489"/></g><path fill="#f28086" d="M67.007 58.331a.549.549 0 0 0-.066-.161l-1.712.56s.249-.3.5-.563 0-.517-.115-.411c-.21.2-.933.306-1.22.9a1.879 1.879 0 0 0-.065 1.348c-.457.921-1 1.909-1.642 2.935-.625 1-1.26 1.893-1.879 2.694-.1-.161-.237-.376-.386-.63-1.313-2.23-1.331-3.244-2.289-4.184a4.333 4.333 0 0 0-1.928-1.065 8.5 8.5 0 0 0-.183 1.932 8.8 8.8 0 0 0 1.126 4.086c.543.888 3.577 2.836 4.26 2.636.379-.111 1.124-.482 2.309-3.3a42.757 42.757 0 0 0 1.387-4.858l.347-.233a9.49 9.49 0 0 0 .905-.718 3.016 3.016 0 0 0 .576-.664.442.442 0 0 0 .075-.304z" data-name="Path 4490"/><g data-name="Group 1846"><path fill="#ea2e26" d="M49.324 74.268a.108.108 0 0 1-.028-.05 8.379 8.379 0 0 0 .281-3.278c-.5-3.946-.858-6.865-1.037-8.044a2.462 2.462 0 0 1 .193-1.653 1.178 1.178 0 0 1 .13-.167 1.413 1.413 0 0 1 .381-.287c.232-.123 1.063-.492 2.2-.95a2.3 2.3 0 0 0 1.522 1.108 1.72 1.72 0 0 0 1.467-.352 1.544 1.544 0 0 0 .448-.869 5.033 5.033 0 0 1 .761-.029 1.652 1.652 0 0 1 .959.2 1.24 1.24 0 0 1 .378.557c.275.588 1.97 4.627 1.827 5.087a4.308 4.308 0 0 1-.153.445c-.13.285-.8 1.814-.842 2.07a13.064 13.064 0 0 0-.566 1.909 13.818 13.818 0 0 0-.306 3.1 12.763 12.763 0 0 1 10.036 5.71c.511.787 3.39 8.345 4.119 10.7-1.626.5-12.071 3.641-13.415 1.112a4.05 4.05 0 0 1-.158-1.907 12.539 12.539 0 0 1 1.131-4.8l-.444.047s-4.527.183-4.79.182a6.137 6.137 0 0 1-4.044-1.057 4.807 4.807 0 0 1-1.724-3.3c-.071-1.029 1.502-4.8 1.674-5.484z" data-name="Path 4491"/><path fill="#ba2025" d="M49.325 74.159l.021-.1c.008-.037-.757-10.76-.664-12.8a1.53 1.53 0 0 1 .861-.443c1.8-.215 4.889 3.531 4.566 6.914-.28 2.928-3.252 7.036-3.013 8.261a1.517 1.517 0 0 0 .138.379 1.7 1.7 0 0 0 1.622.816 1.626 1.626 0 0 0 .933-.578c1.349-1.475 8.805-1.322 9.686 1.274.576 1.7-2.161 2.976-3.618 8.133a4.625 4.625 0 0 0 .064 3.567 4.018 4.018 0 0 0 2.139 1.738c-.325.064-3.459.651-4.382-.835-.238-.382-.193-.816-.158-1.907a12.544 12.544 0 0 1 1.131-4.8l-.444.047s-4.527.183-4.79.182a6.137 6.137 0 0 1-4.044-1.057 4.734 4.734 0 0 1-1.724-3.3c-.004-1.91 1.647-5.356 1.676-5.491z" data-name="Path 4492"/></g><g data-name="Group 1847"><path fill="#f49092" d="M52.261 70.598a2.122 2.122 0 0 1-.433-.4 23.811 23.811 0 0 1-2.485-3.638c-1.672-3.3-.977-5.63-.206-5.4a3.447 3.447 0 0 1 1.779 1.237 20.7 20.7 0 0 1 2.809 6.447c.969.551 2.336 1.853 4.587 3.1l-.049.778a12.545 12.545 0 0 1-4.162-.985 8.226 8.226 0 0 1-1.84-1.139z" data-name="Path 4493"/><path fill="#fff" d="M53.241 69.215a7.677 7.677 0 0 1-1.7-3.17 14.711 14.711 0 0 0-.587-2.563c-.4-1.043-.921-1.783-.829-1.847s.743.7.792.763a20.7 20.7 0 0 1 2.809 6.447c.969.551 2.336 1.853 4.586 3.1l-.04.484c-.132-.031-.291-.068-.472-.114-.31-.078-.453-.05-.6-.16a.688.688 0 0 1-.215-.274c-.132-.266-1.059-.985-3.744-2.666z" data-name="Path 4494" opacity=".25"/></g><g data-name="Group 1849"><path fill="#f49092" fill-rule="evenodd" d="M50.227 56.237a4.545 4.545 0 0 0 .5 1.066 3.546 3.546 0 0 0 .4.558 1.418 1.418 0 0 1 .336.417.641.641 0 0 1 .088.307 7.956 7.956 0 0 1-.095 1.122 1.859 1.859 0 0 0 .406.717 2.026 2.026 0 0 0 1.6.6 2.082 2.082 0 0 0 1.56-1.166 1.333 1.333 0 0 1-.367-1.054 1.079 1.079 0 0 1 .142-.358 1.187 1.187 0 0 1 .505-.41 3.788 3.788 0 0 0 1.383-1.087 4.614 4.614 0 0 0 .619-2.786l-.346-2.887c-.873-2.745-2.933-1.024-2.933-1.024-2.17 6.229-3.558 4.827-3.558 4.827-.188-1.51-1.669-1.368-1.331.189.01.045.132.916.671 1.031a.683.683 0 0 0 .42-.062z" data-name="Path 4495"/><g data-name="Group 1848" transform="translate(49.734 49.613)"><path fill="#d75341" fill-rule="evenodd" d="M7.245 1.824c-.611-.738-1.093-.854-1.4-.848-1.892.04-3.088 5.011-4.444 4.785a2.241 2.241 0 0 1-.688-.324 1.713 1.713 0 0 0 .354.141c.712.128 1.846-1.387 2.43-3.036.426-1.2.269-1.659.809-2.1A1.872 1.872 0 0 1 6.369.219a1.966 1.966 0 0 1 .876 1.605z" data-name="Path 4496" opacity=".33"/><path fill="#d75341" d="M6.074 4.579l-.141.961s.408.017.39.282-.168.321-.168.321.448 0 .443-.363a.51.51 0 0 0-.4-.457z" data-name="Path 4497"/><path fill="#d75341" d="M.388 5.237a.474.474 0 0 0-.137.384.382.382 0 0 0 .256.273s-.383.137-.49-.2.371-.457.371-.457z" data-name="Path 4498"/><path fill="#fff7d0" d="M4.628 7.147c.278-.03.661-.128.846.031a.078.078 0 0 1 .033.053c.005.119-.419.276-.806.281a1.193 1.193 0 0 1-.863-.3.926.926 0 0 1-.128-.16 2.334 2.334 0 0 0 .918.095z" data-name="Path 4499"/><path fill="#742051" d="M3.577 2.669c.032.175.312.339.693.237s.47-.31.309-.441-1.034.026-1.002.204z" data-name="Path 4500"/><path fill="#742051" d="M6.262 2.485c-.024.176.2.378.6.335s.554-.234.439-.387-1.015-.123-1.039.052z" data-name="Path 4501"/><ellipse cx=".322" cy=".578" fill="#742051" data-name="Ellipse 176" rx=".322" ry=".578" transform="matrix(.999 -.051 .051 .999 3.792 3.8)"/><ellipse cx=".322" cy=".578" fill="#742051" data-name="Ellipse 177" rx=".322" ry=".578" transform="matrix(.999 -.051 .051 .999 6.614 3.68)"/><path fill="#d75341" d="M5.57 8.421s-1.191.5-.28 1.822a1.931 1.931 0 0 1-2.964.765l-.274-.261s2.126.548 2.257-.678c.262-.757.044-1.144 1.261-1.648z" data-name="Path 4502" opacity=".33"/></g></g></g></g><g data-name="Group 1874"><g data-name="Group 1854"><path fill="#cc6eaa" d="M130.989 64.755h17.49v16.828h-17.49z" data-name="Rectangle 314"/><path fill="url(#a)" d="M0 0h18.069v1.816H0z" data-name="Rectangle 315" transform="translate(131.107 81.687)"/><g fill="url(#a)" data-name="Group 1852" transform="translate(128.907 83.558)"><path d="M2.999 0l1.015.058L.661 16.189s-.15.41-.458.389c0 0-.32.059-.156-.479z" data-name="Path 4503"/><path d="M4.011.058L.662 16.19s-.15.41-.458.389c0 0-.262.047-.189-.345a.306.306 0 0 0 .076.131c.132.114.292.013.4-.179L3.572.034z" data-name="Path 4504" style="mix-blend-mode:multiply;isolation:isolate"/></g><g fill="url(#a)" data-name="Group 1853" transform="translate(147.329 83.437)"><path d="M1.015 0L.001.058l3.352 16.131s.15.41.458.389c0 0 .32.059.156-.479z" data-name="Path 4505"/><path d="M0 .058l3.352 16.131s.15.41.458.389c0 0 .262.047.189-.345a.305.305 0 0 1-.076.131c-.132.114-.292.013-.4-.179L.441.033z" data-name="Path 4506" style="mix-blend-mode:multiply;isolation:isolate"/></g></g><g data-name="Group 1873"><g data-name="Group 1857"><path fill="#b85136" d="M137.644 45.697c-2.143.379-3.208 2.539-3.476 3.082a7.425 7.425 0 0 0-.632 3.862c.05 1.269.146 3.6 1.463 4.246a5.47 5.47 0 0 0 2.189.344c.523-.026.752-.043.752-.043l.087 1.13a2.962 2.962 0 0 1-.259.751c-.24.5.115.564.115.564s1.525.191 3.068-2l-.151-1.97a7.765 7.765 0 0 0 1.415-3.831c.142-1.809-.3-4.927-2.456-5.9a3.61 3.61 0 0 0-2.115-.235z" data-name="Path 4507"/><g data-name="Group 1855" transform="translate(133.523 47.341)"><path fill="#022f43" d="M9.031 2.505S8.692 4.697 5.196.887c-.235.1-4.823 1.727-4.551.551A8.667 8.667 0 0 0 1.256.157l4.07-.156z" data-name="Path 4508" opacity=".18"/><path fill="#022f43" d="M7.277 8.32l.152 1.97-2.024 1.133-.992-1.461v-.114a1.633 1.633 0 0 0 .909.479 1.682 1.682 0 0 0 .822-.088 1.519 1.519 0 0 0 .92-.89 2.446 2.446 0 0 0 .213-1.029z" data-name="Path 4509" opacity=".18"/><path fill="#da9a28" d="M4.417 9.842a6.568 6.568 0 0 1-2.941-.3c-.4-.283-1.375-.668-1.463-4.246-.018-.737-.02-1.154.006-1.454a7.237 7.237 0 0 1 .3-1.611c.066-.2.133-.359.183-.473a14.569 14.569 0 0 0-.3 2.609c-.046 1.934-.082 3.43.881 4.448a4.258 4.258 0 0 0 3.334 1.027z" data-name="Path 4510" opacity=".33"/><path fill="#fff7d0" d="M3.68 7.246a1.42 1.42 0 0 1-1.009.646 1.212 1.212 0 0 1-1.07-.484 5.576 5.576 0 0 0 .989.161 2.315 2.315 0 0 0 1.09-.323z" data-name="Path 4511"/><path fill="#e5674e" d="M2.507 3.92l.066 1.25s-.486-.014-.491.329.166.428.166.428-.532-.034-.487-.506a.64.64 0 0 1 .518-.554z" data-name="Path 4512"/><path fill="#e5674e" d="M7.481 5.426a.578.578 0 0 1 .132.455.434.434 0 0 1-.288.313s.407.174.538-.215-.382-.553-.382-.553z" data-name="Path 4513"/><path fill="#022f43" d="M5.418 2.686c-.137.148-.486.12-.76-.232s-.221-.613 0-.633.898.717.76.865z" data-name="Path 4514"/><path fill="#022f43" d="M1.651 1.443c.133.152.068.5-.311.731s-.632.156-.629-.069.81-.814.94-.662z" data-name="Path 4515"/><ellipse cx=".509" cy=".287" fill="#022f43" data-name="Ellipse 178" rx=".509" ry=".287" transform="rotate(-82.763 2.968 1.595)"/><ellipse cx=".287" cy=".509" fill="#022f43" data-name="Ellipse 179" rx=".287" ry=".509" transform="rotate(-3.62 54.967 -64.454)"/></g><g data-name="Group 1856"><path fill="#124e64" d="M141.703 53.789c.547-1.344-.423-1.611-.975-1.39a.9.9 0 0 0-.42.57c.127-.98.27-3.558-.514-4.494l2.016-.677s2.286 3.133-1.009 7.862c0 0 .217-.53.387-1.119a2.046 2.046 0 0 0 .515-.752z" data-name="Path 4516"/><path fill="#022f43" d="M138.894 47.784c-.446.091-4.8.932-6.129-1.01-.142-.207-.728-1.064-.4-1.76a1.625 1.625 0 0 1 1.128-.752 3.693 3.693 0 0 1 2.16.442s-.555-.754-.3-1.122a.481.481 0 0 1 .3-.173c.776-.183 2.165.942 2.389 1.126a5.9 5.9 0 0 1 4.534 2.239 4.806 4.806 0 0 1 .836 2.173c.233 2.241-4.1-.212-4.518-1.163z" data-name="Path 4517"/><path fill="#155f7b" d="M139.094 47.362c-.349.1-3.764 1.035-4.941-.431-.125-.156-.645-.8-.428-1.376a1.3 1.3 0 0 1 .852-.668 2.946 2.946 0 0 1 1.746.22s-.487-.567-.3-.875a.384.384 0 0 1 .226-.156c.607-.193 1.781.618 1.971.751a6.19 6.19 0 0 1 3.746 1.506A4.547 4.547 0 0 1 143.003 48c.147.456.256.795.117.959-.232.268-1.154.102-4.026-1.597z" data-name="Path 4518" opacity=".43"/></g></g><g data-name="Group 1860"><g data-name="Group 1858"><path fill="#1b1c1c" d="M145.163 73.66c-.2-.272-.177-.622-.513-.852a6.174 6.174 0 0 0-2.285-.581c-2.641-.49-7.382-1.774-8.026 1.458a3.786 3.786 0 0 1-.42 1.053 15.727 15.727 0 0 0-9.911 7.315 3.791 3.791 0 0 0-.655 1.9c-.065 2.33.81 13.4 1.511 15.378.129.365 1.46 1.065 1.706.364a43.037 43.037 0 0 0 2.578-16.067 14.585 14.585 0 0 0 6.447-4.705c.6.139 1.327.265 2.191.378 2.037.266 4.086.417 5.952-.519.705-.354 1.745-.6 2.042-1.333a4.313 4.313 0 0 0-.617-3.789z" data-name="Path 4519"/><path fill="#212330" d="M126.82 99.18q-1.638.559-1.84.231c-.06-.1-.024-.254.106-.469l-3.75 1.579a2.141 2.141 0 0 0 .729.729 2.432 2.432 0 0 0 1.457.265c1.023-.065 2.228-.145 3.611-.265l.3-.994z" data-name="Path 4520"/><path fill="#742051" d="M121.337 100.518l-.173.608s-.086.814.557 1.071a6.332 6.332 0 0 0 2.141.086l3.812-.342 1.2-.6-1.713-.814z" data-name="Path 4521" opacity=".35"/></g><g data-name="Group 1859"><path fill="#31302c" d="M146.165 74.018A29.037 29.037 0 0 0 132 81.18a3.044 3.044 0 0 0-.746 1.592c-.2 1.378 1.6 15.188 2.036 16.677.214.724 1.538.419 1.771-.582.356-1.525 1.8-10.015 2.248-14.026a26.307 26.307 0 0 0 7.574-2.931l1.725-3.36-.443-4.532z" data-name="Path 4522"/><path fill="#aaa9a5" d="M146.165 74.018c-.549.106-1.392.286-2.4.572a31.572 31.572 0 0 0-7.885 3.542c-.457.289-.013.027-2.524 1.839a5.253 5.253 0 0 0-1.507 1.428 4.4 4.4 0 0 0-.59 1.373 134.075 134.075 0 0 0 2.018 16.629.545.545 0 0 0 .176.293.992.992 0 0 0 .89.069c-.145-.336-.38-.9-.63-1.614a29.89 29.89 0 0 1-1.2-12.5c.152-1.1.4-2.172.4-2.172.1-.424.173-.74.191-.789.265-.716.814-1.637 3.718-3.483 3.709-2.358 6.628-4.214 8.453-3.052a3.321 3.321 0 0 1 1.341 2.4q-.229-2.265-.451-4.535z" data-name="Path 4523" opacity=".16"/><path fill="#212330" d="M135.197 98.282l.287 1.683-1.49 1.785-2.391 1.513-1.362-.181 2.83-4.722a1.108 1.108 0 0 0 .561.678 1.328 1.328 0 0 0 1.565-.756z" data-name="Path 4524"/><path fill="#742051" d="M130.236 102.981l.834.511 3.923.048 6.043-.67-.159-.957-4.718-.239z" data-name="Path 4525" opacity=".35"/></g></g><g data-name="Group 1872"><g data-name="Group 1863"><g data-name="Group 1861"><path fill="#9f3f27" fill-rule="evenodd" d="M129.66 68.181c-.121.982-.069 2.559.563 2.781.555.2 1.332-.73 2.039-1.573a12.4 12.4 0 0 0 2.686-6.544c.075-.727.025-.859-5.288 5.336z" data-name="Path 4526"/></g><g data-name="Group 1862"><path fill="#d3d3ea" fill-rule="evenodd" d="M134.919 59.19a4.117 4.117 0 0 0-1.127.556 6.078 6.078 0 0 0-1.517 1.879 21.307 21.307 0 0 0-1.844 3.33q.61.859 1.29 1.75.66.863 1.31 1.653l.73-1.356a13.482 13.482 0 0 0 1.157-7.811z" data-name="Path 4527"/></g><path fill="#b85136" fill-rule="evenodd" d="M130.198 60.239a4.193 4.193 0 0 1-.765-1.014 6.671 6.671 0 0 1-.255-1.111s-.091-.253-.164-.241-.077.207-.084.335a6.713 6.713 0 0 0 .348 2.732c.045.109.12.279.229.483-.234 1.058-1.391 6.708.075 8.856 0 0 .621 1.32 1.371.493a3.115 3.115 0 0 0 .766-1.067 8.545 8.545 0 0 0 .258-3.355q-.308-1.325-.7-2.731-.321-1.154-.663-2.233a1.486 1.486 0 0 0-.143-.777 1.6 1.6 0 0 0-.273-.37z" data-name="Path 4528"/><path fill="#da9a28" d="M129.01 57.874s.08 0 .164.241a3.018 3.018 0 0 0 1.021 2.125 1.514 1.514 0 0 1 .417 1.147c.067.2.663 2.233.663 2.233a5.388 5.388 0 0 1-.648-1.009c-.324-.656-.266-.879-.567-1.585-.356-.834-.578-.851-.822-1.507a3.948 3.948 0 0 1-.228-1.645z" data-name="Path 4529" opacity=".33"/></g><g data-name="Group 1864"><path fill="#9fa1cf" d="M137.669 58.48c.554-.115 2.872-.255 3.1-.365a11.114 11.114 0 0 1 2.232.653 2.647 2.647 0 0 1 1.58 1.611 3.142 3.142 0 0 1 .052.945 43.222 43.222 0 0 0 1.383 12.759c.048.185.087.405-.062.526a.6.6 0 0 1-.292.1c-4 .583-7.9 1.146-11.918.023.225-2.193.281-3.993.288-5.244.021-3.317-.273-5.534.5-8.757.159-.66.322-1.194.435-1.543z" data-name="Path 4530"/></g><g data-name="Group 1865"><path fill="#68358d" d="M145.137 69.714l.913 4.448-.39.073a29.508 29.508 0 0 1-9.433.495 22.555 22.555 0 0 1-2.485-.472c.158-1.645.262-3.4.288-5.244q.019-1.315-.014-2.561a18.027 18.027 0 0 1-.985 1.904l-.887-1.07a53.484 53.484 0 0 1 2.387-7.031q.225-.536.457-1.057a23.126 23.126 0 0 0 .731 9.484 4.582 4.582 0 0 0 .743 1.448c1.668 2.153 5.588 3.011 7.579 1.3a3.7 3.7 0 0 0 1.096-1.717z" data-name="Path 4531" opacity=".46"/></g><g data-name="Group 1868"><path fill="#d3d3ea" d="M139.159 59.068l1.216 1.551 1.966-2.107a4.523 4.523 0 0 1-1.313-1.376l-1.814 1.386-1.256-1.15a5.2 5.2 0 0 1-1.231 1.583l1.308 1.958z" data-name="Path 4532"/><g data-name="Group 1867"><g fill="#ffca57" data-name="Group 1866"><path d="M139.97 61.559a2.376 2.376 0 0 1-1.333.068c-.79 1.979-1.953 6.833-1.953 6.833a8.069 8.069 0 0 0 1.919 2.527 12.234 12.234 0 0 0 2.4-2.748c.145-1.095-1.033-6.68-1.033-6.68z" data-name="Path 4533"/><path d="M139.97 61.559l.461-1-1.1-1.637-1.39 1.484a2.706 2.706 0 0 0 .429.916 2.591 2.591 0 0 0 .264.309 2.371 2.371 0 0 0 1.336-.072z" data-name="Path 4534"/></g><path fill="#4f5aa7" d="M140.375 60.619l-1.216-1.552-.29.438.352-.861 1.21 1.911z" data-name="Path 4535" opacity=".61"/><path fill="#022f43" d="M138.091 60.831l1.062-1.746 1.272 1.482a5.994 5.994 0 0 1-.489 1.037 1.51 1.51 0 0 0 .11-.823c-.12-.413-.6-.645-1.037-.782z" data-name="Path 4536" opacity=".18"/><path fill="#022f43" d="M138.654 61.613a1.837 1.837 0 0 0 .6.117 1.563 1.563 0 0 0 .713-.167 50.37 50.37 0 0 1 .826 4.472q.137.984.229 1.924a7.729 7.729 0 0 1-1.924 2.655l1.259-2.635-.65-5.873z" data-name="Path 4537" opacity=".18"/></g></g><g data-name="Group 1871"><g data-name="Group 1869"><path fill="#9f3f27" fill-rule="evenodd" d="M146.141 62.057s.011-.032.022-.032a4.062 4.062 0 0 1 .105.984c.014.634-.021 1.267-.008 1.9.039 1.8-.052 4.155-.96 5.713-.606 1.04-.888 1.222-1.076 1.257-.76.142-1.6-.831-1.97-1.61a4.072 4.072 0 0 1-.313-2.074c.077-1.755.208-4.727 1.719-5.319a13.618 13.618 0 0 0 2.481-.819z" data-name="Path 4538"/></g><g data-name="Group 1870"><path fill="#d3d3ea" fill-rule="evenodd" d="M143.876 59.257s1.152 1.018 1.465 1.349c1.392 1.473 1.479 3.06 1.948 5.59a6.289 6.289 0 0 1-2.743 1.619c-.139.035-.935.195-1.054.017s-.008-.944-.036-1.166c-.132-1.065-.17-2.15-.27-3.224a12.553 12.553 0 0 1 .69-4.185z" data-name="Path 4539"/></g><path fill="#b85136" fill-rule="evenodd" d="M143.431 60.77l.07-.217c.771-.667.53-2.262.429-3.044s-.325-.116-.325-.116a2.307 2.307 0 0 1-.229 1.236c-.22.427-.481.552-.724.886a2.561 2.561 0 0 0-.388 1.817 36.935 36.935 0 0 0-.343 2.339c-.069.6-.13 1.137-.163 1.841a18.869 18.869 0 0 0 .2 3.621 3.4 3.4 0 0 0 .516 1.644 2.026 2.026 0 0 0 1.44.9.8.8 0 0 0 .353-.059 1.139 1.139 0 0 0 .547-.743 10.877 10.877 0 0 0-.11-4.791 364.244 364.244 0 0 1-1.273-5.314z" data-name="Path 4540"/><path fill="#da9a28" d="M143.604 57.393a2.491 2.491 0 0 1-.953 2.121 2.216 2.216 0 0 0-.388 1.818c-.179 1.1-1.143 6.725.213 9.445l.481.431a19.154 19.154 0 0 1-.483-9.5 17.936 17.936 0 0 1 .652-2.3 2.642 2.642 0 0 0 .478-2.015z" data-name="Path 4541" opacity=".31"/></g></g></g></g><g data-name="Group 1895"><g data-name="Group 1890"><g data-name="Group 1879"><g data-name="Group 1876"><g data-name="Group 1875"><path fill="#f37475" d="M148.413 83.371c.207.173 1.058 1.021-.455 5.235a34.932 34.932 0 0 1-6.125 10.4l-.294 1.022a4.152 4.152 0 0 1-2.121 1.157c-1.2.224-2.491-.156-2.5-.5-.005-.141.485-.379 1.465-.849a7.155 7.155 0 0 0 1.972-1.628 35.5 35.5 0 0 0 1.106-3.536c.588-2.307 2.989-11.3 5.817-11.576a1.559 1.559 0 0 1 1.135.275z" data-name="Path 4542"/></g><path fill="#ba2025" d="M136.051 100.801c.2-.149.412-.3.64-.443a11.024 11.024 0 0 1 2.311-1.119 1.731 1.731 0 0 0 .779.652 1.956 1.956 0 0 0 1.934-.353 1.57 1.57 0 0 1 .087.462 2.711 2.711 0 0 1-.476 1.364c-.267.507-.474.895-.583 1.1l-.484-.167.374-1.3a4.567 4.567 0 0 1-1.446.725 4.617 4.617 0 0 1-.962.174l-2.047-.442a.393.393 0 0 1-.227-.187.4.4 0 0 1 .1-.466z" data-name="Path 4543"/></g><g data-name="Group 1878"><g data-name="Group 1877"><path fill="#f49092" d="M149.195 84.685c.239.1 1.263.615 1.2 4.925a33.843 33.843 0 0 1-2.315 11.361l.049 1.023a3.921 3.921 0 0 1-1.552 1.7c-1.006.565-2.286.608-2.4.3-.048-.127.32-.493 1.056-1.218a6.809 6.809 0 0 0 1.274-2.083 34.645 34.645 0 0 0-.09-3.568c-.179-2.287-.779-11.239 1.679-12.34a1.457 1.457 0 0 1 1.099-.1z" data-name="Path 4544"/></g><path fill="#742051" d="M143.429 104.348l-.38.742.678.365 3.027-.365 2.452-.469-.47-.835z" data-name="Path 4545" opacity=".35"/><path fill="#ba2025" d="M143.429 104.349c.134-.2.279-.4.439-.6a10.337 10.337 0 0 1 1.734-1.719 1.652 1.652 0 0 0 .9.362 1.829 1.829 0 0 0 1.631-.906 1.539 1.539 0 0 1 .219.4 2.652 2.652 0 0 1-.01 1.391c-.085.544-.152.961-.187 1.18l-.486-.007-.064-1.3a4.306 4.306 0 0 1-1.077 1.1 4.256 4.256 0 0 1-.811.449l-1.975.212a.371.371 0 0 1-.261-.1.393.393 0 0 1-.052-.462z" data-name="Path 4546"/></g><path fill="#db252e" d="M150.449 89.899a7.138 7.138 0 0 0-3.874-6.75l-.539.538a2.7 2.7 0 0 1 1.018 1.644 24.345 24.345 0 0 0-1.866 8.989l1.044-1.709a26.084 26.084 0 0 1 .156-3.562c.1-.782.449-3.62 1.2-3.7.72-.082 1.713 2.379 2.126 4.487a16.759 16.759 0 0 1 .118 5.283c.02-.006.147-.969.617-5.22z" data-name="Path 4547" opacity=".3"/></g><g data-name="Group 1880"><path fill="#2b337c" d="M167.156 75.397c-2.239-2.016-6.19-.545-9.927.847a29.8 29.8 0 0 0-10.654 6.9 6.988 6.988 0 0 1 2.694 2.33 7.1 7.1 0 0 1 1.181 4.419c.122-.408.313-1.051.544-1.846a13.672 13.672 0 0 1 .424-1.423c.734-1.228 3.982-.161 7.567.03 2.921.156 5.554.3 7.354-1.18 2.73-2.252 3.282-7.857.817-10.077z" data-name="Path 4548"/><path fill="#0d112b" d="M146.575 83.146s1.8.812 1.9 1.438c.835-.783 8.349-7.2 9.758-7.357a25.05 25.05 0 0 0 1.722-.939l-.332-.416.384-.784a34.865 34.865 0 0 0-13.432 8.058z" data-name="Path 4549" opacity=".41"/></g><g data-name="Group 1883"><g data-name="Group 1881"><path fill="#f49092" d="M163.187 57.783a3.959 3.959 0 0 1-2.73-1.312 4.042 4.042 0 0 1-.885-2.056 6.536 6.536 0 0 1 .416-2.952c.586-2.05.878-3.075 1.325-3.554a5.063 5.063 0 0 1 5.86-.61 5.617 5.617 0 0 1 2.64 4.45c.015 1.719-.875 3.693-3.325 5.625l.115 2.767c-.386.132-.811.258-1.273.366a13.553 13.553 0 0 1-1.9.307 2.813 2.813 0 0 0 .436-1.985 2.98 2.98 0 0 0-.679-1.046z" data-name="Path 4550"/><path fill="#f9cbcf" d="M160.711 49.215c-.087.219-.216.554-.352.968-.6 1.836-1.239 3.791-.43 5.453a3.836 3.836 0 0 0 3.259 2.142 2.081 2.081 0 0 1 .5 2.5c.626-1.565 1.017-2.27-1.213-3.092-1.176-.584-3.564-1.191-1.764-7.971z" data-name="Path 4551" opacity=".4"/></g><g data-name="Group 1882"><path fill="#d75341" d="M161.181 52.225a4.534 4.534 0 0 0-.389 1.141.638.638 0 0 0 .2.513s-.432 0-.5-.325.689-1.329.689-1.329z" data-name="Path 4552"/><path fill="#68358d" d="M160.127 51.283s-.067.321.137.467a.493.493 0 0 0 .48-.012s-.316.454-.581.2-.036-.655-.036-.655z" data-name="Path 4553"/><path fill="#68358d" d="M162.436 52.466a.47.47 0 0 0 .226.484.853.853 0 0 0 .652.021s-.39.44-.772.168a.482.482 0 0 1-.106-.673z" data-name="Path 4554"/><path fill="#fff7d0" d="M161.191 55.35a1.791 1.791 0 0 1 .629-.118 1.825 1.825 0 0 1 .934.257.837.837 0 0 1-.87.574.713.713 0 0 1-.452-.151.739.739 0 0 1-.241-.562z" data-name="Path 4555"/><path fill="#68358d" d="M160.256 50.673c-.011.2.246.413.679.343s.581-.292.443-.457-1.112-.084-1.122.114z" data-name="Path 4556"/><path fill="#68358d" d="M162.856 51.301c-.156.131-.155.475.167.753s.581.235.617.015-.629-.899-.784-.768z" data-name="Path 4557"/></g></g><g data-name="Group 1887"><g data-name="Group 1884"><path fill="#f26f21" d="M163.529 61.425c-.979-.41-2.706 1.645-3.154 2.179a34.6 34.6 0 0 0-2.748 4.459l-.547.943a3.97 3.97 0 0 0 1.2 2.323c1.007.812 1.322.756 1.322.756 1.692-1.344 4.218-3.841 4.6-7.31.037-.411.282-2.951-.673-3.35z" data-name="Path 4558"/><path fill="#f37475" d="M150.785 72.872a6.159 6.159 0 0 0 .534-1.148 1.007 1.007 0 0 1 .254-.443 1.6 1.6 0 0 1 .821-.323 4.589 4.589 0 0 1 .514-.083 30.55 30.55 0 0 1 4.014-1.979 1.147 1.147 0 0 1 .453-.167c.841-.111 1.8.809 1.67 1.359a.636.636 0 0 1-.306.365 7 7 0 0 1-2.892.827c-.164.014-.33.029-.5.046q-.983.095-1.923.22a1.937 1.937 0 0 1-.536.456 1.991 1.991 0 0 1-1.1.251 1.4 1.4 0 0 1-.649.7c-.026.012-.321.152-.382.074-.03-.043.009-.12.028-.155z" data-name="Path 4559"/></g><g data-name="Group 1885"><path fill="#ffca57" d="M159.62 75.871a6.508 6.508 0 0 0 .9-4.042c-.163-1.163-.638-1.557-.853-3.077a7.708 7.708 0 0 1 .126-3.156 7.133 7.133 0 0 1 2.7-3.77 3.355 3.355 0 0 0 .919-1.057 9.184 9.184 0 0 0 3.932-2.715 19.534 19.534 0 0 1 .956 2.422 22.524 22.524 0 0 1 .977 4.934 23.618 23.618 0 0 1-1.543 10.45c-1.951.762-7.291 1.462-8.114.011z" data-name="Path 4560"/><path fill="#f8963e" d="M165.694 66.425c-2.362 3.181-3.058 5.514-3.235 7.1-.063.565-.167 2-1.1 2.5a2.3 2.3 0 0 1-1.878-.052l1.252-3.235a12.4 12.4 0 0 1-1.2-4.748 8.523 8.523 0 0 1 .078-1.617 8.1 8.1 0 0 1 1.122-3.027 6.091 6.091 0 0 0-.783 3.392 2.149 2.149 0 0 0 .417 1.461c.791.72 2.927-.046 5.327-1.774z" data-name="Path 4561" opacity=".36"/></g><g data-name="Group 1886"><path fill="#f49092" d="M149.015 72.745a3.03 3.03 0 0 1 .468-.705 1.529 1.529 0 0 1 .477-.429 2.013 2.013 0 0 1 1.109-.062 5.886 5.886 0 0 1 .648.1 38.742 38.742 0 0 1 5.575-.784 1.563 1.563 0 0 1 .259-.041 5.662 5.662 0 0 0 1.345-.41c.579-.26.668-.419.92-.43.92-.042 2.223 1.979 1.682 2.9-.215.364-1.022.43-2.639.562a12.288 12.288 0 0 1-3.784-.15q-.3-.072-.611-.141-1.211-.273-2.387-.494a2.441 2.441 0 0 1-.82.333 2.5 2.5 0 0 1-1.419-.134 1.758 1.758 0 0 1-1.049.575h-.006a3.015 3.015 0 0 1 .232-.69z" data-name="Path 4562"/><path fill="#db252e" d="M158.989 70.338l2.661 2.27a1.3 1.3 0 0 1-.268.352 1.486 1.486 0 0 1-1.089.352 44.994 44.994 0 0 1-2.583.209 18.1 18.1 0 0 1-3.939-.5c.724.024 1.614.052 2.635.078 1.691.043 2.588.052 2.739-.339a2.761 2.761 0 0 0-.182-.809 2.6 2.6 0 0 1-.209-1.044 1.276 1.276 0 0 1 .235-.569z" data-name="Path 4563" opacity=".3"/><path fill="#f8963e" d="M163.91 62.705a4.647 4.647 0 0 0-1.659 1.906c-.418 1.116-2.445 3.787-2.748 4.459a3.951 3.951 0 0 1-.547.943 3.967 3.967 0 0 0 1.2 2.323c1.007.812 1.322.755 1.322.755s3.933-5.923 4.6-7.31-.541-3.708-2.168-3.076z" data-name="Path 4564"/></g></g><g data-name="Group 1889" transform="translate(160.463 45.459)"><path fill="#742051" d="M4.29 16.29c.486.616 1.022 1.474.734 2.092-.123.263-.33.344-.548.509-1.145.868-1.481 3.252-.666 3.992.621.563 1.808.081 2.215.7a3.732 3.732 0 0 1 .368.784 7.037 7.037 0 0 1 .221.975c.174 1.117.07 1.382.327 1.607a.917.917 0 0 0 .763.157 1.155 1.155 0 0 0 .8-1.1c-.274-.9-1.487-7.944-1.487-7.944z" data-name="Path 4565" opacity=".25"/><path fill="#742051" d="M2.459 10.282a1.1 1.1 0 0 0-.137.822 1.154 1.154 0 0 0 .6.648c1.238.716 2.169.335 2.452.839.251.447-.212 1.232-.626 1.6a2.7 2.7 0 0 1-1.037.529 3.072 3.072 0 0 1-.489.1l-.2.463c.118-.046 2.876-1.337 3.1-1.4a1.9 1.9 0 0 0-.078-1.6 1.33 1.33 0 0 0-.205-.245 5.86 5.86 0 0 1-.9-.02 3.051 3.051 0 0 1-2-.607 1.815 1.815 0 0 1-.48-1.129z" data-name="Path 4566" opacity=".25"/><path fill="#845ba5" d="M13.309 13.749c-.506-.4-.946-.345-2.058-.484-1.8-.226-2.847-.357-3.208-.848-.212-.288-.651-1.328 2.42-5.141l.247-1.241-.005.013a4.476 4.476 0 0 0-.723-4.253C8.307-.428 4.602.041 4.602.041A6.973 6.973 0 0 1 2.196.57a2.529 2.529 0 0 0-1.11.2 1.926 1.926 0 0 0-.819.794 2.537 2.537 0 0 0-.019 2.191 1.978 1.978 0 0 1 .4-.605 2.2 2.2 0 0 1 .715-.467 2.511 2.511 0 0 1 2.32.849 3.372 3.372 0 0 1 .686 3c-.421 2.571-2.365 3.482-1.954 4.486.493 1.207 3.778.776 3.869 1.518.048.393-.872.5-1.573 1.634a2.605 2.605 0 0 0-.423 2.119 6.033 6.033 0 0 0 .633.857c.68.9.792 1.068.742 1.258-.089.333-.427.336-.9.735a3 3 0 0 0-.982 2.46 1.611 1.611 0 0 0 .31.969c.564.706 1.545.148 2.343.674.951.627.355 1.9 1.12 2.485 1.158.88 4.537-.526 5.629-2.906a7.777 7.777 0 0 0 .545-2.905c.042-1.282-.2-1.717-.169-2.329a2.487 2.487 0 0 1 .114-.594 11.751 11.751 0 0 1 .515-1.249 2.17 2.17 0 0 0-.879-1.995z" data-name="Path 4567"/><g fill="#a986bd" data-name="Group 1888"><path d="M3.681 1.873a12.019 12.019 0 0 0 1.08 1.2 9.2 9.2 0 0 0 1.248 1.021l.169.111.084.058c.027.022.055.041.079.064a.892.892 0 0 1 .242.328.759.759 0 0 1 .052.2.915.915 0 0 1 .005.205 1.531 1.531 0 0 1-.09.4 4.3 4.3 0 0 1-.358.727c-.138.232-.285.458-.43.686a8.509 8.509 0 0 0-.776 1.41 2.607 2.607 0 0 0-.188.775 1.683 1.683 0 0 0 .128.779 3.281 3.281 0 0 0 .394.7 5.775 5.775 0 0 0 .519.614c.185.194.379.38.576.564s.395.364.606.53.429.323.642.491a4.032 4.032 0 0 1 .584.564c.088.1.171.21.252.318s.162.216.238.328a3.6 3.6 0 0 1 .39.712 1.969 1.969 0 0 1 .15.8 1.467 1.467 0 0 1-.071.4 1.2 1.2 0 0 1-.2.359 2.612 2.612 0 0 1-.28.3l-.3.275a6.866 6.866 0 0 0-.558.58 8.666 8.666 0 0 0-.92 1.322 5.941 5.941 0 0 0-.35.725 3.723 3.723 0 0 0-.222.772 2.581 2.581 0 0 0-.038.4v.1a.8.8 0 0 0 .006.1l.01.1.019.1a1.552 1.552 0 0 0 .342.717 2.339 2.339 0 0 0 .621.508 3.8 3.8 0 0 0 .74.321 3.814 3.814 0 0 1-.743-.315 2.346 2.346 0 0 1-.629-.5A1.582 1.582 0 0 1 6.35 21l-.019-.1-.012-.1a.877.877 0 0 1-.007-.1v-.1a2.709 2.709 0 0 1 .035-.4 3.663 3.663 0 0 1 .221-.779 5.894 5.894 0 0 1 .349-.731 8.716 8.716 0 0 1 .92-1.331 7.03 7.03 0 0 1 .56-.585 5.993 5.993 0 0 0 .57-.567 1.164 1.164 0 0 0 .189-.346 1.445 1.445 0 0 0 .067-.39 1.917 1.917 0 0 0-.149-.778 3.641 3.641 0 0 0-.386-.7 9.857 9.857 0 0 0-.489-.639 3.982 3.982 0 0 0-.578-.554c-.21-.166-.432-.32-.644-.489s-.413-.35-.608-.536-.39-.372-.577-.568a5.81 5.81 0 0 1-.521-.622 3.336 3.336 0 0 1-.4-.708 1.8 1.8 0 0 1-.112-.393 1.775 1.775 0 0 1-.017-.409 2.667 2.667 0 0 1 .194-.789 8.5 8.5 0 0 1 .784-1.415c.146-.227.293-.452.431-.683a4.232 4.232 0 0 0 .358-.719 1.536 1.536 0 0 0 .09-.388.925.925 0 0 0 0-.2.744.744 0 0 0-.05-.191.861.861 0 0 0-.232-.317 1.38 1.38 0 0 0-.16-.12l-.168-.113a9.217 9.217 0 0 1-1.241-1.035 11.888 11.888 0 0 1-1.067-1.232z" data-name="Path 4568"/><path d="M3.145 1.117a1.78 1.78 0 0 1 .2.245 1.62 1.62 0 0 1 .158.275 1.253 1.253 0 0 1-.209-.239 1.2 1.2 0 0 1-.149-.281z" data-name="Path 4569"/><path d="M9.953 23.087a2.988 2.988 0 0 0 .5.021 1.977 1.977 0 0 0 .492-.09.977.977 0 0 1-.489.152 1.165 1.165 0 0 1-.503-.083z" data-name="Path 4570"/><path d="M9.31 13.506c.5.189 1 .367 1.489.583a6.331 6.331 0 0 1 .712.368 3.044 3.044 0 0 1 .629.5 1.737 1.737 0 0 1 .409.692 1.918 1.918 0 0 1 .05.8 2.141 2.141 0 0 1-.27.759 3.415 3.415 0 0 1-.489.64 11.022 11.022 0 0 1-1.22 1.038 7.626 7.626 0 0 0-1.184 1.06 1.918 1.918 0 0 0-.385.685 1.236 1.236 0 0 0-.041.193l-.014.1v.1c-.005.066 0 .132 0 .2s.006.132.015.2a2.157 2.157 0 0 0 .222.759 2.01 2.01 0 0 0 .494.62 2.021 2.021 0 0 1-.507-.613 2.175 2.175 0 0 1-.24-.762c-.01-.066-.012-.133-.017-.2s0-.134 0-.2v-.1l.013-.1a1.219 1.219 0 0 1 .041-.2 1.958 1.958 0 0 1 .384-.7 4.532 4.532 0 0 1 .565-.57c.2-.175.412-.34.622-.5a11.037 11.037 0 0 0 1.21-1.036 3.33 3.33 0 0 0 .482-.626 2.081 2.081 0 0 0 .266-.737 1.885 1.885 0 0 0-.045-.78 1.738 1.738 0 0 0-.393-.674 2.986 2.986 0 0 0-.616-.5 6.387 6.387 0 0 0-.7-.374c-.489-.239-.988-.426-1.482-.625z" data-name="Path 4571"/><path d="M6.17 4.219a9.1 9.1 0 0 1 1.3.664 5.448 5.448 0 0 1 1.142.914 2.5 2.5 0 0 1 .415.607 1.192 1.192 0 0 1 .067.173l.028.089.016.092a1.127 1.127 0 0 1 .015.186.661.661 0 0 1-.006.093c0 .031 0 .062-.01.093a1.955 1.955 0 0 1-.277.683 4.933 4.933 0 0 1-.437.59c-.316.373-.657.721-.962 1.1a4.505 4.505 0 0 0-.415.595 2.106 2.106 0 0 0-.253.672 1.476 1.476 0 0 0 .063.71 1.908 1.908 0 0 0 .359.624 3.958 3.958 0 0 0 1.145.89 3.961 3.961 0 0 1-1.167-.87 1.915 1.915 0 0 1-.373-.631 1.513 1.513 0 0 1-.073-.73 2.082 2.082 0 0 1 .254-.69 4.491 4.491 0 0 1 .417-.6c.306-.381.646-.732.959-1.1a4.92 4.92 0 0 0 .434-.581 1.9 1.9 0 0 0 .271-.661 1.173 1.173 0 0 0-.1-.7 2.533 2.533 0 0 0-.4-.6 5.435 5.435 0 0 0-1.122-.92 9.133 9.133 0 0 0-1.29-.692z" data-name="Path 4572"/></g><ellipse cx="1.158" cy=".363" fill="#831939" data-name="Ellipse 180" rx="1.158" ry=".363" transform="rotate(-16.66 44.853 -13.738)"/><path fill="#2b337c" d="M.249 3.757a2.36 2.36 0 0 1 1.723-.766 2.451 2.451 0 0 1 1.826 1.1 3.856 3.856 0 0 1 .339 3.444 3.111 3.111 0 0 0 .675-2.071 2.97 2.97 0 0 0-.388-1.295C3.687 2.317 2.629 1.093 1.815 1.09a1.847 1.847 0 0 0-.783.183 1.764 1.764 0 0 0-.782.913 2.162 2.162 0 0 0-.001 1.571z" data-name="Path 4573" opacity=".42"/><path fill="#2b337c" d="M2.363 10.622a.96.96 0 0 0 .085.47c.208.438.734.584 1.265.724.482.127.51.065 1.227.2s1.292.253 1.332.51c.024.154-.154.3-.217.351a4.08 4.08 0 0 0-1.879 2.779c.052.274-.032.408.115.635s1.229 1.7 1.229 1.7a.437.437 0 0 1-.2.757 2.789 2.789 0 0 0-1.539 2.753c.026.261-.026 1.565 1.4 1.474a1.547 1.547 0 0 1 1.852 1.4c.079.509.065 2.831 3.861.848-.613.2-2.792.17-2.752-.457a1.919 1.919 0 0 0-2.074-1.957c-.509.039-3.222-1.448-.561-4.044.212-.133.887-.271-.111-1.405a3.516 3.516 0 0 1 1.024-4.582.561.561 0 0 0 .08-.471c-.289-.794-3.1.025-3.941-1.219a1.321 1.321 0 0 1-.196-.466z" data-name="Path 4574" opacity=".42"/></g></g><g data-name="Group 1891"><path fill="#742051" d="M165.188 75.44a1.484 1.484 0 0 0 .009-.159 1.509 1.509 0 0 0-1.507-1.507h-4.386a1.51 1.51 0 0 0-1.507 1.508 1.469 1.469 0 0 0 .009.158h-3.5v9.6l13.537-.12v-9.432zm-6.653-.159a.774.774 0 0 1 .773-.773h4.382a.773.773 0 0 1 .756.932h-5.895a.775.775 0 0 1-.016-.155z" data-name="Path 4575" opacity=".25"/><path fill="#ea2e26" d="M167.89 85.356h-14.18v-9.603h14.18z" data-name="Rectangle 316"/><path fill="#831939" d="M167.757 75.903q-.075-.021-1.429 4.422l-10.477.018-2.085-4.538q1 2.579 2.008 5.156l10.73-.088q1.332-4.952 1.253-4.97z" data-name="Path 4576"/><path fill="url(#b)" d="M3527.469 2231.047v1.71a.773.773 0 0 1-.8.346.69.69 0 0 1-.371-.26v-1.91z" data-name="Path 4577" transform="translate(-3362.85 -2151.605)"/><path fill="url(#b)" d="M3413.773 2231.047v1.71a.773.773 0 0 1-.8.346.687.687 0 0 1-.37-.26v-1.91z" data-name="Path 4578" transform="translate(-3255.622 -2151.605)"/><path fill="#ea2e26" d="M163.091 77.102h-4.383a1.508 1.508 0 0 1 0-3.015h4.383a1.508 1.508 0 0 1 0 3.015zm-4.383-2.281a.774.774 0 0 0 0 1.547h4.383a.774.774 0 0 0 0-1.547z" data-name="Path 4579"/></g><g data-name="Group 1894"><path fill="url(#c)" d="M0 0h.832v16.828H0z" data-name="Rectangle 317" transform="rotate(-168.52 88.817 34.529)"/><path fill="url(#a)" d="M0 0h18.069v1.816H0z" data-name="Rectangle 318" transform="rotate(-180 84.597 43.616)"/><g fill="url(#a)" data-name="Group 1892" transform="translate(167.38 87.287)"><path d="M1.015 0L0 .058l3.352 16.131s.15.41.459.389c0 0 .319.059.156-.479z" data-name="Path 4580"/><path d="M0 .058l3.352 16.131s.15.41.459.389c0 0 .261.047.189-.344a.309.309 0 0 1-.077.131c-.132.114-.292.013-.4-.179L.441.033z" data-name="Path 4581" style="mix-blend-mode:multiply;isolation:isolate"/></g><g fill="url(#a)" data-name="Group 1893" transform="translate(148.958 87.166)"><path d="M2.995 0l1.014.058L.657 16.189s-.15.41-.458.39c0 0-.32.058-.156-.48z" data-name="Path 4582"/><path d="M4.014.058L.661 16.189s-.15.409-.458.389c0 0-.262.047-.189-.345a.313.313 0 0 0 .076.131c.132.114.292.013.4-.179L3.572.033z" data-name="Path 4583" style="mix-blend-mode:multiply;isolation:isolate"/></g></g></g><g data-name="Group 1914"><g data-name="Group 1910"><g data-name="Group 1899" transform="translate(24.146 46.438)"><ellipse cx="1.325" cy="3.515" fill="#1c214e" data-name="Ellipse 181" rx="1.325" ry="3.515" transform="rotate(-4.342 36.52 -112.498)"/><g data-name="Group 1897"><path fill="#f15f5c" d="M6.744 11.612a3.775 3.775 0 0 0 2.771-.815 3.856 3.856 0 0 0 1.149-1.8 6.234 6.234 0 0 0 .063-2.842c-.236-2.019-.354-3.028-.7-3.547a4.827 4.827 0 0 0-5.42-1.475 5.356 5.356 0 0 0-3.168 3.781c-.278 1.615.256 3.609 2.264 5.8l-.533 2.585a1.776 1.776 0 0 1 1.174-.078 1.821 1.821 0 0 1 1.1.94 7.207 7.207 0 0 1 .5-1.676c.1-.195.19-.317.8-.873z" data-name="Path 4584"/><g data-name="Group 1896" transform="translate(3.169 5.85)"><path fill="#cd3327" d="M2.631 6.993a2.08 2.08 0 0 1-1.281-.612C.526 5.457.962 3.688.924 3.801.494 5.076.001 7.456.001 7.456l2.246.8z" data-name="Path 4585"/><path fill="#cd3327" d="M7.032 1.373a4.762 4.762 0 0 1-.02 1.27.67.67 0 0 1-.379.438s.427.157.606-.146-.207-1.562-.207-1.562z" data-name="Path 4586"/><path fill="#fff7d0" d="M6.324 3.873a7.638 7.638 0 0 1-.7 0s-.192-.005-.736-.037a.764.764 0 0 0 .731.609.649.649 0 0 0 .425-.091.676.676 0 0 0 .28-.481z" data-name="Path 4587"/><path fill="#2b337c" d="M7.985.142c.023.18-.2.392-.6.358S6.836.274 6.951.114s1.011-.152 1.034.028z" data-name="Path 4588"/><path fill="#2b337c" d="M5.588.193c.061.175-.1.445-.481.514S4.542.622 4.615.432s.912-.414.973-.239z" data-name="Path 4589"/><path fill="#cd3327" d="M1.177 2.401a1.011 1.011 0 0 1-.324-.615.716.716 0 0 1 .137-.544s-.351.062-.408.605.595.554.595.554z" data-name="Path 4590"/><ellipse cx=".406" cy=".29" fill="#2b337c" data-name="Ellipse 182" rx=".406" ry=".29" transform="rotate(-84.6 3.338 -1.679)"/><ellipse cx=".29" cy=".406" fill="#2b337c" data-name="Ellipse 183" rx=".29" ry=".406" transform="rotate(-2.263 25.837 -183.654)"/></g></g><g data-name="Group 1898"><path fill="#022f43" d="M5.078 7.527s3.7-.427 4.926-3.167c.365-.365.6.574.6.574s.235-1.983-.626-2.557c-.835.6-4.9 5.15-4.9 5.15z" data-name="Path 4591" opacity=".18"/><path fill="#2b337c" d="M3.546 11.601l.568-2.176S2.556 7.965 2.99 6.636s2.056-.34 2.088.89a6.8 6.8 0 0 0 2.5-1.148 7.2 7.2 0 0 0 2.649-4.164A6.194 6.194 0 0 0 8.061.564C5.743-.481 2.682-.042 1.184 1.612-.839 3.844-.403 8.71 3.546 11.601z" data-name="Path 4592"/><path fill="#3d4c9d" d="M3.964 3.68c1.042.8 2.087.574 2.339 1.246.147.392-.137.663 0 .783.425.377 3.911-1.706 3.543-3.43-.153-.718-.927-1.144-1.505-1.462A4.993 4.993 0 0 0 5.389.261a2.25 2.25 0 0 1-.873 1.321c-.663.43-1.32.186-1.491.533-.188.376.358 1.118.939 1.565z" data-name="Path 4593" opacity=".76"/></g></g><g data-name="Group 1905"><g data-name="Group 1900"><path fill="#f15f5c" d="M21.119 67.613s-2.058 3.148 3.692 2.421a9.212 9.212 0 0 0 3.935-.968l-1.574-1.876z" data-name="Path 4594"/><path fill="#a59589" d="M26.87 59.38a27.506 27.506 0 0 0-5.993 7.99 2.3 2.3 0 0 0 .969.666 4.4 4.4 0 0 0 2.605-.244c-.013-.012 1.283-1.44 1.453-1.634.722-.829 1.354-2.609.966-6.778z" data-name="Path 4595"/></g><g data-name="Group 1903"><path fill="#dec8b7" d="M34.709 76.965a38.9 38.9 0 0 1-1.68-11.8 35.275 35.275 0 0 0-2.089-4.01c-.075-.108-.844-1.253-.923-1.307a2.32 2.32 0 0 1-2.461-1.312 17.438 17.438 0 0 0-1.9 2.785 11.243 11.243 0 0 0-.787 1.695 10.566 10.566 0 0 0-.545 2.361 45.422 45.422 0 0 0-.121 10.593 38.158 38.158 0 0 0 1.453 6.416 32.965 32.965 0 0 0 9.05-5.418z" data-name="Path 4596"/><path fill="#a59589" d="M25.175 80.778l7.2-3.178 1.741-2.509-1.064-5.643c-2.358-4.037-4.152-6.587-4.8-6.31-.609.26-.038 2.93.052 3.34.935 4.232 3.3 5.408 2.818 7.827a6.95 6.95 0 0 1-1.617 2.609 16.238 16.238 0 0 1-4.33 3.864z" data-name="Path 4597" opacity=".5"/><g data-name="Group 1902"><g fill="#faac47" data-name="Group 1901"><path d="M30.851 62.939a1.125 1.125 0 0 0 .845-.353c1.323 1.585 4.095 5.716 4.095 5.716a8.98 8.98 0 0 1-.1 2.938 11.828 11.828 0 0 1-2.635-1.8c-.555-.96-2.205-6.501-2.205-6.501z" data-name="Path 4598"/><path d="M30.851 62.943l-.708-.786-.023-1.858 1.48.94a3.632 3.632 0 0 1 .126.982 2.85 2.85 0 0 1-.03.369 1.125 1.125 0 0 1-.845.353z" data-name="Path 4599"/></g><path fill="#ebded3" d="M30.201 60.347l.5 1.313-3.228-1.17a5.895 5.895 0 0 1 .121-1.937l2.154 1.329.191-.6.682.3.363.646.424 1.049z" data-name="Path 4600"/><path fill="#f3ece9" d="M30.018 60.008l.416 1.086-2.671-.968a5.089 5.089 0 0 0-.205-1.6l2.234 1.168.209-.548.366.226.3.534.35.868z" data-name="Path 4601"/></g></g><g data-name="Group 1904"><path fill="#f15f5c" d="M44.552 71.584a3.022 3.022 0 0 0-.446-.719 1.532 1.532 0 0 0-.464-.444 2.013 2.013 0 0 0-1.106-.1 5.939 5.939 0 0 0-.651.083 39.038 39.038 0 0 0-2.724-.575c-.995-.173-1.939-.3-2.823-.383a1.55 1.55 0 0 0-.258-.049 1.662 1.662 0 0 0-.349.009c-.322.045-2.927 1.016-2.758 1.826.082.393.776.54 1.718.74a9.461 9.461 0 0 0 3.786-.032l.615-.122q1.22-.235 2.4-.419a2.434 2.434 0 0 0 .809.358 2.5 2.5 0 0 0 1.423-.09 1.764 1.764 0 0 0 1.03.608h.007a3.005 3.005 0 0 0-.209-.691z" data-name="Path 4602"/><path fill="#ffda93" d="M44.551 71.583a2.871 2.871 0 0 0-.446-.719 1.525 1.525 0 0 0-.464-.444 2.015 2.015 0 0 0-1.107-.1 5.856 5.856 0 0 0-.651.084 37.802 37.802 0 0 0-2.724-.575c-.995-.172-1.939-.3-2.823-.383a1.571 1.571 0 0 0-.258-.049c-.119 0-.28 0-.349.009a.929.929 0 0 0-.35.109 4.717 4.717 0 0 0 2.89 1.083c.422 0 .7-.075 1.389-.1a8.874 8.874 0 0 1 2.172.2 2.038 2.038 0 0 1 2.022.189 2.5 2.5 0 0 0 .228.593c.231.427.618.836.673.8a4.656 4.656 0 0 0-.2-.694z" data-name="Path 4603" opacity=".29"/><path fill="#ebded3" d="M30.481 61.938a4.646 4.646 0 0 1 1.659 1.906c.418 1.115 2.445 3.787 2.747 4.459a3.947 3.947 0 0 0 .547.943 3.969 3.969 0 0 1-1.2 2.323c-1.007.812-1.322.755-1.322.755s-3.933-5.923-4.6-7.31.543-3.709 2.169-3.076z" data-name="Path 4604"/><path fill="#f3ece9" d="M30.606 61.872a3.61 3.61 0 0 1 1.289 1.481c.325.867 1.9 2.942 2.134 3.464a3.077 3.077 0 0 0 .425.733 3.081 3.081 0 0 1-.929 1.8c-.782.631-1.027.587-1.027.587s-3.055-4.6-3.57-5.679.414-2.874 1.678-2.386z" data-name="Path 4605"/></g></g><g data-name="Group 1909"><path fill="#831939" d="M34.118 75.092l13.454 3.78L59.46 98.737q.167.295.082.429-.192.3-1.666-.212l-10.889-9.65-2.018-5.469-15.19-2.218z" data-name="Path 4606"/><g data-name="Group 1906"><path fill="#5a2c84" d="M57.876 98.954q1.5.511 1.682.212.082-.133-.1-.428l3.426 1.443a1.958 1.958 0 0 1-.666.666 2.226 2.226 0 0 1-1.332.242c-.934-.06-2.036-.132-3.3-.242l-.273-.908z" data-name="Path 4607"/><path fill="#742051" d="M62.887 100.18l.158.556s.078.744-.509.978a5.774 5.774 0 0 1-1.957.078l-3.483-.313-1.1-.548 1.566-.744z" data-name="Path 4608" opacity=".35"/></g><g data-name="Group 1907"><path fill="#5a2c84" d="M49.396 99.665l-.372.877 1.725 2.512 2.391 1.513 1.362-.182-3-4.721c.142.458.078.652-.015.741-.34.33-1.502-.36-2.091-.74z" data-name="Path 4609"/><path fill="#742051" d="M54.502 104.386l-.616.418-2.9.039-4.461-.548.118-.783 3.483-.2z" data-name="Path 4610" opacity=".35"/></g><g data-name="Group 1908"><path fill="#a12545" d="M25.175 80.778l1.857 5.478a6.784 6.784 0 0 0 1.294.6c2.205.757 4.333.158 10.409-2.421 1.1-.466 2.514-1.077 4.164-1.816a45.34 45.34 0 0 0 2.363 8.838 43.907 43.907 0 0 0 4.135 8.2q1.809 1.228 2.17.893.206-.191-.061-.893c-1.812-10.305-3.44-17.83-3.938-19.764a5.1 5.1 0 0 0-1.463-2.482 4.476 4.476 0 0 0-1.688-.969l-12.04 1.15z" data-name="Path 4611"/><path fill="#f8963e" d="M25.175 80.778l19.242-4.328-12.041 1.15z" data-name="Path 4612" opacity=".35"/><path fill="#022f43" d="M42.898 82.624l-7.992 3.395 1.761-2.27 6.692-1.8s.313-.235.626 1.644 5.411 16.072 5.411 16.072-4.376-4.938-6.498-17.041z" data-name="Path 4613" opacity=".18"/></g></g></g><g data-name="Group 1913"><path fill="url(#c)" d="M0 0h.832v16.828H0z" data-name="Rectangle 319" transform="rotate(-11.48 361.42 -73.801)"/><path fill="url(#a)" d="M0 0h18.069v1.816H0z" data-name="Rectangle 320" transform="translate(24.993 86.045)"/><g fill="url(#a)" data-name="Group 1911" transform="translate(22.846 87.655)"><path d="M2.999 0l1.015.058L.662 16.189s-.151.41-.458.389c0 0-.32.059-.157-.479z" data-name="Path 4614"/><path d="M4.014.058L.662 16.189s-.15.41-.458.389c0 0-.262.047-.189-.345a.311.311 0 0 0 .076.131c.132.114.292.013.4-.179L3.572.033z" data-name="Path 4615" style="mix-blend-mode:multiply;isolation:isolate"/></g><g fill="url(#a)" data-name="Group 1912" transform="translate(41.215 87.795)"><path d="M1.015 0L0 .058l3.352 16.131s.15.41.458.389c0 0 .32.059.157-.479z" data-name="Path 4616"/><path d="M0 .058l3.352 16.131s.15.41.458.389c0 0 .262.047.189-.345a.31.31 0 0 1-.076.131c-.132.114-.292.013-.4-.179L.441.032z" data-name="Path 4617" style="mix-blend-mode:multiply;isolation:isolate"/></g></g></g><g data-name="Group 1942"><g data-name="Group 1918"><path fill="#831939" fill-rule="evenodd" d="M121.311 83.381a23.477 23.477 0 0 0-1.324-7.269s1.036-10.385-.955-15.665l-.044-.116a14.93 14.93 0 0 1-10.133-.365c-1.486 3.955-2.182 18.048-2.183 18.755.535 5.9 1.463 11.789 2 17.691.02.219-.24.372-.393.53a.761.761 0 0 0-.166.242.617.617 0 0 0-.056.252c.04.363 1.412.522 2 .323a.672.672 0 0 0 .374-.262.582.582 0 0 0 .083-.252.9.9 0 0 0-.2-.635 49.85 49.85 0 0 0 1.483-17.554l1.876-10.865c.35 2.09.884 5.269 1.544 9.171.89 5.259 1.087 6.379 1.18 6.9a323.8 323.8 0 0 0 2.382 12.053 4.475 4.475 0 0 0-.1.621c-.093.993.143 1.827.527 1.863s.77-.74.863-1.733a4.233 4.233 0 0 0 0-.849 84.161 84.161 0 0 0 1.242-12.836z" data-name="Path 4618"/><path fill="#022f43" d="M107.883 64.554a17.844 17.844 0 0 1 6.154-.633l.3-.065.274.117a6.845 6.845 0 0 1 1.3.757c4.233 3.133 3.449 10.283 3.288 11.584l.574 19.776s-.759.522-1.006.222c.354.247.6.208 1.286-.1.059-.411 2.8-13.5-.069-20.1a82.56 82.56 0 0 0-.211-12.66c-4.8-2.191-5.374-2.4-5.374-2.4h-.575l-5.407.411q-.265 1.545-.534 3.091z" data-name="Path 4619" opacity=".18"/><g data-name="Group 1915"><path fill="#742051" d="M117.902 99.21l.909 1.367.469.026.991-.652.172-1.316z" data-name="Path 4620" opacity=".35"/><path fill="#212330" d="M118.771 96.312s.354.507 1.286-.1a8.055 8.055 0 0 1 .388 2.421l-.242.484-.969.817-1.332-.727z" data-name="Path 4621"/><path fill="#aaa9a5" d="M118.771 96.312a.691.691 0 0 0 .293.178.745.745 0 0 0 .569-.074l.47 2.074-.4.626-.465.82-1.332-.727z" data-name="Path 4622" opacity=".16"/></g><g data-name="Group 1917"><path fill="#742051" d="M104.706 98.727l1.347.912h4.364l.221-.973z" data-name="Path 4623" opacity=".35"/><g data-name="Group 1916"><path fill="#212330" d="M108.811 96.411l1.618.2.21 2.058-.3.363h-4.075l-1.558-.3.12-.787z" data-name="Path 4624"/><path fill="#aaa9a5" d="M108.81 96.411l1.618.2-.461.37-.522.365-3.94.7-.679-.108z" data-name="Path 4625" opacity=".16"/></g></g></g><g data-name="Group 1921"><path fill="#f49092" d="M113.369 31.317c-2.094.371-3.136 2.481-3.4 3.012a7.179 7.179 0 0 0-.617 3.774c.067 1.417.141 2.949 1.24 3.768a4.226 4.226 0 0 0 2.33.718l.734-.042.085 1.1s.789 1.483 1.545 1.1a2.6 2.6 0 0 0 1.313-1.776l-.148-1.925a7.492 7.492 0 0 0 1.051-2.288c.672-2.536.157-6.181-2.068-7.224a3.439 3.439 0 0 0-2.065-.217z" data-name="Path 4626"/><g data-name="Group 1919" transform="translate(109.309 32.072)"><path fill="#fff" d="M4.376 10.479a4.156 4.156 0 0 1-2.8-.479 2.831 2.831 0 0 1-.538-.4c-.8-.768-.877-1.808-.995-3.343A8.468 8.468 0 0 1 .065 4.33a7.307 7.307 0 0 1 .376-1.539 6.752 6.752 0 0 1 .333-.753 10.511 10.511 0 0 0-.528 2.818c-.072 1.492-.15 3.119.92 4.315a4.5 4.5 0 0 0 3.21 1.308z" data-name="Path 4627" opacity=".33"/><path fill="#fff7d0" d="M3.931 8.052c.072.213-.552.805-1.185.733-.484-.055-.916-.492-.851-.666.029-.076.15-.1.486-.116 1.001-.063 1.502-.094 1.55.049z" data-name="Path 4628"/><path fill="#d75341" d="M2.456 5.004l.065 1.221s-.474-.014-.48.322.162.419.162.419-.519-.034-.475-.495a.627.627 0 0 1 .507-.542z" data-name="Path 4629"/><path fill="#d75341" d="M7.318 6.47a.565.565 0 0 1 .129.445.424.424 0 0 1-.281.305s.4.17.526-.21-.374-.54-.374-.54z" data-name="Path 4630"/><path fill="#2b337c" d="M5.301 3.794c-.134.145-.475.117-.742-.227s-.216-.6 0-.619.876.701.742.846z" data-name="Path 4631"/><path fill="#2b337c" d="M1.621 2.578c.13.148.066.485-.3.714s-.618.152-.615-.068.786-.794.915-.646z" data-name="Path 4632"/><ellipse cx=".497" cy=".281" fill="#2b337c" data-name="Ellipse 184" rx=".497" ry=".281" transform="rotate(-82.763 3.567 2.14)"/><ellipse cx=".281" cy=".497" fill="#2b337c" data-name="Ellipse 185" rx=".281" ry=".497" transform="rotate(-3.62 71.953 -62.501)"/><path fill="#022f43" d="M7.149 8.874l.152 1.97-2.024 1.133-.992-1.461v-.114a1.634 1.634 0 0 0 .909.479 1.679 1.679 0 0 0 .822-.088 1.512 1.512 0 0 0 .919-.89 2.44 2.44 0 0 0 .214-1.029z" data-name="Path 4633" opacity=".18"/><path fill="#022f43" d="M.35 2.994a1.432 1.432 0 0 0 .277-.032c.518-.112 1.69-.864 2.32-.855 1.25.018 1.769.545 2.726.281a2.347 2.347 0 0 0 .411-.156 7.383 7.383 0 0 1 .274.8 7.733 7.733 0 0 1 .235 1.252c.134 1.192.05 1.992.1 2a10.984 10.984 0 0 0 .254-1.6 6.8 6.8 0 0 1 .5-2.49 3.4 3.4 0 0 1 .688-.885L3.051.009A5.726 5.726 0 0 0 .35 2.994z" data-name="Path 4634" opacity=".18"/></g><g data-name="Group 1920"><path fill="#242662" d="M117.335 39.229c.535-1.314-.413-1.575-.953-1.358a.878.878 0 0 0-.41.557c.124-.958.264-3.477-.5-4.392l1.97-.661s2.234 3.062-.986 7.683c0 0 .212-.518.378-1.094a2 2 0 0 0 .501-.735z" data-name="Path 4635"/><path fill="#2b337c" d="M118.133 33.225c.08-.052.224.015.326.074a19.476 19.476 0 0 0-4.246-2.988 3.113 3.113 0 0 0-2.612-.479 1.994 1.994 0 0 0-.8.653 3.536 3.536 0 0 1 .385-.51 3.53 3.53 0 0 1 .244-.245 1.938 1.938 0 0 0-.613.448 1.808 1.808 0 0 0-.294.435 4.224 4.224 0 0 0-.779 1.637c-.093.411-.324 1.434.2 1.835a.647.647 0 0 0 .063.042 4.737 4.737 0 0 1 1.862-.6 9.651 9.651 0 0 1 3.041.5c2.736.6 3.178.425 3.3.227.191-.307-.267-.906-.077-1.029z" data-name="Path 4636"/><path fill="#4f5998" d="M111.762 33.187a2.2 2.2 0 0 1 .161-1.282 2.259 2.259 0 0 1 1.218-1.135 2.06 2.06 0 0 0-.484.284 2.775 2.775 0 0 0-.895 2.133z" data-name="Path 4637"/><path fill="#4f5998" d="M112.471 33.114a2.822 2.822 0 0 1 3.156-1.365 3.26 3.26 0 0 0-3.156 1.365z" data-name="Path 4638"/><path fill="#4f5998" d="M113.308 33.163s1.517-1.8 4.14-.269a4.029 4.029 0 0 0-4.14.269z" data-name="Path 4639"/><path fill="#4f5998" d="M111.092 33.3a2.706 2.706 0 0 1 .366-2.437 2.339 2.339 0 0 1 1.117-.733 1.908 1.908 0 0 0-.993.418 2.489 2.489 0 0 0-.49 2.752z" data-name="Path 4640"/></g></g><g data-name="Group 1941"><g data-name="Group 1924"><path fill="#cecfd8" d="M118.143 43.188a12.76 12.76 0 0 1-3.3.484 31.289 31.289 0 0 1-3.223-.2l1.207 16.236a5.169 5.169 0 0 0 2.13.4 6.192 6.192 0 0 0 2.649-.7z" data-name="Path 4641"/><g data-name="Group 1923"><g fill="#763a95" data-name="Group 1922"><path d="M115.258 46.602a1.28 1.28 0 0 1-.962.066c-.511 1.948-1.206 6.726-1.206 6.726a8.408 8.408 0 0 0 1.463 2.491 11.373 11.373 0 0 0 1.652-2.7 64.778 64.778 0 0 0-.947-6.583z" data-name="Path 4642"/><path d="M115.477 46.607l.437-1-1.109-1.6-1.345 1.486a2.669 2.669 0 0 0 .438.9 2.58 2.58 0 0 0 .265.3 2.339 2.339 0 0 0 1.314-.086z" data-name="Path 4643"/></g><path fill="#022f43" d="M113.792 45.593l.9-1.4 1.161 1.635-.391.766a1.016 1.016 0 0 0 .1-.7 1.128 1.128 0 0 0-1.037-.783z" data-name="Path 4644" opacity=".18"/><path fill="#022f43" d="M114.271 46.701a.888.888 0 0 0 .271.1 1 1 0 0 0 .721-.165q.275 1.544.515 3.183.264 1.809.45 3.522l-1.644 2.5 1.187-3.887-.783-4.618z" data-name="Path 4645" opacity=".18"/></g><path fill="#fff" d="M114.683 44.21l1.145 1.57 2.148-2.521a2.342 2.342 0 0 1-1.418-.921l-1.8 1.337-1.1-1.132a4.723 4.723 0 0 1-1.564.9l1.418 2.55z" data-name="Path 4646"/></g><g data-name="Group 1940"><g data-name="Group 1925"><path fill="#a12545" d="M120.317 55.658a27.446 27.446 0 0 0-.115 7.778l-5.766-.242-.106-6.3a46.6 46.6 0 0 0 2.9-11.774q.117-1.063.182-2.088c.272-.252 4.8 1.495 5.813 1.9a4.47 4.47 0 0 1 .216 1.681 27.5 27.5 0 0 0-3.124 9.045z" data-name="Path 4647"/></g><g data-name="Group 1926"><path fill="#a12545" d="M107.515 47.392a4 4 0 0 0 .028 1.574c.063.219.144.394.355 1.017 0 0 .115.339.24.737.8 2.549.513 7.068.513 7.068a20.726 20.726 0 0 1-.165 1.876 20.979 20.979 0 0 1-.692 3.223l6.3.424q.151-3.359.3-6.719a30.428 30.428 0 0 1-1.82-12.332l.654-1.277c-5.08.28-6.3 1.047-6.429 1.723-.126.66.788 1.221.716 2.686z" data-name="Path 4648"/></g><path fill="#022f43" d="M112.94 58.269l.862 1.882s.691.639.965.6.392-.326.457-.2a1.424 1.424 0 0 0 .744.365 2.292 2.292 0 0 0 1.4-.3l.47-.039c.493-.375.8-.35.953-.308.466.13.691.8 1.122 2.147.131.41.229.759.295 1.015a28.164 28.164 0 0 1 .312-8.979 3.5 3.5 0 0 1-.841 1.781 5.106 5.106 0 0 1-1.1.822c-.723.465-1.085.7-1.507.685a8.4 8.4 0 0 1-1.135-.313 2.149 2.149 0 0 0-2.997.842z" data-name="Path 4649" opacity=".12"/><g data-name="Group 1929"><g data-name="Group 1927"><path fill="#e47077" d="M97.094 57.473l-2-.454-1.09-.363s-.136.59.726 1.089a11.594 11.594 0 0 1-2.633.045 2.586 2.586 0 0 0 1.635 1.589c1.271-.136 3.368.019 3.977-.9s-.615-1.006-.615-1.006z" data-name="Path 4650"/><path fill="#022f43" d="M93.735 59.38l1.3-.481.861-1.7-1.7-.313-1.39 2.015z" data-name="Path 4651" opacity=".18"/></g><g data-name="Group 1928"><path fill="#a12545" d="M107.168 44.206c-.216-.011-.389.368-.631.918a59.164 59.164 0 0 0-2.679 7.082l-.063.216c-.449.213-.67.829-1.664 1.68-1.713 1.467-3.177 1.424-3.767 2.388l-1.36.637a2.106 2.106 0 0 0 .707 1.762l1.2-.473a8.683 8.683 0 0 0 3.6-.646c1.328-.479 2.917-1.054 3.579-2.006 1.608-1.344 2.218-4.048 2.307-4.467-.197-3.254-.556-7.057-1.229-7.091z" data-name="Path 4652"/><path fill="#022f43" d="M108.245 48.11a29.575 29.575 0 0 1-.939 4.722c-.432 1.267-.962 2.279-1.3 2.218-.428-.076-.171-1.764-1.174-2.4a1.706 1.706 0 0 0-1.032-.227c-.449.213-.67.829-1.664 1.68-1.713 1.467-3.177 1.424-3.767 2.388l-1.36.636a2.107 2.107 0 0 0 .707 1.763l1.2-.473a8.682 8.682 0 0 0 3.6-.645c1.328-.48 2.917-1.055 3.579-2.006a9 9 0 0 0 1.723-2.58 8.318 8.318 0 0 0 .584-1.887 5.714 5.714 0 0 0-.157-3.189z" data-name="Path 4653" opacity=".08"/></g></g><g fill="#b74264" data-name="Group 1930"><path d="M117.411 43.036s1.62 4.912 1.478 5.765a4.271 4.271 0 0 1-1.6 1.252l.039 1.1-2.909 5.57c.45-1.21.879-2.506 1.268-3.886a50.168 50.168 0 0 0 1.724-9.801z" data-name="Path 4654"/><path d="M113.215 42.997a11.494 11.494 0 0 0-2.834 5.651 4.273 4.273 0 0 0 1.445 1.433l-.168 1.083 2.751 5.5a29.434 29.434 0 0 1-1.135-3.777 29.806 29.806 0 0 1-.672-8.668z" data-name="Path 4655"/></g><path fill="#022f43" d="M123.226 44.938l-1.023 2.807s1.246-1.9 1.461-1.7a26.448 26.448 0 0 1 1.057 3.209l-.851-3.3s-.268-1-.584-.945a.434.434 0 0 1-.06-.071z" data-name="Path 4656" opacity=".07"/><g data-name="Group 1938"><g data-name="Group 1933"><g data-name="Group 1931"><path fill="#f49092" d="M117.289 58.983a3 3 0 0 1-.717-.329 15.4 15.4 0 0 0-1.932-1.4 7.476 7.476 0 0 0-1.7 1.017 2.419 2.419 0 0 0 .456.741c.115.113.557.77.67.9a2.846 2.846 0 0 0 .707.452c.14.053.356-.053.327-.2s-.06-.274-.06-.274a2.466 2.466 0 0 0 1.168.387 10.448 10.448 0 0 0 1.426-.482z" data-name="Path 4657"/></g><g data-name="Group 1932"><path fill="#022f43" d="M114.967 59.927c-1.441-1.417-1.91-1.724-2.006-1.644-.163.137.829 1.335 1.155 1.7a1.078 1.078 0 0 0 .678.395c.063 0 .223 0 .283-.1a.185.185 0 0 0 .023-.109l-.03-.137-.03-.137a2.465 2.465 0 0 0 1.168.387 10.426 10.426 0 0 0 1.426-.482 1.85 1.85 0 0 1-1.376.07 1.857 1.857 0 0 0-.851-.225.5.5 0 0 0-.391.166.322.322 0 0 0-.049.116z" data-name="Path 4658" opacity=".07"/></g></g><g data-name="Group 1937"><g data-name="Group 1934"><path fill="#a12545" d="M123.285 45.01a.228.228 0 0 1 .1.02c.343.14.623 1.159 2.143 7.622.529 2.251.836 3.567.1 4.236a1.7 1.7 0 0 1-1.246.358c-1.465-.147-2.739-2.279-3.269-5.266.477-2.972 1.274-6.998 2.172-6.97z" data-name="Path 4659"/></g><g data-name="Group 1935"><path fill="#a12545" d="M120.386 56.338c-1.992 1.072-2.425 1.468-2.542 2.043a1.441 1.441 0 0 0 .192 1.109c.88 1.152 4.017-.089 4.285-.2 1.7-.69 3.982-2.231 3.695-3.272-.2-.739-1.643-1.023-2.542-1-.664.021-1.482.454-3.088 1.32z" data-name="Path 4660"/></g><path fill="#a12545" d="M118.131 58.119l-1.652.384.516 1.937 1.669-.5a2.106 2.106 0 0 0-.533-1.821z" data-name="Path 4661"/><path fill="#f8963e" d="M117.663 43.023c.249.06.616.152 1.057.281.745.218 1.265.412 2.25.783 1.036.39 1.82.687 2.256.852l.02.073a.278.278 0 0 1 .105.007.292.292 0 0 1 .1.062.621.621 0 0 1 .182.288c.882 2.924 1.3 4.941 1.3 4.941.27 1.294.522 1.895.751 2.893a14.326 14.326 0 0 1 .267 1.49 4.027 4.027 0 0 1 .006 1.794 2.554 2.554 0 0 1-1.1 1.331l.757-1.461q-1.4-5.323-2.792-10.645a28.11 28.11 0 0 0-1.246-.8 24.64 24.64 0 0 0-3.913-1.889z" data-name="Path 4662" opacity=".35"/><g fill="#022f43" data-name="Group 1936"><path d="M124.343 55.155a5.7 5.7 0 0 1-2.3-2.687 5.922 5.922 0 0 1 .235-4.722 9.724 9.724 0 0 0-1.093 4.235 13.763 13.763 0 0 0 1.119 3.383l-.86.436a10.056 10.056 0 0 0-1.263.591 10.163 10.163 0 0 0-2.208 1.66 4.978 4.978 0 0 1 .45 1.056v.008a.44.44 0 0 1 .076-.4c.163-.147.446.06.776.065.82.013 1.281-1.233 2.035-2.087a4.724 4.724 0 0 1 2.083-1.325z" data-name="Path 4663" opacity=".07"/><path d="M118.43 59.114a2.607 2.607 0 0 0 .154.521 5.26 5.26 0 0 0-.154-.521z" data-name="Path 4664" opacity=".07"/></g></g></g><g fill="#831939" data-name="Group 1939"><path d="M121.221 49.951l-3.078.109-.014.806 1.61.578 1.256-.807z" data-name="Path 4665"/><path d="M108.487 50.171l2.727-.175.127.794-1.335.718-1.222-.681z" data-name="Path 4666"/></g></g></g></g><g data-name="Group 1959"><g data-name="Group 1944"><path fill="#5a2c84" d="M78.163 63.189a46.264 46.264 0 0 0 1.316 18.75 40.683 40.683 0 0 0-.59 7.582c.043 2.57.528 4.8 1.5 9.261.119.549.372 1.675.726 1.68s.643-1.112.772-1.68l2.452-16.979-.333-10.8 2.694 9.715a40.89 40.89 0 0 0 .318 17.932 3.624 3.624 0 0 0 2.224.318c.18-.035.889-.176.908-.454.014-.2-.325-.427-.817-.575l2.5-17.584a79.733 79.733 0 0 0-2.678-17.3z" data-name="Path 4667"/><g data-name="Group 1943"><path fill="#742051" d="M80.412 98.51a.929.929 0 0 0 .42.255 1.143 1.143 0 0 0 1.133-.438q.423 1.755.844 3.511l-.347.694-1.388 1.171-1.908-1.04z" data-name="Path 4668" opacity=".35"/><path fill="#212330" d="M80.385 98.729s.4.573 1.453-.111a9.067 9.067 0 0 1 .438 2.736l-.274.547-1.094.924-1.5-.821z" data-name="Path 4669"/><path fill="#742051" d="M88.364 98.17l-1.408.235-.463 2.074.307.373h4.173l1.854-.7-.381-.412z" data-name="Path 4670" opacity=".35"/></g><path fill="#212330" d="M88.737 97.817l-1.618.2-.21 2.058.3.363h4.075l1.558-.3-.119-.787z" data-name="Path 4671"/><path fill="#022f43" d="M91.828 80.354l-2.5 17.585-2.376.467c.218-.12.5-.284.835-.489l.277-.176s.285-.184.558-.373c1.082-.748 1.148-8.714 1.148-8.714a19.249 19.249 0 0 1 2.058-8.3z" data-name="Path 4672" opacity=".39"/><path fill="#022f43" d="M89.149 63.057c-1.494.149-3.09.257-4.777.3-3.73.1-6.1-.375-6.144-.117-.043.237 1.888 1 4.148 1.291 3.213.413 4.174-.505 5.518.313 1.131.689 1.484 2.247 2.191 5.362a49.055 49.055 0 0 1 .965 6.836c.186 2.37.185 4.4.417 4.409.129.006.264-.584.359-1.1-.053-1.06-.138-2.4-.281-3.937a89.46 89.46 0 0 0-.548-4.67 72.479 72.479 0 0 0-1.848-8.687z" data-name="Path 4673" opacity=".39"/><path fill="#9fa1cf" d="M84.004 71.002l.333 10.805-2.5 16.813s-1.135.587-1.453.111c1.2-.11 1.247-1 1.247-1l1.618-15.863.548-11.6.092-.248.43 1.514v.561z" data-name="Path 4674" opacity=".3"/></g><g data-name="Group 1949"><path fill="#f37475" d="M86.022 40.532a15.24 15.24 0 0 0-.129-4.933c-.1-.643-.2-1.06-.2-1.06a4.47 4.47 0 0 0-4.674-1.851c-2.144.644-3.59 3.514-2.466 6.3a1.03 1.03 0 0 0-1.128-.72c-.409.122-.544.656-.552.961-.021.81.811 1.653 1.442 1.512a.953.953 0 0 0 .565-.476 3.486 3.486 0 0 0 .4 1.423 3.655 3.655 0 0 0 1.847 1.628 1.949 1.949 0 0 1-.02 1.359 1.785 1.785 0 0 1-.329.516l3.915-.4a1.508 1.508 0 0 1-.626-1.662 3.681 3.681 0 0 0 1.955-2.597z" data-name="Path 4675"/><g data-name="Group 1946" transform="translate(77.365 34.007)"><path fill="#ffda93" d="M8.657 6.525a15.246 15.246 0 0 0-.129-4.932c-.1-.643.086 4.549-.366 5.453a4.41 4.41 0 0 1-.822 1.252 3.11 3.11 0 0 0-.861.822 1.029 1.029 0 0 0-.2.743.976.976 0 0 0 .781.7c.028-.032-.18-.166-.3-.467a1.531 1.531 0 0 1-.059-.973 3.68 3.68 0 0 0 1.956-2.598z" data-name="Path 4676" opacity=".28"/><path fill="#cd3327" d="M5.687 4.389l.155 1.434s.549-.106.62.283-.109.518-.109.518.6-.137.459-.666a.738.738 0 0 0-.692-.535z" data-name="Path 4677"/><path fill="#cd3327" d="M.543 4.932a.865.865 0 0 0-.134.7.649.649 0 0 0 .472.426.58.58 0 0 1-.831-.246c-.247-.565.493-.88.493-.88z" data-name="Path 4678"/><g stroke="#080708" stroke-miterlimit="10" stroke-width=".3" data-name="Group 1945" transform="translate(2.496 2.968)"><path fill="none" d="M.007 2.039a1.35 1.35 0 1 0 1.2-1.614 1.428 1.428 0 0 0-1.2 1.614z" data-name="Path 4679"/><ellipse cx="1.105" cy="1.342" fill="none" data-name="Ellipse 186" rx="1.105" ry="1.342" transform="rotate(-5.1 3.931 -38.511)"/><path fill="#fdf7fa" d="M3.628 1.929a.987.987 0 0 0-.92.18" data-name="Path 4680"/></g><ellipse cx=".214" cy=".379" fill="#2b337c" data-name="Ellipse 187" rx=".214" ry=".379" transform="rotate(-9.998 24.454 -39.476)"/><path fill="#022f43" d="M1.196 3.25l.424-.7 2.4-2.552 5.4 2.076a2.753 2.753 0 0 1-.981.89 3.273 3.273 0 0 1-2.835-.082A3.815 3.815 0 0 1 3.83 1.108a2.176 2.176 0 0 1-.359 1.177 2.636 2.636 0 0 1-2.275.965z" data-name="Path 4681" opacity=".18"/><ellipse cx=".225" cy=".399" fill="#2b337c" data-name="Ellipse 188" rx=".225" ry=".399" transform="rotate(-1.583 149.314 -156.706)"/><path fill="#fff7d0" d="M6.541 7.586s-.142.578-.546.653-.763-.348-.816-.7z" data-name="Path 4682"/><path fill="#2b337c" d="M3.494 3.261c.154.138.508.076.753-.308s.169-.646-.062-.646-.844.814-.691.954z" data-name="Path 4683"/><path fill="#2b337c" d="M7.03 2.149c-.1.181.038.512.468.667s.667.021.616-.2-.983-.648-1.084-.467z" data-name="Path 4684"/><path fill="#cd3327" d="M3.778 9.315a1.621 1.621 0 0 1 .093.435 1.573 1.573 0 0 1-.015.367l2.429.974.365-1.547.024-.313a1.373 1.373 0 0 1-.623.786 1.417 1.417 0 0 1-.813.148 1.8 1.8 0 0 1-.644-.177 2.054 2.054 0 0 1-.507-.327 1.972 1.972 0 0 1-.309-.346z" data-name="Path 4685" opacity=".56"/></g><g data-name="Group 1948"><path fill="#2a3a7d" d="M87.327 34.259a3.753 3.753 0 0 0-.516 1.565 11.657 11.657 0 0 0 .077 1.422 3.776 3.776 0 0 1-.715 2.11 13.761 13.761 0 0 0-.457-3.864z" data-name="Path 4686" opacity=".81"/><path fill="#1d2356" d="M86.503 32.722c-2.173-1-2.473-2.087-3.745-2.14a3.037 3.037 0 0 0-2.085.841 2.7 2.7 0 0 0-2.772.338 6.782 6.782 0 0 1 1.5-.372 3.787 3.787 0 0 1 1.035.043 2.011 2.011 0 0 0-.209-.005 2.4 2.4 0 0 0-.276.026 3.212 3.212 0 0 0-.75.212 4.312 4.312 0 0 0-2.27 3.236c-.054.881.3 1.158 1.181 3.409.415 1.064.7 1.949.879 2.516a16.381 16.381 0 0 0-.425-2.783.989.989 0 0 1 .046-.839c.2-.253.594-.2.816-.231.494-.059 1.139-.6 1.788-2.757a13.793 13.793 0 0 0 1.3 2.108 11.935 11.935 0 0 1-1.221-2.208l.089-.108a5.223 5.223 0 0 0 1.35 1.771 4.139 4.139 0 0 0 1.532.671 3.522 3.522 0 0 0 1.8 0c1.347-.418 2.434-1.986 2.084-2.849-.176-.434-.581-.39-1.647-.879z" data-name="Path 4687"/><path fill="#2a3a7d" d="M86.017 32.481c-1.926-.883-2.187-1.837-3.318-1.9a2.764 2.764 0 0 0-1.908.753 3.073 3.073 0 0 0-1.248.207 3.358 3.358 0 0 0-2.011 2.867c-.048.781 1.307 2.266 1.488 2.041.2-.248.569-.114.724-.2 1.214-.709 1.313-2.72 1.585-2.68.027 0 .023.024.2.264.023.032.048.066.289.381a4.1 4.1 0 0 0 .864.975 3.669 3.669 0 0 0 1.358.6 3.122 3.122 0 0 0 1.593 0c1.194-.37 2.157-1.76 1.847-2.525-.159-.389-.517-.349-1.463-.783z" data-name="Path 4688" opacity=".81"/><g fill="#7b77b7" data-name="Group 1947"><path d="M85.031 35.043c.123-.006.245-.006.367-.006h.366c.061 0 .122.006.183.007h.184c.122 0 .244-.015.365-.026.242-.034.483-.066.719-.12a3.122 3.122 0 0 0 .35-.1 1.428 1.428 0 0 0 .168-.068.651.651 0 0 0 .153-.1.833.833 0 0 1-.308.2c-.057.026-.115.044-.174.065s-.119.033-.179.05a4.06 4.06 0 0 1-.732.089c-.123 0-.245.009-.367.013s-.245.02-.367.021a4.819 4.819 0 0 1-.734-.044z" data-name="Path 4689"/><path d="M81.241 32.688a8.418 8.418 0 0 0 .555.717l.147.173c.051.056.1.111.156.165a3.341 3.341 0 0 0 .347.292c.119.093.249.172.372.258l.195.115c.033.019.064.04.1.057l.1.052a6.281 6.281 0 0 0 .828.367v.006a3.605 3.605 0 0 1-.857-.314 4.2 4.2 0 0 1-.394-.234 4.453 4.453 0 0 1-.361-.281c-.117-.1-.226-.2-.339-.3-.054-.053-.111-.1-.167-.156l-.161-.162c-.052-.056-.1-.115-.149-.173s-.093-.121-.137-.183a2.884 2.884 0 0 1-.235-.391z" data-name="Path 4690"/><path d="M81.139 32.079q.686.215 1.368.439c.227.076.453.155.683.222s.461.127.695.18a7.578 7.578 0 0 0 1.411.211 1.6 1.6 0 0 0 .177 0l.178-.01c.06 0 .119-.007.178-.014s.119-.012.177-.021a2.415 2.415 0 0 0 .349-.07 1.288 1.288 0 0 0 .167-.06.372.372 0 0 0 .143-.1h.005a.375.375 0 0 1-.139.115 1.059 1.059 0 0 1-.167.072 2.226 2.226 0 0 1-.351.088 4.4 4.4 0 0 1-.719.065h-.182l-.18-.019-.09-.01-.089-.015-.178-.031c-.118-.021-.235-.049-.353-.075s-.232-.06-.348-.089l-.693-.193c-.115-.033-.23-.065-.346-.1l-.346-.1c-.458-.14-.911-.3-1.354-.483z" data-name="Path 4691"/><path d="M80.639 32.844q-.617.45-1.191.951a7.543 7.543 0 0 0-.556.52 4.362 4.362 0 0 0-.473.6 3.262 3.262 0 0 0-.346.671 5.713 5.713 0 0 0-.2.731 4.121 4.121 0 0 0-.077.753 2.823 2.823 0 0 0 .084.753h-.006a2.49 2.49 0 0 1-.127-.754 3.529 3.529 0 0 1 .063-.765 4.587 4.587 0 0 1 .207-.739c.024-.06.052-.118.077-.177l.04-.088c.014-.028.032-.056.048-.084l.1-.166c.035-.054.074-.1.111-.157.071-.107.157-.2.234-.3.039-.051.084-.1.125-.145l.126-.144c.175-.185.348-.373.538-.544s.387-.333.59-.488a7.412 7.412 0 0 1 .632-.43z" data-name="Path 4692"/><path d="M77.874 33.417a.27.27 0 0 1-.084.11c-.019.013-.042.022-.059.037a.185.185 0 0 0-.042.054.621.621 0 0 1-.078.112.452.452 0 0 1-.109.087.354.354 0 0 1 .064-.126.457.457 0 0 1 .1-.092.218.218 0 0 0 .052-.045c.015-.018.024-.041.038-.06a.238.238 0 0 1 .116-.078z" data-name="Path 4693"/><path d="M80.402 32.455c-.191.026-.379.054-.568.082-.094.012-.19.023-.284.042a2.06 2.06 0 0 0-.275.083c-.09.032-.178.071-.267.1s-.176.074-.261.116c-.176.075-.342.167-.514.254v-.005a2.452 2.452 0 0 1 .489-.309 2.773 2.773 0 0 1 .546-.192c.093-.025.188-.044.28-.07.047-.011.093-.025.139-.039l.14-.035a2.059 2.059 0 0 1 .577-.037z" data-name="Path 4694"/></g></g></g><g data-name="Group 1958"><g data-name="Group 1950"><path fill="#f37475" d="M90.704 53.462a41.406 41.406 0 0 0 3.736-3.393 42.292 42.292 0 0 0 2.737-3.1 2.313 2.313 0 0 1 .427-1.6c.5-.646 1.4-.585 1.7-.771.161-.1.408.277.032.524s-.753.546-.753.546l2.205-.229a.679.679 0 0 1 .037.211.544.544 0 0 1-.164.36 3.72 3.72 0 0 1-.866.649 11.748 11.748 0 0 1-1.275.628l-.478.191a52.618 52.618 0 0 1-2.93 5.482c-2.156 3.076-3.147 3.329-3.633 3.364a3.756 3.756 0 0 1-2.739-1.267z" data-name="Path 4695"/><path fill="#f4969d" d="M88.129 45.515c.272-.18.969.365 1.311.744a3 3 0 0 1 .626 1.233 19.944 19.944 0 0 1 .594 2.642 11.926 11.926 0 0 0 .848 2.674 47.029 47.029 0 0 0 2.081-1.911 47.1 47.1 0 0 0 3.587-3.92c-1.537 2-2.753 3.643-3.587 4.781-1.221 1.664-2.179 3.009-2.864 2.8-.318-.1-.483-.5-.574-.861a43.582 43.582 0 0 0-1.357-5.2c-.508-1.539-1.008-2.759-.665-2.982z" data-name="Path 4696" opacity=".44"/><path fill="#ffca57" d="M87.471 44.557a5.332 5.332 0 0 1 2.042 1.782c.908 1.379.666 2.6 1.666 5.626.153.463.292.835.378 1.06a4.1 4.1 0 0 1-1.65 2.133c-.391.211-1.008.74-1.484.518-.309-.144-.408-.518-.5-.838a44.483 44.483 0 0 0-.883-2.8 10.837 10.837 0 0 1-.294-5.207 10.476 10.476 0 0 1 .725-2.274z" data-name="Path 4697"/><path fill="#ffda93" d="M97.176 46.976a2.211 2.211 0 0 1 .483-1.7 1.373 1.373 0 0 1 .582-.381c.488-.187.919-.2 1.042-.291a.143.143 0 0 1 .088-.032.17.17 0 0 1 .115.069.314.314 0 0 1 .032.274c-.158-.085-1.445.147-2.342 2.061z" data-name="Path 4698" opacity=".28"/></g><g data-name="Group 1954" transform="translate(77.094 43.401)"><path fill="#f69f57" d="M7.626.82s.04 1.836-1.263 2.13A2.978 2.978 0 0 1 3.07 1.825 16.183 16.183 0 0 0 0 3.325c.093 3.132.281 6.41.593 9.821q.251 2.748.581 5.356a31.061 31.061 0 0 0 10.965.04 4435.661 4435.661 0 0 0 .346-9.865q-.507-1.655-1-3.377-.607-2.136-1.137-4.2a13.225 13.225 0 0 0-1.5-.221C8.415.834 8.004.819 7.626.82z" data-name="Path 4699"/><path fill="#ce7b34" d="M7.905.744a2.193 2.193 0 0 1-.313 1.957c-1.167 1.13-4.595-.784-4.723-.522-.068.14.848.794 3.979 2.557 1.523-2 2.4-2.2 2.9-2.074 1.647.417 2.1 5 1.631 8.362a9.021 9.021 0 0 1-1.774 5.009c-2.8 3.3-7.89 2.552-8.427 2.465a31.058 31.058 0 0 0 10.965.04q.093-2.578.183-5.154l.045-1.29 1.252-.784q-.784-3.062-1.722-6.262-.576-1.955-1.174-3.835a32.591 32.591 0 0 0-1.87-.34Q8.374.8 7.905.744z" data-name="Path 4700" opacity=".43"/><rect width=".187" height="6.266" fill="#f26f21" data-name="Rectangle 321" rx=".094" transform="rotate(180 3.82 9.493)"/><g data-name="Group 1953"><path fill="#ffca57" d="M6.085 1.864l-.822 1.833-2.462-1.6A4.98 4.98 0 0 0 4.022.555l1.875.785L7.043.002a2.811 2.811 0 0 0 .273.365 2.974 2.974 0 0 0 1.146.792l-.813 2.258z" data-name="Path 4701"/><g data-name="Group 1952"><g fill="#252258" data-name="Group 1951"><path d="M5.545 4.593a2.42 2.42 0 0 0 1.361.008c.9 1.978 2.3 6.865 2.3 6.865a8.229 8.229 0 0 1-1.837 2.662 12.459 12.459 0 0 1-2.571-2.687c-.192-1.108.747-6.848.747-6.848z" data-name="Path 4702"/><path d="M5.544 4.592l-.516-1L6.07 1.874 7.553 3.32a2.755 2.755 0 0 1-.394.952 2.623 2.623 0 0 1-.254.327 2.419 2.419 0 0 1-1.361-.007z" data-name="Path 4703"/></g><path fill="#8280bc" d="M7.644 3.418L5.88 1.37l-.812 2.211a5.039 5.039 0 0 0 .529 1.037 1.622 1.622 0 0 1-.106-.729c.09-.421.548-.69.974-.86z" data-name="Path 4704" opacity=".34"/><path fill="#8280bc" d="M6.883 4.552a1.849 1.849 0 0 1-.59.163 1.569 1.569 0 0 1-.724-.112q-.267 1.536-.489 3.178-.148 1.1-.261 2.166a4.658 4.658 0 0 0 1.057 2.857 4.488 4.488 0 0 0 1.513 1.161L5.673 11.03l.2-5.905z" data-name="Path 4705" opacity=".34"/></g></g></g><g data-name="Group 1957"><g data-name="Group 1955"><path fill="#f28086" d="M95.259 57.203a7.5 7.5 0 0 0-1.7-1.018 15.411 15.411 0 0 0-1.932 1.4 3.01 3.01 0 0 1-.718.328c-1.991.166-7.754-1.255-7.754-1.255l-1.876 1.952a4 4 0 0 0 2.119 1.029c1.71.469 7.672-.681 7.672-.681a.081.081 0 0 0 .014-.027 6.16 6.16 0 0 0 .906.279 2.466 2.466 0 0 0 1.167-.387s-.031.127-.06.274.187.254.327.2a2.859 2.859 0 0 0 .708-.452c.113-.134.555-.791.669-.9a2.423 2.423 0 0 0 .458-.742z" data-name="Path 4706"/><path fill="#022f43" d="M95.259 57.203a7.5 7.5 0 0 0-1.7-1.018c-.206.017-.45 1.852-.644 2.013a12.045 12.045 0 0 1-2.028.421 19.556 19.556 0 0 0-4.4.362 7.112 7.112 0 0 1-1.464.194c-.513.034-2.191.146-2.345-.337-.093-.291.472-.467.678-1.3a.818.818 0 0 1 .209-.47.907.907 0 0 1 .757-.13l-1.07-.156-1.971 1.836a7.4 7.4 0 0 0 2.119 1.029c1.71.469 7.672-.681 7.672-.681a.081.081 0 0 0 .014-.027 6.16 6.16 0 0 0 .906.279 2.466 2.466 0 0 0 1.167-.387s-.031.127-.06.274.187.254.327.2a2.853 2.853 0 0 0 .708-.452c.113-.133.555-.791.669-.9a2.423 2.423 0 0 0 .456-.75z" data-name="Path 4707" opacity=".12"/></g><g data-name="Group 1956"><path fill="#ffca57" d="M81.726 59.198a2.044 2.044 0 0 1-1.238-.8l.108-.065a63.96 63.96 0 0 1-1.17-1.614 34.653 34.653 0 0 1-2.058-3.127c-1.507-2.853-1.072-6.574-.209-6.831.289-.086.681.207 1.237.593a4.385 4.385 0 0 1 .992.956 25.949 25.949 0 0 1 3.522 8.078.753.753 0 0 1 .288.31c.274.577-.321 1.581-1.472 2.5z" data-name="Path 4708"/><path fill="#e4ae4b" d="M82.914 56.392c-.169.189-.345.372-.52.555s-.357.36-.54.537a5.557 5.557 0 0 1-.567.512 3.12 3.12 0 0 1-.323.21 1.578 1.578 0 0 1-.176.086.555.555 0 0 1-.193.047v-.018a.816.816 0 0 0 .154-.1c.048-.038.1-.079.143-.12l.281-.248c.186-.168.391-.315.584-.477s.385-.327.575-.494l.571-.5z" data-name="Path 4709"/><path fill="#f7e7c9" d="M81.724 59.198a2.046 2.046 0 0 1-1.239-.8l.109-.066c-.277-.37-.688-.927-1.17-1.614a34.575 34.575 0 0 1-2.058-3.128c-1.19-2.254-1.582-5.679-.209-6.83a9.739 9.739 0 0 1 1.607-.918 13.994 13.994 0 0 1 1.435-.6l-.287.339-1.852 1.017.678.939a1.807 1.807 0 0 0-1.617 0c-.954.713-.093 3.187.246 4.4.875 3.141 3.082 4.842 3.72 6.476.154.1 2.062-1.823 2.11-1.721.275.583-.32 1.587-1.473 2.506z" data-name="Path 4710" opacity=".26"/></g></g><path fill="#31302c" d="M78.193 61.761q0 .323-.012.649-.008.393-.019.783c2.452.364 10.578.454 10.987-.136a7.519 7.519 0 0 0 .083-1.118 38.739 38.739 0 0 1-11.039-.178z" data-name="Path 4711"/></g></g><g data-name="Group 1970"><g data-name="Group 1964"><g data-name="Group 1960" transform="translate(39.279 63.504)"><path fill="#252258" d="M0 8.691h10.533v.847H0z" data-name="Rectangle 322"/><path fill="#252258" d="M16.137.465l-5.783 8.806-.708-.465L15.43 0z" data-name="Rectangle 323"/><circle cx=".454" cy=".454" r=".454" fill="#993f7a" data-name="Ellipse 189" transform="translate(9.655 8.6)"/></g><g data-name="Group 1961" transform="translate(53.824 65.38)"><path fill="url(#b)" d="M1648.562 1992.657l-11.277.594a50.54 50.54 0 0 1 1.328-6.329 1.789 1.789 0 0 1 .634-.935 1.829 1.829 0 0 1 1.239-.274l8.047.04a.912.912 0 0 1 .963 1z" data-name="Path 4712" transform="translate(-1635.104 -1985.7)"/><rect width="13.517" height=".752" fill="#742051" data-name="Rectangle 324" rx=".376" transform="rotate(.063 -6266.156 4.354)"/><path fill="#8b5ca5" d="M2.515 5.708l-.249 1.156 11.2.041.793-5.016A26.594 26.594 0 0 1 3.993 5.558q-.754.099-1.478.15z" data-name="Path 4713" opacity=".36"/></g><g data-name="Group 1962" transform="translate(137.664 63.504)"><path fill="#742051" d="M16.137 9.538H5.604v-.847h10.533z" data-name="Rectangle 325"/><path fill="#742051" d="M.709 0l5.783 8.806-.708.465L0 .465z" data-name="Rectangle 326"/><circle cx=".454" cy=".454" r=".454" fill="#993f7a" data-name="Ellipse 190" transform="translate(5.574 8.6)"/></g><g data-name="Group 1963" transform="translate(117.89 65.433)"><path fill="url(#b)" d="M2726.238 1993.594l11.277.594a50.592 50.592 0 0 0-1.328-6.329 1.794 1.794 0 0 0-.634-.935 1.829 1.829 0 0 0-1.239-.274l-8.047.039a.913.913 0 0 0-.963 1z" data-name="Path 4714" transform="translate(-2725.294 -1986.636)"/><rect width="13.517" height=".752" fill="#742051" data-name="Rectangle 327" rx=".376" transform="rotate(179.937 7.198 3.825)"/><path fill="#8b5ca5" d="M11.889 5.707l.249 1.156-11.2.041-.793-5.017a26.6 26.6 0 0 0 10.266 3.67q.752.099 1.478.15z" data-name="Path 4715" opacity=".36"/></g></g><g data-name="Group 1969"><g data-name="Group 1965"><path fill="#c4217f" d="M47.048 65.247v-.587h1.1v.587a1.322 1.322 0 0 1 .773 1.2v6.08a.574.574 0 0 1-.573.574h-1.5a.574.574 0 0 1-.573-.574v-6.08a1.321 1.321 0 0 1 .773-1.2z" data-name="Path 4716" opacity=".47"/><path fill="#fff" d="M48.347 72.829a.3.3 0 0 0 .3-.3v-6.08a1.055 1.055 0 0 0-.616-.954l-.158-.073v-.489h-.556v.489l-.158.073a1.055 1.055 0 0 0-.615.954v6.08a.3.3 0 0 0 .3.3z" data-name="Path 4717" opacity=".47"/><path fill="#831939" d="M48.241 64.798h-1.29v-.627h1.29z" data-name="Rectangle 328"/></g><g data-name="Group 1966"><path fill="#c4217f" d="M151.31 65.247v-.587h1.3v.587a1.331 1.331 0 0 1 .916 1.2v6.081a.634.634 0 0 1-.68.574h-1.776a.634.634 0 0 1-.68-.574v-6.081a1.331 1.331 0 0 1 .92-1.2z" data-name="Path 4718" opacity=".47"/><path fill="#fff" d="M152.849 72.829a.334.334 0 0 0 .358-.3v-6.08a1.062 1.062 0 0 0-.729-.954l-.187-.073v-.489h-.659v.489l-.187.073a1.061 1.061 0 0 0-.729.954v6.08a.334.334 0 0 0 .358.3z" data-name="Path 4719" opacity=".47"/><path fill="#831939" d="M152.723 64.798h-1.528v-.627h1.528z" data-name="Rectangle 329"/></g><g data-name="Group 1967"><path fill="#c4217f" d="M67.764 65.299v-.587h1.1v.587a1.321 1.321 0 0 1 .773 1.2v6.08a.574.574 0 0 1-.574.574h-1.5a.573.573 0 0 1-.573-.574v-6.08a1.321 1.321 0 0 1 .774-1.2z" data-name="Path 4720" opacity=".47"/><path fill="#fff" d="M69.061 72.882a.3.3 0 0 0 .3-.3v-6.08a1.055 1.055 0 0 0-.615-.954l-.158-.073v-.49h-.556v.49l-.158.073a1.054 1.054 0 0 0-.615.954v6.08a.3.3 0 0 0 .3.3z" data-name="Path 4721" opacity=".47"/><path fill="#831939" d="M68.957 64.85h-1.29v-.627h1.29z" data-name="Rectangle 330"/></g><g data-name="Group 1968"><path fill="#c4217f" d="M130.534 65.182v-.587h1.1v.587a1.321 1.321 0 0 1 .773 1.2v6.08a.573.573 0 0 1-.573.574h-1.5a.574.574 0 0 1-.574-.574v-6.08a1.321 1.321 0 0 1 .774-1.2z" data-name="Path 4722" opacity=".47"/><path fill="#fff" d="M131.837 72.764a.3.3 0 0 0 .3-.3v-6.08a1.054 1.054 0 0 0-.615-.953l-.158-.073v-.489h-.556v.489l-.158.073a1.053 1.053 0 0 0-.615.953v6.08a.3.3 0 0 0 .3.3z" data-name="Path 4723" opacity=".47"/><path fill="#831939" d="M131.729 64.733h-1.29v-.627h1.29z" data-name="Rectangle 331"/></g></g><path fill="url(#a)" d="M0 0h122.033v2.421H0z" data-name="Rectangle 332" transform="translate(36.802 73.06)"/><path fill="#252258" d="M36.75 74.448h122.033v1.059H36.75z" data-name="Rectangle 333" opacity=".44"/></g></g></svg>