<svg xmlns="http://www.w3.org/2000/svg" xmlns:xlink="http://www.w3.org/1999/xlink" width="178.601" height="136.781" viewBox="0 0 178.601 136.781"><defs><clipPath id="b"><circle cx="13.362" cy="13.362" r="13.362" fill="#fdc052" data-name="Ellipse 78"/></clipPath><linearGradient id="a" x2="1" y1=".5" y2=".5" gradientUnits="objectBoundingBox"><stop offset="0" stop-color="#902472"/><stop offset=".727" stop-color="#54326b"/><stop offset="1" stop-color="#3c3e69"/></linearGradient><linearGradient id="c" x2="1" y1=".5" y2=".5" gradientUnits="objectBoundingBox"><stop offset="0" stop-color="#f8ac8f"/><stop offset="1" stop-color="#d99ec6"/></linearGradient><linearGradient id="d" x1="-1.987" x2="2.987" y1=".5" y2=".5" xlink:href="#a"/><clipPath id="e"><circle cx="3.14" cy="3.14" r="3.14" fill="none" stroke="#000" stroke-miterlimit="10" data-name="Ellipse 83"/></clipPath><clipPath id="f"><circle cx="3.14" cy="3.14" r="3.14" fill="none" data-name="Ellipse 86"/></clipPath></defs><g data-name="Group 10782"><g fill="#a12545" data-name="Group 1393" transform="translate(46.798 124.037)"><path d="M95.27.347c-9.361 0-17.484.466-21.541 1.148-2.5-.227-4.818-.4-6.564-.538-35.234-2.7-67.246 1-67.166 2.544.062 1.2 19.718 1.575 27.866 1.73 10.561.2 18.817-.054 18.826.17.006.136-3.05.351-15.194 1.051C12.73 7.535 11.572 7.511 11.55 7.775c-.1 1.226 24.5 5.8 52.756 3.155 10.566-.988 26.77-3.463 26.676-5.8a.791.791 0 0 0-.332-.548c1.5.025 3.039.039 4.619.039 13.417 0 24.294-.957 24.294-2.137S108.687.347 95.27.347z" data-name="Path 3731" opacity=".44"/><ellipse cx="19.267" cy="1.022" data-name="Ellipse 74" opacity=".4" rx="19.267" ry="1.022" transform="translate(78.357 1.367)"/><ellipse cx="5.346" cy=".744" data-name="Ellipse 75" opacity=".4" rx="5.346" ry=".744" transform="translate(10.531 3.012)"/><ellipse cx="5.346" cy=".744" data-name="Ellipse 76" opacity=".4" rx="5.346" ry=".744" transform="translate(25.232 7.133)"/></g><g data-name="Group 1412"><path fill="#fff" d="M135.179 84.302H2.071v-82.4h133.108z" data-name="Rectangle 151" opacity=".92"/><g data-name="Group 1405"><g data-name="Group 1395" transform="translate(7.562 7.253)"><rect width="86.364" height="67.715" fill="#fdc052" data-name="Rectangle 152" rx="1"/><g data-name="Group 1394"><path fill="#fdc052" stroke="#233e98" stroke-miterlimit="10" stroke-width="2" d="M86.166 23.641H0" data-name="Line 42"/></g></g><g data-name="Group 1401"><g data-name="Group 1398"><g fill="none" stroke="#492e8c" stroke-miterlimit="10" stroke-width="2" data-name="Group 1397"><path d="M67.413 41.607h14.1a1.011 1.011 0 0 0 .991-1.03h0a1.011 1.011 0 0 0-.991-1.03h-14.1a1.011 1.011 0 0 0-.991 1.03h0a1.011 1.011 0 0 0 .991 1.03z" data-name="Path 3732"/><g data-name="Group 1396"><path d="M81.493 43.137H67.842" data-name="Line 43"/><path d="M81.493 45.033H67.842" data-name="Line 44"/><path d="M81.493 46.93H67.842" data-name="Line 45"/></g></g></g><g data-name="Group 1400"><g data-name="Group 1399"><path fill="#5a2c84" stroke="#492e8c" stroke-miterlimit="10" d="M12.971 38.123h14.1a1.011 1.011 0 0 0 .991-1.03h0a1.011 1.011 0 0 0-.991-1.03h-14.1a1.011 1.011 0 0 0-.991 1.03h0a1.011 1.011 0 0 0 .991 1.03z" data-name="Path 3733"/></g><path fill="none" stroke="#492e8c" stroke-miterlimit="10" stroke-width="2" d="M38.526 41.891l-4.985-4.242h-4.418" data-name="Path 3734"/></g></g><g fill="#492e8c" data-name="Group 1402" transform="translate(11.98 15.42)"><rect width="48.41" height=".742" data-name="Rectangle 153" rx=".371"/><rect width="48.41" height=".742" data-name="Rectangle 154" rx=".371" transform="translate(0 2.005)"/><rect width="48.41" height=".742" data-name="Rectangle 155" rx=".371" transform="translate(0 4.009)"/><rect width="48.41" height=".742" data-name="Rectangle 156" rx=".371" transform="translate(0 6.014)"/><rect width="48.41" height=".742" data-name="Rectangle 157" rx=".371" transform="translate(0 8.019)"/></g><g fill="#492e8c" data-name="Group 1403" transform="translate(11.98 42.484)"><rect width="22.516" height=".742" data-name="Rectangle 158" rx=".371"/><rect width="22.516" height=".742" data-name="Rectangle 159" rx=".371" transform="translate(0 2.005)"/><rect width="22.516" height=".742" data-name="Rectangle 160" rx=".371" transform="translate(0 4.009)"/><rect width="22.516" height=".742" data-name="Rectangle 161" rx=".371" transform="translate(0 6.014)"/><rect width="22.516" height=".742" data-name="Rectangle 162" rx=".371" transform="translate(0 8.019)"/></g><g fill="#492e8c" data-name="Group 1404" transform="translate(11.98 59.19)"><rect width="22.516" height=".742" data-name="Rectangle 163" rx=".371"/><rect width="22.516" height=".742" data-name="Rectangle 164" rx=".371" transform="translate(0 2.005)"/><rect width="22.516" height=".742" data-name="Rectangle 165" rx=".371" transform="translate(0 4.009)"/><rect width="22.516" height=".742" data-name="Rectangle 166" rx=".371" transform="translate(0 6.014)"/><rect width="22.516" height=".742" data-name="Rectangle 167" rx=".371" transform="translate(0 8.019)"/></g></g><g data-name="Group 1407" transform="translate(102.682 7.539)"><circle cx="13.362" cy="13.362" r="13.362" fill="#fdc052" data-name="Ellipse 77"/><g clip-path="url(#b)" data-name="Group 1406"><path fill="#2b337c" d="M16.613 10.399a5.575 5.575 0 1 0-7.67.353 13.266 13.266 0 1 0 7.67-.353z" data-name="Path 3735"/></g></g><path fill="url(#a)" d="M0 0h137.214v3.805H0z" data-name="Rectangle 168"/><rect width="33.189" height="33.412" fill="#9682bc" data-name="Rectangle 169" rx="16.595" transform="translate(97.311 37.992)"/><g data-name="Group 1411"><path fill="#574486" d="M101.028 46.667h25.823a1.851 1.851 0 0 0 1.815-1.885 1.851 1.851 0 0 0-1.815-1.885h-25.823a1.851 1.851 0 0 0-1.815 1.885 1.851 1.851 0 0 0 1.815 1.885z" data-name="Path 3736"/><g fill="none" stroke="#574486" stroke-miterlimit="10" stroke-width="4" data-name="Group 1410"><g data-name="Group 1408"><path d="M126.807 49.463h-24.993" data-name="Line 46"/><path d="M126.807 52.935h-24.993" data-name="Line 47"/><path d="M126.807 56.407h-24.993" data-name="Line 48"/></g><g data-name="Group 1409"><path d="M126.807 60.004h-24.993" data-name="Line 49"/><path d="M126.807 63.476h-24.993" data-name="Line 50"/><path d="M126.807 66.948h-24.993" data-name="Line 51"/></g></g></g></g><g data-name="Group 1419"><g data-name="Group 1418"><g data-name="Group 1417"><path fill="#9682bc" d="M143.15 121.585a101.448 101.448 0 0 1-.866-14.774c.018-2.468.14-4.932.316-7.39s.439-4.906.747-7.346c.63-4.878 1.52-9.71 2.623-14.478q.831-3.576 1.835-7.1c.672-2.346 1.39-4.672 2.219-6.962l.261.119c-.8 2.282-1.489 4.618-2.131 6.963s-1.224 4.715-1.749 7.1a148.62 148.62 0 0 0-2.449 14.45c-.279 2.431-.52 4.867-.661 7.311s-.241 4.89-.232 7.337a100.36 100.36 0 0 0 1.021 14.6z" data-name="Path 3737"/><path fill="#9682bc" d="M151.317 53.731a6.81 6.81 0 0 0-2.534 4.8 7.2 7.2 0 0 0 1.232 5.392 6.811 6.811 0 0 0 2.534-4.8 7.2 7.2 0 0 0-1.232-5.392z" data-name="Path 3738"/><path fill="#9682bc" d="M143.92 61.236a5.543 5.543 0 0 0 1.391 4.062 4.493 4.493 0 0 0 3.56 1.806 5.544 5.544 0 0 0-1.392-4.062 4.493 4.493 0 0 0-3.559-1.806z" data-name="Path 3739"/><path fill="#9682bc" d="M149.081 67.109a4.274 4.274 0 0 0 3.9.331 4.866 4.866 0 0 0 2.987-2.808 4.275 4.275 0 0 0-3.9-.331 4.869 4.869 0 0 0-2.987 2.808z" data-name="Path 3740"/><path fill="#9682bc" d="M147.646 72.442a4.277 4.277 0 0 0 3.9.331 4.87 4.87 0 0 0 2.987-2.808 4.275 4.275 0 0 0-3.9-.332 4.871 4.871 0 0 0-2.987 2.809z" data-name="Path 3741"/><path fill="#9682bc" d="M146.143 77.978a4.276 4.276 0 0 0 3.9.331 4.869 4.869 0 0 0 2.987-2.808 4.275 4.275 0 0 0-3.9-.332 4.869 4.869 0 0 0-2.987 2.809z" data-name="Path 3742"/><path fill="#9682bc" d="M145.134 83.133a4.276 4.276 0 0 0 3.9.331 4.871 4.871 0 0 0 2.987-2.808 4.277 4.277 0 0 0-3.9-.332 4.869 4.869 0 0 0-2.987 2.809z" data-name="Path 3743"/><path fill="#9682bc" d="M145.553 82.09a4.275 4.275 0 0 1-3.9.331 4.87 4.87 0 0 1-2.987-2.808 4.277 4.277 0 0 1 3.9-.332 4.869 4.869 0 0 1 2.987 2.809z" data-name="Path 3744"/><path fill="#9682bc" d="M142.57 66.141a5.544 5.544 0 0 0 1.391 4.062 4.494 4.494 0 0 0 3.56 1.806 5.543 5.543 0 0 0-1.391-4.062 4.494 4.494 0 0 0-3.56-1.806z" data-name="Path 3745"/><path fill="#9682bc" d="M141.024 71.714a5.546 5.546 0 0 0 1.391 4.062 4.5 4.5 0 0 0 3.56 1.806 5.544 5.544 0 0 0-1.392-4.062 4.491 4.491 0 0 0-3.559-1.806z" data-name="Path 3746"/><g fill="#9682bc" data-name="Group 1413"><path d="M171.497 76.452a46.162 46.162 0 0 0-5.481 4.035 63.84 63.84 0 0 0-5.014 4.73q-2.394 2.509-4.552 5.283a71.439 71.439 0 0 0-4.026 5.794 70.927 70.927 0 0 0-6.287 12.861 77.28 77.28 0 0 0-3.639 14.091l.932.173a76.4 76.4 0 0 1 3.4-13.958 70.45 70.45 0 0 1 6.043-12.831c1.216-2.008 2.519-3.953 3.914-5.816s2.886-3.637 4.451-5.328a63.8 63.8 0 0 1 4.925-4.794 46.242 46.242 0 0 1 5.4-4.111z" data-name="Path 3747"/><path d="M178.601 70.947a6.785 6.785 0 0 1-2.7 4.689 5.537 5.537 0 0 1-4.885 1.234 6.784 6.784 0 0 1 2.7-4.689 5.538 5.538 0 0 1 4.885-1.234z" data-name="Path 3748"/><path d="M167.692 69.57a7.107 7.107 0 0 1 1.633 5.259 6.947 6.947 0 0 1-2.165 5.017 7.107 7.107 0 0 1-1.633-5.259 6.947 6.947 0 0 1 2.165-5.017z" data-name="Path 3749"/><path d="M161.252 73.16a6.687 6.687 0 0 1 2.835 4.586 7.262 7.262 0 0 1-.884 5.475 6.686 6.686 0 0 1-2.835-4.586 7.262 7.262 0 0 1 .884-5.475z" data-name="Path 3750"/><path d="M156.909 77.597a6.687 6.687 0 0 1 2.836 4.586 7.263 7.263 0 0 1-.884 5.475 6.685 6.685 0 0 1-2.835-4.586 7.261 7.261 0 0 1 .883-5.475z" data-name="Path 3751"/><path d="M151.908 82.158a6.208 6.208 0 0 1 3.8 3.628 7.323 7.323 0 0 1 .407 5.544 6.208 6.208 0 0 1-3.8-3.628 7.322 7.322 0 0 1-.407-5.544z" data-name="Path 3752"/><path d="M148.389 87.873a5.171 5.171 0 0 1 4.019 2.185 6.37 6.37 0 0 1 1.477 4.69 5.168 5.168 0 0 1-4.018-2.186 6.367 6.367 0 0 1-1.478-4.689z" data-name="Path 3753"/><path d="M145.832 91.458a5.169 5.169 0 0 1 4.018 2.185 6.369 6.369 0 0 1 1.477 4.69 5.17 5.17 0 0 1-4.019-2.185 6.367 6.367 0 0 1-1.476-4.69z" data-name="Path 3754"/><path d="M144.372 96.754a4.432 4.432 0 0 1 3.444 1.873 5.459 5.459 0 0 1 1.266 4.02 4.43 4.43 0 0 1-3.444-1.873 5.456 5.456 0 0 1-1.266-4.02z" data-name="Path 3755"/><path d="M142.956 102.276a3.53 3.53 0 0 1 3.218-.064 4.091 4.091 0 0 1 2.346 2.446 3.532 3.532 0 0 1-3.218.063 4.093 4.093 0 0 1-2.346-2.445z" data-name="Path 3756"/><path d="M142.384 106.826a2.938 2.938 0 0 1 2.429-.962 3 3 0 0 1 2.345 1.191 2.938 2.938 0 0 1-2.429.962 3 3 0 0 1-2.345-1.191z" data-name="Path 3757"/><path d="M175.908 83.038a5.466 5.466 0 0 1-5 .314 6.27 6.27 0 0 1-3.759-3.678 5.467 5.467 0 0 1 5-.314 6.268 6.268 0 0 1 3.759 3.678z" data-name="Path 3758"/><path d="M171.954 86.652a5.468 5.468 0 0 1-5 .314 6.27 6.27 0 0 1-3.758-3.678 5.467 5.467 0 0 1 5-.314 6.268 6.268 0 0 1 3.758 3.678z" data-name="Path 3759"/><path d="M167.739 91.106a5.466 5.466 0 0 1-5 .314 6.27 6.27 0 0 1-3.758-3.678 5.467 5.467 0 0 1 5-.314 6.269 6.269 0 0 1 3.758 3.678z" data-name="Path 3760"/><path d="M162.983 94.07a4.447 4.447 0 0 1-4.068.255 5.1 5.1 0 0 1-3.057-2.992 4.446 4.446 0 0 1 4.068-.255 5.1 5.1 0 0 1 3.057 2.992z" data-name="Path 3761"/><path d="M159.42 96.9a3.531 3.531 0 0 1-3.3.26 4.059 4.059 0 0 1-2.453-2.47 3.531 3.531 0 0 1 3.3-.259 4.06 4.06 0 0 1 2.453 2.469z" data-name="Path 3762"/><path d="M157.292 100.54a3.53 3.53 0 0 1-3.3.259 4.061 4.061 0 0 1-2.453-2.47 3.53 3.53 0 0 1 3.3-.259 4.059 4.059 0 0 1 2.453 2.47z" data-name="Path 3763"/><path d="M154.959 103.833a3.5 3.5 0 0 1-3 .724 3.747 3.747 0 0 1-2.645-1.741 3.5 3.5 0 0 1 3-.724 3.748 3.748 0 0 1 2.645 1.741z" data-name="Path 3764"/><path d="M152.7 107.982a3.043 3.043 0 0 1-2.652-.651 3.712 3.712 0 0 1-1.512-2.506 3.043 3.043 0 0 1 2.652.651 3.712 3.712 0 0 1 1.512 2.506z" data-name="Path 3765"/><path d="M150.193 110.457a2.408 2.408 0 0 1-1.91-.908 2.965 2.965 0 0 1-.815-2.122 2.406 2.406 0 0 1 1.91.908 2.964 2.964 0 0 1 .815 2.122z" data-name="Path 3766"/><path d="M148.529 111.107a1.378 1.378 0 0 1-1.213-.5 1.725 1.725 0 0 1-.453-1.348 1.379 1.379 0 0 1 1.213.5 1.724 1.724 0 0 1 .453 1.348z" data-name="Path 3767"/><path d="M147.991 112.331a1.378 1.378 0 0 1-1.213-.5 1.722 1.722 0 0 1-.453-1.348 1.379 1.379 0 0 1 1.214.5 1.725 1.725 0 0 1 .452 1.348z" data-name="Path 3768"/></g><g fill="#2b337c" data-name="Group 1414"><path d="M128.681 72.347a47.376 47.376 0 0 1 3.731 5.359 65.3 65.3 0 0 1 3.134 5.815q1.43 3 2.58 6.147c.76 2.1 1.417 4.245 1.981 6.422a69.7 69.7 0 0 1 2.069 13.378 73.15 73.15 0 0 1-.587 13.581l-.865-.157a72.169 72.169 0 0 0 .765-13.384 69.072 69.072 0 0 0-1.863-13.271c-.529-2.166-1.151-4.306-1.876-6.4s-1.559-4.15-2.479-6.153a65.252 65.252 0 0 0-3.039-5.841 47.458 47.458 0 0 0-3.64-5.4z" data-name="Path 3769"/><path d="M123.919 65.159a6.7 6.7 0 0 0 1.109 5.011 5.5 5.5 0 0 0 3.959 2.7 6.7 6.7 0 0 0-1.109-5.011 5.5 5.5 0 0 0-3.959-2.7z" data-name="Path 3770"/><path d="M133.871 67.56a6.1 6.1 0 0 0-2.847 4.078 6.771 6.771 0 0 0 .555 5.123 6.1 6.1 0 0 0 2.847-4.078 6.767 6.767 0 0 0-.555-5.123z" data-name="Path 3771"/><path d="M138.563 72.846a5.643 5.643 0 0 0-3.722 3.089 6.766 6.766 0 0 0-.694 5.1 5.644 5.644 0 0 0 3.722-3.09 6.766 6.766 0 0 0 .694-5.099z" data-name="Path 3772"/><path d="M141.187 78.182a5.644 5.644 0 0 0-3.722 3.09 6.764 6.764 0 0 0-.694 5.1 5.643 5.643 0 0 0 3.722-3.09 6.763 6.763 0 0 0 .694-5.1z" data-name="Path 3773"/><path d="M144.355 83.844a5.281 5.281 0 0 0-4.31 1.929 6.527 6.527 0 0 0-1.847 4.735 5.279 5.279 0 0 0 4.31-1.93 6.526 6.526 0 0 0 1.847-4.734z" data-name="Path 3774"/><path d="M145.915 90.024a4.543 4.543 0 0 0-4.116.589 5.477 5.477 0 0 0-2.556 3.63 4.542 4.542 0 0 0 4.116-.589 5.481 5.481 0 0 0 2.556-3.63z" data-name="Path 3775"/><path d="M147.195 94.025a4.541 4.541 0 0 0-4.116.589 5.48 5.48 0 0 0-2.557 3.63 4.543 4.543 0 0 0 4.116-.589 5.477 5.477 0 0 0 2.557-3.63z" data-name="Path 3776"/><path d="M147.055 99.159a3.893 3.893 0 0 0-3.528.505 4.7 4.7 0 0 0-2.191 3.112 3.894 3.894 0 0 0 3.528-.505 4.7 4.7 0 0 0 2.191-3.112z" data-name="Path 3777"/><path d="M146.817 104.477a3.4 3.4 0 0 0-2.809-1.121 3.467 3.467 0 0 0-2.718 1.372 3.4 3.4 0 0 0 2.81 1.121 3.466 3.466 0 0 0 2.717-1.372z" data-name="Path 3778"/><path d="M146.097 108.664a2.968 2.968 0 0 0-1.875-1.649 2.634 2.634 0 0 0-2.38.27 2.967 2.967 0 0 0 1.875 1.649 2.635 2.635 0 0 0 2.38-.27z" data-name="Path 3779"/><path d="M123.038 76.673a5.7 5.7 0 1 0 4.289-1.987 5.307 5.307 0 0 0-4.289 1.987z" data-name="Path 3780"/><path d="M125.546 81.153a5.7 5.7 0 1 0 4.289-1.987 5.306 5.306 0 0 0-4.289 1.987z" data-name="Path 3781"/><path d="M128.047 86.462a5.7 5.7 0 1 0 4.289-1.987 5.307 5.307 0 0 0-4.289 1.987z" data-name="Path 3782"/><path d="M131.43 90.64a4.633 4.633 0 1 0 3.488-1.616 4.315 4.315 0 0 0-3.488 1.616z" data-name="Path 3783"/><path d="M133.799 94.306a3.647 3.647 0 1 0 2.817-1.358 3.432 3.432 0 0 0-2.817 1.358z" data-name="Path 3784"/><path d="M134.691 98.207a3.648 3.648 0 1 0 2.818-1.358 3.435 3.435 0 0 0-2.818 1.358z" data-name="Path 3785"/><path d="M135.856 101.872a3.484 3.484 0 0 0 2.445 1.631 3.242 3.242 0 0 0 2.79-.653 3.483 3.483 0 0 0-2.445-1.631 3.242 3.242 0 0 0-2.79.653z" data-name="Path 3786"/><path d="M136.722 106.261a2.8 2.8 0 0 0 2.5.306 3.134 3.134 0 0 0 2-1.7 2.8 2.8 0 0 0-2.5-.306 3.133 3.133 0 0 0-2 1.7z" data-name="Path 3787"/><path d="M138.263 109.268a2.133 2.133 0 0 0 1.921-.165 2.534 2.534 0 0 0 1.286-1.594 2.133 2.133 0 0 0-1.921.165 2.532 2.532 0 0 0-1.286 1.594z" data-name="Path 3788"/><path d="M139.551 110.389a1.232 1.232 0 0 0 1.2-.041 1.481 1.481 0 0 0 .76-1.034 1.231 1.231 0 0 0-1.2.041 1.48 1.48 0 0 0-.76 1.034z" data-name="Path 3789"/><path d="M139.693 111.643a1.232 1.232 0 0 0 1.2-.041 1.48 1.48 0 0 0 .76-1.034 1.232 1.232 0 0 0-1.2.042 1.479 1.479 0 0 0-.76 1.033z" data-name="Path 3790"/></g><g fill="#9682bc" data-name="Group 1415"><path d="M132.714 99.19a2.889 2.889 0 0 1-2.3.855 2.935 2.935 0 0 1-2.235-1.036 2.891 2.891 0 0 1 2.3-.855 2.934 2.934 0 0 1 2.235 1.036z" data-name="Path 3791"/><path d="M137.453 106.584c-2.07-3.367-4.25-6.657-6.577-9.815l.038-.036c2.386 3.108 4.628 6.351 6.763 9.678a119.191 119.191 0 0 1 5.947 10.334q.653 1.3 1.271 2.622l-.481.3q-.591-1.342-1.226-2.66c-1.73-3.584-3.671-7.051-5.735-10.423z" data-name="Path 3792"/><path d="M128.569 92.474a2.811 2.811 0 0 1 2.055 1.565 3.41 3.41 0 0 1 .28 2.749 2.812 2.812 0 0 1-2.055-1.565 3.408 3.408 0 0 1-.28-2.749z" data-name="Path 3793"/><path d="M134.268 94.441a3.756 3.756 0 0 1-.022 2.688 3.3 3.3 0 0 1-1.612 2.007 3.755 3.755 0 0 1 .022-2.689 3.3 3.3 0 0 1 1.612-2.006z" data-name="Path 3794"/><path d="M134.459 101.849a2.84 2.84 0 0 1-2.361.594 3.007 3.007 0 0 1-2.129-1.281 2.839 2.839 0 0 1 2.361-.594 3.009 3.009 0 0 1 2.129 1.281z" data-name="Path 3795"/><path d="M136.751 105.132a2.84 2.84 0 0 1-2.362.594 3.007 3.007 0 0 1-2.129-1.281 2.839 2.839 0 0 1 2.362-.594 3.01 3.01 0 0 1 2.129 1.281z" data-name="Path 3796"/><path d="M138.306 107.747a2.839 2.839 0 0 1-2.362.594 3.009 3.009 0 0 1-2.129-1.281 2.84 2.84 0 0 1 2.362-.594 3.008 3.008 0 0 1 2.129 1.281z" data-name="Path 3797"/><path d="M140.03 110.638a2.841 2.841 0 0 1-2.362.594 3.007 3.007 0 0 1-2.129-1.281 2.841 2.841 0 0 1 2.362-.594 3.01 3.01 0 0 1 2.129 1.281z" data-name="Path 3798"/><path d="M136.262 97.256a3.756 3.756 0 0 1-.022 2.688 3.3 3.3 0 0 1-1.612 2.007 3.756 3.756 0 0 1 .022-2.689 3.3 3.3 0 0 1 1.612-2.006z" data-name="Path 3799"/><path d="M138.167 100.157a3.757 3.757 0 0 1-.022 2.688 3.3 3.3 0 0 1-1.612 2.007 3.757 3.757 0 0 1 .022-2.688 3.3 3.3 0 0 1 1.612-2.007z" data-name="Path 3800"/><path d="M139.98 103.079a3.754 3.754 0 0 1-.021 2.688 3.3 3.3 0 0 1-1.612 2.007 3.756 3.756 0 0 1 .022-2.689 3.3 3.3 0 0 1 1.611-2.006z" data-name="Path 3801"/><path d="M141.738 105.942a3.755 3.755 0 0 1-.022 2.688 3.305 3.305 0 0 1-1.612 2.007 3.757 3.757 0 0 1 .022-2.689 3.3 3.3 0 0 1 1.612-2.006z" data-name="Path 3802"/></g><g fill="#2b337c" data-name="Group 1416"><path d="M161.66 97.311a2.939 2.939 0 0 0 2.229 1.049 2.887 2.887 0 0 0 2.3-.841 2.939 2.939 0 0 0-2.229-1.05 2.887 2.887 0 0 0-2.3.842z" data-name="Path 3803"/><path d="M156.42 104.276c2.3-3.18 4.7-6.272 7.241-9.222l-.036-.039c-2.6 2.894-5.056 5.934-7.417 9.068a116.47 116.47 0 0 0-6.649 9.792q-.742 1.238-1.45 2.505c.153.113.306.227.458.343q.684-1.287 1.408-2.546a116.84 116.84 0 0 1 6.445-9.901z" data-name="Path 3804"/><path d="M166.261 90.97a2.752 2.752 0 0 0-2.157 1.384 3.39 3.39 0 0 0-.471 2.717 2.752 2.752 0 0 0 2.158-1.384 3.388 3.388 0 0 0 .47-2.717z" data-name="Path 3805"/><path d="M160.442 92.442a3.75 3.75 0 0 0-.165 2.682 3.377 3.377 0 0 0 1.467 2.139 3.748 3.748 0 0 0 .165-2.683 3.375 3.375 0 0 0-1.467-2.138z" data-name="Path 3806"/><path d="M159.735 99.811a2.876 2.876 0 0 0 2.313.795 2.951 2.951 0 0 0 2.212-1.094 2.876 2.876 0 0 0-2.313-.795 2.951 2.951 0 0 0-2.212 1.094z" data-name="Path 3807"/><path d="M157.222 102.888a2.875 2.875 0 0 0 2.313.794 2.949 2.949 0 0 0 2.212-1.094 2.876 2.876 0 0 0-2.313-.795 2.95 2.95 0 0 0-2.212 1.095z" data-name="Path 3808"/><path d="M155.49 105.361a2.875 2.875 0 0 0 2.313.8 2.951 2.951 0 0 0 2.212-1.094 2.876 2.876 0 0 0-2.313-.795 2.951 2.951 0 0 0-2.212 1.089z" data-name="Path 3809"/><path d="M153.568 108.09a2.876 2.876 0 0 0 2.313.795 2.951 2.951 0 0 0 2.212-1.094 2.876 2.876 0 0 0-2.313-.795 2.953 2.953 0 0 0-2.212 1.094z" data-name="Path 3810"/><path d="M158.258 95.081a3.749 3.749 0 0 0-.165 2.682 3.377 3.377 0 0 0 1.468 2.139 3.751 3.751 0 0 0 .165-2.683 3.373 3.373 0 0 0-1.468-2.138z" data-name="Path 3811"/><path d="M156.157 97.805a3.751 3.751 0 0 0-.165 2.682 3.375 3.375 0 0 0 1.467 2.139 3.751 3.751 0 0 0 .165-2.682 3.378 3.378 0 0 0-1.467-2.139z" data-name="Path 3812"/><path d="M154.145 100.563a3.751 3.751 0 0 0-.166 2.682 3.378 3.378 0 0 0 1.467 2.139 3.749 3.749 0 0 0 .166-2.682 3.376 3.376 0 0 0-1.467-2.139z" data-name="Path 3813"/><path d="M152.193 103.267a3.749 3.749 0 0 0-.165 2.682 3.377 3.377 0 0 0 1.467 2.139 3.752 3.752 0 0 0 .165-2.683 3.379 3.379 0 0 0-1.467-2.138z" data-name="Path 3814"/></g></g></g><path fill="#faac47" d="M136.086 114.297h13.739c2.282 1.295 3.731 3.22 3.731 5.373 0 2.3-1.651 4.339-4.2 5.627h-12.793c-2.554-1.289-4.2-3.329-4.2-5.627-.008-2.153 1.441-4.078 3.723-5.373z" data-name="Path 3815"/><path fill="#f6eb84" d="M137.379 115.502c-1.355-.176-3.169.958-3.638 3.238-.639 4.5 3.418 5.82 5.632 4.677-1.93-.538-4.039-1.52-4.1-3.735a4.639 4.639 0 0 1 .523-2.31 6.235 6.235 0 0 1 .582-.865 6.133 6.133 0 0 1 1.001-1.005z" data-name="Path 3816"/><path fill="#ea2e26" d="M150.623 114.696h-15.178v-1.059h15.178z" data-name="Rectangle 170"/></g><g fill="#fff" stroke="#000" stroke-miterlimit="10" data-name="Group 1420"><path d="M111.222 76.923s.77.637-2.775.373a3.105 3.105 0 0 1-1.519-2.177c-.125-.974 3.851-.862 4.294 1.804z" data-name="Path 3817"/><path stroke-width="2" d="M111.219 76.923c-.017-.144-.268-2.073-1.684-2.668a2.05 2.05 0 0 0-1.23-.147c-.789.171-1.455.893-1.391 1a.029.029 0 0 0 .012.011s.7-1.457 1.331 1.783a10.037 10.037 0 0 0 2.962.021z" data-name="Path 3818"/></g><g data-name="Group 1421"><path d="M93.6 57.183a6.659 6.659 0 0 1 2.111.685.252.252 0 0 0 .367-.149l.475-2.14c.07-.313-.412-.447-.481-.133l-.474 2.14.367-.149a7.06 7.06 0 0 0-2.23-.736c-.314-.048-.45.433-.133.481z" data-name="Path 3819"/></g><g data-name="Group 1453"><g data-name="Group 1427"><g fill="#a12545" data-name="Group 1422"><path d="M121.2 75.418l-3.331.045 9.371 50.054s.452 1.281 1.463 1.257c0 0 1.043.221.561-1.455z" data-name="Path 3820"/><path d="M117.869 75.463l9.371 50.054s.452 1.281 1.463 1.257c0 0 .854.177.655-1.037a.935.935 0 0 1-.264.394c-.443.333-.96 0-1.284-.606l-8.481-50.082z" data-name="Path 3821" style="mix-blend-mode:multiply;isolation:isolate"/></g><g fill="#a12545" data-name="Group 1423"><path d="M140.376 79.275l-3.749.161 11.947 55.971s.544 1.426 1.683 1.364c0 0 1.181.214.591-1.655z" data-name="Path 3822"/><path d="M136.624 79.437l11.947 55.971s.544 1.426 1.683 1.365c0 0 .966.171.708-1.187a1.056 1.056 0 0 1-.286.452c-.49.389-1.081.033-1.462-.638l-10.946-56.033z" data-name="Path 3823" style="mix-blend-mode:multiply;isolation:isolate"/></g><g data-name="Group 1424" style="mix-blend-mode:multiply;isolation:isolate" fill="#a12545"><path d="M28.654 75.418l3.315.331-13.634 49.064s-.56 1.238-1.566 1.126c0 0-1.058.131-.434-1.5z" data-name="Path 3824"/><path d="M31.969 75.748l-13.634 49.064s-.56 1.238-1.566 1.126c0 0-.866.1-.563-1.089a.931.931 0 0 0 .229.415c.413.37.956.084 1.331-.493l12.75-49.169z" data-name="Path 3825" style="mix-blend-mode:multiply;isolation:isolate"/></g><g fill="#a12545" data-name="Group 1425"><path d="M52.718 78.977l3.749.161L44.51 135.4s-.545 1.433-1.683 1.372c0 0-1.181.215-.591-1.663z" data-name="Path 3826"/><path d="M56.467 79.139L44.51 135.401s-.545 1.433-1.683 1.372c0 0-.967.172-.708-1.193a1.061 1.061 0 0 0 .286.454c.49.391 1.081.033 1.462-.642l10.956-56.323z" data-name="Path 3827" style="mix-blend-mode:multiply;isolation:isolate"/></g><g data-name="Group 1426"><path fill="#7b112e" d="M153.502 79.423H50.121V78.35h103.381z" data-name="Rectangle 171"/><path fill="url(#c)" d="M1590.179 1707.172l100.514.019 32.687 5.477h-103.157z" data-name="Path 3828" transform="translate(-1569.941 -1634.285)"/><path fill="#a12545" d="M20.215 72.839c10 1.825 19.947 3.7 29.948 5.526 0 .362-.042.687-.037 1.049-10.013-1.9-19.919-3.815-29.932-5.716l.021-.859z" data-name="Path 3829"/><path fill="#2b337c" d="M85.784 73.019h34.915v6.293H85.784z" data-name="Rectangle 172" opacity=".4"/><path fill="#2b337c" d="M134.844 79.46H130v-4.97l4.835.775z" data-name="Path 3830" opacity=".4"/></g></g><g data-name="Group 1452"><g data-name="Group 1447"><g data-name="Group 1443"><g data-name="Group 1429"><g data-name="Group 1428"><path fill="#e7515b" d="M46.486 41.556c.689-.03 1.334 1.35 1.569 2.26a5.806 5.806 0 0 1-.084 2.8 10.946 10.946 0 0 1-2.92 4.785c-2.409-3.013-2.465-4.54-2.066-5.378.284-.6.678-.589 1.592-1.757 1.278-1.636 1.314-2.684 1.909-2.71z" data-name="Path 3831"/></g></g><g data-name="Group 1431"><g data-name="Group 1430"><path fill="#e7515b" d="M46.467 54.581a2.241 2.241 0 0 1 1.292-2.718c.529-.1.748.362 1.429.255.775-.121.885-.786 1.593-.826.609-.034 1.233.417 1.213.724-.019.286-.584.255-.939.76s-.083.933-.257 1.362c-.454 1.123-3.671 1.569-4.331.443z" data-name="Path 3832"/></g></g><g data-name="Group 1434"><g data-name="Group 1433"><g data-name="Group 1432"><path fill="#263238" d="M44.186 58.536a5.92 5.92 0 0 1 .343-1.156 5.6 5.6 0 0 1 .6-1.174 12.313 12.313 0 0 1 .945-1.3 6 6 0 0 1 2.356-1.717 4.331 4.331 0 0 1 .86-.226.96.96 0 0 1 .326-.013c.006.036-.456.084-1.131.373a6.436 6.436 0 0 0-2.256 1.717 14.382 14.382 0 0 0-.942 1.272 6.162 6.162 0 0 0-.623 1.124 8.7 8.7 0 0 1-.478 1.1z" data-name="Path 3833"/></g></g></g><g data-name="Group 1437"><g data-name="Group 1436"><g data-name="Group 1435"><path fill="#263238" d="M45.765 44.213a3.491 3.491 0 0 1-.01.61c-.02.392-.056.958-.107 1.658-.1 1.4-.265 3.33-.5 5.458s-.5 4.05-.719 5.435c-.081.506-.067.38-.28 1.638-.591 3.48-.77 4.776-.8 4.772s.2-2.171.638-4.776c.157-.931.169-.9.295-1.655.2-1.2.317-2.1.658-5.437l.557-5.448.172-1.652a3.475 3.475 0 0 1 .096-.603z" data-name="Path 3834"/></g></g></g><g data-name="Group 1439"><g data-name="Group 1438"><path fill="#e7515b" d="M44.097 55.006c.721-1.033-1.412-4.291-3.938-5.052-.086-.026-1.342-.395-1.6.01-.185.295.33.734.688 1.717.441 1.21.069 1.661.384 2.306.698 1.417 3.824 1.937 4.466 1.019z" data-name="Path 3835"/></g></g><g data-name="Group 1442"><g data-name="Group 1441"><g data-name="Group 1440"><path fill="#263238" d="M40.555 51.562a.983.983 0 0 1 .289.141c.18.1.431.261.736.469a7.909 7.909 0 0 1 2.059 2.019 4.954 4.954 0 0 1 .656 1.462 4.831 4.831 0 0 1 .041 2.17.973.973 0 0 1-.088.309c-.041-.007.054-.455.046-1.18a5.183 5.183 0 0 0-.18-1.25 5.094 5.094 0 0 0-.645-1.4 8.9 8.9 0 0 0-1.974-2.015 10.187 10.187 0 0 1-.94-.725z" data-name="Path 3836"/></g></g></g></g><g data-name="Group 1446"><g data-name="Group 1445"><g data-name="Group 1444"><path fill="url(#a)" d="M1805.255 1600.994c-2.08 0-3.767-3.027-3.767-6.762v-6.761h7.534v6.761c0 3.735-1.687 6.762-3.767 6.762z" data-name="Path 3837" transform="translate(-1761.907 -1525.543)"/></g></g><path fill="#fff" d="M39.526 63.921h7.631v.329h-7.631z" data-name="Rectangle 173"/><path fill="#fff" d="M39.581 65.019h7.631v.329h-7.631z" data-name="Rectangle 174"/></g></g><path fill="#ee4223" d="M83.134 76.494H63.158l-11.712-3.125h16.527z" data-name="Path 3838"/><path fill="#e78663" d="M78.497 76.897H58.521l-11.712-3.125h16.527z" data-name="Path 3839"/><path fill="#fff7d0" d="M80.042 78.309H59.505L47.463 74.78h16.993z" data-name="Path 3840"/><g data-name="Group 1449"><g data-name="Group 1448"><path fill="#ee4223" d="M45.109 75.652l12.049-.1-2.576-4.738-11.554-.075-2.616 3.955z" data-name="Path 3841"/></g></g><path fill="#2b337c" d="M43.028 70.723l-2.616 3.955 4.7.959z" data-name="Path 3842"/><g data-name="Group 1451"><g fill="#231f20" data-name="Group 1450"><path d="M48.687 74.75c-.563.006-.893.014-1.361.02-.1-.243-.146-.374-.253-.649l.169-.008c-.238-.6-.37-.941-.643-1.653h-.16c-.123-.329-.187-.5-.314-.846.385.006.8.016 1.408.021l.294.794h-.182l.188.5c.263-.009.4-.014.619-.025l-.183-.489-.162.006a77.456 77.456 0 0 1-.289-.785c.555 0 .657-.012 1.188-.005.136.342.2.5.324.819l-.191-.012c.27.682.393 1 .621 1.605h.18c.1.277.15.412.244.681-.487.019-.683.014-1.225.017a41.147 41.147 0 0 0-.245-.691l.163-.006c-.071-.2-.108-.3-.183-.5-.225.011-.355.016-.614.027.077.2.114.3.186.494l.175-.006.246.691z" data-name="Path 3843"/><path d="M51.778 74.713c-.62.006-.792-.012-1.294.006-.09-.266-.136-.4-.232-.668h.194c-.2-.581-.309-.872-.575-1.563l-.206-.014a64.463 64.463 0 0 0-.328-.835c.55.008.674.006 1.213.007.121 0 .243 0 .359.01s.218.015.3.026a2.4 2.4 0 0 1 .242.043 1.37 1.37 0 0 1 .58.3 1.64 1.64 0 0 1 .418.545 1 1 0 0 1 .117.441.361.361 0 0 1-.135.3c.269.266.4.4.656.672h.161c.133.293.2.438.324.721-.32-.016-.551-.012-.995 0-.455-.46-.679-.68-1.1-1.134l-.319.023c.073.193.108.286.176.471l.2-.009c.099.263.144.393.244.658zm-1.074-2.27c.106.258.154.379.246.611l.1-.01a1.914 1.914 0 0 0 .293-.042.168.168 0 0 0 .112-.1.257.257 0 0 0-.02-.2.476.476 0 0 0-.146-.193.388.388 0 0 0-.193-.083 1.962 1.962 0 0 0-.313.007z" data-name="Path 3844"/></g></g></g></g><g data-name="Group 1538"><g data-name="Group 1456"><path fill="url(#d)" d="M0 0h1.579v31.93H0z" data-name="Rectangle 175" transform="rotate(-168.52 64.293 44.64)"/><path fill="url(#a)" d="M0 0h34.284v3.446H0z" data-name="Rectangle 176" transform="rotate(-180 59.394 51.773)"/><g fill="url(#a)" data-name="Group 1454" transform="translate(115.346 103.65)"><path d="M1.925 0L0 .11l6.361 30.608s.285.777.87.738c0 0 .607.112.3-.91z" data-name="Path 3845"/><path d="M0 .11l6.361 30.607s.285.778.87.738c0 0 .5.089.359-.654a.588.588 0 0 1-.145.248c-.25.216-.555.026-.754-.34L.844.061z" data-name="Path 3846" style="mix-blend-mode:multiply;isolation:isolate"/></g><g fill="url(#a)" data-name="Group 1455" transform="translate(80.392 103.42)"><path d="M5.691 0l1.925.11-6.361 30.607s-.285.778-.87.738c0 0-.607.112-.3-.909z" data-name="Path 3847"/><path d="M7.616.11L1.255 30.718s-.285.778-.87.738c0 0-.5.089-.359-.654a.583.583 0 0 0 .145.248c.25.216.555.026.754-.34L6.772.062z" data-name="Path 3848" style="mix-blend-mode:multiply;isolation:isolate"/></g></g><g data-name="Group 1521"><g data-name="Group 1478" transform="translate(75.252 29.791)"><path fill="#fff7d0" d="M25.933 27.916l-20.842 3.8L0 3.8 20.842 0z" data-name="Rectangle 177"/><path fill="#5e6fb3" d="M22.718 10.285l-20.842 3.8L0 3.8 20.842 0z" data-name="Rectangle 178"/><circle cx="3.196" cy="3.196" r="3.196" fill="#2b337c" data-name="Ellipse 79" transform="rotate(-63.975 9.182 3.237)"/><path fill="#2b337c" d="M5.098 31.724l20.849-3.786-.266-1.4-20.826 3.867z" data-name="Path 3849"/><g data-name="Group 1468"><g fill="none" stroke="#2b337c" stroke-miterlimit="10" data-name="Group 1458"><path d="M5.107 21.219l17.195-3.118.689 3.802-17.195 3.118z" data-name="Rectangle 179"/><g data-name="Group 1457"><path d="M6.205 22.052l15.537-2.818" data-name="Line 52"/><path d="M6.387 23.057l15.537-2.818" data-name="Line 53"/><path d="M6.569 24.061l15.537-2.818" data-name="Line 54"/></g></g><g data-name="Group 1467"><g data-name="Group 1461"><g fill="none" stroke="#2b337c" stroke-miterlimit="10" data-name="Group 1460"><path d="M11.201 14.864l-6.555 1.189a.468.468 0 0 1-.544-.377h0a.468.468 0 0 1 .377-.544l6.555-1.189a.468.468 0 0 1 .544.377h0a.468.468 0 0 1-.377.544z" data-name="Path 3850"/><g data-name="Group 1459"><path d="M4.781 16.735l6.344-1.15" data-name="Line 55"/><path d="M4.935 17.583l6.344-1.15" data-name="Line 56"/><path d="M5.089 18.432l6.344-1.15" data-name="Line 57"/></g></g></g><g data-name="Group 1466"><g data-name="Group 1465"><path fill="#2b337c" d="M19.585 4.882l-5.413.982a.387.387 0 0 1-.449-.312.387.387 0 0 1 .311-.449l5.413-.982a.387.387 0 0 1 .449.311.387.387 0 0 1-.311.45z" data-name="Path 3851"/><g fill="none" stroke="#2b337c" stroke-miterlimit="10" data-name="Group 1464"><g data-name="Group 1462"><path d="M14.283 6.428l5.239-.95" data-name="Line 58"/><path d="M14.41 7.129l5.239-.95" data-name="Line 59"/><path d="M14.537 7.829l5.239-.95" data-name="Line 60"/></g><g data-name="Group 1463"><path d="M14.669 8.555l5.239-.95" data-name="Line 61"/><path d="M14.796 9.256l5.239-.95" data-name="Line 62"/><path d="M14.923 9.956l5.239-.95" data-name="Line 63"/></g></g></g><path fill="none" stroke="#2b337c" stroke-miterlimit="10" d="M10.029 8.053l1.629-1.914 1.7-.308" data-name="Path 3852"/></g></g></g><g data-name="Group 1477" transform="translate(3.379 5.458)"><g clip-path="url(#e)" data-name="Group 1476"><g data-name="Group 1475" transform="translate(.863 .471)"><path fill="#fff" stroke="#000" stroke-miterlimit="10" stroke-width=".25" d="M2.983 2.147l-.607-.872c-.143.06-1.544.627-2.116.065-.061-.06-.313-.308-.251-.562A.555.555 0 0 1 .337.452a1.259 1.259 0 0 1 .751.006h0S.853.242.915.103a.164.164 0 0 1 .088-.077c.248-.112.786.173.873.22a2.009 2.009 0 0 1 1.663.45 1.637 1.637 0 0 1 .422.672 2.33 2.33 0 0 1-.981 2.319l.16-1.307z" data-name="Path 3853"/><path fill="#fff" stroke="#000" stroke-miterlimit="10" stroke-width=".25" d="M1.389 3.221a4.393 4.393 0 0 1-.362-1.376c-.023-.187-.031-.31-.031-.31a3.4 3.4 0 0 0 .926-.091 1.588 1.588 0 0 0 .452-.2 1.877 1.877 0 0 0 .833.694s.392-.32.649-.033a.484.484 0 0 1-.188.765.593.593 0 0 1-.445-.135s.219.853-.245 1.122v.042a.8.8 0 0 0 .159.7c.281.332.842.245.849.315a2.471 2.471 0 0 1-1.587.276 2.31 2.31 0 0 1-1.371-.43c.005-.029.15-.06.439-.122a.917.917 0 0 0 .355-.112.648.648 0 0 0 .2-.223.881.881 0 0 0 .113-.319 1.062 1.062 0 0 1-.746-.563z" data-name="Path 3854"/><path fill="#fff" stroke="#000" stroke-miterlimit="10" stroke-width=".25" d="M1.839 4.197s.139.515.525.49a.864.864 0 0 0 .826-.582 4.7 4.7 0 0 1 .977.167c.229.88.444 1.808.635 2.784q.154.786.275 1.539a9.019 9.019 0 0 1-3.051.9l-.471-1.421-.429-1.3q.007-.5 0-1.022-.005-.645-.025-1.263a3.793 3.793 0 0 1 .4-.184c.12-.04.233-.078.338-.108z" data-name="Path 3855"/><path fill="#fff" stroke="#000" stroke-miterlimit="10" stroke-width=".25" d="M4.927 7.562a.72.72 0 0 0 .045-.194 8.019 8.019 0 0 0 .011-1.482C4.831 4.652 4.2 4.131 4.028 4.34a1.158 1.158 0 0 0-.265.679 6.963 6.963 0 0 0 .425 2.328c-.167.335.7.36.739.215z" data-name="Path 3856"/><path fill="#fff" stroke="#000" stroke-miterlimit="10" stroke-width=".25" d="M2.462 4.328l.337.476.611-.594a1.451 1.451 0 0 1-.273-.2 1.417 1.417 0 0 1-.161-.173l-.49.328-.354-.358a1.541 1.541 0 0 1-.387.45l.358.6z" data-name="Path 3857"/><rect width=".054" height="1.818" fill="#fff" stroke="#000" stroke-miterlimit="10" stroke-width=".25" data-name="Rectangle 180" rx=".027" transform="rotate(-11.123 39.856 -9.736)"/><g fill="#fff" stroke="#000" stroke-miterlimit="10" stroke-width=".25" data-name="Group 1469"><path d="M2.756 5.095a.7.7 0 0 1-.387.078c-.144.613-.272 2.084-.272 2.084a2.387 2.387 0 0 0 .672.655 3.616 3.616 0 0 0 .582-.909 14.364 14.364 0 0 0-.595-1.908z" data-name="Path 3858"/><path d="M2.756 5.094l.091-.314-.393-.431-.341.495a.8.8 0 0 0 .166.249.783.783 0 0 0 .091.079.7.7 0 0 0 .386-.078z" data-name="Path 3859"/></g><g data-name="Group 1470"><path fill="#fff" stroke="#000" stroke-miterlimit="10" stroke-width=".25" d="M1.08 4.49a1.545 1.545 0 0 0-.458.639 8.45 8.45 0 0 0-.1 1.7c-.012.141-.027.255-.036.325a1.19 1.19 0 0 0 .608.492c.125.033.334.142.454.047a.343.343 0 0 0 .084-.27c.008-.2.024-.479.063-.849a3.145 3.145 0 0 0-.264-1.49 3.041 3.041 0 0 0-.351-.594z" data-name="Path 3860"/></g><g data-name="Group 1474" transform="translate(1.17 1.489)"><path fill="#fff" stroke="#000" stroke-miterlimit="10" stroke-width=".25" d="M.842.766l.073.41s-.161.015-.149.128.072.135.072.135-.177.01-.181-.147a.214.214 0 0 1 .149-.2z" data-name="Path 3861"/><path fill="#fff" stroke="#000" stroke-miterlimit="10" stroke-width=".25" d="M2.31.615a.172.172 0 0 1 .064.125.128.128 0 0 1-.066.107s.128.028.144-.092-.142-.14-.142-.14z" data-name="Path 3862"/><path fill="#fff" stroke="#000" stroke-miterlimit="10" stroke-width=".25" d="M1.525.21c-.031.051-.135.062-.234-.025s-.1-.165-.035-.184.3.159.269.209z" data-name="Path 3863"/><path fill="#fff" stroke="#000" stroke-miterlimit="10" stroke-width=".25" d="M.262.199C.304.241.293.344.186.421S.003.481-.001.414.22.16.262.199z" data-name="Path 3864"/><ellipse cx=".085" cy=".15" fill="#fff" stroke="#000" stroke-miterlimit="10" stroke-width=".25" data-name="Ellipse 80" rx=".085" ry=".15" transform="rotate(-6.226 6.48 -3.198)"/><ellipse cx=".085" cy=".15" fill="#fff" stroke="#000" stroke-miterlimit="10" stroke-width=".25" data-name="Ellipse 81" rx=".085" ry=".15" transform="rotate(-14.641 2.92 -4.226)"/><g data-name="Group 1472"><path fill="#fff" d="M.865 1.719s.086.148.2.137a.231.231 0 0 0 .17-.259z" data-name="Path 3865"/><g data-name="Group 1471"><path d="M.817 1.709a.336.336 0 0 0 .237.165.224.224 0 0 0 .231-.263c0-.027-.073-.038-.093-.032l-.374.122c-.016.005.026.026.029.027a.1.1 0 0 0 .062.008l.374-.122-.093-.032a.248.248 0 0 1-.107.237c-.076.042-.135-.029-.171-.09-.015-.023-.101-.029-.095-.02z" data-name="Path 3866"/></g></g><g fill="none" stroke="#000" stroke-miterlimit="10" stroke-width=".25" data-name="Group 1473" transform="translate(.049 .323)"><path d="M1.724.356a.39.39 0 1 1-.463-.35.412.412 0 0 1 .463.35z" data-name="Path 3867"/><ellipse cx=".319" cy=".387" data-name="Ellipse 82" rx=".319" ry=".387" transform="rotate(-11.19 1.262 .124)"/><path d="M.713.618A.284.284 0 0 1 .982.594" data-name="Path 3868"/></g></g></g></g><circle cx="3.14" cy="3.14" r="3.14" fill="none" stroke="#000" stroke-miterlimit="10" data-name="Ellipse 84"/></g></g><g data-name="Group 1500" transform="translate(55.417 38.609)"><path fill="#fff7d0" d="M35.219 19.258l-14.378 15.56L-.001 15.56 14.377 0z" data-name="Rectangle 181"/><path fill="#f7ada3" d="M22.057 7.095L7.679 22.655 0 15.56 14.378 0z" data-name="Rectangle 182"/><circle cx="3.196" cy="3.196" r="3.196" fill="#ee4223" data-name="Ellipse 85" transform="rotate(-10.902 70.003 -16.325)"/><path fill="#ee4223" d="M20.851 34.819l14.393-15.553-1.055-.961-14.325 15.6z" data-name="Path 3869"/><g data-name="Group 1490"><g fill="none" stroke="#ee4223" stroke-miterlimit="10" data-name="Group 1480"><path d="M14.547 26.417l11.872-12.823 2.835 2.625-11.872 12.823z" data-name="Rectangle 183"/><g data-name="Group 1479"><path d="M15.925 26.422l10.728-11.587" data-name="Line 64"/><path d="M16.674 27.116l10.728-11.587" data-name="Line 65"/><path d="M17.423 27.809l10.728-11.587" data-name="Line 66"/></g></g><g data-name="Group 1489"><g data-name="Group 1483"><g data-name="Group 1482"><path fill="#f7ada3" d="M15.601 17.674l-4.526 4.888a.468.468 0 0 1-.662.025.468.468 0 0 1-.025-.662l4.526-4.888a.468.468 0 0 1 .661-.026.468.468 0 0 1 .026.663z" data-name="Path 3870"/><g fill="none" stroke="#ee4223" stroke-miterlimit="10" data-name="Group 1481"><path d="M11.593 23.027l4.381-4.731" data-name="Line 67"/><path d="M12.226 23.613l4.381-4.731" data-name="Line 68"/><path d="M12.858 24.199l4.381-4.731" data-name="Line 69"/></g></g></g><g fill="none" stroke="#ee4223" stroke-miterlimit="10" data-name="Group 1488"><g data-name="Group 1487"><path d="M16.306 4.66l-3.738 4.037a.387.387 0 0 1-.546.021h0a.387.387 0 0 1-.021-.546l3.737-4.037a.387.387 0 0 1 .546-.021h0a.387.387 0 0 1 .022.546z" data-name="Path 3871"/><g data-name="Group 1486"><g data-name="Group 1484"><path d="M12.996 9.079l3.617-3.907" data-name="Line 70"/><path d="M13.518 9.563l3.617-3.907" data-name="Line 71"/><path d="M14.041 10.046l3.617-3.907" data-name="Line 72"/></g><g data-name="Group 1485"><path d="M14.582 10.548l3.617-3.907" data-name="Line 73"/><path d="M15.105 11.032l3.617-3.907" data-name="Line 74"/><path d="M15.627 11.515l3.617-3.907" data-name="Line 75"/></g></g></g><path d="M10.572 12.935l.152-2.509 1.171-1.265" data-name="Path 3872"/></g></g></g><g data-name="Group 1499"><g clip-path="url(#f)" data-name="Group 1498" transform="translate(4.954 12.339)"><g data-name="Group 1497"><path fill="#fdc052" d="M.615 1.867A1.433 1.433 0 0 0 1 3.681c.566.516.924.353 1.442.722.746.532.524 1.288 1.063 1.407a1.9 1.9 0 0 0 1.618-.959 5.046 5.046 0 0 0 .708-1.776 2.584 2.584 0 0 0-.072-.581 2.387 2.387 0 0 0-.194-.492c-.2-.355-.66-.516-1.333-.678a5.215 5.215 0 0 0-2.285-.291 1.892 1.892 0 0 0-1.332.834z" data-name="Path 3873"/><path fill="#eca521" d="M.698 2.588a4.609 4.609 0 0 1 2.977-.8c.487.052 1.183.067 1.477.6.187.339.388 2.349-.57 2.708s-.995.163-1.416-.223-.5-.622-.888-.754a3.2 3.2 0 0 1-.649-.272 2.23 2.23 0 0 1-.431-.338 2.03 2.03 0 0 1-.5-.921z" data-name="Path 3874"/><path fill="#fff" fill-rule="evenodd" stroke="#000" stroke-miterlimit="10" stroke-width=".5" d="M3.067 4.642h0c-.195.275.176.841.558 1.412.44.659.669.813.845.9a1.607 1.607 0 0 0 .4.134V6.97c-.058-1.337-1.307-2.6-1.7-2.424a.206.206 0 0 0-.103.096z" data-name="Path 3875"/><g fill="#2b337c" stroke="#000" stroke-miterlimit="10" stroke-width=".5" data-name="Group 1491"><path d="M7.599 4.74a.032.032 0 0 0-.009-.014 2.338 2.338 0 0 1-.848-.357h0c-.91-.638-1.587-1.105-1.855-1.3a.686.686 0 0 0-.434-.167.337.337 0 0 0-.058.01.4.4 0 0 0-.121.057c-.061.042-.26.2-.521.421a.644.644 0 0 1 .076.521.457.457 0 0 1-.278.317.428.428 0 0 1-.341-.059 1.107 1.107 0 0 0-.093.178.464.464 0 0 0-.055.3.287.287 0 0 0 .076.125 2.39 2.39 0 0 1 .3.4c.474.728.707.8.9.806.087 0 .553.039.622.061a3.662 3.662 0 0 1 .546.108 3.857 3.857 0 0 1 .807.328 3.567 3.567 0 0 0 .107 3.226c.128.229 1.623 1.924 2.111 2.411.335-.337 2.471-2.513 2.02-3.174-.069-.1-.2-.163-.451-.287a3.5 3.5 0 0 0-1.334-.344l.07-.1.668-1.161a1.714 1.714 0 0 0 .265-1.138 1.343 1.343 0 0 0-.593-.856 9.109 9.109 0 0 0-1.577-.312z" data-name="Path 3876"/><path d="M7.591 4.725a.216.216 0 0 1-.08-.005 2.645 2.645 0 0 1-1.21 1.74l.011.006a3.566 3.566 0 0 0 .107 3.226c.128.229 1.623 1.924 2.111 2.411.335-.337 2.471-2.513 2.02-3.174-.069-.1-.2-.163-.451-.287a3.507 3.507 0 0 0-1.334-.344l.069-.1.668-1.161a1.714 1.714 0 0 0 .264-1.138 1.342 1.342 0 0 0-.592-.856 9.129 9.129 0 0 0-1.575-.3.032.032 0 0 0-.008-.018z" data-name="Path 3877"/><path d="M7.598 4.738c-.013.043-.039.129-.077.235a.617.617 0 0 1-.029.067c.036-.1.071-.2.1-.3a3.57 3.57 0 0 1-.771-.315c-.066-.037-.148-.085-.756-.515-.279-.2-.365-.26-.527-.374-.193-.136-.457-.32-.776-.537a.483.483 0 0 0-.379-.083h-.007a1.585 1.585 0 0 0-.21.182 2.032 2.032 0 0 0 1.258 1.617c.778.342 1.542.129 1.725.551a.46.46 0 0 1 .033.227c-.358.447-.857.933-.864.987s.051.109.1.128c.329.13 1.1-1.321 1.4-1.193a.19.19 0 0 1 .076.083.618.618 0 0 1-.009.507c-.26.8-.635 1.91-.372 2.367.436.759 2.449.076 2.828.831a1.044 1.044 0 0 1-.157.917c.058-.072.611-.771.364-1.193-.063-.109-.177-.154-.451-.287a3.505 3.505 0 0 0-1.334-.344l.069-.1.668-1.161a1.715 1.715 0 0 0 .264-1.138 1.342 1.342 0 0 0-.592-.856 9.169 9.169 0 0 0-1.574-.303z" data-name="Path 3878"/></g><path fill="#fff" fill-rule="evenodd" stroke="#000" stroke-miterlimit="10" stroke-width=".5" d="M3.219 2.509a1.085 1.085 0 0 1 .119.78.356.356 0 0 0 .137.105.3.3 0 0 0 .277-.02.742.742 0 0 1 .086.586.46.46 0 0 1-.16.228.35.35 0 0 1-.171.071.575.575 0 0 1-.241-.042h0a.676.676 0 0 0-.4-.289.935.935 0 0 1-.44.145 1.139 1.139 0 0 1-.682-.311l-.556-.552c-.446-.652.231-.852.231-.852 1.644.511 1.56-.042 1.56-.042-.29-.291-.034-.613.243-.28.021.025.168.174.113.334a.276.276 0 0 1-.116.139z" data-name="Path 3879"/><g data-name="Group 1492"><path fill="#2b337c" d="M1.722 3.155a.126.126 0 0 1 .084.152c-.023.046-.114.049-.171.013-.041-.026-.086-.087-.062-.134a.113.113 0 0 1 .149-.031z" data-name="Path 3880"/><path fill="#2b337c" d="M2.158 2.605a.126.126 0 0 1 .084.152c-.023.046-.115.049-.171.013-.041-.026-.086-.087-.062-.134a.113.113 0 0 1 .149-.031z" data-name="Path 3881"/><path fill="#fff" stroke="#000" stroke-miterlimit="10" stroke-width=".5" d="M2.107 3.488a.464.464 0 0 0 .2.118h0a.237.237 0 0 1-.074.029.178.178 0 0 1-.157-.036.16.16 0 0 1-.033-.095c-.005-.031.04-.04.064-.016z" data-name="Path 3882" opacity=".4"/><path fill="#fff" stroke="#000" stroke-miterlimit="10" stroke-width=".5" d="M2.584 3.588a.311.311 0 0 1 .025-.127.36.36 0 0 1 .068-.1.471.471 0 0 1 .083-.072.2.2 0 0 1 .024.107.224.224 0 0 1-.043.114.16.16 0 0 1-.067.07.135.135 0 0 1-.09.008z" data-name="Path 3883"/><path fill="#2b337c" d="M1.244 3.146c.05.024.137-.018.172-.136s0-.179-.064-.162-.158.274-.108.298z" data-name="Path 3884"/><path fill="#2b337c" d="M1.716 2.372c.006.055.088.106.206.073s.149-.1.1-.14-.312.012-.306.067z" data-name="Path 3885"/><path fill="#fff" stroke="#000" stroke-miterlimit="10" stroke-width=".5" d="M3.11 2.302a.213.213 0 0 0-.047-.145.159.159 0 0 0-.11-.06.14.14 0 0 1 .164.025c.097.073-.007.18-.007.18z" data-name="Path 3886" opacity=".4"/></g><g data-name="Group 1494"><g data-name="Group 1493"><path fill="#fff" fill-rule="evenodd" stroke="#000" stroke-miterlimit="10" stroke-width=".5" d="M4.267 2.967a2.1 2.1 0 0 1 1.381.105c1.124.4 1.4.692 1.4.985s-1.512.99-1.85 1.137a.145.145 0 0 0 .146.148c.147.005.011.2-.094.229a.387.387 0 0 1-.315-.092c-.1-.072.007-.48.007-.48s.682-.652 1.025-.968c0 0-.411-.07-.65-.082a1.1 1.1 0 0 1-1.05-.982z" data-name="Path 3887"/></g></g><path fill="#fdc052" d="M.811 2.045c-.088.173-.18.5-.031.638a.288.288 0 0 0 .185.065c.323.024.458-.294.74-.287.015 0 .089.012.238.035.22.034.274.048.344.057h.06a2.265 2.265 0 0 0 .523-.052c.3-.089.362-.367.675-.549a1.3 1.3 0 0 1 1.208.019 1.376 1.376 0 0 1 .6.643 1.466 1.466 0 0 0-.321-.665 2.154 2.154 0 0 0-1.568-.559c-.114-.007-.455.015-1.136.06a6.687 6.687 0 0 0-.789.1 2.365 2.365 0 0 0-.16.032.934.934 0 0 0-.568.463z" data-name="Path 3888"/><g data-name="Group 1495"><path fill="#eca521" d="M.664 2.152a.359.359 0 0 0 .158.166.518.518 0 0 0 .227.06 1.19 1.19 0 0 0 .455-.089 2.632 2.632 0 0 1 .435-.118.722.722 0 0 1 .221 0 .37.37 0 0 1 .2.094.357.357 0 0 0-.193-.125.672.672 0 0 0-.234-.016 1.947 1.947 0 0 0-.449.109c-.073.025-.143.051-.215.07a.93.93 0 0 1-.219.031.531.531 0 0 1-.216-.039.373.373 0 0 1-.17-.143z" data-name="Path 3889"/></g><g data-name="Group 1496"><path fill="#eca521" d="M1.431 2.002c.264.012.524-.011.779.007a1.439 1.439 0 0 1 .371.065.638.638 0 0 1 .309.213.526.526 0 0 0-.28-.282 1.11 1.11 0 0 0-.394-.091 2.648 2.648 0 0 0-.785.088z" data-name="Path 3890"/></g><path fill="#fff" fill-rule="evenodd" stroke="#000" stroke-miterlimit="10" stroke-width=".5" d="M4.786 5.222a4.752 4.752 0 0 0-.187 1.016c.009.236.027.559.062.825a.384.384 0 0 0 .1-.014c.416-.119.621-1.008.534-2.145a.21.21 0 0 1 .236.064c.088.119.216-.067.185-.164a.449.449 0 0 0-.274-.225c-.129-.052-.495.188-.495.188a4.671 4.671 0 0 0-.161.455z" data-name="Path 3891"/></g></g></g></g><g data-name="Group 1520" transform="translate(62.079 31.159)"><path fill="#2b337c" d="M34.349 24.404L14.936 36.285 0 11.881 19.413 0z" data-name="Rectangle 184" opacity=".32"/><path fill="#fff" d="M33.383 24.924l-18.072 11.06L.5 11.777 18.57.718z" data-name="Rectangle 185"/><path fill="#e39bc3" d="M24.028 9.637L5.956 20.697.5 11.777 18.57.718z" data-name="Rectangle 186"/><circle cx="3.196" cy="3.196" r="3.196" fill="#b75aa1" data-name="Ellipse 87" transform="rotate(-85.108 11.585 5.764)"/><path fill="#b75aa1" d="M15.322 35.991l18.083-11.048-.754-1.212L14.62 34.847z" data-name="Path 3892"/><g data-name="Group 1511"><g fill="none" stroke="#b75aa1" stroke-miterlimit="10" data-name="Group 1502"><path d="M11.544 26.185l14.914-9.108 2.014 3.298-14.914 9.108z" data-name="Rectangle 187"/><g data-name="Group 1501"><path d="M12.869 26.566l13.477-8.23" data-name="Line 76"/><path d="M13.401 27.437l13.477-8.23" data-name="Line 77"/><path d="M13.933 28.309l13.477-8.23" data-name="Line 78"/></g></g><g data-name="Group 1505"><g data-name="Group 1504"><path fill="#b75aa1" d="M14.937 18.061l-5.686 3.472a.468.468 0 0 1-.644-.156.468.468 0 0 1 .156-.644l5.686-3.472a.468.468 0 0 1 .644.156.469.469 0 0 1-.156.644z" data-name="Path 3893"/><g fill="none" stroke="#b75aa1" stroke-miterlimit="10" data-name="Group 1503"><path d="M9.624 22.12l5.503-3.36" data-name="Line 79"/><path d="M10.073 22.856l5.503-3.36" data-name="Line 80"/><path d="M10.523 23.592l5.503-3.36" data-name="Line 81"/></g></g></g><g data-name="Group 1510"><g data-name="Group 1509"><path fill="#b75aa1" d="M19.163 5.728l-4.695 2.867a.387.387 0 0 1-.531-.128.386.386 0 0 1 .128-.531l4.7-2.867a.386.386 0 0 1 .531.128.387.387 0 0 1-.133.531z" data-name="Path 3894"/><g fill="none" stroke="#b75aa1" stroke-miterlimit="10" data-name="Group 1508"><g data-name="Group 1506"><path d="M14.771 9.081l4.544-2.775" data-name="Line 82"/><path d="M15.142 9.689l4.544-2.775" data-name="Line 83"/><path d="M15.513 10.296l4.544-2.775" data-name="Line 84"/></g><g data-name="Group 1507"><path d="M15.898 10.926l4.544-2.775" data-name="Line 85"/><path d="M16.269 11.534l4.544-2.775" data-name="Line 86"/><path d="M16.64 12.141l4.544-2.775" data-name="Line 87"/></g></g></g><path fill="none" stroke="#b75aa1" stroke-miterlimit="10" d="M11.389 12.13l.829-2.373 1.471-.9" data-name="Path 3895"/></g></g><g data-name="Group 1519"><g clip-path="url(#f)" data-name="Group 1518" transform="translate(5.17 10.764)"><g data-name="Group 1517" transform="translate(.341 .72)"><path fill="#2b337c" d="M3.27 1.679l-.88-.594c-.112.107-1.214 1.142-1.95.824-.078-.034-.4-.174-.437-.434a.554.554 0 0 1 .189-.422 1.26 1.26 0 0 1 .7-.266S.592.67.603.518a.163.163 0 0 1 .054-.1c.19-.194.8-.122.893-.11a2.01 2.01 0 0 1 1.714-.18A1.638 1.638 0 0 1 3.9.602a2.329 2.329 0 0 1-.079 2.517l-.322-1.277z" data-name="Path 3896"/><path fill="#fff" stroke="#000" stroke-miterlimit="10" stroke-width=".5" d="M2.169 3.256a4.4 4.4 0 0 1-.833-1.153c-.088-.166-.14-.278-.14-.278a3.4 3.4 0 0 0 .83-.419 1.579 1.579 0 0 0 .35-.35 1.878 1.878 0 0 0 1.028.347s.25-.44.594-.265a.484.484 0 0 1 .1.782.594.594 0 0 1-.464.034s.511.717.176 1.135l.017.038a.829.829 0 0 0 .2.43.816.816 0 0 0 .2.163c.382.208.874-.075.906-.012a2.474 2.474 0 0 1-1.381.829 2.308 2.308 0 0 1-1.434.093c-.006-.029.118-.11.365-.272a.919.919 0 0 0 .291-.232.655.655 0 0 0 .105-.28.884.884 0 0 0-.01-.339 1.062 1.062 0 0 1-.9-.251z" data-name="Path 3897"/><path fill="#fff" stroke="#000" stroke-miterlimit="10" stroke-width=".5" d="M2.941 4.003s.315.43.667.268a.865.865 0 0 0 .56-.84 4.707 4.707 0 0 1 .971-.2 49.785 49.785 0 0 1 1.6 2.367q.427.677.811 1.337a9.016 9.016 0 0 1-2.519 1.944L4.08 7.724l-.869-1.057q-.175-.471-.366-.954-.237-.6-.479-1.168a3.856 3.856 0 0 1 .306-.315c.09-.085.182-.16.269-.227z" data-name="Path 3898"/><path fill="#fff" stroke="#000" stroke-miterlimit="10" stroke-width=".5" d="M7.034 6.029a.7.7 0 0 0-.028-.2 8.024 8.024 0 0 0-.524-1.387c-.586-1.1-1.364-1.355-1.448-1.1a1.158 1.158 0 0 0 0 .729A6.966 6.966 0 0 0 6.27 6.089c-.037.378.779.086.764-.06z" data-name="Path 3899"/><path fill="#fff" stroke="#000" stroke-miterlimit="10" stroke-width=".5" d="M3.569 3.901l.486.323.356-.774a1.447 1.447 0 0 1-.538-.189l-.339.483-.459-.206a1.533 1.533 0 0 1-.04.187 1.562 1.562 0 0 1-.159.372l.549.428z" data-name="Path 3900"/><rect width=".054" height="1.818" fill="#fff" stroke="#000" stroke-miterlimit="10" stroke-width=".5" data-name="Rectangle 188" rx=".027" transform="rotate(-32.256 14.203 -5.018)"/><g fill="#2b337c" data-name="Group 1512"><path d="M4.12 4.511a.7.7 0 0 1-.333.213c.086.624.5 2.042.5 2.042a2.387 2.387 0 0 0 .863.369 3.61 3.61 0 0 0 .215-1.057A14.357 14.357 0 0 0 4.12 4.511z" data-name="Path 3901"/><path d="M4.12 4.511l-.028-.325-.521-.26-.14.585a.8.8 0 0 0 .244.173.777.777 0 0 0 .113.041.7.7 0 0 0 .332-.214z" data-name="Path 3902"/></g><g data-name="Group 1513"><path fill="#fff" stroke="#000" stroke-miterlimit="10" stroke-width=".5" d="M2.336 4.552a1.545 1.545 0 0 0-.2.761c.009.479.267.733.523 1.62.04.136.067.248.083.316a1.188 1.188 0 0 0 .745.24c.128-.013.362.012.44-.119a.343.343 0 0 0-.019-.282c-.065-.189-.15-.456-.247-.815a3.147 3.147 0 0 0-.783-1.295 3.027 3.027 0 0 0-.542-.426z" data-name="Path 3903"/></g><g data-name="Group 1516" transform="translate(1.488 1.257)"><path fill="none" stroke="#000" stroke-miterlimit="10" stroke-width=".5" d="M.914.873l.215.356s-.144.072-.092.173.116.1.116.1-.161.073-.222-.072a.213.213 0 0 1 .065-.244z" data-name="Path 3904"/><path fill="none" stroke="#000" stroke-miterlimit="10" stroke-width=".5" d="M2.23.206a.17.17 0 0 1 .1.093.128.128 0 0 1-.023.124s.129-.021.1-.138S2.23.206 2.23.206z" data-name="Path 3905"/><path fill="#2b337c" d="M1.351.109c-.011.059-.1.106-.227.061s-.152-.119-.1-.159.336.04.327.098z" data-name="Path 3906"/><path fill="#2b337c" d="M.171.559C.225.583.252.683.18.794S.031.916.003.855.116.533.171.559z" data-name="Path 3907"/><ellipse cx=".085" cy=".15" fill="#2b337c" data-name="Ellipse 88" rx=".085" ry=".15" transform="rotate(-27.358 2.206 -.462)"/><ellipse cx=".085" cy=".15" fill="#2b337c" data-name="Ellipse 89" rx=".085" ry=".15" transform="rotate(-35.773 1.513 -1.486)"/><g data-name="Group 1514"><path d="M1.244 1.769a.279.279 0 0 0 .291.052.242.242 0 0 0 .083-.324c-.011-.021-.052-.006-.065 0l-.3.249c-.031.026.041.024.058.01l.3-.249h-.065a.24.24 0 0 1-.016.255c-.059.067-.162.015-.219-.03-.019-.005-.086.023-.067.037z" data-name="Path 3908"/></g><g fill="none" stroke="#000" stroke-miterlimit="10" stroke-width=".5" data-name="Group 1515" transform="translate(.104 .244)"><path d="M1.649.213a.39.39 0 1 1-.558-.159.412.412 0 0 1 .558.159z" data-name="Path 3909"/><ellipse cx=".319" cy=".387" data-name="Ellipse 90" rx=".319" ry=".387" transform="rotate(-32.256 1.266 .366)"/><path d="M.799.823a.285.285 0 0 1 .243-.12" data-name="Path 3910"/></g></g></g></g></g></g></g><g data-name="Group 1537"><g data-name="Group 1522"><path fill="#e9676e" d="M101.251 83.696l-20.818 7.632-16.366 32.885q-.229.487-.077.688.341.454 2.61-.539l16.04-16.6 2.521-8.9 23.756-5.374z" data-name="Path 3911"/><path fill="#a12545" d="M66.6 124.361q-2.305.992-2.634.542-.146-.2.1-.69l-5.243 2.7a3.1 3.1 0 0 0 1.135.972 3.524 3.524 0 0 0 2.136.219c1.471-.209 3.2-.458 5.189-.788l.319-1.47z" data-name="Path 3912"/></g><g data-name="Group 1523"><path fill="#f49092" d="M111.552 90.093l-1.631 8.65a10.3 10.3 0 0 1-1.821 1.188c-3.162 1.61-6.5 1.161-16.2-1.432a359.334 359.334 0 0 1-6.661-1.85 68.985 68.985 0 0 1-1.679 13.821 66.793 66.793 0 0 1-4.485 13.24q-2.465 2.235-3.08 1.808-.352-.245-.1-1.358c.537-15.915 1.387-27.6 1.727-30.621a7.77 7.77 0 0 1 1.676-4.052 6.814 6.814 0 0 1 2.337-1.819l18.389-.831z" data-name="Path 3913"/><path fill="#a12545" d="M79.074 123.711l.747 1.243-2.064 4.153-3.281 2.79-2.091.016 3.51-7.753c-.116.721.022 1 .181 1.114.586.422 2.191-.865 2.998-1.563z" data-name="Path 3914"/><path fill="#e9676e" d="M79.074 123.71s5.786-9.722 6.164-27.061c2.383.593 13.52 3.6 13.52 3.6l-15.592-4.9-4.566 27.843-2.116 1.559-.589-.591s-1.247 3.187 3.179-.45z" data-name="Path 3915" opacity=".44"/></g><g data-name="Group 1529"><g data-name="Group 1527"><path fill="#ea2e26" d="M98.244 49.707l.198.488-7.299 2.965-.198-.489z" data-name="Rectangle 189"/><path fill="#fff7d0" d="M98.24 49.707l.617-.251s.077.009.162.218.036.27.036.27l-.617.251z" data-name="Path 3916"/><g data-name="Group 1524"><path fill="#ea2e26" stroke="#000" stroke-miterlimit="10" stroke-width=".2500875" d="M90.987 52.774l7.303-2.962.011.028-7.303 2.962z" data-name="Rectangle 190"/></g><g data-name="Group 1525"><path fill="#ea2e26" stroke="#000" stroke-miterlimit="10" stroke-width=".25" d="M91.038 52.9l7.3-2.962.011.027-7.3 2.963z" data-name="Rectangle 191"/></g><g data-name="Group 1526"><path fill="#ea2e26" stroke="#000" stroke-miterlimit="10" stroke-width=".25" d="M91.088 53.024l7.3-2.961.011.027-7.3 2.962z" data-name="Rectangle 192"/></g><path fill="#ea2e26" stroke="#000" stroke-miterlimit="10" stroke-width=".25" d="M98.308 49.68l.198.488-.065.027-.198-.489z" data-name="Rectangle 193"/><path fill="#471113" d="M91.077 52.995l7.975-3.239c.043.143.008.188.008.188l-.553.224-.064.026-7.3 2.964z" data-name="Path 3917" opacity=".5"/><path fill="#fff7d0" d="M90.945 52.671l-.527.5.725-.01z" data-name="Path 3918"/><path fill="#ea2e26" d="M90.418 53.17l.133-.126.05.123z" data-name="Path 3919"/></g><g data-name="Group 1528"><path fill="#f49092" d="M94.258 49.647a10.236 10.236 0 0 0 2.052.421 1.669 1.669 0 0 1 .81.24 2.65 2.65 0 0 1 .834 1.2 7.891 7.891 0 0 1 .33.8 50.94 50.94 0 0 1 4.721 5.704 1.887 1.887 0 0 1 .443.665c.5 1.312-.615 3.2-1.55 3.209a1.053 1.053 0 0 1-.705-.353 11.582 11.582 0 0 1-2.437-4.34q-.129-.389-.263-.781-.528-1.544-1.09-3.012a3.2 3.2 0 0 1-.938-.689 3.288 3.288 0 0 1-.827-1.681 2.327 2.327 0 0 1-1.368-.779c-.03-.037-.366-.459-.264-.587.048-.066.188-.033.252-.017z" data-name="Path 3920"/><path fill="#f9c5c9" d="M95.39 49.992a4.611 4.611 0 0 1 .92.077 2.084 2.084 0 0 1 .81.24 2.65 2.65 0 0 1 .834 1.2 7.822 7.822 0 0 1 .33.8 50.987 50.987 0 0 1 4.721 5.704 1.886 1.886 0 0 1 .443.665c.025.066.021.1.007.114-.206.159-4.042-4.1-5.614-6.235a13.114 13.114 0 0 0-1.615-1.838c-.342-.325-.639-.57-.836-.727z" data-name="Path 3921" opacity=".57"/></g></g><g data-name="Group 1530"><path fill="#2b337c" d="M97.063 78.601a26.7 26.7 0 0 0 13.289-1.812 36.909 36.909 0 0 1 3.251 12.453c.509 6.6-1.209 8.559-1.665 9.036-1.226 1.284-2.7 1.678-4.518 2.14-4.222 1.073-7.384.423-10.88.089a56.065 56.065 0 0 0-11.325.089 3.742 3.742 0 0 1 1.714-2.4c.488-.245.765-.184 1.07-.357.648-.365 1.151-1.62.4-5.628-1.969-3.65-3.71-4.553-4.994-4.637-.992-.065-2.191.327-2.259.119s.943-.736 1.724-1.07c3.643-1.557 5.344.061 8.264-1.248a10.509 10.509 0 0 0 3.745-3.21 14.727 14.727 0 0 0 2.184-3.564z" data-name="Path 3922"/><path fill="#151442" d="M85.214 100.597a60.557 60.557 0 0 1 11.325-.089l4.669.464s-12.752-3.508-12.864-3.453a1.382 1.382 0 0 1-.784.469c-.273.062-1.551.119-2.346 2.609z" data-name="Path 3923" opacity=".45"/><path fill="#151442" d="M81.142 87.697c.013.039.078.051.131.055a25.636 25.636 0 0 0 3.193-1.276c.8-.346 1.387-.229 3.434.074 7.155 1.061 8.181.846 8.8.223a3.9 3.9 0 0 0 .9-2.283 6.213 6.213 0 0 1 1.274-2.784c.737-.767 1.69-.9 3.453-1.114 2.284-.28 2.858.133 4.566-.139a9.77 9.77 0 0 0 3.592-1.364l1.03.613-.39-1.086c-.1-.382-.272-.933-.418-.919-.054 0-.154.092-.219.751 0 0-9.605 2.842-13.422.155a15.839 15.839 0 0 1-2.091 3.4 9.513 9.513 0 0 1-4.77 3.712 7.267 7.267 0 0 1-2.97.186c-2.1-.292-2.162.079-2.626.172-1.886.374-3.544 1.402-3.467 1.624z" data-name="Path 3924" opacity=".45"/><path fill="#bac1e2" d="M113.2 96.128c1.357-4.262-.149-10.84-.149-10.84a54.852 54.852 0 0 0-2.339-7.61l-.232.756-1.907.083-.2.9c.225.426.565 1.1.927 1.947 1.021 2.393 2.731 6.913 1.969 11.64-.518 3.211-2.626 5.126-1.927 5.76.49.443 1.948-.111 2.818-.933a3.975 3.975 0 0 0 1.04-1.703z" data-name="Path 3925" opacity=".19"/></g><g data-name="Group 1531"><path fill="#d3d3ea" d="M97.072 78.387a9.235 9.235 0 0 0 1.447-6.161c-.281-1.776-1.07-2.382-1.439-4.705a9.067 9.067 0 0 1 .179-4.817c.989-2.609 3.361-3.539 5.793-6.681.471-.609.8-1.112.951-1.352a17.462 17.462 0 0 0 1.4-2.7l5.609-.9 1.967 3.414s.716 13.421-2.5 23.967c-3.212 1.14-12.036 2.163-13.407-.065z" data-name="Path 3926"/><path fill="#2b337c" d="M97.051 78.568a9.417 9.417 0 0 0 1.468-6.342c-.293-1.766-1.069-2.377-1.439-4.7a9.067 9.067 0 0 1 .179-4.817c.989-2.609 3.361-3.539 5.793-6.68.471-.609.8-1.113.951-1.352a17.473 17.473 0 0 0 1.4-2.7 16.492 16.492 0 0 1 2.114 9.152c-.671 7.806-7.71 11.854-6.311 15.035.581 1.321 2.659 2.587 9.276 2.292a38.087 38.087 0 0 1-4.672 1.012c-4.791.725-6.7.068-7.425-.223a9.12 9.12 0 0 1-1.334-.677z" data-name="Path 3927" opacity=".14"/></g><g data-name="Group 1532"><path fill="#f49092" d="M82.125 62.717a5 5 0 0 0-.218 1.384 2.528 2.528 0 0 0 .1 1.057 3.336 3.336 0 0 0 1.281 1.317 9.854 9.854 0 0 0 .906.6 63.404 63.404 0 0 0 5.916 7.194 2.53 2.53 0 0 0 .27.34 2.78 2.78 0 0 0 .447.366c.452.291 4.767 1.889 5.429.692.322-.581-.388-1.515-1.353-2.784a15.666 15.666 0 0 0-4.78-4.051q-.45-.253-.9-.513-1.782-1.023-3.462-2.069a4.024 4.024 0 0 0-.626-1.323 4.143 4.143 0 0 0-1.88-1.425 2.918 2.918 0 0 0-.633-1.875l-.007-.009a5 5 0 0 0-.49 1.099z" data-name="Path 3928"/><path fill="#f9c5c9" d="M83.668 65.138c.419.685.981 1.326 4.176 3.731 1.407 1.059 1.621 1.177 2.423 1.782 3.875 2.921 5.676 5.261 5.99 5.014.24-.188-.566-1.749-1.353-2.784a15.666 15.666 0 0 0-4.78-4.051q-.45-.253-.9-.513-1.782-1.023-3.462-2.069a4.021 4.021 0 0 0-.626-1.323 4.144 4.144 0 0 0-1.88-1.425 2.915 2.915 0 0 0-.634-1.875l-.007-.009a7.508 7.508 0 0 0 1.053 3.522z" data-name="Path 3929" opacity=".57"/><path fill="#d3d3ea" d="M101.792 59.992a7.688 7.688 0 0 0-2.745 3.155c-.692 1.846-4.045 6.266-4.546 7.378a6.535 6.535 0 0 1-.9 1.561 6.564 6.564 0 0 0 1.979 3.843c1.666 1.343 2.188 1.25 2.188 1.25s6.507-9.8 7.6-12.1-.885-6.133-3.576-5.087z" data-name="Path 3930"/><path fill="#fff" d="M101.792 59.992a7.689 7.689 0 0 0-2.745 3.155c-.692 1.846-4.045 6.266-4.546 7.378a6.538 6.538 0 0 1-.9 1.561c.369 2.047.81 2.59 1.182 2.631.33.037 8.588-13.881 7.879-14.748-.079-.091-.274-.171-.87.023z" data-name="Path 3931" opacity=".47"/></g><g data-name="Group 1536"><path fill="#f49092" d="M102.798 50.805a6.549 6.549 0 0 1-4.517-2.171 6.693 6.693 0 0 1-1.465-3.4c-.148-.949-.128-2.029.688-4.885.969-3.392 1.454-5.088 2.192-5.881 2.2-2.358 6.555-2.74 9.7-1.01 4.1 2.256 4.367 7.133 4.369 7.363.025 2.843-1.448 6.111-5.5 9.306l.189 4.577a5.673 5.673 0 0 0-1.989-.461 6.01 6.01 0 0 0-2.544.446 3.882 3.882 0 0 0 .007-2.155 3.557 3.557 0 0 0-1.13-1.729z" data-name="Path 3932"/><g data-name="Group 1533" transform="translate(97.812 38.42)"><path fill="#cd3327" d="M1.477 2.97A8 8 0 0 0 .79 4.984a1.125 1.125 0 0 0 .35.905s-.762.005-.874-.573S1.477 2.97 1.477 2.97z" data-name="Path 3933"/><path fill="#fff7d0" d="M.72 7.295c.336.116.71.229 1.118.326a11.777 11.777 0 0 0 1.328.238 1.049 1.049 0 0 1-.595.614c-.107.032-.189.029-.693-.069-.859-.168-.943-.222-1.011-.3a.909.909 0 0 1-.147-.809z" data-name="Path 3934"/><path fill="#ed0973" d="M.023.119c-.113.305.187.763.9.862s1.048-.176.912-.5S.136-.186.023.119z" data-name="Path 3935"/><path fill="#ed0973" d="M3.495 1.443c-.159.321.085.877.8 1.1s1.1-.029 1.009-.411-1.651-1.01-1.809-.689z" data-name="Path 3936"/><ellipse cx=".595" cy=".277" fill="#020202" data-name="Ellipse 92" rx=".595" ry=".277" transform="rotate(-82.827 1.804 1.049)"/><ellipse cx=".595" cy=".277" fill="#020202" data-name="Ellipse 93" rx=".595" ry=".277" transform="rotate(-82.827 4.043 .146)"/></g><g data-name="Group 1535"><path fill="#a41e5a" d="M120.198 57.76a9.435 9.435 0 0 0-.111-3.063c-.6-2.585-3.131-3.068-4.9-5.179-3.174-3.787.6-7.449-2.45-11.917-2.222-3.251-7.036-5.429-7.036-5.429a10.591 10.591 0 0 1-4.087 1.089 3.809 3.809 0 0 0-1.884.421 3.654 3.654 0 0 0-1.4 1.578c-.662 1.254-.83 2.886-.383 3.1.236.114.461-.257 1.337-.52a4.949 4.949 0 0 1 1.188-.186c1.278-.015 2.719 1.548 3.267 3.118.325.93.3 1.764-.334 4.6-1.23 5.506-2.472 6.826-1.621 8.448.717 1.366 2.278 1.8 2.066 2.726-.12.528-.768 1.017-1.485 1.559-.585.442-.845.51-1.077.891a2.293 2.293 0 0 0-.186 1.633c.375 1.859 2.117 2.171 3.508 4.7a2.889 2.889 0 0 1 .5 1.281c.054 1.39-1.477 1.755-2.45 3.564a6.059 6.059 0 0 0-.26 4.938 4.859 4.859 0 0 0 1.634 1.931 5.863 5.863 0 0 0 4.3.761 7.187 7.187 0 0 0 1.828-.529l.96-1.086c6.712-2.093 8.24-4.2 8.408-5.736.173-1.574-1.132-2.146-1.114-4.956a21.159 21.159 0 0 1 1.058-5.346 16.332 16.332 0 0 0 .724-2.391z" data-name="Path 3937" opacity=".32"/><path fill="#ec308d" d="M121.736 55.983c-.7-4.525-3.5-6.277-5.953-8.005a3.6 3.6 0 0 1-1.413-3.13l.444-2.447-.009.025a9.92 9.92 0 0 0-1.14-8.358c-2.792-4.342-9.078-3.344-9.078-3.344a10.586 10.586 0 0 1-4.087 1.089 3.809 3.809 0 0 0-1.884.421 3.5 3.5 0 0 0-1.4 1.579c-.943 2.121.471 4.68.824 4.609.1-.019.077-.429.343-1.035a5.042 5.042 0 0 1 .674-1.4c.638-.551 2.719.221 3.914 1.625 1.691 1.988 1.259 4.84 1.1 5.891-.74 4.9-3.547 6.031-3.4 8.87.142 2.763 3.052 2.976 2.768 4.5-.226 1.216-1.558 1.152-2.074 2.032a2.051 2.051 0 0 0-.2.9c-.018 1.442 1.6 2.136 3.631 4.577 1.265 1.523 1.322 2.081 1.231 2.461-.157.657-.729.67-1.543 1.464a6.614 6.614 0 0 0-1.714 4.862 3.471 3.471 0 0 0 .506 1.9 3.833 3.833 0 0 0 3.955 1.28 10.726 10.726 0 0 0 1.828-.529c2.035.995 7.175.716 9.923-3.188 2.88-4.091.584-5.635.637-8.728s2.819-3.397 2.117-7.921z" data-name="Path 3938"/><path fill="#a41e5a" d="M98.035 38.423a12.75 12.75 0 0 1 1.017-2.43c.111-.075 1.661-.74 3.914 1.625.332.443 2.169 2.184.722 7.641a10 10 0 0 0 .529-7.638 7.972 7.972 0 0 0-3.638-4.455 6.931 6.931 0 0 0-2.265-.715c-.585.557-2.701 2.533-.279 5.972z" data-name="Path 3939" opacity=".38"/><path fill="#a41e5a" d="M101.069 53.862a5.6 5.6 0 0 0 1.2.926c.842.479 1.333.458 1.747.967a2.021 2.021 0 0 1 .416 1.207c.011 1.341-1.472 1.631-1.539 2.672-.06.916 1.051 1.276 3.471 3.75 1.433 1.464 1.61 1.907 1.676 2.234.192.947-.081 2.2-1.491 3.78-.78 1.448-1.819 4.863 2.71 5.754.557.334 7.425 2.525 11.026-5.531a8.041 8.041 0 0 1-4.418 5.68 8.558 8.558 0 0 1-6.825.529c-.637.251-7.69 2.7-6.02-5.058a5.914 5.914 0 0 1 2.636-3.378c.334-.445 1.819-.742-4.01-6.311-.371-.594-1.355-1.93.891-3.081a1.613 1.613 0 0 0 .891-1.151 1.381 1.381 0 0 0-.186-.761c-.262-.514-.647-.68-1.133-1.077a5.467 5.467 0 0 1-1.042-1.151z" data-name="Path 3940" opacity=".38"/><path fill="#fdc052" d="M121.624 55.292c-1.61-5.119-5.718-6.389-6.68-8.228a5.06 5.06 0 0 1-.259-3.978l-.04.019.04-.066a11.935 11.935 0 0 0 .464-2.487 9.5 9.5 0 0 0-1.578-6.682 4.215 4.215 0 0 0-1.7-1.643 8.094 8.094 0 0 1 2.255 3.063 9.319 9.319 0 0 1-.928 9.754c-1.978 2.741-2.014 3.741-1.708 5.049.463 1.98 3.109 3.079 5.42 3.712.342.078 3.964.948 4.306 3.044.161.986-.463 1.882-1.633 3.564-1.753 2.518-2.52 2.387-2.747 3.49-.512 2.484 3.172 4.153 2.524 6.237-.169.544-.561 2.174-3.174 3.768a9.789 9.789 0 0 1-4.7 1.652c.136.357 3.073.328 5.56-1.568.822-.627 3.158-2.462 3.351-4.854.126-1.574-.965-3.861-.594-6.348.19-1.238 3.012-3.712 1.821-7.498z" data-name="Path 3941" opacity=".25"/><g fill="none" stroke="#fdc052" stroke-miterlimit="10" data-name="Group 1534" opacity=".83"><path d="M103.06 34.534a18.567 18.567 0 0 0 4.168 4.568c3.1 2.291.427 8.29-2.34 10.84s-2.441 5.155.368 6.737 7.831 3.5 4.559 8.247-3.9 8.661.289 10.172" data-name="Path 3942"/><path d="M102.164 33.055s.209.4.6 1.017" data-name="Path 3943"/><path d="M113.787 74.79a2.18 2.18 0 0 0 1.685-.155" data-name="Path 3944"/><path d="M112.02 55.774c2.582 1.147 5.389 2.159 5.5 4.9.188 4.487-5.951 6.1-6.214 9.7a4.482 4.482 0 0 0 1.219 3.681" data-name="Path 3945"/><path d="M107.228 39.103s3.995 1.84 4.834 4.482-5.768 5.945-3.951 9.346a6.186 6.186 0 0 0 2.9 2.372" data-name="Path 3946"/><path d="M112.881 35.192s3.282 3.874 1.366 7.793-2.808 5.685-1.672 6.837 7.328 2.061 8.491 7.03" data-name="Path 3947"/></g></g></g></g></g></g></svg>