<svg xmlns="http://www.w3.org/2000/svg" xmlns:xlink="http://www.w3.org/1999/xlink" width="112.921" height="112.921" viewBox="0 0 112.921 112.921">
  <defs>
    <filter id="Ellipse_199" x="0" y="0" width="112.921" height="112.921" filterUnits="userSpaceOnUse">
      <feOffset dy="3" input="SourceAlpha"/>
      <feGaussianBlur stdDeviation="3" result="blur"/>
      <feFlood flood-opacity="0.161"/>
      <feComposite operator="in" in2="blur"/>
      <feComposite in="SourceGraphic"/>
    </filter>
  </defs>
  <g id="Group_10627" data-name="Group 10627" transform="translate(-155 -2656.278)">
    <g id="Group_2363" data-name="Group 2363" transform="translate(164 2662.278)">
      <g transform="matrix(1, 0, 0, 1, -9, -6)" filter="url(#Ellipse_199)">
        <g id="Ellipse_199-2" data-name="Ellipse 199" transform="translate(9 6)" fill="#f8f8f8" stroke="#fff" stroke-width="3">
          <circle cx="47.461" cy="47.461" r="47.461" stroke="none"/>
          <circle cx="47.461" cy="47.461" r="45.961" fill="none"/>
        </g>
      </g>
    </g>
    <g id="Group_6420" data-name="Group 6420" transform="translate(20334.707 22424.932)">
      <path id="Path_33642" data-name="Path 33642" d="M803.582,277.031a1.547,1.547,0,0,1-1.225,2.278c-.367,2.208-2.629,2.127-3.6,2.024v.005c-.637.7-2.715,1.285-4.761.993-4.216-.594-6.71-3.649-8.318-5.3a51.63,51.63,0,0,1-3.557-4.443s-9.6-7.946-12.745-11.373a2.627,2.627,0,0,1-.529-3.1c3.39-5.571,6.693-6.11,8-4.966,2.656,2.316,7.093,8.448,10.483,9.4,2.974.831,6.882.221,9.889,1.269v.005c-2.062.718-2.251,2.074-1.711,4.847a29.93,29.93,0,0,0,8.6,5.716,1.7,1.7,0,0,1,.723.556C805.509,275.881,804.4,277.139,803.582,277.031Z" transform="translate(-20917.252 -19968.947)" fill="#ff977b"/>
      <path id="Path_33643" data-name="Path 33643" d="M810.274,206.123a10.289,10.289,0,0,0-7.648,17.288,10.458,10.458,0,0,1,2.82,7.049l.144.528c3.144,2.05,5.707,2.3,8.853.256l.44-.782a10.174,10.174,0,0,1,2.739-6.961,10.289,10.289,0,0,0-7.348-17.379Z" transform="translate(-20931.672 -19947.529)" fill="#f7e5d0"/>
      <path id="Path_33644" data-name="Path 33644" d="M813.921,219.727a.266.266,0,0,0,.424,0c1.133-1.461,3.779-1.087,4.739.294,1.607,2.318.5,5.852-4.45,7.764a1.381,1.381,0,0,1-1,0c-4.946-1.912-6.057-5.446-4.45-7.764C810.142,218.64,812.788,218.266,813.921,219.727Z" transform="translate(-20935.639 -19953.359)" fill="#ff736c"/>
      <path id="Path_33645" data-name="Path 33645" d="M813.917,269.856c-.907,2-3.212,4.183-4.858,3.147-1.258-.788.049-2.542.923-3.876a10.762,10.762,0,0,1,5.646-4.119,35.82,35.82,0,0,1,5.857-1.209c2.31-.9,7.919-6.035,10.969-8.275.777-.567,2.526-.534,4.545,2.073,1.533,1.97,1.528,3.735.793,4.426-2.494,2.348-7.368,6.229-9.3,7.832-1.582,1.323-2.586,5.15-5.252,6.272a2.834,2.834,0,0,0-.822-.555C817.225,273.209,814.248,270.363,813.917,269.856Z" transform="translate(-20935.656 -19970.129)" fill="#ffb594"/>
      <circle id="Ellipse_3197" data-name="Ellipse 3197" cx="1.218" cy="1.218" r="1.218" transform="translate(-20126.266 -19746.746)" fill="#ffe888"/>
      <circle id="Ellipse_3198" data-name="Ellipse 3198" cx="1.218" cy="1.218" r="1.218" transform="translate(-20113.594 -19745.527)" fill="#ffe888"/>
      <circle id="Ellipse_3199" data-name="Ellipse 3199" cx="1.218" cy="1.218" r="1.218" transform="translate(-20111.16 -19724.217)" fill="#ffe888"/>
      <circle id="Ellipse_3200" data-name="Ellipse 3200" cx="1.218" cy="1.218" r="1.218" transform="translate(-20136.055 -19724.584)" fill="#ffe888"/>
      <circle id="Ellipse_3201" data-name="Ellipse 3201" cx="1.979" cy="1.979" r="1.979" transform="translate(-20108.352 -19734.994)" fill="#ffe888"/>
      <circle id="Ellipse_3202" data-name="Ellipse 3202" cx="1.979" cy="1.979" r="1.979" transform="translate(-20138.035 -19738.266)" fill="#ffe888"/>
      <path id="Path_33646" data-name="Path 33646" d="M818.476,248.632a.54.54,0,0,1-.54-.54v-4.821a.54.54,0,0,1,1.08,0v4.821A.54.54,0,0,1,818.476,248.632Z" transform="translate(-20939.98 -19964.375)" fill="#ff736c"/>
      <circle id="Ellipse_3203" data-name="Ellipse 3203" cx="0.581" cy="0.581" r="0.581" transform="translate(-20122.088 -19723.807)" fill="#ff736c"/>
      <path id="Path_33647" data-name="Path 33647" d="M814.91,251.994a14.9,14.9,0,0,1-4.718-.785,4.721,4.721,0,1,0,9.437,0A14.92,14.92,0,0,1,814.91,251.994Z" transform="translate(-20936.418 -19968.277)" fill="#4e3b56"/>
      <path id="Path_33648" data-name="Path 33648" d="M827.674,251.209v0h0Z" transform="translate(-20944.463 -19968.277)" fill="#4e3b56"/>
      <path id="Path_33649" data-name="Path 33649" d="M825.436,295.018a.526.526,0,0,1-.071,0,22.744,22.744,0,0,1-9.1-3.455.54.54,0,0,1,.617-.886,22.052,22.052,0,0,0,8.625,3.271.54.54,0,0,1-.07,1.075Z" transform="translate(-20939.107 -19986.395)" fill="#ff736c"/>
      <path id="Path_33650" data-name="Path 33650" d="M822.3,299.772c-.05,0-.1,0-.148,0a20.647,20.647,0,0,1-9.092-2.907.54.54,0,0,1,.582-.91,19.9,19.9,0,0,0,8.568,2.739,1.713,1.713,0,0,0,.418-.03.54.54,0,0,1,.2,1.061A2.815,2.815,0,0,1,822.3,299.772Z" transform="translate(-20937.625 -19988.83)" fill="#ff736c"/>
      <path id="Path_33651" data-name="Path 33651" d="M818.058,303.95h-.03a2.754,2.754,0,0,1-.308-.033,16.906,16.906,0,0,1-7.011-2.294.54.54,0,0,1,.606-.894,16.226,16.226,0,0,0,6.558,2.119,2.025,2.025,0,0,0,.212.024.54.54,0,0,1-.028,1.078Z" transform="translate(-20936.549 -19991.025)" fill="#ff736c"/>
      <path id="Path_33652" data-name="Path 33652" d="M821.819,283.421a8.129,8.129,0,0,1-4.068-1.1.54.54,0,0,1,.581-.91,7.069,7.069,0,0,0,5.163.711.54.54,0,1,1,.279,1.042A7.539,7.539,0,0,1,821.819,283.421Z" transform="translate(-20939.781 -19982.137)" fill="#ff736c"/>
    </g>
  </g>
</svg>
