<svg xmlns="http://www.w3.org/2000/svg" xmlns:xlink="http://www.w3.org/1999/xlink" width="112.921" height="112.921" viewBox="0 0 112.921 112.921">
  <defs>
    <filter id="Ellipse_200" x="0" y="0" width="112.921" height="112.921" filterUnits="userSpaceOnUse">
      <feOffset dy="3" input="SourceAlpha"/>
      <feGaussianBlur stdDeviation="3" result="blur"/>
      <feFlood flood-opacity="0.161"/>
      <feComposite operator="in" in2="blur"/>
      <feComposite in="SourceGraphic"/>
    </filter>
  </defs>
  <g id="Group_2364" data-name="Group 2364" transform="translate(9 6)">
    <g transform="matrix(1, 0, 0, 1, -9, -6)" filter="url(#Ellipse_200)">
      <g id="Ellipse_200-2" data-name="Ellipse 200" transform="translate(9 6)" fill="#f8f8f8" stroke="#fff" stroke-width="3">
        <circle cx="47.461" cy="47.461" r="47.461" stroke="none"/>
        <circle cx="47.461" cy="47.461" r="45.961" fill="none"/>
      </g>
    </g>
    <g id="united" transform="translate(22 23)">
      <path id="Path_5360" data-name="Path 5360" d="M57.206,107.236a.769.769,0,1,1,.044,0h-.044Zm-3.057-.115a.791.791,0,0,1-.09,0h0a.76.76,0,0,1,.156-1.512l.023,0a.76.76,0,0,1-.088,1.515Zm6.106-.234a.76.76,0,0,1-.146-1.506l.014,0a.76.76,0,0,1,.286,1.493H60.4A.781.781,0,0,1,60.256,106.887Zm-9.122-.345a.772.772,0,0,1-.2-.027h0a.76.76,0,0,1,.389-1.47l.016,0a.76.76,0,0,1-.2,1.494Zm12.084-.467a.76.76,0,0,1-.26-1.475l.013,0a.76.76,0,1,1,.514,1.431l-.007,0A.762.762,0,0,1,63.218,106.075Zm-14.98-.57a.75.75,0,0,1-.31-.067l-.01,0a.755.755,0,1,1,.321.072Zm17.78-.687a.768.768,0,1,1,.374-.1l-.017.01A.758.758,0,0,1,66.018,104.818Zm6.9-6.8,0,0-.08-.057ZM37.833,94.71a.761.761,0,0,1-.7-.474l0-.005a.76.76,0,0,1,1.4-.58l.005.013a.761.761,0,0,1-.7,1.046Zm37.731-1.459a.766.766,0,1,1,.731-.55l-.01.03A.76.76,0,0,1,75.564,93.251ZM36.9,91.784a.761.761,0,0,1-.739-.584l0-.01a.76.76,0,1,1,1.479-.353l0,.01a.761.761,0,0,1-.74.937Zm39.36-1.522a.75.75,0,0,1-.133-.012.765.765,0,1,1,.886-.648l0,.032A.761.761,0,0,1,76.263,90.261ZM36.434,88.748a.759.759,0,0,1-.756-.693l0-.032a.76.76,0,1,1,.825.722C36.478,88.747,36.456,88.748,36.434,88.748ZM76.5,87.2a.76.76,0,0,1-.76-.76v-.056a.76.76,0,1,1,1.52,0v.01c0,.005,0,.011,0,.016s0,.013,0,.02v.01A.76.76,0,0,1,76.5,87.2ZM36.432,85.679c-.022,0-.044,0-.066,0a.765.765,0,1,1,.825-.723l0,.032A.76.76,0,0,1,36.432,85.679Zm39.825-1.586a.76.76,0,0,1-.747-.628l-.005-.032a.76.76,0,1,1,.886.648A.747.747,0,0,1,76.258,84.093Zm.128-.789-.128.019Zm-39.492-.66a.766.766,0,1,1,.746-.615l-.007.031A.76.76,0,0,1,36.893,82.644ZM75.56,81.108a.766.766,0,0,1-.725-.524l-.008-.027a.76.76,0,1,1,1.453-.447h0a.756.756,0,0,1-.482.957A.741.741,0,0,1,75.56,81.108Zm-37.745-1.4a.761.761,0,0,1-.7-1.046l0-.009a.76.76,0,1,1,1.408.572l0,.01A.76.76,0,0,1,37.815,79.713Zm36.592-1.452a.765.765,0,0,1-.679-.414l-.012-.022a.76.76,0,0,1,1.365-.671v0a.76.76,0,0,1-.674,1.106Zm-35.231-1.3a.764.764,0,1,1,.381-1.43.761.761,0,0,1,.287,1.036l-.018.03A.759.759,0,0,1,39.176,76.959Zm33.653-1.335a.765.765,0,1,1,.612-1.21l.016.023a.76.76,0,0,1-.628,1.187ZM40.942,74.446a.76.76,0,0,1-.585-1.246l.007-.008a.76.76,0,1,1,1.17.971l-.007.008A.758.758,0,0,1,40.942,74.446Zm29.928-1.187a.763.763,0,1,1,.536-1.3l.013.013a.76.76,0,0,1-.548,1.287Zm-27.8-1.028a.76.76,0,0,1-.5-1.329l0,0a.76.76,0,0,1,1.017,1.13l-.012.011A.758.758,0,0,1,43.07,72.231Zm25.506-1.013a.757.757,0,0,1-.448-.147l-.026-.02a.76.76,0,1,1,.474.166Zm.068-.864-.076.1Zm-23.136.01a.768.768,0,1,1,.435-.137l-.027.018A.756.756,0,0,1,45.508,70.365Zm20.487-.815a.754.754,0,0,1-.355-.089l-.018-.01a.76.76,0,0,1,.732-1.332h0a.761.761,0,0,1-.362,1.43ZM48.2,68.892a.76.76,0,0,1-.314-1.453l.018-.008a.76.76,0,1,1,.3,1.46Zm0,0" transform="translate(-32.162 -60.74)" fill="#a7c7d3"/>
      <path id="Path_5361" data-name="Path 5361" d="M193.444,179.4,182,167.952a1.832,1.832,0,1,1,2.592-2.591l-2.947-2.947a1.831,1.831,0,0,1,2.417-2.743l-1.121-1.121a1.832,1.832,0,0,1-.538-1.3,1.718,1.718,0,0,1,.025-.3,1.833,1.833,0,0,1,3.106-1l1.284,1.284a1.833,1.833,0,0,1-.515-1.589,1.813,1.813,0,0,1,.513-1,1.834,1.834,0,0,1,2.594,0l7.438,7.438.021-.03a3.351,3.351,0,0,1,4.744,0l3.468,3.468a3.557,3.557,0,0,1,1.042,2.511l0,2.17a3.829,3.829,0,0,0,1.123,2.7l.773.773-8.845,8.845-.988-.988a3.832,3.832,0,0,0-2.458-1.114A3.556,3.556,0,0,1,193.444,179.4Zm0,0" transform="translate(-163.289 -138.951)" fill="#fecbaa"/>
      <path id="Path_5362" data-name="Path 5362" d="M356.631,354.563l10.04-10.04a.847.847,0,0,1,1.2,0l3.575,3.575a.847.847,0,0,1,0,1.2l-10.04,10.04a.847.847,0,0,1-1.2,0l-3.576-3.575A.848.848,0,0,1,356.631,354.563Zm0,0" transform="translate(-321.322 -310.405)" fill="#fdd559"/>
      <path id="Path_5363" data-name="Path 5363" d="M461.63,380.728a.759.759,0,1,0,0-1.074A.759.759,0,0,0,461.63,380.728Zm0,0" transform="translate(-416.015 -342.104)" fill="#ff8812"/>
      <path id="Path_5364" data-name="Path 5364" d="M343.655,230.1l-2.561-2.561.021-.03a3.333,3.333,0,0,1,1.3-.8l2.32,2.32a.76.76,0,1,1-1.075,1.075Zm0,0" transform="translate(-307.537 -204.4)" fill="#ffae85"/>
      <path id="Path_5365" data-name="Path 5365" d="M71.917,179.405l11.445-11.445a1.833,1.833,0,1,0-2.592-2.592l2.947-2.947a1.831,1.831,0,0,0-2.417-2.743l1.121-1.122a1.831,1.831,0,0,0,.538-1.3,1.719,1.719,0,0,0-.025-.3,1.833,1.833,0,0,0-3.106-1l-1.284,1.284a1.833,1.833,0,1,0-2.592-2.592L68.516,162.1l-.021-.029a3.352,3.352,0,0,0-4.744,0l-3.468,3.468a3.557,3.557,0,0,0-1.042,2.511l0,2.169a3.827,3.827,0,0,1-1.122,2.705l-.773.773,8.845,8.845.988-.988a3.832,3.832,0,0,1,2.458-1.114A3.556,3.556,0,0,0,71.917,179.405Zm0,0" transform="translate(-51.702 -138.958)" fill="#fecbaa"/>
      <path id="Path_5366" data-name="Path 5366" d="M15.062,354.574l-10.04-10.04a.847.847,0,0,0-1.2,0L.249,348.11a.847.847,0,0,0,0,1.2l10.04,10.04a.847.847,0,0,0,1.2,0l3.575-3.575A.847.847,0,0,0,15.062,354.574Zm0,0" transform="translate(-0.001 -310.416)" fill="#ff84a7"/>
      <path id="Path_5367" data-name="Path 5367" d="M106.388,450.666a.759.759,0,1,0-1.074,0A.759.759,0,0,0,106.388,450.666Zm0,0" transform="translate(-94.753 -405.161)" fill="#ef6085"/>
      <path id="Path_5368" data-name="Path 5368" d="M132.985,230.11l2.561-2.561-.021-.029a3.333,3.333,0,0,0-1.3-.8l-2.32,2.32a.76.76,0,0,0,1.075,1.075Zm0,0" transform="translate(-118.732 -204.411)" fill="#ffae85"/>
      <path id="Path_5369" data-name="Path 5369" d="M165.145,74.886V91.071a1.833,1.833,0,1,1-3.665,0v4.168a1.829,1.829,0,0,1-.536,1.3,1.83,1.83,0,0,1-2.358.2,1.832,1.832,0,0,1-.755-1.266v1.586a1.832,1.832,0,0,1-.537,1.3,1.736,1.736,0,0,1-.228.194,1.833,1.833,0,0,1-2.9-1.492V95.239a1.832,1.832,0,1,1-3.665,0V84.72l-.035.006a3.351,3.351,0,0,1-3.352-3.357v-4.9a3.559,3.559,0,0,1,1.039-2.513l1.533-1.535a3.829,3.829,0,0,0,1.119-2.706V68.617h12.509v1.4a3.833,3.833,0,0,0,.951,2.526A3.556,3.556,0,0,1,165.145,74.886Zm0,0" transform="translate(-132.641 -61.867)" fill="#fedfc5"/>
      <path id="Path_5370" data-name="Path 5370" d="M157.748,165.367a1.834,1.834,0,0,0-2.594,0l2.947-2.947a1.831,1.831,0,0,0-2.417-2.743l1.122-1.122a1.832,1.832,0,0,0,.538-1.3,1.727,1.727,0,0,0-.024-.3,1.833,1.833,0,0,0-3.106-1l-1.284,1.284a1.833,1.833,0,1,0-2.592-2.592L142.9,162.1l-.021-.029a3.333,3.333,0,0,0-1.3-.8,3.369,3.369,0,0,0-1.74-.108,4.91,4.91,0,0,0,2.582,1.953v9.223a3.356,3.356,0,0,0,4.007,3.292,3.363,3.363,0,0,0,1.944,1.707l9.368-9.368A1.833,1.833,0,0,0,157.748,165.367Zm0,0" transform="translate(-126.086 -138.958)" fill="#ffae85"/>
      <path id="Path_5371" data-name="Path 5371" d="M197.305,168.155v-6.473a3.4,3.4,0,0,0-.448.376l-.021.03L189.4,154.65a1.834,1.834,0,0,0-2.594,0,1.813,1.813,0,0,0-.513,1,1.833,1.833,0,0,0,.515,1.589l-1.284-1.284a1.832,1.832,0,0,0-3.106,1,1.756,1.756,0,0,0-.024.3,1.832,1.832,0,0,0,.538,1.3l1.121,1.121a1.83,1.83,0,0,0-2.932,1.153,1.8,1.8,0,0,0-.023.293,1.827,1.827,0,0,0,.538,1.3l2.947,2.947a1.833,1.833,0,1,0-2.592,2.592l7.667,7.667a3.369,3.369,0,0,0,.63.059,3.324,3.324,0,0,0,1.962-.635,3.389,3.389,0,0,0,.41-.349,3.332,3.332,0,0,0,.981-2.372V171.5c.1.01.208.014.312.014A3.358,3.358,0,0,0,197.305,168.155Zm0,0" transform="translate(-163.281 -138.951)" fill="#ffae85"/>
      <path id="Path_5372" data-name="Path 5372" d="M165.145,74.886V91.071a1.833,1.833,0,0,1-1.832,1.835c-.027,0-.057,0-.086,0a1.813,1.813,0,0,1-.984-.345h0a1.832,1.832,0,0,1-.76-1.488v4.168a1.829,1.829,0,0,1-.536,1.3,1.83,1.83,0,0,1-2.358.2,1.832,1.832,0,0,1-.755-1.266v1.586a1.832,1.832,0,0,1-.537,1.3,1.736,1.736,0,0,1-.228.194,1.833,1.833,0,0,1-2.9-1.492V95.239a1.832,1.832,0,1,1-3.665,0V84.72l-.035.006a3.351,3.351,0,0,1-3.352-3.357v-4.9a3.559,3.559,0,0,1,1.039-2.513l1.533-1.535a3.84,3.84,0,0,0,1.119-2.706V68.617h12.509v1.4a3.472,3.472,0,0,0,.121.945,3.811,3.811,0,0,0,.83,1.58A3.584,3.584,0,0,1,165.145,74.886Zm0,0" transform="translate(-132.641 -61.867)" fill="#fedfc5"/>
      <path id="Path_5373" data-name="Path 5373" d="M197.4,74.886V91.071a1.833,1.833,0,0,1-1.832,1.835c-.027,0-.057,0-.086,0a1.813,1.813,0,0,1-.984-.345l.031-15.6a2.385,2.385,0,0,0-.061-.433,7.05,7.05,0,0,0-7.052-5.689h-4.529a3.814,3.814,0,0,0,.171-1.131V68.617h12.509v1.4a3.472,3.472,0,0,0,.121.945,3.811,3.811,0,0,0,.83,1.58A3.584,3.584,0,0,1,197.4,74.886Zm0,0" transform="translate(-164.891 -61.867)" fill="#fecbaa"/>
      <path id="Path_5374" data-name="Path 5374" d="M182.147,6.751h-14.2A.847.847,0,0,1,167.1,5.9V.847A.847.847,0,0,1,167.949,0h14.2a.847.847,0,0,1,.847.847V5.9A.847.847,0,0,1,182.147,6.751Zm0,0" transform="translate(-150.662)" fill="#83d9ff"/>
      <path id="Path_5375" data-name="Path 5375" d="M193.979,27.346a.759.759,0,1,0-.759.76A.759.759,0,0,0,193.979,27.346Zm0,0" transform="translate(-173.527 -23.97)" fill="#5186ff"/>
      <g id="Group_2360" data-name="Group 2360" transform="translate(16.34 18.472)">
        <path id="Path_5376" data-name="Path 5376" d="M286.943,203.791v9.958a1.831,1.831,0,0,1-.761-1.488v4.168a1.827,1.827,0,0,1-.536,1.3,1.774,1.774,0,0,1-.224.191V203.791a.76.76,0,0,1,1.521,0Zm0,0" transform="translate(-273.682 -201.529)" fill="#fecbaa"/>
        <path id="Path_5377" data-name="Path 5377" d="M249.805,203.791v14.134a1.832,1.832,0,0,1-.755-1.266v1.586a1.831,1.831,0,0,1-.537,1.3,1.741,1.741,0,0,1-.228.194V203.791a.76.76,0,1,1,1.52,0Zm0,0" transform="translate(-240.199 -201.529)" fill="#fecbaa"/>
        <path id="Path_5378" data-name="Path 5378" d="M212.591,203.791v15.942a1.832,1.832,0,0,1-.76-1.488v-1.817a1.832,1.832,0,0,1-.76,1.488V203.791a.76.76,0,1,1,1.52,0Zm0,0" transform="translate(-206.646 -201.529)" fill="#fecbaa"/>
        <path id="Path_5379" data-name="Path 5379" d="M167.614,188.522v3.622l-.036.006a3.335,3.335,0,0,1-1.485-.346v-3.281a.76.76,0,0,1,1.52,0Zm0,0" transform="translate(-166.094 -187.762)" fill="#fecbaa"/>
      </g>
    </g>
  </g>
</svg>
