<svg xmlns="http://www.w3.org/2000/svg" width="324.553" height="46.525" viewBox="0 0 324.553 46.525">
  <g id="Group_11122" data-name="Group 11122" transform="translate(-396 -3286.057)">
    <path id="Path_56431" data-name="Path 56431" d="M13.38-15.783c5,0,10.963-2.784,10.963-9.571,0-5.96-4.263-7.352-9.614-9.44-3.567-1.392-5.221-2.175-5.221-4.089.044-1.958,1.61-3.089,3.741-3.089,1.914,0,4.176.957,6.743,3.045l3.567-4.611a16.3,16.3,0,0,0-10.441-3.915C7.594-47.41,3.2-43.582,3.2-38.623c0,5.873,4.655,8,9.353,9.614C16.294-27.7,17.9-26.876,17.9-24.614c0,1.914-1.436,3.263-4.394,3.263a10.726,10.726,0,0,1-7.7-3.872L2.112-20.7A15.646,15.646,0,0,0,13.38-15.783Zm28.1,0c7.918,0,12.573-5.134,12.573-13.182v-18.1H47.922v17.706c0,4.916-2.7,7.831-6.439,7.831-4.089,0-6.352-3.393-6.352-7.831V-47.062H29v18.1C29-20.525,34.044-15.783,41.483-15.783Zm18.837-.392h6.047V-26.746h4.785c6.787,0,11.355-3.263,11.355-10.05,0-5.917-3.263-10.267-10.746-10.267H60.321ZM66.368-32.14v-9.484h4.437c3.524,0,5.351,1.871,5.351,4.742,0,2.828-1.827,4.742-5.656,4.742ZM87.381-16.174h6.047V-26.746h4.785c6.787,0,11.355-3.263,11.355-10.05,0-5.917-3.263-10.267-10.746-10.267H87.381ZM93.428-32.14v-9.484h4.437c3.524,0,5.351,1.871,5.351,4.742,0,2.828-1.827,4.742-5.656,4.742Zm35.5,16.358c9.049,0,15.705-6.439,15.705-15.836,0-9.44-6.656-15.836-15.705-15.836-9.353,0-15.749,6.656-15.749,15.836S119.574-15.783,128.927-15.783Zm0-5.743c-5.569,0-9.4-4.481-9.4-10.093s3.828-10.093,9.4-10.093c5.308,0,9.31,4.263,9.31,10.093S134.235-21.525,128.927-21.525Zm21.143,5.351h6.047V-26.746h3.524l6.917,10.572h7.265L166.08-27.485c4.263-1.392,6.439-4.611,6.439-9.31,0-5.917-3.306-10.267-10.746-10.267h-11.7Zm6.047-15.966v-9.484h4.7c3.524,0,5.395,1.871,5.395,4.742,0,2.828-1.914,4.742-5.656,4.742Zm27.8,15.966h6.178v-25.45h8.57v-5.438H175.477v5.438h8.44Z" transform="translate(521.888 3340.762)" fill="#fff"/>
    <line id="Line_241" data-name="Line 241" y2="29.662" transform="translate(507.5 3294.297)" fill="none" stroke="#fff" stroke-linecap="round" stroke-miterlimit="10" stroke-width="2"/>
    <g id="Group_10807" data-name="Group 10807" transform="translate(396 3286.057)">
      <path id="Path_55419" data-name="Path 55419" d="M556.369-1675.986l14.784-30.336H560.39l-8.923,20.566h-.1l-8.833-20.566H532.067l16.421,34.209a45.5,45.5,0,0,1,7.881-3.873m24.963-5.037c8.159.287,18.249,3.514,25.64,4.937a25.048,25.048,0,0,0,4.9.666c3.064.088,15.931-.666,15.931-11.75,0-8.92-15.26-7.683-20.832-9.761-1.25-.483-2.022-1.144-2.022-2.09a2.98,2.98,0,0,1,2.022-2.847,11.586,11.586,0,0,1,3.743-.57c3.748,0,5.766,1.428,6.05,4.364h9.988c-.478-6.64-7.773-9.1-14.986-9.1a36.633,36.633,0,0,0-4.795.283c-6.147.659-9.419,2.745-10.951,5.021v-4.453h-9.986v16.78c0,5.116-1.63,6.826-6.729,6.826-5.183,0-6.718-1.71-6.718-6.826v-12.327l-9.214,18.578c0,1.893.958,3.312,3.362,4.359a41.122,41.122,0,0,1,14.6-2.092m14.689-13.064c2.021,3.118,6.53,4.159,10.951,4.728,5.47.856,10.846,1.041,10.846,4.08,0,2.08-1.921,3.315-6.429,3.315a13.75,13.75,0,0,1-4.417-.578,3.912,3.912,0,0,1-2.879-4.072H596.02Z" transform="translate(-532.067 1707.173)" fill="#fff"/>
      <path id="Path_55420" data-name="Path 55420" d="M623.955-1658.228c-14.025,5.687-44.177-20.187-76.155,12.788h11.908c20.257-23.4,42.543-9.09,58.486-9.758a14.362,14.362,0,0,0,11.138-6.158,16.777,16.777,0,0,1-5.377,3.128m-56.661,12.788h10.746c1.258-2.463,6.629-9.758,28.337-8.718,6.242.29,6.916,0,6.916,0s-3.068-.279-5.659-.755c-26.893-4.83-37.836,6.349-40.34,9.473m17.475,0h10.083c1.442-5.769,15.078-7.295,15.078-7.295s-17.96-.848-25.161,7.295" transform="translate(-537.43 1691.965)" fill="#fff" fill-rule="evenodd"/>
    </g>
  </g>
</svg>
