<svg xmlns="http://www.w3.org/2000/svg" width="408" height="70.582" viewBox="0 0 408 70.582">
  <g id="Group_11118" data-name="Group 11118" transform="translate(-531.581 1706.994)">
    <g id="Group_11119" data-name="Group 11119">
      <text id="CARING" transform="translate(721.581 -1650.994)" fill="#fff" font-size="56" font-family="AvertaStdCY-Bold, Averta Std CY" font-weight="700"><tspan x="0" y="0">CARING</tspan></text>
      <line id="Line_241" data-name="Line 241" y2="38.812" transform="translate(699.081 -1690.494)" fill="none" stroke="#fff" stroke-linecap="round" stroke-miterlimit="10" stroke-width="2.534"/>
      <g id="Group_10807" data-name="Group 10807" transform="translate(531.581 -1706.994)">
        <path id="Path_55419" data-name="Path 55419" d="M568.935-1659.859l22.429-46.022H575.035l-13.537,31.2h-.149l-13.4-31.2H532.067l24.912,51.9a69.041,69.041,0,0,1,11.956-5.876m37.871-7.642c12.378.436,27.686,5.331,38.9,7.49a38,38,0,0,0,7.435,1.01c4.649.133,24.169-1.01,24.169-17.826,0-13.532-23.151-11.656-31.6-14.808-1.9-.732-3.068-1.735-3.068-3.171,0-2.151,1.171-3.445,3.068-4.319a17.579,17.579,0,0,1,5.678-.865c5.686,0,8.747,2.167,9.178,6.62h15.153c-.725-10.073-11.792-13.8-22.735-13.8a55.562,55.562,0,0,0-7.274.43c-9.326,1-14.289,4.165-16.614,7.618v-6.756H613.941v25.457c0,7.761-2.473,10.356-10.208,10.356-7.863,0-10.192-2.595-10.192-10.356v-18.7l-13.979,28.184c0,2.872,1.453,5.025,5.1,6.613a62.385,62.385,0,0,1,22.144-3.173m22.284-19.82c3.066,4.731,9.906,6.309,16.614,7.173,8.3,1.3,16.454,1.58,16.454,6.19,0,3.155-2.915,5.03-9.753,5.03a20.86,20.86,0,0,1-6.7-.877,5.936,5.936,0,0,1-4.367-6.178H629.09Z" transform="translate(-532.067 1707.173)" fill="#fff"/>
        <path id="Path_55420" data-name="Path 55420" d="M663.334-1655.992c-21.277,8.628-67.02-30.625-115.534,19.4h18.065c30.731-35.5,64.542-13.79,88.728-14.8a21.789,21.789,0,0,0,16.9-9.343,25.447,25.447,0,0,1-8.157,4.745m-85.959,19.4h16.3c1.908-3.736,10.056-14.8,42.989-13.226,9.47.44,10.492,0,10.492,0s-4.654-.423-8.585-1.146c-40.8-7.328-57.4,9.632-61.2,14.372m26.511,0h15.3c2.188-8.752,22.874-11.067,22.874-11.067s-27.247-1.287-38.171,11.067" transform="translate(-532.067 1707.173)" fill="#fff" fill-rule="evenodd"/>
      </g>
    </g>
  </g>
</svg>
