<svg xmlns="http://www.w3.org/2000/svg" xmlns:xlink="http://www.w3.org/1999/xlink" width="112.921" height="112.921" viewBox="0 0 112.921 112.921">
  <defs>
    <filter id="Ellipse_198" x="0" y="0" width="112.921" height="112.921" filterUnits="userSpaceOnUse">
      <feOffset dy="3" input="SourceAlpha"/>
      <feGaussianBlur stdDeviation="3" result="blur"/>
      <feFlood flood-opacity="0.161"/>
      <feComposite operator="in" in2="blur"/>
      <feComposite in="SourceGraphic"/>
    </filter>
  </defs>
  <g id="Group_2361" data-name="Group 2361" transform="translate(9 6)">
    <g transform="matrix(1, 0, 0, 1, -9, -6)" filter="url(#Ellipse_198)">
      <g id="Ellipse_198-2" data-name="Ellipse 198" transform="translate(9 6)" fill="#f8f8f8" stroke="#fff" stroke-width="3">
        <circle cx="47.461" cy="47.461" r="47.461" stroke="none"/>
        <circle cx="47.461" cy="47.461" r="45.961" fill="none"/>
      </g>
    </g>
    <g id="flat" transform="translate(24 25)">
      <path id="Path_5341" data-name="Path 5341" d="M47.611,137.315l-6.3,6.3-.282-1.412a8.034,8.034,0,0,0-7.878-6.459h0a3.912,3.912,0,0,1-3.882-4.4h0a3.912,3.912,0,0,0-1.116-3.252L24,123.935l1.872-1.07a8.274,8.274,0,0,1,7.466-.377h0a8.274,8.274,0,0,0,6.543.077L46.037,120h7.87v17.315Z" transform="translate(-24 -110.556)" fill="#4976f2"/>
      <path id="Path_5342" data-name="Path 5342" d="M213.448,53.759l7.8-1.734,2.543-2.179,2.337,2.337-2.519,3.778-4.722,2.361-3.148,9.444h-7.87L206.3,62.257l-2.361,3.148,1.514.908-1.4,2.8L200,67.766V63.831l4.722-7.083,5.509-2.361Z" transform="translate(-182.685 -47.303)" fill="#548aff"/>
      <path id="Path_5343" data-name="Path 5343" d="M300.722,34.361v-.549A1.812,1.812,0,0,0,297.9,32.3l-1.9,1.27v.787Z" transform="translate(-269.241 -31.213)" fill="#b1712c"/>
      <path id="Path_5344" data-name="Path 5344" d="M296,56v2.6a2.361,2.361,0,1,0,4.722,0V56Z" transform="translate(-269.241 -52.852)" fill="#ffceb6"/>
      <path id="Path_5345" data-name="Path 5345" d="M229.509,232l-1.574,4.722v3.935L224,257.185h2.361l7.083-18.1,5.509,18.1h2.361L237.38,232Z" transform="translate(-204.324 -211.537)" fill="#718799"/>
      <path id="Path_5346" data-name="Path 5346" d="M259.2,101.379l2.833,2.833,1.574-.787-.889-3.554Z" transform="translate(-236.061 -92.407)" fill="#4976f2"/>
      <path id="Path_5347" data-name="Path 5347" d="M344,79.986l2.361,3.148,1.574-.787V79.111Z" transform="translate(-312.519 -73.689)" fill="#4976f2"/>
      <path id="Path_5348" data-name="Path 5348" d="M0,0H2.156V1.574H0Z" transform="translate(0.394 8.759) rotate(-29.745)" fill="#d1e4ff"/>
      <path id="Path_5349" data-name="Path 5349" d="M78.984,93.062a9.069,9.069,0,0,1-3.681-.778,7.52,7.52,0,0,0-4.889-.414l-.388-1.525a9.1,9.1,0,0,1,5.916.5,7.517,7.517,0,0,0,5.921.069l.647-.27.605,1.453-.647.27A9.063,9.063,0,0,1,78.984,93.062Z" transform="translate(-65.498 -83.567)" fill="#d1e4ff"/>
      <g id="Group_2342" data-name="Group 2342" transform="translate(21.362)">
        <path id="Path_5350" data-name="Path 5350" d="M242.544,217.231l-1.4,2.8,3.036,1.012.787-2.361Z" transform="translate(-241.143 -198.221)" fill="#ffceb6"/>
        <path id="Path_5351" data-name="Path 5351" d="M444.183,28.88l-2.337-2.337L444.813,24l1.574,1.574Z" transform="translate(-422.101 -24)" fill="#ffceb6"/>
      </g>
    </g>
  </g>
</svg>
