<svg xmlns="http://www.w3.org/2000/svg" width="20.175" height="20.22" viewBox="0 0 20.175 20.22">
  <g id="Group_9837" data-name="Group 9837" transform="translate(-386.617 -316.487)">
    <path id="Path_13154" data-name="Path 13154" d="M168.936,208.238c0,4.7-3.953,11.787-9.566,11.787s-8.37-1.847-8.37-6.548S153.757,203,159.37,203,168.936,203.537,168.936,208.238Z" transform="translate(237.856 113.487)" fill="#d8d8d8"/>
    <rect id="Rectangle_55" data-name="Rectangle 55" width="18" height="18" transform="translate(405.324 318) rotate(90)" fill="none" stroke="#000" stroke-linecap="round" stroke-linejoin="round" stroke-width="1"/>
    <path id="Path_13156" data-name="Path 13156" d="M146,212l4-4,11,11" transform="translate(241.324 117)" fill="none" stroke="#000" stroke-linecap="round" stroke-width="1"/>
    <path id="Path_13157" data-name="Path 13157" d="M156.5,208a2.5,2.5,0,1,0-2.5-2.5A2.5,2.5,0,0,0,156.5,208Z" transform="translate(241.324 117)" fill="none" stroke="#000" stroke-width="1" fill-rule="evenodd"/>
    <path id="Path_13158" data-name="Path 13158" d="M156.5,214.5,164,207" transform="translate(241.324 117)" fill="none" stroke="#000" stroke-width="1"/>
  </g>
</svg>
